<?xml version="1.0" encoding="UTF-8" standalone="no"?>
<!-- Created with Inkscape (http://www.inkscape.org/) -->

<svg
   xmlns:dc="http://purl.org/dc/elements/1.1/"
   xmlns:cc="http://creativecommons.org/ns#"
   xmlns:rdf="http://www.w3.org/1999/02/22-rdf-syntax-ns#"
   xmlns:svg="http://www.w3.org/2000/svg"
   xmlns="http://www.w3.org/2000/svg"
   xmlns:sodipodi="http://sodipodi.sourceforge.net/DTD/sodipodi-0.dtd"
   xmlns:inkscape="http://www.inkscape.org/namespaces/inkscape"
   width="32px"
   height="32px"
   id="svg2998"
   version="1.1"
   inkscape:version="0.47 r22583"
   sodipodi:docname="Nouveau document 7">
  <defs
     id="defs3000">
    <inkscape:perspective
       sodipodi:type="inkscape:persp3d"
       inkscape:vp_x="0 : 16 : 1"
       inkscape:vp_y="0 : 1000 : 0"
       inkscape:vp_z="32 : 16 : 1"
       inkscape:persp3d-origin="16 : 10.666667 : 1"
       id="perspective3006" />
    <inkscape:perspective
       id="perspective2991"
       inkscape:persp3d-origin="0.5 : 0.33333333 : 1"
       inkscape:vp_z="1 : 0.5 : 1"
       inkscape:vp_y="0 : 1000 : 0"
       inkscape:vp_x="0 : 0.5 : 1"
       sodipodi:type="inkscape:persp3d" />
  </defs>
  <sodipodi:namedview
     id="base"
     pagecolor="#ffffff"
     bordercolor="#666666"
     borderopacity="1.0"
     inkscape:pageopacity="0.0"
     inkscape:pageshadow="2"
     inkscape:zoom="11.197802"
     inkscape:cx="16"
     inkscape:cy="16"
     inkscape:current-layer="layer1"
     showgrid="true"
     inkscape:grid-bbox="true"
     inkscape:document-units="px"
     inkscape:snap-global="false"
     inkscape:window-width="1280"
     inkscape:window-height="780"
     inkscape:window-x="-8"
     inkscape:window-y="-8"
     inkscape:window-maximized="1">
    <inkscape:grid
       type="xygrid"
       id="grid3008" />
  </sodipodi:namedview>
  <metadata
     id="metadata3003">
    <rdf:RDF>
      <cc:Work
         rdf:about="">
        <dc:format>image/svg+xml</dc:format>
        <dc:type
           rdf:resource="http://purl.org/dc/dcmitype/StillImage" />
        <dc:title></dc:title>
      </cc:Work>
    </rdf:RDF>
  </metadata>
  <g
     id="layer1"
     inkscape:label="Layer 1"
     inkscape:groupmode="layer">
    <path
       style="fill:#000000"
       d="m 0.12023782,27.517715 c 1.53378378,-0.01035 3.06756948,-0.02085 4.60135328,-0.03128 -1.6080243,-2.595318 -3.1866663,-5.216268 -4.66503354,-7.88253 0.89800092,0.09125 1.76586254,1.752629 2.46743494,2.601602 1.3249408,1.920842 2.5785748,3.896966 3.6303667,5.975868 -1.1311871,0.338624 -2.4545583,0.02267 -3.6654175,0.128415 -0.7768088,-2.66e-4 -1.55361755,-5.3e-4 -2.3304264,-7.95e-4 -0.0127472,-0.263761 -0.0255143,-0.52752 -0.0382815,-0.79128 z M 12.711856,24.535819 c -0.698663,-1.425454 -1.494744,-2.826098 -1.975883,-4.339131 1.172669,-0.597299 2.646429,-0.418418 3.952694,-0.517837 1.586679,0.02915 3.22913,-0.05075 4.759516,0.413272 0.01892,1.162512 -0.901596,2.319332 -1.358915,3.429316 -0.874454,1.617784 -1.689528,3.28995 -2.824301,4.751061 -1.060691,-0.450281 -1.553753,-2.140525 -2.248045,-3.157163 -0.103073,-0.192465 -0.20475,-0.385655 -0.305066,-0.579518 z m 4.234552,-1.002666 c 0.487893,-0.96425 0.975786,-1.928501 1.463679,-2.892752 -2.182065,0 -4.364129,0 -6.546194,0 1.027759,1.922743 1.846016,3.97796 3.173772,5.726463 0.903969,-0.438487 1.327965,-1.937801 1.908743,-2.833711 z m 11.428287,4.098059 c 0.480416,-1.73323 1.577618,-3.220841 2.246264,-4.887363 0.452767,-0.975475 0.905532,-1.95095 1.358298,-2.926428 0.04083,0.653171 0.0017,1.292625 -0.306329,1.885922 -0.683271,1.865642 -1.366543,3.731284 -2.049815,5.596926 0.784882,0.023 1.569766,0.04599 2.354649,0.06899 0.0063,0.494625 0.172128,1.143066 -0.567533,0.91756 -1.023824,8.22e-4 -2.046883,0.04079 -3.070197,0.06764 0.01156,-0.241083 0.02306,-0.48218 0.03466,-0.723255 z M 0.1995135,11.157284 C 1.459555,9.6181124 2.7839519,8.1028424 3.6213597,6.2909915 4.00279,5.5779471 4.3842203,4.8649027 4.7656506,4.1518572 3.2293931,4.1848669 1.6931356,4.2178765 0.15687808,4.2508862 0.15653948,3.7552126 -0.00891529,3.0998073 0.73158988,3.3208268 2.1468405,3.3326606 3.5658576,3.2101496 4.9770212,3.2963371 6.5153602,3.8717428 4.9517658,5.7045569 4.6017494,6.7155629 3.8605472,8.5772251 2.2327268,9.853019 1.0302968,11.416294 c -0.43774911,0.584067 -1.23775182,1.892269 -0.88371607,0.31743 l 0.0257334,-0.268805 0.0272074,-0.307635 z m 11.5144625,0.284319 c 0.675711,-2.1694122 1.897238,-4.1414313 2.98672,-6.1341303 0.519071,-0.8482515 1.422419,-3.0024768 2.144877,-1.1223816 1.366877,2.2528288 2.682399,4.5622613 3.626249,7.0192919 -0.521087,1.014538 -2.551701,0.553866 -3.688919,0.751732 -1.659446,-0.02044 -3.37653,0.06733 -4.979101,-0.409947 l -0.08983,-0.10457 0,0 z M 17.924411,8.1051408 C 17.314636,7.3442184 16.84482,5.149517 15.865255,5.4406458 c -1.211132,1.7384111 -2.041969,3.6919043 -3.023359,5.5572452 2.182065,0 4.364131,0 6.546195,0 -0.487893,-0.964248 -0.975786,-1.9284993 -1.46368,-2.8927502 z m 11.601164,-1.38238 C 29.327853,5.782742 27.538594,3.7651505 29.116568,3.3529954 c 0.955495,0.014489 1.911147,-0.019215 2.866786,-0.047173 -0.120861,0.4305601 0.05676,1.1977137 -0.642401,0.976118 -0.657451,0.00781 -1.314904,0.015622 -1.972357,0.023421 0.358439,1.1967338 0.86744,2.3314986 1.476129,3.4252337 0.332806,0.7497175 0.850521,1.4554195 1.064352,2.23346 -0.05316,0.2685279 0.139761,1.4963179 -0.100283,1.0361949 C 31.047681,9.5744719 30.286833,8.1482854 29.525575,6.7227608 z"
       id="path2828" />
  </g>
</svg>
