<?xml version="1.0" encoding="UTF-8" standalone="no"?>
<!-- Created with Inkscape (http://www.inkscape.org/) -->

<svg
   xmlns:dc="http://purl.org/dc/elements/1.1/"
   xmlns:cc="http://creativecommons.org/ns#"
   xmlns:rdf="http://www.w3.org/1999/02/22-rdf-syntax-ns#"
   xmlns:svg="http://www.w3.org/2000/svg"
   xmlns="http://www.w3.org/2000/svg"
   xmlns:sodipodi="http://sodipodi.sourceforge.net/DTD/sodipodi-0.dtd"
   xmlns:inkscape="http://www.inkscape.org/namespaces/inkscape"
   width="32px"
   height="32px"
   id="svg5365"
   version="1.1"
   inkscape:version="0.47 r22583"
   sodipodi:docname="Nouveau document 23">
  <defs
     id="defs5367">
    <inkscape:perspective
       sodipodi:type="inkscape:persp3d"
       inkscape:vp_x="0 : 16 : 1"
       inkscape:vp_y="0 : 1000 : 0"
       inkscape:vp_z="32 : 16 : 1"
       inkscape:persp3d-origin="16 : 10.666667 : 1"
       id="perspective5373" />
    <inkscape:perspective
       id="perspective5360"
       inkscape:persp3d-origin="0.5 : 0.33333333 : 1"
       inkscape:vp_z="1 : 0.5 : 1"
       inkscape:vp_y="0 : 1000 : 0"
       inkscape:vp_x="0 : 0.5 : 1"
       sodipodi:type="inkscape:persp3d" />
  </defs>
  <sodipodi:namedview
     id="base"
     pagecolor="#ffffff"
     bordercolor="#666666"
     borderopacity="1.0"
     inkscape:pageopacity="0.0"
     inkscape:pageshadow="2"
     inkscape:zoom="34.680857"
     inkscape:cx="-10.992527"
     inkscape:cy="18.234506"
     inkscape:current-layer="layer1"
     showgrid="true"
     inkscape:grid-bbox="true"
     inkscape:document-units="px"
     inkscape:snap-global="false"
     inkscape:window-width="1280"
     inkscape:window-height="780"
     inkscape:window-x="-8"
     inkscape:window-y="-8"
     inkscape:window-maximized="1">
    <inkscape:grid
       type="xygrid"
       id="grid5375" />
  </sodipodi:namedview>
  <metadata
     id="metadata5370">
    <rdf:RDF>
      <cc:Work
         rdf:about="">
        <dc:format>image/svg+xml</dc:format>
        <dc:type
           rdf:resource="http://purl.org/dc/dcmitype/StillImage" />
        <dc:title></dc:title>
      </cc:Work>
    </rdf:RDF>
  </metadata>
  <g
     id="layer1"
     inkscape:label="Layer 1"
     inkscape:groupmode="layer">
    <path
       style="fill:#000000"
       d="m 8.0105502,27.694218 c -2.6275937,-0.01244 -5.2551853,-0.02505 -7.88277692,-0.03758 -0.4621075,-1.207299 1.00138452,-0.634711 1.70155522,-0.767684 3.8814499,-0.01906 7.7628999,-0.0382 11.6443515,-0.05728 3.336125,-3.426478 6.672251,-6.852955 10.008375,-10.279433 -5.071013,0 -10.142024,0 -15.2130367,0 C 5.5911504,19.488175 2.9132805,22.424117 0.23541261,25.360061 -0.0694942,24.63642 1.1863542,24.091997 1.5266869,23.442449 3.6102663,21.131283 5.6938436,18.820118 7.777423,16.508951 c -2.5662604,0.0017 -5.1325229,0.0034 -7.69878335,0.005 C -0.22076279,15.391231 1.3135751,16.060292 1.964809,15.866453 5.9716845,15.821506 9.978562,15.776549 13.985438,15.731598 16.968369,12.66881 19.9513,9.6060221 22.934232,6.5432345 18.030844,6.5131972 13.127454,6.483136 8.2240657,6.4530769 5.5072174,9.3850245 2.7903691,12.316973 0.07352286,15.24892 0.37353579,14.439022 1.2668894,13.850447 1.7950794,13.125663 3.7891932,10.902071 5.7833071,8.678478 7.777421,6.4548858 5.2086463,6.4402395 2.6398717,6.4256031 0.071095,6.4109627 -0.1025505,5.384664 1.4510898,6.0811766 2.1004962,5.8757993 6.0279069,5.8698614 9.9553176,5.8639225 13.882728,5.8580036 15.927418,3.9178304 17.972109,1.9776574 20.016798,0.03748456 20.807605,0.23361337 19.109643,1.12287 18.822741,1.619143 c -1.502416,1.4231802 -3.00483,2.8463604 -4.507244,4.2695405 5.864406,0.033376 11.728812,0.066753 17.593219,0.100129 0.1379,0.9995631 -1.395669,0.3094299 -2.038227,0.5200241 -2.189215,0.011457 -4.378431,0.022952 -6.567648,0.034429 -2.982931,3.0627879 -5.965863,6.1255756 -8.948796,9.1883636 5.881478,0.05646 11.762956,0.112911 17.644432,0.169366 0.308033,1.205856 -1.096505,0.573077 -1.793947,0.699444 -2.090447,-0.04319 -4.180895,-0.08637 -6.271342,-0.129551 -3.358666,3.437867 -6.717334,6.875731 -10.076,10.313594 6.047141,-0.01584 12.09428,-0.03168 18.141421,-0.04754 0.291326,1.221087 -1.078407,0.659082 -1.81205,0.779901 -1.951216,0 -3.902433,2e-6 -5.853649,2e-6 -1.240203,1.502159 -2.480403,3.004319 -3.720606,4.506478 -0.809806,-0.02593 0.779525,-1.162823 1.00776,-1.669438 0.795237,-0.945661 1.590474,-1.891327 2.385711,-2.836992 -5.167925,0.0451 -10.335851,0.09017 -15.5037761,0.135268 -1.2851756,1.457068 -2.5703511,2.91414 -3.8555266,4.37121 -0.6008432,-0.0058 0.8686552,-1.160595 1.0958624,-1.625941 0.7560477,-0.901081 1.5122842,-1.802268 2.2682155,-2.703284 z M 0.11624444,3.6009555 C 1.2969214,2.6169706 3.4372011,0.16808535 4.0830271,0.02973784 2.8140574,1.1272012 1.2242722,2.8715617 0.11624444,3.6009555 z"
       id="path4342" />
  </g>
</svg>
