<?xml version="1.0" encoding="UTF-8" standalone="no"?>
<!-- Created with Inkscape (http://www.inkscape.org/) -->

<svg
   xmlns:dc="http://purl.org/dc/elements/1.1/"
   xmlns:cc="http://creativecommons.org/ns#"
   xmlns:rdf="http://www.w3.org/1999/02/22-rdf-syntax-ns#"
   xmlns:svg="http://www.w3.org/2000/svg"
   xmlns="http://www.w3.org/2000/svg"
   xmlns:sodipodi="http://sodipodi.sourceforge.net/DTD/sodipodi-0.dtd"
   xmlns:inkscape="http://www.inkscape.org/namespaces/inkscape"
   width="32px"
   height="32px"
   id="svg8478"
   version="1.1"
   inkscape:version="0.47 r22583"
   sodipodi:docname="Nouveau document 40">
  <defs
     id="defs8480">
    <inkscape:perspective
       sodipodi:type="inkscape:persp3d"
       inkscape:vp_x="0 : 16 : 1"
       inkscape:vp_y="0 : 1000 : 0"
       inkscape:vp_z="32 : 16 : 1"
       inkscape:persp3d-origin="16 : 10.666667 : 1"
       id="perspective8486" />
    <inkscape:perspective
       id="perspective8460"
       inkscape:persp3d-origin="0.5 : 0.33333333 : 1"
       inkscape:vp_z="1 : 0.5 : 1"
       inkscape:vp_y="0 : 1000 : 0"
       inkscape:vp_x="0 : 0.5 : 1"
       sodipodi:type="inkscape:persp3d" />
  </defs>
  <sodipodi:namedview
     id="base"
     pagecolor="#ffffff"
     bordercolor="#666666"
     borderopacity="1.0"
     inkscape:pageopacity="0.0"
     inkscape:pageshadow="2"
     inkscape:zoom="59.228192"
     inkscape:cx="20.6106"
     inkscape:cy="29.847854"
     inkscape:current-layer="layer1"
     showgrid="true"
     inkscape:grid-bbox="true"
     inkscape:document-units="px"
     inkscape:snap-global="false"
     inkscape:window-width="1280"
     inkscape:window-height="998"
     inkscape:window-x="-4"
     inkscape:window-y="-4"
     inkscape:window-maximized="1">
    <inkscape:grid
       type="xygrid"
       id="grid8488" />
  </sodipodi:namedview>
  <metadata
     id="metadata8483">
    <rdf:RDF>
      <cc:Work
         rdf:about="">
        <dc:format>image/svg+xml</dc:format>
        <dc:type
           rdf:resource="http://purl.org/dc/dcmitype/StillImage" />
        <dc:title></dc:title>
      </cc:Work>
    </rdf:RDF>
  </metadata>
  <g
     id="layer1"
     inkscape:label="Layer 1"
     inkscape:groupmode="layer">
    <g
       transform="matrix(1.9995625,0,0,2.0027196,-0.04289255,-0.11247363)"
       id="g3973">
      <path
         style="fill:#000000;fill-opacity:1;stroke:none"
         d="m 1.0283607,0.63160764 c 1.3505063,0 2.7069826,0 4.0574889,0 0,1.34957986 0,2.63818856 0,3.98776836 -1.3505063,0 -2.7010126,0 -4.0515189,0 0,-1.3495798 -0.00597,-2.6381885 -0.00597,-3.98776836 z"
         id="rect2978"
         sodipodi:nodetypes="ccccc" />
      <path
         style="fill:#000000;fill-opacity:1;stroke:none"
         d="m 9.2842569,0.631267 c 1.3505061,0 2.7010131,0 4.0515191,0 0,1.3495798 0,2.614855 0,3.9644348 -1.350506,0 -2.701013,0 -4.0515191,0 0,-1.3495798 0,-2.614855 0,-3.9644348 z"
         id="rect2978-7"
         sodipodi:nodetypes="ccccc" />
      <path
         style="fill:#000000;fill-opacity:1;stroke:none"
         d="m 5.1944461,4.680624 c 1.3681424,0 2.7362849,0 4.1044273,0 0,1.3848521 0,2.7697042 0,4.1545563 -1.3681424,0 -2.7362849,0 -4.1044273,0 0,-1.3848521 0,-2.7697042 0,-4.1545563 z"
         id="rect2978-0" />
      <path
         style="fill:#000000;fill-opacity:1;stroke:none"
         d="m 1.048948,9.2110987 c 1.3593245,0 2.718649,0 4.0779734,0 0,1.2173093 0,2.4346183 0,3.6519273 -1.3593244,0 -2.7186489,0 -4.0779734,0 0,-1.217309 0,-2.434618 0,-3.6519273 z"
         id="rect2978-4" />
      <path
         style="fill:#000000;fill-opacity:1;stroke:none"
         d="m 13.391464,4.6513901 c 0.877829,0 1.755659,0 2.633488,0 0,1.3632701 0,2.7265402 0,4.0898103 -0.877829,0 -1.755659,0 -2.633488,0 0,-1.3632701 0,-2.7265402 0,-4.0898103 z"
         id="rect3823" />
      <path
         style="fill:#000000;fill-opacity:1;stroke:none"
         d="m 13.391464,12.792719 c 0.877829,0 1.755659,0 2.633488,0 0,1.080405 0,2.16081 0,3.241215 -0.877829,0 -1.755659,0 -2.633488,0 0,-1.080405 0,-2.16081 0,-3.241215 z"
         id="rect3838" />
      <path
         style="fill:#000000;fill-opacity:1;stroke:none"
         d="m 5.1533756,12.860245 c 1.3730148,0 2.7460296,0 4.1190443,0 0,1.057896 0,2.115793 0,3.17369 -1.3730147,0 -2.7460295,0 -4.1190443,0 0,-1.057897 0,-2.115794 0,-3.17369 z"
         id="rect3840" />
      <path
         style="fill:#000000;fill-opacity:1;stroke:none"
         d="m 0.02145097,12.883112 c 0.32626776,0 0.65253552,0 0.97880323,0 0,1.067943 0,2.135886 0,3.203829 -0.32626771,0 -0.65253547,0 -0.97880323,0 0,-1.067943 0,-2.135886 0,-3.203829 z"
         id="rect3842" />
      <path
         style="fill:#000000;fill-opacity:1;stroke:none"
         d="m 0.02145097,4.6294193 c 0.33508583,0 0.67017166,0 1.00525753,0 0,1.4020696 0,2.8041392 0,4.2062087 -0.33508587,0 -0.6701717,0 -1.00525753,0 0,-1.4020695 0,-2.8041391 0,-4.2062087 z"
         id="rect3844" />
      <path
         style="fill:#000000;fill-opacity:1;stroke:none"
         d="m 9.2783833,9.2582664 c 1.3593247,0 2.7186487,0 4.0779737,0 0,1.2173096 0,2.4346186 0,3.6519276 -1.359325,0 -2.718649,0 -4.0779737,0 0,-1.217309 0,-2.434618 0,-3.6519276 z"
         id="rect2978-4-2" />
      <path
         style="fill:#000000;fill-opacity:1;stroke:none"
         d="m 0.02145097,0.05620482 c 0.32626776,0 0.67641812,0 1.00268583,0 0.00164,0.49261603 0.0053,0.4983849 -0.00747,0.50523789 -0.00756,0.00406 -0.9880879,0.002736 -0.99223081,-0.002845 0,-0.005517 -0.0029853,-0.38659272 -0.0029853,-0.502393 z"
         id="rect3868"
         sodipodi:nodetypes="ccscc" />
      <path
         style="fill:#000000;fill-opacity:1;stroke:none"
         d="m 5.077457,0.06052428 c 1.3844336,0 2.8185106,0 4.2029442,0 0.011458,0.0010187 0.016974,0.49495719 0.016974,0.49495719 -1.3087327,0 -2.911186,10e-9 -4.2199187,10e-9 0,-0.16498574 0,-0.32997147 0,-0.4949572 z"
         id="rect3870"
         sodipodi:nodetypes="ccccc" />
      <path
         style="fill:#000000;fill-opacity:1;stroke:none"
         d="m 13.350527,0.05992828 c 0.864168,0 1.814911,-0.0029806 2.679079,-0.0029806 0.0052,0.0096141 9.17e-4,0.49608562 -0.0032,0.49294399 -0.788468,0 -1.893381,0.002981 -2.681848,0.002981 0,-0.18517899 0.006,-0.30776501 0.006,-0.492944 z"
         id="rect3872"
         sodipodi:nodetypes="ccccc" />
    </g>
  </g>
</svg>
