<?xml version="1.0" encoding="UTF-8" standalone="no"?>
<!-- Created with Inkscape (http://www.inkscape.org/) -->

<svg
   xmlns:dc="http://purl.org/dc/elements/1.1/"
   xmlns:cc="http://creativecommons.org/ns#"
   xmlns:rdf="http://www.w3.org/1999/02/22-rdf-syntax-ns#"
   xmlns:svg="http://www.w3.org/2000/svg"
   xmlns="http://www.w3.org/2000/svg"
   xmlns:sodipodi="http://sodipodi.sourceforge.net/DTD/sodipodi-0.dtd"
   xmlns:inkscape="http://www.inkscape.org/namespaces/inkscape"
   width="16"
   height="16"
   id="svg2"
   version="1.1"
   inkscape:version="0.47 r22583"
   sodipodi:docname="AMBU-64.svg">
  <defs
     id="defs4">
    <inkscape:perspective
       sodipodi:type="inkscape:persp3d"
       inkscape:vp_x="0 : 526.18109 : 1"
       inkscape:vp_y="0 : 1000 : 0"
       inkscape:vp_z="744.09448 : 526.18109 : 1"
       inkscape:persp3d-origin="372.04724 : 350.78739 : 1"
       id="perspective10" />
    <inkscape:perspective
       id="perspective2824"
       inkscape:persp3d-origin="0.5 : 0.33333333 : 1"
       inkscape:vp_z="1 : 0.5 : 1"
       inkscape:vp_y="0 : 1000 : 0"
       inkscape:vp_x="0 : 0.5 : 1"
       sodipodi:type="inkscape:persp3d" />
    <inkscape:perspective
       id="perspective5878"
       inkscape:persp3d-origin="0.5 : 0.33333333 : 1"
       inkscape:vp_z="1 : 0.5 : 1"
       inkscape:vp_y="0 : 1000 : 0"
       inkscape:vp_x="0 : 0.5 : 1"
       sodipodi:type="inkscape:persp3d" />
    <inkscape:perspective
       id="perspective5921"
       inkscape:persp3d-origin="0.5 : 0.33333333 : 1"
       inkscape:vp_z="1 : 0.5 : 1"
       inkscape:vp_y="0 : 1000 : 0"
       inkscape:vp_x="0 : 0.5 : 1"
       sodipodi:type="inkscape:persp3d" />
    <inkscape:perspective
       id="perspective5943"
       inkscape:persp3d-origin="0.5 : 0.33333333 : 1"
       inkscape:vp_z="1 : 0.5 : 1"
       inkscape:vp_y="0 : 1000 : 0"
       inkscape:vp_x="0 : 0.5 : 1"
       sodipodi:type="inkscape:persp3d" />
    <inkscape:perspective
       id="perspective5989"
       inkscape:persp3d-origin="0.5 : 0.33333333 : 1"
       inkscape:vp_z="1 : 0.5 : 1"
       inkscape:vp_y="0 : 1000 : 0"
       inkscape:vp_x="0 : 0.5 : 1"
       sodipodi:type="inkscape:persp3d" />
    <inkscape:perspective
       id="perspective6011"
       inkscape:persp3d-origin="0.5 : 0.33333333 : 1"
       inkscape:vp_z="1 : 0.5 : 1"
       inkscape:vp_y="0 : 1000 : 0"
       inkscape:vp_x="0 : 0.5 : 1"
       sodipodi:type="inkscape:persp3d" />
    <inkscape:perspective
       id="perspective6033"
       inkscape:persp3d-origin="0.5 : 0.33333333 : 1"
       inkscape:vp_z="1 : 0.5 : 1"
       inkscape:vp_y="0 : 1000 : 0"
       inkscape:vp_x="0 : 0.5 : 1"
       sodipodi:type="inkscape:persp3d" />
    <inkscape:perspective
       id="perspective6245"
       inkscape:persp3d-origin="0.5 : 0.33333333 : 1"
       inkscape:vp_z="1 : 0.5 : 1"
       inkscape:vp_y="0 : 1000 : 0"
       inkscape:vp_x="0 : 0.5 : 1"
       sodipodi:type="inkscape:persp3d" />
    <inkscape:perspective
       id="perspective6269"
       inkscape:persp3d-origin="0.5 : 0.33333333 : 1"
       inkscape:vp_z="1 : 0.5 : 1"
       inkscape:vp_y="0 : 1000 : 0"
       inkscape:vp_x="0 : 0.5 : 1"
       sodipodi:type="inkscape:persp3d" />
    <inkscape:perspective
       id="perspective6364"
       inkscape:persp3d-origin="0.5 : 0.33333333 : 1"
       inkscape:vp_z="1 : 0.5 : 1"
       inkscape:vp_y="0 : 1000 : 0"
       inkscape:vp_x="0 : 0.5 : 1"
       sodipodi:type="inkscape:persp3d" />
    <inkscape:perspective
       id="perspective6396"
       inkscape:persp3d-origin="0.5 : 0.33333333 : 1"
       inkscape:vp_z="1 : 0.5 : 1"
       inkscape:vp_y="0 : 1000 : 0"
       inkscape:vp_x="0 : 0.5 : 1"
       sodipodi:type="inkscape:persp3d" />
    <inkscape:perspective
       id="perspective6438"
       inkscape:persp3d-origin="0.5 : 0.33333333 : 1"
       inkscape:vp_z="1 : 0.5 : 1"
       inkscape:vp_y="0 : 1000 : 0"
       inkscape:vp_x="0 : 0.5 : 1"
       sodipodi:type="inkscape:persp3d" />
    <inkscape:perspective
       id="perspective6460"
       inkscape:persp3d-origin="0.5 : 0.33333333 : 1"
       inkscape:vp_z="1 : 0.5 : 1"
       inkscape:vp_y="0 : 1000 : 0"
       inkscape:vp_x="0 : 0.5 : 1"
       sodipodi:type="inkscape:persp3d" />
    <inkscape:perspective
       id="perspective6480"
       inkscape:persp3d-origin="0.5 : 0.33333333 : 1"
       inkscape:vp_z="1 : 0.5 : 1"
       inkscape:vp_y="0 : 1000 : 0"
       inkscape:vp_x="0 : 0.5 : 1"
       sodipodi:type="inkscape:persp3d" />
    <inkscape:perspective
       id="perspective6504"
       inkscape:persp3d-origin="0.5 : 0.33333333 : 1"
       inkscape:vp_z="1 : 0.5 : 1"
       inkscape:vp_y="0 : 1000 : 0"
       inkscape:vp_x="0 : 0.5 : 1"
       sodipodi:type="inkscape:persp3d" />
    <inkscape:perspective
       id="perspective6524"
       inkscape:persp3d-origin="0.5 : 0.33333333 : 1"
       inkscape:vp_z="1 : 0.5 : 1"
       inkscape:vp_y="0 : 1000 : 0"
       inkscape:vp_x="0 : 0.5 : 1"
       sodipodi:type="inkscape:persp3d" />
    <inkscape:perspective
       id="perspective6548"
       inkscape:persp3d-origin="0.5 : 0.33333333 : 1"
       inkscape:vp_z="1 : 0.5 : 1"
       inkscape:vp_y="0 : 1000 : 0"
       inkscape:vp_x="0 : 0.5 : 1"
       sodipodi:type="inkscape:persp3d" />
    <inkscape:perspective
       id="perspective6572"
       inkscape:persp3d-origin="0.5 : 0.33333333 : 1"
       inkscape:vp_z="1 : 0.5 : 1"
       inkscape:vp_y="0 : 1000 : 0"
       inkscape:vp_x="0 : 0.5 : 1"
       sodipodi:type="inkscape:persp3d" />
    <inkscape:perspective
       id="perspective6594"
       inkscape:persp3d-origin="0.5 : 0.33333333 : 1"
       inkscape:vp_z="1 : 0.5 : 1"
       inkscape:vp_y="0 : 1000 : 0"
       inkscape:vp_x="0 : 0.5 : 1"
       sodipodi:type="inkscape:persp3d" />
    <inkscape:perspective
       id="perspective6614"
       inkscape:persp3d-origin="0.5 : 0.33333333 : 1"
       inkscape:vp_z="1 : 0.5 : 1"
       inkscape:vp_y="0 : 1000 : 0"
       inkscape:vp_x="0 : 0.5 : 1"
       sodipodi:type="inkscape:persp3d" />
    <inkscape:perspective
       id="perspective6650"
       inkscape:persp3d-origin="0.5 : 0.33333333 : 1"
       inkscape:vp_z="1 : 0.5 : 1"
       inkscape:vp_y="0 : 1000 : 0"
       inkscape:vp_x="0 : 0.5 : 1"
       sodipodi:type="inkscape:persp3d" />
    <inkscape:perspective
       id="perspective6676"
       inkscape:persp3d-origin="0.5 : 0.33333333 : 1"
       inkscape:vp_z="1 : 0.5 : 1"
       inkscape:vp_y="0 : 1000 : 0"
       inkscape:vp_x="0 : 0.5 : 1"
       sodipodi:type="inkscape:persp3d" />
    <inkscape:perspective
       id="perspective6710"
       inkscape:persp3d-origin="0.5 : 0.33333333 : 1"
       inkscape:vp_z="1 : 0.5 : 1"
       inkscape:vp_y="0 : 1000 : 0"
       inkscape:vp_x="0 : 0.5 : 1"
       sodipodi:type="inkscape:persp3d" />
    <inkscape:perspective
       id="perspective6748"
       inkscape:persp3d-origin="0.5 : 0.33333333 : 1"
       inkscape:vp_z="1 : 0.5 : 1"
       inkscape:vp_y="0 : 1000 : 0"
       inkscape:vp_x="0 : 0.5 : 1"
       sodipodi:type="inkscape:persp3d" />
  </defs>
  <sodipodi:namedview
     id="base"
     pagecolor="#ffffff"
     bordercolor="#666666"
     borderopacity="1.0"
     inkscape:pageopacity="0.0"
     inkscape:pageshadow="2"
     inkscape:zoom="8.671875"
     inkscape:cx="10.564203"
     inkscape:cy="2.743179"
     inkscape:document-units="px"
     inkscape:current-layer="layer1"
     showgrid="true"
     inkscape:window-width="1280"
     inkscape:window-height="780"
     inkscape:window-x="-8"
     inkscape:window-y="-8"
     inkscape:window-maximized="1">
    <inkscape:grid
       type="xygrid"
       id="grid6324"
       empspacing="5"
       visible="true"
       enabled="true"
       snapvisiblegridlinesonly="true" />
  </sodipodi:namedview>
  <metadata
     id="metadata7">
    <rdf:RDF>
      <cc:Work
         rdf:about="">
        <dc:format>image/svg+xml</dc:format>
        <dc:type
           rdf:resource="http://purl.org/dc/dcmitype/StillImage" />
        <dc:title></dc:title>
      </cc:Work>
    </rdf:RDF>
  </metadata>
  <g
     inkscape:label="Calque 1"
     inkscape:groupmode="layer"
     id="layer1"
     transform="translate(0,-1036.3622)">
    <g
       id="g6754"
       transform="translate(-0.396612,0.1221)">
      <path
         style="fill:#f9facc"
         d="m 3.2293424,1048.5795 -0.5552204,0 -0.445687,-0.4456 c -0.2451278,-0.2452 -0.5459666,-0.4457 -0.6685305,-0.4457 l -0.2228435,0 0,-2.2926 0,-2.2925 1.0661611,-1.0501 1.0661611,-1.0501 2.7221784,0 2.7221784,0 0,0.3342 0,0.3343 0.8836199,0 0.8836201,0 0.761414,0.6685 0.761414,0.6686 0.709473,0 0.709473,0 0.431036,0.2306 0.431038,0.2307 0,0.6656 0,0.6656 -0.654555,1.4436 -0.654555,1.4436 -0.656516,0 -0.656515,0 -0.11655,0.4457 -0.11655,0.4456 -0.798926,0 -0.798927,0 -0.278336,-0.4456 -0.2783362,-0.4457 -2.5669133,0 -2.5669133,0 -0.2783362,0.4457 -0.2783363,0.4456 -0.5552203,0 z"
         id="path6776" />
      <path
         style="fill:#f5908d"
         d="m 3.2293424,1048.5795 -0.5552204,0 -0.445687,-0.4456 c -0.2451278,-0.2452 -0.5459666,-0.4457 -0.6685305,-0.4457 l -0.2228435,0 0,-2.2926 0,-2.2925 1.0661611,-1.0501 1.0661611,-1.0501 2.7221784,0 2.7221784,0 0,0.3342 0,0.3343 0.8836199,0 0.8836201,0 0.761414,0.6685 0.761414,0.6686 0.709473,0 0.709473,0 0.431036,0.2306 0.431038,0.2307 0,0.6656 0,0.6656 -0.654555,1.4436 -0.654555,1.4436 -0.656516,0 -0.656515,0 -0.11655,0.4457 -0.11655,0.4456 -0.798926,0 -0.798927,0 -0.278336,-0.4456 -0.2783362,-0.4457 -2.5669133,0 -2.5669133,0 -0.2783362,0.4457 -0.2783363,0.4456 -0.5552203,0 z m -0.1095334,-0.7037 0.5571088,0 -0.2785544,-0.1124 -0.2785544,-0.1124 -0.2785544,0.1124 -0.2785544,0.1124 0.5571088,0 z m 7.465257,-0.01 0.668531,-0.01 -0.394218,-0.1027 c -0.216819,-0.056 -0.517658,-0.053 -0.66853,0.01 l -0.2743132,0.111 0.6685302,-0.01 z m -7.9318066,-0.848 1.0933551,0 -0.1165498,-0.4457 -0.1165498,-0.4456 -0.4196964,0 -0.4196965,0 0,-0.6686 0,-0.6685 0.445687,0 0.445687,0 0,-0.4457 0,-0.4457 0.6685305,0 0.6685305,0 0,0.4457 0,0.4457 0.5571087,0 0.5571088,0 0,0.6685 0,0.6686 -0.5571088,0 -0.5571087,0 0,0.4456 0,0.4457 1.1142175,0 1.1142175,0 0,-1.6713 0,-1.6713 -2.7855438,0 -2.7855437,0 0,1.6713 0,1.6713 1.0933549,0 z"
         id="path6774" />
      <path
         style="fill:#aeb0b2"
         d="m 3.2293424,1048.5795 -0.5552204,0 -0.445687,-0.4456 c -0.2451278,-0.2452 -0.5459666,-0.4457 -0.6685305,-0.4457 l -0.2228435,0 0,-2.2926 0,-2.2925 1.0661611,-1.0501 1.0661611,-1.0501 2.7221784,0 2.7221784,0 0,0.3342 0,0.3343 0.8836199,0 0.8836201,0 0.761414,0.6685 0.761414,0.6686 0.709473,0 0.709473,0 0.431036,0.2306 0.431038,0.2307 0,0.6656 0,0.6656 -0.654555,1.4436 -0.654555,1.4436 -0.656516,0 -0.656515,0 -0.11655,0.4457 -0.11655,0.4456 -0.798926,0 -0.798927,0 -0.278336,-0.4456 -0.2783362,-0.4457 -2.5669133,0 -2.5669133,0 -0.2783362,0.4457 -0.2783363,0.4456 -0.5552203,0 z m -0.1095334,-0.7037 0.5571088,0 -0.2785544,-0.1124 -0.2785544,-0.1124 -0.2785544,0.1124 -0.2785544,0.1124 0.5571088,0 z m 7.465257,-0.01 0.668531,-0.01 -0.394218,-0.1027 c -0.216819,-0.056 -0.517658,-0.053 -0.66853,0.01 l -0.2743132,0.111 0.6685302,-0.01 z m -3.5097849,-0.6733 c 0.030641,0.026 0.055711,-0.7541 0.055711,-1.7346 l 0,-1.7827 -2.7855438,0 -2.7855437,0 0,1.6645 0,1.6644 2.7298329,0.07 c 1.5014081,0.039 2.7549027,0.092 2.7855437,0.1183 z m -2.8412546,-0.3975 -0.6685305,0 0,-0.3343 0,-0.3342 -0.3342652,0 -0.3342653,0 0,-0.6686 0,-0.6685 0.3342653,0 0.3342652,0 0,-0.4457 0,-0.4457 0.6685305,0 0.6685305,0 0,0.4457 0,0.4457 0.445687,0 0.445687,0 0,0.6685 0,0.6686 -0.445687,0 -0.445687,0 0,0.3342 0,0.3343 -0.6685305,0 z m 4.2471781,0.2228 0.681682,0 -0.1377248,-0.2228 -0.1377249,-0.2229 -0.5439572,0 -0.5439572,0 0,0.2229 0,0.2228 0.6816821,0 z m 1.4353312,0 c 0.061282,0 0.1114212,-0.05 0.1114212,-0.1114 0,-0.061 -0.050139,-0.1114 -0.1114212,-0.1114 -0.061282,0 -0.1114218,0.05 -0.1114218,0.1114 0,0.061 0.05014,0.1114 0.1114218,0.1114 z m 3.8066912,-1.6371 0.468494,-1.1484 -0.0917,-0.2566 -0.09171,-0.2566 -0.485983,-0.1303 c -0.26729,-0.072 -0.715175,-0.1317 -0.995299,-0.1334 l -0.509318,0 -0.437767,1.0213 c -0.240773,0.5617 -0.437768,1.0631 -0.437768,1.1142 0,0.051 0.23959,0.093 0.532421,0.093 l 0.532422,0 0.523857,0.4242 0.523857,0.4242 0.468495,-1.1485 z"
         id="path6772" />
      <path
         style="fill:#e48b78"
         d="m 3.2293424,1048.5795 -0.5552204,0 -0.445687,-0.4456 c -0.2451278,-0.2452 -0.5459666,-0.4457 -0.6685305,-0.4457 l -0.2228435,0 0,-2.2926 0,-2.2925 1.0661611,-1.0501 1.0661611,-1.0501 2.7221784,0 2.7221784,0 0,0.3342 0,0.3343 0.8836199,0 0.8836201,0 0.761414,0.6685 0.761414,0.6686 0.709473,0 0.709473,0 0.431036,0.2306 0.431038,0.2307 0,0.6656 0,0.6656 -0.654555,1.4436 -0.654555,1.4436 -0.656516,0 -0.656515,0 -0.11655,0.4457 -0.11655,0.4456 -0.798926,0 -0.798927,0 -0.278336,-0.4456 -0.2783362,-0.4457 -2.5669133,0 -2.5669133,0 -0.2783362,0.4457 -0.2783363,0.4456 -0.5552203,0 z M 3.119809,1048.127 c 0.061282,0 0.2618411,-0.097 0.445687,-0.216 l 0.3342653,-0.216 -0.7799523,0 -0.7799522,0 0.3342652,0.216 c 0.1838459,0.1188 0.384405,0.216 0.445687,0.216 z m 7.452106,0.01 0.543957,0 0.128208,-0.2075 0.128209,-0.2074 -0.228473,-0.1412 -0.228473,-0.1412 -0.443693,0.1408 -0.443693,0.1408 0,0.2078 0,0.2079 0.543958,0 z m -3.4966339,-0.9396 c 0.030641,0.026 0.055711,-0.7541 0.055711,-1.7346 l 0,-1.7827 -2.7855438,0 -2.7855437,0 0,1.6645 0,1.6644 2.7298329,0.07 c 1.5014081,0.039 2.7549027,0.092 2.7855437,0.1183 z m -2.8412546,-0.3975 -0.6685305,0 0,-0.3343 0,-0.3342 -0.3342652,0 -0.3342653,0 0,-0.6686 0,-0.6685 0.3342653,0 0.3342652,0 0,-0.4457 0,-0.4457 0.6685305,0 0.6685305,0 0,0.4457 0,0.4457 0.445687,0 0.445687,0 0,0.6685 0,0.6686 -0.445687,0 -0.445687,0 0,0.3342 0,0.3343 -0.6685305,0 z m 4.2471781,0.2228 0.681682,0 -0.1377248,-0.2228 -0.1377249,-0.2229 -0.5439572,0 -0.5439572,0 0,0.2229 0,0.2228 0.6816821,0 z m 1.4353312,0 c 0.061282,0 0.1114212,-0.05 0.1114212,-0.1114 0,-0.061 -0.050139,-0.1114 -0.1114212,-0.1114 -0.061282,0 -0.1114218,0.05 -0.1114218,0.1114 0,0.061 0.05014,0.1114 0.1114218,0.1114 z m 3.8066912,-1.6371 0.468494,-1.1484 -0.0917,-0.2566 -0.09171,-0.2566 -0.485983,-0.1303 c -0.26729,-0.072 -0.715175,-0.1317 -0.995299,-0.1334 l -0.509318,0 -0.437767,1.0213 c -0.240773,0.5617 -0.437768,1.0631 -0.437768,1.1142 0,0.051 0.23959,0.093 0.532421,0.093 l 0.532422,0 0.523857,0.4242 0.523857,0.4242 0.468495,-1.1485 z m -4.9209087,0.5229 1.0027957,0 0,-0.215 c 0,-0.1182 -0.1939665,-0.3188 -0.431037,-0.4457 -0.2370703,-0.1268 -0.6883284,-0.2307 -1.0027958,-0.2307 l -0.5717587,0 0,0.4457 0,0.4457 1.0027958,0 z m 1.9279377,-1.25 c 0.07985,-0.047 0.249259,-0.3848 0.376454,-0.7496 l 0.231264,-0.6634 -0.573639,-0.4513 c -0.315501,-0.2481 -0.652193,-0.4512 -0.748204,-0.4512 -0.096011,0 -0.3368953,0.062 -0.5352984,0.1384 l -0.3607328,0.1385 -0.3260234,0.6304 c -0.1793128,0.3468 -0.3260234,0.6637 -0.3260234,0.7044 0,0.041 0.2698107,0.096 0.5995794,0.1235 l 0.5995794,0.05 0.4589272,0.3084 c 0.25241,0.1697 0.524263,0.2697 0.604117,0.2223 z m -7.7697215,-1.4241 1.2682376,0 -0.053084,-0.4983 -0.053084,-0.4983 0.5013979,-0.2231 c 0.2757689,-0.1227 0.5013979,-0.2996 0.5013979,-0.3931 l 0,-0.17 -0.8461484,0 -0.8461483,0 -0.8704036,0.8914 -0.8704034,0.8914 1.2682377,0 z m 3.1119509,0 1.1699283,0 0.5013979,-0.7741 c 0.2757689,-0.4257 0.5013979,-0.8308 0.5013979,-0.9003 l 0,-0.1261 -1.1699284,0.067 -1.1699284,0.067 0.069749,0.5015 0.069749,0.5016 -0.5711465,0.2172 c -0.3141307,0.1194 -0.5711466,0.2697 -0.5711466,0.3341 0,0.064 0.5264678,0.1157 1.1699284,0.1141 z"
         id="path6770" />
      <path
         style="fill:#d66362"
         d="m 3.2293424,1048.5795 -0.5552204,0 -0.445687,-0.4456 c -0.2451278,-0.2452 -0.5459666,-0.4457 -0.6685305,-0.4457 l -0.2228435,0 0,-2.2926 0,-2.2925 1.0661611,-1.0501 1.0661611,-1.0501 2.7221784,0 2.7221784,0 0,0.3342 0,0.3343 0.8836199,0 0.8836201,0 0.761414,0.6685 0.761414,0.6686 0.709473,0 0.709473,0 0.431036,0.2306 0.431038,0.2307 0,0.6656 0,0.6656 -0.654555,1.4436 -0.654555,1.4436 -0.656516,0 -0.656515,0 -0.11655,0.4457 -0.11655,0.4456 -0.798926,0 -0.798927,0 -0.278336,-0.4456 -0.2783362,-0.4457 -2.5669133,0 -2.5669133,0 -0.2783362,0.4457 -0.2783363,0.4456 -0.5552203,0 z M 3.119809,1048.127 c 0.061282,0 0.2618411,-0.097 0.445687,-0.216 l 0.3342653,-0.216 -0.7799523,0 -0.7799522,0 0.3342652,0.216 c 0.1838459,0.1188 0.384405,0.216 0.445687,0.216 z m 7.452106,0.01 0.543957,0 0.128208,-0.2075 0.128209,-0.2074 -0.228473,-0.1412 -0.228473,-0.1412 -0.443693,0.1408 -0.443693,0.1408 0,0.2078 0,0.2079 0.543958,0 z m -6.2264668,-0.8914 2.7855438,0 0,-1.7828 0,-1.7827 -2.7855438,0 -2.7855437,0 0,1.7827 0,1.7828 2.7855437,0 z m -0.1374122,-0.4457 -0.64254,0 0,-0.4695 0,-0.4696 -0.3342652,0.1283 -0.3342653,0.1283 0,-0.6616 0,-0.6615 0.3082748,0 0.3082746,0 0.1165498,-0.4457 0.1165498,-0.4457 0.5779711,0 0.5779714,0 0,0.4457 0,0.4457 0.445687,0 0.445687,0 0,0.5571 0,0.5571 -0.3551279,0 -0.3551276,0 -0.1165498,0.4457 -0.1165498,0.4457 -0.6425399,0 z m 4.260017,0.2228 0.6685305,0 0,-0.2228 0,-0.2229 -0.6685305,0 -0.6685305,0 0,0.2229 0,0.2228 0.6685305,0 z m 1.4484828,0 c 0.061282,0 0.1114212,-0.05 0.1114212,-0.1114 0,-0.061 -0.050139,-0.1114 -0.1114212,-0.1114 -0.061282,0 -0.1114218,0.05 -0.1114218,0.1114 0,0.061 0.05014,0.1114 0.1114218,0.1114 z m 3.3557502,-0.496 c 0.03355,-0.034 0.276911,-0.6089 0.54079,-1.2784 l 0.479781,-1.2174 -0.392294,-0.2868 -0.392293,-0.2869 -0.733607,0 -0.733606,0 -0.550985,1.0874 -0.550984,1.0873 0.852554,0.1363 0.852555,0.1363 0.28354,0.3417 c 0.155947,0.1879 0.310994,0.3141 0.344549,0.2805 z m -4.4699677,-0.6182 1.0027957,0 0,-0.215 c 0,-0.1182 -0.1939665,-0.3188 -0.431037,-0.4457 -0.2370703,-0.1268 -0.6883284,-0.2307 -1.0027958,-0.2307 l -0.5717587,0 0,0.4457 0,0.4457 1.0027958,0 z m 1.9279377,-1.25 c 0.07985,-0.047 0.249259,-0.3848 0.376454,-0.7496 l 0.231264,-0.6634 -0.573639,-0.4513 c -0.315501,-0.2481 -0.652193,-0.4512 -0.748204,-0.4512 -0.096011,0 -0.3368953,0.062 -0.5352984,0.1384 l -0.3607328,0.1385 -0.3260234,0.6304 c -0.1793128,0.3468 -0.3260234,0.6637 -0.3260234,0.7044 0,0.041 0.2698107,0.096 0.5995794,0.1235 l 0.5995794,0.05 0.4589272,0.3084 c 0.25241,0.1697 0.524263,0.2697 0.604117,0.2223 z m -2.3736247,-1.2013 c 0.061282,0 0.1114217,-0.05 0.1114217,-0.1114 0,-0.061 -0.05014,-0.1114 -0.1114217,-0.1114 -0.061282,0 -0.1114218,0.05 -0.1114218,0.1114 0,0.061 0.05014,0.1114 0.1114218,0.1114 z m -5.4006778,-0.2228 1.278073,0 0,-0.5626 0,-0.5627 0.6128196,-0.2662 0.6128196,-0.2662 -0.9848597,-0.077 -0.98486,-0.077 -0.9060328,0.9061 -0.9060327,0.906 1.278073,0 z m 3.060821,-0.01 1.2256392,0 0.5013979,-0.7741 c 0.2757689,-0.4257 0.5013979,-0.8256 0.5013979,-0.8886 0,-0.063 -0.5632334,-0.1146 -1.2516297,-0.1146 l -1.2516299,0 0.1158053,0.4429 0.1158053,0.4428 -0.5912128,0.4415 -0.5912125,0.4415 1.2256393,0 z m 2.5627002,-0.213 c 0.061282,0 0.1114218,-0.05 0.1114218,-0.1115 0,-0.061 -0.05014,-0.1114 -0.1114218,-0.1114 -0.061282,0 -0.1114217,0.05 -0.1114217,0.1114 0,0.061 0.05014,0.1115 0.1114217,0.1115 z m 0.2228436,-0.4457 c 0.061282,0 0.1114217,-0.05 0.1114217,-0.1115 0,-0.061 -0.05014,-0.1114 -0.1114217,-0.1114 -0.061282,0 -0.1114218,0.05 -0.1114218,0.1114 0,0.061 0.05014,0.1115 0.1114218,0.1115 z"
         id="path6768" />
      <path
         style="fill:#9f5d5a"
         d="m 3.2293424,1048.5795 -0.5552204,0 -0.445687,-0.4456 c -0.2451278,-0.2452 -0.5459666,-0.4457 -0.6685305,-0.4457 l -0.2228435,0 0,-2.2926 0,-2.2925 1.0661611,-1.0501 1.0661611,-1.0501 2.7221784,0 2.7221784,0 0,0.3342 0,0.3343 0.8836199,0 0.8836201,0 0.761414,0.6685 0.761414,0.6686 0.709473,0 0.709473,0 0.431036,0.2306 0.431038,0.2307 0,0.6656 0,0.6656 -0.654555,1.4436 -0.654555,1.4436 -0.656516,0 -0.656515,0 -0.11655,0.4457 -0.11655,0.4456 -0.798926,0 -0.798927,0 -0.278336,-0.4456 -0.2783362,-0.4457 -2.5669133,0 -2.5669133,0 -0.2783362,0.4457 -0.2783363,0.4456 -0.5552203,0 z M 3.119809,1048.127 c 0.061282,0 0.2618411,-0.097 0.445687,-0.216 l 0.3342653,-0.216 -0.7799523,0 -0.7799522,0 0.3342652,0.216 c 0.1838459,0.1188 0.384405,0.216 0.445687,0.216 z m 7.452106,0.01 0.543957,0 0.128208,-0.2075 0.128209,-0.2074 -0.228473,-0.1412 -0.228473,-0.1412 -0.443693,0.1408 -0.443693,0.1408 0,0.2078 0,0.2079 0.543958,0 z m -6.2264668,-0.8914 2.7855438,0 0,-1.7828 0,-1.7827 -2.7855438,0 -2.7855437,0 0,1.7827 0,1.7828 2.7855437,0 z m 0,-0.4457 -0.5571087,0 0,-0.3551 0,-0.3552 -0.445687,-0.1165 -0.445687,-0.1166 0,-0.5063 0,-0.5064 0.3898683,0.031 0.3898682,0.031 0.071318,-0.5014 0.071318,-0.5014 0.5416097,0 0.5416098,0 0,0.4666 0,0.4665 0.445687,0.1166 0.445687,0.1165 0,0.4197 0,0.4197 -0.445687,0 -0.445687,0 0,0.4457 0,0.4457 -0.5571088,0 z m 4.2084624,0.2228 0.7915285,0 -0.1328954,-0.3463 -0.1328954,-0.3463 -0.5671665,0.068 -0.5671666,0.068 -0.091467,0.2786 -0.091467,0.2785 0.7915288,0 z m 1.4034309,-0.181 0.1170415,-0.2925 -0.1346343,-0.1346 -0.1346347,-0.1347 0.017593,0.4271 0.017593,0.4272 0.1170416,-0.2925 z m 3.8186545,-1.4503 0.516808,-1.1542 -0.205238,-0.3343 -0.205238,-0.3342 -0.91439,-0.068 -0.914391,-0.068 -0.559059,1.1032 -0.55906,1.1033 0.733189,0.1375 c 0.403254,0.076 0.926099,0.2797 1.16188,0.4533 l 0.428691,0.3157 0.516808,-1.1542 z m -4.9736777,0.5171 1.0027957,0 0,-0.215 c 0,-0.1182 -0.1939665,-0.3188 -0.431037,-0.4457 -0.2370703,-0.1268 -0.6883284,-0.2307 -1.0027958,-0.2307 l -0.5717587,0 0,0.4457 0,0.4457 1.0027958,0 z m 1.9279377,-1.25 c 0.07985,-0.047 0.249259,-0.3848 0.376454,-0.7496 l 0.231264,-0.6634 -0.573639,-0.4513 c -0.315501,-0.2481 -0.652193,-0.4512 -0.748204,-0.4512 -0.096011,0 -0.3368953,0.062 -0.5352984,0.1384 l -0.3607328,0.1385 -0.3260234,0.6304 c -0.1793128,0.3468 -0.3260234,0.6637 -0.3260234,0.7044 0,0.041 0.2698107,0.096 0.5995794,0.1235 l 0.5995794,0.05 0.4589272,0.3084 c 0.25241,0.1697 0.524263,0.2697 0.604117,0.2223 z m -2.5964682,-0.7556 c 0.061282,0 0.1114217,-0.05 0.1114217,-0.1114 0,-0.061 -0.05014,-0.1114 -0.1114217,-0.1114 -0.061282,0 -0.1114218,0.05 -0.1114218,0.1114 0,0.061 0.05014,0.1114 0.1114218,0.1114 z m 0.2228435,-0.4457 c 0.061282,0 0.1114217,-0.05 0.1114217,-0.1114 0,-0.061 -0.05014,-0.1114 -0.1114217,-0.1114 -0.061282,0 -0.1114218,0.05 -0.1114218,0.1114 0,0.061 0.05014,0.1114 0.1114218,0.1114 z m -5.348244,-0.2664 1.3370609,-0.068 -0.043306,-0.4462 -0.043306,-0.4463 0.5891313,-0.278 c 0.3240221,-0.1529 0.6753368,-0.278 0.7806992,-0.278 l 0.1915679,0 -0.1259618,0.2038 -0.1259617,0.2038 0.2799427,0.1039 0.2799429,0.1039 -0.6128196,0.2439 -0.6128196,0.2439 0,0.2283 0,0.2284 1.1699284,0 1.1699283,0 0.5013979,-0.7741 c 0.2757689,-0.4257 0.5013979,-0.8256 0.5013979,-0.8886 0,-0.063 -1.0827239,-0.1146 -2.4060529,-0.1146 l -2.4060528,0 -0.8808888,0.9035 -0.8808888,0.9035 1.3370611,-0.068 z m 5.5710874,-0.1792 c 0.061282,0 0.1114218,-0.05 0.1114218,-0.1115 0,-0.061 -0.05014,-0.1114 -0.1114218,-0.1114 -0.061282,0 -0.1114217,0.05 -0.1114217,0.1114 0,0.061 0.05014,0.1115 0.1114217,0.1115 z m 0.2228436,-0.4457 c 0.061282,0 0.1114217,-0.05 0.1114217,-0.1115 0,-0.061 -0.05014,-0.1114 -0.1114217,-0.1114 -0.061282,0 -0.1114218,0.05 -0.1114218,0.1114 0,0.061 0.05014,0.1115 0.1114218,0.1115 z"
         id="path6766" />
      <path
         style="fill:#d54631"
         d="m 3.2293424,1048.5795 -0.5552204,0 -0.445687,-0.4456 c -0.2451278,-0.2452 -0.5459666,-0.4457 -0.6685305,-0.4457 l -0.2228435,0 0,-2.2926 0,-2.2925 1.0661611,-1.0501 1.0661611,-1.0501 2.7221784,0 2.7221784,0 0,0.3342 0,0.3343 0.8836199,0 0.8836201,0 0.761414,0.6685 0.761414,0.6686 0.709473,0 0.709473,0 0.431036,0.2306 0.431038,0.2307 0,0.6656 0,0.6656 -0.665757,1.4683 -0.665756,1.4683 -0.739358,-0.086 -0.739358,-0.086 0.01234,0.4516 0.01234,0.4516 -0.825743,0.069 -0.825744,0.069 -0.2863675,-0.4586 -0.2863677,-0.4585 -2.5669133,0 -2.5669133,0 -0.2783362,0.4457 -0.2783363,0.4456 -0.5552203,0 z M 3.119809,1048.127 c 0.061282,0 0.2590308,-0.093 0.4394418,-0.2074 l 0.3280201,-0.2075 -0.383731,-0.1472 -0.3837309,-0.1473 -0.3837309,0.1473 -0.383731,0.1472 0.3280201,0.2075 c 0.180411,0.1141 0.3781598,0.2074 0.4394418,0.2074 z m 7.503783,-0.034 0.595634,-0.071 0.09147,-0.2785 0.09147,-0.2786 -0.687101,0 -0.687101,0 0,0.3491 0,0.3491 0.595635,-0.071 z m -6.2781438,-0.8504 2.7855438,0 0,-1.7828 0,-1.7827 -2.7855438,0 -2.7855437,0 0,1.7827 0,1.7828 2.7855437,0 z m 0,-0.4457 -0.5571087,0 0,-0.3551 0,-0.3552 -0.445687,-0.1165 -0.445687,-0.1166 0,-0.5063 0,-0.5064 0.3898683,0.031 0.3898682,0.031 0.071318,-0.5014 0.071318,-0.5014 0.5416097,0 0.5416098,0 0,0.4666 0,0.4665 0.445687,0.1166 0.445687,0.1165 0,0.4197 0,0.4197 -0.445687,0 -0.445687,0 0,0.4457 0,0.4457 -0.5571088,0 z m 4.5682918,0.2228 1.114217,0 0,-0.3342 0,-0.3343 -1.114217,0 -1.1142175,0 0,0.3343 0,0.3342 1.1142175,0 z m 0.575679,-0.2404 -0.4271166,0.018 0.1346345,-0.1346 0.1346347,-0.1347 0.2924821,0.1171 0.2924821,0.117 -0.4271168,0.018 z m 4.157351,-0.8843 c 0.218909,-0.5155 0.454138,-1.1608 0.522733,-1.4341 l 0.124716,-0.4969 -0.3663,-0.3663 -0.3663,-0.3663 -0.776298,0 -0.776298,0 -0.544846,1.232 c -0.299665,0.6776 -0.544845,1.2793 -0.544845,1.3371 0,0.058 0.335436,0.105 0.745414,0.105 l 0.745414,0 0.419297,0.4633 0.419297,0.4634 0.398016,-0.9372 z m -4.8444517,0.011 1.0027957,0 0,-0.215 c 0,-0.1182 -0.1939665,-0.3188 -0.431037,-0.4457 -0.2370703,-0.1268 -0.6883284,-0.2307 -1.0027958,-0.2307 l -0.5717587,0 0,0.4457 0,0.4457 1.0027958,0 z m 1.5599047,-0.6685 c 0.06128,0 0.111422,-0.05 0.111422,-0.1114 0,-0.061 -0.05014,-0.1115 -0.111422,-0.1115 -0.06128,0 -0.111422,0.05 -0.111422,0.1115 0,0.061 0.05014,0.1114 0.111422,0.1114 z m 0.345152,-0.5639 c 0.09244,-0.057 0.270141,-0.3966 0.394893,-0.7545 l 0.226821,-0.6506 -0.422467,-0.3824 c -0.232357,-0.2103 -0.384341,-0.4441 -0.337742,-0.5196 l 0.08473,-0.1374 -0.9256445,0 -0.9256442,0 -0.6269633,1.1661 -0.6269633,1.1661 0.2128291,0 0.2128292,0 0.1308271,-0.5014 c 0.071955,-0.2758 0.3868278,-0.8023 0.6997177,-1.17 l 0.5688905,-0.6685 -0.4518832,0.78 c -0.2485358,0.4289 -0.4522579,0.8551 -0.4527161,0.947 l -8.33e-4,0.1672 0.6128196,0.01 0.6128197,0.01 0.4228057,0.3201 0.422806,0.32 0.168071,-0.1039 z m -1.2365262,-0.1046 c 0.061282,0 0.1114217,-0.05 0.1114217,-0.1115 0,-0.061 -0.05014,-0.1114 -0.1114217,-0.1114 -0.061282,0 -0.1114218,0.05 -0.1114218,0.1114 0,0.061 0.05014,0.1115 0.1114218,0.1115 z m -5.0435916,-1.1143 2.644509,0 0.5867218,-0.8866 c 0.3226967,-0.4876 0.5867215,-0.9388 0.5867215,-1.0028 0,-0.064 -1.0737774,-0.1162 -2.3861719,-0.1162 l -2.3861721,0 -0.8450586,0.8252 c -0.4647824,0.4539 -0.8450589,0.9051 -0.8450589,1.0028 l 0,0.1776 2.6445092,0 z m 0.1306391,-0.4456 c -0.029338,0 -0.1165719,-0.1648 -0.1938518,-0.3662 -0.07728,-0.2014 -0.1130786,-0.3769 -0.079553,-0.39 0.033526,-0.013 0.2852247,-0.1491 0.5593305,-0.3024 0.2741057,-0.1532 0.6059326,-0.2785 0.7373929,-0.2785 l 0.2390188,0 -0.1259618,0.2038 -0.1259617,0.2038 0.2715636,0.091 0.2715638,0.091 -0.7500995,0.3742 c -0.4125546,0.2058 -0.7741037,0.3742 -0.8034422,0.3742 z m 6.7220037,-0.2229 c 0.06128,0 0.04945,-0.1003 -0.0263,-0.2228 -0.07575,-0.1226 -0.187865,-0.2229 -0.249147,-0.2229 -0.06128,0 -0.04945,0.1003 0.0263,0.2229 0.07575,0.1225 0.187865,0.2228 0.249147,0.2228 z"
         id="path6764" />
      <path
         style="fill:#d62627"
         d="m 3.2293424,1048.5795 -0.5552204,0 -0.445687,-0.4456 c -0.2451278,-0.2452 -0.5459666,-0.4457 -0.6685305,-0.4457 l -0.2228435,0 0,-2.2926 0,-2.2925 1.0661611,-1.0501 1.0661611,-1.0501 2.7221784,0 2.7221784,0 0,0.3342 0,0.3343 0.8836199,0 0.8836201,0 0.761414,0.6685 0.761414,0.6686 0.709473,0 0.709473,0 0.431036,0.2306 0.431038,0.2307 0,0.6656 0,0.6656 -0.665757,1.4683 -0.665756,1.4683 -0.739358,-0.086 -0.739358,-0.086 0.01234,0.4516 0.01234,0.4516 -0.825743,0.069 -0.825744,0.069 -0.2863675,-0.4586 -0.2863677,-0.4585 -2.5669133,0 -2.5669133,0 -0.2783362,0.4457 -0.2783363,0.4456 -0.5552203,0 z m -0.18347,-0.4632 c 0.020618,0.01 0.19553,-0.043 0.3886961,-0.1172 l 0.3512112,-0.1348 -0.1232935,-0.1995 -0.1232933,-0.1995 1.7958995,0 1.7958996,0 0,-2.0653 0,-2.0652 0.5571087,-0.8199 c 0.3064099,-0.4509 0.5571088,-0.8753 0.5571088,-0.9431 l 0,-0.1233 -2.4228972,0 -2.4228971,0 -0.9197554,0.9979 -0.9197553,0.9978 0,2.0106 0,2.0105 0.5702603,0 0.5702603,0 -0.1259618,0.2038 -0.1259617,0.2038 0.2799427,0.1129 c 0.1539686,0.062 0.2968113,0.1208 0.3174281,0.1305 z m 1.2995758,-1.3195 -0.5571087,0 0,-0.4457 0,-0.4457 -0.445687,0 -0.445687,0 0,-0.4457 0,-0.4457 0.445687,0 0.445687,0 0,-0.4456 0,-0.4457 0.5571087,0 0.5571088,0 0,0.4457 0,0.4456 0.445687,0 0.445687,0 0,0.4457 0,0.4457 -0.445687,0 -0.445687,0 0,0.4457 0,0.4457 -0.5571088,0 z m 0.3023962,-3.7933 c -0.07881,0 -0.2024689,-0.1493 -0.2747974,-0.3377 l -0.1315067,-0.3427 0.3862192,-0.1425 c 0.2124205,-0.078 0.4614289,-0.25 0.5533519,-0.3815 l 0.1671326,-0.2391 0.2170048,0.3342 0.2170045,0.3343 -0.4955589,0.385 c -0.2725577,0.2118 -0.56004,0.3873 -0.63885,0.39 z m 5.9757476,5.0894 0.595634,-0.071 0.09147,-0.2785 0.09147,-0.2786 -0.687101,0 -0.687101,0 0,0.3491 0,0.3491 0.595635,-0.071 z m 1.075692,-0.8504 1.225639,0 0,-0.2102 c 0,-0.1156 -0.222872,-0.3663 -0.495271,-0.5571 l -0.495271,-0.3469 -0.730368,0 -0.730368,0 0,0.5571 0,0.5571 1.225639,0 z m -2.785544,-0.2229 1.114217,0 0,-0.3342 0,-0.3343 -1.114217,0 -1.1142175,0 0,0.3343 0,0.3342 1.1142175,0 z m 0.575679,-0.2404 -0.4271166,0.018 0.1346345,-0.1346 0.1346347,-0.1347 0.2924821,0.1171 0.2924821,0.117 -0.4271168,0.018 z m 4.157351,-0.8843 c 0.218909,-0.5155 0.454138,-1.1608 0.522733,-1.4341 l 0.124716,-0.4969 -0.3663,-0.3663 -0.3663,-0.3663 -0.776298,0 -0.776298,0 -0.544846,1.232 c -0.299665,0.6776 -0.544845,1.2793 -0.544845,1.3371 0,0.058 0.335436,0.105 0.745414,0.105 l 0.745414,0 0.419297,0.4633 0.419297,0.4634 0.398016,-0.9372 z m -4.8444517,0.011 1.0027957,0 0,-0.215 c 0,-0.1182 -0.1939665,-0.3188 -0.431037,-0.4457 -0.2370703,-0.1268 -0.6883284,-0.2307 -1.0027958,-0.2307 l -0.5717587,0 0,0.4457 0,0.4457 1.0027958,0 z m 1.5599047,-0.6685 c 0.06128,0 0.111422,-0.05 0.111422,-0.1114 0,-0.061 -0.05014,-0.1115 -0.111422,-0.1115 -0.06128,0 -0.111422,0.05 -0.111422,0.1115 0,0.061 0.05014,0.1114 0.111422,0.1114 z m 0.345152,-0.5639 c 0.09244,-0.057 0.270141,-0.3966 0.394893,-0.7545 l 0.226821,-0.6506 -0.422467,-0.3824 c -0.232357,-0.2103 -0.384341,-0.4441 -0.337742,-0.5196 l 0.08473,-0.1374 -0.9256445,0 -0.9256442,0 -0.6269633,1.1661 -0.6269633,1.1661 0.2128291,0 0.2128292,0 0.1308271,-0.5014 c 0.071955,-0.2758 0.3868278,-0.8023 0.6997177,-1.17 l 0.5688905,-0.6685 -0.4518832,0.78 c -0.2485358,0.4289 -0.4522579,0.8551 -0.4527161,0.947 l -8.33e-4,0.1672 0.6128196,0.01 0.6128197,0.01 0.4228057,0.3201 0.422806,0.32 0.168071,-0.1039 z m -1.2365262,-0.1046 c 0.061282,0 0.1114217,-0.05 0.1114217,-0.1115 0,-0.061 -0.05014,-0.1114 -0.1114217,-0.1114 -0.061282,0 -0.1114218,0.05 -0.1114218,0.1114 0,0.061 0.05014,0.1115 0.1114218,0.1115 z m 1.8090512,-1.7828 c 0.06128,0 0.04945,-0.1003 -0.0263,-0.2228 -0.07575,-0.1226 -0.187865,-0.2229 -0.249147,-0.2229 -0.06128,0 -0.04945,0.1003 0.0263,0.2229 0.07575,0.1225 0.187865,0.2228 0.249147,0.2228 z"
         id="path6762" />
      <path
         style="fill:#625858"
         d="m 3.2293424,1048.5795 -0.5552204,0 -0.445687,-0.4456 c -0.2451278,-0.2452 -0.5459666,-0.4457 -0.6685305,-0.4457 l -0.2228435,0 0,-2.2926 0,-2.2925 1.0661611,-1.0501 1.0661611,-1.0501 2.7221784,0 2.7221784,0 0,0.3342 0,0.3343 0.8836199,0 0.8836201,0 0.761414,0.6685 0.761414,0.6686 0.709473,0 0.709473,0 0.431036,0.2306 0.431038,0.2307 0,0.6656 0,0.6656 -0.665757,1.4683 -0.665756,1.4683 -0.739358,-0.086 -0.739358,-0.086 0.01234,0.4516 0.01234,0.4516 -0.825743,0.069 -0.825744,0.069 -0.2863675,-0.4586 -0.2863677,-0.4585 -2.5669133,0 -2.5669133,0 -0.2783362,0.4457 -0.2783363,0.4456 -0.5552203,0 z m -0.18347,-0.4632 c 0.020618,0.01 0.19553,-0.043 0.3886961,-0.1172 l 0.3512112,-0.1348 -0.1232935,-0.1995 -0.1232933,-0.1995 1.7958995,0 1.7958996,0 0,-2.0653 0,-2.0652 0.5571087,-0.8199 c 0.3064099,-0.4509 0.5571088,-0.8753 0.5571088,-0.9431 l 0,-0.1233 -2.4228972,0 -2.4228971,0 -0.9197554,0.9979 -0.9197553,0.9978 0,2.0106 0,2.0105 0.5702603,0 0.5702603,0 -0.1259618,0.2038 -0.1259617,0.2038 0.2799427,0.1129 c 0.1539686,0.062 0.2968113,0.1208 0.3174281,0.1305 z m 7.5777196,-0.023 0.595634,-0.071 0.09147,-0.2785 0.09147,-0.2786 -0.687101,0 -0.687101,0 0,0.3491 0,0.3491 0.595635,-0.071 z m 1.001511,-0.8504 1.29982,0 0,-0.2177 c 0,-0.1198 -0.243602,-0.3773 -0.541337,-0.5724 l -0.541337,-0.3547 -0.722819,0.071 -0.722818,0.071 -0.03566,0.5014 -0.03566,0.5014 1.299819,0 z m -2.711363,-0.2229 1.114217,0 0,-0.3342 0,-0.3343 -1.114217,0 -1.1142175,0 0,0.3343 0,0.3342 1.1142175,0 z m 0.575679,-0.2404 -0.4271166,0.018 0.1346345,-0.1346 0.1346347,-0.1347 0.2924821,0.1171 0.2924821,0.117 -0.4271168,0.018 z m 4.157351,-0.8843 c 0.218909,-0.5155 0.454138,-1.1608 0.522733,-1.4341 l 0.124716,-0.4969 -0.3663,-0.3663 -0.3663,-0.3663 -0.776298,0 -0.776298,0 -0.544846,1.232 c -0.299665,0.6776 -0.544845,1.2793 -0.544845,1.3371 0,0.058 0.335436,0.105 0.745414,0.105 l 0.745414,0 0.419297,0.4633 0.419297,0.4634 0.398016,-0.9372 z m -6.1815128,0.011 c 0.061282,0 0.1114218,-0.05 0.1114218,-0.1114 0,-0.061 -0.05014,-0.1114 -0.1114218,-0.1114 -0.061282,0 -0.1114217,0.05 -0.1114217,0.1114 0,0.061 0.05014,0.1114 0.1114217,0.1114 z m 1.3370611,0 1.0027957,0 0,-0.215 c 0,-0.1182 -0.1939665,-0.3188 -0.431037,-0.4457 -0.2370703,-0.1268 -0.6883284,-0.2307 -1.0027958,-0.2307 l -0.5717587,0 0,0.4457 0,0.4457 1.0027958,0 z m 1.5599047,-0.6685 c 0.06128,0 0.111422,-0.05 0.111422,-0.1114 0,-0.061 -0.05014,-0.1115 -0.111422,-0.1115 -0.06128,0 -0.111422,0.05 -0.111422,0.1115 0,0.061 0.05014,0.1114 0.111422,0.1114 z m 0.345152,-0.5639 c 0.09244,-0.057 0.270141,-0.3966 0.394893,-0.7545 l 0.226821,-0.6506 -0.422467,-0.3824 c -0.232357,-0.2103 -0.384341,-0.4441 -0.337742,-0.5196 l 0.08473,-0.1374 -0.9256445,0 -0.9256442,0 -0.6269633,1.1661 -0.6269633,1.1661 0.2128291,0 0.2128292,0 0.1308271,-0.5014 c 0.071955,-0.2758 0.3868278,-0.8023 0.6997177,-1.17 l 0.5688905,-0.6685 -0.4518832,0.78 c -0.2485358,0.4289 -0.4522579,0.8551 -0.4527161,0.947 l -8.33e-4,0.1672 0.6128196,0.01 0.6128197,0.01 0.4228057,0.3201 0.422806,0.32 0.168071,-0.1039 z m -1.2365262,-0.1046 c 0.061282,0 0.1114217,-0.05 0.1114217,-0.1115 0,-0.061 -0.05014,-0.1114 -0.1114217,-0.1114 -0.061282,0 -0.1114218,0.05 -0.1114218,0.1114 0,0.061 0.05014,0.1115 0.1114218,0.1115 z m 1.8090512,-1.7828 c 0.06128,0 0.04945,-0.1003 -0.0263,-0.2228 -0.07575,-0.1226 -0.187865,-0.2229 -0.249147,-0.2229 -0.06128,0 -0.04945,0.1003 0.0263,0.2229 0.07575,0.1225 0.187865,0.2228 0.249147,0.2228 z"
         id="path6760" />
      <path
         style="fill:#562b26"
         d="m 3.2293424,1048.5795 -0.5552204,0 -0.445687,-0.4456 c -0.2451278,-0.2452 -0.5459666,-0.4457 -0.6685305,-0.4457 l -0.2228435,0 0,-2.2926 0,-2.2925 1.0661611,-1.0501 1.0661611,-1.0501 2.7221784,0 2.7221784,0 0,0.3069 0,0.307 -0.3342653,0.2774 c -0.1838458,0.1526 -0.3342652,0.3878 -0.3342652,0.5226 l 0,0.2451 0.3469014,-0.4952 0.3469013,-0.4953 0.8616403,0 0.8616395,0 0.671335,0.5649 0.671334,0.5649 -0.07932,0.4118 c -0.04363,0.2266 -0.287893,0.8208 -0.542815,1.3205 -0.254922,0.4996 -0.463494,1.0128 -0.463494,1.1402 l 0,0.2317 0.66853,0 0.668531,0 0.464257,0.4643 c 0.255341,0.2553 0.495501,0.4308 0.533689,0.39 0.03819,-0.041 0.242337,-0.4754 0.453667,-0.9657 0.211329,-0.4903 0.462302,-1.1922 0.557718,-1.5599 l 0.173482,-0.6685 0.02281,0.582 0.02281,0.582 -0.681137,1.5022 -0.681136,1.5022 -0.723978,-0.084 -0.723978,-0.085 0.01234,0.4516 0.01234,0.4516 -0.825743,0.069 -0.825744,0.069 -0.2863675,-0.4586 -0.2863677,-0.4585 -2.5669133,0 -2.5669133,0 -0.2783362,0.4457 -0.2783363,0.4456 -0.5552203,0 z m 8.2470976,-0.2228 c 0.06128,0 0.111422,-0.05 0.111422,-0.1114 0,-0.061 -0.05014,-0.1114 -0.111422,-0.1114 -0.06128,0 -0.111421,0.05 -0.111421,0.1114 0,0.061 0.05014,0.1114 0.111421,0.1114 z m -8.338564,-0.2228 0.4416079,0 0.1282696,-0.3343 0.1282696,-0.3343 1.6324675,0 1.6324677,0 0.1539124,-0.4849 c 0.084652,-0.2667 0.1449936,-0.9293 0.1340927,-1.4724 l -0.01982,-0.9874 0.438033,-0.8586 c 0.2409179,-0.4723 0.4380328,-0.9187 0.4380328,-0.9921 l 0,-0.1334 -0.2448493,0.1513 c -0.1346672,0.083 -0.381441,0.4652 -0.5483864,0.8488 l -0.3035367,0.6975 -0.00872,-0.4055 -0.00872,-0.4056 0.6685305,-0.9717 c 0.3676918,-0.5344 0.6685305,-1.0288 0.6685305,-1.0986 l 0,-0.127 -2.4207841,0 -2.4207842,0 -1.0332901,1.1047 -1.0332901,1.1046 0,2.0152 0,2.0151 0.2228435,0 c 0.1225639,0 0.280037,-0.025 0.3499403,-0.056 0.069903,-0.031 0.2253055,0.1198 0.3453383,0.3343 l 0.2182416,0.39 0.4416078,0 z m 7.533087,-0.045 0.548263,-0.066 0.09147,-0.2785 0.09147,-0.2786 -0.798523,0 -0.798522,0 0,0.1857 c 0,0.1022 0.071457,0.2572 0.1587929,0.3445 l 0.1587931,0.1588 0.548263,-0.066 z m 0.97261,-0.8881 1.28135,0.042 0,-0.2177 c 0,-0.1198 -0.243602,-0.3773 -0.541337,-0.5724 l -0.541337,-0.3547 -0.740013,0.071 -0.740013,0.071 0.06126,0.4457 0.06126,0.4457 -0.239465,-0.39 -0.239465,-0.39 -1.1031441,0 -1.1031444,0 0,0.3231 0,0.3232 1.2813501,0.08 c 0.7047426,0.044 1.8579574,0.099 2.5627004,0.1225 z m -2.0613025,-0.4035 -0.2971246,0 0.1485622,-0.1486 0.1485624,-0.1485 0.1485624,0.1485 0.1485622,0.1486 -0.2971246,0 z m -0.6685305,-0.6685 1.114217,0 0,-0.1883 c 0,-0.1036 -0.1754888,-0.3453 -0.3899756,-0.537 -0.2144869,-0.1918 -0.5403955,-0.3697 -0.7242414,-0.3952 -0.1838459,-0.026 -0.5097545,-0.035 -0.7242414,-0.02 l -0.3899761,0.026 0,0.5572 0,0.5571 1.1142175,0 z m 1.750879,-0.4527 c 0.04375,0 0.02037,-0.1472 -0.05195,-0.3357 l -0.131507,-0.3427 0.329229,-0.1264 0.329228,-0.1263 -0.110865,-0.1794 -0.110865,-0.1794 0.135496,-0.3531 0.135495,-0.3531 0.221726,0.1371 0.221725,0.137 -0.267308,-0.4995 -0.267309,-0.4994 0.245076,0.1514 0.245076,0.1515 0,-0.2015 c 0,-0.1108 -0.177463,-0.362 -0.394361,-0.5583 l -0.394361,-0.3569 -0.9984109,0.044 -0.9984108,0.044 -0.6269633,1.1699 -0.6269633,1.17 0.2369871,0 0.2369872,0 0,-0.3212 c 0,-0.1766 0.1027641,-0.3846 0.2283649,-0.4622 l 0.2283647,-0.1411 -0.061232,0.2951 -0.061232,0.2951 0.6685305,-0.049 0.6685305,-0.049 -0.3342653,0.2352 -0.3342652,0.2352 0.4932043,-0.1077 0.4932046,-0.1078 0.286747,0.367 0.286748,0.367 -0.435309,-0.3343 -0.4353099,-0.3343 0.4353099,0.6059 c 0.23942,0.3332 0.471108,0.6089 0.514862,0.6128 z m -2.0851443,-2.2215 c -0.061282,0 -0.1114217,-0.05 -0.1114217,-0.1114 0,-0.061 0.05014,-0.1114 0.1114217,-0.1114 0.061282,0 0.1114218,0.05 0.1114218,0.1114 0,0.061 -0.05014,0.1114 -0.1114218,0.1114 z m 0.4456871,-0.6685 c -0.1838459,0.1526 -0.3342653,0.2273 -0.3342653,0.166 0,-0.061 0.1504194,-0.2363 0.3342653,-0.3888 0.1838458,-0.1526 0.3342652,-0.2273 0.3342652,-0.166 0,0.061 -0.1504194,0.2362 -0.3342652,0.3888 z m 2.2284352,1.5599 c 0.06128,0 0.111422,-0.05 0.111422,-0.1114 0,-0.061 -0.05014,-0.1114 -0.111422,-0.1114 -0.06128,0 -0.111422,0.05 -0.111422,0.1114 0,0.061 0.05014,0.1114 0.111422,0.1114 z m 1.448483,-1.1494 -0.557109,0 0.278554,-0.1124 0.278555,-0.1124 0.278554,0.1124 0.278554,0.1124 -0.557108,0 z"
         id="path6758" />
      <path
         style="fill:#191616"
         d="m 3.119809,1048.3567 -0.9053618,0 -0.1282696,-0.3343 -0.1282696,-0.3342 -0.3104235,0 -0.3104235,0 0,-2.2926 0,-2.2925 1.0661611,-1.0501 1.0661611,-1.0501 2.6107566,0 2.6107567,0 0,0.3915 0,0.3916 0.9765067,-0.078 0.9765068,-0.078 0.718476,0.642 0.718477,0.6419 -0.363024,0.3013 -0.363023,0.3013 0.130069,-0.339 0.13007,-0.3389 -0.590052,-0.4642 -0.590052,-0.4641 -0.9857041,0.078 -0.9857045,0.078 -0.3770359,0.304 -0.3770358,0.3039 0.3793412,-0.551 c 0.2086376,-0.303 0.3793411,-0.6289 0.3793411,-0.7242 l 0,-0.1733 -2.5163025,0 -2.5163024,0 -0.9377718,0.9555 -0.9377718,0.9555 0,2.1137 0,2.1136 0.7914249,0.4262 0.7914249,0.4262 0.6357299,-0.3755 0.63573,-0.3756 2.4931684,0 2.4931682,0 0.5665992,0.4457 0.566599,0.4457 -0.371311,0 -0.3713119,0 -0.1282696,-0.3343 -0.1282696,-0.3342 -2.6264384,0 -2.6264384,0 -0.1282696,0.3342 -0.1282696,0.3343 -0.9053619,0 z m 7.950738,-0.018 -0.262637,-0.018 0.278554,-0.1124 0.278555,-0.1124 0,-0.2683 0,-0.2683 0.724241,-0.053 0.724241,-0.053 0.385021,-0.4953 c 0.211762,-0.2725 0.387251,-0.4136 0.389976,-0.3136 0.0027,0.1 -0.09885,0.3758 -0.225729,0.6128 l -0.230684,0.4311 -0.565185,0 -0.565186,0 -0.334265,0.3342 c -0.183846,0.1839 -0.452452,0.3264 -0.596902,0.3167 z m -3.3824463,-1.0966 c -0.061282,0 -0.1114217,-0.05 -0.1114217,-0.1114 0,-0.061 0.05014,-0.1115 0.1114217,-0.1115 0.061282,0 0.1114218,0.05 0.1114218,0.1115 0,0.061 -0.05014,0.1114 -0.1114218,0.1114 z m 2.4512783,0 c -0.06128,0 -0.111422,-0.05 -0.111422,-0.1114 0,-0.061 0.05014,-0.1115 0.111422,-0.1115 0.06128,0 0.111422,0.05 0.111422,0.1115 0,0.061 -0.05014,0.1114 -0.111422,0.1114 z m 0,-0.8914 c -0.06128,0 -0.111422,-0.05 -0.111422,-0.1114 0,-0.061 0.05014,-0.1114 0.111422,-0.1114 0.06128,0 0.111422,0.05 0.111422,0.1114 0,0.061 -0.05014,0.1114 -0.111422,0.1114 z m 3.565496,0 c -0.06128,0 -0.111421,-0.05 -0.111421,-0.1114 0,-0.061 0.05014,-0.1114 0.111421,-0.1114 0.06128,0 0.111422,0.05 0.111422,0.1114 0,0.061 -0.05014,0.1114 -0.111422,0.1114 z m -5.980611,-0.6128 -0.1123991,0.2785 0,-0.5571 0,-0.5571 0.1123991,0.2786 0.1123992,0.2785 -0.1123992,0.2786 z m 2.972224,0.1671 -0.297125,0 0.148563,-0.1485 0.148562,-0.1486 0.148562,0.1486 0.148563,0.1485 -0.297125,0 z m 3.268371,-0.074 -0.148562,0.1486 0,-0.2971 0,-0.2972 0.148562,0.1486 0.148563,0.1486 -0.148563,0.1485 z m -3.714058,-0.6092 c -0.06128,-4e-4 -0.3621207,-0.1441 -0.6685305,-0.3193 l -0.5571087,-0.3184 0.2359622,-0.01 c 0.1297794,0 0.4306181,0.1393 0.6685305,0.3192 0.2379125,0.18 0.3824285,0.3268 0.3211465,0.3264 z m 0.779952,0.015 c -0.06128,0 -0.111421,-0.05 -0.111421,-0.1114 0,-0.061 0.05014,-0.1115 0.111421,-0.1115 0.06128,0 0.111422,0.05 0.111422,0.1115 0,0.061 -0.05014,0.1114 -0.111422,0.1114 z m 3.234587,-0.1135 -0.219488,0.1356 0.140075,-0.7353 c 0.07704,-0.4044 0.175811,-0.7771 0.219488,-0.8281 0.04368,-0.051 0.07941,0.2187 0.07941,0.5996 l 0,0.6925 -0.219488,0.1357 z m -6.1315522,-0.1094 c -0.061282,0 -0.1114218,-0.05 -0.1114218,-0.1114 0,-0.061 0.05014,-0.1114 0.1114218,-0.1114 0.061282,0 0.1114217,0.05 0.1114217,0.1114 0,0.061 -0.05014,0.1114 -0.1114217,0.1114 z m -0.5439572,-0.2228 -0.2359951,0 0,-0.2228 c 0,-0.1226 0.044221,-0.2229 0.09827,-0.2229 0.054049,0 0.1602463,0.1003 0.235995,0.2229 l 0.1377249,0.2228 -0.235995,0 z m 3.6637664,0 c -0.06128,0 -0.111422,-0.05 -0.111422,-0.1114 0,-0.061 0.05014,-0.1114 0.111422,-0.1114 0.06128,0 0.111422,0.05 0.111422,0.1114 0,0.061 -0.05014,0.1114 -0.111422,0.1114 z m -3.0826686,-0.2971 -0.1485624,0.1485 0,-0.2971 0,-0.2971 0.1485624,0.1486 0.1485622,0.1485 -0.1485622,0.1486 z m 1.2999204,-0.1486 c -0.061282,0 -0.1114218,-0.05 -0.1114218,-0.1114 0,-0.061 0.05014,-0.1114 0.1114218,-0.1114 0.061282,0 0.1114217,0.05 0.1114217,0.1114 0,0.061 -0.05014,0.1114 -0.1114217,0.1114 z m 2.0055912,0 c -0.06128,0 -0.111421,-0.05 -0.111421,-0.1114 0,-0.061 0.05014,-0.1114 0.111421,-0.1114 0.06128,0 0.111422,0.05 0.111422,0.1114 0,0.061 -0.05014,0.1114 -0.111422,0.1114 z m -3.7883393,-0.2228 c -0.061282,0 -0.1114217,-0.05 -0.1114217,-0.1115 0,-0.061 0.05014,-0.1114 0.1114217,-0.1114 0.061282,0 0.1114218,0.05 0.1114218,0.1114 0,0.061 -0.05014,0.1115 -0.1114218,0.1115 z m 3.5654963,-0.2229 c -0.06128,0 -0.111422,-0.05 -0.111422,-0.1114 0,-0.061 0.05014,-0.1114 0.111422,-0.1114 0.06128,0 0.111422,0.05 0.111422,0.1114 0,0.061 -0.05014,0.1114 -0.111422,0.1114 z m -3.3426528,-0.2228 c -0.061282,0 -0.1114217,-0.05 -0.1114217,-0.1114 0,-0.061 0.05014,-0.1115 0.1114217,-0.1115 0.061282,0 0.1114218,0.05 0.1114218,0.1115 0,0.061 -0.05014,0.1114 -0.1114218,0.1114 z m -0.3342652,-0.5571 c -0.1225639,0.076 -0.2228435,0.088 -0.2228435,0.026 0,-0.061 0.1002796,-0.1734 0.2228435,-0.2492 0.1225639,-0.076 0.2228435,-0.088 0.2228435,-0.026 0,0.061 -0.1002796,0.1734 -0.2228435,0.2492 z m 0.5571088,0.1114 c -0.061282,0 -0.1114218,-0.05 -0.1114218,-0.1114 0,-0.061 0.05014,-0.1114 0.1114218,-0.1114 0.061282,0 0.1114217,0.05 0.1114217,0.1114 0,0.061 -0.05014,0.1114 -0.1114217,0.1114 z m 4.4754402,-0.018 -0.427117,0.018 0.134635,-0.1346 0.134635,-0.1347 0.292482,0.1171 0.292482,0.117 -0.427117,0.018 z"
         id="path6756" />
    </g>
  </g>
</svg>
