<?xml version="1.0" encoding="UTF-8" standalone="no"?>
<!-- Created with Inkscape (http://www.inkscape.org/) -->

<svg
   xmlns:dc="http://purl.org/dc/elements/1.1/"
   xmlns:cc="http://creativecommons.org/ns#"
   xmlns:rdf="http://www.w3.org/1999/02/22-rdf-syntax-ns#"
   xmlns:svg="http://www.w3.org/2000/svg"
   xmlns="http://www.w3.org/2000/svg"
   xmlns:sodipodi="http://sodipodi.sourceforge.net/DTD/sodipodi-0.dtd"
   xmlns:inkscape="http://www.inkscape.org/namespaces/inkscape"
   width="16"
   height="16"
   id="svg2"
   version="1.1"
   inkscape:version="0.47 r22583"
   sodipodi:docname="BADG1-32.svg">
  <defs
     id="defs4">
    <inkscape:perspective
       sodipodi:type="inkscape:persp3d"
       inkscape:vp_x="0 : 526.18109 : 1"
       inkscape:vp_y="0 : 1000 : 0"
       inkscape:vp_z="744.09448 : 526.18109 : 1"
       inkscape:persp3d-origin="372.04724 : 350.78739 : 1"
       id="perspective10" />
    <inkscape:perspective
       id="perspective2824"
       inkscape:persp3d-origin="0.5 : 0.33333333 : 1"
       inkscape:vp_z="1 : 0.5 : 1"
       inkscape:vp_y="0 : 1000 : 0"
       inkscape:vp_x="0 : 0.5 : 1"
       sodipodi:type="inkscape:persp3d" />
    <inkscape:perspective
       id="perspective5878"
       inkscape:persp3d-origin="0.5 : 0.33333333 : 1"
       inkscape:vp_z="1 : 0.5 : 1"
       inkscape:vp_y="0 : 1000 : 0"
       inkscape:vp_x="0 : 0.5 : 1"
       sodipodi:type="inkscape:persp3d" />
    <inkscape:perspective
       id="perspective5921"
       inkscape:persp3d-origin="0.5 : 0.33333333 : 1"
       inkscape:vp_z="1 : 0.5 : 1"
       inkscape:vp_y="0 : 1000 : 0"
       inkscape:vp_x="0 : 0.5 : 1"
       sodipodi:type="inkscape:persp3d" />
    <inkscape:perspective
       id="perspective5943"
       inkscape:persp3d-origin="0.5 : 0.33333333 : 1"
       inkscape:vp_z="1 : 0.5 : 1"
       inkscape:vp_y="0 : 1000 : 0"
       inkscape:vp_x="0 : 0.5 : 1"
       sodipodi:type="inkscape:persp3d" />
    <inkscape:perspective
       id="perspective5989"
       inkscape:persp3d-origin="0.5 : 0.33333333 : 1"
       inkscape:vp_z="1 : 0.5 : 1"
       inkscape:vp_y="0 : 1000 : 0"
       inkscape:vp_x="0 : 0.5 : 1"
       sodipodi:type="inkscape:persp3d" />
    <inkscape:perspective
       id="perspective6011"
       inkscape:persp3d-origin="0.5 : 0.33333333 : 1"
       inkscape:vp_z="1 : 0.5 : 1"
       inkscape:vp_y="0 : 1000 : 0"
       inkscape:vp_x="0 : 0.5 : 1"
       sodipodi:type="inkscape:persp3d" />
    <inkscape:perspective
       id="perspective6033"
       inkscape:persp3d-origin="0.5 : 0.33333333 : 1"
       inkscape:vp_z="1 : 0.5 : 1"
       inkscape:vp_y="0 : 1000 : 0"
       inkscape:vp_x="0 : 0.5 : 1"
       sodipodi:type="inkscape:persp3d" />
    <inkscape:perspective
       id="perspective6245"
       inkscape:persp3d-origin="0.5 : 0.33333333 : 1"
       inkscape:vp_z="1 : 0.5 : 1"
       inkscape:vp_y="0 : 1000 : 0"
       inkscape:vp_x="0 : 0.5 : 1"
       sodipodi:type="inkscape:persp3d" />
    <inkscape:perspective
       id="perspective6269"
       inkscape:persp3d-origin="0.5 : 0.33333333 : 1"
       inkscape:vp_z="1 : 0.5 : 1"
       inkscape:vp_y="0 : 1000 : 0"
       inkscape:vp_x="0 : 0.5 : 1"
       sodipodi:type="inkscape:persp3d" />
    <inkscape:perspective
       id="perspective6364"
       inkscape:persp3d-origin="0.5 : 0.33333333 : 1"
       inkscape:vp_z="1 : 0.5 : 1"
       inkscape:vp_y="0 : 1000 : 0"
       inkscape:vp_x="0 : 0.5 : 1"
       sodipodi:type="inkscape:persp3d" />
    <inkscape:perspective
       id="perspective6396"
       inkscape:persp3d-origin="0.5 : 0.33333333 : 1"
       inkscape:vp_z="1 : 0.5 : 1"
       inkscape:vp_y="0 : 1000 : 0"
       inkscape:vp_x="0 : 0.5 : 1"
       sodipodi:type="inkscape:persp3d" />
    <inkscape:perspective
       id="perspective6438"
       inkscape:persp3d-origin="0.5 : 0.33333333 : 1"
       inkscape:vp_z="1 : 0.5 : 1"
       inkscape:vp_y="0 : 1000 : 0"
       inkscape:vp_x="0 : 0.5 : 1"
       sodipodi:type="inkscape:persp3d" />
    <inkscape:perspective
       id="perspective6460"
       inkscape:persp3d-origin="0.5 : 0.33333333 : 1"
       inkscape:vp_z="1 : 0.5 : 1"
       inkscape:vp_y="0 : 1000 : 0"
       inkscape:vp_x="0 : 0.5 : 1"
       sodipodi:type="inkscape:persp3d" />
    <inkscape:perspective
       id="perspective6480"
       inkscape:persp3d-origin="0.5 : 0.33333333 : 1"
       inkscape:vp_z="1 : 0.5 : 1"
       inkscape:vp_y="0 : 1000 : 0"
       inkscape:vp_x="0 : 0.5 : 1"
       sodipodi:type="inkscape:persp3d" />
    <inkscape:perspective
       id="perspective6504"
       inkscape:persp3d-origin="0.5 : 0.33333333 : 1"
       inkscape:vp_z="1 : 0.5 : 1"
       inkscape:vp_y="0 : 1000 : 0"
       inkscape:vp_x="0 : 0.5 : 1"
       sodipodi:type="inkscape:persp3d" />
    <inkscape:perspective
       id="perspective6524"
       inkscape:persp3d-origin="0.5 : 0.33333333 : 1"
       inkscape:vp_z="1 : 0.5 : 1"
       inkscape:vp_y="0 : 1000 : 0"
       inkscape:vp_x="0 : 0.5 : 1"
       sodipodi:type="inkscape:persp3d" />
  </defs>
  <sodipodi:namedview
     id="base"
     pagecolor="#ffffff"
     bordercolor="#666666"
     borderopacity="1.0"
     inkscape:pageopacity="0.0"
     inkscape:pageshadow="2"
     inkscape:zoom="8.671875"
     inkscape:cx="10.564203"
     inkscape:cy="2.743179"
     inkscape:document-units="px"
     inkscape:current-layer="layer1"
     showgrid="true"
     inkscape:window-width="1280"
     inkscape:window-height="780"
     inkscape:window-x="-8"
     inkscape:window-y="-8"
     inkscape:window-maximized="1">
    <inkscape:grid
       type="xygrid"
       id="grid6324"
       empspacing="5"
       visible="true"
       enabled="true"
       snapvisiblegridlinesonly="true" />
  </sodipodi:namedview>
  <metadata
     id="metadata7">
    <rdf:RDF>
      <cc:Work
         rdf:about="">
        <dc:format>image/svg+xml</dc:format>
        <dc:type
           rdf:resource="http://purl.org/dc/dcmitype/StillImage" />
        <dc:title></dc:title>
      </cc:Work>
    </rdf:RDF>
  </metadata>
  <g
     inkscape:label="Calque 1"
     inkscape:groupmode="layer"
     id="layer1"
     transform="translate(0,-1036.3622)">
    <g
       id="g6530"
       transform="translate(-0.147541,-0.1475)">
      <path
         style="fill:#bfbfbf"
         d="m 8.3770492,1050.395 c -0.075532,0 -0.2968439,-0.2213 -0.4918033,-0.4918 l -0.3544716,-0.4918 -0.68342,0 -0.6834199,0 0,-0.2459 0,-0.2459 -1.3636364,0 -1.3636363,0 -0.6035767,-0.6036 -0.6035768,-0.6036 0,-2.1013 0,-2.1014 0.2459016,0 0.2459017,0 0,-0.4375 0,-0.4375 -0.4918033,-0.3545 -0.4918033,-0.3544 0,-0.4171 0,-0.417 -0.2981557,-0.099 -0.2981558,-0.099 0.9047132,-0.9047 0.9047131,-0.9047 0.6229509,0 0.6229507,0 0,0.2459 0,0.2459 0.4918033,0 0.4918033,0 0,0.2459 0,0.2459 1.1391897,0 1.1391895,0 0.4591712,-0.5294 0.4591709,-0.5294 0.4591709,0.5294 0.4591711,0.5294 1.1391898,0 1.139189,0 0,-0.2459 0,-0.2459 0.491804,0 0.491803,0 0,-0.2459 0,-0.2459 0.622951,0 0.622951,0 0.904713,0.9047 0.904713,0.9047 -0.298156,0.099 -0.298156,0.099 0,0.417 0,0.4171 -0.491803,0.3544 -0.491803,0.3545 0,0.4375 0,0.4375 0.245902,0 0.245901,0 0,2.1014 0,2.1013 -0.603576,0.6036 -0.603577,0.6036 -1.363637,0 -1.363636,0 0,0.2459 0,0.2459 -0.68342,0 -0.6834199,0 -0.3544716,0.4918 c -0.1949595,0.2705 -0.4162709,0.4918 -0.4918033,0.4918 z"
         id="path6538" />
      <path
         style="fill:#7f7f7f"
         d="m 8.3770492,1050.395 c -0.075532,0 -0.2968439,-0.2213 -0.4918033,-0.4918 l -0.3544716,-0.4918 -0.68342,0 -0.6834199,0 0,-0.2459 0,-0.2459 -1.3636364,0 -1.3636363,0 -0.6035767,-0.6036 -0.6035768,-0.6036 0,-2.1013 0,-2.1014 0.2459016,0 0.2459017,0 0,-0.4375 0,-0.4375 -0.4918033,-0.3545 -0.4918033,-0.3544 0,-0.4171 0,-0.417 -0.2981557,-0.099 -0.2981558,-0.099 0.9047132,-0.9047 0.9047131,-0.9047 0.6229509,0 0.6229507,0 0,0.2459 0,0.2459 0.4918033,0 0.4918033,0 0,0.2459 0,0.2459 1.1391897,0 1.1391895,0 0.4591712,-0.5294 0.4591709,-0.5294 0.4591709,0.5294 0.4591711,0.5294 1.1391898,0 1.139189,0 0,-0.2459 0,-0.2459 0.491804,0 0.491803,0 0,-0.2459 0,-0.2459 0.622951,0 0.622951,0 0.904713,0.9047 0.904713,0.9047 -0.298156,0.099 -0.298156,0.099 0,0.417 0,0.4171 -0.491803,0.3544 -0.491803,0.3545 0,0.4375 0,0.4375 0.245902,0 0.245901,0 0,2.1014 0,2.1013 -0.603576,0.6036 -0.603577,0.6036 -1.363637,0 -1.363636,0 0,0.2459 0,0.2459 -0.68342,0 -0.6834199,0 -0.3544716,0.4918 c -0.1949595,0.2705 -0.4162709,0.4918 -0.4918033,0.4918 z m 0,-1.4754 1.2295082,0 0,-0.2459 0,-0.2459 1.6095376,0 1.609538,0 0.603577,-0.6036 0.603577,-0.6036 0,-1.6095 0,-1.6096 -0.245902,0 -0.245901,0 0,-0.7377 0,-0.7377 -5.1639348,0 -5.1639344,0 0,0.7377 0,0.7377 -0.2459017,0 -0.2459016,0 0,1.6096 0,1.6095 0.6035767,0.6036 0.6035768,0.6036 1.6095379,0 1.6095381,0 0,0.2459 0,0.2459 1.2295082,0 z m -3.1967213,-0.9836 -0.4918033,0 0,-2.459 0,-2.4591 1.3700235,0 1.3700233,0 0.3512882,0.3513 0.3512879,0.3513 0,0.7728 0,0.7729 -0.3512879,0.3513 -0.3512882,0.3513 -0.87822,0 -0.8782203,0 0,0.9836 0,0.9836 -0.4918032,0 z m 1.2295082,-2.459 0.7377049,0 0,-0.9837 0,-0.9836 -0.7377049,0 -0.737705,0 0,0.9836 0,0.9837 0.737705,0 z m 3.8226529,2.459 -1.1177349,0 0,-2.459 0,-2.4591 1.1177349,0 1.117735,0 0.603576,0.6036 0.603577,0.6036 0,1.2519 0,1.2518 -0.603577,0.6036 -0.603576,0.6036 -1.117735,0 z m 0.252289,-0.4918 0.386416,0 0.351289,-0.3513 0.351287,-0.3513 0,-1.2646 0,-1.2647 -0.351287,-0.3513 -0.351289,-0.3513 -0.386416,0 -0.386417,0 0,1.9673 0,1.9672 0.386417,0 z"
         id="path6536" />
      <path
         style="fill:#00007f"
         d="m 8.3770492,1050.395 c -0.075532,0 -0.2968439,-0.2213 -0.4918033,-0.4918 l -0.3544716,-0.4918 -0.68342,0 -0.6834199,0 0,-0.2459 0,-0.2459 -1.3636364,0 -1.3636363,0 -0.6035767,-0.6036 -0.6035768,-0.6036 0,-2.1013 0,-2.1014 0.2459016,0 0.2459017,0 0,-0.6834 0,-0.6834 -0.4918033,-0.3545 -0.4918033,-0.3544 0,-0.3228 0,-0.3228 0.9047131,-0.9047 0.9047131,-0.9047 0.099385,0.2982 0.099385,0.2981 0.4713113,0 0.4713116,0 0,0.2459 0,0.2459 1.7213115,0 1.7213114,0 0,-0.4918 0,-0.4918 0.2459017,0 0.2459016,0 0,0.4918 0,0.4918 1.7213108,0 1.721312,0 0,-0.2459 0,-0.2459 0.471311,0 0.471312,0 0.09939,-0.2981 0.09938,-0.2982 0.904713,0.9047 0.904713,0.9047 0,0.3228 0,0.3228 -0.491803,0.3544 -0.491803,0.3545 0,0.6834 0,0.6834 0.245902,0 0.245901,0 0,2.1014 0,2.1013 -0.603576,0.6036 -0.603577,0.6036 -1.363637,0 -1.363636,0 0,0.2459 0,0.2459 -0.6834196,0 -0.6834199,0 -0.3544716,0.4918 c -0.1949595,0.2705 -0.4162709,0.4918 -0.4918033,0.4918 z m 0,-1.4754 1.2295082,0 0,-0.2459 0,-0.2459 1.6095376,0 1.609538,0 0.603577,-0.6036 0.603577,-0.6036 0,-1.6095 0,-1.6096 -0.245902,0 -0.245901,0 0,-0.7377 0,-0.7377 -5.1639348,0 -5.1639344,0 0,0.7377 0,0.7377 -0.2459017,0 -0.2459016,0 0,1.6096 0,1.6095 0.6035767,0.6036 0.6035768,0.6036 1.6095379,0 1.6095381,0 0,0.2459 0,0.2459 1.2295082,0 z m -3.1967213,-0.9836 -0.4918033,0 0,-2.459 0,-2.4591 1.3700235,0 1.3700233,0 0.3512882,0.3513 0.3512879,0.3513 0,0.7728 0,0.7729 -0.3512879,0.3513 -0.3512882,0.3513 -0.87822,0 -0.8782203,0 0,0.9836 0,0.9836 -0.4918032,0 z m 1.2295082,-2.459 0.7377049,0 0,-0.9837 0,-0.9836 -0.7377049,0 -0.737705,0 0,0.9836 0,0.9837 0.737705,0 z m 3.8226529,2.459 -1.1177349,0 0,-2.459 0,-2.4591 1.1177349,0 1.117735,0 0.603576,0.6036 0.603577,0.6036 0,1.2519 0,1.2518 -0.603577,0.6036 -0.603576,0.6036 -1.117735,0 z m 0.252289,-0.4918 0.386416,0 0.351289,-0.3513 0.351287,-0.3513 0,-1.2646 0,-1.2647 -0.351287,-0.3513 -0.351289,-0.3513 -0.386416,0 -0.386417,0 0,1.9673 0,1.9672 0.386417,0 z"
         id="path6534" />
      <path
         style="fill:#000000"
         d="m 8.3770492,1050.395 c -0.075532,0 -0.2968439,-0.2213 -0.4918033,-0.4918 l -0.3544716,-0.4918 -0.68342,0 -0.6834199,0 0,-0.2459 0,-0.2459 -1.3636364,0 -1.3636363,0 -0.6035767,-0.6036 -0.6035768,-0.6036 0,-2.1013 0,-2.1014 0.2459016,0 0.2459017,0 0,-0.6834 0,-0.6834 -0.4918033,-0.3545 -0.4918033,-0.3544 0,-0.3228 0,-0.3228 0.9047131,-0.9047 0.9047131,-0.9047 0.099385,0.2982 0.099385,0.2981 0.4713113,0 0.4713116,0 0,0.2459 0,0.2459 1.7213115,0 1.7213114,0 0,-0.4918 0,-0.4918 0.2459017,0 0.2459016,0 0,0.4918 0,0.4918 1.7213108,0 1.721312,0 0,-0.2459 0,-0.2459 0.471311,0 0.471312,0 0.09939,-0.2981 0.09938,-0.2982 0.904713,0.9047 0.904713,0.9047 0,0.3228 0,0.3228 -0.491803,0.3544 -0.491803,0.3545 0,0.6834 0,0.6834 0.245902,0 0.245901,0 0,2.1014 0,2.1013 -0.603576,0.6036 -0.603577,0.6036 -1.363637,0 -1.363636,0 0,0.2459 0,0.2459 -0.6834196,0 -0.6834199,0 -0.3544716,0.4918 c -0.1949595,0.2705 -0.4162709,0.4918 -0.4918033,0.4918 z m 0,-1.4754 1.2295082,0 0,-0.2459 0,-0.2459 1.6095376,0 1.609538,0 0.603577,-0.6036 0.603577,-0.6036 0,-1.6095 0,-1.6096 -0.245902,0 -0.245901,0 0,-0.9293 0,-0.9293 0.491803,-0.3545 0.491803,-0.3544 0,-0.3258 0,-0.3257 -0.658066,-0.6581 -0.658067,-0.6581 -0.10013,0.3004 -0.10013,0.3004 -0.471312,0 -0.471311,0 0,0.2459 0,0.2459 -1.70082,0 -1.7008195,0 -0.1434428,-0.3074 -0.1434425,-0.3073 -0.1434426,0.3073 -0.1434427,0.3074 -1.7008196,0 -1.7008197,0 0,-0.2459 0,-0.2459 -0.4713116,0 -0.4713113,0 -0.1001304,-0.3004 -0.1001304,-0.3004 -0.6580664,0.6581 -0.6580663,0.6581 0,0.3257 0,0.3258 0.4918033,0.3544 0.4918033,0.3545 0,0.9293 0,0.9293 -0.2459017,0 -0.2459016,0 0,1.6096 0,1.6095 0.6035767,0.6036 0.6035768,0.6036 1.6095379,0 1.6095381,0 0,0.2459 0,0.2459 1.2295082,0 z"
         id="path6532" />
    </g>
  </g>
</svg>
