<?xml version="1.0" encoding="UTF-8" standalone="no"?>
<!-- Created with Inkscape (http://www.inkscape.org/) -->

<svg
   xmlns:dc="http://purl.org/dc/elements/1.1/"
   xmlns:cc="http://creativecommons.org/ns#"
   xmlns:rdf="http://www.w3.org/1999/02/22-rdf-syntax-ns#"
   xmlns:svg="http://www.w3.org/2000/svg"
   xmlns="http://www.w3.org/2000/svg"
   xmlns:sodipodi="http://sodipodi.sourceforge.net/DTD/sodipodi-0.dtd"
   xmlns:inkscape="http://www.inkscape.org/namespaces/inkscape"
   width="16"
   height="16"
   id="svg2"
   version="1.1"
   inkscape:version="0.47 r22583"
   sodipodi:docname="BADG2-32.svg">
  <defs
     id="defs4">
    <inkscape:perspective
       sodipodi:type="inkscape:persp3d"
       inkscape:vp_x="0 : 526.18109 : 1"
       inkscape:vp_y="0 : 1000 : 0"
       inkscape:vp_z="744.09448 : 526.18109 : 1"
       inkscape:persp3d-origin="372.04724 : 350.78739 : 1"
       id="perspective10" />
    <inkscape:perspective
       id="perspective2824"
       inkscape:persp3d-origin="0.5 : 0.33333333 : 1"
       inkscape:vp_z="1 : 0.5 : 1"
       inkscape:vp_y="0 : 1000 : 0"
       inkscape:vp_x="0 : 0.5 : 1"
       sodipodi:type="inkscape:persp3d" />
    <inkscape:perspective
       id="perspective5878"
       inkscape:persp3d-origin="0.5 : 0.33333333 : 1"
       inkscape:vp_z="1 : 0.5 : 1"
       inkscape:vp_y="0 : 1000 : 0"
       inkscape:vp_x="0 : 0.5 : 1"
       sodipodi:type="inkscape:persp3d" />
    <inkscape:perspective
       id="perspective5921"
       inkscape:persp3d-origin="0.5 : 0.33333333 : 1"
       inkscape:vp_z="1 : 0.5 : 1"
       inkscape:vp_y="0 : 1000 : 0"
       inkscape:vp_x="0 : 0.5 : 1"
       sodipodi:type="inkscape:persp3d" />
    <inkscape:perspective
       id="perspective5943"
       inkscape:persp3d-origin="0.5 : 0.33333333 : 1"
       inkscape:vp_z="1 : 0.5 : 1"
       inkscape:vp_y="0 : 1000 : 0"
       inkscape:vp_x="0 : 0.5 : 1"
       sodipodi:type="inkscape:persp3d" />
    <inkscape:perspective
       id="perspective5989"
       inkscape:persp3d-origin="0.5 : 0.33333333 : 1"
       inkscape:vp_z="1 : 0.5 : 1"
       inkscape:vp_y="0 : 1000 : 0"
       inkscape:vp_x="0 : 0.5 : 1"
       sodipodi:type="inkscape:persp3d" />
    <inkscape:perspective
       id="perspective6011"
       inkscape:persp3d-origin="0.5 : 0.33333333 : 1"
       inkscape:vp_z="1 : 0.5 : 1"
       inkscape:vp_y="0 : 1000 : 0"
       inkscape:vp_x="0 : 0.5 : 1"
       sodipodi:type="inkscape:persp3d" />
    <inkscape:perspective
       id="perspective6033"
       inkscape:persp3d-origin="0.5 : 0.33333333 : 1"
       inkscape:vp_z="1 : 0.5 : 1"
       inkscape:vp_y="0 : 1000 : 0"
       inkscape:vp_x="0 : 0.5 : 1"
       sodipodi:type="inkscape:persp3d" />
    <inkscape:perspective
       id="perspective6245"
       inkscape:persp3d-origin="0.5 : 0.33333333 : 1"
       inkscape:vp_z="1 : 0.5 : 1"
       inkscape:vp_y="0 : 1000 : 0"
       inkscape:vp_x="0 : 0.5 : 1"
       sodipodi:type="inkscape:persp3d" />
    <inkscape:perspective
       id="perspective6269"
       inkscape:persp3d-origin="0.5 : 0.33333333 : 1"
       inkscape:vp_z="1 : 0.5 : 1"
       inkscape:vp_y="0 : 1000 : 0"
       inkscape:vp_x="0 : 0.5 : 1"
       sodipodi:type="inkscape:persp3d" />
    <inkscape:perspective
       id="perspective6364"
       inkscape:persp3d-origin="0.5 : 0.33333333 : 1"
       inkscape:vp_z="1 : 0.5 : 1"
       inkscape:vp_y="0 : 1000 : 0"
       inkscape:vp_x="0 : 0.5 : 1"
       sodipodi:type="inkscape:persp3d" />
    <inkscape:perspective
       id="perspective6396"
       inkscape:persp3d-origin="0.5 : 0.33333333 : 1"
       inkscape:vp_z="1 : 0.5 : 1"
       inkscape:vp_y="0 : 1000 : 0"
       inkscape:vp_x="0 : 0.5 : 1"
       sodipodi:type="inkscape:persp3d" />
    <inkscape:perspective
       id="perspective6438"
       inkscape:persp3d-origin="0.5 : 0.33333333 : 1"
       inkscape:vp_z="1 : 0.5 : 1"
       inkscape:vp_y="0 : 1000 : 0"
       inkscape:vp_x="0 : 0.5 : 1"
       sodipodi:type="inkscape:persp3d" />
    <inkscape:perspective
       id="perspective6460"
       inkscape:persp3d-origin="0.5 : 0.33333333 : 1"
       inkscape:vp_z="1 : 0.5 : 1"
       inkscape:vp_y="0 : 1000 : 0"
       inkscape:vp_x="0 : 0.5 : 1"
       sodipodi:type="inkscape:persp3d" />
    <inkscape:perspective
       id="perspective6480"
       inkscape:persp3d-origin="0.5 : 0.33333333 : 1"
       inkscape:vp_z="1 : 0.5 : 1"
       inkscape:vp_y="0 : 1000 : 0"
       inkscape:vp_x="0 : 0.5 : 1"
       sodipodi:type="inkscape:persp3d" />
    <inkscape:perspective
       id="perspective6504"
       inkscape:persp3d-origin="0.5 : 0.33333333 : 1"
       inkscape:vp_z="1 : 0.5 : 1"
       inkscape:vp_y="0 : 1000 : 0"
       inkscape:vp_x="0 : 0.5 : 1"
       sodipodi:type="inkscape:persp3d" />
    <inkscape:perspective
       id="perspective6524"
       inkscape:persp3d-origin="0.5 : 0.33333333 : 1"
       inkscape:vp_z="1 : 0.5 : 1"
       inkscape:vp_y="0 : 1000 : 0"
       inkscape:vp_x="0 : 0.5 : 1"
       sodipodi:type="inkscape:persp3d" />
    <inkscape:perspective
       id="perspective6548"
       inkscape:persp3d-origin="0.5 : 0.33333333 : 1"
       inkscape:vp_z="1 : 0.5 : 1"
       inkscape:vp_y="0 : 1000 : 0"
       inkscape:vp_x="0 : 0.5 : 1"
       sodipodi:type="inkscape:persp3d" />
  </defs>
  <sodipodi:namedview
     id="base"
     pagecolor="#ffffff"
     bordercolor="#666666"
     borderopacity="1.0"
     inkscape:pageopacity="0.0"
     inkscape:pageshadow="2"
     inkscape:zoom="8.671875"
     inkscape:cx="10.564203"
     inkscape:cy="2.743179"
     inkscape:document-units="px"
     inkscape:current-layer="layer1"
     showgrid="true"
     inkscape:window-width="1280"
     inkscape:window-height="780"
     inkscape:window-x="-8"
     inkscape:window-y="-8"
     inkscape:window-maximized="1">
    <inkscape:grid
       type="xygrid"
       id="grid6324"
       empspacing="5"
       visible="true"
       enabled="true"
       snapvisiblegridlinesonly="true" />
  </sodipodi:namedview>
  <metadata
     id="metadata7">
    <rdf:RDF>
      <cc:Work
         rdf:about="">
        <dc:format>image/svg+xml</dc:format>
        <dc:type
           rdf:resource="http://purl.org/dc/dcmitype/StillImage" />
        <dc:title></dc:title>
      </cc:Work>
    </rdf:RDF>
  </metadata>
  <g
     inkscape:label="Calque 1"
     inkscape:groupmode="layer"
     id="layer1"
     transform="translate(0,-1036.3622)">
    <g
       id="g6554"
       transform="translate(-0.083176,-0.4633)">
      <path
         style="fill:#bfbfbf"
         d="m 8.2111415,1049.9516 c -0.072963,0 -0.286746,-0.2137 -0.4750734,-0.475 l -0.3424134,-0.4751 -0.6601718,0 -0.6601717,0 0,-0.2375 0,-0.2376 -1.3172491,0 -1.3172489,0 -0.5830447,-0.583 -0.5830446,-0.5831 0,-2.0298 0,-2.0299 0.2375367,0 0.2375367,0 0,-0.4226 0,-0.4227 -0.4750734,-0.3424 -0.4750734,-0.3424 0,-0.4028 0,-0.4029 -0.2880133,-0.096 -0.2880132,-0.096 0.8739371,-0.8739 0.8739371,-0.8739 0.6017598,0 0.6017595,0 0,0.2375 0,0.2375 0.4750735,0 0.4750734,0 0,0.2376 0,0.2375 1.1004375,0 1.1004372,0 0.4435513,-0.5114 0.4435511,-0.5114 0.4435511,0.5114 0.4435514,0.5114 1.100437,0 1.100438,0 0,-0.2375 0,-0.2376 0.475073,0 0.475074,0 0,-0.2375 0,-0.2375 0.601759,0 0.60176,0 0.873937,0.8739 0.873937,0.8739 -0.288013,0.096 -0.288013,0.096 0,0.4029 0,0.4028 -0.475074,0.3424 -0.475073,0.3424 0,0.4227 0,0.4226 0.237536,0 0.237537,0 0,2.0299 0,2.0298 -0.583044,0.5831 -0.583045,0.583 -1.317249,0 -1.317249,0 0,0.2376 0,0.2375 -0.6601719,0 -0.6601717,0 -0.3424134,0.4751 c -0.1883275,0.2613 -0.4021105,0.475 -0.4750735,0.475 z"
         id="path6562" />
      <path
         style="fill:#7f7f7f"
         d="m 8.2111415,1049.9516 c -0.072963,0 -0.286746,-0.2137 -0.4750734,-0.475 l -0.3424134,-0.4751 -0.6601718,0 -0.6601717,0 0,-0.2375 0,-0.2376 -1.3172491,0 -1.3172489,0 -0.5830447,-0.583 -0.5830446,-0.5831 0,-2.0298 0,-2.0299 0.2375367,0 0.2375367,0 0,-0.4226 0,-0.4227 -0.4750734,-0.3424 -0.4750734,-0.3424 0,-0.4028 0,-0.4029 -0.2880133,-0.096 -0.2880132,-0.096 0.8739371,-0.8739 0.8739371,-0.8739 0.6017598,0 0.6017595,0 0,0.2375 0,0.2375 0.4750735,0 0.4750734,0 0,0.2376 0,0.2375 1.1004375,0 1.1004372,0 0.4435513,-0.5114 0.4435511,-0.5114 0.4435511,0.5114 0.4435514,0.5114 1.100437,0 1.100438,0 0,-0.2375 0,-0.2376 0.475073,0 0.475074,0 0,-0.2375 0,-0.2375 0.601759,0 0.60176,0 0.873937,0.8739 0.873937,0.8739 -0.288013,0.096 -0.288013,0.096 0,0.4029 0,0.4028 -0.475074,0.3424 -0.475073,0.3424 0,0.4227 0,0.4226 0.237536,0 0.237537,0 0,2.0299 0,2.0298 -0.583044,0.5831 -0.583045,0.583 -1.317249,0 -1.317249,0 0,0.2376 0,0.2375 -0.6601719,0 -0.6601717,0 -0.3424134,0.4751 c -0.1883275,0.2613 -0.4021105,0.475 -0.4750735,0.475 z m 0,-1.4252 1.1876836,0 0,-0.2375 0,-0.2375 1.5547859,0 1.554785,0 0.583045,-0.5831 0.583045,-0.583 0,-1.5548 0,-1.5548 -0.237537,0 -0.237537,0 0,-0.7126 0,-0.7126 -4.9882705,0 -4.9882708,0 0,0.7126 0,0.7126 -0.2375367,0 -0.2375367,0 0,1.5548 0,1.5548 0.5830445,0.583 0.5830448,0.5831 1.5547856,0 1.5547858,0 0,0.2375 0,0.2375 1.1876835,0 z m -3.0879771,-0.9501 -0.4750734,0 0,-2.3754 0,-2.3754 1.6627569,0 1.6627569,0 0,0.4751 0,0.4751 -1.1876835,0 -1.1876835,0 0,0.4751 0,0.475 0.9501468,0 0.9501468,0 0,0.4751 0,0.4751 -0.9501468,0 -0.9501468,0 0,0.9501 0,0.9502 -0.4750734,0 z m 4.8802996,0 -1.0797123,0 0,-2.3754 0,-2.3754 1.0797123,0 1.079712,0 0.583045,0.5831 0.583045,0.583 0,1.2093 0,1.2093 -0.583045,0.583 -0.583045,0.5831 -1.079712,0 z m 0.243707,-0.9502 0.373271,0 0.339339,-0.3393 0.339338,-0.3393 0,-0.7466 0,-0.7465 -0.339338,-0.3394 -0.339339,-0.3393 -0.373271,0 -0.3732725,0 0,1.4252 0,1.4252 0.3732725,0 z"
         id="path6560" />
      <path
         style="fill:#7f0000"
         d="m 8.2111415,1049.9516 c -0.072963,0 -0.286746,-0.2137 -0.4750734,-0.475 l -0.3424134,-0.4751 -0.6601718,0 -0.6601717,0 0,-0.2375 0,-0.2376 -1.3172491,0 -1.3172489,0 -0.5830447,-0.583 -0.5830446,-0.5831 0,-2.0298 0,-2.0299 0.2375367,0 0.2375367,0 0,-0.6602 0,-0.6601 -0.4750734,-0.3424 -0.4750734,-0.3425 0,-0.3117 0,-0.3118 0.8739371,-0.874 0.8739371,-0.8739 0.096004,0.288 0.096005,0.288 0.4552785,0 0.4552788,0 0,0.2376 0,0.2375 1.6627569,0 1.6627569,0 0,-0.4751 0,-0.475 0.2375367,0 0.2375367,0 0,0.475 0,0.4751 1.6627568,0 1.662757,0 0,-0.2375 0,-0.2376 0.455279,0 0.455278,0 0.096,-0.288 0.096,-0.288 0.873937,0.8739 0.873938,0.874 0,0.3118 0,0.3117 -0.475074,0.3425 -0.475073,0.3424 0,0.6601 0,0.6602 0.237536,0 0.237537,0 0,2.0299 0,2.0298 -0.583044,0.5831 -0.583045,0.583 -1.317249,0 -1.317249,0 0,0.2376 0,0.2375 -0.6601719,0 -0.6601717,0 -0.3424134,0.4751 c -0.1883275,0.2613 -0.4021105,0.475 -0.4750735,0.475 z m 0,-1.4252 1.1876836,0 0,-0.2375 0,-0.2375 1.5547859,0 1.554785,0 0.583045,-0.5831 0.583045,-0.583 0,-1.5548 0,-1.5548 -0.237537,0 -0.237537,0 0,-0.7126 0,-0.7126 -4.9882705,0 -4.9882708,0 0,0.7126 0,0.7126 -0.2375367,0 -0.2375367,0 0,1.5548 0,1.5548 0.5830445,0.583 0.5830448,0.5831 1.5547856,0 1.5547858,0 0,0.2375 0,0.2375 1.1876835,0 z m -3.0879771,-0.9501 -0.4750734,0 0,-2.3754 0,-2.3754 1.6627569,0 1.6627569,0 0,0.4751 0,0.4751 -1.1876835,0 -1.1876835,0 0,0.4751 0,0.475 0.9501468,0 0.9501468,0 0,0.4751 0,0.4751 -0.9501468,0 -0.9501468,0 0,0.9501 0,0.9502 -0.4750734,0 z m 4.8802996,0 -1.0797123,0 0,-2.3754 0,-2.3754 1.0797123,0 1.079712,0 0.583045,0.5831 0.583045,0.583 0,1.2093 0,1.2093 -0.583045,0.583 -0.583045,0.5831 -1.079712,0 z m 0.243707,-0.9502 0.373271,0 0.339339,-0.3393 0.339338,-0.3393 0,-0.7466 0,-0.7465 -0.339338,-0.3394 -0.339339,-0.3393 -0.373271,0 -0.3732725,0 0,1.4252 0,1.4252 0.3732725,0 z"
         id="path6558" />
      <path
         style="fill:#000000"
         d="m 8.2111415,1049.9516 c -0.072963,0 -0.286746,-0.2137 -0.4750734,-0.475 l -0.3424134,-0.4751 -0.6601718,0 -0.6601717,0 0,-0.2375 0,-0.2376 -1.3172491,0 -1.3172489,0 -0.5830447,-0.583 -0.5830446,-0.5831 0,-2.0298 0,-2.0299 0.2375367,0 0.2375367,0 0,-0.6602 0,-0.6601 -0.4750734,-0.3424 -0.4750734,-0.3425 0,-0.3117 0,-0.3118 0.8739371,-0.874 0.8739371,-0.8739 0.096004,0.288 0.096005,0.288 0.4552785,0 0.4552788,0 0,0.2376 0,0.2375 1.6627569,0 1.6627569,0 0,-0.4751 0,-0.475 0.2375367,0 0.2375367,0 0,0.475 0,0.4751 1.6627568,0 1.662757,0 0,-0.2375 0,-0.2376 0.455279,0 0.455278,0 0.096,-0.288 0.096,-0.288 0.873937,0.8739 0.873938,0.874 0,0.3118 0,0.3117 -0.475074,0.3425 -0.475073,0.3424 0,0.6601 0,0.6602 0.237536,0 0.237537,0 0,2.0299 0,2.0298 -0.583044,0.5831 -0.583045,0.583 -1.317249,0 -1.317249,0 0,0.2376 0,0.2375 -0.6601719,0 -0.6601717,0 -0.3424134,0.4751 c -0.1883275,0.2613 -0.4021105,0.475 -0.4750735,0.475 z m 0,-1.4252 1.1876836,0 0,-0.2375 0,-0.2375 1.5547859,0 1.554785,0 0.583045,-0.5831 0.583045,-0.583 0,-1.5548 0,-1.5548 -0.237537,0 -0.237537,0 0,-0.8977 0,-0.8977 0.475074,-0.3424 0.475073,-0.3425 0,-0.3146 0,-0.3147 -0.63568,-0.6357 -0.635681,-0.6356 -0.09672,0.2901 -0.09672,0.2902 -0.455278,0 -0.455279,0 0,0.2375 0,0.2376 -1.642962,0 -1.6429622,0 -0.1385633,-0.2969 -0.138563,-0.297 -0.138563,0.297 -0.1385632,0.2969 -1.6429621,0 -1.6429622,0 0,-0.2376 0,-0.2375 -0.4552788,0 -0.4552785,0 -0.096724,-0.2902 -0.096724,-0.2901 -0.6356807,0.6356 -0.6356806,0.6357 0,0.3147 0,0.3146 0.4750734,0.3425 0.4750734,0.3424 0,0.8977 0,0.8977 -0.2375367,0 -0.2375367,0 0,1.5548 0,1.5548 0.5830445,0.583 0.5830448,0.5831 1.5547856,0 1.5547858,0 0,0.2375 0,0.2375 1.1876835,0 z"
         id="path6556" />
    </g>
  </g>
</svg>
