<?xml version="1.0" encoding="UTF-8" standalone="no"?>
<!-- Created with Inkscape (http://www.inkscape.org/) -->

<svg
   xmlns:dc="http://purl.org/dc/elements/1.1/"
   xmlns:cc="http://creativecommons.org/ns#"
   xmlns:rdf="http://www.w3.org/1999/02/22-rdf-syntax-ns#"
   xmlns:svg="http://www.w3.org/2000/svg"
   xmlns="http://www.w3.org/2000/svg"
   xmlns:sodipodi="http://sodipodi.sourceforge.net/DTD/sodipodi-0.dtd"
   xmlns:inkscape="http://www.inkscape.org/namespaces/inkscape"
   width="16"
   height="16"
   id="svg2"
   version="1.1"
   inkscape:version="0.47 r22583"
   sodipodi:docname="BANK1-32.svg">
  <defs
     id="defs4">
    <inkscape:perspective
       sodipodi:type="inkscape:persp3d"
       inkscape:vp_x="0 : 526.18109 : 1"
       inkscape:vp_y="0 : 1000 : 0"
       inkscape:vp_z="744.09448 : 526.18109 : 1"
       inkscape:persp3d-origin="372.04724 : 350.78739 : 1"
       id="perspective10" />
    <inkscape:perspective
       id="perspective2824"
       inkscape:persp3d-origin="0.5 : 0.33333333 : 1"
       inkscape:vp_z="1 : 0.5 : 1"
       inkscape:vp_y="0 : 1000 : 0"
       inkscape:vp_x="0 : 0.5 : 1"
       sodipodi:type="inkscape:persp3d" />
    <inkscape:perspective
       id="perspective5878"
       inkscape:persp3d-origin="0.5 : 0.33333333 : 1"
       inkscape:vp_z="1 : 0.5 : 1"
       inkscape:vp_y="0 : 1000 : 0"
       inkscape:vp_x="0 : 0.5 : 1"
       sodipodi:type="inkscape:persp3d" />
    <inkscape:perspective
       id="perspective5921"
       inkscape:persp3d-origin="0.5 : 0.33333333 : 1"
       inkscape:vp_z="1 : 0.5 : 1"
       inkscape:vp_y="0 : 1000 : 0"
       inkscape:vp_x="0 : 0.5 : 1"
       sodipodi:type="inkscape:persp3d" />
    <inkscape:perspective
       id="perspective5943"
       inkscape:persp3d-origin="0.5 : 0.33333333 : 1"
       inkscape:vp_z="1 : 0.5 : 1"
       inkscape:vp_y="0 : 1000 : 0"
       inkscape:vp_x="0 : 0.5 : 1"
       sodipodi:type="inkscape:persp3d" />
    <inkscape:perspective
       id="perspective5989"
       inkscape:persp3d-origin="0.5 : 0.33333333 : 1"
       inkscape:vp_z="1 : 0.5 : 1"
       inkscape:vp_y="0 : 1000 : 0"
       inkscape:vp_x="0 : 0.5 : 1"
       sodipodi:type="inkscape:persp3d" />
    <inkscape:perspective
       id="perspective6011"
       inkscape:persp3d-origin="0.5 : 0.33333333 : 1"
       inkscape:vp_z="1 : 0.5 : 1"
       inkscape:vp_y="0 : 1000 : 0"
       inkscape:vp_x="0 : 0.5 : 1"
       sodipodi:type="inkscape:persp3d" />
    <inkscape:perspective
       id="perspective6033"
       inkscape:persp3d-origin="0.5 : 0.33333333 : 1"
       inkscape:vp_z="1 : 0.5 : 1"
       inkscape:vp_y="0 : 1000 : 0"
       inkscape:vp_x="0 : 0.5 : 1"
       sodipodi:type="inkscape:persp3d" />
    <inkscape:perspective
       id="perspective6245"
       inkscape:persp3d-origin="0.5 : 0.33333333 : 1"
       inkscape:vp_z="1 : 0.5 : 1"
       inkscape:vp_y="0 : 1000 : 0"
       inkscape:vp_x="0 : 0.5 : 1"
       sodipodi:type="inkscape:persp3d" />
    <inkscape:perspective
       id="perspective6269"
       inkscape:persp3d-origin="0.5 : 0.33333333 : 1"
       inkscape:vp_z="1 : 0.5 : 1"
       inkscape:vp_y="0 : 1000 : 0"
       inkscape:vp_x="0 : 0.5 : 1"
       sodipodi:type="inkscape:persp3d" />
    <inkscape:perspective
       id="perspective6364"
       inkscape:persp3d-origin="0.5 : 0.33333333 : 1"
       inkscape:vp_z="1 : 0.5 : 1"
       inkscape:vp_y="0 : 1000 : 0"
       inkscape:vp_x="0 : 0.5 : 1"
       sodipodi:type="inkscape:persp3d" />
    <inkscape:perspective
       id="perspective6396"
       inkscape:persp3d-origin="0.5 : 0.33333333 : 1"
       inkscape:vp_z="1 : 0.5 : 1"
       inkscape:vp_y="0 : 1000 : 0"
       inkscape:vp_x="0 : 0.5 : 1"
       sodipodi:type="inkscape:persp3d" />
    <inkscape:perspective
       id="perspective6438"
       inkscape:persp3d-origin="0.5 : 0.33333333 : 1"
       inkscape:vp_z="1 : 0.5 : 1"
       inkscape:vp_y="0 : 1000 : 0"
       inkscape:vp_x="0 : 0.5 : 1"
       sodipodi:type="inkscape:persp3d" />
    <inkscape:perspective
       id="perspective6460"
       inkscape:persp3d-origin="0.5 : 0.33333333 : 1"
       inkscape:vp_z="1 : 0.5 : 1"
       inkscape:vp_y="0 : 1000 : 0"
       inkscape:vp_x="0 : 0.5 : 1"
       sodipodi:type="inkscape:persp3d" />
    <inkscape:perspective
       id="perspective6480"
       inkscape:persp3d-origin="0.5 : 0.33333333 : 1"
       inkscape:vp_z="1 : 0.5 : 1"
       inkscape:vp_y="0 : 1000 : 0"
       inkscape:vp_x="0 : 0.5 : 1"
       sodipodi:type="inkscape:persp3d" />
    <inkscape:perspective
       id="perspective6504"
       inkscape:persp3d-origin="0.5 : 0.33333333 : 1"
       inkscape:vp_z="1 : 0.5 : 1"
       inkscape:vp_y="0 : 1000 : 0"
       inkscape:vp_x="0 : 0.5 : 1"
       sodipodi:type="inkscape:persp3d" />
    <inkscape:perspective
       id="perspective6524"
       inkscape:persp3d-origin="0.5 : 0.33333333 : 1"
       inkscape:vp_z="1 : 0.5 : 1"
       inkscape:vp_y="0 : 1000 : 0"
       inkscape:vp_x="0 : 0.5 : 1"
       sodipodi:type="inkscape:persp3d" />
    <inkscape:perspective
       id="perspective6548"
       inkscape:persp3d-origin="0.5 : 0.33333333 : 1"
       inkscape:vp_z="1 : 0.5 : 1"
       inkscape:vp_y="0 : 1000 : 0"
       inkscape:vp_x="0 : 0.5 : 1"
       sodipodi:type="inkscape:persp3d" />
    <inkscape:perspective
       id="perspective6572"
       inkscape:persp3d-origin="0.5 : 0.33333333 : 1"
       inkscape:vp_z="1 : 0.5 : 1"
       inkscape:vp_y="0 : 1000 : 0"
       inkscape:vp_x="0 : 0.5 : 1"
       sodipodi:type="inkscape:persp3d" />
  </defs>
  <sodipodi:namedview
     id="base"
     pagecolor="#ffffff"
     bordercolor="#666666"
     borderopacity="1.0"
     inkscape:pageopacity="0.0"
     inkscape:pageshadow="2"
     inkscape:zoom="8.671875"
     inkscape:cx="10.564203"
     inkscape:cy="2.743179"
     inkscape:document-units="px"
     inkscape:current-layer="layer1"
     showgrid="true"
     inkscape:window-width="1280"
     inkscape:window-height="780"
     inkscape:window-x="-8"
     inkscape:window-y="-8"
     inkscape:window-maximized="1">
    <inkscape:grid
       type="xygrid"
       id="grid6324"
       empspacing="5"
       visible="true"
       enabled="true"
       snapvisiblegridlinesonly="true" />
  </sodipodi:namedview>
  <metadata
     id="metadata7">
    <rdf:RDF>
      <cc:Work
         rdf:about="">
        <dc:format>image/svg+xml</dc:format>
        <dc:type
           rdf:resource="http://purl.org/dc/dcmitype/StillImage" />
        <dc:title></dc:title>
      </cc:Work>
    </rdf:RDF>
  </metadata>
  <g
     inkscape:label="Calque 1"
     inkscape:groupmode="layer"
     id="layer1"
     transform="translate(0,-1036.3622)">
    <g
       id="g6578"
       transform="translate(-0.5199929,0.4628)">
      <path
         style="fill:#bfbfbf"
         d="m 8.0799907,1048.2422 -4.9600075,0 0,-0.8 0,-0.8 0.1600002,0 0.1600002,0 0,-0.32 0,-0.32 0.1600003,0 0.1600002,0 0,-2.08 0,-2.08 -0.3200005,0 -0.3200004,0 0,-0.64 0,-0.64 0.3200004,0 0.3200005,0 0,-0.16 0,-0.16 0.3200005,0 0.3200005,0 0,-0.16 0,-0.16 0.3200005,0 0.3200005,0 0,-0.16 0,-0.16 0.3200005,0 0.3200005,0 0,-0.16 0,-0.16 0.3200004,0 0.3200005,0 0,-0.16 0,-0.16 0.3200005,0 0.3200005,0 0,-0.16 0,-0.16 0.3200005,0 0.3200005,0 0,-0.16 0,-0.16 0.4800007,0 0.4800007,0 0,0.16 0,0.16 0.3200005,0 0.3200005,0 0,0.16 0,0.16 0.3200005,0 0.3200005,0 0,0.16 0,0.16 0.3200006,0 0.32,0 0,0.16 0,0.16 0.320001,0 0.32,0 0,0.16 0,0.16 0.320001,0 0.32,0 0,0.16 0,0.16 0.320001,0 0.32,0 0,0.16 0,0.16 0.320001,0 0.32,0 0,0.64 0,0.64 -0.32,0 -0.320001,0 0,2.08 0,2.08 0.160001,0 0.16,0 0,0.32 0,0.32 0.16,0 0.16,0 0,0.8 0,0.8 -4.9600073,0 z"
         id="path6584" />
      <path
         style="fill:#00fe00"
         d="m 8.0799907,1048.2422 -4.9600075,0 0,-0.8 0,-0.8 0.1600002,0 0.1600002,0 0,-0.32 0,-0.32 0.1600003,0 0.1600002,0 0,-2.08 0,-2.08 -0.3200005,0 -0.3200004,0 0,-0.64 0,-0.64 0.3200004,0 0.3200005,0 0,-0.16 0,-0.16 0.3200005,0 0.3200005,0 0,-0.16 0,-0.16 0.3200005,0 0.3200005,0 0,-0.16 0,-0.16 0.3200005,0 0.3200005,0 0,-0.16 0,-0.16 0.3200004,0 0.3200005,0 0,-0.16 0,-0.16 0.3200005,0 0.3200005,0 0,-0.16 0,-0.16 0.3200005,0 0.3200005,0 0,-0.16 0,-0.16 0.4800007,0 0.4800007,0 0,0.16 0,0.16 0.3200005,0 0.3200005,0 0,0.16 0,0.16 0.3200005,0 0.3200005,0 0,0.16 0,0.16 0.3200006,0 0.32,0 0,0.16 0,0.16 0.320001,0 0.32,0 0,0.16 0,0.16 0.320001,0 0.32,0 0,0.16 0,0.16 0.320001,0 0.32,0 0,0.16 0,0.16 0.320001,0 0.32,0 0,0.64 0,0.64 -0.32,0 -0.320001,0 0,2.08 0,2.08 0.160001,0 0.16,0 0,0.32 0,0.32 0.16,0 0.16,0 0,0.8 0,0.8 -4.9600073,0 z m 0,-0.64 4.6400073,0 0,-0.32 0,-0.32 -4.6400073,0 -4.6400071,0 0,0.32 0,0.32 4.6400071,0 z m 0,-0.96 4.3200063,0 0,-0.32 0,-0.32 -4.3200063,0 -4.3200066,0 0,0.32 0,0.32 4.3200066,0 z m -3.3600051,-0.96 0.3200005,0 0,-1.92 0,-1.92 -0.3200005,0 -0.3200005,0 0,1.92 0,1.92 0.3200005,0 z m 1.2800019,0 0.3200005,0 0,-1.92 0,-1.92 -0.3200005,0 -0.3200004,0 0,1.92 0,1.92 0.3200004,0 z m 4.1600065,0 0.32,0 0,-1.92 0,-1.92 -0.32,0 -0.3200006,0 0,1.92 0,1.92 0.3200006,0 z m 1.280002,0 0.32,0 0,-1.92 0,-1.92 -0.32,0 -0.320001,0 0,1.92 0,1.92 0.320001,0 z m -3.3600053,-4.16 4.6400073,0 0,-0.32 0,-0.32 -4.6400073,0 -4.6400071,0 0,0.32 0,0.32 4.6400071,0 z m -3.3600051,-0.96 0.3200005,0 0,-0.16 0,-0.16 0.3200005,0 0.3200005,0 0,0.16 0,0.16 2.4000036,0 2.4000033,0 0,-0.16 0,-0.16 0.320001,0 0.32,0 0,0.16 0,0.16 0.320001,0 0.32,0 0,-0.16 0,-0.16 -0.32,0 -0.320001,0 0,-0.16 0,-0.16 -0.32,0 -0.320001,0 0,-0.16 0,-0.16 -0.32,0 -0.3200006,0 0,-0.16 0,-0.16 -0.3200005,0 -0.3200005,0 0,-0.16 0,-0.16 -0.3200005,0 -0.3200005,0 0,-0.16 0,-0.16 -0.4800007,0 -0.4800007,0 0,0.16 0,0.16 -0.3200005,0 -0.3200005,0 0,0.16 0,0.16 -0.3200005,0 -0.3200005,0 0,0.16 0,0.16 -0.3200005,0 -0.3200004,0 0,0.16 0,0.16 -0.3200005,0 -0.3200005,0 0,0.16 0,0.16 -0.3200005,0 -0.3200005,0 0,0.16 0,0.16 0.3200005,0 z m 1.2800019,-0.32 -0.3200004,0 0,-0.16 0,-0.16 0.3200004,0 0.3200005,0 0,-0.16 0,-0.16 0.3200005,0 0.3200005,0 0,-0.16 0,-0.16 0.3200005,0 0.3200005,0 0,-0.16 0,-0.16 0.4800007,0 0.4800007,0 0,0.16 0,0.16 0.3200005,0 0.3200005,0 0,0.16 0,0.16 0.3200005,0 0.3200005,0 0,0.16 0,0.16 0.3200006,0 0.32,0 0,0.16 0,0.16 -0.32,0 -0.3200006,0 0,-0.16 0,-0.16 -0.3200005,0 -0.3200005,0 0,-0.16 0,-0.16 -0.3200005,0 -0.3200005,0 0,-0.16 0,-0.16 -0.4800007,0 -0.4800007,0 0,0.16 0,0.16 -0.3200005,0 -0.3200005,0 0,0.16 0,0.16 -0.3200005,0 -0.3200005,0 0,0.16 0,0.16 -0.3200005,0 z"
         id="path6582" />
      <path
         style="fill:#000000"
         d="m 8.0799907,1048.2422 -4.9600075,0 0,-0.8 0,-0.8 0.1600002,0 0.1600002,0 0,-0.32 0,-0.32 0.1600003,0 0.1600002,0 0,-2.08 0,-2.08 -0.3200005,0 -0.3200004,0 0,-0.64 0,-0.64 0.3200004,0 0.3200005,0 0,-0.16 0,-0.16 0.3200005,0 0.3200005,0 0,-0.16 0,-0.16 0.3200005,0 0.3200005,0 0,-0.16 0,-0.16 0.3200005,0 0.3200005,0 0,-0.16 0,-0.16 0.3200004,0 0.3200005,0 0,-0.16 0,-0.16 0.3200005,0 0.3200005,0 0,-0.16 0,-0.16 0.3200005,0 0.3200005,0 0,-0.16 0,-0.16 0.4800007,0 0.4800007,0 0,0.16 0,0.16 0.3200005,0 0.3200005,0 0,0.16 0,0.16 0.3200005,0 0.3200005,0 0,0.16 0,0.16 0.3200006,0 0.32,0 0,0.16 0,0.16 0.320001,0 0.32,0 0,0.16 0,0.16 0.320001,0 0.32,0 0,0.16 0,0.16 0.320001,0 0.32,0 0,0.16 0,0.16 0.320001,0 0.32,0 0,0.64 0,0.64 -0.32,0 -0.320001,0 0,2.08 0,2.08 0.160001,0 0.16,0 0,0.32 0,0.32 0.16,0 0.16,0 0,0.8 0,0.8 -4.9600073,0 z m 0,-0.64 4.6400073,0 0,-0.32 0,-0.32 -4.6400073,0 -4.6400071,0 0,0.32 0,0.32 4.6400071,0 z m 0,-0.96 4.3200063,0 0,-0.32 0,-0.32 -1.920003,0 -1.9200026,0 0,-0.32 0,-0.32 0.2514291,0 0.2514288,0 0.2285719,-0.2286 0.2285717,-0.2285 0,-0.5029 0,-0.5028 -0.2285717,-0.2286 -0.2285719,-0.2286 -0.2514288,0 -0.2514291,0 0,-0.48 0,-0.48 0.1600003,0 0.1600002,0 0,0.32 0,0.32 0.3200005,0 0.3200005,0 0,-0.2514 0,-0.2514 -0.2285717,-0.2286 -0.2285719,-0.2286 -0.2514288,0 -0.2514291,0 0,-0.32 0,-0.32 2.0800036,0 2.080003,0 0,-0.32 0,-0.32 -4.6400073,0 -4.6400071,0 0,0.32 0,0.32 2.2400035,0 2.2400034,0 0,0.32 0,0.32 -0.2514291,0 -0.2514288,0 -0.2285719,0.2286 -0.2285717,0.2286 0,0.5028 0,0.5029 0.2285717,0.2285 0.2285719,0.2286 0.2514288,0 0.2514291,0 0,0.48 0,0.48 -0.1600003,0 -0.1600002,0 0,-0.32 0,-0.32 -0.3200005,0 -0.3200005,0 0,0.2514 0,0.2515 0.2285717,0.2285 0.2285719,0.2286 0.2514288,0 0.2514291,0 0,0.32 0,0.32 -2.0800032,0 -2.0800032,0 0,0.32 0,0.32 4.3200066,0 z m 0.640001,-1.6 -0.1600003,0 0,-0.48 0,-0.48 0.1600003,0 0.1600002,0 0,0.48 0,0.48 -0.1600002,0 z m -0.9600015,-1.6 -0.1600002,0 0,-0.48 0,-0.48 0.1600002,0 0.1600003,0 0,0.48 0,0.48 -0.1600003,0 z m -3.0400046,2.24 0.3200005,0 0,-1.92 0,-1.92 -0.3200005,0 -0.3200005,0 0,1.92 0,1.92 0.3200005,0 z m 1.2800019,0 0.3200005,0 0,-1.92 0,-1.92 -0.3200005,0 -0.3200004,0 0,1.92 0,1.92 0.3200004,0 z m 4.1600065,0 0.32,0 0,-1.92 0,-1.92 -0.32,0 -0.3200006,0 0,1.92 0,1.92 0.3200006,0 z m 1.280002,0 0.32,0 0,-1.92 0,-1.92 -0.32,0 -0.320001,0 0,1.92 0,1.92 0.320001,0 z m -6.7200104,-5.12 0.3200005,0 0,-0.16 0,-0.16 0.3200005,0 0.3200005,0 0,0.16 0,0.16 2.4000036,0 2.4000033,0 0,-0.16 0,-0.16 0.320001,0 0.32,0 0,0.16 0,0.16 0.320001,0 0.32,0 0,-0.16 0,-0.16 -0.32,0 -0.320001,0 0,-0.16 0,-0.16 -0.32,0 -0.320001,0 0,-0.16 0,-0.16 -0.32,0 -0.3200006,0 0,-0.16 0,-0.16 -0.3200005,0 -0.3200005,0 0,-0.16 0,-0.16 -0.3200005,0 -0.3200005,0 0,-0.16 0,-0.16 -0.4800007,0 -0.4800007,0 0,0.16 0,0.16 -0.3200005,0 -0.3200005,0 0,0.16 0,0.16 -0.3200005,0 -0.3200005,0 0,0.16 0,0.16 -0.3200005,0 -0.3200004,0 0,0.16 0,0.16 -0.3200005,0 -0.3200005,0 0,0.16 0,0.16 -0.3200005,0 -0.3200005,0 0,0.16 0,0.16 0.3200005,0 z m 1.2800019,-0.32 -0.3200004,0 0,-0.16 0,-0.16 0.3200004,0 0.3200005,0 0,-0.16 0,-0.16 0.3200005,0 0.3200005,0 0,-0.16 0,-0.16 0.3200005,0 0.3200005,0 0,-0.16 0,-0.16 0.4800007,0 0.4800007,0 0,0.16 0,0.16 0.3200005,0 0.3200005,0 0,0.16 0,0.16 0.3200005,0 0.3200005,0 0,0.16 0,0.16 0.3200006,0 0.32,0 0,0.16 0,0.16 -0.32,0 -0.3200006,0 0,-0.16 0,-0.16 -0.3200005,0 -0.3200005,0 0,-0.16 0,-0.16 -0.3200005,0 -0.3200005,0 0,-0.16 0,-0.16 -0.4800007,0 -0.4800007,0 0,0.16 0,0.16 -0.3200005,0 -0.3200005,0 0,0.16 0,0.16 -0.3200005,0 -0.3200005,0 0,0.16 0,0.16 -0.3200005,0 z"
         id="path6580" />
    </g>
  </g>
</svg>
