<?xml version="1.0" encoding="UTF-8" standalone="no"?>
<!-- Created with Inkscape (http://www.inkscape.org/) -->

<svg
   xmlns:dc="http://purl.org/dc/elements/1.1/"
   xmlns:cc="http://creativecommons.org/ns#"
   xmlns:rdf="http://www.w3.org/1999/02/22-rdf-syntax-ns#"
   xmlns:svg="http://www.w3.org/2000/svg"
   xmlns="http://www.w3.org/2000/svg"
   xmlns:sodipodi="http://sodipodi.sourceforge.net/DTD/sodipodi-0.dtd"
   xmlns:inkscape="http://www.inkscape.org/namespaces/inkscape"
   width="16"
   height="16"
   id="svg2"
   version="1.1"
   inkscape:version="0.47 r22583"
   sodipodi:docname="BANK1-32.svg">
  <defs
     id="defs4">
    <inkscape:perspective
       sodipodi:type="inkscape:persp3d"
       inkscape:vp_x="0 : 526.18109 : 1"
       inkscape:vp_y="0 : 1000 : 0"
       inkscape:vp_z="744.09448 : 526.18109 : 1"
       inkscape:persp3d-origin="372.04724 : 350.78739 : 1"
       id="perspective10" />
    <inkscape:perspective
       id="perspective2824"
       inkscape:persp3d-origin="0.5 : 0.33333333 : 1"
       inkscape:vp_z="1 : 0.5 : 1"
       inkscape:vp_y="0 : 1000 : 0"
       inkscape:vp_x="0 : 0.5 : 1"
       sodipodi:type="inkscape:persp3d" />
    <inkscape:perspective
       id="perspective5878"
       inkscape:persp3d-origin="0.5 : 0.33333333 : 1"
       inkscape:vp_z="1 : 0.5 : 1"
       inkscape:vp_y="0 : 1000 : 0"
       inkscape:vp_x="0 : 0.5 : 1"
       sodipodi:type="inkscape:persp3d" />
    <inkscape:perspective
       id="perspective5921"
       inkscape:persp3d-origin="0.5 : 0.33333333 : 1"
       inkscape:vp_z="1 : 0.5 : 1"
       inkscape:vp_y="0 : 1000 : 0"
       inkscape:vp_x="0 : 0.5 : 1"
       sodipodi:type="inkscape:persp3d" />
    <inkscape:perspective
       id="perspective5943"
       inkscape:persp3d-origin="0.5 : 0.33333333 : 1"
       inkscape:vp_z="1 : 0.5 : 1"
       inkscape:vp_y="0 : 1000 : 0"
       inkscape:vp_x="0 : 0.5 : 1"
       sodipodi:type="inkscape:persp3d" />
    <inkscape:perspective
       id="perspective5989"
       inkscape:persp3d-origin="0.5 : 0.33333333 : 1"
       inkscape:vp_z="1 : 0.5 : 1"
       inkscape:vp_y="0 : 1000 : 0"
       inkscape:vp_x="0 : 0.5 : 1"
       sodipodi:type="inkscape:persp3d" />
    <inkscape:perspective
       id="perspective6011"
       inkscape:persp3d-origin="0.5 : 0.33333333 : 1"
       inkscape:vp_z="1 : 0.5 : 1"
       inkscape:vp_y="0 : 1000 : 0"
       inkscape:vp_x="0 : 0.5 : 1"
       sodipodi:type="inkscape:persp3d" />
    <inkscape:perspective
       id="perspective6033"
       inkscape:persp3d-origin="0.5 : 0.33333333 : 1"
       inkscape:vp_z="1 : 0.5 : 1"
       inkscape:vp_y="0 : 1000 : 0"
       inkscape:vp_x="0 : 0.5 : 1"
       sodipodi:type="inkscape:persp3d" />
    <inkscape:perspective
       id="perspective6245"
       inkscape:persp3d-origin="0.5 : 0.33333333 : 1"
       inkscape:vp_z="1 : 0.5 : 1"
       inkscape:vp_y="0 : 1000 : 0"
       inkscape:vp_x="0 : 0.5 : 1"
       sodipodi:type="inkscape:persp3d" />
    <inkscape:perspective
       id="perspective6269"
       inkscape:persp3d-origin="0.5 : 0.33333333 : 1"
       inkscape:vp_z="1 : 0.5 : 1"
       inkscape:vp_y="0 : 1000 : 0"
       inkscape:vp_x="0 : 0.5 : 1"
       sodipodi:type="inkscape:persp3d" />
    <inkscape:perspective
       id="perspective6364"
       inkscape:persp3d-origin="0.5 : 0.33333333 : 1"
       inkscape:vp_z="1 : 0.5 : 1"
       inkscape:vp_y="0 : 1000 : 0"
       inkscape:vp_x="0 : 0.5 : 1"
       sodipodi:type="inkscape:persp3d" />
    <inkscape:perspective
       id="perspective6396"
       inkscape:persp3d-origin="0.5 : 0.33333333 : 1"
       inkscape:vp_z="1 : 0.5 : 1"
       inkscape:vp_y="0 : 1000 : 0"
       inkscape:vp_x="0 : 0.5 : 1"
       sodipodi:type="inkscape:persp3d" />
    <inkscape:perspective
       id="perspective6438"
       inkscape:persp3d-origin="0.5 : 0.33333333 : 1"
       inkscape:vp_z="1 : 0.5 : 1"
       inkscape:vp_y="0 : 1000 : 0"
       inkscape:vp_x="0 : 0.5 : 1"
       sodipodi:type="inkscape:persp3d" />
    <inkscape:perspective
       id="perspective6460"
       inkscape:persp3d-origin="0.5 : 0.33333333 : 1"
       inkscape:vp_z="1 : 0.5 : 1"
       inkscape:vp_y="0 : 1000 : 0"
       inkscape:vp_x="0 : 0.5 : 1"
       sodipodi:type="inkscape:persp3d" />
    <inkscape:perspective
       id="perspective6480"
       inkscape:persp3d-origin="0.5 : 0.33333333 : 1"
       inkscape:vp_z="1 : 0.5 : 1"
       inkscape:vp_y="0 : 1000 : 0"
       inkscape:vp_x="0 : 0.5 : 1"
       sodipodi:type="inkscape:persp3d" />
    <inkscape:perspective
       id="perspective6504"
       inkscape:persp3d-origin="0.5 : 0.33333333 : 1"
       inkscape:vp_z="1 : 0.5 : 1"
       inkscape:vp_y="0 : 1000 : 0"
       inkscape:vp_x="0 : 0.5 : 1"
       sodipodi:type="inkscape:persp3d" />
    <inkscape:perspective
       id="perspective6524"
       inkscape:persp3d-origin="0.5 : 0.33333333 : 1"
       inkscape:vp_z="1 : 0.5 : 1"
       inkscape:vp_y="0 : 1000 : 0"
       inkscape:vp_x="0 : 0.5 : 1"
       sodipodi:type="inkscape:persp3d" />
    <inkscape:perspective
       id="perspective6548"
       inkscape:persp3d-origin="0.5 : 0.33333333 : 1"
       inkscape:vp_z="1 : 0.5 : 1"
       inkscape:vp_y="0 : 1000 : 0"
       inkscape:vp_x="0 : 0.5 : 1"
       sodipodi:type="inkscape:persp3d" />
    <inkscape:perspective
       id="perspective6572"
       inkscape:persp3d-origin="0.5 : 0.33333333 : 1"
       inkscape:vp_z="1 : 0.5 : 1"
       inkscape:vp_y="0 : 1000 : 0"
       inkscape:vp_x="0 : 0.5 : 1"
       sodipodi:type="inkscape:persp3d" />
    <inkscape:perspective
       id="perspective6594"
       inkscape:persp3d-origin="0.5 : 0.33333333 : 1"
       inkscape:vp_z="1 : 0.5 : 1"
       inkscape:vp_y="0 : 1000 : 0"
       inkscape:vp_x="0 : 0.5 : 1"
       sodipodi:type="inkscape:persp3d" />
  </defs>
  <sodipodi:namedview
     id="base"
     pagecolor="#ffffff"
     bordercolor="#666666"
     borderopacity="1.0"
     inkscape:pageopacity="0.0"
     inkscape:pageshadow="2"
     inkscape:zoom="8.671875"
     inkscape:cx="10.564203"
     inkscape:cy="2.743179"
     inkscape:document-units="px"
     inkscape:current-layer="layer1"
     showgrid="true"
     inkscape:window-width="1280"
     inkscape:window-height="780"
     inkscape:window-x="-8"
     inkscape:window-y="-8"
     inkscape:window-maximized="1">
    <inkscape:grid
       type="xygrid"
       id="grid6324"
       empspacing="5"
       visible="true"
       enabled="true"
       snapvisiblegridlinesonly="true" />
  </sodipodi:namedview>
  <metadata
     id="metadata7">
    <rdf:RDF>
      <cc:Work
         rdf:about="">
        <dc:format>image/svg+xml</dc:format>
        <dc:type
           rdf:resource="http://purl.org/dc/dcmitype/StillImage" />
        <dc:title></dc:title>
      </cc:Work>
    </rdf:RDF>
  </metadata>
  <g
     inkscape:label="Calque 1"
     inkscape:groupmode="layer"
     id="layer1"
     transform="translate(0,-1036.3622)">
    <g
       id="g6600"
       transform="translate(-16.919466,-0.3064)">
      <path
         style="fill:#bfbfbf"
         d="m 24.753239,1049.0116 -5.233773,0 0,-0.8442 0,-0.8441 0.168831,0 0.168831,0 0,-0.3004 0,-0.3004 0.337663,-0.2434 0.337663,-0.2434 0,-1.9887 0,-1.9887 -0.506494,0 -0.506494,0 0,-0.4297 0,-0.4298 0.414404,-0.4144 0.414404,-0.4144 0.260921,0 0.260922,0 0,-0.1688 0,-0.1689 0.337662,0 0.337663,0 0,-0.1688 0,-0.1688 0.337663,0 0.337663,0 0,-0.1689 0,-0.1688 0.337663,0 0.337662,0 0,-0.1688 0,-0.1689 0.337663,0 0.337663,0 0,-0.1688 0,-0.1688 0.337663,0 0.337662,0 0,-0.1688 0,-0.1689 0.506495,0 0.506494,0 0,0.1689 0,0.1688 0.337663,0 0.337662,0 0,0.1688 0,0.1688 0.337663,0 0.337663,0 0,0.1689 0,0.1688 0.337663,0 0.337662,0 0,0.1688 0,0.1689 0.337663,0 0.337663,0 0,0.1688 0,0.1688 0.337663,0 0.337663,0 0,0.1689 0,0.1688 0.260921,0 0.260921,0 0.414404,0.4144 0.414405,0.4144 0,0.4298 0,0.4297 -0.506495,0 -0.506494,0 0,1.9887 0,1.9887 0.337663,0.2434 0.337663,0.2434 0,0.3004 0,0.3004 0.168831,0 0.168832,0 0,0.8441 0,0.8442 -5.233773,0 z"
         id="path6604" />
      <path
         style="fill:#000000"
         d="m 24.753239,1049.0116 -5.233773,0 0,-0.8442 0,-0.8441 0.168831,0 0.168831,0 0,-0.3004 0,-0.3004 0.337663,-0.2434 0.337663,-0.2434 0,-1.9887 0,-1.9887 -0.506494,0 -0.506494,0 0,-0.4297 0,-0.4298 0.414404,-0.4144 0.414404,-0.4144 0.260921,0 0.260922,0 0,-0.1688 0,-0.1689 0.337662,0 0.337663,0 0,-0.1688 0,-0.1688 0.337663,0 0.337663,0 0,-0.1689 0,-0.1688 0.337663,0 0.337662,0 0,-0.1688 0,-0.1689 0.337663,0 0.337663,0 0,-0.1688 0,-0.1688 0.337663,0 0.337662,0 0,-0.1688 0,-0.1689 0.506495,0 0.506494,0 0,0.1689 0,0.1688 0.337663,0 0.337662,0 0,0.1688 0,0.1688 0.337663,0 0.337663,0 0,0.1689 0,0.1688 0.337663,0 0.337662,0 0,0.1688 0,0.1689 0.337663,0 0.337663,0 0,0.1688 0,0.1688 0.337663,0 0.337663,0 0,0.1689 0,0.1688 0.260921,0 0.260921,0 0.414404,0.4144 0.414405,0.4144 0,0.4298 0,0.4297 -0.506495,0 -0.506494,0 0,1.9887 0,1.9887 0.337663,0.2434 0.337663,0.2434 0,0.3004 0,0.3004 0.168831,0 0.168832,0 0,0.8441 0,0.8442 -5.233773,0 z m 0,-0.6754 4.89611,0 0,-0.3376 0,-0.3377 -4.89611,0 -4.896111,0 0,0.3377 0,0.3376 4.896111,0 z m 0,-1.0129 4.558447,0 0,-0.3377 0,-0.3377 -4.558447,0 -4.558448,0 0,0.3377 0,0.3377 4.558448,0 z m -3.54546,-1.013 0.337663,0 0,-2.026 0,-2.026 -0.337663,0 -0.337662,0 0,2.026 0,2.026 0.337662,0 z m 1.350652,0 0.337662,0 0,-2.026 0,-2.026 -0.337662,0 -0.337663,0 0,2.026 0,2.026 0.337663,0 z m 1.350651,0 0.337662,0 0,-2.026 0,-2.026 -0.337662,0 -0.337663,0 0,2.026 0,2.026 0.337663,0 z m 1.350651,0 0.337663,0 0,-2.026 0,-2.026 -0.337663,0 -0.337663,0 0,2.026 0,2.026 0.337663,0 z m 1.350651,0 0.337663,0 0,-2.026 0,-2.026 -0.337663,0 -0.337663,0 0,2.026 0,2.026 0.337663,0 z m 1.350651,0 0.337663,0 0,-2.026 0,-2.026 -0.337663,0 -0.337663,0 0,2.026 0,2.026 0.337663,0 z m -3.207796,-4.3897 4.558447,0 0,-0.3376 0,-0.3377 -4.558447,0 -4.558448,0 0,0.3377 0,0.3376 4.558448,0 z m -3.54546,-1.0129 0.337663,0 0,-0.1689 0,-0.1688 0.337663,0 0.337663,0 0,0.1688 0,0.1689 2.532471,0 2.53247,0 0,-0.1689 0,-0.1688 0.337663,0 0.337663,0 0,0.1688 0,0.1689 0.337663,0 0.337663,0 0,-0.1689 0,-0.1688 -0.337663,0 -0.337663,0 0,-0.1688 0,-0.1689 -0.337663,0 -0.337663,0 0,-0.1688 0,-0.1688 -0.337662,0 -0.337663,0 0,-0.1689 0,-0.1688 -0.337663,0 -0.337663,0 0,-0.1688 0,-0.1689 -0.337662,0 -0.337663,0 0,-0.1688 0,-0.1688 -0.506494,0 -0.506495,0 0,0.1688 0,0.1688 -0.337662,0 -0.337663,0 0,0.1689 0,0.1688 -0.337663,0 -0.337663,0 0,0.1688 0,0.1689 -0.337662,0 -0.337663,0 0,0.1688 0,0.1688 -0.337663,0 -0.337663,0 0,0.1689 0,0.1688 -0.337663,0 -0.337662,0 0,0.1688 0,0.1689 0.337662,0 z m 1.350652,-0.3377 -0.337663,0 0,-0.1688 0,-0.1689 0.337663,0 0.337662,0 0,-0.1688 0,-0.1688 0.337663,0 0.337663,0 0,-0.1689 0,-0.1688 0.337663,0 0.337662,0 0,-0.1688 0,-0.1689 0.506495,0 0.506494,0 0,0.1689 0,0.1688 0.337663,0 0.337662,0 0,0.1688 0,0.1689 0.337663,0 0.337663,0 0,0.1688 0,0.1688 0.337663,0 0.337662,0 0,0.1689 0,0.1688 -0.337662,0 -0.337663,0 0,-0.1688 0,-0.1689 -0.337663,0 -0.337663,0 0,-0.1688 0,-0.1688 -0.337662,0 -0.337663,0 0,-0.1689 0,-0.1688 -0.506494,0 -0.506495,0 0,0.1688 0,0.1689 -0.337662,0 -0.337663,0 0,0.1688 0,0.1688 -0.337663,0 -0.337663,0 0,0.1689 0,0.1688 -0.337662,0 z"
         id="path6602" />
    </g>
  </g>
</svg>
