<?xml version="1.0" encoding="UTF-8" standalone="no"?>
<!-- Created with Inkscape (http://www.inkscape.org/) -->

<svg
   xmlns:dc="http://purl.org/dc/elements/1.1/"
   xmlns:cc="http://creativecommons.org/ns#"
   xmlns:rdf="http://www.w3.org/1999/02/22-rdf-syntax-ns#"
   xmlns:svg="http://www.w3.org/2000/svg"
   xmlns="http://www.w3.org/2000/svg"
   xmlns:sodipodi="http://sodipodi.sourceforge.net/DTD/sodipodi-0.dtd"
   xmlns:inkscape="http://www.inkscape.org/namespaces/inkscape"
   width="16"
   height="16"
   id="svg2"
   version="1.1"
   inkscape:version="0.47 r22583"
   sodipodi:docname="BANK-64.svg">
  <defs
     id="defs4">
    <inkscape:perspective
       sodipodi:type="inkscape:persp3d"
       inkscape:vp_x="0 : 526.18109 : 1"
       inkscape:vp_y="0 : 1000 : 0"
       inkscape:vp_z="744.09448 : 526.18109 : 1"
       inkscape:persp3d-origin="372.04724 : 350.78739 : 1"
       id="perspective10" />
    <inkscape:perspective
       id="perspective2824"
       inkscape:persp3d-origin="0.5 : 0.33333333 : 1"
       inkscape:vp_z="1 : 0.5 : 1"
       inkscape:vp_y="0 : 1000 : 0"
       inkscape:vp_x="0 : 0.5 : 1"
       sodipodi:type="inkscape:persp3d" />
    <inkscape:perspective
       id="perspective5878"
       inkscape:persp3d-origin="0.5 : 0.33333333 : 1"
       inkscape:vp_z="1 : 0.5 : 1"
       inkscape:vp_y="0 : 1000 : 0"
       inkscape:vp_x="0 : 0.5 : 1"
       sodipodi:type="inkscape:persp3d" />
    <inkscape:perspective
       id="perspective5921"
       inkscape:persp3d-origin="0.5 : 0.33333333 : 1"
       inkscape:vp_z="1 : 0.5 : 1"
       inkscape:vp_y="0 : 1000 : 0"
       inkscape:vp_x="0 : 0.5 : 1"
       sodipodi:type="inkscape:persp3d" />
    <inkscape:perspective
       id="perspective5943"
       inkscape:persp3d-origin="0.5 : 0.33333333 : 1"
       inkscape:vp_z="1 : 0.5 : 1"
       inkscape:vp_y="0 : 1000 : 0"
       inkscape:vp_x="0 : 0.5 : 1"
       sodipodi:type="inkscape:persp3d" />
    <inkscape:perspective
       id="perspective5989"
       inkscape:persp3d-origin="0.5 : 0.33333333 : 1"
       inkscape:vp_z="1 : 0.5 : 1"
       inkscape:vp_y="0 : 1000 : 0"
       inkscape:vp_x="0 : 0.5 : 1"
       sodipodi:type="inkscape:persp3d" />
    <inkscape:perspective
       id="perspective6011"
       inkscape:persp3d-origin="0.5 : 0.33333333 : 1"
       inkscape:vp_z="1 : 0.5 : 1"
       inkscape:vp_y="0 : 1000 : 0"
       inkscape:vp_x="0 : 0.5 : 1"
       sodipodi:type="inkscape:persp3d" />
    <inkscape:perspective
       id="perspective6033"
       inkscape:persp3d-origin="0.5 : 0.33333333 : 1"
       inkscape:vp_z="1 : 0.5 : 1"
       inkscape:vp_y="0 : 1000 : 0"
       inkscape:vp_x="0 : 0.5 : 1"
       sodipodi:type="inkscape:persp3d" />
    <inkscape:perspective
       id="perspective6245"
       inkscape:persp3d-origin="0.5 : 0.33333333 : 1"
       inkscape:vp_z="1 : 0.5 : 1"
       inkscape:vp_y="0 : 1000 : 0"
       inkscape:vp_x="0 : 0.5 : 1"
       sodipodi:type="inkscape:persp3d" />
    <inkscape:perspective
       id="perspective6269"
       inkscape:persp3d-origin="0.5 : 0.33333333 : 1"
       inkscape:vp_z="1 : 0.5 : 1"
       inkscape:vp_y="0 : 1000 : 0"
       inkscape:vp_x="0 : 0.5 : 1"
       sodipodi:type="inkscape:persp3d" />
    <inkscape:perspective
       id="perspective6364"
       inkscape:persp3d-origin="0.5 : 0.33333333 : 1"
       inkscape:vp_z="1 : 0.5 : 1"
       inkscape:vp_y="0 : 1000 : 0"
       inkscape:vp_x="0 : 0.5 : 1"
       sodipodi:type="inkscape:persp3d" />
    <inkscape:perspective
       id="perspective6396"
       inkscape:persp3d-origin="0.5 : 0.33333333 : 1"
       inkscape:vp_z="1 : 0.5 : 1"
       inkscape:vp_y="0 : 1000 : 0"
       inkscape:vp_x="0 : 0.5 : 1"
       sodipodi:type="inkscape:persp3d" />
    <inkscape:perspective
       id="perspective6438"
       inkscape:persp3d-origin="0.5 : 0.33333333 : 1"
       inkscape:vp_z="1 : 0.5 : 1"
       inkscape:vp_y="0 : 1000 : 0"
       inkscape:vp_x="0 : 0.5 : 1"
       sodipodi:type="inkscape:persp3d" />
    <inkscape:perspective
       id="perspective6460"
       inkscape:persp3d-origin="0.5 : 0.33333333 : 1"
       inkscape:vp_z="1 : 0.5 : 1"
       inkscape:vp_y="0 : 1000 : 0"
       inkscape:vp_x="0 : 0.5 : 1"
       sodipodi:type="inkscape:persp3d" />
    <inkscape:perspective
       id="perspective6480"
       inkscape:persp3d-origin="0.5 : 0.33333333 : 1"
       inkscape:vp_z="1 : 0.5 : 1"
       inkscape:vp_y="0 : 1000 : 0"
       inkscape:vp_x="0 : 0.5 : 1"
       sodipodi:type="inkscape:persp3d" />
    <inkscape:perspective
       id="perspective6504"
       inkscape:persp3d-origin="0.5 : 0.33333333 : 1"
       inkscape:vp_z="1 : 0.5 : 1"
       inkscape:vp_y="0 : 1000 : 0"
       inkscape:vp_x="0 : 0.5 : 1"
       sodipodi:type="inkscape:persp3d" />
    <inkscape:perspective
       id="perspective6524"
       inkscape:persp3d-origin="0.5 : 0.33333333 : 1"
       inkscape:vp_z="1 : 0.5 : 1"
       inkscape:vp_y="0 : 1000 : 0"
       inkscape:vp_x="0 : 0.5 : 1"
       sodipodi:type="inkscape:persp3d" />
    <inkscape:perspective
       id="perspective6548"
       inkscape:persp3d-origin="0.5 : 0.33333333 : 1"
       inkscape:vp_z="1 : 0.5 : 1"
       inkscape:vp_y="0 : 1000 : 0"
       inkscape:vp_x="0 : 0.5 : 1"
       sodipodi:type="inkscape:persp3d" />
    <inkscape:perspective
       id="perspective6572"
       inkscape:persp3d-origin="0.5 : 0.33333333 : 1"
       inkscape:vp_z="1 : 0.5 : 1"
       inkscape:vp_y="0 : 1000 : 0"
       inkscape:vp_x="0 : 0.5 : 1"
       sodipodi:type="inkscape:persp3d" />
    <inkscape:perspective
       id="perspective6594"
       inkscape:persp3d-origin="0.5 : 0.33333333 : 1"
       inkscape:vp_z="1 : 0.5 : 1"
       inkscape:vp_y="0 : 1000 : 0"
       inkscape:vp_x="0 : 0.5 : 1"
       sodipodi:type="inkscape:persp3d" />
    <inkscape:perspective
       id="perspective6614"
       inkscape:persp3d-origin="0.5 : 0.33333333 : 1"
       inkscape:vp_z="1 : 0.5 : 1"
       inkscape:vp_y="0 : 1000 : 0"
       inkscape:vp_x="0 : 0.5 : 1"
       sodipodi:type="inkscape:persp3d" />
    <inkscape:perspective
       id="perspective6650"
       inkscape:persp3d-origin="0.5 : 0.33333333 : 1"
       inkscape:vp_z="1 : 0.5 : 1"
       inkscape:vp_y="0 : 1000 : 0"
       inkscape:vp_x="0 : 0.5 : 1"
       sodipodi:type="inkscape:persp3d" />
    <inkscape:perspective
       id="perspective6676"
       inkscape:persp3d-origin="0.5 : 0.33333333 : 1"
       inkscape:vp_z="1 : 0.5 : 1"
       inkscape:vp_y="0 : 1000 : 0"
       inkscape:vp_x="0 : 0.5 : 1"
       sodipodi:type="inkscape:persp3d" />
    <inkscape:perspective
       id="perspective6710"
       inkscape:persp3d-origin="0.5 : 0.33333333 : 1"
       inkscape:vp_z="1 : 0.5 : 1"
       inkscape:vp_y="0 : 1000 : 0"
       inkscape:vp_x="0 : 0.5 : 1"
       sodipodi:type="inkscape:persp3d" />
  </defs>
  <sodipodi:namedview
     id="base"
     pagecolor="#ffffff"
     bordercolor="#666666"
     borderopacity="1.0"
     inkscape:pageopacity="0.0"
     inkscape:pageshadow="2"
     inkscape:zoom="8.671875"
     inkscape:cx="10.564203"
     inkscape:cy="2.743179"
     inkscape:document-units="px"
     inkscape:current-layer="layer1"
     showgrid="true"
     inkscape:window-width="1280"
     inkscape:window-height="780"
     inkscape:window-x="-8"
     inkscape:window-y="-8"
     inkscape:window-maximized="1">
    <inkscape:grid
       type="xygrid"
       id="grid6324"
       empspacing="5"
       visible="true"
       enabled="true"
       snapvisiblegridlinesonly="true" />
  </sodipodi:namedview>
  <metadata
     id="metadata7">
    <rdf:RDF>
      <cc:Work
         rdf:about="">
        <dc:format>image/svg+xml</dc:format>
        <dc:type
           rdf:resource="http://purl.org/dc/dcmitype/StillImage" />
        <dc:title></dc:title>
      </cc:Work>
    </rdf:RDF>
  </metadata>
  <g
     inkscape:label="Calque 1"
     inkscape:groupmode="layer"
     id="layer1"
     transform="translate(0,-1036.3622)">
    <g
       id="g6716"
       transform="translate(-0.1348286,-0.5404)">
      <path
         style="fill:#bac4d7"
         d="m 6.4551094,1050.2788 -4.9483438,0 0,-0.2038 c 0,-0.1122 0.09909,-0.2652 0.2202005,-0.34 l 0.2202005,-0.1361 -0.1154016,-0.1867 -0.1154016,-0.1867 0.2202005,-0.1361 0.2202004,-0.1361 0,-0.4206 0,-0.4205 0.2166663,0 0.2166662,0 0.00579,-2.3292 0.00579,-2.3291 3.1658014,-1.7334 c 1.7411908,-0.9533 3.4432323,-1.8721 3.7823145,-2.0418 l 0.6165123,-0.3084 1.836545,0.8501 1.836545,0.8501 0.0087,2.1238 0.0087,2.1238 0.649999,0.2266 c 0.357499,0.1246 0.649998,0.2728 0.649998,0.3293 0,0.056 -0.844489,1.0707 -1.876642,2.2538 l -1.876643,2.151 -4.9483432,0 z m -2.8383604,-3.4197 c 0.043906,-0.6296 0.043444,-1.6046 -0.00102,-2.1667 l -0.080862,-1.0219 0.00102,2.1667 0.00102,2.1666 0.079828,-1.1447 z m 8.506662,-0.9136 0.288888,0 -0.144444,-0.1444 -0.144444,-0.1445 -0.144444,0.1445 -0.144444,0.1444 0.288888,0 z m -5.4166557,-2.6066 2.7083279,-10e-5 -1.3458511,-0.7628 -1.3458512,-0.7629 -1.0374774,0.5409 c -0.5706126,0.2974 -1.1837272,0.6407 -1.3624768,0.7628 l -0.3249994,0.2221 2.708328,0 z m 0.8666649,-1.835 c 0.1191665,-0.074 0.2166663,-0.1769 0.2166663,-0.2295 0,-0.053 -0.0975,-0.095 -0.2166663,-0.095 l -0.2166662,0 0,0.2294 0,0.2295 0.2166662,-0.1339 z m 2.7910868,-0.325 c 0.119167,0 0.276925,-0.098 0.350574,-0.2167 l 0.133907,-0.2167 -0.216666,0 c -0.119167,0 -0.276925,0.098 -0.350574,0.2167 l -0.133907,0.2167 0.216666,0 z m -0.4077582,-1.0834 0.2888882,0 -0.144444,-0.1444 -0.1444442,-0.1445 -0.1444442,0.1445 -0.144444,0.1444 0.2888882,0 z"
         id="path6738" />
      <path
         style="fill:#b1b2b5"
         d="m 6.4023418,1050.2689 -4.9627373,0.01 0.3933626,-0.4346 0.3933626,-0.4347 -0.141236,-0.1412 -0.141236,-0.1412 0.268953,-0.3236 0.268953,-0.3235 0.1083331,-2.4903 0.1083331,-2.4904 2.4822404,-1.388 c 1.3652322,-0.7634 3.0323066,-1.6812 3.70461,-2.0396 l 1.2223697,-0.6515 1.870467,0.8252 1.870468,0.8251 0.0041,2.2012 0.0041,2.2011 -1.676945,1.5205 -1.676944,1.5205 0.166786,0.1668 0.166786,0.1668 1.686267,-1.6764 1.686267,-1.6763 0.378009,0.145 0.378009,0.1451 -0.117175,0.3053 c -0.06445,0.168 -0.874424,1.1747 -1.799949,2.2372 l -1.682773,1.9317 -4.9627372,0.01 z m 4.5655162,-0.4956 0.144444,-0.1445 -0.144444,-0.1444 -0.144444,-0.1444 0,0.2888 0,0.2889 0.144444,-0.1444 z m -1.7333299,-1.6611 c 0.039722,0 0.072222,-0.975 0.072222,-2.1667 l 0,-2.1666 -0.2166662,0 -0.2166663,0 0,2.0222 0,2.0222 0.1444443,0.1444 c 0.079444,0.08 0.1769439,0.1445 0.2166662,0.1445 z m -5.6177791,-1.2531 c 0.043906,-0.6296 0.043444,-1.6046 -0.00102,-2.1667 l -0.080862,-1.0219 0.00102,2.1667 0.00102,2.1666 0.079828,-1.1447 z m 1.0833311,0 c 0.043906,-0.6296 0.043444,-1.6046 -0.00102,-2.1667 l -0.080862,-1.0219 0.00102,2.1667 0.00102,2.1666 0.079828,-1.1447 z m 3.2499936,0 c 0.043906,-0.6296 0.043444,-1.6046 -0.00102,-2.1667 l -0.080862,-1.0219 0.00102,2.1667 0.00102,2.1666 0.079828,-1.1447 z m 3.7400053,-0.047 0.288888,0 -0.144444,-0.1445 -0.144444,-0.1444 -0.144445,0.1444 -0.144444,0.1445 0.288889,0 z m -0.05675,-0.4333 c 0.04823,0 0.227962,-0.1403 0.399396,-0.3117 l 0.311697,-0.3117 -0.399396,0.03 -0.399396,0.03 0,0.2816 c 0,0.1549 0.03946,0.2817 0.0877,0.2817 z m 1.031744,-0.4334 c 0.05958,0 0.108333,-0.049 0.108333,-0.1083 0,-0.06 -0.04875,-0.1083 -0.108333,-0.1083 -0.05958,0 -0.108333,0.049 -0.108333,0.1083 0,0.06 0.04875,0.1083 0.108333,0.1083 z m -0.433333,-0.4333 0.541666,0 0,-0.5003 0,-0.5002 -0.308814,-0.4206 -0.308813,-0.4206 -0.232852,0.61 c -0.128069,0.3354 -0.232852,0.7498 -0.232852,0.9208 l 0,0.3109 0.541665,0 z m -5.4708222,-2.1732 2.6541614,-0.01 -1.2999974,-0.7491 c -0.7149986,-0.4119 -1.355808,-0.7502 -1.4240211,-0.7517 -0.068213,0 -0.6775868,0.2971 -1.3541639,0.6635 -0.6765772,0.3665 -1.2301403,0.7077 -1.2301403,0.7584 0,0.051 1.1943726,0.089 2.6541613,0.085 z m 2.8708277,-0.7818 c 0.1787496,-0.069 0.3249993,-0.163 0.3249993,-0.2099 0,-0.047 -0.1462497,-0.085 -0.3249993,-0.085 l -0.3249994,0 0,0.2099 0,0.2098 0.3249994,-0.1247 z m -2.1922364,-0.945 c 0.1787497,0 0.3852575,-0.098 0.4589065,-0.2167 l 0.1339071,-0.2166 -0.3249994,0 c -0.1787496,0 -0.3852575,0.097 -0.4589064,0.2166 l -0.1339071,0.2167 0.3249993,0 z m 1.5422377,-0.2167 0.3249993,0 0,-0.2098 0,-0.2099 -0.3249993,0.1247 c -0.1787497,0.069 -0.3249994,0.163 -0.3249994,0.2099 0,0.047 0.1462497,0.085 0.3249994,0.085 z m 1.2744232,-0.2166 c 0.17875,0 0.385258,-0.098 0.458907,-0.2167 l 0.133907,-0.2167 -0.325,0 c -0.178749,0 -0.385257,0.098 -0.458906,0.2167 l -0.1339072,0.2167 0.3249992,0 z m -0.2994252,-1.0834 0.2888882,0 -0.144444,-0.1444 -0.1444442,-0.1445 -0.1444442,0.1445 -0.144444,0.1444 0.2888882,0 z"
         id="path6736" />
      <path
         style="fill:#7d98cd"
         d="m 6.2960443,1050.2755 -4.8976118,0 0.3249994,-0.21 0.3249993,-0.2101 4.4649857,0 4.4649851,0 2.023303,-2.0042 c 1.112817,-1.1022 1.777931,-1.7116 1.478031,-1.3541 -0.299899,0.3575 -1.161954,1.3569 -1.915676,2.2208 l -1.370404,1.5708 -4.8976117,0 z m 0.3335895,-1.1294 -4.5812026,-0.049 4.4415502,-0.064 4.4415506,-0.064 1.719456,-1.6745 1.719456,-1.6745 -1.579804,1.7875 -1.579804,1.7875 -4.5812022,-0.049 z m -0.1362137,-0.8168 -4.0116564,5e-4 0.1083331,-2.4106 0.1083331,-2.4107 3.6830576,-2.034 3.6830575,-2.034 0.216935,0.098 c 0.119314,0.054 0.969838,0.4205 1.890053,0.815 l 1.673119,0.7172 0.0061,2.0584 0.0061,2.0583 -1.675916,1.5708 -1.675916,1.5708 -4.0116564,5e-4 z m -2.8199921,-0.3255 0.2166662,-0.1339 0,-2.0455 0,-2.0455 -0.2166662,0 -0.2166662,0 0,2.1794 0,2.1795 0.2166662,-0.134 z m 1.0264004,-0.9208 c 0.043767,-0.6256 0.043767,-1.6494 0,-2.275 l -0.079576,-1.1375 0,2.275 0,2.275 0.079576,-1.1375 z m 3.3069243,0.9208 0.2166662,-0.1339 0,-2.0455 0,-2.0455 -0.2166662,0 -0.2166662,0 0,2.1794 0,2.1795 0.2166662,-0.134 z m 1.0833312,0.1084 0.2166662,0 0,-2.1667 0,-2.1666 -0.2166662,0 -0.2166663,0 0,2.1666 0,2.1667 0.2166663,0 z m 2.3223891,-1.0833 c 0.09972,0 0.348265,-0.195 0.552332,-0.4334 l 0.371031,-0.4333 -0.268712,0 -0.268712,0 0.314654,-0.199 0.314655,-0.1991 0.172844,0.1069 0.172845,0.1068 0,-0.7534 c 0,-0.4144 -0.05918,-0.9076 -0.131514,-1.0961 l -0.131514,-0.3427 -0.282774,0 -0.282774,0 -0.159704,0.9208 c -0.08784,0.5064 -0.172418,1.1158 -0.187958,1.3542 -0.01554,0.2383 -0.104248,0.5552 -0.197128,0.7041 l -0.168872,0.2709 0.181301,0 z m -4.8321063,-3.6861 c 1.5392329,0 2.7579805,-0.036 2.708328,-0.083 -0.049653,-0.047 -0.6064423,-0.3882 -1.2373101,-0.7584 -0.6308679,-0.3701 -1.2646166,-0.67 -1.4083305,-0.6664 -0.1437141,0 -0.846297,0.3437 -1.5612956,0.7556 l -1.2999974,0.7491 2.7986056,0 z m 2.8091425,-0.6473 c 0.1787497,0 0.3852575,-0.098 0.4589065,-0.2166 l 0.1339071,-0.2167 -0.3249994,0 c -0.1787496,0 -0.3852574,0.098 -0.4589064,0.2167 l -0.1339071,0.2166 0.3249993,0 z m -1.2202568,-0.8918 0.2708328,0.025 0,-0.2099 0,-0.2099 -0.3605424,0.1384 -0.3605424,0.1383 0.1566632,-0.2535 0.1566631,-0.2534 -0.3249994,0 c -0.1787496,0 -0.3806971,0.09 -0.4487721,0.2002 l -0.1237727,0.2003 0.3818185,0.1 c 0.2100003,0.055 0.5036933,0.1109 0.6526514,0.1247 z m 1.6684916,-0.1578 0.205995,-0.113 -0.3143281,-0.1012 c -0.1728802,-0.056 -0.3765516,-0.1965 -0.4526034,-0.3131 l -0.1382755,-0.2119 -0.2600559,0.1607 -0.2600558,0.1607 0.5066647,0.2655 0.5066645,0.2654 0.2059945,-0.1131 z m 0.960096,-0.034 c 0.119166,0 0.276924,-0.098 0.350573,-0.2167 l 0.133907,-0.2166 -0.216666,0 c -0.119166,0 -0.276924,0.097 -0.350573,0.2166 l -0.133907,0.2167 0.216666,0 z m -2.3427836,-0.5509 c 0.1109322,-0.069 0.201695,-0.1677 0.201695,-0.2202 0,-0.053 -0.1520039,-0.096 -0.3377863,-0.096 l -0.3377864,0 0.1360913,0.2202 0.1360916,0.2202 0.2016948,-0.1246 z m 1.7597386,0.1127 c 0.15599,0 0.527369,-0.1954 0.825285,-0.4285 l 0.541666,-0.4237 -0.258046,0 c -0.141925,0 -0.323187,0.1006 -0.402803,0.2294 l -0.144757,0.2342 -0.50475,-0.1266 -0.5047504,-0.1267 -0.1328647,0.215 -0.132865,0.2149 0.3717956,-0.1426 0.3717955,-0.1427 -0.156663,0.2535 -0.1566632,0.2535 0.2836202,0 z m 2.016949,0 c 0.05958,0 0.108333,-0.049 0.108333,-0.1084 0,-0.06 -0.04875,-0.1083 -0.108333,-0.1083 -0.05958,0 -0.108333,0.049 -0.108333,0.1083 0,0.06 0.04875,0.1084 0.108333,0.1084 z m -3.0781492,-0.5556 0.3885103,-0.148 -0.1212887,-0.1213 -0.1212884,-0.1212 -0.2672219,0.2692 -0.2672216,0.2692 0.3885103,-0.1479 z m 0.9102422,-0.4489 0.323755,-0.1243 -0.12206,-0.1975 -0.12206,-0.1975 -0.2016944,0.1247 c -0.1109322,0.069 -0.201695,0.2133 -0.201695,0.3217 l 0,0.1971 0.3237544,-0.1242 z"
         id="path6734" />
      <path
         style="fill:#8d8f91"
         d="m 6.2960443,1050.2755 -4.8976118,0 0.3249994,-0.21 0.3249993,-0.2101 4.4649857,0 4.4649851,0 2.023303,-2.0042 c 1.112817,-1.1022 1.777931,-1.7116 1.478031,-1.3541 -0.299899,0.3575 -1.161954,1.3569 -1.915676,2.2208 l -1.370404,1.5708 -4.8976117,0 z m 0.3335895,-1.1294 -4.5812026,-0.049 4.4415502,-0.064 4.4415506,-0.064 1.719456,-1.6745 1.719456,-1.6745 -1.579804,1.7875 -1.579804,1.7875 -4.5812022,-0.049 z m -0.1362137,-0.8168 -4.0116564,5e-4 0.1083331,-2.4106 0.1083331,-2.4107 3.6830576,-2.034 3.6830575,-2.034 0.216935,0.098 c 0.119314,0.054 0.969838,0.4205 1.890053,0.815 l 1.673119,0.7172 0.0061,2.0584 0.0061,2.0583 -1.675916,1.5708 -1.675916,1.5708 -4.0116564,5e-4 z m -2.7658256,-0.3675 0.1624997,-0.092 0,-2.0455 0,-2.0455 -0.4333324,0 -0.4333325,0 0,2.0402 0,2.0403 0.2708328,0.097 c 0.148958,0.053 0.3439576,0.056 0.4333324,0.01 z m 0.9569427,0.1504 c 0.039722,0 0.072222,-0.975 0.072222,-2.1667 l 0,-2.1666 -0.2166663,0 -0.2166662,0 0,2.0222 0,2.0222 0.1444442,0.1444 c 0.079444,0.08 0.176944,0.1445 0.2166663,0.1445 z m 3.3763821,-0.1642 0.1624996,-0.078 0,-2.0455 0,-2.0455 -0.6499987,0 -0.6499987,0 0,0.2166 c 0,0.1192 0.087068,0.2167 0.1934853,0.2167 0.106417,0 0.2579733,0.168 0.3367917,0.3734 l 0.1433063,0.3735 -0.3391945,0.248 -0.3391942,0.248 0.3274019,0.2718 0.3274022,0.2717 0,0.4996 0,0.4997 -0.3249993,0.325 c -0.1787497,0.1787 -0.3249994,0.3739 -0.3249994,0.4337 0,0.06 0.2193746,0.1449 0.487499,0.1891 0.2681245,0.044 0.5606239,0.045 0.6499988,0 z m 1.0652757,0.1642 0.1805551,0 0,-2.1667 0,-2.1666 -0.3249993,0 -0.3249994,0 0,2.0222 0,2.0222 0.1444442,0.1444 c 0.079444,0.08 0.2256939,0.1445 0.3249994,0.1445 z m -3.2861047,-0.2167 c 0.2383329,0 0.4333325,-0.049 0.4333325,-0.1083 0,-0.06 -0.1949996,-0.3034 -0.4333325,-0.5417 l -0.4333324,-0.4333 0,0.5416 0,0.5417 0.4333324,0 z m 4.2249917,0 0.324999,0 0,-2.0583 0,-2.0583 -0.324999,0 -0.3249994,0 0,2.0583 0,2.0583 0.3249994,0 z m -3.4269852,-1.0427 0.1137972,-0.2844 -0.1309024,-0.1309 -0.1309026,-0.1309 0.017105,0.4153 0.017105,0.4153 0.1137972,-0.2844 z m 4.7743762,0.1761 c 0.09972,0 0.348265,-0.195 0.552332,-0.4334 l 0.371031,-0.4333 -0.268712,0 -0.268712,0 0.314654,-0.199 0.314655,-0.1991 0.172844,0.1069 0.172845,0.1068 0,-0.7534 c 0,-0.4144 -0.05918,-0.9076 -0.131514,-1.0961 l -0.131514,-0.3427 -0.282774,0 -0.282774,0 -0.159704,0.9208 c -0.08784,0.5064 -0.172418,1.1158 -0.187958,1.3542 -0.01554,0.2383 -0.104248,0.5552 -0.197128,0.7041 l -0.168872,0.2709 0.181301,0 z m -5.6751858,-0.7905 0.3305295,-0.1268 -0.2692199,-0.3539 c -0.148071,-0.1946 -0.2968091,-0.3945 -0.3305293,-0.4441 -0.03372,-0.05 -0.06131,0.1666 -0.06131,0.4807 l 0,0.571 0.3305293,-0.1269 z m -0.059697,-1.6056 c 0.148958,-0.1718 0.4122075,-0.4342 0.5849988,-0.5831 l 0.314166,-0.2708 -0.5849988,0 -0.5849988,0 0,0.583 0,0.5831 0.2708328,-0.3122 z m 0.902776,-1.29 c 1.5392329,0 2.7579805,-0.036 2.708328,-0.083 -0.049653,-0.047 -0.6064423,-0.3882 -1.2373101,-0.7584 -0.6308679,-0.3701 -1.2646166,-0.67 -1.4083305,-0.6664 -0.1437141,0 -0.846297,0.3437 -1.5612956,0.7556 l -1.2999974,0.7491 2.7986056,0 z m 2.8091425,-0.6473 c 0.1787497,0 0.3852575,-0.098 0.4589065,-0.2166 l 0.1339071,-0.2167 -0.3249994,0 c -0.1787496,0 -0.3852574,0.098 -0.4589064,0.2167 l -0.1339071,0.2166 0.3249993,0 z m -1.2202568,-0.8918 0.2708328,0.025 0,-0.2099 0,-0.2099 -0.3605424,0.1384 -0.3605424,0.1383 0.1566632,-0.2535 0.1566631,-0.2534 -0.3249994,0 c -0.1787496,0 -0.3806971,0.09 -0.4487721,0.2002 l -0.1237727,0.2003 0.3818185,0.1 c 0.2100003,0.055 0.5036933,0.1109 0.6526514,0.1247 z m 1.6684916,-0.1578 0.2059955,-0.113 -0.3143286,-0.1012 c -0.1728802,-0.056 -0.3765516,-0.1965 -0.4526034,-0.3131 l -0.1382755,-0.2119 -0.2600559,0.1607 -0.2600558,0.1607 0.5066647,0.2655 0.5066645,0.2654 0.2059945,-0.1131 z m 0.9600965,-0.034 c 0.119166,0 0.276924,-0.098 0.350573,-0.2167 l 0.133907,-0.2166 -0.216666,0 c -0.119166,0 -0.276924,0.097 -0.350573,0.2166 l -0.133907,0.2167 0.216666,0 z m -2.3427841,-0.5509 c 0.1109322,-0.069 0.201695,-0.1677 0.201695,-0.2202 0,-0.053 -0.1520039,-0.096 -0.3377863,-0.096 l -0.3377864,0 0.1360913,0.2202 0.1360916,0.2202 0.2016948,-0.1246 z m 1.7597391,0.1127 c 0.15599,0 0.527369,-0.1954 0.825285,-0.4285 l 0.541666,-0.4237 -0.258046,0 c -0.141925,0 -0.323187,0.1006 -0.402803,0.2294 l -0.144757,0.2342 -0.50475,-0.1266 -0.5047509,-0.1267 -0.1328647,0.215 -0.132865,0.2149 0.3717956,-0.1426 0.371796,-0.1427 -0.156663,0.2535 -0.1566637,0.2535 0.2836207,0 z m 2.016949,0 c 0.05958,0 0.108333,-0.049 0.108333,-0.1084 0,-0.06 -0.04875,-0.1083 -0.108333,-0.1083 -0.05958,0 -0.108333,0.049 -0.108333,0.1083 0,0.06 0.04875,0.1084 0.108333,0.1084 z m -3.0781497,-0.5556 0.3885103,-0.148 -0.1212887,-0.1213 -0.1212884,-0.1212 -0.2672219,0.2692 -0.2672216,0.2692 0.3885103,-0.1479 z m 0.9102427,-0.4489 0.323755,-0.1243 -0.12206,-0.1975 -0.12206,-0.1975 -0.2016949,0.1247 c -0.1109322,0.069 -0.201695,0.2133 -0.201695,0.3217 l 0,0.1971 0.3237549,-0.1242 z"
         id="path6732" />
      <path
         style="fill:#8e8b7a"
         d="m 3.0775958,1048.0951 -0.487499,0.017 0,-2.2603 0,-2.2602 3.7588325,-2.0789 3.7588317,-2.0788 1.87449,0.8994 1.87449,0.8995 0,1.8779 0,1.8778 -0.999942,0.966 -0.999943,0.9659 0.293729,-0.4875 c 0.161551,-0.2681 0.367776,-0.4875 0.458277,-0.4875 l 0.164548,0 0,-0.7406 c 0,-0.4073 -0.05918,-0.8948 -0.131514,-1.0833 l -0.131514,-0.3427 -0.287218,0 -0.287218,0 -0.137825,0.4342 c -0.0758,0.2388 -0.166278,0.8599 -0.201053,1.3801 -0.03478,0.5203 -0.131329,1.0561 -0.214563,1.1908 l -0.151333,0.2449 0.154701,0 c 0.08508,0 -0.02177,0.1949 -0.23746,0.4333 -0.215688,0.2383 -0.474549,0.4333 -0.575246,0.4333 l -0.183086,0 0,-2.0583 0,-2.0583 -0.324999,0 -0.3249994,0 0,2.1666 0,2.1667 -0.2166663,0 -0.2166662,0 0,-2.1667 0,-2.1666 -0.3249993,0 -0.3249994,0 0,2.1666 0,2.1667 -0.2166662,0 -0.2166663,0 0,-2.2375 0,-2.2375 -0.6499987,0.095 -0.6499987,0.095 0,0.1921 c 0,0.1057 0.087068,0.1921 0.1934853,0.1921 0.106417,0 0.2579733,0.168 0.3367917,0.3734 l 0.1433063,0.3735 -0.3391945,0.248 -0.3391942,0.248 0.3274019,0.2718 0.3274022,0.2717 0,0.4814 0,0.4814 -0.494397,0.5754 -0.4943968,0.5754 -0.8056006,0 -0.8056004,0 0,-2.1667 0,-2.1666 -0.3393888,0 -0.339389,0 0.068556,2.1671 0.068556,2.1671 -0.2708328,-4e-4 -0.2708328,-5e-4 0,-2.1667 0,-2.1666 -0.4333324,0 -0.4333325,0 0,2.0402 0,2.0403 0.2708328,0.1093 0.2708328,0.1093 -0.4874991,0.017 z m 2.7624945,-0.1996 c 0.2383329,0 0.4333325,-0.049 0.4333325,-0.1083 0,-0.06 -0.1949996,-0.3034 -0.4333325,-0.5417 l -0.4333324,-0.4333 0,0.5416 0,0.5417 0.4333324,0 z m 0.7980065,-1.0427 0.1137972,-0.2844 -0.1309024,-0.1309 -0.1309026,-0.1309 0.017106,0.4153 0.017106,0.4153 0.1137973,-0.2844 z m -0.9008096,-0.6144 0.3305295,-0.1268 -0.2692199,-0.3539 c -0.148071,-0.1946 -0.2968091,-0.3945 -0.3305293,-0.4441 -0.03372,-0.05 -0.06131,0.1666 -0.06131,0.4807 l 0,0.571 0.3305293,-0.1269 z m -0.059697,-1.6056 c 0.148958,-0.1718 0.4122075,-0.4342 0.5849988,-0.5831 l 0.314166,-0.2708 -0.5849988,0 -0.5849988,0 0,0.583 0,0.5831 0.2708328,-0.3122 z m 0.8666649,-1.2938 c 1.519372,0 2.7624945,-0.035 2.7624945,-0.085 0,-0.051 -0.5535632,-0.3919 -1.2301403,-0.7584 -0.6765772,-0.3664 -1.3347009,-0.665 -1.4624971,-0.6635 -0.1277962,0 -0.8173556,0.3398 -1.5323542,0.7517 l -1.2999974,0.7491 2.7624945,0.01 z m 3.3391552,-0.4519 c 0.019246,0.014 0.00995,-0.1455 -0.020655,-0.3541 l -0.05565,-0.3791 -0.1418449,0.054 c -0.078015,0.03 -0.2393447,0.054 -0.3585111,0.054 -0.1191664,0 -0.2166662,0.09 -0.2166662,0.2008 l 0,0.2008 0.3791659,0.099 c 0.2085412,0.054 0.3949136,0.1104 0.414161,0.1243 z m 1.4816677,0.025 c 0.05958,0 0.108333,-0.049 0.108333,-0.1083 0,-0.06 -0.04875,-0.1084 -0.108333,-0.1084 -0.05958,0 -0.108333,0.049 -0.108333,0.1084 0,0.059 0.04875,0.1083 0.108333,0.1083 z m -0.974997,-0.4333 0.288888,0 -0.144444,-0.1445 -0.144444,-0.1444 -0.144444,0.1444 -0.144444,0.1445 0.288888,0 z m -2.0054074,-0.6017 0.2695885,-0.094 -0.1140276,-0.1845 -0.1140273,-0.1845 -0.3722272,0.119 -0.3722272,0.119 0.5416656,-0.4487 0.5416656,-0.4486 -0.3791659,0 -0.3791659,0 0,0.1914 0,0.1914 -0.487499,0.1336 -0.4874991,0.1337 0.5416656,0.2877 0.5416656,0.2877 0.2695883,-0.094 z m 1.7887414,0.1683 0.288888,0 -0.144444,-0.1444 -0.144444,-0.1445 -0.144444,0.1445 -0.1444447,0.1444 0.2888887,0 z m 0.866664,0 0.288888,0 -0.144444,-0.1444 -0.144444,-0.1445 -0.144444,0.1445 -0.144444,0.1444 0.288888,0 z m -1.6427168,-0.2166 c 0.049837,0 0.2442765,-0.059 0.432088,-0.1311 l 0.3414758,-0.131 -0.119876,-0.194 -0.1198757,-0.1939 0.2836207,0 c 0.15599,0 0.527369,-0.1954 0.825285,-0.4285 l 0.541666,-0.4237 -0.2275,0 c -0.125125,0 -0.337112,0.1048 -0.471083,0.2388 l -0.243585,0.2436 -0.698746,-0.2436 c -0.38431,-0.134 -0.7816962,-0.2436 -0.8830802,-0.2436 -0.101384,0 -0.1843347,0.1079 -0.1843347,0.2398 l 0,0.2399 0.3249994,-0.1247 0.3249993,-0.1247 0,0.203 0,0.2031 0.379166,-0.1197 0.3791662,-0.1196 -0.4874994,0.432 c -0.2681244,0.2376 -0.487499,0.4895 -0.487499,0.5598 0,0.07 0.040776,0.1278 0.090613,0.1278 z m 1.4880168,-0.2167 0.304206,0 0.393363,-0.4347 0.393362,-0.4346 -0.138016,-0.138 -0.138015,-0.1381 -0.136614,0.3561 -0.136614,0.356 -0.289032,0 c -0.158967,0 -0.349289,0.097 -0.422938,0.2166 l -0.133907,0.2167 0.304205,0 z m 0.913033,0 c 0.05958,0 0.108333,-0.049 0.108333,-0.1083 0,-0.06 -0.04875,-0.1084 -0.108333,-0.1084 -0.05958,0 -0.108333,0.049 -0.108333,0.1084 0,0.06 0.04875,0.1083 0.108333,0.1083 z m -2.8422357,-0.2167 c 0.1787496,0 0.3852575,-0.098 0.4589064,-0.2166 l 0.1339071,-0.2167 -0.3249993,0 c -0.1787497,0 -0.3852575,0.098 -0.4589065,0.2167 l -0.1339071,0.2166 0.3249994,0 z m 3.2755667,-0.2166 c 0.05958,0 0.108333,-0.049 0.108333,-0.1084 0,-0.06 -0.04875,-0.1083 -0.108333,-0.1083 -0.05958,0 -0.108333,0.049 -0.108333,0.1083 0,0.06 0.04875,0.1084 0.108333,0.1084 z m -2.184766,-0.9981 c 0.188707,-0.072 0.343104,-0.2268 0.343104,-0.3432 l 0,-0.2115 -0.257292,0.086 c -0.1415095,0.047 -0.2959063,0.2016 -0.3431034,0.3432 l -0.085813,0.2574 0.3431034,-0.1317 z"
         id="path6730" />
      <path
         style="fill:#6088a3"
         d="m 3.22204,1048.0951 c -0.1886802,0.01 -0.4080548,-0.048 -0.487499,-0.1274 l -0.1444442,-0.1444 0,-2.111 0,-2.1109 1.6791633,-0.9183 c 0.9235399,-0.5051 2.1916902,-1.2061 2.8181119,-1.5578 l 1.1389487,-0.6394 -0.132965,0.3465 -0.1329648,0.3465 0.1856806,0 c 0.1021243,0 0.3319303,-0.098 0.5106799,-0.2133 l 0.3249994,-0.21 -0.2708328,0 c -0.1489581,0 -0.2708328,-0.083 -0.2708328,-0.18 0,-0.097 0.383431,-0.3923 0.8520685,-0.6557 l 0.8520693,-0.4789 1.856259,0.9206 1.856259,0.9206 0,1.8578 0,1.8577 -0.903859,0.8565 -0.90386,0.8565 0.470527,-0.6251 c 0.25879,-0.3438 0.470527,-0.7125 0.470527,-0.8195 0,-0.1069 -0.152608,-0.5569 -0.339129,-0.9999 l -0.339129,-0.8055 -0.298306,0.4034 -0.298307,0.4033 -0.15033,1.2216 c -0.08268,0.6719 -0.165733,1.3337 -0.184559,1.4706 -0.01883,0.137 -0.16377,0.4051 -0.322096,0.5959 -0.158326,0.1907 -0.373427,0.3468 -0.478002,0.3468 l -0.190137,0 0,-2.0583 0,-2.0583 -0.324999,0 -0.3249994,0 0,2.2027 c 0,1.2116 -0.044585,2.1582 -0.099078,2.1037 -0.054493,-0.054 -0.1137006,-1.1685 -0.1315725,-2.4755 l -0.032495,-2.3765 -1.4392577,-0.7769 -1.4392579,-0.7769 -0.7583319,0.428 c -0.4170825,0.2355 -1.2212674,0.7322 -1.7870776,1.1039 l -1.0287458,0.6758 -4.188e-4,1.9861 -4.188e-4,1.9861 0.2708328,0.1093 0.2708328,0.1093 -0.3430549,0.017 z m 6.6613708,-5.208 c 0.019246,0.014 0.00995,-0.1455 -0.020655,-0.3541 l -0.05565,-0.3791 -0.1418449,0.054 c -0.078015,0.03 -0.2393447,0.054 -0.3585111,0.054 -0.1191664,0 -0.2166662,0.09 -0.2166662,0.2008 l 0,0.2008 0.3791659,0.099 c 0.2085412,0.054 0.3949136,0.1104 0.414161,0.1243 z m 1.5072422,0.025 c 0.05958,0 0.04807,-0.098 -0.02557,-0.2167 -0.07365,-0.1191 -0.182657,-0.2166 -0.24224,-0.2166 -0.05958,0 -0.04808,0.097 0.02557,0.2166 0.07365,0.1192 0.182657,0.2167 0.24224,0.2167 z m -1.000572,-0.4333 0.288889,0 -0.144444,-0.1445 -0.144445,-0.1444 -0.144444,0.1444 -0.144444,0.1445 0.288888,0 z m 0.771119,-0.2167 c 0.05255,0 0.09555,-0.097 0.09555,-0.2167 l 0,-0.2166 -0.229453,0 -0.229453,0 0.133907,0.2166 c 0.07365,0.1192 0.176903,0.2167 0.229453,0.2167 z m -2.8225092,-0.3577 c 0.1749333,-0.067 0.3180606,-0.2148 0.3180606,-0.3283 l 0,-0.2062 0.1626069,0.1005 0.162607,0.1004 0.6498914,-0.5199 0.6498913,-0.52 -0.2915524,0 c -0.1603538,-6e-4 -0.5503531,0.1781 -0.866665,0.397 -0.3163116,0.219 -0.7519167,0.462 -0.968011,0.5402 l -0.3928986,0.142 0.1290046,0.2088 0.1290046,0.2087 0.3180606,-0.1221 z m 1.9016782,0.1377 0.391953,0 -0.128059,-0.2072 -0.128059,-0.2072 -0.372227,0.1193 -0.3722275,0.1193 0.2939647,-0.21 0.2939648,-0.21 -0.258677,-0.1599 -0.2586768,-0.1598 -0.2501429,0.2501 -0.2501431,0.2501 0.3231883,0.2044 c 0.1777536,0.1123 0.4995675,0.2058 0.7151415,0.2076 z m 1.774709,0 c 0.05958,0 0.108333,-0.049 0.108333,-0.1083 0,-0.06 -0.04875,-0.1083 -0.108333,-0.1083 -0.05958,0 -0.108333,0.049 -0.108333,0.1083 0,0.06 0.04875,0.1083 0.108333,0.1083 z m 0.433333,-0.2166 c 0.05958,0 0.108333,-0.049 0.108333,-0.1084 0,-0.06 -0.04875,-0.1083 -0.108333,-0.1083 -0.05958,0 -0.108334,0.049 -0.108334,0.1083 0,0.06 0.04875,0.1084 0.108334,0.1084 z m -5.019435,-0.2167 c 0.1588887,0 0.3512376,-0.062 0.4274422,-0.1386 l 0.1385537,-0.1385 -0.1093816,-0.177 -0.1093813,-0.177 -0.3180606,0.1221 c -0.1749333,0.067 -0.3180606,0.2091 -0.3180606,0.3155 l 0,0.1935 0.2888882,0 z m 3.84748,-0.048 0.72908,-0.021 -0.489797,-0.2185 -0.489797,-0.2186 -0.239284,0.2393 -0.239282,0.2393 0.72908,-0.021 z m -0.756859,-0.3151 c 0.167099,-0.064 0.303817,-0.2037 0.303817,-0.3101 l 0,-0.1935 -0.312213,0 c -0.171716,0 -0.364065,0.084 -0.427442,0.1865 l -0.1152294,0.1864 0.1236254,0.1236 0.123625,0.1237 0.303817,-0.1166 z m 1.979368,0.1464 c 0.07332,0 -0.09568,-0.2437 -0.375554,-0.5416 l -0.508868,-0.5417 -0.380088,0 -0.380089,0 -0.338814,-0.3388 -0.338813,-0.3388 -0.2183281,0.1349 c -0.1200806,0.074 -0.2183283,0.2236 -0.2183283,0.332 l 0,0.1971 0.3249994,-0.1247 0.324999,-0.1247 0,0.2526 0,0.2526 0.216667,-0.1339 0.216666,-0.1339 0,0.2441 0,0.244 0.487499,-0.1209 0.487499,-0.1209 -0.272183,0.1248 -0.272183,0.1248 0.116622,0.1887 0.116622,0.1887 0.296145,-0.1136 0.296144,-0.1136 0.143036,0.2314 c 0.07867,0.1273 0.203028,0.2314 0.27635,0.2314 z m 0.382778,0 c 0.05958,0 0.108333,-0.049 0.108333,-0.1083 0,-0.06 -0.04875,-0.1083 -0.108333,-0.1083 -0.05958,0 -0.108333,0.049 -0.108333,0.1083 0,0.06 0.04875,0.1083 0.108333,0.1083 z m -3.8044461,-0.65 c 0.1121336,0 0.2641374,-0.098 0.3377863,-0.2166 l 0.1339071,-0.2167 -0.3377863,0 -0.3377864,0 0,0.2167 c 0,0.1191 0.091746,0.2166 0.2038793,0.2166 z m -4.90243,7.3667 -0.2568927,0 -0.068107,-2.2755 -0.068106,-2.2754 0.3249994,4e-4 0.3249993,5e-4 0,2.275 0,2.275 -0.2568929,0 z m 1.618099,0 -0.7916605,0 -0.068107,-2.2755 -0.068106,-2.2754 1.5166636,0.03 1.5166637,0.03 -0.4874991,0.094 -0.487499,0.094 0,0.2016 c 0,0.1109 0.087068,0.2016 0.1934853,0.2016 0.106417,0 0.2579733,0.168 0.3367917,0.3734 l 0.1433063,0.3735 -0.3391945,0.248 -0.3391942,0.248 0.3274019,0.2718 0.3274022,0.2717 0,0.4814 0,0.4814 -0.494397,0.5754 -0.4943968,0.5754 -0.7916605,0 z m 0.047124,-0.2167 c 0.2383329,0 0.4333325,-0.049 0.4333325,-0.1083 0,-0.06 -0.1949996,-0.3034 -0.4333325,-0.5417 l -0.4333324,-0.4333 0,0.5416 0,0.5417 0.4333324,0 z m 0.7980065,-1.0427 0.1137972,-0.2844 -0.1309024,-0.1309 -0.1309026,-0.1309 0.017106,0.4153 0.017106,0.4153 0.1137973,-0.2844 z m -0.9008096,-0.6144 0.3305295,-0.1268 -0.2692199,-0.3539 c -0.148071,-0.1946 -0.2968091,-0.3945 -0.3305293,-0.4441 -0.03372,-0.05 -0.06131,0.1666 -0.06131,0.4807 l 0,0.571 0.3305293,-0.1269 z m -0.059697,-1.6056 c 0.148958,-0.1718 0.4122075,-0.4342 0.5849988,-0.5831 l 0.314166,-0.2708 -0.5849988,0 -0.5849988,0 0,0.583 0,0.5831 0.2708328,-0.3122 z m 2.7624945,3.371 -0.2166663,0.134 0,-2.2878 0,-2.2878 0.4874991,0.017 0.487499,0.017 -0.2708328,0.1093 -0.2708328,0.1093 0,2.0275 0,2.0274 -0.2166662,0.1339 z"
         id="path6728" />
      <path
         style="fill:#5a76a7"
         d="m 2.9775862,1046.0332 -0.06249,2.1169 -0.1624997,-0.1634 -0.1624997,-0.1634 0,-2.111 0,-2.1109 1.6791633,-0.9183 c 0.9235399,-0.5051 2.1916902,-1.2061 2.8181119,-1.5578 l 1.1389487,-0.6394 -0.132965,0.3465 -0.1329648,0.3465 0.1856806,0 c 0.1021243,0 0.3319303,-0.098 0.5106799,-0.2133 l 0.3249994,-0.21 -0.2708328,0 c -0.1489581,0 -0.2708328,-0.083 -0.2708328,-0.18 0,-0.097 0.383431,-0.3923 0.8520685,-0.6557 l 0.8520693,-0.4789 1.856259,0.9206 1.856259,0.9206 0,1.8578 0,1.8577 -0.897672,0.8565 -0.897673,0.8565 0.488533,-0.6818 0.488532,-0.6818 -0.256666,-0.7777 c -0.141166,-0.4277 -0.34216,-0.8305 -0.446654,-0.8951 l -0.189988,-0.1174 -0.23848,0.4456 -0.23848,0.4456 -0.126755,1.1313 -0.126756,1.1313 -0.342349,0.5958 c -0.188292,0.3277 -0.418827,0.5958 -0.5123,0.5958 l -0.169952,0 0,-2.0583 0,-2.0583 -0.324999,0 -0.3249994,0 0,2.2027 c 0,1.2116 -0.044585,2.1582 -0.099078,2.1037 -0.054493,-0.054 -0.1137006,-1.1685 -0.1315725,-2.4755 l -0.032495,-2.3765 -1.4392577,-0.7761 -1.4392579,-0.7762 -1.3225117,0.7781 c -0.7273812,0.4279 -1.5280091,0.9309 -1.7791727,1.1177 l -0.4566615,0.3395 -0.06249,2.1169 z m 6.9058246,-3.1461 c 0.019246,0.014 0.00995,-0.1455 -0.020655,-0.3541 l -0.05565,-0.3791 -0.1418449,0.054 c -0.078015,0.03 -0.2393447,0.054 -0.3585111,0.054 -0.1191664,0 -0.2166662,0.09 -0.2166662,0.2008 l 0,0.2008 0.3791659,0.099 c 0.2085412,0.054 0.3949136,0.1104 0.414161,0.1243 z m 1.5072422,0.025 c 0.05958,0 0.04807,-0.098 -0.02557,-0.2167 -0.07365,-0.1191 -0.182657,-0.2166 -0.24224,-0.2166 -0.05958,0 -0.04808,0.097 0.02557,0.2166 0.07365,0.1192 0.182657,0.2167 0.24224,0.2167 z m -1.000572,-0.4333 0.288889,0 -0.144444,-0.1445 -0.144445,-0.1444 -0.144444,0.1444 -0.144444,0.1445 0.288888,0 z m 0.771119,-0.2167 c 0.05255,0 0.09555,-0.097 0.09555,-0.2167 l 0,-0.2166 -0.229453,0 -0.229453,0 0.133907,0.2166 c 0.07365,0.1192 0.176903,0.2167 0.229453,0.2167 z m -2.8225092,-0.3577 c 0.1749333,-0.067 0.3180606,-0.2148 0.3180606,-0.3283 l 0,-0.2062 0.1626069,0.1005 0.162607,0.1004 0.6498914,-0.5199 0.6498913,-0.52 -0.2915524,0 c -0.1603538,-6e-4 -0.5503531,0.1781 -0.866665,0.397 -0.3163116,0.219 -0.7519167,0.462 -0.968011,0.5402 l -0.3928986,0.142 0.1290046,0.2088 0.1290046,0.2087 0.3180606,-0.1221 z m 1.9016782,0.1377 0.391953,0 -0.128059,-0.2072 -0.128059,-0.2072 -0.372227,0.1193 -0.3722275,0.1193 0.2939647,-0.21 0.2939648,-0.21 -0.258677,-0.1599 -0.2586768,-0.1598 -0.2501429,0.2501 -0.2501431,0.2501 0.3231883,0.2044 c 0.1777536,0.1123 0.4995675,0.2058 0.7151415,0.2076 z m 1.774709,0 c 0.05958,0 0.108333,-0.049 0.108333,-0.1083 0,-0.06 -0.04875,-0.1083 -0.108333,-0.1083 -0.05958,0 -0.108333,0.049 -0.108333,0.1083 0,0.06 0.04875,0.1083 0.108333,0.1083 z m 0.433333,-0.2166 c 0.05958,0 0.108333,-0.049 0.108333,-0.1084 0,-0.06 -0.04875,-0.1083 -0.108333,-0.1083 -0.05958,0 -0.108334,0.049 -0.108334,0.1083 0,0.06 0.04875,0.1084 0.108334,0.1084 z m -5.019435,-0.2167 c 0.1588887,0 0.3512376,-0.062 0.4274422,-0.1386 l 0.1385537,-0.1385 -0.1093816,-0.177 -0.1093813,-0.177 -0.3180606,0.1221 c -0.1749333,0.067 -0.3180606,0.2091 -0.3180606,0.3155 l 0,0.1935 0.2888882,0 z m 3.84748,-0.048 0.72908,-0.021 -0.489797,-0.2185 -0.489797,-0.2186 -0.239284,0.2393 -0.239282,0.2393 0.72908,-0.021 z m -0.756859,-0.3151 c 0.167099,-0.064 0.303817,-0.2037 0.303817,-0.3101 l 0,-0.1935 -0.312213,0 c -0.171716,0 -0.364065,0.084 -0.427442,0.1865 l -0.1152294,0.1864 0.1236254,0.1236 0.123625,0.1237 0.303817,-0.1166 z m 1.979368,0.1464 c 0.07332,0 -0.09568,-0.2437 -0.375554,-0.5416 l -0.508868,-0.5417 -0.380088,0 -0.380089,0 -0.338814,-0.3388 -0.338813,-0.3388 -0.2183281,0.1349 c -0.1200806,0.074 -0.2183283,0.2236 -0.2183283,0.332 l 0,0.1971 0.3249994,-0.1247 0.324999,-0.1247 0,0.2526 0,0.2526 0.216667,-0.1339 0.216666,-0.1339 0,0.2441 0,0.244 0.487499,-0.1209 0.487499,-0.1209 -0.272183,0.1248 -0.272183,0.1248 0.116622,0.1887 0.116622,0.1887 0.296145,-0.1136 0.296144,-0.1136 0.143036,0.2314 c 0.07867,0.1273 0.203028,0.2314 0.27635,0.2314 z m 0.382778,0 c 0.05958,0 0.108333,-0.049 0.108333,-0.1083 0,-0.06 -0.04875,-0.1083 -0.108333,-0.1083 -0.05958,0 -0.108333,0.049 -0.108333,0.1083 0,0.06 0.04875,0.1083 0.108333,0.1083 z m -3.8044461,-0.65 c 0.1121336,0 0.2641374,-0.098 0.3377863,-0.2166 l 0.1339071,-0.2167 -0.3377863,0 -0.3377864,0 0,0.2167 c 0,0.1191 0.091746,0.2166 0.2038793,0.2166 z m -4.9705364,7.3667 -0.1887863,0 -0.068107,-2.2755 -0.068106,-2.2754 0.3249994,0 0.3249993,0 -0.068106,2.2754 -0.068107,2.2755 -0.1887862,0 z m 1.097271,0 -0.2027261,0 -0.068107,-2.2755 -0.068106,-2.2754 1.5166636,0.033 1.5166637,0.033 -0.5999267,0.091 -0.5999267,0.091 0.4592457,0.5811 0.4592456,0.581 -0.5780747,0.07 -0.5780746,0.07 0.5562561,0.5155 0.5562559,0.5155 0,0.4059 0,0.4059 -0.5416656,0.5089 -0.5416656,0.5089 0,-0.2292 0,-0.2292 -0.4333324,-0.1133 -0.4333325,-0.1133 0,-0.4536 0,-0.4536 0.4174456,0 0.4174457,0 0.099086,0.3791 0.099086,0.3792 0.025134,-0.3414 0.025133,-0.3414 -0.5416656,-0.5089 -0.5416656,-0.5088 0,-0.5242 0,-0.5242 0.4333325,-0.1133 0.4333324,-0.1134 0,-0.1913 0,-0.1914 -0.5416655,0 -0.5416656,0 0,2.1666 0,2.1667 -0.2027264,0 z m 3.2360537,-0.1084 -0.2166663,0.134 0,-2.2878 0,-2.2878 0.4874991,0.017 0.487499,0.017 -0.2708328,0.1093 -0.2708328,0.1093 0,2.0275 0,2.0274 -0.2166662,0.1339 z"
         id="path6726" />
      <path
         style="fill:#5b5a5b"
         d="m 2.8970407,1048.1127 c -0.00993,-3e-4 -0.083055,-0.065 -0.1624997,-0.145 l -0.1444442,-0.1444 0,-2.111 0,-2.1109 1.6791633,-0.9183 c 0.9235399,-0.5051 2.1916902,-1.2061 2.8181119,-1.5578 l 1.1389487,-0.6394 -0.132965,0.3465 -0.1329648,0.3465 0.1856806,0 c 0.1021243,0 0.3319303,-0.098 0.5106799,-0.2133 l 0.3249994,-0.21 -0.2708328,0 c -0.1489581,0 -0.2708328,-0.083 -0.2708328,-0.18 0,-0.097 0.383431,-0.3923 0.8520685,-0.6557 l 0.8520693,-0.4789 1.856259,0.9206 1.856259,0.9206 0,1.8578 0,1.8577 -0.903859,0.8565 -0.90386,0.8565 0.470527,-0.6251 c 0.25879,-0.3438 0.470527,-0.7375 0.470527,-0.875 0,-0.1375 -0.184777,-0.6124 -0.410615,-1.0554 l -0.410615,-0.8054 0.212828,-0.1315 0.212827,-0.1316 0.192189,0.1922 c 0.105704,0.1057 0.334088,0.5799 0.50752,1.0537 l 0.315331,0.8614 0.01527,-1.7875 c 0.0084,-0.9831 -0.02175,-1.7875 -0.067,-1.7875 -0.04524,0 -0.654619,0.444 -1.354164,0.9866 l -1.2719,0.9866 -0.120088,2.2092 -0.120088,2.2092 -0.04241,-2.1124 -0.04241,-2.1125 -0.433333,0 -0.4333324,0 0,2.2027 c 0,1.2116 -0.044585,2.1582 -0.099078,2.1037 -0.054493,-0.054 -0.1137006,-1.1685 -0.1315725,-2.4755 l -0.032495,-2.3765 -1.4392577,-0.7754 -1.4392579,-0.7754 -1.2999974,0.7398 c -0.7149986,0.4069 -1.4539243,0.8786 -1.6420573,1.0482 -0.1881328,0.1696 -0.4627326,0.3084 -0.6102217,0.3084 l -0.2681619,0 0.068556,2.1671 c 0.037706,1.1919 0.060431,2.1669 0.050501,2.1667 z m 6.9863701,-5.2256 c 0.019246,0.014 0.00995,-0.1455 -0.020655,-0.3541 l -0.05565,-0.3791 -0.1418449,0.054 c -0.078015,0.03 -0.2393447,0.054 -0.3585111,0.054 -0.1191664,0 -0.2166662,0.09 -0.2166662,0.2008 l 0,0.2008 0.3791659,0.099 c 0.2085412,0.054 0.3949136,0.1104 0.414161,0.1243 z m 1.5072422,0.025 c 0.05958,0 0.04807,-0.098 -0.02557,-0.2167 -0.07365,-0.1191 -0.182657,-0.2166 -0.24224,-0.2166 -0.05958,0 -0.04808,0.097 0.02557,0.2166 0.07365,0.1192 0.182657,0.2167 0.24224,0.2167 z m -1.000572,-0.4333 0.288889,0 -0.144444,-0.1445 -0.144445,-0.1444 -0.144444,0.1444 -0.144444,0.1445 0.288888,0 z m 0.771119,-0.2167 c 0.05255,0 0.09555,-0.097 0.09555,-0.2167 l 0,-0.2166 -0.229453,0 -0.229453,0 0.133907,0.2166 c 0.07365,0.1192 0.176903,0.2167 0.229453,0.2167 z m -2.8225092,-0.3577 c 0.1749333,-0.067 0.3180606,-0.2148 0.3180606,-0.3283 l 0,-0.2062 0.1626069,0.1005 0.162607,0.1004 0.6498914,-0.5199 0.6498913,-0.52 -0.2915524,0 c -0.1603538,-6e-4 -0.5503531,0.1781 -0.866665,0.397 -0.3163116,0.219 -0.7519167,0.462 -0.968011,0.5402 l -0.3928986,0.142 0.1290046,0.2088 0.1290046,0.2087 0.3180606,-0.1221 z m 1.9016782,0.1377 0.391953,0 -0.128059,-0.2072 -0.128059,-0.2072 -0.372227,0.1193 -0.3722275,0.1193 0.2939647,-0.21 0.2939648,-0.21 -0.258677,-0.1599 -0.2586768,-0.1598 -0.2501429,0.2501 -0.2501431,0.2501 0.3231883,0.2044 c 0.1777536,0.1123 0.4995675,0.2058 0.7151415,0.2076 z m 1.774709,0 c 0.05958,0 0.108333,-0.049 0.108333,-0.1083 0,-0.06 -0.04875,-0.1083 -0.108333,-0.1083 -0.05958,0 -0.108333,0.049 -0.108333,0.1083 0,0.06 0.04875,0.1083 0.108333,0.1083 z m 0.433333,-0.2166 c 0.05958,0 0.108333,-0.049 0.108333,-0.1084 0,-0.06 -0.04875,-0.1083 -0.108333,-0.1083 -0.05958,0 -0.108334,0.049 -0.108334,0.1083 0,0.06 0.04875,0.1084 0.108334,0.1084 z m -5.019435,-0.2167 c 0.1588887,0 0.3512376,-0.062 0.4274422,-0.1386 l 0.1385537,-0.1385 -0.1093816,-0.177 -0.1093813,-0.177 -0.3180606,0.1221 c -0.1749333,0.067 -0.3180606,0.2091 -0.3180606,0.3155 l 0,0.1935 0.2888882,0 z m 3.84748,-0.048 0.72908,-0.021 -0.489797,-0.2185 -0.489797,-0.2186 -0.239284,0.2393 -0.239282,0.2393 0.72908,-0.021 z m -0.756859,-0.3151 c 0.167099,-0.064 0.303817,-0.2037 0.303817,-0.3101 l 0,-0.1935 -0.312213,0 c -0.171716,0 -0.364065,0.084 -0.427442,0.1865 l -0.1152294,0.1864 0.1236254,0.1236 0.123625,0.1237 0.303817,-0.1166 z m 1.979368,0.1464 c 0.07332,0 -0.09568,-0.2437 -0.375554,-0.5416 l -0.508868,-0.5417 -0.380088,0 -0.380089,0 -0.338814,-0.3388 -0.338813,-0.3388 -0.2183281,0.1349 c -0.1200806,0.074 -0.2183283,0.2236 -0.2183283,0.332 l 0,0.1971 0.3249994,-0.1247 0.324999,-0.1247 0,0.2526 0,0.2526 0.216667,-0.1339 0.216666,-0.1339 0,0.2441 0,0.244 0.487499,-0.1209 0.487499,-0.1209 -0.272183,0.1248 -0.272183,0.1248 0.116622,0.1887 0.116622,0.1887 0.296145,-0.1136 0.296144,-0.1136 0.143036,0.2314 c 0.07867,0.1273 0.203028,0.2314 0.27635,0.2314 z m 0.382778,0 c 0.05958,0 0.108333,-0.049 0.108333,-0.1083 0,-0.06 -0.04875,-0.1083 -0.108333,-0.1083 -0.05958,0 -0.108333,0.049 -0.108333,0.1083 0,0.06 0.04875,0.1083 0.108333,0.1083 z m -3.8044461,-0.65 c 0.1121336,0 0.2641374,-0.098 0.3377863,-0.2166 l 0.1339071,-0.2167 -0.3377863,0 -0.3377864,0 0,0.2167 c 0,0.1191 0.091746,0.2166 0.2038793,0.2166 z m -5.0107631,7.3672 -0.1485596,-5e-4 -0.068107,-2.2755 -0.068106,-2.2754 0.4333325,0 0.4333324,0 -0.2864451,0.1816 -0.2864451,0.1817 0.069779,2.0905 0.069779,2.0906 -0.1485598,-5e-4 z m 1.0833311,0 -0.1485595,-5e-4 -0.068107,-2.2755 -0.068106,-2.2754 1.5166636,0.042 1.5166637,0.042 -1.3683233,0.077 -1.3683236,0.077 0.068326,2.1564 0.068326,2.1564 -0.1485599,-5e-4 z m 3.2350016,-2.0986 -0.070059,2.2064 -0.045694,-2.3291 -0.045694,-2.3292 0.4874991,0.025 0.487499,0.025 -0.371746,0.098 -0.3717457,0.098 -0.070059,2.2063 z m -1.2989453,1.3125 -0.487499,0.5386 -0.4874991,-0.48 c -0.2681244,-0.264 -0.487499,-0.5984 -0.487499,-0.7431 l 0,-0.2632 0.4174456,0 0.4174457,0 0.099086,0.3791 0.099086,0.3792 0.025134,-0.3414 0.025133,-0.3414 -0.5416656,-0.5089 -0.5416656,-0.5088 0,-0.5093 0,-0.5093 0.5680202,-0.2159 0.56802,-0.216 0.298645,0.2479 0.2986447,0.2478 0,0.322 0,0.3219 -0.5958322,-0.145 -0.5958321,-0.145 0.7041653,0.651 0.7041652,0.651 0,0.3251 0,0.3251 -0.487499,0.5386 z m 4.3152688,-0.5866 -0.144444,0.1444 0,-0.2889 0,-0.2889 0.144444,0.1445 0.144444,0.1444 -0.144444,0.1445 z"
         id="path6724" />
      <path
         style="fill:#343a49"
         d="m 5.1348281,1045.9015 -0.07071,2.1023 -0.045346,-2.2208 -0.045346,-2.2208 1.4624971,0.042 1.4624971,0.042 -1.3464403,0.077 -1.3464404,0.077 -0.070711,2.1024 z m 1.9593299,1.3997 -0.4957358,0.529 -0.4874991,-0.4625 c -0.2681244,-0.2543 -0.487499,-0.5809 -0.487499,-0.7256 l 0,-0.2632 0.4174456,0 0.4174457,0 0.099086,0.3791 0.099086,0.3792 0.025134,-0.4022 0.025133,-0.4021 -0.5416656,-0.4261 -0.5416656,-0.4261 0,-0.4053 0,-0.4053 0.4668304,-0.327 0.4668306,-0.327 0.3998343,0.214 0.3998346,0.214 0,0.3174 0,0.3174 -0.3069439,0 -0.3069437,0 -0.096726,-0.2709 -0.096726,-0.2708 -0.1921623,0.1819 -0.1921624,0.1819 0.5705075,0.4681 0.5705074,0.4681 0.1418947,0.4674 0.1418945,0.4675 -0.4957358,0.5291 z m 2.5858829,-1.5182 -0.075734,2.0042 -0.012822,-2.2567 -0.012822,-2.2567 -1.4777132,-0.8181 -1.4777131,-0.818 -1.4207379,0.7894 c -0.7814059,0.4342 -1.5246823,0.9265 -1.6517252,1.0941 l -0.2309868,0.3048 -0.3838447,-0.078 -0.3838446,-0.078 1.4814969,-0.8077 c 0.8148232,-0.4443 2.0177457,-1.1085 2.6731611,-1.476 l 1.1916643,-0.6682 -0.5416656,0.442 -0.5416656,0.442 0.2708328,0 c 0.148958,0 0.3439576,0.014 0.4333325,0.025 0.089375,0.011 0.2292835,0.1287 0.3109082,0.2608 l 0.1484084,0.2401 0.5590002,-0.2991 0.5590001,-0.2992 0.637982,0.4717 c 0.3508903,0.2594 0.6906803,0.4717 0.7550883,0.4717 0.06441,0 0.117107,-0.152 0.117107,-0.3378 l 0,-0.3378 0.231081,0.1428 0.231081,0.1428 -0.120868,0.1209 -0.120869,0.1209 0.241316,0.2907 c 0.132724,0.1599 0.205003,0.3032 0.16062,0.3184 -0.04438,0.015 -0.307411,0.051 -0.584508,0.08 l -0.503811,0.052 -0.2016866,-0.5305 -0.2016868,-0.5305 -0.2559582,0.085 c -0.140777,0.047 -0.2905533,0.1891 -0.3328364,0.316 l -0.076878,0.2306 0.8551561,0.4457 0.8551559,0.4458 0.399845,-0.4418 c 0.219914,-0.243 0.37547,-0.4804 0.345678,-0.5275 -0.02979,-0.047 -0.05417,-0.1668 -0.05417,-0.2661 l 0,-0.1806 0.325,0 0.324999,0 0,0.2742 0,0.2741 -0.649999,0.4629 -0.649998,0.4628 -0.04497,2.0977 -0.04497,2.0978 -0.0715,-2.0042 -0.0715,-2.0041 -0.417356,0 -0.4173561,0 -0.075734,2.0041 z m 2.1183711,-3.0875 c 0.05958,0 0.108333,-0.049 0.108333,-0.1083 0,-0.06 -0.04875,-0.1083 -0.108333,-0.1083 -0.05958,0 -0.108333,0.049 -0.108333,0.1083 0,0.06 0.04875,0.1083 0.108333,0.1083 z m -3.0589015,-0.4333 c 0.1787497,0 0.3852575,-0.097 0.4589065,-0.2167 l 0.1339071,-0.2166 -0.3249994,0 c -0.1787496,0 -0.3852574,0.098 -0.4589064,0.2166 l -0.1339071,0.2167 0.3249993,0 z m 4.5127855,3.2911 -0.201338,0.2013 -0.129513,-0.7981 -0.129513,-0.7981 -0.348375,-0.3849 -0.348374,-0.385 0.263649,-0.1629 0.26365,-0.1629 0.270146,0.3694 c 0.14858,0.2032 0.335589,0.7183 0.415575,1.1447 l 0.14543,0.7752 -0.201337,0.2013 z m -9.019147,-1.7915 -0.4152768,0.017 0.1309024,-0.1309 0.1309026,-0.1309 0.2843744,0.1137 0.2843744,0.1138 -0.415277,0.017 z m 4.3333247,0 -0.4152768,0.017 0.1309024,-0.1309 0.1309026,-0.1309 0.2843744,0.1137 0.2843745,0.1138 -0.4152771,0.017 z m 2.5819393,-1.2829 c -0.05958,0 -0.108333,-0.049 -0.108333,-0.1084 0,-0.06 0.04875,-0.1083 0.108333,-0.1083 0.05958,0 0.108333,0.049 0.108333,0.1083 0,0.06 -0.04875,0.1084 -0.108333,0.1084 z m 1.554323,-0.3356 c -0.21762,0.2442 -0.333741,0.322 -0.258046,0.1731 l 0.137628,-0.2709 -0.28362,-0.026 c -0.155991,-0.014 -0.368706,-0.01 -0.4727,0.01 l -0.189081,0.034 0.128114,-0.3338 0.128114,-0.3339 -0.209866,0 -0.209867,0 0,0.3378 0,0.3378 -0.227187,-0.1404 -0.227187,-0.1404 0.253717,-0.3057 0.253717,-0.3057 -0.364316,0 -0.364316,0 0.132418,-0.2143 0.132419,-0.2143 0.493496,0.3234 0.493496,0.3233 0.179941,-0.1632 0.179942,-0.1633 -0.146605,0.2559 -0.146604,0.2559 0.19565,0.1209 0.195651,0.1209 0.295383,-0.3642 0.295382,-0.3642 -0.270833,0.1627 -0.270832,0.1627 0,-0.3115 0,-0.3115 -0.656946,-0.2721 c -0.361321,-0.1497 -0.614825,-0.3143 -0.563343,-0.3657 0.05148,-0.052 0.663982,0.197 1.361112,0.5523 l 1.267507,0.6459 -0.433332,0.1705 c -0.238333,0.094 -0.611386,0.3702 -0.829006,0.6143 z m -2.379608,-0.538 c -0.02276,0 -0.23064,-0.15 -0.4619572,-0.325 l -0.4205771,-0.3181 0.2452905,0 c 0.1349098,0 0.3065318,0.099 0.3813818,0.2202 l 0.136092,0.2202 0.235171,-0.1453 0.235172,-0.1454 -0.154597,0.2502 c -0.08503,0.1375 -0.173217,0.247 -0.195976,0.2432 z m 2.125283,0.01 c -0.05958,0 -0.108334,-0.049 -0.108334,-0.1083 0,-0.06 0.04875,-0.1084 0.108334,-0.1084 0.05958,0 0.108333,0.049 0.108333,0.1084 0,0.06 -0.04875,0.1083 -0.108333,0.1083 z m -4.2249921,-0.2167 -0.2888882,0 0.144444,-0.1444 0.1444442,-0.1445 0.1444443,0.1445 0.144444,0.1444 -0.2888883,0 z m 0.866665,-0.4333 -0.2888883,0 0.144444,-0.1444 0.1444443,-0.1445 0.1444442,0.1445 0.144444,0.1444 -0.2888882,0 z m -0.9749981,-0.2167 c -0.059583,0 -0.1083331,-0.049 -0.1083331,-0.1083 0,-0.06 0.04875,-0.1083 0.1083331,-0.1083 0.059583,0 0.1083331,0.049 0.1083331,0.1083 0,0.06 -0.04875,0.1083 -0.1083331,0.1083 z m 2.1922362,0 c -0.05958,0 -0.168591,-0.098 -0.24224,-0.2166 -0.073649,-0.1192 -0.085157,-0.2167 -0.02557,-0.2167 0.05958,0 0.168591,0.097 0.24224,0.2167 0.07365,0.1191 0.08516,0.2166 0.02557,0.2166 z m -1.6633576,-0.2166 c -0.1121337,0 -0.2038792,-0.038 -0.2038792,-0.085 0,-0.047 0.1513136,-0.1432 0.3362525,-0.2142 l 0.3362526,-0.129 -0.1323733,0.2142 c -0.072805,0.1178 -0.2241189,0.2142 -0.3362526,0.2142 z m 2.0711166,0 c -0.05958,0 -0.108333,-0.049 -0.108333,-0.1084 0,-0.06 0.04875,-0.1083 0.108333,-0.1083 0.05958,0 0.108333,0.049 0.108333,0.1083 0,0.06 -0.04875,0.1084 -0.108333,0.1084 z m -0.9749984,-0.65 c -0.2383329,0.1275 -0.4333325,0.1831 -0.4333325,0.1235 0,-0.06 0.1949996,-0.2127 0.4333325,-0.3402 0.2383328,-0.1276 0.4333324,-0.1832 0.4333324,-0.1236 0,0.06 -0.1949996,0.2127 -0.4333324,0.3403 z m 0.7944434,0.1444 -0.144445,0.1445 0,-0.2889 0,-0.2889 0.144445,0.1444 0.144444,0.1445 -0.144444,0.1444 z m 0.397221,0.072 c -0.05958,0 -0.108333,-0.049 -0.108333,-0.1083 0,-0.06 0.04875,-0.1083 0.108333,-0.1083 0.05958,0 0.108333,0.049 0.108333,0.1083 0,0.06 -0.04875,0.1083 -0.108333,0.1083 z"
         id="path6722" />
      <path
         style="fill:#0a5f31"
         d="m 7.094158,1047.3012 -0.4957358,0.529 -0.4874991,-0.4625 c -0.2681244,-0.2543 -0.487499,-0.5809 -0.487499,-0.7256 l 0,-0.2632 0.4174456,0 0.4174457,0 0.099086,0.3791 0.099086,0.3792 0.025134,-0.4022 0.025133,-0.4021 -0.5416656,-0.4261 -0.5416656,-0.4261 0,-0.4053 0,-0.4053 0.4668304,-0.327 0.4668306,-0.327 0.3998343,0.214 0.3998346,0.214 0,0.3174 0,0.3174 -0.3069439,0 -0.3069437,0 -0.096726,-0.2709 -0.096726,-0.2708 -0.1921623,0.1819 -0.1921624,0.1819 0.5705075,0.4681 0.5705074,0.4681 0.1418947,0.4674 0.1418945,0.4675 -0.4957358,0.5291 z m 6.134251,-1.789 -0.184166,0 -0.13799,-0.69 -0.13799,-0.6899 -0.356006,-0.3934 -0.356007,-0.3934 0.350957,0 0.350957,0 0.193771,0.3792 c 0.106574,0.2085 0.253817,0.696 0.327206,1.0833 l 0.133434,0.7042 -0.184166,0 z m -9.2299817,-1.7333 c -0.059583,0 -0.1083331,-0.049 -0.1083331,-0.1084 0,-0.06 0.04875,-0.1083 0.1083331,-0.1083 0.059583,0 0.1083332,0.049 0.1083332,0.1083 0,0.06 -0.04875,0.1084 -0.1083332,0.1084 z m 1.0833312,0 c -0.059583,0 -0.1083331,-0.049 -0.1083331,-0.1084 0,-0.06 0.04875,-0.1083 0.1083331,-0.1083 0.059583,0 0.1083331,0.049 0.1083331,0.1083 0,0.06 -0.04875,0.1084 -0.1083331,0.1084 z m 5.1018245,-0.1273 -0.6188783,0.019 0.092744,-0.15 0.092745,-0.15 -1.5199912,-0.8877 -1.5199912,-0.8877 -0.4350606,0.2328 c -0.2392831,0.1281 -0.4350604,0.1832 -0.4350604,0.1225 0,-0.061 0.3032307,-0.2672 0.6738461,-0.4589 l 0.6738459,-0.3484 -0.1294267,0.2094 -0.1294266,0.2094 0.6237064,0.2584 0.6237065,0.2583 0.4219493,-0.2635 0.4219492,-0.2635 0.4140876,0.2369 0.4140877,0.237 -0.5416656,-0.044 -0.5416656,-0.044 -0.098589,0.2167 -0.098588,0.2166 1.0735866,0.5712 1.0735869,0.5712 0.185631,-0.1108 0.185632,-0.1107 -0.287893,-0.178 -0.287892,-0.1779 0.371849,-0.1427 0.371849,-0.1427 -0.0863,-0.1398 -0.0863,-0.1398 0.520875,-0.031 0.520874,-0.031 0,0.1938 c 0,0.1065 -0.07313,0.1822 -0.1625,0.1681 -0.08937,-0.014 -0.290128,-0.014 -0.446119,0 l -0.28362,0.026 0.118735,0.1921 0.118734,0.1922 -0.33309,0.2764 -0.33309,0.2764 -0.618878,0.019 z m 0.96483,-0.5227 c 0.05958,0 0.108333,-0.049 0.108333,-0.1084 0,-0.06 -0.04875,-0.1083 -0.108333,-0.1083 -0.05958,0 -0.108333,0.049 -0.108333,0.1083 0,0.06 0.04875,0.1084 0.108333,0.1084 z m -7.9211045,0.4333 c -0.1121335,0 -0.2038792,-0.038 -0.2038792,-0.085 0,-0.047 0.1513136,-0.1432 0.3362525,-0.2141 l 0.3362526,-0.1291 -0.1323733,0.2142 c -0.072805,0.1178 -0.224119,0.2142 -0.3362526,0.2142 z m 1.3127844,-0.7583 c -0.3574993,0.1848 -0.6499987,0.2873 -0.6499987,0.2278 0,-0.06 0.2924994,-0.2596 0.6499987,-0.4445 0.3574993,-0.1849 0.6499987,-0.2874 0.6499987,-0.2278 0,0.06 -0.2924994,0.2596 -0.6499987,0.4445 z m 5.7777661,0.036 -0.144444,0.1444 0,-0.2889 0,-0.2889 0.144444,0.1445 0.144444,0.1444 -0.144444,0.1445 z m -4.802768,-0.5778 c -0.059583,0 -0.1083331,-0.049 -0.1083331,-0.1083 0,-0.06 0.04875,-0.1084 0.1083331,-0.1084 0.059583,0 0.1083331,0.049 0.1083331,0.1084 0,0.06 -0.04875,0.1083 -0.1083331,0.1083 z m 5.19999,0 c -0.05958,0 -0.108333,-0.049 -0.108333,-0.1083 0,-0.06 0.04875,-0.1084 0.108333,-0.1084 0.05958,0 0.108333,0.049 0.108333,0.1084 0,0.06 -0.04875,0.1083 -0.108333,0.1083 z m 0.649998,-0.2167 c -0.05958,0 -0.108333,-0.049 -0.108333,-0.1083 0,-0.06 0.04875,-0.1083 0.108333,-0.1083 0.05958,0 0.108333,0.049 0.108333,0.1083 0,0.06 -0.04875,0.1083 -0.108333,0.1083 z m 1.137498,-0.068 -0.487499,0.024 0.272183,-0.1048 0.272183,-0.1048 -0.120937,-0.1956 -0.120936,-0.1957 0.336253,0.129 c 0.184938,0.071 0.336252,0.1954 0.336252,0.2764 l 0,0.1474 -0.487499,0.024 z m -2.220829,-0.3651 c -0.05958,0 -0.108333,-0.049 -0.108333,-0.1083 0,-0.06 0.04875,-0.1084 0.108333,-0.1084 0.05958,0 0.108333,0.049 0.108333,0.1084 0,0.06 -0.04875,0.1083 -0.108333,0.1083 z m 3.276346,0 c -0.03761,0 -0.293218,-0.195 -0.568018,-0.4333 -0.2748,-0.2384 -0.598468,-0.4334 -0.719262,-0.4334 l -0.219625,0 0.116445,-0.1164 0.116446,-0.1165 0.557745,0.2542 0.557745,0.2541 0.113452,0.2956 c 0.0624,0.1627 0.08268,0.2957 0.04507,0.2957 z m -5.226342,-0.2167 c -0.059583,0 -0.1083331,-0.049 -0.1083331,-0.1083 0,-0.06 0.04875,-0.1083 0.1083331,-0.1083 0.059583,0 0.1083332,0.049 0.1083332,0.1083 0,0.06 -0.04875,0.1083 -0.1083332,0.1083 z m 3.358327,0 -0.288889,0 0.144444,-0.1444 0.144445,-0.1445 0.144444,0.1445 0.144444,0.1444 -0.288888,0 z m -2.0583295,-0.2166 c -0.059583,0 -0.1083332,-0.049 -0.1083332,-0.1084 0,-0.06 0.04875,-0.1083 0.1083332,-0.1083 0.059583,0 0.1083331,0.049 0.1083331,0.1083 0,0.06 -0.04875,0.1084 -0.1083331,0.1084 z m 1.4083305,-0.1084 c -0.119166,0.074 -0.216666,0.085 -0.216666,0.026 0,-0.06 0.0975,-0.1686 0.216666,-0.2422 0.119166,-0.074 0.216666,-0.085 0.216666,-0.026 0,0.06 -0.0975,0.1686 -0.216666,0.2422 z m -1.9499961,-0.1083 -0.2888883,0 0.144444,-0.1444 0.1444443,-0.1445 0.1444442,0.1445 0.144444,0.1444 -0.2888882,0 z m -0.9749981,-0.2167 c -0.059583,0 -0.1083331,-0.049 -0.1083331,-0.1083 0,-0.06 0.04875,-0.1083 0.1083331,-0.1083 0.059583,0 0.1083331,0.049 0.1083331,0.1083 0,0.06 -0.04875,0.1083 -0.1083331,0.1083 z m 0.4333325,-0.2166 c -0.059583,0 -0.1083331,-0.049 -0.1083331,-0.1084 0,-0.06 0.04875,-0.1083 0.1083331,-0.1083 0.059583,0 0.1083331,0.049 0.1083331,0.1083 0,0.06 -0.04875,0.1084 -0.1083331,0.1084 z m 3.2499937,0 c -0.05958,0 -0.108333,-0.049 -0.108333,-0.1084 0,-0.06 0.04875,-0.1083 0.108333,-0.1083 0.05958,0 0.108333,0.049 0.108333,0.1083 0,0.06 -0.04875,0.1084 -0.108333,0.1084 z m -2.8166612,-0.2167 c -0.059583,0 -0.1083332,-0.049 -0.1083332,-0.1083 0,-0.06 0.04875,-0.1084 0.1083332,-0.1084 0.059583,0 0.1083331,0.049 0.1083331,0.1084 0,0.06 -0.04875,0.1083 -0.1083331,0.1083 z m 0.4333324,-0.2167 c -0.059583,0 -0.1083331,-0.049 -0.1083331,-0.1083 0,-0.06 0.04875,-0.1083 0.1083331,-0.1083 0.059583,0 0.1083331,0.049 0.1083331,0.1083 0,0.06 -0.04875,0.1083 -0.1083331,0.1083 z m 1.5166638,0 c -0.05958,0 -0.108333,-0.049 -0.108333,-0.1083 0,-0.06 0.04875,-0.1083 0.108333,-0.1083 0.05958,0 0.108333,0.049 0.108333,0.1083 0,0.06 -0.04875,0.1083 -0.108333,0.1083 z m -0.9749982,-0.325 c -0.1191664,0.074 -0.2166662,0.085 -0.2166662,0.026 0,-0.06 0.0975,-0.1686 0.2166662,-0.2422 0.1191662,-0.074 0.2166662,-0.085 0.2166662,-0.026 0,0.06 -0.0975,0.1686 -0.2166662,0.2422 z m 0.5416652,0.1084 c -0.05958,0 -0.108333,-0.049 -0.108333,-0.1084 0,-0.06 0.04875,-0.1083 0.108333,-0.1083 0.05958,0 0.108334,0.049 0.108334,0.1083 0,0.06 -0.04875,0.1084 -0.108334,0.1084 z"
         id="path6720" />
      <path
         style="fill:#2e2b2c"
         d="m 13.228409,1045.5122 -0.184166,0 -0.13799,-0.69 -0.13799,-0.6899 -0.356006,-0.3934 -0.356007,-0.3934 0.350957,0 0.350957,0 0.193771,0.3792 c 0.106574,0.2085 0.253817,0.696 0.327206,1.0833 l 0.133434,0.7042 -0.184166,0 z m -9.2299817,-1.7333 c -0.059583,0 -0.1083331,-0.049 -0.1083331,-0.1084 0,-0.06 0.04875,-0.1083 0.1083331,-0.1083 0.059583,0 0.1083332,0.049 0.1083332,0.1083 0,0.06 -0.04875,0.1084 -0.1083332,0.1084 z m 1.0833312,0 c -0.059583,0 -0.1083331,-0.049 -0.1083331,-0.1084 0,-0.06 0.04875,-0.1083 0.1083331,-0.1083 0.059583,0 0.1083331,0.049 0.1083331,0.1083 0,0.06 -0.04875,0.1084 -0.1083331,0.1084 z m 5.1018245,-0.1273 -0.6188783,0.019 0.092744,-0.15 0.092745,-0.15 -1.5199912,-0.8877 -1.5199912,-0.8877 -0.4350606,0.2328 c -0.2392831,0.1281 -0.4350604,0.1832 -0.4350604,0.1225 0,-0.061 0.3032307,-0.2672 0.6738461,-0.4589 l 0.6738459,-0.3484 -0.1294267,0.2094 -0.1294266,0.2094 0.6237064,0.2584 0.6237065,0.2583 0.4219493,-0.2635 0.4219492,-0.2635 0.4140876,0.2369 0.4140877,0.237 -0.5416656,-0.044 -0.5416656,-0.044 -0.098589,0.2167 -0.098588,0.2166 1.0735866,0.5712 1.0735869,0.5712 0.185631,-0.1108 0.185632,-0.1107 -0.287893,-0.178 -0.287892,-0.1779 0.371849,-0.1427 0.371849,-0.1427 -0.0863,-0.1398 -0.0863,-0.1398 0.520875,-0.031 0.520874,-0.031 0,0.1938 c 0,0.1065 -0.07313,0.1822 -0.1625,0.1681 -0.08937,-0.014 -0.290128,-0.014 -0.446119,0 l -0.28362,0.026 0.118735,0.1921 0.118734,0.1922 -0.33309,0.2764 -0.33309,0.2764 -0.618878,0.019 z m 0.96483,-0.5227 c 0.05958,0 0.108333,-0.049 0.108333,-0.1084 0,-0.06 -0.04875,-0.1083 -0.108333,-0.1083 -0.05958,0 -0.108333,0.049 -0.108333,0.1083 0,0.06 0.04875,0.1084 0.108333,0.1084 z m -7.9211045,0.4333 c -0.1121335,0 -0.2038792,-0.038 -0.2038792,-0.085 0,-0.047 0.1513136,-0.1432 0.3362525,-0.2141 l 0.3362526,-0.1291 -0.1323733,0.2142 c -0.072805,0.1178 -0.224119,0.2142 -0.3362526,0.2142 z m 1.3127844,-0.7583 c -0.3574993,0.1848 -0.6499987,0.2873 -0.6499987,0.2278 0,-0.06 0.2924994,-0.2596 0.6499987,-0.4445 0.3574993,-0.1849 0.6499987,-0.2874 0.6499987,-0.2278 0,0.06 -0.2924994,0.2596 -0.6499987,0.4445 z m 5.7777661,0.036 -0.144444,0.1444 0,-0.2889 0,-0.2889 0.144444,0.1445 0.144444,0.1444 -0.144444,0.1445 z m -4.802768,-0.5778 c -0.059583,0 -0.1083331,-0.049 -0.1083331,-0.1083 0,-0.06 0.04875,-0.1084 0.1083331,-0.1084 0.059583,0 0.1083331,0.049 0.1083331,0.1084 0,0.06 -0.04875,0.1083 -0.1083331,0.1083 z m 5.19999,0 c -0.05958,0 -0.108333,-0.049 -0.108333,-0.1083 0,-0.06 0.04875,-0.1084 0.108333,-0.1084 0.05958,0 0.108333,0.049 0.108333,0.1084 0,0.06 -0.04875,0.1083 -0.108333,0.1083 z m 0.649998,-0.2167 c -0.05958,0 -0.108333,-0.049 -0.108333,-0.1083 0,-0.06 0.04875,-0.1083 0.108333,-0.1083 0.05958,0 0.108333,0.049 0.108333,0.1083 0,0.06 -0.04875,0.1083 -0.108333,0.1083 z m 1.137498,-0.068 -0.487499,0.024 0.272183,-0.1048 0.272183,-0.1048 -0.120937,-0.1956 -0.120936,-0.1957 0.336253,0.129 c 0.184938,0.071 0.336252,0.1954 0.336252,0.2764 l 0,0.1474 -0.487499,0.024 z m -2.220829,-0.3651 c -0.05958,0 -0.108333,-0.049 -0.108333,-0.1083 0,-0.06 0.04875,-0.1084 0.108333,-0.1084 0.05958,0 0.108333,0.049 0.108333,0.1084 0,0.06 -0.04875,0.1083 -0.108333,0.1083 z m 3.276346,0 c -0.03761,0 -0.293218,-0.195 -0.568018,-0.4333 -0.2748,-0.2384 -0.598468,-0.4334 -0.719262,-0.4334 l -0.219625,0 0.116445,-0.1164 0.116446,-0.1165 0.557745,0.2542 0.557745,0.2541 0.113452,0.2956 c 0.0624,0.1627 0.08268,0.2957 0.04507,0.2957 z m -5.226342,-0.2167 c -0.059583,0 -0.1083331,-0.049 -0.1083331,-0.1083 0,-0.06 0.04875,-0.1083 0.1083331,-0.1083 0.059583,0 0.1083332,0.049 0.1083332,0.1083 0,0.06 -0.04875,0.1083 -0.1083332,0.1083 z m 3.358327,0 -0.288889,0 0.144444,-0.1444 0.144445,-0.1445 0.144444,0.1445 0.144444,0.1444 -0.288888,0 z m -2.0583295,-0.2166 c -0.059583,0 -0.1083332,-0.049 -0.1083332,-0.1084 0,-0.06 0.04875,-0.1083 0.1083332,-0.1083 0.059583,0 0.1083331,0.049 0.1083331,0.1083 0,0.06 -0.04875,0.1084 -0.1083331,0.1084 z m 1.4083305,-0.1084 c -0.119166,0.074 -0.216666,0.085 -0.216666,0.026 0,-0.06 0.0975,-0.1686 0.216666,-0.2422 0.119166,-0.074 0.216666,-0.085 0.216666,-0.026 0,0.06 -0.0975,0.1686 -0.216666,0.2422 z m -1.9499961,-0.1083 -0.2888883,0 0.144444,-0.1444 0.1444443,-0.1445 0.1444442,0.1445 0.144444,0.1444 -0.2888882,0 z m -0.9749981,-0.2167 c -0.059583,0 -0.1083331,-0.049 -0.1083331,-0.1083 0,-0.06 0.04875,-0.1083 0.1083331,-0.1083 0.059583,0 0.1083331,0.049 0.1083331,0.1083 0,0.06 -0.04875,0.1083 -0.1083331,0.1083 z m 0.4333325,-0.2166 c -0.059583,0 -0.1083331,-0.049 -0.1083331,-0.1084 0,-0.06 0.04875,-0.1083 0.1083331,-0.1083 0.059583,0 0.1083331,0.049 0.1083331,0.1083 0,0.06 -0.04875,0.1084 -0.1083331,0.1084 z m 3.2499937,0 c -0.05958,0 -0.108333,-0.049 -0.108333,-0.1084 0,-0.06 0.04875,-0.1083 0.108333,-0.1083 0.05958,0 0.108333,0.049 0.108333,0.1083 0,0.06 -0.04875,0.1084 -0.108333,0.1084 z m -2.8166612,-0.2167 c -0.059583,0 -0.1083332,-0.049 -0.1083332,-0.1083 0,-0.06 0.04875,-0.1084 0.1083332,-0.1084 0.059583,0 0.1083331,0.049 0.1083331,0.1084 0,0.06 -0.04875,0.1083 -0.1083331,0.1083 z m 0.4333324,-0.2167 c -0.059583,0 -0.1083331,-0.049 -0.1083331,-0.1083 0,-0.06 0.04875,-0.1083 0.1083331,-0.1083 0.059583,0 0.1083331,0.049 0.1083331,0.1083 0,0.06 -0.04875,0.1083 -0.1083331,0.1083 z m 1.5166638,0 c -0.05958,0 -0.108333,-0.049 -0.108333,-0.1083 0,-0.06 0.04875,-0.1083 0.108333,-0.1083 0.05958,0 0.108333,0.049 0.108333,0.1083 0,0.06 -0.04875,0.1083 -0.108333,0.1083 z m -0.9749982,-0.325 c -0.1191664,0.074 -0.2166662,0.085 -0.2166662,0.026 0,-0.06 0.0975,-0.1686 0.2166662,-0.2422 0.1191662,-0.074 0.2166662,-0.085 0.2166662,-0.026 0,0.06 -0.0975,0.1686 -0.2166662,0.2422 z m 0.5416652,0.1084 c -0.05958,0 -0.108333,-0.049 -0.108333,-0.1084 0,-0.06 0.04875,-0.1083 0.108333,-0.1083 0.05958,0 0.108334,0.049 0.108334,0.1083 0,0.06 -0.04875,0.1084 -0.108334,0.1084 z"
         id="path6718" />
    </g>
  </g>
</svg>
