<?xml version="1.0" encoding="UTF-8" standalone="no"?>
<!-- Created with Inkscape (http://www.inkscape.org/) -->

<svg
   xmlns:dc="http://purl.org/dc/elements/1.1/"
   xmlns:cc="http://creativecommons.org/ns#"
   xmlns:rdf="http://www.w3.org/1999/02/22-rdf-syntax-ns#"
   xmlns:svg="http://www.w3.org/2000/svg"
   xmlns="http://www.w3.org/2000/svg"
   xmlns:sodipodi="http://sodipodi.sourceforge.net/DTD/sodipodi-0.dtd"
   xmlns:inkscape="http://www.inkscape.org/namespaces/inkscape"
   width="16"
   height="16"
   id="svg2"
   version="1.1"
   inkscape:version="0.47 r22583"
   sodipodi:docname="BOOK1-32.svg">
  <defs
     id="defs4">
    <inkscape:perspective
       sodipodi:type="inkscape:persp3d"
       inkscape:vp_x="0 : 526.18109 : 1"
       inkscape:vp_y="0 : 1000 : 0"
       inkscape:vp_z="744.09448 : 526.18109 : 1"
       inkscape:persp3d-origin="372.04724 : 350.78739 : 1"
       id="perspective10" />
    <inkscape:perspective
       id="perspective2824"
       inkscape:persp3d-origin="0.5 : 0.33333333 : 1"
       inkscape:vp_z="1 : 0.5 : 1"
       inkscape:vp_y="0 : 1000 : 0"
       inkscape:vp_x="0 : 0.5 : 1"
       sodipodi:type="inkscape:persp3d" />
    <inkscape:perspective
       id="perspective5878"
       inkscape:persp3d-origin="0.5 : 0.33333333 : 1"
       inkscape:vp_z="1 : 0.5 : 1"
       inkscape:vp_y="0 : 1000 : 0"
       inkscape:vp_x="0 : 0.5 : 1"
       sodipodi:type="inkscape:persp3d" />
    <inkscape:perspective
       id="perspective5921"
       inkscape:persp3d-origin="0.5 : 0.33333333 : 1"
       inkscape:vp_z="1 : 0.5 : 1"
       inkscape:vp_y="0 : 1000 : 0"
       inkscape:vp_x="0 : 0.5 : 1"
       sodipodi:type="inkscape:persp3d" />
    <inkscape:perspective
       id="perspective5943"
       inkscape:persp3d-origin="0.5 : 0.33333333 : 1"
       inkscape:vp_z="1 : 0.5 : 1"
       inkscape:vp_y="0 : 1000 : 0"
       inkscape:vp_x="0 : 0.5 : 1"
       sodipodi:type="inkscape:persp3d" />
    <inkscape:perspective
       id="perspective5989"
       inkscape:persp3d-origin="0.5 : 0.33333333 : 1"
       inkscape:vp_z="1 : 0.5 : 1"
       inkscape:vp_y="0 : 1000 : 0"
       inkscape:vp_x="0 : 0.5 : 1"
       sodipodi:type="inkscape:persp3d" />
    <inkscape:perspective
       id="perspective6011"
       inkscape:persp3d-origin="0.5 : 0.33333333 : 1"
       inkscape:vp_z="1 : 0.5 : 1"
       inkscape:vp_y="0 : 1000 : 0"
       inkscape:vp_x="0 : 0.5 : 1"
       sodipodi:type="inkscape:persp3d" />
    <inkscape:perspective
       id="perspective6033"
       inkscape:persp3d-origin="0.5 : 0.33333333 : 1"
       inkscape:vp_z="1 : 0.5 : 1"
       inkscape:vp_y="0 : 1000 : 0"
       inkscape:vp_x="0 : 0.5 : 1"
       sodipodi:type="inkscape:persp3d" />
    <inkscape:perspective
       id="perspective6245"
       inkscape:persp3d-origin="0.5 : 0.33333333 : 1"
       inkscape:vp_z="1 : 0.5 : 1"
       inkscape:vp_y="0 : 1000 : 0"
       inkscape:vp_x="0 : 0.5 : 1"
       sodipodi:type="inkscape:persp3d" />
    <inkscape:perspective
       id="perspective6269"
       inkscape:persp3d-origin="0.5 : 0.33333333 : 1"
       inkscape:vp_z="1 : 0.5 : 1"
       inkscape:vp_y="0 : 1000 : 0"
       inkscape:vp_x="0 : 0.5 : 1"
       sodipodi:type="inkscape:persp3d" />
    <inkscape:perspective
       id="perspective6364"
       inkscape:persp3d-origin="0.5 : 0.33333333 : 1"
       inkscape:vp_z="1 : 0.5 : 1"
       inkscape:vp_y="0 : 1000 : 0"
       inkscape:vp_x="0 : 0.5 : 1"
       sodipodi:type="inkscape:persp3d" />
    <inkscape:perspective
       id="perspective6396"
       inkscape:persp3d-origin="0.5 : 0.33333333 : 1"
       inkscape:vp_z="1 : 0.5 : 1"
       inkscape:vp_y="0 : 1000 : 0"
       inkscape:vp_x="0 : 0.5 : 1"
       sodipodi:type="inkscape:persp3d" />
    <inkscape:perspective
       id="perspective6438"
       inkscape:persp3d-origin="0.5 : 0.33333333 : 1"
       inkscape:vp_z="1 : 0.5 : 1"
       inkscape:vp_y="0 : 1000 : 0"
       inkscape:vp_x="0 : 0.5 : 1"
       sodipodi:type="inkscape:persp3d" />
    <inkscape:perspective
       id="perspective6460"
       inkscape:persp3d-origin="0.5 : 0.33333333 : 1"
       inkscape:vp_z="1 : 0.5 : 1"
       inkscape:vp_y="0 : 1000 : 0"
       inkscape:vp_x="0 : 0.5 : 1"
       sodipodi:type="inkscape:persp3d" />
    <inkscape:perspective
       id="perspective6480"
       inkscape:persp3d-origin="0.5 : 0.33333333 : 1"
       inkscape:vp_z="1 : 0.5 : 1"
       inkscape:vp_y="0 : 1000 : 0"
       inkscape:vp_x="0 : 0.5 : 1"
       sodipodi:type="inkscape:persp3d" />
    <inkscape:perspective
       id="perspective6504"
       inkscape:persp3d-origin="0.5 : 0.33333333 : 1"
       inkscape:vp_z="1 : 0.5 : 1"
       inkscape:vp_y="0 : 1000 : 0"
       inkscape:vp_x="0 : 0.5 : 1"
       sodipodi:type="inkscape:persp3d" />
    <inkscape:perspective
       id="perspective6524"
       inkscape:persp3d-origin="0.5 : 0.33333333 : 1"
       inkscape:vp_z="1 : 0.5 : 1"
       inkscape:vp_y="0 : 1000 : 0"
       inkscape:vp_x="0 : 0.5 : 1"
       sodipodi:type="inkscape:persp3d" />
    <inkscape:perspective
       id="perspective6548"
       inkscape:persp3d-origin="0.5 : 0.33333333 : 1"
       inkscape:vp_z="1 : 0.5 : 1"
       inkscape:vp_y="0 : 1000 : 0"
       inkscape:vp_x="0 : 0.5 : 1"
       sodipodi:type="inkscape:persp3d" />
    <inkscape:perspective
       id="perspective6572"
       inkscape:persp3d-origin="0.5 : 0.33333333 : 1"
       inkscape:vp_z="1 : 0.5 : 1"
       inkscape:vp_y="0 : 1000 : 0"
       inkscape:vp_x="0 : 0.5 : 1"
       sodipodi:type="inkscape:persp3d" />
    <inkscape:perspective
       id="perspective6594"
       inkscape:persp3d-origin="0.5 : 0.33333333 : 1"
       inkscape:vp_z="1 : 0.5 : 1"
       inkscape:vp_y="0 : 1000 : 0"
       inkscape:vp_x="0 : 0.5 : 1"
       sodipodi:type="inkscape:persp3d" />
    <inkscape:perspective
       id="perspective6614"
       inkscape:persp3d-origin="0.5 : 0.33333333 : 1"
       inkscape:vp_z="1 : 0.5 : 1"
       inkscape:vp_y="0 : 1000 : 0"
       inkscape:vp_x="0 : 0.5 : 1"
       sodipodi:type="inkscape:persp3d" />
    <inkscape:perspective
       id="perspective6650"
       inkscape:persp3d-origin="0.5 : 0.33333333 : 1"
       inkscape:vp_z="1 : 0.5 : 1"
       inkscape:vp_y="0 : 1000 : 0"
       inkscape:vp_x="0 : 0.5 : 1"
       sodipodi:type="inkscape:persp3d" />
    <inkscape:perspective
       id="perspective6676"
       inkscape:persp3d-origin="0.5 : 0.33333333 : 1"
       inkscape:vp_z="1 : 0.5 : 1"
       inkscape:vp_y="0 : 1000 : 0"
       inkscape:vp_x="0 : 0.5 : 1"
       sodipodi:type="inkscape:persp3d" />
    <inkscape:perspective
       id="perspective6710"
       inkscape:persp3d-origin="0.5 : 0.33333333 : 1"
       inkscape:vp_z="1 : 0.5 : 1"
       inkscape:vp_y="0 : 1000 : 0"
       inkscape:vp_x="0 : 0.5 : 1"
       sodipodi:type="inkscape:persp3d" />
    <inkscape:perspective
       id="perspective6748"
       inkscape:persp3d-origin="0.5 : 0.33333333 : 1"
       inkscape:vp_z="1 : 0.5 : 1"
       inkscape:vp_y="0 : 1000 : 0"
       inkscape:vp_x="0 : 0.5 : 1"
       sodipodi:type="inkscape:persp3d" />
    <inkscape:perspective
       id="perspective6786"
       inkscape:persp3d-origin="0.5 : 0.33333333 : 1"
       inkscape:vp_z="1 : 0.5 : 1"
       inkscape:vp_y="0 : 1000 : 0"
       inkscape:vp_x="0 : 0.5 : 1"
       sodipodi:type="inkscape:persp3d" />
  </defs>
  <sodipodi:namedview
     id="base"
     pagecolor="#ffffff"
     bordercolor="#666666"
     borderopacity="1.0"
     inkscape:pageopacity="0.0"
     inkscape:pageshadow="2"
     inkscape:zoom="8.671875"
     inkscape:cx="10.564203"
     inkscape:cy="2.743179"
     inkscape:document-units="px"
     inkscape:current-layer="layer1"
     showgrid="true"
     inkscape:window-width="1280"
     inkscape:window-height="780"
     inkscape:window-x="-8"
     inkscape:window-y="-8"
     inkscape:window-maximized="1">
    <inkscape:grid
       type="xygrid"
       id="grid6324"
       empspacing="5"
       visible="true"
       enabled="true"
       snapvisiblegridlinesonly="true" />
  </sodipodi:namedview>
  <metadata
     id="metadata7">
    <rdf:RDF>
      <cc:Work
         rdf:about="">
        <dc:format>image/svg+xml</dc:format>
        <dc:type
           rdf:resource="http://purl.org/dc/dcmitype/StillImage" />
        <dc:title></dc:title>
      </cc:Work>
    </rdf:RDF>
  </metadata>
  <g
     inkscape:label="Calque 1"
     inkscape:groupmode="layer"
     id="layer1"
     transform="translate(0,-1036.3622)">
    <g
       id="g6792"
       transform="translate(-0.0667993,-0.0438)">
      <path
         style="fill:#bfbfbf"
         d="m 8.5271339,1049.536 -4.4499008,-0.01 -0.2557414,-0.2904 -0.2557414,-0.2905 0,-5.2258 0,-5.2257 4.0918627,0 4.091863,0 0,0.2046 0,0.2046 0.321503,0 0.321504,0 0.292276,0.2922 0.292276,0.2923 0,5.0271 0,5.0272 -4.4499011,-0.01 z"
         id="path6800" />
      <path
         style="fill:#7f7f7f"
         d="m 8.5271339,1049.536 -4.4499008,-0.01 -0.2557414,-0.2904 -0.2557414,-0.2905 0,-5.2258 0,-5.2257 4.0918627,0 4.091863,0 0,0.2046 0,0.2046 0.321503,0 0.321504,0 0.292276,0.2922 0.292276,0.2923 0,5.0271 0,5.0272 -4.4499011,-0.01 z m -0.4603346,-0.8106 4.0918627,0 0,-4.6179 0,-4.618 -0.292276,-0.2923 c -0.160752,-0.1607 -0.344885,-0.2922 -0.409186,-0.2922 l -0.11691,0 0,4.2964 0,4.2965 -3.682677,0 -3.6826765,0 0,0.6137 0,0.6138 4.0918628,0 z m -2.7473935,-5.3194 c 0.064301,0 0.2484344,-0.1315 0.4091863,-0.2923 l 0.2922758,-0.2923 0,-0.3215 0,-0.3215 -0.4091863,0 -0.4091862,0 0,0.6138 c 0,0.3376 0.05261,0.6138 0.1169104,0.6138 z m 1.3152415,0 0.2045932,0 0,-0.4092 0,-0.4092 -0.2045932,0 -0.2045931,0 0,0.4092 0,0.4092 0.2045931,0 z m 0.8183726,0 0.2045931,0 0,-0.4092 0,-0.4092 -0.2045931,0 -0.2045932,0 0,0.4092 0,0.4092 0.2045932,0 z m 0.8183725,0 0.2045932,0 0,-0.4092 0,-0.4092 -0.2045932,0 -0.2045931,0 0,0.4092 0,0.4092 0.2045931,0 z m 0.8183726,0 0.2045931,0 0,-0.4092 0,-0.4092 -0.2045931,0 -0.2045931,0 0,0.4092 0,0.4092 0.2045931,0 z m 0.8183725,0 0.2045935,0 0,-0.6138 0,-0.6138 -0.2045935,0 -0.2045931,0 0,0.6138 0,0.6138 0.2045931,0 z m -4.501049,-2.0459 0.6137794,0 0,-0.6138 0,-0.6138 -0.1875438,0 c -0.1031489,0 -0.2412492,0.1151 -0.3068897,0.2558 l -0.1193459,0.2557 -0.1193459,-0.2557 c -0.06564,-0.1407 -0.2037408,-0.2558 -0.3068897,-0.2558 l -0.1875438,0 0,0.6138 0,0.6138 0.6137794,0 z m 1.2275588,0 0.2045932,0 0,-0.4092 0,-0.4092 -0.2045932,0 -0.2045931,0 0,0.4092 0,0.4092 0.2045931,0 z m 0.8183726,0 0.2045931,0 0,-0.4092 0,-0.4092 -0.2045931,0 -0.2045932,0 0,0.4092 0,0.4092 0.2045932,0 z m 1.2275588,0 0.2045932,0 0,-0.4092 0,-0.4092 -0.2045932,0 -0.2045931,0 0,0.4092 0,0.4092 0.2045931,0 z m 1.0229657,0 0.4091866,0 0,-0.4092 0,-0.4092 -0.4091866,0 -0.4091863,0 0,0.4092 0,0.4092 0.4091863,0 z"
         id="path6798" />
      <path
         style="fill:#00007f"
         d="m 8.3225407,1049.1268 -4.2453076,-0.01 -0.2557414,-0.2904 -0.2557414,-0.2905 0,-5.0212 0,-5.0211 3.8872696,0 3.8872701,0 0,4.501 0,4.5011 -3.682677,0 -3.6826765,0 0,0.6137 0,0.6138 4.0918628,0 4.0918627,0 0,-4.9102 0,-4.9102 0.204593,0 0.204593,0 0,5.1148 0,5.1148 -4.2453073,-0.01 z m -3.0031349,-5.7208 c 0.064301,0 0.2484344,-0.1315 0.4091863,-0.2923 l 0.2922758,-0.2923 0,-0.3215 0,-0.3215 -0.4091863,0 -0.4091862,0 0,0.6138 c 0,0.3376 0.05261,0.6138 0.1169104,0.6138 z m 1.3152415,0 0.2045932,0 0,-0.4092 0,-0.4092 -0.2045932,0 -0.2045931,0 0,0.4092 0,0.4092 0.2045931,0 z m 0.8183726,0 0.2045931,0 0,-0.4092 0,-0.4092 -0.2045931,0 -0.2045932,0 0,0.4092 0,0.4092 0.2045932,0 z m 0.8183725,0 0.2045932,0 0,-0.4092 0,-0.4092 -0.2045932,0 -0.2045931,0 0,0.4092 0,0.4092 0.2045931,0 z m 0.8183726,0 0.2045931,0 0,-0.4092 0,-0.4092 -0.2045931,0 -0.2045931,0 0,0.4092 0,0.4092 0.2045931,0 z m 0.8183725,0 0.2045935,0 0,-0.6138 0,-0.6138 -0.2045935,0 -0.2045931,0 0,0.6138 0,0.6138 0.2045931,0 z m -4.501049,-2.0459 0.6137794,0 0,-0.6138 0,-0.6138 -0.1875438,0 c -0.1031489,0 -0.2412492,0.1151 -0.3068897,0.2558 l -0.1193459,0.2557 -0.1193459,-0.2557 c -0.06564,-0.1407 -0.2037408,-0.2558 -0.3068897,-0.2558 l -0.1875438,0 0,0.6138 0,0.6138 0.6137794,0 z m 1.2275588,0 0.2045932,0 0,-0.4092 0,-0.4092 -0.2045932,0 -0.2045931,0 0,0.4092 0,0.4092 0.2045931,0 z m 0.8183726,0 0.2045931,0 0,-0.4092 0,-0.4092 -0.2045931,0 -0.2045932,0 0,0.4092 0,0.4092 0.2045932,0 z m 1.2275588,0 0.2045932,0 0,-0.4092 0,-0.4092 -0.2045932,0 -0.2045931,0 0,0.4092 0,0.4092 0.2045931,0 z m 1.0229657,0 0.4091866,0 0,-0.4092 0,-0.4092 -0.4091866,0 -0.4091863,0 0,0.4092 0,0.4092 0.4091863,0 z"
         id="path6796" />
      <path
         style="fill:#000000"
         d="m 3.7703434,1048.7254 -0.2045931,0 0,-0.4092 0,-0.4092 0.2045931,0 0.2045931,0 0,0.4092 0,0.4092 -0.2045931,0 z m 3.6826765,-1.2275 -3.8872696,0 0,-4.5011 0,-4.501 3.8872696,0 3.8872701,0 0,4.501 0,4.5011 -3.8872701,0 z m 0,-0.4092 3.4780831,0 0,-4.0919 0,-4.0918 -3.4780831,0 -3.4780834,0 0,4.0918 0,4.0919 3.4780834,0 z"
         id="path6794" />
    </g>
  </g>
</svg>
