<?xml version="1.0" encoding="UTF-8" standalone="no"?>
<!-- Created with Inkscape (http://www.inkscape.org/) -->

<svg
   xmlns:dc="http://purl.org/dc/elements/1.1/"
   xmlns:cc="http://creativecommons.org/ns#"
   xmlns:rdf="http://www.w3.org/1999/02/22-rdf-syntax-ns#"
   xmlns:svg="http://www.w3.org/2000/svg"
   xmlns="http://www.w3.org/2000/svg"
   xmlns:sodipodi="http://sodipodi.sourceforge.net/DTD/sodipodi-0.dtd"
   xmlns:inkscape="http://www.inkscape.org/namespaces/inkscape"
   width="16"
   height="16"
   id="svg2"
   version="1.1"
   inkscape:version="0.47 r22583"
   sodipodi:docname="BUILDINGS.svg">
  <defs
     id="defs4">
    <inkscape:perspective
       sodipodi:type="inkscape:persp3d"
       inkscape:vp_x="0 : 526.18109 : 1"
       inkscape:vp_y="0 : 1000 : 0"
       inkscape:vp_z="744.09448 : 526.18109 : 1"
       inkscape:persp3d-origin="372.04724 : 350.78739 : 1"
       id="perspective10" />
    <inkscape:perspective
       id="perspective2824"
       inkscape:persp3d-origin="0.5 : 0.33333333 : 1"
       inkscape:vp_z="1 : 0.5 : 1"
       inkscape:vp_y="0 : 1000 : 0"
       inkscape:vp_x="0 : 0.5 : 1"
       sodipodi:type="inkscape:persp3d" />
    <inkscape:perspective
       id="perspective5878"
       inkscape:persp3d-origin="0.5 : 0.33333333 : 1"
       inkscape:vp_z="1 : 0.5 : 1"
       inkscape:vp_y="0 : 1000 : 0"
       inkscape:vp_x="0 : 0.5 : 1"
       sodipodi:type="inkscape:persp3d" />
    <inkscape:perspective
       id="perspective5921"
       inkscape:persp3d-origin="0.5 : 0.33333333 : 1"
       inkscape:vp_z="1 : 0.5 : 1"
       inkscape:vp_y="0 : 1000 : 0"
       inkscape:vp_x="0 : 0.5 : 1"
       sodipodi:type="inkscape:persp3d" />
    <inkscape:perspective
       id="perspective5943"
       inkscape:persp3d-origin="0.5 : 0.33333333 : 1"
       inkscape:vp_z="1 : 0.5 : 1"
       inkscape:vp_y="0 : 1000 : 0"
       inkscape:vp_x="0 : 0.5 : 1"
       sodipodi:type="inkscape:persp3d" />
    <inkscape:perspective
       id="perspective5989"
       inkscape:persp3d-origin="0.5 : 0.33333333 : 1"
       inkscape:vp_z="1 : 0.5 : 1"
       inkscape:vp_y="0 : 1000 : 0"
       inkscape:vp_x="0 : 0.5 : 1"
       sodipodi:type="inkscape:persp3d" />
    <inkscape:perspective
       id="perspective6011"
       inkscape:persp3d-origin="0.5 : 0.33333333 : 1"
       inkscape:vp_z="1 : 0.5 : 1"
       inkscape:vp_y="0 : 1000 : 0"
       inkscape:vp_x="0 : 0.5 : 1"
       sodipodi:type="inkscape:persp3d" />
    <inkscape:perspective
       id="perspective6033"
       inkscape:persp3d-origin="0.5 : 0.33333333 : 1"
       inkscape:vp_z="1 : 0.5 : 1"
       inkscape:vp_y="0 : 1000 : 0"
       inkscape:vp_x="0 : 0.5 : 1"
       sodipodi:type="inkscape:persp3d" />
    <inkscape:perspective
       id="perspective6245"
       inkscape:persp3d-origin="0.5 : 0.33333333 : 1"
       inkscape:vp_z="1 : 0.5 : 1"
       inkscape:vp_y="0 : 1000 : 0"
       inkscape:vp_x="0 : 0.5 : 1"
       sodipodi:type="inkscape:persp3d" />
    <inkscape:perspective
       id="perspective6269"
       inkscape:persp3d-origin="0.5 : 0.33333333 : 1"
       inkscape:vp_z="1 : 0.5 : 1"
       inkscape:vp_y="0 : 1000 : 0"
       inkscape:vp_x="0 : 0.5 : 1"
       sodipodi:type="inkscape:persp3d" />
    <inkscape:perspective
       id="perspective6364"
       inkscape:persp3d-origin="0.5 : 0.33333333 : 1"
       inkscape:vp_z="1 : 0.5 : 1"
       inkscape:vp_y="0 : 1000 : 0"
       inkscape:vp_x="0 : 0.5 : 1"
       sodipodi:type="inkscape:persp3d" />
    <inkscape:perspective
       id="perspective6396"
       inkscape:persp3d-origin="0.5 : 0.33333333 : 1"
       inkscape:vp_z="1 : 0.5 : 1"
       inkscape:vp_y="0 : 1000 : 0"
       inkscape:vp_x="0 : 0.5 : 1"
       sodipodi:type="inkscape:persp3d" />
    <inkscape:perspective
       id="perspective6438"
       inkscape:persp3d-origin="0.5 : 0.33333333 : 1"
       inkscape:vp_z="1 : 0.5 : 1"
       inkscape:vp_y="0 : 1000 : 0"
       inkscape:vp_x="0 : 0.5 : 1"
       sodipodi:type="inkscape:persp3d" />
    <inkscape:perspective
       id="perspective6460"
       inkscape:persp3d-origin="0.5 : 0.33333333 : 1"
       inkscape:vp_z="1 : 0.5 : 1"
       inkscape:vp_y="0 : 1000 : 0"
       inkscape:vp_x="0 : 0.5 : 1"
       sodipodi:type="inkscape:persp3d" />
    <inkscape:perspective
       id="perspective6480"
       inkscape:persp3d-origin="0.5 : 0.33333333 : 1"
       inkscape:vp_z="1 : 0.5 : 1"
       inkscape:vp_y="0 : 1000 : 0"
       inkscape:vp_x="0 : 0.5 : 1"
       sodipodi:type="inkscape:persp3d" />
    <inkscape:perspective
       id="perspective6504"
       inkscape:persp3d-origin="0.5 : 0.33333333 : 1"
       inkscape:vp_z="1 : 0.5 : 1"
       inkscape:vp_y="0 : 1000 : 0"
       inkscape:vp_x="0 : 0.5 : 1"
       sodipodi:type="inkscape:persp3d" />
    <inkscape:perspective
       id="perspective6524"
       inkscape:persp3d-origin="0.5 : 0.33333333 : 1"
       inkscape:vp_z="1 : 0.5 : 1"
       inkscape:vp_y="0 : 1000 : 0"
       inkscape:vp_x="0 : 0.5 : 1"
       sodipodi:type="inkscape:persp3d" />
    <inkscape:perspective
       id="perspective6548"
       inkscape:persp3d-origin="0.5 : 0.33333333 : 1"
       inkscape:vp_z="1 : 0.5 : 1"
       inkscape:vp_y="0 : 1000 : 0"
       inkscape:vp_x="0 : 0.5 : 1"
       sodipodi:type="inkscape:persp3d" />
    <inkscape:perspective
       id="perspective6572"
       inkscape:persp3d-origin="0.5 : 0.33333333 : 1"
       inkscape:vp_z="1 : 0.5 : 1"
       inkscape:vp_y="0 : 1000 : 0"
       inkscape:vp_x="0 : 0.5 : 1"
       sodipodi:type="inkscape:persp3d" />
    <inkscape:perspective
       id="perspective6594"
       inkscape:persp3d-origin="0.5 : 0.33333333 : 1"
       inkscape:vp_z="1 : 0.5 : 1"
       inkscape:vp_y="0 : 1000 : 0"
       inkscape:vp_x="0 : 0.5 : 1"
       sodipodi:type="inkscape:persp3d" />
    <inkscape:perspective
       id="perspective6614"
       inkscape:persp3d-origin="0.5 : 0.33333333 : 1"
       inkscape:vp_z="1 : 0.5 : 1"
       inkscape:vp_y="0 : 1000 : 0"
       inkscape:vp_x="0 : 0.5 : 1"
       sodipodi:type="inkscape:persp3d" />
    <inkscape:perspective
       id="perspective6650"
       inkscape:persp3d-origin="0.5 : 0.33333333 : 1"
       inkscape:vp_z="1 : 0.5 : 1"
       inkscape:vp_y="0 : 1000 : 0"
       inkscape:vp_x="0 : 0.5 : 1"
       sodipodi:type="inkscape:persp3d" />
    <inkscape:perspective
       id="perspective6676"
       inkscape:persp3d-origin="0.5 : 0.33333333 : 1"
       inkscape:vp_z="1 : 0.5 : 1"
       inkscape:vp_y="0 : 1000 : 0"
       inkscape:vp_x="0 : 0.5 : 1"
       sodipodi:type="inkscape:persp3d" />
    <inkscape:perspective
       id="perspective6710"
       inkscape:persp3d-origin="0.5 : 0.33333333 : 1"
       inkscape:vp_z="1 : 0.5 : 1"
       inkscape:vp_y="0 : 1000 : 0"
       inkscape:vp_x="0 : 0.5 : 1"
       sodipodi:type="inkscape:persp3d" />
    <inkscape:perspective
       id="perspective6748"
       inkscape:persp3d-origin="0.5 : 0.33333333 : 1"
       inkscape:vp_z="1 : 0.5 : 1"
       inkscape:vp_y="0 : 1000 : 0"
       inkscape:vp_x="0 : 0.5 : 1"
       sodipodi:type="inkscape:persp3d" />
    <inkscape:perspective
       id="perspective6786"
       inkscape:persp3d-origin="0.5 : 0.33333333 : 1"
       inkscape:vp_z="1 : 0.5 : 1"
       inkscape:vp_y="0 : 1000 : 0"
       inkscape:vp_x="0 : 0.5 : 1"
       sodipodi:type="inkscape:persp3d" />
    <inkscape:perspective
       id="perspective6810"
       inkscape:persp3d-origin="0.5 : 0.33333333 : 1"
       inkscape:vp_z="1 : 0.5 : 1"
       inkscape:vp_y="0 : 1000 : 0"
       inkscape:vp_x="0 : 0.5 : 1"
       sodipodi:type="inkscape:persp3d" />
  </defs>
  <sodipodi:namedview
     id="base"
     pagecolor="#ffffff"
     bordercolor="#666666"
     borderopacity="1.0"
     inkscape:pageopacity="0.0"
     inkscape:pageshadow="2"
     inkscape:zoom="8.671875"
     inkscape:cx="10.564203"
     inkscape:cy="2.743179"
     inkscape:document-units="px"
     inkscape:current-layer="layer1"
     showgrid="true"
     inkscape:window-width="1280"
     inkscape:window-height="780"
     inkscape:window-x="-8"
     inkscape:window-y="-8"
     inkscape:window-maximized="1">
    <inkscape:grid
       type="xygrid"
       id="grid6324"
       empspacing="5"
       visible="true"
       enabled="true"
       snapvisiblegridlinesonly="true" />
  </sodipodi:namedview>
  <metadata
     id="metadata7">
    <rdf:RDF>
      <cc:Work
         rdf:about="">
        <dc:format>image/svg+xml</dc:format>
        <dc:type
           rdf:resource="http://purl.org/dc/dcmitype/StillImage" />
        <dc:title></dc:title>
      </cc:Work>
    </rdf:RDF>
  </metadata>
  <g
     inkscape:label="Calque 1"
     inkscape:groupmode="layer"
     id="layer1"
     transform="translate(0,-1036.3622)">
    <g
       id="g6816"
       transform="translate(0.1076923,-0.6153)">
      <path
         style="fill:#d0caca"
         d="m 7.3047809,1051.4819 -1.4586271,-0.019 -1.6627772,-0.7891 c -0.9145276,-0.4339 -1.8595274,-0.9315 -2.1,-1.1058 l -0.4372228,-0.3167 0,-1.0942 0,-1.0941 0.9692308,-0.4709 0.9692308,-0.4709 0,-1.8964 0,-1.8964 1.1846154,-0.581 1.1846154,-0.581 0,-0.8662 0,-0.8662 1.1422018,-0.5602 1.1422018,-0.5602 1.5501059,0.7806 1.5501063,0.7806 0,1.1938 0,1.1938 1.184615,0.5239 1.184615,0.5239 0,2.1611 0,2.1612 0.538462,0.2454 c 0.296154,0.1349 0.538461,0.3101 0.538461,0.3893 0,0.079 -0.508846,0.3776 -1.130769,0.6632 -0.621923,0.2855 -1.179231,0.5806 -1.238461,0.6557 -0.05923,0.075 -0.905157,0.5366 -1.879835,1.0254 l -1.7721418,0.8887 -1.4586273,-0.019 z"
         id="path6838" />
      <path
         style="fill:#afaeae"
         d="m 7.3047809,1051.4819 -1.4586271,-0.019 -1.6627772,-0.7891 c -0.9145276,-0.4339 -1.8595274,-0.9315 -2.1,-1.1058 l -0.4372228,-0.3167 0,-1.0942 0,-1.0941 0.9692308,-0.4709 0.9692308,-0.4709 0,-1.8964 0,-1.8964 1.1846154,-0.581 1.1846154,-0.581 0,-0.8662 0,-0.8662 1.1422018,-0.5602 1.1422018,-0.5602 1.5501059,0.7806 1.5501063,0.7806 0,1.1938 0,1.1938 1.184615,0.5239 1.184615,0.5239 0,2.1611 0,2.1612 0.538462,0.2454 c 0.296154,0.1349 0.538461,0.3101 0.538461,0.3893 0,0.079 -0.508846,0.3776 -1.130769,0.6632 -0.621923,0.2855 -1.179231,0.5806 -1.238461,0.6557 -0.05923,0.075 -0.905157,0.5366 -1.879835,1.0254 l -1.7721418,0.8887 -1.4586273,-0.019 z m -1.3509347,-6.0121 0.2153846,0 0,-0.9263 0,-0.9263 -0.9749926,-0.4737 c -0.536246,-0.2605 -1.0208614,-0.4737 -1.076923,-0.4737 -0.056062,0 -0.1019306,0.382 -0.1019306,0.8489 l 0,0.8488 0.2153846,0.1331 0.2153846,0.1331 0,-0.3358 0,-0.3358 0.2153847,0 0.2153846,0 0,0.4308 0,0.4308 0.2153846,0 c 0.1184615,0 0.2153846,-0.097 0.2153846,-0.2154 0,-0.1185 0.096923,-0.2154 0.2153846,-0.2154 l 0.2153846,0 0,0.5385 0,0.5384 0.2153847,0 z m 0.8615384,0 0.2153846,0 0,-0.5384 0,-0.5385 0.2153846,0 c 0.1184616,0 0.2153847,0.097 0.2153847,0.2154 0,0.1185 0.096923,0.2154 0.2153846,0.2154 l 0.2153846,0 0,-0.4308 0,-0.4308 0.3230769,0 0.3230769,0 0,0.2154 c 0,0.1185 0.096923,0.2154 0.2153847,0.2154 l 0.2153846,0 0,-0.8615 c 0,-0.4739 -0.054725,-0.8616 -0.1216103,-0.8616 -0.066885,0 -0.5999624,0.2058 -1.1846154,0.4573 L 6.6,1043.5844 l 0,0.9427 0,0.9427 0.2153846,0 z m -0.4246193,-2.003 c 0.062613,-0.024 0.6718093,-0.2805 1.3537692,-0.5705 l 1.2399268,-0.5274 -1.3115103,-0.5954 -1.3115104,-0.5953 -1.1783924,0.5779 -1.1783925,0.578 1.1361338,0.5879 c 0.6248734,0.3233 1.1873626,0.5685 1.2499758,0.5448 z"
         id="path6836" />
      <path
         style="fill:#d4d950"
         d="m 7.3047809,1051.4819 -1.4586271,-0.019 -1.6627772,-0.7891 c -0.9145276,-0.4339 -1.8595274,-0.9315 -2.1,-1.1058 l -0.4372228,-0.3167 0,-1.0942 0,-1.0941 0.9692308,-0.4709 0.9692308,-0.4709 0,-1.8964 0,-1.8964 1.1846154,-0.581 1.1846154,-0.581 0,-0.8662 0,-0.8662 1.1422018,-0.5602 1.1422018,-0.5602 1.5501059,0.7806 1.5501063,0.7806 0,1.1938 0,1.1938 1.184615,0.5239 1.184615,0.5239 0,2.1611 0,2.1612 0.538462,0.2454 c 0.296154,0.1349 0.538461,0.3101 0.538461,0.3893 0,0.079 -0.508846,0.3776 -1.130769,0.6632 -0.621923,0.2855 -1.179231,0.5806 -1.238461,0.6557 -0.05923,0.075 -0.905157,0.5366 -1.879835,1.0254 l -1.7721418,0.8887 -1.4586273,-0.019 z m -1.2970886,-3.4408 0.1615385,0.013 0,-2.2186 0,-2.2186 -0.9749926,-0.4737 c -0.536246,-0.2605 -1.0208614,-0.4737 -1.076923,-0.4737 -0.056062,0 -0.1019306,0.9986 -0.1019306,2.2191 l 0,2.2191 0.9153846,0.4599 c 0.5034616,0.2529 0.988077,0.4658 1.0769231,0.4732 z m -0.4846154,-0.6328 -0.2153846,0 0,-0.3231 0,-0.3231 0.2153846,0 0.2153846,0 0,0.3231 0,0.3231 -0.2153846,0 z m -0.8615384,-0.4308 -0.2153847,0 0,-0.3231 0,-0.323 0.2153847,0 0.2153846,0 0,0.323 0,0.3231 -0.2153846,0 z m 0.8615384,-0.6461 -0.2153846,0 0,-0.3231 0,-0.3231 0.2153846,0 0.2153846,0 0,0.3231 0,0.3231 -0.2153846,0 z m -0.8615384,-0.4308 -0.2153847,0 0,-0.3231 0,-0.3231 0.2153847,0 0.2153846,0 0,0.3231 0,0.3231 -0.2153846,0 z m 0.8615384,-0.6462 -0.2153846,0 0,-0.4307 0,-0.4308 0.2153846,0 0.2153846,0 0,0.4308 0,0.4307 -0.2153846,0 z m -0.8615384,-0.6461 -0.2153847,0 0,-0.3231 0,-0.3231 0.2153847,0 0.2153846,0 0,0.3231 0,0.3231 -0.2153846,0 z m 2.1010084,3.4102 c 0.089401,-0.039 0.6224777,-0.2545 1.1846154,-0.4779 l 1.0220685,-0.4062 0,-2.2323 0,-2.2323 -0.1216103,0 c -0.066885,0 -0.5999624,0.2058 -1.1846154,0.4573 L 6.6,1043.5844 l 0,2.253 0,2.2529 0.1625469,-0.072 z m 0.4836069,-0.6102 -0.2153846,0 0,-0.3231 0,-0.3231 0.2153846,0 0.2153847,0 0,0.3231 0,0.3231 -0.2153847,0 z m 0.9692308,-0.4308 -0.3230769,0 0,-0.3231 0,-0.323 0.3230769,0 0.3230769,0 0,0.323 0,0.3231 -0.3230769,0 z m -0.9692308,-0.6461 -0.2153846,0 0,-0.3231 0,-0.3231 0.2153846,0 0.2153847,0 0,0.3231 0,0.3231 -0.2153847,0 z m 0.9692308,-0.4308 -0.3230769,0 0,-0.3231 0,-0.3231 0.3230769,0 0.3230769,0 0,0.3231 0,0.3231 -0.3230769,0 z m -0.9692308,-0.6462 -0.2153846,0 0,-0.4307 0,-0.4308 0.2153846,0 0.2153847,0 0,0.4308 0,0.4307 -0.2153847,0 z m 0.9692308,-0.6461 -0.3230769,0 0,-0.3231 0,-0.3231 0.3230769,0 0.3230769,0 0,0.3231 0,0.3231 -0.3230769,0 z m 2.9046694,0.1026 0.756869,-0.075 0.861539,-0.4524 0.861538,-0.4525 -0.538462,0.1427 c -0.296153,0.078 -0.814007,0.2829 -1.150784,0.4543 -0.336778,0.1714 -0.656647,0.2673 -0.710821,0.2132 -0.05417,-0.054 0.442876,-0.3229 1.104554,-0.5972 l 1.203051,-0.4986 -1.318241,-0.5984 -1.318241,-0.5984 -0.849569,0.4334 -0.8495685,0.4334 0.074448,0.556 0.074448,0.5559 0.5211854,0.2789 0.5211851,0.2789 0.756868,-0.075 z m -0.535439,-0.1179 c -0.118461,0 -0.457692,-0.1385 -0.7538458,-0.3078 -0.2961538,-0.1693 -0.4415384,-0.3078 -0.3230769,-0.3078 0.1184615,0 0.4576923,0.1385 0.7538457,0.3078 0.296154,0.1693 0.441539,0.3078 0.323077,0.3078 z m -4.1938497,-1.1262 c 0.062613,-0.024 0.6718093,-0.2805 1.3537692,-0.5705 l 1.2399268,-0.5274 -1.3115103,-0.5954 -1.3115104,-0.5953 -1.1783924,0.5779 -1.1783925,0.578 1.1361338,0.5879 c 0.6248734,0.3233 1.1873626,0.5685 1.2499758,0.5448 z"
         id="path6834" />
      <path
         style="fill:#86aec7"
         d="m 7.3047809,1051.4819 -1.4586271,-0.019 -1.6627772,-0.7891 c -0.9145276,-0.4339 -1.8595274,-0.9315 -2.1,-1.1058 l -0.4372228,-0.3167 0,-1.0942 0,-1.0941 0.9692308,-0.4709 0.9692308,-0.4709 0,-1.8964 0,-1.8964 1.1846154,-0.581 1.1846154,-0.581 0,-0.8662 0,-0.8662 1.1422018,-0.5602 1.1422018,-0.5602 1.5501059,0.7806 1.5501063,0.7806 0,1.1938 0,1.1938 1.184615,0.5239 1.184615,0.5239 0,2.1611 0,2.1612 0.538462,0.2454 c 0.296154,0.1349 0.538461,0.3101 0.538461,0.3893 0,0.079 -0.508846,0.3776 -1.130769,0.6632 -0.621923,0.2855 -1.179231,0.5806 -1.238461,0.6557 -0.05923,0.075 -0.905157,0.5366 -1.879835,1.0254 l -1.7721418,0.8887 -1.4586273,-0.019 z m -1.781704,-1.7044 0.2153846,0 0,-0.4307 0,-0.4308 -0.2153846,0 -0.2153846,0 0,0.4308 0,0.4307 0.2153846,0 z m 1.7230769,0 0.2153847,0 0,-0.4307 0,-0.4308 -0.2153847,0 -0.2153846,0 0,0.4308 0,0.4307 0.2153846,0 z m -2.5846153,-0.6461 0.2153846,0 0,-0.3231 0,-0.3231 -0.2153846,0 -0.2153847,0 0,0.3231 0,0.3231 0.2153847,0 z m 3.5538461,0 0.3230769,0 0,-0.3231 0,-0.3231 -0.3230769,0 -0.3230769,0 0,0.3231 0,0.3231 0.3230769,0 z m -2.7846153,-0.6462 c 0.067692,0 0.2615383,-0.1384 0.4307693,-0.3077 l 0.3076922,-0.3077 0,-2.1263 0,-2.1263 -0.9749926,-0.4737 c -0.536246,-0.2605 -1.0208614,-0.4737 -1.076923,-0.4737 -0.056062,0 -0.1019306,1.0177 -0.1019306,2.2616 l 0,2.2615 0.2153846,0 0.2153846,0 0,0.4308 0,0.4307 0.2153847,0 c 0.1184615,0 0.2153846,-0.097 0.2153846,-0.2153 0,-0.1185 0.096923,-0.2154 0.2153846,-0.2154 l 0.2153846,0 0,0.4307 c 0,0.237 0.055385,0.4308 0.123077,0.4308 z M 7.3,1048.477 l 0.1615385,0.01 0,-0.4308 0,-0.4307 0.2153846,0 c 0.1184615,0 0.2153846,0.097 0.2153846,0.2154 l 0,0.2153 0.3230769,0 0.3230769,0 0,-0.4307 0,-0.4308 0.2153847,0 0.2153846,0 0,-2.2615 0,-2.2616 -0.1216103,0 c -0.066885,0 -0.5999624,0.2058 -1.1846154,0.4573 L 6.6,1043.5844 l 0,2.1364 0,2.1364 0.2692308,0.3058 c 0.1480769,0.1682 0.341923,0.3095 0.4307692,0.314 z m 3.820054,-3.7661 0.756869,-0.075 0.861539,-0.4524 0.861538,-0.4525 -0.538462,0.1427 c -0.296153,0.078 -0.814007,0.2829 -1.150784,0.4543 -0.336778,0.1714 -0.656647,0.2673 -0.710821,0.2132 -0.05417,-0.054 0.442876,-0.3229 1.104554,-0.5972 l 1.203051,-0.4986 -1.318241,-0.5984 -1.318241,-0.5984 -0.849569,0.4334 -0.8495685,0.4334 0.074448,0.556 0.074448,0.5559 0.5211854,0.2789 0.5211851,0.2789 0.756868,-0.075 z m -0.535439,-0.1179 c -0.118461,0 -0.457692,-0.1385 -0.7538458,-0.3078 -0.2961538,-0.1693 -0.4415384,-0.3078 -0.3230769,-0.3078 0.1184615,0 0.4576923,0.1385 0.7538457,0.3078 0.296154,0.1693 0.441539,0.3078 0.323077,0.3078 z m -4.1938497,-1.1262 c 0.062613,-0.024 0.6718093,-0.2805 1.3537692,-0.5705 l 1.2399268,-0.5274 -1.3115103,-0.5954 -1.3115104,-0.5953 -1.1783924,0.5779 -1.1783925,0.578 1.1361338,0.5879 c 0.6248734,0.3233 1.1873626,0.5685 1.2499758,0.5448 z m 3.6553887,-1.0124 0.215384,0 0,-0.323 0,-0.3231 -0.215384,0 -0.2153848,0 0,0.3231 0,0.323 0.2153848,0 z m 0.861538,-0.4307 0.215385,0 0,-0.3231 0,-0.3231 -0.215385,0 -0.215384,0 0,0.3231 0,0.3231 0.215384,0 z m -0.861538,-0.4308 c 0.118461,0 0.215384,-0.097 0.215384,-0.2154 0,-0.1184 -0.09692,-0.2154 -0.215384,-0.2154 -0.1184617,0 -0.2153848,0.097 -0.2153848,0.2154 0,0.1185 0.096923,0.2154 0.2153848,0.2154 z m 0.861538,-0.4308 c 0.118462,0 0.215385,-0.097 0.215385,-0.2153 0,-0.1185 -0.09692,-0.2154 -0.215385,-0.2154 -0.118461,0 -0.215384,0.097 -0.215384,0.2154 0,0.1184 0.09692,0.2153 0.215384,0.2153 z"
         id="path6832" />
      <path
         style="fill:#7ea3b8"
         d="m 7.3047809,1051.4819 -1.4586271,-0.019 -1.6627772,-0.7891 c -0.9145276,-0.4339 -1.8595274,-0.9315 -2.1,-1.1058 l -0.4372228,-0.3167 0,-1.0942 0,-1.0941 0.9692308,-0.4709 0.9692308,-0.4709 0,-1.8964 0,-1.8964 1.1846154,-0.581 1.1846154,-0.581 0,-0.8662 0,-0.8662 1.1422018,-0.5602 1.1422018,-0.5602 1.5501059,0.7806 1.5501063,0.7806 0,1.1938 0,1.1938 1.184615,0.5239 1.184615,0.5239 0,2.1611 0,2.1612 0.538462,0.2454 c 0.296154,0.1349 0.538461,0.3101 0.538461,0.3893 0,0.079 -0.508846,0.3776 -1.130769,0.6632 -0.621923,0.2855 -1.179231,0.5806 -1.238461,0.6557 -0.05923,0.075 -0.905157,0.5366 -1.879835,1.0254 l -1.7721418,0.8887 -1.4586273,-0.019 z m -1.781704,-1.7044 0.2153846,0 0,-0.4307 0,-0.4308 -0.2153846,0 -0.2153846,0 0,0.4308 0,0.4307 0.2153846,0 z m 1.7230769,0 0.2153847,0 0,-0.4307 0,-0.4308 -0.2153847,0 -0.2153846,0 0,0.4308 0,0.4307 0.2153846,0 z m -2.5846153,-0.6461 0.2153846,0 0,-0.3231 0,-0.3231 -0.2153846,0 -0.2153847,0 0,0.3231 0,0.3231 0.2153847,0 z m 3.5538461,0 0.3230769,0 0,-0.3231 0,-0.3231 -0.3230769,0 -0.3230769,0 0,0.3231 0,0.3231 0.3230769,0 z m -2.7846153,-0.6462 c 0.067692,0 0.2615383,-0.1384 0.4307693,-0.3077 l 0.3076922,-0.3077 0,-2.1263 0,-2.1263 -0.9749926,-0.4737 c -0.536246,-0.2605 -1.0208614,-0.4737 -1.076923,-0.4737 -0.056062,0 -0.1019306,1.0177 -0.1019306,2.2616 l 0,2.2615 0.2153846,0 0.2153846,0 0,0.4308 0,0.4307 0.2153847,0 c 0.1184615,0 0.2153846,-0.097 0.2153846,-0.2153 0,-0.1185 0.096923,-0.2154 0.2153846,-0.2154 l 0.2153846,0 0,0.4307 c 0,0.237 0.055385,0.4308 0.123077,0.4308 z M 7.3,1048.477 l 0.1615385,0.01 0,-0.4308 0,-0.4307 0.2153846,0 c 0.1184615,0 0.2153846,0.097 0.2153846,0.2154 l 0,0.2153 0.3230769,0 0.3230769,0 0,-0.4307 0,-0.4308 0.2153847,0 0.2153846,0 0,-2.2615 0,-2.2616 -0.1216103,0 c -0.066885,0 -0.5999624,0.2058 -1.1846154,0.4573 L 6.6,1043.5844 l 0,2.1364 0,2.1364 0.2692308,0.3058 c 0.1480769,0.1682 0.341923,0.3095 0.4307692,0.314 z m 2.915716,-0.6082 c 0.04988,-0.1496 0.03214,-0.3306 -0.03943,-0.4022 l -0.130128,-0.1301 -0.1292602,0.1293 -0.1292599,0.1292 0.1686936,0.273 0.1686935,0.2729 0.0907,-0.2721 z m 1.553515,0.078 c 0.118461,-0.073 0.215384,-0.2244 0.215384,-0.3358 0,-0.1115 -0.09692,-0.2027 -0.215384,-0.2027 l -0.215385,0 0,0.3358 0,0.3358 0.215385,-0.1331 z m -2.4374834,-0.4981 0.1131241,-0.2827 -0.130128,-0.1301 -0.1301283,-0.1302 0.017004,0.4128 0.017004,0.4129 0.1131241,-0.2827 z m 3.4067144,0.038 c 0.177692,-0.068 0.323076,-0.2105 0.323076,-0.3163 l 0,-0.1924 -0.323076,0 -0.323077,0 0,0.3163 0,0.3164 0.323077,-0.124 z m -2.692308,-0.401 c 0.118461,-0.073 0.215384,-0.2243 0.215384,-0.3358 0,-0.1114 -0.09692,-0.2026 -0.215384,-0.2026 l -0.2153848,0 0,0.3357 0,0.3358 0.2153848,-0.1331 z m 1.723077,0.1077 0.215384,0 0,-0.3231 0,-0.323 -0.215384,0 -0.215385,0 0,0.323 0,0.3231 0.215385,0 z m -2.4374834,-0.6058 0.1131241,-0.2827 -0.130128,-0.1301 -0.1301283,-0.1301 0.017004,0.4128 0.017004,0.4128 0.1131241,-0.2827 z m 3.4067144,0.175 0.323076,0 0,-0.323 0,-0.3231 -0.323076,0 -0.323077,0 0,0.3231 0,0.323 0.323077,0 z m -2.692308,-0.4307 0.215384,0 0,-0.3231 0,-0.3231 -0.215384,0 -0.2153848,0 0,0.3231 0,0.3231 0.2153848,0 z m 1.723077,0 0.215384,0 0,-0.3231 0,-0.3231 -0.215384,0 -0.215385,0 0,0.3231 0,0.3231 0.215385,0 z m -2.4374834,-0.6058 0.1131241,-0.2827 -0.130128,-0.1301 -0.1301283,-0.1301 0.017004,0.4128 0.017004,0.4128 0.1131241,-0.2827 z m 3.4067144,0.175 0.323076,0 0,-0.3231 0,-0.3231 -0.323076,0 -0.323077,0 0,0.3231 0,0.3231 0.323077,0 z m -2.692308,-0.4308 0.215384,0 0,-0.323 0,-0.3231 0.269231,0 0.269231,0 -0.323077,-0.2088 c -0.177692,-0.1148 -0.395769,-0.2103 -0.4846153,-0.2121 l -0.1615385,0 0,0.5385 0,0.5384 0.2153848,0 z m 1.723077,0 0.215384,0 0,-0.418 0,-0.4181 0.215385,-0.1331 0.215385,-0.1331 0,0.2281 0,0.2281 0.323077,0 0.323076,0 0,-0.4308 0,-0.4308 -0.26923,0.01 c -0.148077,0 -0.608462,0.1947 -1.023077,0.4217 l -0.753846,0.4127 0.26923,0.01 0.269231,0.01 0,0.3231 0,0.323 0.215385,0 z m -2.2615387,-0.999 c 0.1776923,-0.068 0.3230769,-0.1517 0.3230769,-0.1856 0,-0.034 -0.1453846,-0.1174 -0.3230769,-0.1856 l -0.3230769,-0.1239 0,0.3095 0,0.3096 0.3230769,-0.124 z m 1.3547347,0.128 c 0.03433,0.01 0.45177,-0.1891 0.927633,-0.4319 l 0.865208,-0.4414 0.472366,0.1324 0.472366,0.1325 -0.323077,-0.2262 -0.323077,-0.2262 0.323077,-0.013 0.323077,-0.013 -1.364472,-0.6313 -1.364472,-0.6313 -0.84322,0.4302 -0.8432206,0.4302 0,0.3135 0,0.3136 0.8076923,0.4264 c 0.4442303,0.2345 0.8357843,0.4306 0.8701193,0.4359 z m -4.4716617,-1.132 c 0.062613,-0.024 0.6718093,-0.2805 1.3537692,-0.5705 l 1.2399268,-0.5274 -1.3115103,-0.5954 -1.3115104,-0.5953 -1.1783924,0.5779 -1.1783925,0.578 1.1361338,0.5879 c 0.6248734,0.3233 1.1873626,0.5685 1.2499758,0.5448 z m 3.6553887,-1.0124 0.215384,0 0,-0.323 0,-0.3231 -0.215384,0 -0.2153848,0 0,0.3231 0,0.323 0.2153848,0 z m 0.861538,-0.4307 0.215385,0 0,-0.3231 0,-0.3231 -0.215385,0 -0.215384,0 0,0.3231 0,0.3231 0.215384,0 z m -0.861538,-0.4308 c 0.118461,0 0.215384,-0.097 0.215384,-0.2154 0,-0.1184 -0.09692,-0.2154 -0.215384,-0.2154 -0.1184617,0 -0.2153848,0.097 -0.2153848,0.2154 0,0.1185 0.096923,0.2154 0.2153848,0.2154 z m 0.861538,-0.4308 c 0.118462,0 0.215385,-0.097 0.215385,-0.2153 0,-0.1185 -0.09692,-0.2154 -0.215385,-0.2154 -0.118461,0 -0.215384,0.097 -0.215384,0.2154 0,0.1184 0.09692,0.2153 0.215384,0.2153 z"
         id="path6830" />
      <path
         style="fill:#959291"
         d="m 7.3047809,1051.4819 -1.4586271,-0.019 -1.6627772,-0.7891 c -0.9145276,-0.4339 -1.8595274,-0.9315 -2.1,-1.1058 l -0.4372228,-0.3167 0,-1.0942 0,-1.0941 0.9692308,-0.4709 0.9692308,-0.4709 0,-1.8964 0,-1.8964 1.1846154,-0.581 1.1846154,-0.581 0,-0.8662 0,-0.8662 1.1422018,-0.5602 1.1422018,-0.5602 1.5501059,0.7806 1.5501063,0.7806 0,1.1938 0,1.1938 1.184615,0.5239 1.184615,0.5239 0,2.1611 0,2.1612 0.538462,0.2454 c 0.296154,0.1349 0.538461,0.3101 0.538461,0.3893 0,0.079 -0.508846,0.3776 -1.130769,0.6632 -0.621923,0.2855 -1.179231,0.5806 -1.238461,0.6557 -0.05923,0.075 -0.905157,0.5366 -1.879835,1.0254 l -1.7721418,0.8887 -1.4586273,-0.019 z m -1.781704,-1.7044 0.2153846,0 0,-0.4307 0,-0.4308 -0.2153846,0 -0.2153846,0 0,0.4308 0,0.4307 0.2153846,0 z m 1.7230769,0 0.2153847,0 0,-0.4307 0,-0.4308 -0.2153847,0 -0.2153846,0 0,0.4308 0,0.4307 0.2153846,0 z m -2.5846153,-0.6461 0.2153846,0 0,-0.3231 0,-0.3231 -0.2153846,0 -0.2153847,0 0,0.3231 0,0.3231 0.2153847,0 z m 3.5538461,0 0.3230769,0 0,-0.3231 0,-0.3231 -0.3230769,0 -0.3230769,0 0,0.3231 0,0.3231 0.3230769,0 z m -2.7846153,-0.6462 c 0.067692,0 0.2615383,-0.1384 0.4307693,-0.3077 l 0.3076922,-0.3077 0,-2.1263 0,-2.1263 -0.9749926,-0.4737 c -0.536246,-0.2605 -1.0208614,-0.4737 -1.076923,-0.4737 -0.056062,0 -0.1019306,1.0177 -0.1019306,2.2616 l 0,2.2615 0.2153846,0 0.2153846,0 0,0.4308 0,0.4307 0.2153847,0 c 0.1184615,0 0.2153846,-0.097 0.2153846,-0.2153 0,-0.1185 0.096923,-0.2154 0.2153846,-0.2154 l 0.2153846,0 0,0.4307 c 0,0.237 0.055385,0.4308 0.123077,0.4308 z M 7.3,1048.477 l 0.1615385,0.01 0,-0.4308 0,-0.4307 0.2153846,0 c 0.1184615,0 0.2153846,0.097 0.2153846,0.2154 l 0,0.2153 0.3230769,0 0.3230769,0 0,-0.4307 0,-0.4308 0.2153847,0 0.2153846,0 0,-2.2615 0,-2.2616 -0.1216103,0 c -0.066885,0 -0.5999624,0.2058 -1.1846154,0.4573 L 6.6,1043.5844 l 0,2.1364 0,2.1364 0.2692308,0.3058 c 0.1480769,0.1682 0.341923,0.3095 0.4307692,0.314 z m 2.746154,-0.4226 0.215384,0 0,-0.323 0,-0.3231 -0.215384,0 -0.2153848,0 0,0.3231 0,0.323 0.2153848,0 z m 1.723077,0 0.215384,0 0,-0.323 0,-0.3231 -0.215384,0 -0.215385,0 0,0.3231 0,0.323 0.215385,0 z m -2.4374834,-0.6057 0.1131241,-0.2827 -0.130128,-0.1301 -0.1301283,-0.1302 0.017004,0.4128 0.017004,0.4129 0.1131241,-0.2827 z m 3.4067144,0.175 0.323076,0 0,-0.3231 0,-0.3231 -0.323076,0 -0.323077,0 0,0.3231 0,0.3231 0.323077,0 z m -2.692308,-0.4308 0.215384,0 0,-0.3231 0,-0.323 -0.215384,0 -0.2153848,0 0,0.323 0,0.3231 0.2153848,0 z m 1.723077,0 0.215384,0 0,-0.3231 0,-0.323 -0.215384,0 -0.215385,0 0,0.323 0,0.3231 0.215385,0 z m -2.4374834,-0.6058 0.1131241,-0.2827 -0.130128,-0.1301 -0.1301283,-0.1301 0.017004,0.4128 0.017004,0.4128 0.1131241,-0.2827 z m 3.4067144,0.175 0.323076,0 0,-0.323 0,-0.3231 -0.323076,0 -0.323077,0 0,0.3231 0,0.323 0.323077,0 z m -2.692308,-0.4307 0.215384,0 0,-0.3231 0,-0.3231 -0.215384,0 -0.2153848,0 0,0.3231 0,0.3231 0.2153848,0 z m 1.723077,0 0.215384,0 0,-0.3231 0,-0.3231 -0.215384,0 -0.215385,0 0,0.3231 0,0.3231 0.215385,0 z m -2.4374834,-0.6058 0.1131241,-0.2827 -0.130128,-0.1301 -0.1301283,-0.1301 0.017004,0.4128 0.017004,0.4128 0.1131241,-0.2827 z m 3.4067144,0.175 0.323076,0 0,-0.3231 0,-0.3231 -0.323076,0 -0.323077,0 0,0.3231 0,0.3231 0.323077,0 z m -2.692308,-0.4308 0.215384,0 0,-0.323 0,-0.3231 0.269231,0 0.269231,0 -0.323077,-0.2088 c -0.177692,-0.1148 -0.395769,-0.2103 -0.4846153,-0.2121 l -0.1615385,0 0,0.5385 0,0.5384 0.2153848,0 z m 1.723077,0 0.215384,0 0,-0.418 0,-0.4181 0.215385,-0.1331 0.215385,-0.1331 0,0.2281 0,0.2281 0.323077,0 0.323076,0 0,-0.4308 0,-0.4308 -0.26923,0.01 c -0.148077,0 -0.608462,0.1947 -1.023077,0.4217 l -0.753846,0.4127 0.26923,0.01 0.269231,0.01 0,0.3231 0,0.323 0.215385,0 z m -2.4172734,-0.7538 c 0.08841,-0.1185 0.236491,-0.2761 0.3290681,-0.3503 l 0.1683217,-0.135 -0.332366,-0.1275 -0.332366,-0.1275 0.0033,0.4778 0.0033,0.4779 0.1607458,-0.2154 z m 1.5104694,-0.1172 c 0.03433,0.01 0.45177,-0.1891 0.927633,-0.4319 l 0.865208,-0.4414 0.472366,0.1324 0.472366,0.1325 -0.323077,-0.2262 -0.323077,-0.2262 0.323077,-0.013 0.323077,-0.013 -1.364472,-0.6313 -1.364472,-0.6313 -0.84322,0.4302 -0.8432206,0.4302 0,0.3135 0,0.3136 0.8076923,0.4264 c 0.4442303,0.2345 0.8357843,0.4306 0.8701193,0.4359 z m -4.4716617,-1.132 c 0.062613,-0.024 0.6718093,-0.2805 1.3537692,-0.5705 l 1.2399268,-0.5274 -1.3115103,-0.5954 -1.3115104,-0.5953 -1.1783924,0.5779 -1.1783925,0.578 1.1361338,0.5879 c 0.6248734,0.3233 1.1873626,0.5685 1.2499758,0.5448 z m 3.6553887,-1.0124 0.215384,0 0,-0.323 0,-0.3231 -0.215384,0 -0.2153848,0 0,0.3231 0,0.323 0.2153848,0 z m 0.861538,-0.4307 0.215385,0 0,-0.3231 0,-0.3231 -0.215385,0 -0.215384,0 0,0.3231 0,0.3231 0.215384,0 z m -0.861538,-0.4308 c 0.118461,0 0.215384,-0.097 0.215384,-0.2154 0,-0.1184 -0.09692,-0.2154 -0.215384,-0.2154 -0.1184617,0 -0.2153848,0.097 -0.2153848,0.2154 0,0.1185 0.096923,0.2154 0.2153848,0.2154 z m 0.861538,-0.4308 c 0.118462,0 0.215385,-0.097 0.215385,-0.2153 0,-0.1185 -0.09692,-0.2154 -0.215385,-0.2154 -0.118461,0 -0.215384,0.097 -0.215384,0.2154 0,0.1184 0.09692,0.2153 0.215384,0.2153 z"
         id="path6828" />
      <path
         style="fill:#6cc06b"
         d="m 7.3047809,1051.4819 -1.4586271,-0.019 -1.6627772,-0.7891 c -0.9145276,-0.4339 -1.8595274,-0.9315 -2.1,-1.1058 l -0.4372228,-0.3167 0,-1.0942 0,-1.0941 0.9692308,-0.4709 0.9692308,-0.4709 0,1.7817 0,1.7818 1.3878538,0.6843 1.3878538,0.6844 1.4121462,-0.6403 1.4121462,-0.6403 0,-0.6484 0,-0.6483 0.8429776,0.43 0.842977,0.4301 1.418561,-0.6432 1.418561,-0.6432 0,-0.2087 0,-0.2086 0.538462,0.2454 c 0.296154,0.1349 0.538461,0.3101 0.538461,0.3893 0,0.079 -0.508846,0.3776 -1.130769,0.6632 -0.621923,0.2855 -1.179231,0.5806 -1.238461,0.6557 -0.05923,0.075 -0.905157,0.5366 -1.879835,1.0254 l -1.7721418,0.8887 -1.4586273,-0.019 z m -1.2970886,-0.8562 c -0.088846,-0.01 -0.5734615,-0.2203 -1.0769231,-0.4732 l -0.9153846,-0.4598 0,-0.6038 0,-0.6037 0.2153846,0 0.2153846,0 0,0.3376 0,0.3376 0.4307693,-0.1367 0.4307692,-0.1367 0,0.4452 0,0.4453 0.2153846,0 c 0.1184616,0 0.2153846,-0.097 0.2153846,-0.2154 0,-0.1184 0.096923,-0.2153 0.2153847,-0.2153 l 0.2153846,0 0,0.6461 0,0.6462 -0.1615385,-0.013 z m 0.7548546,-0.023 -0.1625469,0.072 0,-0.6641 0,-0.6641 0.2153846,0 c 0.1184616,0 0.2153846,0.097 0.2153846,0.2153 0,0.1185 0.096923,0.2154 0.2153846,0.2154 l 0.2153847,0 0,-0.4348 0,-0.4349 L 8,1049.0429 l 0.5384615,0.1352 0,-0.3465 0,-0.3464 0.2153847,0 0.2153846,0 0,0.6169 0,0.6169 -1.0220685,0.4062 c -0.5621377,0.2234 -1.0952146,0.4385 -1.1846154,0.478 z m 3.7682221,-1.6948 c -0.08885,0 -0.403846,-0.1418 -0.6999998,-0.3058 l -0.5384615,-0.2982 0,-1.2017 0,-1.2017 0.2692308,-2e-4 0.2692307,-2e-4 0,0.2154 0,0.2154 0.4307688,0 0.43077,0 0,1.2923 0,1.2923 -0.161539,-0.01 z m -0.484615,-0.854 0.215384,0 0,-0.323 0,-0.3231 -0.215384,0 -0.2153848,0 0,0.3231 0,0.323 0.2153848,0 z m 0,-0.8615 0.215384,0 0,-0.3231 0,-0.323 -0.215384,0 -0.2153848,0 0,0.323 0,0.3231 0.2153848,0 z m 1.23947,1.6872 -0.162547,0.072 0,-1.3103 0,-1.3102 0.430769,0 0.430769,0 0,-0.2154 0,-0.2154 0.538462,0 0.538461,0 0,-0.2154 c 0,-0.1184 0.09692,-0.2154 0.215385,-0.2154 l 0.215385,0 0,1.2631 0,1.263 -1.022069,0.4062 c -0.562137,0.2234 -1.095214,0.4385 -1.184615,0.478 z m 0.483607,-0.8257 0.215384,0 0,-0.323 0,-0.3231 -0.215384,0 -0.215385,0 0,0.3231 0,0.323 0.215385,0 z m 0.969231,-0.4307 0.323076,0 0,-0.3231 0,-0.3231 -0.323076,0 -0.323077,0 0,0.3231 0,0.3231 0.323077,0 z m -0.969231,-0.4308 0.215384,0 0,-0.3231 0,-0.323 -0.215384,0 -0.215385,0 0,0.323 0,0.3231 0.215385,0 z m 0.969231,-0.4308 0.323076,0 0,-0.323 0,-0.3231 -0.323076,0 -0.323077,0 0,0.3231 0,0.323 0.323077,0 z m -3.2307697,-4.0144 -0.3230769,0.124 0,-0.3142 0,-0.3141 -1.4244707,-0.6459 -1.4244707,-0.6459 -0.1909139,0.118 -0.1909139,0.118 0,-0.8766 0,-0.8766 1.1422018,-0.5602 1.1422018,-0.5602 1.5501059,0.7806 1.5501063,0.7806 -0.02933,1.2358 -0.02933,1.2358 -0.09334,-0.4847 -0.09334,-0.4846 -0.200404,0 -0.200404,0 0,0.4308 0,0.4308 -0.215385,0 c -0.118461,0 -0.215385,-0.097 -0.215385,-0.2154 0,-0.1185 -0.09692,-0.2154 -0.215384,-0.2154 l -0.2153848,0 0,0.4077 0,0.4077 -0.3230769,0.124 z m 0.5384617,-1.1548 c 0.118461,0 0.215384,-0.097 0.215384,-0.2154 0,-0.1184 -0.09692,-0.2154 -0.215384,-0.2154 -0.1184617,0 -0.2153848,0.097 -0.2153848,0.2154 0,0.1185 0.096923,0.2154 0.2153848,0.2154 z m 0.861538,-0.4308 c 0.118462,0 0.215385,-0.097 0.215385,-0.2153 0,-0.1185 -0.09692,-0.2154 -0.215385,-0.2154 -0.118461,0 -0.215384,0.097 -0.215384,0.2154 0,0.1184 0.09692,0.2153 0.215384,0.2153 z"
         id="path6826" />
      <path
         style="fill:#60b060"
         d="m 6.2230769,1051.4819 c -0.2073077,-0.01 -1.1251729,-0.3737 -2.0397003,-0.8077 -0.9145276,-0.4339 -1.8595274,-0.9315 -2.1,-1.1058 l -0.4372228,-0.3167 0,-1.0942 0,-1.0941 0.9692308,-0.4709 0.9692308,-0.4709 0,1.7863 0,1.7864 1.5076923,0.7294 1.5076923,0.7294 0,0.1737 0,0.1738 -0.3769231,-0.019 z m 2.3740117,0.01 c -0.091476,-0.01 0.318296,-0.2608 0.9106037,-0.5672 0.5923077,-0.3064 1.1253847,-0.6318 1.1846157,-0.7232 0.05923,-0.091 0.180384,-0.1754 0.26923,-0.1867 0.08885,-0.011 0.261872,-0.021 0.384502,-0.021 l 0.222962,0 -0.234844,-0.4846 -0.234845,-0.4846 0.304857,0.3769 c 0.167672,0.2073 0.366865,0.3769 0.442652,0.3769 0.07579,0 0.137793,-0.1615 0.137793,-0.359 l 0,-0.3589 0.126003,0.126 0.126003,0.126 0.6486,-0.2261 0.648601,-0.2261 -0.289988,-0.2012 -0.289988,-0.2012 0.484616,0.1363 0.484615,0.1363 0,-0.2426 0,-0.2426 0.196989,0.1218 0.196988,0.1217 0.08665,-0.26 0.08666,-0.2599 0.139337,0.2254 0.139338,0.2255 -1.122981,0.5155 c -0.61764,0.2835 -1.171443,0.577 -1.230673,0.6521 -0.05923,0.075 -0.905157,0.5366 -1.879835,1.0254 -0.9746779,0.4888 -1.8469856,0.8842 -1.9384614,0.8787 z m -1.2432424,-0.2054 c -0.059231,0 -0.1076924,-0.048 -0.1076924,-0.1077 0,-0.059 0.048462,-0.1077 0.1076924,-0.1077 0.059231,0 0.1076923,0.049 0.1076923,0.1077 0,0.059 -0.048462,0.1077 -0.1076923,0.1077 z m 0.6820513,-0.072 -0.1435898,0.1436 0,-0.2872 0,-0.2871 0.1435898,0.1435 0.1435896,0.1436 -0.1435896,0.1436 z m -0.4666667,-0.359 c -0.059231,0 -0.1076923,-0.048 -0.1076923,-0.1076 0,-0.059 0.048462,-0.1077 0.1076923,-0.1077 0.059231,0 0.1076923,0.048 0.1076923,0.1077 0,0.059 -0.048462,0.1076 -0.1076923,0.1076 z m -1.5615385,-0.2287 c -0.088846,-0.01 -0.5734615,-0.2203 -1.0769231,-0.4732 l -0.9153846,-0.4598 0,-0.6038 0,-0.6037 0.2153846,0 0.2153846,0 0,0.3376 0,0.3376 0.4307693,-0.1367 0.4307692,-0.1367 0,0.4452 0,0.4453 0.2153846,0 c 0.1184616,0 0.2153846,-0.097 0.2153846,-0.2154 0,-0.1184 0.096923,-0.2153 0.2153847,-0.2153 l 0.2153846,0 0,0.6461 0,0.6462 -0.1615385,-0.013 z m 0.6726207,0.013 C 6.636141,1050.6398 6.6,1050.349 6.6,1049.9936 l 0,-0.6461 0.2153846,0 c 0.1184616,0 0.2153846,0.097 0.2153846,0.2153 0,0.1185 0.096923,0.2154 0.2153846,0.2154 l 0.2153847,0 0,-0.4348 0,-0.4349 L 8,1049.0429 l 0.5384615,0.1352 0,-0.3465 0,-0.3464 0.1918203,0 0.1918202,0 0.086244,0.7388 0.086243,0.7387 -0.1678886,-0.1038 -0.1678889,-0.1037 -0.9990928,0.4419 c -0.5495008,0.2431 -1.0352334,0.442 -1.0794056,0.442 z m 2.3966101,0 c -0.059231,0 -0.1076923,-0.049 -0.1076923,-0.1077 0,-0.059 0.048462,-0.1077 0.1076923,-0.1077 0.059231,0 0.1076923,0.048 0.1076923,0.1077 0,0.059 -0.048462,0.1077 -0.1076923,0.1077 z m 0.5639331,-0.3389 -0.1494724,0.092 -0.043279,-0.5229 c -0.023804,-0.2876 -0.00721,-0.5229 0.03688,-0.5229 0.044087,0 0.1308257,0.1937 0.1927518,0.4305 l 0.1125925,0.4306 -0.1494724,0.092 z m 0.7283748,-0.3073 c -0.05923,0 -0.107693,-0.048 -0.107693,-0.1077 0,-0.059 0.04846,-0.1077 0.107693,-0.1077 0.05923,0 0.107692,0.049 0.107692,0.1077 0,0.059 -0.04846,0.1077 -0.107692,0.1077 z m -0.4307695,-0.6461 c -0.059231,0 -0.1076923,-0.049 -0.1076923,-0.1077 0,-0.059 0.048462,-0.1077 0.1076923,-0.1077 0.059231,0 0.1076925,0.048 0.1076925,0.1077 0,0.059 -0.048462,0.1077 -0.1076925,0.1077 z m -0.6102563,-0.2872 -0.1435898,0.1436 0,-0.2872 0,-0.2872 0.1435898,0.1436 0.1435896,0.1436 -0.1435896,0.1436 z m 1.2025638,-0.1512 c -0.08885,0 -0.403846,-0.1418 -0.6999998,-0.3058 l -0.5384615,-0.2982 0,-1.2017 0,-1.2017 0.2692308,-2e-4 0.2692307,-2e-4 0,0.2154 0,0.2154 0.4307688,0 0.43077,0 0,1.2923 0,1.2923 -0.161539,-0.01 z m -0.484615,-0.854 0.215384,0 0,-0.323 0,-0.3231 -0.215384,0 -0.2153848,0 0,0.3231 0,0.323 0.2153848,0 z m 0,-0.8615 0.215384,0 0,-0.3231 0,-0.323 -0.215384,0 -0.2153848,0 0,0.323 0,0.3231 0.2153848,0 z m 1.157236,1.7231 c -0.04417,0 -0.08031,-0.5816 -0.08031,-1.2923 l 0,-1.2923 0.430769,0 0.430769,0 0,-0.2154 0,-0.2154 0.538462,0 0.538461,0 0,-0.2154 c 0,-0.1184 0.08865,-0.2154 0.197007,-0.2154 l 0.197006,0 0.07222,1.3801 0.07222,1.3802 -0.159056,-0.099 -0.159056,-0.099 -0.999092,0.4419 c -0.549501,0.2431 -1.035234,0.442 -1.079406,0.442 z m 0.565841,-0.8616 0.215384,0 0,-0.323 0,-0.3231 -0.215384,0 -0.215385,0 0,0.3231 0,0.323 0.215385,0 z m 0.969231,-0.4307 0.323076,0 0,-0.3231 0,-0.3231 -0.323076,0 -0.323077,0 0,0.3231 0,0.3231 0.323077,0 z m -0.969231,-0.4308 0.215384,0 0,-0.3231 0,-0.323 -0.215384,0 -0.215385,0 0,0.323 0,0.3231 0.215385,0 z m 0.969231,-0.4308 0.323076,0 0,-0.323 0,-0.3231 -0.323076,0 -0.323077,0 0,0.3231 0,0.323 0.323077,0 z m -0.215385,2.1539 c -0.05923,0 -0.107692,-0.048 -0.107692,-0.1077 0,-0.059 0.04846,-0.1077 0.107692,-0.1077 0.05923,0 0.107692,0.049 0.107692,0.1077 0,0.059 -0.04846,0.1077 -0.107692,0.1077 z m 1.507692,-0.8616 c -0.05923,0 -0.107692,-0.048 -0.107692,-0.1076 0,-0.059 0.04846,-0.1077 0.107692,-0.1077 0.05923,0 0.107693,0.048 0.107693,0.1077 0,0.059 -0.04846,0.1076 -0.107693,0.1076 z m -4.5033261,-5.3143 -0.3033264,0.1164 -0.1315464,-0.5241 -0.1315463,-0.5241 -0.5343581,0 -0.534358,0 0,-0.2154 0,-0.2154 -0.4307692,0 -0.4307693,0 0,-0.2405 0,-0.2405 -0.5384615,0.103 -0.5384615,0.1029 0,-0.834 0,-0.834 1.1422018,-0.5602 1.1422018,-0.5602 1.5501059,0.7806 1.5501063,0.7806 -0.02933,1.2358 -0.02933,1.2358 -0.09334,-0.4847 -0.09334,-0.4846 -0.200404,0 -0.200404,0 0,0.4308 0,0.4308 -0.215385,0 c -0.118461,0 -0.215385,-0.097 -0.215385,-0.2154 0,-0.1185 -0.09692,-0.2154 -0.215384,-0.2154 l -0.2153848,0 0,0.4077 0,0.4077 -0.3033263,0.1164 z m 0.5187111,-1.1472 c 0.118461,0 0.215384,-0.097 0.215384,-0.2154 0,-0.1184 -0.09692,-0.2154 -0.215384,-0.2154 -0.1184617,0 -0.2153848,0.097 -0.2153848,0.2154 0,0.1185 0.096923,0.2154 0.2153848,0.2154 z m 0.861538,-0.4308 c 0.118462,0 0.215385,-0.097 0.215385,-0.2153 0,-0.1185 -0.09692,-0.2154 -0.215385,-0.2154 -0.118461,0 -0.215384,0.097 -0.215384,0.2154 0,0.1184 0.09692,0.2153 0.215384,0.2153 z"
         id="path6824" />
      <path
         style="fill:#757574"
         d="m 6.0076923,1050.6257 c -0.088846,-0.01 -0.5734615,-0.2203 -1.0769231,-0.4732 l -0.9153846,-0.4598 0,-0.6038 0,-0.6037 0.2153846,0 0.2153846,0 0,0.3376 0,0.3376 0.4307693,-0.1367 0.4307692,-0.1367 0,0.4452 0,0.4453 0.2153846,0 c 0.1184616,0 0.2153846,-0.097 0.2153846,-0.2154 0,-0.1184 0.096923,-0.2153 0.2153847,-0.2153 l 0.2153846,0 0,0.6461 0,0.6462 -0.1615385,-0.013 z m 0.7548546,-0.023 -0.1625469,0.072 0,-0.6641 0,-0.6641 0.2153846,0 c 0.1184616,0 0.2153846,0.097 0.2153846,0.2153 0,0.1185 0.096923,0.2154 0.2153846,0.2154 l 0.2153847,0 0,-0.4348 0,-0.4349 L 8,1049.0429 l 0.5384615,0.1352 0,-0.3465 0,-0.3464 0.2153847,0 0.2153846,0 0,0.6169 0,0.6169 -1.0220685,0.4062 c -0.5621377,0.2234 -1.0952146,0.4385 -1.1846154,0.478 z m 3.7682221,-1.6948 c -0.08885,0 -0.403846,-0.1418 -0.6999998,-0.3058 l -0.5384615,-0.2982 0,-1.2017 0,-1.2017 0.2692308,-2e-4 0.2692307,-2e-4 0,0.2154 0,0.2154 0.4307688,0 0.43077,0 0,1.2923 0,1.2923 -0.161539,-0.01 z m -0.484615,-0.854 0.215384,0 0,-0.323 0,-0.3231 -0.215384,0 -0.2153848,0 0,0.3231 0,0.323 0.2153848,0 z m 0,-0.8615 0.215384,0 0,-0.3231 0,-0.323 -0.215384,0 -0.2153848,0 0,0.323 0,0.3231 0.2153848,0 z m 1.23947,1.6872 -0.162547,0.072 0,-1.3103 0,-1.3102 0.430769,0 0.430769,0 0,-0.2154 0,-0.2154 0.538462,0 0.538461,0 0,-0.2154 c 0,-0.1184 0.09692,-0.2154 0.215385,-0.2154 l 0.215385,0 0,1.2631 0,1.263 -1.022069,0.4062 c -0.562137,0.2234 -1.095214,0.4385 -1.184615,0.478 z m 0.483607,-0.8257 0.215384,0 0,-0.323 0,-0.3231 -0.215384,0 -0.215385,0 0,0.3231 0,0.323 0.215385,0 z m 0.969231,-0.4307 0.323076,0 0,-0.3231 0,-0.3231 -0.323076,0 -0.323077,0 0,0.3231 0,0.3231 0.323077,0 z m -0.969231,-0.4308 0.215384,0 0,-0.3231 0,-0.323 -0.215384,0 -0.215385,0 0,0.323 0,0.3231 0.215385,0 z m 0.969231,-0.4308 0.323076,0 0,-0.323 0,-0.3231 -0.323076,0 -0.323077,0 0,0.3231 0,0.323 0.323077,0 z m -3.2228483,-4.0174 -0.3151557,0.1209 -0.1426021,-0.7601 -0.1426022,-0.7602 -0.231473,0.2315 c -0.1273102,0.1273 -0.357473,0.2315 -0.511473,0.2315 l -0.28,0 0,-0.4308 0,-0.4307 -0.2153846,0 c -0.1184616,0 -0.2153846,0.097 -0.2153846,0.2153 0,0.1185 -0.096923,0.2154 -0.2153847,0.2154 l -0.2153846,0 0,-0.5384 0,-0.5385 -0.2153846,0 -0.2153846,0 0,0.3 0,0.3001 -0.3230769,0.1239 -0.3230769,0.124 0,-0.8571 0,-0.8571 1.1422018,-0.5602 1.1422018,-0.5602 1.5501059,0.7806 1.5501063,0.7806 -0.02933,1.2358 -0.02933,1.2358 -0.09334,-0.4847 -0.09334,-0.4846 -0.200404,0 -0.200404,0 0,0.4308 0,0.4308 -0.215385,0 c -0.118461,0 -0.215385,-0.097 -0.215385,-0.2154 0,-0.1185 -0.09692,-0.2154 -0.215384,-0.2154 l -0.2153848,0 0,0.4077 0,0.4077 -0.3151555,0.121 z m 0.5305403,-1.1518 c 0.118461,0 0.215384,-0.097 0.215384,-0.2154 0,-0.1184 -0.09692,-0.2154 -0.215384,-0.2154 -0.1184617,0 -0.2153848,0.097 -0.2153848,0.2154 0,0.1185 0.096923,0.2154 0.2153848,0.2154 z m 0.861538,-0.4308 c 0.118462,0 0.215385,-0.097 0.215385,-0.2153 0,-0.1185 -0.09692,-0.2154 -0.215385,-0.2154 -0.118461,0 -0.215384,0.097 -0.215384,0.2154 0,0.1184 0.09692,0.2153 0.215384,0.2153 z"
         id="path6822" />
      <path
         style="fill:#555755"
         d="m 10.530769,1048.9074 c -0.08885,0 -0.428077,-0.1533 -0.7538459,-0.33 l -0.5923077,-0.3213 0.017005,-0.3701 0.017005,-0.37 0.108637,0.2692 0.108637,0.2692 0.3205128,0 c 0.1762819,0 0.4589748,0.1385 0.6282058,0.3077 0.16923,0.1693 0.307692,0.3631 0.307692,0.4308 0,0.068 -0.07269,0.1192 -0.161539,0.1145 z m 0.754855,-0.027 -0.162547,0.072 0,-0.2188 0,-0.2189 0.430769,-0.1367 0.430769,-0.1367 0,-0.2136 0,-0.2136 0.196989,0.1218 0.196989,0.1217 0.07224,-0.197 c 0.03973,-0.1083 0.256033,-0.2301 0.480666,-0.2705 l 0.408425,-0.074 0.08346,0.2372 0.08346,0.2372 -1.029338,0.4089 c -0.566136,0.225 -1.102484,0.4413 -1.191885,0.4808 z m -1.7700103,-6.1354 -0.3151557,0.1209 -0.1395839,-0.744 -0.1395841,-0.7441 -0.1914142,0 c -0.1052779,0 -0.1914143,0.097 -0.1914143,0.2154 l 0,0.2154 -0.3230769,0 -0.3230769,0 0,-0.4308 0,-0.4307 -0.2153846,0 c -0.1184616,0 -0.2153846,0.097 -0.2153846,0.2153 0,0.1185 -0.096923,0.2154 -0.2153847,0.2154 l -0.2153846,0 0,-0.5384 0,-0.5385 -0.2153846,0 -0.2153846,0 0,0.3 0,0.3001 -0.3230769,0.1239 -0.3230769,0.124 0,-0.8571 0,-0.8571 1.1422018,-0.5602 1.1422018,-0.5602 1.5501059,0.7806 1.5501063,0.7806 -0.02933,1.2358 -0.02933,1.2358 -0.09334,-0.4847 -0.09334,-0.4846 -0.200404,0 -0.200404,0 0,0.4308 0,0.4308 -0.215385,0 c -0.118461,0 -0.215385,-0.097 -0.215385,-0.2154 0,-0.1185 -0.09692,-0.2154 -0.215384,-0.2154 l -0.2153848,0 0,0.4077 0,0.4077 -0.3151555,0.121 z m 0.5305403,-1.1518 c 0.118461,0 0.215384,-0.097 0.215384,-0.2154 0,-0.1184 -0.09692,-0.2154 -0.215384,-0.2154 -0.1184617,0 -0.2153848,0.097 -0.2153848,0.2154 0,0.1185 0.096923,0.2154 0.2153848,0.2154 z m 0.861538,-0.4308 c 0.118462,0 0.215385,-0.097 0.215385,-0.2153 0,-0.1185 -0.09692,-0.2154 -0.215385,-0.2154 -0.118461,0 -0.215384,0.097 -0.215384,0.2154 0,0.1184 0.09692,0.2153 0.215384,0.2153 z"
         id="path6820" />
      <path
         style="fill:#0e0e0e"
         d="m 9.3472633,1042.099 -0.07541,0.8939 -0.1775532,-0.9073 -0.177553,-0.9074 -0.7276043,-0.2401 c -0.4001825,-0.1321 -0.7276043,-0.314 -0.7276043,-0.4042 0,-0.09 -0.2468683,-0.2766 -0.5485961,-0.4141 -0.3017278,-0.1375 -0.5863562,-0.25 -0.6325075,-0.25 -0.046151,0 -0.1230025,0.315 -0.1707804,0.7 l -0.086869,0.7 -0.03447,-0.9177 -0.03447,-0.9177 1.1422018,-0.5602 1.1422018,-0.5602 1.5501059,0.7806 1.550106,0.7806 -0.03882,1.2358 -0.03882,1.2358 -0.08067,-1.0231 -0.08067,-1.0231 -0.203584,0 c -0.111971,0 -0.203583,0.085 -0.203583,0.1893 l 0,0.1892 -0.634817,0.263 -0.6348172,0.2629 -0.07541,0.894 z m -0.2266286,-0.9514 c 0.024041,0.01 0.2905799,-0.098 0.5923077,-0.2354 0.3017276,-0.1375 0.5485956,-0.3248 0.5485956,-0.4163 0,-0.091 0.213846,-0.2341 0.475212,-0.3171 l 0.475211,-0.1508 -1.4792458,-0.7458 -1.4792463,-0.7457 -1.0547042,0.494 -1.0547042,0.494 0.8202774,0.4177 c 0.4511526,0.2297 0.868739,0.4797 0.9279698,0.5555 0.059231,0.076 0.35,0.2498 0.6461538,0.3866 0.2961539,0.1368 0.5581318,0.2552 0.5821732,0.2633 z"
         id="path6818" />
    </g>
  </g>
</svg>
