<?xml version="1.0" encoding="UTF-8" standalone="no"?>
<!-- Created with Inkscape (http://www.inkscape.org/) -->

<svg
   xmlns:dc="http://purl.org/dc/elements/1.1/"
   xmlns:cc="http://creativecommons.org/ns#"
   xmlns:rdf="http://www.w3.org/1999/02/22-rdf-syntax-ns#"
   xmlns:svg="http://www.w3.org/2000/svg"
   xmlns="http://www.w3.org/2000/svg"
   xmlns:sodipodi="http://sodipodi.sourceforge.net/DTD/sodipodi-0.dtd"
   xmlns:inkscape="http://www.inkscape.org/namespaces/inkscape"
   width="16"
   height="16"
   id="svg2"
   version="1.1"
   inkscape:version="0.47 r22583"
   sodipodi:docname="CAMP1-32.svg">
  <defs
     id="defs4">
    <inkscape:perspective
       sodipodi:type="inkscape:persp3d"
       inkscape:vp_x="0 : 526.18109 : 1"
       inkscape:vp_y="0 : 1000 : 0"
       inkscape:vp_z="744.09448 : 526.18109 : 1"
       inkscape:persp3d-origin="372.04724 : 350.78739 : 1"
       id="perspective10" />
    <inkscape:perspective
       id="perspective2824"
       inkscape:persp3d-origin="0.5 : 0.33333333 : 1"
       inkscape:vp_z="1 : 0.5 : 1"
       inkscape:vp_y="0 : 1000 : 0"
       inkscape:vp_x="0 : 0.5 : 1"
       sodipodi:type="inkscape:persp3d" />
    <inkscape:perspective
       id="perspective5878"
       inkscape:persp3d-origin="0.5 : 0.33333333 : 1"
       inkscape:vp_z="1 : 0.5 : 1"
       inkscape:vp_y="0 : 1000 : 0"
       inkscape:vp_x="0 : 0.5 : 1"
       sodipodi:type="inkscape:persp3d" />
    <inkscape:perspective
       id="perspective5921"
       inkscape:persp3d-origin="0.5 : 0.33333333 : 1"
       inkscape:vp_z="1 : 0.5 : 1"
       inkscape:vp_y="0 : 1000 : 0"
       inkscape:vp_x="0 : 0.5 : 1"
       sodipodi:type="inkscape:persp3d" />
    <inkscape:perspective
       id="perspective5943"
       inkscape:persp3d-origin="0.5 : 0.33333333 : 1"
       inkscape:vp_z="1 : 0.5 : 1"
       inkscape:vp_y="0 : 1000 : 0"
       inkscape:vp_x="0 : 0.5 : 1"
       sodipodi:type="inkscape:persp3d" />
    <inkscape:perspective
       id="perspective5989"
       inkscape:persp3d-origin="0.5 : 0.33333333 : 1"
       inkscape:vp_z="1 : 0.5 : 1"
       inkscape:vp_y="0 : 1000 : 0"
       inkscape:vp_x="0 : 0.5 : 1"
       sodipodi:type="inkscape:persp3d" />
    <inkscape:perspective
       id="perspective6011"
       inkscape:persp3d-origin="0.5 : 0.33333333 : 1"
       inkscape:vp_z="1 : 0.5 : 1"
       inkscape:vp_y="0 : 1000 : 0"
       inkscape:vp_x="0 : 0.5 : 1"
       sodipodi:type="inkscape:persp3d" />
    <inkscape:perspective
       id="perspective6033"
       inkscape:persp3d-origin="0.5 : 0.33333333 : 1"
       inkscape:vp_z="1 : 0.5 : 1"
       inkscape:vp_y="0 : 1000 : 0"
       inkscape:vp_x="0 : 0.5 : 1"
       sodipodi:type="inkscape:persp3d" />
    <inkscape:perspective
       id="perspective6245"
       inkscape:persp3d-origin="0.5 : 0.33333333 : 1"
       inkscape:vp_z="1 : 0.5 : 1"
       inkscape:vp_y="0 : 1000 : 0"
       inkscape:vp_x="0 : 0.5 : 1"
       sodipodi:type="inkscape:persp3d" />
    <inkscape:perspective
       id="perspective6269"
       inkscape:persp3d-origin="0.5 : 0.33333333 : 1"
       inkscape:vp_z="1 : 0.5 : 1"
       inkscape:vp_y="0 : 1000 : 0"
       inkscape:vp_x="0 : 0.5 : 1"
       sodipodi:type="inkscape:persp3d" />
    <inkscape:perspective
       id="perspective6364"
       inkscape:persp3d-origin="0.5 : 0.33333333 : 1"
       inkscape:vp_z="1 : 0.5 : 1"
       inkscape:vp_y="0 : 1000 : 0"
       inkscape:vp_x="0 : 0.5 : 1"
       sodipodi:type="inkscape:persp3d" />
    <inkscape:perspective
       id="perspective6396"
       inkscape:persp3d-origin="0.5 : 0.33333333 : 1"
       inkscape:vp_z="1 : 0.5 : 1"
       inkscape:vp_y="0 : 1000 : 0"
       inkscape:vp_x="0 : 0.5 : 1"
       sodipodi:type="inkscape:persp3d" />
    <inkscape:perspective
       id="perspective6438"
       inkscape:persp3d-origin="0.5 : 0.33333333 : 1"
       inkscape:vp_z="1 : 0.5 : 1"
       inkscape:vp_y="0 : 1000 : 0"
       inkscape:vp_x="0 : 0.5 : 1"
       sodipodi:type="inkscape:persp3d" />
    <inkscape:perspective
       id="perspective6460"
       inkscape:persp3d-origin="0.5 : 0.33333333 : 1"
       inkscape:vp_z="1 : 0.5 : 1"
       inkscape:vp_y="0 : 1000 : 0"
       inkscape:vp_x="0 : 0.5 : 1"
       sodipodi:type="inkscape:persp3d" />
    <inkscape:perspective
       id="perspective6480"
       inkscape:persp3d-origin="0.5 : 0.33333333 : 1"
       inkscape:vp_z="1 : 0.5 : 1"
       inkscape:vp_y="0 : 1000 : 0"
       inkscape:vp_x="0 : 0.5 : 1"
       sodipodi:type="inkscape:persp3d" />
    <inkscape:perspective
       id="perspective6504"
       inkscape:persp3d-origin="0.5 : 0.33333333 : 1"
       inkscape:vp_z="1 : 0.5 : 1"
       inkscape:vp_y="0 : 1000 : 0"
       inkscape:vp_x="0 : 0.5 : 1"
       sodipodi:type="inkscape:persp3d" />
  </defs>
  <sodipodi:namedview
     id="base"
     pagecolor="#ffffff"
     bordercolor="#666666"
     borderopacity="1.0"
     inkscape:pageopacity="0.0"
     inkscape:pageshadow="2"
     inkscape:zoom="8.671875"
     inkscape:cx="10.564203"
     inkscape:cy="2.743179"
     inkscape:document-units="px"
     inkscape:current-layer="layer1"
     showgrid="true"
     inkscape:window-width="1280"
     inkscape:window-height="780"
     inkscape:window-x="-8"
     inkscape:window-y="-8"
     inkscape:window-maximized="1">
    <inkscape:grid
       type="xygrid"
       id="grid6324"
       empspacing="5"
       visible="true"
       enabled="true"
       snapvisiblegridlinesonly="true" />
  </sodipodi:namedview>
  <metadata
     id="metadata7">
    <rdf:RDF>
      <cc:Work
         rdf:about="">
        <dc:format>image/svg+xml</dc:format>
        <dc:type
           rdf:resource="http://purl.org/dc/dcmitype/StillImage" />
        <dc:title></dc:title>
      </cc:Work>
    </rdf:RDF>
  </metadata>
  <g
     inkscape:label="Calque 1"
     inkscape:groupmode="layer"
     id="layer1"
     transform="translate(0,-1036.3622)">
    <g
       id="g6510"
       transform="translate(-0.1202049,0.6266)">
      <path
         style="fill:#fe0000"
         d="m 8.130435,1049.7561 -5.8593344,0 0,-0.2021 0,-0.202 0.808184,0 0.8081841,0 0,-0.4041 0,-0.4041 0.202046,0 0.202046,0 0,-0.4041 0,-0.4041 0.202046,0 0.2020461,0 0,-0.4041 0,-0.4041 0.202046,0 0.202046,0 0,-0.4041 0,-0.4041 0.202046,0 0.202046,0 0,-0.4041 0,-0.4041 0.202046,0 0.202046,0 0,-0.404 0,-0.4041 0.2020461,0 0.202046,0 0,-0.4041 0,-0.4041 0.202046,0 0.202046,0 0,-0.3595 0,-0.3595 0.404092,-0.2912 0.4040921,-0.2913 0,-0.7636 0,-0.7636 -0.2020461,0 -0.202046,0 0,-0.4041 0,-0.404 -0.202046,0 -0.202046,0 0,-0.4041 0,-0.4041 0.202046,0 0.202046,0 0,0.4041 0,0.4041 0.202046,0 0.2020461,0 0,0.404 0,0.4041 0.202046,0 0.202046,0 0,0.4041 0,0.4041 0.202046,0 0.202046,0 0,-0.4041 0,-0.4041 0.202046,0 0.2020461,0 0,-0.4041 0,-0.404 0.202046,0 0.202046,0 0,-0.4041 0,-0.4041 0.202046,0 0.202046,0 0,0.4041 0,0.4041 -0.202046,0 -0.202046,0 0,0.404 0,0.4041 -0.202046,0 -0.202046,0 0,0.7636 0,0.7636 0.404092,0.2913 0.404092,0.2912 0,0.3595 0,0.3595 0.202046,0 0.202046,0 0,0.4041 0,0.4041 0.2020459,0 0.202046,0 0,0.4041 0,0.404 0.202046,0 0.202046,0 0,0.4041 0,0.4041 0.202046,0 0.202046,0 0,0.4041 0,0.4041 0.202046,0 0.202046,0 0,0.4041 0,0.4041 0.202046,0 0.202046,0 0,0.4041 0,0.4041 0.202046,0 0.202046,0 0,0.4041 0,0.4041 0.808184,0 0.808184,0 0,0.202 0,0.2021 -5.859334,0 z"
         id="path6514" />
      <path
         style="fill:#000000"
         d="m 8.130435,1049.7561 -5.8593344,0 0,-0.2021 0,-0.202 0.808184,0 0.8081841,0 0,-0.4041 0,-0.4041 0.202046,0 0.202046,0 0,-0.4041 0,-0.4041 0.202046,0 0.2020461,0 0,-0.4041 0,-0.4041 0.202046,0 0.202046,0 0,-0.4041 0,-0.4041 0.202046,0 0.202046,0 0,-0.4041 0,-0.4041 0.202046,0 0.202046,0 0,-0.404 0,-0.4041 0.2020461,0 0.202046,0 0,-0.4041 0,-0.4041 0.202046,0 0.202046,0 0,-0.3595 0,-0.3595 0.404092,-0.2912 0.4040921,-0.2913 0,-0.7636 0,-0.7636 -0.2020461,0 -0.202046,0 0,-0.4041 0,-0.404 -0.202046,0 -0.202046,0 0,-0.4041 0,-0.4041 0.202046,0 0.202046,0 0,0.4041 0,0.4041 0.202046,0 0.2020461,0 0,0.404 0,0.4041 0.202046,0 0.202046,0 0,0.4041 0,0.4041 0.202046,0 0.202046,0 0,-0.4041 0,-0.4041 0.202046,0 0.2020461,0 0,-0.4041 0,-0.404 0.202046,0 0.202046,0 0,-0.4041 0,-0.4041 0.202046,0 0.202046,0 0,0.4041 0,0.4041 -0.202046,0 -0.202046,0 0,0.404 0,0.4041 -0.202046,0 -0.202046,0 0,0.7636 0,0.7636 0.404092,0.2913 0.404092,0.2912 0,0.3595 0,0.3595 0.202046,0 0.202046,0 0,0.4041 0,0.4041 0.2020459,0 0.202046,0 0,0.4041 0,0.404 0.202046,0 0.202046,0 0,0.4041 0,0.4041 0.202046,0 0.202046,0 0,0.4041 0,0.4041 0.202046,0 0.202046,0 0,0.4041 0,0.4041 0.202046,0 0.202046,0 0,0.4041 0,0.4041 0.202046,0 0.202046,0 0,0.4041 0,0.4041 0.808184,0 0.808184,0 0,0.202 0,0.2021 -5.859334,0 z m -2.6265982,-0.4041 1.2122761,0 0,-0.4041 0,-0.4041 0.202046,0 0.202046,0 0,-0.4041 0,-0.4041 0.202046,0 0.2020461,0 0,-0.4041 0,-0.4041 0.202046,0 0.202046,0 0,-0.4041 0,-0.4041 0.202046,0 0.202046,0 0,0.4041 0,0.4041 0.202046,0 0.2020461,0 0,0.4041 0,0.4041 0.202046,0 0.202046,0 0,0.4041 0,0.4041 0.202046,0 0.202046,0 0,0.4041 0,0.4041 1.2122759,0 1.212276,0 0,-0.2021 c 0,-0.1111 -0.09092,-0.202 -0.202046,-0.202 l -0.202046,0 0,-0.4041 0,-0.4041 -0.202046,0 -0.202046,0 0,-0.4041 0,-0.4041 -0.202046,0 -0.202046,0 0,-0.4041 0,-0.4041 -0.202046,0 -0.202046,0 0,-0.4041 0,-0.4041 -0.202046,0 -0.2020459,0 0,-0.4041 0,-0.404 -0.202046,0 -0.202046,0 0,-0.4041 0,-0.4041 -0.202046,0 -0.202046,0 0,-0.4041 0,-0.4041 -0.202046,0 -0.202046,0 0,-0.3175 0,-0.3175 -0.3030691,-0.3031 -0.303069,-0.3031 -0.303069,0.3031 -0.303069,0.3031 0,0.3175 0,0.3175 -0.2020461,0 -0.202046,0 0,0.4041 0,0.4041 -0.202046,0 -0.202046,0 0,0.4041 0,0.4041 -0.202046,0 -0.202046,0 0,0.404 0,0.4041 -0.202046,0 -0.2020461,0 0,0.4041 0,0.4041 -0.202046,0 -0.202046,0 0,0.4041 0,0.4041 -0.202046,0 -0.202046,0 0,0.4041 0,0.4041 -0.202046,0 -0.202046,0 0,0.4041 0,0.4041 -0.2020461,0 c -0.1111253,0 -0.202046,0.091 -0.202046,0.202 l 0,0.2021 1.2122761,0 z"
         id="path6512" />
    </g>
  </g>
</svg>
