<?xml version="1.0" encoding="UTF-8" standalone="no"?>
<!-- Created with Inkscape (http://www.inkscape.org/) -->

<svg
   xmlns:dc="http://purl.org/dc/elements/1.1/"
   xmlns:cc="http://creativecommons.org/ns#"
   xmlns:rdf="http://www.w3.org/1999/02/22-rdf-syntax-ns#"
   xmlns:svg="http://www.w3.org/2000/svg"
   xmlns="http://www.w3.org/2000/svg"
   xmlns:sodipodi="http://sodipodi.sourceforge.net/DTD/sodipodi-0.dtd"
   xmlns:inkscape="http://www.inkscape.org/namespaces/inkscape"
   width="16"
   height="16"
   id="svg2"
   version="1.1"
   inkscape:version="0.47 r22583"
   sodipodi:docname="camping-64.svg">
  <defs
     id="defs4">
    <inkscape:perspective
       sodipodi:type="inkscape:persp3d"
       inkscape:vp_x="0 : 526.18109 : 1"
       inkscape:vp_y="0 : 1000 : 0"
       inkscape:vp_z="744.09448 : 526.18109 : 1"
       inkscape:persp3d-origin="372.04724 : 350.78739 : 1"
       id="perspective10" />
    <inkscape:perspective
       id="perspective2824"
       inkscape:persp3d-origin="0.5 : 0.33333333 : 1"
       inkscape:vp_z="1 : 0.5 : 1"
       inkscape:vp_y="0 : 1000 : 0"
       inkscape:vp_x="0 : 0.5 : 1"
       sodipodi:type="inkscape:persp3d" />
    <inkscape:perspective
       id="perspective5878"
       inkscape:persp3d-origin="0.5 : 0.33333333 : 1"
       inkscape:vp_z="1 : 0.5 : 1"
       inkscape:vp_y="0 : 1000 : 0"
       inkscape:vp_x="0 : 0.5 : 1"
       sodipodi:type="inkscape:persp3d" />
    <inkscape:perspective
       id="perspective5921"
       inkscape:persp3d-origin="0.5 : 0.33333333 : 1"
       inkscape:vp_z="1 : 0.5 : 1"
       inkscape:vp_y="0 : 1000 : 0"
       inkscape:vp_x="0 : 0.5 : 1"
       sodipodi:type="inkscape:persp3d" />
    <inkscape:perspective
       id="perspective5943"
       inkscape:persp3d-origin="0.5 : 0.33333333 : 1"
       inkscape:vp_z="1 : 0.5 : 1"
       inkscape:vp_y="0 : 1000 : 0"
       inkscape:vp_x="0 : 0.5 : 1"
       sodipodi:type="inkscape:persp3d" />
    <inkscape:perspective
       id="perspective5989"
       inkscape:persp3d-origin="0.5 : 0.33333333 : 1"
       inkscape:vp_z="1 : 0.5 : 1"
       inkscape:vp_y="0 : 1000 : 0"
       inkscape:vp_x="0 : 0.5 : 1"
       sodipodi:type="inkscape:persp3d" />
    <inkscape:perspective
       id="perspective6011"
       inkscape:persp3d-origin="0.5 : 0.33333333 : 1"
       inkscape:vp_z="1 : 0.5 : 1"
       inkscape:vp_y="0 : 1000 : 0"
       inkscape:vp_x="0 : 0.5 : 1"
       sodipodi:type="inkscape:persp3d" />
    <inkscape:perspective
       id="perspective6033"
       inkscape:persp3d-origin="0.5 : 0.33333333 : 1"
       inkscape:vp_z="1 : 0.5 : 1"
       inkscape:vp_y="0 : 1000 : 0"
       inkscape:vp_x="0 : 0.5 : 1"
       sodipodi:type="inkscape:persp3d" />
    <inkscape:perspective
       id="perspective6245"
       inkscape:persp3d-origin="0.5 : 0.33333333 : 1"
       inkscape:vp_z="1 : 0.5 : 1"
       inkscape:vp_y="0 : 1000 : 0"
       inkscape:vp_x="0 : 0.5 : 1"
       sodipodi:type="inkscape:persp3d" />
    <inkscape:perspective
       id="perspective6269"
       inkscape:persp3d-origin="0.5 : 0.33333333 : 1"
       inkscape:vp_z="1 : 0.5 : 1"
       inkscape:vp_y="0 : 1000 : 0"
       inkscape:vp_x="0 : 0.5 : 1"
       sodipodi:type="inkscape:persp3d" />
    <inkscape:perspective
       id="perspective6364"
       inkscape:persp3d-origin="0.5 : 0.33333333 : 1"
       inkscape:vp_z="1 : 0.5 : 1"
       inkscape:vp_y="0 : 1000 : 0"
       inkscape:vp_x="0 : 0.5 : 1"
       sodipodi:type="inkscape:persp3d" />
    <inkscape:perspective
       id="perspective6396"
       inkscape:persp3d-origin="0.5 : 0.33333333 : 1"
       inkscape:vp_z="1 : 0.5 : 1"
       inkscape:vp_y="0 : 1000 : 0"
       inkscape:vp_x="0 : 0.5 : 1"
       sodipodi:type="inkscape:persp3d" />
    <inkscape:perspective
       id="perspective6438"
       inkscape:persp3d-origin="0.5 : 0.33333333 : 1"
       inkscape:vp_z="1 : 0.5 : 1"
       inkscape:vp_y="0 : 1000 : 0"
       inkscape:vp_x="0 : 0.5 : 1"
       sodipodi:type="inkscape:persp3d" />
    <inkscape:perspective
       id="perspective6460"
       inkscape:persp3d-origin="0.5 : 0.33333333 : 1"
       inkscape:vp_z="1 : 0.5 : 1"
       inkscape:vp_y="0 : 1000 : 0"
       inkscape:vp_x="0 : 0.5 : 1"
       sodipodi:type="inkscape:persp3d" />
    <inkscape:perspective
       id="perspective6480"
       inkscape:persp3d-origin="0.5 : 0.33333333 : 1"
       inkscape:vp_z="1 : 0.5 : 1"
       inkscape:vp_y="0 : 1000 : 0"
       inkscape:vp_x="0 : 0.5 : 1"
       sodipodi:type="inkscape:persp3d" />
    <inkscape:perspective
       id="perspective6504"
       inkscape:persp3d-origin="0.5 : 0.33333333 : 1"
       inkscape:vp_z="1 : 0.5 : 1"
       inkscape:vp_y="0 : 1000 : 0"
       inkscape:vp_x="0 : 0.5 : 1"
       sodipodi:type="inkscape:persp3d" />
    <inkscape:perspective
       id="perspective6524"
       inkscape:persp3d-origin="0.5 : 0.33333333 : 1"
       inkscape:vp_z="1 : 0.5 : 1"
       inkscape:vp_y="0 : 1000 : 0"
       inkscape:vp_x="0 : 0.5 : 1"
       sodipodi:type="inkscape:persp3d" />
    <inkscape:perspective
       id="perspective6548"
       inkscape:persp3d-origin="0.5 : 0.33333333 : 1"
       inkscape:vp_z="1 : 0.5 : 1"
       inkscape:vp_y="0 : 1000 : 0"
       inkscape:vp_x="0 : 0.5 : 1"
       sodipodi:type="inkscape:persp3d" />
    <inkscape:perspective
       id="perspective6572"
       inkscape:persp3d-origin="0.5 : 0.33333333 : 1"
       inkscape:vp_z="1 : 0.5 : 1"
       inkscape:vp_y="0 : 1000 : 0"
       inkscape:vp_x="0 : 0.5 : 1"
       sodipodi:type="inkscape:persp3d" />
    <inkscape:perspective
       id="perspective6594"
       inkscape:persp3d-origin="0.5 : 0.33333333 : 1"
       inkscape:vp_z="1 : 0.5 : 1"
       inkscape:vp_y="0 : 1000 : 0"
       inkscape:vp_x="0 : 0.5 : 1"
       sodipodi:type="inkscape:persp3d" />
    <inkscape:perspective
       id="perspective6614"
       inkscape:persp3d-origin="0.5 : 0.33333333 : 1"
       inkscape:vp_z="1 : 0.5 : 1"
       inkscape:vp_y="0 : 1000 : 0"
       inkscape:vp_x="0 : 0.5 : 1"
       sodipodi:type="inkscape:persp3d" />
  </defs>
  <sodipodi:namedview
     id="base"
     pagecolor="#ffffff"
     bordercolor="#666666"
     borderopacity="1.0"
     inkscape:pageopacity="0.0"
     inkscape:pageshadow="2"
     inkscape:zoom="8.671875"
     inkscape:cx="10.564203"
     inkscape:cy="2.743179"
     inkscape:document-units="px"
     inkscape:current-layer="layer1"
     showgrid="true"
     inkscape:window-width="1280"
     inkscape:window-height="780"
     inkscape:window-x="-8"
     inkscape:window-y="-8"
     inkscape:window-maximized="1">
    <inkscape:grid
       type="xygrid"
       id="grid6324"
       empspacing="5"
       visible="true"
       enabled="true"
       snapvisiblegridlinesonly="true" />
  </sodipodi:namedview>
  <metadata
     id="metadata7">
    <rdf:RDF>
      <cc:Work
         rdf:about="">
        <dc:format>image/svg+xml</dc:format>
        <dc:type
           rdf:resource="http://purl.org/dc/dcmitype/StillImage" />
        <dc:title></dc:title>
      </cc:Work>
    </rdf:RDF>
  </metadata>
  <g
     inkscape:label="Calque 1"
     inkscape:groupmode="layer"
     id="layer1"
     transform="translate(0,-1036.3622)">
    <g
       id="g6620"
       transform="translate(-0.5509113,0.8258)">
      <path
         style="fill:#caa022"
         d="m 3.4709131,1048.645 -0.3938283,0.075 0,-0.6916 0,-0.6916 -0.435831,0 -0.4358308,0 -0.07052,-0.7314 -0.07052,-0.7314 0.6751342,-0.2251 0.6751341,-0.225 0.06894,-0.8287 0.06894,-0.8288 -0.6975723,-0.071 -0.6975724,-0.072 0.6799375,-1.0689 0.6799375,-1.069 0.3425234,0 0.3425235,0 0,-0.3376 0,-0.3375 0.618873,-0.026 0.6188729,-0.026 -0.4500894,-0.1082 c -0.2475492,-0.06 -0.536287,-0.1897 -0.6416392,-0.2892 l -0.1915499,-0.181 0.1560111,-0.7103 0.1560109,-0.7103 0.4856283,0.069 0.4856282,0.069 0.032339,0.4501 c 0.017787,0.2475 0.054786,0.5513 0.08222,0.6751 0.027434,0.1238 0.07341,0.3263 0.1021667,0.4501 0.028757,0.1238 0.067711,0.4023 0.086564,0.6189 l 0.034277,0.3938 3.0943648,0 3.0943651,0 0.618808,1.122 0.618807,1.1219 -0.688008,0 -0.688009,0 0.0692,0.9475 0.0692,0.9475 0.562612,0.1553 0.562612,0.1553 -0.281306,0.022 -0.281306,0.022 0,0.4344 0,0.4345 0.50635,0.077 0.506351,0.077 -0.06184,0.2927 -0.06184,0.2927 0.240479,-0.1487 0.240478,-0.1486 0.327709,0.272 c 0.18024,0.1496 0.327709,0.3608 0.327709,0.4694 l 0,0.1975 -0.443244,0 -0.443244,0 -0.780674,-0.4384 -0.780675,-0.4385 -0.07009,0.6072 -0.07009,0.6073 -0.337567,0 -0.337567,0 -0.07191,-0.5063 -0.07191,-0.5064 -3.5694112,0 -3.5694112,0 -0.071913,0.5041 -0.071913,0.504 -0.3938282,0.075 z m 10.4083179,-0.6331 0.30006,0 -0.15003,-0.15 -0.15003,-0.1501 -0.15003,0.1501 -0.150029,0.15 0.300059,0 z m -1.012701,-0.4501 c 0.06189,0 0.112522,-0.051 0.112522,-0.1125 0,-0.062 -0.05063,-0.1125 -0.112522,-0.1125 -0.06189,0 -0.112522,0.051 -0.112522,0.1125 0,0.062 0.05063,0.1125 0.112522,0.1125 z m -9.7927842,-0.6733 0.4534285,-0.2427 0,-0.3297 0,-0.3296 -0.436808,0 -0.436808,0 -0.1457457,0.2358 -0.1457457,0.2358 0.1291255,0.3365 0.1291252,0.3365 0.4534282,-0.2426 z m 4.6167557,0.2232 c 0.061887,0 0.1125223,-0.051 0.1125223,-0.1125 0,-0.062 -0.050635,-0.1125 -0.1125223,-0.1125 -0.061887,0 -0.1125224,0.051 -0.1125224,0.1125 0,0.062 0.050635,0.1125 0.1125224,0.1125 z m 0.9001788,0 c 0.061887,0 0.1125224,-0.051 0.1125224,-0.1125 0,-0.062 -0.050635,-0.1125 -0.1125224,-0.1125 -0.061887,0 -0.1125223,0.051 -0.1125223,0.1125 0,0.062 0.050635,0.1125 0.1125223,0.1125 z m 0.4500895,0 c 0.061887,0 0.1125223,-0.051 0.1125223,-0.1125 0,-0.062 -0.050635,-0.1125 -0.1125223,-0.1125 -0.061887,0 -0.1125224,0.051 -0.1125224,0.1125 0,0.062 0.050635,0.1125 0.1125224,0.1125 z m -3.7882527,-0.3 0.1500297,-0.1501 -0.1500297,-0.15 -0.1500298,-0.15 0,0.3 0,0.3001 0.1500298,-0.15 z m 4.6884315,0.075 c 0.061887,0 0.1125224,-0.051 0.1125224,-0.1126 0,-0.062 -0.05063,-0.1125 -0.1125224,-0.1125 -0.061887,0 -0.1125223,0.051 -0.1125223,0.1125 0,0.062 0.050635,0.1126 0.1125223,0.1126 z m 1.3877754,-0.075 0.15003,-0.1501 -0.15003,-0.15 -0.150029,-0.15 0,0.3 0,0.3001 0.150029,-0.15 z m 0.750149,-0.1501 0.225045,0 0,-0.3375 0,-0.3376 -0.225045,0 -0.225044,0 0,0.3376 0,0.3375 0.225044,0 z m -3.0381032,-0.4501 c 0.061887,0 0.1125223,-0.051 0.1125223,-0.1125 0,-0.062 -0.050635,-0.1125 -0.1125223,-0.1125 -0.061887,0 -0.1125224,0.051 -0.1125224,0.1125 0,0.062 0.050635,0.1125 0.1125224,0.1125 z m 0.6751341,0 c 0.061887,0 0.1125224,-0.051 0.1125224,-0.1125 0,-0.062 -0.050635,-0.1125 -0.1125224,-0.1125 -0.061887,0 -0.1125224,0.051 -0.1125224,0.1125 0,0.062 0.050635,0.1125 0.1125224,0.1125 z m -4.8384614,-1.3502 c 0.1237746,0 0.2250448,-0.1013 0.2250448,-0.2251 0,-0.1238 -0.1012702,-0.225 -0.2250448,-0.225 -0.1237746,0 -0.2250447,0.1012 -0.2250447,0.225 0,0.1238 0.1012701,0.2251 0.2250447,0.2251 z m 1.3502683,0 c 0.1237746,0 0.2250447,-0.1013 0.2250447,-0.2251 0,-0.1238 -0.1012701,-0.225 -0.2250447,-0.225 -0.1237746,0 -0.2250447,0.1012 -0.2250447,0.225 0,0.1238 0.1012701,0.2251 0.2250447,0.2251 z m -0.6751341,-0.2251 0.3000595,0 -0.1500296,-0.15 -0.1500299,-0.15 -0.1500299,0.15 -0.1500297,0.15 0.3000596,0 z m 3.0381036,0 c 0.061887,0 0.1125224,-0.051 0.1125224,-0.1125 0,-0.062 -0.050635,-0.1125 -0.1125224,-0.1125 -0.061887,0 -0.1125223,0.051 -0.1125223,0.1125 0,0.062 0.050635,0.1125 0.1125223,0.1125 z m 1.1252236,0 c 0.061887,0 0.1125224,-0.051 0.1125224,-0.1125 0,-0.062 -0.050635,-0.1125 -0.1125224,-0.1125 -0.061887,0 -0.1125224,0.051 -0.1125224,0.1125 0,0.062 0.050635,0.1125 0.1125224,0.1125 z m -4.7126575,-4.2758 0.5758932,0 -0.1764483,-0.2813 c -0.097047,-0.1548 -0.1472925,-0.4586 -0.1116578,-0.6752 l 0.06479,-0.3938 -0.3276356,0 -0.3276357,0 -0.1365996,0.356 c -0.07513,0.1958 -0.1365997,0.4996 -0.1365997,0.6751 l 0,0.3192 0.5758933,0 z"
         id="path6640" />
      <path
         style="fill:#9b7702"
         d="m 3.4709131,1048.645 -0.3938283,0.075 0,-0.6916 0,-0.6916 -0.435831,0 -0.4358308,0 -0.07052,-0.7314 -0.07052,-0.7314 0.6751342,-0.2251 0.6751341,-0.225 0.06894,-0.8287 0.06894,-0.8288 -0.6975723,-0.071 -0.6975724,-0.072 0.6799375,-1.0689 0.6799375,-1.069 0.3425234,0 0.3425235,0 0,-0.3376 0,-0.3375 0.618873,-0.026 0.6188729,-0.026 -0.4500894,-0.1082 c -0.2475492,-0.06 -0.536287,-0.1897 -0.6416392,-0.2892 l -0.1915499,-0.181 0.1560111,-0.7103 0.1560109,-0.7103 0.4856283,0.069 0.4856282,0.069 0.032339,0.4501 c 0.017787,0.2475 0.054786,0.5513 0.08222,0.6751 0.027434,0.1238 0.07341,0.3263 0.1021667,0.4501 0.028757,0.1238 0.067711,0.4023 0.086564,0.6189 l 0.034277,0.3938 3.0943648,0 3.0943651,0 0.618808,1.122 0.618807,1.1219 -0.688008,0 -0.688009,0 0.0692,0.9475 0.0692,0.9475 0.562612,0.1553 0.562612,0.1553 -0.281306,0.022 -0.281306,0.022 0,0.4344 0,0.4345 0.50635,0.077 0.506351,0.077 -0.06184,0.2927 -0.06184,0.2927 0.240479,-0.1487 0.240478,-0.1486 0.327709,0.272 c 0.18024,0.1496 0.327709,0.3608 0.327709,0.4694 l 0,0.1975 -0.443244,0 -0.443244,0 -0.780674,-0.4384 -0.780675,-0.4385 -0.07009,0.6072 -0.07009,0.6073 -0.337567,0 -0.337567,0 -0.02212,-0.4501 -0.02212,-0.4501 0.09403,0.3939 0.09403,0.3938 0.209392,0 0.209392,0 0,-0.5889 0,-0.5888 -0.506351,0.1357 -0.506351,0.1357 -3.4162796,0 -3.4162798,0 -0.071913,0.5041 -0.071913,0.504 -0.3938282,0.075 z m 0.056261,-0.183 0.2250447,0 0,-0.5626 0,-0.5626 -0.2250447,0 -0.2250448,0 0,0.5626 0,0.5626 0.2250448,0 z m 10.3520569,-0.4501 0.30006,0 -0.15003,-0.15 -0.15003,-0.1501 -0.15003,0.1501 -0.150029,0.15 0.300059,0 z m -1.012701,-0.4501 c 0.06189,0 0.112522,-0.051 0.112522,-0.1125 0,-0.062 -0.05063,-0.1125 -0.112522,-0.1125 -0.06189,0 -0.112522,0.051 -0.112522,0.1125 0,0.062 0.05063,0.1125 0.112522,0.1125 z m -9.7927844,-0.6733 0.4534285,-0.2427 0,-0.3297 0,-0.3296 -0.436808,0 -0.436808,0 -0.1457457,0.2358 -0.1457457,0.2358 0.1291255,0.3365 0.1291252,0.3365 0.4534282,-0.2426 z m 4.6167557,0.2232 c 0.061887,0 0.1125223,-0.051 0.1125223,-0.1125 0,-0.062 -0.050635,-0.1125 -0.1125223,-0.1125 -0.061887,0 -0.1125224,0.051 -0.1125224,0.1125 0,0.062 0.050635,0.1125 0.1125224,0.1125 z m 0.9001788,0 c 0.061887,0 0.1125224,-0.051 0.1125224,-0.1125 0,-0.062 -0.050635,-0.1125 -0.1125224,-0.1125 -0.061887,0 -0.1125223,0.051 -0.1125223,0.1125 0,0.062 0.050635,0.1125 0.1125223,0.1125 z m 0.4500895,0 c 0.061887,0 0.1125223,-0.051 0.1125223,-0.1125 0,-0.062 -0.050635,-0.1125 -0.1125223,-0.1125 -0.061887,0 -0.1125224,0.051 -0.1125224,0.1125 0,0.062 0.050635,0.1125 0.1125224,0.1125 z m -3.7882527,-0.3 0.1500297,-0.1501 -0.1500297,-0.15 -0.1500298,-0.15 0,0.3 0,0.3001 0.1500298,-0.15 z m 4.6884315,0.075 c 0.061887,0 0.1125226,-0.051 0.1125226,-0.1126 0,-0.062 -0.05063,-0.1125 -0.1125226,-0.1125 -0.061887,0 -0.1125223,0.051 -0.1125223,0.1125 0,0.062 0.050635,0.1126 0.1125223,0.1126 z m 1.3877756,-0.075 0.15003,-0.1501 -0.15003,-0.15 -0.150029,-0.15 0,0.3 0,0.3001 0.150029,-0.15 z m -1.9503874,-0.1501 c 0.09729,0 0.2268543,-0.1302 0.2879216,-0.2893 l 0.1110314,-0.2894 -0.398953,0 -0.3989529,0 0.1110314,0.2894 c 0.061067,0.1591 0.190632,0.2893 0.2879215,0.2893 z m 2.7005364,0 0.225045,0 0,-0.3375 0,-0.3376 -0.225045,0 -0.225044,0 0,0.3376 0,0.3375 0.225044,0 z m -2.9255811,-1.1252 0.3976194,0 0.096795,-0.5064 0.096795,-0.5063 -0.5912094,0 -0.5912093,0 0.096795,0.5063 0.096795,0.5064 0.3976193,0 z m -3.6007154,-0.7564 0.9001788,0.024 0,-0.1962 0,-0.1962 -0.9001788,0 -0.9001789,0 0,0.1726 0,0.1726 0.9001789,0.024 z m -0.5493303,-4.4196 0.5758932,0 -0.1764483,-0.2813 c -0.097047,-0.1548 -0.1472925,-0.4586 -0.1116578,-0.6752 l 0.06479,-0.3938 -0.3276356,0 -0.3276357,0 -0.1365996,0.356 c -0.07513,0.1958 -0.1365997,0.4996 -0.1365997,0.6751 l 0,0.3192 0.5758933,0 z"
         id="path6638" />
      <path
         style="fill:#5b5c5b"
         d="m 3.4709131,1048.645 -0.3938283,0.075 0,-0.6916 0,-0.6916 -0.435831,0 -0.4358308,0 -0.07052,-0.7314 -0.07052,-0.7314 0.6751342,-0.2251 0.6751341,-0.225 0.06894,-0.8287 0.06894,-0.8288 -0.6975723,-0.071 -0.6975724,-0.072 0.6799375,-1.0689 0.6799375,-1.069 0.3425234,0 0.3425235,0 0,-0.3376 0,-0.3375 0.618873,-0.026 0.6188729,-0.026 -0.4500894,-0.1082 c -0.2475492,-0.06 -0.536287,-0.1897 -0.6416392,-0.2892 l -0.1915499,-0.181 0.1560111,-0.7103 0.1560109,-0.7103 0.4856283,0.069 0.4856282,0.069 0.032339,0.4501 c 0.017787,0.2475 0.054786,0.5513 0.08222,0.6751 0.027434,0.1238 0.07341,0.3263 0.1021667,0.4501 0.028757,0.1238 0.067711,0.4023 0.086564,0.6189 l 0.034277,0.3938 3.0943648,0 3.0943651,0 0.618808,1.122 0.618807,1.1219 -0.688008,0 -0.688009,0 0.0692,0.9475 0.0692,0.9475 0.562612,0.1553 0.562612,0.1553 -0.281306,0.022 -0.281306,0.022 0,0.4344 0,0.4345 0.50635,0.072 0.506351,0.072 0.02813,0.2813 c 0.01547,0.1547 0.04079,0.3826 0.05626,0.5063 l 0.02813,0.2251 0.38058,0 0.38058,0 -0.436841,-0.3304 -0.436841,-0.3304 0.236297,-0.01 c 0.129963,0 0.357821,0.1144 0.506351,0.2629 0.148529,0.1485 0.270053,0.3511 0.270053,0.4501 l 0,0.18 -0.443244,0 -0.443244,0 -0.780674,-0.4384 -0.780675,-0.4385 -0.07009,0.6072 -0.07009,0.6073 -0.337567,0 -0.337567,0 -0.07191,-0.5063 -0.07191,-0.5064 -3.5694112,0 -3.5694112,0 -0.071913,0.5041 -0.071913,0.504 -0.3938282,0.075 z m 0.030026,-0.183 0.1988097,0 0.10755,-0.5626 0.10755,-0.5626 -0.3063597,0 -0.3063597,0 0,0.5626 0,0.5626 0.1988097,0 z m 8.1540799,0 0.19881,0 0,-0.5626 0,-0.5626 -0.30636,0 -0.30636,0 0.10755,0.5626 0.10755,0.5626 0.19881,0 z m 1.211511,-0.9002 c 0.06189,0 0.112522,-0.051 0.112522,-0.1125 0,-0.062 -0.05063,-0.1125 -0.112522,-0.1125 -0.06189,0 -0.112522,0.051 -0.112522,0.1125 0,0.062 0.05063,0.1125 0.112522,0.1125 z m -9.8601064,-0.5465 0.4305648,0 0.042572,-0.5144 0.042572,-0.5144 -0.4342873,0 -0.434287,0 -0.1457457,0.2358 -0.1457457,0.2358 0.106896,0.2786 0.106896,0.2786 0.4305648,0 z m 1.4209294,0.096 0.4500894,0 0,-0.225 0,-0.2251 -0.4500894,0 -0.4500894,0 0,0.2251 0,0.225 0.4500894,0 z m 1.3877758,0 0.4125819,0 0,-0.1988 0,-0.1988 -0.5626118,-0.1076 -0.5626117,-0.1075 0,0.1563 c 0,0.086 0.067513,0.2239 0.1500298,0.3064 0.082516,0.082 0.3356916,0.15 0.5626118,0.15 z m 1.0877161,0 c 0.1091649,0 0.2610701,-0.1013 0.337567,-0.225 l 0.1390853,-0.2251 -0.4766523,0 -0.4766524,0 0.1390853,0.2251 c 0.076497,0.1237 0.2284022,0.225 0.3375671,0.225 z m 1.2377459,0 0.5626118,0 -0.017767,-0.5063 -0.017767,-0.5064 -0.1135094,0.2813 -0.1135083,0.2813 -0.4313355,0 -0.4313358,0 0,0.2251 0,0.225 0.5626118,0 z m 1.2002384,0 c 0.2269202,0 0.4690812,-0.056 0.5381355,-0.1255 l 0.1255533,-0.1256 -0.114293,-0.4371 -0.1142935,-0.437 -0.423842,0 -0.4238422,0 0,0.5626 0,0.5626 0.4125819,0 z m 1.4264098,-0.041 0.488723,-0.072 0.08281,-0.2518 0.08281,-0.2518 -0.571532,0.1092 -0.571531,0.1093 0,0.2145 0,0.2144 0.488723,-0.072 z m 1.075794,0.041 0.262403,0 -0.139085,-0.225 -0.139085,-0.2251 0.238326,0 0.238326,0 0,-0.3375 0,-0.3376 -0.225045,0 c -0.123774,0 -0.225044,0.093 -0.225044,0.2066 0,0.1137 -0.06147,0.3669 -0.1366,0.5626 l -0.1366,0.356 0.262404,0 z m -2.689741,-1.3503 0.6751342,0 0,-0.6751 0,-0.6751 -0.6751342,0 -0.6751341,0 0,0.6751 0,0.6751 0.6751341,0 z m -3.6007154,-0.9615 0.9001788,0 0,-0.1944 0,-0.1943 -0.9001788,0 -0.9001789,0 0,0.1943 0,0.1944 0.9001789,0 z m -0.5493303,-4.4395 0.5758932,0 -0.1764483,-0.2813 c -0.097047,-0.1548 -0.1472925,-0.4586 -0.1116578,-0.6752 l 0.06479,-0.3938 -0.3276356,0 -0.3276357,0 -0.1365996,0.356 c -0.07513,0.1958 -0.1365997,0.4996 -0.1365997,0.6751 l 0,0.3192 0.5758933,0 z"
         id="path6636" />
      <path
         style="fill:#c61c00"
         d="m 3.2403766,1047.9338 -0.095854,0.6407 -0.033719,-0.6189 -0.033719,-0.6188 -0.5063506,-0.014 -0.5063506,-0.014 0.5271342,-0.2112 0.5271344,-0.2112 0.1715903,0.106 0.1715902,0.1061 0.044491,-1.6809 0.04449,-1.681 -0.5744313,0 -0.5744316,0 0,-0.149 c 0,-0.082 0.2574442,-0.5883 0.5720983,-1.1252 l 0.5720983,-0.9762 0.3280806,0 0.3280805,0 0,-0.3376 0,-0.3375 0.7876565,0 0.7876565,0 0,0.3375 0,0.3376 3.0286171,0 3.0286176,0 0.572098,0.9762 c 0.314654,0.5369 0.572098,1.0433 0.572098,1.1252 l 0,0.149 -0.562612,0 -0.562611,0 0,0.8869 0,0.8869 0.249071,0.154 0.249071,0.1539 -0.218739,0.1407 c -0.120307,0.077 -0.289849,0.3685 -0.376759,0.647 l -0.158019,0.5063 0.226928,0 c 0.124811,0 0.285779,-0.095 0.357707,-0.2116 l 0.130778,-0.2116 0.657095,0.2291 0.657096,0.229 0.29437,0.3764 0.29437,0.3764 -0.39898,-0.3132 -0.39898,-0.3131 0.151717,0.3954 0.151717,0.3953 -0.540393,-0.1638 c -0.297217,-0.09 -0.6366,-0.2536 -0.754186,-0.3635 -0.117586,-0.1099 -0.432671,-0.1997 -0.700188,-0.1997 l -0.486396,0 0.05034,0.5063 0.05034,0.5064 -0.0972,-0.3939 -0.0972,-0.3938 -3.4162795,0 c -1.8789539,0 -3.6364649,-0.062 -3.9055799,-0.1343 l -0.4893001,-0.1312 -0.095854,0.6406 z m 9.6261534,-0.372 c 0.06189,0 0.112522,-0.051 0.112522,-0.1125 0,-0.062 -0.05063,-0.1125 -0.112522,-0.1125 -0.06189,0 -0.112522,0.051 -0.112522,0.1125 0,0.062 0.05063,0.1125 0.112522,0.1125 z m -8.4391769,-0.4501 0.4500894,0 0,-0.225 0,-0.2251 -0.4500894,0 -0.4500894,0 0,0.2251 0,0.225 0.4500894,0 z m 1.3877758,0 0.4125819,0 0,-0.1988 0,-0.1988 -0.5626118,-0.1076 -0.5626117,-0.1075 0,0.1563 c 0,0.086 0.067513,0.2239 0.1500298,0.3064 0.082516,0.082 0.3356916,0.15 0.5626118,0.15 z m 1.0877161,0 c 0.1091649,0 0.2610701,-0.1013 0.337567,-0.225 l 0.1390853,-0.2251 -0.4766523,0 -0.4766524,0 0.1390853,0.2251 c 0.076497,0.1237 0.2284022,0.225 0.3375671,0.225 z m 1.2377459,0 0.5626118,0 -0.017767,-0.5063 -0.017767,-0.5064 -0.1135094,0.2813 -0.1135083,0.2813 -0.4313355,0 -0.4313358,0 0,0.2251 0,0.225 0.5626118,0 z m 1.2002384,0 c 0.2269202,0 0.4690812,-0.056 0.5381355,-0.1255 l 0.1255532,-0.1256 -0.1142929,-0.4371 -0.1142935,-0.437 -0.423842,0 -0.4238422,0 0,0.5626 0,0.5626 0.4125819,0 z m 1.4264097,-0.041 0.488723,-0.072 0.08281,-0.2518 0.08281,-0.2518 -0.571532,0.1092 -0.571531,0.1093 0,0.2145 0,0.2144 0.488723,-0.072 z m -1.6139469,-1.3097 0.6751342,0 0,-0.6751 0,-0.6751 -0.6751342,0 -0.6751341,0 0,0.6751 0,0.6751 0.6751341,0 z m -4.1820809,-0.6751 0.3188132,0 0.1141434,-0.2813 0.1141431,-0.2813 0.2170169,0.3101 0.2170167,0.3102 0.2620849,-0.162 0.2620848,-0.162 -0.077196,-0.2316 -0.077195,-0.2316 -0.8348628,-0.051 -0.8348628,-0.051 0,0.4154 0,0.4154 0.3188134,0 z m 9.4706318,2.9256 c -0.06189,0 -0.112522,-0.051 -0.112522,-0.1125 0,-0.062 0.05063,-0.1126 0.112522,-0.1126 0.06189,0 0.112522,0.051 0.112522,0.1126 0,0.062 -0.05064,0.1125 -0.112522,0.1125 z m -2.475492,-1.1252 c -0.06189,0 -0.112522,-0.051 -0.112522,-0.1126 0,-0.062 0.05064,-0.1125 0.112522,-0.1125 0.06189,0 0.112522,0.051 0.112522,0.1125 0,0.062 -0.05063,0.1126 -0.112522,0.1126 z m -9.1275924,-0.9002 c -0.1164698,0 -0.2117632,-0.04 -0.2117632,-0.089 0,-0.049 0.1571649,-0.1487 0.3492554,-0.2224 l 0.3492555,-0.134 -0.1374922,0.2224 c -0.075621,0.1224 -0.2327856,0.2225 -0.3492555,0.2225 z m 2.1644878,-5.4011 -0.5493304,0 -0.1139185,-0.1843 -0.1139188,-0.1843 0.6632491,0.097 c 0.3647869,0.054 0.6632489,0.1365 0.6632489,0.1843 0,0.048 -0.2471986,0.087 -0.5493303,0.087 z m -0.6509081,-0.7501 -0.1500299,0.15 0,-0.3001 0,-0.3 0.1500299,0.15 0.1500296,0.15 -0.1500296,0.1501 z m 0.8626713,0.075 c -0.061887,0 -0.1125223,-0.051 -0.1125223,-0.1125 0,-0.062 0.050635,-0.1126 0.1125223,-0.1126 0.061887,0 0.1125224,0.051 0.1125224,0.1126 0,0.062 -0.050635,0.1125 -0.1125224,0.1125 z m 0.2250447,-0.4501 c -0.061887,0 -0.1125223,-0.051 -0.1125223,-0.1125 0,-0.062 0.050635,-0.1126 0.1125223,-0.1126 0.061887,0 0.1125224,0.051 0.1125224,0.1126 0,0.062 -0.050635,0.1125 -0.1125224,0.1125 z m -0.6751341,-0.3687 -0.3375671,0.1295 0,-0.218 0,-0.2179 0.3375671,0 c 0.1856619,0 0.3375671,0.04 0.3375671,0.088 0,0.049 -0.1519052,0.1467 -0.3375671,0.218 z"
         id="path6634" />
      <path
         style="fill:#5b5e14"
         d="m 3.2403766,1047.9338 -0.095854,0.6407 -0.033719,-0.6189 -0.033719,-0.6188 -0.5063506,-0.014 -0.5063506,-0.014 0.5271342,-0.2112 0.5271344,-0.2112 0.1715903,0.106 0.1715902,0.1061 0.044491,-1.6809 0.04449,-1.681 -0.5744313,0 -0.5744316,0 0,-0.149 c 0,-0.082 0.2574442,-0.5883 0.5720983,-1.1252 l 0.5720983,-0.9762 0.3280806,0 0.3280805,0 0,-0.3376 0,-0.3375 0.7876565,0 0.7876565,0 0,0.3375 0,0.3376 3.0286171,0 3.0286176,0 0.572098,0.9762 c 0.314654,0.5369 0.572098,1.0433 0.572098,1.1252 l 0,0.149 -0.562612,0 -0.562611,0 0,0.8869 0,0.8869 0.249071,0.154 0.249071,0.1539 -0.218739,0.1407 c -0.120307,0.077 -0.289849,0.3685 -0.376759,0.647 l -0.158019,0.5063 0.226928,0 c 0.124811,0 0.285779,-0.095 0.357707,-0.2116 l 0.130778,-0.2116 0.657095,0.2291 0.657096,0.229 0.29437,0.3764 0.29437,0.3764 -0.39898,-0.3132 -0.39898,-0.3131 0.151717,0.3954 0.151717,0.3953 -0.540393,-0.1638 c -0.297217,-0.09 -0.6366,-0.2536 -0.754186,-0.3635 -0.117586,-0.1099 -0.432671,-0.1997 -0.700188,-0.1997 l -0.486396,0 0.05034,0.5063 0.05034,0.5064 -0.0972,-0.3939 -0.0972,-0.3938 -3.4162795,0 c -1.8789539,0 -3.6364649,-0.062 -3.9055799,-0.1343 l -0.4893001,-0.1312 -0.095854,0.6406 z m 9.6261534,-0.372 c 0.06189,0 0.112522,-0.051 0.112522,-0.1125 0,-0.062 -0.05063,-0.1125 -0.112522,-0.1125 -0.06189,0 -0.112522,0.051 -0.112522,0.1125 0,0.062 0.05063,0.1125 0.112522,0.1125 z m -8.4391769,-0.4501 0.4500894,0 0,-0.4501 0,-0.4501 -0.4500894,0 -0.4500894,0 0,0.4501 0,0.4501 0.4500894,0 z m 1.3635498,0 0.4368079,0 0,-0.4501 0,-0.4501 -0.4368079,0 -0.436808,0 -0.1390853,0.2251 -0.1390853,0.225 0.1390853,0.2251 0.1390853,0.225 0.436808,0 z m 1.1119421,0 c 0.1091649,0 0.2484113,-0.081 0.3094364,-0.1795 l 0.1109547,-0.1795 -0.2101955,-0.3269 -0.2101956,-0.3268 -0.2101956,0.3268 -0.2101956,0.3269 0.1109547,0.1795 c 0.061025,0.099 0.2002716,0.1795 0.3094365,0.1795 z m 1.2136686,0 0.5866891,0 -0.00345,-0.5063 -0.00345,-0.5064 -0.2215986,0.3376 -0.2215986,0.3375 -0.2215987,-0.3375 c -0.1218792,-0.1857 -0.2231493,-0.2699 -0.2250447,-0.1872 -0.00189,0.083 -0.064916,0.3106 -0.1400457,0.5063 l -0.1365997,0.356 0.5866891,0 z m 1.2243157,0 c 0.2269202,0 0.4690812,-0.056 0.5381355,-0.1255 l 0.1255532,-0.1256 -0.1142929,-0.4371 -0.1142935,-0.437 -0.423842,0 -0.4238422,0 0,0.5626 0,0.5626 0.4125819,0 z m 1.4440367,-0.041 0.506351,-0.072 0,-0.3376 0,-0.3375 -0.506351,-0.072 -0.50635,-0.072 0,0.4814 0,0.4814 0.50635,-0.072 z m -1.6315739,-1.3097 0.6751342,0 0,-0.6751 0,-0.6751 -0.6751342,0 -0.6751341,0 0,0.6751 0,0.6751 0.6751341,0 z m -3.2877696,-0.225 2.1133036,0 0.091954,-0.7877 0.091955,-0.7876 -0.7424676,0 -0.7424672,0 0,0.6751 0,0.6752 -1.1252236,0 -1.1252236,0 0,-0.6752 0,-0.6751 -0.3375671,0 -0.337567,0 0,0.7876 0,0.7877 2.1133035,0 z m 4.9756045,0 0.787657,0 0,-0.7877 0,-0.7876 -0.787657,0 -0.787656,0 0,0.7876 0,0.7877 0.787656,0 z m -5.8699158,-0.4501 0.3188132,0 0.1141434,-0.2813 0.1141431,-0.2813 0.2170169,0.3101 0.2170167,0.3102 0.2620849,-0.162 0.2620848,-0.162 -0.077196,-0.2316 -0.077195,-0.2316 -0.8348628,-0.051 -0.8348628,-0.051 0,0.4154 0,0.4154 0.3188134,0 z m 9.4706318,2.9256 c -0.06189,0 -0.112522,-0.051 -0.112522,-0.1125 0,-0.062 0.05063,-0.1126 0.112522,-0.1126 0.06189,0 0.112522,0.051 0.112522,0.1126 0,0.062 -0.05064,0.1125 -0.112522,0.1125 z m -2.475492,-1.1252 c -0.06189,0 -0.112522,-0.051 -0.112522,-0.1126 0,-0.062 0.05064,-0.1125 0.112522,-0.1125 0.06189,0 0.112522,0.051 0.112522,0.1125 0,0.062 -0.05063,0.1126 -0.112522,0.1126 z m -9.1275924,-0.9002 c -0.1164698,0 -0.2117632,-0.04 -0.2117632,-0.089 0,-0.049 0.1571649,-0.1487 0.3492554,-0.2224 l 0.3492555,-0.134 -0.1374922,0.2224 c -0.075621,0.1224 -0.2327856,0.2225 -0.3492555,0.2225 z m 2.1644878,-5.4011 -0.5493304,0 -0.1139185,-0.1843 -0.1139188,-0.1843 0.6632491,0.097 c 0.3647869,0.054 0.6632489,0.1365 0.6632489,0.1843 0,0.048 -0.2471986,0.087 -0.5493303,0.087 z m -0.6509081,-0.7501 -0.1500299,0.15 0,-0.3001 0,-0.3 0.1500299,0.15 0.1500296,0.15 -0.1500296,0.1501 z m 0.8626713,0.075 c -0.061887,0 -0.1125223,-0.051 -0.1125223,-0.1125 0,-0.062 0.050635,-0.1126 0.1125223,-0.1126 0.061887,0 0.1125224,0.051 0.1125224,0.1126 0,0.062 -0.050635,0.1125 -0.1125224,0.1125 z m 0.2250447,-0.4501 c -0.061887,0 -0.1125223,-0.051 -0.1125223,-0.1125 0,-0.062 0.050635,-0.1126 0.1125223,-0.1126 0.061887,0 0.1125224,0.051 0.1125224,0.1126 0,0.062 -0.050635,0.1125 -0.1125224,0.1125 z m -0.6751341,-0.3687 -0.3375671,0.1295 0,-0.218 0,-0.2179 0.3375671,0 c 0.1856619,0 0.3375671,0.04 0.3375671,0.088 0,0.049 -0.1519052,0.1467 -0.3375671,0.218 z"
         id="path6632" />
      <path
         style="fill:#a91a01"
         d="m 3.2403766,1047.9338 -0.095854,0.6407 -0.033719,-0.6189 -0.033719,-0.6188 -0.5063506,-0.01 -0.5063506,-0.01 0.7111636,-0.3093 0.7111638,-0.3094 0.076493,-0.3892 c 0.042071,-0.2141 0.041402,-0.881 -0.00149,-1.4822 l -0.077984,-1.093 -0.5408918,0 -0.540892,0 0,-0.149 c 0,-0.082 0.2574442,-0.5883 0.5720983,-1.1252 l 0.5720983,-0.9762 0.3280806,0 0.3280805,0 0,-0.3376 0,-0.3375 0.7876565,0 0.7876565,0 0,0.3375 0,0.3376 3.0286171,0 3.0286172,0 0.572098,0.9762 c 0.314654,0.5369 0.572098,1.0433 0.572098,1.1252 l 0,0.149 -0.562612,0 -0.562611,0 0,0.8552 0,0.8552 0.281306,0.3032 0.281305,0.3031 -0.384162,-0.1348 -0.384163,-0.1349 0.2144,0.5639 0.2144,0.5639 -0.499184,-0.3496 c -0.274551,-0.1923 -0.679191,-0.3497 -0.8992,-0.3497 l -0.400015,0 0,0.4419 0,0.4419 1.012701,-0.02 1.012701,-0.02 0,-0.1848 0,-0.1848 0.66207,0.2308 0.66207,0.2308 0.29437,0.3764 0.29437,0.3764 -0.39898,-0.3132 -0.39898,-0.3131 0.151717,0.3954 0.151717,0.3953 -0.540393,-0.1638 c -0.297217,-0.09 -0.6366,-0.2536 -0.754186,-0.3635 -0.117586,-0.1099 -0.432671,-0.1997 -0.700188,-0.1997 l -0.486396,0 0.05034,0.5063 0.05034,0.5064 -0.0972,-0.3939 -0.0972,-0.3938 -3.4162791,0 c -1.8789539,0 -3.6364649,-0.062 -3.9055799,-0.1343 l -0.4893001,-0.1312 -0.095854,0.6406 z m 9.6527164,-0.372 c 0.06189,0 0.04993,-0.1013 -0.02656,-0.225 -0.0765,-0.1238 -0.18972,-0.2251 -0.251608,-0.2251 -0.06189,0 -0.04993,0.1013 0.02656,0.2251 0.0765,0.1237 0.189721,0.225 0.251608,0.225 z m -6.2001832,-0.4741 3.4112262,0.031 -0.137855,-0.3593 c -0.07582,-0.1976 -0.1378547,-0.8067 -0.1378547,-1.3535 l 0,-0.9943 -0.6751342,0 -0.6751341,0 0,1.1252 0,1.1252 -0.2250447,0 -0.2250448,0 -0.00345,-0.2813 -0.00345,-0.2813 -0.1653375,0.2598 c -0.090937,0.1429 -0.2666089,0.2598 -0.3903834,0.2598 -0.1237746,0 -0.3009974,-0.1169 -0.3938283,-0.2598 l -0.1687835,-0.2598 -0.2250447,0.3376 -0.2250448,0.3375 -0.1687835,-0.248 -0.1687835,-0.2481 -1.0527077,-0.013 -1.0527078,-0.013 -0.3640447,0.4023 -0.3640447,0.4022 3.4112262,0.031 z m -0.8273873,-1.5513 2.1133036,0 0.091954,-0.7877 0.091955,-0.7876 -0.7424676,0 -0.7424672,0 0,0.6751 0,0.6752 -1.1252236,0 -1.1252236,0 0,-0.6752 0,-0.6751 -0.3375671,0 -0.337567,0 0,0.7876 0,0.7877 2.1133035,0 z m 4.9756045,0 0.787657,0 0,-0.7877 0,-0.7876 -0.787657,0 -0.787656,0 0,0.7876 0,0.7877 0.787656,0 z m -5.8699158,-0.4501 0.3188132,0 0.1141434,-0.2813 0.1141431,-0.2813 0.2170169,0.3101 0.2170167,0.3102 0.2620849,-0.162 0.2620848,-0.162 -0.083725,-0.2512 -0.083725,-0.2511 -0.8283331,-0.053 -0.8283334,-0.053 0,0.4373 0,0.4373 0.3188134,0 z m 9.4706318,2.9256 c -0.06189,0 -0.112522,-0.051 -0.112522,-0.1125 0,-0.062 0.05063,-0.1126 0.112522,-0.1126 0.06189,0 0.112522,0.051 0.112522,0.1126 0,0.062 -0.05064,0.1125 -0.112522,0.1125 z m -11.6030844,-2.0254 c -0.1164698,0 -0.2117632,-0.04 -0.2117632,-0.089 0,-0.049 0.1571649,-0.1487 0.3492554,-0.2224 l 0.3492555,-0.134 -0.1374922,0.2224 c -0.075621,0.1224 -0.2327856,0.2225 -0.3492555,0.2225 z m 2.1644878,-5.4011 -0.5493304,0 -0.1139185,-0.1843 -0.1139188,-0.1843 0.6632491,0.097 c 0.3647869,0.054 0.6632489,0.1365 0.6632489,0.1843 0,0.048 -0.2471986,0.087 -0.5493303,0.087 z m -0.6509081,-0.7501 -0.1500299,0.15 0,-0.3001 0,-0.3 0.1500299,0.15 0.1500296,0.15 -0.1500296,0.1501 z m 0.8626713,0.075 c -0.061887,0 -0.1125223,-0.051 -0.1125223,-0.1125 0,-0.062 0.050635,-0.1126 0.1125223,-0.1126 0.061887,0 0.1125224,0.051 0.1125224,0.1126 0,0.062 -0.050635,0.1125 -0.1125224,0.1125 z m 0.2250447,-0.4501 c -0.061887,0 -0.1125223,-0.051 -0.1125223,-0.1125 0,-0.062 0.050635,-0.1126 0.1125223,-0.1126 0.061887,0 0.1125224,0.051 0.1125224,0.1126 0,0.062 -0.050635,0.1125 -0.1125224,0.1125 z m -0.6751341,-0.3687 -0.3375671,0.1295 0,-0.218 0,-0.2179 0.3375671,0 c 0.1856619,0 0.3375671,0.04 0.3375671,0.088 0,0.049 -0.1519052,0.1467 -0.3375671,0.218 z"
         id="path6630" />
      <path
         style="fill:#532a0e"
         d="m 3.2403766,1047.9338 -0.095854,0.6407 -0.033719,-0.6189 -0.033719,-0.6188 -0.5063506,-0.01 -0.5063506,-0.01 0.6987137,-0.3041 0.6987134,-0.3042 0.1241356,-0.4747 0.1241355,-0.4747 2.2715156,0 2.2715159,0 0,-0.7876 0,-0.7877 0.9001788,0 0.9001791,0 0,0.7741 0,0.7741 0.819555,0.07 0.819556,0.07 0.204272,0.556 0.204272,0.556 -0.531981,-0.4997 -0.531982,-0.4998 -0.379323,0 -0.379324,0 0,0.5544 0,0.5544 1.012701,-0.02 1.012701,-0.02 0,-0.1848 0,-0.1848 0.66207,0.2308 0.66207,0.2308 0.29437,0.3764 0.29437,0.3764 -0.39898,-0.3132 -0.39898,-0.3131 0.151717,0.3954 0.151717,0.3953 -0.540393,-0.1638 c -0.297217,-0.09 -0.6366,-0.2536 -0.754186,-0.3635 -0.117586,-0.1099 -0.432671,-0.1997 -0.700188,-0.1997 l -0.486396,0 0.05034,0.5063 0.05034,0.5064 -0.0972,-0.3939 -0.0972,-0.3938 -3.4162796,0 c -1.8789539,0 -3.6364649,-0.062 -3.9055799,-0.1343 l -0.4893001,-0.1312 -0.095854,0.6406 z m 9.6527164,-0.372 c 0.06189,0 0.04993,-0.1013 -0.02656,-0.225 -0.0765,-0.1238 -0.18972,-0.2251 -0.251608,-0.2251 -0.06189,0 -0.04993,0.1013 0.02656,0.2251 0.0765,0.1237 0.189721,0.225 0.251608,0.225 z m -6.1800516,-0.4739 3.3910946,0.03 -0.137855,-0.3593 c -0.07582,-0.1976 -0.1378547,-0.8067 -0.1378547,-1.3535 l 0,-0.9943 -0.6751342,0 -0.6751341,0 0,1.1682 0,1.1682 -0.3032156,-0.4146 -0.3032154,-0.4147 -0.1669091,0.2701 -0.1669091,0.27 -0.3418846,-0.2837 -0.3418845,-0.2837 -0.3132146,0.4283 -0.3132143,0.4283 0,-0.3805 0,-0.3806 -0.4313358,0 -0.4313355,0 -0.1312762,0.2813 -0.131276,0.2813 -0.1312761,-0.2813 -0.1312762,-0.2813 -0.3750744,0.01 -0.3750746,0.01 -0.3839195,0.5285 -0.3839195,0.5285 3.3910944,0.03 z m 7.7288016,0.924 c -0.06189,0 -0.112522,-0.051 -0.112522,-0.1125 0,-0.062 0.05063,-0.1126 0.112522,-0.1126 0.06189,0 0.112522,0.051 0.112522,0.1126 0,0.062 -0.05064,0.1125 -0.112522,0.1125 z m -11.6030844,-2.0254 c -0.1164698,0 -0.2117632,-0.04 -0.2117632,-0.089 0,-0.049 0.1571649,-0.1487 0.3492554,-0.2224 l 0.3492555,-0.134 -0.1374922,0.2224 c -0.075621,0.1224 -0.2327856,0.2225 -0.3492555,0.2225 z m 9.3226314,0 c -0.127901,0 -0.30006,-0.067 -0.382576,-0.15 l -0.15003,-0.1501 0,-0.9752 0,-0.9752 -3.9382825,0 -3.9382825,0 -0.039317,0.9565 -0.039317,0.9564 -0.086145,-0.9564 -0.086145,-0.9565 -0.5496722,0 -0.5496721,0 0,-0.149 c 0,-0.082 0.2574442,-0.5883 0.5720983,-1.1252 l 0.5720983,-0.9762 0.3280806,0 0.3280805,0 0,-0.3376 0,-0.3375 0.7876565,0 0.7876565,0 0,0.3375 0,0.3376 3.0286171,0 3.0286175,0 0.572098,0.9762 c 0.314654,0.5369 0.572098,1.0433 0.572098,1.1252 l 0,0.149 -0.562612,0 -0.562611,0 0,0.8552 0,0.8552 0.270053,0.27 0.270054,0.2701 -0.232546,0 z m -6.6088133,-0.9002 c -0.1237746,0 -0.2250447,-0.1013 -0.2250447,-0.225 0,-0.1238 0.1012701,-0.2251 0.2250447,-0.2251 0.1237746,0 0.2250447,0.1013 0.2250447,0.2251 0,0.1237 -0.1012701,0.225 -0.2250447,0.225 z m 0.7876565,0 c -0.061887,0 -0.1125224,-0.051 -0.1125224,-0.1125 0,-0.062 0.050635,-0.1125 0.1125224,-0.1125 0.061887,0 0.1125223,0.051 0.1125223,0.1125 0,0.062 -0.050635,0.1125 -0.1125223,0.1125 z m -0.7446768,-0.6786 c -0.085526,0 -0.2976138,-0.093 -0.4713055,-0.2034 l -0.3158037,-0.1999 0.5755143,0.035 0.5755145,0.035 -0.1042088,0.1688 c -0.057315,0.093 -0.1741846,0.1672 -0.2597108,0.1653 z m 0.7446768,0 c -0.061887,0 -0.1125224,-0.051 -0.1125224,-0.1125 0,-0.062 0.050635,-0.1126 0.1125224,-0.1126 0.061887,0 0.1125223,0.051 0.1125223,0.1126 0,0.062 -0.050635,0.1125 -0.1125223,0.1125 z m -1.3369868,-3.8258 -0.5493304,0 -0.1139185,-0.1843 -0.1139188,-0.1843 0.6632491,0.097 c 0.3647869,0.054 0.6632489,0.1365 0.6632489,0.1843 0,0.048 -0.2471986,0.087 -0.5493303,0.087 z m -0.6509081,-0.7501 -0.1500299,0.15 0,-0.3001 0,-0.3 0.1500299,0.15 0.1500296,0.15 -0.1500296,0.1501 z m 0.8626713,0.075 c -0.061887,0 -0.1125223,-0.051 -0.1125223,-0.1125 0,-0.062 0.050635,-0.1126 0.1125223,-0.1126 0.061887,0 0.1125224,0.051 0.1125224,0.1126 0,0.062 -0.050635,0.1125 -0.1125224,0.1125 z m 0.2250447,-0.4501 c -0.061887,0 -0.1125223,-0.051 -0.1125223,-0.1125 0,-0.062 0.050635,-0.1126 0.1125223,-0.1126 0.061887,0 0.1125224,0.051 0.1125224,0.1126 0,0.062 -0.050635,0.1125 -0.1125224,0.1125 z m -0.6751341,-0.3687 -0.3375671,0.1295 0,-0.218 0,-0.2179 0.3375671,0 c 0.1856619,0 0.3375671,0.04 0.3375671,0.088 0,0.049 -0.1519052,0.1467 -0.3375671,0.218 z"
         id="path6628" />
      <path
         style="fill:#105029"
         d="m 3.2403766,1047.9338 -0.095854,0.6407 -0.033719,-0.6189 -0.033719,-0.6188 -0.5063506,-0.01 -0.5063506,-0.01 0.7313953,-0.3179 0.7313954,-0.3178 0,-0.3485 0,-0.3484 0.2509271,0 0.2509271,0 -0.3509195,0.5356 -0.3509192,0.5355 3.3214327,0.03 3.3214327,0.03 -0.097796,-1.4092 c -0.053788,-0.7751 -0.047277,-1.3586 0.01447,-1.2967 0.061747,0.062 0.172701,0.6695 0.246565,1.3502 0.07386,0.6808 0.136756,1.2594 0.13976,1.2858 0.003,0.026 0.461178,0.039 1.018164,0.028 l 1.012701,-0.02 0,-0.1754 0,-0.1754 0.45009,0.1177 0.450089,0.1177 0,0.2228 0,0.2229 -0.337567,-0.1295 -0.337567,-0.1296 0,0.218 0,0.218 0.324285,0 c 0.178358,0 0.381038,0.092 0.4504,0.2041 l 0.126115,0.204 -0.453907,-0.1187 c -0.249649,-0.065 -0.508941,-0.2077 -0.576204,-0.3166 l -0.122297,-0.1978 -0.518123,0 -0.518123,0 0.05034,0.5063 0.05034,0.5064 -0.0972,-0.3939 -0.0972,-0.3938 -3.4162798,0 c -1.8789539,0 -3.6364649,-0.062 -3.9055799,-0.1343 l -0.4893001,-0.1312 -0.095854,0.6406 z m 11.2014664,0.078 c -0.06189,0 -0.112522,-0.051 -0.112522,-0.1125 0,-0.062 0.05063,-0.1126 0.112522,-0.1126 0.06189,0 0.112522,0.051 0.112522,0.1126 0,0.062 -0.05064,0.1125 -0.112522,0.1125 z m -0.648571,-0.4501 c -0.06189,0 -0.175111,-0.1013 -0.251608,-0.225 -0.0765,-0.1238 -0.08845,-0.2251 -0.02656,-0.2251 0.06189,0 0.175111,0.1013 0.251608,0.2251 0.0765,0.1237 0.08845,0.225 0.02656,0.225 z m -1.840072,-0.6751 c -0.04594,0 -0.18756,-0.1944 -0.3147,-0.432 l -0.231165,-0.4319 0.177669,-0.074 0.177668,-0.074 -0.0896,-1.069 -0.08961,-1.069 -3.9156222,0 -3.9156218,0 -0.037831,0.844 -0.037831,0.8439 -0.088277,-0.8439 -0.088277,-0.844 -0.5490268,0 -0.5490269,0 0,-0.149 c 0,-0.082 0.2574442,-0.5883 0.5720983,-1.1252 l 0.5720983,-0.9762 0.3280806,0 0.3280805,0 0,-0.3376 0,-0.3375 0.5626118,0 0.5626118,0 0.022432,0.5063 0.022432,0.5064 0.1801798,-0.5627 0.1801798,-0.5626 0.022432,0.3939 0.022432,0.3938 3.0286171,0 3.0286177,0 0.572098,0.9762 c 0.314654,0.5369 0.572098,1.0433 0.572098,1.1252 l 0,0.149 -0.562612,0 -0.562611,0 0,0.8552 0,0.8552 0.270053,0.27 0.270054,0.2701 -0.296301,0 -0.296301,0 0.117701,0.4501 c 0.06474,0.2475 0.08011,0.4501 0.03417,0.4501 z m -7.0757575,-5.1761 0.3000596,0 -0.1500297,-0.15 -0.1500299,-0.15 -0.1500298,0.15 -0.1500297,0.15 0.3000595,0 z m -0.093769,-0.4678 0.4313358,-0.018 -0.2953712,-0.1182 -0.2953712,-0.1182 -0.1359646,0.136 -0.1359643,0.1359 0.4313355,-0.018 z m 1.5565594,4.9687 c -0.061887,0 -0.1125224,-0.051 -0.1125224,-0.1125 0,-0.062 0.050635,-0.1125 0.1125224,-0.1125 0.061887,0 0.1125223,0.051 0.1125223,0.1125 0,0.062 -0.050635,0.1125 -0.1125223,0.1125 z m 1.1252236,0 c -0.061887,0 -0.1125224,-0.051 -0.1125224,-0.1125 0,-0.062 0.050635,-0.1125 0.1125224,-0.1125 0.061887,0 0.1125223,0.051 0.1125223,0.1125 0,0.062 -0.050635,0.1125 -0.1125223,0.1125 z m -4.6266982,-0.225 c -0.1164698,0 -0.2117632,-0.04 -0.2117632,-0.089 0,-0.049 0.1571649,-0.1487 0.3492554,-0.2224 l 0.3492555,-0.134 -0.1374922,0.2224 c -0.075621,0.1224 -0.2327856,0.2225 -0.3492555,0.2225 z m 5.526877,0 c -0.061887,0 -0.1125223,-0.051 -0.1125223,-0.1125 0,-0.062 0.050635,-0.1126 0.1125223,-0.1126 0.061887,0 0.1125224,0.051 0.1125224,0.1126 0,0.062 -0.050635,0.1125 -0.1125224,0.1125 z m -2.8130589,-0.9002 -0.3000596,0 0.1500297,-0.15 0.1500299,-0.1501 0.1500299,0.1501 0.1500296,0.15 -0.3000595,0 z m 0,-0.6751 -0.3000596,0 0.1500297,-0.1501 0.1500299,-0.15 0.1500299,0.15 0.1500296,0.1501 -0.3000595,0 z m 0.7876565,0 c -0.061887,0 -0.1125224,-0.051 -0.1125224,-0.1125 0,-0.062 0.050635,-0.1126 0.1125224,-0.1126 0.061887,0 0.1125223,0.051 0.1125223,0.1126 0,0.062 -0.050635,0.1125 -0.1125223,0.1125 z m -1.3369868,-3.8258 -0.5493304,0 -0.1139185,-0.1843 -0.1139188,-0.1843 0.6632491,0.097 c 0.3647869,0.054 0.6632489,0.1365 0.6632489,0.1843 0,0.048 -0.2471986,0.087 -0.5493303,0.087 z m -0.6509081,-0.7501 -0.1500299,0.15 0,-0.3001 0,-0.3 0.1500299,0.15 0.1500296,0.15 -0.1500296,0.1501 z m 0.8626713,0.075 c -0.061887,0 -0.1125223,-0.051 -0.1125223,-0.1125 0,-0.062 0.050635,-0.1126 0.1125223,-0.1126 0.061887,0 0.1125224,0.051 0.1125224,0.1126 0,0.062 -0.050635,0.1125 -0.1125224,0.1125 z m 0.2250447,-0.4501 c -0.061887,0 -0.1125223,-0.051 -0.1125223,-0.1125 0,-0.062 0.050635,-0.1126 0.1125223,-0.1126 0.061887,0 0.1125224,0.051 0.1125224,0.1126 0,0.062 -0.050635,0.1125 -0.1125224,0.1125 z m -0.6751341,-0.3687 -0.3375671,0.1295 0,-0.218 0,-0.2179 0.3375671,0 c 0.1856619,0 0.3375671,0.04 0.3375671,0.088 0,0.049 -0.1519052,0.1467 -0.3375671,0.218 z"
         id="path6626" />
      <path
         style="fill:#012916"
         d="m 3.2221993,1048.462 c -0.051716,0 -0.1392739,-0.3083 -0.1945726,-0.6851 l -0.1005427,-0.685 0.1425057,-0.088 0.142506,-0.088 0.052067,0.7732 c 0.028637,0.4252 0.00975,0.7731 -0.041963,0.7731 z m 8.1080127,-0.1762 -0.115984,0.2887 -0.01777,-0.5008 -0.01777,-0.5007 -3.6569771,-0.068 -3.6569766,-0.068 3.6640397,-0.05 3.66404,-0.05 0.126687,0.3301 0.126688,0.3301 -0.115984,0.2888 z m 2.042669,-0.2882 c -0.03094,-0.01 -0.273757,-0.102 -0.539584,-0.2092 -0.265827,-0.1073 -0.546026,-0.2965 -0.622663,-0.4205 l -0.13934,-0.2255 0.678924,0.3387 c 0.373408,0.1863 0.678924,0.3819 0.678924,0.4348 0,0.053 -0.02532,0.09 -0.05626,0.082 z m 1.068962,0.014 c -0.06189,0 -0.112522,-0.051 -0.112522,-0.1125 0,-0.062 0.05063,-0.1126 0.112522,-0.1126 0.06189,0 0.112522,0.051 0.112522,0.1126 0,0.062 -0.05064,0.1125 -0.112522,0.1125 z m -0.648571,-0.4501 c -0.06189,0 -0.175111,-0.1013 -0.251608,-0.225 -0.0765,-0.1238 -0.08845,-0.2251 -0.02656,-0.2251 0.06189,0 0.175111,0.1013 0.251608,0.2251 0.0765,0.1237 0.08845,0.225 0.02656,0.225 z m -0.800938,-0.225 c -0.11647,0 -0.274352,-0.1013 -0.350849,-0.2251 l -0.139085,-0.225 0.350848,0 0.350849,0 0,0.225 c 0,0.1238 -0.09529,0.2251 -0.211763,0.2251 z m -9.3114286,-0.858 -0.1181977,0.2953 -0.017767,-0.4313 -0.017767,-0.4313 0.1359645,0.1359 0.1359644,0.136 -0.1181978,0.2954 z m 6.30871,-0.3235 -0.093751,0.6188 0,-1.2377 0,-1.2377 0.093751,0.6188 c 0.051564,0.3404 0.051564,0.8974 0,1.2378 z m 1.7928996,0.3235 -0.118198,0.2953 -0.01777,-0.4313 -0.01777,-0.4313 0.135965,0.1359 0.135964,0.136 -0.118198,0.2954 z m -8.9437564,-0.4923 c -0.1164698,0 -0.2117632,-0.04 -0.2117632,-0.089 0,-0.049 0.1571649,-0.1487 0.3492554,-0.2224 l 0.3492555,-0.134 -0.1374922,0.2224 c -0.075621,0.1224 -0.2327856,0.2225 -0.3492555,0.2225 z m 9.4426554,0 c -0.06189,0 -0.234047,-0.1215 -0.382576,-0.2701 l -0.270054,-0.27 0,-0.8552 0,-0.8552 -3.9382825,0 -3.9382825,0 -0.037831,0.844 -0.037831,0.8439 -0.088277,-0.8439 -0.088277,-0.844 -0.5490268,0 c -0.3019647,0 -0.5490269,-0.058 -0.5490269,-0.1287 0,-0.071 0.2627982,-0.5771 0.583996,-1.1252 l 0.583996,-0.9965 0.3161828,0 0.3161829,0 0,-0.3376 0,-0.3375 0.5626118,0 0.5626118,0 0.022432,0.5063 0.022432,0.5064 0.1801798,-0.5627 0.1801798,-0.5626 0.022432,0.3939 0.022432,0.3938 3.0167194,0 3.0167194,0 0.583996,0.9965 c 0.321198,0.5481 0.583996,1.0544 0.583996,1.1252 0,0.071 -0.253175,0.1287 -0.562612,0.1287 l -0.562611,0 0,0.8552 0,0.8552 0.270053,0.27 c 0.14853,0.1486 0.219419,0.2701 0.157532,0.2701 z m -9.2176106,-2.4755 c 0.2548539,0 0.4633709,-0.04 0.4633709,-0.088 0,-0.049 -0.1486621,-0.1455 -0.3303601,-0.2153 l -0.33036,-0.1267 -0.1330109,0.2152 -0.1330108,0.2152 0.4633709,0 z m 1.1252235,0 c 0.2548539,0 0.4633709,-0.04 0.4633709,-0.088 0,-0.049 -0.148662,-0.1455 -0.33036,-0.2153 l -0.33036,-0.1267 -0.1330109,0.2152 -0.1330109,0.2152 0.4633709,0 z m 1.0259827,0 0.3375671,0 0,-0.218 0,-0.218 -0.3375671,0.1296 c -0.1856619,0.071 -0.3375671,0.1693 -0.3375671,0.218 0,0.049 0.1519052,0.088 0.3375671,0.088 z m 1.138505,0 0.3508486,0 -0.1390853,-0.225 c -0.076497,-0.1238 -0.2343787,-0.2251 -0.3508485,-0.2251 -0.1164699,0 -0.2117633,0.1013 -0.2117633,0.2251 l 0,0.225 0.3508485,0 z m 0.9001789,0 0.3508485,0 -0.1413539,-0.2287 -0.1413542,-0.2287 -0.2094944,0.1294 c -0.115222,0.071 -0.2094945,0.1742 -0.2094945,0.2288 0,0.054 0.1578819,0.099 0.3508485,0.099 z m 0.9001789,0 0.3508485,0 -0.141354,-0.2287 -0.1413542,-0.2287 -0.2094943,0.1294 c -0.115222,0.071 -0.2094946,0.1742 -0.2094946,0.2288 0,0.054 0.1578819,0.099 0.3508486,0.099 z m 1.2244644,0 c 0.2475492,0 0.4500895,-0.039 0.4500895,-0.086 0,-0.047 -0.2025403,-0.1392 -0.4500895,-0.204 l -0.4500894,-0.1177 0,0.204 0,0.204 0.4500894,0 z m 1.0259832,0 0.350848,0 -0.139085,-0.225 c -0.0765,-0.1238 -0.234379,-0.2251 -0.350849,-0.2251 -0.11647,0 -0.211763,0.1013 -0.211763,0.2251 l 0,0.225 0.350849,0 z m 0.900178,0 0.350849,0 -0.141354,-0.2287 -0.141354,-0.2287 -0.209495,0.1294 c -0.115222,0.071 -0.209494,0.1742 -0.209494,0.2288 0,0.054 0.157882,0.099 0.350848,0.099 z m 1.125224,0 0.350848,0 -0.139085,-0.225 c -0.0765,-0.1238 -0.234378,-0.2251 -0.350848,-0.2251 -0.11647,0 -0.211764,0.1013 -0.211764,0.2251 l 0,0.225 0.350849,0 z m -9.0283516,-0.6751 0.3508486,0 0,-0.2251 c 0,-0.1238 -0.095293,-0.225 -0.2117633,-0.225 -0.1164698,0 -0.2743515,0.1012 -0.3508485,0.225 l -0.1390853,0.2251 0.3508485,0 z m 1.0127012,0 c 0.1164699,0 0.2743516,-0.1013 0.3508486,-0.2251 l 0.1390853,-0.225 -0.3508486,0 -0.3508485,0 0,0.225 c 0,0.1238 0.095293,0.2251 0.2117632,0.2251 z m 0.9134604,0 c 0.1237746,0 0.2250447,-0.1013 0.2250447,-0.2251 0,-0.1238 -0.1012701,-0.225 -0.2250447,-0.225 -0.1237746,0 -0.2250447,0.1012 -0.2250447,0.225 0,0.1238 0.1012701,0.2251 0.2250447,0.2251 z m 1.0259826,0 0.3508486,0 -0.1390853,-0.2251 c -0.076497,-0.1238 -0.2343787,-0.225 -0.3508485,-0.225 -0.1164699,0 -0.2117633,0.1012 -0.2117633,0.225 l 0,0.2251 0.3508485,0 z m 0.7743751,0 c 0.1237746,0 0.2250447,-0.1013 0.2250447,-0.2251 0,-0.1238 -0.1012701,-0.225 -0.2250447,-0.225 -0.1237746,0 -0.2250447,0.1012 -0.2250447,0.225 0,0.1238 0.1012701,0.2251 0.2250447,0.2251 z m 1.0259827,0 0.3508485,0 -0.1390853,-0.2251 c -0.076497,-0.1238 -0.2343787,-0.225 -0.3508485,-0.225 -0.1164699,0 -0.2117633,0.1012 -0.2117633,0.225 l 0,0.2251 0.3508486,0 z m 0.8868974,0 0.337567,0 0,-0.2251 0,-0.225 -0.337567,0 -0.3375671,0 0,0.225 0,0.2251 0.3375671,0 z m 1.0127012,0 c 0.123775,0 0.225045,-0.1013 0.225045,-0.2251 0,-0.1238 -0.10127,-0.225 -0.225045,-0.225 -0.1237746,0 -0.2250447,0.1012 -0.2250447,0.225 0,0.1238 0.1012701,0.2251 0.2250447,0.2251 z m 1.025983,0 0.350848,0 -0.139085,-0.2251 c -0.0765,-0.1238 -0.234379,-0.225 -0.350849,-0.225 -0.11647,0 -0.211763,0.1012 -0.211763,0.225 l 0,0.2251 0.350849,0 z m 1.025982,0 0.225045,0 -0.139085,-0.2251 c -0.0765,-0.1238 -0.240356,-0.225 -0.36413,-0.225 l -0.225045,0 0.139085,0.225 c 0.0765,0.1238 0.240356,0.2251 0.36413,0.2251 z m -7.2279935,-1.0127 c 0.1237746,-0.077 0.2250448,-0.1838 0.2250448,-0.2384 0,-0.055 -0.1012702,-0.099 -0.2250448,-0.099 l -0.2250447,0 0,0.2383 0,0.2383 0.2250447,-0.139 z m -0.093769,-0.5804 0.4313358,-0.018 -0.2953712,-0.1182 -0.2953712,-0.1182 -0.1359646,0.136 -0.1359643,0.1359 0.4313355,-0.018 z m 0.7689029,3.8435 -0.3000596,0 0.1500297,-0.15 0.1500299,-0.1501 0.1500299,0.1501 0.1500296,0.15 -0.3000595,0 z m 0,-0.6751 -0.3000596,0 0.1500297,-0.1501 0.1500299,-0.15 0.1500299,0.15 0.1500296,0.1501 -0.3000595,0 z m -0.5626118,-3.8697 -0.6751341,0.01 0.2770228,-0.1121 c 0.1523627,-0.062 0.4561731,-0.065 0.6751341,-0.01 l 0.3981113,0.1037 -0.6751341,0.01 z m -0.6376266,-0.7062 -0.1500299,0.15 0,-0.3001 0,-0.3 0.1500299,0.15 0.1500296,0.15 -0.1500296,0.1501 z m 0.1875372,-0.8252 c -0.061887,0 -0.1125224,-0.051 -0.1125224,-0.1125 0,-0.062 0.050635,-0.1125 0.1125224,-0.1125 0.061887,0 0.1125223,0.051 0.1125223,0.1125 0,0.062 -0.050635,0.1125 -0.1125223,0.1125 z"
         id="path6624" />
      <path
         style="fill:#09140e"
         d="m 3.2221993,1048.462 c -0.051716,0 -0.1392739,-0.3083 -0.1945726,-0.6851 l -0.1005427,-0.685 0.1425057,-0.088 0.142506,-0.088 0.052067,0.7732 c 0.028637,0.4252 0.00975,0.7731 -0.041963,0.7731 z m 8.1080127,-0.1762 -0.115984,0.2887 -0.01777,-0.5008 -0.01777,-0.5007 -3.6569771,-0.068 -3.6569766,-0.068 3.6640397,-0.05 3.66404,-0.05 0.126687,0.3301 0.126688,0.3301 -0.115984,0.2888 z m 2.05595,-0.2774 c -0.03825,0 -0.221448,-0.1016 -0.40711,-0.2216 l -0.337567,-0.2181 0.268025,0 c 0.147413,0 0.330612,0.098 0.407109,0.2216 0.0765,0.1238 0.107791,0.2235 0.06954,0.2216 z m 1.055681,0 c -0.06189,0 -0.112522,-0.051 -0.112522,-0.1125 0,-0.062 0.05063,-0.1126 0.112522,-0.1126 0.06189,0 0.112522,0.051 0.112522,0.1126 0,0.062 -0.05064,0.1125 -0.112522,0.1125 z m -1.99884,-0.4501 c -0.06189,0 -0.17511,-0.1013 -0.251607,-0.225 -0.0765,-0.1238 -0.08845,-0.2251 -0.02656,-0.2251 0.06189,0 0.17511,0.1013 0.251607,0.2251 0.0765,0.1237 0.08845,0.225 0.02656,0.225 z m 1.350269,0 c -0.06189,0 -0.175111,-0.1013 -0.251608,-0.225 -0.0765,-0.1238 -0.08845,-0.2251 -0.02656,-0.2251 0.06189,0 0.175111,0.1013 0.251608,0.2251 0.0765,0.1237 0.08845,0.225 0.02656,0.225 z m -0.800938,-0.225 c -0.11647,0 -0.274352,-0.1013 -0.350849,-0.2251 l -0.139085,-0.225 0.350848,0 0.350849,0 0,0.225 c 0,0.1238 -0.09529,0.2251 -0.211763,0.2251 z m -9.3526374,-0.6752 c -0.061887,0 -0.1125223,-0.051 -0.1125223,-0.1125 0,-0.062 0.050635,-0.1125 0.1125223,-0.1125 0.061887,0 0.1125224,0.051 0.1125224,0.1125 0,0.062 -0.050635,0.1125 -0.1125224,0.1125 z m 6.3387595,-0.075 -0.1500298,0.15 0,-0.3 0,-0.3001 0.1500298,0.15 0.1500299,0.1501 -0.1500299,0.15 z m 1.8040589,-0.1078 -0.118198,0.2953 -0.01777,-0.4313 -0.01777,-0.4313 0.135965,0.1359 0.135964,0.136 -0.118198,0.2954 z m -8.1428184,-0.2673 c -0.061887,0 -0.1125223,-0.051 -0.1125223,-0.1125 0,-0.062 0.050635,-0.1125 0.1125223,-0.1125 0.061887,0 0.1125224,0.051 0.1125224,0.1125 0,0.062 -0.050635,0.1125 -0.1125224,0.1125 z m -0.5626118,-0.3375 c -0.1237746,0.076 -0.2250447,0.088 -0.2250447,0.026 0,-0.062 0.1012701,-0.1751 0.2250447,-0.2516 0.1237746,-0.076 0.2250447,-0.088 0.2250447,-0.026 0,0.062 -0.1012701,0.1751 -0.2250447,0.2516 z m 9.2043292,0.1125 c -0.06189,0 -0.234047,-0.1215 -0.382576,-0.2701 l -0.270054,-0.27 0,-0.8552 0,-0.8552 -3.9382825,0 -3.9382825,0 -0.037831,0.844 -0.037831,0.8439 -0.088277,-0.8439 -0.088277,-0.844 -0.5490268,0 -0.5490269,0 0,-0.1938 0,-0.1938 0.5310801,0.1015 0.5310803,0.1015 0.1289065,-0.4929 0.1289067,-0.493 0.2853689,0.1764 0.2853688,0.1764 -0.2702215,0.09 c -0.1486218,0.05 -0.2702215,0.1829 -0.2702215,0.2964 l 0,0.2063 0.4500894,0 0.4500894,0 0.034277,-0.3938 c 0.018852,-0.2166 0.045462,-0.5133 0.059131,-0.6593 0.013669,-0.146 0.099515,-0.3401 0.1907672,-0.4313 0.091252,-0.091 0.1659134,-0.2503 0.1659134,-0.3535 0,-0.1031 -0.1037767,-0.1875 -0.2306148,-0.1875 l -0.2306148,0 -0.2032208,0.5345 -0.203221,0.5345 -0.5733111,-0.1096 -0.5733111,-0.1096 0.2274081,-0.4249 0.2274084,-0.4249 0.3296491,0 0.3296491,0 0,-0.3376 0,-0.3375 0.5918793,0 0.5918795,0 -0.116928,0.9564 c -0.06431,0.526 -0.1895858,1.1337 -0.2783896,1.3503 l -0.1614617,0.3938 0.8961256,0 0.8961256,0 0,-0.5626 0,-0.5626 -0.47822,-5e-4 -0.4782201,-4e-4 -0.032251,-0.8435 -0.032251,-0.8435 0.1050131,0.3939 0.1050131,0.3938 3.0136844,0 3.0136847,0 0.24088,0.4501 0.240881,0.4501 -0.232963,0 -0.232962,0 0,-0.3376 0,-0.3376 -0.249122,0 -0.249122,0 0.105717,0.2813 c 0.05814,0.1548 0.181099,0.5219 0.273232,0.8159 l 0.167515,0.5345 -0.249155,-0.154 c -0.137035,-0.085 -0.249155,-0.2999 -0.249155,-0.4782 l 0,-0.3243 -0.225044,0 -0.225045,0 0.05626,-0.2532 0.05626,-0.2532 -0.317167,-0.1151 -0.317166,-0.1151 0.14132,0.3683 0.14132,0.3683 -0.330504,0 -0.330504,0 0,-0.3376 0,-0.3376 -0.249122,0 -0.249122,0 0.1295367,0.3376 0.1295366,0.3376 -0.4992876,-0.018 -0.4992876,-0.018 0.2827082,-0.1139 0.2827079,-0.114 -0.1272058,-0.2058 c -0.069964,-0.1132 -0.2301319,-0.2059 -0.3559301,-0.2059 l -0.2287242,0 0.064916,0.6189 0.064916,0.6189 -0.2164417,0.1125 -0.2164415,0.1125 -0.022282,-0.3375 c -0.012254,-0.1857 -0.037706,-0.5148 -0.056558,-0.7314 l -0.034276,-0.3939 -0.2491221,0 -0.249122,0 0.1295366,0.3376 0.1295367,0.3376 -0.3305041,0 -0.330504,0 0,-0.3376 0,-0.3376 -0.1687835,4e-4 -0.1687836,3e-4 -0.061698,0.8999 -0.061698,0.8998 1.4833924,0 1.4833924,0 -0.1288737,-0.5064 -0.1288737,-0.5063 0.260621,0.5063 0.2606207,0.5064 0.318342,0 0.318343,0 -0.151798,-0.4783 -0.151797,-0.4782 0.249154,0.1539 0.249155,0.154 0,0.347 0,0.3469 1.012701,-0.081 1.012701,-0.081 0,0.1704 0,0.1704 -0.562612,0 -0.562611,0 0,0.8552 0,0.8552 0.270053,0.27 c 0.14853,0.1486 0.219419,0.2701 0.157532,0.2701 z m -8.5424765,-3.8258 c 0.1164699,0 0.2743516,-0.1012 0.3508485,-0.225 l 0.1390853,-0.2251 -0.3508485,0 -0.3508485,0 0,0.2251 c 0,0.1238 0.095293,0.225 0.2117632,0.225 z m 2.6012957,0 0.3375671,0 0,-0.225 0,-0.2251 -0.3375671,0 -0.3375671,0 0,0.2251 0,0.225 0.3375671,0 z m -1.5565594,-0.9179 0.4313358,-0.018 -0.2953712,-0.1182 -0.2953712,-0.1182 -0.1359646,0.136 -0.1359643,0.1359 0.4313355,-0.018 z m 5.1998816,4.2373 -0.1029181,0.3939 0,-0.7877 0,-0.7876 0.1029181,0.3938 c 0.056605,0.2166 0.056605,0.571 0,0.7876 z m -4.4309787,-0.3938 -0.3000596,0 0.1500297,-0.15 0.1500299,-0.1501 0.1500299,0.1501 0.1500296,0.15 -0.3000595,0 z m 0,-0.6751 -0.3000596,0 0.1500297,-0.1501 0.1500299,-0.15 0.1500299,0.15 0.1500296,0.1501 -0.3000595,0 z m 0.2250447,-1.2378 -0.2250447,0.1391 0,-0.2383 0,-0.2383 0.2250447,0 c 0.1237746,0 0.2250447,0.045 0.2250447,0.099 0,0.055 -0.1012701,0.1618 -0.2250447,0.2383 z m 1.9261615,0.1126 c -0.054583,0 -0.1618292,-0.1013 -0.2383261,-0.2251 l -0.1390853,-0.225 0.2383261,0 0.2383262,0 0,0.225 c 0,0.1238 -0.044658,0.2251 -0.099241,0.2251 z m -4.8517428,-0.2251 c -0.1237746,0 -0.2250447,-0.045 -0.2250447,-0.099 0,-0.055 0.1012701,-0.1619 0.2250447,-0.2384 l 0.2250447,-0.139 0,0.2383 0,0.2383 -0.2250447,0 z m 9.6902039,0 -0.238326,0 0,-0.225 c 0,-0.1238 0.04466,-0.2251 0.09924,-0.2251 0.05458,0 0.161829,0.1013 0.238326,0.2251 l 0.139085,0.225 -0.238326,0 z m -7.4397567,-2.511 -0.5626118,0 0.2813059,-0.1135 0.2813059,-0.1135 0.2813058,0.1135 0.2813059,0.1135 -0.5626117,0 z m -0.750149,-0.7146 -0.1500299,0.15 0,-0.3001 0,-0.3 0.1500299,0.15 0.1500296,0.15 -0.1500296,0.1501 z m 0.1875372,-0.8252 c -0.061887,0 -0.1125224,-0.051 -0.1125224,-0.1125 0,-0.062 0.050635,-0.1125 0.1125224,-0.1125 0.061887,0 0.1125223,0.051 0.1125223,0.1125 0,0.062 -0.050635,0.1125 -0.1125223,0.1125 z"
         id="path6622" />
    </g>
  </g>
</svg>
