<?xml version="1.0" encoding="UTF-8" standalone="no"?>
<!-- Created with Inkscape (http://www.inkscape.org/) -->

<svg
   xmlns:dc="http://purl.org/dc/elements/1.1/"
   xmlns:cc="http://creativecommons.org/ns#"
   xmlns:rdf="http://www.w3.org/1999/02/22-rdf-syntax-ns#"
   xmlns:svg="http://www.w3.org/2000/svg"
   xmlns="http://www.w3.org/2000/svg"
   xmlns:sodipodi="http://sodipodi.sourceforge.net/DTD/sodipodi-0.dtd"
   xmlns:inkscape="http://www.inkscape.org/namespaces/inkscape"
   width="16"
   height="16"
   id="svg2"
   version="1.1"
   inkscape:version="0.47 r22583"
   sodipodi:docname="CAR1-32.svg">
  <defs
     id="defs4">
    <inkscape:perspective
       sodipodi:type="inkscape:persp3d"
       inkscape:vp_x="0 : 526.18109 : 1"
       inkscape:vp_y="0 : 1000 : 0"
       inkscape:vp_z="744.09448 : 526.18109 : 1"
       inkscape:persp3d-origin="372.04724 : 350.78739 : 1"
       id="perspective10" />
    <inkscape:perspective
       id="perspective2824"
       inkscape:persp3d-origin="0.5 : 0.33333333 : 1"
       inkscape:vp_z="1 : 0.5 : 1"
       inkscape:vp_y="0 : 1000 : 0"
       inkscape:vp_x="0 : 0.5 : 1"
       sodipodi:type="inkscape:persp3d" />
    <inkscape:perspective
       id="perspective5878"
       inkscape:persp3d-origin="0.5 : 0.33333333 : 1"
       inkscape:vp_z="1 : 0.5 : 1"
       inkscape:vp_y="0 : 1000 : 0"
       inkscape:vp_x="0 : 0.5 : 1"
       sodipodi:type="inkscape:persp3d" />
    <inkscape:perspective
       id="perspective5921"
       inkscape:persp3d-origin="0.5 : 0.33333333 : 1"
       inkscape:vp_z="1 : 0.5 : 1"
       inkscape:vp_y="0 : 1000 : 0"
       inkscape:vp_x="0 : 0.5 : 1"
       sodipodi:type="inkscape:persp3d" />
    <inkscape:perspective
       id="perspective5943"
       inkscape:persp3d-origin="0.5 : 0.33333333 : 1"
       inkscape:vp_z="1 : 0.5 : 1"
       inkscape:vp_y="0 : 1000 : 0"
       inkscape:vp_x="0 : 0.5 : 1"
       sodipodi:type="inkscape:persp3d" />
    <inkscape:perspective
       id="perspective5989"
       inkscape:persp3d-origin="0.5 : 0.33333333 : 1"
       inkscape:vp_z="1 : 0.5 : 1"
       inkscape:vp_y="0 : 1000 : 0"
       inkscape:vp_x="0 : 0.5 : 1"
       sodipodi:type="inkscape:persp3d" />
    <inkscape:perspective
       id="perspective6011"
       inkscape:persp3d-origin="0.5 : 0.33333333 : 1"
       inkscape:vp_z="1 : 0.5 : 1"
       inkscape:vp_y="0 : 1000 : 0"
       inkscape:vp_x="0 : 0.5 : 1"
       sodipodi:type="inkscape:persp3d" />
    <inkscape:perspective
       id="perspective6033"
       inkscape:persp3d-origin="0.5 : 0.33333333 : 1"
       inkscape:vp_z="1 : 0.5 : 1"
       inkscape:vp_y="0 : 1000 : 0"
       inkscape:vp_x="0 : 0.5 : 1"
       sodipodi:type="inkscape:persp3d" />
    <inkscape:perspective
       id="perspective6245"
       inkscape:persp3d-origin="0.5 : 0.33333333 : 1"
       inkscape:vp_z="1 : 0.5 : 1"
       inkscape:vp_y="0 : 1000 : 0"
       inkscape:vp_x="0 : 0.5 : 1"
       sodipodi:type="inkscape:persp3d" />
    <inkscape:perspective
       id="perspective6269"
       inkscape:persp3d-origin="0.5 : 0.33333333 : 1"
       inkscape:vp_z="1 : 0.5 : 1"
       inkscape:vp_y="0 : 1000 : 0"
       inkscape:vp_x="0 : 0.5 : 1"
       sodipodi:type="inkscape:persp3d" />
    <inkscape:perspective
       id="perspective6364"
       inkscape:persp3d-origin="0.5 : 0.33333333 : 1"
       inkscape:vp_z="1 : 0.5 : 1"
       inkscape:vp_y="0 : 1000 : 0"
       inkscape:vp_x="0 : 0.5 : 1"
       sodipodi:type="inkscape:persp3d" />
    <inkscape:perspective
       id="perspective6396"
       inkscape:persp3d-origin="0.5 : 0.33333333 : 1"
       inkscape:vp_z="1 : 0.5 : 1"
       inkscape:vp_y="0 : 1000 : 0"
       inkscape:vp_x="0 : 0.5 : 1"
       sodipodi:type="inkscape:persp3d" />
    <inkscape:perspective
       id="perspective6438"
       inkscape:persp3d-origin="0.5 : 0.33333333 : 1"
       inkscape:vp_z="1 : 0.5 : 1"
       inkscape:vp_y="0 : 1000 : 0"
       inkscape:vp_x="0 : 0.5 : 1"
       sodipodi:type="inkscape:persp3d" />
    <inkscape:perspective
       id="perspective6460"
       inkscape:persp3d-origin="0.5 : 0.33333333 : 1"
       inkscape:vp_z="1 : 0.5 : 1"
       inkscape:vp_y="0 : 1000 : 0"
       inkscape:vp_x="0 : 0.5 : 1"
       sodipodi:type="inkscape:persp3d" />
    <inkscape:perspective
       id="perspective6480"
       inkscape:persp3d-origin="0.5 : 0.33333333 : 1"
       inkscape:vp_z="1 : 0.5 : 1"
       inkscape:vp_y="0 : 1000 : 0"
       inkscape:vp_x="0 : 0.5 : 1"
       sodipodi:type="inkscape:persp3d" />
    <inkscape:perspective
       id="perspective6504"
       inkscape:persp3d-origin="0.5 : 0.33333333 : 1"
       inkscape:vp_z="1 : 0.5 : 1"
       inkscape:vp_y="0 : 1000 : 0"
       inkscape:vp_x="0 : 0.5 : 1"
       sodipodi:type="inkscape:persp3d" />
    <inkscape:perspective
       id="perspective6524"
       inkscape:persp3d-origin="0.5 : 0.33333333 : 1"
       inkscape:vp_z="1 : 0.5 : 1"
       inkscape:vp_y="0 : 1000 : 0"
       inkscape:vp_x="0 : 0.5 : 1"
       sodipodi:type="inkscape:persp3d" />
    <inkscape:perspective
       id="perspective6548"
       inkscape:persp3d-origin="0.5 : 0.33333333 : 1"
       inkscape:vp_z="1 : 0.5 : 1"
       inkscape:vp_y="0 : 1000 : 0"
       inkscape:vp_x="0 : 0.5 : 1"
       sodipodi:type="inkscape:persp3d" />
    <inkscape:perspective
       id="perspective6572"
       inkscape:persp3d-origin="0.5 : 0.33333333 : 1"
       inkscape:vp_z="1 : 0.5 : 1"
       inkscape:vp_y="0 : 1000 : 0"
       inkscape:vp_x="0 : 0.5 : 1"
       sodipodi:type="inkscape:persp3d" />
    <inkscape:perspective
       id="perspective6594"
       inkscape:persp3d-origin="0.5 : 0.33333333 : 1"
       inkscape:vp_z="1 : 0.5 : 1"
       inkscape:vp_y="0 : 1000 : 0"
       inkscape:vp_x="0 : 0.5 : 1"
       sodipodi:type="inkscape:persp3d" />
    <inkscape:perspective
       id="perspective6614"
       inkscape:persp3d-origin="0.5 : 0.33333333 : 1"
       inkscape:vp_z="1 : 0.5 : 1"
       inkscape:vp_y="0 : 1000 : 0"
       inkscape:vp_x="0 : 0.5 : 1"
       sodipodi:type="inkscape:persp3d" />
    <inkscape:perspective
       id="perspective6650"
       inkscape:persp3d-origin="0.5 : 0.33333333 : 1"
       inkscape:vp_z="1 : 0.5 : 1"
       inkscape:vp_y="0 : 1000 : 0"
       inkscape:vp_x="0 : 0.5 : 1"
       sodipodi:type="inkscape:persp3d" />
  </defs>
  <sodipodi:namedview
     id="base"
     pagecolor="#ffffff"
     bordercolor="#666666"
     borderopacity="1.0"
     inkscape:pageopacity="0.0"
     inkscape:pageshadow="2"
     inkscape:zoom="8.671875"
     inkscape:cx="10.564203"
     inkscape:cy="2.743179"
     inkscape:document-units="px"
     inkscape:current-layer="layer1"
     showgrid="true"
     inkscape:window-width="1280"
     inkscape:window-height="780"
     inkscape:window-x="-8"
     inkscape:window-y="-8"
     inkscape:window-maximized="1">
    <inkscape:grid
       type="xygrid"
       id="grid6324"
       empspacing="5"
       visible="true"
       enabled="true"
       snapvisiblegridlinesonly="true" />
  </sodipodi:namedview>
  <metadata
     id="metadata7">
    <rdf:RDF>
      <cc:Work
         rdf:about="">
        <dc:format>image/svg+xml</dc:format>
        <dc:type
           rdf:resource="http://purl.org/dc/dcmitype/StillImage" />
        <dc:title></dc:title>
      </cc:Work>
    </rdf:RDF>
  </metadata>
  <g
     inkscape:label="Calque 1"
     inkscape:groupmode="layer"
     id="layer1"
     transform="translate(0,-1036.3622)">
    <g
       id="g6656"
       transform="translate(0.0227226,-0.1163)">
      <path
         style="fill:#bfbfbf"
         d="m 4.3589184,1048.2257 -0.8589184,0 0,-0.4545 0,-0.4545 -0.9090909,0 -0.9090909,0 0,-0.8117 0,-0.8117 0.3246753,-0.3247 0.3246753,-0.3247 1.1750498,0 1.1750496,0 0.6369136,-0.6818 0.6369137,-0.6818 1.4085409,0 1.4085409,0 0.6369136,0.6818 0.6369141,0.6818 1.856867,0 1.856868,0 0.324676,0.3247 0.324675,0.3247 0,0.8117 0,0.8117 -0.681818,0 -0.681818,0 0,0.4545 0,0.4545 -0.858919,0 -0.858918,0 L 11,1047.7712 l -0.327618,-0.4545 -2.3996547,0 -2.399655,0 -0.3276178,0.4545 -0.3276177,0.4545 -0.8589184,0 z"
         id="path6666" />
      <path
         style="fill:#fefe00"
         d="m 4.4090909,1048.2257 -0.3542004,0 -0.3276178,-0.4545 -0.3276177,-0.4545 -0.8589185,0 -0.8589183,0 0,-0.8117 0,-0.8117 0.3246753,-0.3247 0.3246753,-0.3247 1.1750498,0 1.1750496,0 0.6369136,-0.6818 0.6369137,-0.6818 1.4085409,0 1.4085409,0 0.6369136,0.6818 0.6369141,0.6818 1.856867,0 1.856868,0 0.324676,0.3247 0.324675,0.3247 0,0.8117 0,0.8117 -0.631646,0 -0.631645,0 -0.327618,0.4545 -0.327618,0.4545 -0.3542,0 -0.354201,0 -0.327618,-0.4545 -0.327617,-0.4545 -2.8542007,0 -2.8542005,0 -0.3276177,0.4545 -0.3276177,0.4545 -0.3542005,0 z m 3.1818182,-2.7272 2.2727273,0 0,-0.1299 c 0,-0.071 -0.1707589,-0.3006 -0.3794644,-0.5093 l -0.3794643,-0.3795 -0.09402,0.2821 -0.094021,0.282 -1.3257575,0 -1.3257575,0 -0.094021,-0.282 -0.09402,-0.2821 -0.3794644,0.3795 c -0.2087054,0.2087 -0.3794643,0.4379 -0.3794643,0.5093 l 0,0.1299 2.2727273,0 z"
         id="path6664" />
      <path
         style="fill:#7f7f7f"
         d="m 4.4090909,1048.2257 -0.3542004,0 -0.3276178,-0.4545 -0.3276177,-0.4545 -0.8589185,0 -0.8589183,0 0,-0.8117 0,-0.8117 0.3246753,-0.3247 0.3246753,-0.3247 1.1750498,0 1.1750496,0 0.6369136,-0.6818 0.6369137,-0.6818 1.4085409,0 1.4085409,0 0.6369136,0.6818 0.6369141,0.6818 1.856867,0 1.856868,0 0.324676,0.3247 0.324675,0.3247 0,0.8117 0,0.8117 -0.631646,0 -0.631645,0 -0.327618,0.4545 -0.327618,0.4545 -0.3542,0 -0.354201,0 -0.327618,-0.4545 -0.327617,-0.4545 -2.8542007,0 -2.8542005,0 -0.3276177,0.4545 -0.3276177,0.4545 -0.3542005,0 z m 0,-0.909 0.4545455,0 0,-0.4546 0,-0.4545 -0.4545455,0 -0.4545454,0 0,0.4545 0,0.4546 0.4545454,0 z m 7.7272731,0 0.454545,0 0,-0.4546 0,-0.4545 -0.454545,0 -0.454546,0 0,0.4545 0,0.4546 0.454546,0 z m -4.5454549,-1.8182 2.2727273,0 0,-0.1299 c 0,-0.071 -0.1461039,-0.276 -0.3246753,-0.4545 l -0.3246754,-0.3247 -1.6233766,0 -1.6233766,0 -0.3246755,0.3247 c -0.1785713,0.1785 -0.3246752,0.3831 -0.3246752,0.4545 l 0,0.1299 2.2727273,0 z"
         id="path6662" />
      <path
         style="fill:#00007f"
         d="m 4.3685066,1048.2171 c -0.1651786,0 -0.4281657,-0.1538 -0.5844157,-0.3313 C 3.6278409,1047.7083 3.5,1047.4054 3.5,1047.2126 l 0,-0.3505 -0.2272727,0 c -0.125,0 -0.2272728,0.1023 -0.2272728,0.2273 l 0,0.2273 -0.6818181,0 -0.6818182,0 0,-0.4546 0,-0.4545 0.2272727,0 0.2272727,0 0,-0.3572 0,-0.3571 0.3246754,-0.3247 0.3246753,-0.3247 0.9477771,0 0.9477768,0 0.6369136,-0.6818 0.6369137,-0.6818 1.4085409,0 1.4085409,0 0.6369136,0.6818 0.6369141,0.6818 1.629595,0 1.629595,0 0.324675,0.3247 0.324675,0.3247 0,0.3571 0,0.3572 0.227273,0 0.227273,0 0,0.4545 0,0.4546 -0.454546,0 -0.454545,0 0,-0.2273 c 0,-0.125 -0.102273,-0.2273 -0.227273,-0.2273 l -0.227272,0 0,0.3572 0,0.3571 -0.324676,0.3247 c -0.178571,0.1785 -0.441558,0.3246 -0.584415,0.3246 -0.142857,0 -0.405844,-0.1461 -0.584416,-0.3246 l -0.324675,-0.3247 0,-0.3571 0,-0.3572 -0.227273,0 c -0.125,0 -0.227273,0.1023 -0.227273,0.2273 l 0,0.2273 -2.4999997,0 -2.5,0 0,-0.2273 c 0,-0.125 -0.1022728,-0.2273 -0.2272728,-0.2273 l -0.2272727,0 0,0.3572 0,0.3571 -0.3246752,0.3247 c -0.1785716,0.1785 -0.4598216,0.3208 -0.625,0.316 z m 0.040584,-0.9004 0.4545455,0 0,-0.4546 0,-0.4545 -0.4545455,0 -0.4545454,0 0,0.4545 0,0.4546 0.4545454,0 z m 7.7272734,0 0.454545,0 0,-0.4546 0,-0.4545 -0.454545,0 -0.454546,0 0,0.4545 0,0.4546 0.454546,0 z m -4.5454552,-1.8182 2.2727273,0 0,-0.1299 c 0,-0.071 -0.1461039,-0.276 -0.3246753,-0.4545 l -0.3246754,-0.3247 -1.6233766,0 -1.6233766,0 -0.3246755,0.3247 c -0.1785713,0.1785 -0.3246752,0.3831 -0.3246752,0.4545 l 0,0.1299 2.2727273,0 z"
         id="path6660" />
      <path
         style="fill:#000000"
         d="m 4.3685066,1048.2171 c -0.1651786,0 -0.4281657,-0.1538 -0.5844157,-0.3313 L 3.5,1047.5631 l 0,-0.4804 0,-0.4803 0.3246752,-0.3247 c 0.1785716,-0.1786 0.4415587,-0.3247 0.5844157,-0.3247 0.1428571,0 0.4058441,0.1461 0.5844157,0.3247 l 0.3246752,0.3247 0,0.487 0,0.487 -0.3246752,0.3247 c -0.1785716,0.1785 -0.4598216,0.3208 -0.625,0.316 z m 0.040584,-0.9004 0.4545455,0 0,-0.4546 0,-0.4545 -0.4545455,0 -0.4545454,0 0,0.4545 0,0.4546 0.4545454,0 z m 7.6866884,0.9004 c -0.165178,0 -0.428165,-0.1538 -0.584415,-0.3313 l -0.284091,-0.3227 0,-0.4804 0,-0.4803 0.324675,-0.3247 c 0.178572,-0.1786 0.441559,-0.3247 0.584416,-0.3247 0.142857,0 0.405844,0.1461 0.584415,0.3247 l 0.324676,0.3247 0,0.487 0,0.487 -0.324676,0.3247 c -0.178571,0.1785 -0.459821,0.3208 -0.625,0.316 z m 0.04059,-0.9004 0.454545,0 0,-0.4546 0,-0.4545 -0.454545,0 -0.454546,0 0,0.4545 0,0.4546 0.454546,0 z m -9.7727279,0 -0.6818182,0 0,-0.4546 0,-0.4545 0.2272727,0 c 0.125,0 0.2272727,0.1022 0.2272727,0.2272 l 0,0.2273 0.4545455,0 0.4545454,0 0,0.2273 0,0.2273 -0.6818181,0 z m 5.9090909,0 -2.5,0 0,-0.2273 0,-0.2273 2.5,0 2.5,0 0,0.2273 0,0.2273 -2.5,0 z m 5.681818,0 c -0.25,0 -0.454545,-0.059 -0.454545,-0.1299 0,-0.071 0.146104,-0.276 0.324675,-0.4546 0.178572,-0.1785 0.383117,-0.3246 0.454546,-0.3246 0.07143,0 0.12987,0.2045 0.12987,0.4545 l 0,0.4546 -0.454546,0 z m -10.0974023,-1.8182 -1.2662339,0 0,-0.2273 0,-0.2273 1.1363636,0 1.1363637,0 0,-0.2272 0,-0.2273 0.4545454,0 c 0.25,0 0.4545455,0.058 0.4545455,0.1299 0,0.071 -0.1461039,0.2759 -0.3246753,0.4545 l -0.3246754,0.3247 -1.2662336,0 z m 7.8814933,-0.01 -1.7613636,-0.01 -0.3070182,-0.3472 -0.3070184,-0.3472 0.1676784,-0.1556 0.1676787,-0.1555 0.1014609,0.2841 0.1014611,0.2841 1.7992431,0 1.799242,0 0,0.2273 0,0.2273 -1.761364,-0.01 z m -4.3749999,-1.355 -1.5909091,0 0,-0.2272 0,-0.2273 1.5909091,0 1.5909091,0 0,0.2273 0,0.2272 -1.5909091,0 z"
         id="path6658" />
    </g>
  </g>
</svg>
