<?xml version="1.0" encoding="UTF-8" standalone="no"?>
<!-- Created with Inkscape (http://www.inkscape.org/) -->

<svg
   xmlns:dc="http://purl.org/dc/elements/1.1/"
   xmlns:cc="http://creativecommons.org/ns#"
   xmlns:rdf="http://www.w3.org/1999/02/22-rdf-syntax-ns#"
   xmlns:svg="http://www.w3.org/2000/svg"
   xmlns="http://www.w3.org/2000/svg"
   xmlns:sodipodi="http://sodipodi.sourceforge.net/DTD/sodipodi-0.dtd"
   xmlns:inkscape="http://www.inkscape.org/namespaces/inkscape"
   width="16"
   height="16"
   id="svg2"
   version="1.1"
   inkscape:version="0.47 r22583"
   sodipodi:docname="church-64.svg">
  <defs
     id="defs4">
    <inkscape:perspective
       sodipodi:type="inkscape:persp3d"
       inkscape:vp_x="0 : 526.18109 : 1"
       inkscape:vp_y="0 : 1000 : 0"
       inkscape:vp_z="744.09448 : 526.18109 : 1"
       inkscape:persp3d-origin="372.04724 : 350.78739 : 1"
       id="perspective10" />
    <inkscape:perspective
       id="perspective2824"
       inkscape:persp3d-origin="0.5 : 0.33333333 : 1"
       inkscape:vp_z="1 : 0.5 : 1"
       inkscape:vp_y="0 : 1000 : 0"
       inkscape:vp_x="0 : 0.5 : 1"
       sodipodi:type="inkscape:persp3d" />
    <inkscape:perspective
       id="perspective5878"
       inkscape:persp3d-origin="0.5 : 0.33333333 : 1"
       inkscape:vp_z="1 : 0.5 : 1"
       inkscape:vp_y="0 : 1000 : 0"
       inkscape:vp_x="0 : 0.5 : 1"
       sodipodi:type="inkscape:persp3d" />
    <inkscape:perspective
       id="perspective5921"
       inkscape:persp3d-origin="0.5 : 0.33333333 : 1"
       inkscape:vp_z="1 : 0.5 : 1"
       inkscape:vp_y="0 : 1000 : 0"
       inkscape:vp_x="0 : 0.5 : 1"
       sodipodi:type="inkscape:persp3d" />
    <inkscape:perspective
       id="perspective5943"
       inkscape:persp3d-origin="0.5 : 0.33333333 : 1"
       inkscape:vp_z="1 : 0.5 : 1"
       inkscape:vp_y="0 : 1000 : 0"
       inkscape:vp_x="0 : 0.5 : 1"
       sodipodi:type="inkscape:persp3d" />
    <inkscape:perspective
       id="perspective5989"
       inkscape:persp3d-origin="0.5 : 0.33333333 : 1"
       inkscape:vp_z="1 : 0.5 : 1"
       inkscape:vp_y="0 : 1000 : 0"
       inkscape:vp_x="0 : 0.5 : 1"
       sodipodi:type="inkscape:persp3d" />
    <inkscape:perspective
       id="perspective6011"
       inkscape:persp3d-origin="0.5 : 0.33333333 : 1"
       inkscape:vp_z="1 : 0.5 : 1"
       inkscape:vp_y="0 : 1000 : 0"
       inkscape:vp_x="0 : 0.5 : 1"
       sodipodi:type="inkscape:persp3d" />
    <inkscape:perspective
       id="perspective6033"
       inkscape:persp3d-origin="0.5 : 0.33333333 : 1"
       inkscape:vp_z="1 : 0.5 : 1"
       inkscape:vp_y="0 : 1000 : 0"
       inkscape:vp_x="0 : 0.5 : 1"
       sodipodi:type="inkscape:persp3d" />
    <inkscape:perspective
       id="perspective6245"
       inkscape:persp3d-origin="0.5 : 0.33333333 : 1"
       inkscape:vp_z="1 : 0.5 : 1"
       inkscape:vp_y="0 : 1000 : 0"
       inkscape:vp_x="0 : 0.5 : 1"
       sodipodi:type="inkscape:persp3d" />
    <inkscape:perspective
       id="perspective6269"
       inkscape:persp3d-origin="0.5 : 0.33333333 : 1"
       inkscape:vp_z="1 : 0.5 : 1"
       inkscape:vp_y="0 : 1000 : 0"
       inkscape:vp_x="0 : 0.5 : 1"
       sodipodi:type="inkscape:persp3d" />
    <inkscape:perspective
       id="perspective6364"
       inkscape:persp3d-origin="0.5 : 0.33333333 : 1"
       inkscape:vp_z="1 : 0.5 : 1"
       inkscape:vp_y="0 : 1000 : 0"
       inkscape:vp_x="0 : 0.5 : 1"
       sodipodi:type="inkscape:persp3d" />
    <inkscape:perspective
       id="perspective6396"
       inkscape:persp3d-origin="0.5 : 0.33333333 : 1"
       inkscape:vp_z="1 : 0.5 : 1"
       inkscape:vp_y="0 : 1000 : 0"
       inkscape:vp_x="0 : 0.5 : 1"
       sodipodi:type="inkscape:persp3d" />
    <inkscape:perspective
       id="perspective6438"
       inkscape:persp3d-origin="0.5 : 0.33333333 : 1"
       inkscape:vp_z="1 : 0.5 : 1"
       inkscape:vp_y="0 : 1000 : 0"
       inkscape:vp_x="0 : 0.5 : 1"
       sodipodi:type="inkscape:persp3d" />
    <inkscape:perspective
       id="perspective6460"
       inkscape:persp3d-origin="0.5 : 0.33333333 : 1"
       inkscape:vp_z="1 : 0.5 : 1"
       inkscape:vp_y="0 : 1000 : 0"
       inkscape:vp_x="0 : 0.5 : 1"
       sodipodi:type="inkscape:persp3d" />
    <inkscape:perspective
       id="perspective6480"
       inkscape:persp3d-origin="0.5 : 0.33333333 : 1"
       inkscape:vp_z="1 : 0.5 : 1"
       inkscape:vp_y="0 : 1000 : 0"
       inkscape:vp_x="0 : 0.5 : 1"
       sodipodi:type="inkscape:persp3d" />
    <inkscape:perspective
       id="perspective6504"
       inkscape:persp3d-origin="0.5 : 0.33333333 : 1"
       inkscape:vp_z="1 : 0.5 : 1"
       inkscape:vp_y="0 : 1000 : 0"
       inkscape:vp_x="0 : 0.5 : 1"
       sodipodi:type="inkscape:persp3d" />
    <inkscape:perspective
       id="perspective6524"
       inkscape:persp3d-origin="0.5 : 0.33333333 : 1"
       inkscape:vp_z="1 : 0.5 : 1"
       inkscape:vp_y="0 : 1000 : 0"
       inkscape:vp_x="0 : 0.5 : 1"
       sodipodi:type="inkscape:persp3d" />
    <inkscape:perspective
       id="perspective6548"
       inkscape:persp3d-origin="0.5 : 0.33333333 : 1"
       inkscape:vp_z="1 : 0.5 : 1"
       inkscape:vp_y="0 : 1000 : 0"
       inkscape:vp_x="0 : 0.5 : 1"
       sodipodi:type="inkscape:persp3d" />
    <inkscape:perspective
       id="perspective6572"
       inkscape:persp3d-origin="0.5 : 0.33333333 : 1"
       inkscape:vp_z="1 : 0.5 : 1"
       inkscape:vp_y="0 : 1000 : 0"
       inkscape:vp_x="0 : 0.5 : 1"
       sodipodi:type="inkscape:persp3d" />
    <inkscape:perspective
       id="perspective6594"
       inkscape:persp3d-origin="0.5 : 0.33333333 : 1"
       inkscape:vp_z="1 : 0.5 : 1"
       inkscape:vp_y="0 : 1000 : 0"
       inkscape:vp_x="0 : 0.5 : 1"
       sodipodi:type="inkscape:persp3d" />
    <inkscape:perspective
       id="perspective6614"
       inkscape:persp3d-origin="0.5 : 0.33333333 : 1"
       inkscape:vp_z="1 : 0.5 : 1"
       inkscape:vp_y="0 : 1000 : 0"
       inkscape:vp_x="0 : 0.5 : 1"
       sodipodi:type="inkscape:persp3d" />
    <inkscape:perspective
       id="perspective6650"
       inkscape:persp3d-origin="0.5 : 0.33333333 : 1"
       inkscape:vp_z="1 : 0.5 : 1"
       inkscape:vp_y="0 : 1000 : 0"
       inkscape:vp_x="0 : 0.5 : 1"
       sodipodi:type="inkscape:persp3d" />
    <inkscape:perspective
       id="perspective6676"
       inkscape:persp3d-origin="0.5 : 0.33333333 : 1"
       inkscape:vp_z="1 : 0.5 : 1"
       inkscape:vp_y="0 : 1000 : 0"
       inkscape:vp_x="0 : 0.5 : 1"
       sodipodi:type="inkscape:persp3d" />
  </defs>
  <sodipodi:namedview
     id="base"
     pagecolor="#ffffff"
     bordercolor="#666666"
     borderopacity="1.0"
     inkscape:pageopacity="0.0"
     inkscape:pageshadow="2"
     inkscape:zoom="8.671875"
     inkscape:cx="10.564203"
     inkscape:cy="2.743179"
     inkscape:document-units="px"
     inkscape:current-layer="layer1"
     showgrid="true"
     inkscape:window-width="1280"
     inkscape:window-height="780"
     inkscape:window-x="-8"
     inkscape:window-y="-8"
     inkscape:window-maximized="1">
    <inkscape:grid
       type="xygrid"
       id="grid6324"
       empspacing="5"
       visible="true"
       enabled="true"
       snapvisiblegridlinesonly="true" />
  </sodipodi:namedview>
  <metadata
     id="metadata7">
    <rdf:RDF>
      <cc:Work
         rdf:about="">
        <dc:format>image/svg+xml</dc:format>
        <dc:type
           rdf:resource="http://purl.org/dc/dcmitype/StillImage" />
        <dc:title></dc:title>
      </cc:Work>
    </rdf:RDF>
  </metadata>
  <g
     inkscape:label="Calque 1"
     inkscape:groupmode="layer"
     id="layer1"
     transform="translate(0,-1036.3622)">
    <g
       id="g6682"
       transform="translate(0.29709,1.1793)">
      <path
         style="fill:#81fdfd"
         d="m 7.8928504,1049.4336 -4.3642916,0 0.0084,-1.5321 0.0084,-1.5321 1.7558914,-1.8388 1.7558916,-1.8388 0,-0.6747 0,-0.6746 0.5107149,0.024 c 0.2808933,0.013 0.7078943,0.037 0.948891,0.053 l 0.438176,0.029 -0.073156,0.6267 -0.073156,0.6266 1.7194183,1.8341 1.719419,1.8341 0.0048,1.5321 0.0048,1.5321 -4.3642915,0 z m 0,-2.6 c 0.051071,0 0.092857,-0.042 0.092857,-0.093 0,-0.051 -0.041786,-0.093 -0.092857,-0.093 -0.051071,0 -0.092857,0.042 -0.092857,0.093 0,0.051 0.041786,0.093 0.092857,0.093 z m 0.6500008,-0.2785 c 0.102143,-0.063 0.1857146,-0.1566 0.1857146,-0.2077 0,-0.051 -0.083572,-0.041 -0.1857146,0.022 -0.102143,0.063 -0.1857145,0.1565 -0.1857145,0.2076 0,0.051 0.083571,0.041 0.1857145,-0.022 z m -1.3000017,-0.1857 c 0.102143,-0.063 0.1857145,-0.1566 0.1857145,-0.2077 0,-0.051 -0.083571,-0.041 -0.1857145,0.022 -0.102143,0.063 -0.1857145,0.1566 -0.1857145,0.2077 0,0.051 0.083572,0.041 0.1857145,-0.022 z m -0.4642863,-0.4643 c 0.051071,0 0.092857,-0.042 0.092857,-0.093 0,-0.051 -0.041786,-0.093 -0.092857,-0.093 -0.051071,0 -0.092857,0.042 -0.092857,0.093 0,0.051 0.041786,0.093 0.092857,0.093 z m 0.9285726,0 c 0.051071,0 0.092857,-0.042 0.092857,-0.093 0,-0.051 -0.041786,-0.093 -0.092857,-0.093 -0.051071,0 -0.092857,0.042 -0.092857,0.093 0,0.051 0.041786,0.093 0.092857,0.093 z m 1.3000018,-0.1857 c 0.051071,0 0.092857,-0.042 0.092857,-0.093 0,-0.051 -0.041786,-0.093 -0.092857,-0.093 -0.051072,0 -0.092857,0.042 -0.092857,0.093 0,0.051 0.041786,0.093 0.092857,0.093 z m -1.3384209,-0.2906 0.3330099,-0.1268 -0.103962,-0.1039 -0.1039619,-0.104 -0.2290481,0.2308 -0.2290478,0.2307 0.3330099,-0.1268 z m 1.5550879,-0.1428 0.1238096,-0.1238 -0.1238096,-0.1238 -0.1238097,-0.1238 0,0.2476 0,0.2476 0.1238097,-0.1238 z m -2.5969491,-0.2747 0.097541,-0.2437 -0.1122025,-0.1122 -0.1122026,-0.1122 0.014662,0.3559 0.014662,0.356 0.097541,-0.2438 z m 0.5231367,-0.4062 c 0.051071,0 0.092857,-0.042 0.092857,-0.093 0,-0.051 -0.041786,-0.093 -0.092857,-0.093 -0.051071,0 -0.092857,0.042 -0.092857,0.093 0,0.051 0.041786,0.093 0.092857,0.093 z m 0.7428582,-0.3715 c 0.051071,0 0.092857,-0.042 0.092857,-0.093 0,-0.051 -0.041786,-0.093 -0.092857,-0.093 -0.051071,0 -0.092857,0.042 -0.092857,0.093 0,0.051 0.041786,0.093 0.092857,0.093 z m 1.1142872,0 c 0.051071,0 0.092857,-0.042 0.092857,-0.093 0,-0.051 -0.041786,-0.093 -0.092857,-0.093 -0.051072,0 -0.092857,0.042 -0.092857,0.093 0,0.051 0.041786,0.093 0.092857,0.093 z m -0.7428582,-0.3714 c 0.051072,0 0.092857,-0.042 0.092857,-0.093 0,-0.051 -0.041786,-0.093 -0.092857,-0.093 -0.051071,0 -0.092857,0.042 -0.092857,0.093 0,0.051 0.041786,0.093 0.092857,0.093 z m -0.1857145,-0.5571 c 0.051072,0 0.092857,-0.042 0.092857,-0.093 0,-0.051 -0.041786,-0.093 -0.092857,-0.093 -0.051072,0 -0.092857,0.042 -0.092857,0.093 0,0.051 0.041786,0.093 0.092857,0.093 z m -0.073671,-2.2286 c -0.078648,0 -0.1987099,-0.056 -0.2668051,-0.1238 -0.068095,-0.068 -0.1238097,-0.3606 -0.1238097,-0.65 l 0,-0.5262 -0.4642864,0 -0.4642863,0 0,-0.1734 0,-0.1734 0.510715,-0.059 0.5107149,-0.059 -0.025794,-0.325 -0.025794,-0.325 0.2579369,0 0.2579369,0 0,0.3714 0,0.3715 0.4797625,0 0.4797626,0 -0.077119,0.2313 -0.077118,0.2314 -0.3562155,8e-4 -0.3562154,7e-4 -0.058195,0.6036 -0.058195,0.6036 -0.1429956,0 z"
         id="path6700" />
      <path
         style="fill:#7beef2"
         d="m 7.8928504,1049.4336 -4.3642916,0 0.0084,-1.5321 0.0084,-1.5321 1.7558914,-1.8388 1.7558916,-1.8388 0,-0.6747 0,-0.6746 0.5107149,0.024 c 0.2808933,0.013 0.7078943,0.037 0.948891,0.053 l 0.438176,0.029 -0.073156,0.6267 -0.073156,0.6266 1.7194183,1.8341 1.719419,1.8341 0.0048,1.5321 0.0048,1.5321 -4.3642915,0 z m 0,-2.6 c 0.051071,0 0.092857,-0.042 0.092857,-0.093 0,-0.051 -0.041786,-0.093 -0.092857,-0.093 -0.051071,0 -0.092857,0.042 -0.092857,0.093 0,0.051 0.041786,0.093 0.092857,0.093 z m 0.6243357,-0.2627 0.2174384,-0.1344 -0.1068469,-0.1728 c -0.058766,-0.095 -0.2063792,-0.1663 -0.3280298,-0.1583 l -0.2211829,0.015 0.2333004,0.094 0.2333001,0.094 -0.1227088,0.1986 -0.1227088,0.1985 0.2174383,-0.1344 z m -1.2743366,-0.2015 c 0.102143,-0.063 0.1857145,-0.1566 0.1857145,-0.2077 0,-0.051 -0.083571,-0.041 -0.1857145,0.022 -0.102143,0.063 -0.1857145,0.1566 -0.1857145,0.2077 0,0.051 0.083572,0.041 0.1857145,-0.022 z m 0.5513149,0.093 0.1798859,0 -0.1103218,-0.2875 -0.1103219,-0.2875 0.3482937,-0.2799 0.3482937,-0.2799 -0.4178577,0.2025 -0.4178577,0.2025 0,0.3649 0,0.3649 0.1798858,0 z m -1.0156012,-0.5571 c 0.051071,0 0.092857,-0.042 0.092857,-0.093 0,-0.051 -0.041786,-0.093 -0.092857,-0.093 -0.051071,0 -0.092857,0.042 -0.092857,0.093 0,0.051 0.041786,0.093 0.092857,0.093 z m 2.1357171,-0.093 c 0.102143,-0.063 0.1857146,-0.1566 0.1857146,-0.2076 0,-0.051 -0.083572,-0.041 -0.1857146,0.022 -0.102143,0.063 -0.1857145,0.1566 -0.1857145,0.2076 0,0.051 0.083571,0.041 0.1857145,-0.022 z m -1.9500026,-0.2786 c 0.051071,0 0.092857,-0.042 0.092857,-0.093 0,-0.051 -0.041786,-0.093 -0.092857,-0.093 -0.051071,0 -0.092857,0.042 -0.092857,0.093 0,0.051 0.041786,0.093 0.092857,0.093 z m 0.704439,-0.1048 0.3330099,-0.1268 -0.103962,-0.1039 -0.1039619,-0.104 -0.2290481,0.2308 -0.2290478,0.2307 0.3330099,-0.1268 z m 1.1527063,-0.081 c 0.051072,0 0.092857,-0.042 0.092857,-0.093 0,-0.051 -0.041786,-0.093 -0.092857,-0.093 -0.051071,0 -0.092857,0.042 -0.092857,0.093 0,0.051 0.041786,0.093 0.092857,0.093 z m 0.4023816,-0.062 0.1238096,-0.1238 -0.1238096,-0.1238 -0.1238097,-0.1238 0,0.2476 0,0.2476 0.1238097,-0.1238 z m -2.5380987,-0.2166 c 0.102143,-0.063 0.1857145,-0.2402 0.1857145,-0.3934 l 0,-0.2786 -0.1857145,0.1148 c -0.102143,0.063 -0.1857146,0.2401 -0.1857146,0.3934 l 0,0.2785 0.1857146,-0.1147 z m 0.6500009,-0.093 c 0.051071,0 0.092857,-0.042 0.092857,-0.093 0,-0.051 -0.041786,-0.093 -0.092857,-0.093 -0.051071,0 -0.092857,0.042 -0.092857,0.093 0,0.051 0.041786,0.093 0.092857,0.093 z m 0.5681039,-0.1857 c 0.045043,0 0.081897,-0.084 0.081897,-0.1857 l 0,-0.1857 -0.1966748,0 -0.1966749,0 0.1147779,0.1857 c 0.063128,0.1021 0.1516315,0.1857 0.1966749,0.1857 z m 0.9485648,-0.062 0.1238096,-0.1238 -0.1238096,-0.1238 -0.1238097,-0.1239 0,0.2477 0,0.2476 0.1238097,-0.1238 z m -1.7023833,-0.1238 c 0.051071,0 0.092857,-0.042 0.092857,-0.093 0,-0.051 -0.041786,-0.093 -0.092857,-0.093 -0.051071,0 -0.092857,0.042 -0.092857,0.093 0,0.051 0.041786,0.093 0.092857,0.093 z m 0.010961,-0.3715 c 0.045043,0 0.081896,-0.083 0.081896,-0.1857 l 0,-0.1857 -0.1966749,0 -0.1966748,0 0.1147779,0.1857 c 0.063128,0.1022 0.1516315,0.1857 0.1966748,0.1857 z m 0.9322324,-0.2277 c 0.184085,-0.1763 0.2947252,-0.3605 0.2458671,-0.4094 -0.048858,-0.049 -0.1994732,0.095 -0.3347003,0.3206 l -0.2458677,0.4094 0.3347003,-0.3206 z m 0.9139521,0.2277 c 0.051071,0 0.092857,-0.042 0.092857,-0.093 0,-0.051 -0.041786,-0.093 -0.092857,-0.093 -0.051072,0 -0.092857,0.042 -0.092857,0.093 0,0.051 0.041786,0.093 0.092857,0.093 z m -0.3714291,-0.1857 c 0.051072,0 0.092857,-0.042 0.092857,-0.093 0,-0.051 -0.041786,-0.093 -0.092857,-0.093 -0.051071,0 -0.092857,0.042 -0.092857,0.093 0,0.051 0.041786,0.093 0.092857,0.093 z m -1.1142872,-0.3714 c 0.051071,0 0.092857,-0.042 0.092857,-0.093 0,-0.051 -0.041786,-0.093 -0.092857,-0.093 -0.051071,0 -0.092857,0.042 -0.092857,0.093 0,0.051 0.041786,0.093 0.092857,0.093 z m 0.5571436,-0.3714 c 0.051072,0 0.092857,-0.042 0.092857,-0.093 0,-0.051 -0.041786,-0.093 -0.092857,-0.093 -0.051072,0 -0.092857,0.042 -0.092857,0.093 0,0.051 0.041786,0.093 0.092857,0.093 z m -0.073671,-2.2286 c -0.078648,0 -0.1987099,-0.056 -0.2668051,-0.1238 -0.068095,-0.068 -0.1238097,-0.3606 -0.1238097,-0.65 l 0,-0.5262 -0.4642864,0 -0.4642863,0 0,-0.1734 0,-0.1734 0.510715,-0.059 0.5107149,-0.059 -0.025794,-0.325 -0.025794,-0.325 0.2579369,0 0.2579369,0 0,0.3714 0,0.3715 0.4797625,0 0.4797626,0 -0.077119,0.2313 -0.077118,0.2314 -0.3562155,8e-4 -0.3562154,7e-4 -0.058195,0.6036 -0.058195,0.6036 -0.1429956,0 z"
         id="path6698" />
      <path
         style="fill:#73cccf"
         d="m 7.8928504,1049.4336 -4.3642916,0 0.0084,-1.5321 0.0084,-1.5321 1.7558914,-1.8388 1.7558916,-1.8388 0,-0.6747 0,-0.6746 0.5107149,0.024 c 0.2808933,0.013 0.7078943,0.037 0.948891,0.053 l 0.438176,0.029 -0.073156,0.6267 -0.073156,0.6266 1.7194183,1.8341 1.719419,1.8341 0.0048,1.5321 0.0048,1.5321 -4.3642915,0 z m 0.061185,-2.607 c 0.033652,0 0.00612,-0.2437 -0.061185,-0.5501 l -0.1223694,-0.5571 0.293328,0 0.2933277,0 0,-0.3096 0,-0.3095 -0.124461,0.1245 -0.1244611,0.1244 -0.4791112,-0.3116 -0.4791112,-0.3117 0.2411611,0.2945 0.2411613,0.2945 -0.1947326,0.1203 c -0.1071029,0.066 -0.1947325,0.215 -0.1947325,0.3306 l 0,0.2103 0.2937326,-0.3605 0.2937326,-0.3605 -0.1080181,0.3402 c -0.05941,0.1871 -0.108018,0.4218 -0.108018,0.5216 l 0,0.1815 -0.1728821,-0.1068 -0.1728818,-0.1069 -0.1343844,0.2175 -0.1343843,0.2174 0.2032759,-0.1256 0.2032759,-0.1257 0.2432764,0.2756 c 0.1338019,0.1516 0.2708093,0.2788 0.3044608,0.2827 z m 0.6066088,-0.2825 0.1517002,-0.094 -0.1046158,-0.2726 c -0.057539,-0.15 -0.1792461,-0.2726 -0.2704609,-0.2726 l -0.1658451,0 0,0.2476 c 0,0.1362 0.053442,0.301 0.1187607,0.3664 l 0.1187607,0.1187 0.1517002,-0.094 z m -1.7820806,-0.639 c 0.051071,0 0.092857,-0.042 0.092857,-0.093 0,-0.051 -0.041786,-0.093 -0.092857,-0.093 -0.051071,0 -0.092857,0.042 -0.092857,0.093 0,0.051 0.041786,0.093 0.092857,0.093 z m 2.1772982,-0.1186 0.1501922,-0.093 -0.106847,-0.1729 -0.1068469,-0.1729 0.1966748,0 0.1966749,0 0,-0.1799 0,-0.1798 -0.2658994,0.102 -0.2658996,0.102 0.025879,0.3436 0.025879,0.3435 0.1501923,-0.093 z m -1.9915837,-0.2529 c 0.051071,0 0.092857,-0.042 0.092857,-0.093 0,-0.051 -0.041786,-0.093 -0.092857,-0.093 -0.051071,0 -0.092857,0.042 -0.092857,0.093 0,0.051 0.041786,0.093 0.092857,0.093 z m -0.2785718,-0.3714 0.1857145,0 0,-0.3824 0,-0.3824 -0.1857145,0.1148 c -0.102143,0.063 -0.1857146,0.2352 -0.1857146,0.3824 l 0,0.2676 0.1857146,0 z m 1.2662125,-0.6067 0.059068,-0.5139 0.2195037,0.1258 0.2195038,0.1258 -0.1376747,-0.152 -0.1376746,-0.152 0.1863933,-0.2245 0.1863933,-0.2246 -0.2659502,-0.2208 -0.2659503,-0.2207 0.050298,0.3354 0.050298,0.3354 -0.2669321,0.4096 -0.2669324,0.4097 0.1552936,0.2403 0.1552938,0.2404 0.059068,-0.5139 z m 0.9623619,0.2353 c 0.102143,0 0.1857146,-0.084 0.1857146,-0.1857 0,-0.1022 -0.083572,-0.1857 -0.1857146,-0.1857 -0.102143,0 -0.1857145,0.083 -0.1857145,0.1857 0,0.1021 0.083571,0.1857 0.1857145,0.1857 z m -1.7642881,-0.1857 c 0.051071,0 0.092857,-0.042 0.092857,-0.093 0,-0.051 -0.041786,-0.093 -0.092857,-0.093 -0.051071,0 -0.092857,0.042 -0.092857,0.093 0,0.051 0.041786,0.093 0.092857,0.093 z m 0.1038176,-0.3715 c 0.096115,0 0.1747542,-0.083 0.1747542,-0.1857 l 0,-0.1857 -0.2895321,0 -0.2895321,0 0.1147779,0.1857 c 0.063128,0.1022 0.1934172,0.1857 0.2895321,0.1857 z m 1.7533278,0 c 0.051071,0 0.092857,-0.042 0.092857,-0.093 0,-0.051 -0.041786,-0.093 -0.092857,-0.093 -0.051072,0 -0.092857,0.042 -0.092857,0.093 0,0.051 0.041786,0.093 0.092857,0.093 z m -0.3714291,-0.1857 c 0.051072,0 0.092857,-0.042 0.092857,-0.093 0,-0.051 -0.041786,-0.093 -0.092857,-0.093 -0.051071,0 -0.092857,0.042 -0.092857,0.093 0,0.051 0.041786,0.093 0.092857,0.093 z m -1.2290651,-0.3714 c 0.102143,0 0.2373645,-0.084 0.3004924,-0.1857 l 0.1147779,-0.1857 -0.1857145,0 c -0.102143,0 -0.2373645,0.083 -0.3004924,0.1857 l -0.1147779,0.1857 0.1857145,0 z m 0.59825,-2.6 c -0.078648,0 -0.1987099,-0.056 -0.2668051,-0.1238 -0.068095,-0.068 -0.1238097,-0.3606 -0.1238097,-0.65 l 0,-0.5262 -0.4642864,0 -0.4642863,0 0,-0.1734 0,-0.1734 0.510715,-0.059 0.5107149,-0.059 -0.025794,-0.325 -0.025794,-0.325 0.2579369,0 0.2579369,0 0,0.3714 0,0.3715 0.4797625,0 0.4797626,0 -0.077119,0.2313 -0.077118,0.2314 -0.3562155,8e-4 -0.3562154,7e-4 -0.058195,0.6036 -0.058195,0.6036 -0.1429956,0 z"
         id="path6696" />
      <path
         style="fill:#6aafb0"
         d="m 7.8928504,1049.4336 -4.3642916,0 0.0084,-1.5321 0.0084,-1.5321 1.7558914,-1.8388 1.7558916,-1.8388 0,-0.6747 0,-0.6746 0.5107149,0.024 c 0.2808933,0.013 0.7078943,0.037 0.948891,0.053 l 0.438176,0.029 -0.073156,0.6267 -0.073156,0.6266 1.7194183,1.8341 1.719419,1.8341 0.0048,1.5321 0.0048,1.5321 -4.3642915,0 z m 0.044945,-2.7348 c 0.032186,-0.097 -0.02214,-0.3773 -0.1207261,-0.6239 l -0.1792468,-0.4484 -0.011772,0.2321 -0.011772,0.2322 -0.2785718,0 -0.2785718,0 0,0.1967 0,0.1966 0.1646717,-0.1017 0.1646718,-0.1018 0.2463979,0.2969 0.2463979,0.2969 0.058521,-0.1756 z m 0.5965974,-0.1385 0.1779515,-0.11 -0.1046158,-0.2726 c -0.057539,-0.15 -0.167657,-0.2726 -0.2447075,-0.2726 l -0.1400917,0 0.081643,-0.5107 0.081643,-0.5108 -0.1635062,0.2301 -0.1635063,0.2301 -0.018914,-0.6673 -0.018914,-0.6672 0.2006044,0.2006 0.2006045,0.2006 0.2762528,-0.2277 0.276253,-0.2277 -0.2226539,0.4178 -0.2226539,0.4179 0.285106,0 0.285106,0 0,-0.3605 0,-0.3605 -0.2211829,-0.1367 -0.2211829,-0.1367 -0.073251,0.2198 -0.073251,0.2198 -0.1788708,-0.1106 -0.1788706,-0.1105 0.1970227,-0.2374 0.1970225,-0.2374 -0.3130675,-0.2568 -0.3130675,-0.2568 0.096969,0.3769 0.096969,0.3769 -0.2652984,0.2478 -0.2652984,0.2479 0.1058825,0.4218 0.1058828,0.4219 -0.2767767,0.2297 c -0.1522273,0.1264 -0.2754969,0.324 -0.2739329,0.4391 l 0.00284,0.2094 0.1621071,-0.2559 0.1621072,-0.2559 0.2179336,0.1346 c 0.1198633,0.074 0.2961935,0.3406 0.3918449,0.5922 l 0.1739112,0.4574 0.1779513,-0.11 z m 0.453337,-0.8409 c 0.15665,-0.2554 0.2877795,-0.527 0.2913991,-0.6036 l 0.00658,-0.1393 -0.2676115,0 -0.2676115,0 -0.1366985,0.2212 -0.1366985,0.2212 0.2081625,0.069 0.2081626,0.069 -0.095252,0.313 -0.095252,0.313 0.2848183,-0.4642 z m -2.2157005,0.1857 c 0.047478,0 0.1865174,-0.1881 0.308977,-0.4179 l 0.2226539,-0.4178 -0.308977,0.2548 c -0.1699374,0.1402 -0.308977,0.3283 -0.308977,0.4179 0,0.09 0.038845,0.163 0.086323,0.163 z m -0.1212482,-0.7429 c 0.082934,0 0.3291666,-0.2413 0.5471832,-0.5361 l 0.3963939,-0.5362 -0.1138493,-0.1138 c -0.062617,-0.063 -0.2342193,-0.1139 -0.3813381,-0.1139 l -0.2674889,0 0.1010003,0.2632 0.1010001,0.2632 -0.2668452,0.1024 -0.2668455,0.1024 0,0.2844 0,0.2844 0.1507895,0 z m 0.8925611,0 c 0.051071,0 0.041207,-0.084 -0.021921,-0.1857 -0.063128,-0.1021 -0.1565637,-0.1857 -0.2076352,-0.1857 -0.051071,0 -0.041207,0.084 0.021921,0.1857 0.063128,0.1021 0.1565636,0.1857 0.2076351,0.1857 z m -0.1366985,-1.4857 c 0.102143,0 0.2373645,-0.084 0.3004924,-0.1857 l 0.1147779,-0.1857 -0.1857145,0 c -0.102143,0 -0.2373645,0.083 -0.3004924,0.1857 l -0.1147779,0.1857 0.1857145,0 z m 0.59825,-2.6 c -0.078648,0 -0.1987099,-0.056 -0.2668051,-0.1238 -0.068095,-0.068 -0.1238097,-0.3606 -0.1238097,-0.65 l 0,-0.5262 -0.4642864,0 -0.4642863,0 0,-0.1734 0,-0.1734 0.510715,-0.059 0.5107149,-0.059 -0.025794,-0.325 -0.025794,-0.325 0.2579369,0 0.2579369,0 0,0.3714 0,0.3715 0.4797625,0 0.4797626,0 -0.077119,0.2313 -0.077118,0.2314 -0.3562155,8e-4 -0.3562154,7e-4 -0.058195,0.6036 -0.058195,0.6036 -0.1429956,0 z"
         id="path6694" />
      <path
         style="fill:#669292"
         d="m 7.8928504,1049.4336 -4.3642916,0 0.0084,-1.5321 0.0084,-1.5321 1.7558914,-1.8388 1.7558916,-1.8388 0,-0.6747 0,-0.6746 0.5107149,0.024 c 0.2808933,0.013 0.7078943,0.037 0.948891,0.053 l 0.438176,0.029 -0.073156,0.6267 -0.073156,0.6266 1.7194183,1.8341 1.719419,1.8341 0.0048,1.5321 0.0048,1.5321 -4.3642915,0 z m 0.061945,-2.9118 0.061945,-0.265 0.2522533,0.2093 0.2522532,0.2094 0.3665679,-0.7186 0.3665678,-0.7185 -0.1310068,-0.6405 -0.1310069,-0.6406 -0.3581332,-0.069 -0.3581334,-0.069 0.2422196,0.2918 0.2422197,0.2919 -0.1198057,0.1938 -0.1198058,0.1939 0.2076352,0 0.2076351,0 -0.1105915,0.1789 -0.1105913,0.179 -0.3646553,-0.3647 c -0.2005604,-0.2006 -0.3646552,-0.4154 -0.3646552,-0.4774 l 0,-0.1127 0.3250005,0.1228 0.3250004,0.1227 -0.3231841,-0.3266 -0.323184,-0.3266 -0.2639199,0.361 -0.2639198,0.3609 0.087349,0.1413 0.087349,0.1414 -0.3183156,0 -0.3183155,0 0.3048196,-0.3368 0.3048196,-0.3369 -0.2296077,-0.2419 -0.2296074,-0.2419 0.6117489,0.083 0.6117491,0.084 0.082636,-0.1337 0.082636,-0.1337 -0.2765269,-0.2295 -0.2765271,-0.2295 0,0.2194 0,0.2194 -0.1974169,-0.122 -0.1974172,-0.122 -0.366276,0.3315 -0.3662763,0.3314 0.09728,0.2535 0.097279,0.2535 -0.1641272,-0.1014 -0.1641271,-0.1014 -0.1123174,0.2927 c -0.061775,0.1609 -0.1123174,0.375 -0.1123174,0.4757 l 0,0.183 0.4178578,-0.1142 0.4178577,-0.1142 -0.3250005,0.2038 -0.3250004,0.2038 0,0.3041 0,0.3041 0.5964792,-0.5455 0.5964795,-0.5455 -0.24779,0.325 -0.24779,0.325 0.2548828,0.01 0.254883,0.01 -0.4441666,0.3699 c -0.2442915,0.2034 -0.4114346,0.3887 -0.3714291,0.4117 0.040006,0.023 0.2398806,0.1357 0.4441666,0.2505 l 0.3714291,0.2088 0.061945,-0.2651 z m 0.019952,-0.431 -0.1747542,0 0.3250004,-0.3395 0.3250005,-0.3395 0.2204168,0.076 0.2204166,0.076 -0.1069755,0.2788 -0.1069755,0.2787 -0.1366554,-0.2211 -0.1366557,-0.2211 -0.1270319,0.2055 c -0.069867,0.1131 -0.2056712,0.2056 -0.3017861,0.2056 z m 0.1347701,-0.8048 -0.1238098,0.1238 0,-0.2476 0,-0.2476 0.1238098,0.1238 0.1238096,0.1238 -0.1238096,0.1238 z m -0.8666679,0.6191 0.1857145,0 0,-0.1967 0,-0.1967 -0.1857145,0.1148 c -0.102143,0.063 -0.1857145,0.1516 -0.1857145,0.1967 0,0.045 0.083572,0.082 0.1857145,0.082 z m 0.7620439,-4.8286 c -0.078648,0 -0.1987099,-0.056 -0.2668051,-0.1238 -0.068095,-0.068 -0.1238097,-0.3606 -0.1238097,-0.65 l 0,-0.5262 -0.4642864,0 -0.4642863,0 0,-0.1734 0,-0.1734 0.510715,-0.059 0.5107149,-0.059 -0.025794,-0.325 -0.025794,-0.325 0.2579369,0 0.2579369,0 0,0.3714 0,0.3715 0.4797625,0 0.4797626,0 -0.077119,0.2313 -0.077118,0.2314 -0.3562155,8e-4 -0.3562154,7e-4 -0.058195,0.6036 -0.058195,0.6036 -0.1429956,0 z"
         id="path6692" />
      <path
         style="fill:#707170"
         d="m 7.8928504,1049.4336 -4.3642916,0 0.0084,-1.5321 0.0084,-1.5321 1.7558914,-1.8388 1.7558916,-1.8388 0,-0.6747 0,-0.6746 0.5107149,0.024 c 0.2808933,0.013 0.7078943,0.037 0.948891,0.053 l 0.438176,0.029 -0.073156,0.6267 -0.073156,0.6266 1.7194183,1.8341 1.719419,1.8341 0.0048,1.5321 0.0048,1.5321 -4.3642915,0 z m 0.3307301,-2.7455 0.3360625,-0.088 0.3401178,-0.6726 0.3401178,-0.6725 -0.090258,-0.5984 -0.090257,-0.5984 -0.423863,-0.4573 -0.423863,-0.4574 -0.4379655,0.1143 c -0.2408809,0.063 -0.5225118,0.2037 -0.625846,0.3129 -0.1033343,0.1092 -0.2893718,0.4279 -0.4134167,0.7083 l -0.225536,0.5097 0.1110276,0.5551 0.1110278,0.5551 0.163103,-0.1008 0.1631031,-0.1008 0,0.354 0,0.3541 0.4151915,0.1852 0.4151916,0.1853 0.3360624,-0.088 z m -0.8878737,-0.5973 c -0.051071,0 -0.092857,-0.042 -0.092857,-0.093 0,-0.051 0.041786,-0.093 0.092857,-0.093 0.051071,0 0.092857,0.042 0.092857,0.093 0,0.051 -0.041786,0.093 -0.092857,0.093 z m 0.6500008,0 -0.2476193,0 0.1238096,-0.1238 0.1238097,-0.1238 0.1238098,0.1238 0.1238096,0.1238 -0.2476194,0 z m -0.4842785,-0.3714 c -0.02802,0 -0.099026,-0.078 -0.1577914,-0.1729 l -0.106847,-0.1729 0.1577915,-0.097 0.1577916,-0.098 0,0.2705 c 0,0.1487 -0.022925,0.2704 -0.050945,0.2704 z m 1.1342794,0 c -0.051071,0 -0.092857,-0.042 -0.092857,-0.093 0,-0.051 0.041786,-0.093 0.092857,-0.093 0.051072,0 0.092857,0.042 0.092857,0.093 0,0.051 -0.041786,0.093 -0.092857,0.093 z m -1.5785735,-0.5572 -0.2476194,0 0.1238096,-0.1238 0.1238098,-0.1238 0.1238097,0.1238 0.1238096,0.1238 -0.2476193,0 z m 1.5087612,-0.5076 -0.230765,0.229 0.1268029,-0.333 0.1268029,-0.333 0.1039621,0.104 0.1039621,0.1039 -0.230765,0.2291 z m -1.2301894,-0.05 c -0.051071,0 -0.092857,-0.042 -0.092857,-0.093 0,-0.051 0.041786,-0.093 0.092857,-0.093 0.051071,0 0.092857,0.042 0.092857,0.093 0,0.051 -0.041786,0.093 -0.092857,0.093 z m 0.7428581,-0.1857 c -0.051072,0 -0.092857,-0.042 -0.092857,-0.093 0,-0.051 0.041786,-0.093 0.092857,-0.093 0.051072,0 0.092857,0.042 0.092857,0.093 0,0.051 -0.041786,0.093 -0.092857,0.093 z m -0.3374221,-0.3367 -0.097541,0.2438 -0.014662,-0.356 -0.014662,-0.3559 0.1122026,0.1122 0.1122024,0.1122 -0.097541,0.2437 z m 0.2637506,-3.0062 c -0.078648,0 -0.1987099,-0.056 -0.2668051,-0.1238 -0.068095,-0.068 -0.1238097,-0.3606 -0.1238097,-0.65 l 0,-0.5262 -0.4642864,0 -0.4642863,0 0,-0.1734 0,-0.1734 0.510715,-0.059 0.5107149,-0.059 -0.025794,-0.325 -0.025794,-0.325 0.2579369,0 0.2579369,0 0,0.3714 0,0.3715 0.4797625,0 0.4797626,0 -0.077119,0.2313 -0.077118,0.2314 -0.3562155,8e-4 -0.3562154,7e-4 -0.058195,0.6036 -0.058195,0.6036 -0.1429956,0 z"
         id="path6690" />
      <path
         style="fill:#4c4c4b"
         d="m 7.8928504,1049.4336 -4.3642916,0 0,-1.5094 0,-1.5094 1.7642881,-1.8382 1.7642881,-1.8381 0,-0.6453 0,-0.6453 0.8357154,0 0.8357154,0 0.00645,0.6036 0.00645,0.6036 1.7529862,1.8571 1.752986,1.8572 0.0048,1.5321 0.0048,1.5321 -4.3642917,0 z m 0.3555707,-2.7778 0.3695483,-0.1367 0.3171988,-0.632 0.3171987,-0.632 -0.091333,-0.5632 -0.091333,-0.5632 -0.3189098,-0.4227 -0.3189099,-0.4228 -0.3623723,-0.058 -0.3623724,-0.058 -0.3253068,0.1683 -0.3253067,0.1683 -0.2789046,0.6675 -0.2789046,0.6675 0.1928281,0.7161 0.1928284,0.7161 0.4972516,0.2606 0.4972515,0.2605 0.3695484,-0.1367 z m -0.9127143,-1.1222 c -0.051071,0 -0.092857,-0.042 -0.092857,-0.093 0,-0.051 0.041786,-0.093 0.092857,-0.093 0.051071,0 0.092857,0.042 0.092857,0.093 0,0.051 -0.041786,0.093 -0.092857,0.093 z m 0.7428581,-1.1142 c -0.051072,0 -0.092857,-0.042 -0.092857,-0.093 0,-0.051 0.041786,-0.093 0.092857,-0.093 0.051072,0 0.092857,0.042 0.092857,0.093 0,0.051 -0.041786,0.093 -0.092857,0.093 z m 0.5571436,0 c -0.051071,0 -0.092857,-0.042 -0.092857,-0.093 0,-0.051 0.041786,-0.093 0.092857,-0.093 0.051072,0 0.092857,0.042 0.092857,0.093 0,0.051 -0.041786,0.093 -0.092857,0.093 z m -0.6190484,-3.3429 c -0.085119,0 -0.2104766,-0.056 -0.2785718,-0.1238 -0.068095,-0.068 -0.1238097,-0.3606 -0.1238097,-0.65 l 0,-0.5262 -0.4642864,0 -0.4642863,0 0,-0.1857 0,-0.1857 0.5571436,0 0.5571436,0 0,-0.3715 0,-0.3714 0.1857145,0 0.1857146,0 0,0.3714 0,0.3715 0.4642863,0 0.4642864,0 0,0.1857 0,0.1857 -0.4642864,0 -0.4642863,0 0,0.65 0,0.65 -0.1547621,0 z"
         id="path6688" />
      <path
         style="fill:#6d0a00"
         d="m 5.2464182,1049.433 -1.7178594,6e-4 0,-1.5001 0,-1.5001 1.7604954,-1.7963 1.7604954,-1.7963 0.00379,-0.6965 0.00379,-0.6964 0.8357154,0 0.8357154,0 0,0.6318 0,0.6317 1.7642886,1.8556 1.764288,1.8555 0,1.3838 0,1.3839 -2.6464326,0.121 c -1.4555377,0.067 -3.4194689,0.1214 -4.3642916,0.1218 z m 2.6698799,-2.6755 c 0.1570263,-0.06 0.3634671,-0.1096 0.4587575,-0.1096 0.09529,0 0.3388573,-0.2716 0.5412601,-0.6035 l 0.3680053,-0.6036 0,-0.4643 0,-0.4643 -0.3649742,-0.5986 -0.3649742,-0.5986 -0.4724587,-0.1185 -0.4724587,-0.1186 -0.2884056,0.2393 c -0.1586229,0.1317 -0.4156484,0.4854 -0.5711676,0.7862 l -0.2827625,0.5468 0.1216012,0.6482 0.1216011,0.6482 0.460237,0.4602 0.460237,0.4602 0.2855023,-0.1095 z m 0.027585,-5.763 -0.1176933,0.1177 -0.059527,-0.6214 -0.059527,-0.6215 -0.5138637,-0.059 -0.5138636,-0.059 0.1069662,-0.1731 0.1069664,-0.173 0.453326,0 0.453326,0 0,-0.3715 0,-0.3714 0.1857145,0 0.1857146,0 0,0.3714 0,0.3715 0.3604687,0 0.3604688,0 0.1069664,0.173 0.1069661,0.1731 -0.5138635,0.059 -0.5138638,0.059 -0.00849,0.5038 c -0.00467,0.277 -0.061456,0.5567 -0.1261878,0.6214 z"
         id="path6686" />
      <path
         style="fill:#151515"
         d="m 6.1749909,1049.3929 -2.6464321,0.041 0.037801,-1.625 0.037801,-1.625 0.062483,1.527 0.062483,1.5269 2.5461481,0.057 2.5461479,0.057 -2.6464321,0.041 z m 6.0351081,-1.5263 -0.06392,1.4742 -0.03737,-1.4769 -0.03737,-1.4769 -0.600009,-0.6588 -0.600009,-0.6588 0.701307,0.6615 0.701306,0.6615 -0.06392,1.4742 z m -6.9172521,-3.0758 c -0.6639295,0.658 -1.2071445,1.1546 -1.2071445,1.1035 0,-0.051 0.543215,-0.6312 1.2071445,-1.2892 0.6639294,-0.6581 1.2071444,-1.1547 1.2071444,-1.1036 0,0.051 -0.543215,0.6313 -1.2071444,1.2893 z m 4.1145033,-1.3 c -0.035241,0 -0.2232766,-0.1881 -0.4178577,-0.4179 l -0.353784,-0.4178 0.4178577,0.3537 c 0.2298218,0.1946 0.4178577,0.3827 0.4178577,0.4179 0,0.035 -0.028833,0.064 -0.064074,0.064 z m -2.2188666,-1.07 -0.080767,0.42 -0.00375,-0.7429 -0.00375,-0.7428 0.084514,0.3228 c 0.046483,0.1776 0.04817,0.5118 0.00375,0.7429 z m 0.797224,-1.4372 c -0.102143,0.063 -0.1857145,0.073 -0.1857145,0.022 0,-0.051 0.083571,-0.1446 0.1857145,-0.2077 0.102143,-0.063 0.1857146,-0.073 0.1857146,-0.022 0,0.051 -0.083572,0.1445 -0.1857146,0.2076 z m -0.2379718,-1.0492 c -0.02233,-0.015 -0.2718387,-0.063 -0.5544637,-0.1055 l -0.5138636,-0.078 0.1069662,-0.1731 0.1069664,-0.173 0.3405993,0 0.3405993,0 0.1068981,0.2785 c 0.058794,0.1532 0.088628,0.2661 0.066298,0.2508 z m 0.9851319,-0.2093 -0.3413953,0.026 -0.2957397,-0.3268 c -0.1626567,-0.1797 -0.2957396,-0.4246 -0.2957396,-0.5443 l 0,-0.2175 0.1857145,0 0.1857146,0 0,0.3714 0,0.3715 0.3604687,0 c 0.1982579,0 0.4013971,0.066 0.4514204,0.1471 l 0.090952,0.1472 -0.3413953,0.026 z"
         id="path6684" />
    </g>
  </g>
</svg>
