<?xml version="1.0" encoding="UTF-8" standalone="no"?>
<!-- Created with Inkscape (http://www.inkscape.org/) -->

<svg
   xmlns:dc="http://purl.org/dc/elements/1.1/"
   xmlns:cc="http://creativecommons.org/ns#"
   xmlns:rdf="http://www.w3.org/1999/02/22-rdf-syntax-ns#"
   xmlns:svg="http://www.w3.org/2000/svg"
   xmlns="http://www.w3.org/2000/svg"
   xmlns:sodipodi="http://sodipodi.sourceforge.net/DTD/sodipodi-0.dtd"
   xmlns:inkscape="http://www.inkscape.org/namespaces/inkscape"
   width="16"
   height="16"
   id="svg2"
   version="1.1"
   inkscape:version="0.47 r22583"
   sodipodi:docname="COMP1-32.svg">
  <defs
     id="defs4">
    <inkscape:perspective
       sodipodi:type="inkscape:persp3d"
       inkscape:vp_x="0 : 526.18109 : 1"
       inkscape:vp_y="0 : 1000 : 0"
       inkscape:vp_z="744.09448 : 526.18109 : 1"
       inkscape:persp3d-origin="372.04724 : 350.78739 : 1"
       id="perspective10" />
    <inkscape:perspective
       id="perspective2824"
       inkscape:persp3d-origin="0.5 : 0.33333333 : 1"
       inkscape:vp_z="1 : 0.5 : 1"
       inkscape:vp_y="0 : 1000 : 0"
       inkscape:vp_x="0 : 0.5 : 1"
       sodipodi:type="inkscape:persp3d" />
    <inkscape:perspective
       id="perspective5878"
       inkscape:persp3d-origin="0.5 : 0.33333333 : 1"
       inkscape:vp_z="1 : 0.5 : 1"
       inkscape:vp_y="0 : 1000 : 0"
       inkscape:vp_x="0 : 0.5 : 1"
       sodipodi:type="inkscape:persp3d" />
    <inkscape:perspective
       id="perspective5921"
       inkscape:persp3d-origin="0.5 : 0.33333333 : 1"
       inkscape:vp_z="1 : 0.5 : 1"
       inkscape:vp_y="0 : 1000 : 0"
       inkscape:vp_x="0 : 0.5 : 1"
       sodipodi:type="inkscape:persp3d" />
    <inkscape:perspective
       id="perspective5943"
       inkscape:persp3d-origin="0.5 : 0.33333333 : 1"
       inkscape:vp_z="1 : 0.5 : 1"
       inkscape:vp_y="0 : 1000 : 0"
       inkscape:vp_x="0 : 0.5 : 1"
       sodipodi:type="inkscape:persp3d" />
    <inkscape:perspective
       id="perspective5989"
       inkscape:persp3d-origin="0.5 : 0.33333333 : 1"
       inkscape:vp_z="1 : 0.5 : 1"
       inkscape:vp_y="0 : 1000 : 0"
       inkscape:vp_x="0 : 0.5 : 1"
       sodipodi:type="inkscape:persp3d" />
    <inkscape:perspective
       id="perspective6011"
       inkscape:persp3d-origin="0.5 : 0.33333333 : 1"
       inkscape:vp_z="1 : 0.5 : 1"
       inkscape:vp_y="0 : 1000 : 0"
       inkscape:vp_x="0 : 0.5 : 1"
       sodipodi:type="inkscape:persp3d" />
    <inkscape:perspective
       id="perspective6033"
       inkscape:persp3d-origin="0.5 : 0.33333333 : 1"
       inkscape:vp_z="1 : 0.5 : 1"
       inkscape:vp_y="0 : 1000 : 0"
       inkscape:vp_x="0 : 0.5 : 1"
       sodipodi:type="inkscape:persp3d" />
    <inkscape:perspective
       id="perspective6245"
       inkscape:persp3d-origin="0.5 : 0.33333333 : 1"
       inkscape:vp_z="1 : 0.5 : 1"
       inkscape:vp_y="0 : 1000 : 0"
       inkscape:vp_x="0 : 0.5 : 1"
       sodipodi:type="inkscape:persp3d" />
    <inkscape:perspective
       id="perspective6269"
       inkscape:persp3d-origin="0.5 : 0.33333333 : 1"
       inkscape:vp_z="1 : 0.5 : 1"
       inkscape:vp_y="0 : 1000 : 0"
       inkscape:vp_x="0 : 0.5 : 1"
       sodipodi:type="inkscape:persp3d" />
    <inkscape:perspective
       id="perspective6364"
       inkscape:persp3d-origin="0.5 : 0.33333333 : 1"
       inkscape:vp_z="1 : 0.5 : 1"
       inkscape:vp_y="0 : 1000 : 0"
       inkscape:vp_x="0 : 0.5 : 1"
       sodipodi:type="inkscape:persp3d" />
    <inkscape:perspective
       id="perspective6396"
       inkscape:persp3d-origin="0.5 : 0.33333333 : 1"
       inkscape:vp_z="1 : 0.5 : 1"
       inkscape:vp_y="0 : 1000 : 0"
       inkscape:vp_x="0 : 0.5 : 1"
       sodipodi:type="inkscape:persp3d" />
    <inkscape:perspective
       id="perspective6438"
       inkscape:persp3d-origin="0.5 : 0.33333333 : 1"
       inkscape:vp_z="1 : 0.5 : 1"
       inkscape:vp_y="0 : 1000 : 0"
       inkscape:vp_x="0 : 0.5 : 1"
       sodipodi:type="inkscape:persp3d" />
    <inkscape:perspective
       id="perspective6460"
       inkscape:persp3d-origin="0.5 : 0.33333333 : 1"
       inkscape:vp_z="1 : 0.5 : 1"
       inkscape:vp_y="0 : 1000 : 0"
       inkscape:vp_x="0 : 0.5 : 1"
       sodipodi:type="inkscape:persp3d" />
    <inkscape:perspective
       id="perspective6480"
       inkscape:persp3d-origin="0.5 : 0.33333333 : 1"
       inkscape:vp_z="1 : 0.5 : 1"
       inkscape:vp_y="0 : 1000 : 0"
       inkscape:vp_x="0 : 0.5 : 1"
       sodipodi:type="inkscape:persp3d" />
    <inkscape:perspective
       id="perspective6504"
       inkscape:persp3d-origin="0.5 : 0.33333333 : 1"
       inkscape:vp_z="1 : 0.5 : 1"
       inkscape:vp_y="0 : 1000 : 0"
       inkscape:vp_x="0 : 0.5 : 1"
       sodipodi:type="inkscape:persp3d" />
    <inkscape:perspective
       id="perspective6524"
       inkscape:persp3d-origin="0.5 : 0.33333333 : 1"
       inkscape:vp_z="1 : 0.5 : 1"
       inkscape:vp_y="0 : 1000 : 0"
       inkscape:vp_x="0 : 0.5 : 1"
       sodipodi:type="inkscape:persp3d" />
    <inkscape:perspective
       id="perspective6548"
       inkscape:persp3d-origin="0.5 : 0.33333333 : 1"
       inkscape:vp_z="1 : 0.5 : 1"
       inkscape:vp_y="0 : 1000 : 0"
       inkscape:vp_x="0 : 0.5 : 1"
       sodipodi:type="inkscape:persp3d" />
    <inkscape:perspective
       id="perspective6572"
       inkscape:persp3d-origin="0.5 : 0.33333333 : 1"
       inkscape:vp_z="1 : 0.5 : 1"
       inkscape:vp_y="0 : 1000 : 0"
       inkscape:vp_x="0 : 0.5 : 1"
       sodipodi:type="inkscape:persp3d" />
    <inkscape:perspective
       id="perspective6594"
       inkscape:persp3d-origin="0.5 : 0.33333333 : 1"
       inkscape:vp_z="1 : 0.5 : 1"
       inkscape:vp_y="0 : 1000 : 0"
       inkscape:vp_x="0 : 0.5 : 1"
       sodipodi:type="inkscape:persp3d" />
    <inkscape:perspective
       id="perspective6614"
       inkscape:persp3d-origin="0.5 : 0.33333333 : 1"
       inkscape:vp_z="1 : 0.5 : 1"
       inkscape:vp_y="0 : 1000 : 0"
       inkscape:vp_x="0 : 0.5 : 1"
       sodipodi:type="inkscape:persp3d" />
    <inkscape:perspective
       id="perspective6650"
       inkscape:persp3d-origin="0.5 : 0.33333333 : 1"
       inkscape:vp_z="1 : 0.5 : 1"
       inkscape:vp_y="0 : 1000 : 0"
       inkscape:vp_x="0 : 0.5 : 1"
       sodipodi:type="inkscape:persp3d" />
    <inkscape:perspective
       id="perspective6676"
       inkscape:persp3d-origin="0.5 : 0.33333333 : 1"
       inkscape:vp_z="1 : 0.5 : 1"
       inkscape:vp_y="0 : 1000 : 0"
       inkscape:vp_x="0 : 0.5 : 1"
       sodipodi:type="inkscape:persp3d" />
    <inkscape:perspective
       id="perspective6710"
       inkscape:persp3d-origin="0.5 : 0.33333333 : 1"
       inkscape:vp_z="1 : 0.5 : 1"
       inkscape:vp_y="0 : 1000 : 0"
       inkscape:vp_x="0 : 0.5 : 1"
       sodipodi:type="inkscape:persp3d" />
    <inkscape:perspective
       id="perspective6748"
       inkscape:persp3d-origin="0.5 : 0.33333333 : 1"
       inkscape:vp_z="1 : 0.5 : 1"
       inkscape:vp_y="0 : 1000 : 0"
       inkscape:vp_x="0 : 0.5 : 1"
       sodipodi:type="inkscape:persp3d" />
    <inkscape:perspective
       id="perspective6786"
       inkscape:persp3d-origin="0.5 : 0.33333333 : 1"
       inkscape:vp_z="1 : 0.5 : 1"
       inkscape:vp_y="0 : 1000 : 0"
       inkscape:vp_x="0 : 0.5 : 1"
       sodipodi:type="inkscape:persp3d" />
    <inkscape:perspective
       id="perspective6810"
       inkscape:persp3d-origin="0.5 : 0.33333333 : 1"
       inkscape:vp_z="1 : 0.5 : 1"
       inkscape:vp_y="0 : 1000 : 0"
       inkscape:vp_x="0 : 0.5 : 1"
       sodipodi:type="inkscape:persp3d" />
    <inkscape:perspective
       id="perspective6848"
       inkscape:persp3d-origin="0.5 : 0.33333333 : 1"
       inkscape:vp_z="1 : 0.5 : 1"
       inkscape:vp_y="0 : 1000 : 0"
       inkscape:vp_x="0 : 0.5 : 1"
       sodipodi:type="inkscape:persp3d" />
  </defs>
  <sodipodi:namedview
     id="base"
     pagecolor="#ffffff"
     bordercolor="#666666"
     borderopacity="1.0"
     inkscape:pageopacity="0.0"
     inkscape:pageshadow="2"
     inkscape:zoom="8.671875"
     inkscape:cx="10.564203"
     inkscape:cy="2.743179"
     inkscape:document-units="px"
     inkscape:current-layer="layer1"
     showgrid="true"
     inkscape:window-width="1280"
     inkscape:window-height="780"
     inkscape:window-x="-8"
     inkscape:window-y="-8"
     inkscape:window-maximized="1">
    <inkscape:grid
       type="xygrid"
       id="grid6324"
       empspacing="5"
       visible="true"
       enabled="true"
       snapvisiblegridlinesonly="true" />
  </sodipodi:namedview>
  <metadata
     id="metadata7">
    <rdf:RDF>
      <cc:Work
         rdf:about="">
        <dc:format>image/svg+xml</dc:format>
        <dc:type
           rdf:resource="http://purl.org/dc/dcmitype/StillImage" />
        <dc:title></dc:title>
      </cc:Work>
    </rdf:RDF>
  </metadata>
  <g
     inkscape:label="Calque 1"
     inkscape:groupmode="layer"
     id="layer1"
     transform="translate(0,-1036.3622)">
    <g
       id="g6854"
       transform="translate(0.7354173,0.1791)">
      <path
         style="fill:#bfbfbf"
         d="m 7.5746213,1050.9364 c -0.03694,0 -0.1847019,-0.1415 -0.3283588,-0.3047 l -0.2611943,-0.2966 0,-0.4363 0,-0.4362 -0.5128907,-0.5129 -0.5128909,-0.5129 -0.4423343,0 -0.4423343,0 -0.3134333,-0.3134 -0.3134332,-0.3134 0.3134332,-0.3135 0.3134333,-0.3134 0.4423343,0 0.4423343,0 0.5128909,-0.5129 0.5128907,-0.5129 0,-0.3229 0,-0.3229 -0.417911,0 c -0.2298511,0 -0.417911,-0.05 -0.417911,-0.1115 0,-0.061 0.3291049,-0.4405 0.7313442,-0.8428 l 0.7313442,-0.7313 0.7313443,0.7313 c 0.4022393,0.4023 0.7313442,0.7815 0.7313442,0.8428 0,0.061 -0.1880599,0.1115 -0.417911,0.1115 l -0.417911,0 0,0.3229 0,0.3229 0.5128907,0.5129 0.5128909,0.5129 0.4423343,0 0.442334,0 0.313434,0.3134 0.313433,0.3135 -0.313433,0.3134 -0.313434,0.3134 -0.442334,0 -0.4423343,0 -0.5128909,0.5129 -0.5128907,0.5129 0,0.4424 0,0.4423 -0.2985077,0.2985 c -0.1641795,0.1642 -0.3287319,0.2949 -0.3656721,0.2906 z m -1.2164196,-7.5145 -0.6268665,0 0,-0.2089 c 0,-0.115 0.09403,-0.209 0.2089555,-0.209 l 0.2089555,0 0,-1.6716 0,-1.6717 -0.2089555,0 c -0.1149255,0 -0.2089555,-0.094 -0.2089555,-0.2089 l 0,-0.209 0.835822,0 0.835822,0 0,0.3718 0,0.3718 0.4179109,0.3012 0.417911,0.3012 0,0.3718 0,0.3718 0.2089555,0 0.2089555,0 0,-0.8359 0,-0.8358 -0.2089555,0 c -0.1149255,0 -0.2089555,-0.094 -0.2089555,-0.2089 l 0,-0.209 0.835822,0 0.835822,0 0,0.209 c 0,0.1149 -0.09403,0.2089 -0.2089555,0.2089 l -0.2089555,0 0,1.6717 0,1.6716 0.2089555,0 c 0.1149255,0 0.2089555,0.094 0.2089555,0.209 l 0,0.2089 -0.6268665,0 -0.6268665,0 0,-0.4179 0,-0.4179 -0.2089555,0 -0.2089555,0 0,-0.3718 0,-0.3718 -0.417911,-0.3012 -0.4179109,-0.3012 0,-0.3718 0,-0.3718 -0.2089555,0 -0.2089555,0 0,1.4627 0,1.4627 -0.6268665,0 z"
         id="path6860" />
      <path
         style="fill:#00007f"
         d="m 7.5746213,1050.9364 c -0.03694,0 -0.1847019,-0.1415 -0.3283588,-0.3047 l -0.2611943,-0.2966 0,-0.4363 0,-0.4362 -0.5128907,-0.5129 -0.5128909,-0.5129 -0.4423343,0 -0.4423343,0 -0.3134333,-0.3134 -0.3134332,-0.3134 0.3134332,-0.3135 0.3134333,-0.3134 0.4423343,0 0.4423343,0 0.5128909,-0.5129 0.5128907,-0.5129 0,-0.3229 0,-0.3229 -0.417911,0 c -0.2298511,0 -0.417911,-0.05 -0.417911,-0.1115 0,-0.061 0.3291049,-0.4405 0.7313442,-0.8428 l 0.7313442,-0.7313 0.7313443,0.7313 c 0.4022393,0.4023 0.7313442,0.7815 0.7313442,0.8428 0,0.061 -0.1880599,0.1115 -0.417911,0.1115 l -0.417911,0 0,0.3229 0,0.3229 0.5128907,0.5129 0.5128909,0.5129 0.4423343,0 0.442334,0 0.313434,0.3134 0.313433,0.3135 -0.313433,0.3134 -0.313434,0.3134 -0.442334,0 -0.4423343,0 -0.5128909,0.5129 -0.5128907,0.5129 0,0.4424 0,0.4423 -0.2985077,0.2985 c -0.1641795,0.1642 -0.3287319,0.2949 -0.3656721,0.2906 z m 0,-2.0896 0.4850751,0.01 0.298508,-0.2986 0.2985077,-0.2985 0,-0.4477 0,-0.4478 -0.2985077,-0.2985 -0.298508,-0.2985 -0.4477618,0 -0.4477617,0 -0.298508,0.2985 -0.2985077,0.2985 0,0.4417 0,0.4416 0.2611944,0.2967 0.2611943,0.2967 0.4850754,0.01 z m -1.2164196,-5.4249 -0.6268665,0 0,-0.2089 c 0,-0.115 0.09403,-0.209 0.2089555,-0.209 l 0.2089555,0 0,-1.6716 0,-1.6717 -0.2089555,0 c -0.1149255,0 -0.2089555,-0.094 -0.2089555,-0.2089 l 0,-0.209 0.835822,0 0.835822,0 0,0.3718 0,0.3718 0.4179109,0.3012 0.417911,0.3012 0,0.3718 0,0.3718 0.2089555,0 0.2089555,0 0,-0.8359 0,-0.8358 -0.2089555,0 c -0.1149255,0 -0.2089555,-0.094 -0.2089555,-0.2089 l 0,-0.209 0.835822,0 0.835822,0 0,0.209 c 0,0.1149 -0.09403,0.2089 -0.2089555,0.2089 l -0.2089555,0 0,1.6717 0,1.6716 0.2089555,0 c 0.1149255,0 0.2089555,0.094 0.2089555,0.209 l 0,0.2089 -0.6268665,0 -0.6268665,0 0,-0.4179 0,-0.4179 -0.2089555,0 -0.2089555,0 0,-0.3718 0,-0.3718 -0.417911,-0.3012 -0.4179109,-0.3012 0,-0.3718 0,-0.3718 -0.2089555,0 -0.2089555,0 0,1.4627 0,1.4627 -0.6268665,0 z"
         id="path6858" />
      <path
         style="fill:#000000"
         d="m 7.5746213,1050.9364 c -0.03694,0 -0.1847019,-0.1415 -0.3283588,-0.3047 l -0.2611943,-0.2966 0,-0.4363 0,-0.4362 -0.5128907,-0.5129 -0.5128909,-0.5129 -0.4423343,0 -0.4423343,0 -0.3134333,-0.3134 -0.3134332,-0.3134 0.3134332,-0.3135 0.3134333,-0.3134 0.4423343,0 0.4423343,0 0.5128909,-0.5129 0.5128907,-0.5129 0,-0.3229 0,-0.3229 -0.417911,0 c -0.2298511,0 -0.417911,-0.05 -0.417911,-0.1115 0,-0.061 0.3291049,-0.4405 0.7313442,-0.8428 l 0.7313442,-0.7313 0.7313443,0.7313 c 0.4022393,0.4023 0.7313442,0.7815 0.7313442,0.8428 0,0.061 -0.1880599,0.1115 -0.417911,0.1115 l -0.417911,0 0,0.3229 0,0.3229 0.5128907,0.5129 0.5128909,0.5129 0.4423343,0 0.442334,0 0.313434,0.3134 0.313433,0.3135 -0.313433,0.3134 -0.313434,0.3134 -0.442334,0 -0.4423343,0 -0.5128909,0.5129 -0.5128907,0.5129 0,0.4424 0,0.4423 -0.2985077,0.2985 c -0.1641795,0.1642 -0.3287319,0.2949 -0.3656721,0.2906 z m 0,-2.0896 0.4850751,0.01 0.298508,-0.2986 0.2985077,-0.2985 0,-0.4477 0,-0.4478 -0.2985077,-0.2985 -0.298508,-0.2985 -0.4477618,0 -0.4477617,0 -0.298508,0.2985 -0.2985077,0.2985 0,0.4417 0,0.4416 0.2611944,0.2967 0.2611943,0.2967 0.4850754,0.01 z"
         id="path6856" />
    </g>
  </g>
</svg>
