<?xml version="1.0" encoding="UTF-8" standalone="no"?>
<!-- Created with Inkscape (http://www.inkscape.org/) -->

<svg
   xmlns:dc="http://purl.org/dc/elements/1.1/"
   xmlns:cc="http://creativecommons.org/ns#"
   xmlns:rdf="http://www.w3.org/1999/02/22-rdf-syntax-ns#"
   xmlns:svg="http://www.w3.org/2000/svg"
   xmlns="http://www.w3.org/2000/svg"
   xmlns:sodipodi="http://sodipodi.sourceforge.net/DTD/sodipodi-0.dtd"
   xmlns:inkscape="http://www.inkscape.org/namespaces/inkscape"
   width="16"
   height="16"
   id="svg2"
   version="1.1"
   inkscape:version="0.47 r22583"
   sodipodi:docname="construction-64.svg">
  <defs
     id="defs4">
    <inkscape:perspective
       sodipodi:type="inkscape:persp3d"
       inkscape:vp_x="0 : 526.18109 : 1"
       inkscape:vp_y="0 : 1000 : 0"
       inkscape:vp_z="744.09448 : 526.18109 : 1"
       inkscape:persp3d-origin="372.04724 : 350.78739 : 1"
       id="perspective10" />
    <inkscape:perspective
       id="perspective2824"
       inkscape:persp3d-origin="0.5 : 0.33333333 : 1"
       inkscape:vp_z="1 : 0.5 : 1"
       inkscape:vp_y="0 : 1000 : 0"
       inkscape:vp_x="0 : 0.5 : 1"
       sodipodi:type="inkscape:persp3d" />
    <inkscape:perspective
       id="perspective5878"
       inkscape:persp3d-origin="0.5 : 0.33333333 : 1"
       inkscape:vp_z="1 : 0.5 : 1"
       inkscape:vp_y="0 : 1000 : 0"
       inkscape:vp_x="0 : 0.5 : 1"
       sodipodi:type="inkscape:persp3d" />
    <inkscape:perspective
       id="perspective5921"
       inkscape:persp3d-origin="0.5 : 0.33333333 : 1"
       inkscape:vp_z="1 : 0.5 : 1"
       inkscape:vp_y="0 : 1000 : 0"
       inkscape:vp_x="0 : 0.5 : 1"
       sodipodi:type="inkscape:persp3d" />
    <inkscape:perspective
       id="perspective5943"
       inkscape:persp3d-origin="0.5 : 0.33333333 : 1"
       inkscape:vp_z="1 : 0.5 : 1"
       inkscape:vp_y="0 : 1000 : 0"
       inkscape:vp_x="0 : 0.5 : 1"
       sodipodi:type="inkscape:persp3d" />
    <inkscape:perspective
       id="perspective5989"
       inkscape:persp3d-origin="0.5 : 0.33333333 : 1"
       inkscape:vp_z="1 : 0.5 : 1"
       inkscape:vp_y="0 : 1000 : 0"
       inkscape:vp_x="0 : 0.5 : 1"
       sodipodi:type="inkscape:persp3d" />
    <inkscape:perspective
       id="perspective6011"
       inkscape:persp3d-origin="0.5 : 0.33333333 : 1"
       inkscape:vp_z="1 : 0.5 : 1"
       inkscape:vp_y="0 : 1000 : 0"
       inkscape:vp_x="0 : 0.5 : 1"
       sodipodi:type="inkscape:persp3d" />
    <inkscape:perspective
       id="perspective6033"
       inkscape:persp3d-origin="0.5 : 0.33333333 : 1"
       inkscape:vp_z="1 : 0.5 : 1"
       inkscape:vp_y="0 : 1000 : 0"
       inkscape:vp_x="0 : 0.5 : 1"
       sodipodi:type="inkscape:persp3d" />
    <inkscape:perspective
       id="perspective6245"
       inkscape:persp3d-origin="0.5 : 0.33333333 : 1"
       inkscape:vp_z="1 : 0.5 : 1"
       inkscape:vp_y="0 : 1000 : 0"
       inkscape:vp_x="0 : 0.5 : 1"
       sodipodi:type="inkscape:persp3d" />
    <inkscape:perspective
       id="perspective6269"
       inkscape:persp3d-origin="0.5 : 0.33333333 : 1"
       inkscape:vp_z="1 : 0.5 : 1"
       inkscape:vp_y="0 : 1000 : 0"
       inkscape:vp_x="0 : 0.5 : 1"
       sodipodi:type="inkscape:persp3d" />
    <inkscape:perspective
       id="perspective6364"
       inkscape:persp3d-origin="0.5 : 0.33333333 : 1"
       inkscape:vp_z="1 : 0.5 : 1"
       inkscape:vp_y="0 : 1000 : 0"
       inkscape:vp_x="0 : 0.5 : 1"
       sodipodi:type="inkscape:persp3d" />
    <inkscape:perspective
       id="perspective6396"
       inkscape:persp3d-origin="0.5 : 0.33333333 : 1"
       inkscape:vp_z="1 : 0.5 : 1"
       inkscape:vp_y="0 : 1000 : 0"
       inkscape:vp_x="0 : 0.5 : 1"
       sodipodi:type="inkscape:persp3d" />
    <inkscape:perspective
       id="perspective6438"
       inkscape:persp3d-origin="0.5 : 0.33333333 : 1"
       inkscape:vp_z="1 : 0.5 : 1"
       inkscape:vp_y="0 : 1000 : 0"
       inkscape:vp_x="0 : 0.5 : 1"
       sodipodi:type="inkscape:persp3d" />
    <inkscape:perspective
       id="perspective6460"
       inkscape:persp3d-origin="0.5 : 0.33333333 : 1"
       inkscape:vp_z="1 : 0.5 : 1"
       inkscape:vp_y="0 : 1000 : 0"
       inkscape:vp_x="0 : 0.5 : 1"
       sodipodi:type="inkscape:persp3d" />
    <inkscape:perspective
       id="perspective6480"
       inkscape:persp3d-origin="0.5 : 0.33333333 : 1"
       inkscape:vp_z="1 : 0.5 : 1"
       inkscape:vp_y="0 : 1000 : 0"
       inkscape:vp_x="0 : 0.5 : 1"
       sodipodi:type="inkscape:persp3d" />
    <inkscape:perspective
       id="perspective6504"
       inkscape:persp3d-origin="0.5 : 0.33333333 : 1"
       inkscape:vp_z="1 : 0.5 : 1"
       inkscape:vp_y="0 : 1000 : 0"
       inkscape:vp_x="0 : 0.5 : 1"
       sodipodi:type="inkscape:persp3d" />
    <inkscape:perspective
       id="perspective6524"
       inkscape:persp3d-origin="0.5 : 0.33333333 : 1"
       inkscape:vp_z="1 : 0.5 : 1"
       inkscape:vp_y="0 : 1000 : 0"
       inkscape:vp_x="0 : 0.5 : 1"
       sodipodi:type="inkscape:persp3d" />
    <inkscape:perspective
       id="perspective6548"
       inkscape:persp3d-origin="0.5 : 0.33333333 : 1"
       inkscape:vp_z="1 : 0.5 : 1"
       inkscape:vp_y="0 : 1000 : 0"
       inkscape:vp_x="0 : 0.5 : 1"
       sodipodi:type="inkscape:persp3d" />
    <inkscape:perspective
       id="perspective6572"
       inkscape:persp3d-origin="0.5 : 0.33333333 : 1"
       inkscape:vp_z="1 : 0.5 : 1"
       inkscape:vp_y="0 : 1000 : 0"
       inkscape:vp_x="0 : 0.5 : 1"
       sodipodi:type="inkscape:persp3d" />
    <inkscape:perspective
       id="perspective6594"
       inkscape:persp3d-origin="0.5 : 0.33333333 : 1"
       inkscape:vp_z="1 : 0.5 : 1"
       inkscape:vp_y="0 : 1000 : 0"
       inkscape:vp_x="0 : 0.5 : 1"
       sodipodi:type="inkscape:persp3d" />
    <inkscape:perspective
       id="perspective6614"
       inkscape:persp3d-origin="0.5 : 0.33333333 : 1"
       inkscape:vp_z="1 : 0.5 : 1"
       inkscape:vp_y="0 : 1000 : 0"
       inkscape:vp_x="0 : 0.5 : 1"
       sodipodi:type="inkscape:persp3d" />
    <inkscape:perspective
       id="perspective6650"
       inkscape:persp3d-origin="0.5 : 0.33333333 : 1"
       inkscape:vp_z="1 : 0.5 : 1"
       inkscape:vp_y="0 : 1000 : 0"
       inkscape:vp_x="0 : 0.5 : 1"
       sodipodi:type="inkscape:persp3d" />
    <inkscape:perspective
       id="perspective6676"
       inkscape:persp3d-origin="0.5 : 0.33333333 : 1"
       inkscape:vp_z="1 : 0.5 : 1"
       inkscape:vp_y="0 : 1000 : 0"
       inkscape:vp_x="0 : 0.5 : 1"
       sodipodi:type="inkscape:persp3d" />
    <inkscape:perspective
       id="perspective6710"
       inkscape:persp3d-origin="0.5 : 0.33333333 : 1"
       inkscape:vp_z="1 : 0.5 : 1"
       inkscape:vp_y="0 : 1000 : 0"
       inkscape:vp_x="0 : 0.5 : 1"
       sodipodi:type="inkscape:persp3d" />
    <inkscape:perspective
       id="perspective6748"
       inkscape:persp3d-origin="0.5 : 0.33333333 : 1"
       inkscape:vp_z="1 : 0.5 : 1"
       inkscape:vp_y="0 : 1000 : 0"
       inkscape:vp_x="0 : 0.5 : 1"
       sodipodi:type="inkscape:persp3d" />
    <inkscape:perspective
       id="perspective6786"
       inkscape:persp3d-origin="0.5 : 0.33333333 : 1"
       inkscape:vp_z="1 : 0.5 : 1"
       inkscape:vp_y="0 : 1000 : 0"
       inkscape:vp_x="0 : 0.5 : 1"
       sodipodi:type="inkscape:persp3d" />
    <inkscape:perspective
       id="perspective6810"
       inkscape:persp3d-origin="0.5 : 0.33333333 : 1"
       inkscape:vp_z="1 : 0.5 : 1"
       inkscape:vp_y="0 : 1000 : 0"
       inkscape:vp_x="0 : 0.5 : 1"
       sodipodi:type="inkscape:persp3d" />
    <inkscape:perspective
       id="perspective6848"
       inkscape:persp3d-origin="0.5 : 0.33333333 : 1"
       inkscape:vp_z="1 : 0.5 : 1"
       inkscape:vp_y="0 : 1000 : 0"
       inkscape:vp_x="0 : 0.5 : 1"
       sodipodi:type="inkscape:persp3d" />
    <inkscape:perspective
       id="perspective6870"
       inkscape:persp3d-origin="0.5 : 0.33333333 : 1"
       inkscape:vp_z="1 : 0.5 : 1"
       inkscape:vp_y="0 : 1000 : 0"
       inkscape:vp_x="0 : 0.5 : 1"
       sodipodi:type="inkscape:persp3d" />
    <inkscape:perspective
       id="perspective6908"
       inkscape:persp3d-origin="0.5 : 0.33333333 : 1"
       inkscape:vp_z="1 : 0.5 : 1"
       inkscape:vp_y="0 : 1000 : 0"
       inkscape:vp_x="0 : 0.5 : 1"
       sodipodi:type="inkscape:persp3d" />
  </defs>
  <sodipodi:namedview
     id="base"
     pagecolor="#ffffff"
     bordercolor="#666666"
     borderopacity="1.0"
     inkscape:pageopacity="0.0"
     inkscape:pageshadow="2"
     inkscape:zoom="8.671875"
     inkscape:cx="10.564203"
     inkscape:cy="2.743179"
     inkscape:document-units="px"
     inkscape:current-layer="layer1"
     showgrid="true"
     inkscape:window-width="1280"
     inkscape:window-height="780"
     inkscape:window-x="-8"
     inkscape:window-y="-8"
     inkscape:window-maximized="1">
    <inkscape:grid
       type="xygrid"
       id="grid6324"
       empspacing="5"
       visible="true"
       enabled="true"
       snapvisiblegridlinesonly="true" />
  </sodipodi:namedview>
  <metadata
     id="metadata7">
    <rdf:RDF>
      <cc:Work
         rdf:about="">
        <dc:format>image/svg+xml</dc:format>
        <dc:type
           rdf:resource="http://purl.org/dc/dcmitype/StillImage" />
        <dc:title></dc:title>
      </cc:Work>
    </rdf:RDF>
  </metadata>
  <g
     inkscape:label="Calque 1"
     inkscape:groupmode="layer"
     id="layer1"
     transform="translate(0,-1036.3622)">
    <g
       id="g6914"
       transform="translate(0.1217895,-0.0991)">
      <path
         style="fill:#fcf997"
         d="m 3.8899211,1050.5622 -0.8899366,0 0,-0.2119 c 0,-0.1165 0.2267276,-1.219 0.5038391,-2.45 0.2771115,-1.2309 0.5531767,-2.3956 0.6134784,-2.5881 l 0.1096391,-0.35 -0.9134786,0 -0.9134787,0 0,-1.077 0,-1.077 0.4929639,-0.323 0.492964,-0.323 5.4070437,0 5.4070436,0 -0.0063,0.85 -0.0063,0.85 -0.484087,0.55 -0.484087,0.55 -0.435427,0 -0.435428,0 0.136475,1.25 c 0.07506,0.6875 0.188189,1.5875 0.251395,2 l 0.11492,0.75 -0.653513,0 -0.653514,0 -0.244239,-0.334 -0.244239,-0.334 -0.140065,0.934 -0.140065,0.934 -0.9655731,0 -0.9655736,0 0.6556546,-2.6 0.6556551,-2.6 -1.9050147,0 -1.905014,0 0.1307645,0.95 c 0.071921,0.5225 0.1865453,1.4225 0.2547216,2 l 0.1239567,1.05 -0.7136271,0 -0.7136269,0 -0.068411,-0.45 -0.068411,-0.45 -0.2555641,1.25 -0.255564,1.25 -0.8899367,0 z m 0.9892325,-8.7423 -0.620834,0.1206 -0.2291671,-0.2291 -0.2291669,-0.2292 0,-0.7355 0,-0.7355 0.2746507,-0.228 0.2746508,-0.2279 0.32535,0.1248 0.32535,0.1249 0,0.3786 0,0.3786 -0.3000004,0 -0.3000004,0 0,0.1767 0,0.1767 0.3889409,0.1017 0.3889412,0.1017 0.061059,-0.6284 0.06106,-0.6284 0.422928,-0.06 0.4229281,-0.06 0.1270726,0.6353 c 0.06989,0.3495 0.1270727,0.8042 0.1270727,1.0104 l 0,0.375 -0.3000004,0 -0.3000003,0 -0.00306,-0.25 -0.00306,-0.25 -0.1469375,0.2186 -0.1469376,0.2185 -0.6208342,0.1206 z m 0.2208337,-0.2577 c 0.055,0 0.1000001,-0.045 0.1000001,-0.1 0,-0.055 -0.045,-0.1 -0.1000001,-0.1 -0.055,0 -0.1000002,0.045 -0.1000002,0.1 0,0.055 0.045,0.1 0.1000002,0.1 z m 2.235717,0.3939 c -0.019643,0 -0.1932144,-0.098 -0.3857147,-0.2099 l -0.3500004,-0.2039 0,-0.89 0,-0.8901 0.3000004,0 0.3000004,0 0.03605,0.95 0.03605,0.95 0.074909,-0.95 0.074909,-0.95 0.9104408,0 0.9104408,0 -0.121398,0.3164 c -0.066769,0.174 -0.1213979,0.624 -0.1213979,1 l 0,0.6836 -0.3000004,0 -0.3000004,0 0,-0.8 0,-0.8 -0.2000003,0 -0.2000002,0 0,0.5857 0,0.5857 -0.3142862,0.3143 c -0.1728572,0.1729 -0.3303574,0.3116 -0.3500005,0.3082 z m 3.6781797,-0.2013 -0.386111,0.2066 -0.31389,-0.3139 -0.3138894,-0.3139 0,0.2143 0,0.2143 -0.3000004,0 -0.3000004,0 0,-1 0,-1 0.3000004,0 0.3000004,0 0,0.2143 0,0.2143 0.3138894,-0.3139 0.31389,-0.3139 0.386111,0.2066 0.386111,0.2067 0,0.7859 0,0.7859 -0.386111,0.2067 z m -0.276024,-0.6426 c 0.0503,-0.1925 0.0503,-0.5075 0,-0.7 l -0.09146,-0.35 0,0.7 0,0.7 0.09146,-0.35 z m 1.047471,0.65 -0.185335,0 0,-1 0,-1 0.2,0 0.2,0 0.01579,0.25 0.01579,0.25 0.100877,-0.25 0.100877,-0.25 0.283333,0 0.283334,0 0,1 0,1 -0.3,0 -0.300001,0 -0.0232,-0.35 -0.0232,-0.35 -0.09146,0.35 -0.09147,0.35 -0.185335,0 z"
         id="path6936" />
      <path
         style="fill:#fdf26c"
         d="m 3.8899211,1050.5622 -0.8899366,0 0,-0.2119 c 0,-0.1165 0.2267276,-1.219 0.5038391,-2.45 0.2771115,-1.2309 0.5531767,-2.3956 0.6134784,-2.5881 l 0.1096391,-0.35 -0.9134786,0 -0.9134787,0 0,-1.077 0,-1.077 0.4929639,-0.323 0.492964,-0.323 5.4070437,0 5.4070436,0 -0.0063,0.85 -0.0063,0.85 -0.484087,0.55 -0.484087,0.55 -0.435427,0 -0.435428,0 0.136475,1.25 c 0.07506,0.6875 0.188189,1.5875 0.251395,2 l 0.11492,0.75 -0.653513,0 -0.653514,0 -0.244239,-0.334 -0.244239,-0.334 -0.140065,0.934 -0.140065,0.934 -0.9655731,0 -0.9655736,0 0.6556546,-2.6 0.6556551,-2.6 -1.9050147,0 -1.905014,0 0.1307645,0.95 c 0.071921,0.5225 0.1865453,1.4225 0.2547216,2 l 0.1239567,1.05 -0.7136271,0 -0.7136269,0 -0.068411,-0.45 -0.068411,-0.45 -0.2555641,1.25 -0.255564,1.25 -0.8899367,0 z m -0.3686764,-0.2 0.2787409,0 -0.015789,-1.05 c -0.00868,-0.5775 -0.050853,-0.96 -0.093708,-0.85 -0.042855,0.11 -0.161183,0.5825 -0.2629514,1.05 l -0.1850333,0.85 0.2787409,0 z m 5.9749378,-0.4 0.3038108,0 -0.017191,-1.05 -0.01719,-1.05 -0.1503528,0.5 c -0.082694,0.275 -0.2116731,0.7475 -0.2866204,1.05 l -0.1362674,0.55 0.3038108,0 z m -6.0628641,-5.4 c 0.4583339,0 0.7948415,-0.023 0.7477949,-0.05 -0.047047,-0.027 -0.4220474,-0.3601 -0.8333345,-0.7392 l -0.7477948,-0.6893 0,0.7393 0,0.7392 0.8333344,0 z m 3.5548679,-1.8 1.2118049,0 0,-0.2 0,-0.2 -1.088198,0 -1.088198,0 -0.1236069,0.2 -0.123607,0.2 1.211805,0 z m -2.1090327,-0.9423 -0.620834,0.1206 -0.2291671,-0.2291 -0.2291669,-0.2292 0,-0.7355 0,-0.7355 0.2746507,-0.228 0.2746508,-0.2279 0.32535,0.1248 0.32535,0.1249 0,0.3786 0,0.3786 -0.3000004,0 -0.3000004,0 0,0.1767 0,0.1767 0.3889409,0.1017 0.3889412,0.1017 0.061059,-0.6284 0.06106,-0.6284 0.422928,-0.06 0.4229281,-0.06 0.1270726,0.6353 c 0.06989,0.3495 0.1270727,0.8042 0.1270727,1.0104 l 0,0.375 -0.3000004,0 -0.3000003,0 -0.00306,-0.25 -0.00306,-0.25 -0.1469375,0.2186 -0.1469376,0.2185 -0.6208342,0.1206 z m 0.2208337,-0.2577 c 0.055,0 0.1000001,-0.045 0.1000001,-0.1 0,-0.055 -0.045,-0.1 -0.1000001,-0.1 -0.055,0 -0.1000002,0.045 -0.1000002,0.1 0,0.055 0.045,0.1 0.1000002,0.1 z m 2.235717,0.3939 c -0.019643,0 -0.1932144,-0.098 -0.3857147,-0.2099 l -0.3500004,-0.2039 0,-0.89 0,-0.8901 0.3000004,0 0.3000004,0 0.03605,0.95 0.03605,0.95 0.074909,-0.95 0.074909,-0.95 0.9104408,0 0.9104408,0 -0.121398,0.3164 c -0.066769,0.174 -0.1213979,0.624 -0.1213979,1 l 0,0.6836 -0.3000004,0 -0.3000004,0 0,-0.8 0,-0.8 -0.2000003,0 -0.2000002,0 0,0.5857 0,0.5857 -0.3142862,0.3143 c -0.1728572,0.1729 -0.3303574,0.3116 -0.3500005,0.3082 z m 3.6781797,-0.2013 -0.386111,0.2066 -0.31389,-0.3139 -0.3138894,-0.3139 0,0.2143 0,0.2143 -0.3000004,0 -0.3000004,0 0,-1 0,-1 0.3000004,0 0.3000004,0 0,0.2143 0,0.2143 0.3138894,-0.3139 0.31389,-0.3139 0.386111,0.2066 0.386111,0.2067 0,0.7859 0,0.7859 -0.386111,0.2067 z m -0.276024,-0.6426 c 0.0503,-0.1925 0.0503,-0.5075 0,-0.7 l -0.09146,-0.35 0,0.7 0,0.7 0.09146,-0.35 z m 1.047471,0.65 -0.185335,0 0,-1 0,-1 0.2,0 0.2,0 0.01579,0.25 0.01579,0.25 0.100877,-0.25 0.100877,-0.25 0.283333,0 0.283334,0 0,1 0,1 -0.3,0 -0.300001,0 -0.0232,-0.35 -0.0232,-0.35 -0.09146,0.35 -0.09147,0.35 -0.185335,0 z"
         id="path6934" />
      <path
         style="fill:#fdf04f"
         d="m 3.8899211,1050.5622 -0.8899366,0 0,-0.2119 c 0,-0.1165 0.2267276,-1.219 0.5038391,-2.45 0.2771115,-1.2309 0.5531767,-2.3956 0.6134784,-2.5881 l 0.1096391,-0.35 -0.9134786,0 -0.9134787,0 0,-1.077 0,-1.077 0.4929639,-0.323 0.492964,-0.323 5.4070437,0 5.4070436,0 -0.0063,0.85 -0.0063,0.85 -0.484087,0.55 -0.484087,0.55 -0.435427,0 -0.435428,0 0.136475,1.25 c 0.07506,0.6875 0.188189,1.5875 0.251395,2 l 0.11492,0.75 -0.653513,0 -0.653514,0 -0.244239,-0.334 -0.244239,-0.334 -0.140065,0.934 -0.140065,0.934 -0.9655731,0 -0.9655736,0 0.6556546,-2.6 0.6556551,-2.6 -1.9050147,0 -1.905014,0 0.1307645,0.95 c 0.071921,0.5225 0.1865453,1.4225 0.2547216,2 l 0.1239567,1.05 -0.7136271,0 -0.7136269,0 -0.068411,-0.45 -0.068411,-0.45 -0.2555641,1.25 -0.255564,1.25 -0.8899367,0 z m -0.093746,-0.2 0.6038111,0 -0.021883,-2.35 -0.021883,-2.35 -0.4423204,1.8 c -0.2432762,0.99 -0.5051438,2.0475 -0.5819279,2.35 l -0.1396074,0.55 0.6038112,0 z m 6.0000077,-0.4 0.6038112,0 -0.01812,-2.25 -0.01812,-2.25 -0.4722279,1.8 c -0.2597253,0.99 -0.5232873,2.0025 -0.5856931,2.25 l -0.1134654,0.45 0.6038112,0 z m -3.9961947,-1.2 0.2000002,0 0,-0.6118 0,-0.6118 -0.2000002,0.1236 -0.2000003,0.1236 0,0.4882 0,0.4882 0.2000003,0 z m 6.0000079,0 0.2,0 0,-0.6118 0,-0.6118 -0.2,0.1236 -0.2,0.1236 0,0.4882 0,0.4882 0.2,0 z m -0.2,-1.5 c 0.11,-0.068 0.2,-0.1686 0.2,-0.2236 0,-0.055 -0.09,-0.044 -0.2,0.024 -0.110001,0.068 -0.200001,0.1686 -0.200001,0.2236 0,0.055 0.09,0.044 0.200001,-0.024 z m -5.9000081,-0.1 c 0.055,0 0.1000002,-0.045 0.1000002,-0.1 0,-0.055 -0.045,-0.1 -0.1000002,-0.1 -0.055,0 -0.1000001,0.045 -0.1000001,0.1 0,0.055 0.045,0.1 0.1000001,0.1 z m 0.1050002,-0.6 0.1950002,0 0,-0.7333 c 0,-0.4034 -0.032072,-0.6959 -0.071272,-0.65 -0.039199,0.046 -0.1269495,0.3758 -0.1950002,0.7333 l -0.1237282,0.65 0.1950003,0 z m 5.9950079,0 0.2,0 -0.01406,-0.75 -0.01406,-0.75 -0.171886,0.4 c -0.09454,0.22 -0.178212,0.5575 -0.185943,0.75 l -0.01406,0.35 0.2,0 z m -8.360011,-2 0.8400011,0 -0.1900003,-0.1515 c -0.1045001,-0.083 -0.4825006,-0.4152 -0.840001,-0.7375 l -0.6500009,-0.5858 0,0.7374 0,0.7374 0.8400011,0 z m 3.9241109,-0.6392 c 0.035258,-0.3296 0.022126,-0.6412 -0.029184,-0.6925 -0.051309,-0.051 -0.4851572,-0.065 -0.964107,-0.031 l -0.8708177,0.062 0.9000011,0.63 0.9000012,0.63 0.064106,-0.5992 z m 6.1737671,-0.011 c 0.05031,-0.1925 0.05031,-0.5075 0,-0.7 l -0.09146,-0.35 0,0.7 0,0.7 0.09146,-0.35 z m -6.5996769,-1.1531 1.1618049,0 0.3000004,-0.1939 0.3000004,-0.1939 -1.3381983,0 -1.3381984,0 -0.1236069,0.2 -0.123607,0.2 1.1618049,0 z m -2.0590326,-0.9392 -0.620834,0.1206 -0.2291671,-0.2291 -0.2291669,-0.2292 0,-0.7355 0,-0.7355 0.2746507,-0.228 0.2746508,-0.2279 0.32535,0.1248 0.32535,0.1249 0,0.3786 0,0.3786 -0.3000004,0 -0.3000004,0 0,0.1767 0,0.1767 0.3889409,0.1017 0.3889412,0.1017 0.061059,-0.6284 0.06106,-0.6284 0.422928,-0.06 0.4229281,-0.06 0.1270726,0.6353 c 0.06989,0.3495 0.1270727,0.8042 0.1270727,1.0104 l 0,0.375 -0.3000004,0 -0.3000003,0 -0.00306,-0.25 -0.00306,-0.25 -0.1469375,0.2186 -0.1469376,0.2185 -0.6208342,0.1206 z m 0.2208337,-0.2577 c 0.055,0 0.1000001,-0.045 0.1000001,-0.1 0,-0.055 -0.045,-0.1 -0.1000001,-0.1 -0.055,0 -0.1000002,0.045 -0.1000002,0.1 0,0.055 0.045,0.1 0.1000002,0.1 z m 2.235717,0.3939 c -0.019643,0 -0.1932144,-0.098 -0.3857147,-0.2099 l -0.3500004,-0.2039 0,-0.89 0,-0.8901 0.3000004,0 0.3000004,0 0.03605,0.95 0.03605,0.95 0.074909,-0.95 0.074909,-0.95 0.9104408,0 0.9104408,0 -0.121398,0.3164 c -0.066769,0.174 -0.1213979,0.624 -0.1213979,1 l 0,0.6836 -0.3000004,0 -0.3000004,0 0,-0.8 0,-0.8 -0.2000003,0 -0.2000002,0 0,0.5857 0,0.5857 -0.3142862,0.3143 c -0.1728572,0.1729 -0.3303574,0.3116 -0.3500005,0.3082 z m 3.6781798,-0.2013 -0.386111,0.2066 -0.31389,-0.3139 -0.3138895,-0.3139 0,0.2143 0,0.2143 -0.3000004,0 -0.3000004,0 0,-1 0,-1 0.3000004,0 0.3000004,0 0,0.2143 0,0.2143 0.3138895,-0.3139 0.31389,-0.3139 0.386111,0.2066 0.386111,0.2067 0,0.7859 0,0.7859 -0.386111,0.2067 z m -0.276024,-0.6426 c 0.0503,-0.1925 0.0503,-0.5075 0,-0.7 l -0.09146,-0.35 0,0.7 0,0.7 0.09146,-0.35 z m 1.047471,0.65 -0.185335,0 0,-1 0,-1 0.2,0 0.2,0 0.01579,0.25 0.01579,0.25 0.100877,-0.25 0.100877,-0.25 0.283333,0 0.283334,0 0,1 0,1 -0.3,0 -0.300001,0 -0.0232,-0.35 -0.0232,-0.35 -0.09146,0.35 -0.09147,0.35 -0.185335,0 z"
         id="path6932" />
      <path
         style="fill:#fcf024"
         d="m 3.8899211,1050.5622 -0.8899366,0 0,-0.2119 c 0,-0.1165 0.2267276,-1.219 0.5038391,-2.45 0.2771115,-1.2309 0.5531767,-2.3956 0.6134784,-2.5881 l 0.1096391,-0.35 -0.9134786,0 -0.9134787,0 0,-1.077 0,-1.077 0.4929639,-0.323 0.492964,-0.323 5.4070437,0 5.4070436,0 -0.0063,0.85 -0.0063,0.85 -0.484087,0.55 -0.484087,0.55 -0.435427,0 -0.435428,0 0.136475,1.25 c 0.07506,0.6875 0.188189,1.5875 0.251395,2 l 0.11492,0.75 -0.653513,0 -0.653514,0 -0.244239,-0.334 -0.244239,-0.334 -0.140065,0.934 -0.140065,0.934 -0.9655731,0 -0.9655736,0 0.6556546,-2.6 0.6556551,-2.6 -1.9050147,0 -1.905014,0 0.1307645,0.95 c 0.071921,0.5225 0.1865453,1.4225 0.2547216,2 l 0.1239567,1.05 -0.7136271,0 -0.7136269,0 -0.068411,-0.45 -0.068411,-0.45 -0.2555641,1.25 -0.255564,1.25 -0.8899367,0 z m -0.045904,-0.2 0.6868283,0 0.2345707,-1.273 0.2345707,-1.2731 0,-1.4269 0,-1.427 -0.2664921,0 -0.266492,0 -0.5606017,2.45 c -0.3083309,1.3475 -0.603039,2.5625 -0.6549069,2.7 l -0.094305,0.25 0.6868282,0 z m 6.01633,-0.4 0.6873099,0 0.123968,-0.75 c 0.06818,-0.4125 0.124958,-1.5375 0.126168,-2.5 l 0.0022,-1.75 -0.19619,0 -0.19619,0 -0.125193,0.55 c -0.06886,0.3025 -0.2999946,1.27 -0.5136398,2.15 -0.2136453,0.88 -0.4350882,1.7575 -0.4920955,1.95 l -0.1036495,0.35 0.6873099,0 z m -3.9603591,-1.2 0.3000004,0 0,-0.7245 0,-0.7245 -0.3000004,0.249 -0.3000004,0.249 0,0.4755 0,0.4755 0.3000004,0 z m 6.000008,0 0.3,0 0,-0.7245 0,-0.7245 -0.3,0.249 -0.3,0.249 0,0.4755 0,0.4755 0.3,0 z m -0.3,-1.5 c 0.11,-0.068 0.2,-0.1686 0.2,-0.2236 0,-0.055 -0.09,-0.044 -0.2,0.024 -0.110001,0.068 -0.200001,0.1686 -0.200001,0.2236 0,0.055 0.09,0.044 0.200001,-0.024 z m -5.9000083,-0.1 c 0.055,0 0.1000002,-0.045 0.1000002,-0.1 0,-0.055 -0.045,-0.1 -0.1000002,-0.1 -0.055,0 -0.1000001,0.045 -0.1000001,0.1 0,0.055 0.045,0.1 0.1000001,0.1 z m 0.1786025,-0.6 0.3213982,0 0,-0.5882 0,-0.5882 -0.2000003,-0.1236 -0.2000002,-0.1236 0,0.3954 c 0,0.2175 -0.054629,0.5379 -0.121398,0.7119 l -0.121398,0.3163 0.3213983,0 z m 6.0214058,0 0.3,0 -0.0027,-0.25 c -0.0015,-0.1375 -0.06162,-0.4702 -0.1336,-0.7393 l -0.130871,-0.4893 -0.152342,0.3893 c -0.08379,0.2141 -0.158668,0.5468 -0.166399,0.7393 l -0.01406,0.35 0.3,0 z m -8.4600112,-2 0.8400011,0 -0.1900003,-0.1515 c -0.1045001,-0.083 -0.4825006,-0.4152 -0.840001,-0.7375 l -0.6500009,-0.5858 0,0.7374 0,0.7374 0.8400011,0 z m 4.7494067,-0.01 0.9106006,-0.01 -0.800001,-0.6895 -0.8000011,-0.6895 -0.9500012,0 c -0.5225007,0 -0.9500012,0.034 -0.9500012,0.08 0,0.046 0.3777307,0.3605 0.8394017,0.7 l 0.8394015,0.6173 0.9106007,-0.01 z m 5.4106065,-0.4925 0.2,-0.1236 0,-0.4882 0,-0.4882 -0.2,0 -0.2,0 0,0.6118 0,0.6118 0.2,-0.1236 z m -6.6618121,-1.3031 1.1618049,0 0.3000004,-0.1939 0.3000004,-0.1939 -1.3381983,0 -1.3381984,0 -0.1236069,0.2 -0.123607,0.2 1.1618049,0 z m 4.2500061,0 0.411804,0 0,-0.2 0,-0.2 -0.288197,0 c -0.158509,0 -0.34382,0.09 -0.411804,0.2 l -0.123607,0.2 0.411804,0 z m -6.3090387,-0.9423 -0.620834,0.1206 -0.2291671,-0.2291 -0.2291669,-0.2292 0,-0.7355 0,-0.7355 0.2746507,-0.228 0.2746508,-0.2279 0.32535,0.1248 0.32535,0.1249 0,0.3786 0,0.3786 -0.3000004,0 -0.3000004,0 0,0.1767 0,0.1767 0.3889409,0.1017 0.3889412,0.1017 0.061059,-0.6284 0.06106,-0.6284 0.422928,-0.06 0.4229281,-0.06 0.1270726,0.6353 c 0.06989,0.3495 0.1270727,0.8042 0.1270727,1.0104 l 0,0.375 -0.3000004,0 -0.3000003,0 -0.00306,-0.25 -0.00306,-0.25 -0.1469375,0.2186 -0.1469376,0.2185 -0.6208342,0.1206 z m 0.2208337,-0.2577 c 0.055,0 0.1000001,-0.045 0.1000001,-0.1 0,-0.055 -0.045,-0.1 -0.1000001,-0.1 -0.055,0 -0.1000002,0.045 -0.1000002,0.1 0,0.055 0.045,0.1 0.1000002,0.1 z m 2.235717,0.3939 c -0.019643,0 -0.1932144,-0.098 -0.3857147,-0.2099 l -0.3500004,-0.2039 0,-0.89 0,-0.8901 0.3000004,0 0.3000004,0 0.03605,0.95 0.03605,0.95 0.074909,-0.95 0.074909,-0.95 0.9104408,0 0.9104408,0 -0.121398,0.3164 c -0.066769,0.174 -0.1213979,0.624 -0.1213979,1 l 0,0.6836 -0.3000004,0 -0.3000004,0 0,-0.8 0,-0.8 -0.2000003,0 -0.2000002,0 0,0.5857 0,0.5857 -0.3142862,0.3143 c -0.1728572,0.1729 -0.3303574,0.3116 -0.3500005,0.3082 z m 3.67818,-0.2013 -0.386111,0.2066 -0.31389,-0.3139 -0.3138897,-0.3139 0,0.2143 0,0.2143 -0.3000004,0 -0.3000004,0 0,-1 0,-1 0.3000004,0 0.3000004,0 0,0.2143 0,0.2143 0.3138897,-0.3139 0.31389,-0.3139 0.386111,0.2066 0.386111,0.2067 0,0.7859 0,0.7859 -0.386111,0.2067 z m -0.276024,-0.6426 c 0.0503,-0.1925 0.0503,-0.5075 0,-0.7 l -0.09146,-0.35 0,0.7 0,0.7 0.09146,-0.35 z m 1.047471,0.65 -0.185335,0 0,-1 0,-1 0.2,0 0.2,0 0.01579,0.25 0.01579,0.25 0.100877,-0.25 0.100877,-0.25 0.283333,0 0.283334,0 0,1 0,1 -0.3,0 -0.300001,0 -0.0232,-0.35 -0.0232,-0.35 -0.09146,0.35 -0.09147,0.35 -0.185335,0 z"
         id="path6930" />
      <path
         style="fill:#b1ae60"
         d="m 3.8899211,1050.5622 -0.8899366,0 0,-0.2119 c 0,-0.1165 0.2267276,-1.219 0.5038391,-2.45 0.2771115,-1.2309 0.5531767,-2.3956 0.6134784,-2.5881 l 0.1096391,-0.35 -0.9134786,0 -0.9134787,0 0,-1.077 0,-1.077 0.4929639,-0.323 0.492964,-0.323 5.4070437,0 5.4070436,0 -0.0063,0.85 -0.0063,0.85 -0.484087,0.55 -0.484087,0.55 -0.435427,0 -0.435428,0 0.136475,1.25 c 0.07506,0.6875 0.188189,1.5875 0.251395,2 l 0.11492,0.75 -0.653513,0 -0.653514,0 -0.244239,-0.334 -0.244239,-0.334 -0.140065,0.934 -0.140065,0.934 -0.9655731,0 -0.9655736,0 0.6556546,-2.6 0.6556551,-2.6 -1.9050147,0 -1.905014,0 0.1307645,0.95 c 0.071921,0.5225 0.1865453,1.4225 0.2547216,2 l 0.1239567,1.05 -0.7136271,0 -0.7136269,0 -0.068411,-0.45 -0.068411,-0.45 -0.2555641,1.25 -0.255564,1.25 -0.8899367,0 z m -0.050766,-0.2 0.6819665,0 0.4686526,-2.45 c 0.2577589,-1.3475 0.5101327,-2.5625 0.5608307,-2.7 l 0.092178,-0.25 -0.5878903,0 -0.5878902,0 -0.5606017,2.45 c -0.3083309,1.3475 -0.603039,2.5625 -0.6549069,2.7 l -0.094305,0.25 0.6819664,0 z m 6.0061668,-0.4 0.6722841,0 0.441194,-2.2638 c 0.242657,-1.2451 0.441194,-2.3701 0.441194,-2.5 l 0,-0.2362 -0.49619,0 -0.49619,0 -0.125193,0.55 c -0.06886,0.3025 -0.2999938,1.27 -0.513639,2.15 -0.2136453,0.88 -0.4350882,1.7575 -0.4920955,1.95 l -0.1036495,0.35 0.6722849,0 z m -3.7220076,-1.2 0.523327,0 -0.1205955,-0.45 c -0.066327,-0.2475 -0.1218244,-0.6646 -0.1233264,-0.927 l -0.00273,-0.4769 -0.4000005,0.5085 -0.4000005,0.5085 0,0.4185 0,0.4184 0.5233269,0 z m 5.9319667,0 0.455285,0 -0.07734,-0.811 -0.07734,-0.8111 -0.377941,0.3421 -0.377941,0.342 0,0.469 0,0.469 0.455285,0 z m -0.455285,-1.5 c 0.11,-0.068 0.2,-0.1686 0.2,-0.2236 0,-0.055 -0.09,-0.044 -0.2,0.024 -0.110001,0.068 -0.200001,0.1686 -0.200001,0.2236 0,0.055 0.09,0.044 0.200001,-0.024 z m -5.9000085,-0.1 c 0.055,0 0.1000002,-0.045 0.1000002,-0.1 0,-0.055 -0.045,-0.1 -0.1000002,-0.1 -0.055,0 -0.1000001,0.045 -0.1000001,0.1 0,0.055 0.045,0.1 0.1000001,0.1 z m 0.1786025,-0.6 0.3213982,0 0,-0.5882 0,-0.5882 -0.2000003,-0.1236 -0.2000002,-0.1236 0,0.3954 c 0,0.2175 -0.054629,0.5379 -0.121398,0.7119 l -0.121398,0.3163 0.3213983,0 z m 6.021406,0 0.3,0 -0.0027,-0.25 c -0.0015,-0.1375 -0.06162,-0.4702 -0.1336,-0.7393 l -0.130871,-0.4893 -0.152342,0.3893 c -0.08379,0.2141 -0.158669,0.5468 -0.166399,0.7393 l -0.01406,0.35 0.300001,0 z m -8.4600114,-2 0.8400011,0 -0.1900003,-0.1515 c -0.1045001,-0.083 -0.4825006,-0.4152 -0.840001,-0.7375 l -0.6500009,-0.5858 0,0.7374 0,0.7374 0.8400011,0 z m 4.7494067,-0.01 0.9106006,-0.01 -0.800001,-0.6895 -0.8000011,-0.6895 -0.9500012,0 c -0.5225007,0 -0.9500012,0.034 -0.9500012,0.08 0,0.046 0.3777307,0.3605 0.8394017,0.7 l 0.8394015,0.6173 0.9106007,-0.01 z m 4.3606057,0 0.45,0.01 0,-0.7 0,-0.7 -1.32714,0 -1.32714,0 0.877139,0.6897 0.877139,0.6897 0.450001,0.01 z m 1.156362,-0.6779 0.29364,-0.3882 0,-0.3555 0,-0.3555 -0.300001,0.1151 -0.3,0.1151 0.0064,0.6286 0.0064,0.6286 0.29364,-0.3882 z m -6.7681733,-1.1149 1.1618049,0 0.3000004,-0.1939 0.3000004,-0.1939 -1.3381983,0 -1.3381984,0 -0.1236069,0.2 -0.123607,0.2 1.1618049,0 z m 5.0382023,0 1.200002,0 0.123607,-0.2 0.123607,-0.2 -1.200002,0 -1.200001,0 -0.123607,0.2 -0.123607,0.2 1.200001,0 z m -7.0972349,-0.9423 -0.620834,0.1206 -0.2291671,-0.2291 -0.2291669,-0.2292 0,-0.7355 0,-0.7355 0.2746507,-0.228 0.2746508,-0.2279 0.32535,0.1248 0.32535,0.1249 0,0.3786 0,0.3786 -0.3000004,0 -0.3000004,0 0,0.1767 0,0.1767 0.3889409,0.1017 0.3889412,0.1017 0.061059,-0.6284 0.06106,-0.6284 0.422928,-0.06 0.4229281,-0.06 0.1270726,0.6353 c 0.06989,0.3495 0.1270727,0.8042 0.1270727,1.0104 l 0,0.375 -0.3000004,0 -0.3000003,0 -0.00306,-0.25 -0.00306,-0.25 -0.1469375,0.2186 -0.1469376,0.2185 -0.6208342,0.1206 z m 0.2208337,-0.2577 c 0.055,0 0.1000001,-0.045 0.1000001,-0.1 0,-0.055 -0.045,-0.1 -0.1000001,-0.1 -0.055,0 -0.1000002,0.045 -0.1000002,0.1 0,0.055 0.045,0.1 0.1000002,0.1 z m 2.235717,0.3939 c -0.019643,0 -0.1932144,-0.098 -0.3857147,-0.2099 l -0.3500004,-0.2039 0,-0.89 0,-0.8901 0.3000004,0 0.3000004,0 0.03605,0.95 0.03605,0.95 0.074909,-0.95 0.074909,-0.95 0.9104408,0 0.9104408,0 -0.121398,0.3164 c -0.066769,0.174 -0.1213979,0.624 -0.1213979,1 l 0,0.6836 -0.3000004,0 -0.3000004,0 0,-0.8 0,-0.8 -0.2000003,0 -0.2000002,0 0,0.5857 0,0.5857 -0.3142862,0.3143 c -0.1728572,0.1729 -0.3303574,0.3116 -0.3500005,0.3082 z m 3.6781792,-0.2013 -0.386111,0.2066 -0.31389,-0.3139 -0.3138889,-0.3139 0,0.2143 0,0.2143 -0.3000004,0 -0.3000004,0 0,-1 0,-1 0.3000004,0 0.3000004,0 0,0.2143 0,0.2143 0.3138889,-0.3139 0.31389,-0.3139 0.386111,0.2066 0.386111,0.2067 0,0.7859 0,0.7859 -0.386111,0.2067 z m -0.276024,-0.6426 c 0.0503,-0.1925 0.0503,-0.5075 0,-0.7 l -0.09146,-0.35 0,0.7 0,0.7 0.09146,-0.35 z m 1.047471,0.65 -0.185335,0 0,-1 0,-1 0.2,0 0.2,0 0.01579,0.25 0.01579,0.25 0.100877,-0.25 0.100878,-0.25 0.283333,0 0.283334,0 0,1 0,1 -0.3,0 -0.300001,0 -0.0232,-0.35 -0.0232,-0.35 -0.09146,0.35 -0.09147,0.35 -0.185335,0 z"
         id="path6928" />
      <path
         style="fill:#aea825"
         d="m 3.8899211,1050.5622 -0.8899366,0 0,-0.2119 c 0,-0.1165 0.2267276,-1.219 0.5038391,-2.45 0.2771115,-1.2309 0.5531767,-2.3956 0.6134784,-2.5881 l 0.1096391,-0.35 -0.9134786,0 -0.9134787,0 0,-1.077 0,-1.077 0.4929639,-0.323 0.492964,-0.323 5.4070437,0 5.4070436,0 -0.0063,0.85 -0.0063,0.85 -0.484087,0.55 -0.484087,0.55 -0.435427,0 -0.435428,0 0.136475,1.25 c 0.07506,0.6875 0.188189,1.5875 0.251395,2 l 0.11492,0.75 -0.653513,0 -0.653514,0 -0.244239,-0.334 -0.244239,-0.334 -0.140065,0.934 -0.140065,0.934 -0.9655731,0 -0.9655736,0 0.6556546,-2.6 0.6556551,-2.6 -1.9050147,0 -1.905014,0 0.1307645,0.95 c 0.071921,0.5225 0.1865453,1.4225 0.2547216,2 l 0.1239567,1.05 -0.7136271,0 -0.7136269,0 -0.068411,-0.45 -0.068411,-0.45 -0.2555641,1.25 -0.255564,1.25 -0.8899367,0 z m -0.042845,-0.2 0.6740463,0 0.4686526,-2.45 c 0.2577589,-1.3475 0.5101327,-2.5625 0.5608307,-2.7 l 0.092178,-0.25 -0.6060961,0 -0.606096,0 -0.5324007,2.35 c -0.2928205,1.2925 -0.5757719,2.5075 -0.6287809,2.7 l -0.09638,0.35 0.6740461,0 z m 6.0117242,-0.4 0.6588067,0 0.441194,-2.2638 c 0.242657,-1.2451 0.441194,-2.3701 0.441194,-2.5 l 0,-0.2362 -0.492291,0 -0.492292,0 -0.196301,0.75 c -0.107965,0.4125 -0.3814337,1.485 -0.6077088,2.3833 -0.2262751,0.8984 -0.4114094,1.6859 -0.4114094,1.75 0,0.064 0.2964634,0.1167 0.6588075,0.1167 z m -3.7354852,-1.2 0.523327,0 -0.1205955,-0.45 c -0.066327,-0.2475 -0.1218244,-0.6646 -0.1233264,-0.927 l -0.00273,-0.4769 -0.4000005,0.5085 -0.4000005,0.5085 0,0.4185 0,0.4184 0.5233269,0 z m 5.9319659,0 0.455286,0 -0.07734,-0.811 -0.07734,-0.8111 -0.377941,0.3421 -0.377941,0.342 0,0.469 0,0.469 0.455285,0 z m -6.4552928,-1.3 c 0.1100001,-0.068 0.2000003,-0.2136 0.2000003,-0.3236 l 0,-0.2 -0.2000003,0.1236 c -0.1100001,0.068 -0.2000003,0.2136 -0.2000003,0.3236 l 0,0.2 0.2000003,-0.1236 z m 6.0000078,0 c 0.11,-0.068 0.2,-0.2083 0.2,-0.3118 0,-0.1035 -0.09,-0.1882 -0.2,-0.1882 l -0.200001,0 0,0.3118 0,0.3118 0.200001,-0.1236 z m -5.7000074,-0.9 0.3000004,0 0,-0.5882 0,-0.5882 -0.1772623,-0.1095 -0.1772622,-0.1096 -0.1200071,0.4478 c -0.066004,0.2462 -0.1212362,0.5602 -0.1227382,0.6977 l -0.00273,0.25 0.3000004,0 z m 6.0000074,0 0.3,0 0,-0.175 c 0,-0.096 -0.05991,-0.4745 -0.133127,-0.8406 l -0.133128,-0.6657 -0.152816,0.3907 c -0.08405,0.2148 -0.159141,0.5931 -0.166872,0.8406 l -0.01406,0.45 0.3,0 z m -8.3882071,-1.8 0.9118046,0 -0.1145788,-0.1854 c -0.063018,-0.102 -0.4733304,-0.4695 -0.9118046,-0.8168 l -0.7972258,-0.6314 0,0.8168 0,0.8168 0.9118046,0 z m 4.7068047,-0.1675 0.8608269,-0.082 -0.736778,-0.6752 -0.7367777,-0.6752 -1.1390597,0 -1.1390597,0 1.0150108,0.7573 1.0150107,0.7573 0.8608267,-0.082 z m 4.3314034,-0.043 0.45,0.01 0,-0.7 0,-0.7 -1.327139,0 -1.32714,0 0.877139,0.6897 0.877139,0.6897 0.450001,0.01 z m 1.156362,-0.6779 0.29364,-0.3882 0,-0.3555 0,-0.3555 -0.300001,0.1151 -0.3,0.1151 0.0064,0.6286 0.0064,0.6286 0.29364,-0.3882 z m -6.9730359,-0.9182 1.1666681,-0.01 0.4000005,-0.303 0.4000005,-0.3029 -1.4840037,0.059 -1.4840037,0.059 -0.082665,0.25 -0.082665,0.25 1.1666683,-0.01 z m 5.1048699,-0.1967 1.338198,0 0.123607,-0.2 0.123607,-0.2 -1.161805,0 -1.161805,0 -0.3,0.1939 -0.300001,0.1939 1.338199,0 z m -6.9590391,-0.9392 -0.620834,0.1206 -0.2291671,-0.2291 -0.2291669,-0.2292 0,-0.7355 0,-0.7355 0.2746507,-0.228 0.2746508,-0.2279 0.32535,0.1248 0.32535,0.1249 0,0.3786 0,0.3786 -0.3000004,0 -0.3000004,0 0,0.1767 0,0.1767 0.3889409,0.1017 0.3889412,0.1017 0.061059,-0.6284 0.06106,-0.6284 0.422928,-0.06 0.4229281,-0.06 0.1270726,0.6353 c 0.06989,0.3495 0.1270727,0.8042 0.1270727,1.0104 l 0,0.375 -0.3000004,0 -0.3000003,0 -0.00306,-0.25 -0.00306,-0.25 -0.1469375,0.2186 -0.1469376,0.2185 -0.6208342,0.1206 z m 0.2208337,-0.2577 c 0.055,0 0.1000001,-0.045 0.1000001,-0.1 0,-0.055 -0.045,-0.1 -0.1000001,-0.1 -0.055,0 -0.1000002,0.045 -0.1000002,0.1 0,0.055 0.045,0.1 0.1000002,0.1 z m 2.235717,0.3939 c -0.019643,0 -0.1932144,-0.098 -0.3857147,-0.2099 l -0.3500004,-0.2039 0,-0.89 0,-0.8901 0.3000004,0 0.3000004,0 0.03605,0.95 0.03605,0.95 0.074909,-0.95 0.074909,-0.95 0.9104408,0 0.9104408,0 -0.121398,0.3164 c -0.066769,0.174 -0.1213979,0.624 -0.1213979,1 l 0,0.6836 -0.3000004,0 -0.3000004,0 0,-0.8 0,-0.8 -0.2000003,0 -0.2000002,0 0,0.5857 0,0.5857 -0.3142862,0.3143 c -0.1728572,0.1729 -0.3303574,0.3116 -0.3500005,0.3082 z m 3.6781794,-0.2013 -0.386111,0.2066 -0.31389,-0.3139 -0.3138891,-0.3139 0,0.2143 0,0.2143 -0.3000004,0 -0.3000004,0 0,-1 0,-1 0.3000004,0 0.3000004,0 0,0.2143 0,0.2143 0.3138891,-0.3139 0.31389,-0.3139 0.386111,0.2066 0.386111,0.2067 0,0.7859 0,0.7859 -0.386111,0.2067 z m -0.276024,-0.6426 c 0.0503,-0.1925 0.0503,-0.5075 0,-0.7 l -0.09146,-0.35 0,0.7 0,0.7 0.09146,-0.35 z m 1.047471,0.65 -0.185335,0 0,-1 0,-1 0.2,0 0.2,0 0.01579,0.25 0.01579,0.25 0.100877,-0.25 0.100877,-0.25 0.283333,0 0.283334,0 0,1 0,1 -0.3,0 -0.300001,0 -0.0232,-0.35 -0.0232,-0.35 -0.09146,0.35 -0.09147,0.35 -0.185335,0 z"
         id="path6926" />
      <path
         style="fill:#73736d"
         d="m 3.8899211,1050.5622 -0.8899366,0 0,-0.2119 c 0,-0.1165 0.2267276,-1.219 0.5038391,-2.45 0.2771115,-1.2309 0.5531767,-2.3956 0.6134784,-2.5881 l 0.1096391,-0.35 -0.9134786,0 -0.9134787,0 0,-1.077 0,-1.077 0.4929639,-0.323 0.492964,-0.323 5.4070437,0 5.4070436,0 -0.0063,0.85 -0.0063,0.85 -0.484087,0.55 -0.484087,0.55 -0.435427,0 -0.435428,0 0.136475,1.25 c 0.07506,0.6875 0.188189,1.5875 0.251395,2 l 0.11492,0.75 -0.653513,0 -0.653514,0 -0.244239,-0.334 -0.244239,-0.334 -0.140065,0.934 -0.140065,0.934 -0.9655731,0 -0.9655736,0 0.6556546,-2.6 0.6556551,-2.6 -1.9050147,0 -1.905014,0 0.1307645,0.95 c 0.071921,0.5225 0.1865453,1.4225 0.2547216,2 l 0.1239567,1.05 -0.7136271,0 -0.7136269,0 -0.068411,-0.45 -0.068411,-0.45 -0.2555641,1.25 -0.255564,1.25 -0.8899367,0 z m -0.00281,-0.2 0.6947487,0 0.1323198,-0.75 c 0.072775,-0.4125 0.3018537,-1.5924 0.5090628,-2.622 0.2072089,-1.0296 0.3767435,-1.9071 0.3767435,-1.95 0,-0.043 -0.2682858,-0.078 -0.5961904,-0.078 l -0.5961903,0 -0.1034118,0.45 c -0.056876,0.2475 -0.2837709,1.26 -0.5042098,2.25 -0.2204389,0.99 -0.4473333,2.0025 -0.5042098,2.25 l -0.1034118,0.45 0.6947487,0 z m 5.9805303,-0.4 0.6676506,0 0.462164,-2.25 c 0.25419,-1.2375 0.505913,-2.3691 0.559385,-2.5147 l 0.09722,-0.2647 -0.664387,0.065 -0.664388,0.065 -0.5533551,2.3 c -0.3043458,1.265 -0.5575376,2.3675 -0.5626486,2.45 l -0.00929,0.15 0.6676505,0 z m -3.7426548,-1.2 0.5250006,0 -0.1250001,-0.625 c -0.06875,-0.3437 -0.1250002,-0.7364 -0.1250002,-0.8727 l 0,-0.2477 -0.4334351,0.023 -0.433435,0.023 -0.09909,0.3 -0.09909,0.3 0.3325248,-0.2745 0.3325246,-0.2745 0,0.2127 c 0,0.117 -0.09,0.2683 -0.2000002,0.3363 l -0.2000003,0.1236 0,0.4882 0,0.4882 0.5250007,0 z m 5.9983334,0 0.523328,0 -0.120596,-0.45 c -0.06633,-0.2475 -0.124819,-0.675 -0.12998,-0.95 l -0.0094,-0.5 -0.393347,0.4722 -0.393347,0.4721 0,0.4779 0,0.4778 0.523326,0 z m -0.523326,-1.3 c 0.11,-0.068 0.2,-0.2083 0.2,-0.3118 0,-0.1035 -0.09,-0.1882 -0.2,-0.1882 l -0.200001,0 0,0.3118 0,0.3118 0.200001,-0.1236 z m -5.7000077,-0.9 0.3000004,0 0,-0.6882 0,-0.6882 -0.1756495,-0.1085 -0.1756494,-0.1086 -0.1243509,0.6218 c -0.068393,0.3419 -0.124351,0.7005 -0.124351,0.7967 l 0,0.175 0.3000004,0 z m 6.0000077,0 0.3,0 -0.0031,-0.55 c -0.0017,-0.3025 -0.0792,-0.6701 -0.172252,-0.8169 l -0.16919,-0.2669 -0.125017,0.4669 c -0.06876,0.2568 -0.126246,0.6244 -0.127748,0.8169 l -0.0027,0.35 0.3,0 z m -8.3882074,-1.8 0.9118046,0 -0.1145788,-0.1854 c -0.063018,-0.102 -0.4733304,-0.4695 -0.9118046,-0.8168 l -0.7972258,-0.6314 0,0.8168 0,0.8168 0.9118046,0 z m 4.8882029,-0.013 1.1000014,0.012 -0.9000011,-0.7909 -0.9000012,-0.7909 -1.1672739,-0.01 -1.1672739,-0.01 0.9672736,0.7871 0.9672737,0.7872 1.1000014,0.012 z m 4.2500055,0.01 0.35,0.01 0,-0.8 0,-0.8 -1.340001,0 -1.340002,0 0.19,0.1896 c 0.1045,0.1043 0.550001,0.4618 0.990001,0.7944 l 0.800002,0.6049 0.35,0.01 z m 1.050001,-0.7944 0.300001,-0.249 0,-0.6 0,-0.6 -0.300001,0.249 -0.3,0.249 0,0.6 0,0.6 0.3,-0.249 z m -6.9666752,-1.0064 1.1666681,-0.01 0.4000005,-0.303 0.4000005,-0.3029 -1.4840037,0.059 -1.4840037,0.059 -0.082665,0.25 -0.082665,0.25 1.1666683,-0.01 z m 4.9176952,0.01 1.300002,0 0.248978,-0.3 0.248978,-0.3 -1.300002,0 -1.300002,0 -0.248978,0.3 -0.248978,0.3 1.300002,0 z m -6.7718644,-1.1423 -0.620834,0.1206 -0.2291671,-0.2291 -0.2291669,-0.2292 0,-0.7355 0,-0.7355 0.2746507,-0.228 0.2746508,-0.2279 0.32535,0.1248 0.32535,0.1249 0,0.3786 0,0.3786 -0.3000004,0 -0.3000004,0 0,0.1767 0,0.1767 0.3889409,0.1017 0.3889412,0.1017 0.061059,-0.6284 0.06106,-0.6284 0.422928,-0.06 0.4229281,-0.06 0.1270726,0.6353 c 0.06989,0.3495 0.1270727,0.8042 0.1270727,1.0104 l 0,0.375 -0.3000004,0 -0.3000003,0 -0.00306,-0.25 -0.00306,-0.25 -0.1469375,0.2186 -0.1469376,0.2185 -0.6208342,0.1206 z m 0.2208337,-0.2577 c 0.055,0 0.1000001,-0.045 0.1000001,-0.1 0,-0.055 -0.045,-0.1 -0.1000001,-0.1 -0.055,0 -0.1000002,0.045 -0.1000002,0.1 0,0.055 0.045,0.1 0.1000002,0.1 z m 2.235717,0.3939 c -0.019643,0 -0.1932144,-0.098 -0.3857147,-0.2099 l -0.3500004,-0.2039 0,-0.89 0,-0.8901 0.3000004,0 0.3000004,0 0.03605,0.95 0.03605,0.95 0.074909,-0.95 0.074909,-0.95 0.9104408,0 0.9104408,0 -0.121398,0.3164 c -0.066769,0.174 -0.1213979,0.624 -0.1213979,1 l 0,0.6836 -0.3000004,0 -0.3000004,0 0,-0.8 0,-0.8 -0.2000003,0 -0.2000002,0 0,0.5857 0,0.5857 -0.3142862,0.3143 c -0.1728572,0.1729 -0.3303574,0.3116 -0.3500005,0.3082 z m 3.6781797,-0.2013 -0.386111,0.2066 -0.31389,-0.3139 -0.3138894,-0.3139 0,0.2143 0,0.2143 -0.3000004,0 -0.3000004,0 0,-1 0,-1 0.3000004,0 0.3000004,0 0,0.2143 0,0.2143 0.3138894,-0.3139 0.31389,-0.3139 0.386111,0.2066 0.386111,0.2067 0,0.7859 0,0.7859 -0.386111,0.2067 z m -0.276024,-0.6426 c 0.0503,-0.1925 0.0503,-0.5075 0,-0.7 l -0.09146,-0.35 0,0.7 0,0.7 0.09146,-0.35 z m 1.047471,0.65 -0.185335,0 0,-1 0,-1 0.2,0 0.2,0 0.01579,0.25 0.01579,0.25 0.100877,-0.25 0.100877,-0.25 0.283333,0 0.283334,0 0,1 0,1 -0.3,0 -0.300001,0 -0.0232,-0.35 -0.0232,-0.35 -0.09146,0.35 -0.09147,0.35 -0.185335,0 z"
         id="path6924" />
      <path
         style="fill:#696322"
         d="m 3.8739647,1050.5622 -0.8739802,0 0.00386,-0.25 c 0.00212,-0.1375 0.1368803,-0.7 0.2994634,-1.25 l 0.2956055,-1 -0.089797,0.6267 c -0.049388,0.3446 -0.1489034,0.8621 -0.221145,1.15 l -0.1313484,0.5233 0.71262,0 0.7126199,0 0.1323198,-0.75 c 0.072776,-0.4125 0.3018541,-1.5924 0.5090632,-2.622 0.2072089,-1.0296 0.3767435,-1.9071 0.3767435,-1.95 0,-0.043 -0.2639355,-0.078 -0.5865232,-0.078 l -0.5865233,0 -0.099243,0.35 c -0.054584,0.1925 -0.2100945,0.8681 -0.3455797,1.5012 -0.1354852,0.6332 -0.2870331,1.1106 -0.3367732,1.0608 -0.04974,-0.05 0.017564,-0.5678 0.1495649,-1.1512 0.1320006,-0.5834 0.2832078,-1.2183 0.3360159,-1.4108 l 0.096015,-0.35 -0.9134786,0 -0.9134787,0 0,-1.0949 0,-1.0948 0.5900688,-0.3052 0.5900687,-0.3051 5.3099388,0 5.3099392,0 0,0.7847 0,0.7846 -0.517779,0.6154 -0.51778,0.6153 -0.477222,0 -0.477222,0 0.0962,0.55 c 0.05291,0.3025 0.184979,1.135 0.29349,1.85 0.108511,0.715 0.197972,1.3675 0.198803,1.45 l 0.0015,0.15 -0.700001,0 -0.700001,0 0.01579,-0.35 0.01579,-0.35 0.100878,0.25 0.100877,0.25 0.50666,0 0.506661,0 -0.120596,-0.45 c -0.06633,-0.2475 -0.121825,-0.6701 -0.123327,-0.9391 l -0.0027,-0.4891 -0.689855,0.7532 -0.689855,0.7531 -0.132855,0.886 -0.132855,0.8859 -0.8772927,0 -0.8772923,0 0.019936,-0.35 c 0.010964,-0.1925 0.099023,-0.575 0.1956845,-0.85 l 0.1757484,-0.5 -0.104747,0.75 -0.1047469,0.75 0.6767131,0 0.6767129,0 0.462164,-2.25 c 0.254191,-1.2375 0.505914,-2.3691 0.559386,-2.5147 l 0.09722,-0.2647 -0.668634,0.065 -0.668633,0.065 -0.238767,0.9 -0.2387669,0.9 -0.019635,-0.3013 c -0.0108,-0.1657 0.064082,-0.5932 0.166404,-0.95 l 0.1860399,-0.6487 -1.9118753,0 -1.9118746,0 0.1364747,1.25 c 0.075061,0.6875 0.1881889,1.5875 0.2513952,2 l 0.1149205,0.75 -0.7116523,0 -0.7116523,0 -0.076306,-0.45 -0.076306,-0.45 -0.263626,1.25 -0.2636257,1.25 -0.8739801,0 z m 2.2510239,-1.8 0.5250006,0 -0.1250001,-0.625 c -0.06875,-0.3437 -0.1250002,-0.7364 -0.1250002,-0.8727 l 0,-0.2477 -0.4334351,0.023 -0.433435,0.023 -0.09909,0.3 -0.09909,0.3 0.3325248,-0.2745 0.3325246,-0.2745 0,0.2127 c 0,0.117 -0.09,0.2683 -0.2000002,0.3363 l -0.2000003,0.1236 0,0.4882 0,0.4882 0.5250007,0 z m 5.4750074,-1.3 c 0.11,-0.068 0.2,-0.2083 0.2,-0.3118 0,-0.1035 -0.09,-0.1882 -0.2,-0.1882 l -0.200001,0 0,0.3118 0,0.3118 0.200001,-0.1236 z m -5.7000077,-0.9 0.3000004,0 0,-0.6882 0,-0.6882 -0.1756495,-0.1085 -0.1756494,-0.1086 -0.1243509,0.6218 c -0.068393,0.3419 -0.124351,0.7005 -0.124351,0.7967 l 0,0.175 0.3000004,0 z m 5.9212737,0 0.378734,0 -0.0031,-0.55 c -0.0017,-0.3025 -0.07892,-0.6696 -0.171635,-0.8159 l -0.168572,-0.2659 -0.2071,0.8159 -0.2071,0.8159 0.378735,0 z m -8.2902793,-1.8 0.9309987,0 -0.3809979,-0.4216 c -0.209549,-0.2318 -0.6284984,-0.598 -0.9309988,-0.8136 l -0.5500007,-0.392 0,0.8136 0,0.8136 0.9309987,0 z m 4.8690088,-0.013 1.1000014,0.012 -0.9000011,-0.7909 -0.9000012,-0.7909 -1.1672739,-0.01 -1.1672739,-0.01 0.9672736,0.7871 0.9672737,0.7872 1.1000014,0.012 z m 4.2500055,0.01 0.35,0.01 0,-0.8 0,-0.8 -1.340001,0 -1.340002,0 0.19,0.1896 c 0.1045,0.1043 0.550001,0.4618 0.990001,0.7944 l 0.800002,0.6049 0.35,0.01 z m 0.677952,-0.3944 c 0.07037,0 0.247512,-0.1575 0.39364,-0.35 l 0.265688,-0.35 0.0064,-0.581 0.0064,-0.581 -0.400001,0.362 -0.4,0.362 0,0.569 0,0.569 0.127951,0 z m -6.5946262,-1.4064 1.1666681,-0.01 0.4000005,-0.303 0.4000005,-0.3029 -1.4840037,0.059 -1.4840037,0.059 -0.082665,0.25 -0.082665,0.25 1.1666683,-0.01 z m 4.9176952,0.01 1.300002,0 0.248978,-0.3 0.248978,-0.3 -1.300002,0 -1.300002,0 -0.248978,0.3 -0.248978,0.3 1.300002,0 z m -2.051025,5.1 -0.171886,0.4 0.00588,-0.3 c 0.00323,-0.165 0.077938,-0.525 0.166008,-0.8 l 0.1601283,-0.5 0.00588,0.4 c 0.00323,0.22 -0.071471,0.58 -0.1660083,0.8 z m -5.2000067,-6.3 -0.4125545,0 -0.1078147,-0.281 c -0.059298,-0.1545 -0.078974,-0.582 -0.043723,-0.95 l 0.064092,-0.669 0.4972616,0 0.4972617,0 0.067404,0.35 0.067404,0.35 -0.2000003,0 -0.2000003,0 -0.091464,-0.35 -0.091465,-0.35 -0.020138,0.8 -0.020138,0.8 0.186063,-0.2942 0.186063,-0.2942 0.1355826,0.1356 0.1355824,0.1356 -0.118431,0.3086 -0.1184307,0.3086 -0.4125546,0 z m 0.9833347,0 -0.1833336,0 0.00273,-0.55 c 0.0015,-0.3025 0.056999,-0.7525 0.1233263,-1 l 0.1205966,-0.45 0.3494892,0 0.3494895,0 0.1278382,0.9327 0.1278381,0.9327 -0.1115279,0.1115 -0.111528,0.1115 -0.2043518,-0.2942 -0.2043519,-0.2942 -0.1014405,0.25 c -0.055792,0.1375 -0.1839409,0.25 -0.2847742,0.25 z m 0.3500005,-0.8667 0.1333333,-0.1333 -0.1333333,-0.1333 -0.1333336,-0.1334 0,0.2667 0,0.2667 0.1333336,-0.1334 z m 1.600002,0.8667 c -0.2566671,0 -0.5266675,-0.06 -0.6000007,-0.1333 l -0.1333336,-0.1334 0,-0.8666 0,-0.8667 0.3000004,0 0.3000004,0 0.03605,0.95 0.03605,0.95 0.074909,-0.95 0.074909,-0.95 0.1890421,0 0.189042,0 0,1 0,1 -0.4666672,0 z m 1.2666683,0 -0.2000003,0 0,-0.8 0,-0.8 -0.2000003,0 c -0.1100001,0 -0.2000002,-0.09 -0.2000002,-0.2 l 0,-0.2 0.6000008,0 0.6000007,0 0,0.2 c 0,0.11 -0.09,0.2 -0.2000002,0.2 l -0.2000003,0 0,0.8 0,0.8 -0.2000002,0 z m 1.0000012,0 -0.2000002,0 0,-1 0,-1 0.2000002,0 0.2000003,0 0,1 0,1 -0.2000003,0 z m 1.096191,0 -0.49619,0 0,-1 0,-1 0.49619,0 0.49619,0 0.125492,0.5 0.125493,0.5 -0.125493,0.5 -0.125492,0.5 -0.49619,0 z m 0.04496,-0.55 c 0.04767,-0.2475 0.04767,-0.6525 0,-0.9 l -0.08667,-0.45 0,0.9 0,0.9 0.08667,-0.45 z m 1.04419,0.55 -0.185335,0 0,-1 0,-1 0.2,0 0.2,0 0.0232,0.35 0.0232,0.35 0.09146,-0.35 0.09146,-0.35 0.285336,0 0.285335,0 0,1 0,1 -0.3,0 -0.300001,0 -0.0232,-0.35 -0.0232,-0.35 -0.09146,0.35 -0.09147,0.35 -0.185335,0 z"
         id="path6922" />
      <path
         style="fill:#3d3d36"
         d="m 3.8999857,1050.5622 -0.9000012,0 0.0232,-0.45 0.0232,-0.45 0.091465,0.35 0.091465,0.35 0.6686694,0 0.6686693,0 0.1008773,-0.25 0.1008773,-0.25 0.01579,0.35 0.015789,0.35 -0.9000012,0 z m 6.0000077,-0.4 -0.9000011,0 0.0232,-0.45 0.0232,-0.45 0.091465,0.35 0.091465,0.35 0.6706712,0 0.6706715,0 0.09146,-0.35 0.09146,-0.35 0.0232,0.45 0.0232,0.45 -0.9000015,0 z m -4.9675502,-0.55 -0.1008773,0.25 0,-0.5 0,-0.5 0.1008773,0.25 0.1008774,0.25 -0.1008774,0.25 z m -1.5958354,-0.2125 -0.105044,0.2625 -0.015789,-0.3833 -0.015789,-0.3834 0.1208335,0.1209 0.1208335,0.1208 -0.105044,0.2625 z m 6.0000077,-0.4 -0.1050439,0.2625 -0.01579,-0.3833 -0.01579,-0.3834 0.1208336,0.1209 0.1208333,0.1208 -0.1050439,0.2625 z m 1.6000025,0 -0.105044,0.2625 -0.01579,-0.3833 -0.01579,-0.3834 0.120833,0.1209 0.120834,0.1208 -0.105044,0.2625 z m -4.8366295,-0.038 -0.7000009,0 -0.014056,-0.45 -0.014058,-0.45 -0.1820598,0.4 -0.1820597,0.4 0.111814,-0.9032 c 0.061498,-0.4968 0.1931946,-1.2168 0.2926596,-1.6 l 0.1808454,-0.6968 -0.095228,1 -0.095228,1 0.5986864,-0.6771 0.5986864,-0.6771 -0.014057,0.6771 -0.014057,0.6771 -0.1505871,-0.3843 -0.1505872,-0.3843 -0.3353565,0.4788 -0.3353562,0.4788 0,0.4555 0,0.4555 0.4860904,0 0.4860904,0 0.086674,-0.45 0.086674,-0.45 0.027236,0.55 0.027236,0.55 -0.7000009,0 z m 6.0000075,0 -0.700001,0 0,-0.1653 0,-0.1654 0.581488,0.085 0.581487,0.085 0.09531,-0.37 0.09531,-0.37 0.0232,0.45 0.0232,0.45 -0.700001,0 z m -8.563388,-0.3625 -0.105044,0.2625 -0.015789,-0.3833 -0.01579,-0.3834 0.1208335,0.1209 0.1208334,0.1208 -0.105044,0.2625 z m 6.0000078,-0.4 -0.105044,0.2625 -0.01579,-0.3833 -0.015789,-0.3834 0.1208335,0.1209 0.1208334,0.1208 -0.1050439,0.2625 z m 1.6167052,-0.037 -0.171451,0 0.135594,-0.75 c 0.07458,-0.4125 0.168656,-0.7875 0.209063,-0.8333 0.04041,-0.046 0.0767,0.1791 0.08066,0.5 l 0.0072,0.5833 0.454382,-0.5551 0.454382,-0.5551 0.138426,0.1385 c 0.07613,0.076 0.129455,0.3709 0.11849,0.655 l -0.01994,0.5167 -0.138604,-0.498 -0.138604,-0.4979 -0.479073,0.6479 c -0.26349,0.3564 -0.556225,0.648 -0.650523,0.648 z m -7.4208794,-0.35 -0.1008773,0.25 0,-0.5 0,-0.5 0.1008773,0.25 0.1008774,0.25 -0.1008774,0.25 z m 6.0041744,-0.4125 -0.1050439,0.2625 -0.01579,-0.3833 -0.01579,-0.3834 0.1208336,0.1209 0.1208334,0.1208 -0.105044,0.2625 z m -5.8000074,-0.6 -0.105044,0.2625 -0.01579,-0.3833 -0.015789,-0.3834 0.1208335,0.1209 0.1208334,0.1208 -0.1050439,0.2625 z m 6.063385,-0.4375 -0.1601282,0.5 0,-0.4 c 0,-0.22 0.072058,-0.625 0.1601282,-0.9 l 0.1601284,-0.5 0,0.4 c 0,0.22 -0.07206,0.625 -0.1601284,0.9 z m 1.5324584,-0.15 -0.100878,0.25 0,-0.5 0,-0.5 0.100878,0.25 0.100877,0.25 -0.100877,0.25 z m 0.806143,-0.1038 -0.0922,0.3538 -0.0074,-0.6 -0.0074,-0.6 0.09961,0.2462 c 0.05478,0.1354 0.05812,0.4054 0.0074,0.6 z m -8.2061528,-0.096 -0.1008773,0.25 0,-0.5 0,-0.5 0.1008773,0.25 0.1008773,0.25 -0.1008773,0.25 z m 2.2122259,-0.4 -0.080665,0.65 -0.032007,-0.65 -0.032007,-0.65 -0.2000003,0 -0.2000002,0 -0.0232,0.35 -0.0232,0.35 -0.094128,-0.3638 -0.094128,-0.3639 -0.6326724,0.034 c -0.3479698,0.019 -1.0601729,0.025 -1.5826736,0.014 l -0.9500012,-0.02 0,-1.0949 0,-1.0948 0.5900688,-0.3052 0.5900687,-0.3051 5.3099388,0 5.3099393,0 0,0.7847 0,0.7846 -0.517779,0.6154 -0.51778,0.6153 -0.682222,0 -0.682222,0 -0.01579,0.25 -0.01579,0.25 -0.100877,-0.25 -0.100878,-0.25 -2.5706651,0 -2.5706649,0 -0.080664,0.65 z m -2.8072646,-0.85 0.9374193,0 -0.5874189,-0.6172 c -0.3230804,-0.3395 -0.7449192,-0.7026 -0.9374194,-0.807 l -0.3500005,-0.1899 0,0.8071 0,0.807 0.9374195,0 z m 4.862588,-0.016 1.1000014,0 -0.9000011,-0.7881 -0.9000012,-0.7881 -1.1833349,-0.01 c -0.6508341,0 -1.1458347,0.031 -1.1000014,0.077 0.045833,0.046 0.488334,0.401 0.9833346,0.7898 l 0.9000012,0.7068 1.1000014,0 z m 4.2500055,0.011 0.35,0.01 0,-0.8 0,-0.8 -1.340001,0 -1.340002,0 0.19,0.1896 c 0.1045,0.1043 0.550001,0.4618 0.990001,0.7944 l 0.800002,0.6049 0.35,0.01 z m 0.677952,-0.3944 c 0.07037,0 0.247512,-0.1575 0.39364,-0.35 l 0.265688,-0.35 0.0064,-0.581 0.0064,-0.581 -0.400001,0.362 -0.4,0.362 0,0.569 0,0.569 0.127951,0 z m -6.6906746,-1.4 1.2862647,0 0.3882263,-0.2936 0.3882265,-0.2937 -1.4255128,-0.01 -1.4255131,-0.01 -0.2489781,0.3 -0.2489781,0.3 1.2862646,0 z m 5.1137436,0 1.400002,0 0.248978,-0.3 0.248978,-0.3 -1.400002,0 -1.400002,0 -0.248978,0.3 -0.248978,0.3 1.400002,0 z m -7.3510317,-1.2 -0.4125545,0 -0.1078147,-0.281 c -0.059298,-0.1545 -0.078974,-0.582 -0.043723,-0.95 l 0.064092,-0.669 0.4972616,0 0.4972617,0 0.067404,0.35 0.067404,0.35 -0.2000003,0 -0.2000003,0 -0.091464,-0.35 -0.091465,-0.35 -0.020138,0.8 -0.020138,0.8 0.186063,-0.2942 0.186063,-0.2942 0.1355826,0.1356 0.1355824,0.1356 -0.118431,0.3086 -0.1184307,0.3086 -0.4125546,0 z m 0.9833347,0 -0.1833336,0 0.00273,-0.55 c 0.0015,-0.3025 0.056999,-0.7525 0.1233263,-1 l 0.1205966,-0.45 0.3494892,0 0.3494895,0 0.1278382,0.9327 0.1278381,0.9327 -0.1115279,0.1115 -0.111528,0.1115 -0.2043518,-0.2942 -0.2043519,-0.2942 -0.1014405,0.25 c -0.055792,0.1375 -0.1839409,0.25 -0.2847742,0.25 z m 0.3500005,-0.8667 0.1333333,-0.1333 -0.1333333,-0.1333 -0.1333336,-0.1334 0,0.2667 0,0.2667 0.1333336,-0.1334 z m 1.600002,0.8667 c -0.2566671,0 -0.5266675,-0.06 -0.6000007,-0.1333 l -0.1333336,-0.1334 0,-0.8666 0,-0.8667 0.3000004,0 0.3000004,0 0.03605,0.95 0.03605,0.95 0.074909,-0.95 0.074909,-0.95 0.1890421,0 0.189042,0 0,1 0,1 -0.4666672,0 z m 1.2666683,0 -0.2000003,0 0,-0.8 0,-0.8 -0.2000003,0 c -0.1100001,0 -0.2000002,-0.09 -0.2000002,-0.2 l 0,-0.2 0.6000008,0 0.6000007,0 0,0.2 c 0,0.11 -0.09,0.2 -0.2000002,0.2 l -0.2000003,0 0,0.8 0,0.8 -0.2000002,0 z m 1.0000012,0 -0.2000002,0 0,-1 0,-1 0.2000002,0 0.2000003,0 0,1 0,1 -0.2000003,0 z m 1.096191,0 -0.49619,0 0,-1 0,-1 0.49619,0 0.49619,0 0.125492,0.5 0.125493,0.5 -0.125493,0.5 -0.125492,0.5 -0.49619,0 z m 0.04496,-0.55 c 0.04767,-0.2475 0.04767,-0.6525 0,-0.9 l -0.08667,-0.45 0,0.9 0,0.9 0.08667,-0.45 z m 1.04419,0.55 -0.185335,0 0,-1 0,-1 0.2,0 0.2,0 0.0232,0.35 0.0232,0.35 0.09146,-0.35 0.09146,-0.35 0.285336,0 0.285335,0 0,1 0,1 -0.3,0 -0.300001,0 -0.0232,-0.35 -0.0232,-0.35 -0.09146,0.35 -0.09147,0.35 -0.185335,0 z"
         id="path6920" />
      <path
         style="fill:#39380f"
         d="m 3.8999857,1050.5622 -0.9000012,0 0.015789,-0.35 0.015789,-0.35 0.1008774,0.25 0.1008773,0.25 0.6666675,0 0.6666675,0 0.1008773,-0.25 0.1008773,-0.25 0.01579,0.35 0.015789,0.35 -0.9000012,0 z m 5.2366295,-0.5625 -0.1050439,0.2625 -0.01579,-0.3833 -0.015789,-0.3834 0.1208335,0.1209 0.1208334,0.1208 -0.105044,0.2625 z m 1.0562808,0.082 -0.5036778,0.02 0.4430528,-0.082 0.443052,-0.082 0.08159,-0.2379 0.08159,-0.2379 -0.02097,0.3 -0.02097,0.3 -0.503678,0.02 z m -6.8595777,-0.5865 -0.1333335,0.1334 0,-0.2667 0,-0.2667 0.1333335,0.1334 0.1333335,0.1333 -0.1333335,0.1333 z m 1.6032915,-0.096 -0.1050439,0.2625 -0.01579,-0.3833 -0.015789,-0.3834 0.1208335,0.1209 0.1208334,0.1208 -0.105044,0.2625 z m 4.3967163,-0.3042 -0.1333336,0.1334 0,-0.2667 0,-0.2667 0.1333336,0.1334 0.1333334,0.1333 -0.1333334,0.1333 z m -3.2333376,-0.1333 -0.7000009,0 0,-0.1653 0,-0.1654 0.5814876,0.085 0.5814875,0.085 0.095313,-0.37 0.095313,-0.37 0.0232,0.45 0.0232,0.45 -0.7000009,0 z m 4.8333395,-0.067 -0.133333,0.1334 0,-0.2667 0,-0.2667 0.133333,0.1334 0.133334,0.1333 -0.133334,0.1333 z m 1.166668,0.067 -0.700001,0 0,-0.15 0,-0.15 0.700001,0 0.700001,0 0,0.15 0,0.15 -0.700001,0 z m -8.5666774,-0.4667 -0.1333335,0.1334 0,-0.2667 0,-0.2667 0.1333335,0.1334 0.1333335,0.1333 -0.1333335,0.1333 z m 1.6997586,-0.2864 -0.2185673,0.2186 0.1187862,-0.7827 c 0.065332,-0.4306 0.1834666,-0.8547 0.2625205,-0.9426 l 0.1437344,-0.1598 -0.043953,0.724 -0.043953,0.724 -0.2185671,0.2185 z m 4.2669157,-0.047 c -0.055,0 -0.1000001,-0.045 -0.1000001,-0.1 0,-0.055 0.045,-0.1 0.1000001,-0.1 0.055,0 0.1000001,0.045 0.1000001,0.1 0,0.055 -0.045,0.1 -0.1000001,0.1 z m 1.5937591,0 -0.111882,0 0.135594,-0.75 c 0.07458,-0.4125 0.168656,-0.7875 0.209063,-0.8333 0.04041,-0.046 0.0767,0.1791 0.08066,0.5 l 0.0072,0.5833 0.479738,-0.5869 0.479738,-0.5869 0.13709,0.5462 0.137089,0.5462 -0.12402,0.1241 -0.124018,0.124 -0.0059,-0.4834 -0.0059,-0.4833 -0.591319,0.65 c -0.325225,0.3575 -0.641665,0.65 -0.7032,0.65 z m -7.3604332,-0.4667 -0.1333335,0.1334 0,-0.2667 0,-0.2667 0.1333335,0.1334 0.1333335,0.1333 -0.1333335,0.1333 z m 2.2207669,-0.3984 -0.4107595,0.3651 0.2764406,-0.45 0.2764405,-0.45 0.251891,0 0.2518909,0 -0.0232,0.45 -0.0232,0.45 -0.094372,-0.3651 -0.094372,-0.3651 -0.4107594,0.3651 z m 3.7825303,0.1026 -0.1050439,0.2625 -0.01579,-0.3833 -0.01579,-0.3834 0.1208336,0.1209 0.1208334,0.1208 -0.105044,0.2625 z m -5.8032969,-0.5042 -0.1333335,0.1334 0,-0.2667 0,-0.2667 0.1333335,0.1334 0.1333334,0.1333 -0.1333334,0.1333 z m 6.0000078,-0.4 -0.1333336,0.1334 0,-0.2667 0,-0.2667 0.1333336,0.1334 0.1333331,0.1333 -0.1333331,0.1333 z m -4.3967163,-0.2958 -0.1050439,0.2625 -0.01579,-0.3833 -0.015789,-0.3834 0.1208336,0.1209 0.1208333,0.1208 -0.1050439,0.2625 z m 6.7958424,0.013 -0.100878,0.25 0,-0.5 0,-0.5 0.100878,0.25 0.100877,0.25 -0.100877,0.25 z m -8.1958442,-0.2125 -0.1050439,0.2625 -0.01579,-0.3833 -0.015789,-0.3834 0.1208336,0.1209 0.1208333,0.1208 -0.1050439,0.2625 z m 2.1958362,0.012 -0.1008773,0.25 0,-0.5 0,-0.5 0.1008773,0.25 0.1008774,0.25 -0.1008774,0.25 z m 5.204173,-0.012 -0.105044,0.2625 -0.01579,-0.3833 -0.01579,-0.3834 0.120834,0.1209 0.120833,0.1208 -0.105044,0.2625 z m -1.403291,-0.3042 -0.1333334,0.1334 0,-0.2667 0,-0.2667 0.1333334,0.1334 0.133334,0.1333 -0.133334,0.1333 z m -4.3987829,-0.3661 -0.088156,0.3328 -0.0232,-0.3719 -0.0232,-0.3719 -0.7062685,0.082 -0.7062687,0.082 0.1008599,-0.2629 0.1008597,-0.2628 -0.7445929,-0.6923 c -0.4095262,-0.3808 -0.8570931,-0.6948 -0.9945933,-0.6978 -0.1375002,0 -0.2500003,-0.076 -0.2500003,-0.1623 0,-0.086 0.2613866,-0.3113 0.5808591,-0.5 l 0.5808592,-0.3431 1.2501408,0 1.2501406,0 -0.3619955,0.4 -0.3619954,0.4 1.2215883,0 1.2215886,0 0.5485205,-0.2499 0.5485203,-0.2499 -0.5891097,-0.1265 -0.58911,-0.1264 3.2500042,-0.024 3.250004,-0.024 0,0.7882 0,0.7882 -0.158202,0.098 -0.158202,0.098 0.08381,-0.7359 0.08381,-0.736 -0.425612,0.381 -0.425613,0.381 0,0.6935 0,0.6935 0.35,-0.2745 0.350001,-0.2745 -0.27449,0.35 c -0.150969,0.1925 -0.353469,0.35 -0.45,0.35 l -0.175512,0 0,-0.8 0,-0.8 -1.350001,0.01 -1.350002,0.01 0.465501,0.388 c 0.256025,0.2133 0.700902,0.5594 0.988615,0.769 l 0.523114,0.3811 -0.338614,0.3386 -0.338614,0.3386 0,-0.1864 0,-0.1865 -1.012801,-0.1199 -1.0128014,-0.12 -0.9772336,-0.8182 -0.9772337,-0.8182 -1.1346975,0.06 -1.1346974,0.06 0.9686146,0.694 0.9686149,0.6939 -0.7325304,0.1732 -0.7325305,0.1733 -0.088156,0.3328 z m 6.0164739,-2.3672 1.400002,0 0.248978,-0.3 0.248978,-0.3 -1.400002,0 -1.400002,0 -0.248978,0.3 -0.248978,0.3 1.400002,0 z m -9.2510341,1.8 c -0.055,0 -0.1000001,-0.045 -0.1000001,-0.1 0,-0.055 0.045,-0.1 0.1000001,-0.1 0.055,0 0.1000001,0.045 0.1000001,0.1 0,0.055 -0.045,0.1 -0.1000001,0.1 z m 1.9550285,-3.037 -0.4408883,0.063 -0.1236452,-0.4927 c -0.068005,-0.2709 -0.093686,-0.7043 -0.057069,-0.963 l 0.066576,-0.4703 0.4972616,0 0.4972617,0 0.067404,0.35 0.067404,0.35 -0.2146651,0 -0.2146651,0 0,-0.3118 0,-0.3118 -0.2000003,0.1236 -0.2000002,0.1236 0,0.6882 0,0.6882 0.2000002,0 0.2000003,0 0,-0.3 0,-0.3 0.2146651,0 0.2146651,0 -0.066708,0.35 -0.066708,0.35 -0.4408884,0.063 z m 0.9055998,0.037 -0.2060425,0 0.1414176,-0.95 c 0.07778,-0.5225 0.1741172,-0.9836 0.2140835,-1.0247 0.039966,-0.041 0.1986548,-0.026 0.3526414,0.033 l 0.2799756,0.1075 0.1158121,0.8634 c 0.063697,0.4749 0.071696,0.9076 0.017776,0.9615 -0.05392,0.054 -0.1899947,-0.034 -0.3023882,-0.1962 l -0.2043521,-0.2942 -0.1014405,0.25 c -0.055792,0.1375 -0.1941597,0.25 -0.307483,0.25 z m 0.4205999,-0.6884 0.1812243,-0.112 -0.1045504,-0.3998 c -0.057503,-0.2199 -0.1390538,-0.3998 -0.1812242,-0.3998 -0.042171,0 -0.076674,0.2303 -0.076674,0.5118 l 0,0.5118 0.1812242,-0.112 z m 1.4687779,0.6523 -0.4500006,0.064 0,-1.0139 0,-1.0139 0.1890421,0 0.189042,0 0.074909,0.95 0.074909,0.95 0.03605,-0.95 0.03605,-0.95 0.2109585,0 0.2109585,0 -0.060958,0.95 -0.060958,0.95 -0.4500006,0.064 z m 1.3500018,0.036 -0.2000003,0 0,-0.8 0,-0.8 -0.2000003,0 c -0.1100001,0 -0.2000002,-0.09 -0.2000002,-0.2 l 0,-0.2 0.6000008,0 0.6000007,0 0,0.2 c 0,0.11 -0.09,0.2 -0.2000002,0.2 l -0.2000003,0 0,0.8 0,0.8 -0.2000002,0 z m 1.0000012,0 -0.2000002,0 0,-1 0,-1 0.2000002,0 0.2000003,0 0,1 0,1 -0.2000003,0 z m 1.193725,0 -0.406278,0 -0.107815,-0.281 c -0.0593,-0.1545 -0.07897,-0.582 -0.04372,-0.95 l 0.06409,-0.669 0.450001,-0.064 0.45,-0.064 0,1.0139 0,1.0139 -0.406277,0 z m -0.05258,-0.55 c 0.04767,-0.2475 0.04767,-0.6525 0,-0.9 l -0.08667,-0.45 0,0.9 0,0.9 0.08667,-0.45 z m 1.058855,0.55 -0.2,0 0,-1 0,-1 0.176674,0 0.176673,0 0.141133,0.45 0.141133,0.45 0.162258,-0.5 0.162258,-0.5 0.01994,1.05 c 0.01096,0.5775 -0.02796,1.05 -0.08651,1.05 -0.05854,0 -0.18784,-0.2025 -0.287323,-0.45 l -0.180878,-0.45 -0.01268,0.45 -0.01268,0.45 -0.2,0 z"
         id="path6918" />
      <path
         style="fill:#020201"
         d="m 3.8999857,1050.5622 -0.9000012,0 0,-0.15 0,-0.15 0.9000012,0 0.9000012,0 0,0.15 0,0.15 -0.9000012,0 z m 5.2000067,-0.4 c -0.055,0 -0.1000001,-0.045 -0.1000001,-0.1 0,-0.055 0.045,-0.1 0.1000001,-0.1 0.055,0 0.1000001,0.045 0.1000001,0.1 0,0.055 -0.045,0.1 -0.1000001,0.1 z m 1.6000016,-0.2 c -0.055,0 -0.1,-0.045 -0.1,-0.1 0,-0.055 0.045,-0.1 0.1,-0.1 0.055,0 0.100001,0.045 0.100001,0.1 0,0.055 -0.045,0.1 -0.100001,0.1 z m -1.6000016,-0.2 c -0.055,0 -0.1000001,-0.045 -0.1000001,-0.1 0,-0.055 0.045,-0.1 0.1000001,-0.1 0.055,0 0.1000001,0.045 0.1000001,0.1 0,0.055 -0.045,0.1 -0.1000001,0.1 z m -5.8000075,-0.4 c -0.055,0 -0.1000001,-0.045 -0.1000001,-0.1 0,-0.055 0.045,-0.1 0.1000001,-0.1 0.055,0 0.1000002,0.045 0.1000002,0.1 0,0.055 -0.045,0.1 -0.1000002,0.1 z m 1.6000021,0 c -0.055,0 -0.1000001,-0.045 -0.1000001,-0.1 0,-0.055 0.045,-0.1 0.1000001,-0.1 0.055,0 0.1000001,0.045 0.1000001,0.1 0,0.055 -0.045,0.1 -0.1000001,0.1 z m 1.2000015,-0.4 -0.7000009,0 0,-0.1598 0,-0.1599 0.7000009,0.082 c 0.3850005,0.045 0.7000009,0.1168 0.7000009,0.1598 0,0.043 -0.3150004,0.078 -0.7000009,0.078 z m 3.2000042,0 c -0.055,0 -0.1000002,-0.045 -0.1000002,-0.1 0,-0.055 0.045,-0.1 0.1000002,-0.1 0.055,0 0.1000001,0.045 0.1000001,0.1 0,0.055 -0.045,0.1 -0.1000001,0.1 z m 1.6000023,0 c -0.055,0 -0.1,-0.045 -0.1,-0.1 0,-0.055 0.045,-0.1 0.1,-0.1 0.055,0 0.1,0.045 0.1,0.1 0,0.055 -0.045,0.1 -0.1,0.1 z m 1.200001,0 c -0.385,0 -0.700001,-0.035 -0.700001,-0.078 0,-0.043 0.315001,-0.1149 0.700001,-0.1598 l 0.700001,-0.082 0,0.1599 0,0.1598 -0.700001,0 z m -8.6000108,-0.4 c -0.055,0 -0.1000001,-0.045 -0.1000001,-0.1 0,-0.055 0.045,-0.1 0.1000001,-0.1 0.055,0 0.1000001,0.045 0.1000001,0.1 0,0.055 -0.045,0.1 -0.1000001,0.1 z m 3.2333376,-0.067 -0.1333336,0.1334 0,-0.2667 0,-0.2667 0.1333336,0.1334 0.1333333,0.1333 -0.1333333,0.1333 z m -1.4775185,-0.3091 -0.1754545,0.1755 0.1038188,-0.7499 0.1038185,-0.7498 0.071636,0.5744 0.071636,0.5743 -0.1754544,0.1755 z m 4.2441886,-0.024 c -0.055,0 -0.1000001,-0.045 -0.1000001,-0.1 0,-0.055 0.045,-0.1 0.1000001,-0.1 0.055,0 0.1000001,0.045 0.1000001,0.1 0,0.055 -0.045,0.1 -0.1000001,0.1 z m 1.7000021,0 c -0.11,0 -0.2,-0.09 -0.2,-0.2 0,-0.11 0.09,-0.2 0.2,-0.2 0.11,0 0.2,0.09 0.2,0.2 0,0.11 -0.09,0.2 -0.2,0.2 z m -7.5000096,-0.6 c -0.055,0 -0.1000001,-0.045 -0.1000001,-0.1 0,-0.055 0.045,-0.1 0.1000001,-0.1 0.055,0 0.1000002,0.045 0.1000002,0.1 0,0.055 -0.045,0.1 -0.1000002,0.1 z m 7.6324656,-0.15 -0.100877,0.25 0,-0.5 0,-0.5 0.100877,0.25 0.100878,0.25 -0.100878,0.25 z m 0.467545,0.05 c -0.11,0.068 -0.2,0.079 -0.2,0.024 0,-0.055 0.09,-0.1556 0.2,-0.2236 0.11,-0.068 0.2,-0.079 0.2,-0.024 0,0.055 -0.09,0.1556 -0.2,0.2236 z m 0.733334,0.033 -0.133333,0.1334 0,-0.2667 0,-0.2667 0.133333,0.1334 0.133334,0.1333 -0.133334,0.1333 z m -6.5333416,-0.2333 c -0.1100001,0.068 -0.2000002,0.079 -0.2000002,0.024 0,-0.055 0.09,-0.1556 0.2000002,-0.2236 0.1100002,-0.068 0.2000003,-0.079 0.2000003,-0.024 0,0.055 -0.09,0.1556 -0.2000003,0.2236 z m 3.7000048,0.1 c -0.055,0 -0.1000002,-0.045 -0.1000002,-0.1 0,-0.055 0.045,-0.1 0.1000002,-0.1 0.055,0 0.1000001,0.045 0.1000001,0.1 0,0.055 -0.045,0.1 -0.1000001,0.1 z m -3.1666707,-0.2667 -0.1333336,0.1334 0,-0.2667 0,-0.2667 0.1333336,0.1334 0.1333334,0.1333 -0.1333334,0.1333 z m 5.5666735,-0.1333 c -0.055,0 -0.1,-0.045 -0.1,-0.1 0,-0.055 0.045,-0.1 0.1,-0.1 0.055,0 0.1,0.045 0.1,0.1 0,0.055 -0.045,0.1 -0.1,0.1 z m -8.2000103,-0.2 c -0.055,0 -0.1000001,-0.045 -0.1000001,-0.1 0,-0.055 0.045,-0.1 0.1000001,-0.1 0.055,0 0.1000001,0.045 0.1000001,0.1 0,0.055 -0.045,0.1 -0.1000001,0.1 z m 6.0000077,-0.2 c -0.055,0 -0.1000001,-0.045 -0.1000001,-0.1 0,-0.055 0.045,-0.1 0.1000001,-0.1 0.055,0 0.1000002,0.045 0.1000002,0.1 0,0.055 -0.045,0.1 -0.1000002,0.1 z m -4.3666722,-0.2667 -0.1333336,0.1334 0,-0.2667 0,-0.2667 0.1333336,0.1334 0.1333334,0.1333 -0.1333334,0.1333 z m -1.4000018,-0.4 -0.1333336,0.1334 0,-0.2667 0,-0.2667 0.1333336,0.1334 0.1333334,0.1333 -0.1333334,0.1333 z m 7.3666756,0.067 c -0.055,0 -0.1,-0.045 -0.1,-0.1 0,-0.055 0.045,-0.1 0.1,-0.1 0.055,0 0.100001,0.045 0.100001,0.1 0,0.055 -0.045,0.1 -0.100001,0.1 z m 0.800002,0 c -0.055,0 -0.100001,-0.045 -0.100001,-0.1 0,-0.055 0.045,-0.1 0.100001,-0.1 0.055,0 0.1,0.045 0.1,0.1 0,0.055 -0.045,0.1 -0.1,0.1 z m -5.9666748,-0.2667 -0.1333335,0.1334 0,-0.2667 0,-0.2667 0.1333335,0.1334 0.1333334,0.1333 -0.1333334,0.1333 z m 3.7666718,-0.1333 c -0.055,0 -0.1000004,-0.045 -0.1000004,-0.1 0,-0.055 0.045,-0.1 0.1000004,-0.1 0.055,0 0.1,0.045 0.1,0.1 0,0.055 -0.045,0.1 -0.1,0.1 z m -4.3227963,-0.37 -0.1710846,0.27 -0.00306,-0.25 -0.00306,-0.25 -0.750001,0 -0.7500009,0 0.2471419,-0.157 0.2471419,-0.157 -0.9454595,-0.7899 c -0.5200028,-0.4345 -1.0137171,-0.7675 -1.0971431,-0.74 -0.083426,0.027 -0.1516834,-0.021 -0.1516834,-0.1069 0,-0.086 0.2613866,-0.3113 0.5808591,-0.5 l 0.5808592,-0.3431 1.254006,0 1.254006,0 -0.453213,0.4824 -0.453213,0.4825 1.0281534,0.7675 1.0281531,0.7676 -0.635656,0.13 -0.6356563,0.1301 -0.1710846,0.2699 z m 6.1716493,-0.1879 c -0.136868,0.046 -0.72728,0.01 -1.312026,-0.079 l -1.0631738,-0.1633 -0.9750194,-0.8399 -0.9750195,-0.8398 0.5881918,-0.2849 c 0.3235056,-0.1567 0.5881919,-0.3636 0.5881919,-0.4599 l 0,-0.175 1.1500015,0.011 1.1500015,0.01 -0.450001,0.3139 -0.45,0.3139 0,0.2417 0,0.2417 0.892588,0.641 c 0.490923,0.3526 0.940407,0.7184 0.998852,0.813 l 0.106265,0.1719 -0.248852,0.084 z m 1.239347,-0.2421 -0.188197,0 0.0067,-0.85 0.0067,-0.85 0.375406,-0.45 c 0.206472,-0.2475 0.473478,-0.45 0.593346,-0.45 l 0.217942,0 -0.03201,0.85 -0.03201,0.85 -0.08068,-0.6502 -0.08068,-0.6503 -0.387311,0.2073 -0.38731,0.2073 0,0.8047 0,0.8048 0.230902,-0.1427 0.230902,-0.1427 -0.142706,0.2309 c -0.07849,0.127 -0.227393,0.2309 -0.330902,0.2309 z m -8.7331816,-3.037 -0.4408883,0.063 -0.1287508,-0.513 -0.128751,-0.513 0.128751,-0.513 0.1287508,-0.513 0.4408883,0.063 0.4408884,0.063 0.066708,0.35 0.066708,0.35 -0.2146651,0 -0.2146651,0 0,-0.3 0,-0.3 -0.2000003,0 -0.2000002,0 0,0.8 0,0.8 0.2000002,0 0.2000003,0 0,-0.3 0,-0.3 0.2146651,0 0.2146651,0 -0.066708,0.35 -0.066708,0.35 -0.4408884,0.063 z m 0.9055998,0.037 -0.2060425,0 0.1414176,-0.95 c 0.07778,-0.5225 0.1741172,-0.9836 0.2140835,-1.0247 0.039966,-0.041 0.1986548,-0.026 0.3526414,0.033 l 0.2799756,0.1075 0.1158121,0.8634 c 0.063697,0.4749 0.071696,0.9076 0.017776,0.9615 -0.05392,0.054 -0.1899947,-0.034 -0.3023882,-0.1962 l -0.2043521,-0.2942 -0.1014405,0.25 c -0.055792,0.1375 -0.1941597,0.25 -0.307483,0.25 z m 0.439376,-0.6 0.2000002,0 -0.00306,-0.25 c -0.00169,-0.1375 -0.090307,-0.385 -0.1969382,-0.55 l -0.1938751,-0.3 -0.00306,0.55 -0.00306,0.55 0.2000003,0 z m 1.4500018,0.5639 -0.4500006,0.064 0,-1.0139 0,-1.0139 0.1890421,0 0.189042,0 0.074909,0.95 0.074909,0.95 0.03605,-0.95 0.03605,-0.95 0.2109585,0 0.2109585,0 -0.060958,0.95 -0.060958,0.95 -0.4500006,0.064 z m 1.3500018,0.036 -0.2000003,0 0,-0.8 0,-0.8 -0.2000003,0 c -0.1100001,0 -0.2000002,-0.09 -0.2000002,-0.2 l 0,-0.2 0.6000008,0 0.6000007,0 0,0.2 c 0,0.11 -0.09,0.2 -0.2000002,0.2 l -0.2000003,0 0,0.8 0,0.8 -0.2000002,0 z m 1.0000012,0 -0.2000002,0 0,-1 0,-1 0.2000002,0 0.2000003,0 0,1 0,1 -0.2000003,0 z m 1.193725,0 -0.406278,0 -0.107815,-0.281 c -0.0593,-0.1545 -0.07897,-0.582 -0.04372,-0.95 l 0.06409,-0.669 0.450001,-0.064 0.45,-0.064 0,1.0139 0,1.0139 -0.406277,0 z m -0.05258,-0.55 c 0.04767,-0.2475 0.04767,-0.6525 0,-0.9 l -0.08667,-0.45 0,0.9 0,0.9 0.08667,-0.45 z m 1.058855,0.55 -0.2,0 0,-1 0,-1 0.176674,0 0.176673,0 0.141133,0.45 0.141133,0.45 0.162258,-0.5 0.162258,-0.5 0.01994,1.05 c 0.01096,0.5775 -0.02796,1.05 -0.08651,1.05 -0.05854,0 -0.18784,-0.2025 -0.287323,-0.45 l -0.180878,-0.45 -0.01268,0.45 -0.01268,0.45 -0.2,0 z"
         id="path6916" />
    </g>
  </g>
</svg>
