<?xml version="1.0" encoding="UTF-8" standalone="no"?>
<!-- Created with Inkscape (http://www.inkscape.org/) -->

<svg
   xmlns:dc="http://purl.org/dc/elements/1.1/"
   xmlns:cc="http://creativecommons.org/ns#"
   xmlns:rdf="http://www.w3.org/1999/02/22-rdf-syntax-ns#"
   xmlns:svg="http://www.w3.org/2000/svg"
   xmlns="http://www.w3.org/2000/svg"
   xmlns:sodipodi="http://sodipodi.sourceforge.net/DTD/sodipodi-0.dtd"
   xmlns:inkscape="http://www.inkscape.org/namespaces/inkscape"
   width="16"
   height="16"
   id="svg2"
   version="1.1"
   inkscape:version="0.47 r22583"
   sodipodi:docname="FARM-64.svg">
  <defs
     id="defs4">
    <inkscape:perspective
       sodipodi:type="inkscape:persp3d"
       inkscape:vp_x="0 : 526.18109 : 1"
       inkscape:vp_y="0 : 1000 : 0"
       inkscape:vp_z="744.09448 : 526.18109 : 1"
       inkscape:persp3d-origin="372.04724 : 350.78739 : 1"
       id="perspective10" />
    <inkscape:perspective
       id="perspective2824"
       inkscape:persp3d-origin="0.5 : 0.33333333 : 1"
       inkscape:vp_z="1 : 0.5 : 1"
       inkscape:vp_y="0 : 1000 : 0"
       inkscape:vp_x="0 : 0.5 : 1"
       sodipodi:type="inkscape:persp3d" />
    <inkscape:perspective
       id="perspective5878"
       inkscape:persp3d-origin="0.5 : 0.33333333 : 1"
       inkscape:vp_z="1 : 0.5 : 1"
       inkscape:vp_y="0 : 1000 : 0"
       inkscape:vp_x="0 : 0.5 : 1"
       sodipodi:type="inkscape:persp3d" />
    <inkscape:perspective
       id="perspective5921"
       inkscape:persp3d-origin="0.5 : 0.33333333 : 1"
       inkscape:vp_z="1 : 0.5 : 1"
       inkscape:vp_y="0 : 1000 : 0"
       inkscape:vp_x="0 : 0.5 : 1"
       sodipodi:type="inkscape:persp3d" />
    <inkscape:perspective
       id="perspective5943"
       inkscape:persp3d-origin="0.5 : 0.33333333 : 1"
       inkscape:vp_z="1 : 0.5 : 1"
       inkscape:vp_y="0 : 1000 : 0"
       inkscape:vp_x="0 : 0.5 : 1"
       sodipodi:type="inkscape:persp3d" />
    <inkscape:perspective
       id="perspective5989"
       inkscape:persp3d-origin="0.5 : 0.33333333 : 1"
       inkscape:vp_z="1 : 0.5 : 1"
       inkscape:vp_y="0 : 1000 : 0"
       inkscape:vp_x="0 : 0.5 : 1"
       sodipodi:type="inkscape:persp3d" />
    <inkscape:perspective
       id="perspective6011"
       inkscape:persp3d-origin="0.5 : 0.33333333 : 1"
       inkscape:vp_z="1 : 0.5 : 1"
       inkscape:vp_y="0 : 1000 : 0"
       inkscape:vp_x="0 : 0.5 : 1"
       sodipodi:type="inkscape:persp3d" />
    <inkscape:perspective
       id="perspective6033"
       inkscape:persp3d-origin="0.5 : 0.33333333 : 1"
       inkscape:vp_z="1 : 0.5 : 1"
       inkscape:vp_y="0 : 1000 : 0"
       inkscape:vp_x="0 : 0.5 : 1"
       sodipodi:type="inkscape:persp3d" />
    <inkscape:perspective
       id="perspective6245"
       inkscape:persp3d-origin="0.5 : 0.33333333 : 1"
       inkscape:vp_z="1 : 0.5 : 1"
       inkscape:vp_y="0 : 1000 : 0"
       inkscape:vp_x="0 : 0.5 : 1"
       sodipodi:type="inkscape:persp3d" />
    <inkscape:perspective
       id="perspective6269"
       inkscape:persp3d-origin="0.5 : 0.33333333 : 1"
       inkscape:vp_z="1 : 0.5 : 1"
       inkscape:vp_y="0 : 1000 : 0"
       inkscape:vp_x="0 : 0.5 : 1"
       sodipodi:type="inkscape:persp3d" />
    <inkscape:perspective
       id="perspective6364"
       inkscape:persp3d-origin="0.5 : 0.33333333 : 1"
       inkscape:vp_z="1 : 0.5 : 1"
       inkscape:vp_y="0 : 1000 : 0"
       inkscape:vp_x="0 : 0.5 : 1"
       sodipodi:type="inkscape:persp3d" />
    <inkscape:perspective
       id="perspective6396"
       inkscape:persp3d-origin="0.5 : 0.33333333 : 1"
       inkscape:vp_z="1 : 0.5 : 1"
       inkscape:vp_y="0 : 1000 : 0"
       inkscape:vp_x="0 : 0.5 : 1"
       sodipodi:type="inkscape:persp3d" />
    <inkscape:perspective
       id="perspective6438"
       inkscape:persp3d-origin="0.5 : 0.33333333 : 1"
       inkscape:vp_z="1 : 0.5 : 1"
       inkscape:vp_y="0 : 1000 : 0"
       inkscape:vp_x="0 : 0.5 : 1"
       sodipodi:type="inkscape:persp3d" />
    <inkscape:perspective
       id="perspective6460"
       inkscape:persp3d-origin="0.5 : 0.33333333 : 1"
       inkscape:vp_z="1 : 0.5 : 1"
       inkscape:vp_y="0 : 1000 : 0"
       inkscape:vp_x="0 : 0.5 : 1"
       sodipodi:type="inkscape:persp3d" />
    <inkscape:perspective
       id="perspective6480"
       inkscape:persp3d-origin="0.5 : 0.33333333 : 1"
       inkscape:vp_z="1 : 0.5 : 1"
       inkscape:vp_y="0 : 1000 : 0"
       inkscape:vp_x="0 : 0.5 : 1"
       sodipodi:type="inkscape:persp3d" />
    <inkscape:perspective
       id="perspective6504"
       inkscape:persp3d-origin="0.5 : 0.33333333 : 1"
       inkscape:vp_z="1 : 0.5 : 1"
       inkscape:vp_y="0 : 1000 : 0"
       inkscape:vp_x="0 : 0.5 : 1"
       sodipodi:type="inkscape:persp3d" />
    <inkscape:perspective
       id="perspective6524"
       inkscape:persp3d-origin="0.5 : 0.33333333 : 1"
       inkscape:vp_z="1 : 0.5 : 1"
       inkscape:vp_y="0 : 1000 : 0"
       inkscape:vp_x="0 : 0.5 : 1"
       sodipodi:type="inkscape:persp3d" />
    <inkscape:perspective
       id="perspective6548"
       inkscape:persp3d-origin="0.5 : 0.33333333 : 1"
       inkscape:vp_z="1 : 0.5 : 1"
       inkscape:vp_y="0 : 1000 : 0"
       inkscape:vp_x="0 : 0.5 : 1"
       sodipodi:type="inkscape:persp3d" />
    <inkscape:perspective
       id="perspective6572"
       inkscape:persp3d-origin="0.5 : 0.33333333 : 1"
       inkscape:vp_z="1 : 0.5 : 1"
       inkscape:vp_y="0 : 1000 : 0"
       inkscape:vp_x="0 : 0.5 : 1"
       sodipodi:type="inkscape:persp3d" />
    <inkscape:perspective
       id="perspective6594"
       inkscape:persp3d-origin="0.5 : 0.33333333 : 1"
       inkscape:vp_z="1 : 0.5 : 1"
       inkscape:vp_y="0 : 1000 : 0"
       inkscape:vp_x="0 : 0.5 : 1"
       sodipodi:type="inkscape:persp3d" />
    <inkscape:perspective
       id="perspective6614"
       inkscape:persp3d-origin="0.5 : 0.33333333 : 1"
       inkscape:vp_z="1 : 0.5 : 1"
       inkscape:vp_y="0 : 1000 : 0"
       inkscape:vp_x="0 : 0.5 : 1"
       sodipodi:type="inkscape:persp3d" />
    <inkscape:perspective
       id="perspective6650"
       inkscape:persp3d-origin="0.5 : 0.33333333 : 1"
       inkscape:vp_z="1 : 0.5 : 1"
       inkscape:vp_y="0 : 1000 : 0"
       inkscape:vp_x="0 : 0.5 : 1"
       sodipodi:type="inkscape:persp3d" />
    <inkscape:perspective
       id="perspective6676"
       inkscape:persp3d-origin="0.5 : 0.33333333 : 1"
       inkscape:vp_z="1 : 0.5 : 1"
       inkscape:vp_y="0 : 1000 : 0"
       inkscape:vp_x="0 : 0.5 : 1"
       sodipodi:type="inkscape:persp3d" />
    <inkscape:perspective
       id="perspective6710"
       inkscape:persp3d-origin="0.5 : 0.33333333 : 1"
       inkscape:vp_z="1 : 0.5 : 1"
       inkscape:vp_y="0 : 1000 : 0"
       inkscape:vp_x="0 : 0.5 : 1"
       sodipodi:type="inkscape:persp3d" />
    <inkscape:perspective
       id="perspective6748"
       inkscape:persp3d-origin="0.5 : 0.33333333 : 1"
       inkscape:vp_z="1 : 0.5 : 1"
       inkscape:vp_y="0 : 1000 : 0"
       inkscape:vp_x="0 : 0.5 : 1"
       sodipodi:type="inkscape:persp3d" />
    <inkscape:perspective
       id="perspective6786"
       inkscape:persp3d-origin="0.5 : 0.33333333 : 1"
       inkscape:vp_z="1 : 0.5 : 1"
       inkscape:vp_y="0 : 1000 : 0"
       inkscape:vp_x="0 : 0.5 : 1"
       sodipodi:type="inkscape:persp3d" />
    <inkscape:perspective
       id="perspective6810"
       inkscape:persp3d-origin="0.5 : 0.33333333 : 1"
       inkscape:vp_z="1 : 0.5 : 1"
       inkscape:vp_y="0 : 1000 : 0"
       inkscape:vp_x="0 : 0.5 : 1"
       sodipodi:type="inkscape:persp3d" />
    <inkscape:perspective
       id="perspective6848"
       inkscape:persp3d-origin="0.5 : 0.33333333 : 1"
       inkscape:vp_z="1 : 0.5 : 1"
       inkscape:vp_y="0 : 1000 : 0"
       inkscape:vp_x="0 : 0.5 : 1"
       sodipodi:type="inkscape:persp3d" />
    <inkscape:perspective
       id="perspective6870"
       inkscape:persp3d-origin="0.5 : 0.33333333 : 1"
       inkscape:vp_z="1 : 0.5 : 1"
       inkscape:vp_y="0 : 1000 : 0"
       inkscape:vp_x="0 : 0.5 : 1"
       sodipodi:type="inkscape:persp3d" />
    <inkscape:perspective
       id="perspective6908"
       inkscape:persp3d-origin="0.5 : 0.33333333 : 1"
       inkscape:vp_z="1 : 0.5 : 1"
       inkscape:vp_y="0 : 1000 : 0"
       inkscape:vp_x="0 : 0.5 : 1"
       sodipodi:type="inkscape:persp3d" />
    <inkscape:perspective
       id="perspective6946"
       inkscape:persp3d-origin="0.5 : 0.33333333 : 1"
       inkscape:vp_z="1 : 0.5 : 1"
       inkscape:vp_y="0 : 1000 : 0"
       inkscape:vp_x="0 : 0.5 : 1"
       sodipodi:type="inkscape:persp3d" />
    <inkscape:perspective
       id="perspective6970"
       inkscape:persp3d-origin="0.5 : 0.33333333 : 1"
       inkscape:vp_z="1 : 0.5 : 1"
       inkscape:vp_y="0 : 1000 : 0"
       inkscape:vp_x="0 : 0.5 : 1"
       sodipodi:type="inkscape:persp3d" />
  </defs>
  <sodipodi:namedview
     id="base"
     pagecolor="#ffffff"
     bordercolor="#666666"
     borderopacity="1.0"
     inkscape:pageopacity="0.0"
     inkscape:pageshadow="2"
     inkscape:zoom="8.671875"
     inkscape:cx="10.564203"
     inkscape:cy="2.743179"
     inkscape:document-units="px"
     inkscape:current-layer="layer1"
     showgrid="true"
     inkscape:window-width="1280"
     inkscape:window-height="780"
     inkscape:window-x="-8"
     inkscape:window-y="-8"
     inkscape:window-maximized="1">
    <inkscape:grid
       type="xygrid"
       id="grid6324"
       empspacing="5"
       visible="true"
       enabled="true"
       snapvisiblegridlinesonly="true" />
  </sodipodi:namedview>
  <metadata
     id="metadata7">
    <rdf:RDF>
      <cc:Work
         rdf:about="">
        <dc:format>image/svg+xml</dc:format>
        <dc:type
           rdf:resource="http://purl.org/dc/dcmitype/StillImage" />
        <dc:title></dc:title>
      </cc:Work>
    </rdf:RDF>
  </metadata>
  <g
     inkscape:label="Calque 1"
     inkscape:groupmode="layer"
     id="layer1"
     transform="translate(0,-1036.3622)">
    <g
       id="g6976"
       transform="translate(6e-6,1.1472)">
      <path
         style="fill:#a2a2a2"
         d="m 13.484828,1050.1086 c -0.242391,-0.01 -0.903946,-0.1527 -1.470122,-0.3167 l -1.029412,-0.2984 -4.3749999,-0.018 -4.375,-0.018 0.00458,-5.0693 0.00458,-5.0693 0.3606716,-0.4687 0.3606716,-0.4686 0.7156973,-0.1161 0.7156971,-0.1162 0.566112,0.4453 0.5661121,0.4453 0,1.2343 0,1.2342 0.4026731,-0.1278 0.402673,-0.1278 0.8648205,0.2591 0.8648206,0.2591 1.769271,1.7336 c 0.973099,0.9534 2.086516,1.9767 2.474261,2.2739 l 0.704989,0.5404 0.539848,1.1888 0.539848,1.1889 -0.08354,0.7155 -0.08354,0.7156 -0.440711,-0.018 z m -10.438802,-5.1735 0.3797071,-0.9713 0.7605506,-1.036 c 0.4183027,-0.5699 0.8453068,-1.0361 0.9488982,-1.0361 l 0.1883475,0 -2.555e-4,-0.2574 -2.555e-4,-0.2573 -1.3379798,0 -1.3379798,0 0.00963,2.2686 0.00963,2.2687 0.3797071,-0.9713 z m 1.0422093,-3.9118 c 0.1698529,0 0.5404412,-0.061 0.8235294,-0.141 l 0.5147059,-0.1449 -1.4411765,0 -1.4411765,0 0.6176471,0.1443 c 0.3397059,0.079 0.7566177,0.1461 0.9264706,0.1482 z m -1.0294118,-1.2229 0.5147059,0 -0.2573529,-0.1039 -0.257353,-0.1038 -0.2573529,0.1038 -0.257353,0.1039 0.5147059,0 z m 1.8529412,0.033 0.2745097,0 -0.1372547,-0.1373 -0.137255,-0.1372 -0.137255,0.1372 -0.1372547,0.1373 0.2745097,0 z m -1.9437318,-0.6177 0.3209741,0 -0.1293178,-0.2092 -0.1293179,-0.2093 -0.1916562,0.1185 c -0.105411,0.065 -0.1916563,0.1593 -0.1916563,0.2092 0,0.05 0.1444384,0.091 0.3209741,0.091 z"
         id="path6998" />
      <path
         style="fill:#ce9f00"
         d="m 13.484828,1050.1086 c -0.242391,-0.01 -0.903946,-0.1527 -1.470122,-0.3167 l -1.029412,-0.2984 -4.3749999,-0.018 -4.375,-0.018 0.00458,-5.0693 0.00458,-5.0693 0.3606716,-0.4687 0.3606716,-0.4686 0.7156973,-0.1161 0.7156971,-0.1162 0.566112,0.4453 0.5661121,0.4453 0,1.1918 0,1.1918 -0.5555643,-0.1062 -0.5555643,-0.1062 0.4526231,-0.1674 c 0.2489427,-0.092 0.4527919,-0.2399 0.4529982,-0.3285 l 3.751e-4,-0.161 -1.1841986,0.02 -1.1841986,0.02 0.9264705,-0.078 c 0.5095589,-0.043 1.0654412,-0.1312 1.2352942,-0.1966 l 0.3088235,-0.119 -0.4117647,-0.1693 -0.4117647,-0.1693 0.3602941,-0.014 0.3602941,-0.014 -5.147e-4,-0.1544 -5.147e-4,-0.1545 -1.4408221,0 -1.440822,0 1.536e-4,0.1545 1.67e-4,0.1544 0.4632353,0.02 0.4632353,0.021 -0.4152165,0.1339 -0.4152165,0.1339 0.00345,0.4092 0.00345,0.4092 0.6176471,0.1326 0.6176471,0.1326 -0.6691177,0.024 -0.6691176,0.024 0.013934,2.625 0.013934,2.625 0.2285055,-0.5147 c 0.1256781,-0.283 0.4410769,-0.9814 0.7008862,-1.5518 l 0.4723806,-1.037 0.7445194,-0.8698 c 0.4094856,-0.4784 0.9324117,-0.9704 1.1620583,-1.0933 l 0.4175389,-0.2235 0.9254687,0.2592 0.925469,0.2591 1.7785349,1.7426 c 0.9781935,0.9584 2.0957795,1.9858 2.4835235,2.283 l 0.70499,0.5404 0.539848,1.1888 0.539848,1.1889 -0.08354,0.7155 -0.08354,0.7156 -0.440711,-0.018 z m -10.8377692,-0.9081 0.2058824,-0.1272 0,-0.8114 0,-0.8114 -0.2058824,0 -0.2058823,0 0,0.9386 0,0.9387 0.2058823,-0.1273 z m 0.7270499,-9.9853 0.7141266,0 0,-0.2966 c 0,-0.1632 -0.076569,-0.344 -0.1701533,-0.4019 l -0.1701531,-0.1051 -0.4332521,0.1133 -0.4332519,0.1133 -0.1107215,0.2885 -0.1107214,0.2885 0.7141267,0 z m 0.6111854,0.9893 -0.617647,0.01 0.2534345,-0.1025 c 0.1393892,-0.056 0.4173304,-0.06 0.6176471,-0.01 l 0.3642125,0.095 -0.6176471,0.01 z"
         id="path6996" />
      <path
         style="fill:#a68d0a"
         d="m 13.484828,1050.1086 c -0.242391,-0.01 -0.903946,-0.1527 -1.470122,-0.3167 l -1.029412,-0.2984 -4.3749999,-0.018 -4.375,-0.018 0.00458,-5.0693 0.00458,-5.0693 0.3606716,-0.4687 0.3606716,-0.4686 0.7156973,-0.1161 0.7156971,-0.1162 0.566112,0.4453 0.5661121,0.4453 0,1.2343 0,1.2342 0.4026731,-0.1278 0.402673,-0.1278 0.8648205,0.2591 0.8648206,0.2591 1.769271,1.7336 c 0.973099,0.9534 2.086516,1.9767 2.474261,2.2739 l 0.704989,0.5404 0.539848,1.1888 0.539848,1.1889 -0.08354,0.7155 -0.08354,0.7156 -0.440711,-0.018 z m -10.8377692,-0.9081 0.2058824,-0.1272 0,-0.8114 0,-0.8114 -0.2058824,0 -0.2058823,0 0,0.9386 0,0.9387 0.2058823,-0.1273 z m 10.0484732,-1.6416 0.115252,-0.1152 -0.255825,-0.254 -0.255825,-0.2539 0.140573,0.3692 0.140574,0.3692 0.115251,-0.1153 z m -5.1587673,-0.117 c 0.028309,0 0.051471,-0.1767 0.051471,-0.4031 l 0,-0.4118 -0.7720588,0.01 -0.7720589,0.01 0.7205883,0.3946 c 0.3963235,0.2169 0.74375,0.3983 0.7720588,0.4031 z m -4.604858,-0.1973 c 0.047746,0 0.2810023,-0.6253 0.518348,-1.3897 l 0.4315374,-1.3897 0.7181156,-0.9714 c 0.3949637,-0.5342 0.9528347,-1.1252 1.2397132,-1.3131 l 0.5215974,-0.3418 0.9185531,0.3508 0.9185532,0.3508 0.8557955,0.9624 0.8557955,0.9623 -0.2174712,-0.4117 c -0.1196093,-0.2265 -0.5261785,-0.7082 -0.9034874,-1.0705 l -0.6860158,-0.6587 -0.7871714,-0.3283 -0.7871714,-0.3283 -0.3874097,0.1229 -0.3874094,0.123 -0.9246467,1.0284 -0.9246465,1.0284 -0.3939102,1.071 c -0.2166506,0.589 -0.4550132,1.3257 -0.5296949,1.6371 -0.074682,0.3114 -0.09672,0.5661 -0.048974,0.5661 z m 8.7053483,-0.069 0.137255,-0.1372 -0.137255,-0.1373 -0.137255,-0.1373 0,0.2746 0,0.2745 0.137255,-0.1373 z m -8.9397046,-1.1667 c 0.125678,-0.283 0.4448774,-0.9894 0.7093321,-1.5696 l 0.4808267,-1.0549 0.8140932,-0.9249 0.8140932,-0.9249 -0.1304969,-0.1305 c -0.071773,-0.072 -0.3235114,-0.1363 -0.5594184,-0.1435 l -0.4289215,-0.013 0.4632353,-0.1862 c 0.2547794,-0.1024 0.4634041,-0.2586 0.4636104,-0.3472 l 3.751e-4,-0.161 -1.1841986,0.02 -1.1841986,0.02 0.9264705,-0.078 c 0.5095589,-0.043 1.0654412,-0.1312 1.2352942,-0.1966 l 0.3088235,-0.119 -0.4117647,-0.1693 -0.4117647,-0.1693 0.3602941,-0.014 0.3602941,-0.014 -5.147e-4,-0.1544 -5.147e-4,-0.1545 -1.4408221,0 -1.440822,0 1.536e-4,0.1545 1.67e-4,0.1544 0.4632353,0.02 0.4632353,0.021 -0.4152165,0.1339 -0.4152165,0.1339 0.00345,0.4092 0.00345,0.4092 0.6176471,0.1326 0.6176471,0.1326 -0.6691177,0.024 -0.6691176,0.024 0.013934,2.625 0.013934,2.625 0.2285056,-0.5147 z m 1.2877437,-5.8048 -0.617647,0.01 0.2534345,-0.1025 c 0.1393892,-0.056 0.4173304,-0.06 0.6176471,-0.01 l 0.3642125,0.095 -0.6176471,0.01 z m 7.4117649,6.2166 c 0.05662,0 0.102941,-0.046 0.102941,-0.1029 0,-0.057 -0.04632,-0.103 -0.102941,-0.103 -0.05662,0 -0.102941,0.046 -0.102941,0.103 0,0.057 0.04632,0.1029 0.102941,0.1029 z m -0.205883,-0.8235 c 0.05662,0 0.102942,-0.046 0.102942,-0.103 0,-0.057 -0.04632,-0.1029 -0.102942,-0.1029 -0.05662,0 -0.102941,0.046 -0.102941,0.1029 0,0.057 0.04632,0.103 0.102941,0.103 z m -7.8170673,-6.3824 0.7141266,0 0,-0.2966 c 0,-0.1632 -0.076569,-0.344 -0.1701533,-0.4019 l -0.1701531,-0.1051 -0.4332521,0.1133 -0.4332519,0.1133 -0.1107215,0.2885 -0.1107214,0.2885 0.7141267,0 z"
         id="path6994" />
      <path
         style="fill:#7c8126"
         d="m 13.484828,1050.1086 c -0.242391,-0.01 -0.903946,-0.1527 -1.470122,-0.3167 l -1.029412,-0.2984 -4.3749999,-0.018 -4.375,-0.018 0.00458,-5.0693 0.00458,-5.0693 0.3606716,-0.4687 0.3606716,-0.4686 0.7156973,-0.1161 0.7156971,-0.1162 0.566112,0.4453 0.5661121,0.4453 0,1.2343 0,1.2342 0.4026731,-0.1278 0.402673,-0.1278 0.8648205,0.2591 0.8648206,0.2591 1.769271,1.7336 c 0.973099,0.9534 2.086516,1.9767 2.474261,2.2739 l 0.704989,0.5404 0.539848,1.1888 0.539848,1.1889 -0.08354,0.7155 -0.08354,0.7156 -0.440711,-0.018 z m -10.8377692,-0.9081 0.2058824,-0.1272 0,-0.8114 0,-0.8114 -0.2058824,0 -0.2058823,0 0,0.9386 0,0.9387 0.2058823,-0.1273 z m 10.7508912,-1.1454 0.14795,0.013 -0.112398,-0.2929 c -0.06182,-0.1611 -0.244205,-0.3435 -0.405303,-0.4053 l -0.292905,-0.1124 0,-0.3771 0,-0.377 -0.247059,-0.2471 c -0.135882,-0.1359 -0.335535,-0.2471 -0.443674,-0.2471 l -0.196615,0 0.372642,0.4118 0.372642,0.4118 -0.315523,0 -0.315524,0 -0.248816,-0.2998 -0.248816,-0.2998 0.102409,-0.1657 0.102409,-0.1657 -0.250947,-0.3432 -0.250946,-0.3432 -0.262765,0.1624 -0.262765,0.1624 0.326086,0.1251 0.326086,0.1251 0,0.2245 0,0.2245 -0.257353,-0.1303 -0.257353,-0.1304 0.371206,0.3033 0.371207,0.3033 -0.268266,0.1075 -0.268265,0.1075 0.269504,0.016 0.269503,0.016 -0.127242,0.2059 -0.127242,0.2058 0.411764,0 0.411765,0 0.136159,0.2203 c 0.07489,0.1212 0.335135,0.3006 0.578327,0.3988 0.243192,0.098 0.508746,0.1842 0.590118,0.1914 z m -5.8611853,-0.6132 c 0.028309,0 0.051471,-0.1767 0.051471,-0.4031 l 0,-0.4118 -0.7720588,0.01 -0.7720589,0.01 0.7205883,0.3946 c 0.3963235,0.2169 0.74375,0.3983 0.7720588,0.4031 z m -4.5398737,-0.3002 c 0.1091201,-0.1132 0.3169878,-0.6228 0.4619282,-1.1324 0.1449401,-0.5095 0.4423331,-1.2777 0.6608727,-1.707 l 0.3973451,-0.7805 0.8530082,-0.8279 0.8530083,-0.8278 0.528179,0.1283 c 0.2904986,0.071 0.8805584,0.3588 1.3112439,0.6406 l 0.7830647,0.5124 0.6266789,0.9677 0.626679,0.9678 -0.1519252,-0.5108 c -0.083559,-0.2809 -0.3408191,-0.7662 -0.5716896,-1.0784 -0.2308705,-0.3123 -0.7609609,-0.8043 -1.1779787,-1.0932 l -0.7582139,-0.5255 -0.7049409,-0.1144 -0.704941,-0.1144 -0.8656218,0.8656 -0.8656221,0.8657 -0.6181019,1.2644 c -0.339956,0.6955 -0.6773378,1.5888 -0.7497375,1.9851 l -0.1316357,0.7206 0.1984003,-0.2059 z m -0.2993406,-1.1324 c 0.125678,-0.283 0.4448774,-0.9894 0.7093321,-1.5696 l 0.4808267,-1.0549 0.8140932,-0.9249 0.8140932,-0.9249 -0.1304969,-0.1305 c -0.071773,-0.072 -0.3235114,-0.1363 -0.5594184,-0.1435 l -0.4289215,-0.013 0.4632353,-0.1862 c 0.2547794,-0.1024 0.4634041,-0.2586 0.4636104,-0.3472 l 3.751e-4,-0.161 -1.1841986,0.02 -1.1841986,0.02 0.9264705,-0.078 c 0.5095589,-0.043 1.0654412,-0.1312 1.2352942,-0.1966 l 0.3088235,-0.119 -0.4117647,-0.1693 -0.4117647,-0.1693 0.3602941,-0.014 0.3602941,-0.014 -5.147e-4,-0.1544 -5.147e-4,-0.1545 -1.4408221,0 -1.440822,0 1.536e-4,0.1545 1.67e-4,0.1544 0.4632353,0.02 0.4632353,0.021 -0.4152165,0.1339 -0.4152165,0.1339 0.00345,0.4092 0.00345,0.4092 0.6176471,0.1326 0.6176471,0.1326 -0.6691177,0.024 -0.6691176,0.024 0.013934,2.625 0.013934,2.625 0.2285056,-0.5147 z m 1.2877437,-5.8048 -0.617647,0.01 0.2534345,-0.1025 c 0.1393892,-0.056 0.4173304,-0.06 0.6176471,-0.01 l 0.3642125,0.095 -0.6176471,0.01 z m 6.3823529,6.0107 c 0.05662,0 0.102941,-0.046 0.102941,-0.1029 0,-0.057 -0.04632,-0.103 -0.102941,-0.103 -0.05662,0 -0.102941,0.046 -0.102941,0.103 0,0.057 0.04632,0.1029 0.102941,0.1029 z m -0.171569,-0.6863 0.137255,-0.1372 -0.137255,-0.1373 -0.137254,-0.1372 0,0.2745 0,0.2745 0.137254,-0.1373 z m -6.8219693,-6.3137 0.7141266,0 0,-0.2966 c 0,-0.1632 -0.076569,-0.344 -0.1701533,-0.4019 l -0.1701531,-0.1051 -0.4332521,0.1133 -0.4332519,0.1133 -0.1107215,0.2885 -0.1107214,0.2885 0.7141267,0 z"
         id="path6992" />
      <path
         style="fill:#61635f"
         d="m 13.484828,1050.1086 c -0.242391,-0.01 -0.903946,-0.1527 -1.470122,-0.3167 l -1.029412,-0.2984 -4.3749999,-0.018 -4.375,-0.018 0.00458,-5.0693 0.00458,-5.0693 0.3606716,-0.4687 0.3606716,-0.4686 0.7156973,-0.1161 0.7156971,-0.1162 0.566112,0.4453 0.5661121,0.4453 0,1.2343 0,1.2342 0.4026731,-0.1278 0.402673,-0.1278 0.8648205,0.2591 0.8648206,0.2591 1.769271,1.7336 c 0.973099,0.9534 2.086516,1.9767 2.474261,2.2739 l 0.704989,0.5404 0.539848,1.1888 0.539848,1.1889 -0.08354,0.7155 -0.08354,0.7156 -0.440711,-0.018 z m -10.8377692,-0.9081 0.2058824,-0.1272 0,-0.8732 0,-0.8731 0.171175,-0.1956 c 0.094146,-0.1076 0.2897626,-0.6125 0.434703,-1.1221 0.1449401,-0.5095 0.4423331,-1.2777 0.6608727,-1.707 l 0.3973451,-0.7805 0.8530082,-0.8279 0.8530083,-0.8278 0.528179,0.1283 c 0.2904986,0.071 0.8805584,0.3588 1.3112439,0.6406 l 0.7830647,0.5124 0.6266789,0.9677 0.626679,0.9678 -0.1519252,-0.5108 c -0.083559,-0.2809 -0.3408191,-0.7662 -0.5716896,-1.0784 -0.2308705,-0.3123 -0.7528673,-0.7986 -1.1599928,-1.0808 l -0.740228,-0.513 -0.6530633,-0.1306 -0.6530634,-0.1306 -0.5771154,0.4493 -0.5771154,0.4492 -0.7529888,1.1108 -0.7529885,1.1108 -0.3388783,1.0885 c -0.1863829,0.5987 -0.4265821,1.2494 -0.5337759,1.446 l -0.1948979,0.3575 0,0.8385 0,0.8385 0.2058823,-0.1273 z m 10.8855892,-1.0375 c 0.04507,-0.045 -0.09017,-0.3397 -0.300545,-0.6546 -0.210373,-0.3149 -0.366467,-0.6284 -0.346875,-0.6965 0.01959,-0.068 -0.458212,-0.5503 -1.061786,-1.0714 l -1.097406,-0.9474 -0.103754,0.1038 -0.103753,0.1037 0.243181,0.9676 0.243182,0.9676 1.222902,0.6546 c 0.672597,0.36 1.259781,0.6176 1.304854,0.5726 z m -1.28685,-1.3301 c -0.04275,0 -0.204886,-0.1622 -0.360295,-0.3603 l -0.282562,-0.3603 0.360294,0.2825 c 0.198162,0.1555 0.360294,0.3176 0.360294,0.3603 0,0.043 -0.03498,0.078 -0.07773,0.078 z m -1.054622,-0.8236 c -0.05662,0 -0.102941,-0.046 -0.102941,-0.1029 0,-0.057 0.04632,-0.1029 0.102941,-0.1029 0.05662,0 0.102942,0.046 0.102942,0.1029 0,0.057 -0.04632,0.1029 -0.102942,0.1029 z m -0.411764,-0.8235 c -0.05662,0 -0.102941,-0.046 -0.102941,-0.1029 0,-0.057 0.04632,-0.103 0.102941,-0.103 0.05662,0 0.102941,0.046 0.102941,0.103 0,0.057 -0.04632,0.1029 -0.102941,0.1029 z m -3.2426473,2.2561 c 0.028309,0 0.051471,-0.1767 0.051471,-0.4031 l 0,-0.4118 -0.7720588,0.01 -0.7720589,0.01 0.7205883,0.3946 c 0.3963235,0.2169 0.74375,0.3983 0.7720588,0.4031 z m -4.8392143,-1.4326 c 0.125678,-0.283 0.4448774,-0.9894 0.7093321,-1.5696 l 0.4808267,-1.0549 0.8140932,-0.9249 0.8140932,-0.9249 -0.1304969,-0.1305 c -0.071773,-0.072 -0.3235114,-0.1363 -0.5594184,-0.1435 l -0.4289215,-0.013 0.4632353,-0.1862 c 0.2547794,-0.1024 0.4634041,-0.2586 0.4636104,-0.3472 l 3.751e-4,-0.161 -1.1841986,0.02 -1.1841986,0.02 0.9264705,-0.078 c 0.5095589,-0.043 1.0654412,-0.1312 1.2352942,-0.1966 l 0.3088235,-0.119 -0.4117647,-0.1693 -0.4117647,-0.1693 0.3602941,-0.014 0.3602941,-0.014 -5.147e-4,-0.1544 -5.147e-4,-0.1545 -1.4408221,0 -1.440822,0 1.536e-4,0.1545 1.67e-4,0.1544 0.4632353,0.02 0.4632353,0.021 -0.4152165,0.1339 -0.4152165,0.1339 0.00345,0.4092 0.00345,0.4092 0.6176471,0.1326 0.6176471,0.1326 -0.6691177,0.024 -0.6691176,0.024 0.013934,2.625 0.013934,2.625 0.2285056,-0.5147 z m 1.2877437,-5.8048 -0.617647,0.01 0.2534345,-0.1025 c 0.1393892,-0.056 0.4173304,-0.06 0.6176471,-0.01 l 0.3642125,0.095 -0.6176471,0.01 z m 6.3823529,6.0107 c 0.05662,0 0.102941,-0.046 0.102941,-0.1029 0,-0.057 -0.04632,-0.103 -0.102941,-0.103 -0.05662,0 -0.102941,0.046 -0.102941,0.103 0,0.057 0.04632,0.1029 0.102941,0.1029 z m -0.171569,-0.6863 0.137255,-0.1372 -0.137255,-0.1373 -0.137254,-0.1372 0,0.2745 0,0.2745 0.137254,-0.1373 z m -6.8219693,-6.3137 0.7141266,0 0,-0.2966 c 0,-0.1632 -0.076569,-0.344 -0.1701533,-0.4019 l -0.1701531,-0.1051 -0.4332521,0.1133 -0.4332519,0.1133 -0.1107215,0.2885 -0.1107214,0.2885 0.7141267,0 z"
         id="path6990" />
      <path
         style="fill:#a86b00"
         d="m 13.713235,1050.1042 c -0.141544,-0.013 -0.765411,-0.1463 -1.386371,-0.2973 l -1.129019,-0.2747 -4.1724519,-0.1448 -4.1724519,-0.1449 0,-0.9577 0,-0.9578 0.171175,-0.1956 c 0.094146,-0.1076 0.2897626,-0.6125 0.434703,-1.1221 0.1449401,-0.5095 0.4423331,-1.2777 0.6608727,-1.707 l 0.3973451,-0.7805 0.8530082,-0.8279 0.8530083,-0.8278 0.528179,0.1283 c 0.2904986,0.071 0.8805584,0.3588 1.3112439,0.6406 l 0.7830647,0.5124 0.6266789,0.9677 0.626679,0.9678 -0.1519252,-0.5108 c -0.083559,-0.2809 -0.3408191,-0.7662 -0.5716896,-1.0784 -0.2308705,-0.3123 -0.7528673,-0.7986 -1.1599928,-1.0808 l -0.740228,-0.513 -0.6530633,-0.1306 -0.6530634,-0.1306 -0.5771154,0.4493 -0.5771154,0.4492 -0.7529888,1.1108 -0.7529885,1.1108 -0.3425949,1.0885 c -0.1884271,0.5987 -0.4261374,1.2738 -0.528245,1.5003 -0.1021077,0.2264 -0.2188885,0.7823 -0.259513,1.2353 -0.040624,0.4529 -0.069447,-1.4464 -0.06405,-4.2206 l 0.00981,-5.0441 0.1099896,3.8088 0.1099895,3.8088 0.2782197,-0.923 c 0.1530209,-0.5077 0.4965959,-1.354 0.7635002,-1.8807 l 0.4852803,-0.9576 0.6776764,-0.7182 0.6776764,-0.7181 -0.070525,-1.1586 -0.070525,-1.1585 -0.2704946,0 -0.2704946,0 0.1076789,-0.4118 0.1076789,-0.4117 -0.2642084,0 -0.2642084,0 0.1359927,-0.136 0.1359925,-0.136 0.413027,0.3738 0.413027,0.3738 0,1.2033 0,1.2034 0.7720588,0.01 0.7720588,0.01 0.5508689,0.2481 0.5508689,0.248 2.3974128,2.2647 2.397412,2.2647 0.500248,0.9711 0.500248,0.9711 0,0.8304 0,0.8304 -0.257353,-0.023 z m -0.194112,-1.9277 c 0.03763,-0.038 -0.118293,-0.4248 -0.346505,-0.8604 l -0.414931,-0.7921 -1.143549,-0.9908 c -0.628953,-0.5449 -1.141763,-0.9155 -1.139578,-0.8235 0.0022,0.092 0.122402,0.6305 0.267151,1.1967 l 0.263181,1.0294 1.222902,0.6546 c 0.672597,0.36 1.253694,0.6237 1.291329,0.5861 z m -5.9823583,-0.7346 c 0.028309,0 0.051471,-0.1767 0.051471,-0.4031 l 0,-0.4118 -0.7720588,0.01 -0.7720589,0.01 0.7205883,0.3946 c 0.3963235,0.2169 0.74375,0.3983 0.7720588,0.4031 z m 2.8308823,-1.2267 c 0.05662,0 0.102941,-0.046 0.102941,-0.1029 0,-0.057 -0.04632,-0.103 -0.102941,-0.103 -0.05662,0 -0.102941,0.046 -0.102941,0.103 0,0.057 0.04632,0.1029 0.102941,0.1029 z m -0.171569,-0.6863 0.137255,-0.1372 -0.137255,-0.1373 -0.137254,-0.1372 0,0.2745 0,0.2745 0.137254,-0.1373 z m -7.5490192,-6.4166 c -0.1132353,0.07 -0.2058823,0.081 -0.2058823,0.024 0,-0.057 0.092647,-0.1602 0.2058823,-0.2302 0.1132353,-0.07 0.2058824,-0.081 0.2058824,-0.024 0,0.057 -0.092647,0.1602 -0.2058824,0.2302 z m 0.9264706,-0.6404 -0.617647,0.1382 0.3088235,-0.209 c 0.1698529,-0.1149 0.486397,-0.2104 0.7034314,-0.2121 0.2170342,0 0.3560048,0.03 0.3088236,0.071 -0.047181,0.041 -0.3637256,0.1361 -0.7034315,0.2121 z"
         id="path6988" />
      <path
         style="fill:#d70f00"
         d="m 13.713235,1050.1025 c -0.141544,-0.013 -0.720588,-0.1435 -1.286764,-0.289 L 11.397059,1049.5489 9.75,1049.505 c -0.9058824,-0.024 -2.2492647,-0.1115 -2.9852941,-0.1942 l -1.3382353,-0.1504 1.0808823,-0.031 1.0808824,-0.031 0,-0.6142 0,-0.6142 -1.0225674,-0.5182 c -0.5624121,-0.285 -1.071971,-0.5181 -1.132353,-0.5181 -0.060382,0 -0.1097855,0.5559 -0.1097855,1.2353 l 0,1.2353 -1.2352941,0 -1.2352941,0 0,-0.9144 0,-0.9143 0.1825429,-0.1128 c 0.1003985,-0.062 0.2442722,-0.4419 0.319719,-0.844 0.075447,-0.4022 0.3110848,-1.137 0.5236395,-1.6328 l 0.3864635,-0.9016 0.7687072,-0.8509 c 0.4227891,-0.4679 0.9228113,-0.9333 1.1111605,-1.0341 l 0.3424531,-0.1833 1.0376339,0.4808 1.0376339,0.4807 0.523363,0.6913 c 0.2878495,0.3802 0.6712469,1.0155 0.8519941,1.4118 l 0.3286312,0.7206 -0.116561,-0.6176 -0.116562,-0.6177 -0.5123786,-0.783 -0.5123788,-0.7831 -0.9565736,-0.6066 -0.9565739,-0.6067 -0.5773394,0 -0.5773392,0 -0.8164981,0.8165 -0.8164982,0.8165 -0.4936303,0.985 c -0.2714968,0.5417 -0.6053806,1.3555 -0.7419638,1.8085 -0.1365834,0.4529 -0.3320366,1.0088 -0.4343405,1.2353 -0.102304,0.2264 -0.2192454,0.7823 -0.2598699,1.2353 -0.040624,0.4529 -0.069447,-1.4464 -0.06405,-4.2206 l 0.00981,-5.0441 0.1099896,3.8088 0.1099895,3.8088 0.2782197,-0.923 c 0.1530209,-0.5077 0.4965959,-1.354 0.7635002,-1.8807 l 0.4852803,-0.9576 0.6776764,-0.7182 0.6776764,-0.7181 -0.070525,-1.1586 -0.070525,-1.1585 -0.2704946,0 -0.2704946,0 0.1076789,-0.4118 0.1076789,-0.4117 -0.2642084,0 -0.2642084,0 0.1359927,-0.136 0.1359925,-0.136 0.413027,0.3738 0.413027,0.3738 0,1.2033 0,1.2034 0.7720588,0.01 0.7720588,0.01 0.5508689,0.2481 0.5508689,0.248 2.3974128,2.2647 2.397412,2.2647 0.500248,0.9711 0.500248,0.9711 0,0.8304 0,0.8304 -0.257353,-0.024 z m -0.194112,-1.926 c 0.03763,-0.038 -0.118293,-0.4248 -0.346505,-0.8604 l -0.414931,-0.7921 -1.143549,-0.9908 c -0.628953,-0.5449 -1.141763,-0.9155 -1.139578,-0.8235 0.0022,0.092 0.122402,0.6305 0.267151,1.1967 l 0.263181,1.0294 1.222902,0.6546 c 0.672597,0.36 1.253694,0.6237 1.291329,0.5861 z m -6.0852995,-0.7346 0.1544118,0.01 0,-0.4117 0,-0.4118 -0.875,0.01 -0.875,0.01 0.7205882,0.3946 c 0.3963236,0.2169 0.7900736,0.3983 0.875,0.4031 z m 3.1397055,-0.609 c 0.05662,0 0.102942,-0.046 0.102942,-0.103 0,-0.057 -0.04632,-0.1029 -0.102942,-0.1029 -0.05662,0 -0.102941,0.046 -0.102941,0.1029 0,0.057 0.04632,0.103 0.102941,0.103 z m -0.168182,-0.5791 0.108133,-0.2702 -0.124387,-0.1244 -0.124387,-0.1244 0.01625,0.3946 0.01625,0.3946 0.108133,-0.2702 z m -7.7582882,-7.1415 c -0.1132353,0.07 -0.2058823,0.081 -0.2058823,0.024 0,-0.057 0.092647,-0.1602 0.2058823,-0.2302 0.1132353,-0.07 0.2058824,-0.081 0.2058824,-0.024 0,0.057 -0.092647,0.1602 -0.2058824,0.2302 z m 0.9264706,-0.6404 -0.617647,0.1382 0.3088235,-0.209 c 0.1698529,-0.1149 0.486397,-0.2104 0.7034314,-0.2121 0.2170342,0 0.3560048,0.03 0.3088236,0.071 -0.047181,0.041 -0.3637256,0.1361 -0.7034315,0.2121 z"
         id="path6986" />
      <path
         style="fill:#65560d"
         d="m 13.713235,1050.1025 c -0.141544,-0.013 -0.720588,-0.1435 -1.286764,-0.289 L 11.397059,1049.5489 9.75,1049.505 c -0.9058824,-0.024 -2.2492647,-0.1115 -2.9852941,-0.1942 l -1.3382353,-0.1504 1.0808823,-0.031 1.0808824,-0.031 0,-0.6142 0,-0.6142 -1.0225674,-0.5182 c -0.5624121,-0.285 -1.071971,-0.5181 -1.132353,-0.5181 -0.060382,0 -0.1097855,0.5559 -0.1097855,1.2353 l 0,1.2353 -1.2352941,0 -1.2352941,0 0,-0.9144 0,-0.9143 0.1825429,-0.1128 c 0.1003985,-0.062 0.2442722,-0.4419 0.319719,-0.844 0.075447,-0.4022 0.3110848,-1.137 0.5236395,-1.6328 l 0.3864635,-0.9016 0.7687072,-0.8509 c 0.4227891,-0.4679 0.9228113,-0.9333 1.1111605,-1.0341 l 0.3424531,-0.1833 1.0376339,0.4808 1.0376339,0.4807 0.523363,0.6913 c 0.2878495,0.3802 0.6712469,1.0155 0.8519941,1.4118 l 0.3286312,0.7206 -0.116561,-0.6176 -0.116562,-0.6177 -0.5123786,-0.783 -0.5123788,-0.7831 -0.9565736,-0.6066 -0.9565739,-0.6067 -0.5773394,0 -0.5773392,0 -0.8164981,0.8165 -0.8164982,0.8165 -0.4936303,0.985 c -0.2714968,0.5417 -0.6053806,1.3555 -0.7419638,1.8085 -0.1365834,0.4529 -0.3320366,1.0088 -0.4343405,1.2353 -0.102304,0.2264 -0.2192454,0.7823 -0.2598699,1.2353 -0.040624,0.4529 -0.069447,-1.4464 -0.06405,-4.2206 l 0.00981,-5.0441 0.1099896,3.8088 0.1099895,3.8088 0.2782197,-0.923 c 0.1530209,-0.5077 0.4965959,-1.354 0.7635002,-1.8807 l 0.4852803,-0.9576 0.6776764,-0.7182 0.6776764,-0.7181 -0.070525,-1.1586 -0.070525,-1.1585 -0.2704946,0 -0.2704946,0 0.1076789,-0.4118 0.1076789,-0.4117 -0.2642084,0 -0.2642084,0 0.1359927,-0.136 0.1359925,-0.136 0.413027,0.3738 0.413027,0.3738 0,1.2033 0,1.2034 0.7720588,0.01 0.7720588,0.01 0.5508689,0.2481 0.5508689,0.248 2.3974128,2.2647 2.397412,2.2647 0.500248,0.9711 0.500248,0.9711 0,0.8304 0,0.8304 -0.257353,-0.024 z m -4.547049,-0.8402 1.166186,-0.062 0.05986,-0.9779 0.05986,-0.978 -0.196637,0 -0.196637,0 0,-0.404 c 0,-0.2222 -0.1846986,-0.8977 -0.4104405,-1.501 l -0.4104401,-1.097 -0.7733835,-0.7515 -0.7733834,-0.7514 -0.5912194,-0.2225 -0.5912192,-0.2226 -0.3253738,0.2618 c -0.1789556,0.144 -0.5786181,0.5397 -0.888139,0.8794 -0.3095208,0.3397 -0.7711334,1.0326 -1.0258059,1.5398 -0.2546724,0.5072 -0.5921531,1.4336 -0.749957,2.0588 -0.1578038,0.6252 -0.3368043,1.3452 -0.3977787,1.5999 l -0.1108623,0.4633 1.0534129,0 1.053413,0 0,-1.4412 0,-1.4412 1.4411764,0 1.4411765,0 0,1.5544 0,1.5544 1.166186,-0.062 z m -2.6416763,-5.3118 -0.5833332,0 0,-0.174 c 0,-0.096 0.1702562,-0.328 0.3783471,-0.5163 l 0.3783471,-0.3424 0.3426904,0.3786 0.3426903,0.3787 -0.1377042,0.1377 c -0.075737,0.076 -0.400204,0.1377 -0.7210375,0.1377 z m 5.0784313,5.1471 c 0.05662,0 0.102941,-0.046 0.102941,-0.103 0,-0.057 -0.04632,-0.1029 -0.102941,-0.1029 -0.05662,0 -0.102941,0.046 -0.102941,0.1029 0,0.057 0.04632,0.103 0.102941,0.103 z m 1.544118,0 0.27451,0 -0.137255,-0.1373 -0.137255,-0.1372 -0.137255,0.1372 -0.137255,0.1373 0.27451,0 z m -2.058824,-0.2059 0.27451,0 -0.137255,-0.1373 -0.137255,-0.1372 -0.137255,0.1372 -0.137254,0.1373 0.274509,0 z m 1.544118,-0.024 c 0.113235,0 -0.243252,-0.2288 -0.792194,-0.5144 l -0.998076,-0.5193 -0.112817,0.1128 -0.112816,0.1129 0.90501,0.4015 c 0.497756,0.2208 0.997658,0.4037 1.110893,0.4065 z m 0.88677,-0.6911 c 0.03763,-0.038 -0.118293,-0.4248 -0.346505,-0.8604 l -0.414931,-0.7921 -1.143549,-0.9908 c -0.628953,-0.5449 -1.141763,-0.9155 -1.139578,-0.8235 0.0022,0.092 0.122402,0.6305 0.267151,1.1967 l 0.263181,1.0294 1.222902,0.6546 c 0.672597,0.36 1.253694,0.6237 1.291329,0.5861 z m -6.0852995,-0.7346 0.1544118,0.01 0,-0.4117 0,-0.4118 -0.875,0.01 -0.875,0.01 0.7205882,0.3946 c 0.3963236,0.2169 0.7900736,0.3983 0.875,0.4031 z m 3.1397055,-0.609 c 0.05662,0 0.102942,-0.046 0.102942,-0.103 0,-0.057 -0.04632,-0.1029 -0.102942,-0.1029 -0.05662,0 -0.102941,0.046 -0.102941,0.1029 0,0.057 0.04632,0.103 0.102941,0.103 z m -0.168182,-0.5791 0.108133,-0.2702 -0.124387,-0.1244 -0.124387,-0.1244 0.01625,0.3946 0.01625,0.3946 0.108133,-0.2702 z m -7.7582882,-7.1415 c -0.1132353,0.07 -0.2058823,0.081 -0.2058823,0.024 0,-0.057 0.092647,-0.1602 0.2058823,-0.2302 0.1132353,-0.07 0.2058824,-0.081 0.2058824,-0.024 0,0.057 -0.092647,0.1602 -0.2058824,0.2302 z m 0.9264706,-0.6404 -0.617647,0.1382 0.3088235,-0.209 c 0.1698529,-0.1149 0.486397,-0.2104 0.7034314,-0.2121 0.2170342,0 0.3560048,0.03 0.3088236,0.071 -0.047181,0.041 -0.3637256,0.1361 -0.7034315,0.2121 z"
         id="path6984" />
      <path
         style="fill:#9f0a00"
         d="m 13.713235,1050.1025 c -0.141544,-0.013 -0.720588,-0.1435 -1.286764,-0.289 L 11.397059,1049.5489 9.75,1049.505 c -0.9058824,-0.024 -2.2492647,-0.1115 -2.9852941,-0.1942 l -1.3382353,-0.1504 1.0808823,-0.031 1.0808824,-0.031 0,-0.6001 0,-0.6 -0.9524021,-0.5323 c -0.5238211,-0.2928 -1.0333799,-0.5323 -1.1323529,-0.5323 l -0.1799509,0 0,1.2353 0,1.2353 -1.2352941,0 -1.2352941,0 0,-0.9094 0,-0.9093 0.1544566,-0.069 c 0.084951,-0.038 0.3649461,-0.7172 0.6222109,-1.5098 l 0.4677544,-1.4412 0.5616125,-0.8038 c 0.3088869,-0.4421 0.8131187,-0.9904 1.1205153,-1.2186 l 0.5589024,-0.4148 0.8051021,0.2413 0.8051024,0.2412 0.820975,0.8906 0.8209752,0.8907 0.3530557,1.1161 c 0.1941803,0.6139 0.4049423,1.2551 0.4683593,1.425 l 0.115304,0.3088 0.157021,-0.5147 0.15702,-0.5147 0.02052,0.4603 0.02052,0.4602 1.263868,0.638 1.263868,0.638 0.148657,-0.2405 0.148657,-0.2405 0.131593,0.3429 c 0.07238,0.1886 0.131592,0.7059 0.131592,1.1496 l 0,0.8067 -0.257353,-0.024 z m -4.547049,-0.8402 1.166186,-0.062 0.05986,-0.9779 0.05986,-0.978 -0.196637,0 -0.196637,0 0,-0.404 c 0,-0.2222 -0.1846986,-0.8977 -0.4104405,-1.501 l -0.4104401,-1.097 -0.7733835,-0.7515 -0.7733834,-0.7514 -0.5912194,-0.2225 -0.5912192,-0.2226 -0.3253738,0.2618 c -0.1789556,0.144 -0.5786181,0.5397 -0.888139,0.8794 -0.3095208,0.3397 -0.7711334,1.0326 -1.0258059,1.5398 -0.2546724,0.5072 -0.5921531,1.4336 -0.749957,2.0588 -0.1578038,0.6252 -0.3368043,1.3452 -0.3977787,1.5999 l -0.1108623,0.4633 1.0534129,0 1.053413,0 0,-1.4412 0,-1.4412 1.4411764,0 1.4411765,0 0,1.5544 0,1.5544 1.166186,-0.062 z m -2.6416763,-5.3118 -0.5833332,0 0,-0.174 c 0,-0.096 0.1702562,-0.328 0.3783471,-0.5163 l 0.3783471,-0.3424 0.3426904,0.3786 0.3426903,0.3787 -0.1377042,0.1377 c -0.075737,0.076 -0.400204,0.1377 -0.7210375,0.1377 z m 5.0784313,5.1471 c 0.05662,0 0.102941,-0.046 0.102941,-0.103 0,-0.057 -0.04632,-0.1029 -0.102941,-0.1029 -0.05662,0 -0.102941,0.046 -0.102941,0.1029 0,0.057 0.04632,0.103 0.102941,0.103 z m 1.544118,0 0.27451,0 -0.137255,-0.1373 -0.137255,-0.1372 -0.137255,0.1372 -0.137255,0.1373 0.27451,0 z m -2.058824,-0.2059 0.27451,0 -0.137255,-0.1373 -0.137255,-0.1372 -0.137255,0.1372 -0.137254,0.1373 0.274509,0 z m 1.544118,-0.024 c 0.113235,0 -0.243252,-0.2288 -0.792194,-0.5144 l -0.998076,-0.5193 -0.112817,0.1128 -0.112816,0.1129 0.90501,0.4015 c 0.497756,0.2208 0.997658,0.4037 1.110893,0.4065 z m -5.0050585,-1.3383 c 0.091753,-0.057 0.1668231,-0.2858 0.1668231,-0.5092 l 0,-0.406 -0.2871727,-0.1102 c -0.1579449,-0.061 -0.644342,-0.081 -1.0808823,-0.045 l -0.7937097,0.065 0.9140592,0.5542 0.9140594,0.5542 0.166823,-0.1031 z m -5.2073195,0.7447 -0.1241427,1.1324 0.012276,-5.0441 0.012276,-5.0441 0.1118669,3.9117 0.1118669,3.9118 -0.1241426,1.1323 z m 11.035907,-0.6176 c -0.05662,0 -0.102941,-0.046 -0.102941,-0.1029 0,-0.057 0.04632,-0.103 0.102941,-0.103 0.05662,0 0.102942,0.046 0.102942,0.103 0,0.057 -0.04632,0.1029 -0.102942,0.1029 z M 13.25,1047.2446 c -0.05662,0 -0.102941,-0.046 -0.102941,-0.1029 0,-0.057 0.04632,-0.1029 0.102941,-0.1029 0.05662,0 0.102941,0.046 0.102941,0.1029 0,0.057 -0.04632,0.1029 -0.102941,0.1029 z m -0.205882,-0.4117 c -0.05662,0 -0.102942,-0.046 -0.102942,-0.103 0,-0.057 0.04632,-0.1029 0.102942,-0.1029 0.05662,0 0.102941,0.046 0.102941,0.1029 0,0.057 -0.04632,0.103 -0.102941,0.103 z m -0.325495,-0.4118 c -0.05359,0 -0.396033,-0.2727 -0.760975,-0.606 -0.364942,-0.3334 -0.66353,-0.6576 -0.66353,-0.7206 0,-0.063 0.02815,-0.1146 0.06255,-0.1146 0.0344,0 0.376844,0.3243 0.760976,0.7206 0.384132,0.3963 0.654571,0.7206 0.600976,0.7206 z m -9.7284269,-0.4804 -0.1372549,0.1373 0,-0.2745 0,-0.2746 0.1372549,0.1373 0.1372548,0.1373 -0.1372548,0.1372 z m 7.6176469,0 -0.137255,0.1373 0,-0.2745 0,-0.2746 0.137255,0.1373 0.137255,0.1373 -0.137255,0.1372 z m -6.8941077,-1.633 c -0.3541664,0.6528 -0.6464078,1.1138 -0.6494254,1.0243 -0.00302,-0.089 0.1863894,-0.5387 0.4209044,-0.9984 0.2345148,-0.4597 0.7714711,-1.2203 1.1932361,-1.6903 l 0.7668452,-0.8545 -0.079937,-1.1839 -0.079937,-1.1838 -0.2704946,0 -0.2704946,0 0.1076789,-0.4118 0.1076789,-0.4117 -0.2642084,0 -0.2642084,0 0.1359927,-0.136 0.1359925,-0.136 0.413027,0.3738 0.413027,0.3738 0,1.2033 0,1.2034 0.3042235,0 0.3042235,0 -0.8900922,0.8205 -0.8900922,0.8204 -0.6439391,1.1869 z m 6.7088197,1.084 c -0.05097,0 -0.199873,-0.3578 -0.330898,-0.7951 l -0.2382254,-0.7952 -1.0208368,-0.9548 -1.0208367,-0.9549 -0.2490164,0 -0.2490161,0 0.1326411,-0.1326 0.1326412,-0.1327 0.6737314,0.4817 c 0.3705522,0.265 1.1369666,0.9945 1.7031431,1.6212 0.5661766,0.6266 0.8614536,1.0092 0.6561716,0.8502 l -0.373241,-0.2891 0.138207,0.5506 c 0.07601,0.3029 0.09651,0.5507 0.04553,0.5507 z m -3.4519668,-3.7059 -0.2745097,0 0.1372548,-0.1372 0.1372549,-0.1373 0.137255,0.1373 0.1372548,0.1372 -0.2745098,0 z m -4.3235294,-2.5735 c -0.1132353,0.07 -0.2058823,0.081 -0.2058823,0.024 0,-0.057 0.092647,-0.1602 0.2058823,-0.2302 0.1132353,-0.07 0.2058824,-0.081 0.2058824,-0.024 0,0.057 -0.092647,0.1602 -0.2058824,0.2302 z m 0.9264706,-0.6404 -0.617647,0.1382 0.3088235,-0.209 c 0.1698529,-0.1149 0.486397,-0.2104 0.7034314,-0.2121 0.2170342,0 0.3560048,0.03 0.3088236,0.071 -0.047181,0.041 -0.3637256,0.1361 -0.7034315,0.2121 z"
         id="path6982" />
      <path
         style="fill:#5c1401"
         d="m 13.713235,1050.1025 c -0.141544,-0.013 -0.703746,-0.1306 -1.249338,-0.2604 l -0.991985,-0.236 0.10313,-0.1032 0.103129,-0.1031 -1.478791,0.062 -1.4787918,0.062 -1.6470588,-0.1859 -1.6470588,-0.1859 1.0808823,-0.027 1.0808824,-0.027 0,-0.6001 0,-0.6 -0.9524021,-0.5323 c -0.5238211,-0.2928 -1.028959,-0.5323 -1.1225288,-0.5323 l -0.1701266,0 -0.073096,1.2867 -0.073096,1.2868 -0.039669,-1.4926 -0.039669,-1.4927 0.1987324,0 c 0.1093028,0 0.6324142,0.275 1.1624699,0.6112 l 0.9637375,0.6112 0.1951532,-0.1206 0.1951532,-0.1206 -0.092588,-0.4844 -0.092588,-0.4843 0.1898622,0.1173 0.1898625,0.1173 -0.052407,1.2662 -0.052407,1.2661 1.2739802,0.061 1.2739801,0.061 0,-0.8428 0,-0.8427 -0.5401195,-1.6685 -0.5401195,-1.6685 -0.8731514,-0.8731 -0.8731512,-0.8732 -0.6715281,-0.1475 -0.6715281,-0.1475 -0.687103,0.6912 -0.6871027,0.6912 -0.6375773,1.1323 -0.637577,1.1324 0.1416421,-0.5147 c 0.077903,-0.2831 0.3692796,-0.9068 0.6475031,-1.3861 l 0.5058609,-0.8714 0.6160077,-0.5183 0.6160078,-0.5183 0.2996397,0 c 0.1648018,0 0.5977671,0.1248 0.9621449,0.2773 l 0.6625049,0.2774 0.7462045,0.827 0.7462043,0.8269 0.3506547,1.1089 c 0.1928602,0.6099 0.4025412,1.2479 0.4659582,1.4178 l 0.115304,0.3088 0.157021,-0.5147 0.15702,-0.5147 0.02052,0.4603 0.02052,0.4602 1.263868,0.638 1.263868,0.638 0.148657,-0.2405 0.148657,-0.2405 0.131593,0.3429 c 0.07238,0.1886 0.131592,0.7059 0.131592,1.1496 l 0,0.8067 -0.257353,-0.024 z m -0.875,-0.5932 c 0.05662,0 0.102941,-0.046 0.102941,-0.1029 0,-0.057 -0.04632,-0.1029 -0.102941,-0.1029 -0.05662,0 -0.102941,0.046 -0.102941,0.1029 0,0.057 0.04632,0.1029 0.102941,0.1029 z m -1.955882,-0.2058 0.27451,0 -0.137255,-0.1373 -0.137255,-0.1373 -0.137255,0.1373 -0.137255,0.1373 0.27451,0 z m 1.441176,-0.036 0.308824,0.01 -0.823529,-0.3812 c -0.452942,-0.2097 -0.893015,-0.3881 -0.977942,-0.3965 -0.08493,-0.01 -0.154411,0.064 -0.154411,0.1608 l 0,0.1761 0.669117,0.2147 c 0.368015,0.118 0.808088,0.2172 0.977941,0.2204 z m 1.286765,0.023 c 0.08493,0.01 0.154412,-0.032 0.154412,-0.088 0,-0.056 -0.615021,-0.3798 -1.366712,-0.7206 -0.751692,-0.3409 -1.446545,-0.6197 -1.544118,-0.6197 -0.09757,0 -0.177405,0.07 -0.177405,0.156 l 0,0.156 1.389705,0.5516 c 0.764339,0.3034 1.459192,0.5575 1.544118,0.5646 z m -0.154412,-0.6047 c 0.05662,0 0.102942,-0.046 0.102942,-0.1029 0,-0.057 -0.04632,-0.103 -0.102942,-0.103 -0.05662,0 -0.102941,0.046 -0.102941,0.103 0,0.057 0.04632,0.1029 0.102941,0.1029 z m -0.411764,-0.2304 c 0.113235,0 -0.06556,-0.1389 -0.397327,-0.3185 -0.331766,-0.1796 -0.933971,-0.4636 -1.338236,-0.6311 -0.404264,-0.1674 -0.669544,-0.2369 -0.58951,-0.1544 0.08003,0.082 0.589592,0.3628 1.132353,0.623 0.54276,0.2602 1.079484,0.4767 1.19272,0.481 z m -10.624143,-0.1814 -0.1241427,1.1324 0.012276,-5.0441 0.012276,-5.0441 0.1118669,3.9117 0.1118669,3.9118 -0.1241426,1.1323 z m 0.7630561,-0.091 -0.2957846,1.223 -0.017153,-0.9779 -0.017153,-0.978 0.2058823,0 0.2058824,0 0.016254,-0.4632 0.016254,-0.4633 0.090801,0.2183 0.090801,0.2182 -0.2957848,1.2229 z m 10.2728509,-0.527 c -0.05662,0 -0.102941,-0.046 -0.102941,-0.1029 0,-0.057 0.04632,-0.103 0.102941,-0.103 0.05662,0 0.102942,0.046 0.102942,0.103 0,0.057 -0.04632,0.1029 -0.102942,0.1029 z M 13.25,1047.2446 c -0.05662,0 -0.102941,-0.046 -0.102941,-0.1029 0,-0.057 0.04632,-0.1029 0.102941,-0.1029 0.05662,0 0.102941,0.046 0.102941,0.1029 0,0.057 -0.04632,0.1029 -0.102941,0.1029 z m -0.205882,-0.4117 c -0.05662,0 -0.102942,-0.046 -0.102942,-0.103 0,-0.057 0.04632,-0.1029 0.102942,-0.1029 0.05662,0 0.102941,0.046 0.102941,0.1029 0,0.057 -0.04632,0.103 -0.102941,0.103 z m -9.4362748,-0.4804 -0.137255,0.1372 0,-0.2745 0,-0.2745 0.137255,0.1373 0.1372548,0.1372 -0.1372548,0.1373 z m 9.1107798,0.069 c -0.05359,0 -0.396033,-0.2727 -0.760975,-0.606 -0.364942,-0.3334 -0.66353,-0.6576 -0.66353,-0.7206 0,-0.063 0.02815,-0.1146 0.06255,-0.1146 0.0344,0 0.376844,0.3243 0.760976,0.7206 0.384132,0.3963 0.654571,0.7206 0.600976,0.7206 z m -9.7284269,-0.4804 -0.1372549,0.1373 0,-0.2745 0,-0.2746 0.1372549,0.1373 0.1372548,0.1373 -0.1372548,0.1372 z m 7.6176469,0 -0.137255,0.1373 0,-0.2745 0,-0.2746 0.137255,0.1373 0.137255,0.1373 -0.137255,0.1372 z m -6.8941077,-1.633 c -0.3541664,0.6528 -0.6464078,1.1138 -0.6494254,1.0243 -0.00302,-0.089 0.1863894,-0.5387 0.4209044,-0.9984 0.2345148,-0.4597 0.7714711,-1.2203 1.1932361,-1.6903 l 0.7668452,-0.8545 -0.079937,-1.1839 -0.079937,-1.1838 -0.2704946,0 -0.2704946,0 0.1076789,-0.4118 0.1076789,-0.4117 -0.2642084,0 -0.2642084,0 0.1359927,-0.136 0.1359925,-0.136 0.413027,0.3738 0.413027,0.3738 0,1.2033 0,1.2034 0.3042235,0 0.3042235,0 -0.8900922,0.8205 -0.8900922,0.8204 -0.6439391,1.1869 z m 6.7088197,1.084 c -0.05097,0 -0.199873,-0.3578 -0.330898,-0.7951 l -0.2382254,-0.7952 -1.0208368,-0.9548 -1.0208367,-0.9549 -0.2490164,0 -0.2490161,0 0.1326411,-0.1326 0.1326412,-0.1327 0.6737314,0.4817 c 0.3705522,0.265 1.1369666,0.9945 1.7031431,1.6212 0.5661766,0.6266 0.8614536,1.0092 0.6561716,0.8502 l -0.373241,-0.2891 0.138207,0.5506 c 0.07601,0.3029 0.09651,0.5507 0.04553,0.5507 z m -3.735581,-1.6471 -0.5399152,0 0,-0.1838 c 0,-0.1011 0.1321969,-0.2346 0.2937709,-0.2966 l 0.2937708,-0.1127 0.2461443,0.2965 0.2461441,0.2966 -0.5399149,0 z m -0.025209,-0.2058 c 0.056618,0 0.1029412,-0.046 0.1029412,-0.103 0,-0.057 -0.046323,-0.1029 -0.1029412,-0.1029 -0.056618,0 -0.1029412,0.046 -0.1029412,0.1029 0,0.057 0.046324,0.103 0.1029412,0.103 z m 0.3088235,-1.853 -0.2745097,0 0.1372548,-0.1372 0.1372549,-0.1373 0.137255,0.1373 0.1372548,0.1372 -0.2745098,0 z m -4.3235294,-2.5735 c -0.1132353,0.07 -0.2058823,0.081 -0.2058823,0.024 0,-0.057 0.092647,-0.1602 0.2058823,-0.2302 0.1132353,-0.07 0.2058824,-0.081 0.2058824,-0.024 0,0.057 -0.092647,0.1602 -0.2058824,0.2302 z m 0.9264706,-0.6404 -0.617647,0.1382 0.3088235,-0.209 c 0.1698529,-0.1149 0.486397,-0.2104 0.7034314,-0.2121 0.2170342,0 0.3560048,0.03 0.3088236,0.071 -0.047181,0.041 -0.3637256,0.1361 -0.7034315,0.2121 z"
         id="path6980" />
      <path
         style="fill:#20150d"
         d="m 13.673915,1050.127 c -0.16317,0 -0.353932,-0.093 -0.423915,-0.2059 l -0.127242,-0.2059 0.320974,0 0.320974,0 0,-0.6176 0,-0.6177 -0.199421,0 -0.199421,0 0.125131,-0.3261 0.125131,-0.326 0.174079,0.2746 0.174078,0.2746 0.0032,0.875 0.0032,0.875 -0.296673,0 z m -0.938621,-0.2059 c -0.113235,0 -0.205882,-0.093 -0.205882,-0.2059 0,-0.1132 0.09265,-0.2059 0.205882,-0.2059 0.113235,0 0.205882,0.093 0.205882,0.2059 0,0.1133 -0.09265,0.2059 -0.205882,0.2059 z m -0.990092,-0.209 -0.348143,0 0.308823,-0.1996 c 0.169853,-0.1097 0.383777,-0.201 0.475386,-0.2027 l 0.166563,0 -0.127243,0.2058 -0.127242,0.2059 -0.348144,0 z m -2.3040255,-0.2339 c -0.9625,-0.014 -1.5647059,-0.055 -1.3382353,-0.091 0.2264706,-0.036 1.1233176,-0.095 1.9929928,-0.1296 l 1.581229,-0.064 -0.242993,0.1545 -0.242994,0.1545 -1.7499995,-0.025 z m 4.0147055,0.031 c -0.05662,0 -0.102941,-0.046 -0.102941,-0.1029 0,-0.057 0.04632,-0.1029 0.102941,-0.1029 0.05662,0 0.102942,0.046 0.102942,0.1029 0,0.057 -0.04632,0.1029 -0.102942,0.1029 z m -11.035907,-1.2353 -0.1241427,1.1324 0.012276,-5.0441 0.012276,-5.0441 0.1118669,3.9117 0.1118669,3.9118 -0.1241426,1.1323 z m 2.8503939,-0.2595 -0.072073,1.3919 -0.040324,-1.4926 -0.040324,-1.4927 0.2836142,0 0.2836145,0 0.282562,0.3425 0.2825622,0.3426 -0.4537787,-0.2418 -0.4537789,-0.2418 -0.072074,1.3919 z m 1.2884546,1.2273 -1.1323529,0 0.5661765,-0.086 c 0.311397,-0.047 0.8209558,-0.047 1.1323529,0 l 0.5661765,0.086 -1.132353,0 z m 6.2794115,0.062 c -0.05662,0 -0.102941,-0.046 -0.102941,-0.103 0,-0.057 0.04632,-0.1029 0.102941,-0.1029 0.05662,0 0.102941,0.046 0.102941,0.1029 0,0.057 -0.04632,0.103 -0.102941,0.103 z m -1.955882,-0.2059 -0.27451,0 0.137255,-0.1373 0.137255,-0.1372 0.137255,0.1372 0.137255,0.1373 -0.27451,0 z m 1.544118,0 c -0.05662,0 -0.102942,-0.046 -0.102942,-0.103 0,-0.057 0.04632,-0.1029 0.102942,-0.1029 0.05662,0 0.102941,0.046 0.102941,0.1029 0,0.057 -0.04632,0.103 -0.102941,0.103 z m -0.514706,-0.2059 -0.27451,0 0.137255,-0.1373 0.137255,-0.1372 0.137255,0.1372 0.137254,0.1373 -0.274509,0 z m 1.338235,0 c -0.05662,0 -0.102941,-0.046 -0.102941,-0.1029 0,-0.057 0.04632,-0.103 0.102941,-0.103 0.05662,0 0.102941,0.046 0.102941,0.103 0,0.057 -0.04632,0.1029 -0.102941,0.1029 z m -1.852941,-0.2059 c -0.05662,0 -0.102941,-0.046 -0.102941,-0.1029 0,-0.057 0.04632,-0.103 0.102941,-0.103 0.05662,0 0.102941,0.046 0.102941,0.103 0,0.057 -0.04632,0.1029 -0.102941,0.1029 z m 1.441176,0 c -0.05662,0 -0.102941,-0.046 -0.102941,-0.1029 0,-0.057 0.04632,-0.103 0.102941,-0.103 0.05662,0 0.102941,0.046 0.102941,0.103 0,0.057 -0.04632,0.1029 -0.102941,0.1029 z m -1.955882,-0.2059 -0.27451,0 0.137255,-0.1372 0.137255,-0.1373 0.137255,0.1373 0.137255,0.1372 -0.27451,0 z m 2.161765,-0.2059 c -0.05662,0 -0.102942,-0.046 -0.102942,-0.1029 0,-0.057 0.04632,-0.1029 0.102942,-0.1029 0.05662,0 0.102941,0.046 0.102941,0.1029 0,0.057 -0.04632,0.1029 -0.102941,0.1029 z m -9.9852945,-0.2058 -0.2058823,0 0,-0.3089 0,-0.3088 0.2058823,0 0.2058824,0 0,0.3088 0,0.3089 -0.2058824,0 z m 8.5441175,0 c -0.05662,0 -0.102941,-0.046 -0.102941,-0.103 0,-0.057 0.04632,-0.1029 0.102941,-0.1029 0.05662,0 0.102941,0.046 0.102941,0.1029 0,0.057 -0.04632,0.103 -0.102941,0.103 z m 1.029412,0 c -0.05662,0 -0.102941,-0.046 -0.102941,-0.103 0,-0.057 0.04632,-0.1029 0.102941,-0.1029 0.05662,0 0.102941,0.046 0.102941,0.1029 0,0.057 -0.04632,0.103 -0.102941,0.103 z m -4.9411765,-0.2059 c -0.056618,0 -0.1029412,-0.046 -0.1029412,-0.103 0,-0.057 0.046323,-0.1029 0.1029412,-0.1029 0.056618,0 0.1029411,0.046 0.1029411,0.1029 0,0.057 -0.046323,0.103 -0.1029411,0.103 z m 3.3184185,0 c -0.05662,0 -0.1602,-0.093 -0.230183,-0.2059 -0.06998,-0.1132 -0.08092,-0.2059 -0.0243,-0.2059 0.05662,0 0.1602,0.093 0.230183,0.2059 0.06998,0.1132 0.08092,0.2059 0.0243,0.2059 z m -3.7301832,-0.2059 c -0.056618,0 -0.1029412,-0.046 -0.1029412,-0.1029 0,-0.057 0.046323,-0.103 0.1029412,-0.103 0.056618,0 0.1029411,0.046 0.1029411,0.103 0,0.057 -0.046323,0.1029 -0.1029411,0.1029 z m 6.1764702,0 c -0.05662,0 -0.102941,-0.046 -0.102941,-0.1029 0,-0.057 0.04632,-0.103 0.102941,-0.103 0.05662,0 0.102942,0.046 0.102942,0.103 0,0.057 -0.04632,0.1029 -0.102942,0.1029 z m -6.5882349,-0.2059 c -0.056618,0 -0.1029412,-0.046 -0.1029412,-0.1029 0,-0.057 0.046323,-0.103 0.1029412,-0.103 0.056618,0 0.1029411,0.046 0.1029411,0.103 0,0.057 -0.046323,0.1029 -0.1029411,0.1029 z m 4.4161769,-0.028 c -0.05096,-0.015 -0.301103,-0.068 -0.555883,-0.1173 l -0.463235,-0.089 0,-0.1733 0,-0.1734 0.310908,0.046 c 0.170999,0.025 0.421146,0.1559 0.555882,0.2906 0.134736,0.1348 0.203283,0.2324 0.152328,0.217 z m -4.8279416,-0.1779 c -0.056618,0 -0.1029412,-0.046 -0.1029412,-0.1029 0,-0.057 0.046323,-0.1029 0.1029412,-0.1029 0.056618,0 0.1029411,0.046 0.1029411,0.1029 0,0.057 -0.046323,0.1029 -0.1029411,0.1029 z m 6.7941176,0 c -0.05662,0 -0.102941,-0.046 -0.102941,-0.1029 0,-0.057 0.04632,-0.1029 0.102941,-0.1029 0.05662,0 0.102941,0.046 0.102941,0.1029 0,0.057 -0.04632,0.1029 -0.102941,0.1029 z m -9.8823529,-0.2058 c -0.056618,0 -0.1029412,-0.046 -0.1029412,-0.103 0,-0.057 0.046323,-0.1029 0.1029412,-0.1029 0.056618,0 0.1029411,0.046 0.1029411,0.1029 0,0.057 -0.046323,0.103 -0.1029411,0.103 z m 9.6764709,-0.2059 c -0.05662,0 -0.102942,-0.046 -0.102942,-0.103 0,-0.057 0.04632,-0.1029 0.102942,-0.1029 0.05662,0 0.102941,0.046 0.102941,0.1029 0,0.057 -0.04632,0.103 -0.102941,0.103 z m -5.3529415,-0.2059 c -0.056618,0 -0.1029412,-0.046 -0.1029412,-0.103 0,-0.057 0.046323,-0.1029 0.1029412,-0.1029 0.056618,0 0.1029411,0.046 0.1029411,0.1029 0,0.057 -0.046323,0.103 -0.1029411,0.103 z m 3.1225495,-0.069 -0.137255,0.1372 0,-0.2745 0,-0.2745 0.137255,0.1373 0.137254,0.1372 -0.137254,0.1373 z m -0.617648,-0.2059 -0.137254,0.1372 0,-0.2745 0,-0.2745 0.137254,0.1373 0.137255,0.1372 -0.137255,0.1373 z m 2.522545,0.069 c -0.05359,0 -0.396033,-0.2727 -0.760975,-0.606 -0.364942,-0.3334 -0.66353,-0.6576 -0.66353,-0.7206 0,-0.063 0.02815,-0.1146 0.06255,-0.1146 0.0344,0 0.376844,0.3243 0.760976,0.7206 0.384132,0.3963 0.654571,0.7206 0.600976,0.7206 z m -9.7284269,-0.4804 -0.1372549,0.1373 0,-0.2745 0,-0.2746 0.1372549,0.1373 0.1372548,0.1373 -0.1372548,0.1372 z m 7.5833329,-0.1372 c -0.05662,0 -0.102941,-0.046 -0.102941,-0.103 0,-0.057 0.04632,-0.1029 0.102941,-0.1029 0.05662,0 0.102942,0.046 0.102942,0.1029 0,0.057 -0.04632,0.103 -0.102942,0.103 z m -0.6176466,-0.2059 c -0.056618,0 -0.1029412,-0.046 -0.1029412,-0.103 0,-0.057 0.046323,-0.1029 0.1029412,-0.1029 0.056618,0 0.1029416,0.046 0.1029416,0.1029 0,0.057 -0.04632,0.103 -0.1029416,0.103 z m -6.2421471,-1.2899 c -0.3541664,0.6528 -0.6464078,1.1138 -0.6494254,1.0243 -0.00302,-0.089 0.1863894,-0.5387 0.4209044,-0.9984 0.2345148,-0.4597 0.7714711,-1.2203 1.1932361,-1.6903 l 0.7668452,-0.8545 -0.079937,-1.1839 -0.079937,-1.1838 -0.2704946,0 -0.2704946,0 0.1076789,-0.4118 0.1076789,-0.4117 -0.2642084,0 -0.2642084,0 0.1359927,-0.136 0.1359925,-0.136 0.413027,0.3738 0.413027,0.3738 0,1.2033 0,1.2034 0.3042235,0 0.3042235,0 -0.8900922,0.8205 -0.8900922,0.8204 -0.6439391,1.1869 z m 0.2715588,0.8781 c -0.056618,0 -0.1029412,-0.046 -0.1029412,-0.1029 0,-0.057 0.046324,-0.103 0.1029412,-0.103 0.056618,0 0.1029412,0.046 0.1029412,0.103 0,0.057 -0.046323,0.1029 -0.1029412,0.1029 z m 5.7977531,0 c -0.038442,0 -0.1789179,-0.2548 -0.3121693,-0.5662 l -0.2422752,-0.5661 0.3121692,0.3996 c 0.1716931,0.2198 0.3121693,0.4746 0.3121693,0.5662 0,0.092 -0.031452,0.1665 -0.069894,0.1665 z m 0.6189138,-0.069 -0.137255,0.1372 0,-0.2745 0,-0.2745 0.137255,0.1373 0.137255,0.1372 -0.137255,0.1373 z m -5.9744732,-0.7606 c -0.1865889,0.28 -0.3369557,0.419 -0.3341485,0.3088 0.00281,-0.1101 0.3246761,-0.6357 0.7152639,-1.168 l 0.7101601,-0.9679 0.4685594,-0.2407 0.4685597,-0.2407 -0.844571,0.8998 c -0.4645141,0.4948 -0.9972347,1.1287 -1.1838236,1.4087 z m 6.3951152,0.4174 c -0.06701,0 -0.180024,-0.094 -0.251149,-0.2092 l -0.129318,-0.2092 -0.191656,0.1184 -0.191656,0.1185 0,-0.2269 c 0,-0.1248 -0.4266377,-0.683 -0.9480831,-1.2404 l -0.9480827,-1.0136 -0.4056679,-0.1287 -0.4056682,-0.1288 0.1138429,-0.1138 0.1138429,-0.1139 0.6737314,0.4817 c 0.3705522,0.265 1.1277731,0.9732 1.6827129,1.5738 0.5549398,0.6007 0.9541578,1.0921 0.8871508,1.0921 z m -1.6132126,-0.8235 c -0.056618,0 -0.3692257,-0.2779 -0.6946845,-0.6176 -0.3254588,-0.3397 -0.5454198,-0.6177 -0.4888022,-0.6177 0.056618,0 0.3692257,0.278 0.6946845,0.6177 0.3254589,0.3397 0.5454199,0.6176 0.4888022,0.6176 z m -1.4545928,-1.2384 c -0.034992,0 -0.2025917,-0.093 -0.3724447,-0.2028 l -0.3088235,-0.1995 0.2452024,0 c 0.1348614,0 0.3024613,0.09 0.3724447,0.2027 0.069983,0.1133 0.098613,0.2045 0.063621,0.2028 z m -0.9900917,-0.4086 -0.2745098,0 0.1372548,-0.1373 0.137255,-0.1373 0.137255,0.1373 0.1372547,0.1373 -0.2745097,0 z m 0.2058823,-0.6177 -0.2745097,0 0.1372548,-0.1372 0.1372549,-0.1373 0.137255,0.1373 0.1372548,0.1372 -0.2745098,0 z m -4.3235294,-2.5735 c -0.1132353,0.07 -0.2058823,0.081 -0.2058823,0.024 0,-0.057 0.092647,-0.1602 0.2058823,-0.2302 0.1132353,-0.07 0.2058824,-0.081 0.2058824,-0.024 0,0.057 -0.092647,0.1602 -0.2058824,0.2302 z m 0.9264706,-0.6404 -0.617647,0.1382 0.3088235,-0.209 c 0.1698529,-0.1149 0.486397,-0.2104 0.7034314,-0.2121 0.2170342,0 0.3560048,0.03 0.3088236,0.071 -0.047181,0.041 -0.3637256,0.1361 -0.7034315,0.2121 z"
         id="path6978" />
    </g>
  </g>
</svg>
