<?xml version="1.0" encoding="UTF-8" standalone="no"?>
<!-- Created with Inkscape (http://www.inkscape.org/) -->

<svg
   xmlns:dc="http://purl.org/dc/elements/1.1/"
   xmlns:cc="http://creativecommons.org/ns#"
   xmlns:rdf="http://www.w3.org/1999/02/22-rdf-syntax-ns#"
   xmlns:svg="http://www.w3.org/2000/svg"
   xmlns="http://www.w3.org/2000/svg"
   xmlns:sodipodi="http://sodipodi.sourceforge.net/DTD/sodipodi-0.dtd"
   xmlns:inkscape="http://www.inkscape.org/namespaces/inkscape"
   width="16"
   height="16"
   id="svg2"
   version="1.1"
   inkscape:version="0.47 r22583"
   sodipodi:docname="FARM1-32.svg">
  <defs
     id="defs4">
    <inkscape:perspective
       sodipodi:type="inkscape:persp3d"
       inkscape:vp_x="0 : 526.18109 : 1"
       inkscape:vp_y="0 : 1000 : 0"
       inkscape:vp_z="744.09448 : 526.18109 : 1"
       inkscape:persp3d-origin="372.04724 : 350.78739 : 1"
       id="perspective10" />
    <inkscape:perspective
       id="perspective2824"
       inkscape:persp3d-origin="0.5 : 0.33333333 : 1"
       inkscape:vp_z="1 : 0.5 : 1"
       inkscape:vp_y="0 : 1000 : 0"
       inkscape:vp_x="0 : 0.5 : 1"
       sodipodi:type="inkscape:persp3d" />
    <inkscape:perspective
       id="perspective5878"
       inkscape:persp3d-origin="0.5 : 0.33333333 : 1"
       inkscape:vp_z="1 : 0.5 : 1"
       inkscape:vp_y="0 : 1000 : 0"
       inkscape:vp_x="0 : 0.5 : 1"
       sodipodi:type="inkscape:persp3d" />
    <inkscape:perspective
       id="perspective5921"
       inkscape:persp3d-origin="0.5 : 0.33333333 : 1"
       inkscape:vp_z="1 : 0.5 : 1"
       inkscape:vp_y="0 : 1000 : 0"
       inkscape:vp_x="0 : 0.5 : 1"
       sodipodi:type="inkscape:persp3d" />
    <inkscape:perspective
       id="perspective5943"
       inkscape:persp3d-origin="0.5 : 0.33333333 : 1"
       inkscape:vp_z="1 : 0.5 : 1"
       inkscape:vp_y="0 : 1000 : 0"
       inkscape:vp_x="0 : 0.5 : 1"
       sodipodi:type="inkscape:persp3d" />
    <inkscape:perspective
       id="perspective5989"
       inkscape:persp3d-origin="0.5 : 0.33333333 : 1"
       inkscape:vp_z="1 : 0.5 : 1"
       inkscape:vp_y="0 : 1000 : 0"
       inkscape:vp_x="0 : 0.5 : 1"
       sodipodi:type="inkscape:persp3d" />
    <inkscape:perspective
       id="perspective6011"
       inkscape:persp3d-origin="0.5 : 0.33333333 : 1"
       inkscape:vp_z="1 : 0.5 : 1"
       inkscape:vp_y="0 : 1000 : 0"
       inkscape:vp_x="0 : 0.5 : 1"
       sodipodi:type="inkscape:persp3d" />
    <inkscape:perspective
       id="perspective6033"
       inkscape:persp3d-origin="0.5 : 0.33333333 : 1"
       inkscape:vp_z="1 : 0.5 : 1"
       inkscape:vp_y="0 : 1000 : 0"
       inkscape:vp_x="0 : 0.5 : 1"
       sodipodi:type="inkscape:persp3d" />
    <inkscape:perspective
       id="perspective6245"
       inkscape:persp3d-origin="0.5 : 0.33333333 : 1"
       inkscape:vp_z="1 : 0.5 : 1"
       inkscape:vp_y="0 : 1000 : 0"
       inkscape:vp_x="0 : 0.5 : 1"
       sodipodi:type="inkscape:persp3d" />
    <inkscape:perspective
       id="perspective6269"
       inkscape:persp3d-origin="0.5 : 0.33333333 : 1"
       inkscape:vp_z="1 : 0.5 : 1"
       inkscape:vp_y="0 : 1000 : 0"
       inkscape:vp_x="0 : 0.5 : 1"
       sodipodi:type="inkscape:persp3d" />
    <inkscape:perspective
       id="perspective6364"
       inkscape:persp3d-origin="0.5 : 0.33333333 : 1"
       inkscape:vp_z="1 : 0.5 : 1"
       inkscape:vp_y="0 : 1000 : 0"
       inkscape:vp_x="0 : 0.5 : 1"
       sodipodi:type="inkscape:persp3d" />
    <inkscape:perspective
       id="perspective6396"
       inkscape:persp3d-origin="0.5 : 0.33333333 : 1"
       inkscape:vp_z="1 : 0.5 : 1"
       inkscape:vp_y="0 : 1000 : 0"
       inkscape:vp_x="0 : 0.5 : 1"
       sodipodi:type="inkscape:persp3d" />
    <inkscape:perspective
       id="perspective6438"
       inkscape:persp3d-origin="0.5 : 0.33333333 : 1"
       inkscape:vp_z="1 : 0.5 : 1"
       inkscape:vp_y="0 : 1000 : 0"
       inkscape:vp_x="0 : 0.5 : 1"
       sodipodi:type="inkscape:persp3d" />
    <inkscape:perspective
       id="perspective6460"
       inkscape:persp3d-origin="0.5 : 0.33333333 : 1"
       inkscape:vp_z="1 : 0.5 : 1"
       inkscape:vp_y="0 : 1000 : 0"
       inkscape:vp_x="0 : 0.5 : 1"
       sodipodi:type="inkscape:persp3d" />
    <inkscape:perspective
       id="perspective6480"
       inkscape:persp3d-origin="0.5 : 0.33333333 : 1"
       inkscape:vp_z="1 : 0.5 : 1"
       inkscape:vp_y="0 : 1000 : 0"
       inkscape:vp_x="0 : 0.5 : 1"
       sodipodi:type="inkscape:persp3d" />
    <inkscape:perspective
       id="perspective6504"
       inkscape:persp3d-origin="0.5 : 0.33333333 : 1"
       inkscape:vp_z="1 : 0.5 : 1"
       inkscape:vp_y="0 : 1000 : 0"
       inkscape:vp_x="0 : 0.5 : 1"
       sodipodi:type="inkscape:persp3d" />
    <inkscape:perspective
       id="perspective6524"
       inkscape:persp3d-origin="0.5 : 0.33333333 : 1"
       inkscape:vp_z="1 : 0.5 : 1"
       inkscape:vp_y="0 : 1000 : 0"
       inkscape:vp_x="0 : 0.5 : 1"
       sodipodi:type="inkscape:persp3d" />
    <inkscape:perspective
       id="perspective6548"
       inkscape:persp3d-origin="0.5 : 0.33333333 : 1"
       inkscape:vp_z="1 : 0.5 : 1"
       inkscape:vp_y="0 : 1000 : 0"
       inkscape:vp_x="0 : 0.5 : 1"
       sodipodi:type="inkscape:persp3d" />
    <inkscape:perspective
       id="perspective6572"
       inkscape:persp3d-origin="0.5 : 0.33333333 : 1"
       inkscape:vp_z="1 : 0.5 : 1"
       inkscape:vp_y="0 : 1000 : 0"
       inkscape:vp_x="0 : 0.5 : 1"
       sodipodi:type="inkscape:persp3d" />
    <inkscape:perspective
       id="perspective6594"
       inkscape:persp3d-origin="0.5 : 0.33333333 : 1"
       inkscape:vp_z="1 : 0.5 : 1"
       inkscape:vp_y="0 : 1000 : 0"
       inkscape:vp_x="0 : 0.5 : 1"
       sodipodi:type="inkscape:persp3d" />
    <inkscape:perspective
       id="perspective6614"
       inkscape:persp3d-origin="0.5 : 0.33333333 : 1"
       inkscape:vp_z="1 : 0.5 : 1"
       inkscape:vp_y="0 : 1000 : 0"
       inkscape:vp_x="0 : 0.5 : 1"
       sodipodi:type="inkscape:persp3d" />
    <inkscape:perspective
       id="perspective6650"
       inkscape:persp3d-origin="0.5 : 0.33333333 : 1"
       inkscape:vp_z="1 : 0.5 : 1"
       inkscape:vp_y="0 : 1000 : 0"
       inkscape:vp_x="0 : 0.5 : 1"
       sodipodi:type="inkscape:persp3d" />
    <inkscape:perspective
       id="perspective6676"
       inkscape:persp3d-origin="0.5 : 0.33333333 : 1"
       inkscape:vp_z="1 : 0.5 : 1"
       inkscape:vp_y="0 : 1000 : 0"
       inkscape:vp_x="0 : 0.5 : 1"
       sodipodi:type="inkscape:persp3d" />
    <inkscape:perspective
       id="perspective6710"
       inkscape:persp3d-origin="0.5 : 0.33333333 : 1"
       inkscape:vp_z="1 : 0.5 : 1"
       inkscape:vp_y="0 : 1000 : 0"
       inkscape:vp_x="0 : 0.5 : 1"
       sodipodi:type="inkscape:persp3d" />
    <inkscape:perspective
       id="perspective6748"
       inkscape:persp3d-origin="0.5 : 0.33333333 : 1"
       inkscape:vp_z="1 : 0.5 : 1"
       inkscape:vp_y="0 : 1000 : 0"
       inkscape:vp_x="0 : 0.5 : 1"
       sodipodi:type="inkscape:persp3d" />
    <inkscape:perspective
       id="perspective6786"
       inkscape:persp3d-origin="0.5 : 0.33333333 : 1"
       inkscape:vp_z="1 : 0.5 : 1"
       inkscape:vp_y="0 : 1000 : 0"
       inkscape:vp_x="0 : 0.5 : 1"
       sodipodi:type="inkscape:persp3d" />
    <inkscape:perspective
       id="perspective6810"
       inkscape:persp3d-origin="0.5 : 0.33333333 : 1"
       inkscape:vp_z="1 : 0.5 : 1"
       inkscape:vp_y="0 : 1000 : 0"
       inkscape:vp_x="0 : 0.5 : 1"
       sodipodi:type="inkscape:persp3d" />
    <inkscape:perspective
       id="perspective6848"
       inkscape:persp3d-origin="0.5 : 0.33333333 : 1"
       inkscape:vp_z="1 : 0.5 : 1"
       inkscape:vp_y="0 : 1000 : 0"
       inkscape:vp_x="0 : 0.5 : 1"
       sodipodi:type="inkscape:persp3d" />
    <inkscape:perspective
       id="perspective6870"
       inkscape:persp3d-origin="0.5 : 0.33333333 : 1"
       inkscape:vp_z="1 : 0.5 : 1"
       inkscape:vp_y="0 : 1000 : 0"
       inkscape:vp_x="0 : 0.5 : 1"
       sodipodi:type="inkscape:persp3d" />
    <inkscape:perspective
       id="perspective6908"
       inkscape:persp3d-origin="0.5 : 0.33333333 : 1"
       inkscape:vp_z="1 : 0.5 : 1"
       inkscape:vp_y="0 : 1000 : 0"
       inkscape:vp_x="0 : 0.5 : 1"
       sodipodi:type="inkscape:persp3d" />
    <inkscape:perspective
       id="perspective6946"
       inkscape:persp3d-origin="0.5 : 0.33333333 : 1"
       inkscape:vp_z="1 : 0.5 : 1"
       inkscape:vp_y="0 : 1000 : 0"
       inkscape:vp_x="0 : 0.5 : 1"
       sodipodi:type="inkscape:persp3d" />
  </defs>
  <sodipodi:namedview
     id="base"
     pagecolor="#ffffff"
     bordercolor="#666666"
     borderopacity="1.0"
     inkscape:pageopacity="0.0"
     inkscape:pageshadow="2"
     inkscape:zoom="8.671875"
     inkscape:cx="10.564203"
     inkscape:cy="2.743179"
     inkscape:document-units="px"
     inkscape:current-layer="layer1"
     showgrid="true"
     inkscape:window-width="1280"
     inkscape:window-height="780"
     inkscape:window-x="-8"
     inkscape:window-y="-8"
     inkscape:window-maximized="1">
    <inkscape:grid
       type="xygrid"
       id="grid6324"
       empspacing="5"
       visible="true"
       enabled="true"
       snapvisiblegridlinesonly="true" />
  </sodipodi:namedview>
  <metadata
     id="metadata7">
    <rdf:RDF>
      <cc:Work
         rdf:about="">
        <dc:format>image/svg+xml</dc:format>
        <dc:type
           rdf:resource="http://purl.org/dc/dcmitype/StillImage" />
        <dc:title></dc:title>
      </cc:Work>
    </rdf:RDF>
  </metadata>
  <g
     inkscape:label="Calque 1"
     inkscape:groupmode="layer"
     id="layer1"
     transform="translate(0,-1036.3622)">
    <g
       id="g6952"
       transform="translate(0.787879,1.075)">
      <path
         style="fill:#bfbfbf"
         d="m 8.7272727,1049.1501 -5.0909091,0 0,-0.4849 0,-0.4848 -1.2121212,0 -1.2121212,0 0,-4.0173 0,-4.0173 0.3463204,-0.3464 0.3463203,-0.3463 0.7619048,0 0.7619047,0 0.3463205,0.3463 0.3463202,0.3464 0,1.3506 0,1.3507 0.2424243,0 0.2424242,0 0,-1.3507 0,-1.3506 0.3463202,-0.3464 0.3463205,-0.3463 0.7619048,0 0.7619047,0 0.3463205,0.3463 0.3463202,0.3464 0,1.1082 0,1.1082 2.30941,0 2.3094095,0 1.08453,1.0845 1.084529,1.0846 0,0.8548 0,0.8549 -0.242424,0 -0.242424,0 0,1.4545 0,1.4546 -5.0909093,0 z"
         id="path6960" />
      <path
         style="fill:#7f7f7f"
         d="m 8.7272727,1049.1501 -5.0909091,0 0,-0.4849 0,-0.4848 -1.2121212,0 -1.2121212,0 0,-4.0173 0,-4.0173 0.3463204,-0.3464 0.3463203,-0.3463 0.7619048,0 0.7619047,0 0.3463205,0.3463 0.3463202,0.3464 0,1.3506 0,1.3507 0.2424243,0 0.2424242,0 0,-1.3507 0,-1.3506 0.3463202,-0.3464 0.3463205,-0.3463 0.7619048,0 0.7619047,0 0.3463205,0.3463 0.3463202,0.3464 0,1.1082 0,1.1082 2.30941,0 2.3094095,0 1.08453,1.0845 1.084529,1.0846 0,0.8548 0,0.8549 -0.242424,0 -0.242424,0 0,1.4545 0,1.4546 -5.0909093,0 z m -3.8787879,-0.4849 0.2424243,0 0,-0.4848 0,-0.4849 0.4848485,0 0.4848485,0 0,0.4849 0,0.4848 0.2424242,0 0.2424242,0 0,-0.4848 0,-0.4849 0.4848485,0 0.4848485,0 0,0.4849 0,0.4848 0.2424243,0 0.2424242,0 0,-0.7272 0,-0.7273 -1.6969697,0 -1.6969697,0 0,0.7273 0,0.7272 0.2424242,0 z m -2.9090909,-0.9697 0.2424243,0 0,-3.8787 0,-3.8788 -0.2424243,0 -0.2424242,0 0,3.8788 0,3.8787 0.2424242,0 z m 8.9696971,0 0.484848,0 0,-0.4848 0,-0.4849 -0.484848,0 -0.484849,0 0,0.4849 0,0.4848 0.484849,0 z m 1.454545,0 0.484849,0 0,-0.4848 0,-0.4849 -0.484849,0 -0.484848,0 0,0.4849 0,0.4848 0.484848,0 z m -6.0606057,-0.9697 1.6969697,0 0,-0.9696 0,-0.9697 -1.6969697,0 -1.6969697,0 0,0.9697 0,0.9696 1.6969697,0 z m -0.7272727,-0.4848 -0.4848485,0 0,-0.4848 0,-0.4849 0.4848485,0 0.4848485,0 0,0.4849 0,0.4848 -0.4848485,0 z m 1.4545454,0 -0.4848485,0 0,-0.4848 0,-0.4849 0.4848485,0 0.4848485,0 0,0.4849 0,0.4848 -0.4848485,0 z m -1.6969697,-3.8788 0.2424243,0 0,-1.2121 0,-1.2121 -0.2424243,0 -0.2424242,0 0,1.2121 0,1.2121 0.2424242,0 z"
         id="path6958" />
      <path
         style="fill:#fe0000"
         d="m 8.7272727,1049.1501 -5.0909091,0 0,-0.4849 0,-0.4848 -1.2121212,0 -1.2121212,0 0,-4.0173 0,-4.0173 0.3463204,-0.3464 0.3463203,-0.3463 0.7619048,0 0.7619047,0 0.3463205,0.3463 0.3463202,0.3464 0,1.593 0,1.5931 0.1385283,0 c 0.07619,0 0.3206708,-0.1821 0.5432899,-0.4048 l 0.4047619,-0.4047 -0.3008659,-0.1003 -0.3008657,-0.1003 0,-1.088 0,-1.088 0.3463202,-0.3464 0.3463205,-0.3463 0.7619048,0 0.7619047,0 0.3463205,0.3463 0.3463202,0.3464 0,1.1082 0,1.1082 2.30941,0 2.3094095,0 1.08453,1.0845 1.084529,1.0846 0,0.8548 0,0.8549 -0.242424,0 -0.242424,0 0,1.4545 0,1.4546 -5.0909093,0 z m -3.8787879,-0.4849 0.2424243,0 0,-0.4848 0,-0.4849 0.4848485,0 0.4848485,0 0,0.4849 0,0.4848 0.2424242,0 0.2424242,0 0,-0.4848 0,-0.4849 0.4848485,0 0.4848485,0 0,0.4849 0,0.4848 0.2424243,0 0.2424242,0 0,-0.7272 0,-0.7273 -1.6969697,0 -1.6969697,0 0,0.7273 0,0.7272 0.2424242,0 z m -2.4242424,-0.9697 0.7272728,0 0,-0.7272 0,-0.7273 -0.2424243,0 -0.2424242,0 0,-0.6738 0,-0.6737 0.4848485,-0.3495 0.4848484,-0.3494 0,-2.1283 0,-2.1283 -0.9696969,0 -0.969697,0 0,3.8788 0,3.8787 0.7272727,0 z m 8.4848486,0 0.484848,0 0,-0.4848 0,-0.4849 -0.484848,0 -0.484849,0 0,0.4849 0,0.4848 0.484849,0 z m 1.454545,0 0.484849,0 0,-0.4848 0,-0.4849 -0.484849,0 -0.484848,0 0,0.4849 0,0.4848 0.484848,0 z m -6.0606057,-0.9697 1.6969697,0 0,-0.9696 0,-0.9697 -1.6969697,0 -1.6969697,0 0,0.9697 0,0.9696 1.6969697,0 z m -0.7272727,-0.4848 -0.4848485,0 0,-0.4848 0,-0.4849 0.4848485,0 0.4848485,0 0,0.4849 0,0.4848 -0.4848485,0 z m 1.4545454,0 -0.4848485,0 0,-0.4848 0,-0.4849 0.4848485,0 0.4848485,0 0,0.4849 0,0.4848 -0.4848485,0 z m 4.181818,-1.9542 2.121212,0.015 0,-0.1322 c 0,-0.073 -0.267768,-0.4 -0.595041,-0.7273 l -0.595041,-0.595 -2.071626,0 -2.071625,0 0,0.1298 c 0,0.072 0.2454545,0.3921 0.5454545,0.7125 l 0.5454546,0.5826 2.1212119,0.015 z m -5.1515149,-1.9246 0.9696969,0 0,-1.2121 0,-1.2121 -0.9696969,0 -0.969697,0 0,1.2121 0,1.2121 0.969697,0 z"
         id="path6956" />
      <path
         style="fill:#000000"
         d="m 8.7272727,1049.1501 -5.0909091,0 0,-0.2424 0,-0.2425 2.6666667,0 2.6666667,0 0,-1.2121 0,-1.2121 0.2424242,0 0.2424243,0 0,-0.6124 0,-0.6125 -1.0845295,-1.0845 -1.0845295,-1.0845 -0.9824562,0 -0.9824562,0 -1.0845295,1.0845 -1.0845294,1.0845 0,0.6125 0,0.6124 0.2424242,0 0.2424242,0 0,0.9697 0,0.9697 -1.2121212,0 -1.2121212,0 0,-4.0173 0,-4.0173 0.3463204,-0.3464 0.3463203,-0.3463 0.7619048,0 0.7619047,0 0.3463205,0.3463 0.3463202,0.3464 0,1.593 0,1.5931 0.1385283,0 c 0.07619,0 0.3206708,-0.1821 0.5432899,-0.4048 l 0.4047619,-0.4047 -0.3008659,-0.1003 -0.3008657,-0.1003 0,-1.088 0,-1.088 0.3463202,-0.3464 0.3463205,-0.3463 0.7619048,0 0.7619047,0 0.3463205,0.3463 0.3463202,0.3464 0,1.1082 0,1.1082 2.30941,0 2.3094095,0 1.08453,1.0845 1.084529,1.0846 0,0.8548 0,0.8549 -0.242424,0 -0.242424,0 0,1.4545 0,1.4546 -5.0909093,0 z m 2.6666663,-0.4849 1.939394,0 0,-1.2121 0,-1.2121 -1.939394,0 -1.9393935,0 0,1.2121 0,1.2121 1.9393935,0 z m -8.9696966,-0.9697 0.7272728,0 0,-0.7272 0,-0.7273 -0.2424243,0 -0.2424242,0 0,-0.6738 0,-0.6737 0.4848485,-0.3495 0.4848484,-0.3494 0,-2.1283 0,-2.1283 -0.9696969,0 -0.969697,0 0,3.8788 0,3.8787 0.7272727,0 z m 8.7878786,-3.4087 2.121212,0.015 0,-0.1322 c 0,-0.073 -0.267768,-0.4 -0.595041,-0.7273 l -0.595041,-0.595 -2.071626,0 -2.071625,0 0,0.1298 c 0,0.072 0.2454545,0.3921 0.5454545,0.7125 l 0.5454546,0.5826 2.1212119,0.015 z m -5.1515149,-1.9246 0.9696969,0 0,-1.2121 0,-1.2121 -0.9696969,0 -0.969697,0 0,1.2121 0,1.2121 0.969697,0 z"
         id="path6954" />
    </g>
  </g>
</svg>
