<?xml version="1.0" encoding="UTF-8" standalone="no"?>
<!-- Created with Inkscape (http://www.inkscape.org/) -->

<svg
   xmlns:dc="http://purl.org/dc/elements/1.1/"
   xmlns:cc="http://creativecommons.org/ns#"
   xmlns:rdf="http://www.w3.org/1999/02/22-rdf-syntax-ns#"
   xmlns:svg="http://www.w3.org/2000/svg"
   xmlns="http://www.w3.org/2000/svg"
   xmlns:sodipodi="http://sodipodi.sourceforge.net/DTD/sodipodi-0.dtd"
   xmlns:inkscape="http://www.inkscape.org/namespaces/inkscape"
   width="16"
   height="16"
   id="svg2"
   version="1.1"
   inkscape:version="0.47 r22583"
   sodipodi:docname="FIRE-64.svg">
  <defs
     id="defs4">
    <inkscape:perspective
       sodipodi:type="inkscape:persp3d"
       inkscape:vp_x="0 : 526.18109 : 1"
       inkscape:vp_y="0 : 1000 : 0"
       inkscape:vp_z="744.09448 : 526.18109 : 1"
       inkscape:persp3d-origin="372.04724 : 350.78739 : 1"
       id="perspective10" />
    <inkscape:perspective
       id="perspective2824"
       inkscape:persp3d-origin="0.5 : 0.33333333 : 1"
       inkscape:vp_z="1 : 0.5 : 1"
       inkscape:vp_y="0 : 1000 : 0"
       inkscape:vp_x="0 : 0.5 : 1"
       sodipodi:type="inkscape:persp3d" />
    <inkscape:perspective
       id="perspective5878"
       inkscape:persp3d-origin="0.5 : 0.33333333 : 1"
       inkscape:vp_z="1 : 0.5 : 1"
       inkscape:vp_y="0 : 1000 : 0"
       inkscape:vp_x="0 : 0.5 : 1"
       sodipodi:type="inkscape:persp3d" />
    <inkscape:perspective
       id="perspective5921"
       inkscape:persp3d-origin="0.5 : 0.33333333 : 1"
       inkscape:vp_z="1 : 0.5 : 1"
       inkscape:vp_y="0 : 1000 : 0"
       inkscape:vp_x="0 : 0.5 : 1"
       sodipodi:type="inkscape:persp3d" />
    <inkscape:perspective
       id="perspective5943"
       inkscape:persp3d-origin="0.5 : 0.33333333 : 1"
       inkscape:vp_z="1 : 0.5 : 1"
       inkscape:vp_y="0 : 1000 : 0"
       inkscape:vp_x="0 : 0.5 : 1"
       sodipodi:type="inkscape:persp3d" />
    <inkscape:perspective
       id="perspective5989"
       inkscape:persp3d-origin="0.5 : 0.33333333 : 1"
       inkscape:vp_z="1 : 0.5 : 1"
       inkscape:vp_y="0 : 1000 : 0"
       inkscape:vp_x="0 : 0.5 : 1"
       sodipodi:type="inkscape:persp3d" />
    <inkscape:perspective
       id="perspective6011"
       inkscape:persp3d-origin="0.5 : 0.33333333 : 1"
       inkscape:vp_z="1 : 0.5 : 1"
       inkscape:vp_y="0 : 1000 : 0"
       inkscape:vp_x="0 : 0.5 : 1"
       sodipodi:type="inkscape:persp3d" />
    <inkscape:perspective
       id="perspective6033"
       inkscape:persp3d-origin="0.5 : 0.33333333 : 1"
       inkscape:vp_z="1 : 0.5 : 1"
       inkscape:vp_y="0 : 1000 : 0"
       inkscape:vp_x="0 : 0.5 : 1"
       sodipodi:type="inkscape:persp3d" />
    <inkscape:perspective
       id="perspective6245"
       inkscape:persp3d-origin="0.5 : 0.33333333 : 1"
       inkscape:vp_z="1 : 0.5 : 1"
       inkscape:vp_y="0 : 1000 : 0"
       inkscape:vp_x="0 : 0.5 : 1"
       sodipodi:type="inkscape:persp3d" />
    <inkscape:perspective
       id="perspective6269"
       inkscape:persp3d-origin="0.5 : 0.33333333 : 1"
       inkscape:vp_z="1 : 0.5 : 1"
       inkscape:vp_y="0 : 1000 : 0"
       inkscape:vp_x="0 : 0.5 : 1"
       sodipodi:type="inkscape:persp3d" />
    <inkscape:perspective
       id="perspective6364"
       inkscape:persp3d-origin="0.5 : 0.33333333 : 1"
       inkscape:vp_z="1 : 0.5 : 1"
       inkscape:vp_y="0 : 1000 : 0"
       inkscape:vp_x="0 : 0.5 : 1"
       sodipodi:type="inkscape:persp3d" />
    <inkscape:perspective
       id="perspective6396"
       inkscape:persp3d-origin="0.5 : 0.33333333 : 1"
       inkscape:vp_z="1 : 0.5 : 1"
       inkscape:vp_y="0 : 1000 : 0"
       inkscape:vp_x="0 : 0.5 : 1"
       sodipodi:type="inkscape:persp3d" />
    <inkscape:perspective
       id="perspective6438"
       inkscape:persp3d-origin="0.5 : 0.33333333 : 1"
       inkscape:vp_z="1 : 0.5 : 1"
       inkscape:vp_y="0 : 1000 : 0"
       inkscape:vp_x="0 : 0.5 : 1"
       sodipodi:type="inkscape:persp3d" />
    <inkscape:perspective
       id="perspective6460"
       inkscape:persp3d-origin="0.5 : 0.33333333 : 1"
       inkscape:vp_z="1 : 0.5 : 1"
       inkscape:vp_y="0 : 1000 : 0"
       inkscape:vp_x="0 : 0.5 : 1"
       sodipodi:type="inkscape:persp3d" />
    <inkscape:perspective
       id="perspective6480"
       inkscape:persp3d-origin="0.5 : 0.33333333 : 1"
       inkscape:vp_z="1 : 0.5 : 1"
       inkscape:vp_y="0 : 1000 : 0"
       inkscape:vp_x="0 : 0.5 : 1"
       sodipodi:type="inkscape:persp3d" />
    <inkscape:perspective
       id="perspective6504"
       inkscape:persp3d-origin="0.5 : 0.33333333 : 1"
       inkscape:vp_z="1 : 0.5 : 1"
       inkscape:vp_y="0 : 1000 : 0"
       inkscape:vp_x="0 : 0.5 : 1"
       sodipodi:type="inkscape:persp3d" />
    <inkscape:perspective
       id="perspective6524"
       inkscape:persp3d-origin="0.5 : 0.33333333 : 1"
       inkscape:vp_z="1 : 0.5 : 1"
       inkscape:vp_y="0 : 1000 : 0"
       inkscape:vp_x="0 : 0.5 : 1"
       sodipodi:type="inkscape:persp3d" />
    <inkscape:perspective
       id="perspective6548"
       inkscape:persp3d-origin="0.5 : 0.33333333 : 1"
       inkscape:vp_z="1 : 0.5 : 1"
       inkscape:vp_y="0 : 1000 : 0"
       inkscape:vp_x="0 : 0.5 : 1"
       sodipodi:type="inkscape:persp3d" />
    <inkscape:perspective
       id="perspective6572"
       inkscape:persp3d-origin="0.5 : 0.33333333 : 1"
       inkscape:vp_z="1 : 0.5 : 1"
       inkscape:vp_y="0 : 1000 : 0"
       inkscape:vp_x="0 : 0.5 : 1"
       sodipodi:type="inkscape:persp3d" />
    <inkscape:perspective
       id="perspective6594"
       inkscape:persp3d-origin="0.5 : 0.33333333 : 1"
       inkscape:vp_z="1 : 0.5 : 1"
       inkscape:vp_y="0 : 1000 : 0"
       inkscape:vp_x="0 : 0.5 : 1"
       sodipodi:type="inkscape:persp3d" />
    <inkscape:perspective
       id="perspective6614"
       inkscape:persp3d-origin="0.5 : 0.33333333 : 1"
       inkscape:vp_z="1 : 0.5 : 1"
       inkscape:vp_y="0 : 1000 : 0"
       inkscape:vp_x="0 : 0.5 : 1"
       sodipodi:type="inkscape:persp3d" />
    <inkscape:perspective
       id="perspective6650"
       inkscape:persp3d-origin="0.5 : 0.33333333 : 1"
       inkscape:vp_z="1 : 0.5 : 1"
       inkscape:vp_y="0 : 1000 : 0"
       inkscape:vp_x="0 : 0.5 : 1"
       sodipodi:type="inkscape:persp3d" />
    <inkscape:perspective
       id="perspective6676"
       inkscape:persp3d-origin="0.5 : 0.33333333 : 1"
       inkscape:vp_z="1 : 0.5 : 1"
       inkscape:vp_y="0 : 1000 : 0"
       inkscape:vp_x="0 : 0.5 : 1"
       sodipodi:type="inkscape:persp3d" />
    <inkscape:perspective
       id="perspective6710"
       inkscape:persp3d-origin="0.5 : 0.33333333 : 1"
       inkscape:vp_z="1 : 0.5 : 1"
       inkscape:vp_y="0 : 1000 : 0"
       inkscape:vp_x="0 : 0.5 : 1"
       sodipodi:type="inkscape:persp3d" />
    <inkscape:perspective
       id="perspective6748"
       inkscape:persp3d-origin="0.5 : 0.33333333 : 1"
       inkscape:vp_z="1 : 0.5 : 1"
       inkscape:vp_y="0 : 1000 : 0"
       inkscape:vp_x="0 : 0.5 : 1"
       sodipodi:type="inkscape:persp3d" />
    <inkscape:perspective
       id="perspective6786"
       inkscape:persp3d-origin="0.5 : 0.33333333 : 1"
       inkscape:vp_z="1 : 0.5 : 1"
       inkscape:vp_y="0 : 1000 : 0"
       inkscape:vp_x="0 : 0.5 : 1"
       sodipodi:type="inkscape:persp3d" />
    <inkscape:perspective
       id="perspective6810"
       inkscape:persp3d-origin="0.5 : 0.33333333 : 1"
       inkscape:vp_z="1 : 0.5 : 1"
       inkscape:vp_y="0 : 1000 : 0"
       inkscape:vp_x="0 : 0.5 : 1"
       sodipodi:type="inkscape:persp3d" />
    <inkscape:perspective
       id="perspective6848"
       inkscape:persp3d-origin="0.5 : 0.33333333 : 1"
       inkscape:vp_z="1 : 0.5 : 1"
       inkscape:vp_y="0 : 1000 : 0"
       inkscape:vp_x="0 : 0.5 : 1"
       sodipodi:type="inkscape:persp3d" />
    <inkscape:perspective
       id="perspective6870"
       inkscape:persp3d-origin="0.5 : 0.33333333 : 1"
       inkscape:vp_z="1 : 0.5 : 1"
       inkscape:vp_y="0 : 1000 : 0"
       inkscape:vp_x="0 : 0.5 : 1"
       sodipodi:type="inkscape:persp3d" />
    <inkscape:perspective
       id="perspective6908"
       inkscape:persp3d-origin="0.5 : 0.33333333 : 1"
       inkscape:vp_z="1 : 0.5 : 1"
       inkscape:vp_y="0 : 1000 : 0"
       inkscape:vp_x="0 : 0.5 : 1"
       sodipodi:type="inkscape:persp3d" />
    <inkscape:perspective
       id="perspective6946"
       inkscape:persp3d-origin="0.5 : 0.33333333 : 1"
       inkscape:vp_z="1 : 0.5 : 1"
       inkscape:vp_y="0 : 1000 : 0"
       inkscape:vp_x="0 : 0.5 : 1"
       sodipodi:type="inkscape:persp3d" />
    <inkscape:perspective
       id="perspective6970"
       inkscape:persp3d-origin="0.5 : 0.33333333 : 1"
       inkscape:vp_z="1 : 0.5 : 1"
       inkscape:vp_y="0 : 1000 : 0"
       inkscape:vp_x="0 : 0.5 : 1"
       sodipodi:type="inkscape:persp3d" />
    <inkscape:perspective
       id="perspective7008"
       inkscape:persp3d-origin="0.5 : 0.33333333 : 1"
       inkscape:vp_z="1 : 0.5 : 1"
       inkscape:vp_y="0 : 1000 : 0"
       inkscape:vp_x="0 : 0.5 : 1"
       sodipodi:type="inkscape:persp3d" />
    <inkscape:perspective
       id="perspective7036"
       inkscape:persp3d-origin="0.5 : 0.33333333 : 1"
       inkscape:vp_z="1 : 0.5 : 1"
       inkscape:vp_y="0 : 1000 : 0"
       inkscape:vp_x="0 : 0.5 : 1"
       sodipodi:type="inkscape:persp3d" />
    <inkscape:perspective
       id="perspective7060"
       inkscape:persp3d-origin="0.5 : 0.33333333 : 1"
       inkscape:vp_z="1 : 0.5 : 1"
       inkscape:vp_y="0 : 1000 : 0"
       inkscape:vp_x="0 : 0.5 : 1"
       sodipodi:type="inkscape:persp3d" />
    <inkscape:perspective
       id="perspective7098"
       inkscape:persp3d-origin="0.5 : 0.33333333 : 1"
       inkscape:vp_z="1 : 0.5 : 1"
       inkscape:vp_y="0 : 1000 : 0"
       inkscape:vp_x="0 : 0.5 : 1"
       sodipodi:type="inkscape:persp3d" />
    <inkscape:perspective
       id="perspective7136"
       inkscape:persp3d-origin="0.5 : 0.33333333 : 1"
       inkscape:vp_z="1 : 0.5 : 1"
       inkscape:vp_y="0 : 1000 : 0"
       inkscape:vp_x="0 : 0.5 : 1"
       sodipodi:type="inkscape:persp3d" />
  </defs>
  <sodipodi:namedview
     id="base"
     pagecolor="#ffffff"
     bordercolor="#666666"
     borderopacity="1.0"
     inkscape:pageopacity="0.0"
     inkscape:pageshadow="2"
     inkscape:zoom="8.671875"
     inkscape:cx="10.564203"
     inkscape:cy="2.743179"
     inkscape:document-units="px"
     inkscape:current-layer="layer1"
     showgrid="true"
     inkscape:window-width="1280"
     inkscape:window-height="780"
     inkscape:window-x="-8"
     inkscape:window-y="-8"
     inkscape:window-maximized="1">
    <inkscape:grid
       type="xygrid"
       id="grid6324"
       empspacing="5"
       visible="true"
       enabled="true"
       snapvisiblegridlinesonly="true" />
  </sodipodi:namedview>
  <metadata
     id="metadata7">
    <rdf:RDF>
      <cc:Work
         rdf:about="">
        <dc:format>image/svg+xml</dc:format>
        <dc:type
           rdf:resource="http://purl.org/dc/dcmitype/StillImage" />
        <dc:title></dc:title>
      </cc:Work>
    </rdf:RDF>
  </metadata>
  <g
     inkscape:label="Calque 1"
     inkscape:groupmode="layer"
     id="layer1"
     transform="translate(0,-1036.3622)">
    <g
       id="g7142"
       transform="translate(0.459454,-0.2973)">
      <path
         style="fill:#cac9ca"
         d="m 2.9643884,1047.5265 c -0.1327785,-0.014 -0.4441923,-0.1255 -0.6920306,-0.2484 l -0.4506153,-0.2236 0.04521,-1.5592 0.04521,-1.5592 0.1262142,-0.126 c 0.069418,-0.069 0.6726095,-0.1452 1.340426,-0.1687 l 1.2142119,-0.043 -0.082759,-0.2209 -0.082759,-0.2209 0.2675704,-0.2221 0.2675706,-0.2221 1.4139515,-0.06 c 0.7776733,-0.033 2.8962152,-0.039 4.7078699,-0.013 l 3.293919,0.047 0,1.8243 0,1.8244 -0.912162,0 -0.912162,0 0,0.1766 0,0.1766 -1.672297,-0.025 c -0.9197636,-0.014 -2.1955825,0.014 -2.8351533,0.061 l -1.1628557,0.085 -0.1176957,0.3709 -0.1176957,0.3708 -0.6957999,0 -0.6957997,0 0,-0.2027 0,-0.2027 -0.9001993,0 -0.9001993,0 -0.1252771,0.2027 c -0.068903,0.1115 -0.2339141,0.1915 -0.3666927,0.1778 z m -0.1400641,-2.0342 0.5067568,0 -0.2533784,-0.1022 -0.2533784,-0.1022 -0.2533784,0.1022 -0.2533783,0.1022 0.5067567,0 z m 1.3513514,-0.6436 0.135135,-0.1352 -0.135135,-0.1351 -0.1351352,-0.1351 0,0.2702 0,0.2703 0.1351352,-0.1351 z m 1.2837838,0.067 0.2702702,0 -0.135135,-0.1351 -0.1351352,-0.1351 -0.1351352,0.1351 -0.135135,0.1351 0.2702702,0 z m 0.8108108,-0.2027 0.4054054,0 0,-0.304 0,-0.3041 -0.4054054,0 -0.4054054,0 0,0.3041 0,0.304 0.4054054,0 z m 1.7229729,-0.3558 0.5067568,-0.097 0,-0.2804 0,-0.2805 -0.1861243,0 c -0.1023681,0 -0.3304086,-0.055 -0.5067567,-0.123 l -0.3206325,-0.123 0,0.5003 0,0.5003 0.5067567,-0.097 z m -3.6148648,-0.1171 0.135135,-0.1352 -0.135135,-0.1351 -0.1351352,-0.1351 0,0.2702 0,0.2703 0.1351352,-0.1351 z m 4.7297297,-0.034 c 0.1114865,-0.069 0.2027027,-0.2111 0.2027027,-0.316 0,-0.1049 -0.091216,-0.1908 -0.2027027,-0.1908 l -0.2027027,0 0,0.316 0,0.3161 0.2027027,-0.1253 z m -6.1824324,-0.1525 0.8108108,0 -0.4584444,-0.088 c -0.2521445,-0.048 -0.6170093,-0.047 -0.8108109,0 l -0.3523663,0.092 0.8108108,0 z m 6.9256757,-0.016 0.135135,-0.1352 -0.135135,-0.1351 -0.1351352,-0.1351 0,0.2702 0,0.2703 0.1351352,-0.1351 z m 0.8783786,0.067 c 0.111486,0 0.202702,-0.091 0.202702,-0.2027 0,-0.1115 -0.09122,-0.2027 -0.202702,-0.2027 -0.111487,0 -0.202703,0.091 -0.202703,0.2027 0,0.1115 0.09122,0.2027 0.202703,0.2027 z m 0.810811,0 c 0.111486,0 0.202702,-0.091 0.202702,-0.2027 0,-0.1115 -0.09122,-0.2027 -0.202702,-0.2027 -0.111487,0 -0.202703,0.091 -0.202703,0.2027 0,0.1115 0.09122,0.2027 0.202703,0.2027 z m 1.351351,-0.067 0.135135,-0.1352 -0.135135,-0.1351 -0.135135,-0.1351 0,0.2702 0,0.2703 0.135135,-0.1351 z m 1.233108,0.053 c 0.02787,0.01 0.05068,-0.077 0.05068,-0.1885 l 0,-0.2027 -0.456081,0.014 -0.456081,0.014 0.405405,0.1742 c 0.222973,0.096 0.428209,0.1807 0.456081,0.1885 z m -8.4628378,-0.3912 0.2702702,0 -0.135135,-0.1351 -0.1351352,-0.1351 -0.1351352,0.1351 -0.135135,0.1351 0.2702702,0 z m 1.1148648,-0.4054 c 0.055743,0 0.1013514,-0.046 0.1013514,-0.1013 0,-0.056 -0.045608,-0.1014 -0.1013514,-0.1014 -0.055743,0 -0.1013513,0.046 -0.1013513,0.1014 0,0.056 0.045608,0.1013 0.1013513,0.1013 z m 0.1013514,-0.4054 0.2702702,0 -0.135135,-0.1351 -0.1351352,-0.1352 -0.1351352,0.1352 -0.135135,0.1351 0.2702702,0 z"
         id="path7164" />
      <path
         style="fill:#b2b2b2"
         d="m 5.8533708,1047.5514 -0.596614,0 -0.00142,-0.2534 -0.00142,-0.2534 -0.9107343,-0.041 -0.9107522,-0.041 0,0.1932 0,0.1933 -0.2636422,0 c -0.1450034,0 -0.5091566,-0.114 -0.8092294,-0.2534 -0.3000729,-0.1394 -0.5462987,-0.3218 -0.5471685,-0.4054 l -0.00158,-0.152 0.4560811,-0.028 0.4560811,-0.028 -0.4540799,-0.088 -0.4540799,-0.088 0.028113,-0.8477 c 0.015462,-0.4662 0.10352,-1.0528 0.1956844,-1.3037 l 0.1675717,-0.4561 0.5624495,0.024 0.5624495,0.024 -0.6081081,0.1547 -0.6081081,0.1548 1.03608,0.024 1.03608,0.024 -0.096873,0.5068 -0.096873,0.5067 0.2073561,0 0.2073564,0 -0.099958,-0.456 -0.099958,-0.4561 0.2264439,0.304 0.226444,0.3041 -0.1294834,-0.5574 -0.1294834,-0.5575 0.8665692,0 0.8665691,0 -0.1422987,-0.1423 -0.1422988,-0.1423 -0.6982664,0.047 -0.6982666,0.047 0.119009,-0.3101 0.119009,-0.3102 0.2823671,-0.025 c 0.1553019,-0.014 0.5104076,-0.025 0.7891238,-0.025 0.2787162,0 0.65475,0.011 0.8356308,0.025 l 0.3288737,0.025 -0.2781981,0.3547 -0.2781983,0.3548 0.3639545,-0.2859 0.3639546,-0.2858 -0.096541,-0.2516 -0.096541,-0.2516 0.3406948,0.066 c 0.1873821,0.036 1.8749106,0.073 3.7500632,0.081 l 3.409369,0.015 -0.06477,0.4561 -0.06477,0.4561 -0.557432,0.064 -0.557433,0.064 0,0.1639 0,0.1639 0.608108,0.1216 0.608108,0.1216 0,0.9172 0,0.9173 -0.152027,0.017 c -0.08362,0.01 -0.425675,0.057 -0.760135,0.1059 -0.334459,0.049 -0.815188,0.1948 -1.068285,0.3238 l -0.460177,0.2347 -0.193454,-0.1935 -0.193455,-0.1934 -2.2794063,0.1754 -2.2794059,0.1755 -0.2710241,0.3869 -0.271024,0.387 -0.5966141,0 z m 0.4449483,-0.4054 c 0.1030575,0 0.2422348,-0.143 0.3092823,-0.3177 l 0.121905,-0.3177 -0.229618,-0.2296 -0.2296181,-0.2296 -0.2093479,0.2093 -0.2093477,0.2094 0.1296833,0.3379 c 0.071326,0.1859 0.2140034,0.338 0.3170611,0.338 z m 6.0563389,-0.9142 0.206009,-0.1274 -0.116621,-0.1886 c -0.06414,-0.1038 -0.156845,-0.1887 -0.206009,-0.1887 -0.04916,0 -0.08939,0.1422 -0.08939,0.316 l 0,0.316 0.206009,-0.1273 z m -9.4289823,-0.5047 c 0.1540704,0 0.3365029,-0.091 0.4054054,-0.2027 l 0.1252771,-0.2027 -0.5306825,0 -0.5306826,0 0.1252772,0.2027 c 0.068902,0.1114 0.2513348,0.2027 0.4054054,0.2027 z m -0.5891312,-0.6082 0.2850771,0 0,-0.4054 0,-0.4054 -0.1790612,0 -0.1790612,0 -0.1060159,0.4054 -0.1060159,0.4054 0.2850771,0 z m 9.7436475,-0.152 0.10224,-0.2534 -0.10224,-0.2533 -0.10224,-0.2534 0,0.5067 0,0.5068 0.10224,-0.2534 z m -6.3166785,-0.1783 c 0.222973,-0.038 0.562171,-0.071 0.7537733,-0.072 l 0.3483679,0 -0.1166765,-0.304 -0.1166764,-0.3041 -0.8397996,0.028 -0.8397995,0.028 0.4560811,0.088 0.4560811,0.088 0,0.1738 c 0,0.096 -0.1140203,0.2129 -0.2533784,0.2608 l -0.2533784,0.087 0.4054054,-0.069 z m 2.0436055,-0.3574 c 0.1763481,-0.068 0.4043886,-0.1231 0.5067567,-0.1231 l 0.1861243,0 0,-0.3817 0,-0.3818 -0.5067568,-0.097 -0.5067567,-0.097 0,0.6017 0,0.6017 0.3206325,-0.123 z m 5.8618,0.08 c 0.05574,0 0.101351,-0.046 0.101351,-0.1013 0,-0.056 -0.04561,-0.1014 -0.101351,-0.1014 -0.05574,0 -0.101351,0.046 -0.101351,0.1014 0,0.056 0.04561,0.1013 0.101351,0.1013 z m -4.5608109,-0.2027 0.2027027,0 0,-0.304 0,-0.3041 -0.2027027,0 -0.2027027,0 0,0.3041 0,0.304 0.2027027,0 z m 0.8108108,-0.1013 c 0.1114861,-0.069 0.2027031,-0.2111 0.2027031,-0.316 0,-0.1049 -0.09122,-0.1908 -0.2027031,-0.1908 l -0.2027027,0 0,0.316 0,0.3161 0.2027027,-0.1253 z m 0.8108111,-0.1014 c 0.111486,0 0.202702,-0.091 0.202702,-0.2027 0,-0.1115 -0.09122,-0.2027 -0.202702,-0.2027 -0.111487,0 -0.202703,0.091 -0.202703,0.2027 0,0.1115 0.09122,0.2027 0.202703,0.2027 z m 0.810811,0 c 0.111486,0 0.202702,-0.091 0.202702,-0.2027 0,-0.1115 -0.09122,-0.2027 -0.202702,-0.2027 -0.111487,0 -0.202703,0.091 -0.202703,0.2027 0,0.1115 0.09122,0.2027 0.202703,0.2027 z m 0.743243,-0.067 0.135135,-0.1352 -0.135135,-0.1351 -0.135135,-0.1351 0,0.2702 0,0.2703 0.135135,-0.1351 z m 0.608108,0 0.135135,-0.1352 -0.135135,-0.1351 -0.135135,-0.1351 0,0.2702 0,0.2703 0.135135,-0.1351 z m -5.8108109,-0.2365 c 0.1114865,-0.069 0.2027027,-0.1709 0.2027027,-0.2266 0,-0.056 -0.091216,-0.045 -0.2027027,0.024 -0.1114865,0.069 -0.2027027,0.1709 -0.2027027,0.2266 0,0.056 0.091216,0.045 0.2027027,-0.024 z m -1.0909391,-0.5068 c 0.055743,0 0.044977,-0.091 -0.023926,-0.2027 -0.068903,-0.1115 -0.1708853,-0.2027 -0.2266285,-0.2027 -0.055743,0 -0.044977,0.091 0.023926,0.2027 0.068903,0.1115 0.1708853,0.2027 0.2266285,0.2027 z M 3.5337838,1043.7 c -0.055743,0 -0.1013514,-0.046 -0.1013514,-0.1013 0,-0.056 0.045608,-0.1014 0.1013514,-0.1014 0.055743,0 0.1013513,0.046 0.1013513,0.1014 0,0.056 -0.045608,0.1013 -0.1013513,0.1013 z m 0.5067567,0 -0.2702702,0 0.135135,-0.1351 0.1351352,-0.1351 0.1351352,0.1351 0.135135,0.1351 -0.2702702,0 z"
         id="path7162" />
      <path
         style="fill:#d89a9a"
         d="m 5.8401408,1047.5514 -0.583384,0 0,-0.2568 0,-0.2568 -0.8614865,-0.025 -0.8614865,-0.025 -0.2472256,0.2005 -0.2472257,0.2005 -0.6142608,-0.2719 c -0.3378435,-0.1495 -0.6142609,-0.3351 -0.6142609,-0.4123 l 0,-0.1403 0.6587838,-0.082 0.6587838,-0.082 -0.6587838,-0.032 -0.6587838,-0.032 0,-0.5068 0,-0.5067 0.2054531,0 c 0.1129993,0 0.3843712,0.1117 0.6030488,0.2483 l 0.3975957,0.2483 0.2549417,-0.255 0.2549419,-0.2549 -0.4290363,-0.1122 -0.4290362,-0.1122 0.1098155,-0.42 0.1098155,-0.4199 -0.4376982,0.1145 -0.4376982,0.1144 0.113594,-0.1838 0.1135939,-0.1838 0.9001993,0 0.9001992,0 0,0.5068 0,0.5067 0.444148,0 0.4441478,0 -0.3396333,-0.2533 -0.3396334,-0.2534 0.1218298,-0.4561 0.1218296,-0.4561 0.9391962,-0.01 0.9391964,-0.01 -0.3130184,-0.1833 -0.3130185,-0.1832 -0.5484679,0.06 -0.5484682,0.06 0,-0.1512 c 0,-0.083 0.2036634,-0.2045 0.4525851,-0.2695 l 0.4525853,-0.1184 0.1960634,0.1961 c 0.107835,0.1078 0.2744199,0.196 0.3701886,0.196 l 0.1741251,0 -0.1252772,-0.2027 -0.1252771,-0.2027 0.4421882,0 0.442188,0 -0.1768467,0.263 c -0.097266,0.1446 -0.023635,0.097 0.1636244,-0.1062 l 0.3404713,-0.3692 3.51088,0.055 3.51088,0.056 0,0.4054 0,0.4054 -0.557432,0.064 -0.557433,0.064 0,0.1639 0,0.1639 0.608108,0.1216 0.608108,0.1216 0,0.8994 0,0.8994 -0.861486,0.1421 c -0.473818,0.078 -0.982914,0.2403 -1.131325,0.3604 l -0.269838,0.2182 -0.33827,-0.2049 -0.33827,-0.2049 -2.2297295,0.1738 -2.2297298,0.1738 -0.2781024,0.398 -0.2781024,0.3981 -0.5833841,0 z m 0.4809118,-0.4551 0.2532717,-0.083 0.064774,-0.4402 0.064774,-0.4402 -0.3061893,0 c -0.1684042,0 -0.3652636,0.096 -0.4374657,0.2124 l -0.1312763,0.2124 0.11942,0.3112 0.1194201,0.3112 0.2532718,-0.083 z m 5.9120554,-0.7611 0.320946,0 0,-0.321 0,-0.3209 -0.240709,0.08 c -0.132391,0.044 -0.276816,0.1886 -0.320946,0.321 l -0.08024,0.2407 0.320946,0 z m -0.152916,-1.3683 0.10224,-0.2534 -0.10224,-0.2533 -0.10224,-0.2534 0,0.5067 0,0.5068 0.10224,-0.2534 z m -6.240665,-0.1229 c 0.3762669,-0.072 0.832348,-0.1319 1.0135135,-0.1336 l 0.3293919,0 -0.2910198,-0.1841 -0.2910199,-0.1842 0.2651641,-0.3195 C 7.011397,1043.8438 7.216915,1043.7 7.3222632,1043.7 l 0.1915425,0 -0.1380896,0.4351 -0.1380897,0.4351 0.4791597,-0.1283 c 0.2635379,-0.071 0.547572,-0.1295 0.6311869,-0.131 l 0.152027,0 0,-0.3834 0,-0.3834 -0.5331943,-0.1338 -0.533194,-0.1339 -0.4427082,0.4159 -0.442708,0.4159 -0.7718906,0 -0.7718905,0 0.2257638,0.2721 0.225764,0.272 -0.1502684,0.1625 -0.1502684,0.1625 0.6841216,-0.1305 z m -0.04223,-0.198 -0.1351352,0.1351 0,-0.2703 0,-0.2702 0.1351352,0.1351 0.135135,0.1351 -0.135135,0.1352 z m -1.1486488,0.068 c 0.1114865,0 0.2027028,-0.091 0.2027028,-0.2027 0,-0.1114 -0.091216,-0.2027 -0.2027028,-0.2027 -0.1114864,0 -0.2027027,0.091 -0.2027027,0.2027 0,0.1115 0.091216,0.2027 0.2027027,0.2027 z m 6.6891898,-0.2027 0.27027,0 -0.135135,-0.1351 -0.135135,-0.1351 -0.135135,0.1351 -0.135135,0.1351 0.27027,0 z m 2.331081,0 c 0.05574,0 0.101351,-0.046 0.101351,-0.1013 0,-0.056 -0.04561,-0.1014 -0.101351,-0.1014 -0.05574,0 -0.101351,0.046 -0.101351,0.1014 0,0.056 0.04561,0.1013 0.101351,0.1013 z m -4.5608113,-0.2027 0.2027027,0 0,-0.304 0,-0.3041 -0.2027027,0 -0.2027027,0 0,0.3041 0,0.304 0.2027027,0 z m 0.8108108,-0.1013 c 0.1114865,-0.069 0.2027035,-0.2111 0.2027035,-0.316 0,-0.1049 -0.09122,-0.1908 -0.2027035,-0.1908 l -0.2027027,0 0,0.316 0,0.3161 0.2027027,-0.1253 z m 0.8108115,-0.1014 c 0.111486,0 0.202702,-0.091 0.202702,-0.2027 0,-0.1115 -0.09122,-0.2027 -0.202702,-0.2027 -0.111487,0 -0.202703,0.091 -0.202703,0.2027 0,0.1115 0.09122,0.2027 0.202703,0.2027 z m 0.810811,0 c 0.111486,0 0.202702,-0.091 0.202702,-0.2027 0,-0.1115 -0.09122,-0.2027 -0.202702,-0.2027 -0.111487,0 -0.202703,0.091 -0.202703,0.2027 0,0.1115 0.09122,0.2027 0.202703,0.2027 z m 0.743243,-0.067 0.135135,-0.1352 -0.135135,-0.1351 -0.135135,-0.1351 0,0.2702 0,0.2703 0.135135,-0.1351 z m 0.608108,0 0.135135,-0.1352 -0.135135,-0.1351 -0.135135,-0.1351 0,0.2702 0,0.2703 0.135135,-0.1351 z m -3.4797302,-0.946 c 0.055743,0 0.1013513,-0.046 0.1013513,-0.1013 0,-0.056 -0.045608,-0.1014 -0.1013513,-0.1014 -0.055743,0 -0.1013514,0.046 -0.1013514,0.1014 0,0.056 0.045608,0.1013 0.1013514,0.1013 z m -7.5,2.027 c -0.055743,0 -0.1013514,-0.046 -0.1013514,-0.1013 0,-0.056 0.045608,-0.1014 0.1013514,-0.1014 0.055743,0 0.1013513,0.046 0.1013513,0.1014 0,0.056 -0.045608,0.1013 -0.1013513,0.1013 z m 0.9121621,-1.2482 -0.5067567,0 0.2533783,-0.1022 0.2533784,-0.1023 0.2533784,0.1023 0.2533784,0.1022 -0.5067568,0 z"
         id="path7160" />
      <path
         style="fill:#929192"
         d="m 5.857733,1047.5514 -0.6009762,0 0,-0.2643 0,-0.2643 -0.8614865,-0.02 -0.8614865,-0.02 -0.2472256,0.203 -0.2472257,0.2029 -0.6142608,-0.2719 c -0.3378435,-0.1495 -0.6142609,-0.3351 -0.6142609,-0.4123 l 0,-0.1403 0.6587838,-0.082 0.6587838,-0.082 -0.6587838,-0.032 -0.6587838,-0.032 0,-0.5068 0,-0.5067 0.1907398,0 c 0.1049069,0 0.2471145,0.091 0.316017,0.2027 l 0.1252771,0.2027 0.3814796,0 0.3814796,0 0.1337094,-0.2164 0.1337092,-0.2163 -0.4022516,-0.1052 -0.4022514,-0.1052 0.1098155,-0.42 0.1098155,-0.4199 -0.4376982,0.1145 -0.4376982,0.1144 0.113594,-0.1838 0.1135939,-0.1838 0.9232058,0 0.9232061,0 -0.090529,0.6168 -0.090529,0.6169 0.2868037,-0.1101 c 0.157742,-0.061 0.3879936,-0.1101 0.5116703,-0.1101 l 0.2248666,0 -0.3934721,-0.3045 -0.3934723,-0.3046 0.3547297,0.1236 0.3547298,0.1235 0,-0.3377 0,-0.3377 -0.2027028,0.1253 -0.2027027,0.1253 0,-0.3161 0,-0.316 0.1520271,0.024 c 0.083615,0.013 0.5168919,0.011 0.9628378,-0.01 l 0.8108108,-0.03 -0.3130184,-0.1833 -0.3130185,-0.1832 -0.5484679,0.06 -0.5484682,0.06 0,-0.1512 c 0,-0.083 0.2036634,-0.2045 0.4525851,-0.2695 l 0.4525853,-0.1184 0.1960634,0.1961 c 0.107835,0.1078 0.2744199,0.196 0.3701886,0.196 l 0.1741251,0 -0.1252772,-0.2027 -0.1252771,-0.2027 0.4421882,0 0.442188,0 -0.1768467,0.263 c -0.097266,0.1446 -0.025401,0.099 0.1596989,-0.1014 l 0.3365457,-0.3643 2.0146277,0 c 1.1080452,0 2.7165562,0.059 3.5744692,0.1319 l 1.559842,0.1318 -0.0614,0.3243 -0.0614,0.3242 -0.5557,0.064 -0.555699,0.064 0,0.1639 0,0.1639 0.608108,0.1216 0.608108,0.1216 0,0.9172 0,0.9173 -0.304054,0 -0.304054,0 -0.03654,-0.9629 -0.03654,-0.9628 -0.0745,0.9281 -0.0745,0.9281 -0.809112,0.357 -0.809112,0.3569 -0.294985,-0.2448 -0.294986,-0.2448 -0.406485,0.1063 -0.406485,0.1063 -0.0375,-1.0452 -0.0375,-1.0452 -0.07445,1.0642 -0.07445,1.0642 -0.5975148,0 -0.5975149,0 -0.037496,-1.0642 -0.037497,-1.0642 -0.073836,1.0465 -0.073836,1.0466 -1.0068227,0.1384 -1.0068225,0.1385 -0.2065443,0.3859 -0.2065445,0.386 -0.6009762,0 z m 0.4633196,-0.4551 0.2532717,-0.083 0.064774,-0.4402 0.064774,-0.4402 -0.3061893,0 c -0.1684042,0 -0.3652636,0.096 -0.4374657,0.2124 l -0.1312763,0.2124 0.11942,0.3112 0.1194201,0.3112 0.2532718,-0.083 z m 5.9120554,-0.7611 0.320946,0 0,-0.321 0,-0.3209 -0.240709,0.08 c -0.132391,0.044 -0.276816,0.1886 -0.320946,0.321 l -0.08024,0.2407 0.320946,0 z m -0.138848,-1.3176 c 0.05571,-0.223 0.204755,-0.4724 0.331216,-0.5543 l 0.229929,-0.149 -0.81081,0.024 -0.810811,0.024 0.456081,0.088 0.456081,0.088 0.02351,0.442 0.02351,0.442 0.101286,-0.4054 z m -6.5925709,-0.1014 c 0.1718751,0 0.6049083,-0.058 0.962296,-0.1299 l 0.6497962,-0.13 -0.2566942,-0.1586 -0.2566944,-0.1587 0.2651641,-0.3195 C 7.011397,1043.8438 7.216915,1043.7 7.3222632,1043.7 l 0.1915425,0 -0.1232564,0.3884 -0.1232564,0.3883 0.249661,0.1543 0.2496608,0.1543 0.07953,-0.2386 0.079531,-0.2386 0.2871621,0 0.2871622,0 0,-0.3834 0,-0.3834 -0.5331943,-0.1338 -0.533194,-0.1339 -0.4427082,0.4159 -0.442708,0.4159 -0.7718906,0 -0.7718905,0 0.2257638,0.2721 0.225764,0.272 -0.1333766,0.1334 -0.1333763,0.1333 0.3124998,0 z m 0.2956083,-0.2702 -0.1351352,0.1351 0,-0.2703 0,-0.2702 0.1351352,0.1351 0.135135,0.1351 -0.135135,0.1352 z m 3.3108107,-0.3379 0.2027027,0 0,-0.304 0,-0.3041 -0.2027027,0 -0.2027027,0 0,0.3041 0,0.304 0.2027027,0 z m 0.8108108,-0.1013 c 0.1114861,-0.069 0.2027031,-0.2111 0.2027031,-0.316 0,-0.1049 -0.09122,-0.1908 -0.2027031,-0.1908 l -0.2027027,0 0,0.316 0,0.3161 0.2027027,-0.1253 z m 0.8108111,-0.1014 c 0.111486,0 0.202702,-0.091 0.202702,-0.2027 0,-0.1115 -0.09122,-0.2027 -0.202702,-0.2027 -0.111487,0 -0.202703,0.091 -0.202703,0.2027 0,0.1115 0.09122,0.2027 0.202703,0.2027 z m 0.810811,0 c 0.111486,0 0.202702,-0.091 0.202702,-0.2027 0,-0.1115 -0.09122,-0.2027 -0.202702,-0.2027 -0.111487,0 -0.202703,0.091 -0.202703,0.2027 0,0.1115 0.09122,0.2027 0.202703,0.2027 z m 0.743243,-0.067 0.135135,-0.1352 -0.135135,-0.1351 -0.135135,-0.1351 0,0.2702 0,0.2703 0.135135,-0.1351 z m 0.608108,0 0.135135,-0.1352 -0.135135,-0.1351 -0.135135,-0.1351 0,0.2702 0,0.2703 0.135135,-0.1351 z m -3.4797298,-0.946 c 0.055743,0 0.1013513,-0.046 0.1013513,-0.1013 0,-0.056 -0.045608,-0.1014 -0.1013513,-0.1014 -0.055743,0 -0.1013514,0.046 -0.1013514,0.1014 0,0.056 0.045608,0.1013 0.1013514,0.1013 z m -7.5,2.027 c -0.055743,0 -0.1013514,-0.046 -0.1013514,-0.1013 0,-0.056 0.045608,-0.1014 0.1013514,-0.1014 0.055743,0 0.1013513,0.046 0.1013513,0.1014 0,0.056 -0.045608,0.1013 -0.1013513,0.1013 z m 0.9121621,-1.2482 -0.5067567,0 0.2533783,-0.1022 0.2533784,-0.1023 0.2533784,0.1023 0.2533784,0.1022 -0.5067568,0 z"
         id="path7158" />
      <path
         style="fill:#a95a59"
         d="m 5.8078274,1047.5483 -0.3610916,0 -0.1166765,-0.3041 -0.1166765,-0.304 -0.7918743,0 -0.7918743,0 -0.4088398,0.2534 -0.40884,0.2533 -0.1458421,-0.2299 c -0.080213,-0.1265 -0.2826664,-0.2743 -0.4498961,-0.3286 l -0.304054,-0.099 0.573721,0.073 0.573721,0.073 0.2825562,-0.2826 0.2825564,-0.2826 -0.3010621,-0.1155 -0.3010619,-0.1155 -0.605891,0.1212 -0.605891,0.1211 0,-0.5321 0,-0.532 0.1778828,0 c 0.097836,0 0.291437,0.1368 0.4302253,0.304 0.1387884,0.1672 0.3451379,0.3041 0.4585545,0.3041 0.1134166,0 0.3074842,-0.1311 0.4312611,-0.2914 l 0.2250493,-0.2913 1.5624004,-0.3168 c 0.8593202,-0.1742 1.8398945,-0.3168 2.179054,-0.3168 l 0.6166537,0 0,-0.2027 0,-0.2027 0.304054,0 0.3040541,0 0,-0.3834 0,-0.3834 -0.5305934,-0.1332 -0.5305934,-0.1332 -0.3923598,0.3551 -0.3923599,0.3551 -1.1040738,0.1215 -1.1040738,0.1215 0,-0.141 c 0,-0.077 0.1442846,-0.1964 0.3206325,-0.264 0.1763482,-0.068 0.6421055,-0.1231 1.0350163,-0.1231 l 0.7143837,0 0.3986148,-0.5067 0.3986149,-0.5068 1.9817315,0 c 1.0899524,0 2.6836604,0.059 3.5415734,0.1319 l 1.559842,0.1318 -0.0614,0.3243 -0.0614,0.3242 -0.5557,0.064 -0.555699,0.064 0,0.1892 c 0,0.1041 0.09122,0.1892 0.202703,0.1892 l 0.202703,0 0,1.0135 0,1.0136 -0.186125,0 c -0.102368,0 -0.318421,0.051 -0.480117,0.1128 l -0.293993,0.1128 -0.114347,-0.4373 -0.114348,-0.4372 -0.234005,0.1446 -0.234005,0.1446 0.09998,0.3823 0.09998,0.3824 -0.169666,0.1048 -0.169667,0.1049 -0.127321,-0.206 -0.12732,-0.206 -0.494794,0 -0.494794,0 0,-0.9122 0,-0.9122 0.709459,0 0.70946,0 0.02351,0.4561 0.02351,0.4561 0.101286,-0.4054 c 0.05571,-0.223 0.204755,-0.4724 0.331216,-0.5543 l 0.229929,-0.149 -0.861486,0 -0.861487,0 0,-0.4223 0,-0.4223 -0.253378,0.089 -0.253378,0.089 0.02815,0.3329 0.02815,0.3329 -0.156539,0 c -0.0861,0 -0.224365,-0.2052 -0.307264,-0.456 l -0.1507261,-0.4561 -0.089716,0.4561 -0.089717,0.456 -0.1886046,0 -0.1886045,0 0,-0.4054 0,-0.4054 -0.2172093,0 -0.2172091,0 0.036944,0.4561 c 0.020319,0.2509 0.026847,0.9246 0.014507,1.4973 l -0.022438,1.0411 -0.9484883,0.1423 -0.9484883,0.1422 -0.3412654,-0.4524 -0.3412656,-0.4524 -0.2305164,0.1424 -0.2305165,0.1425 0,0.4948 0,0.4948 0.456081,0 0.4560811,0 -0.304054,0.1965 c -0.1672298,0.1081 -0.4665452,0.1979 -0.6651456,0.1996 z m 5.6144696,-3.4429 0.320946,0 0,-0.3209 0,-0.321 -0.240709,0.08 c -0.13239,0.044 -0.276816,0.1885 -0.320946,0.3209 l -0.08024,0.2407 0.320946,0 z m 0.726352,0 c 0.111486,0 0.202702,-0.091 0.202702,-0.2027 0,-0.1115 -0.09122,-0.2027 -0.202702,-0.2027 -0.111487,0 -0.202703,0.091 -0.202703,0.2027 0,0.1115 0.09122,0.2027 0.202703,0.2027 z m 0.721422,0 c 0.04916,0 0.08939,-0.091 0.08939,-0.2027 l 0,-0.2027 -0.214665,0 -0.214666,0 0.125277,0.2027 c 0.0689,0.1115 0.165502,0.2027 0.214666,0.2027 z m -3.2383143,-1.0295 0.3885133,-0.016 -0.266047,-0.1064 -0.2660473,-0.1065 -0.1224663,0.1225 -0.1224661,0.1224 0.3885134,-0.016 z m 0.084459,3.462 -0.6081081,0 0,-1.0135 0,-1.0136 0.6081081,0 0.6081083,0 0,1.0136 0,1.0135 -0.6081083,0 z m 4.3581083,-0.4054 -0.304054,0 0,-0.9122 0,-0.9122 0.304054,0 0.304054,0 0,0.9122 0,0.9122 -0.304054,0 z m -12.1621623,-1.0136 c -0.055743,0 -0.1013514,-0.046 -0.1013514,-0.1013 0,-0.056 0.045608,-0.1014 0.1013514,-0.1014 0.055743,0 0.1013513,0.046 0.1013513,0.1014 0,0.056 -0.045608,0.1013 -0.1013513,0.1013 z m 1.7736486,-0.05 -0.2533784,0.083 0,-0.4074 0,-0.4074 -0.3547297,-0.093 -0.3547297,-0.093 0.6728819,-0.024 0.672882,-0.024 -0.064774,0.4402 -0.064774,0.4402 -0.2533784,0.084 z m -0.7263513,-0.2206 -0.1351352,0.1351 0,-0.2703 0,-0.2702 0.1351352,0.1351 0.135135,0.1351 -0.135135,0.1352 z m 1.5878378,0.067 c -0.055743,0 -0.1013514,-0.046 -0.1013514,-0.1013 0,-0.056 0.045608,-0.1014 0.1013514,-0.1014 0.055743,0 0.1013513,0.046 0.1013513,0.1014 0,0.056 -0.045608,0.1013 -0.1013513,0.1013 z m 0.641892,-0.2702 -0.1351352,0.1351 0,-0.2703 0,-0.2702 0.1351352,0.1351 0.135135,0.1351 -0.135135,0.1352 z m 0.6081081,0 -0.1351352,0.1351 0,-0.2703 0,-0.2702 0.1351352,0.1351 0.135135,0.1351 -0.135135,0.1352 z m 1.3926748,-0.1383 c -0.00415,0 -0.1258776,-0.078 -0.2705129,-0.1699 l -0.2629733,-0.1668 0.3022054,-0.2508 0.3022052,-0.2508 -0.031692,0.4207 c -0.01743,0.2314 -0.035085,0.4193 -0.039232,0.4176 z m -4.8724046,-0.1996 c -0.055743,0 -0.1013514,-0.046 -0.1013514,-0.1013 0,-0.056 0.045608,-0.1014 0.1013514,-0.1014 0.055743,0 0.1013513,0.046 0.1013513,0.1014 0,0.056 -0.045608,0.1013 -0.1013513,0.1013 z m 4.2905406,-1.0415 -0.2702704,0.2243 0,-0.3008 0,-0.3009 0.2702704,0 c 0.1486486,0 0.2702702,0.034 0.2702702,0.077 0,0.042 -0.1216216,0.1774 -0.2702702,0.3008 z m -1.2500001,0.028 c -0.055743,0 -0.1013513,-0.046 -0.1013513,-0.1013 0,-0.056 0.045608,-0.1014 0.1013513,-0.1014 0.055743,0 0.1013514,0.046 0.1013514,0.1014 0,0.056 -0.045608,0.1013 -0.1013514,0.1013 z"
         id="path7156" />
      <path
         style="fill:#ea2c2d"
         d="m 5.8078274,1047.5483 -0.3610916,0 -0.1166765,-0.3041 -0.1166765,-0.304 -0.8785123,0 -0.8785123,0 -0.1252771,0.2027 c -0.068903,0.1115 -0.2567181,0.2027 -0.4173683,0.2027 l -0.2920912,0 0,-0.2027 0,-0.2027 0.2171815,0 c 0.1194498,0 0.3466758,-0.1295 0.5049469,-0.2878 l 0.2877655,-0.2878 -0.5556227,-0.2029 -0.5556225,-0.203 0.3547297,-0.016 0.3547297,-0.016 0,-0.187 0,-0.187 0.6587838,-0.2111 c 0.3623311,-0.1162 0.9324324,-0.2643 1.2668919,-0.3292 0.3344595,-0.065 1.3150338,-0.1724 2.1790541,-0.239 l 1.5709459,-0.1209 0,0.9148 0,0.9147 -0.9628378,0.1134 -0.9628379,0.1134 -0.3269158,-0.4202 -0.3269161,-0.4202 -0.2305164,0.1424 -0.2305165,0.1425 0,0.4948 0,0.4948 0.456081,0 0.4560811,0 -0.304054,0.1965 c -0.1672298,0.1081 -0.4665452,0.1979 -0.6651456,0.1996 z m -3.6760706,-0.621 -0.3885135,0.016 0.1224662,-0.1225 0.1224662,-0.1225 0.2660473,0.1065 0.2660473,0.1065 -0.3885135,0.016 z m 9.8091662,-0.285 -0.169667,0.1049 -0.127321,-0.206 -0.12732,-0.206 -0.393443,0 -0.393442,0 -0.0028,-0.4561 c -0.0015,-0.2509 -0.05777,-0.6613 -0.124993,-0.9122 l -0.122225,-0.4561 0.719003,0 0.719003,0 0.08784,0.4561 0.08784,0.4561 0.0276,-0.4561 0.02761,-0.4561 0.709459,0 0.70946,0 0,0.8109 0,0.8108 -0.380586,0 -0.380586,0 -0.25049,-0.3019 -0.25049,-0.3018 -0.197394,0.122 -0.197394,0.122 0.09998,0.3823 0.09998,0.3824 -0.169666,0.1048 z m -2.4439879,-0.1044 -0.1861243,0 0,-1.0135 0,-1.0136 0.5067568,0 0.5067564,0 0,0.8905 0,0.8905 -0.320632,0.123 c -0.1763483,0.068 -0.4043888,0.1231 -0.5067569,0.1231 z m -7.3820702,-0.2027 -0.3040541,0 0,-0.4054 0,-0.4054 0.3040541,0 0.304054,0 0,0.4054 0,0.4054 -0.304054,0 z m 11.9847971,-0.2027 -0.329392,0 0,-0.9122 0,-0.9122 0.202703,0 0.202703,0 0,0.2788 c 0,0.1532 0.05701,0.5637 0.126689,0.9121 l 0.126689,0.6335 -0.329392,0 z m -12.1874998,-1.0136 c -0.055743,0 -0.1013514,-0.046 -0.1013514,-0.1013 0,-0.056 0.045608,-0.1014 0.1013514,-0.1014 0.055743,0 0.1013513,0.046 0.1013513,0.1014 0,0.056 -0.045608,0.1013 -0.1013513,0.1013 z m 1.7736486,-0.05 -0.2533784,0.083 0,-0.4074 0,-0.4074 -0.3547297,-0.093 -0.3547297,-0.093 0.6728819,-0.024 0.672882,-0.024 -0.064774,0.4402 -0.064774,0.4402 -0.2533784,0.084 z m -0.7263513,-0.2206 -0.1351352,0.1351 0,-0.2703 0,-0.2702 0.1351352,0.1351 0.135135,0.1351 -0.135135,0.1352 z m 1.5878378,0.067 c -0.055743,0 -0.1013514,-0.046 -0.1013514,-0.1013 0,-0.056 0.045608,-0.1014 0.1013514,-0.1014 0.055743,0 0.1013513,0.046 0.1013513,0.1014 0,0.056 -0.045608,0.1013 -0.1013513,0.1013 z m 0.641892,-0.2702 -0.1351352,0.1351 0,-0.2703 0,-0.2702 0.1351352,0.1351 0.135135,0.1351 -0.135135,0.1352 z m 0.6081081,0 -0.1351352,0.1351 0,-0.2703 0,-0.2702 0.1351352,0.1351 0.135135,0.1351 -0.135135,0.1352 z m 1.3926748,-0.1383 c -0.00415,0 -0.1258776,-0.078 -0.2705129,-0.1699 l -0.2629733,-0.1668 0.3022054,-0.2508 0.3022052,-0.2508 -0.031692,0.4207 c -0.01743,0.2314 -0.035085,0.4193 -0.039232,0.4176 z m 1.2312429,-0.02 -0.6306746,-0.024 0.3547298,-0.093 0.3547297,-0.093 0,-0.3686 0,-0.3685 -0.5023498,-0.1261 -0.5023496,-0.1261 -0.7615403,0.4082 -0.7615404,0.4081 -0.6737485,0 -0.6737486,0 0.1003103,-0.1623 0.1003103,-0.1623 0.859903,-0.051 c 0.4729465,-0.028 0.9348794,-0.097 1.0265175,-0.1537 0.091638,-0.057 0.1666145,-0.2 0.1666145,-0.3186 l 0,-0.2155 -0.2702702,0.2243 -0.2702704,0.2243 0,-0.3079 0,-0.3078 0.3209461,0.053 c 0.1765202,0.029 0.4297352,-0.016 0.5626998,-0.099 l 0.241754,-0.1517 3.3562193,0.1375 3.356219,0.1376 0,0.374 0,0.3739 -0.506757,0 -0.506757,0 0,0.1858 c 0,0.1022 0.11402,0.2319 0.253379,0.2881 l 0.253378,0.1022 -1.368243,0.016 -1.368244,0.016 0,-0.4223 0,-0.4223 -0.253378,0.089 -0.253378,0.089 0.02815,0.3329 0.02815,0.3329 -0.156539,0 c -0.0861,0 -0.224365,-0.2052 -0.307264,-0.456 l -0.1507261,-0.4561 -0.089716,0.4561 -0.089717,0.456 -0.1886046,0 -0.1886045,0 0,-0.4054 0,-0.4054 -0.2263332,0 -0.2263331,0 0.096873,0.5068 0.096873,0.5067 -0.6306746,-0.024 z m 3.0010819,-0.3819 0.320946,0 0,-0.3209 0,-0.321 -0.240709,0.08 c -0.13239,0.044 -0.276816,0.1885 -0.320946,0.3209 l -0.08024,0.2407 0.320946,0 z m 0.726352,0 c 0.111486,0 0.202702,-0.091 0.202702,-0.2027 0,-0.1115 -0.09122,-0.2027 -0.202702,-0.2027 -0.111487,0 -0.202703,0.091 -0.202703,0.2027 0,0.1115 0.09122,0.2027 0.202703,0.2027 z m 0.721422,0 c 0.04916,0 0.08939,-0.091 0.08939,-0.2027 l 0,-0.2027 -0.214665,0 -0.214666,0 0.125277,0.2027 c 0.0689,0.1115 0.165502,0.2027 0.214666,0.2027 z m -0.01196,-0.666 1.013514,0 -0.453294,-0.088 c -0.249312,-0.048 -0.705393,-0.049 -1.013514,0 l -0.560219,0.085 1.013513,0 z m -3.1278854,-0.2548 c 0.1037829,-0.064 0.1886963,-0.1568 0.1886963,-0.206 0,-0.049 -0.1422077,-0.089 -0.3160169,-0.089 l -0.316017,0 0.1273206,0.206 0.1273208,0.206 0.1886962,-0.1166 z m -7.412655,1.1235 c -0.055743,0 -0.1013514,-0.046 -0.1013514,-0.1013 0,-0.056 0.045608,-0.1014 0.1013514,-0.1014 0.055743,0 0.1013513,0.046 0.1013513,0.1014 0,0.056 -0.045608,0.1013 -0.1013513,0.1013 z m 3.0405405,-1.0135 c -0.055743,0 -0.1013513,-0.046 -0.1013513,-0.1013 0,-0.056 0.045608,-0.1014 0.1013513,-0.1014 0.055743,0 0.1013514,0.046 0.1013514,0.1014 0,0.056 -0.045608,0.1013 -0.1013514,0.1013 z"
         id="path7154" />
      <path
         style="fill:#6a6868"
         d="m 5.8078274,1047.5483 -0.3610916,0 -0.1166765,-0.3041 -0.1166765,-0.304 -0.8785123,0 -0.8785123,0 -0.1252771,0.2027 c -0.068903,0.1115 -0.2567181,0.2027 -0.4173683,0.2027 l -0.2920912,0 0,-0.2027 0,-0.2027 0.2171815,0 c 0.1194498,0 0.3466758,-0.1295 0.5049469,-0.2878 l 0.2877655,-0.2878 -0.5556227,-0.2029 -0.5556225,-0.203 0.3547297,-0.016 0.3547297,-0.016 0,-0.187 0,-0.187 0.6587838,-0.2111 c 0.3623311,-0.1162 0.9240132,-0.2566 1.2481822,-0.3122 0.3241693,-0.055 0.9854869,-0.1604 1.4695946,-0.233 l 0.8801962,-0.132 0,1.0365 0,1.0366 -0.27933,0 -0.27933,0 -0.292152,-0.44 -0.2921521,-0.44 -0.2393287,0.1479 -0.2393288,0.1479 0,0.4948 0,0.4948 0.456081,0 0.4560811,0 -0.304054,0.1965 c -0.1672298,0.1081 -0.4665452,0.1979 -0.6651456,0.1996 z m -3.6760706,-0.621 -0.3885135,0.016 0.1224662,-0.1225 0.1224662,-0.1225 0.2660473,0.1065 0.2660473,0.1065 -0.3885135,0.016 z m 9.8315022,-0.2988 -0.192003,0.1187 -0.134441,-0.2175 -0.134441,-0.2176 0.124297,-0.4952 0.124296,-0.4952 0.198841,0 0.198841,0 0.02351,-0.4561 0.02351,-0.4561 0.0997,0.3911 c 0.05484,0.215 0.226686,0.518 0.381892,0.6732 0.155206,0.1552 0.282192,0.3811 0.282192,0.5019 l 0,0.2196 -0.401179,-0.3631 -0.401179,-0.363 -0.12354,0.3219 -0.123539,0.3219 0.12262,0.1985 0.12262,0.1984 -0.192003,0.1186 z m -2.3315023,-0.1066 -0.3885134,0.016 0.1224661,-0.1225 0.1224663,-0.1225 0.2660473,0.1065 0.266047,0.1065 -0.3885133,0.016 z m -7.5168918,-0.1867 -0.3040541,0 0,-0.4054 0,-0.4054 0.3040541,0 0.304054,0 0,0.4054 0,0.4054 -0.304054,0 z m 11.7580691,-0.3041 c -0.03886,0.1115 -0.07786,-0.2306 -0.08666,-0.7601 l -0.016,-0.9629 0.162,0 0.162,0 -0.07534,0.7602 c -0.04144,0.418 -0.107136,0.8513 -0.145997,0.9628 z m 0.436988,-0.051 -0.102241,0.2534 0,-0.5067 0,-0.5068 0.102241,0.2534 0.10224,0.2534 -0.10224,0.2533 z m -12.3977598,-0.8615 c -0.055743,0 -0.1013514,-0.046 -0.1013514,-0.1013 0,-0.056 0.045608,-0.1014 0.1013514,-0.1014 0.055743,0 0.1013513,0.046 0.1013513,0.1014 0,0.056 -0.045608,0.1013 -0.1013513,0.1013 z m 1.7736486,-0.05 -0.2533784,0.083 0,-0.4074 0,-0.4074 -0.3547297,-0.093 -0.3547297,-0.093 0.6728819,-0.024 0.672882,-0.024 -0.064774,0.4402 -0.064774,0.4402 -0.2533784,0.084 z m 6.9796852,-0.115 -0.106463,0.266 -0.016,-0.3885 -0.016,-0.3885 0.122466,0.1224 0.122466,0.1225 -0.106463,0.2661 z m -7.7060365,-0.1056 -0.1351352,0.1351 0,-0.2703 0,-0.2702 0.1351352,0.1351 0.135135,0.1351 -0.135135,0.1352 z m 1.5878378,0.067 c -0.055743,0 -0.1013514,-0.046 -0.1013514,-0.1013 0,-0.056 0.045608,-0.1014 0.1013514,-0.1014 0.055743,0 0.1013513,0.046 0.1013513,0.1014 0,0.056 -0.045608,0.1013 -0.1013513,0.1013 z m 0.641892,-0.2702 -0.1351352,0.1351 0,-0.2703 0,-0.2702 0.1351352,0.1351 0.135135,0.1351 -0.135135,0.1352 z m 0.6081081,0 -0.1351352,0.1351 0,-0.2703 0,-0.2702 0.1351352,0.1351 0.135135,0.1351 -0.135135,0.1352 z m 4.0202702,0.028 -0.6081081,0.01 0.2495205,-0.1009 c 0.1372364,-0.055 0.4108851,-0.059 0.608108,-0.01 l 0.358588,0.093 -0.6081084,0.01 z m -2.6275954,-0.1663 c -0.00415,0 -0.1258776,-0.078 -0.2705129,-0.1699 l -0.2629733,-0.1668 0.3022054,-0.2508 0.3022052,-0.2508 -0.031692,0.4207 c -0.01743,0.2314 -0.035085,0.4193 -0.039232,0.4176 z m 1.2312429,-0.02 -0.6306746,-0.024 0.3547298,-0.093 0.3547297,-0.093 0,-0.3757 0,-0.3756 -0.3547297,-0.093 -0.3547298,-0.093 0.7601352,-0.049 c 0.4180743,-0.027 0.84375,-0.06 0.945946,-0.074 0.1021958,-0.014 0.2422334,-0.082 0.3111942,-0.1507 l 0.1253836,-0.1254 -1.0514836,-0.024 c -0.578316,-0.013 -1.1060223,-0.081 -1.1726809,-0.1515 l -0.1211972,-0.1278 1.3821201,0.085 1.3821201,0.085 0.162288,0.2626 0.162289,0.2626 1.748534,0.031 1.748534,0.031 9.77e-4,0.152 9.76e-4,0.152 -0.506757,0 -0.506757,0 0,0.1858 c 0,0.1022 0.11402,0.2319 0.253379,0.2881 l 0.253378,0.1022 -1.368243,0.016 -1.368244,0.016 0,-0.4223 0,-0.4223 -0.253378,0.089 -0.253378,0.089 0.02815,0.3329 0.02815,0.3329 -0.156539,0 c -0.0861,0 -0.224365,-0.2052 -0.307264,-0.456 l -0.1507261,-0.4561 -0.089716,0.4561 -0.089717,0.456 -0.1886046,0 -0.1886045,0 0,-0.4054 0,-0.4054 -0.2263332,0 -0.2263331,0 0.096873,0.5068 0.096873,0.5067 -0.6306746,-0.024 z m 3.0010819,-0.3819 0.320946,0 0,-0.3209 0,-0.321 -0.240709,0.08 c -0.13239,0.044 -0.276816,0.1885 -0.320946,0.3209 l -0.08024,0.2407 0.320946,0 z m 0.726352,0 c 0.111486,0 0.202702,-0.091 0.202702,-0.2027 0,-0.1115 -0.09122,-0.2027 -0.202702,-0.2027 -0.111487,0 -0.202703,0.091 -0.202703,0.2027 0,0.1115 0.09122,0.2027 0.202703,0.2027 z m 0.721422,0 c 0.04916,0 0.08939,-0.091 0.08939,-0.2027 l 0,-0.2027 -0.214665,0 -0.214666,0 0.125277,0.2027 c 0.0689,0.1115 0.165502,0.2027 0.214666,0.2027 z m -10.5525034,0.2027 c -0.055743,0 -0.1013514,-0.046 -0.1013514,-0.1013 0,-0.056 0.045608,-0.1014 0.1013514,-0.1014 0.055743,0 0.1013513,0.046 0.1013513,0.1014 0,0.056 -0.045608,0.1013 -0.1013513,0.1013 z m 2.9810645,-0.2027 -0.6739093,0 0.1003103,-0.1623 0.1003103,-0.1623 0.859903,-0.051 c 0.4729465,-0.028 0.9348794,-0.097 1.0265175,-0.1537 0.091638,-0.057 0.1666145,-0.2 0.1666145,-0.3186 l 0,-0.2155 -0.2702702,0.2243 -0.2702704,0.2243 0,-0.3079 0,-0.3078 0.3209461,0.053 c 0.1765202,0.029 0.4437348,-0.024 0.5938104,-0.1183 l 0.2728644,-0.171 -0.070162,0.3551 -0.070162,0.3551 -0.7062969,0.3784 -0.7062971,0.3783 -0.673909,0 z m 0.059476,-0.8108 c -0.055743,0 -0.1013513,-0.046 -0.1013513,-0.1013 0,-0.056 0.045608,-0.1014 0.1013513,-0.1014 0.055743,0 0.1013514,0.046 0.1013514,0.1014 0,0.056 -0.045608,0.1013 -0.1013514,0.1013 z"
         id="path7152" />
      <path
         style="fill:#d13b2b"
         d="m 5.7521346,1047.5514 -0.3053988,0 -0.1166765,-0.3041 -0.1166765,-0.304 -0.9310157,0 -0.9310157,0 0.1925675,-0.1831 c 0.1059122,-0.1006 0.375,-0.2269 0.597973,-0.2805 l 0.4054054,-0.098 -0.6587838,-0.024 -0.6587838,-0.024 0,-0.3838 0,-0.3837 0.3547298,-0.1361 c 0.1951013,-0.075 1.0388513,-0.2671 1.875,-0.4271 0.8361486,-0.16 1.6342905,-0.2909 1.7736486,-0.2909 l 0.2533784,-10e-5 0,1.0136 0,1.0135 -0.2559876,0 -0.2559873,0 -0.2000938,-0.443 c -0.1100513,-0.2436 -0.307938,-0.4772 -0.4397481,-0.5191 l -0.2396544,-0.076 -0.2164554,0.4045 -0.2164555,0.4044 0.1977144,0.5201 0.1977146,0.52 -0.3053988,0 z m -2.9158474,-0.2027 -0.2146656,0 0,-0.2027 c 0,-0.1115 0.040225,-0.2027 0.089389,-0.2027 0.049164,0 0.1457631,0.091 0.2146656,0.2027 l 0.1252771,0.2027 -0.2146656,0 z m -0.7045304,-0.4214 -0.3885135,0.016 0.1224662,-0.1225 0.1224662,-0.1225 0.2660473,0.1065 0.2660473,0.1065 -0.3885135,0.016 z m 9.7128382,-0.1867 c -0.05574,0 -0.101352,-0.046 -0.101352,-0.1014 0,-0.056 0.04561,-0.1013 0.101352,-0.1013 0.05574,0 0.101351,0.046 0.101351,0.1013 0,0.056 -0.04561,0.1014 -0.101351,0.1014 z m -2.2128383,-0.2187 -0.3885134,0.016 0.1224661,-0.1225 0.1224663,-0.1225 0.2660473,0.1065 0.266047,0.1065 -0.3885133,0.016 z m -7.5168918,-0.1867 -0.3040541,0 0,-0.4054 0,-0.4054 0.3040541,0 0.304054,0 0,0.4054 0,0.4054 -0.304054,0 z m 9.5641451,-0.1647 -0.106464,0.266 -0.016,-0.3885 -0.016,-0.3885 0.122466,0.1225 0.122466,0.1224 -0.106463,0.2661 z m 1.211327,-0.1041 c -0.04326,0.043 -0.233492,-0.1576 -0.422725,-0.4464 l -0.34406,-0.5251 0.09039,-0.3427 0.09039,-0.3427 0.02351,0.4561 0.02351,0.4561 0.181016,0 c 0.09956,0 0.23853,0.1498 0.308826,0.333 0.07029,0.1832 0.09241,0.3685 0.04914,0.4117 z m 0.982597,-0.035 c -0.03886,0.1115 -0.07786,-0.2306 -0.08666,-0.7601 l -0.016,-0.9629 0.162,0 0.162,0 -0.07534,0.7602 c -0.04144,0.418 -0.107136,0.8513 -0.145997,0.9628 z m 0.436988,-0.051 -0.102241,0.2534 0,-0.5067 0,-0.5068 0.102241,0.2534 0.10224,0.2534 -0.10224,0.2533 z m -2.465327,-0.456 c -0.05574,0 -0.101352,-0.046 -0.101352,-0.1014 0,-0.056 0.04561,-0.1013 0.101352,-0.1013 0.05574,0 0.101351,0.046 0.101351,0.1013 0,0.056 -0.04561,0.1014 -0.101351,0.1014 z m -1.179099,-0.5701 -0.106463,0.266 -0.016,-0.3885 -0.016,-0.3885 0.122466,0.1224 0.122466,0.1225 -0.106463,0.2661 z m -6.692523,-0.3083 -0.1351352,0.1351 0,-0.2703 0,-0.2702 0.1351352,0.1351 0.135135,0.1351 -0.135135,0.1352 z m 5.8445946,0.028 -0.6081081,0.01 0.2495205,-0.1009 c 0.1372364,-0.055 0.4108851,-0.059 0.608108,-0.01 l 0.358588,0.093 -0.6081084,0.01 z m -1.418919,-0.1867 -0.6081081,-0.024 0.3422648,-0.09 0.3422647,-0.09 0.063141,-0.4277 0.063141,-0.4278 0.2027027,-0.066 0.2027027,-0.067 0,0.6081 0,0.6081 -0.6081082,-0.024 z m 1.1148649,-0.1792 -0.2027027,0 0,-0.4054 0,-0.4054 0.2027027,0 0.2027027,0 0,0.4054 0,0.4054 -0.2027027,0 z m 0.7673745,0 -0.159266,0 0,-0.4054 0,-0.4054 0.159266,0 0.159267,0 0,0.4054 0,0.4054 -0.159267,0 z m 1.847301,0 -1.223953,0 0.06477,-0.456 0.06477,-0.4561 1.55126,0 1.551261,0 -0.09363,0.152 c -0.0515,0.084 -0.280437,0.152 -0.508758,0.152 l -0.41513,0 0.116677,0.3041 0.116676,0.304 -1.223952,0 z m -0.705892,-0.2027 0.320946,0 0,-0.3209 0,-0.321 -0.240709,0.08 c -0.13239,0.044 -0.276816,0.1885 -0.320946,0.3209 l -0.08024,0.2407 0.320946,0 z m 0.726352,0 c 0.111486,0 0.202702,-0.091 0.202702,-0.2027 0,-0.1115 -0.09122,-0.2027 -0.202702,-0.2027 -0.111487,0 -0.202703,0.091 -0.202703,0.2027 0,0.1115 0.09122,0.2027 0.202703,0.2027 z m 0.608108,0 c 0.111486,0 0.202702,-0.091 0.202702,-0.2027 0,-0.1115 -0.09122,-0.2027 -0.202702,-0.2027 -0.111487,0 -0.202703,0.091 -0.202703,0.2027 0,0.1115 0.09122,0.2027 0.202703,0.2027 z m -7.4968377,-0.014 -0.712622,-0.014 0.4054054,-0.1742 c 0.222973,-0.096 0.6756276,-0.1806 1.005899,-0.1884 l 0.6004938,-0.014 0.4713089,-0.5574 0.4713091,-0.5574 -0.058289,0.3817 -0.058289,0.3818 -0.7062969,0.3784 -0.7062971,0.3783 -0.7126218,-0.014 z m 4.2047463,-0.7966 c -0.040026,0 -0.1594291,-0.085 -0.2653413,-0.1882 -0.1059121,-0.1036 -0.5118243,-0.2258 -0.902027,-0.2716 l -0.7094595,-0.083 1.2162163,-0.01 1.2162159,-0.01 -0.3572111,0.093 -0.3572115,0.093 0.115796,0.1874 c 0.063688,0.103 0.083048,0.1873 0.043022,0.1873 z m 0.6569564,0 c -0.2229734,0 -0.4054058,-0.035 -0.4054058,-0.078 0,-0.043 0.1824324,-0.1254 0.4054058,-0.1837 l 0.405405,-0.106 0,0.1837 0,0.1837 -0.405405,0 z m -3.5472977,-0.2027 c -0.055743,0 -0.1013513,-0.046 -0.1013513,-0.1013 0,-0.056 0.045608,-0.1014 0.1013513,-0.1014 0.055743,0 0.1013514,0.046 0.1013514,0.1014 0,0.056 -0.045608,0.1013 -0.1013514,0.1013 z"
         id="path7150" />
      <path
         style="fill:#a92d28"
         d="m 5.7704593,1047.5514 c -0.1578908,0 -0.3368943,-0.081 -0.3977856,-0.1792 l -0.1107115,-0.1791 0.2945481,-0.9787 0.2945481,-0.9787 -0.2464752,-0.1566 -0.2464751,-0.1566 0.2597402,0 0.2597402,0 0.1216366,0.317 0.1216369,0.317 -0.2246382,0.493 -0.2246382,0.4931 0.1929738,0.5075 0.192974,0.5076 -0.2870741,0 z m -2.9341721,-0.2027 -0.2146656,0 0,-0.2027 c 0,-0.1115 0.040225,-0.2027 0.089389,-0.2027 0.049164,0 0.1457631,0.091 0.2146656,0.2027 l 0.1252771,0.2027 -0.2146656,0 z m 1.6886905,-0.7691 -0.1803831,0.3099 -0.4054054,-0.1616 -0.4054054,-0.1615 0.5067567,-0.041 0.5067568,-0.041 -0.7094595,-0.1493 -0.7094594,-0.1494 0.5550425,-0.027 0.5550428,-0.027 -0.048286,-0.4478 -0.048286,-0.4478 0.4054054,-0.047 0.4054054,-0.047 -0.3547297,0.1046 c -0.1951014,0.058 -0.3547298,0.1447 -0.3547298,0.1938 0,0.049 0.1039764,0.2557 0.2310588,0.4592 l 0.2310586,0.37 -0.1803829,0.3098 z m 2.7081304,0.1594 -0.2533784,0 -0.2343071,-0.5052 -0.2343071,-0.5051 0.1699717,0 c 0.093484,0 0.243136,0.2052 0.3325587,0.456 l 0.1625869,0.4561 0.1232815,-1.0135 0.1232816,-1.0135 0.031845,1.0642 0.031845,1.0642 -0.2533784,0 z m 4.6114869,0 c -0.05574,0 -0.101352,-0.046 -0.101352,-0.1014 0,-0.056 0.04561,-0.1013 0.101352,-0.1013 0.05574,0 0.101351,0.046 0.101351,0.1013 0,0.056 -0.04561,0.1014 -0.101351,0.1014 z m -2.2128383,-0.2187 -0.3885134,0.016 0.1224661,-0.1225 0.1224663,-0.1225 0.2660473,0.1065 0.266047,0.1065 -0.3885133,0.016 z m -7.4999999,-0.2027 -0.3885135,0.016 0.1224662,-0.1225 0.1224662,-0.1225 0.2660473,0.1065 0.2660473,0.1065 -0.3885135,0.016 z m 9.5101352,0.016 c -0.05574,0 -0.101351,-0.046 -0.101351,-0.1014 0,-0.056 0.04561,-0.1013 0.101351,-0.1013 0.05574,0 0.101351,0.046 0.101351,0.1013 0,0.056 -0.04561,0.1014 -0.101351,0.1014 z m 1.246661,-0.2027 c -0.04684,0 -0.241947,-0.2393 -0.433563,-0.5318 l -0.348393,-0.5317 0.222639,0.1376 c 0.122451,0.076 0.317554,0.315 0.433563,0.5317 0.116008,0.2168 0.172597,0.3942 0.125754,0.3942 z m 1.421369,-0.1521 -0.102241,0.2534 0,-0.5067 0,-0.5068 0.102241,0.2534 0.10224,0.2534 -0.10224,0.2533 z m -7.6342463,-1.0642 -0.2702702,0 0.135135,-0.1351 0.1351352,-0.1351 0.1351352,0.1351 0.135135,0.1351 -0.2702702,0 z m -2.7027027,-0.2702 -0.1351352,0.1351 0,-0.2703 0,-0.2702 0.1351352,0.1351 0.135135,0.1351 -0.135135,0.1352 z m 5.8445946,0.028 -0.6081081,0.01 0.2495205,-0.1009 c 0.1372364,-0.055 0.4108851,-0.059 0.608108,-0.01 l 0.358588,0.093 -0.6081084,0.01 z m -1.418919,-0.1867 -0.6081081,-0.024 0.3422648,-0.09 0.3422647,-0.09 0.063141,-0.4277 0.063141,-0.4278 0.2027027,-0.066 0.2027027,-0.067 0,0.6081 0,0.6081 -0.6081082,-0.024 z m 5.5743244,0.024 -0.27027,0 0.135135,-0.1351 0.135135,-0.1351 0.135135,0.1351 0.135135,0.1351 -0.27027,0 z m -4.4594595,-0.2027 -0.2027027,0 0,-0.4054 0,-0.4054 0.2027027,0 0.2027027,0 0,0.4054 0,0.4054 -0.2027027,0 z m 0.7673745,0 -0.159266,0 0,-0.4054 0,-0.4054 0.159266,0 0.159267,0 0,0.4054 0,0.4054 -0.159267,0 z m 1.847301,0 -1.223953,0 0.06477,-0.456 0.06477,-0.4561 1.55126,0 1.551261,0 -0.09363,0.152 c -0.0515,0.084 -0.280437,0.152 -0.508758,0.152 l -0.41513,0 0.116677,0.3041 0.116676,0.304 -1.223952,0 z m -0.705892,-0.2027 0.320946,0 0,-0.3209 0,-0.321 -0.240709,0.08 c -0.13239,0.044 -0.276816,0.1885 -0.320946,0.3209 l -0.08024,0.2407 0.320946,0 z m 0.726352,0 c 0.111486,0 0.202702,-0.091 0.202702,-0.2027 0,-0.1115 -0.09122,-0.2027 -0.202702,-0.2027 -0.111487,0 -0.202703,0.091 -0.202703,0.2027 0,0.1115 0.09122,0.2027 0.202703,0.2027 z m 0.608108,0 c 0.111486,0 0.202702,-0.091 0.202702,-0.2027 0,-0.1115 -0.09122,-0.2027 -0.202702,-0.2027 -0.111487,0 -0.202703,0.091 -0.202703,0.2027 0,0.1115 0.09122,0.2027 0.202703,0.2027 z m -6.9932435,0 c -0.1540705,0 -0.3365029,-0.091 -0.4054054,-0.2027 l -0.1252772,-0.2027 0.5306826,0 0.5306826,0 -0.1252772,0.2027 c -0.068903,0.1115 -0.2513349,0.2027 -0.4054054,0.2027 z m 1.5342766,-0.7181 -0.1886961,0.1166 -0.113126,-0.183 -0.1131259,-0.183 0.3018221,-0.2505 0.3018223,-0.2505 0,0.3169 c 0,0.1743 -0.084913,0.3694 -0.1886964,0.4335 z m -0.1153577,-0.093 c 0.055743,0 0.1013514,-0.046 0.1013514,-0.1013 0,-0.056 -0.045608,-0.1014 -0.1013514,-0.1014 -0.055743,0 -0.1013513,0.046 -0.1013513,0.1014 0,0.056 0.045608,0.1013 0.1013513,0.1013 z m 2.2822332,0 c -0.040026,0 -0.1594291,-0.084 -0.2653413,-0.1871 -0.1059121,-0.1029 -0.4662162,-0.226 -0.8006757,-0.2737 l -0.6081081,-0.087 1.1148649,-0.01 1.1148646,-0.01 -0.3572111,0.093 -0.3572115,0.093 0.115796,0.1874 c 0.063688,0.103 0.083048,0.1873 0.043022,0.1873 z m 0.6569564,0 c -0.2229734,0 -0.4054058,-0.035 -0.4054058,-0.078 0,-0.043 0.1824324,-0.1254 0.4054058,-0.1837 l 0.405405,-0.106 0,0.1837 0,0.1837 -0.405405,0 z m -3.5472977,-0.2027 c -0.055743,0 -0.1013513,-0.046 -0.1013513,-0.1013 0,-0.056 0.045608,-0.1014 0.1013513,-0.1014 0.055743,0 0.1013514,0.046 0.1013514,0.1014 0,0.056 -0.045608,0.1013 -0.1013514,0.1013 z"
         id="path7148" />
      <path
         style="fill:#6e2825"
         d="m 5.7704593,1047.5514 c -0.1578908,0 -0.3296763,-0.069 -0.3817457,-0.1532 -0.052069,-0.084 -0.047351,-0.4007 0.010484,-0.7033 l 0.1051556,-0.5501 0.3147935,-0.2595 0.314794,-0.2596 -0.2359181,0.4428 -0.235918,0.4428 0.1977144,0.5201 0.1977146,0.52 -0.2870741,0 z m -2.9341721,-0.2027 -0.2146656,0 0,-0.2027 c 0,-0.1115 0.040225,-0.2027 0.089389,-0.2027 0.049164,0 0.1457631,0.091 0.2146656,0.2027 l 0.1252771,0.2027 -0.2146656,0 z m 1.6813395,-0.7559 -0.1730321,0.2967 -0.4054054,-0.1616 -0.4054054,-0.1615 0.4497192,-0.014 0.4497193,-0.014 -0.1248229,-0.3548 -0.1248231,-0.3547 0.2535411,0.2339 0.2535412,0.2338 -0.1730319,0.2967 z m 7.3269683,0.1478 c -0.05574,0 -0.101352,-0.046 -0.101352,-0.1014 0,-0.056 0.04561,-0.1013 0.101352,-0.1013 0.05574,0 0.101351,0.046 0.101351,0.1013 0,0.056 -0.04561,0.1014 -0.101351,0.1014 z m -4.8400453,-0.4054 c -0.042092,0 -0.2017208,-0.1597 -0.3547298,-0.3548 l -0.2781983,-0.3547 0.3547298,0.2782 c 0.1951013,0.153 0.3547297,0.3126 0.3547297,0.3547 0,0.042 -0.034439,0.077 -0.076531,0.077 z m -2.6599551,-1.0135 c -0.055743,0 -0.1013514,-0.046 -0.1013514,-0.1014 0,-0.056 0.045608,-0.1014 0.1013514,-0.1014 0.055743,0 0.1013513,0.046 0.1013513,0.1014 0,0.056 -0.045608,0.1014 -0.1013513,0.1014 z m 1.6216216,0 c -0.055743,0 -0.1013513,-0.046 -0.1013513,-0.1014 0,-0.056 0.045608,-0.1014 0.1013513,-0.1014 0.055743,0 0.1013514,0.046 0.1013514,0.1014 0,0.056 -0.045608,0.1014 -0.1013514,0.1014 z m -1.9932432,-0.6757 -0.1351352,0.1351 0,-0.2703 0,-0.2702 0.1351352,0.1351 0.135135,0.1351 -0.135135,0.1352 z m 4.4256756,-0.1587 -0.6081081,-0.024 0.3422648,-0.09 0.3422647,-0.09 0.063141,-0.4277 0.063141,-0.4278 0.2027027,-0.066 0.2027027,-0.067 0,0.6081 0,0.6081 -0.6081082,-0.024 z m 1.1148649,-0.1792 -0.2027027,0 0,-0.4054 0,-0.4054 0.2027027,0 0.2027027,0 0,0.4054 0,0.4054 -0.2027027,0 z m 0.7673745,0 -0.159266,0 0,-0.4054 0,-0.4054 0.159266,0 0.159267,0 0,0.4054 0,0.4054 -0.159267,0 z m 1.861399,0 -1.209855,0 0,-0.3934 c 0,-0.2164 0.07314,-0.4387 0.162536,-0.4939 l 0.162535,-0.1005 1.408411,0.1632 1.40841,0.1632 -0.477768,0.027 -0.477768,0.027 0.116677,0.3041 0.116676,0.304 -1.209854,0 z m -0.71999,-0.2027 0.320946,0 0,-0.3209 0,-0.321 -0.240709,0.08 c -0.13239,0.044 -0.276816,0.1885 -0.320946,0.3209 l -0.08024,0.2407 0.320946,0 z m 0.726352,0 c 0.111486,0 0.202702,-0.091 0.202702,-0.2027 0,-0.1115 -0.09122,-0.2027 -0.202702,-0.2027 -0.111487,0 -0.202703,0.091 -0.202703,0.2027 0,0.1115 0.09122,0.2027 0.202703,0.2027 z m 0.608108,0 c 0.111486,0 0.202702,-0.091 0.202702,-0.2027 0,-0.1115 -0.09122,-0.2027 -0.202702,-0.2027 -0.111487,0 -0.202703,0.091 -0.202703,0.2027 0,0.1115 0.09122,0.2027 0.202703,0.2027 z m -7.2972975,-0.2027 -0.2702702,0 0.135135,-0.1351 0.1351352,-0.1351 0.1351352,0.1351 0.135135,0.1351 -0.2702702,0 z m 4.7635135,-0.6081 c -0.16723,0 -0.3040541,-0.036 -0.3040541,-0.08 0,-0.044 0.1368241,-0.1322 0.3040541,-0.1964 l 0.304054,-0.1167 0,0.1964 0,0.1963 -0.304054,0 z m -3.6486487,-0.2027 c -0.055743,0 -0.1013513,-0.046 -0.1013513,-0.1013 0,-0.056 0.045608,-0.1014 0.1013513,-0.1014 0.055743,0 0.1013514,0.046 0.1013514,0.1014 0,0.056 -0.045608,0.1013 -0.1013514,0.1013 z"
         id="path7146" />
      <path
         style="fill:#242323"
         d="m 5.7704593,1047.5514 c -0.1578908,0 -0.3409672,-0.087 -0.4068367,-0.1938 l -0.1197626,-0.1938 0.3001591,-0.7184 c 0.1650876,-0.3951 0.3536311,-0.7183 0.4189857,-0.7183 0.065355,0 0.024388,0.1764 -0.091037,0.3921 l -0.2098634,0.3921 0.1977144,0.5201 0.1977146,0.52 -0.2870741,0 z m -2.9341721,-0.2027 -0.2146656,0 0,-0.2027 c 0,-0.1115 0.040225,-0.2027 0.089389,-0.2027 0.049164,0 0.1457631,0.091 0.2146656,0.2027 l 0.1252771,0.2027 -0.2146656,0 z m 1.722973,-0.8108 c -0.049164,0 -0.1457631,-0.091 -0.2146656,-0.2027 l -0.1252772,-0.2027 0.2146656,0 0.2146656,0 0,0.2027 c 0,0.1115 -0.040225,0.2027 -0.089388,0.2027 z m -0.5862872,-1.8919 -0.1351352,0.1351 0,-0.2703 0,-0.2702 0.1351352,0.1351 0.135135,0.1351 -0.135135,0.1352 z m 4.4412446,-0.1587 -0.6236771,-0.024 0.3547298,-0.093 0.3547297,-0.093 0,-0.3786 0,-0.3785 0.1799996,-0.1113 0.1799998,-0.1112 0.088948,0.606 0.088948,0.606 -0.6236771,-0.024 z m 1.0992959,-0.1792 -0.2027027,0 0,-0.4054 0,-0.4054 0.2027027,0 0.2027027,0 0,0.4054 0,0.4054 -0.2027027,0 z m 0.7673745,0 -0.159266,0 0,-0.4054 0,-0.4054 0.159266,0 0.159267,0 0,0.4054 0,0.4054 -0.159267,0 z m 1.861399,0 -1.209855,0 0,-0.4054 0,-0.4054 0.196341,0 0.196341,0 -0.116676,0.3041 -0.116677,0.304 0.325741,0 0.325741,0 0,-0.304 0,-0.3041 1.165541,0.028 1.16554,0.028 -0.471578,0.09 -0.471579,0.09 0.110487,0.2879 0.110487,0.2879 -1.209854,0 z m 0.0064,-0.2027 c 0.111486,0 0.202702,-0.091 0.202702,-0.2027 0,-0.1115 -0.09122,-0.2027 -0.202702,-0.2027 -0.111487,0 -0.202703,0.091 -0.202703,0.2027 0,0.1115 0.09122,0.2027 0.202703,0.2027 z m 0.608108,0 c 0.111486,0 0.202702,-0.091 0.202702,-0.2027 0,-0.1115 -0.09122,-0.2027 -0.202702,-0.2027 -0.111487,0 -0.202703,0.091 -0.202703,0.2027 0,0.1115 0.09122,0.2027 0.202703,0.2027 z"
         id="path7144" />
    </g>
  </g>
</svg>
