<?xml version="1.0" encoding="UTF-8" standalone="no"?>
<!-- Created with Inkscape (http://www.inkscape.org/) -->

<svg
   xmlns:dc="http://purl.org/dc/elements/1.1/"
   xmlns:cc="http://creativecommons.org/ns#"
   xmlns:rdf="http://www.w3.org/1999/02/22-rdf-syntax-ns#"
   xmlns:svg="http://www.w3.org/2000/svg"
   xmlns="http://www.w3.org/2000/svg"
   xmlns:sodipodi="http://sodipodi.sourceforge.net/DTD/sodipodi-0.dtd"
   xmlns:inkscape="http://www.inkscape.org/namespaces/inkscape"
   width="16"
   height="16"
   id="svg2"
   version="1.1"
   inkscape:version="0.47 r22583"
   sodipodi:docname="FIRE1-32.svg">
  <defs
     id="defs4">
    <inkscape:perspective
       sodipodi:type="inkscape:persp3d"
       inkscape:vp_x="0 : 526.18109 : 1"
       inkscape:vp_y="0 : 1000 : 0"
       inkscape:vp_z="744.09448 : 526.18109 : 1"
       inkscape:persp3d-origin="372.04724 : 350.78739 : 1"
       id="perspective10" />
    <inkscape:perspective
       id="perspective2824"
       inkscape:persp3d-origin="0.5 : 0.33333333 : 1"
       inkscape:vp_z="1 : 0.5 : 1"
       inkscape:vp_y="0 : 1000 : 0"
       inkscape:vp_x="0 : 0.5 : 1"
       sodipodi:type="inkscape:persp3d" />
    <inkscape:perspective
       id="perspective5878"
       inkscape:persp3d-origin="0.5 : 0.33333333 : 1"
       inkscape:vp_z="1 : 0.5 : 1"
       inkscape:vp_y="0 : 1000 : 0"
       inkscape:vp_x="0 : 0.5 : 1"
       sodipodi:type="inkscape:persp3d" />
    <inkscape:perspective
       id="perspective5921"
       inkscape:persp3d-origin="0.5 : 0.33333333 : 1"
       inkscape:vp_z="1 : 0.5 : 1"
       inkscape:vp_y="0 : 1000 : 0"
       inkscape:vp_x="0 : 0.5 : 1"
       sodipodi:type="inkscape:persp3d" />
    <inkscape:perspective
       id="perspective5943"
       inkscape:persp3d-origin="0.5 : 0.33333333 : 1"
       inkscape:vp_z="1 : 0.5 : 1"
       inkscape:vp_y="0 : 1000 : 0"
       inkscape:vp_x="0 : 0.5 : 1"
       sodipodi:type="inkscape:persp3d" />
    <inkscape:perspective
       id="perspective5989"
       inkscape:persp3d-origin="0.5 : 0.33333333 : 1"
       inkscape:vp_z="1 : 0.5 : 1"
       inkscape:vp_y="0 : 1000 : 0"
       inkscape:vp_x="0 : 0.5 : 1"
       sodipodi:type="inkscape:persp3d" />
    <inkscape:perspective
       id="perspective6011"
       inkscape:persp3d-origin="0.5 : 0.33333333 : 1"
       inkscape:vp_z="1 : 0.5 : 1"
       inkscape:vp_y="0 : 1000 : 0"
       inkscape:vp_x="0 : 0.5 : 1"
       sodipodi:type="inkscape:persp3d" />
    <inkscape:perspective
       id="perspective6033"
       inkscape:persp3d-origin="0.5 : 0.33333333 : 1"
       inkscape:vp_z="1 : 0.5 : 1"
       inkscape:vp_y="0 : 1000 : 0"
       inkscape:vp_x="0 : 0.5 : 1"
       sodipodi:type="inkscape:persp3d" />
    <inkscape:perspective
       id="perspective6245"
       inkscape:persp3d-origin="0.5 : 0.33333333 : 1"
       inkscape:vp_z="1 : 0.5 : 1"
       inkscape:vp_y="0 : 1000 : 0"
       inkscape:vp_x="0 : 0.5 : 1"
       sodipodi:type="inkscape:persp3d" />
    <inkscape:perspective
       id="perspective6269"
       inkscape:persp3d-origin="0.5 : 0.33333333 : 1"
       inkscape:vp_z="1 : 0.5 : 1"
       inkscape:vp_y="0 : 1000 : 0"
       inkscape:vp_x="0 : 0.5 : 1"
       sodipodi:type="inkscape:persp3d" />
    <inkscape:perspective
       id="perspective6364"
       inkscape:persp3d-origin="0.5 : 0.33333333 : 1"
       inkscape:vp_z="1 : 0.5 : 1"
       inkscape:vp_y="0 : 1000 : 0"
       inkscape:vp_x="0 : 0.5 : 1"
       sodipodi:type="inkscape:persp3d" />
    <inkscape:perspective
       id="perspective6396"
       inkscape:persp3d-origin="0.5 : 0.33333333 : 1"
       inkscape:vp_z="1 : 0.5 : 1"
       inkscape:vp_y="0 : 1000 : 0"
       inkscape:vp_x="0 : 0.5 : 1"
       sodipodi:type="inkscape:persp3d" />
    <inkscape:perspective
       id="perspective6438"
       inkscape:persp3d-origin="0.5 : 0.33333333 : 1"
       inkscape:vp_z="1 : 0.5 : 1"
       inkscape:vp_y="0 : 1000 : 0"
       inkscape:vp_x="0 : 0.5 : 1"
       sodipodi:type="inkscape:persp3d" />
    <inkscape:perspective
       id="perspective6460"
       inkscape:persp3d-origin="0.5 : 0.33333333 : 1"
       inkscape:vp_z="1 : 0.5 : 1"
       inkscape:vp_y="0 : 1000 : 0"
       inkscape:vp_x="0 : 0.5 : 1"
       sodipodi:type="inkscape:persp3d" />
    <inkscape:perspective
       id="perspective6480"
       inkscape:persp3d-origin="0.5 : 0.33333333 : 1"
       inkscape:vp_z="1 : 0.5 : 1"
       inkscape:vp_y="0 : 1000 : 0"
       inkscape:vp_x="0 : 0.5 : 1"
       sodipodi:type="inkscape:persp3d" />
    <inkscape:perspective
       id="perspective6504"
       inkscape:persp3d-origin="0.5 : 0.33333333 : 1"
       inkscape:vp_z="1 : 0.5 : 1"
       inkscape:vp_y="0 : 1000 : 0"
       inkscape:vp_x="0 : 0.5 : 1"
       sodipodi:type="inkscape:persp3d" />
    <inkscape:perspective
       id="perspective6524"
       inkscape:persp3d-origin="0.5 : 0.33333333 : 1"
       inkscape:vp_z="1 : 0.5 : 1"
       inkscape:vp_y="0 : 1000 : 0"
       inkscape:vp_x="0 : 0.5 : 1"
       sodipodi:type="inkscape:persp3d" />
    <inkscape:perspective
       id="perspective6548"
       inkscape:persp3d-origin="0.5 : 0.33333333 : 1"
       inkscape:vp_z="1 : 0.5 : 1"
       inkscape:vp_y="0 : 1000 : 0"
       inkscape:vp_x="0 : 0.5 : 1"
       sodipodi:type="inkscape:persp3d" />
    <inkscape:perspective
       id="perspective6572"
       inkscape:persp3d-origin="0.5 : 0.33333333 : 1"
       inkscape:vp_z="1 : 0.5 : 1"
       inkscape:vp_y="0 : 1000 : 0"
       inkscape:vp_x="0 : 0.5 : 1"
       sodipodi:type="inkscape:persp3d" />
    <inkscape:perspective
       id="perspective6594"
       inkscape:persp3d-origin="0.5 : 0.33333333 : 1"
       inkscape:vp_z="1 : 0.5 : 1"
       inkscape:vp_y="0 : 1000 : 0"
       inkscape:vp_x="0 : 0.5 : 1"
       sodipodi:type="inkscape:persp3d" />
    <inkscape:perspective
       id="perspective6614"
       inkscape:persp3d-origin="0.5 : 0.33333333 : 1"
       inkscape:vp_z="1 : 0.5 : 1"
       inkscape:vp_y="0 : 1000 : 0"
       inkscape:vp_x="0 : 0.5 : 1"
       sodipodi:type="inkscape:persp3d" />
    <inkscape:perspective
       id="perspective6650"
       inkscape:persp3d-origin="0.5 : 0.33333333 : 1"
       inkscape:vp_z="1 : 0.5 : 1"
       inkscape:vp_y="0 : 1000 : 0"
       inkscape:vp_x="0 : 0.5 : 1"
       sodipodi:type="inkscape:persp3d" />
    <inkscape:perspective
       id="perspective6676"
       inkscape:persp3d-origin="0.5 : 0.33333333 : 1"
       inkscape:vp_z="1 : 0.5 : 1"
       inkscape:vp_y="0 : 1000 : 0"
       inkscape:vp_x="0 : 0.5 : 1"
       sodipodi:type="inkscape:persp3d" />
    <inkscape:perspective
       id="perspective6710"
       inkscape:persp3d-origin="0.5 : 0.33333333 : 1"
       inkscape:vp_z="1 : 0.5 : 1"
       inkscape:vp_y="0 : 1000 : 0"
       inkscape:vp_x="0 : 0.5 : 1"
       sodipodi:type="inkscape:persp3d" />
    <inkscape:perspective
       id="perspective6748"
       inkscape:persp3d-origin="0.5 : 0.33333333 : 1"
       inkscape:vp_z="1 : 0.5 : 1"
       inkscape:vp_y="0 : 1000 : 0"
       inkscape:vp_x="0 : 0.5 : 1"
       sodipodi:type="inkscape:persp3d" />
    <inkscape:perspective
       id="perspective6786"
       inkscape:persp3d-origin="0.5 : 0.33333333 : 1"
       inkscape:vp_z="1 : 0.5 : 1"
       inkscape:vp_y="0 : 1000 : 0"
       inkscape:vp_x="0 : 0.5 : 1"
       sodipodi:type="inkscape:persp3d" />
    <inkscape:perspective
       id="perspective6810"
       inkscape:persp3d-origin="0.5 : 0.33333333 : 1"
       inkscape:vp_z="1 : 0.5 : 1"
       inkscape:vp_y="0 : 1000 : 0"
       inkscape:vp_x="0 : 0.5 : 1"
       sodipodi:type="inkscape:persp3d" />
    <inkscape:perspective
       id="perspective6848"
       inkscape:persp3d-origin="0.5 : 0.33333333 : 1"
       inkscape:vp_z="1 : 0.5 : 1"
       inkscape:vp_y="0 : 1000 : 0"
       inkscape:vp_x="0 : 0.5 : 1"
       sodipodi:type="inkscape:persp3d" />
    <inkscape:perspective
       id="perspective6870"
       inkscape:persp3d-origin="0.5 : 0.33333333 : 1"
       inkscape:vp_z="1 : 0.5 : 1"
       inkscape:vp_y="0 : 1000 : 0"
       inkscape:vp_x="0 : 0.5 : 1"
       sodipodi:type="inkscape:persp3d" />
    <inkscape:perspective
       id="perspective6908"
       inkscape:persp3d-origin="0.5 : 0.33333333 : 1"
       inkscape:vp_z="1 : 0.5 : 1"
       inkscape:vp_y="0 : 1000 : 0"
       inkscape:vp_x="0 : 0.5 : 1"
       sodipodi:type="inkscape:persp3d" />
    <inkscape:perspective
       id="perspective6946"
       inkscape:persp3d-origin="0.5 : 0.33333333 : 1"
       inkscape:vp_z="1 : 0.5 : 1"
       inkscape:vp_y="0 : 1000 : 0"
       inkscape:vp_x="0 : 0.5 : 1"
       sodipodi:type="inkscape:persp3d" />
    <inkscape:perspective
       id="perspective6970"
       inkscape:persp3d-origin="0.5 : 0.33333333 : 1"
       inkscape:vp_z="1 : 0.5 : 1"
       inkscape:vp_y="0 : 1000 : 0"
       inkscape:vp_x="0 : 0.5 : 1"
       sodipodi:type="inkscape:persp3d" />
    <inkscape:perspective
       id="perspective7008"
       inkscape:persp3d-origin="0.5 : 0.33333333 : 1"
       inkscape:vp_z="1 : 0.5 : 1"
       inkscape:vp_y="0 : 1000 : 0"
       inkscape:vp_x="0 : 0.5 : 1"
       sodipodi:type="inkscape:persp3d" />
    <inkscape:perspective
       id="perspective7036"
       inkscape:persp3d-origin="0.5 : 0.33333333 : 1"
       inkscape:vp_z="1 : 0.5 : 1"
       inkscape:vp_y="0 : 1000 : 0"
       inkscape:vp_x="0 : 0.5 : 1"
       sodipodi:type="inkscape:persp3d" />
  </defs>
  <sodipodi:namedview
     id="base"
     pagecolor="#ffffff"
     bordercolor="#666666"
     borderopacity="1.0"
     inkscape:pageopacity="0.0"
     inkscape:pageshadow="2"
     inkscape:zoom="8.671875"
     inkscape:cx="10.564203"
     inkscape:cy="2.743179"
     inkscape:document-units="px"
     inkscape:current-layer="layer1"
     showgrid="true"
     inkscape:window-width="1280"
     inkscape:window-height="780"
     inkscape:window-x="-8"
     inkscape:window-y="-8"
     inkscape:window-maximized="1">
    <inkscape:grid
       type="xygrid"
       id="grid6324"
       empspacing="5"
       visible="true"
       enabled="true"
       snapvisiblegridlinesonly="true" />
  </sodipodi:namedview>
  <metadata
     id="metadata7">
    <rdf:RDF>
      <cc:Work
         rdf:about="">
        <dc:format>image/svg+xml</dc:format>
        <dc:type
           rdf:resource="http://purl.org/dc/dcmitype/StillImage" />
        <dc:title></dc:title>
      </cc:Work>
    </rdf:RDF>
  </metadata>
  <g
     inkscape:label="Calque 1"
     inkscape:groupmode="layer"
     id="layer1"
     transform="translate(0,-1036.3622)">
    <g
       id="g7042"
       transform="translate(0.494093,0.1656)">
      <path
         style="fill:#bfbfbf"
         d="m 4.3607606,1048.176 -0.5057909,0 -0.2849763,-0.3954 -0.2849763,-0.3954 -0.747125,0 -0.7471249,0 0,-2.0898 0,-2.0899 0.2824169,-0.2824 0.2824168,-0.2825 3.2323933,0 3.2323934,0 0.2849763,0.3954 0.2849763,0.3954 0.5494332,0 0.5494336,0 0,-0.3954 0,-0.3954 0.593075,0 0.593075,0 0,0.3518 0,0.3517 0.395384,0.285 0.395384,0.285 0,0.3081 0,0.3081 0.395383,0.285 0.395384,0.2849 0,0.8601 0,0.8601 -0.330075,0.3301 -0.330075,0.3301 -0.08178,-0.2454 c -0.04498,-0.1349 -0.163331,-0.2453 -0.263,-0.2453 l -0.181218,0 0,0.3106 0,0.3107 -0.282417,0.2824 -0.282417,0.2824 -0.464708,0 -0.464708,0 -0.284976,-0.3954 -0.284977,-0.3954 -2.2850167,0 -2.2850171,0 -0.2849763,0.3954 -0.2849763,0.3954 -0.505791,0 z m 0,-0.7908 c 0.1087305,0 0.1976919,-0.089 0.1976919,-0.1976 0,-0.1088 -0.088961,-0.1977 -0.1976919,-0.1977 -0.1087304,0 -0.1976918,0.089 -0.1976918,0.1977 0,0.1087 0.088961,0.1976 0.1976918,0.1976 z m 6.7215214,0 c 0.10873,0 0.197692,-0.089 0.197692,-0.1976 0,-0.1088 -0.08896,-0.1977 -0.197692,-0.1977 -0.108731,0 -0.197692,0.089 -0.197692,0.1977 0,0.1087 0.08896,0.1976 0.197692,0.1976 z"
         id="path7050" />
      <path
         style="fill:#7f7f7f"
         d="m 4.3607606,1048.176 -0.5057909,0 -0.2849763,-0.3954 -0.2849763,-0.3954 -0.747125,0 -0.7471249,0 0,-1.5815 0,-1.5815 0.1976918,0 0.1976918,0 0,-0.3954 0,-0.3954 -0.1976918,0 c -0.1087305,0 -0.1976918,-0.089 -0.1976918,-0.1977 l 0,-0.1977 3.3607607,0 3.3607606,0 0,0.1977 c 0,0.1087 -0.088961,0.1977 -0.1976918,0.1977 l -0.1976918,0 0,0.3954 0,0.3954 0.1976918,0 0.1976918,0 0,0.3954 0,0.3953 0.1976918,0 0.1976918,0 0,-0.7907 0,-0.7908 0.988459,0 0.9884589,0 0,-0.3954 0,-0.3954 0.395384,0 0.395383,0 0,0.3518 0,0.3517 0.395384,0.285 0.395384,0.285 0,0.3081 0,0.3081 0.395383,0.285 0.395384,0.2849 0,0.8601 0,0.8601 -0.330075,0.3301 -0.330075,0.3301 -0.08178,-0.2454 c -0.04498,-0.1349 -0.163331,-0.2453 -0.263,-0.2453 l -0.181218,0 0,0.3106 0,0.3107 -0.282417,0.2824 -0.282417,0.2824 -0.464708,0 -0.464708,0 -0.284976,-0.3954 -0.284977,-0.3954 -2.2850167,0 -2.2850171,0 -0.2849763,0.3954 -0.2849763,0.3954 -0.505791,0 z m 0,-0.7908 c 0.1087305,0 0.1976919,-0.089 0.1976919,-0.1976 0,-0.1088 -0.088961,-0.1977 -0.1976919,-0.1977 -0.1087304,0 -0.1976918,0.089 -0.1976918,0.1977 0,0.1087 0.088961,0.1976 0.1976918,0.1976 z m 6.7215214,0 c 0.10873,0 0.197692,-0.089 0.197692,-0.1976 0,-0.1088 -0.08896,-0.1977 -0.197692,-0.1977 -0.108731,0 -0.197692,0.089 -0.197692,0.1977 0,0.1087 0.08896,0.1976 0.197692,0.1976 z m -8.3030558,-0.3953 0.5930754,0 0,-0.1977 0,-0.1977 -0.5930754,0 -0.5930754,0 0,0.1977 0,0.1977 0.5930754,0 z m 4.9422951,0 2.3723017,0 0,-0.1977 0,-0.1977 -2.3723017,0 -2.3723016,0 0,0.1977 0,0.1977 2.3723016,0 z m 3.7561447,-2.3723 0.593075,0 0,-0.3954 0,-0.3954 -0.593075,0 -0.593076,0 0,0.3954 0,0.3954 0.593076,0 z m -8.6984398,-0.3954 0.1976918,0 0,-0.3954 0,-0.3954 -0.1976918,0 -0.1976918,0 0,0.3954 0,0.3954 0.1976918,0 z m 0.7907672,0 0.1976918,0 0,-0.3954 0,-0.3954 -0.1976918,0 -0.1976918,0 0,0.3954 0,0.3954 0.1976918,0 z m 0.7907672,0 0.1976919,0 0,-0.3954 0,-0.3954 -0.1976919,0 -0.1976918,0 0,0.3954 0,0.3954 0.1976918,0 z m 0.7907673,0 0.1976918,0 0,-0.3954 0,-0.3954 -0.1976918,0 -0.1976918,0 0,0.3954 0,0.3954 0.1976918,0 z m 0.7907672,0 0.1976918,0 0,-0.3954 0,-0.3954 -0.1976918,0 -0.1976918,0 0,0.3954 0,0.3954 0.1976918,0 z m 0.7907672,0 0.1976918,0 0,-0.3954 0,-0.3954 -0.1976918,0 -0.1976918,0 0,0.3954 0,0.3954 0.1976918,0 z m 0.7907672,0 0.1976918,0 0,-0.3954 0,-0.3954 -0.1976918,0 -0.1976918,0 0,0.3954 0,0.3954 0.1976918,0 z"
         id="path7048" />
      <path
         style="fill:#fe0000"
         d="m 4.3254586,1048.1685 -0.4589275,-0.01 -0.2471147,-0.2807 -0.2471148,-0.2807 0,-0.5025 0,-0.5026 -0.5930754,0 -0.5930754,0 0,0.1977 0,0.1977 0.3953836,0 0.3953836,0 0,0.1977 0,0.1976 -0.5930754,0 -0.5930754,0 0,-1.1861 0,-1.1862 3.5584525,0 3.5584524,0 0,-0.7907 0,-0.7908 0.988459,0 0.9884589,0 0,-0.3954 0,-0.3954 0.395384,0 0.395383,0 0,0.3518 0,0.3517 0.395384,0.285 0.395384,0.285 0,0.3081 0,0.3081 0.395383,0.285 0.395384,0.2849 0,0.8601 0,0.8601 -0.330075,0.3301 -0.330075,0.3301 -0.08178,-0.2454 c -0.04498,-0.1349 -0.163331,-0.2453 -0.263,-0.2453 l -0.181218,0 0,0.3106 0,0.3107 -0.282417,0.2824 -0.282417,0.2824 -0.423625,0 -0.423625,0 -0.282417,-0.2824 -0.282417,-0.2824 0,-0.5084 0,-0.5083 -2.3723017,0 -2.3723016,0 0,0.5083 0,0.5084 -0.2824168,0.2824 -0.282417,0.2824 -0.4589273,-0.01 z m 0.035302,-0.7833 c 0.1087305,0 0.1976919,-0.089 0.1976919,-0.1976 0,-0.1088 -0.088961,-0.1977 -0.1976919,-0.1977 -0.1087304,0 -0.1976918,0.089 -0.1976918,0.1977 0,0.1087 0.088961,0.1976 0.1976918,0.1976 z m 6.7215214,0 c 0.10873,0 0.197692,-0.089 0.197692,-0.1976 0,-0.1088 -0.08896,-0.1977 -0.197692,-0.1977 -0.108731,0 -0.197692,0.089 -0.197692,0.1977 0,0.1087 0.08896,0.1976 0.197692,0.1976 z m 0.395384,-2.7676 0.593075,0 0,-0.3954 0,-0.3954 -0.593075,0 -0.593076,0 0,0.3954 0,0.3954 0.593076,0 z m -3.7561447,2.7676 -1.976918,0 0,-0.1976 0,-0.1977 1.976918,0 1.976918,0 0,0.1977 0,0.1976 -1.976918,0 z m -2.5699934,-2.7676 -3.3607607,0 0,-0.1977 c 0,-0.1088 0.088961,-0.1977 0.1976918,-0.1977 l 0.1976918,0 0,-0.3954 0,-0.3954 -0.1976918,0 c -0.1087305,0 -0.1976918,-0.089 -0.1976918,-0.1977 l 0,-0.1977 3.3607607,0 3.3607606,0 0,0.1977 c 0,0.1087 -0.088961,0.1977 -0.1976918,0.1977 l -0.1976918,0 0,0.3954 0,0.3954 0.1976918,0 c 0.1087305,0 0.1976918,0.089 0.1976918,0.1977 l 0,0.1977 -3.3607606,0 z m -2.3723017,-0.3954 0.1976918,0 0,-0.3954 0,-0.3954 -0.1976918,0 -0.1976918,0 0,0.3954 0,0.3954 0.1976918,0 z m 0.7907672,0 0.1976918,0 0,-0.3954 0,-0.3954 -0.1976918,0 -0.1976918,0 0,0.3954 0,0.3954 0.1976918,0 z m 0.7907672,0 0.1976919,0 0,-0.3954 0,-0.3954 -0.1976919,0 -0.1976918,0 0,0.3954 0,0.3954 0.1976918,0 z m 0.7907673,0 0.1976918,0 0,-0.3954 0,-0.3954 -0.1976918,0 -0.1976918,0 0,0.3954 0,0.3954 0.1976918,0 z m 0.7907672,0 0.1976918,0 0,-0.3954 0,-0.3954 -0.1976918,0 -0.1976918,0 0,0.3954 0,0.3954 0.1976918,0 z m 0.7907672,0 0.1976918,0 0,-0.3954 0,-0.3954 -0.1976918,0 -0.1976918,0 0,0.3954 0,0.3954 0.1976918,0 z m 0.7907672,0 0.1976918,0 0,-0.3954 0,-0.3954 -0.1976918,0 -0.1976918,0 0,0.3954 0,0.3954 0.1976918,0 z"
         id="path7046" />
      <path
         style="fill:#000000"
         d="m 4.3254586,1048.1685 -0.4589275,-0.01 -0.2471147,-0.2807 -0.2471148,-0.2807 0,-0.4178 0,-0.4179 0.2824168,-0.2824 0.282417,-0.2824 0.4236252,0 0.4236253,0 0.282417,0.2824 0.2824168,0.2824 0,0.4237 0,0.4236 -0.2824168,0.2824 -0.282417,0.2824 -0.4589273,-0.01 z m 0.035302,-0.7833 c 0.1087305,0 0.1976919,-0.089 0.1976919,-0.1976 0,-0.1088 -0.088961,-0.1977 -0.1976919,-0.1977 -0.1087304,0 -0.1976918,0.089 -0.1976918,0.1977 0,0.1087 0.088961,0.1976 0.1976918,0.1976 z m 6.6862194,0.7833 -0.458928,-0.01 -0.247114,-0.2807 -0.247115,-0.2807 0,-0.4178 0,-0.4179 0.282417,-0.2824 0.282417,-0.2824 0.423625,0 0.423625,0 0.282417,0.2824 0.282417,0.2824 0,0.4237 0,0.4236 -0.282417,0.2824 -0.282417,0.2824 -0.458927,-0.01 z m 0.0353,-0.7833 c 0.10873,0 0.197692,-0.089 0.197692,-0.1976 0,-0.1088 -0.08896,-0.1977 -0.197692,-0.1977 -0.108731,0 -0.197692,0.089 -0.197692,0.1977 0,0.1087 0.08896,0.1976 0.197692,0.1976 z m -8.6984394,0 -0.5930754,0 0,-1.1861 0,-1.1862 0.1976918,0 0.1976918,0 0,0.9885 0,0.9885 0.3953836,0 0.3953836,0 0,0.1977 0,0.1976 -0.5930754,0 z m 5.3376787,0 -1.976918,0 0,-0.1976 0,-0.1977 1.976918,0 1.976918,0 0,0.1977 0,0.1976 -1.976918,0 z m 4.8575697,0 c -0.06213,0 -0.112966,-0.089 -0.112966,-0.1976 0,-0.1088 0.08896,-0.1977 0.197691,-0.1977 l 0.197692,0 0,-0.9885 0,-0.9885 -1.186151,0 -1.18615,0 0,-0.1976 0,-0.1977 0.790767,0 0.790767,0 0,-0.3954 0,-0.3954 -1.383843,0 -1.3838423,0 0,0.5931 0,0.593 -0.1976918,0 -0.1976918,0 0,-0.7907 0,-0.7908 1.4968099,0 1.496809,0 0.282417,0.2824 c 0.155329,0.1554 0.282417,0.4026 0.282417,0.5495 l 0,0.267 0.395383,0.285 0.395384,0.2849 0,0.8601 0,0.8601 -0.282417,0.2824 c -0.155329,0.1554 -0.333252,0.2824 -0.395384,0.2824 z m -7.4275631,-2.7676 -3.3607607,0 0,-0.1977 c 0,-0.1088 0.088961,-0.1977 0.1976918,-0.1977 l 0.1976918,0 0,-0.3954 0,-0.3954 -0.1976918,0 c -0.1087305,0 -0.1976918,-0.089 -0.1976918,-0.1977 l 0,-0.1977 3.3607607,0 3.3607606,0 0,0.1977 c 0,0.1087 -0.088961,0.1977 -0.1976918,0.1977 l -0.1976918,0 0,0.3954 0,0.3954 0.1976918,0 c 0.1087305,0 0.1976918,0.089 0.1976918,0.1977 l 0,0.1977 -3.3607606,0 z m -2.3723017,-0.3954 0.1976918,0 0,-0.3954 0,-0.3954 -0.1976918,0 -0.1976918,0 0,0.3954 0,0.3954 0.1976918,0 z m 0.7907672,0 0.1976918,0 0,-0.3954 0,-0.3954 -0.1976918,0 -0.1976918,0 0,0.3954 0,0.3954 0.1976918,0 z m 0.7907672,0 0.1976919,0 0,-0.3954 0,-0.3954 -0.1976919,0 -0.1976918,0 0,0.3954 0,0.3954 0.1976918,0 z m 0.7907673,0 0.1976918,0 0,-0.3954 0,-0.3954 -0.1976918,0 -0.1976918,0 0,0.3954 0,0.3954 0.1976918,0 z m 0.7907672,0 0.1976918,0 0,-0.3954 0,-0.3954 -0.1976918,0 -0.1976918,0 0,0.3954 0,0.3954 0.1976918,0 z m 0.7907672,0 0.1976918,0 0,-0.3954 0,-0.3954 -0.1976918,0 -0.1976918,0 0,0.3954 0,0.3954 0.1976918,0 z m 0.7907672,0 0.1976918,0 0,-0.3954 0,-0.3954 -0.1976918,0 -0.1976918,0 0,0.3954 0,0.3954 0.1976918,0 z"
         id="path7044" />
    </g>
  </g>
</svg>
