<?xml version="1.0" encoding="UTF-8" standalone="no"?>
<!-- Created with Inkscape (http://www.inkscape.org/) -->

<svg
   xmlns:dc="http://purl.org/dc/elements/1.1/"
   xmlns:cc="http://creativecommons.org/ns#"
   xmlns:rdf="http://www.w3.org/1999/02/22-rdf-syntax-ns#"
   xmlns:svg="http://www.w3.org/2000/svg"
   xmlns="http://www.w3.org/2000/svg"
   xmlns:sodipodi="http://sodipodi.sourceforge.net/DTD/sodipodi-0.dtd"
   xmlns:inkscape="http://www.inkscape.org/namespaces/inkscape"
   width="16"
   height="16"
   id="svg2"
   version="1.1"
   inkscape:version="0.47 r22583"
   sodipodi:docname="FIRE3-64.svg">
  <defs
     id="defs4">
    <inkscape:perspective
       sodipodi:type="inkscape:persp3d"
       inkscape:vp_x="0 : 526.18109 : 1"
       inkscape:vp_y="0 : 1000 : 0"
       inkscape:vp_z="744.09448 : 526.18109 : 1"
       inkscape:persp3d-origin="372.04724 : 350.78739 : 1"
       id="perspective10" />
    <inkscape:perspective
       id="perspective2824"
       inkscape:persp3d-origin="0.5 : 0.33333333 : 1"
       inkscape:vp_z="1 : 0.5 : 1"
       inkscape:vp_y="0 : 1000 : 0"
       inkscape:vp_x="0 : 0.5 : 1"
       sodipodi:type="inkscape:persp3d" />
    <inkscape:perspective
       id="perspective5878"
       inkscape:persp3d-origin="0.5 : 0.33333333 : 1"
       inkscape:vp_z="1 : 0.5 : 1"
       inkscape:vp_y="0 : 1000 : 0"
       inkscape:vp_x="0 : 0.5 : 1"
       sodipodi:type="inkscape:persp3d" />
    <inkscape:perspective
       id="perspective5921"
       inkscape:persp3d-origin="0.5 : 0.33333333 : 1"
       inkscape:vp_z="1 : 0.5 : 1"
       inkscape:vp_y="0 : 1000 : 0"
       inkscape:vp_x="0 : 0.5 : 1"
       sodipodi:type="inkscape:persp3d" />
    <inkscape:perspective
       id="perspective5943"
       inkscape:persp3d-origin="0.5 : 0.33333333 : 1"
       inkscape:vp_z="1 : 0.5 : 1"
       inkscape:vp_y="0 : 1000 : 0"
       inkscape:vp_x="0 : 0.5 : 1"
       sodipodi:type="inkscape:persp3d" />
    <inkscape:perspective
       id="perspective5989"
       inkscape:persp3d-origin="0.5 : 0.33333333 : 1"
       inkscape:vp_z="1 : 0.5 : 1"
       inkscape:vp_y="0 : 1000 : 0"
       inkscape:vp_x="0 : 0.5 : 1"
       sodipodi:type="inkscape:persp3d" />
    <inkscape:perspective
       id="perspective6011"
       inkscape:persp3d-origin="0.5 : 0.33333333 : 1"
       inkscape:vp_z="1 : 0.5 : 1"
       inkscape:vp_y="0 : 1000 : 0"
       inkscape:vp_x="0 : 0.5 : 1"
       sodipodi:type="inkscape:persp3d" />
    <inkscape:perspective
       id="perspective6033"
       inkscape:persp3d-origin="0.5 : 0.33333333 : 1"
       inkscape:vp_z="1 : 0.5 : 1"
       inkscape:vp_y="0 : 1000 : 0"
       inkscape:vp_x="0 : 0.5 : 1"
       sodipodi:type="inkscape:persp3d" />
    <inkscape:perspective
       id="perspective6245"
       inkscape:persp3d-origin="0.5 : 0.33333333 : 1"
       inkscape:vp_z="1 : 0.5 : 1"
       inkscape:vp_y="0 : 1000 : 0"
       inkscape:vp_x="0 : 0.5 : 1"
       sodipodi:type="inkscape:persp3d" />
    <inkscape:perspective
       id="perspective6269"
       inkscape:persp3d-origin="0.5 : 0.33333333 : 1"
       inkscape:vp_z="1 : 0.5 : 1"
       inkscape:vp_y="0 : 1000 : 0"
       inkscape:vp_x="0 : 0.5 : 1"
       sodipodi:type="inkscape:persp3d" />
    <inkscape:perspective
       id="perspective6364"
       inkscape:persp3d-origin="0.5 : 0.33333333 : 1"
       inkscape:vp_z="1 : 0.5 : 1"
       inkscape:vp_y="0 : 1000 : 0"
       inkscape:vp_x="0 : 0.5 : 1"
       sodipodi:type="inkscape:persp3d" />
    <inkscape:perspective
       id="perspective6396"
       inkscape:persp3d-origin="0.5 : 0.33333333 : 1"
       inkscape:vp_z="1 : 0.5 : 1"
       inkscape:vp_y="0 : 1000 : 0"
       inkscape:vp_x="0 : 0.5 : 1"
       sodipodi:type="inkscape:persp3d" />
    <inkscape:perspective
       id="perspective6438"
       inkscape:persp3d-origin="0.5 : 0.33333333 : 1"
       inkscape:vp_z="1 : 0.5 : 1"
       inkscape:vp_y="0 : 1000 : 0"
       inkscape:vp_x="0 : 0.5 : 1"
       sodipodi:type="inkscape:persp3d" />
    <inkscape:perspective
       id="perspective6460"
       inkscape:persp3d-origin="0.5 : 0.33333333 : 1"
       inkscape:vp_z="1 : 0.5 : 1"
       inkscape:vp_y="0 : 1000 : 0"
       inkscape:vp_x="0 : 0.5 : 1"
       sodipodi:type="inkscape:persp3d" />
    <inkscape:perspective
       id="perspective6480"
       inkscape:persp3d-origin="0.5 : 0.33333333 : 1"
       inkscape:vp_z="1 : 0.5 : 1"
       inkscape:vp_y="0 : 1000 : 0"
       inkscape:vp_x="0 : 0.5 : 1"
       sodipodi:type="inkscape:persp3d" />
    <inkscape:perspective
       id="perspective6504"
       inkscape:persp3d-origin="0.5 : 0.33333333 : 1"
       inkscape:vp_z="1 : 0.5 : 1"
       inkscape:vp_y="0 : 1000 : 0"
       inkscape:vp_x="0 : 0.5 : 1"
       sodipodi:type="inkscape:persp3d" />
    <inkscape:perspective
       id="perspective6524"
       inkscape:persp3d-origin="0.5 : 0.33333333 : 1"
       inkscape:vp_z="1 : 0.5 : 1"
       inkscape:vp_y="0 : 1000 : 0"
       inkscape:vp_x="0 : 0.5 : 1"
       sodipodi:type="inkscape:persp3d" />
    <inkscape:perspective
       id="perspective6548"
       inkscape:persp3d-origin="0.5 : 0.33333333 : 1"
       inkscape:vp_z="1 : 0.5 : 1"
       inkscape:vp_y="0 : 1000 : 0"
       inkscape:vp_x="0 : 0.5 : 1"
       sodipodi:type="inkscape:persp3d" />
    <inkscape:perspective
       id="perspective6572"
       inkscape:persp3d-origin="0.5 : 0.33333333 : 1"
       inkscape:vp_z="1 : 0.5 : 1"
       inkscape:vp_y="0 : 1000 : 0"
       inkscape:vp_x="0 : 0.5 : 1"
       sodipodi:type="inkscape:persp3d" />
    <inkscape:perspective
       id="perspective6594"
       inkscape:persp3d-origin="0.5 : 0.33333333 : 1"
       inkscape:vp_z="1 : 0.5 : 1"
       inkscape:vp_y="0 : 1000 : 0"
       inkscape:vp_x="0 : 0.5 : 1"
       sodipodi:type="inkscape:persp3d" />
    <inkscape:perspective
       id="perspective6614"
       inkscape:persp3d-origin="0.5 : 0.33333333 : 1"
       inkscape:vp_z="1 : 0.5 : 1"
       inkscape:vp_y="0 : 1000 : 0"
       inkscape:vp_x="0 : 0.5 : 1"
       sodipodi:type="inkscape:persp3d" />
    <inkscape:perspective
       id="perspective6650"
       inkscape:persp3d-origin="0.5 : 0.33333333 : 1"
       inkscape:vp_z="1 : 0.5 : 1"
       inkscape:vp_y="0 : 1000 : 0"
       inkscape:vp_x="0 : 0.5 : 1"
       sodipodi:type="inkscape:persp3d" />
    <inkscape:perspective
       id="perspective6676"
       inkscape:persp3d-origin="0.5 : 0.33333333 : 1"
       inkscape:vp_z="1 : 0.5 : 1"
       inkscape:vp_y="0 : 1000 : 0"
       inkscape:vp_x="0 : 0.5 : 1"
       sodipodi:type="inkscape:persp3d" />
    <inkscape:perspective
       id="perspective6710"
       inkscape:persp3d-origin="0.5 : 0.33333333 : 1"
       inkscape:vp_z="1 : 0.5 : 1"
       inkscape:vp_y="0 : 1000 : 0"
       inkscape:vp_x="0 : 0.5 : 1"
       sodipodi:type="inkscape:persp3d" />
    <inkscape:perspective
       id="perspective6748"
       inkscape:persp3d-origin="0.5 : 0.33333333 : 1"
       inkscape:vp_z="1 : 0.5 : 1"
       inkscape:vp_y="0 : 1000 : 0"
       inkscape:vp_x="0 : 0.5 : 1"
       sodipodi:type="inkscape:persp3d" />
    <inkscape:perspective
       id="perspective6786"
       inkscape:persp3d-origin="0.5 : 0.33333333 : 1"
       inkscape:vp_z="1 : 0.5 : 1"
       inkscape:vp_y="0 : 1000 : 0"
       inkscape:vp_x="0 : 0.5 : 1"
       sodipodi:type="inkscape:persp3d" />
    <inkscape:perspective
       id="perspective6810"
       inkscape:persp3d-origin="0.5 : 0.33333333 : 1"
       inkscape:vp_z="1 : 0.5 : 1"
       inkscape:vp_y="0 : 1000 : 0"
       inkscape:vp_x="0 : 0.5 : 1"
       sodipodi:type="inkscape:persp3d" />
    <inkscape:perspective
       id="perspective6848"
       inkscape:persp3d-origin="0.5 : 0.33333333 : 1"
       inkscape:vp_z="1 : 0.5 : 1"
       inkscape:vp_y="0 : 1000 : 0"
       inkscape:vp_x="0 : 0.5 : 1"
       sodipodi:type="inkscape:persp3d" />
    <inkscape:perspective
       id="perspective6870"
       inkscape:persp3d-origin="0.5 : 0.33333333 : 1"
       inkscape:vp_z="1 : 0.5 : 1"
       inkscape:vp_y="0 : 1000 : 0"
       inkscape:vp_x="0 : 0.5 : 1"
       sodipodi:type="inkscape:persp3d" />
    <inkscape:perspective
       id="perspective6908"
       inkscape:persp3d-origin="0.5 : 0.33333333 : 1"
       inkscape:vp_z="1 : 0.5 : 1"
       inkscape:vp_y="0 : 1000 : 0"
       inkscape:vp_x="0 : 0.5 : 1"
       sodipodi:type="inkscape:persp3d" />
    <inkscape:perspective
       id="perspective6946"
       inkscape:persp3d-origin="0.5 : 0.33333333 : 1"
       inkscape:vp_z="1 : 0.5 : 1"
       inkscape:vp_y="0 : 1000 : 0"
       inkscape:vp_x="0 : 0.5 : 1"
       sodipodi:type="inkscape:persp3d" />
    <inkscape:perspective
       id="perspective6970"
       inkscape:persp3d-origin="0.5 : 0.33333333 : 1"
       inkscape:vp_z="1 : 0.5 : 1"
       inkscape:vp_y="0 : 1000 : 0"
       inkscape:vp_x="0 : 0.5 : 1"
       sodipodi:type="inkscape:persp3d" />
    <inkscape:perspective
       id="perspective7008"
       inkscape:persp3d-origin="0.5 : 0.33333333 : 1"
       inkscape:vp_z="1 : 0.5 : 1"
       inkscape:vp_y="0 : 1000 : 0"
       inkscape:vp_x="0 : 0.5 : 1"
       sodipodi:type="inkscape:persp3d" />
    <inkscape:perspective
       id="perspective7036"
       inkscape:persp3d-origin="0.5 : 0.33333333 : 1"
       inkscape:vp_z="1 : 0.5 : 1"
       inkscape:vp_y="0 : 1000 : 0"
       inkscape:vp_x="0 : 0.5 : 1"
       sodipodi:type="inkscape:persp3d" />
    <inkscape:perspective
       id="perspective7060"
       inkscape:persp3d-origin="0.5 : 0.33333333 : 1"
       inkscape:vp_z="1 : 0.5 : 1"
       inkscape:vp_y="0 : 1000 : 0"
       inkscape:vp_x="0 : 0.5 : 1"
       sodipodi:type="inkscape:persp3d" />
    <inkscape:perspective
       id="perspective7098"
       inkscape:persp3d-origin="0.5 : 0.33333333 : 1"
       inkscape:vp_z="1 : 0.5 : 1"
       inkscape:vp_y="0 : 1000 : 0"
       inkscape:vp_x="0 : 0.5 : 1"
       sodipodi:type="inkscape:persp3d" />
  </defs>
  <sodipodi:namedview
     id="base"
     pagecolor="#ffffff"
     bordercolor="#666666"
     borderopacity="1.0"
     inkscape:pageopacity="0.0"
     inkscape:pageshadow="2"
     inkscape:zoom="8.671875"
     inkscape:cx="10.564203"
     inkscape:cy="2.743179"
     inkscape:document-units="px"
     inkscape:current-layer="layer1"
     showgrid="true"
     inkscape:window-width="1280"
     inkscape:window-height="780"
     inkscape:window-x="-8"
     inkscape:window-y="-8"
     inkscape:window-maximized="1">
    <inkscape:grid
       type="xygrid"
       id="grid6324"
       empspacing="5"
       visible="true"
       enabled="true"
       snapvisiblegridlinesonly="true" />
  </sodipodi:namedview>
  <metadata
     id="metadata7">
    <rdf:RDF>
      <cc:Work
         rdf:about="">
        <dc:format>image/svg+xml</dc:format>
        <dc:type
           rdf:resource="http://purl.org/dc/dcmitype/StillImage" />
        <dc:title></dc:title>
      </cc:Work>
    </rdf:RDF>
  </metadata>
  <g
     inkscape:label="Calque 1"
     inkscape:groupmode="layer"
     id="layer1"
     transform="translate(0,-1036.3622)">
    <g
       id="g7104"
       transform="translate(-0.228225,0.5086)">
      <path
         style="fill:#c8c9ca"
         d="m 7.973721,1050.3342 c -0.018178,-0.015 -0.3380166,-0.3538 -0.7107524,-0.7519 l -0.6777013,-0.7239 -1.0850129,-0.1371 c -0.596757,-0.075 -1.3290026,-0.2592 -1.6272122,-0.4085 l -0.5421995,-0.2713 -0.2745418,-0.9483 -0.2745417,-0.9482 0.1957618,-1.0312 0.1957617,-1.0313 -0.3106479,-0.4806 -0.3106482,-0.4807 -0.5440086,-0.07 -0.5440085,-0.07 1.0367562,-1.3802 1.0367563,-1.3802 0.7196294,-0.4376 0.7196294,-0.4376 0.9477931,0 0.947793,0 0.4790868,-0.51 0.4790867,-0.51 0.00862,-0.3163 0.00862,-0.3163 0.2953943,0.6784 0.2953943,0.6784 0.667402,0.2765 0.6674019,0.2764 0.5421601,-0.071 0.54216,-0.071 0.61137,0.3272 0.61137,0.3272 0.950767,1.4173 0.950768,1.4172 -0.486732,0.2463 -0.486732,0.2463 0.07697,2.0161 0.07697,2.0162 -0.532274,0.5322 -0.532275,0.5323 -1.295623,0.1619 -1.2956235,0.1619 -0.7499228,0.7499 c -0.4124577,0.4125 -0.7647958,0.7373 -0.7829738,0.7219 z"
         id="path7126" />
      <path
         style="fill:#b7c2c4"
         d="m 7.973721,1050.3342 c -0.018178,-0.015 -0.3380166,-0.3538 -0.7107524,-0.7519 l -0.6777013,-0.7239 -1.0850129,-0.1371 c -0.596757,-0.075 -1.3290026,-0.2592 -1.6272122,-0.4085 l -0.5421995,-0.2713 -0.2745418,-0.9483 -0.2745417,-0.9482 0.1957618,-1.0312 0.1957617,-1.0313 -0.3106479,-0.4806 -0.3106482,-0.4807 -0.5440086,-0.07 -0.5440085,-0.07 1.0367562,-1.3802 1.0367563,-1.3802 0.7196294,-0.4376 0.7196294,-0.4376 0.9477931,0 0.947793,0 0.4790868,-0.51 0.4790867,-0.51 0.00862,-0.3163 0.00862,-0.3163 0.2953943,0.6784 0.2953943,0.6784 0.667402,0.2765 0.6674019,0.2764 0.5421601,-0.071 0.54216,-0.071 0.61137,0.3272 0.61137,0.3272 0.950767,1.4173 0.950768,1.4172 -0.486732,0.2463 -0.486732,0.2463 0.07697,2.0161 0.07697,2.0162 -0.532274,0.5322 -0.532275,0.5323 -1.295623,0.1619 -1.2956235,0.1619 -0.7499228,0.7499 c -0.4124577,0.4125 -0.7647958,0.7373 -0.7829738,0.7219 z m -1.3550866,-1.7347 c 0.060593,0 0.1101696,-0.05 0.1101696,-0.1102 0,-0.061 -0.049576,-0.1101 -0.1101696,-0.1101 -0.060593,0 -0.1101696,0.049 -0.1101696,0.1101 0,0.061 0.049576,0.1102 0.1101696,0.1102 z m 2.8644106,0 c 0.060593,0 0.1101697,-0.05 0.1101697,-0.1102 0,-0.061 -0.049576,-0.1101 -0.1101697,-0.1101 -0.060593,0 -0.1101696,0.049 -0.1101696,0.1101 0,0.061 0.049576,0.1102 0.1101696,0.1102 z m -3.7274062,-0.2377 0.422317,-0.017 -0.2891953,-0.1158 -0.2891953,-0.1157 -0.1331217,0.1331 -0.1331215,0.1332 0.4223168,-0.017 z m 4.7189332,-0.017 0.550848,0 -0.275424,-0.1112 -0.275424,-0.1111 -0.275424,0.1111 -0.2754244,0.1112 0.5508484,0 z m -6.1057975,-0.1856 c 0.1265457,0 0.1887695,-0.028 0.1382752,-0.062 -0.050494,-0.034 -0.2901134,-0.2078 -0.5324866,-0.3856 l -0.4406786,-0.3233 0.3024035,0.3856 c 0.1663218,0.2121 0.4059408,0.3856 0.5324865,0.3856 z m 7.4148295,0 c 0.114034,0 0.267913,-0.098 0.341953,-0.2178 l 0.134617,-0.2178 -0.341953,0.1312 c -0.188074,0.072 -0.341953,0.1702 -0.341953,0.2178 0,0.048 0.0933,0.087 0.207336,0.087 z m -8.2497195,-0.8813 c 0.060593,0 0.1101696,-0.05 0.1101696,-0.1102 0,-0.061 -0.049576,-0.1102 -0.1101696,-0.1102 -0.060593,0 -0.1101696,0.05 -0.1101696,0.1102 0,0.061 0.049576,0.1102 0.1101696,0.1102 z m -0.1778158,-0.9407 c 0.055866,-0.2144 0.052192,-0.5118 -0.00816,-0.661 l -0.1097391,-0.2712 0.00816,0.661 0.00816,0.661 0.1015738,-0.3898 z m 4.5846014,-1.5763 4.6271249,3e-4 -2.246502,-0.071 c -1.2355761,-0.039 -3.3177823,-0.039 -4.6271249,-3e-4 l -2.3806229,0.071 4.6271249,4e-4 z m -4.8474642,-3.2119 c 0.060593,0 0.1101697,-0.05 0.1101697,-0.1101 0,-0.061 -0.049576,-0.1102 -0.1101697,-0.1102 -0.060593,0 -0.1101696,0.05 -0.1101696,0.1102 0,0.061 0.049576,0.1101 0.1101696,0.1101 z m 8.3728931,-0.2203 c 0.06059,0 0.110169,-0.05 0.110169,-0.1102 0,-0.061 -0.04958,-0.1101 -0.110169,-0.1101 -0.06059,0 -0.11017,0.05 -0.11017,0.1101 0,0.061 0.04958,0.1102 0.11017,0.1102 z m -7.7118752,-0.2203 c 0.060593,0 0.1101696,-0.05 0.1101696,-0.1102 0,-0.061 -0.049576,-0.1102 -0.1101696,-0.1102 -0.060593,0 -0.1101697,0.05 -0.1101697,0.1102 0,0.061 0.049576,0.1102 0.1101697,0.1102 z m 4.6271248,0 c 0.060593,0 0.1101697,-0.05 0.1101697,-0.1102 0,-0.061 -0.049576,-0.1102 -0.1101697,-0.1102 -0.060593,0 -0.1101696,0.05 -0.1101696,0.1102 0,0.061 0.049576,0.1102 0.1101696,0.1102 z m -4.2966159,-0.5509 c 0.1211866,-0.075 0.2203393,-0.1799 0.2203393,-0.2333 0,-0.053 -0.099153,-0.097 -0.2203393,-0.097 l -0.2203393,0 0,0.2334 0,0.2333 0.2203393,-0.1362 z m 7.8480523,0.1102 c 0.06059,0 0.04889,-0.099 -0.02601,-0.2204 -0.0749,-0.1211 -0.185753,-0.2203 -0.246347,-0.2203 -0.06059,0 -0.04889,0.099 0.02601,0.2203 0.0749,0.1212 0.185753,0.2204 0.246347,0.2204 z m -1.898892,-0.7121 0.771188,0 -0.385594,-0.1008 c -0.212077,-0.055 -0.559111,-0.055 -0.7711875,0 l -0.3855938,0.1008 0.7711873,0 z m -3.305089,-0.1693 0.2937857,0 -0.1468927,-0.1469 -0.146893,-0.1469 -0.1468929,0.1469 -0.1468927,0.1469 0.2937856,0 z m 2.2033928,0 0.2937857,0 -0.1468927,-0.1469 -0.146893,-0.1469 -0.1468929,0.1469 -0.1468927,0.1469 0.2937856,0 z m -0.7711874,-0.4406 c 0.060593,0 0.1101696,-0.05 0.1101696,-0.1102 0,-0.061 -0.049576,-0.1102 -0.1101696,-0.1102 -0.060593,0 -0.1101697,0.05 -0.1101697,0.1102 0,0.061 0.049576,0.1102 0.1101697,0.1102 z"
         id="path7124" />
      <path
         style="fill:#b4b2b1"
         d="m 7.973721,1050.3342 c -0.018178,-0.015 -0.3380166,-0.3538 -0.7107524,-0.7519 l -0.6777013,-0.7239 -1.0850129,-0.1371 c -0.596757,-0.075 -1.3290026,-0.2592 -1.6272122,-0.4085 l -0.5421995,-0.2713 -0.2745418,-0.9483 -0.2745417,-0.9482 0.1957618,-1.0312 0.1957617,-1.0313 -0.3106479,-0.4806 -0.3106482,-0.4807 -0.5440086,-0.07 -0.5440085,-0.07 1.0367562,-1.3802 1.0367563,-1.3802 0.7196294,-0.4376 0.7196294,-0.4376 0.9477931,0 0.947793,0 0.4790868,-0.51 0.4790867,-0.51 0.00862,-0.3163 0.00862,-0.3163 0.2953943,0.6784 0.2953943,0.6784 0.667402,0.2765 0.6674019,0.2764 0.5421601,-0.071 0.54216,-0.071 0.61137,0.3272 0.61137,0.3272 0.950767,1.4173 0.950768,1.4172 -0.486732,0.2463 -0.486732,0.2463 0.07697,2.0161 0.07697,2.0162 -0.532274,0.5322 -0.532275,0.5323 -1.295623,0.1619 -1.2956235,0.1619 -0.7499228,0.7499 c -0.4124577,0.4125 -0.7647958,0.7373 -0.7829738,0.7219 z m -0.066936,-0.8533 c 0.089045,0 0.4305539,-0.1975 0.7589101,-0.4388 l 0.5970108,-0.4388 1.3220351,-0.2543 1.322036,-0.2544 0.385594,-0.3325 c 0.212076,-0.1829 0.385594,-0.4274 0.385594,-0.5432 l 0,-0.2106 -0.385594,0.4436 -0.385594,0.4436 -0.848708,0.1459 -0.848707,0.1458 0.352944,-0.5039 0.352944,-0.5039 0,-0.7091 0,-0.7092 -0.17429,-0.1077 -0.174291,-0.1077 0.08841,0.7573 0.08841,0.7573 -0.359881,0.5493 -0.359882,0.5492 -1.1517013,0.035 -1.1517017,0.035 0.7377951,0.091 0.7377948,0.091 -0.7255175,0.5353 c -0.3990347,0.2944 -0.6526631,0.5353 -0.5636184,0.5353 z m -0.4238683,-0.4407 0.2252983,0 -0.475746,-0.3332 -0.475746,-0.3333 -0.730062,-0.1067 -0.7300621,-0.1067 0.7711875,0.2369 c 0.4241531,0.1302 0.8653825,0.3282 0.9805098,0.4399 0.1151273,0.1117 0.3107066,0.2031 0.4346205,0.2031 z m -2.8973409,-0.9114 0.4906839,-0.03 -0.5144319,-0.098 -0.5144318,-0.098 -0.32968,-0.789 -0.32968,-0.789 0.1379934,-0.7356 0.1379934,-0.7356 2.9790816,0 2.9790813,0 0.4527833,0.2424 0.452783,0.2423 -0.149764,-0.2423 -0.149763,-0.2424 1.096339,0 1.096338,0 0.09181,0.1653 0.09181,0.1652 -0.03657,-0.2203 -0.03657,-0.2203 -4.5430163,-0.06 -4.5430163,-0.06 -0.1419143,0.7565 -0.1419144,0.7565 0.1540405,0.5149 c 0.084722,0.2832 0.2947311,0.738 0.4666861,1.0107 l 0.3126456,0.4957 0.4906839,-0.03 z m 1.8518264,-0.4522 0.098157,-0.372 0.3720466,-0.098 0.3720464,-0.098 -0.4957633,-0.025 -0.4957634,-0.026 0.02556,0.4958 0.02556,0.4958 0.098157,-0.3721 z m 2.8406286,-0.6195 0.3458337,0 -0.07041,-0.4785 -0.07041,-0.4785 -0.2754241,-0.091 -0.2754241,-0.091 0,0.5692 0,0.5692 0.3458338,0 z m 0.025022,-0.3993 -0.1157264,0.2892 -0.017395,-0.4224 -0.017395,-0.4223 0.1331217,0.1331 0.1331215,0.1332 -0.1157263,0.2892 z m -2.574249,-0.5331 0.7711875,0 -0.3855937,-0.1008 c -0.2120766,-0.055 -0.5591109,-0.055 -0.7711875,0 l -0.3855937,0.1008 0.7711874,0 z m -3.5497697,-4.6223 c 0.2779751,-0.1947 0.6506731,-0.5614 0.8282176,-0.8149 l 0.3228083,-0.4609 -0.2066815,0 c -0.1136748,0 -0.486373,0.3667 -0.8282177,0.8149 l -0.6215363,0.8149 0.5054096,-0.354 z m 4.1006179,-0.1741 c 0.1817799,-0.1509 0.330509,-0.3239 0.330509,-0.3845 0,-0.061 -0.1487291,0.013 -0.330509,0.1642 -0.1817799,0.1508 -0.3305089,0.3238 -0.3305089,0.3844 0,0.061 0.148729,-0.013 0.3305089,-0.1641 z m 1.6134223,0.2203 c 0.069992,0 0.00827,-0.1189 -0.1371491,-0.2644 l -0.2644071,-0.2644 0,-0.7348 0,-0.7349 0.4261932,0.2281 0.426193,0.2281 0.6408064,0 0.6408063,0 0.410628,0.7625 c 0.225845,0.4193 0.451074,0.722 0.500509,0.6726 0.04943,-0.049 -0.127821,-0.4422 -0.393902,-0.8727 l -0.483782,-0.7828 -0.653989,0 -0.6539899,0 -0.628362,-0.3249 -0.6283618,-0.3249 0.1182129,0.9308 0.1182131,0.9309 0.2175615,0.2754 c 0.1196587,0.1515 0.2748274,0.2754 0.3448195,0.2754 z m 3.7238747,0 c 0.05006,0 -0.120785,-0.2974 -0.379663,-0.661 -0.258877,-0.3635 -0.519363,-0.661 -0.578856,-0.661 -0.05949,0 -0.03766,0.124 0.04852,0.2754 0.08618,0.1515 0.305702,0.449 0.487832,0.6611 0.182129,0.212 0.372105,0.3855 0.422168,0.3855 z m -8.2017076,-0.2203 c 0.060593,0 0.1101697,-0.05 0.1101697,-0.1102 0,-0.061 -0.049576,-0.1101 -0.1101697,-0.1101 -0.060593,0 -0.1101696,0.05 -0.1101696,0.1101 0,0.061 0.049576,0.1102 0.1101696,0.1102 z m 1.5099994,-1.3784 1.0693211,-0.115 0.3628842,-0.398 0.3628845,-0.398 -0.3738508,0.2806 -0.3738507,0.2806 -0.9043352,0.067 c -0.4973842,0.037 -0.9736438,0.1417 -1.0583546,0.2324 l -0.1540193,0.165 1.0693208,-0.115 z"
         id="path7122" />
      <path
         style="fill:#ba8578"
         d="m 7.973721,1050.3342 c -0.018178,-0.015 -0.3380166,-0.3538 -0.7107524,-0.7519 l -0.6777013,-0.7239 -1.0850129,-0.1371 c -0.596757,-0.075 -1.3290026,-0.2592 -1.6272122,-0.4085 l -0.5421995,-0.2713 -0.2745418,-0.9483 -0.2745417,-0.9482 0.1957618,-1.0312 0.1957617,-1.0313 -0.320542,-0.4957 -0.3205419,-0.4958 -0.5607726,0 -0.5607725,0 0.472531,-0.6636 0.472531,-0.6636 0.2171855,0.1342 0.2171855,0.1343 0.8810423,-0.9262 0.8810425,-0.9262 -0.1458649,-0.1419 -0.1458648,-0.1419 -0.858446,0.9915 c -0.4721454,0.5454 -0.8587143,0.9132 -0.8590421,0.8174 -3.283e-4,-0.096 0.2179398,-0.4698 0.4850391,-0.8311 l 0.485635,-0.6568 0.7388256,-0.4359 0.7388256,-0.4359 0.9405239,0 0.940524,0 0.4790868,-0.51 0.4790867,-0.51 0.00862,-0.3163 0.00862,-0.3163 0.2953943,0.6784 0.2953943,0.6784 0.6857816,0.2841 0.6857815,0.284 0.5523149,-0.1056 0.552316,-0.1055 0.385853,0.2929 c 0.212219,0.1611 0.308942,0.296 0.21494,0.2999 l -0.170913,0.01 0.313609,0.6064 c 0.172485,0.3336 0.522066,0.7951 0.776846,1.0257 l 0.463237,0.4192 0,-0.2043 c 0,-0.1123 -0.304677,-0.5739 -0.67706,-1.0256 l -0.677059,-0.8214 0.23174,0 0.231739,0 0.987137,1.4714 0.987136,1.4715 -0.486732,0.2463 -0.486732,0.2463 0.07697,2.0161 0.07697,2.0162 -0.532274,0.5322 -0.532275,0.5323 -1.295623,0.1619 -1.2956235,0.1619 -0.7499228,0.7499 c -0.4124577,0.4125 -0.7647958,0.7373 -0.7829738,0.7219 z m 0.010682,-0.6514 c 0.024053,0.01 0.3087976,-0.2273 0.6327662,-0.5275 l 0.5890334,-0.5459 0.7994394,-0.124 c 0.439691,-0.068 1.164186,-0.2211 1.609988,-0.3396 l 0.810549,-0.2156 0.243394,-0.7375 0.243394,-0.7375 -0.145663,-0.9109 -0.145662,-0.9109 -4.5753895,0 -4.5753899,0 -0.1337435,0.3485 c -0.073559,0.1917 -0.1337435,0.6828 -0.1337435,1.0914 l 0,0.7428 0.2562424,0.5623 0.2562423,0.5624 0.900539,0.2218 c 0.4952962,0.122 1.278044,0.3255 1.7394393,0.4522 l 0.8389006,0.2303 0.3729654,0.4097 c 0.2051311,0.2253 0.3926451,0.4179 0.416698,0.428 z m -2.3788461,-1.524 -0.4329585,0 -0.1151575,-0.3001 c -0.063337,-0.165 -0.085013,-0.8839 -0.048169,-1.5974 l 0.066988,-1.2974 1.1567812,-0.067 1.1567812,-0.067 0,0.5318 0,0.5318 -0.5250207,-0.1003 -0.5250207,-0.1004 -0.1490009,0.2411 -0.1490009,0.2411 0.5638519,0 0.563852,0 0,0.3152 0,0.3151 -0.4957634,0.07 -0.4957634,0.07 -0.06972,0.6059 -0.06972,0.6059 -0.4329583,0 z m 3.207887,0 -0.9829435,0 0,-1.6525 0,-1.6526 0.8913727,0 0.8913724,0 0.5408325,0.5409 0.540833,0.5408 0,0.6295 0,0.6295 -0.449262,0.4822 -0.4492617,0.4822 -0.9829434,0 z m 0.394177,-0.935 0.2754241,-0.091 0.067004,-0.5608 0.067004,-0.5608 -0.3424284,-0.1314 -0.3424282,-0.1314 0,0.7827 0,0.7826 0.2754241,-0.09 z m 0.6151666,-5.2345 c 0.3223135,0 0.8869005,-0.1049 1.2546385,-0.2331 l 0.668613,-0.233 -0.463033,-0.8454 -0.463033,-0.8453 -0.9528297,-0.1074 -0.9528292,-0.1074 -0.4317372,-0.3907 -0.4317372,-0.3907 0,0.6808 c 0,0.3745 0.1036172,0.9599 0.2302607,1.3011 0.1266433,0.3412 0.393476,0.7442 0.5929615,0.8957 l 0.3627009,0.2754 0.5860247,0 z m -3.8923436,-0.2203 0.8801276,0 0.5099645,-0.4791 0.5099644,-0.4791 0,-0.9656 0,-0.9656 -0.4897053,0.343 -0.4897054,0.343 -0.9016905,0 -0.9016902,0 -0.3891974,0.8161 -0.3891972,0.8162 0.3905012,0.2855 0.3905009,0.2856 0.8801274,0 z"
         id="path7120" />
      <path
         style="fill:#bb725f"
         d="m 8.0686916,1050.3342 c -0.070412,-0.015 -0.4329872,-0.3538 -0.805723,-0.7519 l -0.6777013,-0.7239 -1.0850129,-0.1371 c -0.596757,-0.075 -1.3290026,-0.2592 -1.6272122,-0.4085 l -0.5421995,-0.2713 -0.2745418,-0.9483 -0.2745417,-0.9482 0.1957618,-1.0312 0.1957617,-1.0313 -0.3106479,-0.4806 -0.3106482,-0.4807 -0.537837,-0.07 -0.537837,-0.07 1.0496869,-1.3918 1.0496869,-1.3918 0.7005273,-0.426 0.7005271,-0.426 0.9477931,0 0.947793,0 0.4790868,-0.51 0.4790867,-0.51 0.00862,-0.3163 0.00862,-0.3163 0.2953943,0.6784 0.2953943,0.6784 0.667402,0.2765 0.6674019,0.2764 0.5421601,-0.071 0.54216,-0.071 0.61137,0.3272 0.61137,0.3272 0.950767,1.4173 0.950768,1.4172 -0.486732,0.2463 -0.486732,0.2463 0.07697,2.0161 0.07697,2.0162 -0.528458,0.5284 -0.528458,0.5285 -1.154843,0.1532 c -0.635164,0.084 -1.3878394,0.2593 -1.6726123,0.3891 l -0.5177691,0.2359 -0.2817798,0.5265 c -0.1549787,0.2896 -0.3393895,0.5139 -0.4098013,0.4985 z m 0.023213,-0.633 c 0.1062077,0 0.2472211,-0.141 0.3133632,-0.3134 l 0.1202583,-0.3134 0.8688119,-0.3476 0.868812,-0.3476 0.601474,0 0.601475,0 0.533448,-0.2722 0.533448,-0.2722 0.205607,-0.6197 0.205607,-0.6197 -0.147274,-0.9821 -0.147274,-0.9821 -4.668058,0.059 -4.668058,0.06 -0.066688,1.0351 -0.066688,1.0351 0.3426607,0.6626 0.3426606,0.6627 0.8257236,0.1289 c 0.4541482,0.071 1.1814042,0.2233 1.6161245,0.3385 l 0.7904004,0.2095 0.4005306,0.4426 c 0.2202919,0.2434 0.4874277,0.4426 0.5936352,0.4426 z m -2.3683987,-1.6099 c -0.1287608,0.042 -0.302278,0.01 -0.3855938,-0.075 l -0.1514832,-0.1515 0,-1.3954 0,-1.3955 1.1016964,0 1.1016964,0 0,0.3305 0,0.3305 -0.6610179,0 -0.6610178,0 0,0.2203 0,0.2204 0.5508482,0 0.5508482,0 0,0.3305 0,0.3305 -0.5362128,0 -0.5362126,0 -0.06972,0.5889 -0.06972,0.589 -0.2341105,0.077 z m 3.3166085,-0.01 -0.8791052,0.1168 -0.1652545,-0.1674 -0.1652545,-0.1675 0,-1.3954 0,-1.3955 1.074717,0 1.0747172,0 0.2460106,0.2964 c 0.135305,0.163 0.304352,0.5881 0.37566,0.9447 l 0.12965,0.6482 -0.406017,0.5014 -0.4060181,0.5014 -0.8791055,0.1169 z m 0.1124215,-0.8056 0.4685993,0 -0.069045,-0.7161 -0.069045,-0.7161 -0.3305089,0 -0.3305089,0 -0.069045,0.7161 -0.069045,0.7161 0.4685993,0 z m -6.4212986,-5.2882 c 0.119603,0 0.5716107,-0.4137 1.0044619,-0.9194 0.4328512,-0.5057 0.7522271,-0.9542 0.7097241,-0.9967 -0.042503,-0.043 -0.2154103,-0.022 -0.3842389,0.045 -0.1688284,0.067 -0.5860611,0.5158 -0.9271837,0.9967 l -0.6202231,0.8744 0.2174597,0 z m 7.0738468,0 c 0.3320509,0 0.9134919,-0.108 1.2920919,-0.2399 l 0.688363,-0.24 -0.424385,-0.8319 -0.424384,-0.8318 -1.0112284,-0.114 -1.0112277,-0.114 -0.4618789,-0.4116 -0.461879,-0.4117 0.1119143,1.1979 0.1119143,1.1978 0.4934857,0.3996 0.4934857,0.3996 0.6037281,0 z m 3.0364069,-0.09 c 0.04859,-0.049 -0.141846,-0.4426 -0.423186,-0.8756 -0.28134,-0.433 -0.637763,-0.8368 -0.79205,-0.8974 l -0.280523,-0.11 0.252972,0.4908 c 0.139135,0.2699 0.455803,0.7135 0.703708,0.9857 0.247905,0.2722 0.490491,0.4551 0.539079,0.4065 z m -6.8287898,-0.1442 0.9364419,0.014 0.4406786,-0.4407 0.4406785,-0.4407 0,-1.004 0,-1.004 -0.4897053,0.343 -0.4897054,0.343 -0.8874151,0 -0.8874151,0 -0.4837761,0.8911 -0.483776,0.8911 0.483776,0.1948 c 0.2660769,0.1072 0.9051749,0.2011 1.420218,0.2088 z"
         id="path7118" />
      <path
         style="fill:#bd4f31"
         d="m 8.0686916,1050.3342 c -0.070412,-0.015 -0.4329872,-0.3538 -0.805723,-0.7519 l -0.6777013,-0.7239 -1.0850129,-0.1371 c -0.596757,-0.075 -1.3290026,-0.2592 -1.6272122,-0.4085 l -0.5421995,-0.2713 -0.2745418,-0.9483 -0.2745417,-0.9482 0.1957618,-1.0312 0.1957617,-1.0313 -0.3106479,-0.4806 -0.3106482,-0.4807 -0.537837,-0.07 -0.537837,-0.07 1.0496869,-1.3918 1.0496869,-1.3918 0.7005273,-0.426 0.7005271,-0.426 0.9477931,0 0.947793,0 0.4790868,-0.51 0.4790867,-0.51 0.00862,-0.3163 0.00862,-0.3163 0.2953943,0.6784 0.2953943,0.6784 0.667402,0.2765 0.6674019,0.2764 0.5421601,-0.071 0.54216,-0.071 0.61137,0.3272 0.61137,0.3272 0.950767,1.4173 0.950768,1.4172 -0.486732,0.2463 -0.486732,0.2463 0.07697,2.0161 0.07697,2.0162 -0.528458,0.5284 -0.528458,0.5285 -1.154843,0.1532 c -0.635164,0.084 -1.3878394,0.2593 -1.6726123,0.3891 l -0.5177691,0.2359 -0.2817798,0.5265 c -0.1549787,0.2896 -0.3393895,0.5139 -0.4098013,0.4985 z m 0.023213,-0.633 c 0.1062077,0 0.2472211,-0.141 0.3133632,-0.3134 l 0.1202583,-0.3134 0.8688119,-0.3476 0.868812,-0.3476 0.601474,0 0.601475,0 0.533448,-0.2722 0.533448,-0.2722 0.205607,-0.6197 0.205607,-0.6197 -0.147274,-0.9821 -0.147274,-0.9821 -4.668058,0.059 -4.668058,0.06 -0.066688,1.0351 -0.066688,1.0351 0.3426607,0.6626 0.3426606,0.6627 0.8257236,0.1289 c 0.4541482,0.071 1.1814042,0.2233 1.6161245,0.3385 l 0.7904004,0.2095 0.4005306,0.4426 c 0.2202919,0.2434 0.4874277,0.4426 0.5936352,0.4426 z m -2.4647972,-1.7627 -0.4406785,0 0,-1.4322 0,-1.4322 1.1016964,0 1.1016964,0 0,0.3305 0,0.3305 -0.6610179,0 -0.6610178,0 0,0.2203 0,0.2204 0.5508482,0 0.5508482,0 0,0.3305 0,0.3305 -0.5508482,0 -0.5508482,0 0,0.5508 0,0.5509 -0.4406786,0 z m 3.2610214,0 -1.0576286,0 0,-1.4322 0,-1.4322 0.8958425,0 0.8958426,0 0.4261937,0.2281 0.426193,0.2281 0,0.9397 0,0.9397 -0.264407,0.2644 -0.2644077,0.2644 -1.0576285,0 z m 0.2783674,-0.661 0.454639,0 -0.069045,-0.7143 -0.069045,-0.7143 -0.3855937,-0.073 -0.3855937,-0.073 0,0.7873 0,0.7874 0.4546388,0 z m -6.4352589,-5.2882 c 0.119603,0 0.5716107,-0.4137 1.0044619,-0.9194 0.4328512,-0.5057 0.7522271,-0.9542 0.7097241,-0.9967 -0.042503,-0.043 -0.2154103,-0.022 -0.3842389,0.045 -0.1688284,0.067 -0.5860611,0.5158 -0.9271837,0.9967 l -0.6202231,0.8744 0.2174597,0 z m 7.0738468,0 c 0.3320509,0 0.9134919,-0.108 1.2920919,-0.2399 l 0.688363,-0.24 -0.424385,-0.8319 -0.424384,-0.8318 -1.0112284,-0.114 -1.0112277,-0.114 -0.4618789,-0.4116 -0.461879,-0.4117 0.1119143,1.1979 0.1119143,1.1978 0.4934857,0.3996 0.4934857,0.3996 0.6037281,0 z m 3.0364069,-0.09 c 0.04859,-0.049 -0.141846,-0.4426 -0.423186,-0.8756 -0.28134,-0.433 -0.637763,-0.8368 -0.79205,-0.8974 l -0.280523,-0.11 0.252972,0.4908 c 0.139135,0.2699 0.455803,0.7135 0.703708,0.9857 0.247905,0.2722 0.490491,0.4551 0.539079,0.4065 z m -6.8287898,-0.1442 0.9364419,0.014 0.4406786,-0.4407 0.4406785,-0.4407 0,-1.004 0,-1.004 -0.4897053,0.343 -0.4897054,0.343 -0.8874151,0 -0.8874151,0 -0.4837761,0.8911 -0.483776,0.8911 0.483776,0.1948 c 0.2660769,0.1072 0.9051749,0.2011 1.420218,0.2088 z"
         id="path7116" />
      <path
         style="fill:#616161"
         d="m 8.0686916,1050.3342 c -0.070412,-0.015 -0.4329872,-0.3538 -0.805723,-0.7519 l -0.6777013,-0.7239 -1.0850129,-0.1371 c -0.596757,-0.075 -1.3290026,-0.2592 -1.6272122,-0.4085 l -0.5421995,-0.2713 -0.2745418,-0.9483 -0.2745417,-0.9482 0.1957618,-1.0312 0.1957617,-1.0313 -0.3106479,-0.4806 -0.3106482,-0.4807 -0.537837,-0.07 -0.537837,-0.07 1.0496869,-1.3918 1.0496869,-1.3918 0.7005273,-0.426 0.7005271,-0.426 0.9477931,0 0.947793,0 0.4790868,-0.51 0.4790867,-0.51 0.00862,-0.3163 0.00862,-0.3163 0.2953943,0.6784 0.2953943,0.6784 0.667402,0.2765 0.6674019,0.2764 0.5421601,-0.071 0.54216,-0.071 0.61137,0.3272 0.61137,0.3272 0.950767,1.4173 0.950768,1.4172 -0.486732,0.2463 -0.486732,0.2463 0.07697,2.0161 0.07697,2.0162 -0.528458,0.5284 -0.528458,0.5285 -1.154843,0.1532 c -0.635164,0.084 -1.3878394,0.2593 -1.6726123,0.3891 l -0.5177691,0.2359 -0.2817798,0.5265 c -0.1549787,0.2896 -0.3393895,0.5139 -0.4098013,0.4985 z m 0.023213,-0.633 c 0.1062077,0 0.2472211,-0.141 0.3133632,-0.3134 l 0.1202583,-0.3134 0.8688119,-0.3476 0.868812,-0.3476 0.601474,0 0.601475,0 0.533448,-0.2722 0.533448,-0.2722 0.205607,-0.6197 0.205607,-0.6197 -0.147274,-0.9821 -0.147274,-0.9821 -4.668058,0.059 -4.668058,0.06 -0.066688,1.0351 -0.066688,1.0351 0.3426607,0.6626 0.3426606,0.6627 0.8257236,0.1289 c 0.4541482,0.071 1.1814042,0.2233 1.6161245,0.3385 l 0.7904004,0.2095 0.4005306,0.4426 c 0.2202919,0.2434 0.4874277,0.4426 0.5936352,0.4426 z m -2.5749668,-1.7627 -0.3305089,0 0,-1.4322 0,-1.4322 1.1016964,0 1.1016964,0 0,0.3305 0,0.3305 -0.789549,0 -0.7895493,0 0.090439,0.2754 0.090439,0.2754 0.5889406,0.07 0.5889407,0.07 0,0.2057 0,0.2057 -0.6610178,0 -0.6610179,0 0,0.5508 0,0.5509 -0.3305089,0 z m 3.3444354,10e-5 -0.9207033,2e-4 0.030068,-1.3773 0.030068,-1.3773 0.7016286,-0.07 0.7016286,-0.07 0.5352539,0.3507 0.535254,0.3508 0,0.7503 0,0.7504 -0.346248,0.3462 -0.346247,0.3463 -0.9207035,10e-5 z m 0.1540136,-0.4408 c 0.1669414,0 0.4258951,-0.1474 0.5754531,-0.3276 l 0.2719233,-0.3277 -0.1389724,-0.5537 -0.1389721,-0.5537 -0.4364807,0 -0.4364806,0 0,0.8813 0,0.8814 0.3035294,0 z m -6.2841495,-5.5085 c 0.119603,0 0.5716107,-0.4137 1.0044619,-0.9194 0.4328512,-0.5057 0.7522271,-0.9542 0.7097241,-0.9967 -0.042503,-0.043 -0.2154103,-0.022 -0.3842389,0.045 -0.1688284,0.067 -0.5860611,0.5158 -0.9271837,0.9967 l -0.6202231,0.8744 0.2174597,0 z m 7.0738468,0 c 0.3320509,0 0.9134919,-0.108 1.2920919,-0.2399 l 0.688363,-0.24 -0.424385,-0.8319 -0.424384,-0.8318 -1.0112284,-0.114 -1.0112277,-0.114 -0.4618789,-0.4116 -0.461879,-0.4117 0.1119143,1.1979 0.1119143,1.1978 0.4934857,0.3996 0.4934857,0.3996 0.6037281,0 z m 3.0364069,-0.09 c 0.04859,-0.049 -0.141846,-0.4426 -0.423186,-0.8756 -0.28134,-0.433 -0.637763,-0.8368 -0.79205,-0.8974 l -0.280523,-0.11 0.252972,0.4908 c 0.139135,0.2699 0.455803,0.7135 0.703708,0.9857 0.247905,0.2722 0.490491,0.4551 0.539079,0.4065 z m -6.8287898,-0.1442 0.9364419,0.014 0.4406786,-0.4407 0.4406785,-0.4407 0,-1.004 0,-1.004 -0.4897053,0.343 -0.4897054,0.343 -0.8874151,0 -0.8874151,0 -0.4837761,0.8911 -0.483776,0.8911 0.483776,0.1948 c 0.2660769,0.1072 0.9051749,0.2011 1.420218,0.2088 z"
         id="path7114" />
      <path
         style="fill:#c72700"
         d="m 8.5715625,1049.6691 -0.6967657,0.7391 -0.1536109,-0.484 -0.1536108,-0.484 -0.9151488,-0.4155 -0.915149,-0.4155 0.2863661,0 c 0.1575014,0 0.5613337,0.1374 0.8974051,0.3112 0.3360714,0.1738 0.7362725,0.4669 0.8893358,0.6513 l 0.2782971,0.3353 0.5131828,-0.5962 c 0.2822504,-0.3279 0.5476711,-0.5467 0.5898233,-0.4861 0.042153,0.061 -0.2369037,0.4428 -0.620125,0.8493 z m 1.3705226,-0.8667 -0.4223168,0.017 0.1331215,-0.1331 0.1331217,-0.1331 0.2891955,0.1157 0.289195,0.1158 -0.4223169,0.017 z m -4.8658256,-0.2459 -0.6610179,0.01 0.2712306,-0.1097 c 0.149177,-0.06 0.446635,-0.064 0.6610179,-0.01 l 0.3897872,0.1016 -0.6610178,0.01 z m 6.0593305,-0.01 -0.771188,0 0.385594,-0.1008 c 0.212076,-0.055 0.559111,-0.055 0.771187,0 l 0.385594,0.1008 -0.771187,0 z m -7.1108848,-0.1692 c -0.07058,0 -0.3338292,-0.2613 -0.5849981,-0.5806 l -0.4566708,-0.5806 0.022554,-0.5762 0.022554,-0.5762 0.1718019,0.7251 0.171802,0.7252 0.390642,0.4316 c 0.2148528,0.2374 0.3328945,0.4317 0.2623145,0.4317 z m 8.5981748,-0.6075 -0.495764,0.5189 0.326116,-0.4147 0.326115,-0.4146 0.138625,-1.1386 0.138624,-1.1385 0.03102,1.0344 0.03102,1.0343 -0.495763,0.5188 z m -7.105942,0.1668 -0.3305089,0 0,-1.4322 0,-1.4322 1.1016964,0 1.1016964,0 0,0.3305 0,0.3305 -0.789549,0 -0.7895493,0 0.090439,0.2754 0.090439,0.2754 0.5889406,0.07 0.5889407,0.07 0,0.2057 0,0.2057 -0.6610178,0 -0.6610179,0 0,0.5508 0,0.5509 -0.3305089,0 z m 3.3444354,10e-5 -0.9207033,2e-4 0.030068,-1.3773 0.030068,-1.3773 0.7016286,-0.07 0.7016286,-0.07 0.5352539,0.3507 0.5352538,0.3508 0,0.7503 0,0.7504 -0.346248,0.3462 -0.3462468,0.3463 -0.9207035,1e-4 z m 0.1540136,-0.4408 c 0.1669414,0 0.4258951,-0.1474 0.5754531,-0.3276 l 0.2719233,-0.3277 -0.1389724,-0.5537 -0.1389721,-0.5537 -0.4364807,0 -0.4364806,0 0,0.8813 0,0.8814 0.3035294,0 z m -5.8796203,-2.2585 -0.09553,0.606 0.076644,-0.9313 0.076643,-0.9313 -0.1382199,-0.3601 -0.1382202,-0.3602 -0.6831264,-0.2896 -0.6831265,-0.2895 0.4406786,-0.1651 c 0.2423732,-0.091 0.7770559,-0.4383 1.1881841,-0.7722 l 0.7475057,-0.607 0.5330864,0.3493 0.5330866,0.3492 0.954659,0.021 0.9546589,0.021 0.4639052,-0.4198 0.4639049,-0.4197 0.035262,-0.682 0.035262,-0.6819 0.086839,0.6889 0.086839,0.6889 0.5449407,0.5119 0.5449409,0.512 0.7100782,-2e-4 0.7100781,-2e-4 0.71809,-0.3585 0.718089,-0.3585 0.704309,0.59 0.704309,0.5901 -0.171787,-0.3305 -0.171787,-0.3305 0.346848,0.4277 c 0.190767,0.2352 0.346849,0.5079 0.346849,0.6059 l 0,0.1782 -0.317505,0 -0.317505,0 -0.157574,0.255 c -0.08666,0.1402 -0.151025,0.6112 -0.143021,1.0466 l 0.01455,0.7916 -0.108683,-0.2754 -0.108684,-0.2754 -4.7049724,0 -4.7049725,0 -0.09553,0.6059 z m -0.593409,-3.3601 c -0.1211866,0.075 -0.2203392,0.087 -0.2203392,0.026 0,-0.061 0.099153,-0.1715 0.2203392,-0.2464 0.1211867,-0.075 0.2203393,-0.087 0.2203393,-0.026 0,0.061 -0.099153,0.1715 -0.2203393,0.2464 z m 10.4921233,-0.1102 c -0.06059,0 -0.171449,-0.099 -0.246347,-0.2204 -0.0749,-0.1211 -0.0866,-0.2203 -0.02601,-0.2203 0.06059,0 0.171449,0.099 0.246346,0.2203 0.0749,0.1212 0.0866,0.2204 0.02601,0.2204 z m -9.8311054,-0.7712 c -0.1211866,0.075 -0.2203393,0.087 -0.2203393,0.026 0,-0.061 0.099153,-0.1714 0.2203393,-0.2463 0.1211866,-0.075 0.2203393,-0.087 0.2203393,-0.026 0,0.06 -0.099153,0.1714 -0.2203393,0.2463 z m 9.3904264,0.1102 c -0.06059,0 -0.171449,-0.099 -0.246346,-0.2204 -0.0749,-0.1212 -0.0866,-0.2203 -0.02601,-0.2203 0.06059,0 0.171449,0.099 0.246347,0.2203 0.0749,0.1212 0.0866,0.2204 0.02601,0.2204 z m -8.3314395,-0.3305 -0.2315719,0.2203 0.2729433,-0.5292 0.2729433,-0.5291 -0.3561419,0.1366 c -0.1958781,0.075 -0.3561419,0.093 -0.3561419,0.039 0,-0.054 0.3222462,-0.2537 0.7161027,-0.4444 l 0.7161026,-0.3469 -0.3305089,0.2869 c -0.1817799,0.1578 -0.3623794,0.4353 -0.4013323,0.6166 -0.038953,0.1813 -0.1750305,0.4289 -0.302395,0.5501 z m 7.8647535,-0.3306 c -0.06059,0 -0.110169,-0.049 -0.110169,-0.1101 0,-0.061 0.04958,-0.1102 0.110169,-0.1102 0.06059,0 0.11017,0.05 0.11017,0.1102 0,0.061 -0.04958,0.1101 -0.11017,0.1101 z m -0.398565,-0.2203 c -0.03743,0 -0.260524,-0.1542 -0.495763,-0.3427 l -0.427707,-0.3426 0.495763,0.2402 c 0.27267,0.1322 0.495763,0.2864 0.495763,0.3427 0,0.056 -0.03063,0.1024 -0.06806,0.1024 z m -1.694658,-0.4918 -0.7711873,0 0.3855938,-0.1008 c 0.2120765,-0.055 0.5591105,-0.055 0.7711875,0 l 0.385594,0.1008 -0.771188,0 z m -3.4282624,-0.1692 c -0.1746279,0 -0.3175051,-0.038 -0.3175051,-0.084 0,-0.046 0.1984422,-0.1363 0.4409826,-0.1998 l 0.4409826,-0.1153 -0.1234774,0.1998 c -0.067913,0.1099 -0.2663547,0.1998 -0.4409827,0.1998 z m 1.3790086,-0.2871 -0.1030194,0.3973 -0.00816,-0.8814 -0.00816,-0.8814 0.1215259,0.3306 c 0.066839,0.1817 0.282105,0.5271 0.4783682,0.7673 l 0.3568404,0.4369 -0.3671842,-0.2833 -0.3671842,-0.2833 -0.1030196,0.3973 z m 1.0577273,0.2871 c -0.060593,0 -0.1101697,-0.05 -0.1101697,-0.1102 0,-0.061 0.049576,-0.1101 0.1101697,-0.1101 0.060593,0 0.1101696,0.05 0.1101696,0.1101 0,0.061 -0.049576,0.1102 -0.1101696,0.1102 z"
         id="path7112" />
      <path
         style="fill:#bc2801"
         d="m 8.5715625,1049.6691 -0.6967657,0.7391 -0.1536109,-0.484 -0.1536108,-0.484 -0.9151488,-0.4155 -0.915149,-0.4155 0.2863661,0 c 0.1575014,0 0.5613337,0.1374 0.8974051,0.3112 0.3360714,0.1738 0.7362725,0.4669 0.8893358,0.6513 l 0.2782971,0.3353 0.5131828,-0.5962 c 0.2822504,-0.3279 0.5476711,-0.5467 0.5898233,-0.4861 0.042153,0.061 -0.2369037,0.4428 -0.620125,0.8493 z m 1.3705226,-0.8667 -0.4223168,0.017 0.1331215,-0.1331 0.1331217,-0.1331 0.2891955,0.1157 0.289195,0.1158 -0.4223169,0.017 z m -4.8658256,-0.2459 -0.6610179,0.01 0.2712306,-0.1097 c 0.149177,-0.06 0.446635,-0.064 0.6610179,-0.01 l 0.3897872,0.1016 -0.6610178,0.01 z m 6.0593305,-0.01 -0.771188,0 0.385594,-0.1008 c 0.212076,-0.055 0.559111,-0.055 0.771187,0 l 0.385594,0.1008 -0.771187,0 z m -7.1108848,-0.1692 c -0.07058,0 -0.3338292,-0.2613 -0.5849981,-0.5806 l -0.4566708,-0.5806 0.022554,-0.5762 0.022554,-0.5762 0.1718019,0.7251 0.171802,0.7252 0.390642,0.4316 c 0.2148528,0.2374 0.3328945,0.4317 0.2623145,0.4317 z m 8.5981748,-0.6075 -0.495764,0.5189 0.326116,-0.4147 0.326115,-0.4146 0.138625,-1.1386 0.138624,-1.1385 0.03102,1.0344 0.03102,1.0343 -0.495763,0.5188 z m -6.9650394,0.038 -0.1896064,0.1172 -0.1409025,-0.1409 -0.1409026,-0.1409 0,-1.2853 0,-1.2853 1.1016964,0 1.1016964,0 0,0.3305 0,0.3305 -0.789549,0 -0.7895493,0 0.090439,0.2754 0.090439,0.2754 0.5889406,0.07 0.5889407,0.07 0,0.2057 0,0.2057 -0.6610178,0 -0.6610179,0 0,0.4277 0,0.4276 -0.1896063,0.1172 z m 3.1946547,0.1 -0.9118252,-0.047 0.030068,-1.3389 0.030068,-1.339 0.7016286,-0.07 0.7016286,-0.07 0.5352539,0.3507 0.5352538,0.3508 0,0.7503 0,0.7504 -0.355126,0.3551 -0.3551252,0.3551 -0.9118252,-0.047 z m 0.1628917,-0.4114 c 0.1669414,0 0.4258951,-0.1474 0.5754531,-0.3276 l 0.2719233,-0.3277 -0.1389724,-0.5537 -0.1389721,-0.5537 -0.4364807,0 -0.4364806,0 0,0.8813 0,0.8814 0.3035294,0 z m -5.8796203,-2.2585 -0.09553,0.606 0.076644,-0.9313 0.076643,-0.9313 -0.1382199,-0.3601 -0.1382202,-0.3602 -0.6831264,-0.2896 -0.6831265,-0.2895 0.4406786,-0.1651 c 0.2423732,-0.091 0.7770559,-0.4383 1.1881841,-0.7722 l 0.7475057,-0.607 0.5330864,0.3493 0.5330866,0.3492 0.954659,0.021 0.9546589,0.021 0.4639052,-0.4198 0.4639049,-0.4197 0.035262,-0.682 0.035262,-0.6819 0.086839,0.6889 0.086839,0.6889 0.5449407,0.5119 0.5449409,0.512 0.7100782,-2e-4 0.7100781,-2e-4 0.711058,-0.355 0.711057,-0.355 0.555894,0.4373 0.555893,0.4372 0.007,-0.1812 c 0.0039,-0.1 0.152583,0.011 0.330509,0.2465 0.177926,0.2352 0.323502,0.5079 0.323502,0.6059 l 0,0.1782 -0.317505,0 -0.317505,0 -0.157574,0.255 c -0.08666,0.1402 -0.151025,0.6112 -0.143021,1.0466 l 0.01455,0.7916 -0.108683,-0.2754 -0.108684,-0.2754 -4.7049724,0 -4.7049725,0 -0.09553,0.6059 z m 0.4429908,-1.3384 0.1039234,-0.402 -0.3798532,-0.4197 -0.379853,-0.4198 0.5257941,-0.4643 0.5257943,-0.4643 -0.7297919,0.4845 -0.729792,0.4845 0.4543679,0.3183 0.4543678,0.3182 0.02556,0.4833 0.02556,0.4833 0.1039233,-0.402 z m 8.7429995,0.2918 c 0.04646,0 0.136365,-0.1984 0.199791,-0.441 l 0.115319,-0.4409 -0.19979,0.1234 c -0.109885,0.068 -0.199791,0.2664 -0.199791,0.441 0,0.1746 0.03801,0.3175 0.08447,0.3175 z m 0.44037,-1.1017 c 0.06059,0 0.166763,-0.091 0.235933,-0.2035 l 0.125765,-0.2035 -0.656006,-0.4671 -0.656005,-0.4671 -0.657679,0.3401 -0.657679,0.3401 -0.6168752,-8e-4 -0.6168751,-8e-4 -0.6610178,-0.4025 -0.6610178,-0.4024 -0.6610179,0.4021 -0.6610178,0.4021 -0.5028405,0 c -0.2765621,6e-4 -0.8714782,-0.1471 -1.3220356,-0.3283 l -0.8191952,-0.3296 0.4238739,0.3267 0.4238742,0.3267 0.7816892,0.1466 0.7816893,0.1467 0.8050559,-0.441 0.8050558,-0.441 0.5232824,0.4024 0.5232827,0.4024 0.7270447,0 0.7270448,0 0.649582,-0.3359 0.649582,-0.3359 0.54945,0.36 0.54945,0.36 -0.121281,0.1963 c -0.06671,0.1079 -0.07171,0.1962 -0.01111,0.1962 z m 0.466686,-0.661 c 0.06059,0 0.110169,-0.05 0.110169,-0.1102 0,-0.061 -0.04958,-0.1101 -0.110169,-0.1101 -0.06059,0 -0.11017,0.049 -0.11017,0.1101 0,0.061 0.04958,0.1102 0.11017,0.1102 z m -10.6864553,-0.5508 c -0.1211866,0.075 -0.2203392,0.087 -0.2203392,0.026 0,-0.061 0.099153,-0.1715 0.2203392,-0.2464 0.1211867,-0.075 0.2203393,-0.087 0.2203393,-0.026 0,0.061 -0.099153,0.1715 -0.2203393,0.2464 z m 10.4921233,-0.1102 c -0.06059,0 -0.171449,-0.099 -0.246347,-0.2204 -0.0749,-0.1211 -0.0866,-0.2203 -0.02601,-0.2203 0.06059,0 0.171449,0.099 0.246346,0.2203 0.0749,0.1212 0.0866,0.2204 0.02601,0.2204 z m -9.8311054,-0.7712 c -0.1211866,0.075 -0.2203393,0.087 -0.2203393,0.026 0,-0.061 0.099153,-0.1714 0.2203393,-0.2463 0.1211866,-0.075 0.2203393,-0.087 0.2203393,-0.026 0,0.06 -0.099153,0.1714 -0.2203393,0.2463 z m 9.3904264,0.1102 c -0.06059,0 -0.171449,-0.099 -0.246346,-0.2204 -0.0749,-0.1212 -0.0866,-0.2203 -0.02601,-0.2203 0.06059,0 0.171449,0.099 0.246347,0.2203 0.0749,0.1212 0.0866,0.2204 0.02601,0.2204 z m -8.3314395,-0.3305 -0.2315719,0.2203 0.2729433,-0.5292 0.2729433,-0.5291 -0.3561419,0.1366 c -0.1958781,0.075 -0.3561419,0.093 -0.3561419,0.039 0,-0.054 0.3222462,-0.2537 0.7161027,-0.4444 l 0.7161026,-0.3469 -0.3305089,0.2869 c -0.1817799,0.1578 -0.3623794,0.4353 -0.4013323,0.6166 -0.038953,0.1813 -0.1750305,0.4289 -0.302395,0.5501 z m 7.8647535,-0.3306 c -0.06059,0 -0.110169,-0.049 -0.110169,-0.1101 0,-0.061 0.04958,-0.1102 0.110169,-0.1102 0.06059,0 0.11017,0.05 0.11017,0.1102 0,0.061 -0.04958,0.1101 -0.11017,0.1101 z m -0.398565,-0.2203 c -0.03743,0 -0.260524,-0.1542 -0.495763,-0.3427 l -0.427707,-0.3426 0.495763,0.2402 c 0.27267,0.1322 0.495763,0.2864 0.495763,0.3427 0,0.056 -0.03063,0.1024 -0.06806,0.1024 z m -1.694658,-0.4918 -0.7711873,0 0.3855938,-0.1008 c 0.2120765,-0.055 0.5591105,-0.055 0.7711875,0 l 0.385594,0.1008 -0.771188,0 z m -3.4282624,-0.1692 c -0.1746279,0 -0.3175051,-0.038 -0.3175051,-0.084 0,-0.046 0.1984422,-0.1363 0.4409826,-0.1998 l 0.4409826,-0.1153 -0.1234774,0.1998 c -0.067913,0.1099 -0.2663547,0.1998 -0.4409827,0.1998 z m 1.3790086,-0.2871 -0.1030194,0.3973 -0.00816,-0.8814 -0.00816,-0.8814 0.1215259,0.3306 c 0.066839,0.1817 0.282105,0.5271 0.4783682,0.7673 l 0.3568404,0.4369 -0.3671842,-0.2833 -0.3671842,-0.2833 -0.1030196,0.3973 z m 1.0577273,0.2871 c -0.060593,0 -0.1101697,-0.05 -0.1101697,-0.1102 0,-0.061 0.049576,-0.1101 0.1101697,-0.1101 0.060593,0 0.1101696,0.05 0.1101696,0.1101 0,0.061 -0.049576,0.1102 -0.1101696,0.1102 z"
         id="path7110" />
      <path
         style="fill:#6d1702"
         d="m 8.5715625,1049.6691 -0.6967657,0.7391 -0.1536109,-0.484 -0.1536108,-0.484 -0.9151488,-0.4155 -0.915149,-0.4155 0.2863661,0 c 0.1575014,0 0.5613337,0.1374 0.8974051,0.3112 0.3360714,0.1738 0.7362725,0.4669 0.8893358,0.6513 l 0.2782971,0.3353 0.5131828,-0.5962 c 0.2822504,-0.3279 0.5476711,-0.5467 0.5898233,-0.4861 0.042153,0.061 -0.2369037,0.4428 -0.620125,0.8493 z m 1.3705226,-0.8667 -0.4223168,0.017 0.1331215,-0.1331 0.1331217,-0.1331 0.2891955,0.1157 0.289195,0.1158 -0.4223169,0.017 z m -4.8658256,-0.2459 -0.6610179,0.01 0.2712306,-0.1097 c 0.149177,-0.06 0.446635,-0.064 0.6610179,-0.01 l 0.3897872,0.1016 -0.6610178,0.01 z m 6.0593305,-0.01 -0.771188,0 0.385594,-0.1008 c 0.212076,-0.055 0.559111,-0.055 0.771187,0 l 0.385594,0.1008 -0.771187,0 z m -7.1108848,-0.1692 c -0.07058,0 -0.3338292,-0.2613 -0.5849981,-0.5806 l -0.4566708,-0.5806 0.022554,-0.5762 0.022554,-0.5762 0.1718019,0.7251 0.171802,0.7252 0.390642,0.4316 c 0.2148528,0.2374 0.3328945,0.4317 0.2623145,0.4317 z m 8.5981748,-0.6075 -0.495764,0.5189 0.326116,-0.4147 0.326115,-0.4146 0.138625,-1.1386 0.138624,-1.1385 0.03102,1.0344 0.03102,1.0343 -0.495763,0.5188 z m -9.4871133,-2.5324 -0.09553,0.606 0.076644,-0.9313 0.076643,-0.9313 -0.1382199,-0.3601 -0.1382202,-0.3602 -0.6831264,-0.2896 -0.6831265,-0.2895 0.4406786,-0.1651 c 0.2423732,-0.091 0.7770559,-0.4383 1.1881841,-0.7722 l 0.7475057,-0.607 0.5330864,0.3493 0.5330866,0.3492 0.954659,0.021 0.9546589,0.021 0.4639052,-0.4198 0.4639049,-0.4197 0.035262,-0.682 0.035262,-0.6819 0.086839,0.6889 0.086839,0.6889 0.5449407,0.5119 0.5449409,0.512 0.7100782,-2e-4 0.7100781,-2e-4 0.711058,-0.355 0.711057,-0.355 0.555894,0.4373 0.555893,0.4372 0.007,-0.1812 c 0.0039,-0.1 0.152583,0.011 0.330509,0.2465 0.177926,0.2352 0.323502,0.5079 0.323502,0.6059 l 0,0.1782 -0.317505,0 -0.317505,0 -0.157574,0.255 c -0.08666,0.1402 -0.151025,0.6112 -0.143021,1.0466 l 0.01455,0.7916 -0.108683,-0.2754 -0.108684,-0.2754 -4.7049724,0 -4.7049725,0 -0.09553,0.6059 z m 4.7833487,-1.0466 4.4954006,0 0.230432,-0.661 0.230432,-0.661 0.248707,0 0.248707,0 -0.681418,-0.5734 -0.681417,-0.5734 -0.882322,0.3531 c -0.485277,0.1941 -1.114826,0.353 -1.398997,0.353 l -0.5166746,0 -0.5687947,-0.4474 -0.5687946,-0.4474 -0.8347774,0.4474 c -0.4591277,0.2461 -0.9849749,0.4452 -1.1685495,0.4426 -0.1835746,0 -0.7539657,-0.1956 -1.2675358,-0.4287 l -0.9337642,-0.4239 -0.6744795,0.5675 -0.6744796,0.5676 0.4514624,0.4206 0.4514624,0.4206 0,0.3219 0,0.3219 4.4954005,0 z m 5.3096976,-1.7627 c 0.06059,0 0.110169,-0.05 0.110169,-0.1102 0,-0.061 -0.04958,-0.1101 -0.110169,-0.1101 -0.06059,0 -0.11017,0.049 -0.11017,0.1101 0,0.061 0.04958,0.1102 0.11017,0.1102 z m -10.6864553,-0.5508 c -0.1211866,0.075 -0.2203392,0.087 -0.2203392,0.026 0,-0.061 0.099153,-0.1715 0.2203392,-0.2464 0.1211867,-0.075 0.2203393,-0.087 0.2203393,-0.026 0,0.061 -0.099153,0.1715 -0.2203393,0.2464 z m 10.4921233,-0.1102 c -0.06059,0 -0.171449,-0.099 -0.246347,-0.2204 -0.0749,-0.1211 -0.0866,-0.2203 -0.02601,-0.2203 0.06059,0 0.171449,0.099 0.246346,0.2203 0.0749,0.1212 0.0866,0.2204 0.02601,0.2204 z m -9.8311054,-0.7712 c -0.1211866,0.075 -0.2203393,0.087 -0.2203393,0.026 0,-0.061 0.099153,-0.1714 0.2203393,-0.2463 0.1211866,-0.075 0.2203393,-0.087 0.2203393,-0.026 0,0.06 -0.099153,0.1714 -0.2203393,0.2463 z m 9.3904264,0.1102 c -0.06059,0 -0.171449,-0.099 -0.246346,-0.2204 -0.0749,-0.1212 -0.0866,-0.2203 -0.02601,-0.2203 0.06059,0 0.171449,0.099 0.246347,0.2203 0.0749,0.1212 0.0866,0.2204 0.02601,0.2204 z m -8.3314395,-0.3305 -0.2315719,0.2203 0.2729433,-0.5292 0.2729433,-0.5291 -0.3561419,0.1366 c -0.1958781,0.075 -0.3561419,0.093 -0.3561419,0.039 0,-0.054 0.3222462,-0.2537 0.7161027,-0.4444 l 0.7161026,-0.3469 -0.3305089,0.2869 c -0.1817799,0.1578 -0.3623794,0.4353 -0.4013323,0.6166 -0.038953,0.1813 -0.1750305,0.4289 -0.302395,0.5501 z m 7.8647535,-0.3306 c -0.06059,0 -0.110169,-0.049 -0.110169,-0.1101 0,-0.061 0.04958,-0.1102 0.110169,-0.1102 0.06059,0 0.11017,0.05 0.11017,0.1102 0,0.061 -0.04958,0.1101 -0.11017,0.1101 z m -0.398565,-0.2203 c -0.03743,0 -0.260524,-0.1542 -0.495763,-0.3427 l -0.427707,-0.3426 0.495763,0.2402 c 0.27267,0.1322 0.495763,0.2864 0.495763,0.3427 0,0.056 -0.03063,0.1024 -0.06806,0.1024 z m -1.694658,-0.4918 -0.7711873,0 0.3855938,-0.1008 c 0.2120765,-0.055 0.5591105,-0.055 0.7711875,0 l 0.385594,0.1008 -0.771188,0 z m -3.4282624,-0.1692 c -0.1746279,0 -0.3175051,-0.038 -0.3175051,-0.084 0,-0.046 0.1984422,-0.1363 0.4409826,-0.1998 l 0.4409826,-0.1153 -0.1234774,0.1998 c -0.067913,0.1099 -0.2663547,0.1998 -0.4409827,0.1998 z m 1.3790086,-0.2871 -0.1030194,0.3973 -0.00816,-0.8814 -0.00816,-0.8814 0.1215259,0.3306 c 0.066839,0.1817 0.282105,0.5271 0.4783682,0.7673 l 0.3568404,0.4369 -0.3671842,-0.2833 -0.3671842,-0.2833 -0.1030196,0.3973 z m 1.0577273,0.2871 c -0.060593,0 -0.1101697,-0.05 -0.1101697,-0.1102 0,-0.061 0.049576,-0.1101 0.1101697,-0.1101 0.060593,0 0.1101696,0.05 0.1101696,0.1101 0,0.061 -0.049576,0.1102 -0.1101696,0.1102 z"
         id="path7108" />
      <path
         style="fill:#191717"
         d="m 8.5715625,1049.6691 -0.6967657,0.7391 -0.1536109,-0.484 -0.1536108,-0.484 -0.9151488,-0.4155 -0.915149,-0.4155 0.2863661,0 c 0.1575014,0 0.5613337,0.1374 0.8974051,0.3112 0.3360714,0.1738 0.7362725,0.4669 0.8893358,0.6513 l 0.2782971,0.3353 0.5131828,-0.5962 c 0.2822504,-0.3279 0.5476711,-0.5467 0.5898233,-0.4861 0.042153,0.061 -0.2369037,0.4428 -0.620125,0.8493 z m 1.3705226,-0.8667 -0.4223168,0.017 0.1331215,-0.1331 0.1331217,-0.1331 0.2891955,0.1157 0.289195,0.1158 -0.4223169,0.017 z m -4.8658256,-0.2459 -0.6610179,0.01 0.2712306,-0.1097 c 0.149177,-0.06 0.446635,-0.064 0.6610179,-0.01 l 0.3897872,0.1016 -0.6610178,0.01 z m 6.0593305,-0.01 -0.771188,0 0.385594,-0.1008 c 0.212076,-0.055 0.559111,-0.055 0.771187,0 l 0.385594,0.1008 -0.771187,0 z m -7.1108848,-0.1692 c -0.07058,0 -0.3338292,-0.2613 -0.5849981,-0.5806 l -0.4566708,-0.5806 0.022554,-0.5762 0.022554,-0.5762 0.1718019,0.7251 0.171802,0.7252 0.390642,0.4316 c 0.2148528,0.2374 0.3328945,0.4317 0.2623145,0.4317 z m 8.5981748,-0.6075 -0.495764,0.5189 0.326116,-0.4147 0.326115,-0.4146 0.138625,-1.1386 0.138624,-1.1385 0.03102,1.0344 0.03102,1.0343 -0.495763,0.5188 z m -9.4804511,-2.4222 -0.088868,0.7161 -0.019775,-0.661 c -0.010877,-0.3636 0.065439,-0.8593 0.1695899,-1.1017 l 0.189366,-0.4407 0.015488,0.2838 0.015486,0.2838 4.7374998,-0.063 4.7374994,-0.063 -0.0176,0.4407 -0.0176,0.4406 -0.111136,-0.2754 -0.111136,-0.2754 -4.7049723,0 -4.7049725,0 -0.088867,0.7161 z m 9.6200071,-1.3771 c -0.04646,0 -0.08447,-0.1429 -0.08447,-0.3175 0,-0.1747 0.0899,-0.3731 0.19979,-0.441 l 0.199791,-0.1235 -0.11532,0.441 c -0.06342,0.2425 -0.153331,0.441 -0.19979,0.441 z m -9.6016141,-0.3247 -0.1233448,0.1233 -0.1504442,-0.3951 -0.1504442,-0.395 0.2737891,0.2717 0.2737889,0.2718 -0.1233448,0.1233 z m -0.6605452,-0.5722 c -0.037449,-0.01 -0.2663939,-0.097 -0.5087671,-0.1967 l -0.4406786,-0.1812 0.4406786,-0.1723 c 0.2423732,-0.095 0.7770559,-0.4454 1.1881841,-0.7793 l 0.7475057,-0.607 0.5330864,0.3493 0.5330866,0.3492 0.954659,0.021 0.9546589,0.021 0.4639052,-0.4198 0.4639049,-0.4197 0.033014,-0.682 0.033014,-0.6819 0.09559,0.661 0.09559,0.661 0.3671595,0.4116 c 0.2019377,0.2264 0.5654646,0.4928 0.8078378,0.592 l 0.4406786,0.1803 -0.3855937,0.014 -0.3855938,0.014 -0.4496298,-0.4497 -0.4496296,-0.4496 -0.5716117,0.4496 -0.5716116,0.4497 -0.7632582,0 -0.7632579,0 -0.7502477,-0.3561 -0.7502478,-0.356 -0.7744698,0.5907 -0.7744697,0.5908 0.1273011,0.2059 c 0.070016,0.1133 0.096661,0.1991 0.059213,0.1905 z m 11.1141303,-0.014 c -0.09089,-0.016 -0.504053,-0.3589 -0.91814,-0.7615 l -0.752884,-0.7319 -0.217602,0.1345 -0.217601,0.1345 0.157586,-0.255 0.157586,-0.255 0.415035,0.2221 c 0.228269,0.1222 0.476984,0.3224 0.552701,0.4449 l 0.137666,0.2228 0.194059,-0.12 0.194059,-0.1199 0.231395,0.4323 c 0.127266,0.2378 0.231394,0.4885 0.231394,0.5571 0,0.069 -0.07437,0.1113 -0.165254,0.095 z m -0.385594,-0.6315 c 0.06059,0 0.110169,-0.05 0.110169,-0.1102 0,-0.061 -0.04958,-0.1101 -0.110169,-0.1101 -0.06059,0 -0.11017,0.049 -0.11017,0.1101 0,0.061 0.04958,0.1102 0.11017,0.1102 z m -2.754241,-0.2392 -0.330509,-0.012 0.440678,-0.1894 c 0.242374,-0.1041 0.539832,-0.1948 0.661018,-0.2015 l 0.22034,-0.012 -0.330509,0.2136 c -0.18178,0.1175 -0.479238,0.2082 -0.661018,0.2015 z m -7.9322143,-0.3116 c -0.1211866,0.075 -0.2203392,0.087 -0.2203392,0.026 0,-0.061 0.099153,-0.1715 0.2203392,-0.2464 0.1211867,-0.075 0.2203393,-0.087 0.2203393,-0.026 0,0.061 -0.099153,0.1715 -0.2203393,0.2464 z m 10.4921233,-0.1102 c -0.06059,0 -0.171449,-0.099 -0.246347,-0.2204 -0.0749,-0.1211 -0.0866,-0.2203 -0.02601,-0.2203 0.06059,0 0.171449,0.099 0.246346,0.2203 0.0749,0.1212 0.0866,0.2204 0.02601,0.2204 z m -9.8311054,-0.7712 c -0.1211866,0.075 -0.2203393,0.087 -0.2203393,0.026 0,-0.061 0.099153,-0.1714 0.2203393,-0.2463 0.1211866,-0.075 0.2203393,-0.087 0.2203393,-0.026 0,0.06 -0.099153,0.1714 -0.2203393,0.2463 z m 9.3904264,0.1102 c -0.06059,0 -0.171449,-0.099 -0.246346,-0.2204 -0.0749,-0.1212 -0.0866,-0.2203 -0.02601,-0.2203 0.06059,0 0.171449,0.099 0.246347,0.2203 0.0749,0.1212 0.0866,0.2204 0.02601,0.2204 z m -8.3314395,-0.3305 -0.2315719,0.2203 0.2729433,-0.5292 0.2729433,-0.5291 -0.3561419,0.1366 c -0.1958781,0.075 -0.3561419,0.093 -0.3561419,0.039 0,-0.054 0.3222462,-0.2537 0.7161027,-0.4444 l 0.7161026,-0.3469 -0.3305089,0.2869 c -0.1817799,0.1578 -0.3623794,0.4353 -0.4013323,0.6166 -0.038953,0.1813 -0.1750305,0.4289 -0.302395,0.5501 z m 7.8647535,-0.3306 c -0.06059,0 -0.110169,-0.049 -0.110169,-0.1101 0,-0.061 0.04958,-0.1102 0.110169,-0.1102 0.06059,0 0.11017,0.05 0.11017,0.1102 0,0.061 -0.04958,0.1101 -0.11017,0.1101 z m -0.398565,-0.2203 c -0.03743,0 -0.260524,-0.1542 -0.495763,-0.3427 l -0.427707,-0.3426 0.495763,0.2402 c 0.27267,0.1322 0.495763,0.2864 0.495763,0.3427 0,0.056 -0.03063,0.1024 -0.06806,0.1024 z m -1.694658,-0.4918 -0.7711873,0 0.3855938,-0.1008 c 0.2120765,-0.055 0.5591105,-0.055 0.7711875,0 l 0.385594,0.1008 -0.771188,0 z m -3.4282624,-0.1692 c -0.1746279,0 -0.3175051,-0.038 -0.3175051,-0.084 0,-0.046 0.1984422,-0.1363 0.4409826,-0.1998 l 0.4409826,-0.1153 -0.1234774,0.1998 c -0.067913,0.1099 -0.2663547,0.1998 -0.4409827,0.1998 z m 1.3790086,-0.2871 -0.1030194,0.3973 -0.00816,-0.8814 -0.00816,-0.8814 0.1215259,0.3306 c 0.066839,0.1817 0.282105,0.5271 0.4783682,0.7673 l 0.3568404,0.4369 -0.3671842,-0.2833 -0.3671842,-0.2833 -0.1030196,0.3973 z m 1.0577273,0.2871 c -0.060593,0 -0.1101697,-0.05 -0.1101697,-0.1102 0,-0.061 0.049576,-0.1101 0.1101697,-0.1101 0.060593,0 0.1101696,0.05 0.1101696,0.1101 0,0.061 -0.049576,0.1102 -0.1101696,0.1102 z"
         id="path7106" />
    </g>
  </g>
</svg>
