<?xml version="1.0" encoding="UTF-8" standalone="no"?>
<!-- Created with Inkscape (http://www.inkscape.org/) -->

<svg
   xmlns:dc="http://purl.org/dc/elements/1.1/"
   xmlns:cc="http://creativecommons.org/ns#"
   xmlns:rdf="http://www.w3.org/1999/02/22-rdf-syntax-ns#"
   xmlns:svg="http://www.w3.org/2000/svg"
   xmlns="http://www.w3.org/2000/svg"
   xmlns:sodipodi="http://sodipodi.sourceforge.net/DTD/sodipodi-0.dtd"
   xmlns:inkscape="http://www.inkscape.org/namespaces/inkscape"
   width="16"
   height="16"
   id="svg2"
   version="1.1"
   inkscape:version="0.47 r22583"
   sodipodi:docname="FIRE2-64.svg">
  <defs
     id="defs4">
    <inkscape:perspective
       sodipodi:type="inkscape:persp3d"
       inkscape:vp_x="0 : 526.18109 : 1"
       inkscape:vp_y="0 : 1000 : 0"
       inkscape:vp_z="744.09448 : 526.18109 : 1"
       inkscape:persp3d-origin="372.04724 : 350.78739 : 1"
       id="perspective10" />
    <inkscape:perspective
       id="perspective2824"
       inkscape:persp3d-origin="0.5 : 0.33333333 : 1"
       inkscape:vp_z="1 : 0.5 : 1"
       inkscape:vp_y="0 : 1000 : 0"
       inkscape:vp_x="0 : 0.5 : 1"
       sodipodi:type="inkscape:persp3d" />
    <inkscape:perspective
       id="perspective5878"
       inkscape:persp3d-origin="0.5 : 0.33333333 : 1"
       inkscape:vp_z="1 : 0.5 : 1"
       inkscape:vp_y="0 : 1000 : 0"
       inkscape:vp_x="0 : 0.5 : 1"
       sodipodi:type="inkscape:persp3d" />
    <inkscape:perspective
       id="perspective5921"
       inkscape:persp3d-origin="0.5 : 0.33333333 : 1"
       inkscape:vp_z="1 : 0.5 : 1"
       inkscape:vp_y="0 : 1000 : 0"
       inkscape:vp_x="0 : 0.5 : 1"
       sodipodi:type="inkscape:persp3d" />
    <inkscape:perspective
       id="perspective5943"
       inkscape:persp3d-origin="0.5 : 0.33333333 : 1"
       inkscape:vp_z="1 : 0.5 : 1"
       inkscape:vp_y="0 : 1000 : 0"
       inkscape:vp_x="0 : 0.5 : 1"
       sodipodi:type="inkscape:persp3d" />
    <inkscape:perspective
       id="perspective5989"
       inkscape:persp3d-origin="0.5 : 0.33333333 : 1"
       inkscape:vp_z="1 : 0.5 : 1"
       inkscape:vp_y="0 : 1000 : 0"
       inkscape:vp_x="0 : 0.5 : 1"
       sodipodi:type="inkscape:persp3d" />
    <inkscape:perspective
       id="perspective6011"
       inkscape:persp3d-origin="0.5 : 0.33333333 : 1"
       inkscape:vp_z="1 : 0.5 : 1"
       inkscape:vp_y="0 : 1000 : 0"
       inkscape:vp_x="0 : 0.5 : 1"
       sodipodi:type="inkscape:persp3d" />
    <inkscape:perspective
       id="perspective6033"
       inkscape:persp3d-origin="0.5 : 0.33333333 : 1"
       inkscape:vp_z="1 : 0.5 : 1"
       inkscape:vp_y="0 : 1000 : 0"
       inkscape:vp_x="0 : 0.5 : 1"
       sodipodi:type="inkscape:persp3d" />
    <inkscape:perspective
       id="perspective6245"
       inkscape:persp3d-origin="0.5 : 0.33333333 : 1"
       inkscape:vp_z="1 : 0.5 : 1"
       inkscape:vp_y="0 : 1000 : 0"
       inkscape:vp_x="0 : 0.5 : 1"
       sodipodi:type="inkscape:persp3d" />
    <inkscape:perspective
       id="perspective6269"
       inkscape:persp3d-origin="0.5 : 0.33333333 : 1"
       inkscape:vp_z="1 : 0.5 : 1"
       inkscape:vp_y="0 : 1000 : 0"
       inkscape:vp_x="0 : 0.5 : 1"
       sodipodi:type="inkscape:persp3d" />
    <inkscape:perspective
       id="perspective6364"
       inkscape:persp3d-origin="0.5 : 0.33333333 : 1"
       inkscape:vp_z="1 : 0.5 : 1"
       inkscape:vp_y="0 : 1000 : 0"
       inkscape:vp_x="0 : 0.5 : 1"
       sodipodi:type="inkscape:persp3d" />
    <inkscape:perspective
       id="perspective6396"
       inkscape:persp3d-origin="0.5 : 0.33333333 : 1"
       inkscape:vp_z="1 : 0.5 : 1"
       inkscape:vp_y="0 : 1000 : 0"
       inkscape:vp_x="0 : 0.5 : 1"
       sodipodi:type="inkscape:persp3d" />
    <inkscape:perspective
       id="perspective6438"
       inkscape:persp3d-origin="0.5 : 0.33333333 : 1"
       inkscape:vp_z="1 : 0.5 : 1"
       inkscape:vp_y="0 : 1000 : 0"
       inkscape:vp_x="0 : 0.5 : 1"
       sodipodi:type="inkscape:persp3d" />
    <inkscape:perspective
       id="perspective6460"
       inkscape:persp3d-origin="0.5 : 0.33333333 : 1"
       inkscape:vp_z="1 : 0.5 : 1"
       inkscape:vp_y="0 : 1000 : 0"
       inkscape:vp_x="0 : 0.5 : 1"
       sodipodi:type="inkscape:persp3d" />
    <inkscape:perspective
       id="perspective6480"
       inkscape:persp3d-origin="0.5 : 0.33333333 : 1"
       inkscape:vp_z="1 : 0.5 : 1"
       inkscape:vp_y="0 : 1000 : 0"
       inkscape:vp_x="0 : 0.5 : 1"
       sodipodi:type="inkscape:persp3d" />
    <inkscape:perspective
       id="perspective6504"
       inkscape:persp3d-origin="0.5 : 0.33333333 : 1"
       inkscape:vp_z="1 : 0.5 : 1"
       inkscape:vp_y="0 : 1000 : 0"
       inkscape:vp_x="0 : 0.5 : 1"
       sodipodi:type="inkscape:persp3d" />
    <inkscape:perspective
       id="perspective6524"
       inkscape:persp3d-origin="0.5 : 0.33333333 : 1"
       inkscape:vp_z="1 : 0.5 : 1"
       inkscape:vp_y="0 : 1000 : 0"
       inkscape:vp_x="0 : 0.5 : 1"
       sodipodi:type="inkscape:persp3d" />
    <inkscape:perspective
       id="perspective6548"
       inkscape:persp3d-origin="0.5 : 0.33333333 : 1"
       inkscape:vp_z="1 : 0.5 : 1"
       inkscape:vp_y="0 : 1000 : 0"
       inkscape:vp_x="0 : 0.5 : 1"
       sodipodi:type="inkscape:persp3d" />
    <inkscape:perspective
       id="perspective6572"
       inkscape:persp3d-origin="0.5 : 0.33333333 : 1"
       inkscape:vp_z="1 : 0.5 : 1"
       inkscape:vp_y="0 : 1000 : 0"
       inkscape:vp_x="0 : 0.5 : 1"
       sodipodi:type="inkscape:persp3d" />
    <inkscape:perspective
       id="perspective6594"
       inkscape:persp3d-origin="0.5 : 0.33333333 : 1"
       inkscape:vp_z="1 : 0.5 : 1"
       inkscape:vp_y="0 : 1000 : 0"
       inkscape:vp_x="0 : 0.5 : 1"
       sodipodi:type="inkscape:persp3d" />
    <inkscape:perspective
       id="perspective6614"
       inkscape:persp3d-origin="0.5 : 0.33333333 : 1"
       inkscape:vp_z="1 : 0.5 : 1"
       inkscape:vp_y="0 : 1000 : 0"
       inkscape:vp_x="0 : 0.5 : 1"
       sodipodi:type="inkscape:persp3d" />
    <inkscape:perspective
       id="perspective6650"
       inkscape:persp3d-origin="0.5 : 0.33333333 : 1"
       inkscape:vp_z="1 : 0.5 : 1"
       inkscape:vp_y="0 : 1000 : 0"
       inkscape:vp_x="0 : 0.5 : 1"
       sodipodi:type="inkscape:persp3d" />
    <inkscape:perspective
       id="perspective6676"
       inkscape:persp3d-origin="0.5 : 0.33333333 : 1"
       inkscape:vp_z="1 : 0.5 : 1"
       inkscape:vp_y="0 : 1000 : 0"
       inkscape:vp_x="0 : 0.5 : 1"
       sodipodi:type="inkscape:persp3d" />
    <inkscape:perspective
       id="perspective6710"
       inkscape:persp3d-origin="0.5 : 0.33333333 : 1"
       inkscape:vp_z="1 : 0.5 : 1"
       inkscape:vp_y="0 : 1000 : 0"
       inkscape:vp_x="0 : 0.5 : 1"
       sodipodi:type="inkscape:persp3d" />
    <inkscape:perspective
       id="perspective6748"
       inkscape:persp3d-origin="0.5 : 0.33333333 : 1"
       inkscape:vp_z="1 : 0.5 : 1"
       inkscape:vp_y="0 : 1000 : 0"
       inkscape:vp_x="0 : 0.5 : 1"
       sodipodi:type="inkscape:persp3d" />
    <inkscape:perspective
       id="perspective6786"
       inkscape:persp3d-origin="0.5 : 0.33333333 : 1"
       inkscape:vp_z="1 : 0.5 : 1"
       inkscape:vp_y="0 : 1000 : 0"
       inkscape:vp_x="0 : 0.5 : 1"
       sodipodi:type="inkscape:persp3d" />
    <inkscape:perspective
       id="perspective6810"
       inkscape:persp3d-origin="0.5 : 0.33333333 : 1"
       inkscape:vp_z="1 : 0.5 : 1"
       inkscape:vp_y="0 : 1000 : 0"
       inkscape:vp_x="0 : 0.5 : 1"
       sodipodi:type="inkscape:persp3d" />
    <inkscape:perspective
       id="perspective6848"
       inkscape:persp3d-origin="0.5 : 0.33333333 : 1"
       inkscape:vp_z="1 : 0.5 : 1"
       inkscape:vp_y="0 : 1000 : 0"
       inkscape:vp_x="0 : 0.5 : 1"
       sodipodi:type="inkscape:persp3d" />
    <inkscape:perspective
       id="perspective6870"
       inkscape:persp3d-origin="0.5 : 0.33333333 : 1"
       inkscape:vp_z="1 : 0.5 : 1"
       inkscape:vp_y="0 : 1000 : 0"
       inkscape:vp_x="0 : 0.5 : 1"
       sodipodi:type="inkscape:persp3d" />
    <inkscape:perspective
       id="perspective6908"
       inkscape:persp3d-origin="0.5 : 0.33333333 : 1"
       inkscape:vp_z="1 : 0.5 : 1"
       inkscape:vp_y="0 : 1000 : 0"
       inkscape:vp_x="0 : 0.5 : 1"
       sodipodi:type="inkscape:persp3d" />
    <inkscape:perspective
       id="perspective6946"
       inkscape:persp3d-origin="0.5 : 0.33333333 : 1"
       inkscape:vp_z="1 : 0.5 : 1"
       inkscape:vp_y="0 : 1000 : 0"
       inkscape:vp_x="0 : 0.5 : 1"
       sodipodi:type="inkscape:persp3d" />
    <inkscape:perspective
       id="perspective6970"
       inkscape:persp3d-origin="0.5 : 0.33333333 : 1"
       inkscape:vp_z="1 : 0.5 : 1"
       inkscape:vp_y="0 : 1000 : 0"
       inkscape:vp_x="0 : 0.5 : 1"
       sodipodi:type="inkscape:persp3d" />
    <inkscape:perspective
       id="perspective7008"
       inkscape:persp3d-origin="0.5 : 0.33333333 : 1"
       inkscape:vp_z="1 : 0.5 : 1"
       inkscape:vp_y="0 : 1000 : 0"
       inkscape:vp_x="0 : 0.5 : 1"
       sodipodi:type="inkscape:persp3d" />
    <inkscape:perspective
       id="perspective7036"
       inkscape:persp3d-origin="0.5 : 0.33333333 : 1"
       inkscape:vp_z="1 : 0.5 : 1"
       inkscape:vp_y="0 : 1000 : 0"
       inkscape:vp_x="0 : 0.5 : 1"
       sodipodi:type="inkscape:persp3d" />
    <inkscape:perspective
       id="perspective7060"
       inkscape:persp3d-origin="0.5 : 0.33333333 : 1"
       inkscape:vp_z="1 : 0.5 : 1"
       inkscape:vp_y="0 : 1000 : 0"
       inkscape:vp_x="0 : 0.5 : 1"
       sodipodi:type="inkscape:persp3d" />
  </defs>
  <sodipodi:namedview
     id="base"
     pagecolor="#ffffff"
     bordercolor="#666666"
     borderopacity="1.0"
     inkscape:pageopacity="0.0"
     inkscape:pageshadow="2"
     inkscape:zoom="8.671875"
     inkscape:cx="10.564203"
     inkscape:cy="2.743179"
     inkscape:document-units="px"
     inkscape:current-layer="layer1"
     showgrid="true"
     inkscape:window-width="1280"
     inkscape:window-height="780"
     inkscape:window-x="-8"
     inkscape:window-y="-8"
     inkscape:window-maximized="1">
    <inkscape:grid
       type="xygrid"
       id="grid6324"
       empspacing="5"
       visible="true"
       enabled="true"
       snapvisiblegridlinesonly="true" />
  </sodipodi:namedview>
  <metadata
     id="metadata7">
    <rdf:RDF>
      <cc:Work
         rdf:about="">
        <dc:format>image/svg+xml</dc:format>
        <dc:type
           rdf:resource="http://purl.org/dc/dcmitype/StillImage" />
        <dc:title></dc:title>
      </cc:Work>
    </rdf:RDF>
  </metadata>
  <g
     inkscape:label="Calque 1"
     inkscape:groupmode="layer"
     id="layer1"
     transform="translate(0,-1036.3622)">
    <g
       id="g7066"
       transform="translate(-0.2267373,0.2083)">
      <path
         style="fill:#faf6ac"
         d="m 8.1694915,1049.2965 -0.6779661,0 -0.634054,-0.2263 c -0.3487299,-0.1245 -0.8236065,-0.3505 -1.0552816,-0.5023 l -0.4212273,-0.276 0.1066016,-1.8632 0.1066015,-1.8631 -0.1953878,0 -0.195388,0 0,0.1695 0,0.1695 -0.6507601,0 -0.6507602,0 -0.1966975,-0.4317 c -0.1081836,-0.2375 -0.1966974,-0.5845 -0.1966974,-0.7712 0,-0.1867 0.1163654,-0.5644 0.2585898,-0.8395 l 0.2585899,-0.5 0.4702237,0 0.4702237,0 0.1978334,0.1978 0.1978335,0.1979 0.1164872,-0.3036 0.1164871,-0.3036 -0.2804222,-0.1569 -0.2804224,-0.1569 0,-0.5673 0,-0.5672 0.6232666,-0.5472 c 0.3427965,-0.301 0.8742451,-0.6521 1.1809968,-0.7803 l 0.5577303,-0.2331 0.6918268,0 0.691827,0 0.5424305,0.273 c 0.2983368,0.1501 0.8284477,0.5469 1.1780237,0.8818 l 0.635593,0.609 0,0.464 0,0.4641 -0.169491,0.1048 -0.169492,0.1047 0.01338,0.4561 0.01338,0.4561 0.08549,-0.2119 0.08549,-0.2118 0.48474,0 0.484739,0 0.263848,0.3767 0.263847,0.3767 0,0.433 0,0.4331 -0.275128,0.3928 -0.275128,0.3928 -0.572329,-0.067 -0.57233,-0.067 0,1.7194 0,1.7194 -0.327763,0.2966 c -0.18027,0.1631 -0.6188294,0.4004 -0.9745765,0.5273 l -0.6468129,0.2307 -0.6779661,0 z"
         id="path7088" />
      <path
         style="fill:#fbf48e"
         d="m 8.1694915,1049.2965 -0.6779661,0 -0.634054,-0.2263 c -0.3487299,-0.1245 -0.8236065,-0.3505 -1.0552816,-0.5023 l -0.4212273,-0.276 0.1066016,-1.8632 0.1066015,-1.8631 -0.1953878,0 -0.195388,0 0,0.1695 0,0.1695 -0.6507601,0 -0.6507602,0 -0.1966975,-0.4317 c -0.1081836,-0.2375 -0.1966974,-0.5845 -0.1966974,-0.7712 0,-0.1867 0.1163654,-0.5644 0.2585898,-0.8395 l 0.2585899,-0.5 0.4702237,0 0.4702237,0 0.1978334,0.1978 0.1978335,0.1979 0.1164872,-0.3036 0.1164871,-0.3036 -0.2804222,-0.1569 -0.2804224,-0.1569 0,-0.5673 0,-0.5672 0.6232666,-0.5472 c 0.3427965,-0.301 0.8742451,-0.6521 1.1809968,-0.7803 l 0.5577303,-0.2331 0.6918268,0 0.691827,0 0.5424305,0.273 c 0.2983368,0.1501 0.8284477,0.5469 1.1780237,0.8818 l 0.635593,0.609 0,0.464 0,0.4641 -0.169491,0.1048 -0.169492,0.1047 0.01338,0.4561 0.01338,0.4561 0.08549,-0.2119 0.08549,-0.2118 0.48474,0 0.484739,0 0.263848,0.3767 0.263847,0.3767 0,0.433 0,0.4331 -0.275128,0.3928 -0.275128,0.3928 -0.572329,-0.067 -0.57233,-0.067 0,1.7194 0,1.7194 -0.327763,0.2966 c -0.18027,0.1631 -0.6188294,0.4004 -0.9745765,0.5273 l -0.6468129,0.2307 -0.6779661,0 z m 0.014124,-0.168 0.3248588,-0.013 -0.2224577,-0.089 -0.2224576,-0.089 -0.1024012,0.1024 -0.102401,0.1024 0.3248587,-0.013 z m -0.7284999,-0.1599 0.3025736,0 -0.1754549,-0.3279 -0.1754549,-0.3278 0,-1.5366 0,-1.5366 0.2966101,-0.017 L 8,1045.2089 l -0.553999,-0.1776 -0.553999,-0.1776 -0.099968,-0.3983 -0.099969,-0.3983 0.1063491,-0.4237 0.1063492,-0.4238 0.2102374,0 0.2102375,0 0.207782,-0.3327 0.2077821,-0.3327 -0.2183446,0.084 -0.2183446,0.084 -0.621189,-0.2596 c -0.341654,-0.1427 -0.6528788,-0.2595 -0.6916106,-0.2595 -0.038732,0 -0.1127611,0.1619 -0.1645092,0.3598 l -0.094088,0.3598 -0.7731381,-0.116 -0.7731381,-0.1159 0,0.9426 0,0.9426 0.3050847,0 0.3050848,0 0.1919971,-0.192 0.1919969,-0.192 0.2656302,0.1019 0.26563,0.1019 0,1.9628 0,1.9628 0.720339,0.3269 c 0.3961864,0.1799 0.8564971,0.3287 1.0229125,0.3307 z m -1.0652854,-1.0132 -0.1694915,0 0,-1.8544 0,-1.8544 0.1694915,-0.1048 0.1694915,-0.1047 0,1.9592 0,1.9591 -0.1694915,0 z m 1.6242937,-4.9286 0.3248589,-0.013 -0.2224577,-0.089 -0.2224576,-0.089 -0.1024012,0.1024 -0.102401,0.1024 0.3248586,-0.013 z m -1.1028783,-1.9929 c 0.053728,-0.2483 0.1874087,-0.6184 0.2970687,-0.8224 l 0.1993818,-0.3711 -0.1837228,-0.1136 -0.1837229,-0.1135 -0.4947015,0.4739 -0.4947017,0.474 0,0.2225 0,0.2226 -0.1694916,0 c -0.09322,0 -0.1694915,-0.043 -0.1694915,-0.096 0,-0.053 0.084944,-0.2625 0.1887641,-0.4661 l 0.1887642,-0.3702 -0.3912124,0.3766 -0.3912123,0.3766 0.1050906,0.1051 c 0.0578,0.058 0.3967831,0.2059 0.7532958,0.329 l 0.6482049,0.2239 0.097687,-0.4514 z m 0.466179,0.4808 0.3096283,0 -0.074628,-0.5084 -0.074628,-0.5085 -0.1321207,0 c -0.072666,0 -0.1784163,0.1206 -0.235,0.2681 -0.056584,0.1474 -0.1028795,0.3762 -0.1028795,0.5085 l 0,0.2403 0.3096283,0 z m 0.1141005,-1.1864 c 0.04661,0 0.084746,-0.038 0.084746,-0.085 0,-0.047 -0.038136,-0.085 -0.084746,-0.085 -0.04661,0 -0.084746,0.038 -0.084746,0.085 0,0.047 0.038136,0.085 0.084746,0.085 z m 0.3589888,-0.1695 c 0.04661,0 0.037608,-0.076 -0.020006,-0.1695 -0.057613,-0.093 -0.1428871,-0.1695 -0.1894973,-0.1695 -0.04661,0 -0.037608,0.076 0.020006,0.1695 0.057613,0.093 0.1428872,0.1695 0.1894973,0.1695 z"
         id="path7086" />
      <path
         style="fill:#d7d3b2"
         d="m 8.1694915,1049.2965 -0.6779661,0 -0.634054,-0.2263 c -0.3487299,-0.1245 -0.8236065,-0.3505 -1.0552816,-0.5023 l -0.4212273,-0.276 0.1066016,-1.8632 0.1066015,-1.8631 -0.1953878,0 -0.195388,0 0,0.1695 0,0.1695 -0.6507601,0 -0.6507602,0 -0.1966975,-0.4317 c -0.1081836,-0.2375 -0.1966974,-0.5845 -0.1966974,-0.7712 0,-0.1867 0.1163654,-0.5644 0.2585898,-0.8395 l 0.2585899,-0.5 0.4702237,0 0.4702237,0 0.1978334,0.1978 0.1978335,0.1979 0.1164872,-0.3036 0.1164871,-0.3036 -0.2804222,-0.1569 -0.2804224,-0.1569 0,-0.5673 0,-0.5672 0.6232666,-0.5472 c 0.3427965,-0.301 0.8742451,-0.6521 1.1809968,-0.7803 l 0.5577303,-0.2331 0.6918268,0 0.691827,0 0.5424305,0.273 c 0.2983368,0.1501 0.8284477,0.5469 1.1780237,0.8818 l 0.635593,0.609 0,0.464 0,0.4641 -0.169491,0.1048 -0.169492,0.1047 0.01338,0.4561 0.01338,0.4561 0.08549,-0.2119 0.08549,-0.2118 0.48474,0 0.484739,0 0.263848,0.3767 0.263847,0.3767 0,0.433 0,0.4331 -0.275128,0.3928 -0.275128,0.3928 -0.572329,-0.067 -0.57233,-0.067 0,1.7194 0,1.7194 -0.327763,0.2966 c -0.18027,0.1631 -0.6188294,0.4004 -0.9745765,0.5273 l -0.6468129,0.2307 -0.6779661,0 z m 0.3121638,-0.254 0.6511466,-0.079 0.6624127,-0.338 c 0.3643274,-0.1858 0.6624124,-0.3772 0.6624124,-0.4252 0,-0.048 -0.144426,-0.01 -0.320946,0.084 l -0.3209473,0.1718 0.012007,-2.1573 0.012007,-2.1574 0.105358,2.0339 0.1053573,2.0339 0.03409,-1.9576 0.03409,-1.9576 -0.1877978,-0.1878 -0.1877983,-0.1878 0.06068,-0.7359 0.06068,-0.736 -1.6101695,0 -1.6101695,0 -0.3603449,-0.1318 -0.3603451,-0.1319 -0.09533,0.3645 -0.095331,0.3646 -0.7731381,-0.116 -0.7731381,-0.1159 0,0.9426 0,0.9426 0.3050847,0 0.3050848,0 0.1919971,-0.192 0.1919969,-0.192 0.2656302,0.1019 0.26563,0.1019 0,1.9502 0,1.9501 0.5508475,0.2869 c 0.3029661,0.1579 0.779661,0.346 1.059322,0.418 l 0.5084746,0.1311 0.6511468,-0.079 z m -0.9502928,-1.299 -0.063482,0.8051 0,-1.6101 0,-1.6102 0.063482,0.8051 c 0.034915,0.4428 0.034915,1.1673 0,1.6101 z m 1.3561412,-0.01 -0.063691,0.8102 -9.322e-4,-1.5254 -9.322e-4,-1.5254 0.06463,0.7152 c 0.035546,0.3934 0.035969,1.0798 9.322e-4,1.5254 z m -2.4976732,0.217 -0.1694915,0 0,-1.8544 0,-1.8544 0.1694915,-0.1048 0.1694915,-0.1047 0,1.9592 0,1.9591 -0.1694915,0 z m 1.784321,-2.7252 c -0.095783,-0.01 -0.4029651,-0.095 -0.6826261,-0.1949 -0.279661,-0.1 -0.56451,-0.2655 -0.6329978,-0.368 -0.068488,-0.1026 -0.1256912,-0.3919 -0.1271186,-0.643 l -0.0026,-0.4564 0.3766959,-0.2639 0.3766959,-0.2638 0.521717,0 0.5217168,0 0.4623316,0.2118 0.4623317,0.2119 0.1014448,0.3938 0.1014446,0.3939 -0.2132251,0.4536 -0.2132249,0.4536 -0.076572,-0.2116 -0.076572,-0.2117 -0.362648,0.254 c -0.1994562,0.1397 -0.4410161,0.248 -0.5367993,0.2407 z m 2.1987295,-2.868 c 0.04661,0 0.08475,-0.038 0.08475,-0.085 0,-0.047 -0.03814,-0.085 -0.08475,-0.085 -0.04661,0 -0.08474,0.038 -0.08474,0.085 0,0.047 0.03814,0.085 0.08474,0.085 z m -2.2615725,-0.7343 c 0.4767759,-0.056 0.906592,-0.1424 0.9551466,-0.1909 l 0.088281,-0.088 -0.3064993,-0.6797 -0.3064993,-0.6797 -0.14375,0 -0.1437502,0 0,0.5932 0,0.5932 -0.1694915,0 -0.1694916,0 0,-0.5832 0,-0.5832 -0.1458328,-0.09 -0.1458331,-0.09 -0.2995271,0.6642 -0.2995271,0.6642 0.1099544,0.2866 0.1099546,0.2865 0.8668654,-0.1027 z m -1.4248678,-0.1176 0.2118644,0 0,-0.3474 c 0,-0.191 0.1141271,-0.5681 0.2536157,-0.8378 l 0.2536158,-0.4904 -0.1826429,-0.1129 -0.182643,-0.1129 -0.4947015,0.4739 -0.4947017,0.474 0,0.2225 0,0.2226 -0.1694916,0 c -0.09322,0 -0.1694915,-0.043 -0.1694915,-0.096 0,-0.053 0.086623,-0.2625 0.1924944,-0.4661 l 0.1924946,-0.3702 -0.4606253,0.4237 -0.460625,0.4237 0.6494866,0.2922 c 0.3572176,0.1607 0.7448256,0.2941 0.861351,0.2966 z m 2.838983,-0.1038 0.2542373,-0.098 0.0026,-0.3633 0.0026,-0.3632 0.1643006,0.2543 0.1643004,0.2542 0.0026,-0.1918 c 0.0014,-0.1054 -0.2410889,-0.43 -0.5389257,-0.7211 l -0.5415215,-0.5295 -0.1508682,0.1509 -0.1508679,0.1509 0.2686607,0.5195 c 0.1477639,0.2857 0.2686611,0.6353 0.2686611,0.7769 l 0,0.2573 0.2542373,-0.098 z m 0.8757063,-0.2872 0.112994,-0.113 -0.112994,-0.113 -0.112994,-0.113 0,0.226 0,0.2259 0.112994,-0.1129 z"
         id="path7084" />
      <path
         style="fill:#fbee73"
         d="m 8.1694915,1049.2965 -0.6779661,0 -0.634054,-0.2263 c -0.3487299,-0.1245 -0.8236065,-0.3505 -1.0552816,-0.5023 l -0.4212273,-0.276 0.1066016,-1.8632 0.1066015,-1.8631 -0.1953878,0 -0.195388,0 0,0.1695 0,0.1695 -0.6507601,0 -0.6507602,0 -0.1966975,-0.4317 c -0.1081836,-0.2375 -0.1966974,-0.5845 -0.1966974,-0.7712 0,-0.1867 0.1163654,-0.5644 0.2585898,-0.8395 l 0.2585899,-0.5 0.4702237,0 0.4702237,0 0.1978334,0.1978 0.1978335,0.1979 0.1164872,-0.3036 0.1164871,-0.3036 -0.2804222,-0.1569 -0.2804224,-0.1569 0,-0.5673 0,-0.5672 0.6232666,-0.5472 c 0.3427965,-0.301 0.8742451,-0.6521 1.1809968,-0.7803 l 0.5577303,-0.2331 0.6918268,0 0.691827,0 0.5424305,0.273 c 0.2983368,0.1501 0.8284477,0.5469 1.1780237,0.8818 l 0.635593,0.609 0,0.464 0,0.4641 -0.169491,0.1048 -0.169492,0.1047 0.01338,0.4561 0.01338,0.4561 0.08549,-0.2119 0.08549,-0.2118 0.48474,0 0.484739,0 0.263848,0.3767 0.263847,0.3767 0,0.433 0,0.4331 -0.275128,0.3928 -0.275128,0.3928 -0.572329,-0.067 -0.57233,-0.067 0,1.7194 0,1.7194 -0.327763,0.2966 c -0.18027,0.1631 -0.6188294,0.4004 -0.9745765,0.5273 l -0.6468129,0.2307 -0.6779661,0 z m 0.3121638,-0.254 0.6511466,-0.079 0.6624127,-0.338 c 0.3643274,-0.1858 0.6624124,-0.3772 0.6624124,-0.4252 0,-0.048 -0.17161,0 -0.381356,0.109 l -0.3813557,0.1962 0.2118644,-0.2242 0.2118643,-0.2241 0,-1.8814 0,-1.8813 -0.1530589,-0.161 -0.1530588,-0.161 -0.058806,-0.7889 -0.058805,-0.789 0.1154071,0.071 0.1154069,0.071 0.1081687,-0.175 0.108169,-0.175 0.123856,0.076 0.123856,0.077 0.197176,-0.3158 0.197177,-0.3157 -0.7988459,0.3579 -0.7988454,0.3578 -1.1016949,-0.01 -1.101695,-0.01 -0.6355932,-0.2682 -0.6355932,-0.2682 0,0.4998 0,0.4999 -0.4237288,0 -0.4237288,0 0,-0.1695 0,-0.1695 -0.3389831,0 -0.338983,0 0,1.1017 0,1.1017 0.3289801,0 0.3289802,0 0.1047515,-0.1695 0.1047516,-0.1695 0.3289801,0 0.3289802,0 0,1.9448 0,1.9448 0.5508475,0.2869 c 0.3029661,0.1579 0.779661,0.346 1.059322,0.418 l 0.5084746,0.1311 0.6511468,-0.079 z m -0.4063739,-3.9684 c -0.1501617,0 -0.3168802,-0.044 -0.3704851,-0.098 -0.053605,-0.054 -0.237927,-0.1179 -0.4096046,-0.1428 l -0.3121409,-0.045 -0.1629828,-0.4593 -0.1629831,-0.4594 0.1629831,-0.2584 c 0.08964,-0.1421 0.2011184,-0.2471 0.2477286,-0.2333 0.04661,0.014 0.2944915,-0.055 0.5508475,-0.1522 l 0.4661017,-0.1773 0.4661017,0.1927 c 0.2563559,0.106 0.5353833,0.1763 0.6200608,0.1564 0.084678,-0.02 0.2169842,0.063 0.2940148,0.1845 0.077031,0.1214 0.1412235,0.3778 0.142651,0.5697 l 0.0026,0.349 -0.2540264,0.329 -0.2540265,0.329 0.06208,-0.678 c 0.034144,-0.3728 0.029063,-0.5072 -0.01129,-0.2984 l -0.07337,0.3795 -0.3656164,0.2561 c -0.2010897,0.1408 -0.4884768,0.2561 -0.6386386,0.2561 z m -1.0639819,-0.904 0.1129942,-0.113 -0.1129942,-0.113 -0.1129944,-0.113 0,0.226 0,0.226 0.1129944,-0.113 z m -1.6384181,-2.3164 0.2259886,0 -0.1129942,-0.113 -0.1129944,-0.113 -0.1129945,0.113 -0.1129942,0.113 0.2259887,0 z m 2.9351733,-0.2751 c 0.5423116,-0.046 1.0952777,-0.1252 1.2288136,-0.1765 l 0.2427927,-0.093 0.00515,-0.3633 0.00515,-0.3632 0.1727596,0.2966 c 0.095017,0.1632 0.2452404,0.2966 0.3338294,0.2966 l 0.161069,0 0,-0.1957 0,-0.1957 -0.686545,-0.6531 -0.6865451,-0.6531 -0.3192615,0.1709 -0.3192613,0.1708 -0.4772444,0 c -0.2624843,0 -0.5825119,-0.069 -0.7111722,-0.1507 l -0.233928,-0.1482 -0.5401573,0.3187 c -0.2970866,0.1753 -0.7120727,0.5017 -0.9221914,0.7254 l -0.3820339,0.4066 0.7323904,0.2653 c 0.4028147,0.1459 0.8849329,0.3018 1.0713735,0.3465 0.1864407,0.045 0.7826924,0.044 1.3250039,0 z"
         id="path7082" />
      <path
         style="fill:#a6a59f"
         d="m 8.1694915,1049.2965 -0.6779661,0 -0.634054,-0.2263 c -0.3487299,-0.1245 -0.8236065,-0.3505 -1.0552816,-0.5023 l -0.4212273,-0.276 0.1066016,-1.8632 0.1066015,-1.8631 -0.1953878,0 -0.195388,0 0,0.1695 0,0.1695 -0.6507601,0 -0.6507602,0 -0.1966975,-0.4317 c -0.1081836,-0.2375 -0.1966974,-0.5845 -0.1966974,-0.7712 0,-0.1867 0.1163654,-0.5644 0.2585898,-0.8395 l 0.2585899,-0.5 0.4702237,0 0.4702237,0 0.1978334,0.1978 0.1978335,0.1979 0.1164872,-0.3036 0.1164871,-0.3036 -0.2804222,-0.1569 -0.2804224,-0.1569 0,-0.5673 0,-0.5672 0.6232666,-0.5472 c 0.3427965,-0.301 0.8742451,-0.6521 1.1809968,-0.7803 l 0.5577303,-0.2331 0.6918268,0 0.691827,0 0.5424305,0.273 c 0.2983368,0.1501 0.8284477,0.5469 1.1780237,0.8818 l 0.635593,0.609 0,0.464 0,0.4641 -0.169491,0.1048 -0.169492,0.1047 0.01338,0.4561 0.01338,0.4561 0.08549,-0.2119 0.08549,-0.2118 0.48474,0 0.484739,0 0.263848,0.3767 0.263847,0.3767 0,0.433 0,0.4331 -0.275128,0.3928 -0.275128,0.3928 -0.572329,-0.067 -0.57233,-0.067 0,1.7194 0,1.7194 -0.327763,0.2966 c -0.18027,0.1631 -0.6188294,0.4004 -0.9745765,0.5273 l -0.6468129,0.2307 -0.6779661,0 z m 0.2015178,-0.2232 0.7099924,-0.057 0.6459398,-0.3348 0.6459395,-0.3349 0.04792,-1.8905 0.04792,-1.8905 0.757161,0 0.757161,0 0,-0.8528 0,-0.8528 -0.26238,-0.1007 -0.262381,-0.1006 -0.221584,0.303 -0.221585,0.303 -0.278747,-0.1069 -0.278747,-0.107 0,-0.4799 0,-0.4799 0.211865,-0.2123 0.211864,-0.2124 -0.847458,0.3791 -0.8474573,0.3791 -1.1016949,-0.01 -1.101695,-0.01 -0.6355932,-0.2682 -0.6355932,-0.2682 0,0.4998 0,0.4999 -0.4237288,0 -0.4237288,0 0,-0.1813 0,-0.1813 -0.381356,0.054 -0.3813559,0.054 -0.050892,0.9767 -0.050892,0.9766 0.2852086,0.1094 0.2852085,0.1095 0.3142315,-0.1963 c 0.1728273,-0.1079 0.4296731,-0.1962 0.5707685,-0.1962 l 0.2565371,0 0,1.9448 0,1.9448 0.5497502,0.2843 c 0.3023625,0.1563 0.7409218,0.3464 0.9745762,0.4223 l 0.4248261,0.138 0.7099924,-0.057 z m -0.2957279,-3.9992 c -0.1501617,0 -0.3168802,-0.044 -0.3704851,-0.098 -0.053605,-0.054 -0.237927,-0.1179 -0.4096046,-0.1428 l -0.3121409,-0.045 -0.1629828,-0.4593 -0.1629831,-0.4594 0.1629831,-0.2584 c 0.08964,-0.1421 0.2011184,-0.2471 0.2477286,-0.2333 0.04661,0.014 0.2944915,-0.055 0.5508475,-0.1522 l 0.4661017,-0.1773 0.4661017,0.1935 c 0.2563559,0.1064 0.5423728,0.1999 0.6355932,0.2077 l 0.1694915,0.014 0.054719,0.5724 0.054719,0.5724 -0.175684,0.1757 -0.1756839,0.1756 0.056328,-0.5785 0.056328,-0.5786 -0.073562,0.3795 -0.073562,0.3795 -0.3656164,0.2561 c -0.2010892,0.1408 -0.4884763,0.2561 -0.6386381,0.2561 z m -1.0639819,-0.904 0.1129942,-0.113 -0.1129942,-0.113 -0.1129944,-0.113 0,0.226 0,0.226 0.1129944,-0.113 z m -1.6284153,-2.3164 0.1794944,0 -0.1047515,-0.1695 c -0.057613,-0.093 -0.1383857,-0.1695 -0.1794944,-0.1695 -0.041109,0 -0.074743,0.076 -0.074743,0.1695 l 0,0.1695 0.1794944,0 z m 2.9560989,-0.233 1.1864406,-0.057 0.6626443,-0.2813 0.662645,-0.2813 -0.397034,-0.4226 c -0.218369,-0.2324 -0.6401046,-0.566 -0.9371912,-0.7413 l -0.5401573,-0.3187 -0.233928,0.1482 C 8.6137422,1039.748 8.279661,1039.8146 8,1039.8146 c -0.279661,0 -0.6137422,-0.067 -0.7424025,-0.1481 l -0.233928,-0.1482 -0.5401573,0.3187 c -0.2970866,0.1753 -0.7120727,0.5017 -0.9221914,0.7254 l -0.3820339,0.4066 0.7323904,0.2619 c 0.4028147,0.144 0.8467973,0.3036 0.9866278,0.3545 0.1398305,0.051 0.7881356,0.067 1.440678,0.035 z"
         id="path7080" />
      <path
         style="fill:#dbaa54"
         d="m 8.1694915,1049.2965 -0.6779661,0 -0.634054,-0.2263 c -0.3487299,-0.1245 -0.8236065,-0.3505 -1.0552816,-0.5023 l -0.4212273,-0.276 0.1066016,-1.8632 0.1066015,-1.8631 -0.1953878,0 -0.195388,0 0,0.1695 0,0.1695 -0.6507601,0 -0.6507602,0 -0.1966975,-0.4317 c -0.1081836,-0.2375 -0.1966974,-0.5845 -0.1966974,-0.7712 0,-0.1867 0.1163654,-0.5644 0.2585898,-0.8395 l 0.2585899,-0.5 0.4702237,0 0.4702237,0 0.1978334,0.1978 0.1978335,0.1979 0.1164872,-0.3036 0.1164871,-0.3036 -0.2804222,-0.1569 -0.2804224,-0.1569 0,-0.5673 0,-0.5672 0.6232666,-0.5472 c 0.3427965,-0.301 0.8742451,-0.6521 1.1809968,-0.7803 l 0.5577303,-0.2331 0.6918268,0 0.691827,0 0.5424305,0.273 c 0.2983368,0.1501 0.8284477,0.5469 1.1780237,0.8818 l 0.635593,0.609 0,0.464 0,0.4641 -0.169491,0.1048 -0.169492,0.1047 0.01338,0.4561 0.01338,0.4561 0.08549,-0.2119 0.08549,-0.2118 0.48474,0 0.484739,0 0.263848,0.3767 0.263847,0.3767 0,0.433 0,0.4331 -0.275128,0.3928 -0.275128,0.3928 -0.572329,-0.067 -0.57233,-0.067 0,1.7194 0,1.7194 -0.327763,0.2966 c -0.18027,0.1631 -0.6188294,0.4004 -0.9745765,0.5273 l -0.6468129,0.2307 -0.6779661,0 z m 0.2015178,-0.2158 0.7099924,-0.064 0.6459398,-0.3348 0.6459395,-0.3349 0.04792,-1.8905 0.04792,-1.8905 0.757161,0 0.757161,0 0,-0.8528 0,-0.8528 -0.26238,-0.1007 -0.262381,-0.1006 -0.221584,0.303 -0.221585,0.303 -0.278747,-0.1069 -0.278747,-0.107 0,-0.4957 0,-0.4956 0.278496,-0.1069 c 0.153173,-0.059 0.241231,-0.1441 0.195685,-0.1897 -0.04555,-0.045 -0.456887,0.085 -0.91409,0.2894 l -0.8312773,0.3722 -1.1382161,-0.01 -1.1382161,-0.01 -0.8533093,-0.4223 -0.8533094,-0.4223 0,0.1254 c 0,0.069 0.1144068,0.1693 0.2542373,0.223 l 0.2542373,0.098 0,0.429 0,0.4291 -0.4237288,0 -0.4237288,0 0,-0.1813 0,-0.1813 -0.381356,0.054 -0.3813559,0.054 0,1.017 0,1.0169 0.4661017,0.054 0.4661017,0.054 0,-0.1808 0,-0.1807 0.3481739,0 0.3481739,0 -0.030246,1.9002 -0.030246,1.9003 0.3578497,0.2376 c 0.1968171,0.1307 0.6448512,0.3441 0.995631,0.4742 l 0.6377815,0.2366 0.7099924,-0.064 z m -0.3157132,-4.1761 -0.4264868,0 -0.2805062,-0.31 -0.2805065,-0.31 0,-0.2569 0,-0.257 0.3099561,-0.2805 0.3099559,-0.2806 0.4264868,0 0.4264868,0 0.2805063,0.31 0.2805064,0.31 0,0.257 0,0.2569 -0.3099561,0.2806 -0.3099559,0.2805 -0.4264868,0 z m 1.2582632,-0.111 -0.1271186,0.079 0,-0.7304 0,-0.7303 0.1271186,0.079 0.1271187,0.079 0,0.5732 0,0.5733 -0.1271187,0.079 z m -2.3508956,-0.058 c -0.01545,0 -0.074387,-0.1207 -0.1309706,-0.2681 -0.056584,-0.1475 -0.1028795,-0.4099 -0.1028795,-0.5832 0,-0.1734 0.058937,-0.3516 0.1309706,-0.3961 l 0.1309709,-0.081 0,0.6642 c 0,0.3653 -0.012641,0.6642 -0.028091,0.6642 z m 1.3763194,-3.1144 1.1864406,-0.057 0.6563323,-0.2786 0.656333,-0.2787 -0.232604,-0.2825 c -0.127932,-0.1553 -0.520131,-0.4913 -0.8715538,-0.7467 l -0.6389502,-0.4642 -0.5009095,0.1891 -0.5009096,0.1891 -0.6002641,-0.2171 -0.6002642,-0.2171 -0.6490619,0.5141 c -0.3569841,0.2827 -0.7401798,0.6239 -0.8515463,0.7581 l -0.2024846,0.2439 0.7272636,0.26 c 0.3999948,0.1429 0.8416702,0.3016 0.9815007,0.3525 0.1398305,0.051 0.7881356,0.067 1.440678,0.035 z"
         id="path7078" />
      <path
         style="fill:#b2a258"
         d="m 8.1694915,1049.2965 -0.6779661,0 -0.634054,-0.2263 c -0.3487299,-0.1245 -0.8236065,-0.3505 -1.0552816,-0.5023 l -0.4212273,-0.276 0.1066016,-1.8632 0.1066015,-1.8631 -0.1953878,0 -0.195388,0 0,0.1695 0,0.1695 -0.6507601,0 -0.6507602,0 -0.1966975,-0.4317 c -0.1081836,-0.2375 -0.1966974,-0.5845 -0.1966974,-0.7712 0,-0.1867 0.1163654,-0.5644 0.2585898,-0.8395 l 0.2585899,-0.5 0.4702237,0 0.4702237,0 0.1978334,0.1978 0.1978335,0.1979 0.1164872,-0.3036 0.1164871,-0.3036 -0.2804222,-0.1569 -0.2804224,-0.1569 0,-0.5673 0,-0.5672 0.6232666,-0.5472 c 0.3427965,-0.301 0.8742451,-0.6521 1.1809968,-0.7803 l 0.5577303,-0.2331 0.6918268,0 0.691827,0 0.5424305,0.273 c 0.2983368,0.1501 0.8284477,0.5469 1.1780237,0.8818 l 0.635593,0.609 0,0.464 0,0.4641 -0.169491,0.1048 -0.169492,0.1047 0.01338,0.4561 0.01338,0.4561 0.08549,-0.2119 0.08549,-0.2118 0.48474,0 0.484739,0 0.263848,0.3767 0.263847,0.3767 0,0.433 0,0.4331 -0.275128,0.3928 -0.275128,0.3928 -0.572329,-0.067 -0.57233,-0.067 0,1.7194 0,1.7194 -0.327763,0.2966 c -0.18027,0.1631 -0.6188294,0.4004 -0.9745765,0.5273 l -0.6468129,0.2307 -0.6779661,0 z m 0.3129685,-0.2311 0.8214431,-0.081 0.5344891,-0.3116 0.5344888,-0.3115 0.08475,-1.8555 0.08475,-1.8556 0.677966,0 0.677966,0 0.0513,-0.8917 0.0513,-0.8917 -0.280266,-0.1076 -0.280267,-0.1075 -0.130322,0.2108 -0.130323,0.2109 -0.318673,-0.061 -0.318673,-0.061 -0.05771,-0.4066 -0.05771,-0.4067 0.269571,-0.1509 c 0.148264,-0.083 0.269571,-0.219 0.269571,-0.3024 l 0,-0.1515 -0.805085,0.357 -0.8050848,0.357 -1.1864407,-0.01 -1.1864407,-0.01 -0.8898305,-0.3449 -0.8898305,-0.345 0,0.1351 c 0,0.074 0.1144068,0.1789 0.2542373,0.2326 l 0.2542373,0.098 0,0.429 0,0.4291 -0.4237288,0 -0.4237288,0 0,-0.1695 0,-0.1695 -0.3289802,0 c -0.1809391,0 -0.3650083,0.058 -0.4090426,0.1295 -0.044034,0.071 -0.1026889,0.548 -0.1303435,1.0593 l -0.050281,0.9298 0.5440694,0.053 0.5440694,0.053 0,-0.1802 0,-0.1802 0.3481739,0 0.3481739,0 -0.030246,1.9002 -0.030246,1.9003 0.3578497,0.2376 c 0.1968171,0.1307 0.6448512,0.3444 0.995631,0.4749 l 0.6377815,0.2373 0.8214431,-0.081 z m -0.4271639,-4.1608 -0.4264868,0 -0.2805062,-0.31 -0.2805065,-0.31 0,-0.2569 0,-0.257 0.3099561,-0.2805 0.3099559,-0.2806 0.4264868,0 0.4264868,0 0.2805063,0.31 0.2805064,0.31 0,0.257 0,0.2569 -0.3099561,0.2806 -0.3099559,0.2805 -0.4264868,0 z m 0.4531785,-0.339 c 0.04661,0 0.084746,-0.038 0.084746,-0.085 0,-0.047 -0.038136,-0.085 -0.084746,-0.085 -0.04661,0 -0.084746,0.038 -0.084746,0.085 0,0.047 0.038136,0.085 0.084746,0.085 z m -1.0169492,-0.1695 c 0.04661,0 0.084746,-0.038 0.084746,-0.085 0,-0.047 -0.038136,-0.085 -0.084746,-0.085 -0.04661,0 -0.084746,0.038 -0.084746,0.085 0,0.047 0.038136,0.085 0.084746,0.085 z m 0.084746,-0.5932 c 0.09322,-0.058 0.1694915,-0.1429 0.1694915,-0.1895 0,-0.047 -0.076271,-0.038 -0.1694915,0.02 -0.09322,0.058 -0.1694915,0.1429 -0.1694915,0.1895 0,0.047 0.076271,0.038 0.1694915,-0.02 z m 0.9322034,-0.085 c 0.04661,0 0.084746,-0.038 0.084746,-0.085 0,-0.047 -0.038136,-0.085 -0.084746,-0.085 -0.04661,0 -0.084746,0.038 -0.084746,0.085 0,0.047 0.038136,0.085 0.084746,0.085 z m 0.8050847,1.0755 -0.1271186,0.079 0,-0.7304 0,-0.7303 0.1271186,0.079 0.1271187,0.079 0,0.5732 0,0.5733 -0.1271187,0.079 z m -2.3508956,-0.058 c -0.01545,0 -0.074387,-0.1207 -0.1309706,-0.2681 -0.056584,-0.1475 -0.1028795,-0.4099 -0.1028795,-0.5832 0,-0.1734 0.058937,-0.3516 0.1309706,-0.3961 l 0.1309709,-0.081 0,0.6642 c 0,0.3653 -0.012641,0.6642 -0.028091,0.6642 z m -3.1717032,-0.565 0.1129943,-0.113 -0.1129943,-0.113 -0.1129944,-0.113 0,0.226 0,0.226 0.1129944,-0.113 z m 4.8022598,-2.4457 c 0.3262712,-0.038 0.9555085,-0.1919 1.3983051,-0.3423 l 0.8050844,-0.2733 0,-0.2163 0,-0.2162 -0.8591513,-0.5786 -0.8591517,-0.5786 -0.4925724,0.1859 -0.4925725,0.186 -0.6002641,-0.2171 -0.6002642,-0.2171 -0.6490619,0.5141 c -0.3569841,0.2827 -0.7368641,0.6199 -0.8441778,0.7492 l -0.1951161,0.2351 0.6939864,0.3129 c 0.3816926,0.1721 1.0107302,0.3607 1.3978612,0.4191 0.387131,0.058 0.9708238,0.075 1.2970949,0.037 z"
         id="path7076" />
      <path
         style="fill:#f99d0a"
         d="m 8.1694915,1049.2965 -0.6779661,0 -0.634054,-0.2263 c -0.3487299,-0.1245 -0.8236065,-0.3505 -1.0552816,-0.5023 l -0.4212273,-0.276 0.1066016,-1.8632 0.1066015,-1.8631 -0.1953878,0 -0.195388,0 0,0.1695 0,0.1695 -0.6507601,0 -0.6507602,0 -0.1966975,-0.4317 c -0.1081836,-0.2375 -0.1966974,-0.5845 -0.1966974,-0.7712 0,-0.1867 0.1163654,-0.5644 0.2585898,-0.8395 l 0.2585899,-0.5 0.4702237,0 0.4702237,0 0.1978334,0.1978 0.1978335,0.1979 0.1164872,-0.3036 0.1164871,-0.3036 -0.2804222,-0.1569 -0.2804224,-0.1569 0,-0.5673 0,-0.5672 0.6232666,-0.5472 c 0.3427965,-0.301 0.8742451,-0.6521 1.1809968,-0.7803 l 0.5577303,-0.2331 0.6918268,0 0.691827,0 0.5424305,0.273 c 0.2983368,0.1501 0.8284477,0.5469 1.1780237,0.8818 l 0.635593,0.609 0,0.464 0,0.4641 -0.169491,0.1048 -0.169492,0.1047 0.01338,0.4561 0.01338,0.4561 0.08549,-0.2119 0.08549,-0.2118 0.48474,0 0.484739,0 0.263848,0.3767 0.263847,0.3767 0,0.433 0,0.4331 -0.275128,0.3928 -0.275128,0.3928 -0.572329,-0.067 -0.57233,-0.067 0,1.7194 0,1.7194 -0.327763,0.2966 c -0.18027,0.1631 -0.6188294,0.4004 -0.9745765,0.5273 l -0.6468129,0.2307 -0.6779661,0 z m 0,-0.1697 0.6779661,0.012 0.8898305,-0.4142 0.8898309,-0.4143 0,-1.8742 0,-1.8742 0.677966,0.1084 0.677966,0.1084 0,-1.0386 0,-1.0386 -0.423729,0 -0.423729,0 0,0.1695 0,0.1695 -0.254237,0 -0.254237,0 0,-0.4985 0,-0.4985 0.169491,-0.1047 c 0.09322,-0.058 0.169492,-0.1723 0.169492,-0.2548 l 0,-0.1499 -0.805085,0.357 -0.8050848,0.357 -1.1864407,-0.01 -1.1864407,-0.01 -0.8898305,-0.3449 -0.8898305,-0.345 0,0.1351 c 0,0.074 0.1144068,0.1789 0.2542373,0.2326 l 0.2542373,0.098 0,0.3343 0,0.3343 -0.185653,0.1147 -0.1856531,0.1147 -0.3961332,-0.212 -0.3961334,-0.212 -0.2656713,0.102 -0.2656712,0.1019 0,0.8528 c 0,0.469 -0.019068,0.91 -0.042373,0.9799 l -0.042373,0.1271 0.5508474,0.053 0.5508475,0.053 0,-0.1802 0,-0.1802 0.3629854,0 0.3629855,0 -0.088506,1.8673 -0.088505,1.8672 0.445859,0.312 c 0.2452224,0.1716 0.6746725,0.3931 0.9543335,0.4922 0.2796611,0.099 0.8135594,0.1856 1.1864407,0.192 z m -0.1141954,-4.2222 -0.4264868,0 -0.2805062,-0.31 -0.2805065,-0.31 0,-0.2569 0,-0.257 0.3099561,-0.2805 0.3099559,-0.2806 0.4264868,0 0.4264868,0 0.2805063,0.31 0.2805064,0.31 0,0.257 0,0.2569 -0.3099561,0.2806 -0.3099559,0.2805 -0.4264868,0 z m 0.02945,-0.1695 0.2259886,0 -0.1129942,-0.113 -0.1129944,-0.113 -0.1129944,0.113 -0.1129943,0.113 0.2259887,0 z m 0.5084745,-0.2543 c 0.09322,-0.058 0.1694916,-0.1429 0.1694916,-0.1895 0,-0.047 -0.076271,-0.038 -0.1694916,0.02 -0.09322,0.058 -0.1694915,0.1429 -0.1694915,0.1895 0,0.047 0.076271,0.038 0.1694915,-0.02 z m -1.1016949,-0.085 c 0.04661,0 0.084746,-0.038 0.084746,-0.085 0,-0.047 -0.038136,-0.085 -0.084746,-0.085 -0.04661,0 -0.084746,0.038 -0.084746,0.085 0,0.047 0.038136,0.085 0.084746,0.085 z m 0.084746,-0.5932 c 0.09322,-0.058 0.1694915,-0.1429 0.1694915,-0.1895 0,-0.047 -0.076271,-0.038 -0.1694915,0.02 -0.09322,0.058 -0.1694915,0.1429 -0.1694915,0.1895 0,0.047 0.076271,0.038 0.1694915,-0.02 z m 1.1217007,0.085 c 0.04661,0 0.037608,-0.076 -0.020006,-0.1695 -0.057613,-0.093 -0.1428871,-0.1695 -0.1894973,-0.1695 -0.04661,0 -0.037608,0.076 0.020006,0.1695 0.057613,0.093 0.1428871,0.1695 0.1894973,0.1695 z m -0.6132261,-0.339 0.2259886,0 -0.1129942,-0.113 -0.1129944,-0.113 -0.1129944,0.113 -0.1129943,0.113 0.2259887,0 z m 1.2262181,1.1279 -0.1245232,0.1957 0,-0.7304 0,-0.7303 0.1271186,0.079 0.1271187,0.079 -0.00259,0.4561 c -0.00142,0.2509 -0.058631,0.5442 -0.1271187,0.6518 z m -2.3632047,0.059 c -0.023648,0 -0.089466,-0.1852 -0.1462636,-0.4115 l -0.1032676,-0.4114 0.1462635,-0.2614 0.1462636,-0.2614 0,0.6729 c 0,0.37 -0.019348,0.6728 -0.042996,0.6728 z m -3.1567987,-0.565 0.1129943,-0.113 -0.1129943,-0.113 -0.1129944,-0.113 0,0.226 0,0.226 0.1129944,-0.113 z m 4.5480226,-2.4155 c 0.1864406,-0.026 0.5677966,-0.086 0.8474576,-0.133 0.279661,-0.047 0.8033485,-0.209 1.1637508,-0.3606 l 0.655275,-0.2757 -0.401038,-0.4298 c -0.220571,-0.2363 -0.6837575,-0.5747 -1.0293027,-0.7519 l -0.6282641,-0.3222 -0.4394314,0.2002 -0.4394311,0.2003 -0.5853785,-0.2117 -0.5853785,-0.2117 -0.4655702,0.3336 c -0.2560637,0.1834 -0.6388754,0.5193 -0.8506927,0.7464 l -0.3851222,0.4129 0.6981968,0.3148 c 0.3840083,0.1732 1.0149405,0.3647 1.4020715,0.4257 0.387131,0.061 0.856417,0.089 1.0428577,0.063 z"
         id="path7074" />
      <path
         style="fill:#85774c"
         d="m 8.1694915,1049.2965 -0.6779661,0 -0.634054,-0.2263 c -0.3487299,-0.1245 -0.8236065,-0.3505 -1.0552816,-0.5023 l -0.4212273,-0.276 0.1066016,-1.8632 0.1066015,-1.8631 -0.1953878,0 -0.195388,0 0,0.1695 0,0.1695 -0.6507601,0 -0.6507602,0 -0.1966975,-0.4317 c -0.1081836,-0.2375 -0.1966974,-0.5845 -0.1966974,-0.7712 0,-0.1867 0.1163654,-0.5644 0.2585898,-0.8395 l 0.2585899,-0.5 0.4702237,0 0.4702237,0 0.1978334,0.1978 0.1978335,0.1979 0.1164872,-0.3036 0.1164871,-0.3036 -0.2804222,-0.1569 -0.2804224,-0.1569 0,-0.5673 0,-0.5672 0.6232666,-0.5472 c 0.3427965,-0.301 0.8742451,-0.6521 1.1809968,-0.7803 l 0.5577303,-0.2331 0.6918268,0 0.691827,0 0.5424305,0.273 c 0.2983368,0.1501 0.8284477,0.5469 1.1780237,0.8818 l 0.635593,0.609 0,0.464 0,0.4641 -0.169491,0.1048 -0.169492,0.1047 0.01338,0.4561 0.01338,0.4561 0.08549,-0.2119 0.08549,-0.2118 0.48474,0 0.484739,0 0.263848,0.3767 0.263847,0.3767 0,0.433 0,0.4331 -0.275128,0.3928 -0.275128,0.3928 -0.572329,-0.067 -0.57233,-0.067 0,1.7194 0,1.7194 -0.327763,0.2966 c -0.18027,0.1631 -0.6188294,0.4004 -0.9745765,0.5273 l -0.6468129,0.2307 -0.6779661,0 z m 0,-0.1697 0.6779661,0.012 0.8898305,-0.4142 0.8898309,-0.4143 0,-1.8619 0,-1.862 0.711996,0.032 0.711996,0.032 0.16818,-0.4661 0.168181,-0.4661 -0.162957,-0.4661 -0.162958,-0.4661 -0.462982,-0.054 -0.462982,-0.054 0,0.1807 0,0.1808 -0.254237,0 -0.254237,0 0,-0.4985 0,-0.4985 0.169491,-0.1047 0.169492,-0.1048 0,-0.4668 0,-0.4667 L 10.5,1040.4641 c -0.256356,-0.2399 -0.7102886,-0.5593 -1.0087392,-0.7098 l -0.5426374,-0.2737 -0.4403122,0.2006 -0.440312,0.2007 -0.5930572,-0.2145 -0.5930569,-0.2144 -0.2884002,0.2169 c -0.1586202,0.1193 -0.5362815,0.4457 -0.8392476,0.7252 l -0.5508475,0.5082 0,0.4571 0,0.457 0.2542373,0.098 0.2542373,0.098 0,0.3343 0,0.3343 -0.185653,0.1147 -0.1856531,0.1147 -0.4186014,-0.224 -0.4186012,-0.224 -0.2855762,0.1792 -0.2855761,0.1792 -0.1598376,0.4486 -0.1598376,0.4485 0.1628978,0.4661 0.1628977,0.4661 0.5477873,0.053 0.5477873,0.053 0,-0.1802 0,-0.1802 0.3629854,0 0.3629855,0 -0.088506,1.8673 -0.088505,1.8672 0.445859,0.312 c 0.2452224,0.1716 0.6746725,0.3931 0.9543335,0.4922 0.2796611,0.099 0.8135594,0.1856 1.1864407,0.192 z m -0.1141954,-4.2222 -0.4264868,0 -0.2805062,-0.31 -0.2805065,-0.31 0,-0.2569 0,-0.257 0.3099561,-0.2805 0.3099559,-0.2806 0.4264868,0 0.4264868,0 0.2805063,0.31 0.2805064,0.31 0,0.257 0,0.2569 -0.3099561,0.2806 -0.3099559,0.2805 -0.4264868,0 z m -0.00178,-0.1747 c 0.029434,0 0.2010438,-0.074 0.381356,-0.1703 l 0.3278412,-0.1754 0,-0.3271 0,-0.3271 -0.3389831,-0.1814 -0.338983,-0.1814 -0.3389831,0.1814 -0.338983,0.1814 0,0.3246 0,0.3246 0.2966101,0.1728 c 0.1631356,0.095 0.3206922,0.1751 0.3501256,0.1779 z m 1.2574492,-0.053 -0.1245232,0.1957 0,-0.7304 0,-0.7303 0.1271186,0.079 0.1271187,0.079 -0.00259,0.4561 c -0.00142,0.2509 -0.058631,0.5442 -0.1271187,0.6518 z m -2.3632047,0.059 c -0.023648,0 -0.089466,-0.1852 -0.1462636,-0.4115 l -0.1032676,-0.4114 0.1462635,-0.2614 0.1462636,-0.2614 0,0.6729 c 0,0.37 -0.019348,0.6728 -0.042996,0.6728 z"
         id="path7072" />
      <path
         style="fill:#5b5a57"
         d="m 8.1694915,1049.292 -0.6779661,0 -0.634054,-0.2263 c -0.3487299,-0.1245 -0.8254248,-0.3517 -1.0593221,-0.505 l -0.4252679,-0.2786 0.027125,-0.547 0.027125,-0.5469 0.068517,0.553 0.068517,0.5529 0.7094425,0.3742 0.7094425,0.3742 1.2224907,0.01 1.2224909,0 -0.2902875,0.1152 c -0.159658,0.063 -0.595372,0.1172 -0.9682534,0.1197 z m 1.4992593,-0.3208 c -0.07883,-6e-4 0.085487,-0.1516 0.3651472,-0.3355 l 0.508475,-0.3345 0.08475,-1.8149 0.08474,-1.815 0.673056,-0.01 0.673056,-0.011 0.164748,-0.4661 0.164748,-0.4661 -0.162957,-0.4661 -0.162958,-0.4661 -0.462982,-0.054 -0.462982,-0.054 0,0.1807 0,0.1808 -0.254237,0 -0.254237,0 0,-0.4985 0,-0.4985 0.138823,-0.086 0.138823,-0.086 -0.05381,0.5419 -0.05381,0.5419 0.0986,-0.2119 0.0986,-0.2118 0.48474,0 0.484739,0 0.263848,0.3767 0.263848,0.3767 0,0.433 0,0.4331 -0.275128,0.3928 -0.275128,0.3928 -0.572329,-0.067 -0.57233,-0.067 0,1.7341 0,1.7341 -0.492266,0.3505 c -0.270746,0.1928 -0.5567633,0.3501 -0.6355932,0.3494 z m -4.0416322,-1.8632 c -0.04661,0 -0.084746,-0.5721 -0.084746,-1.2712 l 0,-1.2712 -0.1694915,0 c -0.09322,0 -0.1694916,0.076 -0.1694916,0.1695 l 0,0.1695 -0.6507601,0 -0.6507602,0 -0.1966975,-0.4317 c -0.1081836,-0.2375 -0.1966974,-0.5845 -0.1966974,-0.7712 0,-0.1867 0.1163654,-0.5644 0.2585898,-0.8395 l 0.2585899,-0.5 0.4833686,0 0.4833688,0 0.2326176,0.282 0.2326178,0.282 -0.3702134,-0.1973 c -0.2036173,-0.1085 -0.5155271,-0.1972 -0.6931329,-0.1972 l -0.3229198,0 -0.1966974,0.4317 c -0.1081836,0.2374 -0.1966975,0.5857 -0.1966975,0.7738 0,0.1882 0.078955,0.4897 0.1754549,0.67 l 0.1754548,0.3279 0.5025113,0 0.5025112,0 0,-0.1695 0,-0.1695 0.3389831,0 0.338983,0 0,1.3559 c 0,0.7458 -0.038136,1.356 -0.084746,1.356 z m 2.4744733,-2.2034 -0.4838141,0 -0.2176564,-0.2623 -0.2176567,-0.2623 -0.1035589,0.1676 -0.1035592,0.1676 0,-0.6581 0,-0.6581 0.1035592,0.1676 0.1035589,0.1676 0.2176567,-0.2623 0.2176564,-0.2623 0.4838141,0 0.4838139,0 0.2776378,0.4238 0.2776378,0.4237 -0.2776378,0.4237 -0.2776378,0.4238 -0.4838139,0 z m -0.016846,-0.1695 0.2974764,0 0.2042407,-0.2461 0.2042407,-0.2461 -0.056369,-0.2866 -0.056369,-0.2866 -0.2966102,-0.1868 -0.2966101,-0.1868 -0.2966102,0.1868 -0.2966102,0.1868 -0.056369,0.2866 -0.056369,0.2866 0.2042406,0.2461 0.2042407,0.2461 0.2974765,0 z m 1.3038967,-0.3846 -0.078133,0.2998 -0.00628,-0.5085 -0.00628,-0.5084 0.084414,0.2086 c 0.046428,0.1148 0.049254,0.3436 0.00628,0.5085 z m -2.5468345,-0.1804 -0.1129944,0.113 0,-0.226 0,-0.226 0.1129944,0.113 0.1129942,0.113 -0.1129942,0.113 z m 2.3446327,-0.6215 c -0.04661,0 -0.084746,-0.038 -0.084746,-0.085 0,-0.047 0.038136,-0.085 0.084746,-0.085 0.04661,0 0.084746,0.038 0.084746,0.085 0,0.047 -0.038136,0.085 -0.084746,0.085 z m -3.5094734,-1.0773 -0.066687,0.3146 -0.097653,-0.4789 -0.097652,-0.479 0.1643395,0.1644 0.1643393,0.1643 -0.066687,0.3146 z m -0.486719,-1.1318 -0.1173673,0.599 -0.019491,-0.5379 -0.019491,-0.5378 0.4276844,-0.5083 0.4276844,-0.5083 0.7275231,-0.3522 0.7275232,-0.3522 0.7176161,0 0.7176163,0 0.5000576,0.2586 c 0.2750317,0.1423 0.5000576,0.2975 0.5000576,0.345 0,0.047 -0.1562773,0 -0.3472829,-0.1 l -0.3472827,-0.1859 -0.5948883,0.1964 -0.5948881,0.1963 -0.5007543,-0.2074 -0.5007542,-0.2075 -0.6831412,0.4735 c -0.3757278,0.2603 -0.7326215,0.5534 -0.7930974,0.6513 -0.060476,0.098 -0.1627716,0.4474 -0.2273236,0.7769 z m 5.7545286,-0.5027 c -0.04661,0 -0.303963,-0.2288 -0.571896,-0.5085 -0.267932,-0.2797 -0.4490134,-0.5085 -0.4024033,-0.5085 0.04661,0 0.3039633,0.2288 0.5718953,0.5085 0.267932,0.2797 0.449014,0.5085 0.402404,0.5085 z"
         id="path7070" />
      <path
         style="fill:#171717"
         d="m 8.1694915,1049.2686 -0.6779661,0 0.2946341,-0.077 c 0.1620486,-0.042 0.4671334,-0.044 0.6779661,0 l 0.383332,0.074 -0.6779661,0 z m -1.0028249,-0.1401 -0.3248586,0.013 0.102401,-0.1024 0.1024012,-0.1024 0.2224576,0.089 0.2224576,0.089 -0.3248588,0.013 z m 2.0338983,0 -0.3248586,0.013 0.102401,-0.1024 0.1024012,-0.1024 0.2224576,0.089 0.2224576,0.089 -0.3248588,0.013 z m -2.5564971,-0.1561 c -0.04661,0 -0.084746,-0.038 -0.084746,-0.085 0,-0.047 0.038136,-0.085 0.084746,-0.085 0.04661,0 0.084746,0.038 0.084746,0.085 0,0.047 -0.038136,0.085 -0.084746,0.085 z m 3.0508475,0 c -0.04661,0 -0.084746,-0.038 -0.084746,-0.085 0,-0.047 0.038136,-0.085 0.084746,-0.085 0.04661,0 0.084746,0.038 0.084746,0.085 0,0.047 -0.038136,0.085 -0.084746,0.085 z m -3.3898306,-0.1695 c -0.04661,0 -0.084746,-0.038 -0.084746,-0.085 0,-0.047 0.038136,-0.085 0.084746,-0.085 0.04661,0 0.084746,0.038 0.084746,0.085 0,0.047 -0.038136,0.085 -0.084746,0.085 z m 3.7288133,0 c -0.04661,0 -0.084746,-0.038 -0.084746,-0.085 0,-0.047 0.038136,-0.085 0.084746,-0.085 0.04661,0 0.08475,0.038 0.08475,0.085 0,0.047 -0.03814,0.085 -0.08475,0.085 z m -4.0677963,-0.1695 c -0.04661,0 -0.084746,-0.038 -0.084746,-0.085 0,-0.047 0.038136,-0.085 0.084746,-0.085 0.04661,0 0.084746,0.038 0.084746,0.085 0,0.047 -0.038136,0.085 -0.084746,0.085 z m 4.4915253,-0.085 c -0.09322,0.058 -0.169491,0.067 -0.169491,0.02 0,-0.047 0.07627,-0.1318 0.169491,-0.1895 0.09322,-0.058 0.169492,-0.067 0.169492,-0.02 0,0.047 -0.07627,0.1319 -0.169492,0.1895 z m -4.8305084,-0.085 c -0.04661,0 -0.084746,-0.038 -0.084746,-0.085 0,-0.047 0.038136,-0.085 0.084746,-0.085 0.04661,0 0.084746,0.038 0.084746,0.085 0,0.047 -0.038136,0.085 -0.084746,0.085 z m 0.041523,-2.4408 -0.059876,1.1696 -0.033197,-1.3011 -0.033197,-1.3012 -0.2966102,-0.078 -0.2966102,-0.077 0.3019297,-0.02 0.3019297,-0.02 0.087753,0.2287 c 0.048264,0.1257 0.060809,0.755 0.027877,1.3983 z m -1.066947,-1.1439 -0.5169491,0.025 -0.2033899,-0.2034 c -0.1118644,-0.1119 -0.2033898,-0.279 -0.2033898,-0.3714 l 0,-0.168 0.2118644,0.2761 0.2118644,0.2761 0.5084746,0.07 0.5084746,0.07 -0.5169492,0.025 z m 3.4830509,0.025 -0.2259887,0 0.1129943,-0.113 0.1129944,-0.113 0.1129944,0.113 0.1129942,0.113 -0.2259886,0 z m 2.7118645,-0.085 c -0.09322,0.058 -0.169491,0.067 -0.169491,0.02 0,-0.047 0.07627,-0.1319 0.169491,-0.1895 0.09322,-0.058 0.169492,-0.067 0.169492,-0.02 0,0.047 -0.07627,0.1319 -0.169492,0.1895 z m 0.686441,0.062 -0.432204,-0.023 0.423729,-0.074 0.423729,-0.074 0.211864,-0.2747 0.211865,-0.2746 0,0.168 c 0,0.092 -0.09153,0.2595 -0.20339,0.3714 l -0.20339,0.2034 -0.432203,-0.023 z m -4.0056501,-0.1464 c -0.00777,0 -0.064972,-0.051 -0.1271187,-0.113 -0.062147,-0.062 -0.1129944,-0.3246 -0.1129944,-0.5832 l 0,-0.4703 0.1271187,-0.079 0.1271186,-0.079 0,0.6618 c 0,0.364 -0.00636,0.6618 -0.014124,0.6618 z m 1.3700564,-0.339 c -0.04661,0 -0.084746,-0.038 -0.084746,-0.085 0,-0.047 0.038136,-0.085 0.084746,-0.085 0.04661,0 0.084746,0.038 0.084746,0.085 0,0.047 -0.038136,0.085 -0.084746,0.085 z m -5.2267321,-0.4661 -0.085489,0.2118 0,-0.4237 0,-0.4237 0.085489,0.2119 0.085489,0.2118 -0.085489,0.2119 z m 8.8135598,0 -0.08549,0.2118 0,-0.4237 0,-0.4237 0.08549,0.2119 0.08549,0.2118 -0.08549,0.2119 z m -3.5868277,-0.042 c -0.04661,0 -0.084746,-0.038 -0.084746,-0.085 0,-0.047 0.038136,-0.085 0.084746,-0.085 0.04661,0 0.084746,0.038 0.084746,0.085 0,0.047 -0.038136,0.085 -0.084746,0.085 z m -0.1694915,-0.339 c -0.04661,0 -0.084746,-0.038 -0.084746,-0.085 0,-0.047 0.038136,-0.085 0.084746,-0.085 0.04661,0 0.084746,0.038 0.084746,0.085 0,0.047 -0.038136,0.085 -0.084746,0.085 z m -0.6638419,-0.1828 -0.3248586,0.013 0.102401,-0.1024 0.1024012,-0.1024 0.2224576,0.089 0.2224577,0.089 -0.3248589,0.013 z m -4.269546,-0.1562 c -0.036637,0 -0.066612,-0.072 -0.066612,-0.1594 0,-0.088 0.075398,-0.2061 0.1675501,-0.2631 l 0.1675501,-0.1035 -0.100938,0.263 c -0.055516,0.1447 -0.1309135,0.263 -0.1675501,0.263 z m 8.5378011,-0.073 -0.08796,0.088 -0.09567,-0.2494 -0.09567,-0.2493 -0.476112,-0.072 -0.476112,-0.072 0.445349,-0.025 0.445348,-0.025 0.214398,0.2583 0.214397,0.2583 -0.08796,0.088 z m -1.386899,-0.1095 -0.324858,0.013 0.102401,-0.1024 0.102401,-0.1024 0.222457,0.089 0.222458,0.089 -0.324859,0.013 z m -5.6073447,-0.1561 c -0.04661,0 -0.084746,-0.038 -0.084746,-0.085 0,-0.047 0.038136,-0.085 0.084746,-0.085 0.04661,0 0.084746,0.038 0.084746,0.085 0,0.047 -0.038136,0.085 -0.084746,0.085 z m -0.7627119,-0.3658 -0.4237288,0 0.2118644,-0.085 0.2118644,-0.085 0.2118644,0.085 0.2118644,0.085 -0.4237288,0 z m 1.1327312,-0.1109 -0.08902,0.2224 -0.013381,-0.3248 -0.013381,-0.3249 0.1024012,0.1024 0.102401,0.1024 -0.08902,0.2225 z m 5.2232014,-0.3708 c -0.04661,0 -0.08475,-0.038 -0.08475,-0.085 0,-0.047 0.03814,-0.085 0.08475,-0.085 0.04661,0 0.08475,0.038 0.08475,0.085 0,0.047 -0.03814,0.085 -0.08475,0.085 z m 0.02955,-1.1864 c -0.03036,0 -0.240107,-0.2098 -0.466102,-0.4661 l -0.410901,-0.4661 0.466102,0.4109 c 0.256356,0.226 0.466102,0.4357 0.466102,0.4661 0,0.03 -0.02484,0.055 -0.0552,0.055 z m -4.6905623,-0.9322 c -0.09322,0.058 -0.1694915,0.067 -0.1694915,0.02 0,-0.047 0.076271,-0.1319 0.1694915,-0.1895 0.09322,-0.058 0.1694915,-0.067 0.1694915,-0.02 0,0.047 -0.076271,0.1318 -0.1694915,0.1895 z m 3.4745763,-0.085 c -0.04661,0 -0.084746,-0.038 -0.084746,-0.085 0,-0.047 0.038136,-0.085 0.084746,-0.085 0.04661,0 0.084746,0.038 0.084746,0.085 0,0.047 -0.038136,0.085 -0.084746,0.085 z M 6.6440725,1039.65 c -0.04661,0 -0.084746,-0.038 -0.084746,-0.085 0,-0.047 0.038136,-0.085 0.084746,-0.085 0.04661,0 0.084746,0.038 0.084746,0.085 0,0.047 -0.038136,0.085 -0.084746,0.085 z m 1.4275763,-0.05 -0.5801187,0.034 -0.3265907,-0.132 -0.3265908,-0.132 0.2980802,-0.1144 c 0.163944,-0.063 0.6032828,-0.1144 0.9763083,-0.1144 l 0.6782281,0 -0.069599,0.2119 -0.069599,0.2119 -0.5801188,0.035 z M 8,1039.4808 c 0.04661,0 0.084746,-0.038 0.084746,-0.085 0,-0.047 -0.038136,-0.085 -0.084746,-0.085 -0.04661,0 -0.084746,0.038 -0.084746,0.085 0,0.047 0.038136,0.085 0.084746,0.085 z m 0.3389831,0 c 0.04661,0 0.084746,-0.038 0.084746,-0.085 0,-0.047 -0.038136,-0.085 -0.084746,-0.085 -0.04661,0 -0.084746,0.038 -0.084746,0.085 0,0.047 0.038136,0.085 0.084746,0.085 z m 1.0169491,0.1695 c -0.04661,0 -0.084746,-0.038 -0.084746,-0.085 0,-0.047 0.038136,-0.085 0.084746,-0.085 0.04661,0 0.084746,0.038 0.084746,0.085 0,0.047 -0.038136,0.085 -0.084746,0.085 z m -0.338983,-0.1695 c -0.04661,0 -0.084746,-0.038 -0.084746,-0.085 0,-0.047 0.038136,-0.085 0.084746,-0.085 0.04661,0 0.084746,0.038 0.084746,0.085 0,0.047 -0.038136,0.085 -0.084746,0.085 z"
         id="path7068" />
    </g>
  </g>
</svg>
