<?xml version="1.0" encoding="UTF-8" standalone="no"?>
<!-- Created with Inkscape (http://www.inkscape.org/) -->

<svg
   xmlns:dc="http://purl.org/dc/elements/1.1/"
   xmlns:cc="http://creativecommons.org/ns#"
   xmlns:rdf="http://www.w3.org/1999/02/22-rdf-syntax-ns#"
   xmlns:svg="http://www.w3.org/2000/svg"
   xmlns="http://www.w3.org/2000/svg"
   xmlns:sodipodi="http://sodipodi.sourceforge.net/DTD/sodipodi-0.dtd"
   xmlns:inkscape="http://www.inkscape.org/namespaces/inkscape"
   width="16"
   height="16"
   id="svg2"
   version="1.1"
   inkscape:version="0.47 r22583"
   sodipodi:docname="FOOD-64.svg">
  <defs
     id="defs4">
    <inkscape:perspective
       sodipodi:type="inkscape:persp3d"
       inkscape:vp_x="0 : 526.18109 : 1"
       inkscape:vp_y="0 : 1000 : 0"
       inkscape:vp_z="744.09448 : 526.18109 : 1"
       inkscape:persp3d-origin="372.04724 : 350.78739 : 1"
       id="perspective10" />
    <inkscape:perspective
       id="perspective2824"
       inkscape:persp3d-origin="0.5 : 0.33333333 : 1"
       inkscape:vp_z="1 : 0.5 : 1"
       inkscape:vp_y="0 : 1000 : 0"
       inkscape:vp_x="0 : 0.5 : 1"
       sodipodi:type="inkscape:persp3d" />
    <inkscape:perspective
       id="perspective5878"
       inkscape:persp3d-origin="0.5 : 0.33333333 : 1"
       inkscape:vp_z="1 : 0.5 : 1"
       inkscape:vp_y="0 : 1000 : 0"
       inkscape:vp_x="0 : 0.5 : 1"
       sodipodi:type="inkscape:persp3d" />
    <inkscape:perspective
       id="perspective5921"
       inkscape:persp3d-origin="0.5 : 0.33333333 : 1"
       inkscape:vp_z="1 : 0.5 : 1"
       inkscape:vp_y="0 : 1000 : 0"
       inkscape:vp_x="0 : 0.5 : 1"
       sodipodi:type="inkscape:persp3d" />
    <inkscape:perspective
       id="perspective5943"
       inkscape:persp3d-origin="0.5 : 0.33333333 : 1"
       inkscape:vp_z="1 : 0.5 : 1"
       inkscape:vp_y="0 : 1000 : 0"
       inkscape:vp_x="0 : 0.5 : 1"
       sodipodi:type="inkscape:persp3d" />
    <inkscape:perspective
       id="perspective5989"
       inkscape:persp3d-origin="0.5 : 0.33333333 : 1"
       inkscape:vp_z="1 : 0.5 : 1"
       inkscape:vp_y="0 : 1000 : 0"
       inkscape:vp_x="0 : 0.5 : 1"
       sodipodi:type="inkscape:persp3d" />
    <inkscape:perspective
       id="perspective6011"
       inkscape:persp3d-origin="0.5 : 0.33333333 : 1"
       inkscape:vp_z="1 : 0.5 : 1"
       inkscape:vp_y="0 : 1000 : 0"
       inkscape:vp_x="0 : 0.5 : 1"
       sodipodi:type="inkscape:persp3d" />
    <inkscape:perspective
       id="perspective6033"
       inkscape:persp3d-origin="0.5 : 0.33333333 : 1"
       inkscape:vp_z="1 : 0.5 : 1"
       inkscape:vp_y="0 : 1000 : 0"
       inkscape:vp_x="0 : 0.5 : 1"
       sodipodi:type="inkscape:persp3d" />
    <inkscape:perspective
       id="perspective6245"
       inkscape:persp3d-origin="0.5 : 0.33333333 : 1"
       inkscape:vp_z="1 : 0.5 : 1"
       inkscape:vp_y="0 : 1000 : 0"
       inkscape:vp_x="0 : 0.5 : 1"
       sodipodi:type="inkscape:persp3d" />
    <inkscape:perspective
       id="perspective6269"
       inkscape:persp3d-origin="0.5 : 0.33333333 : 1"
       inkscape:vp_z="1 : 0.5 : 1"
       inkscape:vp_y="0 : 1000 : 0"
       inkscape:vp_x="0 : 0.5 : 1"
       sodipodi:type="inkscape:persp3d" />
    <inkscape:perspective
       id="perspective6364"
       inkscape:persp3d-origin="0.5 : 0.33333333 : 1"
       inkscape:vp_z="1 : 0.5 : 1"
       inkscape:vp_y="0 : 1000 : 0"
       inkscape:vp_x="0 : 0.5 : 1"
       sodipodi:type="inkscape:persp3d" />
    <inkscape:perspective
       id="perspective6396"
       inkscape:persp3d-origin="0.5 : 0.33333333 : 1"
       inkscape:vp_z="1 : 0.5 : 1"
       inkscape:vp_y="0 : 1000 : 0"
       inkscape:vp_x="0 : 0.5 : 1"
       sodipodi:type="inkscape:persp3d" />
    <inkscape:perspective
       id="perspective6438"
       inkscape:persp3d-origin="0.5 : 0.33333333 : 1"
       inkscape:vp_z="1 : 0.5 : 1"
       inkscape:vp_y="0 : 1000 : 0"
       inkscape:vp_x="0 : 0.5 : 1"
       sodipodi:type="inkscape:persp3d" />
    <inkscape:perspective
       id="perspective6460"
       inkscape:persp3d-origin="0.5 : 0.33333333 : 1"
       inkscape:vp_z="1 : 0.5 : 1"
       inkscape:vp_y="0 : 1000 : 0"
       inkscape:vp_x="0 : 0.5 : 1"
       sodipodi:type="inkscape:persp3d" />
    <inkscape:perspective
       id="perspective6480"
       inkscape:persp3d-origin="0.5 : 0.33333333 : 1"
       inkscape:vp_z="1 : 0.5 : 1"
       inkscape:vp_y="0 : 1000 : 0"
       inkscape:vp_x="0 : 0.5 : 1"
       sodipodi:type="inkscape:persp3d" />
    <inkscape:perspective
       id="perspective6504"
       inkscape:persp3d-origin="0.5 : 0.33333333 : 1"
       inkscape:vp_z="1 : 0.5 : 1"
       inkscape:vp_y="0 : 1000 : 0"
       inkscape:vp_x="0 : 0.5 : 1"
       sodipodi:type="inkscape:persp3d" />
    <inkscape:perspective
       id="perspective6524"
       inkscape:persp3d-origin="0.5 : 0.33333333 : 1"
       inkscape:vp_z="1 : 0.5 : 1"
       inkscape:vp_y="0 : 1000 : 0"
       inkscape:vp_x="0 : 0.5 : 1"
       sodipodi:type="inkscape:persp3d" />
    <inkscape:perspective
       id="perspective6548"
       inkscape:persp3d-origin="0.5 : 0.33333333 : 1"
       inkscape:vp_z="1 : 0.5 : 1"
       inkscape:vp_y="0 : 1000 : 0"
       inkscape:vp_x="0 : 0.5 : 1"
       sodipodi:type="inkscape:persp3d" />
    <inkscape:perspective
       id="perspective6572"
       inkscape:persp3d-origin="0.5 : 0.33333333 : 1"
       inkscape:vp_z="1 : 0.5 : 1"
       inkscape:vp_y="0 : 1000 : 0"
       inkscape:vp_x="0 : 0.5 : 1"
       sodipodi:type="inkscape:persp3d" />
    <inkscape:perspective
       id="perspective6594"
       inkscape:persp3d-origin="0.5 : 0.33333333 : 1"
       inkscape:vp_z="1 : 0.5 : 1"
       inkscape:vp_y="0 : 1000 : 0"
       inkscape:vp_x="0 : 0.5 : 1"
       sodipodi:type="inkscape:persp3d" />
    <inkscape:perspective
       id="perspective6614"
       inkscape:persp3d-origin="0.5 : 0.33333333 : 1"
       inkscape:vp_z="1 : 0.5 : 1"
       inkscape:vp_y="0 : 1000 : 0"
       inkscape:vp_x="0 : 0.5 : 1"
       sodipodi:type="inkscape:persp3d" />
    <inkscape:perspective
       id="perspective6650"
       inkscape:persp3d-origin="0.5 : 0.33333333 : 1"
       inkscape:vp_z="1 : 0.5 : 1"
       inkscape:vp_y="0 : 1000 : 0"
       inkscape:vp_x="0 : 0.5 : 1"
       sodipodi:type="inkscape:persp3d" />
    <inkscape:perspective
       id="perspective6676"
       inkscape:persp3d-origin="0.5 : 0.33333333 : 1"
       inkscape:vp_z="1 : 0.5 : 1"
       inkscape:vp_y="0 : 1000 : 0"
       inkscape:vp_x="0 : 0.5 : 1"
       sodipodi:type="inkscape:persp3d" />
    <inkscape:perspective
       id="perspective6710"
       inkscape:persp3d-origin="0.5 : 0.33333333 : 1"
       inkscape:vp_z="1 : 0.5 : 1"
       inkscape:vp_y="0 : 1000 : 0"
       inkscape:vp_x="0 : 0.5 : 1"
       sodipodi:type="inkscape:persp3d" />
    <inkscape:perspective
       id="perspective6748"
       inkscape:persp3d-origin="0.5 : 0.33333333 : 1"
       inkscape:vp_z="1 : 0.5 : 1"
       inkscape:vp_y="0 : 1000 : 0"
       inkscape:vp_x="0 : 0.5 : 1"
       sodipodi:type="inkscape:persp3d" />
    <inkscape:perspective
       id="perspective6786"
       inkscape:persp3d-origin="0.5 : 0.33333333 : 1"
       inkscape:vp_z="1 : 0.5 : 1"
       inkscape:vp_y="0 : 1000 : 0"
       inkscape:vp_x="0 : 0.5 : 1"
       sodipodi:type="inkscape:persp3d" />
    <inkscape:perspective
       id="perspective6810"
       inkscape:persp3d-origin="0.5 : 0.33333333 : 1"
       inkscape:vp_z="1 : 0.5 : 1"
       inkscape:vp_y="0 : 1000 : 0"
       inkscape:vp_x="0 : 0.5 : 1"
       sodipodi:type="inkscape:persp3d" />
    <inkscape:perspective
       id="perspective6848"
       inkscape:persp3d-origin="0.5 : 0.33333333 : 1"
       inkscape:vp_z="1 : 0.5 : 1"
       inkscape:vp_y="0 : 1000 : 0"
       inkscape:vp_x="0 : 0.5 : 1"
       sodipodi:type="inkscape:persp3d" />
    <inkscape:perspective
       id="perspective6870"
       inkscape:persp3d-origin="0.5 : 0.33333333 : 1"
       inkscape:vp_z="1 : 0.5 : 1"
       inkscape:vp_y="0 : 1000 : 0"
       inkscape:vp_x="0 : 0.5 : 1"
       sodipodi:type="inkscape:persp3d" />
    <inkscape:perspective
       id="perspective6908"
       inkscape:persp3d-origin="0.5 : 0.33333333 : 1"
       inkscape:vp_z="1 : 0.5 : 1"
       inkscape:vp_y="0 : 1000 : 0"
       inkscape:vp_x="0 : 0.5 : 1"
       sodipodi:type="inkscape:persp3d" />
    <inkscape:perspective
       id="perspective6946"
       inkscape:persp3d-origin="0.5 : 0.33333333 : 1"
       inkscape:vp_z="1 : 0.5 : 1"
       inkscape:vp_y="0 : 1000 : 0"
       inkscape:vp_x="0 : 0.5 : 1"
       sodipodi:type="inkscape:persp3d" />
    <inkscape:perspective
       id="perspective6970"
       inkscape:persp3d-origin="0.5 : 0.33333333 : 1"
       inkscape:vp_z="1 : 0.5 : 1"
       inkscape:vp_y="0 : 1000 : 0"
       inkscape:vp_x="0 : 0.5 : 1"
       sodipodi:type="inkscape:persp3d" />
    <inkscape:perspective
       id="perspective7008"
       inkscape:persp3d-origin="0.5 : 0.33333333 : 1"
       inkscape:vp_z="1 : 0.5 : 1"
       inkscape:vp_y="0 : 1000 : 0"
       inkscape:vp_x="0 : 0.5 : 1"
       sodipodi:type="inkscape:persp3d" />
    <inkscape:perspective
       id="perspective7036"
       inkscape:persp3d-origin="0.5 : 0.33333333 : 1"
       inkscape:vp_z="1 : 0.5 : 1"
       inkscape:vp_y="0 : 1000 : 0"
       inkscape:vp_x="0 : 0.5 : 1"
       sodipodi:type="inkscape:persp3d" />
    <inkscape:perspective
       id="perspective7060"
       inkscape:persp3d-origin="0.5 : 0.33333333 : 1"
       inkscape:vp_z="1 : 0.5 : 1"
       inkscape:vp_y="0 : 1000 : 0"
       inkscape:vp_x="0 : 0.5 : 1"
       sodipodi:type="inkscape:persp3d" />
    <inkscape:perspective
       id="perspective7098"
       inkscape:persp3d-origin="0.5 : 0.33333333 : 1"
       inkscape:vp_z="1 : 0.5 : 1"
       inkscape:vp_y="0 : 1000 : 0"
       inkscape:vp_x="0 : 0.5 : 1"
       sodipodi:type="inkscape:persp3d" />
    <inkscape:perspective
       id="perspective7136"
       inkscape:persp3d-origin="0.5 : 0.33333333 : 1"
       inkscape:vp_z="1 : 0.5 : 1"
       inkscape:vp_y="0 : 1000 : 0"
       inkscape:vp_x="0 : 0.5 : 1"
       sodipodi:type="inkscape:persp3d" />
    <inkscape:perspective
       id="perspective7174"
       inkscape:persp3d-origin="0.5 : 0.33333333 : 1"
       inkscape:vp_z="1 : 0.5 : 1"
       inkscape:vp_y="0 : 1000 : 0"
       inkscape:vp_x="0 : 0.5 : 1"
       sodipodi:type="inkscape:persp3d" />
  </defs>
  <sodipodi:namedview
     id="base"
     pagecolor="#ffffff"
     bordercolor="#666666"
     borderopacity="1.0"
     inkscape:pageopacity="0.0"
     inkscape:pageshadow="2"
     inkscape:zoom="8.671875"
     inkscape:cx="10.564203"
     inkscape:cy="2.743179"
     inkscape:document-units="px"
     inkscape:current-layer="layer1"
     showgrid="true"
     inkscape:window-width="1280"
     inkscape:window-height="780"
     inkscape:window-x="-8"
     inkscape:window-y="-8"
     inkscape:window-maximized="1">
    <inkscape:grid
       type="xygrid"
       id="grid6324"
       empspacing="5"
       visible="true"
       enabled="true"
       snapvisiblegridlinesonly="true" />
  </sodipodi:namedview>
  <metadata
     id="metadata7">
    <rdf:RDF>
      <cc:Work
         rdf:about="">
        <dc:format>image/svg+xml</dc:format>
        <dc:type
           rdf:resource="http://purl.org/dc/dcmitype/StillImage" />
        <dc:title></dc:title>
      </cc:Work>
    </rdf:RDF>
  </metadata>
  <g
     inkscape:label="Calque 1"
     inkscape:groupmode="layer"
     id="layer1"
     transform="translate(0,-1036.3622)">
    <g
       id="g7180"
       transform="translate(0.7127202,1.0084)">
      <path
         style="fill:#dbb098"
         d="m 7.5441222,1049.5171 c -0.08863,-0.01 -0.9124145,-0.3933 -1.8306311,-0.8613 -0.9182166,-0.4679 -1.716439,-0.9157 -1.7738275,-0.995 -0.057389,-0.079 -0.7382253,-0.4381 -1.5129706,-0.7973 l -1.4086277,-0.653 0,-1.1633 0,-1.1632 0.521714,-0.2377 0.5217139,-0.2377 0,-0.9016 0,-0.9016 0.5293918,-0.1329 0.5293915,-0.1328 0.6705506,0.1147 c 0.3688028,0.063 0.5540033,0.067 0.4115568,0.01 l -0.2589938,-0.107 0.3111652,-0.3111 0.311165,-0.3112 0,-0.422 0,-0.422 0.4173712,-0.1092 0.4173712,-0.1091 0,-0.2887 0,-0.2887 0.9912566,0 c 0.5451911,-7e-4 1.7425246,0.1074 2.6607413,0.2402 l 1.6694844,0.2416 0.209487,0.2511 c 0.115218,0.1382 0.443897,0.3239 0.730399,0.4127 0.286503,0.089 0.87307,0.3392 1.303484,0.5563 l 0.782571,0.3949 0,2.6158 0,2.6159 -1.199942,0.5445 c -0.659968,0.2995 -1.246896,0.6111 -1.304285,0.6925 -0.05739,0.081 -0.877003,0.5355 -1.8213665,1.0091 -0.944363,0.4736 -1.7895396,0.8564 -1.8781703,0.8507 z m -4.8044008,-4.0921 0.1565142,-0.096 0,-0.718 0,-0.7181 -0.166682,0 -0.1666822,0 0.010167,0.8139 0.010167,0.8139 0.1565141,-0.096 z m 2.1911987,0.1343 0.260857,0 0,-0.1864 c 0,-0.1025 -0.1493373,-0.2437 -0.3318606,-0.3137 l -0.3318606,-0.1273 -0.2121333,0.1311 -0.212133,0.1311 0.2831366,0.1794 c 0.1557254,0.099 0.4005226,0.1808 0.5439939,0.1826 z m 0.2831841,-1.6663 0.1863585,0 0,-0.4174 0,-0.4174 -0.3130284,0 c -0.1721656,0 -0.3130284,0.039 -0.3130284,0.087 0,0.048 0.057001,0.2358 0.1266699,0.4174 0.069668,0.1815 0.2105312,0.3301 0.3130284,0.3301 z m -2.6135066,-1.0434 0.330419,0 -0.082605,-0.2479 c -0.045433,-0.1363 -0.194121,-0.2849 -0.3304187,-0.3304 l -0.2478142,-0.083 0,0.3304 0,0.3305 0.3304188,0 z m 0.5043236,-0.6261 0.2782474,0 -0.1391236,-0.1391 -0.1391238,-0.1392 -0.1391238,0.1392 -0.1391236,0.1391 0.2782474,0 z m 0.9552228,-0.052 0.5691543,0 -0.3649296,-0.2042 -0.3649295,-0.2042 -0.2042247,0.2042 -0.204225,0.2042 0.5691545,0 z m 0.8186047,0.052 c 0.057389,0 0.1043428,-0.047 0.1043428,-0.1043 0,-0.057 -0.046954,-0.1044 -0.1043428,-0.1044 -0.057389,0 -0.1043428,0.047 -0.1043428,0.1044 0,0.057 0.046954,0.1043 0.1043428,0.1043 z m 1.1079154,-0.2234 c 0.035468,0.01 0.00645,-0.079 -0.064487,-0.194 l -0.1289748,-0.2087 -0.3528838,0.015 -0.3528838,0.015 0.4173712,0.1793 c 0.2295541,0.099 0.4463906,0.186 0.4818586,0.194 z m -3.0904285,-0.2269 0.521714,0 -0.260857,-0.1053 -0.260857,-0.1052 -0.260857,0.1052 -0.260857,0.1053 0.521714,0 z m 2.3637414,-0.3844 0.4855711,0 -0.091886,-0.6261 -0.091886,-0.6261 -0.2670157,0 -0.2670156,0 -0.1266698,0.3301 c -0.069668,0.1816 -0.1266699,0.4633 -0.1266699,0.6261 l 0,0.296 0.4855711,0 z m 3.7924836,-0.2087 c 0.1721656,0 0.3130283,-0.037 0.3130283,-0.082 0,-0.045 -0.1408627,-0.1361 -0.3130283,-0.2022 l -0.3130284,-0.1201 0,0.2021 0,0.2022 0.3130284,0 z m 0.8347423,0 c 0.057389,0 0.1043428,-0.047 0.1043428,-0.1044 0,-0.057 -0.046954,-0.1043 -0.1043428,-0.1043 -0.057389,0 -0.1043428,0.047 -0.1043428,0.1043 0,0.057 0.046954,0.1044 0.1043428,0.1044 z m -0.4964428,-0.746 0.1902226,-0.1176 -0.1200629,-0.1943 c -0.066035,-0.1068 -0.2054818,-0.1942 -0.3098829,-0.1942 l -0.18982,0 0.1196604,0.3118 0.1196603,0.3118 0.1902225,-0.1175 z"
         id="path7202" />
      <path
         style="fill:#fa7d82"
         d="m 7.5441222,1049.5171 c -0.08863,-0.01 -0.9124145,-0.3933 -1.8306311,-0.8613 -0.9182166,-0.4679 -1.716439,-0.9157 -1.7738275,-0.995 -0.057389,-0.079 -0.7382253,-0.4381 -1.5129706,-0.7973 -0.7747452,-0.3592 -1.4086277,-0.7068 -1.4086277,-0.7726 0,-0.066 0.3734447,0.071 0.829877,0.3038 l 0.8298771,0.4234 -0.1255632,-0.6278 -0.1255632,-0.6278 0.2347713,0 0.2347713,0 0,0.4994 0,0.4993 0.3300962,0.1267 c 0.1815531,0.07 0.4163244,0.1267 0.5217139,0.1267 l 0.1916179,0 0,-0.6534 0,-0.6533 0.718046,0.1165 0.718046,0.1165 -0.096019,-0.2502 c -0.05281,-0.1376 -0.2946081,-0.3743 -0.5373282,-0.5258 l -0.4413093,-0.2756 -0.1775222,0.28 -0.1775221,0.2801 -0.0032,-1.4086 -0.0032,-1.4086 -0.3651998,0 c -0.2008599,0 -0.576494,-0.059 -0.8347424,-0.1286 l -0.4695426,-0.1259 0,0.3151 0,0.315 0.3300962,0.1267 c 0.1815531,0.07 0.5180586,0.1266 0.7477902,0.1266 l 0.4176938,0 -0.081983,0.246 c -0.045091,0.1353 -0.2434065,0.3466 -0.4407022,0.4695 l -0.3587195,0.2236 -0.2113541,-0.313 -0.211354,-0.313 0.1278304,1.0434 0.1278303,1.0434 -0.2203686,-0.313 -0.2203685,-0.313 -0.0032,-0.6836 -0.0032,-0.6836 -0.6782281,0.3285 -0.67822822,0.3285 0.40508582,-0.3232 c 0.2227971,-0.1777 0.4810456,-0.3231 0.5738853,-0.3231 l 0.1687996,0 0,-0.9167 0,-0.9168 0.3300962,-0.1267 c 0.1815531,-0.07 0.5974337,-0.1266 0.9241792,-0.1266 l 0.5940828,0 0.3279343,-0.328 0.3279346,-0.3279 0,-0.3884 0,-0.3884 0.4173712,-0.1325 0.4173712,-0.1325 0,-0.2989 0,-0.299 0.9912566,0 c 0.5451911,-7e-4 1.7425246,0.1074 2.6607413,0.2402 l 1.6694842,0.2416 0.208686,0.238 c 0.114777,0.131 0.639414,0.4004 1.16586,0.5988 0.526446,0.1984 1.136851,0.5067 1.356456,0.685 l 0.399282,0.3243 -0.279725,-0.1438 -0.279725,-0.1438 0.11955,1.3283 c 0.06575,0.7305 0.176561,1.9165 0.24624,2.6355 l 0.12669,1.3073 -1.218628,0.5531 c -0.670246,0.3042 -1.265583,0.6196 -1.322972,0.701 -0.05739,0.081 -0.877003,0.5355 -1.8213663,1.0091 -0.944363,0.4736 -1.7895396,0.8564 -1.8781703,0.8507 z m 0.047539,-0.2144 c 0.1147771,-8e-4 0.5373654,-0.1902 0.9390852,-0.4209 l 0.7303995,-0.4194 -1.020383,0.1152 c -0.5612106,0.063 -1.2185702,0.1185 -1.4607991,0.1225 l -0.4404161,0.01 0.5217139,0.2983 c 0.2869427,0.164 0.6156225,0.2976 0.7303996,0.2969 z m -2.1819604,-5.3111 0.1434738,-0.089 -0.095969,-0.502 -0.095969,-0.502 -0.3977583,0.104 c -0.2187672,0.057 -0.3977585,0.1389 -0.3977585,0.1816 0,0.043 0.157614,0.2617 0.3502535,0.4867 l 0.3502536,0.4091 0.1434736,-0.089 z m 4.2688163,0.1101 c 0.057389,0 0.1043428,-0.047 0.1043428,-0.1044 0,-0.057 -0.046954,-0.1043 -0.1043428,-0.1043 -0.057389,0 -0.1043428,0.047 -0.1043428,0.1043 0,0.057 0.046954,0.1044 0.1043428,0.1044 z m -5.9574035,-1.9424 0.8499574,0 -0.1071202,-0.1071 c -0.058916,-0.059 -0.2714141,-0.1254 -0.4722179,-0.1476 -0.2008039,-0.022 -0.5263399,-0.1094 -0.7234134,-0.1935 l -0.3583154,-0.153 -0.2677414,0.1075 -0.2677413,0.1076 0.521714,0.02 0.521714,0.02 -0.2733967,0.1734 -0.2733965,0.1734 0.8499574,0 z m 1.3114915,-0.1157 0.3625422,-0.2842 0.3265247,0.1253 0.3265247,0.1253 -0.1274975,-0.2063 c -0.070124,-0.1134 -0.2513194,-0.2063 -0.4026574,-0.2063 l -0.2751601,0 -0.2864093,0.3652 -0.2864095,0.3652 0.3625422,-0.2842 z m 0.4722002,0.1799 c 0.057389,0 0.1043428,-0.047 0.1043428,-0.1043 0,-0.057 -0.046954,-0.1044 -0.1043428,-0.1044 -0.057389,0 -0.1043428,0.047 -0.1043428,0.1044 0,0.057 0.046954,0.1043 0.1043428,0.1043 z m -1.3564564,-0.6261 0.2782474,0 -0.1391236,-0.1391 -0.1391238,-0.1391 -0.1391237,0.1391 -0.1391236,0.1391 0.2782473,0 z m 1.0977666,-0.2086 0.4994324,0 -0.093418,-0.6365 -0.093419,-0.6365 -0.339981,0.064 -0.3399812,0.064 -0.066033,0.5721 -0.066033,0.5721 0.4994326,0 z m 3.8063449,-0.2087 0.3130283,0 0,-0.1739 0,-0.1739 -0.3130283,0 -0.3130284,0 0,0.1739 0,0.1739 0.3130284,0 z m 0.8347423,0 c 0.057389,0 0.1043428,-0.047 0.1043428,-0.1044 0,-0.057 -0.046954,-0.1043 -0.1043428,-0.1043 -0.057389,0 -0.1043428,0.047 -0.1043428,0.1043 0,0.057 0.046954,0.1044 0.1043428,0.1044 z m -0.1789477,-0.4819 0.1340805,-0.1341 -0.2639758,-0.3181 c -0.1451867,-0.1749 -0.3434384,-0.318 -0.4405595,-0.318 l -0.1765835,0 0.1196604,0.3118 0.1196603,0.3118 0.1868185,-0.1154 0.1868184,-0.1155 0,0.2558 0,0.2558 0.1340807,-0.1341 z"
         id="path7200" />
      <path
         style="fill:#afa69b"
         d="m 7.5441222,1049.5171 c -0.08863,-0.01 -0.9124145,-0.3933 -1.8306311,-0.8613 -0.9182166,-0.4679 -1.716439,-0.9157 -1.7738275,-0.995 -0.057389,-0.079 -0.7382253,-0.4381 -1.5129706,-0.7973 -0.7747452,-0.3592 -1.4086277,-0.7068 -1.4086277,-0.7726 0,-0.066 0.3734447,0.071 0.829877,0.3038 l 0.8298771,0.4234 -0.1255632,-0.6278 -0.1255632,-0.6278 0.2347713,0 0.2347713,0 0,0.4994 0,0.4993 0.3300962,0.1267 c 0.1815531,0.07 0.5964607,0.1267 0.9220173,0.1267 0.3255567,0 0.7221599,-0.05 0.8813404,-0.1111 l 0.2894194,-0.111 -0.04244,-0.6131 -0.04244,-0.613 -0.3446776,-0.3447 -0.3446774,-0.3446 0.066009,-0.3399 0.066009,-0.3399 0.4139575,0 0.4139575,0 -0.065289,-0.467 -0.065289,-0.467 0.2367091,0 0.2367094,0 -0.2816782,-0.2816 -0.2816782,-0.2817 -1.5070555,-0.1078 -1.5070554,-0.1079 0,0.2629 0,0.2628 0.3300962,0.1267 c 0.1815531,0.07 0.5180586,0.1266 0.7477902,0.1266 l 0.4176938,0 -0.081983,0.246 c -0.045091,0.1353 -0.2434065,0.3466 -0.4407022,0.4695 l -0.3587195,0.2236 -0.2113541,-0.313 -0.211354,-0.313 0.1278304,1.0434 0.1278303,1.0434 -0.2203686,-0.313 -0.2203685,-0.313 -0.0032,-0.6836 -0.0032,-0.6836 -0.6782281,0.3285 -0.67822822,0.3285 0.40508582,-0.3232 c 0.2227971,-0.1777 0.4810456,-0.3231 0.5738853,-0.3231 l 0.1687996,0 0,-0.9167 0,-0.9168 0.3300962,-0.1267 c 0.1815531,-0.07 0.5974337,-0.1266 0.9241792,-0.1266 l 0.5940828,0 0.3279343,-0.328 0.3279346,-0.3279 0,-0.3884 0,-0.3884 0.4173712,-0.1325 0.4173712,-0.1325 0,-0.2989 0,-0.299 0.9912566,0 c 0.5451911,-7e-4 1.7425246,0.1074 2.6607413,0.2402 l 1.6694841,0.2416 0.208686,0.238 c 0.114777,0.131 0.639414,0.4004 1.16586,0.5988 0.526446,0.1984 1.136851,0.5067 1.356456,0.685 l 0.399282,0.3243 -0.279725,-0.1438 -0.279725,-0.1438 0.11955,1.3283 c 0.06575,0.7305 0.176561,1.9165 0.24624,2.6355 l 0.12669,1.3073 -1.218628,0.5531 c -0.670246,0.3042 -1.265583,0.6196 -1.322972,0.701 -0.05739,0.081 -0.877003,0.5355 -1.8213662,1.0091 -0.944363,0.4736 -1.7895396,0.8564 -1.8781703,0.8507 z m 0.047539,-0.2144 c 0.1147771,-8e-4 0.5373654,-0.1902 0.9390852,-0.4209 l 0.7303995,-0.4194 -1.020383,0.1152 c -0.5612106,0.063 -1.2185702,0.1185 -1.4607991,0.1225 l -0.4404161,0.01 0.5217139,0.2983 c 0.2869427,0.164 0.6156225,0.2976 0.7303996,0.2969 z m 2.0868559,-5.201 c 0.057389,0 0.1043428,-0.047 0.1043428,-0.1044 0,-0.057 -0.046954,-0.1043 -0.1043428,-0.1043 -0.057389,0 -0.1043428,0.047 -0.1043428,0.1043 0,0.057 0.046954,0.1044 0.1043428,0.1044 z m -5.9574035,-1.9424 0.8499574,0 -0.1071202,-0.1071 c -0.058916,-0.059 -0.2714141,-0.1254 -0.4722179,-0.1476 -0.2008039,-0.022 -0.5263399,-0.1094 -0.7234134,-0.1935 l -0.3583154,-0.153 -0.2677414,0.1075 -0.2677413,0.1076 0.521714,0.02 0.521714,0.02 -0.2733967,0.1734 -0.2733965,0.1734 0.8499574,0 z m 1.3114915,-0.1157 0.3625422,-0.2842 0.3265247,0.1253 0.3265247,0.1253 -0.1274975,-0.2063 c -0.070124,-0.1134 -0.2513194,-0.2063 -0.4026574,-0.2063 l -0.2751601,0 -0.2864093,0.3652 -0.2864095,0.3652 0.3625422,-0.2842 z m 0.4722002,0.1799 c 0.057389,0 0.1043428,-0.047 0.1043428,-0.1043 0,-0.057 -0.046954,-0.1044 -0.1043428,-0.1044 -0.057389,0 -0.1043428,0.047 -0.1043428,0.1044 0,0.057 0.046954,0.1043 0.1043428,0.1043 z m -1.3564564,-0.6261 0.2782474,0 -0.1391236,-0.1391 -0.1391238,-0.1391 -0.1391237,0.1391 -0.1391236,0.1391 0.2782473,0 z m 1.0977666,-0.2086 0.4994324,0 -0.093418,-0.6365 -0.093419,-0.6365 -0.339981,0.064 -0.3399812,0.064 -0.066033,0.5721 -0.066033,0.5721 0.4994326,0 z m 3.8063449,-0.2087 0.3130283,0 0,-0.1739 0,-0.1739 -0.3130283,0 -0.3130284,0 0,0.1739 0,0.1739 0.3130284,0 z m 0.8347423,0 c 0.057389,0 0.1043428,-0.047 0.1043428,-0.1044 0,-0.057 -0.046954,-0.1043 -0.1043428,-0.1043 -0.057389,0 -0.1043428,0.047 -0.1043428,0.1043 0,0.057 0.046954,0.1044 0.1043428,0.1044 z m -0.1789477,-0.4819 0.1340805,-0.1341 -0.2639758,-0.3181 c -0.1451867,-0.1749 -0.3434384,-0.318 -0.4405595,-0.318 l -0.1765835,0 0.1196604,0.3118 0.1196603,0.3118 0.1868185,-0.1154 0.1868184,-0.1155 0,0.2558 0,0.2558 0.1340807,-0.1341 z"
         id="path7198" />
      <path
         style="fill:#a19668"
         d="m 7.5441222,1049.5171 c -0.08863,-0.01 -0.9124145,-0.3933 -1.8306311,-0.8613 -0.9182166,-0.4679 -1.716439,-0.9157 -1.7738275,-0.995 -0.057389,-0.079 -0.7382253,-0.4381 -1.5129706,-0.7973 -0.7747452,-0.3592 -1.4086277,-0.7065 -1.4086277,-0.7719 0,-0.065 0.4548297,0.1117 1.0107328,0.3934 l 1.0107329,0.5122 0.7109232,-0.097 c 0.3910079,-0.053 0.9043096,-0.1388 1.1406704,-0.1896 l 0.4297471,-0.092 -0.044716,-0.6459 -0.044717,-0.6459 -0.3581687,-0.3957 -0.3581688,-0.3958 0.1321218,-0.3443 0.1321218,-0.3443 0.2838416,0.2355 0.2838416,0.2356 0.2576712,-0.6221 0.2576714,-0.622 -0.3203906,-0.3204 c -0.1762147,-0.1762 -0.426549,-0.3204 -0.5562982,-0.3204 l -0.2359078,0 0.1289748,-0.2087 0.1289748,-0.2087 -0.437915,0 -0.4379148,0 0.2690846,-0.2915 0.2690848,-0.2915 0.1620333,0.2829 0.1620333,0.2828 0.3596807,-0.1154 0.3596807,-0.1153 -0.3130284,0.2251 -0.3130284,0.2252 0.2086856,0 c 0.1147771,0 0.3381024,-0.082 0.4962783,-0.1822 l 0.287593,-0.1821 -0.1586069,-0.2566 c -0.087234,-0.1412 -0.2292881,-0.5701 -0.315676,-0.9531 l -0.1570693,-0.6964 0.2367688,-0.097 0.2367689,-0.097 -0.260857,-0.016 -0.260857,-0.016 0,-0.3131 0,-0.313 0.9912566,0 c 0.5451911,-7e-4 1.7425246,0.1074 2.6607413,0.2402 l 1.6694843,0.2416 0.208686,0.238 c 0.114777,0.131 0.639414,0.4004 1.16586,0.5988 0.526446,0.1984 1.136851,0.5043 1.356456,0.6797 l 0.399282,0.3189 -0.692346,-0.3358 -0.692345,-0.3358 0.222803,0.4163 0.222803,0.4163 0,0.9611 0,0.9611 0.420806,0.8249 0.420807,0.8248 -0.05034,0.6607 -0.05034,0.6606 -1.153037,0.5231 c -0.63417,0.2877 -1.199991,0.5896 -1.25738,0.671 -0.05739,0.081 -0.877003,0.5355 -1.8213664,1.0091 -0.944363,0.4736 -1.7895396,0.8564 -1.8781703,0.8507 z m 0.047539,-0.2169 c 0.1147771,-6e-4 0.7251824,-0.2825 1.3564564,-0.6265 l 1.1477714,-0.6254 -1.7161077,0.118 c -0.9438588,0.065 -1.8716979,0.1776 -2.0618645,0.2506 l -0.3457576,0.1327 0.7054082,0.3758 c 0.3879745,0.2068 0.7993167,0.3754 0.9140938,0.3748 z m 1.2521136,-3.1117 c 0.057388,0 0.1043428,-0.047 0.1043428,-0.1043 0,-0.057 -0.046954,-0.1044 -0.1043428,-0.1044 -0.057389,0 -0.1043428,0.047 -0.1043428,0.1044 0,0.057 0.046954,0.1043 0.1043428,0.1043 z m -0.7303996,-0.2087 0.2782474,0 -0.1391236,-0.1391 -0.1391238,-0.1391 -0.1391238,0.1391 -0.1391236,0.1391 0.2782474,0 z m 1.8781703,-0.1043 c 0.1147775,-0.071 0.2086855,-0.2229 0.2086855,-0.3377 l 0,-0.2087 -0.2086855,0.129 c -0.1147771,0.071 -0.2086856,0.2229 -0.2086856,0.3377 l 0,0.2087 0.2086856,-0.129 z m -0.3130284,-1.7738 c 0.057389,0 0.1043428,-0.047 0.1043428,-0.1044 0,-0.057 -0.046954,-0.1043 -0.1043428,-0.1043 -0.057389,0 -0.1043428,0.047 -0.1043428,0.1043 0,0.057 0.046954,0.1044 0.1043428,0.1044 z m -0.3439082,-2.9665 0.5951769,-0.017 0.016922,-0.5952 0.016922,-0.5951 -0.2070441,0 -0.2070441,0 0.1472738,0.2608 0.1472741,0.2609 -0.281038,-0.2609 c -0.1545707,-0.1435 -0.3579536,-0.2608 -0.451962,-0.2608 l -0.1709244,0 0.138754,0.5528 0.138754,0.5528 -0.2391209,-0.1477 -0.2391209,-0.1478 0,0.207 0,0.2071 0.5951769,-0.017 z m 2.1177361,-0.3725 c 0.114777,0 0.208685,-0.094 0.208685,-0.2087 0,-0.1148 -0.09391,-0.2087 -0.208685,-0.2087 -0.114777,0 -0.208686,0.094 -0.208686,0.2087 0,0.1148 0.09391,0.2087 0.208686,0.2087 z m -9.8603945,3.0307 -0.67822822,0.3285 0.41737122,-0.316 c 0.2295541,-0.1738 0.5347568,-0.4169 0.6782281,-0.5401 l 0.260857,-0.224 0,0.2115 0,0.2116 -0.6782281,0.3285 z m 1.2347231,0.03 -0.1391238,0.1391 0,-0.2782 0,-0.2783 0.1391238,0.1392 0.1391236,0.1391 -0.1391236,0.1391 z m 0.6956186,-0.2434 -0.2086856,0.1289 0,-0.3253 0,-0.3254 0.2086856,0 c 0.1147771,0 0.2086856,0.088 0.2086856,0.1964 0,0.108 -0.093908,0.2544 -0.2086856,0.3254 z m -0.9390852,-0.5218 c -0.057389,0 -0.1043428,-0.047 -0.1043428,-0.1043 0,-0.057 0.046954,-0.1043 0.1043428,-0.1043 0.057389,0 0.1043428,0.047 0.1043428,0.1043 0,0.057 -0.046954,0.1043 -0.1043428,0.1043 z m 0.8347424,-0.626 c -0.057389,0 -0.1043428,-0.047 -0.1043428,-0.1044 0,-0.057 0.046954,-0.1043 0.1043428,-0.1043 0.057389,0 0.1043428,0.047 0.1043428,0.1043 0,0.057 -0.046954,0.1044 -0.1043428,0.1044 z m -0.5738854,-0.3156 -0.3651998,0.1516 0,-0.2311 0,-0.231 0.3999808,0 0.3999806,0 0.083435,-0.2503 0.083435,-0.2503 0.1227447,0.3199 0.1227445,0.3198 -0.2409607,0.01 c -0.1325283,0.01 -0.4053006,0.078 -0.6061605,0.1614 z m 1.8016597,-1.3539 c -0.044002,0 -0.080004,-0.1353 -0.080004,-0.3007 0,-0.1654 0.085151,-0.3534 0.1892238,-0.4177 l 0.1892238,-0.1169 -0.1092202,0.4176 c -0.060071,0.2298 -0.145222,0.4177 -0.1892238,0.4177 z"
         id="path7196" />
      <path
         style="fill:#1e65fa"
         d="m 7.5441222,1049.5171 c -0.08863,-0.01 -0.9124145,-0.3933 -1.8306311,-0.8613 -0.9182166,-0.4679 -1.716439,-0.9157 -1.7738275,-0.995 -0.057389,-0.079 -0.7382253,-0.4381 -1.5129706,-0.7973 -0.7747452,-0.3592 -1.4086277,-0.6988 -1.4086277,-0.7548 0,-0.056 0.727791,0.2334 1.6173133,0.6429 0.8895223,0.4095 1.6642676,0.8141 1.7216561,0.8989 0.057389,0.085 0.8023584,0.5048 1.6554886,0.9332 l 1.5511459,0.7788 1.4563804,-0.7001 c 0.8010092,-0.385 1.5680694,-0.8102 1.7045794,-0.9447 0.136509,-0.1346 0.872587,-0.5278 1.635728,-0.8739 0.763141,-0.346 1.387529,-0.5828 1.387529,-0.5263 0,0.056 -0.539974,0.3478 -1.199942,0.6473 -0.659968,0.2995 -1.246896,0.6111 -1.304285,0.6925 -0.05739,0.081 -0.877003,0.5355 -1.8213665,1.0091 -0.944363,0.4736 -1.7895396,0.8564 -1.8781703,0.8507 z m 0.047539,-2.3534 -1.6694847,0.049 -0.521714,-0.3002 c -0.2869427,-0.1651 -0.4278055,-0.3015 -0.3130284,-0.3032 l 0.2086856,0 -0.00152,-0.5739 -0.00152,-0.5739 -0.3479329,-0.4935 -0.3479328,-0.4935 0.1221621,-0.3183 0.122162,-0.3184 0.2690538,0.368 0.2690535,0.3679 0.1373786,-0.5473 0.1373773,-0.5474 0.1860624,0 0.1860624,0 0,-0.2811 0,-0.2812 0.4695426,-0.247 0.4695425,-0.247 -0.4173711,0.1344 c -0.2295542,0.074 -0.5687605,0.1784 -0.753792,0.232 l -0.336421,0.098 -0.1192288,-0.3107 -0.1192289,-0.3107 0.5097154,-0.128 0.5097153,-0.1279 -0.338666,-0.5169 -0.338666,-0.5168 0.091943,-0.6265 0.091943,-0.6264 -0.1725427,0 -0.1725427,0 0,-0.3131 0,-0.313 1.1999422,0.016 c 0.6599681,0.01 1.904256,0.1287 2.765084,0.2667 l 1.5651421,0.2508 0.120212,1.5593 0.120213,1.5593 0.262429,0.6697 0.26243,0.6697 0.385425,0.1223 0.385426,0.1224 0.140793,0.641 0.140792,0.641 -0.391307,0.3913 -0.391307,0.3913 -0.621896,0.029 -0.621896,0.029 -0.7303993,0.3311 -0.7303996,0.331 -1.6694847,0.049 z m 1.3963118,-0.9999 c 0.079309,0.014 0.1928163,-0.054 0.2522384,-0.1501 l 0.1080401,-0.1748 -0.878295,-0.01 -0.8782953,-0.01 0.6260568,0.1596 c 0.3443312,0.088 0.6909459,0.1707 0.770255,0.1842 z m 0.8338736,-0.2317 c 0.1363758,-0.045 0.2851284,-0.1942 0.3305604,-0.3305 l 0.0826,-0.2478 -0.203749,0 c -0.1120619,0 -0.2608142,0.1487 -0.3305607,0.3304 l -0.1268118,0.3305 0.2479561,-0.083 z m -3.6786685,-0.1609 c 0.050615,0 0.092027,-0.094 0.092027,-0.2087 l 0,-0.2087 -0.2210016,0 -0.2210016,0 0.1289748,0.2087 c 0.070936,0.1147 0.1703868,0.2087 0.2210016,0.2087 z m 0.4050552,0 c 0.057389,0 0.1043427,-0.047 0.1043427,-0.1044 0,-0.057 -0.046954,-0.1043 -0.1043427,-0.1043 -0.057389,0 -0.1043428,0.047 -0.1043428,0.1043 0,0.057 0.046954,0.1044 0.1043428,0.1044 z m 3.1302838,-1.6695 c 0.057389,0 0.1043428,-0.047 0.1043428,-0.1044 0,-0.057 -0.046954,-0.1043 -0.1043428,-0.1043 -0.057389,0 -0.1043428,0.047 -0.1043428,0.1043 0,0.057 0.046954,0.1044 0.1043428,0.1044 z m -0.3439082,-2.9665 0.5951769,-0.017 0.016922,-0.5952 0.016922,-0.5951 -0.2070441,0 -0.2070441,0 0.1472738,0.2608 0.1472741,0.2609 -0.281038,-0.2609 c -0.1545707,-0.1435 -0.3579536,-0.2608 -0.451962,-0.2608 l -0.1709244,0 0.138754,0.5528 0.138754,0.5528 -0.2391209,-0.1477 -0.2391209,-0.1478 0,0.207 0,0.2071 0.5951769,-0.017 z m -7.7426584,2.6582 -0.67822822,0.3285 0.41737122,-0.316 c 0.2295541,-0.1738 0.5347568,-0.4169 0.6782281,-0.5401 l 0.260857,-0.224 0,0.2115 0,0.2116 -0.6782281,0.3285 z m 3.286798,-1.3612 c -0.057389,0 -0.1043428,-0.047 -0.1043428,-0.1044 0,-0.057 0.046954,-0.1043 0.1043428,-0.1043 0.057389,0 0.1043428,0.047 0.1043428,0.1043 0,0.057 -0.046954,0.1044 -0.1043428,0.1044 z m -2.0868559,-0.4174 c -0.057388,0 -0.1043428,-0.047 -0.1043428,-0.1043 0,-0.057 0.046954,-0.1044 0.1043428,-0.1044 0.057389,0 0.1043428,0.047 0.1043428,0.1044 0,0.057 -0.046954,0.1043 -0.1043428,0.1043 z m 0.6608378,-0.2782 -0.1391238,0.1391 0,-0.2783 0,-0.2782 0.1391238,0.1391 0.1391236,0.1391 -0.1391236,0.1392 z m 10.2429846,-0.3658 c -0.02869,-0.01 -0.615623,-0.2939 -1.304285,-0.6312 l -1.252114,-0.6133 0.521714,0.1363 c 0.286943,0.075 0.873871,0.314 1.304285,0.5311 0.430414,0.2172 0.782571,0.4399 0.782571,0.495 0,0.055 -0.02348,0.092 -0.05217,0.082 z m -8.8169665,-1.2342 c -0.057389,0 -0.1043428,-0.047 -0.1043428,-0.1043 0,-0.057 0.046954,-0.1043 0.1043428,-0.1043 0.057389,0 0.1043428,0.047 0.1043428,0.1043 0,0.057 -0.046954,0.1043 -0.1043428,0.1043 z"
         id="path7194" />
      <path
         style="fill:#4ceb32"
         d="m 7.5441222,1049.5171 c -0.08863,-0.01 -0.9124145,-0.3933 -1.8306311,-0.8613 -0.9182166,-0.4679 -1.716439,-0.9157 -1.7738275,-0.995 -0.057389,-0.079 -0.7382253,-0.4381 -1.5129706,-0.7973 -0.7747452,-0.3592 -1.4086277,-0.6988 -1.4086277,-0.7548 0,-0.056 0.727791,0.2334 1.6173133,0.6429 0.8895223,0.4095 1.6642676,0.8141 1.7216561,0.8989 0.057389,0.085 0.8023584,0.5048 1.6554886,0.9332 l 1.5511459,0.7788 1.4563804,-0.7001 c 0.8010092,-0.385 1.5680694,-0.8102 1.7045794,-0.9447 0.136509,-0.1346 0.872587,-0.5278 1.635728,-0.8739 0.763141,-0.346 1.387529,-0.5828 1.387529,-0.5263 0,0.056 -0.539974,0.3478 -1.199942,0.6473 -0.659968,0.2995 -1.246896,0.6111 -1.304285,0.6925 -0.05739,0.081 -0.877003,0.5355 -1.8213665,1.0091 -0.944363,0.4736 -1.7895396,0.8564 -1.8781703,0.8507 z m 0.047539,-2.3534 -1.6694847,0.049 -0.521714,-0.3002 c -0.2869427,-0.1651 -0.4278055,-0.3015 -0.3130284,-0.3032 l 0.2086856,0 -0.00152,-0.5739 -0.00152,-0.5739 -0.3479329,-0.4935 -0.3479328,-0.4935 0.1221621,-0.3183 0.122162,-0.3184 0.2690538,0.368 0.2690535,0.3679 0.1373786,-0.5473 0.1373773,-0.5474 0.1860624,0 0.1860624,0 0,-0.2795 0,-0.2796 0.5315332,-0.2421 0.5315333,-0.2422 1.2299783,0 1.2299782,0 0.1289748,0.2087 c 0.070936,0.1147 0.2066827,0.2087 0.3016588,0.2087 l 0.1726843,0 0.09189,-0.6261 0.09189,-0.6261 -1.1637995,-0.012 c -0.6400897,-0.01 -1.6144669,-0.087 -2.1652829,-0.1772 l -1.0014836,-0.1647 0.1150819,0.3337 0.1150818,0.3337 -0.3135403,-0.4051 -0.3135405,-0.4051 0.028419,-0.534 0.028419,-0.534 0.088126,0.4519 0.088126,0.4519 0.3389983,0.1301 c 0.1864491,0.072 1.1995427,0.1866 2.2513193,0.2557 l 1.9123215,0.1256 0.133513,-0.4989 c 0.07343,-0.2744 0.134796,-0.6445 0.136363,-0.8223 l 0.0028,-0.3234 -1.7324863,-0.2505 c -0.9528678,-0.1378 -2.1032471,-0.2431 -2.5563985,-0.234 l -0.8239118,0.016 0.260857,0.1053 c 0.1434713,0.058 0.260857,0.1884 0.260857,0.29 l 0,0.1848 -0.3130284,-0.1202 -0.3130284,-0.1201 0,-0.2907 0,-0.2907 1.1999422,0.016 c 0.6599681,0.01 1.904256,0.1287 2.765084,0.2667 l 1.5651422,0.2508 0.120212,1.5593 0.120213,1.5593 0.262429,0.6697 0.26243,0.6697 0.385425,0.1223 0.385426,0.1224 0.140793,0.641 0.140792,0.641 -0.391307,0.3913 -0.391307,0.3913 -0.621896,0.029 -0.621896,0.029 -0.7303994,0.3311 -0.7303996,0.331 -1.6694847,0.049 z m 1.3963118,-0.9999 c 0.079309,0.014 0.1928163,-0.054 0.2522384,-0.1501 l 0.1080401,-0.1748 -0.878295,-0.01 -0.8782953,-0.01 0.6260568,0.1596 c 0.3443312,0.088 0.6909459,0.1707 0.770255,0.1842 z m 0.8338736,-0.2317 c 0.1363758,-0.045 0.2851284,-0.1942 0.3305604,-0.3305 l 0.0826,-0.2478 -0.203749,0 c -0.1120619,0 -0.2608142,0.1487 -0.3305607,0.3304 l -0.1268118,0.3305 0.2479561,-0.083 z m -3.6786685,-0.1609 c 0.050615,0 0.092027,-0.094 0.092027,-0.2087 l 0,-0.2087 -0.2210016,0 -0.2210016,0 0.1289748,0.2087 c 0.070936,0.1147 0.1703868,0.2087 0.2210016,0.2087 z m 0.4050552,0 c 0.057389,0 0.1043427,-0.047 0.1043427,-0.1044 0,-0.057 -0.046954,-0.1043 -0.1043427,-0.1043 -0.057389,0 -0.1043428,0.047 -0.1043428,0.1043 0,0.057 0.046954,0.1044 0.1043428,0.1044 z m 3.1302838,-1.6695 c 0.057389,0 0.1043428,-0.047 0.1043428,-0.1044 0,-0.057 -0.046954,-0.1043 -0.1043428,-0.1043 -0.057389,0 -0.1043428,0.047 -0.1043428,0.1043 0,0.057 0.046954,0.1044 0.1043428,0.1044 z m -8.0865666,-0.3083 -0.67822822,0.3285 0.41737122,-0.316 c 0.2295541,-0.1738 0.5347568,-0.4169 0.6782281,-0.5401 l 0.260857,-0.224 0,0.2115 0,0.2116 -0.6782281,0.3285 z m 4.0916961,-0.947 -0.23853,0 -0.1122296,-0.2925 -0.1122295,-0.2925 0.4476356,-0.117 0.4476358,-0.1171 0.1529649,0.2475 0.1529651,0.2475 -0.2498411,0.1588 c -0.1374128,0.087 -0.3571798,0.1603 -0.4883712,0.1621 z m -0.8048981,-0.4142 c -0.057389,0 -0.1043428,-0.047 -0.1043428,-0.1044 0,-0.057 0.046954,-0.1043 0.1043428,-0.1043 0.057389,0 0.1043428,0.047 0.1043428,0.1043 0,0.057 -0.046954,0.1044 -0.1043428,0.1044 z m -2.0868559,-0.4174 c -0.057388,0 -0.1043428,-0.047 -0.1043428,-0.1043 0,-0.057 0.046954,-0.1044 0.1043428,-0.1044 0.057389,0 0.1043428,0.047 0.1043428,0.1044 0,0.057 -0.046954,0.1043 -0.1043428,0.1043 z m 0.6608378,-0.2782 -0.1391238,0.1391 0,-0.2783 0,-0.2782 0.1391238,0.1391 0.1391236,0.1391 -0.1391236,0.1392 z m 10.2429846,-0.3658 c -0.02869,-0.01 -0.615623,-0.2939 -1.304285,-0.6312 l -1.252114,-0.6133 0.521714,0.1363 c 0.286943,0.075 0.873871,0.314 1.304285,0.5311 0.430414,0.2172 0.782571,0.4399 0.782571,0.495 0,0.055 -0.02348,0.092 -0.05217,0.082 z m -4.6050414,-0.569 -0.1096056,0.2739 -0.016475,-0.4 -0.016475,-0.3999 0.1260809,0.126 0.1260807,0.1261 -0.1096056,0.2739 z m 0.9008719,-0.039 c -0.1147771,0 -0.2086856,-0.041 -0.2086856,-0.092 0,-0.051 0.093908,-0.1501 0.2086856,-0.221 l 0.2086855,-0.129 0,0.221 0,0.221 -0.2086855,0 z m -0.3130284,-0.4174 c -0.057389,0 -0.1043428,-0.047 -0.1043428,-0.1043 0,-0.057 0.046954,-0.1044 0.1043428,-0.1044 0.057389,0 0.1043428,0.047 0.1043428,0.1044 0,0.057 -0.046954,0.1043 -0.1043428,0.1043 z m -4.7997686,-0.2087 c -0.057389,0 -0.1043428,-0.047 -0.1043428,-0.1043 0,-0.057 0.046954,-0.1043 0.1043428,-0.1043 0.057389,0 0.1043428,0.047 0.1043428,0.1043 0,0.057 -0.046954,0.1043 -0.1043428,0.1043 z"
         id="path7192" />
      <path
         style="fill:#9c8632"
         d="m 7.5441222,1049.5171 c -0.08863,-0.01 -0.9124145,-0.3933 -1.8306311,-0.8613 -0.9182166,-0.4679 -1.716439,-0.9157 -1.7738275,-0.995 -0.057389,-0.079 -0.7382253,-0.4381 -1.5129706,-0.7973 -0.7747452,-0.3592 -1.4086277,-0.6988 -1.4086277,-0.7548 0,-0.056 0.727791,0.2334 1.6173133,0.6429 0.8895223,0.4095 1.6642676,0.8141 1.7216561,0.8989 0.057389,0.085 0.8023584,0.5048 1.6554886,0.9332 l 1.5511459,0.7788 1.4563804,-0.7001 c 0.8010092,-0.385 1.5680694,-0.8102 1.7045794,-0.9447 0.136509,-0.1346 0.872587,-0.5278 1.635728,-0.8739 0.763141,-0.346 1.387529,-0.5828 1.387529,-0.5263 0,0.056 -0.539974,0.3478 -1.199942,0.6473 -0.659968,0.2995 -1.246896,0.6111 -1.304285,0.6925 -0.05739,0.081 -0.877003,0.5355 -1.8213665,1.0091 -0.944363,0.4736 -1.7895396,0.8564 -1.8781703,0.8507 z m 0.047539,-2.3534 -1.6694847,0.049 -0.521714,-0.3002 c -0.2869427,-0.1651 -0.4278055,-0.3015 -0.3130284,-0.3032 l 0.2086856,0 -0.00152,-0.5739 -0.00152,-0.5739 -0.3479329,-0.4935 -0.3479328,-0.4935 0.1221621,-0.3183 0.122162,-0.3184 0.2690538,0.368 0.2690535,0.3679 0.1373786,-0.5473 0.1373773,-0.5474 0.1860624,0 0.1860624,0 0,-0.2795 0,-0.2796 0.5315332,-0.2421 0.5315333,-0.2422 1.2299783,0 1.2299782,0 0.1289748,0.2087 c 0.070936,0.1147 0.2066827,0.2087 0.3016588,0.2087 l 0.1726843,0 0.09189,-0.6261 0.09189,-0.6261 -1.1637995,-0.012 c -0.6400897,-0.01 -1.6144669,-0.087 -2.1652829,-0.1772 l -1.0014836,-0.1647 0.1150819,0.3337 0.1150818,0.3337 -0.3135403,-0.4051 -0.3135405,-0.4051 0.028419,-0.534 0.028419,-0.534 0.088126,0.4519 0.088126,0.4519 0.3389983,0.1301 c 0.1864491,0.072 1.1995427,0.1866 2.2513193,0.2557 l 1.9123215,0.1256 0.133513,-0.4989 c 0.07343,-0.2744 0.134796,-0.6445 0.136363,-0.8223 l 0.0028,-0.3234 -1.7324863,-0.2505 c -0.9528678,-0.1378 -2.1032471,-0.2431 -2.5563985,-0.234 l -0.8239118,0.016 0.260857,0.1053 c 0.1434713,0.058 0.260857,0.1884 0.260857,0.29 l 0,0.1848 -0.3130284,-0.1202 -0.3130284,-0.1201 0,-0.2907 0,-0.2907 1.1999422,0.016 c 0.6599681,0.01 1.904256,0.1287 2.765084,0.2667 l 1.5651422,0.2508 0.120212,1.5593 0.120213,1.5593 0.262429,0.6697 0.26243,0.6697 0.385425,0.1223 0.385426,0.1224 0.140793,0.641 0.140792,0.641 -0.391307,0.3913 -0.391307,0.3913 -0.621896,0.029 -0.621896,0.029 -0.7303994,0.3311 -0.7303996,0.331 -1.6694847,0.049 z m 1.4151774,-0.9999 c 0.089685,0.014 0.2171177,-0.1161 0.283184,-0.2883 0.066066,-0.1722 0.2095237,-0.313 0.3187948,-0.313 l 0.1986745,0 -0.1289748,0.2087 -0.1289748,0.2086 0.2261668,0 0.2261669,0 0.20352,-0.5353 c 0.111937,-0.2944 0.203521,-0.5713 0.203521,-0.6154 0,-0.044 -0.352157,0.067 -0.7825713,0.2458 -0.430414,0.1792 -0.8601517,0.4326 -0.9549726,0.5632 l -0.1724016,0.2374 -0.1058458,-0.2609 -0.1058459,-0.2608 -0.2956378,0 -0.295638,0 0.052171,0.2608 0.052171,0.2609 0.521714,0.1318 c 0.2869427,0.072 0.5950926,0.143 0.6847778,0.1565 z m -2.0412342,-0.184 0.2434666,0 0,-0.313 0,-0.313 -0.3825904,0 -0.3825901,0 0,0.1739 c 0,0.096 0.062606,0.2365 0.1391238,0.313 0.076518,0.077 0.2486835,0.1391 0.3825901,0.1391 z m -0.7825709,-0.2118 c 0.028694,0 0.052171,-0.1277 0.052171,-0.2875 l 0,-0.2908 -0.310525,-0.1191 -0.310525,-0.1192 0.049668,0.2534 c 0.027317,0.1393 0.1435765,0.3223 0.2583536,0.4066 0.1147771,0.084 0.2321627,0.1548 0.260857,0.1566 z m 3.4954836,-1.6663 c 0.057389,0 0.1043428,-0.047 0.1043428,-0.1044 0,-0.057 -0.046954,-0.1043 -0.1043428,-0.1043 -0.057389,0 -0.1043428,0.047 -0.1043428,0.1043 0,0.057 0.046954,0.1044 0.1043428,0.1044 z m -8.0865666,-0.3083 -0.67822822,0.3285 0.41737122,-0.316 c 0.2295541,-0.1738 0.5347568,-0.4169 0.6782281,-0.5401 l 0.260857,-0.224 0,0.2115 0,0.2116 -0.6782281,0.3285 z m 4.0916961,-0.947 -0.23853,0 -0.1122296,-0.2925 -0.1122295,-0.2925 0.4476356,-0.117 0.4476358,-0.1171 0.1529649,0.2475 0.1529651,0.2475 -0.2498411,0.1588 c -0.1374128,0.087 -0.3571798,0.1603 -0.4883712,0.1621 z m -0.8048981,-0.4142 c -0.057389,0 -0.1043428,-0.047 -0.1043428,-0.1044 0,-0.057 0.046954,-0.1043 0.1043428,-0.1043 0.057389,0 0.1043428,0.047 0.1043428,0.1043 0,0.057 -0.046954,0.1044 -0.1043428,0.1044 z m -2.0868559,-0.4174 c -0.057388,0 -0.1043428,-0.047 -0.1043428,-0.1043 0,-0.057 0.046954,-0.1044 0.1043428,-0.1044 0.057389,0 0.1043428,0.047 0.1043428,0.1044 0,0.057 -0.046954,0.1043 -0.1043428,0.1043 z m 0.6608378,-0.2782 -0.1391238,0.1391 0,-0.2783 0,-0.2782 0.1391238,0.1391 0.1391236,0.1391 -0.1391236,0.1392 z m 10.2429846,-0.3658 c -0.02869,-0.01 -0.615623,-0.2939 -1.304285,-0.6312 l -1.252114,-0.6133 0.521714,0.1363 c 0.286943,0.075 0.873871,0.314 1.304285,0.5311 0.430414,0.2172 0.782571,0.4399 0.782571,0.495 0,0.055 -0.02348,0.092 -0.05217,0.082 z m -4.6050414,-0.569 -0.1096056,0.2739 -0.016475,-0.4 -0.016475,-0.3999 0.1260809,0.126 0.1260807,0.1261 -0.1096056,0.2739 z m 0.9008719,-0.039 c -0.1147771,0 -0.2086856,-0.041 -0.2086856,-0.092 0,-0.051 0.093908,-0.1501 0.2086856,-0.221 l 0.2086855,-0.129 0,0.221 0,0.221 -0.2086855,0 z m -0.3130284,-0.4174 c -0.057389,0 -0.1043428,-0.047 -0.1043428,-0.1043 0,-0.057 0.046954,-0.1044 0.1043428,-0.1044 0.057389,0 0.1043428,0.047 0.1043428,0.1044 0,0.057 -0.046954,0.1043 -0.1043428,0.1043 z m -4.7997686,-0.2087 c -0.057389,0 -0.1043428,-0.047 -0.1043428,-0.1043 0,-0.057 0.046954,-0.1043 0.1043428,-0.1043 0.057389,0 0.1043428,0.047 0.1043428,0.1043 0,0.057 -0.046954,0.1043 -0.1043428,0.1043 z"
         id="path7190" />
      <path
         style="fill:#cd6903"
         d="m 7.838933,1047.0151 -1.2906995,-0.01 -0.7025299,-0.305 -0.7025298,-0.305 0.1177611,-0.4503 0.1177611,-0.4503 -0.3948273,-0.502 -0.3948273,-0.5019 0.1262445,-0.329 0.1262444,-0.329 0.2397678,0.3279 0.2397677,0.3279 0.3942726,-0.7321 0.3942726,-0.7321 0.5960678,-0.3082 0.596068,-0.3083 1.1362138,0.062 1.1362139,0.062 0,0.1577 c 0,0.087 0.1302042,0.1578 0.2893428,0.1578 l 0.2893427,0 0.09189,-0.6261 0.09189,-0.6261 -1.1637991,-0.012 c -0.6400897,-0.01 -1.6144669,-0.087 -2.1652829,-0.1772 l -1.0014836,-0.1647 0.1150819,0.3337 0.1150818,0.3337 -0.3135403,-0.4051 -0.3135405,-0.4051 0.028419,-0.534 0.028419,-0.534 0.088126,0.4519 0.088126,0.4519 0.3389983,0.1301 c 0.1864491,0.072 1.1995427,0.1866 2.2513193,0.2557 l 1.9123211,0.1256 0.133513,-0.4989 c 0.07343,-0.2744 0.134796,-0.6445 0.136363,-0.8223 l 0.0028,-0.3234 -1.7324859,-0.2505 c -0.9528678,-0.1378 -2.1032471,-0.2431 -2.5563985,-0.234 l -0.8239118,0.016 0.260857,0.1053 c 0.1434713,0.058 0.260857,0.1884 0.260857,0.29 l 0,0.1848 -0.3130284,-0.1202 -0.3130284,-0.1201 0,-0.2907 0,-0.2907 1.1999422,0.016 c 0.6599681,0.01 1.904256,0.1288 2.765084,0.2668 l 1.5651418,0.2509 0.11324,1.7679 0.113241,1.7679 0.303614,0.4719 0.303614,0.4718 0.365717,0.1161 0.365716,0.1161 0,0.2909 0,0.2909 -0.833349,0.2244 -0.833349,0.2244 -0.324417,0.6274 -0.324417,0.6273 -0.525304,0.1997 -0.525304,0.1998 -1.2906997,-0.01 z m 1.1679058,-0.8513 c 0.089685,0.014 0.2171177,-0.1161 0.283184,-0.2883 0.066066,-0.1722 0.2095237,-0.313 0.3187948,-0.313 l 0.1986745,0 -0.1289748,0.2087 -0.1289748,0.2086 0.2261668,0 0.2261667,0 0.20352,-0.5353 c 0.111937,-0.2944 0.203521,-0.5713 0.203521,-0.6154 0,-0.044 -0.352157,0.067 -0.7825711,0.2458 -0.430414,0.1792 -0.8601517,0.4326 -0.9549726,0.5632 l -0.1724016,0.2374 -0.1058458,-0.2609 -0.1058459,-0.2608 -0.2956378,0 -0.295638,0 0.052171,0.2608 0.052171,0.2609 0.521714,0.1318 c 0.2869427,0.072 0.5950926,0.143 0.6847778,0.1565 z m -2.0412342,-0.184 0.2434666,0 0,-0.313 0,-0.313 -0.3825904,0 -0.3825901,0 0,0.1739 c 0,0.096 0.062606,0.2365 0.1391238,0.313 0.076518,0.077 0.2486835,0.1391 0.3825901,0.1391 z m -0.7825709,-0.2118 c 0.028694,0 0.052171,-0.1277 0.052171,-0.2875 l 0,-0.2908 -0.310525,-0.1191 -0.310525,-0.1192 0.049668,0.2534 c 0.027317,0.1393 0.1435765,0.3223 0.2583536,0.4066 0.1147771,0.084 0.2321627,0.1548 0.260857,0.1566 z m 3.4954836,-1.6663 c 0.057389,0 0.1043428,-0.047 0.1043428,-0.1044 0,-0.057 -0.046954,-0.1043 -0.1043428,-0.1043 -0.057389,0 -0.1043428,0.047 -0.1043428,0.1043 0,0.057 0.046954,0.1044 0.1043428,0.1044 z m -4.591083,2.7129 c -0.057389,0 -0.1043428,-0.047 -0.1043428,-0.1044 0,-0.057 0.046954,-0.1043 0.1043428,-0.1043 0.057389,0 0.1043428,0.047 0.1043428,0.1043 0,0.057 -0.046954,0.1044 -0.1043428,0.1044 z m 0.5962125,-3.9682 -0.23853,0 -0.1122296,-0.2925 -0.1122295,-0.2925 0.4476356,-0.117 0.4476358,-0.1171 0.1529649,0.2475 0.1529651,0.2475 -0.2498411,0.1588 c -0.1374128,0.087 -0.3571798,0.1603 -0.4883712,0.1621 z m -0.8048981,-0.4142 c -0.057389,0 -0.1043428,-0.047 -0.1043428,-0.1044 0,-0.057 0.046954,-0.1043 0.1043428,-0.1043 0.057389,0 0.1043428,0.047 0.1043428,0.1043 0,0.057 -0.046954,0.1044 -0.1043428,0.1044 z m -1.4260181,-0.6956 -0.1391238,0.1391 0,-0.2783 0,-0.2782 0.1391238,0.1391 0.1391236,0.1391 -0.1391236,0.1392 z m 5.6379432,-0.9348 -0.1096056,0.2739 -0.016475,-0.4 -0.016475,-0.3999 0.1260809,0.126 0.1260807,0.1261 -0.1096056,0.2739 z m 0.9008719,-0.039 c -0.1147771,0 -0.2086856,-0.041 -0.2086856,-0.092 0,-0.051 0.093908,-0.1501 0.2086856,-0.221 l 0.2086853,-0.129 0,0.221 0,0.221 -0.2086853,0 z m -0.3130284,-0.4174 c -0.057389,0 -0.1043428,-0.047 -0.1043428,-0.1043 0,-0.057 0.046954,-0.1044 0.1043428,-0.1044 0.057389,0 0.1043428,0.047 0.1043428,0.1044 0,0.057 -0.046954,0.1043 -0.1043428,0.1043 z m -4.7997686,-0.2087 c -0.057389,0 -0.1043428,-0.047 -0.1043428,-0.1043 0,-0.057 0.046954,-0.1043 0.1043428,-0.1043 0.057389,0 0.1043428,0.047 0.1043428,0.1043 0,0.057 -0.046954,0.1043 -0.1043428,0.1043 z"
         id="path7188" />
      <path
         style="fill:#174dae"
         d="m 7.53949,1047.0068 -0.9912565,-0.017 -0.5738854,-0.2096 -0.5738854,-0.2096 0,-0.5236 0,-0.5235 -0.4057107,-0.5158 -0.4057106,-0.5158 0.1262445,-0.329 0.1262444,-0.329 0.2397678,0.3279 0.2397677,0.3279 0.3942726,-0.7321 0.3942726,-0.7321 0.5960678,-0.3082 0.596068,-0.3083 1.11766,0.061 1.1176597,0.061 -0.098105,0.1587 -0.098105,0.1588 0.2210016,0 c 0.1215508,0 0.291433,0 0.3775158,0.01 l 0.1565151,0.01 0.130157,-0.6364 0.130157,-0.6364 -1.1735854,-0.012 c -0.6454721,-0.01 -1.624253,-0.087 -2.175069,-0.1772 l -1.0014836,-0.1647 0.1150819,0.3337 0.1150818,0.3337 -0.3135403,-0.4051 -0.3135405,-0.4051 0.028419,-0.534 0.028419,-0.534 0.088126,0.4519 0.088126,0.4519 0.3389983,0.1301 c 0.1864491,0.072 1.1995427,0.1866 2.2513193,0.2557 l 1.9123215,0.1256 0.133513,-0.4989 c 0.07343,-0.2744 0.134796,-0.6445 0.136363,-0.8223 l 0.0028,-0.3234 -1.7324863,-0.2505 c -0.9528678,-0.1378 -2.1032471,-0.2431 -2.5563985,-0.234 l -0.8239118,0.016 0.260857,0.1053 c 0.1434713,0.058 0.260857,0.1884 0.260857,0.29 l 0,0.1848 -0.3130284,-0.1202 -0.3130284,-0.1201 0,-0.2907 0,-0.2907 1.1999422,0.016 c 0.6599681,0.01 1.904256,0.1288 2.765084,0.2668 l 1.5651422,0.2509 0.11324,1.7679 0.113241,1.7679 0.303614,0.4719 0.303614,0.4718 0.365717,0.1161 0.365716,0.1161 0,0.2909 0,0.2909 -0.815878,0.2197 -0.815878,0.2197 -0.412306,0.6988 -0.412306,0.6988 -0.5780199,0.1451 -0.5780197,0.1451 -0.1731138,-0.273 -0.1731139,-0.2729 -0.0032,0.2608 -0.0032,0.2609 -0.9912566,-0.016 z m 1.5129706,-0.1986 c 0.114777,0 0.3495483,-0.091 0.5217139,-0.2023 l 0.3130284,-0.2023 -0.2086856,0 c -0.114777,0 -0.3495483,0.091 -0.521714,0.2023 l -0.3130283,0.2023 0.2086856,0 z m -0.045622,-0.6444 c 0.089685,0.014 0.2171177,-0.1161 0.283184,-0.2883 0.066066,-0.1722 0.2095237,-0.313 0.3187948,-0.313 l 0.1986745,0 -0.1289748,0.2087 -0.1289748,0.2086 0.2261668,0 0.2261669,0 0.211275,-0.5557 0.211276,-0.5557 -0.216441,-0.2164 c -0.119042,-0.119 -0.2194272,-0.362 -0.2230773,-0.5399 -0.00365,-0.1779 -0.1366173,-0.495 -0.2954821,-0.7046 -0.1588651,-0.2096 -0.4141268,-0.4 -0.5672486,-0.4232 -0.1531218,-0.023 -0.3897737,-0.1118 -0.5258931,-0.1968 l -0.2474898,-0.1547 -0.8490363,0.1907 -0.8490363,0.1908 -0.4095016,0.4915 c -0.2252258,0.2703 -0.4126259,0.5974 -0.4164445,0.7268 -0.00382,0.1294 0.1330066,0.3515 0.3040558,0.4934 l 0.3109985,0.2581 1.3458365,0.1081 1.3458366,0.108 -0.3357808,0.3358 -0.3357807,0.3358 -0.086331,-0.259 -0.086331,-0.259 -0.2956378,0 -0.295638,0 0.052171,0.2608 0.052171,0.2609 0.521714,0.1318 c 0.2869427,0.072 0.5950926,0.143 0.6847778,0.1565 z m 0.5673357,-1.0187 -0.2782474,0 0.1391236,-0.1391 0.1391238,-0.1392 0.1391238,0.1392 0.1391236,0.1391 -0.2782474,0 z m 0.5217147,-0.2087 c -0.05739,0 -0.1043435,-0.047 -0.1043435,-0.1043 0,-0.057 0.046952,-0.1044 0.1043435,-0.1044 0.05739,0 0.104342,0.047 0.104342,0.1044 0,0.057 -0.04695,0.1043 -0.104342,0.1043 z m -3.1302846,1.0434 0.2434666,0 0,-0.313 0,-0.313 -0.3825904,0 -0.3825901,0 0,0.1739 c 0,0.096 0.062606,0.2365 0.1391238,0.313 0.076518,0.077 0.2486835,0.1391 0.3825901,0.1391 z m -0.7825709,-0.2118 c 0.028694,0 0.052171,-0.1277 0.052171,-0.2875 l 0,-0.2908 -0.310525,-0.1191 -0.310525,-0.1192 0.049668,0.2534 c 0.027317,0.1393 0.1435765,0.3223 0.2583536,0.4066 0.1147771,0.084 0.2321627,0.1548 0.260857,0.1566 z m -1.0955994,1.0466 c -0.057389,0 -0.1043428,-0.047 -0.1043428,-0.1044 0,-0.057 0.046954,-0.1043 0.1043428,-0.1043 0.057389,0 0.1043428,0.047 0.1043428,0.1043 0,0.057 -0.046954,0.1044 -0.1043428,0.1044 z m 1.1635482,-4.1737 c -0.098895,0 -0.2338631,-0.1409 -0.2999292,-0.3131 l -0.1201202,-0.313 0.1798089,0 c 0.098895,0 0.2338631,0.1409 0.2999292,0.313 l 0.1201203,0.3131 -0.179809,0 z m -1.3722338,-0.2087 c -0.057389,0 -0.1043428,-0.047 -0.1043428,-0.1044 0,-0.057 0.046954,-0.1043 0.1043428,-0.1043 0.057389,0 0.1043428,0.047 0.1043428,0.1043 0,0.057 -0.046954,0.1044 -0.1043428,0.1044 z m 0.521714,0 -0.2782474,0 0.1391236,-0.1391 0.1391238,-0.1392 0.1391238,0.1392 0.1391236,0.1391 -0.2782474,0 z m -1.9477321,-0.6956 -0.1391238,0.1391 0,-0.2783 0,-0.2782 0.1391238,0.1391 0.1391236,0.1391 -0.1391236,0.1392 z m 5.6379432,-0.9348 -0.1096056,0.2739 -0.016475,-0.4 -0.016475,-0.3999 0.1260809,0.126 0.1260807,0.1261 -0.1096056,0.2739 z m 0.9008719,-0.039 c -0.1147771,0 -0.2086856,-0.041 -0.2086856,-0.092 0,-0.051 0.093908,-0.1501 0.2086856,-0.221 l 0.2086855,-0.129 0,0.221 0,0.221 -0.2086855,0 z m -0.3130284,-0.4174 c -0.057389,0 -0.1043428,-0.047 -0.1043428,-0.1043 0,-0.057 0.046954,-0.1044 0.1043428,-0.1044 0.057389,0 0.1043428,0.047 0.1043428,0.1044 0,0.057 -0.046954,0.1043 -0.1043428,0.1043 z m -4.7997686,-0.2087 c -0.057389,0 -0.1043428,-0.047 -0.1043428,-0.1043 0,-0.057 0.046954,-0.1043 0.1043428,-0.1043 0.057389,0 0.1043428,0.047 0.1043428,0.1043 0,0.057 -0.046954,0.1043 -0.1043428,0.1043 z"
         id="path7186" />
      <path
         style="fill:#9c6410"
         d="m 7.53949,1047.0068 -0.9912565,-0.017 -0.5475637,-0.2008 -0.5475637,-0.2008 -0.1206158,-0.8783 -0.1206159,-0.8783 0.4286944,-0.8926 0.4286945,-0.8926 0.5943215,-0.3074 0.5943216,-0.3073 0.7336828,0 0.7336828,0 0.7258805,0.3461 0.7258805,0.3462 0.251285,0.6066 0.251285,0.6067 -0.35787,0.3515 -0.3578701,0.3515 0.038554,-0.2087 c 0.02121,-0.1148 0.02445,-0.3965 0.0072,-0.6261 -0.017242,-0.2295 -0.1613302,-0.5889 -0.320195,-0.7985 -0.1588651,-0.2096 -0.4141268,-0.4 -0.5672486,-0.4232 -0.1531218,-0.023 -0.3897738,-0.1118 -0.5258931,-0.1968 l -0.2474899,-0.1547 -0.8490362,0.1907 -0.8490363,0.1908 -0.4095017,0.4915 c -0.2252258,0.2703 -0.4126259,0.5974 -0.4164444,0.7268 -0.00382,0.1294 0.1330066,0.3515 0.3040558,0.4934 l 0.3109985,0.2581 1.3458365,0.1081 1.3458365,0.108 -0.3357807,0.3358 -0.3357808,0.3358 -0.086331,-0.259 -0.086331,-0.259 -0.2956378,0 -0.295638,0 0.052171,0.2608 0.052171,0.2609 0.6260568,0.146 0.6260568,0.146 0.2316917,-0.3025 c 0.1274303,-0.1664 0.2973125,-0.3025 0.3775158,-0.3025 l 0.145824,0 -0.1289748,0.2087 -0.1289748,0.2086 0.2261668,0 0.2261669,0 0.198355,-0.5217 c 0.109096,-0.2869 0.271111,-0.5203 0.360035,-0.5185 0.08892,0 0.302542,0.094 0.474708,0.2055 l 0.313028,0.2023 -0.240244,0 -0.240244,0 -0.414054,0.7018 -0.414055,0.7017 -0.57802,0.1451 -0.5780197,0.1451 -0.1731138,-0.273 -0.1731139,-0.2729 -0.0032,0.2608 -0.0032,0.2609 -0.9912566,-0.016 z m 1.5129706,-0.1986 c 0.114777,0 0.3495483,-0.091 0.5217139,-0.2023 l 0.3130284,-0.2023 -0.2086856,0 c -0.114777,0 -0.3495483,0.091 -0.521714,0.2023 l -0.3130283,0.2023 0.2086856,0 z m -2.086856,-0.8284 0.2434666,0 0,-0.313 0,-0.313 -0.3825904,0 -0.3825901,0 0,0.1739 c 0,0.096 0.062606,0.2365 0.1391238,0.313 0.076518,0.077 0.2486835,0.1391 0.3825901,0.1391 z m -0.7825709,-0.2118 c 0.028694,0 0.052171,-0.1277 0.052171,-0.2875 l 0,-0.2908 -0.310525,-0.1191 -0.310525,-0.1192 0.049668,0.2534 c 0.027317,0.1393 0.1435765,0.3223 0.2583536,0.4066 0.1147771,0.084 0.2321627,0.1548 0.260857,0.1566 z m -1.0955994,1.0466 c -0.057389,0 -0.1043428,-0.047 -0.1043428,-0.1044 0,-0.057 0.046954,-0.1043 0.1043428,-0.1043 0.057389,0 0.1043428,0.047 0.1043428,0.1043 0,0.057 -0.046954,0.1044 -0.1043428,0.1044 z m 4.4867402,-1.6695 -0.2782474,0 0.1391236,-0.1391 0.1391238,-0.1392 0.1391238,0.1392 0.1391236,0.1391 -0.2782474,0 z m 2.2085895,-0.016 -0.399981,0.016 0.126081,-0.1261 0.126081,-0.1261 0.2739,0.1096 0.273899,0.1096 -0.39998,0.016 z m 0.608666,-0.1922 c -0.05739,0 -0.104343,-0.047 -0.104343,-0.1043 0,-0.057 0.04695,-0.1044 0.104343,-0.1044 0.05739,0 0.104343,0.047 0.104343,0.1044 0,0.057 -0.04695,0.1043 -0.104343,0.1043 z m 0,-0.4174 c -0.05739,0 -0.104343,-0.047 -0.104343,-0.1043 0,-0.057 0.04695,-0.1043 0.104343,-0.1043 0.05739,0 0.104343,0.047 0.104343,0.1043 0,0.057 -0.04695,0.1043 -0.104343,0.1043 z m -0.834742,-0.626 c -0.05739,0 -0.104343,-0.047 -0.104343,-0.1044 0,-0.057 0.04695,-0.1043 0.104343,-0.1043 0.05739,0 0.104342,0.047 0.104342,0.1043 0,0.057 -0.04695,0.1044 -0.104342,0.1044 z m -5.4034987,-1.2521 c -0.045109,0 -0.1360699,-0.1409 -0.202136,-0.3131 l -0.1201202,-0.313 0.202136,0 0.202136,0 0,0.313 c 0,0.1722 -0.036907,0.3131 -0.082016,0.3131 z m -1.2744406,-0.2087 c -0.057389,0 -0.1043428,-0.047 -0.1043428,-0.1044 0,-0.057 0.046954,-0.1043 0.1043428,-0.1043 0.057389,0 0.1043428,0.047 0.1043428,0.1043 0,0.057 -0.046954,0.1044 -0.1043428,0.1044 z m 0.521714,0 -0.2782474,0 0.1391236,-0.1391 0.1391238,-0.1392 0.1391238,0.1392 0.1391236,0.1391 -0.2782474,0 z m -1.9477321,-0.6956 -0.1391238,0.1391 0,-0.2783 0,-0.2782 0.1391238,0.1391 0.1391236,0.1391 -0.1391236,0.1392 z m 7.0605294,-0.1392 c -0.05739,0 -0.104343,-0.047 -0.104343,-0.1043 0,-0.057 0.04695,-0.1043 0.104343,-0.1043 0.05739,0 0.104342,0.047 0.104342,0.1043 0,0.057 -0.04695,0.1043 -0.104342,0.1043 z m -5.6345113,-1.4608 c -0.057389,0 -0.1043428,-0.047 -0.1043428,-0.1043 0,-0.057 0.046954,-0.1043 0.1043428,-0.1043 0.057389,0 0.1043428,0.047 0.1043428,0.1043 0,0.057 -0.046954,0.1043 -0.1043428,0.1043 z"
         id="path7184" />
      <path
         style="fill:#493d33"
         d="m 5.7363033,1046.5363 -0.2902159,0 -0.1151132,-0.8521 -0.1151133,-0.8521 0.163959,-0.1656 0.1639589,-0.1656 0.6065701,0.3045 c 0.3336136,0.1675 0.870114,0.4067 1.1922229,0.5317 l 0.5856527,0.2271 -0.1139807,0.1845 -0.1139807,0.1844 0.6760987,0.1077 0.6760988,0.1077 0.2316917,-0.293 c 0.1274303,-0.1612 0.2973125,-0.293 0.3775158,-0.293 l 0.145824,0 -0.1289748,0.2087 -0.1289748,0.2086 0.2261668,0 0.2261667,0 0.206421,-0.5429 0.206421,-0.5429 0.327196,0.1255 c 0.179957,0.069 0.366469,0.1256 0.41447,0.1256 0.048,0 -0.08354,0.1708 -0.292323,0.3796 -0.208779,0.2088 -0.774131,0.5375 -1.2563369,0.7304 l -0.8767381,0.3508 -0.8169339,0 -0.816934,0 -0.5352992,-0.2035 -0.5352994,-0.2035 0,0.1687 0,0.1687 -0.2902162,0 z m 1.2293013,-0.5565 0.2434666,0 0,-0.313 0,-0.313 -0.3825904,0 -0.3825901,0 0,0.1739 c 0,0.096 0.062606,0.2365 0.1391238,0.313 0.076518,0.077 0.2486835,0.1391 0.3825901,0.1391 z m -0.7825709,-0.2118 c 0.028694,0 0.052171,-0.1277 0.052171,-0.2875 l 0,-0.2908 -0.310525,-0.1191 -0.310525,-0.1192 0.049668,0.2534 c 0.027317,0.1393 0.1435765,0.3223 0.2583536,0.4066 0.1147771,0.084 0.2321627,0.1548 0.260857,0.1566 z m 2.3477129,0 c -0.1147771,0 -0.2086856,-0.094 -0.2086856,-0.2087 0,-0.1148 0.093908,-0.2087 0.2086856,-0.2087 0.114777,0 0.2086856,0.094 0.2086856,0.2087 0,0.1147 -0.093909,0.2087 -0.2086856,0.2087 z m 3.2520174,-0.6426 -0.399981,0.016 0.126081,-0.1261 0.126081,-0.1261 0.2739,0.1096 0.273899,0.1096 -0.39998,0.016 z m 0.608666,-0.1922 c -0.05739,0 -0.104343,-0.047 -0.104343,-0.1043 0,-0.057 0.04695,-0.1044 0.104343,-0.1044 0.05739,0 0.104343,0.047 0.104343,0.1044 0,0.057 -0.04695,0.1043 -0.104343,0.1043 z m -1.94736,-0.369 -0.220487,0.2204 0.129242,-0.4942 0.129242,-0.4942 0.09124,0.2737 0.09125,0.2738 -0.220487,0.2205 z m 1.94736,-0.048 c -0.05739,0 -0.104343,-0.047 -0.104343,-0.1043 0,-0.057 0.04695,-0.1043 0.104343,-0.1043 0.05739,0 0.104343,0.047 0.104343,0.1043 0,0.057 -0.04695,0.1043 -0.104343,0.1043 z m -6.6779389,-0.626 c -0.057389,0 -0.1043428,-0.047 -0.1043428,-0.1044 0,-0.057 0.046954,-0.1043 0.1043428,-0.1043 0.057389,0 0.1043428,0.047 0.1043428,0.1043 0,0.057 -0.046954,0.1044 -0.1043428,0.1044 z m 5.8431969,0 c -0.05739,0 -0.104343,-0.047 -0.104343,-0.1044 0,-0.057 0.04695,-0.1043 0.104343,-0.1043 0.05739,0 0.104342,0.047 0.104342,0.1043 0,0.057 -0.04695,0.1044 -0.104342,0.1044 z m -1.252114,-0.2087 c -0.05739,0 -0.104343,-0.047 -0.104343,-0.1043 0,-0.057 0.04695,-0.1044 0.104343,-0.1044 0.05739,0 0.104343,0.047 0.104343,0.1044 0,0.057 -0.04695,0.1043 -0.104343,0.1043 z m -4.1389307,-1.113 -0.1391238,0.1391 0,-0.2782 0,-0.2783 0.1391238,0.1392 0.1391236,0.1391 -0.1391236,0.1391 z m -1.2868946,-0.1391 c -0.057389,0 -0.1043428,-0.047 -0.1043428,-0.1044 0,-0.057 0.046954,-0.1043 0.1043428,-0.1043 0.057389,0 0.1043428,0.047 0.1043428,0.1043 0,0.057 -0.046954,0.1044 -0.1043428,0.1044 z m -1.4260181,-0.6956 -0.1391238,0.1391 0,-0.2783 0,-0.2782 0.1391238,0.1391 0.1391236,0.1391 -0.1391236,0.1392 z m 7.0605294,-0.1392 c -0.05739,0 -0.104343,-0.047 -0.104343,-0.1043 0,-0.057 0.04695,-0.1043 0.104343,-0.1043 0.05739,0 0.104342,0.047 0.104342,0.1043 0,0.057 -0.04695,0.1043 -0.104342,0.1043 z m -5.6345113,-1.4608 c -0.057389,0 -0.1043428,-0.047 -0.1043428,-0.1043 0,-0.057 0.046954,-0.1043 0.1043428,-0.1043 0.057389,0 0.1043428,0.047 0.1043428,0.1043 0,0.057 -0.046954,0.1043 -0.1043428,0.1043 z"
         id="path7182" />
    </g>
  </g>
</svg>
