<?xml version="1.0" encoding="UTF-8" standalone="no"?>
<!-- Created with Inkscape (http://www.inkscape.org/) -->

<svg
   xmlns:dc="http://purl.org/dc/elements/1.1/"
   xmlns:cc="http://creativecommons.org/ns#"
   xmlns:rdf="http://www.w3.org/1999/02/22-rdf-syntax-ns#"
   xmlns:svg="http://www.w3.org/2000/svg"
   xmlns="http://www.w3.org/2000/svg"
   xmlns:sodipodi="http://sodipodi.sourceforge.net/DTD/sodipodi-0.dtd"
   xmlns:inkscape="http://www.inkscape.org/namespaces/inkscape"
   width="16"
   height="16"
   id="svg2"
   version="1.1"
   inkscape:version="0.47 r22583"
   sodipodi:docname="GLOBE-64.svg">
  <defs
     id="defs4">
    <inkscape:perspective
       sodipodi:type="inkscape:persp3d"
       inkscape:vp_x="0 : 526.18109 : 1"
       inkscape:vp_y="0 : 1000 : 0"
       inkscape:vp_z="744.09448 : 526.18109 : 1"
       inkscape:persp3d-origin="372.04724 : 350.78739 : 1"
       id="perspective10" />
    <inkscape:perspective
       id="perspective2824"
       inkscape:persp3d-origin="0.5 : 0.33333333 : 1"
       inkscape:vp_z="1 : 0.5 : 1"
       inkscape:vp_y="0 : 1000 : 0"
       inkscape:vp_x="0 : 0.5 : 1"
       sodipodi:type="inkscape:persp3d" />
    <inkscape:perspective
       id="perspective5878"
       inkscape:persp3d-origin="0.5 : 0.33333333 : 1"
       inkscape:vp_z="1 : 0.5 : 1"
       inkscape:vp_y="0 : 1000 : 0"
       inkscape:vp_x="0 : 0.5 : 1"
       sodipodi:type="inkscape:persp3d" />
    <inkscape:perspective
       id="perspective5921"
       inkscape:persp3d-origin="0.5 : 0.33333333 : 1"
       inkscape:vp_z="1 : 0.5 : 1"
       inkscape:vp_y="0 : 1000 : 0"
       inkscape:vp_x="0 : 0.5 : 1"
       sodipodi:type="inkscape:persp3d" />
    <inkscape:perspective
       id="perspective5943"
       inkscape:persp3d-origin="0.5 : 0.33333333 : 1"
       inkscape:vp_z="1 : 0.5 : 1"
       inkscape:vp_y="0 : 1000 : 0"
       inkscape:vp_x="0 : 0.5 : 1"
       sodipodi:type="inkscape:persp3d" />
    <inkscape:perspective
       id="perspective5989"
       inkscape:persp3d-origin="0.5 : 0.33333333 : 1"
       inkscape:vp_z="1 : 0.5 : 1"
       inkscape:vp_y="0 : 1000 : 0"
       inkscape:vp_x="0 : 0.5 : 1"
       sodipodi:type="inkscape:persp3d" />
    <inkscape:perspective
       id="perspective6011"
       inkscape:persp3d-origin="0.5 : 0.33333333 : 1"
       inkscape:vp_z="1 : 0.5 : 1"
       inkscape:vp_y="0 : 1000 : 0"
       inkscape:vp_x="0 : 0.5 : 1"
       sodipodi:type="inkscape:persp3d" />
    <inkscape:perspective
       id="perspective6033"
       inkscape:persp3d-origin="0.5 : 0.33333333 : 1"
       inkscape:vp_z="1 : 0.5 : 1"
       inkscape:vp_y="0 : 1000 : 0"
       inkscape:vp_x="0 : 0.5 : 1"
       sodipodi:type="inkscape:persp3d" />
    <inkscape:perspective
       id="perspective6245"
       inkscape:persp3d-origin="0.5 : 0.33333333 : 1"
       inkscape:vp_z="1 : 0.5 : 1"
       inkscape:vp_y="0 : 1000 : 0"
       inkscape:vp_x="0 : 0.5 : 1"
       sodipodi:type="inkscape:persp3d" />
    <inkscape:perspective
       id="perspective6269"
       inkscape:persp3d-origin="0.5 : 0.33333333 : 1"
       inkscape:vp_z="1 : 0.5 : 1"
       inkscape:vp_y="0 : 1000 : 0"
       inkscape:vp_x="0 : 0.5 : 1"
       sodipodi:type="inkscape:persp3d" />
    <inkscape:perspective
       id="perspective6364"
       inkscape:persp3d-origin="0.5 : 0.33333333 : 1"
       inkscape:vp_z="1 : 0.5 : 1"
       inkscape:vp_y="0 : 1000 : 0"
       inkscape:vp_x="0 : 0.5 : 1"
       sodipodi:type="inkscape:persp3d" />
    <inkscape:perspective
       id="perspective6396"
       inkscape:persp3d-origin="0.5 : 0.33333333 : 1"
       inkscape:vp_z="1 : 0.5 : 1"
       inkscape:vp_y="0 : 1000 : 0"
       inkscape:vp_x="0 : 0.5 : 1"
       sodipodi:type="inkscape:persp3d" />
    <inkscape:perspective
       id="perspective6438"
       inkscape:persp3d-origin="0.5 : 0.33333333 : 1"
       inkscape:vp_z="1 : 0.5 : 1"
       inkscape:vp_y="0 : 1000 : 0"
       inkscape:vp_x="0 : 0.5 : 1"
       sodipodi:type="inkscape:persp3d" />
    <inkscape:perspective
       id="perspective6460"
       inkscape:persp3d-origin="0.5 : 0.33333333 : 1"
       inkscape:vp_z="1 : 0.5 : 1"
       inkscape:vp_y="0 : 1000 : 0"
       inkscape:vp_x="0 : 0.5 : 1"
       sodipodi:type="inkscape:persp3d" />
    <inkscape:perspective
       id="perspective6480"
       inkscape:persp3d-origin="0.5 : 0.33333333 : 1"
       inkscape:vp_z="1 : 0.5 : 1"
       inkscape:vp_y="0 : 1000 : 0"
       inkscape:vp_x="0 : 0.5 : 1"
       sodipodi:type="inkscape:persp3d" />
    <inkscape:perspective
       id="perspective6504"
       inkscape:persp3d-origin="0.5 : 0.33333333 : 1"
       inkscape:vp_z="1 : 0.5 : 1"
       inkscape:vp_y="0 : 1000 : 0"
       inkscape:vp_x="0 : 0.5 : 1"
       sodipodi:type="inkscape:persp3d" />
    <inkscape:perspective
       id="perspective6524"
       inkscape:persp3d-origin="0.5 : 0.33333333 : 1"
       inkscape:vp_z="1 : 0.5 : 1"
       inkscape:vp_y="0 : 1000 : 0"
       inkscape:vp_x="0 : 0.5 : 1"
       sodipodi:type="inkscape:persp3d" />
    <inkscape:perspective
       id="perspective6548"
       inkscape:persp3d-origin="0.5 : 0.33333333 : 1"
       inkscape:vp_z="1 : 0.5 : 1"
       inkscape:vp_y="0 : 1000 : 0"
       inkscape:vp_x="0 : 0.5 : 1"
       sodipodi:type="inkscape:persp3d" />
    <inkscape:perspective
       id="perspective6572"
       inkscape:persp3d-origin="0.5 : 0.33333333 : 1"
       inkscape:vp_z="1 : 0.5 : 1"
       inkscape:vp_y="0 : 1000 : 0"
       inkscape:vp_x="0 : 0.5 : 1"
       sodipodi:type="inkscape:persp3d" />
    <inkscape:perspective
       id="perspective6594"
       inkscape:persp3d-origin="0.5 : 0.33333333 : 1"
       inkscape:vp_z="1 : 0.5 : 1"
       inkscape:vp_y="0 : 1000 : 0"
       inkscape:vp_x="0 : 0.5 : 1"
       sodipodi:type="inkscape:persp3d" />
    <inkscape:perspective
       id="perspective6614"
       inkscape:persp3d-origin="0.5 : 0.33333333 : 1"
       inkscape:vp_z="1 : 0.5 : 1"
       inkscape:vp_y="0 : 1000 : 0"
       inkscape:vp_x="0 : 0.5 : 1"
       sodipodi:type="inkscape:persp3d" />
    <inkscape:perspective
       id="perspective6650"
       inkscape:persp3d-origin="0.5 : 0.33333333 : 1"
       inkscape:vp_z="1 : 0.5 : 1"
       inkscape:vp_y="0 : 1000 : 0"
       inkscape:vp_x="0 : 0.5 : 1"
       sodipodi:type="inkscape:persp3d" />
    <inkscape:perspective
       id="perspective6676"
       inkscape:persp3d-origin="0.5 : 0.33333333 : 1"
       inkscape:vp_z="1 : 0.5 : 1"
       inkscape:vp_y="0 : 1000 : 0"
       inkscape:vp_x="0 : 0.5 : 1"
       sodipodi:type="inkscape:persp3d" />
    <inkscape:perspective
       id="perspective6710"
       inkscape:persp3d-origin="0.5 : 0.33333333 : 1"
       inkscape:vp_z="1 : 0.5 : 1"
       inkscape:vp_y="0 : 1000 : 0"
       inkscape:vp_x="0 : 0.5 : 1"
       sodipodi:type="inkscape:persp3d" />
    <inkscape:perspective
       id="perspective6748"
       inkscape:persp3d-origin="0.5 : 0.33333333 : 1"
       inkscape:vp_z="1 : 0.5 : 1"
       inkscape:vp_y="0 : 1000 : 0"
       inkscape:vp_x="0 : 0.5 : 1"
       sodipodi:type="inkscape:persp3d" />
    <inkscape:perspective
       id="perspective6786"
       inkscape:persp3d-origin="0.5 : 0.33333333 : 1"
       inkscape:vp_z="1 : 0.5 : 1"
       inkscape:vp_y="0 : 1000 : 0"
       inkscape:vp_x="0 : 0.5 : 1"
       sodipodi:type="inkscape:persp3d" />
    <inkscape:perspective
       id="perspective6810"
       inkscape:persp3d-origin="0.5 : 0.33333333 : 1"
       inkscape:vp_z="1 : 0.5 : 1"
       inkscape:vp_y="0 : 1000 : 0"
       inkscape:vp_x="0 : 0.5 : 1"
       sodipodi:type="inkscape:persp3d" />
    <inkscape:perspective
       id="perspective6848"
       inkscape:persp3d-origin="0.5 : 0.33333333 : 1"
       inkscape:vp_z="1 : 0.5 : 1"
       inkscape:vp_y="0 : 1000 : 0"
       inkscape:vp_x="0 : 0.5 : 1"
       sodipodi:type="inkscape:persp3d" />
    <inkscape:perspective
       id="perspective6870"
       inkscape:persp3d-origin="0.5 : 0.33333333 : 1"
       inkscape:vp_z="1 : 0.5 : 1"
       inkscape:vp_y="0 : 1000 : 0"
       inkscape:vp_x="0 : 0.5 : 1"
       sodipodi:type="inkscape:persp3d" />
    <inkscape:perspective
       id="perspective6908"
       inkscape:persp3d-origin="0.5 : 0.33333333 : 1"
       inkscape:vp_z="1 : 0.5 : 1"
       inkscape:vp_y="0 : 1000 : 0"
       inkscape:vp_x="0 : 0.5 : 1"
       sodipodi:type="inkscape:persp3d" />
    <inkscape:perspective
       id="perspective6946"
       inkscape:persp3d-origin="0.5 : 0.33333333 : 1"
       inkscape:vp_z="1 : 0.5 : 1"
       inkscape:vp_y="0 : 1000 : 0"
       inkscape:vp_x="0 : 0.5 : 1"
       sodipodi:type="inkscape:persp3d" />
    <inkscape:perspective
       id="perspective6970"
       inkscape:persp3d-origin="0.5 : 0.33333333 : 1"
       inkscape:vp_z="1 : 0.5 : 1"
       inkscape:vp_y="0 : 1000 : 0"
       inkscape:vp_x="0 : 0.5 : 1"
       sodipodi:type="inkscape:persp3d" />
    <inkscape:perspective
       id="perspective7008"
       inkscape:persp3d-origin="0.5 : 0.33333333 : 1"
       inkscape:vp_z="1 : 0.5 : 1"
       inkscape:vp_y="0 : 1000 : 0"
       inkscape:vp_x="0 : 0.5 : 1"
       sodipodi:type="inkscape:persp3d" />
    <inkscape:perspective
       id="perspective7036"
       inkscape:persp3d-origin="0.5 : 0.33333333 : 1"
       inkscape:vp_z="1 : 0.5 : 1"
       inkscape:vp_y="0 : 1000 : 0"
       inkscape:vp_x="0 : 0.5 : 1"
       sodipodi:type="inkscape:persp3d" />
    <inkscape:perspective
       id="perspective7060"
       inkscape:persp3d-origin="0.5 : 0.33333333 : 1"
       inkscape:vp_z="1 : 0.5 : 1"
       inkscape:vp_y="0 : 1000 : 0"
       inkscape:vp_x="0 : 0.5 : 1"
       sodipodi:type="inkscape:persp3d" />
    <inkscape:perspective
       id="perspective7098"
       inkscape:persp3d-origin="0.5 : 0.33333333 : 1"
       inkscape:vp_z="1 : 0.5 : 1"
       inkscape:vp_y="0 : 1000 : 0"
       inkscape:vp_x="0 : 0.5 : 1"
       sodipodi:type="inkscape:persp3d" />
    <inkscape:perspective
       id="perspective7136"
       inkscape:persp3d-origin="0.5 : 0.33333333 : 1"
       inkscape:vp_z="1 : 0.5 : 1"
       inkscape:vp_y="0 : 1000 : 0"
       inkscape:vp_x="0 : 0.5 : 1"
       sodipodi:type="inkscape:persp3d" />
    <inkscape:perspective
       id="perspective7174"
       inkscape:persp3d-origin="0.5 : 0.33333333 : 1"
       inkscape:vp_z="1 : 0.5 : 1"
       inkscape:vp_y="0 : 1000 : 0"
       inkscape:vp_x="0 : 0.5 : 1"
       sodipodi:type="inkscape:persp3d" />
    <inkscape:perspective
       id="perspective7212"
       inkscape:persp3d-origin="0.5 : 0.33333333 : 1"
       inkscape:vp_z="1 : 0.5 : 1"
       inkscape:vp_y="0 : 1000 : 0"
       inkscape:vp_x="0 : 0.5 : 1"
       sodipodi:type="inkscape:persp3d" />
    <inkscape:perspective
       id="perspective7234"
       inkscape:persp3d-origin="0.5 : 0.33333333 : 1"
       inkscape:vp_z="1 : 0.5 : 1"
       inkscape:vp_y="0 : 1000 : 0"
       inkscape:vp_x="0 : 0.5 : 1"
       sodipodi:type="inkscape:persp3d" />
  </defs>
  <sodipodi:namedview
     id="base"
     pagecolor="#ffffff"
     bordercolor="#666666"
     borderopacity="1.0"
     inkscape:pageopacity="0.0"
     inkscape:pageshadow="2"
     inkscape:zoom="12.263883"
     inkscape:cx="8"
     inkscape:cy="8"
     inkscape:document-units="px"
     inkscape:current-layer="layer1"
     showgrid="true"
     inkscape:window-width="1280"
     inkscape:window-height="780"
     inkscape:window-x="-8"
     inkscape:window-y="-8"
     inkscape:window-maximized="1">
    <inkscape:grid
       type="xygrid"
       id="grid6324"
       empspacing="5"
       visible="true"
       enabled="true"
       snapvisiblegridlinesonly="true" />
  </sodipodi:namedview>
  <metadata
     id="metadata7">
    <rdf:RDF>
      <cc:Work
         rdf:about="">
        <dc:format>image/svg+xml</dc:format>
        <dc:type
           rdf:resource="http://purl.org/dc/dcmitype/StillImage" />
        <dc:title></dc:title>
      </cc:Work>
    </rdf:RDF>
  </metadata>
  <g
     inkscape:label="Calque 1"
     inkscape:groupmode="layer"
     id="layer1"
     transform="translate(0,-1036.3622)">
    <g
       id="g7240"
       transform="translate(0.053093,0.2109)">
      <path
         style="fill:#43ea39"
         d="m 9.109375,1050.6139 -0.9140625,0.099 -0.8857507,-0.1763 -0.8857508,-0.1763 -1.0017686,-0.6428 -1.0017686,-0.6429 -0.558786,-0.8365 c -0.3073322,-0.4602 -0.6690813,-1.0923 -0.8038868,-1.4048 l -0.245101,-0.5681 0.00446,-1.4631 0.00446,-1.4631 0.3750677,-0.8258 c 0.2062872,-0.4542 0.6759342,-1.1684 1.0436598,-1.5873 l 0.6685923,-0.7614 1.0299522,-0.522 1.0299522,-0.5219 1.2227081,-0.095 1.2227081,-0.095 1.2187506,0.4541 1.21875,0.454 0.841526,0.8673 0.841527,0.8673 0.448182,1.1872 0.448181,1.1871 -0.09543,1.2187 -0.09543,1.2188 -0.460913,0.9775 -0.460914,0.9776 -0.582365,0.5824 -0.582365,0.5823 -1.065064,0.5049 -1.065064,0.5048 -0.9140631,0.099 z"
         id="path7262" />
      <path
         style="fill:#47ce2c"
         d="m 9.109375,1050.6139 -0.9140625,0.099 -0.8857507,-0.1763 -0.8857508,-0.1763 -1.0017686,-0.6428 -1.0017686,-0.6429 -0.558786,-0.8365 c -0.3073322,-0.4602 -0.6690813,-1.0923 -0.8038868,-1.4048 l -0.245101,-0.5681 0.00446,-1.4631 0.00446,-1.4631 0.3750677,-0.8258 c 0.2062872,-0.4542 0.6759342,-1.1684 1.0436598,-1.5873 l 0.6685923,-0.7614 1.0299522,-0.522 1.0299522,-0.5219 1.2227081,-0.095 1.2227081,-0.095 1.2187506,0.4541 1.21875,0.454 0.841526,0.8673 0.841527,0.8673 0.448182,1.1872 0.448181,1.1871 -0.09543,1.2187 -0.09543,1.2188 -0.460913,0.9775 -0.460914,0.9776 -0.582365,0.5824 -0.582365,0.5823 -1.065064,0.5049 -1.065064,0.5048 -0.9140631,0.099 z m -2.4439972,-0.9574 0.3111847,-0.021 0.3009929,-0.4063 c 0.165546,-0.2234 0.3026554,-0.4454 0.3046875,-0.4932 0.00203,-0.048 -0.23887,-0.1518 -0.5353376,-0.2311 l -0.5390322,-0.1442 -0.07684,0.6582 -0.07684,0.6582 0.3111844,-0.021 z m 6.2559132,-1.4613 0.663479,-0.7677 0.295249,-0.9942 0.295249,-0.9942 -0.123056,-0.8978 -0.123056,-0.8978 -0.189204,0 -0.189203,0 0.125716,-0.3961 0.125717,-0.3961 -0.294358,-0.5692 c -0.161896,-0.3131 -0.486528,-0.7432 -0.721403,-0.9557 l -0.427046,-0.3865 0,1.3518 0,1.3518 0.203125,0 0.203125,0 0,0.2877 0,0.2878 -0.215781,0.072 -0.215781,0.072 -0.03813,2.3001 -0.03812,2.3 0.663478,-0.7677 z m 0.916312,-3.1298 c -0.115354,0 -0.325359,-0.1394 -0.466677,-0.3096 -0.141318,-0.1703 -0.212887,-0.3537 -0.159043,-0.4075 0.05384,-0.054 0.26385,0.085 0.466678,0.3096 l 0.368778,0.4075 -0.209736,0 z m -7.2672905,-2.0313 c 0.055859,0 0.1015625,-0.046 0.1015625,-0.1016 0,-0.056 -0.045703,-0.1015 -0.1015625,-0.1015 -0.055859,0 -0.1015625,0.046 -0.1015625,0.1015 0,0.056 0.045703,0.1016 0.1015625,0.1016 z m -0.203125,-0.4062 c 0.055859,0 0.1015625,-0.046 0.1015625,-0.1016 0,-0.056 -0.045703,-0.1016 -0.1015625,-0.1016 -0.055859,0 -0.1015625,0.046 -0.1015625,0.1016 0,0.056 0.045703,0.1016 0.1015625,0.1016 z m -0.203125,-0.4063 c 0.055859,0 0.1015625,-0.046 0.1015625,-0.1016 0,-0.056 -0.045703,-0.1015 -0.1015625,-0.1015 -0.055859,0 -0.1015625,0.046 -0.1015625,0.1015 0,0.056 0.045703,0.1016 0.1015625,0.1016 z m 0.8125,-0.6094 c 0.055859,0 0.1015625,-0.046 0.1015625,-0.1015 0,-0.056 -0.045703,-0.1016 -0.1015625,-0.1016 -0.055859,0 -0.1015625,0.046 -0.1015625,0.1016 0,0.056 0.045703,0.1015 0.1015625,0.1015 z m -0.609375,-0.4062 c 0.055859,0 0.1015625,-0.046 0.1015625,-0.1016 0,-0.056 -0.045703,-0.1015 -0.1015625,-0.1015 -0.055859,0 -0.1015625,0.046 -0.1015625,0.1015 0,0.056 0.045703,0.1016 0.1015625,0.1016 z m 0.1611041,-1.3334 0.3642291,-0.1387 -0.1137083,-0.1137 -0.1137082,-0.1137 -0.2505209,0.2524 -0.2505208,0.2524 0.3642291,-0.1387 z"
         id="path7260" />
      <path
         style="fill:#1546cb"
         d="m 9.109375,1050.6139 -0.9140625,0.099 -0.8857507,-0.1763 -0.8857508,-0.1763 -1.0017686,-0.6428 -1.0017686,-0.6429 -0.558786,-0.8365 c -0.3073322,-0.4602 -0.6690813,-1.0923 -0.8038868,-1.4048 l -0.245101,-0.5681 0.00446,-1.4631 0.00446,-1.4631 0.3750677,-0.8258 c 0.2062872,-0.4542 0.6759342,-1.1684 1.0436598,-1.5873 l 0.6685923,-0.7614 1.0299522,-0.522 1.0299522,-0.5219 1.2227081,-0.095 1.2227081,-0.095 1.2187506,0.4541 1.21875,0.454 0.841526,0.8673 0.841527,0.8673 0.448182,1.1872 0.448181,1.1871 -0.09543,1.2187 -0.09543,1.2188 -0.460913,0.9775 -0.460914,0.9776 -0.582365,0.5824 -0.582365,0.5823 -1.065064,0.5049 -1.065064,0.5048 -0.9140631,0.099 z m -2.4550671,-0.817 c 0.17724,-0.049 0.4859224,-0.3095 0.6859607,-0.58 l 0.3637061,-0.492 -0.8050618,-0.3221 -0.8050618,-0.3221 -0.110863,-0.2889 -0.1108629,-0.2889 -0.3110626,0 -0.3110626,0 0,0.9075 0,0.9076 0.5410267,0.2835 0.5410269,0.2834 0.3222543,-0.088 z m 6.1122421,-1.4567 0.81124,-0.8892 0.298739,-1.006 0.298739,-1.0059 -0.123056,-0.8978 -0.123056,-0.8978 -0.189204,0 -0.189203,0 0.13091,-0.4125 0.130911,-0.4125 -0.537054,-0.9164 -0.537054,-0.9164 -0.829395,-0.6008 c -0.456167,-0.3304 -0.932354,-0.6008 -1.058192,-0.6008 l -0.228798,0 0.08003,0.8393 0.08004,0.8392 -0.277793,-0.1632 -0.277792,-0.1633 0.355468,0.4064 0.355469,0.4064 0,0.4072 c 0,0.2239 -0.0616,0.4688 -0.136886,0.5441 -0.07529,0.075 -0.146369,0.3535 -0.15796,0.6182 l -0.02107,0.4815 0.477194,-0.2175 0.477194,-0.2174 0.185468,0.2931 0.185468,0.2932 0.0031,-0.2539 0.0031,-0.2539 0.40625,0 0.40625,0 0,0.2031 c 0,0.1117 -0.184205,0.3873 -0.409344,0.6125 l -0.409343,0.4093 -0.495879,-0.1244 -0.495879,-0.1245 -0.103069,0.4768 c -0.05669,0.2623 -0.12922,0.9567 -0.161184,1.5431 l -0.05811,1.0662 0.651041,-0.1223 0.651042,-0.1222 0.132583,0.5282 0.132584,0.5283 -0.122377,0.3559 -0.122377,0.3559 0.811241,-0.8892 z m 1.071053,-3.2748 c -0.115354,0 -0.325359,-0.1394 -0.466677,-0.3096 -0.141318,-0.1703 -0.212887,-0.3537 -0.159043,-0.4075 0.05384,-0.054 0.26385,0.085 0.466678,0.3096 l 0.368778,0.4075 -0.209736,0 z m -8.2829155,-1.625 0.3046875,0 0,-0.2032 0,-0.2031 0.4102225,0 0.4102225,0 -0.096603,-0.5327 c -0.053132,-0.293 -0.1457458,-0.5819 -0.2058091,-0.642 l -0.1092059,-0.1092 -0.3773786,0.4351 -0.3773786,0.4352 -0.1317223,-0.1318 L 5.25,1042.357 l 0,0.5417 0,0.5417 0.3046875,0 z m -0.1613355,-1.5743 0.088028,-0.457 0.1889974,-0.025 c 0.1039487,-0.014 0.3032553,-0.037 0.4429037,-0.051 l 0.2539063,-0.025 0,-0.6675 0,-0.6676 0.3046875,-0.1926 0.3046875,-0.1926 -0.203125,0 c -0.1117188,0 -0.5001953,0.1788 -0.8632813,0.4002 L 5.25,1040.3875 l 0.027662,0.9678 0.027662,0.9679 0.088028,-0.4571 z m 1.6161738,-0.2031 0.1024534,-0.2539 -0.1024534,-0.2539 -0.1024534,-0.2539 0,0.5078 0,0.5078 0.1024534,-0.2539 z"
         id="path7258" />
      <path
         style="fill:#349958"
         d="m 9.109375,1050.6139 -0.9140625,0.099 -0.8857507,-0.1763 -0.8857508,-0.1763 -1.0017686,-0.6428 -1.0017686,-0.6429 -0.558786,-0.8365 c -0.3073322,-0.4602 -0.6690813,-1.0923 -0.8038868,-1.4048 l -0.245101,-0.5681 0.00446,-1.4631 0.00446,-1.4631 0.3750677,-0.8258 c 0.2062872,-0.4542 0.6759342,-1.1684 1.0436598,-1.5873 l 0.6685923,-0.7614 1.0299522,-0.522 1.0299522,-0.5219 1.2227081,-0.095 1.2227081,-0.095 1.2187506,0.4541 1.21875,0.454 0.841526,0.8673 0.841527,0.8673 0.448182,1.1872 0.448181,1.1871 -0.09543,1.2187 -0.09543,1.2188 -0.460913,0.9775 -0.460914,0.9776 -0.582365,0.5824 -0.582365,0.5823 -1.065064,0.5049 -1.065064,0.5048 -0.9140631,0.099 z m 2.043605,-0.7815 0.544191,-0.2814 0.941529,-1.0472 0.94153,-1.0472 0.285121,-1.0433 0.285121,-1.0433 0.01705,-0.8632 0.01705,-0.8633 -0.303226,0 -0.303225,0 0,-0.2151 0,-0.2152 0.203125,0.1256 0.203125,0.1255 -0.0019,-0.1643 c -0.0011,-0.09 -0.277863,-0.6455 -0.615142,-1.2336 l -0.613233,-1.0694 -0.83721,-0.6064 c -0.460465,-0.3336 -0.940168,-0.6065 -1.066006,-0.6065 l -0.228798,0 0.08003,0.8393 0.08004,0.8392 -0.277793,-0.1632 -0.277792,-0.1633 0.355468,0.4064 0.355469,0.4064 0,0.4072 c 0,0.2239 -0.0616,0.4688 -0.136886,0.5441 -0.07529,0.075 -0.146528,0.3571 -0.158314,0.6263 l -0.02143,0.4896 0.348086,-0.1863 c 0.191447,-0.1025 0.445501,-0.1863 0.564564,-0.1863 0.119064,0 0.216479,0.085 0.216479,0.189 l 0,0.189 -0.453846,0.065 -0.453846,0.065 -0.05654,1.4219 c -0.0311,0.782 -0.09489,1.5908 -0.141766,1.7974 l -0.08523,0.3756 0.443269,-0.1116 0.443269,-0.1115 -0.384274,0.2872 c -0.211351,0.158 -0.475481,0.3177 -0.586956,0.3548 l -0.202681,0.068 -0.05381,0.803 -0.05381,0.8031 0.222502,0.1375 0.222503,0.1375 0.54419,-0.2814 z m 0.850926,-0.839 -0.152343,0.093 -0.03251,-0.8248 -0.03251,-0.8249 0.181744,0.2871 c 0.09996,0.158 0.183144,0.4874 0.184855,0.7322 0.0017,0.2448 -0.06545,0.4867 -0.149234,0.5377 z m 1.833697,-3.928 c -0.115354,0 -0.325359,-0.1394 -0.466677,-0.3096 -0.141318,-0.1703 -0.212887,-0.3537 -0.159043,-0.4075 0.05384,-0.054 0.26385,0.085 0.466678,0.3096 l 0.368778,0.4075 -0.209736,0 z m -1.935259,-0.2063 c -0.139649,0 -0.382176,-0.084 -0.53895,-0.1836 l -0.285044,-0.1804 0.538806,0.031 0.538807,0.031 1.44e-4,0.1524 c 7.8e-5,0.084 -0.114115,0.1509 -0.253763,0.1492 z m 0.761719,-0.6062 c -0.05586,0 -0.101563,-0.046 -0.101563,-0.1016 0,-0.056 0.0457,-0.1016 0.101563,-0.1016 0.05586,0 0.101562,0.046 0.101562,0.1016 0,0.056 -0.0457,0.1016 -0.101562,0.1016 z m -0.304688,-0.3474 -0.40625,0.1062 0,-0.1841 0,-0.1841 0.40625,0 c 0.223438,0 0.40625,0.035 0.40625,0.078 0,0.043 -0.182812,0.1257 -0.40625,0.1842 z m -5.7050671,5.8914 c 0.17724,-0.049 0.4859224,-0.3095 0.6859607,-0.58 l 0.3637061,-0.492 -0.8050618,-0.3221 -0.8050618,-0.3221 -0.110863,-0.2889 -0.1108629,-0.2889 -0.3110626,0 -0.3110626,0 0,0.9075 0,0.9076 0.5410267,0.2835 0.5410269,0.2834 0.3222543,-0.088 z m -1.0996204,-6.3565 0.3046875,0 0,-0.2032 0,-0.2031 0.4102225,0 0.4102225,0 -0.096603,-0.5327 c -0.053132,-0.293 -0.1457458,-0.5819 -0.2058091,-0.642 l -0.1092059,-0.1092 -0.3773786,0.4351 -0.3773786,0.4352 -0.1317223,-0.1318 L 5.25,1042.357 l 0,0.5417 0,0.5417 0.3046875,0 z m 4.6718755,-0.4063 c 0.05586,0 0.101562,-0.046 0.101562,-0.1016 0,-0.056 -0.0457,-0.1015 -0.101562,-0.1015 -0.05586,0 -0.101563,0.046 -0.101563,0.1015 0,0.056 0.0457,0.1016 0.101563,0.1016 z m -4.833211,-1.168 0.088028,-0.457 0.1889974,-0.025 c 0.1039487,-0.014 0.3032553,-0.037 0.4429037,-0.051 l 0.2539063,-0.025 0,-0.6675 0,-0.6676 0.3046875,-0.1926 0.3046875,-0.1926 -0.203125,0 c -0.1117188,0 -0.5001953,0.1788 -0.8632813,0.4002 L 5.25,1040.3875 l 0.027662,0.9678 0.027662,0.9679 0.088028,-0.4571 z m 1.6161738,-0.2031 0.1024534,-0.2539 -0.1024534,-0.2539 -0.1024534,-0.2539 0,0.5078 0,0.5078 0.1024534,-0.2539 z m 3.4540162,-0.7279 0.135416,-0.1354 -0.135416,-0.1354 -0.135417,-0.1354 0,0.2708 0,0.2709 0.135417,-0.1355 z"
         id="path7256" />
      <path
         style="fill:#1f5e9c"
         d="m 8.8227415,1050.4928 -1.643054,0.045 -0.609375,-0.2266 c -0.3351563,-0.1246 -0.9978516,-0.503 -1.4726563,-0.8408 -0.4748046,-0.3378 -0.8741055,-0.7129 -0.8873355,-0.8336 -0.013229,-0.1207 -0.013229,-0.288 0,-0.3718 l 0.024054,-0.1524 -0.2247958,0.051 -0.2247958,0.051 -0.4353604,-0.8125 -0.4353605,-0.8125 0,-1.8441 0,-1.844 0.6293429,-0.9997 0.6293429,-0.9997 0.2490365,0.056 0.2490368,0.056 -0.1118709,-0.181 -0.1118707,-0.181 0.3506786,-0.3082 c 0.1928735,-0.1695 0.7307674,-0.4992 1.1953202,-0.7327 l 0.8446415,-0.4245 0.8217891,-0.1314 0.8217891,-0.1314 0.9273446,0.139 0.9273452,0.1391 -0.116044,0.1878 -0.116044,0.1877 0.295544,-0.1134 0.295544,-0.1134 0.822116,0.4194 0.822115,0.4194 0.710249,0.9302 0.71025,0.9302 0.234135,0.7094 c 0.128775,0.3902 0.193968,0.7496 0.144873,0.7987 -0.04909,0.049 -0.193374,-0.2582 -0.320623,-0.6829 l -0.231361,-0.7722 -0.735633,-0.8595 -0.735634,-0.8594 -0.538206,-0.2783 c -0.296014,-0.1531 -0.628115,-0.2649 -0.738003,-0.2486 l -0.199797,0.03 0.06398,0.3776 0.06398,0.3777 -0.219654,-0.1357 -0.219655,-0.1358 0,0.3287 0,0.3286 0.203125,-0.1255 0.203125,-0.1256 0,0.3287 0,0.3287 -0.189263,-0.117 -0.189263,-0.117 0.303448,0.6083 0.303448,0.6083 -0.225446,0.36 -0.225447,0.36 0.124544,-0.4558 0.124544,-0.4557 -0.31797,0.122 -0.31797,0.122 -0.03044,-0.6819 -0.03043,-0.6819 -0.085805,0.5709 -0.085805,0.5709 0.242673,0.2924 0.242674,0.2924 -0.278778,0.024 c -0.1533269,0.013 -0.3473316,0.013 -0.4311206,0 -0.083789,-0.013 -0.1523438,0.078 -0.1523438,0.2028 l 0,0.2268 0.4145952,-0.1084 0.4145942,-0.1084 -0.130916,0.4402 -0.130916,0.4402 0.339535,-0.4063 0.339534,-0.4062 -0.124147,0.578 -0.124148,0.578 0.229358,0.2764 0.229359,0.2763 -0.107062,0.1733 c -0.05888,0.095 -0.126212,0.8076 -0.149616,1.5831 l -0.04255,1.4099 -0.199776,0.1303 -0.199775,0.1304 -0.06199,0.8175 -0.06198,0.8175 0.265805,0.102 0.265804,0.102 0.645951,-0.3929 0.645951,-0.3928 -0.122166,-0.1977 -0.122167,-0.1976 0.294418,0.113 0.294418,0.1129 0.504652,-0.6739 c 0.277559,-0.3706 0.663039,-0.9867 0.856622,-1.369 l 0.351971,-0.6951 0.08369,-1.2231 c 0.04603,-0.6727 0.139046,-1.2739 0.206701,-1.3361 l 0.123009,-0.1131 -0.104168,1.3601 -0.104169,1.3601 -0.684428,1.2463 -0.684429,1.2462 -1.200697,0.7452 -1.200696,0.7453 -1.6430529,0.045 z m -2.443596,-0.5538 c 0.1182957,7e-4 0.3512977,-0.1129 0.5177822,-0.2526 0.1664848,-0.1396 0.4213688,-0.4111 0.5664092,-0.6032 l 0.2637099,-0.3493 -0.7778385,-0.3616 -0.7778384,-0.3616 -0.4214055,-0.4826 -0.4214054,-0.4826 -0.050998,0.9852 c -0.028049,0.5418 -0.092164,1.0263 -0.1424788,1.0767 -0.050314,0.05 0.1606228,0.2577 0.4687496,0.4609 0.308127,0.2031 0.6570181,0.37 0.7753137,0.3707 z m 3.4651427,-2.233 c 0.055859,0 0.04507,-0.091 -0.023976,-0.2031 -0.069046,-0.1118 -0.1712413,-0.2032 -0.2271007,-0.2032 -0.055859,0 -0.04507,0.091 0.023976,0.2032 0.069046,0.1117 0.1712413,0.2031 0.2271007,0.2031 z m -0.2271007,-1.4219 c 0.055859,0 0.1015625,-0.046 0.1015625,-0.1016 0,-0.056 -0.045703,-0.1015 -0.1015625,-0.1015 -0.055859,0 -0.1015625,0.046 -0.1015625,0.1015 0,0.056 0.045703,0.1016 0.1015625,0.1016 z m 0.4062505,-0.6094 c 0.05586,0 0.101562,-0.046 0.101562,-0.1015 0,-0.056 -0.0457,-0.1016 -0.101562,-0.1016 -0.05586,0 -0.101563,0.046 -0.101563,0.1016 0,0.056 0.045703,0.1015 0.101563,0.1015 z m -5.6251671,-0.2993 0.1137083,-0.1137 -0.2523988,-0.2505 -0.2523989,-0.2505 0.1386905,0.3642 0.1386905,0.3642 0.1137084,-0.1137 z m 6.0417611,-0.2406 c 0.161889,-0.062 0.294343,-0.1434 0.294343,-0.1808 0,-0.037 -0.08183,-0.1184 -0.181841,-0.1802 l -0.18184,-0.1124 -0.112502,0.2932 -0.112503,0.2932 0.294343,-0.113 z m -0.5858653,-0.5434 0.1354166,-0.1354 -0.1354166,-0.1354 -0.1354167,-0.1355 0,0.2709 0,0.2708 0.1354167,-0.1354 z m -4.9088542,-0.7448 c 0.055859,0 0.1015625,-0.046 0.1015625,-0.1016 0,-0.056 -0.045703,-0.1015 -0.1015625,-0.1015 -0.055859,0 -0.1015625,0.046 -0.1015625,0.1015 0,0.056 0.045703,0.1016 0.1015625,0.1016 z m 0.7159669,-0.2902 0.4112791,0 -0.1002168,-0.2611 -0.1002165,-0.2612 0.1866566,0 c 0.102661,0 0.2798252,0.16 0.3936981,0.3555 l 0.2070416,0.3554 0.00618,-0.8513 0.00618,-0.8512 -0.2360215,-0.1459 -0.2360215,-0.1459 -0.3481372,0.4299 -0.3481371,0.43 -0.1267789,-0.1268 L 5.25,1042.357 l 0,0.5997 0,0.5997 0.4112794,0 z m -0.227171,-1.3348 0.1841087,0 -0.1062368,-0.4062 -0.1062368,-0.4063 0.5378782,0 0.5378785,0 0.1247861,-0.3252 0.1247864,-0.3252 -0.238758,-0.1475 -0.2387578,-0.1476 0.4270269,-0.5429 c 0.2348649,-0.2986 0.3701502,-0.5428 0.3006343,-0.5428 -0.069516,0 -0.4189236,0.1498 -0.7764615,0.333 -0.357538,0.1831 -0.7172241,0.4345 -0.7993024,0.5586 l -0.1492333,0.2255 -0.00311,0.8633 -0.00311,0.8633 0.1841084,0 z m 3.3705791,0 c 0.055859,0 0.1015625,-0.046 0.1015625,-0.1016 0,-0.056 -0.045703,-0.1015 -0.1015625,-0.1015 -0.055859,0 -0.1015625,0.046 -0.1015625,0.1015 0,0.056 0.045703,0.1016 0.1015625,0.1016 z m 1.6250005,-0.2031 c 0.05586,0 0.101562,-0.046 0.101562,-0.1016 0,-0.056 -0.0457,-0.1015 -0.101562,-0.1015 -0.05586,0 -0.101563,0.046 -0.101563,0.1015 0,0.056 0.0457,0.1016 0.101563,0.1016 z m -3.4411377,-0.2031 c 0.049266,0 0.086795,-0.2514 0.083398,-0.5586 l -0.00618,-0.5586 -0.2079419,0.357 -0.2079419,0.3571 0.1245441,0.2015 c 0.068499,0.1109 0.1648528,0.2016 0.2141189,0.2016 z m -0.1812586,-1.2865 0.1354166,-0.1354 -0.1354166,-0.1354 -0.1354167,-0.1355 0,0.2709 0,0.2708 0.1354167,-0.1354 z m 2.3616249,-1.0625 0.3642291,-0.1387 -0.1137083,-0.1137 -0.1137082,-0.1138 -0.2505209,0.2524 -0.2505208,0.2524 0.3642291,-0.1386 z m 2.7165004,8.5781 -0.135417,0.1354 0,-0.2708 0,-0.2708 0.135417,0.1354 0.135416,0.1354 -0.135416,0.1354 z m -0.744792,-0.237 c -0.111719,0.069 -0.203125,0.08 -0.203125,0.024 0,-0.056 0.09141,-0.158 0.203125,-0.2271 0.111719,-0.069 0.203125,-0.08 0.203125,-0.024 0,0.056 -0.09141,0.1581 -0.203125,0.2271 z m 0.8125,-3.0468 c -0.111719,0.069 -0.203125,0.08 -0.203125,0.024 0,-0.056 0.09141,-0.158 0.203125,-0.2271 0.111719,-0.069 0.203125,-0.08 0.203125,-0.024 0,0.056 -0.09141,0.158 -0.203125,0.2271 z m 1.523438,0.1015 c -0.05586,0 -0.101563,-0.046 -0.101563,-0.1015 0,-0.056 0.0457,-0.1016 0.101563,-0.1016 0.05586,0 0.101562,0.046 0.101562,0.1016 0,0.056 -0.0457,0.1015 -0.101562,0.1015 z m -2.132813,-0.2031 -0.270833,0 0.135416,-0.1354 0.135417,-0.1354 0.135417,0.1354 0.135416,0.1354 -0.270833,0 z m -0.40625,-0.5078 -0.203125,0.1255 0,-0.2151 0,-0.2151 0.203125,0 c 0.111719,0 0.203125,0.04 0.203125,0.09 0,0.049 -0.09141,0.146 -0.203125,0.2151 z m 1.726563,0.1016 c -0.05586,0 -0.101563,-0.046 -0.101563,-0.1016 0,-0.056 0.0457,-0.1016 0.101563,-0.1016 0.05586,0 0.101562,0.046 0.101562,0.1016 0,0.056 -0.0457,0.1016 -0.101562,0.1016 z m -0.609375,-0.2032 c -0.05586,0 -0.101563,-0.046 -0.101563,-0.1015 0,-0.056 0.0457,-0.1016 0.101563,-0.1016 0.05586,0 0.101562,0.046 0.101562,0.1016 0,0.056 -0.0457,0.1015 -0.101562,0.1015 z m -0.609375,-0.2031 c -0.05586,0 -0.101563,-0.046 -0.101563,-0.1016 0,-0.056 0.0457,-0.1015 0.101563,-0.1015 0.05586,0 0.101562,0.046 0.101562,0.1015 0,0.056 -0.0457,0.1016 -0.101562,0.1016 z"
         id="path7254" />
      <path
         style="fill:#4fac1a"
         d="m 8.8227415,1050.4849 c -0.9036798,0.02 -1.8030149,-0.01 -1.9985228,-0.066 l -0.3554687,-0.1024 0,-0.1946 c 0,-0.107 0.1316256,-0.2451 0.2925016,-0.3068 0.1608758,-0.062 0.4374384,-0.3335 0.6145834,-0.6038 l 0.3220819,-0.4916 -0.7632735,-0.3547 -0.7632735,-0.3546 -0.4214055,-0.4826 -0.4214054,-0.4826 -0.05059,0.9773 c -0.027825,0.5375 -0.086233,1.035 -0.1297957,1.1055 l -0.079205,0.1281 0.6123916,0.3618 0.6123918,0.3617 -0.1032675,0.1033 -0.1032676,0.1033 -0.9264206,-0.6653 -0.9264204,-0.6653 -0.024054,-0.2195 c -0.013229,-0.1207 -0.013229,-0.288 0,-0.3718 l 0.024054,-0.1524 -0.2247958,0.051 -0.2247958,0.051 -0.4353604,-0.8125 -0.4353605,-0.8125 0,-1.8441 0,-1.844 0.6293429,-0.9997 0.6293429,-0.9997 0.2490365,0.056 0.2490368,0.056 -0.1118709,-0.181 -0.1118707,-0.181 0.3506786,-0.3082 c 0.1928735,-0.1695 0.7307674,-0.4992 1.1953202,-0.7327 l 0.8446415,-0.4245 0.8217891,-0.1314 0.8217891,-0.1314 0.9273446,0.139 0.9273453,0.1391 -0.116044,0.1878 -0.116044,0.1877 0.295544,-0.1134 0.295544,-0.1134 0.809039,0.4127 0.809039,0.4128 0.635409,0.8023 c 0.349475,0.4412 0.771222,1.1273 0.937217,1.5245 0.165994,0.3973 0.297532,0.8396 0.292307,0.9828 -0.0052,0.1432 -0.177153,-0.1683 -0.38206,-0.6924 -0.204908,-0.5241 -0.5742,-1.2096 -0.820651,-1.5234 l -0.448091,-0.5706 -0.896411,-0.559 -0.896411,-0.559 -0.02339,0.1527 c -0.01287,0.084 -0.0072,0.312 0.0125,0.5067 l 0.03589,0.3538 -0.319492,-0.1226 -0.319491,-0.1226 0.117713,0.3068 0.117714,0.3068 -0.216973,0.1341 -0.2169724,0.1341 0,0.6989 0,0.699 0.2539064,0 0.253907,0 -0.29499,0.1866 -0.2949891,0.1866 -0.1620421,-0.1002 -0.1620422,-0.1001 0,0.3167 0,0.3167 0.3046875,0 0.3046879,0 0.01604,-0.254 0.01604,-0.2539 0.102876,0.2552 0.102875,0.2552 0.162683,-0.1006 0.162682,-0.1005 0.105713,0.4042 0.105713,0.4043 -0.159451,-0.099 -0.15945,-0.099 -0.123908,0.6195 -0.123909,0.6196 -0.236895,-0.1464 -0.2368955,-0.1464 0.1452745,0.235 0.145275,0.2351 0.418435,-0.224 0.418435,-0.2239 -0.114088,0.1846 c -0.06275,0.1015 -0.133237,0.819 -0.156641,1.5945 l -0.04255,1.4099 -0.199776,0.1303 -0.199775,0.1304 -0.06199,0.8175 -0.06198,0.8175 0.273813,0.105 0.273813,0.1051 0.896396,-0.5685 0.896396,-0.5684 0.569135,-0.6876 0.569137,-0.6876 -0.41464,0.6975 -0.414639,0.6974 -1.166669,0.7244 -1.166669,0.7245 -1.6430539,0.037 z m 1.0241639,-2.7789 c 0.043127,0 -0.03316,-0.1787 -0.1695261,-0.397 -0.1363661,-0.2184 -0.2872754,-0.3577 -0.3353543,-0.3096 -0.048079,0.048 0.028208,0.2267 0.1695261,0.397 0.1413182,0.1703 0.2922276,0.3096 0.3353543,0.3096 z m -0.3312804,-1.4219 0.2708333,0 -0.1354166,-0.1354 -0.1354167,-0.1354 -0.1354167,0.1354 -0.1354166,0.1354 0.2708333,0 z m 0.507813,-0.6094 c 0.05586,0 0.101562,-0.046 0.101562,-0.1015 0,-0.056 -0.0457,-0.1016 -0.101562,-0.1016 -0.05586,0 -0.101563,0.046 -0.101563,0.1016 0,0.056 0.045703,0.1015 0.101563,0.1015 z m -5.6251671,-0.2993 0.1137083,-0.1137 -0.2523988,-0.2505 -0.2523989,-0.2505 0.1386905,0.3642 0.1386905,0.3642 0.1137084,-0.1137 z m 5.4558958,-0.784 0.1354166,-0.1354 -0.1354166,-0.1354 -0.1354167,-0.1355 0,0.2709 0,0.2708 0.1354167,-0.1354 z m 0.3843833,-0.5417 c 0.04927,0 0.08957,-0.1425 0.08957,-0.3167 l 0,-0.3166 -0.206438,0.1276 -0.2064387,0.1275 0.1168637,0.1891 c 0.06428,0.104 0.157172,0.1891 0.206438,0.1891 z m -5.2932375,-0.2031 c 0.055859,0 0.1015625,-0.046 0.1015625,-0.1016 0,-0.056 -0.045703,-0.1015 -0.1015625,-0.1015 -0.055859,0 -0.1015625,0.046 -0.1015625,0.1015 0,0.056 0.045703,0.1016 0.1015625,0.1016 z m 0.7159669,-0.2902 0.4112791,0 -0.1002168,-0.2611 -0.1002165,-0.2612 0.1866566,0 c 0.102661,0 0.2798252,0.16 0.3936981,0.3555 l 0.2070416,0.3554 0.00618,-0.8513 0.00618,-0.8512 -0.2360215,-0.1459 -0.2360215,-0.1459 -0.3481372,0.4299 -0.3481371,0.43 -0.1267789,-0.1268 L 5.25,1042.357 l 0,0.5997 0,0.5997 0.4112794,0 z m -0.227171,-1.3348 0.1841087,0 -0.1062368,-0.4062 -0.1062368,-0.4063 0.5378782,0 0.5378785,0 0.1247861,-0.3252 0.1247864,-0.3252 -0.238758,-0.1475 -0.2387578,-0.1476 0.4270269,-0.5429 c 0.2348649,-0.2986 0.3701502,-0.5428 0.3006343,-0.5428 -0.069516,0 -0.4189236,0.1498 -0.7764615,0.333 -0.357538,0.1831 -0.7172241,0.4345 -0.7993024,0.5586 l -0.1492333,0.2255 -0.00311,0.8633 -0.00311,0.8633 0.1841084,0 z m 3.4721416,0 0.203125,0 0,-0.2151 0,-0.2151 -0.203125,0.1255 c -0.1117187,0.069 -0.203125,0.1659 -0.203125,0.2151 0,0.049 0.091406,0.09 0.203125,0.09 z m -1.9176997,-0.4062 c 0.049266,0 0.086795,-0.2514 0.083398,-0.5586 l -0.00618,-0.5586 -0.2079419,0.357 -0.2079419,0.3571 0.1245441,0.2015 c 0.068499,0.1109 0.1648528,0.2016 0.2141189,0.2016 z m -0.1812586,-1.2865 0.1354166,-0.1354 -0.1354166,-0.1354 -0.1354167,-0.1355 0,0.2709 0,0.2708 0.1354167,-0.1354 z m 3.0369965,-0.1354 c 0.055859,0 0.04507,-0.091 -0.023976,-0.2031 -0.069046,-0.1118 -0.1712413,-0.2032 -0.2271007,-0.2032 -0.055859,0 -0.04507,0.091 0.023976,0.2032 0.069046,0.1117 0.1712413,0.2031 0.2271007,0.2031 z m -0.6753716,-0.9271 0.3642291,-0.1387 -0.1137083,-0.1137 -0.1137082,-0.1138 -0.2505209,0.2524 -0.2505208,0.2524 0.3642291,-0.1386 z m 4.7484774,7.5413 c -0.177652,0.3282 -0.326663,0.5221 -0.331136,0.431 -0.0045,-0.091 0.09178,-0.3524 0.213904,-0.5806 l 0.222037,-0.4148 0.173397,-1.3492 0.173398,-1.3491 -0.0643,1.333 -0.0643,1.333 -0.323003,0.5967 z m -3.250727,-4.0413 -0.135417,0.1354 0,-0.2708 0,-0.2709 0.135417,0.1355 0.135416,0.1354 -0.135416,0.1354 z m -0.287761,-0.5921 -0.253906,0.084 0,-0.6383 0,-0.6383 0.185776,0.1148 0.185776,0.1148 0.09462,-0.2551 0.09462,-0.2552 -0.02649,0.6943 -0.02649,0.6944 -0.253907,0.084 z m 0.05078,-0.3558 c 0.05586,0 0.101562,-0.046 0.101562,-0.1016 0,-0.056 -0.0457,-0.1015 -0.101562,-0.1015 -0.05586,0 -0.101563,0.046 -0.101563,0.1015 0,0.056 0.0457,0.1016 0.101563,0.1016 z"
         id="path7252" />
      <path
         style="fill:#1135aa"
         d="m 8.8227415,1050.4849 c -0.9036798,0.02 -1.8030149,-0.01 -1.9985228,-0.066 l -0.3554687,-0.1024 0,-0.1946 c 0,-0.107 0.1316256,-0.2451 0.2925016,-0.3068 0.1608758,-0.062 0.4374384,-0.3335 0.6145834,-0.6038 l 0.3220819,-0.4916 -0.7651993,-0.3547 -0.7651995,-0.3546 -0.4927004,-0.5775 c -0.2709854,-0.3176 -0.8375466,-0.7952 -1.2590251,-1.0612 l -0.7663242,-0.4838 0.010293,-0.3606 c 0.00566,-0.1984 -0.056973,-0.6578 -0.1391873,-1.0208 l -0.1494804,-0.6602 0.3300781,0 0.3300781,0 0.016037,0.457 0.016037,0.4571 0.09989,-0.2463 c 0.05494,-0.1354 0.4116814,-0.4389 0.7927595,-0.6744 l 0.6928689,-0.4282 0.2413483,0.1492 0.2413482,0.1491 -0.1297071,-0.338 -0.1297062,-0.338 0.1866566,0 c 0.102661,0 0.2798252,0.16 0.3936981,0.3555 l 0.2070416,0.3554 0.00618,-0.8513 0.00618,-0.8512 -0.2159245,-0.1335 -0.2159247,-0.1334 -0.3666673,0.3318 -0.3666674,0.3318 0.094659,-0.4952 0.094659,-0.4951 0.4997208,-0.096 0.4997208,-0.095 -0.1069754,0.2788 -0.1069751,0.2788 0.2983124,0 0.2983124,0 0,-0.5199 0,-0.5198 -0.2248866,0.139 -0.2248866,0.139 0.1450857,-0.4571 0.1450857,-0.4571 -0.2512384,0.1552 -0.2512384,0.1553 0.093174,-0.2822 0.093174,-0.2821 0.4917719,-0.2509 0.4917719,-0.251 -0.3635608,0 c -0.1999585,0 -0.7026929,0.1718 -1.1171875,0.3854 -0.4144947,0.2136 -1.0645534,0.6934 -1.4445749,1.0664 l -0.6909482,0.6781 -0.4750362,1.0156 -0.4750363,1.0156 0.00107,0.5078 c 5.911e-4,0.2793 0.1146957,0.8278 0.2535666,1.2188 0.1388708,0.391 0.3231036,0.821 0.4094061,0.9555 l 0.1569132,0.2445 -0.1122132,0.4664 -0.1122133,0.4664 0.4099161,0.6638 0.4099161,0.6638 0.9117548,0.6427 c 0.501465,0.3534 0.8716585,0.6827 0.8226522,0.7317 -0.049006,0.049 -0.4665804,-0.1885 -0.927942,-0.5278 L 4.403585,1048.9586 3.8412421,1048.18 c -0.3092886,-0.4283 -0.6672827,-1.0894 -0.7955425,-1.4692 l -0.2331996,-0.6904 0.00446,-1.3408 0.00446,-1.3408 0.3750677,-0.8258 c 0.2062872,-0.4542 0.6759342,-1.1684 1.0436598,-1.5873 l 0.6685923,-0.7614 1.0339103,-0.5405 1.0339103,-0.5404 1.5234375,0 1.5234381,0 1.127227,0.5274 1.127227,0.5274 0.652996,0.8244 c 0.359147,0.4535 0.788809,1.1496 0.954804,1.5468 0.165994,0.3973 0.297045,0.8396 0.291224,0.9828 -0.0058,0.1432 -0.190513,-0.2074 -0.410426,-0.7791 l -0.399842,-1.0396 -0.670004,-0.687 -0.670003,-0.687 -0.963082,-0.4774 -0.963082,-0.4774 -1.2064889,-0.1094 -1.2064882,-0.1094 0,0.1962 0,0.1961 0.5991048,-0.088 0.5991046,-0.088 0.5180829,0.559 0.5180827,0.559 0.00618,-0.182 c 0.0034,-0.1001 0.1042751,-0.013 0.2241741,0.193 l 0.217997,0.3751 -0.224174,0.2242 -0.2241741,0.2241 0,0.6534 0,0.6534 0.2539061,0.1024 0.253907,0.1025 -0.4570318,0.016 -0.4570313,0.016 0,0.3047 0,0.3047 0.3046875,0 0.3046876,0 0,-0.237 0,-0.237 0.130508,0.1305 0.130508,0.1305 -0.256942,0.3096 -0.2569422,0.3096 0.1513062,0 0.151305,0 -0.231501,0.2789 -0.2315011,0.279 0.1263514,0.3293 0.1263515,0.3292 0.1986182,-0.1227 0.198618,-0.1228 -0.326681,0.6317 c -0.1796752,0.3475 -0.392889,0.6318 -0.4738091,0.6318 l -0.1471275,0 0,0.6601 0,0.6602 0.6707726,0.335 0.670773,0.335 -0.239422,0.08 -0.239423,0.08 -0.06352,0.8377 -0.06352,0.8378 0.273813,0.105 0.273813,0.1051 0.896396,-0.5685 0.896396,-0.5684 0.569136,-0.6876 0.569136,-0.6876 -0.41464,0.6975 -0.414639,0.6974 -1.166669,0.7244 -1.166669,0.7245 -1.6430536,0.037 z m -4.4244706,-5.1095 0.1137083,-0.1137 -0.2523988,-0.2505 -0.2523989,-0.2505 0.1386905,0.3642 0.1386905,0.3642 0.1137084,-0.1137 z m 4.5079791,-3.1538 0.203125,0 0,-0.2151 0,-0.2151 -0.203125,0.1255 c -0.1117187,0.069 -0.203125,0.1659 -0.203125,0.2151 0,0.049 0.091406,0.09 0.203125,0.09 z m -1.4895833,-1.4896 0.1354166,-0.1354 -0.1354166,-0.1354 -0.1354167,-0.1354 0,0.2708 0,0.2708 0.1354167,-0.1354 z m 6.5007273,6.2757 c -0.177652,0.3282 -0.326663,0.5221 -0.331136,0.431 -0.0045,-0.091 0.09178,-0.3524 0.213904,-0.5806 l 0.222037,-0.4148 0.173397,-1.3492 0.173398,-1.3491 -0.0643,1.333 -0.0643,1.333 -0.323003,0.5967 z m -3.284581,-4.1767 c -0.05586,0 -0.101563,-0.046 -0.101563,-0.1016 0,-0.056 0.0457,-0.1015 0.101563,-0.1015 0.05586,0 0.101562,0.046 0.101562,0.1015 0,0.056 -0.0457,0.1016 -0.101562,0.1016 z m 0,-0.6094 c -0.05586,0 -0.101563,-0.046 -0.101563,-0.1016 0,-0.056 0.0457,-0.1015 0.101563,-0.1015 0.05586,0 0.101562,0.046 0.101562,0.1015 0,0.056 -0.0457,0.1016 -0.101562,0.1016 z m 0,-1.0156 c -0.05586,0 -0.101563,-0.046 -0.101563,-0.1016 0,-0.056 0.0457,-0.1015 0.101563,-0.1015 0.05586,0 0.101562,0.046 0.101562,0.1015 0,0.056 -0.0457,0.1016 -0.101562,0.1016 z"
         id="path7250" />
      <path
         style="fill:#255f61"
         d="m 7.4335937,1050.547 -0.3554687,0 0,-0.1967 0,-0.1968 -0.3046875,0.1169 -0.3046875,0.117 0,-0.2313 0,-0.2312 0.2925016,-0.1122 c 0.1608758,-0.062 0.4374384,-0.3335 0.6145834,-0.6038 l 0.3220819,-0.4916 -0.7651993,-0.3547 -0.7651995,-0.3546 -0.4927004,-0.5775 c -0.2709854,-0.3176 -0.8375466,-0.7952 -1.2590251,-1.0612 l -0.7663242,-0.4838 0.010293,-0.3606 c 0.00566,-0.1984 -0.056973,-0.6578 -0.1391873,-1.0208 l -0.1494804,-0.6602 0.3300781,0 0.3300781,0 0.016037,0.457 0.016037,0.4571 0.09989,-0.2463 c 0.05494,-0.1354 0.4116814,-0.4389 0.7927595,-0.6744 l 0.6928689,-0.4282 0.2413483,0.1492 0.2413482,0.1491 -0.1297071,-0.338 -0.1297062,-0.338 0.1866566,0 c 0.102661,0 0.2798252,0.16 0.3936981,0.3555 l 0.2070416,0.3554 0.00618,-0.8513 0.00618,-0.8512 -0.2159245,-0.1335 -0.2159247,-0.1334 -0.3666673,0.3318 -0.3666674,0.3318 0.094659,-0.4952 0.094659,-0.4951 0.4997208,-0.096 0.4997208,-0.095 -0.1069754,0.2788 -0.1069751,0.2788 0.2983124,0 0.2983124,0 0,-0.5199 0,-0.5198 -0.2248866,0.139 -0.2248866,0.139 0.1450857,-0.4571 0.1450857,-0.4571 -0.2512384,0.1552 -0.2512384,0.1553 0.093174,-0.2822 0.093174,-0.2821 0.4917719,-0.2509 0.4917719,-0.251 -0.3635608,0 c -0.1999585,0 -0.7026929,0.1718 -1.1171875,0.3854 -0.4144947,0.2136 -1.0645534,0.6934 -1.4445749,1.0664 l -0.6909482,0.6781 -0.4750362,1.0156 -0.4750363,1.0156 0.00107,0.5078 c 5.911e-4,0.2793 0.1146957,0.8278 0.2535666,1.2188 0.1388708,0.391 0.3231036,0.821 0.4094061,0.9555 l 0.1569132,0.2445 -0.1122132,0.4664 -0.1122133,0.4664 0.4099161,0.6638 0.4099161,0.6638 0.9117548,0.6427 c 0.501465,0.3534 0.8716585,0.6827 0.8226522,0.7317 -0.049006,0.049 -0.4665804,-0.1885 -0.927942,-0.5278 L 4.403585,1048.9586 3.8412421,1048.18 c -0.3092886,-0.4283 -0.6672827,-1.0894 -0.7955425,-1.4692 l -0.2331996,-0.6904 0.00446,-1.3408 0.00446,-1.3408 0.3750677,-0.8258 c 0.2062872,-0.4542 0.6759342,-1.1684 1.0436598,-1.5873 l 0.6685923,-0.7614 1.0339103,-0.5405 1.0339103,-0.5404 1.5234375,0 1.5234381,0 1.04642,0.4671 1.046421,0.4672 0.477017,0.5421 0.477017,0.5422 -0.507813,-0.4152 c -0.279297,-0.2284 -0.94751,-0.6261 -1.484918,-0.8837 l -0.977105,-0.4684 -1.2064889,-0.1094 -1.2064882,-0.1094 0,0.1962 0,0.1961 0.6601563,-0.068 0.6601562,-0.068 -0.40625,0.1904 -0.40625,0.1903 0.2735105,0.014 0.2735106,0.014 -0.070386,1.0158 -0.070386,1.0157 0.1184895,-10e-5 c 0.065169,-10e-5 0.1184897,0.137 0.1184897,0.3045 0,0.1676 -0.05332,0.3046 -0.1184897,0.3045 l -0.1184895,-2e-4 0.058934,3.9353 0.058934,3.9354 -0.4651836,0.1246 c -0.2558508,0.069 -0.6251444,0.1258 -0.8206523,0.1274 z m -3.0353228,-5.1716 0.1137083,-0.1137 -0.2523988,-0.2505 -0.2523989,-0.2505 0.1386905,0.3642 0.1386905,0.3642 0.1137084,-0.1137 z m 3.0183958,-4.6434 0.1354166,-0.1354 -0.1354166,-0.1354 -0.1354167,-0.1354 0,0.2708 0,0.2708 0.1354167,-0.1354 z m 2.2737983,9.7269 -0.8857775,0.08 0.8959025,-0.1926 0.895902,-0.1925 1.084567,-0.6573 c 0.596511,-0.3615 1.086598,-0.7066 1.089083,-0.7667 0.0025,-0.06 0.195219,-0.338 0.428301,-0.6173 l 0.423784,-0.5078 -0.411547,0.6975 -0.411547,0.6974 -1.111445,0.69 -1.111445,0.6899 -0.885778,0.08 z m 0.332973,-2.5498 c -0.05586,0 -0.101563,-0.046 -0.101563,-0.1016 0,-0.056 0.045703,-0.1015 0.101563,-0.1015 0.05586,0 0.101562,0.046 0.101562,0.1015 0,0.056 -0.0457,0.1016 -0.101562,0.1016 z m 3.893956,-0.9014 c -0.177652,0.3282 -0.326663,0.5221 -0.331136,0.431 -0.0045,-0.091 0.09178,-0.3524 0.213904,-0.5806 l 0.222037,-0.4148 0.173397,-1.3492 0.173398,-1.3491 -0.0643,1.333 -0.0643,1.333 -0.323003,0.5967 z m -4.4661365,-0.2793 -0.1066851,0.2666 -0.016036,-0.3893 -0.016036,-0.3893 0.1227214,0.1227 0.1227212,0.1227 -0.1066851,0.2666 z m 0.2674925,-0.749 c -0.1117187,0.069 -0.203125,0.08 -0.203125,0.024 0,-0.056 0.091406,-0.1581 0.203125,-0.2271 0.1117188,-0.069 0.203125,-0.08 0.203125,-0.024 0,0.056 -0.091406,0.1581 -0.203125,0.2271 z m 0.304688,-0.5078 c -0.05586,0 -0.101563,-0.046 -0.101563,-0.1016 0,-0.056 0.045703,-0.1015 0.101563,-0.1015 0.05586,0 0.101562,0.046 0.101562,0.1015 0,0.056 -0.0457,0.1016 -0.101562,0.1016 z m 0.203125,-0.4062 c -0.05586,0 -0.101563,-0.046 -0.101563,-0.1016 0,-0.056 0.0457,-0.1016 0.101563,-0.1016 0.05586,0 0.101562,0.046 0.101562,0.1016 0,0.056 -0.0457,0.1016 -0.101562,0.1016 z m -0.4062505,-0.2032 c -0.055859,0 -0.1015625,-0.046 -0.1015625,-0.1015 0,-0.056 0.045703,-0.1016 0.1015625,-0.1016 0.055859,0 0.1015625,0.046 0.1015625,0.1016 0,0.056 -0.045703,0.1015 -0.1015625,0.1015 z m 0,-0.6093 c -0.055859,0 -0.1015625,-0.046 -0.1015625,-0.1016 0,-0.056 0.045703,-0.1016 0.1015625,-0.1016 0.055859,0 0.1015625,0.046 0.1015625,0.1016 0,0.056 -0.045703,0.1016 -0.1015625,0.1016 z m 4.2949505,-0.6726 -0.130888,0.1309 0,-0.3041 c 0,-0.1673 -0.216847,-0.7325 -0.481882,-1.256 l -0.481883,-0.9518 0.268068,0.2224 c 0.147437,0.1224 0.423184,0.6287 0.612771,1.1251 l 0.344702,0.9026 -0.130888,0.1309 z m -4.6671612,-0.3431 -0.128438,0.3047 0.047199,-0.3894 0.047199,-0.3894 0.3046875,-0.083 0.3046877,-0.083 -0.2234491,0.1678 c -0.1228969,0.092 -0.2812458,0.3049 -0.3518868,0.4725 z m 1.1847112,-0.4062 c -0.05586,0 -0.101563,-0.046 -0.101563,-0.1016 0,-0.056 0.0457,-0.1015 0.101563,-0.1015 0.05586,0 0.101562,0.046 0.101562,0.1015 0,0.056 -0.0457,0.1016 -0.101562,0.1016 z m 0,-0.6094 c -0.05586,0 -0.101563,-0.046 -0.101563,-0.1016 0,-0.056 0.0457,-0.1015 0.101563,-0.1015 0.05586,0 0.101562,0.046 0.101562,0.1015 0,0.056 -0.0457,0.1016 -0.101562,0.1016 z m 0,-1.0156 c -0.05586,0 -0.101563,-0.046 -0.101563,-0.1016 0,-0.056 0.0457,-0.1015 0.101563,-0.1015 0.05586,0 0.101562,0.046 0.101562,0.1015 0,0.056 -0.0457,0.1016 -0.101562,0.1016 z m -0.609375,-0.8125 c -0.05586,0 -0.101563,-0.046 -0.101563,-0.1016 0,-0.056 0.045703,-0.1015 0.101563,-0.1015 0.05586,0 0.101562,0.046 0.101562,0.1015 0,0.056 -0.0457,0.1016 -0.101562,0.1016 z m -0.5853998,-0.4063 c -0.055859,0 -0.1580547,-0.091 -0.2271007,-0.2031 -0.069046,-0.1117 -0.079835,-0.2031 -0.023976,-0.2031 0.055859,0 0.1580547,0.091 0.2271007,0.2031 0.069046,0.1117 0.079835,0.2031 0.023976,0.2031 z"
         id="path7248" />
      <path
         style="fill:#0e2a91"
         d="m 7.5471441,1050.547 c -0.1330552,0 -0.2993321,-0.09 -0.3695043,-0.2037 l -0.1275861,-0.2065 -0.1750537,0.1082 -0.1750537,0.1082 -0.1360357,-0.2201 -0.1360356,-0.2201 0.4266874,-0.1116 0.4266876,-0.1116 0,-0.281 0,-0.2809 0.203125,0 0.203125,0 0,-0.2849 0,-0.2848 -0.5951879,-0.2075 -0.595188,-0.2075 -0.7308167,-0.7748 -0.7308167,-0.7748 -0.6544641,-0.3089 -0.6544641,-0.309 -0.032926,-0.4044 c -0.018109,-0.2224 -0.09809,-0.7015 -0.1777344,-1.0645 l -0.1448085,-0.6602 0.3300781,0 0.3300781,0 0,0.7379 0,0.7379 0.4373302,0.3793 c 0.2405314,0.2086 0.4690471,0.3793 0.5078125,0.3793 0.038765,0 0.070482,-0.032 0.070482,-0.07 0,-0.039 -0.1828125,-0.2813 -0.40625,-0.5389 -0.2234375,-0.2576 -0.40625,-0.5853 -0.40625,-0.7282 l 0,-0.2598 0.5899502,-0.42 0.5899503,-0.4201 0.4376625,0 0.4376627,0 -0.1433496,-0.2539 -0.1433498,-0.2539 0.2735494,0.2539 c 0.1504521,0.1396 0.3372442,0.2539 0.4150935,0.2539 l 0.1415442,0 -0.04435,-0.8125 -0.04435,-0.8125 0.1431775,0 c 0.078748,0 0.1920354,-0.1869 0.2517503,-0.4152 l 0.108573,-0.4152 -0.2796154,-0.539 -0.2796156,-0.5389 0.2196049,-0.2646 0.219605,-0.2646 0.5337223,0 c 0.2935471,0 0.6583251,0.082 0.8106178,0.1785 l 0.2768958,0.1755 -0.087044,1.1373 -0.087044,1.1374 0.2163978,0.09 0.2163978,0.09 -0.203125,0.016 -0.203125,0.016 0.058934,3.9353 0.058934,3.9354 -0.4651836,0.1246 c -0.2558508,0.069 -0.5740467,0.1258 -0.7071019,0.1274 z m 0.038793,-9.7473 0.3046875,0 0,-0.2031 0,-0.2031 -0.3046875,0 -0.3046875,0 0,0.2031 0,0.2031 0.3046875,0 z m 1.7265625,9.718 -0.5078125,0 0.2539063,-0.1025 0.2539062,-0.1025 0.2539063,0.1025 0.2539062,0.1025 -0.5078125,0 z m 1.0156254,-0.1711 -0.270833,0 0.135416,-0.1354 0.135417,-0.1354 0.135417,0.1354 0.135416,0.1354 -0.270833,0 z m -4.1640629,-0.2031 c -0.055859,0 -0.1015625,-0.046 -0.1015625,-0.1016 0,-0.056 0.045703,-0.1015 0.1015625,-0.1015 0.055859,0 0.1015625,0.046 0.1015625,0.1015 0,0.056 -0.045703,0.1016 -0.1015625,0.1016 z m 4.7614499,0 c -0.105125,0 -0.191137,-0.036 -0.191137,-0.08 0,-0.044 0.141857,-0.1342 0.315237,-0.2008 l 0.315238,-0.1209 -0.1241,0.2008 c -0.06826,0.1104 -0.210112,0.2008 -0.315238,0.2008 z m -5.1437242,-0.2031 c -0.055859,0 -0.1580547,-0.091 -0.2271007,-0.2032 -0.069046,-0.1117 -0.079835,-0.2031 -0.023976,-0.2031 0.055859,0 0.1580547,0.091 0.2271007,0.2031 0.069046,0.1117 0.079835,0.2032 0.023976,0.2032 z M 11.75,1049.6357 c -0.111719,0.069 -0.203125,0.08 -0.203125,0.024 0,-0.056 0.09141,-0.158 0.203125,-0.2271 0.111719,-0.069 0.203125,-0.08 0.203125,-0.024 0,0.056 -0.09141,0.158 -0.203125,0.2271 z m -6.5617161,-0.1016 c -0.033944,0 -0.3767172,-0.3428 -0.7617187,-0.7617 l -0.7000027,-0.7617 0.7617187,0.7 c 0.4189454,0.385 0.7617188,0.7277 0.7617188,0.7617 0,0.034 -0.027772,0.062 -0.061716,0.062 z m 7.1710911,-0.3047 c -0.111719,0.069 -0.203125,0.08 -0.203125,0.024 0,-0.056 0.09141,-0.1581 0.203125,-0.2271 0.111719,-0.069 0.203125,-0.08 0.203125,-0.024 0,0.056 -0.09141,0.1581 -0.203125,0.2271 z m 0.609375,-0.6094 c -0.111719,0.069 -0.203125,0.08 -0.203125,0.024 0,-0.056 0.09141,-0.158 0.203125,-0.2271 0.111719,-0.069 0.203125,-0.08 0.203125,-0.024 0,0.056 -0.09141,0.1581 -0.203125,0.2271 z m 0.40625,-0.6093 c -0.111719,0.069 -0.203125,0.08 -0.203125,0.024 0,-0.056 0.09141,-0.158 0.203125,-0.2271 0.111719,-0.069 0.203125,-0.08 0.203125,-0.024 0,0.056 -0.09141,0.158 -0.203125,0.2271 z m -9.7095835,-0.1018 c -0.03363,1e-4 -0.2099645,-0.3426 -0.3918537,-0.7615 l -0.3307076,-0.7617 -0.050456,-1.4219 -0.050456,-1.4219 0.096288,0.5078 c 0.052958,0.2793 0.1748751,0.7364 0.270926,1.0157 0.096051,0.2792 0.2458315,0.6906 0.3328456,0.914 0.087014,0.2235 0.1641367,0.7489 0.1713837,1.1677 0.00725,0.4188 -0.014339,0.7616 -0.04797,0.7618 z m 10.1158335,-0.6092 -0.196904,0.3047 0,-0.2031 c 0,-0.1117 0.08861,-0.3402 0.196904,-0.5078 l 0.196904,-0.3047 0,0.2031 c 0,0.1117 -0.08861,0.3402 -0.196904,0.5078 z m 0.341883,-0.9775 -0.106686,0.2666 -0.01604,-0.3893 -0.01604,-0.3894 0.122721,0.1228 0.122722,0.1227 -0.106685,0.2666 z m 0.204386,-1.1045 -0.09289,0.3555 0,-0.711 0,-0.7109 0.09289,0.3555 c 0.05109,0.1955 0.05109,0.5154 0,0.7109 z m -0.207727,-1.6419 -0.135417,0.1354 0,-0.2708 0,-0.2709 0.135417,0.1354 0.135416,0.1355 -0.135416,0.1354 z m -4.7057295,-0.1354 c -0.055859,0 -0.1015625,-0.046 -0.1015625,-0.1016 0,-0.056 0.045703,-0.1016 0.1015625,-0.1016 0.055859,0 0.1015625,0.046 0.1015625,0.1016 0,0.056 -0.045703,0.1016 -0.1015625,0.1016 z m -6.2630208,-0.2709 -0.1354167,0.1354 0,-0.2708 0,-0.2708 0.1354167,0.1354 0.1354166,0.1354 -0.1354166,0.1354 z m 6.2630208,-0.1354 c -0.055859,0 -0.1015625,-0.046 -0.1015625,-0.1016 0,-0.056 0.045703,-0.1015 0.1015625,-0.1015 0.055859,0 0.1015625,0.046 0.1015625,0.1015 0,0.056 -0.045703,0.1016 -0.1015625,0.1016 z m 4.5026045,-0.068 -0.135417,0.1354 0,-0.2708 0,-0.2709 0.135417,0.1355 0.135416,0.1354 -0.135416,0.1354 z m -10.6180866,-0.3385 c -0.043907,0 -0.07983,-0.086 -0.07983,-0.1912 0,-0.1051 0.090359,-0.247 0.2007983,-0.3152 l 0.2007984,-0.1241 -0.120968,0.3152 c -0.066532,0.1734 -0.1568916,0.3153 -0.2007983,0.3153 z m 10.3811076,-0.2032 c -0.05586,0 -0.101563,-0.046 -0.101563,-0.1015 0,-0.056 0.0457,-0.1016 0.101563,-0.1016 0.05586,0 0.101562,0.046 0.101562,0.1016 0,0.056 -0.0457,0.1015 -0.101562,0.1015 z m -7.8589722,-0.4062 -0.19832,0 0.080404,-0.2412 c 0.044222,-0.1327 0.1890107,-0.2774 0.3217527,-0.3217 l 0.241349,-0.08 -0.1234327,0.3216 c -0.067888,0.1769 -0.2126768,0.3217 -0.3217527,0.3217 z m 7.6558472,0 c -0.05586,0 -0.101563,-0.046 -0.101563,-0.1016 0,-0.056 0.0457,-0.1015 0.101563,-0.1015 0.05586,0 0.101562,0.046 0.101562,0.1015 0,0.056 -0.0457,0.1016 -0.101562,0.1016 z m -9.648438,-0.3047 c -0.1117187,0.069 -0.203125,0.08 -0.203125,0.024 0,-0.056 0.091406,-0.1581 0.203125,-0.2271 0.1117188,-0.069 0.203125,-0.08 0.203125,-0.024 0,0.056 -0.091406,0.158 -0.203125,0.2271 z m 9.469288,-0.1016 c -0.05586,0 -0.158054,-0.091 -0.2271,-0.2031 -0.06905,-0.1117 -0.07984,-0.2031 -0.02398,-0.2031 0.05586,0 0.158054,0.091 0.227101,0.2031 0.06905,0.1117 0.07983,0.2031 0.02398,0.2031 z m -9.2354156,-0.4062 c -0.055859,0 0.1131169,-0.2285 0.3755026,-0.5078 0.2623857,-0.2793 0.5227682,-0.5078 0.5786276,-0.5078 0.055859,0 -0.1131169,0.2285 -0.3755026,0.5078 -0.2623857,0.2793 -0.5227682,0.5078 -0.5786276,0.5078 z m 8.6269366,-0.4063 c -0.04218,0 -0.202141,-0.1599 -0.355469,-0.3554 l -0.278777,-0.3555 0.355468,0.2788 c 0.195508,0.1533 0.355469,0.3133 0.355469,0.3554 0,0.042 -0.03451,0.077 -0.07669,0.077 z M 5.9583869,1039.846 C 5.568774,1040.0318 5.25,1040.1419 5.25,1040.0907 c 0,-0.051 0.2827132,-0.2392 0.6282514,-0.4179 0.3455384,-0.1787 0.6643124,-0.2888 0.7083869,-0.2448 0.044074,0.044 -0.2386388,0.2322 -0.6282514,0.418 z m 5.9947381,0.3307 c -0.05586,-4e-4 -0.330078,-0.1314 -0.609375,-0.291 l -0.507812,-0.2903 0.215082,-0.01 c 0.118296,0 0.392515,0.127 0.609375,0.291 0.216861,0.164 0.348589,0.2979 0.29273,0.2975 z m -1.320312,-0.6131 c -0.111719,-0.01 -0.385938,-0.09 -0.609375,-0.1857 l -0.4062505,-0.1746 0.3046875,-0.011 c 0.167578,-0.01 0.441797,0.078 0.609375,0.1858 l 0.304688,0.1969 -0.203125,-0.011 z m -3.4361985,-0.2018 -0.3893228,0.016 0.1227213,-0.1228 0.1227214,-0.1227 0.2666015,0.1067 0.2666016,0.1067 -0.389323,0.016 z M 8.5,1039.1276 l -0.7109375,0 0.3554688,-0.093 c 0.1955078,-0.051 0.5154296,-0.051 0.7109375,0 l 0.3554687,0.093 -0.7109375,0 z"
         id="path7246" />
      <path
         style="fill:#09186a"
         d="m 7.6875,1050.5177 -0.5078125,0 0.2539062,-0.1025 0.2539063,-0.1025 0.2539062,0.1025 0.2539063,0.1025 -0.5078125,0 z m 1.625,0 -0.5078125,0 0.2539063,-0.1025 0.2539062,-0.1025 0.2539063,0.1025 0.2539062,0.1025 -0.5078125,0 z m -2.5390625,-0.1711 c -0.055859,0 -0.1015625,-0.046 -0.1015625,-0.1016 0,-0.056 0.045703,-0.1015 0.1015625,-0.1015 0.055859,0 0.1015625,0.046 0.1015625,0.1015 0,0.056 -0.045703,0.1016 -0.1015625,0.1016 z m 3.5546875,0 -0.270833,0 0.135416,-0.1354 0.135417,-0.1354 0.135417,0.1354 0.135416,0.1354 -0.270833,0 z m -4.1640625,-0.2031 c -0.055859,0 -0.1015625,-0.046 -0.1015625,-0.1016 0,-0.056 0.045703,-0.1015 0.1015625,-0.1015 0.055859,0 0.1015625,0.046 0.1015625,0.1015 0,0.056 -0.045703,0.1016 -0.1015625,0.1016 z m 4.7614495,0 c -0.105125,0 -0.191137,-0.036 -0.191137,-0.08 0,-0.044 0.141857,-0.1342 0.315237,-0.2008 l 0.315238,-0.1209 -0.1241,0.2008 c -0.06826,0.1104 -0.210112,0.2008 -0.315238,0.2008 z m -5.1437238,-0.2031 c -0.055859,0 -0.1580547,-0.091 -0.2271007,-0.2032 -0.069046,-0.1117 -0.079835,-0.2031 -0.023976,-0.2031 0.055859,0 0.1580547,0.091 0.2271007,0.2031 0.069046,0.1117 0.079835,0.2032 0.023976,0.2032 z M 11.75,1049.6357 c -0.111719,0.069 -0.203125,0.08 -0.203125,0.024 0,-0.056 0.09141,-0.158 0.203125,-0.2271 0.111719,-0.069 0.203125,-0.08 0.203125,-0.024 0,0.056 -0.09141,0.158 -0.203125,0.2271 z m -6.5775868,-0.1016 c -0.055859,0 -0.1580547,-0.091 -0.2271007,-0.2031 -0.069046,-0.1117 -0.079835,-0.2031 -0.023976,-0.2031 0.055859,0 0.1580547,0.091 0.2271007,0.2031 0.069046,0.1117 0.079835,0.2031 0.023976,0.2031 z m 7.1869618,-0.3047 c -0.111719,0.069 -0.203125,0.08 -0.203125,0.024 0,-0.056 0.09141,-0.1581 0.203125,-0.2271 0.111719,-0.069 0.203125,-0.08 0.203125,-0.024 0,0.056 -0.09141,0.1581 -0.203125,0.2271 z m 0.609375,-0.6094 c -0.111719,0.069 -0.203125,0.08 -0.203125,0.024 0,-0.056 0.09141,-0.158 0.203125,-0.2271 0.111719,-0.069 0.203125,-0.08 0.203125,-0.024 0,0.056 -0.09141,0.1581 -0.203125,0.2271 z m -8.8119618,-0.1015 c -0.055859,0 -0.1580547,-0.091 -0.2271007,-0.2031 -0.069046,-0.1118 -0.079835,-0.2032 -0.023976,-0.2032 0.055859,0 0.1580547,0.091 0.2271007,0.2032 0.069046,0.1117 0.079835,0.2031 0.023976,0.2031 z m 2.4715457,-2.5689 -0.058021,2.1755 -0.7853458,-0.7681 c -0.4319403,-0.4225 -1.071784,-0.9061 -1.421875,-1.0747 l -0.6365292,-0.3066 -0.032926,-0.4044 c -0.018109,-0.2224 -0.09809,-0.7015 -0.1777344,-1.0645 l -0.1448085,-0.6602 0.3300781,0 0.3300781,0 0,0.7379 0,0.7379 0.4373302,0.3793 c 0.2405314,0.2086 0.4690471,0.3793 0.5078125,0.3793 0.038765,0 0.070482,-0.032 0.070482,-0.07 0,-0.039 -0.1828125,-0.2813 -0.40625,-0.5389 -0.2234375,-0.2576 -0.40625,-0.5853 -0.40625,-0.7282 l 0,-0.2598 0.5899502,-0.42 0.5899503,-0.4201 0.4376625,0 0.4376627,0 -0.142164,-0.2539 -0.1421639,-0.2539 0.3405413,0.3191 0.3405413,0.3192 -0.058021,2.1756 z m 6.7466661,2.0611 c -0.111719,0.069 -0.203125,0.08 -0.203125,0.024 0,-0.056 0.09141,-0.158 0.203125,-0.2271 0.111719,-0.069 0.203125,-0.08 0.203125,-0.024 0,0.056 -0.09141,0.158 -0.203125,0.2271 z m -9.7095835,-0.1018 c -0.03363,1e-4 -0.2099645,-0.3426 -0.3918537,-0.7615 l -0.3307076,-0.7617 -0.050456,-1.4219 -0.050456,-1.4219 0.096288,0.5078 c 0.052958,0.2793 0.1748751,0.7364 0.270926,1.0157 0.096051,0.2792 0.2458315,0.6906 0.3328456,0.914 0.087014,0.2235 0.1641367,0.7489 0.1713837,1.1677 0.00725,0.4188 -0.014339,0.7616 -0.04797,0.7618 z m 10.1158335,-0.6092 -0.196904,0.3047 0,-0.2031 c 0,-0.1117 0.08861,-0.3402 0.196904,-0.5078 l 0.196904,-0.3047 0,0.2031 c 0,0.1117 -0.08861,0.3402 -0.196904,0.5078 z m 0.341883,-0.9775 -0.106686,0.2666 -0.01604,-0.3893 -0.01604,-0.3894 0.122721,0.1228 0.122722,0.1227 -0.106685,0.2666 z m 0.204386,-1.1045 -0.09289,0.3555 0,-0.711 0,-0.7109 0.09289,0.3555 c 0.05109,0.1955 0.05109,0.5154 0,0.7109 z m -0.207727,-1.6419 -0.135417,0.1354 0,-0.2708 0,-0.2709 0.135417,0.1354 0.135416,0.1355 -0.135416,0.1354 z m -10.9687503,-0.4063 -0.1354167,0.1354 0,-0.2708 0,-0.2708 0.1354167,0.1354 0.1354166,0.1354 -0.1354166,0.1354 z m 10.7656253,-0.2031 -0.135417,0.1354 0,-0.2708 0,-0.2709 0.135417,0.1355 0.135416,0.1354 -0.135416,0.1354 z m -10.6180866,-0.3385 c -0.043907,0 -0.07983,-0.086 -0.07983,-0.1912 0,-0.1051 0.090359,-0.247 0.2007983,-0.3152 l 0.2007984,-0.1241 -0.120968,0.3152 c -0.066532,0.1734 -0.1568916,0.3153 -0.2007983,0.3153 z m 3.6779821,-0.2032 c -0.055859,0 -0.1015625,-0.046 -0.1015625,-0.1015 0,-0.056 0.045703,-0.1016 0.1015625,-0.1016 0.055859,0 0.1015625,0.046 0.1015625,0.1016 0,0.056 -0.045703,0.1015 -0.1015625,0.1015 z m 6.7031255,0 c -0.05586,0 -0.101563,-0.046 -0.101563,-0.1015 0,-0.056 0.0457,-0.1016 0.101563,-0.1016 0.05586,0 0.101562,0.046 0.101562,0.1016 0,0.056 -0.0457,0.1015 -0.101562,0.1015 z m -7.8589722,-0.4062 -0.19832,0 0.080404,-0.2412 c 0.044222,-0.1327 0.1890107,-0.2774 0.3217527,-0.3217 l 0.241349,-0.08 -0.1234327,0.3216 c -0.067888,0.1769 -0.2126768,0.3217 -0.3217527,0.3217 z m 7.6558472,0 c -0.05586,0 -0.101563,-0.046 -0.101563,-0.1016 0,-0.056 0.0457,-0.1015 0.101563,-0.1015 0.05586,0 0.101562,0.046 0.101562,0.1015 0,0.056 -0.0457,0.1016 -0.101562,0.1016 z m -9.648438,-0.3047 c -0.1117187,0.069 -0.203125,0.08 -0.203125,0.024 0,-0.056 0.091406,-0.1581 0.203125,-0.2271 0.1117188,-0.069 0.203125,-0.08 0.203125,-0.024 0,0.056 -0.091406,0.158 -0.203125,0.2271 z m 9.469288,-0.1016 c -0.05586,0 -0.158054,-0.091 -0.2271,-0.2031 -0.06905,-0.1117 -0.07984,-0.2031 -0.02398,-0.2031 0.05586,0 0.158054,0.091 0.227101,0.2031 0.06905,0.1117 0.07983,0.2031 0.02398,0.2031 z m -9.2354156,-0.4062 c -0.055859,0 0.1131169,-0.2285 0.3755026,-0.5078 0.2623857,-0.2793 0.5227682,-0.5078 0.5786276,-0.5078 0.055859,0 -0.1131169,0.2285 -0.3755026,0.5078 -0.2623857,0.2793 -0.5227682,0.5078 -0.5786276,0.5078 z m 8.6269366,-0.4063 c -0.04218,0 -0.202141,-0.1599 -0.355469,-0.3554 l -0.278777,-0.3555 0.355468,0.2788 c 0.195508,0.1533 0.355469,0.3133 0.355469,0.3554 0,0.042 -0.03451,0.077 -0.07669,0.077 z m -5.5092465,-0.2031 c -0.055859,0 -0.1015625,-0.046 -0.1015625,-0.1016 0,-0.056 0.045703,-0.1015 0.1015625,-0.1015 0.055859,0 0.1015625,0.046 0.1015625,0.1015 0,0.056 -0.045703,0.1016 -0.1015625,0.1016 z M 5.9583869,1039.846 C 5.568774,1040.0318 5.25,1040.1419 5.25,1040.0907 c 0,-0.051 0.2827132,-0.2392 0.6282514,-0.4179 0.3455384,-0.1787 0.6643124,-0.2888 0.7083869,-0.2448 0.044074,0.044 -0.2386388,0.2322 -0.6282514,0.418 z m 0.8150506,0.3444 c -0.055859,0 -0.1015625,-0.046 -0.1015625,-0.1016 0,-0.056 0.045703,-0.1016 0.1015625,-0.1016 0.055859,0 0.1015625,0.046 0.1015625,0.1016 0,0.056 -0.045703,0.1016 -0.1015625,0.1016 z m 5.1796875,-0.014 c -0.05586,-4e-4 -0.330078,-0.1314 -0.609375,-0.291 l -0.507812,-0.2903 0.215082,-0.01 c 0.118296,0 0.392515,0.127 0.609375,0.291 0.216861,0.164 0.348589,0.2979 0.29273,0.2975 z m -1.320312,-0.6131 c -0.111719,-0.01 -0.385938,-0.09 -0.609375,-0.1857 l -0.4062505,-0.1746 0.3046875,-0.011 c 0.167578,-0.01 0.441797,0.078 0.609375,0.1858 l 0.304688,0.1969 -0.203125,-0.011 z m -3.4361985,-0.2018 -0.3893228,0.016 0.1227213,-0.1228 0.1227214,-0.1227 0.2666015,0.1067 0.2666016,0.1067 -0.389323,0.016 z M 8.5,1039.1276 l -0.7109375,0 0.3554688,-0.093 c 0.1955078,-0.051 0.5154296,-0.051 0.7109375,0 l 0.3554687,0.093 -0.7109375,0 z"
         id="path7244" />
      <path
         style="fill:#131415"
         d="m 7.6875,1050.5177 -0.5078125,0 0.2539062,-0.1025 0.2539063,-0.1025 0.2539062,0.1025 0.2539063,0.1025 -0.5078125,0 z m 1.625,0 -0.5078125,0 0.2539063,-0.1025 0.2539062,-0.1025 0.2539063,0.1025 0.2539062,0.1025 -0.5078125,0 z m -2.5390625,-0.1711 c -0.055859,0 -0.1015625,-0.046 -0.1015625,-0.1016 0,-0.056 0.045703,-0.1015 0.1015625,-0.1015 0.055859,0 0.1015625,0.046 0.1015625,0.1015 0,0.056 -0.045703,0.1016 -0.1015625,0.1016 z m 3.5546875,0 -0.270833,0 0.135416,-0.1354 0.135417,-0.1354 0.135417,0.1354 0.135416,0.1354 -0.270833,0 z m -4.1640625,-0.2031 c -0.055859,0 -0.1015625,-0.046 -0.1015625,-0.1016 0,-0.056 0.045703,-0.1015 0.1015625,-0.1015 0.055859,0 0.1015625,0.046 0.1015625,0.1015 0,0.056 -0.045703,0.1016 -0.1015625,0.1016 z m 4.7614495,0 c -0.105125,0 -0.191137,-0.036 -0.191137,-0.08 0,-0.044 0.141857,-0.1342 0.315237,-0.2008 l 0.315238,-0.1209 -0.1241,0.2008 c -0.06826,0.1104 -0.210112,0.2008 -0.315238,0.2008 z m -5.1437238,-0.2031 c -0.055859,0 -0.1580547,-0.091 -0.2271007,-0.2032 -0.069046,-0.1117 -0.079835,-0.2031 -0.023976,-0.2031 0.055859,0 0.1580547,0.091 0.2271007,0.2031 0.069046,0.1117 0.079835,0.2032 0.023976,0.2032 z M 11.75,1049.6357 c -0.111719,0.069 -0.203125,0.08 -0.203125,0.024 0,-0.056 0.09141,-0.158 0.203125,-0.2271 0.111719,-0.069 0.203125,-0.08 0.203125,-0.024 0,0.056 -0.09141,0.158 -0.203125,0.2271 z m -6.5775868,-0.1016 c -0.055859,0 -0.1580547,-0.091 -0.2271007,-0.2031 -0.069046,-0.1117 -0.079835,-0.2031 -0.023976,-0.2031 0.055859,0 0.1580547,0.091 0.2271007,0.2031 0.069046,0.1117 0.079835,0.2031 0.023976,0.2031 z m 7.1869618,-0.3047 c -0.111719,0.069 -0.203125,0.08 -0.203125,0.024 0,-0.056 0.09141,-0.1581 0.203125,-0.2271 0.111719,-0.069 0.203125,-0.08 0.203125,-0.024 0,0.056 -0.09141,0.1581 -0.203125,0.2271 z m 0.609375,-0.6094 c -0.111719,0.069 -0.203125,0.08 -0.203125,0.024 0,-0.056 0.09141,-0.158 0.203125,-0.2271 0.111719,-0.069 0.203125,-0.08 0.203125,-0.024 0,0.056 -0.09141,0.1581 -0.203125,0.2271 z m -8.8119618,-0.1015 c -0.055859,0 -0.1580547,-0.091 -0.2271007,-0.2031 -0.069046,-0.1118 -0.079835,-0.2032 -0.023976,-0.2032 0.055859,0 0.1580547,0.091 0.2271007,0.2032 0.069046,0.1117 0.079835,0.2031 0.023976,0.2031 z M 13.375,1048.0107 c -0.111719,0.069 -0.203125,0.08 -0.203125,0.024 0,-0.056 0.09141,-0.158 0.203125,-0.2271 0.111719,-0.069 0.203125,-0.08 0.203125,-0.024 0,0.056 -0.09141,0.158 -0.203125,0.2271 z m -9.6244618,-0.1016 c -0.055859,0 -0.1580547,-0.091 -0.2271007,-0.2031 -0.069046,-0.1117 -0.079835,-0.2031 -0.023976,-0.2031 0.055859,0 0.1580547,0.091 0.2271007,0.2031 0.069046,0.1117 0.079835,0.2031 0.023976,0.2031 z m 10.0307118,-0.6094 -0.196904,0.3047 0,-0.2031 c 0,-0.1117 0.08861,-0.3402 0.196904,-0.5078 l 0.196904,-0.3047 0,0.2031 c 0,0.1117 -0.08861,0.3402 -0.196904,0.5078 z m -10.4270833,-0.068 -0.1354167,0.1354 0,-0.2708 0,-0.2708 0.1354167,0.1354 0.1354166,0.1354 -0.1354166,0.1354 z m 0.3723958,-0.3385 c -0.055859,0 -0.1015625,-0.046 -0.1015625,-0.1016 0,-0.056 0.045703,-0.1015 0.1015625,-0.1015 0.055859,0 0.1015625,0.046 0.1015625,0.1015 0,0.056 -0.045703,0.1016 -0.1015625,0.1016 z m -0.609375,-0.2031 c -0.055859,0 -0.1015625,-0.046 -0.1015625,-0.1016 0,-0.056 0.045703,-0.1016 0.1015625,-0.1016 0.055859,0 0.1015625,0.046 0.1015625,0.1016 0,0.056 -0.045703,0.1016 -0.1015625,0.1016 z m 0.6333507,-0.2032 c -0.055859,0 -0.1580547,-0.091 -0.2271007,-0.2031 -0.069046,-0.1117 -0.079835,-0.2031 -0.023976,-0.2031 0.055859,0 0.1580547,0.091 0.2271007,0.2031 0.069046,0.1117 0.079835,0.2031 0.023976,0.2031 z m 10.3725948,-0.165 -0.106686,0.2666 -0.01604,-0.3893 -0.01604,-0.3894 0.122721,0.1228 0.122722,0.1227 -0.106685,0.2666 z m -9.9903205,-0.038 c -0.055859,0 -0.1015625,-0.046 -0.1015625,-0.1016 0,-0.056 0.045703,-0.1015 0.1015625,-0.1015 0.055859,0 0.1015625,0.046 0.1015625,0.1015 0,0.056 -0.045703,0.1016 -0.1015625,0.1016 z m -1.1991417,-0.2566 -0.1211708,0.1212 0,-1.2865 0,-1.2864 0.11302,0.113 c 0.062161,0.062 0.1166878,0.5865 0.1211708,1.1653 0.00448,0.5787 -0.046376,1.1068 -0.11302,1.1734 z m 0.4238367,-0.3147 -0.1066851,0.2666 -0.016036,-0.3893 -0.016036,-0.3893 0.1227214,0.1227 0.1227213,0.1227 -0.1066852,0.2666 z m 10.9700115,-0.4951 -0.09289,0.3555 0,-0.711 0,-0.7109 0.09289,0.3555 c 0.05109,0.1955 0.05109,0.5154 0,0.7109 z m -10.3729599,-0.1523 c -0.04218,0 -0.1778382,-0.1219 -0.3014626,-0.2709 l -0.2247717,-0.2708 0.3014626,0 0.3014626,0 0,0.2708 c 0,0.149 -0.034511,0.2709 -0.076691,0.2709 z m 0.3813784,-0.4063 c -0.055859,0 -0.1015625,-0.046 -0.1015625,-0.1016 0,-0.056 0.045703,-0.1015 0.1015625,-0.1015 0.055859,0 0.1015625,0.046 0.1015625,0.1015 0,0.056 -0.045703,0.1016 -0.1015625,0.1016 z m -0.8125,-0.6094 c -0.055859,0 -0.1015625,-0.046 -0.1015625,-0.1015 0,-0.056 0.045703,-0.1016 0.1015625,-0.1016 0.055859,0 0.1015625,0.046 0.1015625,0.1016 0,0.056 -0.045703,0.1015 -0.1015625,0.1015 z m 0.40625,0 c -0.055859,0 -0.1015625,-0.046 -0.1015625,-0.1015 0,-0.056 0.045703,-0.1016 0.1015625,-0.1016 0.055859,0 0.1015625,0.046 0.1015625,0.1016 0,0.056 -0.045703,0.1015 -0.1015625,0.1015 z m 10.1901045,-0.4739 -0.135417,0.1354 0,-0.2708 0,-0.2709 0.135417,0.1354 0.135416,0.1355 -0.135416,0.1354 z m -10.9687503,-0.4063 -0.1354167,0.1354 0,-0.2708 0,-0.2708 0.1354167,0.1354 0.1354166,0.1354 -0.1354166,0.1354 z m 10.7656253,-0.2031 -0.135417,0.1354 0,-0.2708 0,-0.2709 0.135417,0.1355 0.135416,0.1354 -0.135416,0.1354 z m -10.6180866,-0.3385 c -0.043907,0 -0.07983,-0.086 -0.07983,-0.1912 0,-0.1051 0.090359,-0.247 0.2007983,-0.3152 l 0.2007984,-0.1241 -0.120968,0.3152 c -0.066532,0.1734 -0.1568916,0.3153 -0.2007983,0.3153 z m 10.3811076,-0.2032 c -0.05586,0 -0.101563,-0.046 -0.101563,-0.1015 0,-0.056 0.0457,-0.1016 0.101563,-0.1016 0.05586,0 0.101562,0.046 0.101562,0.1016 0,0.056 -0.0457,0.1015 -0.101562,0.1015 z m -0.203125,-0.4062 c -0.05586,0 -0.101563,-0.046 -0.101563,-0.1016 0,-0.056 0.0457,-0.1015 0.101563,-0.1015 0.05586,0 0.101562,0.046 0.101562,0.1015 0,0.056 -0.0457,0.1016 -0.101562,0.1016 z m -9.648438,-0.3047 c -0.1117187,0.069 -0.203125,0.08 -0.203125,0.024 0,-0.056 0.091406,-0.1581 0.203125,-0.2271 0.1117188,-0.069 0.203125,-0.08 0.203125,-0.024 0,0.056 -0.091406,0.158 -0.203125,0.2271 z m 9.469288,-0.1016 c -0.05586,0 -0.158054,-0.091 -0.2271,-0.2031 -0.06905,-0.1117 -0.07984,-0.2031 -0.02398,-0.2031 0.05586,0 0.158054,0.091 0.227101,0.2031 0.06905,0.1117 0.07983,0.2031 0.02398,0.2031 z m -9.2354156,-0.4062 c -0.055859,0 0.1131169,-0.2285 0.3755026,-0.5078 0.2623857,-0.2793 0.5227682,-0.5078 0.5786276,-0.5078 0.055859,0 -0.1131169,0.2285 -0.3755026,0.5078 -0.2623857,0.2793 -0.5227682,0.5078 -0.5786276,0.5078 z m 8.6269366,-0.4063 c -0.04218,0 -0.202141,-0.1599 -0.355469,-0.3554 l -0.278777,-0.3555 0.355468,0.2788 c 0.195508,0.1533 0.355469,0.3133 0.355469,0.3554 0,0.042 -0.03451,0.077 -0.07669,0.077 z M 5.9583869,1039.846 C 5.568774,1040.0318 5.25,1040.1419 5.25,1040.0907 c 0,-0.051 0.2827132,-0.2392 0.6282514,-0.4179 0.3455384,-0.1787 0.6643124,-0.2888 0.7083869,-0.2448 0.044074,0.044 -0.2386388,0.2322 -0.6282514,0.418 z m 5.9947381,0.3307 c -0.05586,-4e-4 -0.330078,-0.1314 -0.609375,-0.291 l -0.507812,-0.2903 0.215082,-0.01 c 0.118296,0 0.392515,0.127 0.609375,0.291 0.216861,0.164 0.348589,0.2979 0.29273,0.2975 z m -1.320312,-0.6131 c -0.111719,-0.01 -0.385938,-0.09 -0.609375,-0.1857 l -0.4062505,-0.1746 0.3046875,-0.011 c 0.167578,-0.01 0.441797,0.078 0.609375,0.1858 l 0.304688,0.1969 -0.203125,-0.011 z m -3.4361985,-0.2018 -0.3893228,0.016 0.1227213,-0.1228 0.1227214,-0.1227 0.2666015,0.1067 0.2666016,0.1067 -0.389323,0.016 z M 8.5,1039.1276 l -0.7109375,0 0.3554688,-0.093 c 0.1955078,-0.051 0.5154296,-0.051 0.7109375,0 l 0.3554687,0.093 -0.7109375,0 z"
         id="path7242" />
    </g>
  </g>
</svg>
