<?xml version="1.0" encoding="UTF-8" standalone="no"?>
<!-- Created with Inkscape (http://www.inkscape.org/) -->

<svg
   xmlns:dc="http://purl.org/dc/elements/1.1/"
   xmlns:cc="http://creativecommons.org/ns#"
   xmlns:rdf="http://www.w3.org/1999/02/22-rdf-syntax-ns#"
   xmlns:svg="http://www.w3.org/2000/svg"
   xmlns="http://www.w3.org/2000/svg"
   xmlns:sodipodi="http://sodipodi.sourceforge.net/DTD/sodipodi-0.dtd"
   xmlns:inkscape="http://www.inkscape.org/namespaces/inkscape"
   width="16"
   height="16"
   id="svg2"
   version="1.1"
   inkscape:version="0.47 r22583"
   sodipodi:docname="GLOB1-32.svg">
  <defs
     id="defs4">
    <inkscape:perspective
       sodipodi:type="inkscape:persp3d"
       inkscape:vp_x="0 : 526.18109 : 1"
       inkscape:vp_y="0 : 1000 : 0"
       inkscape:vp_z="744.09448 : 526.18109 : 1"
       inkscape:persp3d-origin="372.04724 : 350.78739 : 1"
       id="perspective10" />
    <inkscape:perspective
       id="perspective2824"
       inkscape:persp3d-origin="0.5 : 0.33333333 : 1"
       inkscape:vp_z="1 : 0.5 : 1"
       inkscape:vp_y="0 : 1000 : 0"
       inkscape:vp_x="0 : 0.5 : 1"
       sodipodi:type="inkscape:persp3d" />
    <inkscape:perspective
       id="perspective5878"
       inkscape:persp3d-origin="0.5 : 0.33333333 : 1"
       inkscape:vp_z="1 : 0.5 : 1"
       inkscape:vp_y="0 : 1000 : 0"
       inkscape:vp_x="0 : 0.5 : 1"
       sodipodi:type="inkscape:persp3d" />
    <inkscape:perspective
       id="perspective5921"
       inkscape:persp3d-origin="0.5 : 0.33333333 : 1"
       inkscape:vp_z="1 : 0.5 : 1"
       inkscape:vp_y="0 : 1000 : 0"
       inkscape:vp_x="0 : 0.5 : 1"
       sodipodi:type="inkscape:persp3d" />
    <inkscape:perspective
       id="perspective5943"
       inkscape:persp3d-origin="0.5 : 0.33333333 : 1"
       inkscape:vp_z="1 : 0.5 : 1"
       inkscape:vp_y="0 : 1000 : 0"
       inkscape:vp_x="0 : 0.5 : 1"
       sodipodi:type="inkscape:persp3d" />
    <inkscape:perspective
       id="perspective5989"
       inkscape:persp3d-origin="0.5 : 0.33333333 : 1"
       inkscape:vp_z="1 : 0.5 : 1"
       inkscape:vp_y="0 : 1000 : 0"
       inkscape:vp_x="0 : 0.5 : 1"
       sodipodi:type="inkscape:persp3d" />
    <inkscape:perspective
       id="perspective6011"
       inkscape:persp3d-origin="0.5 : 0.33333333 : 1"
       inkscape:vp_z="1 : 0.5 : 1"
       inkscape:vp_y="0 : 1000 : 0"
       inkscape:vp_x="0 : 0.5 : 1"
       sodipodi:type="inkscape:persp3d" />
    <inkscape:perspective
       id="perspective6033"
       inkscape:persp3d-origin="0.5 : 0.33333333 : 1"
       inkscape:vp_z="1 : 0.5 : 1"
       inkscape:vp_y="0 : 1000 : 0"
       inkscape:vp_x="0 : 0.5 : 1"
       sodipodi:type="inkscape:persp3d" />
    <inkscape:perspective
       id="perspective6245"
       inkscape:persp3d-origin="0.5 : 0.33333333 : 1"
       inkscape:vp_z="1 : 0.5 : 1"
       inkscape:vp_y="0 : 1000 : 0"
       inkscape:vp_x="0 : 0.5 : 1"
       sodipodi:type="inkscape:persp3d" />
    <inkscape:perspective
       id="perspective6269"
       inkscape:persp3d-origin="0.5 : 0.33333333 : 1"
       inkscape:vp_z="1 : 0.5 : 1"
       inkscape:vp_y="0 : 1000 : 0"
       inkscape:vp_x="0 : 0.5 : 1"
       sodipodi:type="inkscape:persp3d" />
    <inkscape:perspective
       id="perspective6364"
       inkscape:persp3d-origin="0.5 : 0.33333333 : 1"
       inkscape:vp_z="1 : 0.5 : 1"
       inkscape:vp_y="0 : 1000 : 0"
       inkscape:vp_x="0 : 0.5 : 1"
       sodipodi:type="inkscape:persp3d" />
    <inkscape:perspective
       id="perspective6396"
       inkscape:persp3d-origin="0.5 : 0.33333333 : 1"
       inkscape:vp_z="1 : 0.5 : 1"
       inkscape:vp_y="0 : 1000 : 0"
       inkscape:vp_x="0 : 0.5 : 1"
       sodipodi:type="inkscape:persp3d" />
    <inkscape:perspective
       id="perspective6438"
       inkscape:persp3d-origin="0.5 : 0.33333333 : 1"
       inkscape:vp_z="1 : 0.5 : 1"
       inkscape:vp_y="0 : 1000 : 0"
       inkscape:vp_x="0 : 0.5 : 1"
       sodipodi:type="inkscape:persp3d" />
    <inkscape:perspective
       id="perspective6460"
       inkscape:persp3d-origin="0.5 : 0.33333333 : 1"
       inkscape:vp_z="1 : 0.5 : 1"
       inkscape:vp_y="0 : 1000 : 0"
       inkscape:vp_x="0 : 0.5 : 1"
       sodipodi:type="inkscape:persp3d" />
    <inkscape:perspective
       id="perspective6480"
       inkscape:persp3d-origin="0.5 : 0.33333333 : 1"
       inkscape:vp_z="1 : 0.5 : 1"
       inkscape:vp_y="0 : 1000 : 0"
       inkscape:vp_x="0 : 0.5 : 1"
       sodipodi:type="inkscape:persp3d" />
    <inkscape:perspective
       id="perspective6504"
       inkscape:persp3d-origin="0.5 : 0.33333333 : 1"
       inkscape:vp_z="1 : 0.5 : 1"
       inkscape:vp_y="0 : 1000 : 0"
       inkscape:vp_x="0 : 0.5 : 1"
       sodipodi:type="inkscape:persp3d" />
    <inkscape:perspective
       id="perspective6524"
       inkscape:persp3d-origin="0.5 : 0.33333333 : 1"
       inkscape:vp_z="1 : 0.5 : 1"
       inkscape:vp_y="0 : 1000 : 0"
       inkscape:vp_x="0 : 0.5 : 1"
       sodipodi:type="inkscape:persp3d" />
    <inkscape:perspective
       id="perspective6548"
       inkscape:persp3d-origin="0.5 : 0.33333333 : 1"
       inkscape:vp_z="1 : 0.5 : 1"
       inkscape:vp_y="0 : 1000 : 0"
       inkscape:vp_x="0 : 0.5 : 1"
       sodipodi:type="inkscape:persp3d" />
    <inkscape:perspective
       id="perspective6572"
       inkscape:persp3d-origin="0.5 : 0.33333333 : 1"
       inkscape:vp_z="1 : 0.5 : 1"
       inkscape:vp_y="0 : 1000 : 0"
       inkscape:vp_x="0 : 0.5 : 1"
       sodipodi:type="inkscape:persp3d" />
    <inkscape:perspective
       id="perspective6594"
       inkscape:persp3d-origin="0.5 : 0.33333333 : 1"
       inkscape:vp_z="1 : 0.5 : 1"
       inkscape:vp_y="0 : 1000 : 0"
       inkscape:vp_x="0 : 0.5 : 1"
       sodipodi:type="inkscape:persp3d" />
    <inkscape:perspective
       id="perspective6614"
       inkscape:persp3d-origin="0.5 : 0.33333333 : 1"
       inkscape:vp_z="1 : 0.5 : 1"
       inkscape:vp_y="0 : 1000 : 0"
       inkscape:vp_x="0 : 0.5 : 1"
       sodipodi:type="inkscape:persp3d" />
    <inkscape:perspective
       id="perspective6650"
       inkscape:persp3d-origin="0.5 : 0.33333333 : 1"
       inkscape:vp_z="1 : 0.5 : 1"
       inkscape:vp_y="0 : 1000 : 0"
       inkscape:vp_x="0 : 0.5 : 1"
       sodipodi:type="inkscape:persp3d" />
    <inkscape:perspective
       id="perspective6676"
       inkscape:persp3d-origin="0.5 : 0.33333333 : 1"
       inkscape:vp_z="1 : 0.5 : 1"
       inkscape:vp_y="0 : 1000 : 0"
       inkscape:vp_x="0 : 0.5 : 1"
       sodipodi:type="inkscape:persp3d" />
    <inkscape:perspective
       id="perspective6710"
       inkscape:persp3d-origin="0.5 : 0.33333333 : 1"
       inkscape:vp_z="1 : 0.5 : 1"
       inkscape:vp_y="0 : 1000 : 0"
       inkscape:vp_x="0 : 0.5 : 1"
       sodipodi:type="inkscape:persp3d" />
    <inkscape:perspective
       id="perspective6748"
       inkscape:persp3d-origin="0.5 : 0.33333333 : 1"
       inkscape:vp_z="1 : 0.5 : 1"
       inkscape:vp_y="0 : 1000 : 0"
       inkscape:vp_x="0 : 0.5 : 1"
       sodipodi:type="inkscape:persp3d" />
    <inkscape:perspective
       id="perspective6786"
       inkscape:persp3d-origin="0.5 : 0.33333333 : 1"
       inkscape:vp_z="1 : 0.5 : 1"
       inkscape:vp_y="0 : 1000 : 0"
       inkscape:vp_x="0 : 0.5 : 1"
       sodipodi:type="inkscape:persp3d" />
    <inkscape:perspective
       id="perspective6810"
       inkscape:persp3d-origin="0.5 : 0.33333333 : 1"
       inkscape:vp_z="1 : 0.5 : 1"
       inkscape:vp_y="0 : 1000 : 0"
       inkscape:vp_x="0 : 0.5 : 1"
       sodipodi:type="inkscape:persp3d" />
    <inkscape:perspective
       id="perspective6848"
       inkscape:persp3d-origin="0.5 : 0.33333333 : 1"
       inkscape:vp_z="1 : 0.5 : 1"
       inkscape:vp_y="0 : 1000 : 0"
       inkscape:vp_x="0 : 0.5 : 1"
       sodipodi:type="inkscape:persp3d" />
    <inkscape:perspective
       id="perspective6870"
       inkscape:persp3d-origin="0.5 : 0.33333333 : 1"
       inkscape:vp_z="1 : 0.5 : 1"
       inkscape:vp_y="0 : 1000 : 0"
       inkscape:vp_x="0 : 0.5 : 1"
       sodipodi:type="inkscape:persp3d" />
    <inkscape:perspective
       id="perspective6908"
       inkscape:persp3d-origin="0.5 : 0.33333333 : 1"
       inkscape:vp_z="1 : 0.5 : 1"
       inkscape:vp_y="0 : 1000 : 0"
       inkscape:vp_x="0 : 0.5 : 1"
       sodipodi:type="inkscape:persp3d" />
    <inkscape:perspective
       id="perspective6946"
       inkscape:persp3d-origin="0.5 : 0.33333333 : 1"
       inkscape:vp_z="1 : 0.5 : 1"
       inkscape:vp_y="0 : 1000 : 0"
       inkscape:vp_x="0 : 0.5 : 1"
       sodipodi:type="inkscape:persp3d" />
    <inkscape:perspective
       id="perspective6970"
       inkscape:persp3d-origin="0.5 : 0.33333333 : 1"
       inkscape:vp_z="1 : 0.5 : 1"
       inkscape:vp_y="0 : 1000 : 0"
       inkscape:vp_x="0 : 0.5 : 1"
       sodipodi:type="inkscape:persp3d" />
    <inkscape:perspective
       id="perspective7008"
       inkscape:persp3d-origin="0.5 : 0.33333333 : 1"
       inkscape:vp_z="1 : 0.5 : 1"
       inkscape:vp_y="0 : 1000 : 0"
       inkscape:vp_x="0 : 0.5 : 1"
       sodipodi:type="inkscape:persp3d" />
    <inkscape:perspective
       id="perspective7036"
       inkscape:persp3d-origin="0.5 : 0.33333333 : 1"
       inkscape:vp_z="1 : 0.5 : 1"
       inkscape:vp_y="0 : 1000 : 0"
       inkscape:vp_x="0 : 0.5 : 1"
       sodipodi:type="inkscape:persp3d" />
    <inkscape:perspective
       id="perspective7060"
       inkscape:persp3d-origin="0.5 : 0.33333333 : 1"
       inkscape:vp_z="1 : 0.5 : 1"
       inkscape:vp_y="0 : 1000 : 0"
       inkscape:vp_x="0 : 0.5 : 1"
       sodipodi:type="inkscape:persp3d" />
    <inkscape:perspective
       id="perspective7098"
       inkscape:persp3d-origin="0.5 : 0.33333333 : 1"
       inkscape:vp_z="1 : 0.5 : 1"
       inkscape:vp_y="0 : 1000 : 0"
       inkscape:vp_x="0 : 0.5 : 1"
       sodipodi:type="inkscape:persp3d" />
    <inkscape:perspective
       id="perspective7136"
       inkscape:persp3d-origin="0.5 : 0.33333333 : 1"
       inkscape:vp_z="1 : 0.5 : 1"
       inkscape:vp_y="0 : 1000 : 0"
       inkscape:vp_x="0 : 0.5 : 1"
       sodipodi:type="inkscape:persp3d" />
    <inkscape:perspective
       id="perspective7174"
       inkscape:persp3d-origin="0.5 : 0.33333333 : 1"
       inkscape:vp_z="1 : 0.5 : 1"
       inkscape:vp_y="0 : 1000 : 0"
       inkscape:vp_x="0 : 0.5 : 1"
       sodipodi:type="inkscape:persp3d" />
    <inkscape:perspective
       id="perspective7212"
       inkscape:persp3d-origin="0.5 : 0.33333333 : 1"
       inkscape:vp_z="1 : 0.5 : 1"
       inkscape:vp_y="0 : 1000 : 0"
       inkscape:vp_x="0 : 0.5 : 1"
       sodipodi:type="inkscape:persp3d" />
  </defs>
  <sodipodi:namedview
     id="base"
     pagecolor="#ffffff"
     bordercolor="#666666"
     borderopacity="1.0"
     inkscape:pageopacity="0.0"
     inkscape:pageshadow="2"
     inkscape:zoom="8.671875"
     inkscape:cx="10.564203"
     inkscape:cy="2.743179"
     inkscape:document-units="px"
     inkscape:current-layer="layer1"
     showgrid="true"
     inkscape:window-width="1280"
     inkscape:window-height="780"
     inkscape:window-x="-8"
     inkscape:window-y="-8"
     inkscape:window-maximized="1">
    <inkscape:grid
       type="xygrid"
       id="grid6324"
       empspacing="5"
       visible="true"
       enabled="true"
       snapvisiblegridlinesonly="true" />
  </sodipodi:namedview>
  <metadata
     id="metadata7">
    <rdf:RDF>
      <cc:Work
         rdf:about="">
        <dc:format>image/svg+xml</dc:format>
        <dc:type
           rdf:resource="http://purl.org/dc/dcmitype/StillImage" />
        <dc:title></dc:title>
      </cc:Work>
    </rdf:RDF>
  </metadata>
  <g
     inkscape:label="Calque 1"
     inkscape:groupmode="layer"
     id="layer1"
     transform="translate(0,-1036.3622)">
    <g
       id="g7218"
       inkscape:transform-center-x="-9.1390399"
       inkscape:transform-center-y="-1.1048"
       transform="translate(-0.0361785,0.0362)">
      <path
         style="fill:#7f7f7f"
         d="m 8.1390399,1049.7736 -1.0342871,0 0,-0.1723 0,-0.1724 -0.5171436,0 -0.5171435,0 0,-0.1724 0,-0.1724 -0.3067077,0 -0.3067077,0 -0.2484906,-0.3447 -0.2484906,-0.3448 -0.23283,0 c -0.1280565,0 -0.3436464,-0.1108 -0.4790889,-0.2463 -0.1354423,-0.1354 -0.2462588,-0.351 -0.2462588,-0.4791 l 0,-0.2328 -0.3447623,-0.2485 -0.3447624,-0.2485 0,-0.3067 0,-0.3067 -0.1723812,0 -0.1723812,0 0,-0.5171 0,-0.5172 -0.1723812,0 -0.1723812,0 0,-1.0343 0,-1.0342 0.1723812,0 0.1723812,0 0,-0.5172 0,-0.5171 0.1723812,0 0.1723812,0 0,-0.3067 0,-0.3067 0.3447624,-0.2485 0.3447623,-0.2485 0,-0.2329 c 0,-0.128 0.1108165,-0.3436 0.2462588,-0.479 0.1354425,-0.1355 0.3510324,-0.2463 0.4790889,-0.2463 l 0.23283,0 0.2484906,-0.3448 0.2484906,-0.3447 0.3067077,0 0.3067077,0 0,-0.1724 0,-0.1724 0.5171435,0 0.5171436,0 0,-0.1724 0,-0.1724 1.0342871,0 1.0342871,0 0,0.1724 0,0.1724 0.5171436,0 0.5171434,0 0,0.1724 0,0.1724 0.344762,0 0.344763,0 0,0.1724 0,0.1723 0.263108,0 0.263108,0 0.771179,0.7712 0.771179,0.7712 0,0.2631 0,0.2631 0.172381,0 0.172381,0 0,0.6895 0,0.6896 0.172382,0 0.172381,0 0,1.0342 0,1.0343 -0.172381,0 -0.172382,0 0,0.5172 0,0.5171 -0.172381,0 -0.172381,0 0,0.3067 0,0.3067 -0.344762,0.2485 -0.344763,0.2485 0,0.2328 c 0,0.1281 -0.110816,0.3437 -0.246258,0.4791 -0.135443,0.1355 -0.351033,0.2463 -0.479089,0.2463 l -0.23283,0 -0.248491,0.3448 -0.248491,0.3447 -0.306707,0 -0.306708,0 0,0.1724 0,0.1724 -0.5171434,0 -0.5171436,0 0,0.1724 0,0.1723 -1.0342871,0 z"
         id="path7224" />
      <path
         style="fill:#00007f"
         d="m 8.1390399,1049.7736 -1.0342871,0 0,-0.1723 0,-0.1724 -0.5171436,0 -0.5171435,0 0,-0.1724 0,-0.1724 -0.3067077,0 -0.3067077,0 -0.2484906,-0.3447 -0.2484906,-0.3448 -0.23283,0 c -0.1280565,0 -0.3436464,-0.1108 -0.4790889,-0.2463 -0.1354423,-0.1354 -0.2462588,-0.351 -0.2462588,-0.4791 l 0,-0.2328 -0.3447623,-0.2485 -0.3447624,-0.2485 0,-0.3067 0,-0.3067 -0.1723812,0 -0.1723812,0 0,-0.5171 0,-0.5172 -0.1723812,0 -0.1723812,0 0,-1.0343 0,-1.0342 0.1723812,0 0.1723812,0 0,-0.5172 0,-0.5171 0.1723812,0 0.1723812,0 0,-0.3067 0,-0.3067 0.3447624,-0.2485 0.3447623,-0.2485 0,-0.2329 c 0,-0.128 0.1108165,-0.3436 0.2462588,-0.479 0.1354425,-0.1355 0.3510324,-0.2463 0.4790889,-0.2463 l 0.23283,0 0.2484906,-0.3448 0.2484906,-0.3447 0.3067077,0 0.3067077,0 0,-0.1724 0,-0.1724 0.5171435,0 0.5171436,0 0,-0.1724 0,-0.1724 1.0342871,0 1.0342871,0 0,0.1724 0,0.1724 0.5171436,0 0.5171434,0 0,0.3448 0,0.3447 0.306708,0 0.306707,0 0.248491,0.3448 0.248491,0.3448 0.306707,0 0.306708,0 0,0.3067 0,0.3067 0.344762,0.2485 0.344763,0.2485 0,0.3067 0,0.3067 0.344762,0 0.344762,0 0,0.5171 0,0.5172 0.172382,0 0.172381,0 0,1.0342 0,1.0343 -0.172381,0 -0.172382,0 0,0.5172 0,0.5171 -0.172381,0 -0.172381,0 0,0.3067 0,0.3067 -0.344762,0.2485 -0.344763,0.2485 0,0.2328 c 0,0.1281 -0.110816,0.3437 -0.246258,0.4791 -0.135443,0.1355 -0.351033,0.2463 -0.479089,0.2463 l -0.23283,0 -0.248491,0.3448 -0.248491,0.3447 -0.306707,0 -0.306708,0 0,0.1724 0,0.1724 -0.5171434,0 -0.5171436,0 0,0.1724 0,0.1723 -1.0342871,0 z"
         id="path7222" />
      <path
         style="fill:#007f00"
         d="m 5.251655,1048.7275 c -0.071107,-0.01 -0.3813933,-0.2758 -0.6895247,-0.5984 l -0.5602389,-0.5866 0,-0.2254 0,-0.2254 -0.3447623,-0.2485 -0.3447624,-0.2485 0,-0.4791 0,-0.4791 -0.1723812,0 -0.1723812,0 0,-0.3448 0,-0.3447 -0.1723812,0 -0.1723812,0 0,-0.6896 0,-0.6895 0.1723812,0 0.1723812,0 0,-0.4432 0,-0.4433 0.2585718,-0.2586 0.2585718,-0.2586 0.2585718,0.2586 c 0.1422144,0.1422 0.2585717,0.374 0.2585717,0.5151 l 0,0.2565 -0.2154765,0.1006 -0.2154764,0.1005 0.2154764,0.1006 0.2154765,0.1006 0,0.3304 0,0.3303 0.3447624,0 0.3447624,0 0,0.1724 0,0.1724 0.3447623,0 0.3447624,0 0,0.1724 c 0,0.095 -0.077571,0.1724 -0.1723812,0.1724 l -0.1723812,0 0,0.6895 0,0.6895 -0.1723811,0 -0.1723812,0 0,0.6515 0,0.6515 0.3447623,0.2485 0.3447624,0.2484 0,0.3068 0,0.3067 -0.1292859,-0.012 z m -1.7669071,-5.8491 c 0.09481,0 0.1723812,-0.078 0.1723812,-0.1724 0,-0.095 -0.077572,-0.1724 -0.1723812,-0.1724 -0.09481,0 -0.1723812,0.078 -0.1723812,0.1724 0,0.095 0.077571,0.1724 0.1723812,0.1724 z m 6.5935801,4.4754 -0.474048,-0.01 -0.2154765,-0.2447 c -0.1185121,-0.1347 -0.2154765,-0.3644 -0.2154765,-0.5106 l 0,-0.2659 -0.1723812,0 -0.1723812,0 0,-0.9604 0,-0.9604 -0.2462587,-0.2463 -0.246259,-0.2462 -0.537292,0 -0.5372919,0 -0.4231176,-0.4231 -0.4231174,-0.4231 0,-0.2284 0,-0.2284 0.3447624,-0.2484 0.3447624,-0.2485 0,-0.3067 0,-0.3068 0.5171435,0 0.5171436,0 0,-0.1723 0,-0.1724 0.3447624,0 0.3447623,0 0,0.1724 0,0.1723 0.8238513,0 0.8238511,0 0.248491,0.3448 c 0.13667,0.1896 0.308937,0.3448 0.382817,0.3448 l 0.134326,0 0,-0.3448 0,-0.3448 -0.344762,0 -0.344763,0 0,-0.1723 0,-0.1724 -0.502778,0 -0.5027784,0 -0.087432,-0.2155 -0.087432,-0.2155 -0.1986283,0.2586 -0.1986283,0.2586 -0.087432,-0.2155 -0.087432,-0.2155 -0.3303972,0 -0.3303973,0 0,0.1724 0,0.1724 -0.3447624,0 -0.3447624,0 0,-0.6895 0,-0.6896 0.3303974,0 0.3303971,0 0.076956,0.2155 0.076956,0.2155 0.1528857,-0.1529 0.1528858,-0.1529 -0.2154765,-0.077 c -0.1185121,-0.042 -0.2154765,-0.1481 -0.2154765,-0.235 l 0,-0.158 1.0342871,0 1.0342872,0 0,0.1724 0,0.1723 0.306708,0 0.306707,0 0.248491,0.3448 0.248491,0.3448 0.306707,0 0.306708,0 0,0.3067 0,0.3067 0.344762,0.2485 0.344763,0.2485 0,0.3067 0,0.3067 0.172381,0 0.172381,0 0,0.5171 0,0.5172 -0.172381,0 -0.172381,0 0,-0.3448 0,-0.3448 -0.172381,0 -0.172382,0 0,0.3448 c 0,0.1896 -0.04908,0.3448 -0.109066,0.3448 -0.05999,0 -0.254407,-0.1676 -0.432046,-0.3724 l -0.32298,-0.3724 -0.103381,0.1033 -0.103379,0.1034 0.4414,0.4414 0.4414,0.4414 0.266407,0 c 0.146524,0 0.266408,0.044 0.266408,0.097 0,0.054 -0.387858,0.4752 -0.861906,0.9369 l -0.861906,0.8395 0,0.6146 0,0.6145 -0.172381,0 -0.172382,0 0,0.3447 0,0.3448 -0.474048,-0.01 z m 1.262077,-0.3383 -0.0985,0 0,-0.8619 0,-0.8619 0.517144,0 0.517143,0 0,0.3448 0,0.3448 -0.172381,0 -0.172381,0 0,0.2708 0,0.2709 -0.246259,0.2463 c -0.135442,0.1354 -0.290585,0.2462 -0.344762,0.2462 z m -7.1661324,-5.8609 -0.1723812,0 0,-0.2709 0,-0.2709 0.2462588,-0.2462 c 0.1354425,-0.1355 0.3510324,-0.2463 0.4790889,-0.2463 l 0.23283,0 0.2484906,-0.3448 0.2484906,-0.3447 0.3067077,0 0.3067077,0 0,-0.1724 0,-0.1724 0.5171435,0 0.5171436,0 0,-0.1724 0,-0.1724 0.3447623,0 c 0.1896193,0 0.3447624,0.042 0.3447624,0.094 0,0.052 -0.1904028,0.2844 -0.4231174,0.5171 l -0.4231175,0.4231 -0.3696275,0 -0.3696273,0 -0.4830845,0.5172 -0.4830845,0.5171 -0.4479825,0 -0.4479825,0 0,0.1724 c 0,0.095 -0.077572,0.1724 -0.1723812,0.1724 z"
         id="path7220" />
    </g>
  </g>
</svg>
