<?xml version="1.0" encoding="UTF-8" standalone="no"?>
<!-- Created with Inkscape (http://www.inkscape.org/) -->

<svg
   xmlns:dc="http://purl.org/dc/elements/1.1/"
   xmlns:cc="http://creativecommons.org/ns#"
   xmlns:rdf="http://www.w3.org/1999/02/22-rdf-syntax-ns#"
   xmlns:svg="http://www.w3.org/2000/svg"
   xmlns="http://www.w3.org/2000/svg"
   xmlns:sodipodi="http://sodipodi.sourceforge.net/DTD/sodipodi-0.dtd"
   xmlns:inkscape="http://www.inkscape.org/namespaces/inkscape"
   width="16"
   height="16"
   id="svg2"
   version="1.1"
   inkscape:version="0.47 r22583"
   sodipodi:docname="GOLF-64.svg">
  <defs
     id="defs4">
    <inkscape:perspective
       sodipodi:type="inkscape:persp3d"
       inkscape:vp_x="0 : 526.18109 : 1"
       inkscape:vp_y="0 : 1000 : 0"
       inkscape:vp_z="744.09448 : 526.18109 : 1"
       inkscape:persp3d-origin="372.04724 : 350.78739 : 1"
       id="perspective10" />
    <inkscape:perspective
       id="perspective2824"
       inkscape:persp3d-origin="0.5 : 0.33333333 : 1"
       inkscape:vp_z="1 : 0.5 : 1"
       inkscape:vp_y="0 : 1000 : 0"
       inkscape:vp_x="0 : 0.5 : 1"
       sodipodi:type="inkscape:persp3d" />
    <inkscape:perspective
       id="perspective5878"
       inkscape:persp3d-origin="0.5 : 0.33333333 : 1"
       inkscape:vp_z="1 : 0.5 : 1"
       inkscape:vp_y="0 : 1000 : 0"
       inkscape:vp_x="0 : 0.5 : 1"
       sodipodi:type="inkscape:persp3d" />
    <inkscape:perspective
       id="perspective5921"
       inkscape:persp3d-origin="0.5 : 0.33333333 : 1"
       inkscape:vp_z="1 : 0.5 : 1"
       inkscape:vp_y="0 : 1000 : 0"
       inkscape:vp_x="0 : 0.5 : 1"
       sodipodi:type="inkscape:persp3d" />
    <inkscape:perspective
       id="perspective5943"
       inkscape:persp3d-origin="0.5 : 0.33333333 : 1"
       inkscape:vp_z="1 : 0.5 : 1"
       inkscape:vp_y="0 : 1000 : 0"
       inkscape:vp_x="0 : 0.5 : 1"
       sodipodi:type="inkscape:persp3d" />
    <inkscape:perspective
       id="perspective5989"
       inkscape:persp3d-origin="0.5 : 0.33333333 : 1"
       inkscape:vp_z="1 : 0.5 : 1"
       inkscape:vp_y="0 : 1000 : 0"
       inkscape:vp_x="0 : 0.5 : 1"
       sodipodi:type="inkscape:persp3d" />
    <inkscape:perspective
       id="perspective6011"
       inkscape:persp3d-origin="0.5 : 0.33333333 : 1"
       inkscape:vp_z="1 : 0.5 : 1"
       inkscape:vp_y="0 : 1000 : 0"
       inkscape:vp_x="0 : 0.5 : 1"
       sodipodi:type="inkscape:persp3d" />
    <inkscape:perspective
       id="perspective6033"
       inkscape:persp3d-origin="0.5 : 0.33333333 : 1"
       inkscape:vp_z="1 : 0.5 : 1"
       inkscape:vp_y="0 : 1000 : 0"
       inkscape:vp_x="0 : 0.5 : 1"
       sodipodi:type="inkscape:persp3d" />
    <inkscape:perspective
       id="perspective6245"
       inkscape:persp3d-origin="0.5 : 0.33333333 : 1"
       inkscape:vp_z="1 : 0.5 : 1"
       inkscape:vp_y="0 : 1000 : 0"
       inkscape:vp_x="0 : 0.5 : 1"
       sodipodi:type="inkscape:persp3d" />
    <inkscape:perspective
       id="perspective6269"
       inkscape:persp3d-origin="0.5 : 0.33333333 : 1"
       inkscape:vp_z="1 : 0.5 : 1"
       inkscape:vp_y="0 : 1000 : 0"
       inkscape:vp_x="0 : 0.5 : 1"
       sodipodi:type="inkscape:persp3d" />
    <inkscape:perspective
       id="perspective6364"
       inkscape:persp3d-origin="0.5 : 0.33333333 : 1"
       inkscape:vp_z="1 : 0.5 : 1"
       inkscape:vp_y="0 : 1000 : 0"
       inkscape:vp_x="0 : 0.5 : 1"
       sodipodi:type="inkscape:persp3d" />
    <inkscape:perspective
       id="perspective6396"
       inkscape:persp3d-origin="0.5 : 0.33333333 : 1"
       inkscape:vp_z="1 : 0.5 : 1"
       inkscape:vp_y="0 : 1000 : 0"
       inkscape:vp_x="0 : 0.5 : 1"
       sodipodi:type="inkscape:persp3d" />
    <inkscape:perspective
       id="perspective6438"
       inkscape:persp3d-origin="0.5 : 0.33333333 : 1"
       inkscape:vp_z="1 : 0.5 : 1"
       inkscape:vp_y="0 : 1000 : 0"
       inkscape:vp_x="0 : 0.5 : 1"
       sodipodi:type="inkscape:persp3d" />
    <inkscape:perspective
       id="perspective6460"
       inkscape:persp3d-origin="0.5 : 0.33333333 : 1"
       inkscape:vp_z="1 : 0.5 : 1"
       inkscape:vp_y="0 : 1000 : 0"
       inkscape:vp_x="0 : 0.5 : 1"
       sodipodi:type="inkscape:persp3d" />
    <inkscape:perspective
       id="perspective6480"
       inkscape:persp3d-origin="0.5 : 0.33333333 : 1"
       inkscape:vp_z="1 : 0.5 : 1"
       inkscape:vp_y="0 : 1000 : 0"
       inkscape:vp_x="0 : 0.5 : 1"
       sodipodi:type="inkscape:persp3d" />
    <inkscape:perspective
       id="perspective6504"
       inkscape:persp3d-origin="0.5 : 0.33333333 : 1"
       inkscape:vp_z="1 : 0.5 : 1"
       inkscape:vp_y="0 : 1000 : 0"
       inkscape:vp_x="0 : 0.5 : 1"
       sodipodi:type="inkscape:persp3d" />
    <inkscape:perspective
       id="perspective6524"
       inkscape:persp3d-origin="0.5 : 0.33333333 : 1"
       inkscape:vp_z="1 : 0.5 : 1"
       inkscape:vp_y="0 : 1000 : 0"
       inkscape:vp_x="0 : 0.5 : 1"
       sodipodi:type="inkscape:persp3d" />
    <inkscape:perspective
       id="perspective6548"
       inkscape:persp3d-origin="0.5 : 0.33333333 : 1"
       inkscape:vp_z="1 : 0.5 : 1"
       inkscape:vp_y="0 : 1000 : 0"
       inkscape:vp_x="0 : 0.5 : 1"
       sodipodi:type="inkscape:persp3d" />
    <inkscape:perspective
       id="perspective6572"
       inkscape:persp3d-origin="0.5 : 0.33333333 : 1"
       inkscape:vp_z="1 : 0.5 : 1"
       inkscape:vp_y="0 : 1000 : 0"
       inkscape:vp_x="0 : 0.5 : 1"
       sodipodi:type="inkscape:persp3d" />
    <inkscape:perspective
       id="perspective6594"
       inkscape:persp3d-origin="0.5 : 0.33333333 : 1"
       inkscape:vp_z="1 : 0.5 : 1"
       inkscape:vp_y="0 : 1000 : 0"
       inkscape:vp_x="0 : 0.5 : 1"
       sodipodi:type="inkscape:persp3d" />
    <inkscape:perspective
       id="perspective6614"
       inkscape:persp3d-origin="0.5 : 0.33333333 : 1"
       inkscape:vp_z="1 : 0.5 : 1"
       inkscape:vp_y="0 : 1000 : 0"
       inkscape:vp_x="0 : 0.5 : 1"
       sodipodi:type="inkscape:persp3d" />
    <inkscape:perspective
       id="perspective6650"
       inkscape:persp3d-origin="0.5 : 0.33333333 : 1"
       inkscape:vp_z="1 : 0.5 : 1"
       inkscape:vp_y="0 : 1000 : 0"
       inkscape:vp_x="0 : 0.5 : 1"
       sodipodi:type="inkscape:persp3d" />
    <inkscape:perspective
       id="perspective6676"
       inkscape:persp3d-origin="0.5 : 0.33333333 : 1"
       inkscape:vp_z="1 : 0.5 : 1"
       inkscape:vp_y="0 : 1000 : 0"
       inkscape:vp_x="0 : 0.5 : 1"
       sodipodi:type="inkscape:persp3d" />
    <inkscape:perspective
       id="perspective6710"
       inkscape:persp3d-origin="0.5 : 0.33333333 : 1"
       inkscape:vp_z="1 : 0.5 : 1"
       inkscape:vp_y="0 : 1000 : 0"
       inkscape:vp_x="0 : 0.5 : 1"
       sodipodi:type="inkscape:persp3d" />
    <inkscape:perspective
       id="perspective6748"
       inkscape:persp3d-origin="0.5 : 0.33333333 : 1"
       inkscape:vp_z="1 : 0.5 : 1"
       inkscape:vp_y="0 : 1000 : 0"
       inkscape:vp_x="0 : 0.5 : 1"
       sodipodi:type="inkscape:persp3d" />
    <inkscape:perspective
       id="perspective6786"
       inkscape:persp3d-origin="0.5 : 0.33333333 : 1"
       inkscape:vp_z="1 : 0.5 : 1"
       inkscape:vp_y="0 : 1000 : 0"
       inkscape:vp_x="0 : 0.5 : 1"
       sodipodi:type="inkscape:persp3d" />
    <inkscape:perspective
       id="perspective6810"
       inkscape:persp3d-origin="0.5 : 0.33333333 : 1"
       inkscape:vp_z="1 : 0.5 : 1"
       inkscape:vp_y="0 : 1000 : 0"
       inkscape:vp_x="0 : 0.5 : 1"
       sodipodi:type="inkscape:persp3d" />
    <inkscape:perspective
       id="perspective6848"
       inkscape:persp3d-origin="0.5 : 0.33333333 : 1"
       inkscape:vp_z="1 : 0.5 : 1"
       inkscape:vp_y="0 : 1000 : 0"
       inkscape:vp_x="0 : 0.5 : 1"
       sodipodi:type="inkscape:persp3d" />
    <inkscape:perspective
       id="perspective6870"
       inkscape:persp3d-origin="0.5 : 0.33333333 : 1"
       inkscape:vp_z="1 : 0.5 : 1"
       inkscape:vp_y="0 : 1000 : 0"
       inkscape:vp_x="0 : 0.5 : 1"
       sodipodi:type="inkscape:persp3d" />
    <inkscape:perspective
       id="perspective6908"
       inkscape:persp3d-origin="0.5 : 0.33333333 : 1"
       inkscape:vp_z="1 : 0.5 : 1"
       inkscape:vp_y="0 : 1000 : 0"
       inkscape:vp_x="0 : 0.5 : 1"
       sodipodi:type="inkscape:persp3d" />
    <inkscape:perspective
       id="perspective6946"
       inkscape:persp3d-origin="0.5 : 0.33333333 : 1"
       inkscape:vp_z="1 : 0.5 : 1"
       inkscape:vp_y="0 : 1000 : 0"
       inkscape:vp_x="0 : 0.5 : 1"
       sodipodi:type="inkscape:persp3d" />
    <inkscape:perspective
       id="perspective6970"
       inkscape:persp3d-origin="0.5 : 0.33333333 : 1"
       inkscape:vp_z="1 : 0.5 : 1"
       inkscape:vp_y="0 : 1000 : 0"
       inkscape:vp_x="0 : 0.5 : 1"
       sodipodi:type="inkscape:persp3d" />
    <inkscape:perspective
       id="perspective7008"
       inkscape:persp3d-origin="0.5 : 0.33333333 : 1"
       inkscape:vp_z="1 : 0.5 : 1"
       inkscape:vp_y="0 : 1000 : 0"
       inkscape:vp_x="0 : 0.5 : 1"
       sodipodi:type="inkscape:persp3d" />
    <inkscape:perspective
       id="perspective7036"
       inkscape:persp3d-origin="0.5 : 0.33333333 : 1"
       inkscape:vp_z="1 : 0.5 : 1"
       inkscape:vp_y="0 : 1000 : 0"
       inkscape:vp_x="0 : 0.5 : 1"
       sodipodi:type="inkscape:persp3d" />
    <inkscape:perspective
       id="perspective7060"
       inkscape:persp3d-origin="0.5 : 0.33333333 : 1"
       inkscape:vp_z="1 : 0.5 : 1"
       inkscape:vp_y="0 : 1000 : 0"
       inkscape:vp_x="0 : 0.5 : 1"
       sodipodi:type="inkscape:persp3d" />
    <inkscape:perspective
       id="perspective7098"
       inkscape:persp3d-origin="0.5 : 0.33333333 : 1"
       inkscape:vp_z="1 : 0.5 : 1"
       inkscape:vp_y="0 : 1000 : 0"
       inkscape:vp_x="0 : 0.5 : 1"
       sodipodi:type="inkscape:persp3d" />
    <inkscape:perspective
       id="perspective7136"
       inkscape:persp3d-origin="0.5 : 0.33333333 : 1"
       inkscape:vp_z="1 : 0.5 : 1"
       inkscape:vp_y="0 : 1000 : 0"
       inkscape:vp_x="0 : 0.5 : 1"
       sodipodi:type="inkscape:persp3d" />
    <inkscape:perspective
       id="perspective7174"
       inkscape:persp3d-origin="0.5 : 0.33333333 : 1"
       inkscape:vp_z="1 : 0.5 : 1"
       inkscape:vp_y="0 : 1000 : 0"
       inkscape:vp_x="0 : 0.5 : 1"
       sodipodi:type="inkscape:persp3d" />
    <inkscape:perspective
       id="perspective7212"
       inkscape:persp3d-origin="0.5 : 0.33333333 : 1"
       inkscape:vp_z="1 : 0.5 : 1"
       inkscape:vp_y="0 : 1000 : 0"
       inkscape:vp_x="0 : 0.5 : 1"
       sodipodi:type="inkscape:persp3d" />
    <inkscape:perspective
       id="perspective7234"
       inkscape:persp3d-origin="0.5 : 0.33333333 : 1"
       inkscape:vp_z="1 : 0.5 : 1"
       inkscape:vp_y="0 : 1000 : 0"
       inkscape:vp_x="0 : 0.5 : 1"
       sodipodi:type="inkscape:persp3d" />
    <inkscape:perspective
       id="perspective7272"
       inkscape:persp3d-origin="0.5 : 0.33333333 : 1"
       inkscape:vp_z="1 : 0.5 : 1"
       inkscape:vp_y="0 : 1000 : 0"
       inkscape:vp_x="0 : 0.5 : 1"
       sodipodi:type="inkscape:persp3d" />
    <inkscape:perspective
       id="perspective7294"
       inkscape:persp3d-origin="0.5 : 0.33333333 : 1"
       inkscape:vp_z="1 : 0.5 : 1"
       inkscape:vp_y="0 : 1000 : 0"
       inkscape:vp_x="0 : 0.5 : 1"
       sodipodi:type="inkscape:persp3d" />
  </defs>
  <sodipodi:namedview
     id="base"
     pagecolor="#ffffff"
     bordercolor="#666666"
     borderopacity="1.0"
     inkscape:pageopacity="0.0"
     inkscape:pageshadow="2"
     inkscape:zoom="8.671875"
     inkscape:cx="7.0898093"
     inkscape:cy="8.1167604"
     inkscape:document-units="px"
     inkscape:current-layer="layer1"
     showgrid="true"
     inkscape:window-width="1280"
     inkscape:window-height="780"
     inkscape:window-x="-8"
     inkscape:window-y="-8"
     inkscape:window-maximized="1">
    <inkscape:grid
       type="xygrid"
       id="grid6324"
       empspacing="5"
       visible="true"
       enabled="true"
       snapvisiblegridlinesonly="true" />
  </sodipodi:namedview>
  <metadata
     id="metadata7">
    <rdf:RDF>
      <cc:Work
         rdf:about="">
        <dc:format>image/svg+xml</dc:format>
        <dc:type
           rdf:resource="http://purl.org/dc/dcmitype/StillImage" />
        <dc:title></dc:title>
      </cc:Work>
    </rdf:RDF>
  </metadata>
  <g
     inkscape:label="Calque 1"
     inkscape:groupmode="layer"
     id="layer1"
     transform="translate(0,-1036.3622)">
    <g
       id="g7300"
       transform="translate(0.7082483,0.2895)">
      <path
         style="fill:#9cd2e8"
         d="m 7.8684064,1049.9242 -0.5249483,0.051 -0.054405,-3.1132 -0.054405,-3.1132 -0.393071,-0.7688 c -0.2161889,-0.4228 -0.5700082,-0.9596 -0.786265,-1.1929 l -0.3931941,-0.424 0,-0.4835 0,-0.4836 0.2574982,-0.2137 0.2574982,-0.2137 1.293298,-0.075 1.2932981,-0.075 0.6010871,0.1983 0.601087,0.1984 0,0.6236 0,0.6237 -0.3370665,0.305 -0.3370664,0.3051 -0.3574705,0.7551 -0.3574705,0.7552 -0.091728,3.1451 -0.091728,3.145 -0.5249481,0.051 z m -1.6506078,-8.7437 c 0.1040611,0 0.3009345,-0.075 0.4374963,-0.163 l 0.2482942,-0.1605 -0.2761383,0 c -0.1518761,0 -0.3948078,-0.048 -0.5398481,-0.1037 l -0.2637097,-0.1012 0.1023518,0.2667 0.1023517,0.2667 0.1892021,0 z"
         id="path7320" />
      <path
         style="fill:#4ccff8"
         d="m 7.8684064,1049.9242 -0.5249483,0.051 -0.054405,-3.1132 -0.054405,-3.1132 -0.393071,-0.7688 c -0.2161889,-0.4228 -0.5700082,-0.9596 -0.786265,-1.1929 l -0.3931941,-0.424 0,-0.4835 0,-0.4836 0.2574982,-0.2137 0.2574982,-0.2137 1.293298,-0.075 1.2932981,-0.075 0.6010871,0.1983 0.601087,0.1984 0,0.6236 0,0.6237 -0.3370665,0.305 -0.3370664,0.3051 -0.3574705,0.7551 -0.3574705,0.7552 -0.091728,3.1451 -0.091728,3.145 -0.5249481,0.051 z m -0.7681246,-7.0879 c 0.01714,0 0.01714,-0.2028 0,-0.4532 l -0.031163,-0.4552 -0.1655295,-0.1216 c -0.091041,-0.067 -0.2593246,-0.1228 -0.3739631,-0.1242 l -0.2084336,0 0.3739631,0.5773 c 0.2056797,0.3175 0.3879866,0.5782 0.4051263,0.5794 z m 0.2382451,-1.344 0.2694086,0.022 0.1899507,-0.2289 0.1899507,-0.2289 -0.7904182,-0.1116 c -0.4347299,-0.061 -0.9276195,-0.1518 -1.0953102,-0.2009 l -0.3048921,-0.089 0.058477,0.3056 0.058477,0.3057 0.5774739,0.1023 c 0.3176106,0.056 0.6987077,0.1122 0.8468822,0.1242 z"
         id="path7318" />
      <path
         style="fill:#36cbfb"
         d="m 7.8684064,1049.9242 -0.5249483,0.051 -0.054405,-3.1132 -0.054405,-3.1132 -0.393071,-0.7688 c -0.2161889,-0.4228 -0.5700082,-0.9596 -0.786265,-1.1929 l -0.3931941,-0.424 0,-0.4835 0,-0.4836 0.2574982,-0.2137 0.2574982,-0.2137 1.293298,-0.075 1.2932981,-0.075 0.6010871,0.1983 0.601087,0.1984 0,0.6236 0,0.6237 -0.3370665,0.305 -0.3370664,0.3051 -0.3574705,0.7551 -0.3574705,0.7552 -0.091728,3.1451 -0.091728,3.145 -0.5249481,0.051 z m -0.098105,-0.2992 0.084279,0 -0.061672,-3.8891 -0.061672,-3.8892 -0.331059,0 c -0.1820825,0 -0.5075993,-0.05 -0.7233707,-0.1081 l -0.3923117,-0.105 0.3003448,0.4584 0.3003449,0.4584 0.1367467,-0.3098 0.1367469,-0.3097 -0.07338,0.3828 -0.073379,0.3828 0.2656927,0.6104 0.2656927,0.6104 0.071359,2.8553 c 0.039247,1.5705 0.1092844,2.8554 0.1556377,2.8554 z m -0.4317744,-8.1327 0.2694086,0.022 0.1899507,-0.2289 0.1899507,-0.2289 -0.7904182,-0.1116 c -0.4347299,-0.061 -0.9276195,-0.1518 -1.0953102,-0.2009 l -0.3048921,-0.089 0.058477,0.3056 0.058477,0.3057 0.5774739,0.1023 c 0.3176106,0.056 0.6987077,0.1122 0.8468822,0.1242 z m -0.7522026,-1.15 0.3172648,-0.013 -0.2172574,-0.087 -0.2172575,-0.087 -0.1000074,0.1 -0.1000074,0.1 0.3172649,-0.013 z m 2.5519129,-0.013 0.4138237,0 -0.2069118,-0.083 -0.2069119,-0.083 -0.2069119,0.083 -0.2069118,0.083 0.4138237,0 z m -1.3242359,-0.1778 0.5793532,0 -0.2896766,-0.076 c -0.1593221,-0.042 -0.4200311,-0.042 -0.5793532,0 l -0.2896766,0.076 0.5793532,0 z"
         id="path7316" />
      <path
         style="fill:#4fb7dd"
         d="m 7.8684064,1049.9242 -0.5249483,0.051 -0.054405,-3.1132 -0.054405,-3.1132 -0.393071,-0.7688 c -0.2161889,-0.4228 -0.5700082,-0.9596 -0.786265,-1.1929 l -0.3931941,-0.424 0,-0.4835 0,-0.4836 0.2574982,-0.2137 0.2574982,-0.2137 1.293298,-0.075 1.2932981,-0.075 0.6010871,0.1983 0.601087,0.1984 0,0.6236 0,0.6237 -0.3370665,0.305 -0.3370664,0.3051 -0.3574705,0.7551 -0.3574705,0.7552 -0.091728,3.1451 -0.091728,3.145 -0.5249481,0.051 z m 0.047135,-0.2992 0.2295189,0 0.01304,-2.7726 c 0.00717,-1.5249 0.00137,-3.2564 -0.012875,-3.8476 -0.014254,-0.5913 -0.038744,-1.0837 -0.054423,-1.0942 -0.015679,-0.01 -0.4189397,-0.063 -0.8961344,-0.1171 l -0.8676268,-0.098 0.2790715,0.426 0.2790716,0.4259 0.1367467,-0.3098 0.1367469,-0.3097 -0.07338,0.3828 -0.073379,0.3828 0.2656927,0.6104 0.2656927,0.6104 0.071359,2.8553 0.071359,2.8554 0.2295191,0 z m -0.5770145,-8.1327 0.2694086,0.022 0.1899507,-0.2289 0.1899507,-0.2289 -0.7904182,-0.1116 c -0.4347299,-0.061 -0.9276195,-0.1518 -1.0953102,-0.2009 l -0.3048921,-0.089 0.058477,0.3056 0.058477,0.3057 0.5774739,0.1023 c 0.3176106,0.056 0.6987077,0.1122 0.8468822,0.1242 z m 0.7030774,-0.912 c 0.2617435,-0.033 0.6900511,-0.059 0.9517946,-0.059 l 0.4758973,0 0,-0.143 0,-0.1431 -0.7630002,-0.1045 -0.7630003,-0.1046 -0.8922946,0.1049 -0.8922947,0.1048 0,0.1332 0,0.1333 0.7035003,0.069 c 0.3869252,0.038 0.9176541,0.042 1.1793976,0.01 z"
         id="path7314" />
      <path
         style="fill:#2eafda"
         d="m 7.8684064,1049.9242 -0.5249483,0.051 -0.054405,-3.1132 -0.054405,-3.1132 -0.393071,-0.7688 c -0.2161889,-0.4228 -0.5700082,-0.9596 -0.786265,-1.1929 l -0.3931941,-0.424 0,-0.4835 0,-0.4836 0.2574982,-0.2137 0.2574982,-0.2137 1.293298,-0.075 1.2932981,-0.075 0.6010871,0.1983 0.601087,0.1984 0,0.6236 0,0.6237 -0.3370665,0.305 -0.3370664,0.3051 -0.3574705,0.7551 -0.3574705,0.7552 -0.091728,3.1451 -0.091728,3.145 -0.5249481,0.051 z m -0.054405,-0.2992 0.331059,0 0.01304,-2.7726 c 0.00717,-1.5249 0.00137,-3.2564 -0.012875,-3.8476 -0.014254,-0.5913 -0.038744,-1.0857 -0.054423,-1.0986 -0.015679,-0.013 -0.4254263,-0.077 -0.9105492,-0.1424 l -0.8820415,-0.1188 0.3991413,0.638 c 0.2195277,0.351 0.4860919,0.8913 0.592365,1.2008 l 0.1932237,0.5626 0,2.7893 0,2.7893 0.331059,0 z m -0.22045,-8.1374 c 0.379479,0.015 0.8077865,-0.019 0.9517945,-0.074 0.1440079,-0.055 0.2618324,-0.1562 0.2618324,-0.2243 l 0,-0.1238 -1.117324,-0.1023 c -0.6145282,-0.056 -1.2849227,-0.1502 -1.4897654,-0.2088 l -0.3724414,-0.1066 0,0.3399 0,0.3399 0.5379709,0.067 c 0.2958839,0.037 0.8484538,0.079 1.227933,0.093 z m 0.448053,-0.9073 c 0.2617435,-0.033 0.6900511,-0.059 0.9517946,-0.059 l 0.4758973,0 0,-0.143 0,-0.1431 -0.7630002,-0.1045 -0.7630003,-0.1046 -0.8922946,0.1049 -0.8922947,0.1048 0,0.1332 0,0.1333 0.7035003,0.069 c 0.3869252,0.038 0.9176541,0.042 1.1793976,0.01 z"
         id="path7312" />
      <path
         style="fill:#288bad"
         d="m 7.8684064,1049.9242 -0.5249483,0.051 -0.054405,-3.1132 -0.054405,-3.1132 -0.393071,-0.7688 c -0.2161889,-0.4228 -0.5700082,-0.9596 -0.786265,-1.1929 l -0.3931941,-0.424 0,-0.4835 0,-0.4836 0.2574982,-0.2137 0.2574982,-0.2137 1.293298,-0.075 1.2932981,-0.075 0.6010871,0.1983 0.601087,0.1984 0,0.6236 0,0.6237 -0.3370665,0.305 -0.3370664,0.3051 -0.3574705,0.7551 -0.3574705,0.7552 -0.091728,3.1451 -0.091728,3.145 -0.5249481,0.051 z m 0.040161,-0.1336 0.2049188,0 0.088944,-3.1037 c 0.04892,-1.707 0.11189,-3.4948 0.1399343,-3.9728 l 0.05099,-0.869 -0.4138237,0 c -0.2276031,-10e-4 -0.7010505,-0.049 -1.0521056,-0.1072 l -0.6382817,-0.1055 0.4036758,0.6452 c 0.2220217,0.3549 0.4906264,0.8985 0.5968995,1.208 l 0.1932235,0.5626 0,2.7617 0,2.7618 0.1103531,0.1103 c 0.060694,0.061 0.2025664,0.1104 0.3152717,0.1104 z m -0.3150158,-8.303 c 0.379479,0.015 0.8077865,-0.019 0.9517945,-0.074 0.1440079,-0.055 0.2618324,-0.1562 0.2618324,-0.2243 l 0,-0.1238 -1.117324,-0.1023 c -0.6145282,-0.056 -1.2849227,-0.1502 -1.4897654,-0.2088 l -0.3724414,-0.1066 0,0.3399 0,0.3399 0.5379709,0.067 c 0.2958839,0.037 0.8484538,0.079 1.227933,0.093 z m 0.22045,-0.8342 1.0759417,0 0.4138237,-0.1262 0.4138237,-0.1263 -0.331059,-0.1469 -0.3310589,-0.1469 -1.2414712,0 -1.2414712,0 -0.3310589,0.1469 -0.331059,0.1469 0.4138237,0.1263 0.4138237,0.1262 1.0759417,0 z"
         id="path7310" />
      <path
         style="fill:#23738e"
         d="m 7.8684064,1049.9242 -0.5249483,0.051 -0.054405,-3.1132 -0.054405,-3.1132 -0.393071,-0.7688 c -0.2161889,-0.4228 -0.5700082,-0.9596 -0.786265,-1.1929 l -0.3931941,-0.424 0,-0.4835 0,-0.4836 0.2574982,-0.2137 0.2574982,-0.2137 1.293298,-0.075 1.2932981,-0.075 0.6010871,0.1983 0.601087,0.1984 0,0.6236 0,0.6237 -0.3370665,0.305 -0.3370664,0.3051 -0.3574705,0.7551 -0.3574705,0.7552 -0.091728,3.1451 -0.091728,3.145 -0.5249481,0.051 z m -0.065244,-0.1336 0.2944261,0 0.089196,-2.9382 0.089196,-2.9381 0.1927162,-0.492 c 0.105994,-0.2706 0.2119451,-0.7362 0.2354468,-1.0346 l 0.042731,-0.5426 -0.4433336,0 c -0.2438336,0 -0.7958107,-0.048 -1.2266159,-0.1073 l -0.7832822,-0.1074 0.5532672,0.9764 0.5532671,0.9764 0.05428,3.1037 0.054279,3.1037 0.2944262,0 z m -0.1268468,-8.3013 c 0.5160409,0.014 1.0560808,-0.02 1.2000888,-0.076 l 0.2618324,-0.1005 0,-0.1995 0,-0.1996 -0.9517946,0.01 c -0.523487,0.01 -1.2683697,-0.046 -1.6552948,-0.1158 l -0.7035004,-0.1261 0,0.322 0,0.3221 0.4552061,0.069 c 0.2503634,0.038 0.8774215,0.08 1.3934625,0.094 z m 0.054921,-0.8243 c 0.6372885,0.01 1.326305,-0.028 1.5311477,-0.083 0.2048428,-0.055 0.3724414,-0.1602 0.3724414,-0.2341 l 0,-0.1343 -0.9104122,-0.1138 -0.9104122,-0.1137 -0.9104122,0.1137 -0.9104122,0.1138 0,0.1415 c 0,0.078 0.1303545,0.1755 0.2896766,0.2171 0.1593222,0.042 0.8110945,0.083 1.4483831,0.093 z"
         id="path7308" />
      <path
         style="fill:#1e576c"
         d="m 7.8684064,1049.9242 -0.5249483,0.051 -0.054405,-3.1132 -0.054405,-3.1132 -0.393071,-0.7688 c -0.2161889,-0.4228 -0.5700082,-0.9596 -0.786265,-1.1929 l -0.3931941,-0.424 0,-0.4835 0,-0.4836 0.2574982,-0.2137 0.2574982,-0.2137 1.293298,-0.075 1.2932981,-0.075 0.6010871,0.1983 0.601087,0.1984 0,0.6236 0,0.6237 -0.3370665,0.305 -0.3370664,0.3051 -0.3574705,0.7551 -0.3574705,0.7552 -0.091728,3.1451 -0.091728,3.145 -0.5249481,0.051 z m -0.062894,-0.1336 0.2915588,0 0.089006,-2.8554 0.089006,-2.8554 0.3654725,-1.0455 c 0.2010101,-0.575 0.3332547,-1.0777 0.2938771,-1.1171 -0.039378,-0.039 -0.6499272,-0.1205 -1.356777,-0.1802 l -1.2851815,-0.1087 0.5538515,0.9775 0.5538516,0.9774 0.056888,3.1037 0.056888,3.1037 0.2915589,0 z m -0.129196,-8.2991 c 0.6070821,0.012 1.2216103,-0.023 1.3656183,-0.078 l 0.2618324,-0.1005 0,-0.2022 0,-0.2021 -1.1173241,10e-4 c -0.6145282,5e-4 -1.396655,-0.053 -1.7380596,-0.1187 l -0.6207356,-0.1197 0,0.3271 0,0.327 0.3724414,0.072 c 0.2048427,0.039 0.869145,0.082 1.4762272,0.094 z m 0.1376853,-0.8101 1.4070007,0 0.2435004,-0.154 0.2435004,-0.154 -0.1331475,-0.1332 -0.1331474,-0.1331 -1.6277066,0 -1.6277066,0 -0.1331475,0.1331 -0.1331474,0.1332 0.2435004,0.154 0.2435004,0.154 1.4070007,0 z"
         id="path7306" />
      <path
         style="fill:#183a46"
         d="m 7.8684064,1049.9242 -0.5249483,0.051 -0.054405,-3.1132 -0.054405,-3.1132 -0.393071,-0.7688 c -0.2161889,-0.4228 -0.5700082,-0.9596 -0.786265,-1.1929 l -0.3931941,-0.424 0,-0.4835 0,-0.4836 0.2574982,-0.2137 0.2574982,-0.2137 1.293298,-0.075 1.2932981,-0.075 0.6010871,0.1983 0.601087,0.1984 0,0.6236 0,0.6237 -0.3370665,0.305 -0.3370664,0.3051 -0.3574705,0.7551 -0.3574705,0.7552 -0.091728,3.1451 -0.091728,3.145 -0.5249481,0.051 z m 0.02836,-0.1336 0.4138238,0 0.0054,-2.8554 0.0054,-2.8554 0.3003823,-0.8277 c 0.1652103,-0.4552 0.3569686,-0.958 0.4261296,-1.1173 l 0.1257462,-0.2897 -0.3487688,0 -0.3487688,0 0,-0.1448 0,-0.1448 0.4965884,-0.099 0.4965885,-0.099 0,-0.2735 0,-0.2735 -0.8220678,0.079 -0.8220679,0.079 0.086954,-0.1407 0.086954,-0.1407 0.6109665,-0.012 c 0.3360317,-0.01 0.7599431,-0.073 0.9420255,-0.1473 l 0.331059,-0.1357 -0.4659821,-0.1837 -0.4659819,-0.1838 -1.1065482,0.016 c -0.6086014,0.01 -1.2927687,0.068 -1.5203718,0.1307 l -0.4138237,0.1142 -0.054637,0.4721 -0.054637,0.4721 0.1428339,0.1007 c 0.078559,0.055 0.375762,0.4732 0.6604518,0.9284 l 0.5176179,0.8276 0.1795273,0.6621 0.1795275,0.6621 9.27e-4,2.6899 9.193e-4,2.6899 0.4138237,0 z m -1.0759416,-8.1371 -0.4138238,0 0.2069119,-0.083 0.2069119,-0.083 0.2069118,0.083 0.2069119,0.083 -0.4138237,0 z m 0.2482942,-0.8433 -0.662118,0 0.2877467,-0.075 c 0.1582606,-0.041 0.4562137,-0.043 0.662118,0 l 0.3743713,0.072 -0.662118,0 z m -0.9104122,-0.1238 -0.220706,0 0.110353,-0.1103 0.110353,-0.1104 0.110353,0.1104 0.110353,0.1103 -0.220706,0 z"
         id="path7304" />
      <path
         style="fill:#06090a"
         d="m 7.8684064,1049.9242 -0.5249483,0.051 -0.054405,-3.1132 -0.054405,-3.1132 -0.393071,-0.7688 c -0.2161889,-0.4228 -0.5700082,-0.9596 -0.786265,-1.1929 l -0.3931941,-0.424 0,-0.4835 0,-0.4836 0.2574982,-0.2137 0.2574982,-0.2137 1.293298,-0.075 1.2932981,-0.075 0.6010871,0.1983 0.601087,0.1984 0,0.6236 0,0.6237 -0.3370665,0.305 -0.3370664,0.3051 -0.3574705,0.7551 -0.3574705,0.7552 -0.091728,3.1451 -0.091728,3.145 -0.5249481,0.051 z m 0.015462,-0.1336 0.4009267,0 0.056327,-3.1037 0.056327,-3.1037 0.4533939,-0.9005 0.4533937,-0.9005 -0.1797581,-0.1111 -0.1797579,-0.1111 0.3662516,-0.096 0.3662515,-0.096 -0.079906,-0.418 -0.079906,-0.418 0.1828537,-0.069 0.1828536,-0.069 -0.4659821,-0.1852 -0.4659819,-0.1853 -1.1065482,0.016 c -0.6086014,0.01 -1.2927687,0.068 -1.5203718,0.1307 l -0.4138237,0.1141 -0.05187,0.5315 -0.05187,0.5315 0.1760172,0 0.1760172,0 0,0.1572 c 0,0.087 0.2153967,0.4775 0.4786593,0.869 l 0.4786593,0.7118 0.1825355,0.6621 0.1825355,0.6621 9.27e-4,2.6899 9.193e-4,2.6899 0.4009265,0 z m -1.0630444,-8.9386 -0.220706,0 0.1103529,-0.1104 0.1103531,-0.1103 0.110353,0.1103 0.1103529,0.1104 -0.2207059,0 z m 2.1518833,-0.026 -0.4138237,0 0.2069119,-0.084 0.2069118,-0.083 0.2069119,0.083 0.2069118,0.084 -0.4138237,0 z m -2.896766,-0.1394 c -0.045521,0 -0.082765,-0.037 -0.082765,-0.083 0,-0.045 0.037244,-0.083 0.082765,-0.083 0.045521,0 0.082765,0.037 0.082765,0.083 0,0.046 -0.037244,0.083 -0.082765,0.083 z"
         id="path7302" />
    </g>
  </g>
</svg>
