<?xml version="1.0" encoding="UTF-8" standalone="no"?>
<!-- Created with Inkscape (http://www.inkscape.org/) -->

<svg
   xmlns:dc="http://purl.org/dc/elements/1.1/"
   xmlns:cc="http://creativecommons.org/ns#"
   xmlns:rdf="http://www.w3.org/1999/02/22-rdf-syntax-ns#"
   xmlns:svg="http://www.w3.org/2000/svg"
   xmlns="http://www.w3.org/2000/svg"
   xmlns:sodipodi="http://sodipodi.sourceforge.net/DTD/sodipodi-0.dtd"
   xmlns:inkscape="http://www.inkscape.org/namespaces/inkscape"
   width="16"
   height="16"
   id="svg2"
   version="1.1"
   inkscape:version="0.47 r22583"
   sodipodi:docname="GOLF1-32.svg">
  <defs
     id="defs4">
    <inkscape:perspective
       sodipodi:type="inkscape:persp3d"
       inkscape:vp_x="0 : 526.18109 : 1"
       inkscape:vp_y="0 : 1000 : 0"
       inkscape:vp_z="744.09448 : 526.18109 : 1"
       inkscape:persp3d-origin="372.04724 : 350.78739 : 1"
       id="perspective10" />
    <inkscape:perspective
       id="perspective2824"
       inkscape:persp3d-origin="0.5 : 0.33333333 : 1"
       inkscape:vp_z="1 : 0.5 : 1"
       inkscape:vp_y="0 : 1000 : 0"
       inkscape:vp_x="0 : 0.5 : 1"
       sodipodi:type="inkscape:persp3d" />
    <inkscape:perspective
       id="perspective5878"
       inkscape:persp3d-origin="0.5 : 0.33333333 : 1"
       inkscape:vp_z="1 : 0.5 : 1"
       inkscape:vp_y="0 : 1000 : 0"
       inkscape:vp_x="0 : 0.5 : 1"
       sodipodi:type="inkscape:persp3d" />
    <inkscape:perspective
       id="perspective5921"
       inkscape:persp3d-origin="0.5 : 0.33333333 : 1"
       inkscape:vp_z="1 : 0.5 : 1"
       inkscape:vp_y="0 : 1000 : 0"
       inkscape:vp_x="0 : 0.5 : 1"
       sodipodi:type="inkscape:persp3d" />
    <inkscape:perspective
       id="perspective5943"
       inkscape:persp3d-origin="0.5 : 0.33333333 : 1"
       inkscape:vp_z="1 : 0.5 : 1"
       inkscape:vp_y="0 : 1000 : 0"
       inkscape:vp_x="0 : 0.5 : 1"
       sodipodi:type="inkscape:persp3d" />
    <inkscape:perspective
       id="perspective5989"
       inkscape:persp3d-origin="0.5 : 0.33333333 : 1"
       inkscape:vp_z="1 : 0.5 : 1"
       inkscape:vp_y="0 : 1000 : 0"
       inkscape:vp_x="0 : 0.5 : 1"
       sodipodi:type="inkscape:persp3d" />
    <inkscape:perspective
       id="perspective6011"
       inkscape:persp3d-origin="0.5 : 0.33333333 : 1"
       inkscape:vp_z="1 : 0.5 : 1"
       inkscape:vp_y="0 : 1000 : 0"
       inkscape:vp_x="0 : 0.5 : 1"
       sodipodi:type="inkscape:persp3d" />
    <inkscape:perspective
       id="perspective6033"
       inkscape:persp3d-origin="0.5 : 0.33333333 : 1"
       inkscape:vp_z="1 : 0.5 : 1"
       inkscape:vp_y="0 : 1000 : 0"
       inkscape:vp_x="0 : 0.5 : 1"
       sodipodi:type="inkscape:persp3d" />
    <inkscape:perspective
       id="perspective6245"
       inkscape:persp3d-origin="0.5 : 0.33333333 : 1"
       inkscape:vp_z="1 : 0.5 : 1"
       inkscape:vp_y="0 : 1000 : 0"
       inkscape:vp_x="0 : 0.5 : 1"
       sodipodi:type="inkscape:persp3d" />
    <inkscape:perspective
       id="perspective6269"
       inkscape:persp3d-origin="0.5 : 0.33333333 : 1"
       inkscape:vp_z="1 : 0.5 : 1"
       inkscape:vp_y="0 : 1000 : 0"
       inkscape:vp_x="0 : 0.5 : 1"
       sodipodi:type="inkscape:persp3d" />
    <inkscape:perspective
       id="perspective6364"
       inkscape:persp3d-origin="0.5 : 0.33333333 : 1"
       inkscape:vp_z="1 : 0.5 : 1"
       inkscape:vp_y="0 : 1000 : 0"
       inkscape:vp_x="0 : 0.5 : 1"
       sodipodi:type="inkscape:persp3d" />
    <inkscape:perspective
       id="perspective6396"
       inkscape:persp3d-origin="0.5 : 0.33333333 : 1"
       inkscape:vp_z="1 : 0.5 : 1"
       inkscape:vp_y="0 : 1000 : 0"
       inkscape:vp_x="0 : 0.5 : 1"
       sodipodi:type="inkscape:persp3d" />
    <inkscape:perspective
       id="perspective6438"
       inkscape:persp3d-origin="0.5 : 0.33333333 : 1"
       inkscape:vp_z="1 : 0.5 : 1"
       inkscape:vp_y="0 : 1000 : 0"
       inkscape:vp_x="0 : 0.5 : 1"
       sodipodi:type="inkscape:persp3d" />
    <inkscape:perspective
       id="perspective6460"
       inkscape:persp3d-origin="0.5 : 0.33333333 : 1"
       inkscape:vp_z="1 : 0.5 : 1"
       inkscape:vp_y="0 : 1000 : 0"
       inkscape:vp_x="0 : 0.5 : 1"
       sodipodi:type="inkscape:persp3d" />
    <inkscape:perspective
       id="perspective6480"
       inkscape:persp3d-origin="0.5 : 0.33333333 : 1"
       inkscape:vp_z="1 : 0.5 : 1"
       inkscape:vp_y="0 : 1000 : 0"
       inkscape:vp_x="0 : 0.5 : 1"
       sodipodi:type="inkscape:persp3d" />
    <inkscape:perspective
       id="perspective6504"
       inkscape:persp3d-origin="0.5 : 0.33333333 : 1"
       inkscape:vp_z="1 : 0.5 : 1"
       inkscape:vp_y="0 : 1000 : 0"
       inkscape:vp_x="0 : 0.5 : 1"
       sodipodi:type="inkscape:persp3d" />
    <inkscape:perspective
       id="perspective6524"
       inkscape:persp3d-origin="0.5 : 0.33333333 : 1"
       inkscape:vp_z="1 : 0.5 : 1"
       inkscape:vp_y="0 : 1000 : 0"
       inkscape:vp_x="0 : 0.5 : 1"
       sodipodi:type="inkscape:persp3d" />
    <inkscape:perspective
       id="perspective6548"
       inkscape:persp3d-origin="0.5 : 0.33333333 : 1"
       inkscape:vp_z="1 : 0.5 : 1"
       inkscape:vp_y="0 : 1000 : 0"
       inkscape:vp_x="0 : 0.5 : 1"
       sodipodi:type="inkscape:persp3d" />
    <inkscape:perspective
       id="perspective6572"
       inkscape:persp3d-origin="0.5 : 0.33333333 : 1"
       inkscape:vp_z="1 : 0.5 : 1"
       inkscape:vp_y="0 : 1000 : 0"
       inkscape:vp_x="0 : 0.5 : 1"
       sodipodi:type="inkscape:persp3d" />
    <inkscape:perspective
       id="perspective6594"
       inkscape:persp3d-origin="0.5 : 0.33333333 : 1"
       inkscape:vp_z="1 : 0.5 : 1"
       inkscape:vp_y="0 : 1000 : 0"
       inkscape:vp_x="0 : 0.5 : 1"
       sodipodi:type="inkscape:persp3d" />
    <inkscape:perspective
       id="perspective6614"
       inkscape:persp3d-origin="0.5 : 0.33333333 : 1"
       inkscape:vp_z="1 : 0.5 : 1"
       inkscape:vp_y="0 : 1000 : 0"
       inkscape:vp_x="0 : 0.5 : 1"
       sodipodi:type="inkscape:persp3d" />
    <inkscape:perspective
       id="perspective6650"
       inkscape:persp3d-origin="0.5 : 0.33333333 : 1"
       inkscape:vp_z="1 : 0.5 : 1"
       inkscape:vp_y="0 : 1000 : 0"
       inkscape:vp_x="0 : 0.5 : 1"
       sodipodi:type="inkscape:persp3d" />
    <inkscape:perspective
       id="perspective6676"
       inkscape:persp3d-origin="0.5 : 0.33333333 : 1"
       inkscape:vp_z="1 : 0.5 : 1"
       inkscape:vp_y="0 : 1000 : 0"
       inkscape:vp_x="0 : 0.5 : 1"
       sodipodi:type="inkscape:persp3d" />
    <inkscape:perspective
       id="perspective6710"
       inkscape:persp3d-origin="0.5 : 0.33333333 : 1"
       inkscape:vp_z="1 : 0.5 : 1"
       inkscape:vp_y="0 : 1000 : 0"
       inkscape:vp_x="0 : 0.5 : 1"
       sodipodi:type="inkscape:persp3d" />
    <inkscape:perspective
       id="perspective6748"
       inkscape:persp3d-origin="0.5 : 0.33333333 : 1"
       inkscape:vp_z="1 : 0.5 : 1"
       inkscape:vp_y="0 : 1000 : 0"
       inkscape:vp_x="0 : 0.5 : 1"
       sodipodi:type="inkscape:persp3d" />
    <inkscape:perspective
       id="perspective6786"
       inkscape:persp3d-origin="0.5 : 0.33333333 : 1"
       inkscape:vp_z="1 : 0.5 : 1"
       inkscape:vp_y="0 : 1000 : 0"
       inkscape:vp_x="0 : 0.5 : 1"
       sodipodi:type="inkscape:persp3d" />
    <inkscape:perspective
       id="perspective6810"
       inkscape:persp3d-origin="0.5 : 0.33333333 : 1"
       inkscape:vp_z="1 : 0.5 : 1"
       inkscape:vp_y="0 : 1000 : 0"
       inkscape:vp_x="0 : 0.5 : 1"
       sodipodi:type="inkscape:persp3d" />
    <inkscape:perspective
       id="perspective6848"
       inkscape:persp3d-origin="0.5 : 0.33333333 : 1"
       inkscape:vp_z="1 : 0.5 : 1"
       inkscape:vp_y="0 : 1000 : 0"
       inkscape:vp_x="0 : 0.5 : 1"
       sodipodi:type="inkscape:persp3d" />
    <inkscape:perspective
       id="perspective6870"
       inkscape:persp3d-origin="0.5 : 0.33333333 : 1"
       inkscape:vp_z="1 : 0.5 : 1"
       inkscape:vp_y="0 : 1000 : 0"
       inkscape:vp_x="0 : 0.5 : 1"
       sodipodi:type="inkscape:persp3d" />
    <inkscape:perspective
       id="perspective6908"
       inkscape:persp3d-origin="0.5 : 0.33333333 : 1"
       inkscape:vp_z="1 : 0.5 : 1"
       inkscape:vp_y="0 : 1000 : 0"
       inkscape:vp_x="0 : 0.5 : 1"
       sodipodi:type="inkscape:persp3d" />
    <inkscape:perspective
       id="perspective6946"
       inkscape:persp3d-origin="0.5 : 0.33333333 : 1"
       inkscape:vp_z="1 : 0.5 : 1"
       inkscape:vp_y="0 : 1000 : 0"
       inkscape:vp_x="0 : 0.5 : 1"
       sodipodi:type="inkscape:persp3d" />
    <inkscape:perspective
       id="perspective6970"
       inkscape:persp3d-origin="0.5 : 0.33333333 : 1"
       inkscape:vp_z="1 : 0.5 : 1"
       inkscape:vp_y="0 : 1000 : 0"
       inkscape:vp_x="0 : 0.5 : 1"
       sodipodi:type="inkscape:persp3d" />
    <inkscape:perspective
       id="perspective7008"
       inkscape:persp3d-origin="0.5 : 0.33333333 : 1"
       inkscape:vp_z="1 : 0.5 : 1"
       inkscape:vp_y="0 : 1000 : 0"
       inkscape:vp_x="0 : 0.5 : 1"
       sodipodi:type="inkscape:persp3d" />
    <inkscape:perspective
       id="perspective7036"
       inkscape:persp3d-origin="0.5 : 0.33333333 : 1"
       inkscape:vp_z="1 : 0.5 : 1"
       inkscape:vp_y="0 : 1000 : 0"
       inkscape:vp_x="0 : 0.5 : 1"
       sodipodi:type="inkscape:persp3d" />
    <inkscape:perspective
       id="perspective7060"
       inkscape:persp3d-origin="0.5 : 0.33333333 : 1"
       inkscape:vp_z="1 : 0.5 : 1"
       inkscape:vp_y="0 : 1000 : 0"
       inkscape:vp_x="0 : 0.5 : 1"
       sodipodi:type="inkscape:persp3d" />
    <inkscape:perspective
       id="perspective7098"
       inkscape:persp3d-origin="0.5 : 0.33333333 : 1"
       inkscape:vp_z="1 : 0.5 : 1"
       inkscape:vp_y="0 : 1000 : 0"
       inkscape:vp_x="0 : 0.5 : 1"
       sodipodi:type="inkscape:persp3d" />
    <inkscape:perspective
       id="perspective7136"
       inkscape:persp3d-origin="0.5 : 0.33333333 : 1"
       inkscape:vp_z="1 : 0.5 : 1"
       inkscape:vp_y="0 : 1000 : 0"
       inkscape:vp_x="0 : 0.5 : 1"
       sodipodi:type="inkscape:persp3d" />
    <inkscape:perspective
       id="perspective7174"
       inkscape:persp3d-origin="0.5 : 0.33333333 : 1"
       inkscape:vp_z="1 : 0.5 : 1"
       inkscape:vp_y="0 : 1000 : 0"
       inkscape:vp_x="0 : 0.5 : 1"
       sodipodi:type="inkscape:persp3d" />
    <inkscape:perspective
       id="perspective7212"
       inkscape:persp3d-origin="0.5 : 0.33333333 : 1"
       inkscape:vp_z="1 : 0.5 : 1"
       inkscape:vp_y="0 : 1000 : 0"
       inkscape:vp_x="0 : 0.5 : 1"
       sodipodi:type="inkscape:persp3d" />
    <inkscape:perspective
       id="perspective7234"
       inkscape:persp3d-origin="0.5 : 0.33333333 : 1"
       inkscape:vp_z="1 : 0.5 : 1"
       inkscape:vp_y="0 : 1000 : 0"
       inkscape:vp_x="0 : 0.5 : 1"
       sodipodi:type="inkscape:persp3d" />
    <inkscape:perspective
       id="perspective7272"
       inkscape:persp3d-origin="0.5 : 0.33333333 : 1"
       inkscape:vp_z="1 : 0.5 : 1"
       inkscape:vp_y="0 : 1000 : 0"
       inkscape:vp_x="0 : 0.5 : 1"
       sodipodi:type="inkscape:persp3d" />
  </defs>
  <sodipodi:namedview
     id="base"
     pagecolor="#ffffff"
     bordercolor="#666666"
     borderopacity="1.0"
     inkscape:pageopacity="0.0"
     inkscape:pageshadow="2"
     inkscape:zoom="8.671875"
     inkscape:cx="7.0898093"
     inkscape:cy="8.1167604"
     inkscape:document-units="px"
     inkscape:current-layer="layer1"
     showgrid="true"
     inkscape:window-width="1280"
     inkscape:window-height="780"
     inkscape:window-x="-8"
     inkscape:window-y="-8"
     inkscape:window-maximized="1">
    <inkscape:grid
       type="xygrid"
       id="grid6324"
       empspacing="5"
       visible="true"
       enabled="true"
       snapvisiblegridlinesonly="true" />
  </sodipodi:namedview>
  <metadata
     id="metadata7">
    <rdf:RDF>
      <cc:Work
         rdf:about="">
        <dc:format>image/svg+xml</dc:format>
        <dc:type
           rdf:resource="http://purl.org/dc/dcmitype/StillImage" />
        <dc:title></dc:title>
      </cc:Work>
    </rdf:RDF>
  </metadata>
  <g
     inkscape:label="Calque 1"
     inkscape:groupmode="layer"
     id="layer1"
     transform="translate(0,-1036.3622)">
    <g
       id="g7278"
       transform="translate(0.4477612,0.2985)">
      <path
         style="fill:#0000fe"
         d="m 7.9104478,1049.5712 -2.1492538,0 0,-0.1791 0,-0.1792 -0.5373134,0 -0.5373134,0 0,-0.1791 0,-0.1791 -0.2746268,0 -0.274627,0 -0.6208955,-0.6209 -0.6208955,-0.6209 0,-0.5492 0,-0.5493 0.6208955,-0.6209 0.6208955,-0.6209 0.274627,0 0.2746268,0 0,-0.1791 0,-0.1791 0.5373134,0 0.5373134,0 0,-0.1791 0,-0.1791 0.8955224,0 0.8955224,0 0,-1.9701 0,-1.9702 0.1641792,0 c 0.090298,0 0.2111939,0.1008 0.2686567,0.2239 l 0.1044775,0.2239 0.1044776,-0.2239 0.1044777,-0.2239 0.522388,0 0.5223881,0 0,0.1791 0,0.1791 0.5373134,0 0.537313,0 0,0.8188 0,0.8188 -0.255863,0.2558 -0.2558637,0.2559 -0.2814497,0 -0.28145,0 0,-0.1791 0,-0.1791 -0.358209,0 -0.3582089,0 0,0.1791 0,0.1791 -0.358209,0 -0.3582089,0 0,0.7164 0,0.7164 1.0746268,0 1.0746264,0 0,0.1791 0,0.1791 0.537314,0 0.537313,0 0,0.1791 0,0.1791 0.274627,0 0.274627,0 0.620896,0.6209 0.620895,0.6209 0,0.5493 0,0.5492 -0.620895,0.6209 -0.620896,0.6209 -0.274627,0 -0.274627,0 0,0.1791 0,0.1791 -0.537313,0 -0.537314,0 0,0.1792 0,0.1791 -2.1492532,0 z"
         id="path7284" />
      <path
         style="fill:#007f00"
         d="m 7.9104478,1049.5712 -2.1492538,0 0,-0.1791 0,-0.1792 -0.5373134,0 -0.5373134,0 0,-0.1791 0,-0.1791 -0.2746268,0 -0.274627,0 -0.6208955,-0.6209 -0.6208955,-0.6209 0,-0.5492 0,-0.5493 0.6208955,-0.6209 0.6208955,-0.6209 0.274627,0 0.2746268,0 0,-0.1791 0,-0.1791 0.5373134,0 0.5373134,0 0,-0.1791 0,-0.1791 0.8955224,0 0.8955224,0 0,-1.9701 0,-1.9702 0.1641792,0 c 0.090298,0 0.2111939,0.1008 0.2686567,0.2239 l 0.1044775,0.2239 0.1044776,-0.2239 0.1044777,-0.2239 0.522388,0 0.5223881,0 0,0.1791 0,0.1791 0.5373134,0 0.537313,0 0,0.8188 0,0.8188 -0.255863,0.2558 -0.2558637,0.2559 -0.2814497,0 -0.28145,0 0,-0.1791 0,-0.1791 -0.358209,0 -0.3582089,0 0,0.1791 0,0.1791 -0.358209,0 -0.3582089,0 0,0.7164 0,0.7164 1.0746268,0 1.0746264,0 0,0.1791 0,0.1791 0.537314,0 0.537313,0 0,0.1791 0,0.1791 0.274627,0 0.274627,0 0.620896,0.6209 0.620895,0.6209 0,0.5493 0,0.5492 -0.620895,0.6209 -0.620896,0.6209 -0.274627,0 -0.274627,0 0,0.1791 0,0.1791 -0.537313,0 -0.537314,0 0,0.1792 0,0.1791 -2.1492532,0 z m 0.1791044,-6.806 c 0.098508,0 0.1791045,-0.081 0.1791045,-0.1791 l 0,-0.1791 0.5373134,0 0.5373135,0 0,0.1791 0,0.1791 0.3582089,0 0.3582085,0 0,-0.7164 0,-0.7165 -0.3582085,0 -0.3582089,0 0,-0.1791 0,-0.1791 -0.358209,0 -0.3582089,0 0,0.1791 0,0.1791 -0.358209,0 -0.3582089,0 0,0.7165 0,0.7164 0.1791044,0 z"
         id="path7282" />
      <path
         style="fill:#000000"
         d="m 7.9104478,1049.5712 -2.1492538,0 0,-0.1791 0,-0.1792 -0.5373134,0 -0.5373134,0 0,-0.1791 0,-0.1791 -0.2746268,0 -0.274627,0 -0.6208955,-0.6209 -0.6208955,-0.6209 0,-0.5492 0,-0.5493 0.6208955,-0.6209 0.6208955,-0.6209 0.274627,0 0.2746268,0 0,-0.1791 0,-0.1791 0.5373134,0 0.5373134,0 0,-0.1791 0,-0.1791 0.8955224,0 0.8955224,0 0,-1.9701 0,-1.9702 0.1641792,0 c 0.090298,0 0.2111939,0.1008 0.2686567,0.2239 l 0.1044775,0.2239 0.1044776,-0.2239 0.1044777,-0.2239 0.522388,0 0.5223881,0 0,0.1791 0,0.1791 0.5373134,0 0.537313,0 0,0.8188 0,0.8188 -0.255863,0.2558 -0.2558637,0.2559 -0.2814497,0 -0.28145,0 0,-0.1791 0,-0.1791 -0.358209,0 -0.3582089,0 0,0.1791 0,0.1791 -0.358209,0 -0.3582089,0 0,0.7164 0,0.7164 1.0746268,0 1.0746264,0 0,0.1791 0,0.1791 0.537314,0 0.537313,0 0,0.1791 0,0.1791 0.274627,0 0.274627,0 0.620896,0.6209 0.620895,0.6209 0,0.5493 0,0.5492 -0.620895,0.6209 -0.620896,0.6209 -0.274627,0 -0.274627,0 0,0.1791 0,0.1791 -0.537313,0 -0.537314,0 0,0.1792 0,0.1791 -2.1492532,0 z m 0,-0.3583 2.1492532,0 0,-0.1791 0,-0.1791 0.537314,0 0.537313,0 0,-0.1791 0,-0.1791 0.276798,0 0.276798,0 0.43962,-0.4396 0.43962,-0.4396 0,-0.5536 0,-0.5536 -0.43962,-0.4396 -0.43962,-0.4396 -0.276798,0 -0.276798,0 0,-0.1791 0,-0.1792 -0.537313,0 -0.537314,0 0,-0.1791 0,-0.1791 -1.0746264,0 -1.0746268,0 0,1.0747 0,1.0746 0.1791044,0 0.1791045,0 0,0.3582 0,0.3582 -0.5373134,0 -0.5373134,0 0,-0.3582 0,-0.3582 0.1791044,0 0.1791045,0 0,-1.0746 0,-1.0747 -0.8955224,0 -0.8955224,0 0,0.1791 0,0.1791 -0.5373134,0 -0.5373134,0 0,0.1792 0,0.1791 -0.2767979,0 -0.2767978,0 -0.4396201,0.4396 -0.4396201,0.4396 0,0.5536 0,0.5536 0.4396201,0.4396 0.4396201,0.4396 0.2767978,0 0.2767979,0 0,0.1791 0,0.1791 0.5373134,0 0.5373134,0 0,0.1791 0,0.1791 2.1492538,0 z m 0.1791044,-6.4477 c 0.098508,0 0.1791045,-0.081 0.1791045,-0.1791 l 0,-0.1791 0.5373134,0 0.5373135,0 0,0.1791 0,0.1791 0.3582089,0 0.3582085,0 0,-0.7164 0,-0.7165 -0.3582085,0 -0.3582089,0 0,-0.1791 0,-0.1791 -0.358209,0 -0.3582089,0 0,0.1791 0,0.1791 -0.358209,0 -0.3582089,0 0,0.7165 0,0.7164 0.1791044,0 z"
         id="path7280" />
    </g>
  </g>
</svg>
