<?xml version="1.0" encoding="UTF-8" standalone="no"?>
<!-- Created with Inkscape (http://www.inkscape.org/) -->

<svg
   xmlns:dc="http://purl.org/dc/elements/1.1/"
   xmlns:cc="http://creativecommons.org/ns#"
   xmlns:rdf="http://www.w3.org/1999/02/22-rdf-syntax-ns#"
   xmlns:svg="http://www.w3.org/2000/svg"
   xmlns="http://www.w3.org/2000/svg"
   xmlns:sodipodi="http://sodipodi.sourceforge.net/DTD/sodipodi-0.dtd"
   xmlns:inkscape="http://www.inkscape.org/namespaces/inkscape"
   width="16"
   height="16"
   id="svg2"
   version="1.1"
   inkscape:version="0.47 r22583"
   sodipodi:docname="highway-64.svg">
  <defs
     id="defs4">
    <inkscape:perspective
       sodipodi:type="inkscape:persp3d"
       inkscape:vp_x="0 : 526.18109 : 1"
       inkscape:vp_y="0 : 1000 : 0"
       inkscape:vp_z="744.09448 : 526.18109 : 1"
       inkscape:persp3d-origin="372.04724 : 350.78739 : 1"
       id="perspective10" />
    <inkscape:perspective
       id="perspective2824"
       inkscape:persp3d-origin="0.5 : 0.33333333 : 1"
       inkscape:vp_z="1 : 0.5 : 1"
       inkscape:vp_y="0 : 1000 : 0"
       inkscape:vp_x="0 : 0.5 : 1"
       sodipodi:type="inkscape:persp3d" />
    <inkscape:perspective
       id="perspective5878"
       inkscape:persp3d-origin="0.5 : 0.33333333 : 1"
       inkscape:vp_z="1 : 0.5 : 1"
       inkscape:vp_y="0 : 1000 : 0"
       inkscape:vp_x="0 : 0.5 : 1"
       sodipodi:type="inkscape:persp3d" />
    <inkscape:perspective
       id="perspective5921"
       inkscape:persp3d-origin="0.5 : 0.33333333 : 1"
       inkscape:vp_z="1 : 0.5 : 1"
       inkscape:vp_y="0 : 1000 : 0"
       inkscape:vp_x="0 : 0.5 : 1"
       sodipodi:type="inkscape:persp3d" />
    <inkscape:perspective
       id="perspective5943"
       inkscape:persp3d-origin="0.5 : 0.33333333 : 1"
       inkscape:vp_z="1 : 0.5 : 1"
       inkscape:vp_y="0 : 1000 : 0"
       inkscape:vp_x="0 : 0.5 : 1"
       sodipodi:type="inkscape:persp3d" />
    <inkscape:perspective
       id="perspective5989"
       inkscape:persp3d-origin="0.5 : 0.33333333 : 1"
       inkscape:vp_z="1 : 0.5 : 1"
       inkscape:vp_y="0 : 1000 : 0"
       inkscape:vp_x="0 : 0.5 : 1"
       sodipodi:type="inkscape:persp3d" />
    <inkscape:perspective
       id="perspective6011"
       inkscape:persp3d-origin="0.5 : 0.33333333 : 1"
       inkscape:vp_z="1 : 0.5 : 1"
       inkscape:vp_y="0 : 1000 : 0"
       inkscape:vp_x="0 : 0.5 : 1"
       sodipodi:type="inkscape:persp3d" />
    <inkscape:perspective
       id="perspective6033"
       inkscape:persp3d-origin="0.5 : 0.33333333 : 1"
       inkscape:vp_z="1 : 0.5 : 1"
       inkscape:vp_y="0 : 1000 : 0"
       inkscape:vp_x="0 : 0.5 : 1"
       sodipodi:type="inkscape:persp3d" />
    <inkscape:perspective
       id="perspective6245"
       inkscape:persp3d-origin="0.5 : 0.33333333 : 1"
       inkscape:vp_z="1 : 0.5 : 1"
       inkscape:vp_y="0 : 1000 : 0"
       inkscape:vp_x="0 : 0.5 : 1"
       sodipodi:type="inkscape:persp3d" />
    <inkscape:perspective
       id="perspective6269"
       inkscape:persp3d-origin="0.5 : 0.33333333 : 1"
       inkscape:vp_z="1 : 0.5 : 1"
       inkscape:vp_y="0 : 1000 : 0"
       inkscape:vp_x="0 : 0.5 : 1"
       sodipodi:type="inkscape:persp3d" />
    <inkscape:perspective
       id="perspective6364"
       inkscape:persp3d-origin="0.5 : 0.33333333 : 1"
       inkscape:vp_z="1 : 0.5 : 1"
       inkscape:vp_y="0 : 1000 : 0"
       inkscape:vp_x="0 : 0.5 : 1"
       sodipodi:type="inkscape:persp3d" />
    <inkscape:perspective
       id="perspective6396"
       inkscape:persp3d-origin="0.5 : 0.33333333 : 1"
       inkscape:vp_z="1 : 0.5 : 1"
       inkscape:vp_y="0 : 1000 : 0"
       inkscape:vp_x="0 : 0.5 : 1"
       sodipodi:type="inkscape:persp3d" />
    <inkscape:perspective
       id="perspective6438"
       inkscape:persp3d-origin="0.5 : 0.33333333 : 1"
       inkscape:vp_z="1 : 0.5 : 1"
       inkscape:vp_y="0 : 1000 : 0"
       inkscape:vp_x="0 : 0.5 : 1"
       sodipodi:type="inkscape:persp3d" />
    <inkscape:perspective
       id="perspective6460"
       inkscape:persp3d-origin="0.5 : 0.33333333 : 1"
       inkscape:vp_z="1 : 0.5 : 1"
       inkscape:vp_y="0 : 1000 : 0"
       inkscape:vp_x="0 : 0.5 : 1"
       sodipodi:type="inkscape:persp3d" />
    <inkscape:perspective
       id="perspective6480"
       inkscape:persp3d-origin="0.5 : 0.33333333 : 1"
       inkscape:vp_z="1 : 0.5 : 1"
       inkscape:vp_y="0 : 1000 : 0"
       inkscape:vp_x="0 : 0.5 : 1"
       sodipodi:type="inkscape:persp3d" />
    <inkscape:perspective
       id="perspective6504"
       inkscape:persp3d-origin="0.5 : 0.33333333 : 1"
       inkscape:vp_z="1 : 0.5 : 1"
       inkscape:vp_y="0 : 1000 : 0"
       inkscape:vp_x="0 : 0.5 : 1"
       sodipodi:type="inkscape:persp3d" />
    <inkscape:perspective
       id="perspective6524"
       inkscape:persp3d-origin="0.5 : 0.33333333 : 1"
       inkscape:vp_z="1 : 0.5 : 1"
       inkscape:vp_y="0 : 1000 : 0"
       inkscape:vp_x="0 : 0.5 : 1"
       sodipodi:type="inkscape:persp3d" />
    <inkscape:perspective
       id="perspective6548"
       inkscape:persp3d-origin="0.5 : 0.33333333 : 1"
       inkscape:vp_z="1 : 0.5 : 1"
       inkscape:vp_y="0 : 1000 : 0"
       inkscape:vp_x="0 : 0.5 : 1"
       sodipodi:type="inkscape:persp3d" />
    <inkscape:perspective
       id="perspective6572"
       inkscape:persp3d-origin="0.5 : 0.33333333 : 1"
       inkscape:vp_z="1 : 0.5 : 1"
       inkscape:vp_y="0 : 1000 : 0"
       inkscape:vp_x="0 : 0.5 : 1"
       sodipodi:type="inkscape:persp3d" />
    <inkscape:perspective
       id="perspective6594"
       inkscape:persp3d-origin="0.5 : 0.33333333 : 1"
       inkscape:vp_z="1 : 0.5 : 1"
       inkscape:vp_y="0 : 1000 : 0"
       inkscape:vp_x="0 : 0.5 : 1"
       sodipodi:type="inkscape:persp3d" />
    <inkscape:perspective
       id="perspective6614"
       inkscape:persp3d-origin="0.5 : 0.33333333 : 1"
       inkscape:vp_z="1 : 0.5 : 1"
       inkscape:vp_y="0 : 1000 : 0"
       inkscape:vp_x="0 : 0.5 : 1"
       sodipodi:type="inkscape:persp3d" />
    <inkscape:perspective
       id="perspective6650"
       inkscape:persp3d-origin="0.5 : 0.33333333 : 1"
       inkscape:vp_z="1 : 0.5 : 1"
       inkscape:vp_y="0 : 1000 : 0"
       inkscape:vp_x="0 : 0.5 : 1"
       sodipodi:type="inkscape:persp3d" />
    <inkscape:perspective
       id="perspective6676"
       inkscape:persp3d-origin="0.5 : 0.33333333 : 1"
       inkscape:vp_z="1 : 0.5 : 1"
       inkscape:vp_y="0 : 1000 : 0"
       inkscape:vp_x="0 : 0.5 : 1"
       sodipodi:type="inkscape:persp3d" />
    <inkscape:perspective
       id="perspective6710"
       inkscape:persp3d-origin="0.5 : 0.33333333 : 1"
       inkscape:vp_z="1 : 0.5 : 1"
       inkscape:vp_y="0 : 1000 : 0"
       inkscape:vp_x="0 : 0.5 : 1"
       sodipodi:type="inkscape:persp3d" />
    <inkscape:perspective
       id="perspective6748"
       inkscape:persp3d-origin="0.5 : 0.33333333 : 1"
       inkscape:vp_z="1 : 0.5 : 1"
       inkscape:vp_y="0 : 1000 : 0"
       inkscape:vp_x="0 : 0.5 : 1"
       sodipodi:type="inkscape:persp3d" />
    <inkscape:perspective
       id="perspective6786"
       inkscape:persp3d-origin="0.5 : 0.33333333 : 1"
       inkscape:vp_z="1 : 0.5 : 1"
       inkscape:vp_y="0 : 1000 : 0"
       inkscape:vp_x="0 : 0.5 : 1"
       sodipodi:type="inkscape:persp3d" />
    <inkscape:perspective
       id="perspective6810"
       inkscape:persp3d-origin="0.5 : 0.33333333 : 1"
       inkscape:vp_z="1 : 0.5 : 1"
       inkscape:vp_y="0 : 1000 : 0"
       inkscape:vp_x="0 : 0.5 : 1"
       sodipodi:type="inkscape:persp3d" />
    <inkscape:perspective
       id="perspective6848"
       inkscape:persp3d-origin="0.5 : 0.33333333 : 1"
       inkscape:vp_z="1 : 0.5 : 1"
       inkscape:vp_y="0 : 1000 : 0"
       inkscape:vp_x="0 : 0.5 : 1"
       sodipodi:type="inkscape:persp3d" />
    <inkscape:perspective
       id="perspective6870"
       inkscape:persp3d-origin="0.5 : 0.33333333 : 1"
       inkscape:vp_z="1 : 0.5 : 1"
       inkscape:vp_y="0 : 1000 : 0"
       inkscape:vp_x="0 : 0.5 : 1"
       sodipodi:type="inkscape:persp3d" />
    <inkscape:perspective
       id="perspective6908"
       inkscape:persp3d-origin="0.5 : 0.33333333 : 1"
       inkscape:vp_z="1 : 0.5 : 1"
       inkscape:vp_y="0 : 1000 : 0"
       inkscape:vp_x="0 : 0.5 : 1"
       sodipodi:type="inkscape:persp3d" />
    <inkscape:perspective
       id="perspective6946"
       inkscape:persp3d-origin="0.5 : 0.33333333 : 1"
       inkscape:vp_z="1 : 0.5 : 1"
       inkscape:vp_y="0 : 1000 : 0"
       inkscape:vp_x="0 : 0.5 : 1"
       sodipodi:type="inkscape:persp3d" />
    <inkscape:perspective
       id="perspective6970"
       inkscape:persp3d-origin="0.5 : 0.33333333 : 1"
       inkscape:vp_z="1 : 0.5 : 1"
       inkscape:vp_y="0 : 1000 : 0"
       inkscape:vp_x="0 : 0.5 : 1"
       sodipodi:type="inkscape:persp3d" />
    <inkscape:perspective
       id="perspective7008"
       inkscape:persp3d-origin="0.5 : 0.33333333 : 1"
       inkscape:vp_z="1 : 0.5 : 1"
       inkscape:vp_y="0 : 1000 : 0"
       inkscape:vp_x="0 : 0.5 : 1"
       sodipodi:type="inkscape:persp3d" />
    <inkscape:perspective
       id="perspective7036"
       inkscape:persp3d-origin="0.5 : 0.33333333 : 1"
       inkscape:vp_z="1 : 0.5 : 1"
       inkscape:vp_y="0 : 1000 : 0"
       inkscape:vp_x="0 : 0.5 : 1"
       sodipodi:type="inkscape:persp3d" />
    <inkscape:perspective
       id="perspective7060"
       inkscape:persp3d-origin="0.5 : 0.33333333 : 1"
       inkscape:vp_z="1 : 0.5 : 1"
       inkscape:vp_y="0 : 1000 : 0"
       inkscape:vp_x="0 : 0.5 : 1"
       sodipodi:type="inkscape:persp3d" />
    <inkscape:perspective
       id="perspective7098"
       inkscape:persp3d-origin="0.5 : 0.33333333 : 1"
       inkscape:vp_z="1 : 0.5 : 1"
       inkscape:vp_y="0 : 1000 : 0"
       inkscape:vp_x="0 : 0.5 : 1"
       sodipodi:type="inkscape:persp3d" />
    <inkscape:perspective
       id="perspective7136"
       inkscape:persp3d-origin="0.5 : 0.33333333 : 1"
       inkscape:vp_z="1 : 0.5 : 1"
       inkscape:vp_y="0 : 1000 : 0"
       inkscape:vp_x="0 : 0.5 : 1"
       sodipodi:type="inkscape:persp3d" />
    <inkscape:perspective
       id="perspective7174"
       inkscape:persp3d-origin="0.5 : 0.33333333 : 1"
       inkscape:vp_z="1 : 0.5 : 1"
       inkscape:vp_y="0 : 1000 : 0"
       inkscape:vp_x="0 : 0.5 : 1"
       sodipodi:type="inkscape:persp3d" />
    <inkscape:perspective
       id="perspective7212"
       inkscape:persp3d-origin="0.5 : 0.33333333 : 1"
       inkscape:vp_z="1 : 0.5 : 1"
       inkscape:vp_y="0 : 1000 : 0"
       inkscape:vp_x="0 : 0.5 : 1"
       sodipodi:type="inkscape:persp3d" />
    <inkscape:perspective
       id="perspective7234"
       inkscape:persp3d-origin="0.5 : 0.33333333 : 1"
       inkscape:vp_z="1 : 0.5 : 1"
       inkscape:vp_y="0 : 1000 : 0"
       inkscape:vp_x="0 : 0.5 : 1"
       sodipodi:type="inkscape:persp3d" />
    <inkscape:perspective
       id="perspective7272"
       inkscape:persp3d-origin="0.5 : 0.33333333 : 1"
       inkscape:vp_z="1 : 0.5 : 1"
       inkscape:vp_y="0 : 1000 : 0"
       inkscape:vp_x="0 : 0.5 : 1"
       sodipodi:type="inkscape:persp3d" />
    <inkscape:perspective
       id="perspective7294"
       inkscape:persp3d-origin="0.5 : 0.33333333 : 1"
       inkscape:vp_z="1 : 0.5 : 1"
       inkscape:vp_y="0 : 1000 : 0"
       inkscape:vp_x="0 : 0.5 : 1"
       sodipodi:type="inkscape:persp3d" />
    <inkscape:perspective
       id="perspective7330"
       inkscape:persp3d-origin="0.5 : 0.33333333 : 1"
       inkscape:vp_z="1 : 0.5 : 1"
       inkscape:vp_y="0 : 1000 : 0"
       inkscape:vp_x="0 : 0.5 : 1"
       sodipodi:type="inkscape:persp3d" />
  </defs>
  <sodipodi:namedview
     id="base"
     pagecolor="#ffffff"
     bordercolor="#666666"
     borderopacity="1.0"
     inkscape:pageopacity="0.0"
     inkscape:pageshadow="2"
     inkscape:zoom="8.671875"
     inkscape:cx="7.0898093"
     inkscape:cy="8.1167604"
     inkscape:document-units="px"
     inkscape:current-layer="layer1"
     showgrid="true"
     inkscape:window-width="1280"
     inkscape:window-height="780"
     inkscape:window-x="-8"
     inkscape:window-y="-8"
     inkscape:window-maximized="1">
    <inkscape:grid
       type="xygrid"
       id="grid6324"
       empspacing="5"
       visible="true"
       enabled="true"
       snapvisiblegridlinesonly="true" />
  </sodipodi:namedview>
  <metadata
     id="metadata7">
    <rdf:RDF>
      <cc:Work
         rdf:about="">
        <dc:format>image/svg+xml</dc:format>
        <dc:type
           rdf:resource="http://purl.org/dc/dcmitype/StillImage" />
        <dc:title></dc:title>
      </cc:Work>
    </rdf:RDF>
  </metadata>
  <g
     inkscape:label="Calque 1"
     inkscape:groupmode="layer"
     id="layer1"
     transform="translate(0,-1036.3622)">
    <g
       id="g7336"
       transform="translate(-0.0503538,-0.2128)">
      <path
         style="fill:#d1d1d1"
         d="m 8.0742529,1050.7161 c -0.084099,0 -0.2114636,-0.1845 -0.2830321,-0.41 l -0.1301244,-0.41 -0.7207231,-0.342 -0.7207231,-0.342 -1.1328132,-0.1634 -1.1328131,-0.1634 -0.4539338,-0.6091 -0.4539336,-0.6091 0.049215,-1.9094 0.049216,-1.9094 -0.7291695,-0.2637 -0.7291694,-0.2637 1.0718911,-1.4178 1.0718912,-1.4178 0.6849872,-0.3679 0.6849873,-0.3679 0.821853,-0.01 0.8218532,-0.01 0.4125685,-0.2208 0.4125684,-0.2208 0.3184955,-0.5869 0.3184954,-0.5869 0.00862,0.3394 0.00862,0.3394 0.5130481,0.482 0.5130483,0.482 0.9918222,0.066 0.991822,0.066 0.70609,0.5385 0.706091,0.5386 0.953061,1.3587 0.953062,1.3587 -0.310173,-0.1182 -0.310172,-0.1181 -0.503934,0.1873 -0.503933,0.1873 0.145262,1.7767 0.145263,1.7767 -0.229313,0.595 -0.229313,0.5949 -0.48894,0.2032 c -0.268918,0.1118 -1.064315,0.315 -1.767551,0.4517 l -1.2786101,0.2486 -0.5462781,0.6225 c -0.3004529,0.3424 -0.6150865,0.6226 -0.6991859,0.6226 z m -4.3819417,-3.2308 c 0.059231,0 0.1076924,-0.049 0.1076924,-0.1077 0,-0.059 -0.048462,-0.1077 -0.1076924,-0.1077 -0.059231,0 -0.1076925,0.049 -0.1076925,0.1077 0,0.059 0.048462,0.1077 0.1076925,0.1077 z m 0,-2.1539 c 0.059231,0 0.1076924,-0.048 0.1076924,-0.1077 0,-0.059 -0.048462,-0.1076 -0.1076924,-0.1076 -0.059231,0 -0.1076925,0.048 -0.1076925,0.1076 0,0.059 0.048462,0.1077 0.1076925,0.1077 z m 8.7230878,0 0.28718,0 -0.14359,-0.1435 -0.14359,-0.1436 -0.14359,0.1436 -0.143589,0.1435 0.287179,0 z"
         id="path7358" />
      <path
         style="fill:#c4c4c4"
         d="m 8.0742529,1050.7161 c -0.084099,0 -0.2114636,-0.1845 -0.2830321,-0.41 l -0.1301244,-0.41 -0.7207231,-0.342 -0.7207231,-0.342 -1.1328132,-0.1634 -1.1328131,-0.1634 -0.4539338,-0.6091 -0.4539336,-0.6091 0.049215,-1.9094 0.049216,-1.9094 -0.7291695,-0.2637 -0.7291694,-0.2637 1.0718911,-1.4178 1.0718912,-1.4178 0.6849872,-0.3679 0.6849873,-0.3679 0.821853,-0.01 0.8218532,-0.01 0.4125685,-0.2208 0.4125684,-0.2208 0.3184955,-0.5869 0.3184954,-0.5869 0.00862,0.3394 0.00862,0.3394 0.5130481,0.482 0.5130483,0.482 0.9918222,0.066 0.991822,0.066 0.70609,0.5385 0.706091,0.5386 0.953061,1.3587 0.953062,1.3587 -0.310173,-0.1182 -0.310172,-0.1181 -0.503934,0.1873 -0.503933,0.1873 0.145262,1.7767 0.145263,1.7767 -0.229313,0.595 -0.229313,0.5949 -0.48894,0.2032 c -0.268918,0.1118 -1.064315,0.315 -1.767551,0.4517 l -1.2786101,0.2486 -0.5462781,0.6225 c -0.3004529,0.3424 -0.6150865,0.6226 -0.6991859,0.6226 z m 0.7927364,-1.3898 0.7324383,-0.4971 1.1707774,-0.1463 1.170777,-0.1462 0.319425,-0.3642 c 0.175684,-0.2003 0.38718,-0.5863 0.469991,-0.8578 l 0.150566,-0.4937 -0.144022,-0.8525 -0.144022,-0.8524 -4.5041504,0 -4.5041509,0 0,1.2443 0,1.2444 0.3352906,0.4787 0.3352905,0.4787 0.5948489,0 c 0.3271669,0 1.0854427,0.1457 1.6850573,0.3238 l 1.0902085,0.3237 0.2546183,0.3068 0.2546184,0.3068 0.7324381,-0.497 z m 4.3286297,-7.0102 c 0.04473,0 0.08132,-0.037 0.08132,-0.081 0,-0.045 -0.169616,-0.2143 -0.376924,-0.3769 l -0.376923,-0.2956 0.295604,0.3769 c 0.162582,0.2073 0.332197,0.377 0.376923,0.377 z m -8.8571531,-1.5077 c 0.059231,0 0.1076924,-0.048 0.1076924,-0.1077 0,-0.059 -0.048462,-0.1077 -0.1076924,-0.1077 -0.059231,0 -0.1076925,0.048 -0.1076925,0.1077 0,0.059 0.048462,0.1077 0.1076925,0.1077 z m 7.5384711,0 c 0.05923,0 0.107693,-0.048 0.107693,-0.1077 0,-0.059 -0.04846,-0.1077 -0.107693,-0.1077 -0.05923,0 -0.107692,0.048 -0.107692,0.1077 0,0.059 0.04846,0.1077 0.107692,0.1077 z"
         id="path7356" />
      <path
         style="fill:#b8b8b8"
         d="m 8.0742529,1050.7161 c -0.084099,0 -0.2114636,-0.1845 -0.2830321,-0.41 l -0.1301244,-0.41 -0.7207231,-0.342 -0.7207231,-0.342 -1.1328132,-0.1634 -1.1328131,-0.1634 -0.4539338,-0.6091 -0.4539336,-0.6091 0.049215,-1.9094 0.049216,-1.9094 -0.7291695,-0.2637 -0.7291694,-0.2637 1.0718911,-1.4178 1.0718912,-1.4178 0.6849872,-0.3679 0.6849873,-0.3679 0.821853,-0.01 0.8218532,-0.01 0.4125685,-0.2208 0.4125684,-0.2208 0.3184955,-0.5869 0.3184954,-0.5869 0.00862,0.3394 0.00862,0.3394 0.5130481,0.482 0.5130483,0.482 1.0036142,0.067 c 0.551988,0.037 1.072271,0.1357 1.156185,0.2196 0.08391,0.084 0.159486,0.2172 0.16794,0.2962 0.0085,0.079 0.136234,0.3859 0.283958,0.682 l 0.268588,0.5385 0.577582,0.4212 0.577581,0.4211 -0.822113,-1.0134 -0.822113,-1.0135 0.215385,0 c 0.118461,0 0.544683,0.4119 0.947158,0.9154 0.402475,0.5034 0.961283,1.2481 1.241795,1.6548 l 0.510023,0.7395 -0.31199,-0.1189 -0.31199,-0.1188 -0.503934,0.1873 -0.503933,0.1873 0.145262,1.7767 0.145263,1.7767 -0.229313,0.595 -0.229313,0.5949 -0.48894,0.2032 c -0.268918,0.1118 -1.064315,0.315 -1.767551,0.4517 l -1.2786101,0.2486 -0.5462781,0.6225 c -0.3004529,0.3424 -0.6150865,0.6226 -0.6991859,0.6226 z m 0.6388445,-1.3192 0.4977036,-0.3788 1.225376,-0.2428 c 0.673956,-0.1335 1.384567,-0.2878 1.579135,-0.3428 l 0.35376,-0.1 0.263449,-0.636 0.26345,-0.636 -0.145791,-0.9722 -0.14579,-0.9722 -4.5098858,0 -4.5098855,0 -0.03248,0.5923 c -0.017864,0.3257 -0.010379,0.883 0.01663,1.2384 l 0.049111,0.6462 0.2905185,0.4527 0.2905187,0.4527 1.1066796,0.1311 1.1066799,0.1311 0.9015588,0.5075 0.9015593,0.5076 0.4977035,-0.3788 z m -4.8054013,-4.927 c 0.059231,0 0.1076924,-0.049 0.1076924,-0.1077 0,-0.059 -0.048462,-0.1077 -0.1076924,-0.1077 -0.059231,0 -0.1076925,0.049 -0.1076925,0.1077 0,0.059 0.048462,0.1077 0.1076925,0.1077 z m -0.2153849,-0.4308 c 0.059231,0 0.1076924,-0.048 0.1076924,-0.1077 0,-0.059 -0.048462,-0.1077 -0.1076924,-0.1077 -0.059231,0 -0.1076925,0.049 -0.1076925,0.1077 0,0.059 0.048462,0.1077 0.1076925,0.1077 z m 9.0461658,-0.4307 c 0.177692,-0.1475 0.323077,-0.3166 0.323077,-0.3759 0,-0.059 -0.145385,0.013 -0.323077,0.1605 -0.177693,0.1474 -0.323078,0.3166 -0.323078,0.3758 0,0.059 0.145385,-0.013 0.323078,-0.1604 z m -9.2351779,0 c 0.044726,0 0.08132,-0.037 0.08132,-0.081 0,-0.045 -0.1696156,-0.2143 -0.3769235,-0.3769 l -0.3769236,-0.2956 0.2956039,0.3769 c 0.162582,0.2073 0.3321976,0.377 0.3769236,0.377 z m 1.6967063,-0.6462 c 0.059231,0 0.1076925,-0.048 0.1076925,-0.1077 0,-0.059 -0.048462,-0.1077 -0.1076925,-0.1077 -0.059231,0 -0.1076924,0.049 -0.1076924,0.1077 0,0.059 0.048462,0.1077 0.1076924,0.1077 z m 1.9384641,0 c 0.059231,0 0.1076924,-0.048 0.1076924,-0.1077 0,-0.059 -0.048462,-0.1077 -0.1076924,-0.1077 -0.059231,0 -0.1076925,0.049 -0.1076925,0.1077 0,0.059 0.048462,0.1077 0.1076925,0.1077 z m 3.8769285,0 c 0.05923,0 0.107692,-0.048 0.107692,-0.1077 0,-0.059 -0.04846,-0.1077 -0.107692,-0.1077 -0.05923,0 -0.107693,0.049 -0.107693,0.1077 0,0.059 0.04846,0.1077 0.107693,0.1077 z m -7.2153944,-0.3231 c 0.1184617,-0.073 0.2153849,-0.1815 0.2153849,-0.2408 0,-0.059 -0.096923,-0.048 -0.2153849,0.025 -0.1184617,0.073 -0.2153849,0.1816 -0.2153849,0.2409 0,0.059 0.096923,0.048 0.2153849,-0.025 z m 0.969232,0.1077 c 0.059231,0 0.1076925,-0.048 0.1076925,-0.1077 0,-0.059 -0.048462,-0.1077 -0.1076925,-0.1077 -0.059231,0 -0.1076924,0.048 -0.1076924,0.1077 0,0.059 0.048462,0.1077 0.1076924,0.1077 z m 2.9076961,-0.1077 c 0.1184617,-0.073 0.2153849,-0.1815 0.2153849,-0.2408 0,-0.059 -0.096923,-0.048 -0.2153849,0.025 -0.1184617,0.073 -0.2153849,0.1816 -0.2153849,0.2409 0,0.059 0.096923,0.048 0.2153849,-0.025 z m 0.969232,0.1077 c 0.059231,0 0.1076925,-0.048 0.1076925,-0.1077 0,-0.059 -0.048462,-0.1077 -0.1076925,-0.1077 -0.059231,0 -0.1076924,0.048 -0.1076924,0.1077 0,0.059 0.048462,0.1077 0.1076924,0.1077 z m 2.8000033,0 c 0.05923,0 0.107693,-0.048 0.107693,-0.1077 0,-0.059 -0.04846,-0.1077 -0.107693,-0.1077 -0.05923,0 -0.107692,0.048 -0.107692,0.1077 0,0.059 0.04846,0.1077 0.107692,0.1077 z m -7.1077011,-0.2154 c 0.059231,0 0.1076924,-0.048 0.1076924,-0.1077 0,-0.059 -0.048462,-0.1076 -0.1076924,-0.1076 -0.059231,0 -0.1076925,0.048 -0.1076925,0.1076 0,0.059 0.048462,0.1077 0.1076925,0.1077 z m 7.5384711,0 c 0.05923,0 0.107693,-0.048 0.107693,-0.1077 0,-0.059 -0.04846,-0.1076 -0.107693,-0.1076 -0.05923,0 -0.107692,0.048 -0.107692,0.1076 0,0.059 0.04846,0.1077 0.107692,0.1077 z m -3.6615431,-0.2153 c 0.059231,0 0.1076925,-0.049 0.1076925,-0.1077 0,-0.059 -0.048462,-0.1077 -0.1076925,-0.1077 -0.059231,0 -0.1076924,0.048 -0.1076924,0.1077 0,0.059 0.048462,0.1077 0.1076924,0.1077 z m -2.112714,-0.2324 0.9026744,0.017 0.1052954,-0.1704 0.1052954,-0.1704 -0.7925849,0.078 c -0.4359218,0.043 -0.8895082,0.1121 -1.0079699,0.1534 -0.1184617,0.041 0.1908185,0.083 0.6872896,0.092 z m 3.4922517,0 0.3435415,-0.014 -0.4662213,-0.188 -0.4662213,-0.188 -0.2272299,-0.3907 -0.2272302,-0.3906 -0.00655,0.1984 c -0.0036,0.1091 0.153857,0.3756 0.3499098,0.5923 l 0.3564596,0.3939 0.3435417,-0.014 z m 1.0076444,0.01 c 0.227052,0 0.558206,-0.1017 0.735899,-0.222 l 0.323077,-0.2186 -0.646154,0.1445 c -0.355386,0.079 -0.68654,0.1794 -0.735899,0.222 -0.04936,0.043 0.09603,0.076 0.323077,0.074 z m -7.1742199,-0.331 c 0.1683666,-0.065 0.5156222,-0.4008 0.7716789,-0.7471 l 0.4655576,-0.6297 -0.2712557,0.1164 c -0.1491909,0.064 -0.4964462,0.4003 -0.771679,0.7472 l -0.500423,0.6307 0.3061212,-0.1175 z m 1.5562644,0.1189 c 0.059231,0 0.1076925,-0.048 0.1076925,-0.1077 0,-0.059 -0.048462,-0.1077 -0.1076925,-0.1077 -0.059231,0 -0.1076924,0.048 -0.1076924,0.1077 0,0.059 0.048462,0.1077 0.1076924,0.1077 z m -0.3230773,-0.3231 c 0.1184617,-0.073 0.2153849,-0.1816 0.2153849,-0.2408 0,-0.059 -0.096923,-0.048 -0.2153849,0.025 -0.1184617,0.073 -0.2153849,0.1816 -0.2153849,0.2408 0,0.059 0.096923,0.048 0.2153849,-0.025 z m 2.9076961,-0.1077 c 0.059231,0 0.1076924,-0.048 0.1076924,-0.1077 0,-0.059 -0.048462,-0.1077 -0.1076924,-0.1077 -0.059231,0 -0.1076925,0.049 -0.1076925,0.1077 0,0.059 0.048462,0.1077 0.1076925,0.1077 z m 0.2600257,-0.8102 c 0.051519,-0.2679 0.049563,-0.6556 -0.00435,-0.8615 l -0.098017,-0.3744 0.00435,0.8615 0.00435,0.8615 0.09367,-0.4871 z m 2.64767,-0.2667 0.28718,0 -0.14359,-0.1436 -0.14359,-0.1436 -0.14359,0.1436 -0.143589,0.1436 0.287179,0 z m -3.7692353,-0.2154 c 0.059231,0 0.1076924,-0.048 0.1076924,-0.1077 0,-0.059 -0.048462,-0.1077 -0.1076924,-0.1077 -0.059231,0 -0.1076925,0.049 -0.1076925,0.1077 0,0.059 0.048462,0.1077 0.1076925,0.1077 z m 2.8000036,0 c 0.059231,0 0.1076925,-0.048 0.1076925,-0.1077 0,-0.059 -0.048462,-0.1077 -0.1076925,-0.1077 -0.059231,0 -0.1076924,0.049 -0.1076924,0.1077 0,0.059 0.048462,0.1077 0.1076924,0.1077 z m -0.6461547,-0.2154 c 0.059231,0 0.1076925,-0.048 0.1076925,-0.1077 0,-0.059 -0.048462,-0.1077 -0.1076925,-0.1077 -0.059231,0 -0.1076924,0.049 -0.1076924,0.1077 0,0.059 0.048462,0.1077 0.1076924,0.1077 z m -0.3948722,-0.2872 0.1435898,-0.1436 -0.1435898,-0.1435 -0.14359,-0.1436 0,0.2871 0,0.2872 0.14359,-0.1436 z"
         id="path7354" />
      <path
         style="fill:#aaaaaa"
         d="m 8.0742529,1050.7161 c -0.084099,0 -0.2114636,-0.1845 -0.2830321,-0.41 l -0.1301244,-0.41 -0.7207231,-0.342 -0.7207231,-0.342 -1.1328132,-0.1634 -1.1328131,-0.1634 -0.4539338,-0.6091 -0.4539336,-0.6091 0.049215,-1.9094 0.049216,-1.9094 -0.7291695,-0.2637 -0.7291694,-0.2637 1.0718911,-1.4178 1.0718912,-1.4178 0.6849872,-0.3679 0.6849873,-0.3679 0.821853,-0.01 0.8218532,-0.01 0.4125685,-0.2208 0.4125684,-0.2208 0.3184955,-0.5869 0.3184954,-0.5869 0.00862,0.3394 0.00862,0.3394 0.5130481,0.482 0.5130483,0.482 0.9677622,0.065 c 0.53227,0.036 1.078365,0.133 1.213545,0.2166 l 0.245781,0.1519 -0.09894,0.1601 -0.09894,0.1601 0.369367,0.563 c 0.203151,0.3097 0.658018,0.7834 1.010815,1.0527 l 0.641448,0.4897 -0.424562,-0.5277 c -0.233509,-0.2902 -0.663566,-0.7942 -0.955682,-1.12 l -0.53112,-0.5923 0.241261,0 0.241262,0 0.731773,0.9154 c 0.402475,0.5034 0.961283,1.2481 1.241795,1.6548 l 0.510023,0.7395 -0.31199,-0.1189 -0.31199,-0.1188 -0.503934,0.1873 -0.503933,0.1873 0.145262,1.7767 0.145263,1.7767 -0.229313,0.595 -0.229313,0.5949 -0.48894,0.2032 c -0.268918,0.1118 -1.064315,0.315 -1.767551,0.4517 l -1.2786101,0.2486 -0.5462781,0.6225 c -0.3004529,0.3424 -0.6150865,0.6226 -0.6991859,0.6226 z m 0.5699461,-1.2023 0.4771749,-0.4771 1.2700891,-0.2468 c 0.698549,-0.1357 1.482938,-0.3349 1.743086,-0.4427 l 0.472997,-0.1959 0.143282,-0.7638 0.143282,-0.7638 -0.141423,-0.7538 -0.141422,-0.7538 -4.4851418,0 -4.4851415,0 -0.1217928,0.7505 -0.1217928,0.7505 0.1922555,0.6704 c 0.1057404,0.3686 0.3051181,0.8063 0.4430614,0.9725 l 0.2508058,0.3022 0.5659359,0 c 0.3112645,7e-4 0.929238,0.1021 1.3732742,0.2254 l 0.8073387,0.2242 0.5684784,0.489 0.5684783,0.489 0.4771747,-0.4772 z m -0.5938452,-4.9362 4.2505942,0 0.38302,-0.7509 0.38302,-0.7508 -0.487333,-0.3752 c -0.268033,-0.2063 -0.548946,-0.3772 -0.624252,-0.3799 -0.07531,0 -0.414536,0.14 -0.753847,0.317 l -0.616928,0.3218 -0.6709545,0 -0.6709546,0 -0.5780013,-0.4546 -0.5780015,-0.4547 -0.4035598,0.3652 -0.4035597,0.3652 -0.8244107,0.1031 -0.8244107,0.103 -0.7769913,-0.4055 -0.7769913,-0.4055 -0.5946211,0.4741 -0.5946211,0.4742 0.4562267,0.4562 c 0.2509244,0.2509 0.4561716,0.5774 0.4561046,0.7255 l -1.219e-4,0.2692 4.250594,0 z m -4.9552631,-2.4769 c 0.1094797,0 0.3901641,-0.2181 0.623743,-0.4846 0.2335789,-0.2666 0.5549527,-0.6565 0.7141639,-0.8665 l 0.2894752,-0.3819 -0.2996958,0.1313 c -0.1648328,0.072 -0.5757809,0.4621 -0.9132182,0.8665 l -0.613522,0.7352 0.1990539,0 z m 3.127993,-0.014 0.8076933,0.014 0.4307698,-0.4308 0.4307698,-0.4308 0,-0.8505 0,-0.8506 -0.7469292,0.3121 c -0.4108111,0.1717 -0.9827767,0.3121 -1.2710345,0.3121 l -0.5241053,0 -0.4494434,0.7618 -0.4494437,0.7617 0.482015,0.1938 c 0.2651082,0.1066 0.8454768,0.2 1.2897082,0.2075 z m 4.1994133,-0.036 c 0.621976,-0.052 1.183965,-0.1469 1.248865,-0.2118 l 0.118001,-0.118 -0.403767,-0.7228 -0.403767,-0.7227 -0.928768,-0.1586 -0.9287682,-0.1585 -0.3753306,-0.3397 -0.3753306,-0.3397 0.1098011,1.0336 0.1098013,1.0336 0.3491996,0.3992 0.3491997,0.3991 1.1308637,-0.094 z"
         id="path7352" />
      <path
         style="fill:#929292"
         d="m 8.0742529,1050.7161 c -0.084099,0 -0.2114636,-0.1845 -0.2830321,-0.41 l -0.1301244,-0.41 -0.7207231,-0.342 -0.7207231,-0.342 -1.1328132,-0.1634 -1.1328131,-0.1634 -0.4539338,-0.6091 -0.4539336,-0.6091 0.049215,-1.9094 0.049216,-1.9094 -0.7291695,-0.2637 -0.7291694,-0.2637 1.0718911,-1.4178 1.0718912,-1.4178 0.6849872,-0.3679 0.6849873,-0.3679 0.821853,-0.01 0.8218532,-0.01 0.4125685,-0.2208 0.4125684,-0.2208 0.3184955,-0.5869 0.3184954,-0.5869 0.00862,0.3394 0.00862,0.3394 0.5130481,0.482 0.5130483,0.482 0.9918222,0.066 0.991822,0.066 0.70609,0.5385 0.706091,0.5386 0.953061,1.3587 0.953062,1.3587 -0.310173,-0.1182 -0.310172,-0.1181 -0.503934,0.1873 -0.503933,0.1873 0.145262,1.7767 0.145263,1.7767 -0.229313,0.595 -0.229313,0.5949 -0.48894,0.2032 c -0.268918,0.1118 -1.064315,0.315 -1.767551,0.4517 l -1.2786101,0.2486 -0.5462781,0.6225 c -0.3004529,0.3424 -0.6150865,0.6226 -0.6991859,0.6226 z m 0.5387476,-1.1082 c 0.2186837,-0.2342 0.6063765,-0.5049 0.8615396,-0.6013 0.2551632,-0.096 0.9737479,-0.2452 1.5968539,-0.3304 l 1.132922,-0.155 0.320926,-0.4582 0.320927,-0.4582 0,-0.9037 c 0,-0.497 -0.05883,-1.057 -0.130736,-1.2444 l -0.130736,-0.3406 -4.4811074,0 -4.4811071,0 -0.1409375,0.8342 -0.1409373,0.8342 0.3276652,0.7842 0.3276651,0.7842 0.2789564,0.082 c 0.1534259,0.045 0.8398822,0.1967 1.5254579,0.3373 l 1.2465017,0.2557 0.5842699,0.5032 0.58427,0.5032 0.3976066,-0.426 z m -0.4725228,-4.9317 4.2327813,0.01 0.276286,-0.7 c 0.151957,-0.385 0.312841,-0.7665 0.35752,-0.8478 l 0.08123,-0.1478 -0.536085,-0.3513 -0.536085,-0.3513 -1.102081,0.3914 -1.1020816,0.3914 -0.8470984,-0.464 -0.8470985,-0.4639 -0.8127279,0.4149 -0.8127278,0.4149 -0.6461547,-0.1384 c -0.3553851,-0.076 -0.9075109,-0.272 -1.2269461,-0.4352 l -0.5807914,-0.2967 -0.5711227,0.4913 -0.5711227,0.4912 0.5057594,0.7915 0.5057595,0.7916 4.2327816,0.01 z m 5.3113833,-2.1516 c 0.03698,0 -0.241964,-0.4237 -0.619866,-0.9499 -0.377903,-0.5262 -0.821222,-1.0083 -0.985155,-1.0712 l -0.298059,-0.1143 0.319586,0.618 0.319587,0.618 0.598339,0.4463 c 0.329086,0.2455 0.628592,0.4494 0.665568,0.4531 z m -10.0593813,-0.5521 c 0.2497086,-0.2257 0.654075,-0.691 0.8985918,-1.034 l 0.4445764,-0.6238 -0.3333876,0.193 c -0.1833632,0.1061 -0.5877294,0.4977 -0.8985918,0.8702 -0.3108625,0.3725 -0.5652045,0.751 -0.5652045,0.8411 0,0.09 0.2043071,-0.021 0.4540157,-0.2465 z m 7.3755923,0.087 c 0.484653,-0.1089 0.912338,-0.2292 0.950412,-0.2672 0.03807,-0.038 -0.09827,-0.4205 -0.302977,-0.8498 l -0.372201,-0.7805 -0.560721,0 -0.5607215,0 -0.7993886,-0.4075 -0.7993885,-0.4076 0,0.8207 c 0,0.4514 0.062967,0.9848 0.1399272,1.1854 l 0.1399271,0.3646 0.6419713,0.2699 0.6419712,0.27 0.8811888,-0.198 z m -4.5449883,0.027 0.8076933,0.014 0.4307698,-0.4308 0.4307698,-0.4308 0,-0.8505 0,-0.8506 -0.7469292,0.3121 -0.7469294,0.3121 -0.6131805,0 -0.6131806,0 -0.3628206,0.7608 -0.3628208,0.7609 0.4844674,0.1947 c 0.2664572,0.1071 0.8479294,0.2009 1.2921608,0.2084 z"
         id="path7350" />
      <path
         style="fill:#777777"
         d="m 8.0742529,1050.7161 c -0.084099,0 -0.2114636,-0.1845 -0.2830321,-0.41 l -0.1301244,-0.41 -0.7207231,-0.342 -0.7207231,-0.342 -1.1328132,-0.1634 -1.1328131,-0.1634 -0.4539338,-0.6091 -0.4539336,-0.6091 0.049215,-1.9094 0.049216,-1.9094 -0.7291695,-0.2637 -0.7291694,-0.2637 1.0718911,-1.4178 1.0718912,-1.4178 0.6849872,-0.3679 0.6849873,-0.3679 0.821853,-0.01 0.8218532,-0.01 0.4125685,-0.2208 0.4125684,-0.2208 0.3184955,-0.5869 0.3184954,-0.5869 0.00862,0.3394 0.00862,0.3394 0.5130481,0.482 0.5130483,0.482 0.9747102,0.065 0.974711,0.065 0.634622,0.4519 c 0.349042,0.2485 0.900879,0.801 1.226304,1.2276 l 0.591681,0.7757 -0.108682,0.1087 -0.108683,0.1087 -0.659433,-0.9584 -0.659433,-0.9585 -0.33056,-0.1268 -0.33056,-0.1269 0,0.2143 c 0,0.1179 0.438113,0.6524 0.973585,1.1879 l 0.973585,0.9736 0.187472,-0.1159 0.187472,-0.1159 0.373441,0.57 0.37344,0.5699 -0.296034,-0.1127 -0.296035,-0.1127 -0.503934,0.1873 -0.503933,0.1873 0.145262,1.7767 0.145263,1.7767 -0.229313,0.595 -0.229313,0.5949 -0.48894,0.2032 c -0.268918,0.1118 -1.064315,0.315 -1.767551,0.4517 l -1.2786101,0.2486 -0.5462781,0.6225 c -0.3004529,0.3424 -0.6150865,0.6226 -0.6991859,0.6226 z m 0.5719108,-1.0786 c 0.2369234,-0.2202 0.6730778,-0.4906 0.9692321,-0.6008 0.2961542,-0.1102 1.0006852,-0.2683 1.5656232,-0.3512 l 1.027162,-0.1509 0.330929,-0.5051 0.33093,-0.505 -0.06578,-1.1504 -0.06578,-1.1504 -4.5075988,-0.058 -4.5075986,-0.058 -0.1737247,0.2737 -0.1737247,0.2737 -1.23e-4,0.7539 -1.23e-4,0.7538 0.266056,0.5173 c 0.1463307,0.2846 0.4114407,0.5964 0.5891332,0.6929 0.1776925,0.097 0.8837919,0.2833 1.5691093,0.4149 l 1.246032,0.2394 0.5847396,0.5056 0.5847396,0.5057 0.4307698,-0.4005 z m -0.5384622,-4.9522 4.5230825,0 0,-0.4154 0,-0.4154 0.348719,-0.3487 c 0.191795,-0.1918 0.312949,-0.3745 0.269231,-0.4061 -0.04372,-0.032 -0.348246,-0.2607 -0.676728,-0.5092 l -0.59724,-0.4519 -0.652776,0.3257 -0.652775,0.3256 -0.7686195,0 -0.7686191,0 -0.4322395,-0.4322 -0.4322396,-0.4323 -0.6722064,0.4099 -0.6722063,0.4099 -0.7212962,8e-4 -0.7212963,8e-4 -0.7284521,-0.3457 -0.7284524,-0.3456 -0.6391019,0.5377 -0.639102,0.5378 0.4196174,0.3798 0.4196176,0.3797 0,0.3974 0,0.3974 4.5230828,0 z m -5.2375036,-2.3764 c 0.096777,0 0.3771401,-0.1754 0.6230285,-0.3811 0.2458886,-0.2056 0.6204976,-0.6385 0.8324648,-0.962 l 0.3853948,-0.5882 -0.2142106,0 c -0.1178157,0 -0.5716063,0.4361 -1.0084234,0.9692 -0.436817,0.5331 -0.7150313,0.966 -0.6182541,0.9621 z m 3.7298093,-0.1354 c 0.2961543,-0.059 0.7080779,-0.2592 0.9153858,-0.4461 l 0.3769236,-0.3397 0,-1.0557 0,-1.0558 -0.4786942,0.3353 -0.4786942,0.3353 -0.7960486,0 -0.7960484,0 -0.4483365,0.7254 c -0.2465849,0.399 -0.4483364,0.8256 -0.4483364,0.9479 l 0,0.2224 0.8076934,0.2187 0.8076933,0.2187 0.5384622,-0.1064 z m 3.3384659,0.1277 c 0.1184619,0.01 0.5788469,-0.089 1.0230779,-0.2119 l 0.807694,-0.2243 -0.0014,-0.2591 c -7.75e-4,-0.1425 -0.18542,-0.5382 -0.41031,-0.8793 l -0.408888,-0.6202 -0.799903,-0.072 -0.7999025,-0.072 -0.5128666,-0.336 -0.5128665,-0.3361 0,0.8807 0,0.8807 0.229465,0.4287 0.2294651,0.4288 0.4705358,0.1896 c 0.2587947,0.1042 0.5674591,0.1952 0.6859208,0.202 z"
         id="path7348" />
      <path
         style="fill:#676767"
         d="m 8.1172506,1050.7161 -0.1959055,0 -0.1301243,-0.41 -0.1301244,-0.41 -0.7460491,-0.354 -0.7460489,-0.3541 -1.0698256,-0.1267 -1.0698256,-0.1267 -0.3494879,-0.3861 -0.349488,-0.3862 -0.1928942,-0.8585 -0.1928942,-0.8585 0.1773758,-0.9495 0.1773758,-0.9494 -0.1659903,-0.4488 -0.1659903,-0.4487 -0.675527,-0.1483 -0.675527,-0.1484 0.3713867,-0.4104 c 0.2042627,-0.2257 0.4775188,-0.4138 0.6072359,-0.4181 0.129717,0 0.4891143,-0.2223 0.7986608,-0.4846 0.3095462,-0.2623 0.7326171,-0.7434 0.940157,-1.0692 l 0.3773457,-0.5923 -0.217742,0 c -0.1197583,0 -0.6250651,0.4604 -1.122904,1.0231 l -0.9051617,1.023 0.7071159,-0.9427 0.7071162,-0.9427 0.6602475,-0.4026 c 0.3631361,-0.2215 0.7300189,-0.403 0.8152951,-0.4035 0.085276,-4e-4 -0.084339,0.352 -0.3769235,0.7831 -0.2925842,0.4312 -0.5319712,0.9112 -0.5319712,1.0668 l 0,0.2829 0.8076934,0.2243 c 0.4442313,0.1234 0.971904,0.2249 1.1726061,0.2256 l 0.3649131,0 0.5288044,-0.4847 0.5288044,-0.4846 0.1252405,-1.0231 0.1252405,-1.023 -0.1574182,0.01 c -0.08658,0 -0.3455588,0.1492 -0.5755084,0.3231 -0.2299495,0.1739 -0.5691807,0.3124 -0.7538471,0.3078 l -0.3357571,-0.01 0.6841914,-0.2976 0.6841915,-0.2976 0.3302632,-0.6094 0.3302634,-0.6094 0.034342,0.4308 c 0.018887,0.2369 0.014625,0.9747 -0.00947,1.6394 l -0.043815,1.2086 0.5856059,0.4606 0.5856048,0.4607 0.5163336,0 c 0.2839833,0 0.8560933,-0.142 1.2713543,-0.3155 l 0.755021,-0.3155 -0.578073,-0.8735 -0.578073,-0.8735 0.134142,-0.1342 0.134141,-0.1341 0.135332,0.3526 0.135331,0.3527 0.203193,-0.1256 0.203193,-0.1255 0.689624,0.7386 c 0.379293,0.4062 1.022839,1.2072 1.430101,1.7799 0.407263,0.5727 0.633474,0.9752 0.502691,0.8944 l -0.237788,-0.147 -0.575708,0.2189 -0.575709,0.2189 0.149573,1.7956 0.149572,1.7956 -0.343423,0.6641 -0.343423,0.6641 -0.379286,0.1114 c -0.208607,0.061 -0.766979,0.1725 -1.240825,0.247 -0.473847,0.075 -1.1233536,0.2348 -1.4433486,0.3563 l -0.5818089,0.2209 -0.3385422,0.5167 c -0.186198,0.2842 -0.4266996,0.5167 -0.5344474,0.5167 z m 0.6967921,-1.2023 0.5986485,-0.5037 0.8013538,-0.1308 c 0.440744,-0.072 1.057841,-0.1782 1.371327,-0.2361 l 0.569975,-0.1054 0.356882,-0.3944 0.356882,-0.3943 -0.06532,-1.2627 -0.06532,-1.2627 -4.5717544,-0.058 -4.5717542,-0.058 -0.1391513,0.5544 -0.1391514,0.5545 0.1270838,0.7831 0.1270837,0.7831 0.3838163,0.3611 0.3838164,0.3611 1.2742123,0.244 1.2742122,0.2441 0.6642518,0.5123 0.6642517,0.5123 0.5986488,-0.5037 z m -0.7063412,-4.8285 4.5230825,0 0,-0.4044 0,-0.4044 0.323078,-0.2681 c 0.177692,-0.1475 0.323077,-0.335 0.323077,-0.4167 0,-0.082 -0.290441,-0.3632 -0.645425,-0.6257 l -0.645425,-0.4771 -0.636188,0.3289 -0.636189,0.329 -0.7354963,0 -0.7354968,0 -0.5297955,-0.4167 -0.5297958,-0.4168 -0.6300215,0.4154 -0.6300215,0.4153 -0.5879499,0 -0.5879498,0 -0.8510328,-0.3405 -0.8510329,-0.3405 -0.6607203,0.4885 -0.6607204,0.4885 0.43047,0.4582 0.4304702,0.4582 0,0.363 0,0.3631 4.5230828,0 z m 5.4687775,-1.9385 c 0.0869,0 -0.161506,-0.4449 -0.552008,-0.9886 -0.390502,-0.5438 -0.88114,-1.0803 -1.090307,-1.1922 l -0.380304,-0.2036 0,0.2192 c 0,0.1206 0.41954,0.6571 0.932311,1.1922 0.512772,0.5352 1.00341,0.973 1.090308,0.973 z m -8.8072434,-2.3692 c 0.059231,0 0.1076925,-0.049 0.1076925,-0.1077 0,-0.059 -0.048462,-0.1077 -0.1076925,-0.1077 -0.059231,0 -0.1076924,0.049 -0.1076924,0.1077 0,0.059 0.048462,0.1077 0.1076924,0.1077 z m 5.6179564,-0.2324 -0.4128213,0.017 0.1301283,-0.1301 0.130128,-0.1302 0.282693,0.1132 0.282693,0.1131 -0.412821,0.017 z m -0.784476,-0.1997 c -0.1846664,7e-4 -0.5238976,-0.141 -0.7538471,-0.3149 -0.2299496,-0.1739 -0.3564766,-0.3193 -0.2811714,-0.3231 0.075305,0 0.4145365,0.138 0.7538471,0.3149 l 0.6169285,0.3218 -0.3357571,0 z"
         id="path7346" />
      <path
         style="fill:#4f4f4f"
         d="m 8.052684,1050.7161 c -0.072236,0 -0.1862073,-0.1729 -0.2532689,-0.3842 l -0.1219301,-0.3842 -0.6421347,-0.3793 -0.6421347,-0.3793 -1.1152529,-0.1321 -1.1152526,-0.1321 -0.3827526,-0.3827 -0.3827525,-0.3828 -0.2189962,-0.7931 -0.2189961,-0.7932 0.2028769,-1.0697 0.2028768,-1.0698 -0.2194682,-0.4101 -0.2194682,-0.4101 -0.541626,-0.1359 -0.541626,-0.1359 0.080236,-0.2436 c 0.04413,-0.1339 0.2664282,-0.3416 0.4939968,-0.4615 0.2275686,-0.1199 0.6852539,-0.4008 1.0170783,-0.6243 l 0.6033172,-0.4063 0.3338356,-0.6455 0.3338354,-0.6456 -0.3448443,0.1323 c -0.1896643,0.073 -0.3448442,0.089 -0.3448442,0.037 0,-0.053 0.2859564,-0.2433 0.6354587,-0.4241 0.3495023,-0.1807 0.7129643,-0.3271 0.8076933,-0.3253 l 0.1722347,0 -0.2250027,0.1583 c -0.1237513,0.087 -0.4384704,0.5267 -0.6993754,0.9772 l -0.4743732,0.8189 0.7463042,0.3118 c 0.4104671,0.1715 0.9387027,0.3119 1.1738569,0.3119 0.2351542,0 0.6678709,-0.1095 0.9615923,-0.2434 l 0.5340391,-0.2433 0.2199254,-0.5644 c 0.1209591,-0.3104 0.2596956,-0.8066 0.3083035,-1.1028 l 0.088378,-0.5385 0.029331,0.8998 0.029332,0.8997 0.5675088,0.4464 0.5675086,0.4465 0.584968,0 c 0.321732,0 0.896137,-0.1085 1.276456,-0.2411 l 0.691489,-0.2411 -0.125763,-0.3277 -0.125763,-0.3277 0.697321,0.6817 0.697321,0.6818 0.269049,-0.1032 0.26905,-0.1033 0.414741,0.5826 0.414741,0.5826 -0.536334,0.032 c -0.294984,0.018 -0.628455,0.1245 -0.741048,0.2371 -0.112592,0.1126 -0.211055,0.3888 -0.218807,0.6137 -0.0078,0.225 0.05864,0.9634 0.147535,1.6409 l 0.16163,1.2319 -0.258464,0.6239 -0.258464,0.624 -0.470412,0.2252 c -0.258727,0.1238 -1.051952,0.3294 -1.762722,0.4568 l -1.2923094,0.2316 -0.5541478,0.649 c -0.3047813,0.3569 -0.6132504,0.6489 -0.6854866,0.6489 z m 0.5817128,-1.0659 0.4812509,-0.4521 0.7330681,-0.2103 c 0.4031872,-0.1156 0.9948422,-0.2102 1.3147882,-0.2102 l 0.581719,0 0.548712,-0.4846 0.548712,-0.4846 0.04115,-0.6462 c 0.02263,-0.3554 0.02343,-0.963 0.0018,-1.3503 l -0.0394,-0.7042 -4.6846213,0.058 -4.6846214,0.058 -0.065188,1.0119 -0.065189,1.0118 0.3330173,0.644 0.3330176,0.644 1.0244804,0.145 1.0244804,0.1449 0.8875904,0.3825 c 0.4881748,0.2104 0.958785,0.4977 1.0458007,0.6385 l 0.1582101,0.256 0.4812506,-0.4521 z m -0.5266953,-4.9649 4.5230825,0 0,-0.4044 0,-0.4044 0.323078,-0.2681 c 0.177692,-0.1475 0.323077,-0.335 0.323077,-0.4167 0,-0.082 -0.283988,-0.3584 -0.631085,-0.6151 l -0.631084,-0.4665 -0.762,0.3183 -0.761999,0.3184 -0.624026,0 -0.6240261,0 -0.5675086,-0.4464 -0.5675088,-0.4464 -0.5675088,0.4464 -0.5675086,0.4464 -0.6127496,0 -0.6127496,0 -0.8580578,-0.3433 -0.8580577,-0.3433 -0.6539951,0.4657 c -0.3596974,0.2561 -0.6539951,0.5075 -0.6539951,0.5587 0,0.051 0.1938464,0.2868 0.4307697,0.5238 l 0.4307698,0.4307 0,0.3231 0,0.3231 4.5230828,0 z m 5.4923145,-1.9385 c 0.05923,0 0.107693,-0.048 0.107693,-0.1077 0,-0.059 -0.04846,-0.1077 -0.107693,-0.1077 -0.05923,0 -0.107692,0.048 -0.107692,0.1077 0,0.059 0.04846,0.1077 0.107692,0.1077 z m -8.8307804,-2.3692 c 0.059231,0 0.1076925,-0.049 0.1076925,-0.1077 0,-0.059 -0.048462,-0.1077 -0.1076925,-0.1077 -0.059231,0 -0.1076924,0.049 -0.1076924,0.1077 0,0.059 0.048462,0.1077 0.1076924,0.1077 z m -1.938464,1.7231 c -0.1776925,0.1474 -0.3230773,0.2196 -0.3230773,0.1604 0,-0.059 0.1453848,-0.2283 0.3230773,-0.3758 0.1776925,-0.1475 0.3230773,-0.2197 0.3230773,-0.1605 0,0.059 -0.1453848,0.2284 -0.3230773,0.3759 z m 10.5802324,0 c -0.04473,0 -0.214341,-0.1696 -0.376923,-0.377 l -0.295604,-0.3769 0.376923,0.2956 c 0.207308,0.1626 0.376924,0.3322 0.376924,0.3769 0,0.045 -0.03659,0.081 -0.08132,0.081 z m -9.9340777,-0.8616 c -0.1776926,0.1475 -0.3230774,0.2197 -0.3230774,0.1605 0,-0.059 0.1453848,-0.2284 0.3230774,-0.3759 0.1776925,-0.1474 0.3230773,-0.2196 0.3230773,-0.1604 0,0.059 -0.1453848,0.2284 -0.3230773,0.3758 z m 9.3417697,-0.01 c -0.04412,0 -0.370989,-0.2552 -0.726374,-0.5576 l -0.646155,-0.5499 0.448484,0.2228 c 0.246667,0.1225 0.573535,0.3734 0.726374,0.5576 0.152839,0.1842 0.241791,0.3313 0.197671,0.3271 z m -1.131721,-0.2077 c -0.05923,0 -0.167594,-0.097 -0.240808,-0.2153 -0.07321,-0.1185 -0.08465,-0.2154 -0.02542,-0.2154 0.05923,0 0.167594,0.097 0.240807,0.2154 0.07321,0.1184 0.08465,0.2153 0.02542,0.2153 z m -0.380808,-0.7574 -0.111282,0.1113 -0.14359,-0.1436 c -0.07897,-0.079 -0.14359,-0.2437 -0.14359,-0.3662 l 0,-0.2225 0.254872,0.2549 0.254872,0.2548 -0.111282,0.1113 z m -0.918975,-0.1211 -0.4128213,0.017 0.1301283,-0.1301 0.130128,-0.1302 0.282693,0.1132 0.282693,0.1131 -0.412821,0.017 z m -3.5717999,-0.1984 -0.2871798,0 0.1435898,-0.1436 0.14359,-0.1436 0.14359,0.1436 0.1435898,0.1436 -0.2871798,0 z m 2.7050226,0 c -0.1707014,0 -0.3646815,-0.088 -0.431067,-0.1953 l -0.1207011,-0.1953 0.431067,0.1127 c 0.2370869,0.062 0.4310671,0.1499 0.4310671,0.1953 0,0.045 -0.1396647,0.083 -0.310366,0.083 z m -1.7056552,-0.5631 -0.67629,0.3868 0.5384622,-0.6118 c 0.2961542,-0.3366 0.5507194,-0.6403 0.5657,-0.675 0.01498,-0.035 0.077003,0.066 0.1378278,0.225 l 0.1105898,0.2882 -0.6762898,0.3868 z"
         id="path7344" />
      <path
         style="fill:#2f2f2f"
         d="m 8.8228405,1049.9885 -0.6949975,0.7369 -0.2318405,-0.4332 -0.2318407,-0.4332 -0.593366,-0.3069 c -0.3263514,-0.1687 -0.9777098,-0.3692 -1.4474632,-0.4454 -0.4697534,-0.076 -1.0704112,-0.1828 -1.3347953,-0.2369 l -0.4806986,-0.098 -0.3528031,-0.6823 -0.3528031,-0.6822 0.1031036,-1.6066 0.1031034,-1.6066 -0.4003726,-0.4004 -0.4003726,-0.4003 -0.3230774,0 -0.3230773,0 0,-0.189 c 0,-0.104 0.1300718,-0.297 0.2890485,-0.4289 l 0.2890485,-0.2399 0.113774,0.1137 0.1137739,0.1138 1.0040103,-0.9758 1.0040105,-0.9758 -0.2222161,0.4153 c -0.1222186,0.2283 -0.2222158,0.4605 -0.2222158,0.516 0,0.055 0.3052327,0.2071 0.6782951,0.3372 0.3730623,0.13 0.9923256,0.2365 1.3761406,0.2365 l 0.6978455,0 0.4819522,-0.3903 0.4819519,-0.3903 0.1632947,-0.8482 0.1632949,-0.8482 0.024769,0.7993 0.024769,0.7993 0.471383,0.4392 0.4713832,0.4392 0.8747725,-0.01 0.874773,-0.01 0.538462,-0.2989 0.538462,-0.2988 0.68563,0.5218 c 0.377097,0.2871 0.746279,0.5219 0.820405,0.5219 l 0.134774,0 -0.153682,-0.2486 -0.153683,-0.2487 0.262994,0.1625 0.262993,0.1626 -0.112863,0.1128 -0.112863,0.1129 0.475457,0.3929 0.475457,0.3928 -0.464703,-0.1164 -0.464703,-0.1164 -0.458901,0.4589 -0.458901,0.4589 0.169757,0.7994 c 0.09337,0.4397 0.1688,1.2691 0.167631,1.8431 l -0.0021,1.0435 -0.57048,0.4907 -0.57048,0.4907 -1.253099,0.1566 -1.2530987,0.1566 -0.6949976,0.7369 z m -0.5633906,0.063 c 0.024231,0.01 0.2786003,-0.2161 0.5652658,-0.5028 l 0.5212096,-0.5212 1.0501207,-0.1405 c 0.577567,-0.077 1.308345,-0.2388 1.623953,-0.3589 l 0.573831,-0.2182 0.258763,-0.6247 0.258763,-0.6247 -0.145791,-0.9722 -0.14579,-0.9722 -4.7252708,0 -4.7252704,0 0.00317,1.1307 0.00317,1.1308 0.2687885,0.5312 0.2687887,0.5312 0.6434221,0.1591 c 0.3538819,0.087 0.9960524,0.2142 1.4270453,0.2817 l 0.7836235,0.1227 0.7240708,0.5147 c 0.3982389,0.2832 0.7438959,0.5231 0.7681267,0.5333 z m -0.198969,-5.3662 4.4758621,0 0.299799,-0.7 c 0.16489,-0.385 0.336273,-0.7627 0.380853,-0.8394 l 0.08105,-0.1393 -0.672225,-0.4787 -0.672225,-0.4787 -0.837132,0.3775 -0.837131,0.3775 -0.6947602,-0.1389 -0.6947604,-0.139 -0.3638686,-0.3293 -0.3638687,-0.3293 -0.7845013,0.4629 -0.7845014,0.4629 -0.6965345,-0.1322 c -0.3830939,-0.073 -0.9546334,-0.2669 -1.2700879,-0.4316 l -0.5735536,-0.2994 -0.7022755,0.5863 -0.7022755,0.5863 0.4681357,0.4681 0.4681356,0.4681 0,0.3231 0,0.3231 4.4758622,0 z m -5.2297093,-2.5846 c -0.1776925,0.1474 -0.3230773,0.2196 -0.3230773,0.1604 0,-0.059 0.1453848,-0.2283 0.3230773,-0.3758 0.1776925,-0.1475 0.3230773,-0.2197 0.3230773,-0.1605 0,0.059 -0.1453848,0.2284 -0.3230773,0.3759 z m 10.3638974,-0.2154 c -0.05923,0 -0.167594,-0.097 -0.240807,-0.2154 -0.07321,-0.1185 -0.08465,-0.2154 -0.02542,-0.2154 0.05923,0 0.167594,0.097 0.240808,0.2154 0.07321,0.1185 0.08465,0.2154 0.02542,0.2154 z m -1.317732,-0.4308 c -0.05923,0 -0.107692,-0.048 -0.107692,-0.1077 0,-0.059 0.04846,-0.1077 0.107692,-0.1077 0.05923,0 0.107693,0.049 0.107693,0.1077 0,0.059 -0.04846,0.1077 -0.107693,0.1077 z m -8.2923183,-0.3231 c -0.1184617,0.073 -0.2153849,0.085 -0.2153849,0.025 0,-0.059 0.096923,-0.1676 0.2153849,-0.2408 0.1184617,-0.073 0.2153849,-0.085 0.2153849,-0.025 0,0.059 -0.096923,0.1676 -0.2153849,0.2408 z m 8.1023563,-0.1077 c -0.05923,0 -0.167594,-0.097 -0.240808,-0.2153 -0.07321,-0.1185 -0.08465,-0.2154 -0.02542,-0.2154 0.05923,0 0.167594,0.097 0.240807,0.2154 0.07321,0.1184 0.08465,0.2153 0.02542,0.2153 z m 0.902674,0 c -0.03661,0 -0.308865,-0.203 -0.605019,-0.4453 l -0.538463,-0.4404 0.472621,0.231 c 0.259941,0.127 0.5322,0.3274 0.60502,0.4452 0.07282,0.1178 0.102448,0.2121 0.06584,0.2095 z m -8.466568,-0.426 c -0.059231,0 -0.1076925,-0.049 -0.1076925,-0.1077 0,-0.059 0.048462,-0.1077 0.1076925,-0.1077 0.059231,0 0.1076924,0.048 0.1076924,0.1077 0,0.059 -0.048462,0.1077 -0.1076924,0.1077 z m 0.8176443,-0.1931 -0.2305622,0.2306 -0.1355156,-0.2193 -0.1355159,-0.2192 0.233228,-0.1442 0.233228,-0.1441 0.1328499,0.1328 0.13285,0.1329 -0.2305622,0.2305 z m -0.1714897,-0.022 c 0.059231,0 0.1076925,-0.049 0.1076925,-0.1077 0,-0.059 -0.048462,-0.1077 -0.1076925,-0.1077 -0.059231,0 -0.1076924,0.049 -0.1076924,0.1077 0,0.059 0.048462,0.1077 0.1076924,0.1077 z m 6.4742584,0 c -0.05224,0 -0.154883,-0.097 -0.228096,-0.2154 l -0.133116,-0.2154 0.228097,0 0.228096,0 0,0.2154 c 0,0.1185 -0.04274,0.2154 -0.09498,0.2154 z m -0.856302,-0.2324 -0.4128213,0.017 0.1301283,-0.1301 0.130128,-0.1302 0.282693,0.1132 0.282693,0.1131 -0.412821,0.017 z m -3.5717999,-0.1984 -0.2871798,0 0.1435898,-0.1436 0.14359,-0.1436 0.14359,0.1436 0.1435898,0.1436 -0.2871798,0 z m 2.5973301,0 c -0.1114705,0 -0.2618893,-0.096 -0.334264,-0.2129 l -0.1315904,-0.2129 0.334264,0.1283 c 0.1838452,0.071 0.334264,0.1663 0.334264,0.2129 0,0.046 -0.091203,0.085 -0.2026736,0.085 z m -1.6887127,-0.5557 -0.58554,0.4134 0.5384622,-0.6288 c 0.2961542,-0.3459 0.562693,-0.6693 0.5923085,-0.7186 0.029615,-0.049 0.0508,0.047 0.047078,0.2154 l -0.00677,0.3051 -0.58554,0.4135 z"
         id="path7342" />
      <path
         style="fill:#1a1a1a"
         d="m 8.8418312,1049.9683 -0.6760068,0.7168 -0.4357361,-0.5894 -0.4357362,-0.5893 -0.8567774,-0.2567 c -0.4712274,-0.1412 -1.1519167,-0.2567 -1.5126429,-0.2567 l -0.6558658,0 -0.5576084,-0.6627 -0.5576087,-0.6627 0.012157,-0.4681 0.012157,-0.4681 0.2570744,0.7466 0.2570744,0.7466 0.5384622,0.269 c 0.2961542,0.148 1.0029374,0.3274 1.5706291,0.3988 l 1.0321666,0.1297 0.7434107,0.6527 0.7434106,0.6527 0.1351411,-0.3521 0.1351411,-0.3522 0.5705531,-0.295 c 0.3138044,-0.1623 1.1501368,-0.4005 1.8585178,-0.5293 l 1.287964,-0.2341 0.376923,-0.4559 0.376924,-0.4559 0,0.2236 c 0,0.123 -0.240968,0.4131 -0.535486,0.6448 l -0.535486,0.4212 -1.236372,0.1545 -1.2363725,0.1545 -0.6760068,0.7167 z m 4.3689828,-2.9717 -0.09929,0.381 -0.008,-0.6462 -0.008,-0.6461 0.107271,0.2651 c 0.059,0.1458 0.06259,0.4366 0.008,0.6462 z m -9.9049608,-1.3959 -0.093341,0.4846 -0.00786,-0.4308 c -0.00432,-0.2369 0.069738,-0.6731 0.1645833,-0.9692 l 0.1724458,-0.5385 0.02147,0.2651 0.02147,0.265 4.6846215,0.058 4.6846222,0.058 0.03977,0.5384 0.03977,0.5385 -0.109409,-0.3769 -0.109409,-0.3769 -4.7076945,0 -4.7076946,0 -0.093341,0.4846 z m 0.057398,-1.588 c -0.05594,-0.014 -0.4061099,-0.1909 -0.7781549,-0.3919 l -0.6764454,-0.3656 0.2050671,-0.3664 0.2050669,-0.3664 0.1710101,0.1057 0.17101,0.1057 0.8922011,-0.7637 0.8922014,-0.7637 -0.1204105,0.3138 -0.1204103,0.3137 0.6914887,0.2411 c 0.3803186,0.1326 1.0258317,0.2411 1.4344731,0.2411 l 0.7429846,0 0.6005967,-0.643 0.6005966,-0.6429 0.1125615,0.4304 0.1125614,0.4304 0.7478183,0.3125 0.7478183,0.3125 0.7111751,-0.204 c 0.391147,-0.1122 0.751262,-0.1639 0.800256,-0.1149 0.04899,0.049 -0.321294,0.212 -0.822864,0.3623 l -0.9119447,0.2732 -0.8270687,-0.453 -0.8270688,-0.453 -0.8127279,0.4149 -0.8127278,0.4149 -0.6461547,-0.1384 c -0.3553851,-0.076 -0.9027224,-0.2695 -1.2163052,-0.4297 l -0.5701505,-0.2912 -0.76245,0.606 -0.7624502,0.6059 0.4650781,0.4651 c 0.2557931,0.2557 0.4193088,0.4532 0.3633686,0.4386 z m 10.0197178,-0.3154 -0.5368,0.3518 0,-0.2271 0,-0.2272 0.323078,-0.1239 c 0.177692,-0.068 0.322415,-0.1863 0.321605,-0.2625 -8.18e-4,-0.076 -0.340041,-0.3691 -0.753847,-0.6509 -0.413807,-0.2818 -0.752375,-0.6049 -0.752375,-0.7181 l 0,-0.2057 0.838688,0.6643 c 0.461278,0.3653 0.934027,0.6642 1.050552,0.6642 0.116525,0 0.334363,0.1476 0.484086,0.328 l 0.272222,0.328 -0.355205,-0.1363 -0.355205,-0.1363 -0.536799,0.3517 z m 0.217047,-1.1659 c -0.05923,0 -0.107692,-0.048 -0.107692,-0.1077 0,-0.059 0.04846,-0.1076 0.107692,-0.1076 0.05923,0 0.107693,0.048 0.107693,0.1076 0,0.059 -0.04846,0.1077 -0.107693,0.1077 z M 2.938464,1041.993 c -0.1184616,0.073 -0.2153848,0.085 -0.2153848,0.025 0,-0.059 0.096923,-0.1676 0.2153848,-0.2408 0.1184617,-0.073 0.2153849,-0.085 0.2153849,-0.025 0,0.059 -0.096923,0.1676 -0.2153849,0.2408 z m 10.015398,-0.3231 c -0.05923,0 -0.107693,-0.049 -0.107693,-0.1077 0,-0.059 0.04846,-0.1077 0.107693,-0.1077 0.05923,0 0.107692,0.048 0.107692,0.1077 0,0.059 -0.04846,0.1077 -0.107692,0.1077 z m -9.2615508,-0.6462 c -0.059231,0 -0.1076925,-0.048 -0.1076925,-0.1076 0,-0.059 0.048462,-0.1077 0.1076925,-0.1077 0.059231,0 0.1076924,0.048 0.1076924,0.1077 0,0.059 -0.048462,0.1076 -0.1076924,0.1076 z m 0.8615396,0 c -0.059231,0 -0.1076925,-0.048 -0.1076925,-0.1076 0,-0.059 0.048462,-0.1077 0.1076925,-0.1077 0.059231,0 0.1076924,0.048 0.1076924,0.1077 0,0.059 -0.048462,0.1076 -0.1076924,0.1076 z m 7.7538562,-0.2153 c -0.05923,0 -0.107693,-0.048 -0.107693,-0.1077 0,-0.059 0.04846,-0.1077 0.107693,-0.1077 0.05923,0 0.107692,0.048 0.107692,0.1077 0,0.059 -0.04846,0.1077 -0.107692,0.1077 z m -8.184626,-0.2154 c -0.059231,0 -0.1076925,-0.049 -0.1076925,-0.1077 0,-0.059 0.048462,-0.1077 0.1076925,-0.1077 0.059231,0 0.1076924,0.048 0.1076924,0.1077 0,0.059 -0.048462,0.1077 -0.1076924,0.1077 z m 7.779279,0 c -0.05923,0 -0.167594,-0.097 -0.240808,-0.2154 -0.07321,-0.1185 -0.08465,-0.2154 -0.02542,-0.2154 0.05923,0 0.167594,0.097 0.240807,0.2154 0.07321,0.1184 0.08465,0.2154 0.02542,0.2154 z m -7.3485092,-0.2154 c -0.059231,0 -0.1076925,-0.049 -0.1076925,-0.1077 0,-0.059 0.048462,-0.1077 0.1076925,-0.1077 0.059231,0 0.1076924,0.049 0.1076924,0.1077 0,0.059 -0.048462,0.1077 -0.1076924,0.1077 z m 0.4307697,-0.2154 c -0.059231,0 -0.1076924,-0.048 -0.1076924,-0.1077 0,-0.059 0.048462,-0.1077 0.1076924,-0.1077 0.059231,0 0.1076925,0.049 0.1076925,0.1077 0,0.059 -0.048462,0.1077 -0.1076925,0.1077 z m 5.4025715,-0.017 -0.4128213,0.017 0.1301283,-0.1301 0.130128,-0.1302 0.282693,0.1132 0.282693,0.1131 -0.412821,0.017 z m 0.84359,0.017 c -0.05923,0 -0.107692,-0.048 -0.107692,-0.1077 0,-0.059 0.04846,-0.1077 0.107692,-0.1077 0.05923,0 0.107693,0.049 0.107693,0.1077 0,0.059 -0.04846,0.1077 -0.107693,0.1077 z m -4.3076974,-0.2154 c -0.059231,0 -0.1076925,-0.048 -0.1076925,-0.1077 0,-0.059 0.048462,-0.1077 0.1076925,-0.1077 0.059231,0 0.1076924,0.049 0.1076924,0.1077 0,0.059 -0.048462,0.1077 -0.1076924,0.1077 z m 2.4769263,0 -0.2871798,0 0.1435898,-0.1436 0.14359,-0.1436 0.14359,0.1436 0.1435898,0.1436 -0.2871798,0 z m -2.1212457,-0.2154 c -0.059231,0 0.1199442,-0.2423 0.3981665,-0.5384 0.2782224,-0.2962 0.5543206,-0.5385 0.6135515,-0.5385 0.059231,0 -0.1199442,0.2423 -0.3981666,0.5385 -0.2782224,0.2961 -0.5543206,0.5384 -0.6135514,0.5384 z"
         id="path7340" />
      <path
         style="fill:#050505"
         d="m 8.1923501,1050.7161 c -0.046557,0 -0.084649,-0.091 -0.084649,-0.2027 0,-0.1115 0.095813,-0.2619 0.2129179,-0.3343 l 0.2129176,-0.1316 -0.128269,0.3343 c -0.070548,0.1838 -0.1663611,0.3343 -0.2129179,0.3343 z m -0.4077259,-0.6462 c -0.059231,0 -0.1076925,-0.048 -0.1076925,-0.1077 0,-0.059 0.048462,-0.1077 0.1076925,-0.1077 0.059231,0 0.1076924,0.049 0.1076924,0.1077 0,0.059 -0.048462,0.1077 -0.1076924,0.1077 z m -0.4053471,-0.4308 c -0.059231,0 -0.1675942,-0.097 -0.2408076,-0.2153 -0.073213,-0.1185 -0.084654,-0.2154 -0.025423,-0.2154 0.059231,0 0.1675943,0.097 0.2408077,0.2154 0.073213,0.1184 0.084654,0.2153 0.025423,0.2153 z m 1.9130413,-0.2153 c -0.059231,0 -0.1076924,-0.049 -0.1076924,-0.1077 0,-0.059 0.048462,-0.1077 0.1076924,-0.1077 0.059231,0 0.1076925,0.048 0.1076925,0.1077 0,0.059 -0.048462,0.1077 -0.1076925,0.1077 z m -2.8000036,-0.2154 c -0.059231,0 -0.1076925,-0.048 -0.1076925,-0.1077 0,-0.059 0.048462,-0.1077 0.1076925,-0.1077 0.059231,0 0.1076924,0.048 0.1076924,0.1077 0,0.059 -0.048462,0.1077 -0.1076924,0.1077 z m 3.3384659,0 -0.2871798,0 0.1435898,-0.1436 0.14359,-0.1436 0.14359,0.1436 0.1435893,0.1436 -0.2871793,0 z m -4.6470769,-0.253 -0.8778412,0.038 -0.4683144,-0.4985 c -0.257573,-0.2742 -0.4683144,-0.578 -0.4683144,-0.6752 0,-0.097 0.1966036,0.073 0.4368967,0.3787 l 0.4368964,0.5554 0.9092591,0.082 0.909259,0.082 -0.8778412,0.038 z m 5.9393862,-0.012 -0.753847,0 0.376923,-0.099 c 0.207308,-0.054 0.54654,-0.054 0.753848,0 l 0.376923,0.099 -0.753847,0 z m 1.014654,-0.1654 c -0.1237,0 -0.184525,-0.027 -0.135166,-0.061 0.04936,-0.034 0.28359,-0.2032 0.520514,-0.377 l 0.43077,-0.3159 -0.295604,0.3769 c -0.162582,0.2073 -0.396813,0.3769 -0.520514,0.3769 z m 0.816118,-0.8615 c -0.05923,0 -0.107693,-0.048 -0.107693,-0.1077 0,-0.059 0.04846,-0.1077 0.107693,-0.1077 0.05923,0 0.107692,0.048 0.107692,0.1077 0,0.059 -0.04846,0.1077 -0.107692,0.1077 z m -9.6564231,-0.5026 -0.14359,0.1436 0,-0.2872 0,-0.2872 0.14359,0.1436 0.1435898,0.1436 -0.1435898,0.1436 z m 0,-1.7231 -0.14359,0.1436 0,-0.2872 0,-0.2872 0.14359,0.1436 0.1435898,0.1436 -0.1435898,0.1436 z m 9.6564231,-0.1436 c -0.05923,0 -0.107693,-0.048 -0.107693,-0.1077 0,-0.059 0.04846,-0.1077 0.107693,-0.1077 0.05923,0 0.107692,0.048 0.107692,0.1077 0,0.059 -0.04846,0.1077 -0.107692,0.1077 z m -9.4410382,-0.5025 -0.14359,0.1436 0,-0.2872 0,-0.2872 0.14359,0.1436 0.1435898,0.1436 -0.1435898,0.1436 z m 9.2615502,0 -0.14359,0.1436 0,-0.2872 0,-0.2872 0.14359,0.1436 0.14359,0.1436 -0.14359,0.1436 z m -9.4051402,-1.0387 c -0.059231,-0.011 -0.4401646,-0.1976 -0.8465196,-0.4155 l -0.7388272,-0.3962 0.3606665,-0.1384 0.3606666,-0.1384 -0.1397342,-0.2261 -0.1397341,-0.2261 0.2233479,0.138 0.223348,0.1381 0.6176242,-0.45 0.6176242,-0.45 -0.7131274,0.677 -0.7131275,0.677 0.4977425,0.4149 c 0.2737584,0.2282 0.449281,0.4062 0.3900501,0.3957 z m 9.5846282,0.034 c -0.05923,0 -0.107693,-0.048 -0.107693,-0.1077 0,-0.059 0.04846,-0.1077 0.107693,-0.1077 0.05923,0 0.107692,0.049 0.107692,0.1077 0,0.059 -0.04846,0.1077 -0.107692,0.1077 z m 0.878693,-0.5967 -0.516289,0.099 0.08316,-0.2356 0.08316,-0.2356 -0.743051,-0.5385 c -0.408678,-0.2961 -0.745719,-0.6176 -0.74898,-0.7144 -0.0033,-0.097 0.414929,0.1689 0.929312,0.5904 l 0.935242,0.7664 0.120115,-0.1201 0.120115,-0.1202 0.12675,0.2051 0.12675,0.2051 -0.516288,0.099 z m -7.6094713,-0.715 c -0.088846,-0.011 -0.4871677,-0.1131 -0.8851585,-0.2277 -0.397991,-0.1145 -0.6833107,-0.2485 -0.6340438,-0.2978 0.049267,-0.049 0.4475881,0.01 0.8851585,0.1301 0.4375703,0.1208 0.7955824,0.2636 0.7955824,0.3173 0,0.054 -0.072692,0.089 -0.1615386,0.078 z m 3.8230823,-0.013 c -0.177693,0 -0.4684626,-0.055 -0.6461551,-0.12 -0.1776926,-0.065 -0.5324433,-0.3083 -0.788335,-0.5408 l -0.4652577,-0.4227 -0.4501281,0.4501 -0.4501282,0.4501 -0.3769235,-0.014 -0.3769236,-0.014 0.4307698,-0.1763 c 0.2369234,-0.097 0.6100891,-0.3757 0.8292572,-0.6194 l 0.3984875,-0.4432 0.4983615,0.5793 0.4983612,0.5792 1.041615,-0.022 1.041615,-0.022 -0.430769,0.1682 c -0.236924,0.092 -0.576155,0.1674 -0.753847,0.1664 z m 1.400001,-0.3986 c -0.05923,0 -0.107692,-0.049 -0.107692,-0.1077 0,-0.059 0.04846,-0.1077 0.107692,-0.1077 0.05923,0 0.107693,0.048 0.107693,0.1077 0,0.059 -0.04846,0.1077 -0.107693,0.1077 z m -7.0822784,-0.2154 c -0.059231,0 -0.1675942,-0.097 -0.2408076,-0.2154 -0.073213,-0.1185 -0.084654,-0.2154 -0.025423,-0.2154 0.059231,0 0.1675942,0.097 0.2408077,0.2154 0.073213,0.1184 0.084653,0.2154 0.025423,0.2154 z m -1.3177321,-0.2154 c -0.059231,0 -0.1076925,-0.048 -0.1076925,-0.1077 0,-0.059 0.048462,-0.1077 0.1076925,-0.1077 0.059231,0 0.1076924,0.048 0.1076924,0.1077 0,0.059 -0.048462,0.1077 -0.1076924,0.1077 z m 0.6461547,-0.8616 c -0.059231,0 -0.1076925,-0.048 -0.1076925,-0.1076 0,-0.059 0.048462,-0.1077 0.1076925,-0.1077 0.059231,0 0.1076924,0.048 0.1076924,0.1077 0,0.059 -0.048462,0.1076 -0.1076924,0.1076 z m 8.6153958,-0.2153 c -0.05923,0 -0.107693,-0.048 -0.107693,-0.1077 0,-0.059 0.04846,-0.1077 0.107693,-0.1077 0.05923,0 0.107692,0.048 0.107692,0.1077 0,0.059 -0.04846,0.1077 -0.107692,0.1077 z m -8.184626,-0.2154 c -0.059231,0 -0.1076925,-0.049 -0.1076925,-0.1077 0,-0.059 0.048462,-0.1077 0.1076925,-0.1077 0.059231,0 0.1076924,0.048 0.1076924,0.1077 0,0.059 -0.048462,0.1077 -0.1076924,0.1077 z m 7.779279,0 c -0.05923,0 -0.167594,-0.097 -0.240808,-0.2154 -0.07321,-0.1185 -0.08465,-0.2154 -0.02542,-0.2154 0.05923,0 0.167594,0.097 0.240807,0.2154 0.07321,0.1184 0.08465,0.2154 0.02542,0.2154 z m -7.3485092,-0.2154 c -0.059231,0 -0.1076925,-0.049 -0.1076925,-0.1077 0,-0.059 0.048462,-0.1077 0.1076925,-0.1077 0.059231,0 0.1076924,0.049 0.1076924,0.1077 0,0.059 -0.048462,0.1077 -0.1076924,0.1077 z m 0.4307697,-0.2154 c -0.059231,0 -0.1076924,-0.048 -0.1076924,-0.1077 0,-0.059 0.048462,-0.1077 0.1076924,-0.1077 0.059231,0 0.1076925,0.049 0.1076925,0.1077 0,0.059 -0.048462,0.1077 -0.1076925,0.1077 z m 5.4025715,-0.017 -0.4128213,0.017 0.1301283,-0.1301 0.130128,-0.1302 0.282693,0.1132 0.282693,0.1131 -0.412821,0.017 z m 0.84359,0.017 c -0.05923,0 -0.107692,-0.048 -0.107692,-0.1077 0,-0.059 0.04846,-0.1077 0.107692,-0.1077 0.05923,0 0.107693,0.049 0.107693,0.1077 0,0.059 -0.04846,0.1077 -0.107693,0.1077 z m -4.3076974,-0.2154 c -0.059231,0 -0.1076925,-0.048 -0.1076925,-0.1077 0,-0.059 0.048462,-0.1077 0.1076925,-0.1077 0.059231,0 0.1076924,0.049 0.1076924,0.1077 0,0.059 -0.048462,0.1077 -0.1076924,0.1077 z m 2.3692338,0 c -0.059231,0 -0.1076924,-0.048 -0.1076924,-0.1077 0,-0.059 0.048462,-0.1077 0.1076924,-0.1077 0.059231,0 0.1076925,0.049 0.1076925,0.1077 0,0.059 -0.048462,0.1077 -0.1076925,0.1077 z m -1.938464,-0.2154 c -0.059231,0 -0.1076925,-0.048 -0.1076925,-0.1077 0,-0.059 0.048462,-0.1077 0.1076925,-0.1077 0.059231,0 0.1076924,0.048 0.1076924,0.1077 0,0.059 -0.048462,0.1077 -0.1076924,0.1077 z m 0.8615395,-0.8615 c -0.059231,0 -0.1076924,-0.048 -0.1076924,-0.1077 0,-0.059 0.048462,-0.1077 0.1076924,-0.1077 0.059231,0 0.1076925,0.048 0.1076925,0.1077 0,0.059 -0.048462,0.1077 -0.1076925,0.1077 z"
         id="path7338" />
    </g>
  </g>
</svg>
