<?xml version="1.0" encoding="UTF-8" standalone="no"?>
<!-- Created with Inkscape (http://www.inkscape.org/) -->

<svg
   xmlns:dc="http://purl.org/dc/elements/1.1/"
   xmlns:cc="http://creativecommons.org/ns#"
   xmlns:rdf="http://www.w3.org/1999/02/22-rdf-syntax-ns#"
   xmlns:svg="http://www.w3.org/2000/svg"
   xmlns="http://www.w3.org/2000/svg"
   xmlns:sodipodi="http://sodipodi.sourceforge.net/DTD/sodipodi-0.dtd"
   xmlns:inkscape="http://www.inkscape.org/namespaces/inkscape"
   width="16"
   height="16"
   id="svg2"
   version="1.1"
   inkscape:version="0.47 r22583"
   sodipodi:docname="hospital-64.svg">
  <defs
     id="defs4">
    <inkscape:perspective
       sodipodi:type="inkscape:persp3d"
       inkscape:vp_x="0 : 526.18109 : 1"
       inkscape:vp_y="0 : 1000 : 0"
       inkscape:vp_z="744.09448 : 526.18109 : 1"
       inkscape:persp3d-origin="372.04724 : 350.78739 : 1"
       id="perspective10" />
    <inkscape:perspective
       id="perspective2824"
       inkscape:persp3d-origin="0.5 : 0.33333333 : 1"
       inkscape:vp_z="1 : 0.5 : 1"
       inkscape:vp_y="0 : 1000 : 0"
       inkscape:vp_x="0 : 0.5 : 1"
       sodipodi:type="inkscape:persp3d" />
    <inkscape:perspective
       id="perspective5878"
       inkscape:persp3d-origin="0.5 : 0.33333333 : 1"
       inkscape:vp_z="1 : 0.5 : 1"
       inkscape:vp_y="0 : 1000 : 0"
       inkscape:vp_x="0 : 0.5 : 1"
       sodipodi:type="inkscape:persp3d" />
    <inkscape:perspective
       id="perspective5921"
       inkscape:persp3d-origin="0.5 : 0.33333333 : 1"
       inkscape:vp_z="1 : 0.5 : 1"
       inkscape:vp_y="0 : 1000 : 0"
       inkscape:vp_x="0 : 0.5 : 1"
       sodipodi:type="inkscape:persp3d" />
    <inkscape:perspective
       id="perspective5943"
       inkscape:persp3d-origin="0.5 : 0.33333333 : 1"
       inkscape:vp_z="1 : 0.5 : 1"
       inkscape:vp_y="0 : 1000 : 0"
       inkscape:vp_x="0 : 0.5 : 1"
       sodipodi:type="inkscape:persp3d" />
    <inkscape:perspective
       id="perspective5989"
       inkscape:persp3d-origin="0.5 : 0.33333333 : 1"
       inkscape:vp_z="1 : 0.5 : 1"
       inkscape:vp_y="0 : 1000 : 0"
       inkscape:vp_x="0 : 0.5 : 1"
       sodipodi:type="inkscape:persp3d" />
    <inkscape:perspective
       id="perspective6011"
       inkscape:persp3d-origin="0.5 : 0.33333333 : 1"
       inkscape:vp_z="1 : 0.5 : 1"
       inkscape:vp_y="0 : 1000 : 0"
       inkscape:vp_x="0 : 0.5 : 1"
       sodipodi:type="inkscape:persp3d" />
    <inkscape:perspective
       id="perspective6033"
       inkscape:persp3d-origin="0.5 : 0.33333333 : 1"
       inkscape:vp_z="1 : 0.5 : 1"
       inkscape:vp_y="0 : 1000 : 0"
       inkscape:vp_x="0 : 0.5 : 1"
       sodipodi:type="inkscape:persp3d" />
    <inkscape:perspective
       id="perspective6245"
       inkscape:persp3d-origin="0.5 : 0.33333333 : 1"
       inkscape:vp_z="1 : 0.5 : 1"
       inkscape:vp_y="0 : 1000 : 0"
       inkscape:vp_x="0 : 0.5 : 1"
       sodipodi:type="inkscape:persp3d" />
    <inkscape:perspective
       id="perspective6269"
       inkscape:persp3d-origin="0.5 : 0.33333333 : 1"
       inkscape:vp_z="1 : 0.5 : 1"
       inkscape:vp_y="0 : 1000 : 0"
       inkscape:vp_x="0 : 0.5 : 1"
       sodipodi:type="inkscape:persp3d" />
    <inkscape:perspective
       id="perspective6364"
       inkscape:persp3d-origin="0.5 : 0.33333333 : 1"
       inkscape:vp_z="1 : 0.5 : 1"
       inkscape:vp_y="0 : 1000 : 0"
       inkscape:vp_x="0 : 0.5 : 1"
       sodipodi:type="inkscape:persp3d" />
    <inkscape:perspective
       id="perspective6396"
       inkscape:persp3d-origin="0.5 : 0.33333333 : 1"
       inkscape:vp_z="1 : 0.5 : 1"
       inkscape:vp_y="0 : 1000 : 0"
       inkscape:vp_x="0 : 0.5 : 1"
       sodipodi:type="inkscape:persp3d" />
    <inkscape:perspective
       id="perspective6438"
       inkscape:persp3d-origin="0.5 : 0.33333333 : 1"
       inkscape:vp_z="1 : 0.5 : 1"
       inkscape:vp_y="0 : 1000 : 0"
       inkscape:vp_x="0 : 0.5 : 1"
       sodipodi:type="inkscape:persp3d" />
    <inkscape:perspective
       id="perspective6460"
       inkscape:persp3d-origin="0.5 : 0.33333333 : 1"
       inkscape:vp_z="1 : 0.5 : 1"
       inkscape:vp_y="0 : 1000 : 0"
       inkscape:vp_x="0 : 0.5 : 1"
       sodipodi:type="inkscape:persp3d" />
    <inkscape:perspective
       id="perspective6480"
       inkscape:persp3d-origin="0.5 : 0.33333333 : 1"
       inkscape:vp_z="1 : 0.5 : 1"
       inkscape:vp_y="0 : 1000 : 0"
       inkscape:vp_x="0 : 0.5 : 1"
       sodipodi:type="inkscape:persp3d" />
    <inkscape:perspective
       id="perspective6504"
       inkscape:persp3d-origin="0.5 : 0.33333333 : 1"
       inkscape:vp_z="1 : 0.5 : 1"
       inkscape:vp_y="0 : 1000 : 0"
       inkscape:vp_x="0 : 0.5 : 1"
       sodipodi:type="inkscape:persp3d" />
    <inkscape:perspective
       id="perspective6524"
       inkscape:persp3d-origin="0.5 : 0.33333333 : 1"
       inkscape:vp_z="1 : 0.5 : 1"
       inkscape:vp_y="0 : 1000 : 0"
       inkscape:vp_x="0 : 0.5 : 1"
       sodipodi:type="inkscape:persp3d" />
    <inkscape:perspective
       id="perspective6548"
       inkscape:persp3d-origin="0.5 : 0.33333333 : 1"
       inkscape:vp_z="1 : 0.5 : 1"
       inkscape:vp_y="0 : 1000 : 0"
       inkscape:vp_x="0 : 0.5 : 1"
       sodipodi:type="inkscape:persp3d" />
    <inkscape:perspective
       id="perspective6572"
       inkscape:persp3d-origin="0.5 : 0.33333333 : 1"
       inkscape:vp_z="1 : 0.5 : 1"
       inkscape:vp_y="0 : 1000 : 0"
       inkscape:vp_x="0 : 0.5 : 1"
       sodipodi:type="inkscape:persp3d" />
    <inkscape:perspective
       id="perspective6594"
       inkscape:persp3d-origin="0.5 : 0.33333333 : 1"
       inkscape:vp_z="1 : 0.5 : 1"
       inkscape:vp_y="0 : 1000 : 0"
       inkscape:vp_x="0 : 0.5 : 1"
       sodipodi:type="inkscape:persp3d" />
    <inkscape:perspective
       id="perspective6614"
       inkscape:persp3d-origin="0.5 : 0.33333333 : 1"
       inkscape:vp_z="1 : 0.5 : 1"
       inkscape:vp_y="0 : 1000 : 0"
       inkscape:vp_x="0 : 0.5 : 1"
       sodipodi:type="inkscape:persp3d" />
    <inkscape:perspective
       id="perspective6650"
       inkscape:persp3d-origin="0.5 : 0.33333333 : 1"
       inkscape:vp_z="1 : 0.5 : 1"
       inkscape:vp_y="0 : 1000 : 0"
       inkscape:vp_x="0 : 0.5 : 1"
       sodipodi:type="inkscape:persp3d" />
    <inkscape:perspective
       id="perspective6676"
       inkscape:persp3d-origin="0.5 : 0.33333333 : 1"
       inkscape:vp_z="1 : 0.5 : 1"
       inkscape:vp_y="0 : 1000 : 0"
       inkscape:vp_x="0 : 0.5 : 1"
       sodipodi:type="inkscape:persp3d" />
    <inkscape:perspective
       id="perspective6710"
       inkscape:persp3d-origin="0.5 : 0.33333333 : 1"
       inkscape:vp_z="1 : 0.5 : 1"
       inkscape:vp_y="0 : 1000 : 0"
       inkscape:vp_x="0 : 0.5 : 1"
       sodipodi:type="inkscape:persp3d" />
    <inkscape:perspective
       id="perspective6748"
       inkscape:persp3d-origin="0.5 : 0.33333333 : 1"
       inkscape:vp_z="1 : 0.5 : 1"
       inkscape:vp_y="0 : 1000 : 0"
       inkscape:vp_x="0 : 0.5 : 1"
       sodipodi:type="inkscape:persp3d" />
    <inkscape:perspective
       id="perspective6786"
       inkscape:persp3d-origin="0.5 : 0.33333333 : 1"
       inkscape:vp_z="1 : 0.5 : 1"
       inkscape:vp_y="0 : 1000 : 0"
       inkscape:vp_x="0 : 0.5 : 1"
       sodipodi:type="inkscape:persp3d" />
    <inkscape:perspective
       id="perspective6810"
       inkscape:persp3d-origin="0.5 : 0.33333333 : 1"
       inkscape:vp_z="1 : 0.5 : 1"
       inkscape:vp_y="0 : 1000 : 0"
       inkscape:vp_x="0 : 0.5 : 1"
       sodipodi:type="inkscape:persp3d" />
    <inkscape:perspective
       id="perspective6848"
       inkscape:persp3d-origin="0.5 : 0.33333333 : 1"
       inkscape:vp_z="1 : 0.5 : 1"
       inkscape:vp_y="0 : 1000 : 0"
       inkscape:vp_x="0 : 0.5 : 1"
       sodipodi:type="inkscape:persp3d" />
    <inkscape:perspective
       id="perspective6870"
       inkscape:persp3d-origin="0.5 : 0.33333333 : 1"
       inkscape:vp_z="1 : 0.5 : 1"
       inkscape:vp_y="0 : 1000 : 0"
       inkscape:vp_x="0 : 0.5 : 1"
       sodipodi:type="inkscape:persp3d" />
    <inkscape:perspective
       id="perspective6908"
       inkscape:persp3d-origin="0.5 : 0.33333333 : 1"
       inkscape:vp_z="1 : 0.5 : 1"
       inkscape:vp_y="0 : 1000 : 0"
       inkscape:vp_x="0 : 0.5 : 1"
       sodipodi:type="inkscape:persp3d" />
    <inkscape:perspective
       id="perspective6946"
       inkscape:persp3d-origin="0.5 : 0.33333333 : 1"
       inkscape:vp_z="1 : 0.5 : 1"
       inkscape:vp_y="0 : 1000 : 0"
       inkscape:vp_x="0 : 0.5 : 1"
       sodipodi:type="inkscape:persp3d" />
    <inkscape:perspective
       id="perspective6970"
       inkscape:persp3d-origin="0.5 : 0.33333333 : 1"
       inkscape:vp_z="1 : 0.5 : 1"
       inkscape:vp_y="0 : 1000 : 0"
       inkscape:vp_x="0 : 0.5 : 1"
       sodipodi:type="inkscape:persp3d" />
    <inkscape:perspective
       id="perspective7008"
       inkscape:persp3d-origin="0.5 : 0.33333333 : 1"
       inkscape:vp_z="1 : 0.5 : 1"
       inkscape:vp_y="0 : 1000 : 0"
       inkscape:vp_x="0 : 0.5 : 1"
       sodipodi:type="inkscape:persp3d" />
    <inkscape:perspective
       id="perspective7036"
       inkscape:persp3d-origin="0.5 : 0.33333333 : 1"
       inkscape:vp_z="1 : 0.5 : 1"
       inkscape:vp_y="0 : 1000 : 0"
       inkscape:vp_x="0 : 0.5 : 1"
       sodipodi:type="inkscape:persp3d" />
    <inkscape:perspective
       id="perspective7060"
       inkscape:persp3d-origin="0.5 : 0.33333333 : 1"
       inkscape:vp_z="1 : 0.5 : 1"
       inkscape:vp_y="0 : 1000 : 0"
       inkscape:vp_x="0 : 0.5 : 1"
       sodipodi:type="inkscape:persp3d" />
    <inkscape:perspective
       id="perspective7098"
       inkscape:persp3d-origin="0.5 : 0.33333333 : 1"
       inkscape:vp_z="1 : 0.5 : 1"
       inkscape:vp_y="0 : 1000 : 0"
       inkscape:vp_x="0 : 0.5 : 1"
       sodipodi:type="inkscape:persp3d" />
    <inkscape:perspective
       id="perspective7136"
       inkscape:persp3d-origin="0.5 : 0.33333333 : 1"
       inkscape:vp_z="1 : 0.5 : 1"
       inkscape:vp_y="0 : 1000 : 0"
       inkscape:vp_x="0 : 0.5 : 1"
       sodipodi:type="inkscape:persp3d" />
    <inkscape:perspective
       id="perspective7174"
       inkscape:persp3d-origin="0.5 : 0.33333333 : 1"
       inkscape:vp_z="1 : 0.5 : 1"
       inkscape:vp_y="0 : 1000 : 0"
       inkscape:vp_x="0 : 0.5 : 1"
       sodipodi:type="inkscape:persp3d" />
    <inkscape:perspective
       id="perspective7212"
       inkscape:persp3d-origin="0.5 : 0.33333333 : 1"
       inkscape:vp_z="1 : 0.5 : 1"
       inkscape:vp_y="0 : 1000 : 0"
       inkscape:vp_x="0 : 0.5 : 1"
       sodipodi:type="inkscape:persp3d" />
    <inkscape:perspective
       id="perspective7234"
       inkscape:persp3d-origin="0.5 : 0.33333333 : 1"
       inkscape:vp_z="1 : 0.5 : 1"
       inkscape:vp_y="0 : 1000 : 0"
       inkscape:vp_x="0 : 0.5 : 1"
       sodipodi:type="inkscape:persp3d" />
    <inkscape:perspective
       id="perspective7272"
       inkscape:persp3d-origin="0.5 : 0.33333333 : 1"
       inkscape:vp_z="1 : 0.5 : 1"
       inkscape:vp_y="0 : 1000 : 0"
       inkscape:vp_x="0 : 0.5 : 1"
       sodipodi:type="inkscape:persp3d" />
    <inkscape:perspective
       id="perspective7294"
       inkscape:persp3d-origin="0.5 : 0.33333333 : 1"
       inkscape:vp_z="1 : 0.5 : 1"
       inkscape:vp_y="0 : 1000 : 0"
       inkscape:vp_x="0 : 0.5 : 1"
       sodipodi:type="inkscape:persp3d" />
    <inkscape:perspective
       id="perspective7330"
       inkscape:persp3d-origin="0.5 : 0.33333333 : 1"
       inkscape:vp_z="1 : 0.5 : 1"
       inkscape:vp_y="0 : 1000 : 0"
       inkscape:vp_x="0 : 0.5 : 1"
       sodipodi:type="inkscape:persp3d" />
    <inkscape:perspective
       id="perspective3068"
       inkscape:persp3d-origin="0.5 : 0.33333333 : 1"
       inkscape:vp_z="1 : 0.5 : 1"
       inkscape:vp_y="0 : 1000 : 0"
       inkscape:vp_x="0 : 0.5 : 1"
       sodipodi:type="inkscape:persp3d" />
  </defs>
  <sodipodi:namedview
     id="base"
     pagecolor="#ffffff"
     bordercolor="#666666"
     borderopacity="1.0"
     inkscape:pageopacity="0.0"
     inkscape:pageshadow="2"
     inkscape:zoom="8.671875"
     inkscape:cx="7.0898093"
     inkscape:cy="8.1167604"
     inkscape:document-units="px"
     inkscape:current-layer="layer1"
     showgrid="true"
     inkscape:window-width="1280"
     inkscape:window-height="780"
     inkscape:window-x="-8"
     inkscape:window-y="-8"
     inkscape:window-maximized="1">
    <inkscape:grid
       type="xygrid"
       id="grid6324"
       empspacing="5"
       visible="true"
       enabled="true"
       snapvisiblegridlinesonly="true" />
  </sodipodi:namedview>
  <metadata
     id="metadata7">
    <rdf:RDF>
      <cc:Work
         rdf:about="">
        <dc:format>image/svg+xml</dc:format>
        <dc:type
           rdf:resource="http://purl.org/dc/dcmitype/StillImage" />
        <dc:title />
      </cc:Work>
    </rdf:RDF>
  </metadata>
  <g
     inkscape:label="Calque 1"
     inkscape:groupmode="layer"
     id="layer1"
     transform="translate(0,-1036.3622)">
    <g
       id="g3074"
       transform="translate(-0.3207907,-0.1794)">
      <path
         style="fill:#fdfdcc"
         d="m 8.3987668,1049.3651 c -1.5918782,0.04 -3.1430357,0.043 -3.4470165,0.01 l -0.5526925,-0.066 -0.3007621,-0.3824 -0.3007621,-0.3824 0,-1.6661 0,-1.6662 0.3858218,-0.5773 c 0.212202,-0.3176 0.5926609,-0.7944 0.8454642,-1.0597 l 0.4596426,-0.4824 0.2677373,0 0.2677373,0 0,-0.7191 0,-0.7192 0.2714343,-0.2456 0.2714342,-0.2457 1.3664835,0 1.3664836,0 0.365845,0.2397 0.3658446,0.2398 0,0.7992 0,0.7993 0.353796,0 0.353796,0 0.55381,0.613 0.55381,0.613 0.37297,0.8147 0.372969,0.8147 -0.08316,0.8057 -0.08316,0.8057 -0.372514,0.6357 c -0.204883,0.3496 -0.459854,0.7067 -0.566603,0.7936 l -0.194088,0.1579 -2.8943242,0.073 z m -0.4066325,-6.4242 0.948927,0 -0.066362,-0.4522 -0.066362,-0.4522 -0.8355992,0.044 -0.8355992,0.044 -0.046966,0.4082 -0.046966,0.4082 0.9489271,0 z"
         id="path3096" />
      <path
         style="fill:#f2e5a5"
         d="m 8.3987668,1049.3651 c -1.5918782,0.04 -3.1430357,0.043 -3.4470165,0.01 l -0.5526925,-0.066 -0.3007621,-0.3824 -0.3007621,-0.3824 0,-1.6661 0,-1.6662 0.3858218,-0.5773 c 0.212202,-0.3176 0.5926609,-0.7944 0.8454642,-1.0597 l 0.4596426,-0.4824 0.2677373,0 0.2677373,0 0,-0.7191 0,-0.7192 0.2714343,-0.2456 0.2714342,-0.2457 1.3664835,0 1.3664836,0 0.365845,0.2397 0.3658446,0.2398 0,0.7992 0,0.7993 0.353796,0 0.353796,0 0.55381,0.613 0.55381,0.613 0.37297,0.8147 0.372969,0.8147 -0.08316,0.8057 -0.08316,0.8057 -0.372514,0.6357 c -0.204883,0.3496 -0.459854,0.7067 -0.566603,0.7936 l -0.194088,0.1579 -2.8943242,0.073 z m -1.5584822,-0.2134 c 0.8979826,0.012 2.1670324,-0.02 2.8201107,-0.071 l 1.1874147,-0.092 -0.03546,-2.43 -0.03546,-2.43 0.146778,0 0.146779,0 0,0.1731 0,0.1732 0.08728,-0.087 0.08728,-0.087 -0.337836,-0.4569 -0.337837,-0.457 -0.417368,0 -0.4173673,0 0,-0.8371 0,-0.837 -0.259747,-0.1972 -0.2597471,-0.1972 -1.280561,0 -1.2805612,0 -0.1577134,0.19 -0.1577133,0.19 -0.045994,0.8119 -0.045994,0.8118 -0.3927443,0.046 -0.3927444,0.045 -0.2610741,0.2885 -0.2610743,0.2884 2.8431149,0 2.8431155,0 0,0.1485 0,0.1484 -0.9753771,0 -0.9753765,0 -0.2120385,0.212 -0.2120384,0.2121 0,0.2304 0,0.2304 -0.3710672,0.093 -0.3710671,0.093 -0.3710672,-0.093 -0.3710672,-0.093 0,-0.294 0,-0.294 -0.2226403,0 -0.2226404,0 0,-0.1485 0,-0.1484 -0.8062408,0 -0.8062408,0 -0.2958143,0.4154 -0.2958142,0.4155 -0.1029184,1.4028 -0.1029184,1.4028 0.2280145,0.5455 0.2280145,0.5456 0.4203582,0.063 c 0.231197,0.035 1.1550712,0.073 2.0530538,0.084 z m 0.9074076,-0.4222 -0.6847673,0 0,-0.4453 0,-0.4453 -0.519494,0 -0.5194941,0 0,-0.5195 0,-0.5194 0.51009,0 0.5100899,0 0.046511,-0.4824 0.046511,-0.4824 0.5566008,-0.046 0.5566007,-0.046 0,0.5285 0,0.5285 0.5107344,0 0.5107344,0 0.096947,0.1568 0.096946,0.1569 -0.091015,0.3626 -0.091015,0.3626 -0.4909597,0 -0.4909598,0 0.065353,0.4453 0.065353,0.4453 -0.6847674,0 z m 0.2800074,-5.4918 -1.2616284,0 0,-0.5707 0,-0.5707 0.2714343,-0.2456 0.2714342,-0.2457 0.8365451,0 0.836545,0 0.1536491,0.2871 0.1536492,0.2871 0,0.5293 0,0.5292 -1.2616285,0 z m -0.00986,-0.2968 0.9746335,0 0,-0.4524 0,-0.4524 -0.927668,0.044 -0.9276679,0.044 -0.046966,0.4082 -0.046966,0.4082 0.9746336,0 z m 3.2752504,1.9295 c 0.04082,0 0.07421,-0.033 0.07421,-0.074 0,-0.041 -0.0334,-0.074 -0.07421,-0.074 -0.04082,0 -0.07421,0.033 -0.07421,0.074 0,0.041 0.0334,0.074 0.07421,0.074 z"
         id="path3094" />
      <path
         style="fill:#fdd578"
         d="m 8.3987668,1049.3651 c -1.5918782,0.04 -3.1430357,0.043 -3.4470165,0.01 l -0.5526925,-0.066 -0.3007621,-0.3824 -0.3007621,-0.3824 0,-1.6661 0,-1.6662 0.3858218,-0.5773 c 0.212202,-0.3176 0.5926609,-0.7944 0.8454642,-1.0597 l 0.4596426,-0.4824 0.2677373,0 0.2677373,0 0,-0.7191 0,-0.7192 0.2714343,-0.2456 0.2714342,-0.2457 1.3664835,0 1.3664836,0 0.365845,0.2397 0.3658446,0.2398 0,0.7992 0,0.7993 0.353796,0 0.353796,0 0.55381,0.613 0.55381,0.613 0.37297,0.8147 0.372969,0.8147 -0.08316,0.8057 -0.08316,0.8057 -0.372514,0.6357 c -0.204883,0.3496 -0.459854,0.7067 -0.566603,0.7936 l -0.194088,0.1579 -2.8943242,0.073 z m -0.5990719,-0.1903 3.2140181,0 0.221187,-0.1855 c 0.121654,-0.1021 0.318098,-0.3153 0.436543,-0.4738 l 0.215355,-0.2883 -0.191482,0.1152 -0.191483,0.1151 0.09361,-0.4206 0.09361,-0.4206 -0.273197,0.5107 -0.273197,0.5106 -0.18265,0.057 -0.182649,0.057 0.218842,-0.4196 0.218842,-0.4195 -0.0014,-1.039 -0.0014,-1.039 -0.200836,-0.8535 -0.200836,-0.8534 0.124794,0 0.124795,0 0.217446,0.7792 c 0.119595,0.4286 0.247312,0.9128 0.283816,1.0761 l 0.06637,0.2969 -0.04478,-0.8906 -0.04478,-0.8906 -0.465902,-0.5566 -0.465914,-0.5566 -0.4369,0 -0.4368993,0 0,-0.8853 0,-0.8853 -0.287096,-0.1537 -0.2870959,-0.1536 -1.2532122,0 -1.2532122,0 -0.1943723,0.2342 -0.1943724,0.2342 0.038776,0.7305 0.038776,0.7306 -0.2995811,0 -0.2995813,0 -0.4164506,0.3664 -0.4164508,0.3664 2.8572174,0 2.8572177,0 0,0.1485 0,0.1484 -1.098682,0 -1.0986818,0 -0.1534049,0.4401 -0.1534051,0.44 -0.3698967,0.093 -0.3698967,0.093 -0.3075659,-0.098 -0.307566,-0.098 0,-0.2869 0,-0.2868 -0.2102715,0 c -0.1156492,0 -0.2325353,-0.062 -0.259747,-0.1367 l -0.049476,-0.1366 -0.8081803,-0.042 -0.8081803,-0.042 -0.3383655,0.6398 -0.3383655,0.6399 0.033344,1.527 0.033344,1.527 0.2827514,0.3121 0.2827514,0.3121 3.2140182,0 z m -0.1430625,-0.4453 -0.5937075,0 0,-0.4453 0,-0.4453 -0.519494,0 -0.5194941,0 0,-0.5195 0,-0.5194 0.503614,0 0.503614,0 0.090094,-0.2348 c 0.049551,-0.1292 0.090094,-0.3672 0.090094,-0.5289 l 0,-0.2941 0.4823874,0.047 0.4823873,0.046 0.046511,0.4824 0.046511,0.4824 0.5100899,0 0.5100901,0 0,0.5194 0,0.5195 -0.5194941,0 -0.5194941,0 0,0.4453 0,0.4453 -0.5937075,0 z m 0.3710672,-5.4918 -1.2616284,0 0,-0.564 0,-0.564 0.1781122,-0.1781 0.1781123,-0.1782 0.9934227,0 0.9934227,0 0.090094,0.2348 c 0.049551,0.1292 0.090094,0.4631 0.090094,0.7422 l 0,0.5073 -1.2616285,0 z m -0.00986,-0.2968 0.9746335,0 0,-0.4524 0,-0.4524 -0.927668,0.044 -0.9276679,0.044 -0.046966,0.4082 -0.046966,0.4082 0.9746336,0 z m 3.8689574,2.2264 c 0.04082,0 0.07421,-0.033 0.07421,-0.074 0,-0.041 -0.0334,-0.074 -0.07421,-0.074 -0.04082,0 -0.07421,0.033 -0.07421,0.074 0,0.041 0.0334,0.074 0.07421,0.074 z"
         id="path3092" />
      <path
         style="fill:#b5af91"
         d="m 8.3987668,1049.3651 c -1.5918782,0.04 -3.1430357,0.043 -3.4470165,0.01 l -0.5526925,-0.066 -0.3007621,-0.3824 -0.3007621,-0.3824 0,-1.6661 0,-1.6662 0.3858218,-0.5773 c 0.212202,-0.3176 0.5926609,-0.7944 0.8454642,-1.0597 l 0.4596426,-0.4824 0.2677373,0 0.2677373,0 0,-0.7191 0,-0.7192 0.2714343,-0.2456 0.2714342,-0.2457 1.3664835,0 1.3664836,0 0.365845,0.2397 0.3658446,0.2398 0,0.7992 0,0.7993 0.353796,0 0.353796,0 0.55381,0.613 0.55381,0.613 0.37297,0.8147 0.372969,0.8147 -0.08316,0.8057 -0.08316,0.8057 -0.372514,0.6357 c -0.204883,0.3496 -0.459854,0.7067 -0.566603,0.7936 l -0.194088,0.1579 -2.8943242,0.073 z m -0.4974208,-0.1903 3.315669,0 0.446651,-0.6166 0.44665,-0.6166 0.164314,-0.6079 0.164313,-0.608 -0.165733,-0.7206 -0.165732,-0.7206 -0.319424,-0.4668 c -0.175684,-0.2567 -0.522305,-0.6839 -0.770271,-0.9492 l -0.450846,-0.4824 -0.416164,0 -0.4161643,0 0,-0.8853 0,-0.8853 -0.287096,-0.1537 -0.2870959,-0.1536 -1.2532122,0 -1.2532122,0 -0.1943723,0.2342 -0.1943724,0.2342 0.038776,0.7305 0.038776,0.7306 -0.2995811,0 -0.2995813,0 -0.4164506,0.3664 -0.4164508,0.3664 2.8572174,0 2.8572177,0 0,0.1485 0,0.1484 -1.098682,0 -1.0986818,0 -0.1534049,0.4401 -0.1534051,0.44 -0.3698967,0.093 -0.3698967,0.093 -0.3075659,-0.098 -0.307566,-0.098 0,-0.2869 0,-0.2868 -0.2102715,0 c -0.1156492,0 -0.2325353,-0.062 -0.259747,-0.1367 l -0.049476,-0.1366 -0.8081803,-0.042 -0.8081803,-0.042 -0.3383655,0.6398 -0.3383655,0.6399 0.033344,1.527 0.033344,1.527 0.2827514,0.3121 0.2827514,0.3121 3.3156693,0 z m -0.2447136,-0.4453 -0.5937075,0 0,-0.4453 0,-0.4453 -0.519494,0 -0.5194941,0 0,-0.5195 0,-0.5194 0.503614,0 0.503614,0 0.090094,-0.2348 c 0.049551,-0.1292 0.090094,-0.3672 0.090094,-0.5289 l 0,-0.2941 0.4823874,0.047 0.4823873,0.046 0.046511,0.4824 0.046511,0.4824 0.5100899,0 0.5100901,0 0,0.5194 0,0.5195 -0.5194941,0 -0.5194941,0 0,0.4453 0,0.4453 -0.5937075,0 z m 3.2585476,0 -0.148427,0 0.250168,-0.3818 0.250168,-0.3818 -0.01758,-1.0654 -0.01758,-1.0653 -0.209683,-0.8535 -0.209682,-0.8534 0.12322,0 0.12322,0 0.165077,0.613 c 0.09079,0.3372 0.226505,0.9884 0.301583,1.4472 l 0.136505,0.8341 -0.08988,0.5195 c -0.04943,0.2857 -0.184112,0.6698 -0.299283,0.8534 -0.115172,0.1837 -0.276195,0.334 -0.35783,0.334 z m -2.8874804,-5.4918 -1.2616284,0 0,-0.564 0,-0.564 0.1781122,-0.1781 0.1781123,-0.1782 0.9934227,0 0.9934227,0 0.090094,0.2348 c 0.049551,0.1292 0.090094,0.4631 0.090094,0.7422 l 0,0.5073 -1.2616285,0 z m -0.00986,-0.2968 0.9746335,0 0,-0.4524 0,-0.4524 -0.927668,0.044 -0.9276679,0.044 -0.046966,0.4082 -0.046966,0.4082 0.9746336,0 z"
         id="path3090" />
      <path
         style="fill:#9a8d6c"
         d="m 8.3987668,1049.3651 c -1.5918782,0.04 -3.1430357,0.043 -3.4470165,0.01 l -0.5526925,-0.066 -0.3007621,-0.3824 -0.3007621,-0.3824 0,-1.6661 0,-1.6662 0.3858218,-0.5773 c 0.212202,-0.3176 0.5926609,-0.7944 0.8454642,-1.0597 l 0.4596426,-0.4824 0.2677373,0 0.2677373,0 0,-0.7191 0,-0.7192 0.2714343,-0.2456 0.2714342,-0.2457 1.3664835,0 1.3664836,0 0.365845,0.2397 0.3658446,0.2398 0,0.7992 0,0.7993 0.353796,0 0.353796,0 0.55381,0.613 0.55381,0.613 0.37297,0.8147 0.372969,0.8147 -0.08316,0.8057 -0.08316,0.8057 -0.372514,0.6357 c -0.204883,0.3496 -0.459854,0.7067 -0.566603,0.7936 l -0.194088,0.1579 -2.8943242,0.073 z m 0,-0.1437 2.7458972,-0.079 0.275541,-0.2434 c 0.151548,-0.1339 0.415077,-0.5106 0.585621,-0.8371 l 0.31008,-0.5937 0.0031,-0.8164 0.0031,-0.8163 -0.350947,-0.6964 -0.350947,-0.6964 -0.534612,-0.516 -0.534612,-0.5161 -0.371068,-0.049 -0.3710669,-0.049 -0.014422,-0.8017 -0.014422,-0.8018 -0.2736941,-0.2001 -0.2736941,-0.2001 -1.3282169,0 -1.3282169,0 -0.1971761,0.2597 -0.1971761,0.2598 -0.00472,0.705 -0.00472,0.705 -0.2709809,0 -0.2709809,0 -0.3485995,0.3711 -0.3485995,0.371 2.7717701,0 2.7717698,0 0,0.1485 0,0.1484 -0.9753764,0 -0.9753765,0 -0.2120385,0.212 c -0.1166211,0.1167 -0.2120383,0.3098 -0.2120383,0.4292 l 0,0.2172 -0.3741128,0.094 -0.3741129,0.094 -0.293808,-0.1573 -0.2938082,-0.1572 0,-0.1538 c 0,-0.085 -0.090108,-0.2439 -0.2002398,-0.3541 l -0.2002397,-0.2002 -0.8628459,-0.04 -0.8628462,-0.04 -0.3550233,0.5105 -0.3550232,0.5106 0.04516,1.737 0.04516,1.737 0.1825847,0.1822 0.1825846,0.1821 0.6337632,0.1105 0.6337632,0.1105 2.7458972,-0.079 z m -0.6679209,-0.4919 -0.5194941,0 0,-0.4363 0,-0.4363 -0.5566008,-0.046 -0.5566008,-0.046 -0.046511,-0.4824 -0.046511,-0.4823 0.6031117,0 0.6031115,0 0,-0.4453 0,-0.4453 0.5194941,0 0.519494,0 0,0.4453 0,0.4453 0.5194941,0 0.5194941,0 0,0.5194 0,0.5195 -0.5194941,0 -0.5194941,0 0,0.4453 0,0.4453 -0.519494,0 z m 3.4298521,-0.1915 -0.280819,0.2657 0.112969,-0.2968 c 0.06213,-0.1633 0.179925,-0.5473 0.26176,-0.8535 l 0.148791,-0.5565 -0.169939,-1.0762 c -0.09347,-0.5918 -0.202681,-1.2765 -0.2427,-1.5214 l -0.07276,-0.4452 0.247354,0.5937 0.247354,0.5937 0.01441,1.5153 0.01441,1.5154 -0.28082,0.2658 z m -3.0654582,-5.3317 -1.1198749,0.043 -0.1046468,-0.1046 c -0.057556,-0.058 -0.1046469,-0.2649 -0.1046469,-0.4608 0,-0.1958 0.069142,-0.4853 0.1536491,-0.6432 l 0.1536491,-0.2871 0.9543302,0 0.9543302,0 0.1627998,0.3042 0.1627997,0.3042 -0.046257,0.4009 -0.046257,0.4008 -1.1198748,0.043 z m -0.00273,-0.2654 1.0483922,0 0,-0.2685 c 0,-0.1477 -0.085518,-0.3855 -0.1900409,-0.5284 l -0.1900409,-0.2599 -0.8118405,0.046 -0.8118405,0.046 -0.046511,0.4824 -0.046511,0.4824 1.0483923,0 z"
         id="path3088" />
      <path
         style="fill:#7c8065"
         d="m 8.3987668,1049.3651 c -1.5918782,0.04 -3.1430357,0.043 -3.4470165,0.01 l -0.5526925,-0.066 -0.3007621,-0.3824 -0.3007621,-0.3824 0,-1.6661 0,-1.6662 0.3858218,-0.5773 c 0.212202,-0.3176 0.5926609,-0.7944 0.8454642,-1.0597 l 0.4596426,-0.4824 0.2677373,0 0.2677373,0 0,-0.7191 0,-0.7192 0.2714343,-0.2456 0.2714342,-0.2457 1.3664835,0 1.3664836,0 0.365845,0.2397 0.3658446,0.2398 0,0.7992 0,0.7993 0.353796,0 0.353796,0 0.55381,0.613 0.55381,0.613 0.37297,0.8147 0.372969,0.8147 -0.08316,0.8057 -0.08316,0.8057 -0.372514,0.6357 c -0.204883,0.3496 -0.459854,0.7067 -0.566603,0.7936 l -0.194088,0.1579 -2.8943242,0.073 z m 0,-0.1459 2.8943242,-0.071 0.25642,-0.3208 c 0.141031,-0.1765 0.369356,-0.5546 0.507388,-0.8403 l 0.250968,-0.5195 0.06597,-0.6829 0.06597,-0.6828 -0.300381,-0.6791 -0.300381,-0.6791 -0.625838,-0.6789 -0.625837,-0.679 -0.352164,0 -0.3521634,0 0,-0.7675 0,-0.7676 -0.2456447,-0.2714 -0.2456446,-0.2714 -1.4315791,0 -1.431579,0 -0.1781123,0.1781 -0.1781122,0.1781 0,0.7866 0,0.7867 -0.2709809,0 -0.2709809,0 -0.3485995,0.3711 -0.3485995,0.371 2.8088768,0.029 2.8088773,0.029 -0.9611509,0.054 -0.9611505,0.054 -0.2633712,0.2827 c -0.1448543,0.1555 -0.2633713,0.3784 -0.2633713,0.4954 l 0,0.2128 -0.3592728,0.09 -0.3592727,0.09 -0.2344348,-0.09 -0.2344348,-0.09 -0.00256,-0.1697 c -0.00141,-0.093 -0.1648606,-0.3235 -0.3632227,-0.5116 l -0.3606583,-0.342 -0.7820805,0.045 -0.7820807,0.045 -0.3389655,0.5043 -0.3389655,0.5044 0,1.6519 0,1.6519 0.2248743,0.3211 0.2248743,0.321 0.5543668,0.067 c 0.3049018,0.036 1.8568127,0.035 3.4486909,0 z m -0.6679209,-0.4897 -0.5194941,0 0,-0.4453 0,-0.4453 -0.5194941,0 -0.519494,0 0,-0.5195 0,-0.5194 0.519494,0 0.5194941,0 0,-0.4453 0,-0.4453 0.4452806,0 0.4452807,0 0,0.4453 0,0.4453 0.6031115,0 0.6031117,0 -0.046511,0.4823 -0.046511,0.4824 -0.4823873,0.047 -0.4823874,0.047 0,0.4358 0,0.4359 -0.519494,0 z m 3.2615801,0 c -0.03872,0 -0.0704,-0.026 -0.0704,-0.057 0,-0.032 0.09978,-0.2486 0.221726,-0.4824 l 0.221726,-0.4252 9.14e-4,-0.8222 9.14e-4,-0.8223 -0.226255,-0.8687 c -0.124441,-0.4777 -0.196102,-0.8988 -0.159247,-0.9356 0.03685,-0.037 0.14266,0.1897 0.235122,0.5035 l 0.168113,0.5705 0.08443,1.195 0.08443,1.195 -0.245532,0.4748 c -0.135042,0.2611 -0.277212,0.4748 -0.315933,0.4748 z m -4.0037145,-5.6402 c -0.040817,0 -0.074213,-0.033 -0.074213,-0.074 0,-0.041 0.033396,-0.074 0.074213,-0.074 0.040817,0 0.074213,0.033 0.074213,0.074 0,0.041 -0.033396,0.074 -0.074213,0.074 z m 2.1568481,0 -0.1437685,0 0.085562,-0.223 0.085562,-0.223 -0.093049,-0.3707 -0.093049,-0.3707 -0.8923918,0 -0.8923919,0 -0.085435,0.2226 c -0.046989,0.1225 -0.1456471,0.2226 -0.2192397,0.2226 l -0.1338046,0 0.1853883,-0.2968 0.1853883,-0.2969 0.9238488,0 0.9238488,0 0.1536491,0.2871 c 0.084507,0.1579 0.1536492,0.4585 0.1536492,0.668 l 0,0.3808 -0.1437685,0 z m -1.637354,1.3358 0.7421343,0 0,-0.1484 0,-0.1484 -0.7421343,0 -0.7421344,0 0,0.1484 0,0.1484 0.7421344,0 z"
         id="path3086" />
      <path
         style="fill:#645d50"
         d="m 6.914498,1049.4181 -1.4100553,0 0.7050277,-0.056 c 0.3877652,-0.03 1.0222901,-0.03 1.4100553,0 l 0.7050277,0.056 -1.4100554,0 z m -1.9436517,-0.1198 -0.5335965,0.025 -0.2456447,-0.2714 c -0.1351045,-0.1493 -0.2456446,-0.3312 -0.2456446,-0.4041 0,-0.073 0.1011934,0.012 0.2248743,0.1884 l 0.2248743,0.321 0.5543668,0.058 0.5543668,0.058 -0.5335964,0.025 z m 4.867529,-0.01 -1.5138219,-0.031 1.5049679,-0.048 1.5049677,-0.048 0.362213,-0.5516 c 0.199217,-0.3034 0.440372,-0.7787 0.535902,-1.0562 l 0.173688,-0.5045 -0.0033,-0.5344 -0.0033,-0.5345 -0.301492,-0.6679 -0.301492,-0.6679 -0.616713,-0.6308 -0.616713,-0.6309 -0.340164,0 -0.3401634,0 0,-0.138 0,-0.1381 0.4823874,0.1339 0.482387,0.1339 0.500945,0.5608 0.500945,0.5607 0.35106,0.7422 0.351059,0.7421 -0.0051,0.5937 -0.0051,0.5937 -0.198739,0.5569 c -0.109306,0.3063 -0.376942,0.7906 -0.594746,1.0761 l -0.396009,0.5192 -1.5138217,-0.031 z m -2.1345866,-0.5908 -0.4723377,0.046 -0.047156,-0.491 -0.047156,-0.4911 -0.4823874,-0.046 -0.4823873,-0.046 0,-0.4359 0,-0.4358 0.519494,0 0.5194941,0 0,-0.4453 0,-0.4453 0.4452806,0 0.4452807,0 0,0.4453 0,0.4453 0.5937075,0 0.5937075,0 0,0.4452 0,0.4453 -0.5100901,0 -0.5100899,0 -0.046511,0.4824 -0.046511,0.4824 -0.4723378,0.046 z m 3.4326873,-0.1855 -0.230829,0.2881 0.17672,-0.371 c 0.0972,-0.2041 0.201069,-0.3989 0.230829,-0.433 0.02976,-0.034 0.05411,0 0.05411,0.083 0,0.08 -0.103872,0.2744 -0.230828,0.4329 z m -7.1998035,-1.7428 -0.083501,1.7341 -0.027819,-1.6444 -0.027819,-1.6443 0.4571359,-0.6902 c 0.2514248,-0.3796 0.657302,-0.8586 0.9019494,-1.0644 l 0.4448135,-0.3743 0.2112521,0 0.2112523,0 0,-0.7191 0,-0.7192 0.2714343,-0.2456 0.2714342,-0.2457 1.3983682,0 1.398368,0 0.2860185,0.2164 0.2860184,0.2163 -0.079334,0.079 -0.079334,0.079 -0.1877518,-0.2262 -0.1877519,-0.2262 -1.4364094,0 -1.4364092,0 -0.1781123,0.1781 -0.1781122,0.1781 0,0.7866 0,0.7867 -0.2885769,0 -0.288577,0 -0.4164507,0.3664 -0.4164508,0.3664 2.8943241,0.034 2.8943248,0.034 -1.0760955,0.051 -1.0760949,0.051 0,0.2161 0,0.2162 -0.1484269,0 -0.1484268,0 0,0.2795 0,0.2796 -0.3339605,0.06 c -0.1836783,0.033 -0.4437346,0.037 -0.577903,0.01 l -0.2439424,-0.051 -0.069435,-0.3632 -0.069435,-0.3633 0.7215517,0 0.7215517,0 0,-0.1484 0,-0.1484 -0.7262543,0 -0.7262543,0 -0.094178,0.2454 -0.094178,0.2454 -0.1859566,-0.2543 -0.1859565,-0.2543 -0.7968127,0.046 -0.7968127,0.046 -0.3118816,0.4181 -0.3118816,0.4181 -0.083501,1.7341 z m 7.5389535,0.5804 -0.05842,0.56 -0.0012,-1.039 -0.0012,-1.039 0.05962,0.4791 c 0.03279,0.2634 0.03333,0.731 0.0012,1.0389 z m -0.148827,-1.6507 c -0.03781,0.038 -0.111426,-0.1446 -0.163582,-0.4054 -0.05215,-0.2607 -0.06732,-0.5016 -0.03371,-0.5352 0.03362,-0.034 0.107228,0.1488 0.163582,0.4054 0.05635,0.2565 0.07152,0.4974 0.03371,0.5352 z m -0.305824,-1.1784 -0.09895,0.099 0,-0.1979 0,-0.1979 0.09895,0.099 0.09895,0.099 -0.09895,0.099 z m -4.0322635,-1.4348 c -0.040817,0 -0.074213,-0.033 -0.074213,-0.074 0,-0.041 0.033396,-0.074 0.074213,-0.074 0.040817,0 0.074213,0.033 0.074213,0.074 0,0.041 -0.033396,0.074 -0.074213,0.074 z m 2.1727724,0 -0.1278443,0 0.067754,-0.3545 0.067754,-0.3544 -0.1707387,-0.3506 -0.1707387,-0.3506 0.2308284,0.2881 0.2308285,0.2882 0,0.4169 0,0.4169 -0.1278442,0 z m -2.0243455,-1.039 c -0.1224522,0.1016 -0.2226404,0.1514 -0.2226404,0.1106 0,-0.041 0.1001882,-0.1574 0.2226404,-0.259 0.1224521,-0.1017 0.2226403,-0.1514 0.2226403,-0.1106 0,0.041 -0.1001882,0.1574 -0.2226403,0.259 z"
         id="path3084" />
      <path
         style="fill:#cb2b08"
         d="m 4.9849486,1049.2888 -0.519494,0 0.259747,-0.068 c 0.1428609,-0.037 0.3766332,-0.037 0.5194941,0 l 0.259747,0.068 -0.5194941,0 z m 4.8238735,-0.02 -1.4842687,7e-4 0.7000521,-0.055 c 0.3850286,-0.031 1.0529495,-0.031 1.4842685,-7e-4 l 0.784217,0.055 -1.4842689,7e-4 z m -5.474275,-0.094 c -0.040817,0 -0.1154932,-0.067 -0.1659463,-0.1484 -0.050453,-0.082 -0.058337,-0.1485 -0.017519,-0.1485 0.040817,0 0.1154932,0.067 0.1659463,0.1485 0.050453,0.082 0.058337,0.1484 0.017519,0.1484 z m 7.1811839,-0.074 c -0.08164,0.05 -0.148427,0.058 -0.148427,0.017 0,-0.041 0.06679,-0.1155 0.148427,-0.166 0.08163,-0.05 0.148427,-0.058 0.148427,-0.017 0,0.041 -0.06679,0.1155 -0.148427,0.166 z m -7.4955571,-0.3711 c -0.040817,0 -0.074213,-0.033 -0.074213,-0.074 0,-0.041 0.033396,-0.074 0.074213,-0.074 0.040817,0 0.074213,0.033 0.074213,0.074 0,0.041 -0.033396,0.074 -0.074213,0.074 z m 3.6735653,-0.028 -0.4823874,0.046 0,-0.5289 0,-0.5289 -0.5194941,0 -0.519494,0 0,-0.4453 0,-0.4452 0.519494,0 0.5194941,0 0,-0.4453 0,-0.4453 0.4452806,0 0.4452807,0 0,0.4363 0,0.4363 0.5566008,0.046 0.5566007,0.046 0.04605,0.3986 0.04605,0.3987 -0.5609586,0.047 -0.5609584,0.047 -0.00458,0.4453 -0.00459,0.4453 -0.4823873,0.047 z m 3.4427368,-0.1862 -0.230829,0.2881 0.17672,-0.371 c 0.0972,-0.2041 0.201069,-0.3989 0.230829,-0.433 0.02976,-0.034 0.05411,0 0.05411,0.083 0,0.08 -0.103872,0.2744 -0.230828,0.4329 z m 0.591451,0.2139 c -0.04082,0 -0.0027,-0.1336 0.08466,-0.2968 0.08738,-0.1633 0.192267,-0.2969 0.233085,-0.2969 0.04082,0 0.0027,0.1336 -0.08466,0.2969 -0.08738,0.1632 -0.192268,0.2968 -0.233085,0.2968 z m -7.8209669,-1.1503 -0.054514,0.7792 0,-1.5584 0,-1.5585 0.054514,0.7792 c 0.029983,0.4286 0.029983,1.1299 0,1.5585 z m 8.4161859,0.037 -0.218184,0.4453 0.09195,-0.2969 c 0.05057,-0.1632 0.143435,-0.6308 0.206362,-1.039 l 0.114412,-0.7421 0.01182,0.5937 0.01182,0.5937 -0.218183,0.4453 z m -0.84752,-0.2631 -0.05842,0.56 -0.0012,-1.039 -0.0012,-1.039 0.05962,0.4791 c 0.03279,0.2634 0.03333,0.731 0.0012,1.0389 z m 0.902575,-1.589 -0.04612,0.1315 -0.248725,-0.5869 c -0.136798,-0.3227 -0.222003,-0.5868 -0.189345,-0.5868 0.03266,0 0.16534,0.2049 0.294846,0.4553 0.129507,0.2505 0.214713,0.5145 0.189346,0.5869 z m -1.061023,-0.1146 -0.07487,0.1856 0,-0.3711 0,-0.3711 0.07487,0.1856 0.07486,0.1855 -0.07486,0.1855 z m -7.3128841,-0.4823 c -0.032083,0 -0.058333,-0.063 -0.058333,-0.1397 0,-0.077 0.066027,-0.1805 0.1467267,-0.2304 l 0.1467268,-0.091 -0.088393,0.2303 c -0.048616,0.1267 -0.1146434,0.2304 -0.1467268,0.2304 z m 3.5039117,0 -0.5937076,0 0,-0.2895 0,-0.2895 -0.2585106,-0.1447 -0.2585105,-0.1446 0.130404,-0.1225 0.1304042,-0.1224 0.066262,0.1855 0.066262,0.1855 0.7173966,0 0.7173965,0 0.074864,-0.1855 0.074864,-0.1855 0.011718,0.2597 0.011718,0.2598 -0.1484269,0 -0.1484268,0 0,0.2968 0,0.2969 -0.5937075,0 z m 3.6611964,-0.1979 -0.09895,0.099 0,-0.1979 0,-0.1979 0.09895,0.099 0.09895,0.099 -0.09895,0.099 z m -6.8983829,-0.3958 c -0.040817,0 0.046679,-0.1336 0.1944355,-0.2969 0.1477569,-0.1633 0.302045,-0.2969 0.3428624,-0.2969 0.040817,0 -0.046679,0.1336 -0.1944355,0.2969 -0.147757,0.1633 -0.302045,0.2969 -0.3428624,0.2969 z m 6.7499559,-0.049 -0.09895,0.099 0,-0.1979 0,-0.1979 0.09895,0.099 0.09895,0.099 -0.09895,0.099 z m 0.755073,0.049 c -0.0284,0 -0.312527,-0.2672 -0.631384,-0.5938 l -0.57974,-0.5937 -0.303837,-0.012 -0.303838,-0.012 0.20017,-0.08 0.200171,-0.08 0.358988,0.1921 c 0.197443,0.1057 0.528217,0.414 0.735051,0.6852 0.206835,0.2712 0.352823,0.4931 0.324419,0.4931 z m -6.9113214,-0.7422 c -0.040817,0 0.046679,-0.1336 0.1944355,-0.2968 0.1477569,-0.1633 0.302045,-0.2969 0.3428624,-0.2969 0.040817,0 -0.046679,0.1336 -0.1944355,0.2969 -0.1477569,0.1632 -0.302045,0.2968 -0.3428624,0.2968 z m 1.0973656,-0.6054 -0.2844847,0.012 0.089674,-0.09 0.089675,-0.09 0.1948103,0.078 0.1948103,0.078 -0.2844849,0.012 z m 1.0266193,-0.1367 c -0.040817,0 -0.074213,-0.033 -0.074213,-0.074 0,-0.041 0.033396,-0.074 0.074213,-0.074 0.040817,0 0.074213,0.033 0.074213,0.074 0,0.041 -0.033396,0.074 -0.074213,0.074 z m -0.860025,-0.4082 -0.064324,0.334 0,-0.668 0,-0.6679 0.064324,0.334 c 0.035378,0.1837 0.035378,0.4842 0,0.6679 z m 0.9342384,-0.5566 c -0.081635,0.051 -0.1484269,0.058 -0.1484269,0.018 0,-0.041 0.066792,-0.1155 0.1484269,-0.1659 0.081635,-0.051 0.1484269,-0.058 0.1484269,-0.018 0,0.041 -0.066792,0.1155 -0.1484269,0.1659 z m 2.0285007,0.025 -0.098951,0.099 0,-0.1979 0,-0.1979 0.098951,0.099 0.098951,0.099 -0.098951,0.099 z m -2.7708981,-0.6555 -0.2080606,0.1855 0.1965494,-0.2597 0.1965492,-0.2598 1.4479207,0 1.4479206,0 0.1965493,0.2598 0.1965494,0.2597 -0.2080607,-0.1855 -0.2080606,-0.1855 -1.424898,0 -1.424898,0 -0.2080607,0.1855 z"
         id="path3082" />
      <path
         style="fill:#654f30"
         d="m 4.9849486,1049.2888 -0.519494,0 0.259747,-0.068 c 0.1428609,-0.037 0.3766332,-0.037 0.5194941,0 l 0.259747,0.068 -0.5194941,0 z m 4.8238735,-0.02 -1.4842687,7e-4 0.7000521,-0.055 c 0.3850286,-0.031 1.0529495,-0.031 1.4842685,-7e-4 l 0.784217,0.055 -1.4842689,7e-4 z m -5.474275,-0.094 c -0.040817,0 -0.1154932,-0.067 -0.1659463,-0.1484 -0.050453,-0.082 -0.058337,-0.1485 -0.017519,-0.1485 0.040817,0 0.1154932,0.067 0.1659463,0.1485 0.050453,0.082 0.058337,0.1484 0.017519,0.1484 z m 7.1811839,-0.074 c -0.08164,0.05 -0.148427,0.058 -0.148427,0.017 0,-0.041 0.06679,-0.1155 0.148427,-0.166 0.08163,-0.05 0.148427,-0.058 0.148427,-0.017 0,0.041 -0.06679,0.1155 -0.148427,0.166 z m -7.4955571,-0.3711 c -0.040817,0 -0.074213,-0.033 -0.074213,-0.074 0,-0.041 0.033396,-0.074 0.074213,-0.074 0.040817,0 0.074213,0.033 0.074213,0.074 0,0.041 -0.033396,0.074 -0.074213,0.074 z m 3.6735653,-0.028 -0.4823874,0.046 0,-0.5289 0,-0.5289 -0.5194941,0 -0.519494,0 0,-0.4453 0,-0.4452 0.519494,0 0.5194941,0 0,-0.4453 0,-0.4453 0.4452806,0 0.4452807,0 0,0.4363 0,0.4363 0.5566008,0.046 0.5566007,0.046 0.045385,0.3918 0.045385,0.3918 -0.5895004,0.056 -0.5895007,0.056 0.070488,-0.1141 0.070488,-0.114 0.4365209,0 0.4365209,0 0,-0.2969 0,-0.2968 -0.5937075,0 -0.5937075,0 0,-0.4453 0,-0.4453 -0.2968538,0 -0.2968537,0 0,0.4453 0,0.4453 -0.5194941,0 -0.5194941,0 0,0.2874 0,0.2875 0.4823874,0.046 0.4823873,0.046 0.046511,0.4824 0.046511,0.4824 0.2922326,0 0.2922325,0 0.1421652,-0.334 0.1421652,-0.3339 -0.035628,0.371 -0.035628,0.3711 -0.4823873,0.047 z m 3.4427368,-0.1862 -0.230829,0.2881 0.17672,-0.371 c 0.0972,-0.2041 0.201069,-0.3989 0.230829,-0.433 0.02976,-0.034 0.05411,0 0.05411,0.083 0,0.08 -0.103872,0.2744 -0.230828,0.4329 z m 0.591451,0.2139 c -0.04082,0 -0.0027,-0.1336 0.08466,-0.2968 0.08738,-0.1633 0.192267,-0.2969 0.233085,-0.2969 0.04082,0 0.0027,0.1336 -0.08466,0.2969 -0.08738,0.1632 -0.192268,0.2968 -0.233085,0.2968 z m -7.8209669,-1.1503 -0.054514,0.7792 0,-1.5584 0,-1.5585 0.054514,0.7792 c 0.029983,0.4286 0.029983,1.1299 0,1.5585 z m 8.4161859,0.037 -0.218184,0.4453 0.09195,-0.2969 c 0.05057,-0.1632 0.143435,-0.6308 0.206362,-1.039 l 0.114412,-0.7421 0.01182,0.5937 0.01182,0.5937 -0.218183,0.4453 z m -0.84752,-0.2631 -0.05842,0.56 -0.0012,-1.039 -0.0012,-1.039 0.05962,0.4791 c 0.03279,0.2634 0.03333,0.731 0.0012,1.0389 z m 0.902575,-1.589 -0.04612,0.1315 -0.248725,-0.5869 c -0.136798,-0.3227 -0.222003,-0.5868 -0.189345,-0.5868 0.03266,0 0.16534,0.2049 0.294846,0.4553 0.129507,0.2505 0.214713,0.5145 0.189346,0.5869 z m -1.061023,-0.1146 -0.07487,0.1856 0,-0.3711 0,-0.3711 0.07487,0.1856 0.07486,0.1855 -0.07486,0.1855 z m -7.3128841,-0.4823 c -0.032083,0 -0.058333,-0.063 -0.058333,-0.1397 0,-0.077 0.066027,-0.1805 0.1467267,-0.2304 l 0.1467268,-0.091 -0.088393,0.2303 c -0.048616,0.1267 -0.1146434,0.2304 -0.1467268,0.2304 z m 3.5039117,0 -0.5937076,0 0,-0.2895 0,-0.2895 -0.2585106,-0.1447 -0.2585105,-0.1446 0.130404,-0.1225 0.1304042,-0.1224 0.066262,0.1855 0.066262,0.1855 0.7173966,0 0.7173965,0 0.074864,-0.1855 0.074864,-0.1855 0.011718,0.2597 0.011718,0.2598 -0.1484269,0 -0.1484268,0 0,0.2968 0,0.2969 -0.5937075,0 z m 3.6611964,-0.1979 -0.09895,0.099 0,-0.1979 0,-0.1979 0.09895,0.099 0.09895,0.099 -0.09895,0.099 z m -6.8983829,-0.3958 c -0.040817,0 0.046679,-0.1336 0.1944355,-0.2969 0.1477569,-0.1633 0.302045,-0.2969 0.3428624,-0.2969 0.040817,0 -0.046679,0.1336 -0.1944355,0.2969 -0.147757,0.1633 -0.302045,0.2969 -0.3428624,0.2969 z m 6.7499559,-0.049 -0.09895,0.099 0,-0.1979 0,-0.1979 0.09895,0.099 0.09895,0.099 -0.09895,0.099 z m 0.755073,0.049 c -0.0284,0 -0.312527,-0.2672 -0.631384,-0.5938 l -0.57974,-0.5937 -0.303837,-0.012 -0.303838,-0.012 0.20017,-0.08 0.200171,-0.08 0.358988,0.1921 c 0.197443,0.1057 0.528217,0.414 0.735051,0.6852 0.206835,0.2712 0.352823,0.4931 0.324419,0.4931 z m -6.9113214,-0.7422 c -0.040817,0 0.046679,-0.1336 0.1944355,-0.2968 0.1477569,-0.1633 0.302045,-0.2969 0.3428624,-0.2969 0.040817,0 -0.046679,0.1336 -0.1944355,0.2969 -0.1477569,0.1632 -0.302045,0.2968 -0.3428624,0.2968 z m 1.0973656,-0.6054 -0.2844847,0.012 0.089674,-0.09 0.089675,-0.09 0.1948103,0.078 0.1948103,0.078 -0.2844849,0.012 z m 1.0266193,-0.1367 c -0.040817,0 -0.074213,-0.033 -0.074213,-0.074 0,-0.041 0.033396,-0.074 0.074213,-0.074 0.040817,0 0.074213,0.033 0.074213,0.074 0,0.041 -0.033396,0.074 -0.074213,0.074 z m -0.860025,-0.4082 -0.064324,0.334 0,-0.668 0,-0.6679 0.064324,0.334 c 0.035378,0.1837 0.035378,0.4842 0,0.6679 z m 0.9342384,-0.5566 c -0.081635,0.051 -0.1484269,0.058 -0.1484269,0.018 0,-0.041 0.066792,-0.1155 0.1484269,-0.1659 0.081635,-0.051 0.1484269,-0.058 0.1484269,-0.018 0,0.041 -0.066792,0.1155 -0.1484269,0.1659 z m 2.0285007,0.025 -0.098951,0.099 0,-0.1979 0,-0.1979 0.098951,0.099 0.098951,0.099 -0.098951,0.099 z m -2.7708981,-0.6555 -0.2080606,0.1855 0.1965494,-0.2597 0.1965492,-0.2598 1.4479207,0 1.4479206,0 0.1965493,0.2598 0.1965494,0.2597 -0.2080607,-0.1855 -0.2080606,-0.1855 -1.424898,0 -1.424898,0 -0.2080607,0.1855 z"
         id="path3080" />
      <path
         style="fill:#5c260a"
         d="m 5.0591621,1049.2943 -0.4452806,0.01 0.1827087,-0.074 c 0.1004899,-0.041 0.3008662,-0.043 0.4452806,-0.01 l 0.2625719,0.068 -0.4452806,0.01 z m 4.5270197,-0.023 -1.2616284,0 0.6308142,-0.057 c 0.3469478,-0.031 0.9146806,-0.031 1.2616284,0 l 0.630814,0.057 -1.2616282,0 z m -5.2516347,-0.097 c -0.040817,0 -0.1154932,-0.067 -0.1659463,-0.1484 -0.050453,-0.082 -0.058337,-0.1485 -0.017519,-0.1485 0.040817,0 0.1154932,0.067 0.1659463,0.1485 0.050453,0.082 0.058337,0.1484 0.017519,0.1484 z m 7.1069709,0 c -0.04082,0 -0.07421,-0.033 -0.07421,-0.074 0,-0.041 0.0334,-0.074 0.07421,-0.074 0.04082,0 0.07421,0.033 0.07421,0.074 0,0.041 -0.0334,0.074 -0.07421,0.074 z m -7.4213441,-0.4453 c -0.040817,0 -0.074213,-0.033 -0.074213,-0.074 0,-0.041 0.033396,-0.074 0.074213,-0.074 0.040817,0 0.074213,0.033 0.074213,0.074 0,0.041 -0.033396,0.074 -0.074213,0.074 z m 3.2986992,-0.3465 -0.063043,0.4207 -0.022239,-0.5566 -0.022239,-0.5566 -0.5194941,0 -0.519494,0 0,-0.4453 0,-0.4452 0.519494,0 0.5194941,0 0,-0.4453 0,-0.4453 0.4290418,0 0.4290419,0 0.060648,0.5195 0.060648,0.5195 -0.1186228,0 -0.1186226,0 0,-0.4453 0,-0.4453 -0.2968538,0 -0.2968537,0 0,0.4453 0,0.4453 -0.5194941,0 -0.5194941,0 0,0.2968 0,0.2969 0.449939,0 0.4499391,0 0.080624,0.2101 c 0.044343,0.1155 0.052255,0.3994 0.017581,0.6308 z m 0.7335644,0.297 -0.098951,0.099 0,-0.1979 0,-0.1979 0.098951,0.099 0.098951,0.099 -0.098951,0.099 z m 2.9437995,0.049 c -0.04082,0 -0.07421,-0.033 -0.07421,-0.074 0,-0.041 0.0334,-0.074 0.07421,-0.074 0.04082,0 0.07421,0.033 0.07421,0.074 0,0.041 -0.0334,0.074 -0.07421,0.074 z m 0.816348,-0.074 c -0.08164,0.05 -0.148427,0.058 -0.148427,0.018 0,-0.041 0.06679,-0.1155 0.148427,-0.1659 0.08164,-0.051 0.148427,-0.058 0.148427,-0.018 0,0.041 -0.06679,0.1155 -0.148427,0.166 z m -7.907161,-0.8495 -0.057988,0.5526 9.796e-4,-1.1874 9.796e-4,-1.1874 0.057008,0.6347 c 0.031354,0.3492 0.030913,0.8835 -9.796e-4,1.1875 z m 8.129801,0.4784 c -0.04082,0 -0.07421,-0.033 -0.07421,-0.074 0,-0.041 0.0334,-0.074 0.07421,-0.074 0.04082,0 0.07421,0.033 0.07421,0.074 0,0.041 -0.0334,0.074 -0.07421,0.074 z m 0.148427,-0.2968 c -0.04082,0 -0.07421,-0.033 -0.07421,-0.074 0,-0.041 0.0334,-0.074 0.07421,-0.074 0.04082,0 0.07421,0.033 0.07421,0.074 0,0.041 -0.0334,0.074 -0.07421,0.074 z m -3.4755462,-0.2726 -0.5812223,0.055 0.070488,-0.1141 0.070488,-0.114 0.4261976,0 0.4261977,0 0.064324,-0.334 0.064324,-0.3339 0.020213,0.3926 0.020213,0.3925 -0.5812223,0.055 z m 3.6511522,-0.1449 -0.07796,0.1948 -0.01172,-0.2845 -0.01172,-0.2844 0.08967,0.09 0.08967,0.09 -0.07796,0.1948 z m 0.149349,-0.6586 -0.06788,0.2597 0,-0.5195 0,-0.5195 0.06788,0.2598 c 0.03733,0.1428 0.03733,0.3766 0,0.5195 z m -0.130406,-1.1471 -0.04612,0.1315 -0.248725,-0.5869 c -0.136798,-0.3227 -0.222003,-0.5868 -0.189345,-0.5868 0.03266,0 0.16534,0.2049 0.294846,0.4553 0.129507,0.2505 0.214713,0.5145 0.189346,0.5869 z m -1.08511,-0.3001 c -0.04082,0 -0.07421,-0.033 -0.07421,-0.074 0,-0.041 0.0334,-0.074 0.07421,-0.074 0.04082,0 0.07421,0.033 0.07421,0.074 0,0.041 -0.0334,0.074 -0.07421,0.074 z m -7.2887971,-0.2968 c -0.032083,0 -0.058333,-0.063 -0.058333,-0.1397 0,-0.077 0.066027,-0.1805 0.1467267,-0.2304 l 0.1467268,-0.091 -0.088393,0.2303 c -0.048616,0.1267 -0.1146434,0.2304 -0.1467268,0.2304 z m 3.5039117,0 -0.5937076,0 0,-0.3711 0,-0.3711 0.5937076,0 0.5937075,0 0,0.3711 0,0.3711 -0.5937075,0 z m 3.6611964,-0.1979 -0.09895,0.099 0,-0.1979 0,-0.1979 0.09895,0.099 0.09895,0.099 -0.09895,0.099 z m -6.7039474,-0.5443 c -0.1224522,0.1017 -0.2226403,0.1514 -0.2226403,0.1106 0,-0.041 0.1001881,-0.1574 0.2226403,-0.259 0.1224522,-0.1016 0.2226403,-0.1514 0.2226403,-0.1106 0,0.041 -0.1001881,0.1574 -0.2226403,0.259 z m 6.5555204,0.099 -0.09895,0.099 0,-0.1979 0,-0.1979 0.09895,0.099 0.09895,0.099 -0.09895,0.099 z m 0.734916,0.049 c -0.04082,0 -0.115493,-0.067 -0.165946,-0.1485 -0.05045,-0.082 -0.05834,-0.1484 -0.01752,-0.1484 0.04082,0 0.115493,0.067 0.165947,0.1484 0.05045,0.082 0.05834,0.1485 0.01752,0.1485 z m -5.1877223,-0.198 -0.098951,0.099 0,-0.1979 0,-0.1979 0.098951,0.099 0.098951,0.099 -0.098951,0.099 z m 1.7811225,0 -0.098951,0.099 0,-0.1979 0,-0.1979 0.098951,0.099 0.098951,0.099 -0.098951,0.099 z m -3.4845646,-0.5442 c -0.040817,0 0.046679,-0.1336 0.1944355,-0.2968 0.1477569,-0.1633 0.302045,-0.2969 0.3428624,-0.2969 0.040817,0 -0.046679,0.1336 -0.1944355,0.2969 -0.1477569,0.1632 -0.302045,0.2968 -0.3428624,0.2968 z m 6.2799374,0 c -0.04082,0 -0.07421,-0.033 -0.07421,-0.074 0,-0.041 0.0334,-0.074 0.07421,-0.074 0.04082,0 0.07421,0.033 0.07421,0.074 0,0.041 -0.0334,0.074 -0.07421,0.074 z m -0.816348,-0.4687 -0.371067,0 0.185534,-0.075 0.185533,-0.075 0.185534,0.075 0.185533,0.075 -0.371067,0 z m -4.3662238,-0.1367 -0.2844847,0.012 0.089674,-0.09 0.089675,-0.09 0.1948103,0.078 0.1948103,0.078 -0.2844849,0.012 z m 1.1008327,-1.1015 c -0.081635,0.051 -0.1484269,0.058 -0.1484269,0.018 0,-0.041 0.066792,-0.1155 0.1484269,-0.1659 0.081635,-0.051 0.1484269,-0.058 0.1484269,-0.018 0,0.041 -0.066792,0.1155 -0.1484269,0.1659 z m 2.0037629,0.074 c -0.040817,0 -0.074214,-0.033 -0.074214,-0.074 0,-0.041 0.033396,-0.074 0.074214,-0.074 0.040817,0 0.074213,0.033 0.074213,0.074 0,0.041 -0.033396,0.074 -0.074213,0.074 z m -2.7378638,-0.6991 -0.2306738,0.1796 0.2037077,-0.2597 0.2037076,-0.2598 1.4289881,0.031 1.4289879,0.031 -1.4020219,0.049 -1.4020218,0.049 -0.2306738,0.1795 z m 3.3490907,0.1054 c -0.040817,0 -0.1154932,-0.067 -0.1659463,-0.1484 -0.050453,-0.082 -0.058337,-0.1484 -0.017519,-0.1484 0.040817,0 0.1154932,0.067 0.1659463,0.1484 0.050453,0.082 0.058337,0.1484 0.017519,0.1484 z"
         id="path3078" />
      <path
         style="fill:#18110d"
         d="m 5.0591621,1049.2943 -0.4452806,0.01 0.1827087,-0.074 c 0.1004899,-0.041 0.3008662,-0.043 0.4452806,-0.01 l 0.2625719,0.068 -0.4452806,0.01 z m 4.5270197,-0.023 -1.2616284,0 0.6308142,-0.057 c 0.3469478,-0.031 0.9146806,-0.031 1.2616284,0 l 0.630814,0.057 -1.2616282,0 z m -5.2516347,-0.097 c -0.040817,0 -0.1154932,-0.067 -0.1659463,-0.1484 -0.050453,-0.082 -0.058337,-0.1485 -0.017519,-0.1485 0.040817,0 0.1154932,0.067 0.1659463,0.1485 0.050453,0.082 0.058337,0.1484 0.017519,0.1484 z m 7.1069709,0 c -0.04082,0 -0.07421,-0.033 -0.07421,-0.074 0,-0.041 0.0334,-0.074 0.07421,-0.074 0.04082,0 0.07421,0.033 0.07421,0.074 0,0.041 -0.0334,0.074 -0.07421,0.074 z m -7.4213441,-0.4453 c -0.040817,0 -0.074213,-0.033 -0.074213,-0.074 0,-0.041 0.033396,-0.074 0.074213,-0.074 0.040817,0 0.074213,0.033 0.074213,0.074 0,0.041 -0.033396,0.074 -0.074213,0.074 z m 6.9760631,0 c -0.04082,0 -0.07421,-0.033 -0.07421,-0.074 0,-0.041 0.0334,-0.074 0.07421,-0.074 0.04082,0 0.07421,0.033 0.07421,0.074 0,0.041 -0.0334,0.074 -0.07421,0.074 z m 0.816348,-0.074 c -0.08164,0.05 -0.148427,0.058 -0.148427,0.018 0,-0.041 0.06679,-0.1155 0.148427,-0.1659 0.08164,-0.051 0.148427,-0.058 0.148427,-0.018 0,0.041 -0.06679,0.1155 -0.148427,0.166 z m -7.907161,-0.8495 -0.057988,0.5526 9.796e-4,-1.1874 9.796e-4,-1.1874 0.057008,0.6347 c 0.031354,0.3492 0.030913,0.8835 -9.796e-4,1.1875 z m 8.129801,0.4784 c -0.04082,0 -0.07421,-0.033 -0.07421,-0.074 0,-0.041 0.0334,-0.074 0.07421,-0.074 0.04082,0 0.07421,0.033 0.07421,0.074 0,0.041 -0.0334,0.074 -0.07421,0.074 z m 0.148427,-0.2968 c -0.04082,0 -0.07421,-0.033 -0.07421,-0.074 0,-0.041 0.0334,-0.074 0.07421,-0.074 0.04082,0 0.07421,0.033 0.07421,0.074 0,0.041 -0.0334,0.074 -0.07421,0.074 z m -2.9398923,-0.4852 -0.068423,0.2625 -0.0055,-0.4453 -0.0055,-0.4452 0.073923,0.1827 c 0.040658,0.1005 0.043132,0.3008 0.0055,0.4453 z m 3.1154983,0.068 -0.07796,0.1948 -0.01172,-0.2845 -0.01172,-0.2844 0.08967,0.09 0.08967,0.09 -0.07796,0.1948 z m 0.149349,-0.6586 -0.06788,0.2597 0,-0.5195 0,-0.5195 0.06788,0.2598 c 0.03733,0.1428 0.03733,0.3766 0,0.5195 z m -5.8167493,-3e-4 -0.5937075,0 0.2580165,-0.068 c 0.1419091,-0.037 0.4090774,-0.038 0.5937076,0 l 0.3356909,0.065 -0.5937075,0 z m 0.6223526,-0.4478 -0.068423,0.2625 -0.0055,-0.4452 -0.0055,-0.4453 0.073923,0.1827 c 0.040658,0.1005 0.043132,0.3009 0.0055,0.4453 z m 5.0639907,-0.699 -0.04612,0.1315 -0.248725,-0.5869 c -0.136798,-0.3227 -0.222003,-0.5868 -0.189345,-0.5868 0.03266,0 0.16534,0.2049 0.294846,0.4553 0.129507,0.2505 0.214713,0.5145 0.189346,0.5869 z m -8.3739071,-0.5969 c -0.032083,0 -0.058333,-0.063 -0.058333,-0.1397 0,-0.077 0.066027,-0.1805 0.1467267,-0.2304 l 0.1467268,-0.091 -0.088393,0.2303 c -0.048616,0.1267 -0.1146434,0.2304 -0.1467268,0.2304 z m 3.0149539,-0.2598 -0.064324,0.334 -0.020213,-0.4082 -0.020213,-0.4082 0.5937076,0 0.5937075,0 0,0.2881 0,0.2881 -0.1345848,0.083 -0.1345847,0.083 0.077682,-0.2971 0.077683,-0.297 -0.4522687,0 -0.4522686,0 -0.064324,0.3339 z m -2.5537932,-0.4824 c -0.1224522,0.1017 -0.2226403,0.1514 -0.2226403,0.1106 0,-0.041 0.1001881,-0.1574 0.2226403,-0.259 0.1224522,-0.1016 0.2226403,-0.1514 0.2226403,-0.1106 0,0.041 -0.1001881,0.1574 -0.2226403,0.259 z m 7.2904364,0.1485 c -0.04082,0 -0.115493,-0.067 -0.165946,-0.1485 -0.05045,-0.082 -0.05834,-0.1484 -0.01752,-0.1484 0.04082,0 0.115493,0.067 0.165947,0.1484 0.05045,0.082 0.05834,0.1485 0.01752,0.1485 z m -3.4065998,-0.198 -0.098951,0.099 0,-0.1979 0,-0.1979 0.098951,0.099 0.098951,0.099 -0.098951,0.099 z m 2.6469458,0.049 c -0.04082,0 -0.07421,-0.033 -0.07421,-0.074 0,-0.041 0.0334,-0.074 0.07421,-0.074 0.04082,0 0.07421,0.033 0.07421,0.074 0,0.041 -0.0334,0.074 -0.07421,0.074 z m -6.1315104,-0.5937 c -0.040817,0 0.046679,-0.1336 0.1944355,-0.2968 0.1477569,-0.1633 0.302045,-0.2969 0.3428624,-0.2969 0.040817,0 -0.046679,0.1336 -0.1944355,0.2969 -0.1477569,0.1632 -0.302045,0.2968 -0.3428624,0.2968 z m 6.2799374,0 c -0.04082,0 -0.07421,-0.033 -0.07421,-0.074 0,-0.041 0.0334,-0.074 0.07421,-0.074 0.04082,0 0.07421,0.033 0.07421,0.074 0,0.041 -0.0334,0.074 -0.07421,0.074 z m -0.816348,-0.4687 -0.371067,0 0.185534,-0.075 0.185533,-0.075 0.185534,0.075 0.185533,0.075 -0.371067,0 z m -4.4528061,-0.125 -0.1979024,0 0.098951,-0.099 0.098951,-0.099 0.098951,0.099 0.098951,0.099 -0.1979025,0 z m 1.2616285,-1.1874 c -0.040817,0 -0.074214,-0.033 -0.074214,-0.074 0,-0.041 0.033396,-0.074 0.074214,-0.074 0.040817,0 0.074213,0.033 0.074213,0.074 0,0.041 -0.033396,0.074 -0.074213,0.074 z m -0.8083144,-0.5507 -0.2306738,0.1796 0.2037077,-0.2597 0.2037076,-0.2598 1.4289881,0.031 1.4289879,0.031 -1.4020219,0.049 -1.4020218,0.049 -0.2306738,0.1795 z m 3.3490907,0.1054 c -0.040817,0 -0.1154932,-0.067 -0.1659463,-0.1484 -0.050453,-0.082 -0.058337,-0.1484 -0.017519,-0.1484 0.040817,0 0.1154932,0.067 0.1659463,0.1484 0.050453,0.082 0.058337,0.1484 0.017519,0.1484 z"
         id="path3076" />
    </g>
  </g>
</svg>
