<?xml version="1.0" encoding="UTF-8" standalone="no"?>
<!-- Created with Inkscape (http://www.inkscape.org/) -->

<svg
   xmlns:dc="http://purl.org/dc/elements/1.1/"
   xmlns:cc="http://creativecommons.org/ns#"
   xmlns:rdf="http://www.w3.org/1999/02/22-rdf-syntax-ns#"
   xmlns:svg="http://www.w3.org/2000/svg"
   xmlns="http://www.w3.org/2000/svg"
   xmlns:sodipodi="http://sodipodi.sourceforge.net/DTD/sodipodi-0.dtd"
   xmlns:inkscape="http://www.inkscape.org/namespaces/inkscape"
   width="16"
   height="16"
   id="svg2"
   version="1.1"
   inkscape:version="0.47 r22583"
   sodipodi:docname="HOUS-64.svg">
  <defs
     id="defs4">
    <inkscape:perspective
       sodipodi:type="inkscape:persp3d"
       inkscape:vp_x="0 : 526.18109 : 1"
       inkscape:vp_y="0 : 1000 : 0"
       inkscape:vp_z="744.09448 : 526.18109 : 1"
       inkscape:persp3d-origin="372.04724 : 350.78739 : 1"
       id="perspective10" />
    <inkscape:perspective
       id="perspective2824"
       inkscape:persp3d-origin="0.5 : 0.33333333 : 1"
       inkscape:vp_z="1 : 0.5 : 1"
       inkscape:vp_y="0 : 1000 : 0"
       inkscape:vp_x="0 : 0.5 : 1"
       sodipodi:type="inkscape:persp3d" />
    <inkscape:perspective
       id="perspective5878"
       inkscape:persp3d-origin="0.5 : 0.33333333 : 1"
       inkscape:vp_z="1 : 0.5 : 1"
       inkscape:vp_y="0 : 1000 : 0"
       inkscape:vp_x="0 : 0.5 : 1"
       sodipodi:type="inkscape:persp3d" />
    <inkscape:perspective
       id="perspective5921"
       inkscape:persp3d-origin="0.5 : 0.33333333 : 1"
       inkscape:vp_z="1 : 0.5 : 1"
       inkscape:vp_y="0 : 1000 : 0"
       inkscape:vp_x="0 : 0.5 : 1"
       sodipodi:type="inkscape:persp3d" />
    <inkscape:perspective
       id="perspective5943"
       inkscape:persp3d-origin="0.5 : 0.33333333 : 1"
       inkscape:vp_z="1 : 0.5 : 1"
       inkscape:vp_y="0 : 1000 : 0"
       inkscape:vp_x="0 : 0.5 : 1"
       sodipodi:type="inkscape:persp3d" />
    <inkscape:perspective
       id="perspective5989"
       inkscape:persp3d-origin="0.5 : 0.33333333 : 1"
       inkscape:vp_z="1 : 0.5 : 1"
       inkscape:vp_y="0 : 1000 : 0"
       inkscape:vp_x="0 : 0.5 : 1"
       sodipodi:type="inkscape:persp3d" />
    <inkscape:perspective
       id="perspective6011"
       inkscape:persp3d-origin="0.5 : 0.33333333 : 1"
       inkscape:vp_z="1 : 0.5 : 1"
       inkscape:vp_y="0 : 1000 : 0"
       inkscape:vp_x="0 : 0.5 : 1"
       sodipodi:type="inkscape:persp3d" />
    <inkscape:perspective
       id="perspective6033"
       inkscape:persp3d-origin="0.5 : 0.33333333 : 1"
       inkscape:vp_z="1 : 0.5 : 1"
       inkscape:vp_y="0 : 1000 : 0"
       inkscape:vp_x="0 : 0.5 : 1"
       sodipodi:type="inkscape:persp3d" />
    <inkscape:perspective
       id="perspective6245"
       inkscape:persp3d-origin="0.5 : 0.33333333 : 1"
       inkscape:vp_z="1 : 0.5 : 1"
       inkscape:vp_y="0 : 1000 : 0"
       inkscape:vp_x="0 : 0.5 : 1"
       sodipodi:type="inkscape:persp3d" />
    <inkscape:perspective
       id="perspective6269"
       inkscape:persp3d-origin="0.5 : 0.33333333 : 1"
       inkscape:vp_z="1 : 0.5 : 1"
       inkscape:vp_y="0 : 1000 : 0"
       inkscape:vp_x="0 : 0.5 : 1"
       sodipodi:type="inkscape:persp3d" />
    <inkscape:perspective
       id="perspective6364"
       inkscape:persp3d-origin="0.5 : 0.33333333 : 1"
       inkscape:vp_z="1 : 0.5 : 1"
       inkscape:vp_y="0 : 1000 : 0"
       inkscape:vp_x="0 : 0.5 : 1"
       sodipodi:type="inkscape:persp3d" />
    <inkscape:perspective
       id="perspective6396"
       inkscape:persp3d-origin="0.5 : 0.33333333 : 1"
       inkscape:vp_z="1 : 0.5 : 1"
       inkscape:vp_y="0 : 1000 : 0"
       inkscape:vp_x="0 : 0.5 : 1"
       sodipodi:type="inkscape:persp3d" />
    <inkscape:perspective
       id="perspective6438"
       inkscape:persp3d-origin="0.5 : 0.33333333 : 1"
       inkscape:vp_z="1 : 0.5 : 1"
       inkscape:vp_y="0 : 1000 : 0"
       inkscape:vp_x="0 : 0.5 : 1"
       sodipodi:type="inkscape:persp3d" />
    <inkscape:perspective
       id="perspective6460"
       inkscape:persp3d-origin="0.5 : 0.33333333 : 1"
       inkscape:vp_z="1 : 0.5 : 1"
       inkscape:vp_y="0 : 1000 : 0"
       inkscape:vp_x="0 : 0.5 : 1"
       sodipodi:type="inkscape:persp3d" />
    <inkscape:perspective
       id="perspective6480"
       inkscape:persp3d-origin="0.5 : 0.33333333 : 1"
       inkscape:vp_z="1 : 0.5 : 1"
       inkscape:vp_y="0 : 1000 : 0"
       inkscape:vp_x="0 : 0.5 : 1"
       sodipodi:type="inkscape:persp3d" />
    <inkscape:perspective
       id="perspective6504"
       inkscape:persp3d-origin="0.5 : 0.33333333 : 1"
       inkscape:vp_z="1 : 0.5 : 1"
       inkscape:vp_y="0 : 1000 : 0"
       inkscape:vp_x="0 : 0.5 : 1"
       sodipodi:type="inkscape:persp3d" />
    <inkscape:perspective
       id="perspective6524"
       inkscape:persp3d-origin="0.5 : 0.33333333 : 1"
       inkscape:vp_z="1 : 0.5 : 1"
       inkscape:vp_y="0 : 1000 : 0"
       inkscape:vp_x="0 : 0.5 : 1"
       sodipodi:type="inkscape:persp3d" />
    <inkscape:perspective
       id="perspective6548"
       inkscape:persp3d-origin="0.5 : 0.33333333 : 1"
       inkscape:vp_z="1 : 0.5 : 1"
       inkscape:vp_y="0 : 1000 : 0"
       inkscape:vp_x="0 : 0.5 : 1"
       sodipodi:type="inkscape:persp3d" />
    <inkscape:perspective
       id="perspective6572"
       inkscape:persp3d-origin="0.5 : 0.33333333 : 1"
       inkscape:vp_z="1 : 0.5 : 1"
       inkscape:vp_y="0 : 1000 : 0"
       inkscape:vp_x="0 : 0.5 : 1"
       sodipodi:type="inkscape:persp3d" />
    <inkscape:perspective
       id="perspective6594"
       inkscape:persp3d-origin="0.5 : 0.33333333 : 1"
       inkscape:vp_z="1 : 0.5 : 1"
       inkscape:vp_y="0 : 1000 : 0"
       inkscape:vp_x="0 : 0.5 : 1"
       sodipodi:type="inkscape:persp3d" />
    <inkscape:perspective
       id="perspective6614"
       inkscape:persp3d-origin="0.5 : 0.33333333 : 1"
       inkscape:vp_z="1 : 0.5 : 1"
       inkscape:vp_y="0 : 1000 : 0"
       inkscape:vp_x="0 : 0.5 : 1"
       sodipodi:type="inkscape:persp3d" />
    <inkscape:perspective
       id="perspective6650"
       inkscape:persp3d-origin="0.5 : 0.33333333 : 1"
       inkscape:vp_z="1 : 0.5 : 1"
       inkscape:vp_y="0 : 1000 : 0"
       inkscape:vp_x="0 : 0.5 : 1"
       sodipodi:type="inkscape:persp3d" />
    <inkscape:perspective
       id="perspective6676"
       inkscape:persp3d-origin="0.5 : 0.33333333 : 1"
       inkscape:vp_z="1 : 0.5 : 1"
       inkscape:vp_y="0 : 1000 : 0"
       inkscape:vp_x="0 : 0.5 : 1"
       sodipodi:type="inkscape:persp3d" />
    <inkscape:perspective
       id="perspective6710"
       inkscape:persp3d-origin="0.5 : 0.33333333 : 1"
       inkscape:vp_z="1 : 0.5 : 1"
       inkscape:vp_y="0 : 1000 : 0"
       inkscape:vp_x="0 : 0.5 : 1"
       sodipodi:type="inkscape:persp3d" />
    <inkscape:perspective
       id="perspective6748"
       inkscape:persp3d-origin="0.5 : 0.33333333 : 1"
       inkscape:vp_z="1 : 0.5 : 1"
       inkscape:vp_y="0 : 1000 : 0"
       inkscape:vp_x="0 : 0.5 : 1"
       sodipodi:type="inkscape:persp3d" />
    <inkscape:perspective
       id="perspective6786"
       inkscape:persp3d-origin="0.5 : 0.33333333 : 1"
       inkscape:vp_z="1 : 0.5 : 1"
       inkscape:vp_y="0 : 1000 : 0"
       inkscape:vp_x="0 : 0.5 : 1"
       sodipodi:type="inkscape:persp3d" />
    <inkscape:perspective
       id="perspective6810"
       inkscape:persp3d-origin="0.5 : 0.33333333 : 1"
       inkscape:vp_z="1 : 0.5 : 1"
       inkscape:vp_y="0 : 1000 : 0"
       inkscape:vp_x="0 : 0.5 : 1"
       sodipodi:type="inkscape:persp3d" />
    <inkscape:perspective
       id="perspective6848"
       inkscape:persp3d-origin="0.5 : 0.33333333 : 1"
       inkscape:vp_z="1 : 0.5 : 1"
       inkscape:vp_y="0 : 1000 : 0"
       inkscape:vp_x="0 : 0.5 : 1"
       sodipodi:type="inkscape:persp3d" />
    <inkscape:perspective
       id="perspective6870"
       inkscape:persp3d-origin="0.5 : 0.33333333 : 1"
       inkscape:vp_z="1 : 0.5 : 1"
       inkscape:vp_y="0 : 1000 : 0"
       inkscape:vp_x="0 : 0.5 : 1"
       sodipodi:type="inkscape:persp3d" />
    <inkscape:perspective
       id="perspective6908"
       inkscape:persp3d-origin="0.5 : 0.33333333 : 1"
       inkscape:vp_z="1 : 0.5 : 1"
       inkscape:vp_y="0 : 1000 : 0"
       inkscape:vp_x="0 : 0.5 : 1"
       sodipodi:type="inkscape:persp3d" />
    <inkscape:perspective
       id="perspective6946"
       inkscape:persp3d-origin="0.5 : 0.33333333 : 1"
       inkscape:vp_z="1 : 0.5 : 1"
       inkscape:vp_y="0 : 1000 : 0"
       inkscape:vp_x="0 : 0.5 : 1"
       sodipodi:type="inkscape:persp3d" />
    <inkscape:perspective
       id="perspective6970"
       inkscape:persp3d-origin="0.5 : 0.33333333 : 1"
       inkscape:vp_z="1 : 0.5 : 1"
       inkscape:vp_y="0 : 1000 : 0"
       inkscape:vp_x="0 : 0.5 : 1"
       sodipodi:type="inkscape:persp3d" />
    <inkscape:perspective
       id="perspective7008"
       inkscape:persp3d-origin="0.5 : 0.33333333 : 1"
       inkscape:vp_z="1 : 0.5 : 1"
       inkscape:vp_y="0 : 1000 : 0"
       inkscape:vp_x="0 : 0.5 : 1"
       sodipodi:type="inkscape:persp3d" />
    <inkscape:perspective
       id="perspective7036"
       inkscape:persp3d-origin="0.5 : 0.33333333 : 1"
       inkscape:vp_z="1 : 0.5 : 1"
       inkscape:vp_y="0 : 1000 : 0"
       inkscape:vp_x="0 : 0.5 : 1"
       sodipodi:type="inkscape:persp3d" />
    <inkscape:perspective
       id="perspective7060"
       inkscape:persp3d-origin="0.5 : 0.33333333 : 1"
       inkscape:vp_z="1 : 0.5 : 1"
       inkscape:vp_y="0 : 1000 : 0"
       inkscape:vp_x="0 : 0.5 : 1"
       sodipodi:type="inkscape:persp3d" />
    <inkscape:perspective
       id="perspective7098"
       inkscape:persp3d-origin="0.5 : 0.33333333 : 1"
       inkscape:vp_z="1 : 0.5 : 1"
       inkscape:vp_y="0 : 1000 : 0"
       inkscape:vp_x="0 : 0.5 : 1"
       sodipodi:type="inkscape:persp3d" />
    <inkscape:perspective
       id="perspective7136"
       inkscape:persp3d-origin="0.5 : 0.33333333 : 1"
       inkscape:vp_z="1 : 0.5 : 1"
       inkscape:vp_y="0 : 1000 : 0"
       inkscape:vp_x="0 : 0.5 : 1"
       sodipodi:type="inkscape:persp3d" />
    <inkscape:perspective
       id="perspective7174"
       inkscape:persp3d-origin="0.5 : 0.33333333 : 1"
       inkscape:vp_z="1 : 0.5 : 1"
       inkscape:vp_y="0 : 1000 : 0"
       inkscape:vp_x="0 : 0.5 : 1"
       sodipodi:type="inkscape:persp3d" />
    <inkscape:perspective
       id="perspective7212"
       inkscape:persp3d-origin="0.5 : 0.33333333 : 1"
       inkscape:vp_z="1 : 0.5 : 1"
       inkscape:vp_y="0 : 1000 : 0"
       inkscape:vp_x="0 : 0.5 : 1"
       sodipodi:type="inkscape:persp3d" />
    <inkscape:perspective
       id="perspective7234"
       inkscape:persp3d-origin="0.5 : 0.33333333 : 1"
       inkscape:vp_z="1 : 0.5 : 1"
       inkscape:vp_y="0 : 1000 : 0"
       inkscape:vp_x="0 : 0.5 : 1"
       sodipodi:type="inkscape:persp3d" />
    <inkscape:perspective
       id="perspective7272"
       inkscape:persp3d-origin="0.5 : 0.33333333 : 1"
       inkscape:vp_z="1 : 0.5 : 1"
       inkscape:vp_y="0 : 1000 : 0"
       inkscape:vp_x="0 : 0.5 : 1"
       sodipodi:type="inkscape:persp3d" />
    <inkscape:perspective
       id="perspective7294"
       inkscape:persp3d-origin="0.5 : 0.33333333 : 1"
       inkscape:vp_z="1 : 0.5 : 1"
       inkscape:vp_y="0 : 1000 : 0"
       inkscape:vp_x="0 : 0.5 : 1"
       sodipodi:type="inkscape:persp3d" />
    <inkscape:perspective
       id="perspective7330"
       inkscape:persp3d-origin="0.5 : 0.33333333 : 1"
       inkscape:vp_z="1 : 0.5 : 1"
       inkscape:vp_y="0 : 1000 : 0"
       inkscape:vp_x="0 : 0.5 : 1"
       sodipodi:type="inkscape:persp3d" />
    <inkscape:perspective
       id="perspective3068"
       inkscape:persp3d-origin="0.5 : 0.33333333 : 1"
       inkscape:vp_z="1 : 0.5 : 1"
       inkscape:vp_y="0 : 1000 : 0"
       inkscape:vp_x="0 : 0.5 : 1"
       sodipodi:type="inkscape:persp3d" />
    <inkscape:perspective
       id="perspective3106"
       inkscape:persp3d-origin="0.5 : 0.33333333 : 1"
       inkscape:vp_z="1 : 0.5 : 1"
       inkscape:vp_y="0 : 1000 : 0"
       inkscape:vp_x="0 : 0.5 : 1"
       sodipodi:type="inkscape:persp3d" />
    <inkscape:perspective
       id="perspective3128"
       inkscape:persp3d-origin="0.5 : 0.33333333 : 1"
       inkscape:vp_z="1 : 0.5 : 1"
       inkscape:vp_y="0 : 1000 : 0"
       inkscape:vp_x="0 : 0.5 : 1"
       sodipodi:type="inkscape:persp3d" />
    <inkscape:perspective
       id="perspective3152"
       inkscape:persp3d-origin="0.5 : 0.33333333 : 1"
       inkscape:vp_z="1 : 0.5 : 1"
       inkscape:vp_y="0 : 1000 : 0"
       inkscape:vp_x="0 : 0.5 : 1"
       sodipodi:type="inkscape:persp3d" />
    <inkscape:perspective
       id="perspective3174"
       inkscape:persp3d-origin="0.5 : 0.33333333 : 1"
       inkscape:vp_z="1 : 0.5 : 1"
       inkscape:vp_y="0 : 1000 : 0"
       inkscape:vp_x="0 : 0.5 : 1"
       sodipodi:type="inkscape:persp3d" />
  </defs>
  <sodipodi:namedview
     id="base"
     pagecolor="#ffffff"
     bordercolor="#666666"
     borderopacity="1.0"
     inkscape:pageopacity="0.0"
     inkscape:pageshadow="2"
     inkscape:zoom="11.313709"
     inkscape:cx="15.14621"
     inkscape:cy="0.53199498"
     inkscape:document-units="px"
     inkscape:current-layer="layer1"
     showgrid="true"
     inkscape:window-width="1280"
     inkscape:window-height="780"
     inkscape:window-x="-8"
     inkscape:window-y="-8"
     inkscape:window-maximized="1">
    <inkscape:grid
       type="xygrid"
       id="grid6324"
       empspacing="5"
       visible="true"
       enabled="true"
       snapvisiblegridlinesonly="true" />
  </sodipodi:namedview>
  <metadata
     id="metadata7">
    <rdf:RDF>
      <cc:Work
         rdf:about="">
        <dc:format>image/svg+xml</dc:format>
        <dc:type
           rdf:resource="http://purl.org/dc/dcmitype/StillImage" />
        <dc:title></dc:title>
      </cc:Work>
    </rdf:RDF>
  </metadata>
  <g
     inkscape:label="Calque 1"
     inkscape:groupmode="layer"
     id="layer1"
     transform="translate(0,-1036.3622)">
    <g
       id="g3180"
       transform="translate(-0.340682,-0.1427)">
      <path
         style="fill:#dcd2d5"
         d="m 9.2574739,1050.3518 -0.4890773,-0.01 -1.2025901,-0.6353 c -0.6614246,-0.3495 -1.3796655,-0.64 -1.5960908,-0.6457 -0.2164254,-0.01 -0.6890282,-0.1631 -1.0502288,-0.3499 -0.3612006,-0.1868 -0.848283,-0.5312 -1.0824055,-0.7653 -0.2341226,-0.2341 -0.5240711,-0.4257 -0.6443301,-0.4257 l -0.2186527,0 0,-1.6216 0,-1.6217 -0.2532856,-0.084 -0.2532856,-0.084 1.3521891,-2.011 1.3521891,-2.0109 0.327193,0 c 0.1799561,0 1.1227944,0.4 2.0951964,0.8889 l 1.7680036,0.8889 0.3069349,-0.1178 0.3069352,-0.1177 0.5440413,0.2478 0.544041,0.2479 0,0.2947 0,0.2947 1.639895,0.8114 c 0.901943,0.4463 1.639896,0.8883 1.639896,0.9822 0,0.094 -0.09839,0.1707 -0.218653,0.1707 l -0.218653,0 0,1.8092 0,1.8092 -2.080092,1.0332 -2.0800929,1.0333 -0.4890772,-0.01 z"
         id="path3202" />
      <path
         style="fill:#d4c2c8"
         d="m 9.2057022,1050.3225 -0.4373056,-7e-4 -1.2025901,-0.6255 c -0.6614246,-0.344 -1.3714411,-0.6301 -1.5778143,-0.6358 -0.2063732,-0.01 -0.7229403,-0.1761 -1.147927,-0.3788 -0.4249866,-0.2026 -0.7850021,-0.4486 -0.8000344,-0.5466 -0.015032,-0.098 -0.042154,-0.6947 -0.06027,-1.3261 l -0.032938,-1.1479 0.3205628,-0.2462 0.3205629,-0.2461 -0.650947,-0.3367 -0.6509467,-0.3366 0.011774,1.4131 0.011775,1.413 0.3242159,0.229 0.3242157,0.229 -0.4005253,-0.13 c -0.2202892,-0.072 -0.4416751,-0.13 -0.4919687,-0.13 -0.050294,0 -0.091443,-0.7297 -0.091443,-1.6216 l 0,-1.6217 -0.2532856,-0.084 -0.2532856,-0.084 1.3521891,-2.011 1.3521891,-2.0109 0.327193,0 c 0.1799561,0 1.1227944,0.4 2.0951964,0.8889 l 1.7680036,0.8889 0.3069349,-0.1178 0.3069352,-0.1177 0.5440415,0.2478 0.544041,0.2479 0,0.2947 0,0.2947 1.639895,0.8114 c 0.901943,0.4463 1.639896,0.8883 1.639896,0.9822 0,0.094 -0.09839,0.1707 -0.218653,0.1707 l -0.218653,0 0,1.8126 0,1.8126 -2.131864,1.0104 -2.1318645,1.0104 -0.4373055,-7e-4 z m -0.2302491,-0.259 0.2070566,-0.058 0.038988,-1.4576 0.038988,-1.4576 -0.1826918,0.113 -0.1826918,0.1129 -1.2739379,-0.6431 -1.2739381,-0.6431 0.011884,1.4261 0.011884,1.4261 1.1987021,0.6197 c 0.6592864,0.3409 1.2918777,0.5937 1.4057588,0.5617 z m 0.011596,-0.1663 c -0.120259,0 -0.7598183,-0.2789 -1.4212429,-0.6283 -0.6614246,-0.3495 -1.1239087,-0.64 -1.0277423,-0.6457 0.096166,-0.01 0.4759725,0.1454 0.8440138,0.3358 l 0.6691658,0.346 -0.128701,-0.2083 c -0.070786,-0.1145 -0.4126456,-0.3258 -0.7596893,-0.4696 l -0.6309886,-0.2613 0.025002,-0.4778 0.025002,-0.4777 0.4373055,-0.2824 0.4373055,-0.2825 -0.5466319,0.1328 -0.5466319,0.1328 0.3279791,-0.2296 0.3279792,-0.2297 -0.3097582,0 -0.3097579,0 0.123893,-0.1239 0.1238933,-0.1239 1.2791287,0.6766 1.2791287,0.6765 -0.5466319,-0.1244 -0.5466319,-0.1245 0.4446422,0.2824 0.4446424,0.2825 0,0.4373 0,0.4373 -0.4446424,0.2824 -0.4446422,0.2825 0.5466319,-0.1328 0.5466319,-0.1328 -0.2980572,0.2065 -0.298057,0.2065 0.298057,0.1186 0.2980572,0.1185 -0.2186528,0.01 z m 0.6559583,0.232 c 0.120259,0 1.0534676,-0.4336 2.0737976,-0.9542 l 1.855144,-0.9465 0.01034,-1.6412 0.01034,-1.6412 -2.022671,1.0048 -2.0226709,1.0047 0.2665095,0.1694 0.2665094,0.1693 -0.327979,0.021 -0.3279792,0.021 0.2980572,0.1186 0.298057,0.1185 -0.298057,0.1888 -0.2980574,0.1889 0.3279791,0.01 0.3279793,0.01 -0.3279793,0.212 -0.3279791,0.212 0.3279791,0.01 0.3279793,0.01 -0.3279793,0.2119 -0.3279791,0.212 0.3279791,0.01 0.3279793,0.01 -0.3279793,0.2119 -0.3279791,0.212 0.3279791,0.01 0.3279793,0.01 -0.3279793,0.2119 -0.3279791,0.212 0.3279791,0.01 0.3279793,0.01 -0.3279793,0.2119 -0.3279791,0.212 0.2186528,-0.01 z m 0.4373056,-0.4372 -0.2186529,0.01 0.2980579,-0.1889 0.298057,-0.1888 -0.298057,-0.1185 -0.2980579,-0.1186 0.3279799,-0.021 0.327979,-0.021 -0.327979,-0.2359 -0.3279799,-0.2359 0.3279799,0.1089 c 0.180388,0.06 0.524766,0.1769 0.765284,0.2599 l 0.437306,0.151 -0.327979,-0.2536 -0.32798,-0.2536 0.546632,0.1379 0.546632,0.138 -0.327979,-0.2473 -0.327979,-0.2473 0.546632,0.138 0.546632,0.138 -0.327979,-0.2473 -0.32798,-0.2473 0.546632,0.1379 0.546632,0.138 -0.281919,-0.1965 -0.281918,-0.1966 0.695285,0 0.695284,0 -1.615956,0.8274 c -0.888776,0.455 -1.71435,0.8307 -1.834609,0.8348 z m 0.546632,-0.4231 0.291537,0 -0.145768,-0.1458 -0.145769,-0.1458 -0.145768,0.1458 -0.145769,0.1458 0.291537,0 z m -0.04595,-0.6593 c -0.03486,0 -0.16506,-0.076 -0.289343,-0.164 l -0.225968,-0.1607 -9.4e-4,-0.4373 -9.4e-4,-0.4373 1.382212,-0.7173 1.382213,-0.7174 0.273472,0.1707 0.273472,0.1708 -0.0019,0.4373 -0.0019,0.4373 -0.333586,0.2738 -0.333585,0.2739 0.437305,-0.1264 0.437306,-0.1264 -0.384374,0.247 -0.384374,0.247 -0.209422,-0.1294 -0.209422,-0.1294 -0.8734,0.4455 c -0.480369,0.2451 -0.901917,0.4441 -0.936773,0.4423 z m -0.549108,-1.5382 c -0.093623,-0.01 0.602444,-0.4059 1.546817,-0.8886 l 1.717043,-0.8776 0.123285,0.1233 0.123285,0.1233 -0.309758,0 -0.309758,0 0.327979,0.2359 0.327979,0.2359 -0.393908,-0.1274 -0.393908,-0.1274 -1.294415,0.6534 c -0.711929,0.3594 -1.371017,0.6485 -1.464641,0.6425 z m -6.4018285,0.2296 -0.2915369,0 0.1457684,-0.1458 0.1457685,-0.1457 0.1457686,0.1457 0.1457684,0.1458 -0.291537,0 z m 0,-0.4373 -0.2915369,0 0.1457684,-0.1458 0.1457685,-0.1457 0.1457686,0.1457 0.1457684,0.1458 -0.291537,0 z m 0,-0.4373 -0.2915369,0 0.1457684,-0.1458 0.1457685,-0.1458 0.1457686,0.1458 0.1457684,0.1458 -0.291537,0 z m 0,-0.4373 -0.2915369,0 0.1457684,-0.1458 0.1457685,-0.1458 0.1457686,0.1458 0.1457684,0.1458 -0.291537,0 z m -0.1093263,-0.444 -0.2186528,0 0.3279791,-0.212 0.3279792,-0.2119 -0.3097582,0 -0.3097579,0 0.114473,-0.1145 0.1144733,-0.1145 0.3776076,0.1449 0.3776076,0.1449 -0.2916491,0.1849 c -0.1604069,0.1017 -0.3900428,0.1849 -0.5103018,0.1849 z"
         id="path3200" />
      <path
         style="fill:#c3b0b6"
         d="m 8.9870494,1050.3411 c -0.120259,2e-4 -0.7598183,-0.2855 -1.4212429,-0.6349 -0.6614246,-0.3495 -1.3796655,-0.64 -1.5960908,-0.6457 -0.2164254,-0.01 -0.6890282,-0.1631 -1.0502288,-0.3499 -0.3612006,-0.1868 -0.848283,-0.5312 -1.0824055,-0.7653 -0.2341226,-0.2341 -0.5240711,-0.4257 -0.6443301,-0.4257 l -0.2186527,0 0,-1.6216 0,-1.6217 -0.2532856,-0.084 -0.2532856,-0.084 1.3521891,-2.011 1.3521891,-2.0109 0.327193,0 c 0.1799561,0 1.1227944,0.4 2.0951964,0.8889 l 1.7680036,0.8889 0.3069349,-0.1178 0.3069352,-0.1177 0.5440413,0.2478 0.544041,0.2479 0,0.2947 0,0.2947 1.639895,0.8114 c 0.901943,0.4463 1.639896,0.8883 1.639896,0.9822 0,0.094 -0.09839,0.1707 -0.218653,0.1707 l -0.218653,0 0,1.8092 0,1.8092 -2.080092,1.0332 c -1.144051,0.5684 -2.1771856,1.0333 -2.2958542,1.0333 l -0.2157613,0 0,-1.6528 0,-1.6528 -0.2099635,0.1298 -0.2099632,0.1298 -1.3206061,-0.6667 -1.3206058,-0.6666 0,1.4214 0,1.4213 1.4759061,0.7576 c 0.8117484,0.4166 1.3775124,0.7577 1.2572534,0.758 z m 0.6603274,-0.1976 c 0.062532,0 0.9972732,-0.4438 2.0772012,-0.9862 l 1.963506,-0.9861 0,-1.6362 0,-1.6363 -2.077202,1.0318 -2.0772007,1.0319 0,1.5905 c 0,0.8748 0.051163,1.5906 0.1136955,1.5906 z m 0.9613472,-1.5444 c -0.07015,0.01 -0.193143,-0.052 -0.273316,-0.132 -0.08017,-0.08 -0.145768,-0.3784 -0.145768,-0.6628 l 0,-0.517 0.382642,-0.1113 c 0.210453,-0.061 0.855979,-0.3459 1.434501,-0.6325 l 1.051859,-0.5211 0.114561,0.2986 c 0.06301,0.1641 0.08061,0.4748 0.03912,0.6902 l -0.07544,0.3918 -1.200302,0.5911 c -0.660167,0.3251 -1.257699,0.5973 -1.32785,0.605 z m -4.6336752,-0.5914 c 0.048664,-0.393 0.04766,-0.9834 -0.00223,-1.3119 l -0.090712,-0.5974 0.00223,1.3119 0.00223,1.3119 0.088479,-0.7145 z m -1.9483637,-1.3164 0.068649,-1.0191 0.2201391,-0.2652 0.2201392,-0.2653 -0.6714306,-0.3472 -0.6714308,-0.3472 0,1.416 0,1.416 0.3826423,0.2155 0.3826424,0.2156 0.068649,-1.0191 z m 4.322289,2.4916 -0.3458621,0.1328 0,-0.2535 0,-0.2534 -0.6559583,-0.2287 -0.6559583,-0.2286 0,-0.5019 0,-0.5018 0.3458621,-0.1327 c 0.1902244,-0.073 0.4218409,-0.1328 0.5147038,-0.1328 0.092863,0 0.4291935,0.2413 0.7474015,0.5362 l 0.5785602,0.5362 0,0.4478 c 0,0.2462 -0.04115,0.4477 -0.091443,0.4477 -0.050294,0 -0.2470811,0.06 -0.4373055,0.1327 z"
         id="path3198" />
      <path
         style="fill:#ab9ba0"
         d="m 8.9870494,1050.3411 c -0.120259,2e-4 -0.7598183,-0.2855 -1.4212429,-0.6349 -0.6614246,-0.3495 -1.3796655,-0.64 -1.5960908,-0.6457 -0.2164254,-0.01 -0.6890282,-0.1631 -1.0502288,-0.3499 -0.3612006,-0.1868 -0.848283,-0.5312 -1.0824055,-0.7653 -0.2341226,-0.2341 -0.5240711,-0.4257 -0.6443301,-0.4257 l -0.2186527,0 0,-1.6216 0,-1.6217 -0.2532856,-0.084 -0.2532856,-0.084 1.3521891,-2.011 1.3521891,-2.0109 0.327193,0 c 0.1799561,0 1.1227944,0.4 2.0951964,0.8889 l 1.7680036,0.8889 0.3069349,-0.1178 0.3069352,-0.1177 0.5440413,0.2478 0.544041,0.2479 0,0.2902 0,0.2901 1.585232,0.7937 c 0.871878,0.4365 1.62623,0.8313 1.676338,0.8773 0.05011,0.046 0.03547,0.1393 -0.03254,0.2074 l -0.123643,0.1236 -1.355625,-0.6843 -1.355625,-0.6843 0.129654,0.2097 0.129653,0.2098 -0.340582,0.1307 -0.340582,0.1307 0.121929,0.1973 0.12193,0.1973 -0.340582,0.1307 -0.340582,0.1307 0.121929,0.1973 0.121929,0.1972 -0.340582,0.1307 -0.340582,0.1307 0.121929,0.1973 0.12193,0.1973 -0.340582,0.1307 -0.3405822,0.1307 0.1245474,0.2015 0.1245472,0.2015 -0.2548778,0.085 -0.254878,0.085 0.050665,1.7351 c 0.027866,0.9544 0.082492,1.767 0.1213912,1.8059 0.038899,0.039 0.9665292,-0.3791 2.0613992,-0.929 l 1.990673,-0.9998 0,-1.6399 0,-1.6399 -1.990673,0.9998 c -1.09487,0.5499 -2.037026,0.9534 -2.0936794,0.8968 -0.056653,-0.057 0.1141969,-0.172 0.3796672,-0.2562 l 0.4826742,-0.1532 -0.302206,-0.2091 -0.3022069,-0.2091 0.5466319,0.138 0.546632,0.138 -0.302206,-0.2091 -0.302206,-0.2091 0.495086,-0.1571 0.495086,-0.1571 -0.302206,-0.2091 -0.302207,-0.2091 0.546632,0.138 0.546632,0.138 -0.327979,-0.2473 -0.327979,-0.2473 0.546632,0.1379 0.546632,0.138 -0.291649,-0.2025 -0.291649,-0.2026 0.362151,-0.139 0.362152,-0.1389 0.405627,0.2171 0.405626,0.217 0.343819,-0.1319 0.343818,-0.1319 0,1.8326 0,1.8326 -2.080092,1.0332 c -1.144051,0.5684 -2.1771859,1.0333 -2.2958545,1.0333 l -0.2157613,0 0,-1.6528 0,-1.6528 -0.2099635,0.1298 -0.2099632,0.1298 -1.3206061,-0.6667 -1.3206058,-0.6666 0,1.4214 0,1.4213 1.4759061,0.7576 c 0.8117484,0.4166 1.3775124,0.7577 1.2572534,0.758 z m -3.0120006,-2.3334 c 0.048664,-0.393 0.04766,-0.9834 -0.00223,-1.3119 l -0.090712,-0.5974 0.00223,1.3119 0.00223,1.3119 0.088479,-0.7145 z m -1.9483637,-1.3164 0.068649,-1.0191 0.2201391,-0.2652 0.2201392,-0.2653 -0.6714306,-0.3472 -0.6714308,-0.3472 0,1.416 0,1.416 0.3826423,0.2155 0.3826424,0.2156 0.068649,-1.0191 z m 6.9282389,-0.722 c 0.120259,0 0.650331,-0.2258 1.177937,-0.5018 l 0.959285,-0.5019 -0.389285,-0.1494 -0.389285,-0.1493 -0.114473,0.1144 -0.114473,0.1145 0.309758,0.01 0.309758,0.01 -0.983937,0.5268 c -0.541166,0.2898 -0.885544,0.5269 -0.765285,0.5269 z m -2.6059499,3.2136 -0.3458621,0.1328 0,-0.2535 0,-0.2534 -0.6559583,-0.2287 -0.6559583,-0.2286 0,-0.5019 0,-0.5018 0.3458621,-0.1327 c 0.1902244,-0.073 0.4218409,-0.1328 0.5147038,-0.1328 0.092863,0 0.4291935,0.2413 0.7474015,0.5362 l 0.5785602,0.5362 0,0.4478 c 0,0.2462 -0.04115,0.4477 -0.091443,0.4477 -0.050294,0 -0.2470811,0.06 -0.4373055,0.1327 z m 2.2597499,-0.5838 c -0.07015,0.01 -0.193143,-0.052 -0.273316,-0.132 -0.08017,-0.08 -0.145768,-0.3784 -0.145768,-0.6628 l 0,-0.517 0.382642,-0.1113 c 0.210453,-0.061 0.855979,-0.3459 1.434501,-0.6325 l 1.051859,-0.5211 0.114561,0.2986 c 0.06301,0.1641 0.08061,0.4748 0.03912,0.6902 l -0.07544,0.3918 -1.200302,0.5911 c -0.660167,0.3251 -1.257699,0.5973 -1.32785,0.605 z m 0.674179,-0.5328 0.218653,-0.1352 0,-0.4373 0,-0.4373 -0.218653,0.1352 -0.218652,0.1351 0,0.4373 0,0.4373 0.218652,-0.1351 z m 0.710622,-0.3816 0.273316,-0.09 0.06973,-0.4737 0.06973,-0.4738 -0.343045,0.1316 -0.343045,0.1317 0,0.4321 0,0.4321 0.273316,-0.09 z m -1.36658,-2.1329 -0.291537,0 0.145769,-0.1458 0.145768,-0.1458 0.145769,0.1458 0.145768,0.1458 -0.291537,0 z m 0.284174,-0.6637 c -0.09617,0 0.07114,-0.1484 0.371784,-0.3203 l 0.546632,-0.3124 -0.327979,-0.014 -0.327979,-0.014 0.377383,-0.22 0.377383,-0.2199 0.825207,0.4356 c 0.453864,0.2395 0.744943,0.4399 0.646843,0.4452 -0.0981,0.01 -0.367794,-0.092 -0.59932,-0.2156 l -0.420957,-0.2253 -0.647074,0.3346 c -0.355891,0.184 -0.725756,0.3311 -0.821923,0.3269 z m 1.027743,-0.6482 0.291537,0 -0.145769,-0.1458 -0.145768,-0.1458 -0.145769,0.1458 -0.145768,0.1458 0.291537,0 z"
         id="path3196" />
      <path
         style="fill:#ad7183"
         d="m 8.9870494,1050.3411 c -0.120259,2e-4 -0.7598183,-0.2855 -1.4212429,-0.6349 -0.6614246,-0.3495 -1.3796655,-0.64 -1.5960908,-0.6457 -0.2164254,-0.01 -0.6890282,-0.1631 -1.0502288,-0.3499 -0.3612006,-0.1868 -0.848283,-0.5312 -1.0824055,-0.7653 -0.2341226,-0.2341 -0.5240711,-0.4257 -0.6443301,-0.4257 l -0.2186527,0 0,-1.6216 0,-1.6217 -0.2532856,-0.084 -0.2532856,-0.084 1.3521891,-2.011 1.3521891,-2.0109 0.327193,0 c 0.1799561,0 1.1227944,0.4 2.0951964,0.8889 l 1.7680036,0.8889 0.3069349,-0.1178 0.3069352,-0.1177 0.5440413,0.2478 0.544041,0.2479 0,0.2947 0,0.2947 1.639895,0.8114 c 0.901943,0.4463 1.639896,0.8883 1.639896,0.9822 0,0.094 -0.09839,0.1707 -0.218653,0.1707 l -0.218653,0 0,1.8092 0,1.8092 -2.080092,1.0332 c -1.144051,0.5684 -2.1771856,1.0333 -2.2958542,1.0333 l -0.2157613,0 0,-1.6528 0,-1.6528 -0.2099635,0.1298 -0.2099632,0.1298 -1.3206061,-0.6667 -1.3206058,-0.6666 0,1.4214 0,1.4213 1.4759061,0.7576 c 0.8117484,0.4166 1.3775124,0.7577 1.2572534,0.758 z m 0.6769771,-0.1976 c 0.053375,0 0.9806235,-0.4438 2.0605515,-0.9862 l 1.963506,-0.9861 0,-1.6399 0,-1.6399 -1.990673,0.9998 c -1.09487,0.5499 -2.0267455,0.9637 -2.0708342,0.9196 -0.044089,-0.044 0.9009112,-0.5629 2.0999992,-1.1528 1.199088,-0.59 2.18016,-1.1336 2.18016,-1.2081 0,-0.074 -0.493916,-0.3666 -1.097591,-0.6494 l -1.097592,-0.5141 -0.185802,0.2034 c -0.102191,0.1119 -0.61681,0.8538 -1.143599,1.6486 l -0.9577971,1.4452 0.071313,1.7799 c 0.039222,0.979 0.1149835,1.78 0.1683586,1.78 z m 0.9446975,-1.5444 c -0.07015,0.01 -0.193143,-0.052 -0.273316,-0.132 -0.08017,-0.08 -0.145768,-0.3784 -0.145768,-0.6628 l 0,-0.517 0.382642,-0.1113 c 0.210453,-0.061 0.855979,-0.3459 1.434501,-0.6325 l 1.051859,-0.5211 0.114561,0.2986 c 0.06301,0.1641 0.08061,0.4748 0.03912,0.6902 l -0.07544,0.3918 -1.200302,0.5911 c -0.660167,0.3251 -1.257699,0.5973 -1.32785,0.605 z m 0.674179,-0.5328 0.218653,-0.1352 0,-0.4373 0,-0.4373 -0.218653,0.1352 -0.218652,0.1351 0,0.4373 0,0.4373 0.218652,-0.1351 z m 0.710622,-0.3816 0.273316,-0.09 0.06973,-0.4737 0.06973,-0.4738 -0.343045,0.1316 -0.343045,0.1317 0,0.4321 0,0.4321 0.273316,-0.09 z m -6.0184762,0.323 c 0.048664,-0.393 0.04766,-0.9834 -0.00223,-1.3119 l -0.090712,-0.5974 0.00223,1.3119 0.00223,1.3119 0.088479,-0.7145 z m -1.9483637,-1.3164 0.068649,-1.0191 0.2201391,-0.2652 0.2201392,-0.2653 -0.6714306,-0.3472 -0.6714308,-0.3472 0,1.416 0,1.416 0.3826423,0.2155 0.3826424,0.2156 0.068649,-1.0191 z m 4.0678703,2.5776 c -0.050294,0 -0.1018694,-0.123 -0.1146125,-0.2733 -0.012743,-0.1504 -0.00635,-0.5342 0.014206,-0.853 l 0.037373,-0.5796 -0.2622329,-0.1621 -0.2622328,-0.162 0.1008328,0.687 0.1008326,0.687 -0.1629005,0 c -0.089595,0 -0.3185386,-0.06 -0.508763,-0.1327 l -0.3458621,-0.1327 0,-0.4999 0,-0.4998 0.3458621,-0.1327 c 0.1902244,-0.073 0.4218409,-0.1328 0.5147038,-0.1328 0.092863,0 0.4291935,0.2413 0.7474015,0.5362 l 0.5785602,0.5362 0,0.4244 0,0.4243 -0.3458621,0.1327 c -0.1902244,0.073 -0.3870119,0.1328 -0.4373055,0.1328 z"
         id="path3194" />
      <path
         style="fill:#6d6969"
         d="m 8.9870494,1050.3411 c -0.120259,2e-4 -0.7598183,-0.2855 -1.4212429,-0.6349 -0.6614246,-0.3495 -1.3796655,-0.64 -1.5960908,-0.6457 -0.2164254,-0.01 -0.6890282,-0.1631 -1.0502288,-0.3499 -0.3612006,-0.1868 -0.848283,-0.5312 -1.0824055,-0.7653 -0.2341226,-0.2341 -0.5240711,-0.4257 -0.6443301,-0.4257 l -0.2186527,0 0,-1.6216 0,-1.6217 -0.2532856,-0.084 -0.2532856,-0.084 1.3521891,-2.011 1.3521891,-2.0109 0.327193,0 c 0.1799561,0 1.1227944,0.4 2.0951964,0.8889 l 1.7680036,0.8889 0.3069349,-0.1178 0.3069352,-0.1177 0.5440413,0.2478 0.544041,0.2479 0,0.2947 0,0.2947 1.639895,0.8114 c 0.901943,0.4463 1.639896,0.8883 1.639896,0.9822 0,0.094 -0.09839,0.1707 -0.218653,0.1707 l -0.218653,0 0,1.8092 0,1.8092 -2.080092,1.0332 c -1.144051,0.5684 -2.1771856,1.0333 -2.2958542,1.0333 l -0.2157613,0 0,-1.6528 0,-1.6528 -0.2099635,0.1298 -0.2099632,0.1298 -1.3206061,-0.6667 -1.3206058,-0.6666 0,1.4214 0,1.4213 1.4759061,0.7576 c 0.8117484,0.4166 1.3775124,0.7577 1.2572534,0.758 z m 0.6769771,-0.1976 c 0.053375,0 0.9806235,-0.4438 2.0605515,-0.9862 l 1.963506,-0.9861 0,-1.6399 0,-1.6399 -1.990673,0.9998 c -1.09487,0.5499 -2.0267455,0.9637 -2.0708342,0.9196 -0.044089,-0.044 0.9009112,-0.5629 2.0999992,-1.1528 1.199088,-0.59 2.18016,-1.1336 2.18016,-1.2081 0,-0.074 -0.493916,-0.3666 -1.097591,-0.6494 l -1.097592,-0.5141 -0.185802,0.2034 c -0.102191,0.1119 -0.61681,0.8538 -1.143599,1.6486 l -0.9577971,1.4452 0.071313,1.7799 c 0.039222,0.979 0.1149835,1.78 0.1683586,1.78 z m 0.9446975,-1.5444 c -0.07015,0.01 -0.193143,-0.052 -0.273316,-0.132 -0.08017,-0.08 -0.145768,-0.3784 -0.145768,-0.6628 l 0,-0.517 0.382642,-0.1113 c 0.210453,-0.061 0.855979,-0.3459 1.434501,-0.6325 l 1.051859,-0.5211 0.114561,0.2986 c 0.06301,0.1641 0.08061,0.4748 0.03912,0.6902 l -0.07544,0.3918 -1.200302,0.5911 c -0.660167,0.3251 -1.257699,0.5973 -1.32785,0.605 z m 0.674179,-0.5328 0.218653,-0.1352 0,-0.4373 0,-0.4373 -0.218653,0.1352 -0.218652,0.1351 0,0.4373 0,0.4373 0.218652,-0.1351 z m 0.710622,-0.3816 0.273316,-0.09 0.06973,-0.4737 0.06973,-0.4738 -0.343045,0.1316 -0.343045,0.1317 0,0.4321 0,0.4321 0.273316,-0.09 z m -6.4502565,1.1381 c 0.030065,0 0.054663,-0.4807 0.054663,-1.0789 l 0,-1.0876 -0.6559583,-0.3392 -0.6559583,-0.3393 0,1.0919 0,1.0919 0.6012951,0.3262 c 0.3307123,0.1795 0.6258935,0.3302 0.6559583,0.335 z m -0.273316,-1.0845 c -0.060129,0 -0.1093264,-0.049 -0.1093264,-0.1093 0,-0.06 0.049197,-0.1094 0.1093264,-0.1094 0.06013,0 0.1093264,0.049 0.1093264,0.1094 0,0.06 -0.049197,0.1093 -0.1093264,0.1093 z m 0.6675097,0.8746 0.120878,0 -0.045609,-1.4088 -0.045608,-1.4088 -0.6340661,-0.2627 -0.6340661,-0.2626 -0.2316116,0.2316 -0.2316117,0.2316 0.6533603,0.3379 0.6533602,0.3378 0.1370481,-0.137 0.137048,-0.1371 0,1.2391 0,1.239 0.1208778,0 z m -1.9107771,-1.9216 0.068649,-1.0191 0.2201391,-0.2652 0.2201392,-0.2653 -0.6714306,-0.3472 -0.6714308,-0.3472 0,1.416 0,1.416 0.3826423,0.2155 0.3826424,0.2156 0.068649,-1.0191 z m 4.0678703,2.5776 c -0.050294,0 -0.1018694,-0.123 -0.1146125,-0.2733 -0.012743,-0.1504 -0.00635,-0.5342 0.014206,-0.853 l 0.037373,-0.5796 -0.2622329,-0.1621 -0.2622328,-0.162 0.1008328,0.687 0.1008326,0.687 -0.1629005,0 c -0.089595,0 -0.3185386,-0.06 -0.508763,-0.1327 l -0.3458621,-0.1327 0,-0.4999 0,-0.4998 0.3458621,-0.1327 c 0.1902244,-0.073 0.4218409,-0.1328 0.5147038,-0.1328 0.092863,0 0.4291935,0.2413 0.7474015,0.5362 l 0.5785602,0.5362 0,0.4244 0,0.4243 -0.3458621,0.1327 c -0.1902244,0.073 -0.3870119,0.1328 -0.4373055,0.1328 z"
         id="path3192" />
      <path
         style="fill:#98494b"
         d="m 8.9870494,1050.3411 c -0.120259,2e-4 -0.7598183,-0.2855 -1.4212429,-0.6349 -0.6614246,-0.3495 -1.3796655,-0.64 -1.5960908,-0.6457 -0.2164254,-0.01 -0.6890282,-0.1631 -1.0502288,-0.3499 -0.3612006,-0.1868 -0.848283,-0.5312 -1.0824055,-0.7653 -0.2341226,-0.2341 -0.5240711,-0.4257 -0.6443301,-0.4257 l -0.2186527,0 0,-1.6216 0,-1.6217 -0.2532856,-0.084 -0.2532856,-0.084 1.3521891,-2.011 1.3521891,-2.0109 0.327193,0 c 0.1799561,0 1.1227944,0.4 2.0951964,0.8889 l 1.7680036,0.8889 0.3069349,-0.1178 0.3069352,-0.1177 0.5440413,0.2478 0.544041,0.2479 0,0.2947 0,0.2947 1.639895,0.8114 c 0.901943,0.4463 1.639896,0.8883 1.639896,0.9822 0,0.094 -0.09839,0.1707 -0.218653,0.1707 l -0.218653,0 0,1.8092 0,1.8092 -2.080092,1.0332 c -1.144051,0.5684 -2.1771856,1.0333 -2.2958542,1.0333 l -0.2157613,0 0,-1.6528 0,-1.6528 -0.2099635,0.1298 -0.2099632,0.1298 -1.3206061,-0.6667 -1.3206058,-0.6666 0,1.4214 0,1.4213 1.4759061,0.7576 c 0.8117484,0.4166 1.3775124,0.7577 1.2572534,0.758 z m 0.6769771,-0.1976 c 0.053375,0 0.9806235,-0.4438 2.0605515,-0.9862 l 1.963506,-0.9861 0,-1.6399 0,-1.6399 -1.990673,0.9998 c -1.09487,0.5499 -2.0267455,0.9637 -2.0708342,0.9196 -0.044089,-0.044 0.9009112,-0.5629 2.0999992,-1.1528 1.199088,-0.59 2.18016,-1.1336 2.18016,-1.2081 0,-0.074 -0.493916,-0.3666 -1.097591,-0.6494 l -1.097592,-0.5141 -0.185802,0.2034 c -0.102191,0.1119 -0.61681,0.8538 -1.143599,1.6486 l -0.9577971,1.4452 0.071313,1.7799 c 0.039222,0.979 0.1149835,1.78 0.1683586,1.78 z m 0.9446975,-1.5444 c -0.07015,0.01 -0.193143,-0.052 -0.273316,-0.132 -0.08017,-0.08 -0.145768,-0.3784 -0.145768,-0.6628 l 0,-0.517 0.382642,-0.1113 c 0.210453,-0.061 0.855979,-0.3459 1.434501,-0.6325 l 1.051859,-0.5211 0.114561,0.2986 c 0.06301,0.1641 0.08061,0.4748 0.03912,0.6902 l -0.07544,0.3918 -1.200302,0.5911 c -0.660167,0.3251 -1.257699,0.5973 -1.32785,0.605 z m 0.674179,-0.5328 0.218653,-0.1352 0,-0.4373 0,-0.4373 -0.218653,0.1352 -0.218652,0.1351 0,0.4373 0,0.4373 0.218652,-0.1351 z m 0.710622,-0.3816 0.273316,-0.09 0.06973,-0.4737 0.06973,-0.4738 -0.343045,0.1316 -0.343045,0.1317 0,0.4321 0,0.4321 0.273316,-0.09 z m -6.4502565,1.1381 c 0.030065,0 0.054663,-0.4807 0.054663,-1.0789 l 0,-1.0876 -0.6559583,-0.3392 -0.6559583,-0.3393 0,1.0919 0,1.0919 0.6012951,0.3262 c 0.3307123,0.1795 0.6258935,0.3302 0.6559583,0.335 z m -0.273316,-1.0845 c -0.060129,0 -0.1093264,-0.049 -0.1093264,-0.1093 0,-0.06 0.049197,-0.1094 0.1093264,-0.1094 0.06013,0 0.1093264,0.049 0.1093264,0.1094 0,0.06 -0.049197,0.1093 -0.1093264,0.1093 z m 0.6675097,0.8746 0.120878,0 -0.045609,-1.4088 -0.045608,-1.4088 -0.6340661,-0.2627 -0.6340661,-0.2626 -0.2316116,0.2316 -0.2316117,0.2316 0.6533603,0.3379 0.6533602,0.3378 0.1370481,-0.137 0.137048,-0.1371 0,1.2391 0,1.239 0.1208778,0 z m -1.9107771,-1.9216 0.068649,-1.0191 0.2201391,-0.2652 0.2201392,-0.2653 -0.6714306,-0.3472 -0.6714308,-0.3472 0,1.416 0,1.416 0.3826423,0.2155 0.3826424,0.2156 0.068649,-1.0191 z m 5.9443017,-4.2074 c 0.060129,0 0.2405682,-0.083 0.4009752,-0.1848 l 0.291649,-0.1849 -0.346312,-0.1329 -0.3463122,-0.1329 -0.3463123,0.1329 -0.3463123,0.1329 0.2916491,0.1849 c 0.160407,0.1016 0.340846,0.1848 0.4009755,0.1848 z m -1.8764314,6.785 c -0.050294,0 -0.1018694,-0.123 -0.1146125,-0.2733 -0.012743,-0.1504 -0.00635,-0.5342 0.014206,-0.853 l 0.037373,-0.5796 -0.2622329,-0.1621 -0.2622328,-0.162 0.1008328,0.687 0.1008326,0.687 -0.1629005,0 c -0.089595,0 -0.3185386,-0.06 -0.508763,-0.1327 l -0.3458621,-0.1327 0,-0.4999 0,-0.4998 0.3458621,-0.1327 c 0.1902244,-0.073 0.4218409,-0.1328 0.5147038,-0.1328 0.092863,0 0.4291935,0.2413 0.7474015,0.5362 l 0.5785602,0.5362 0,0.4244 0,0.4243 -0.3458621,0.1327 c -0.1902244,0.073 -0.3870119,0.1328 -0.4373055,0.1328 z"
         id="path3190" />
      <path
         style="fill:#8c3535"
         d="m 8.9870494,1050.3411 c -0.120259,2e-4 -0.7598183,-0.2855 -1.4212429,-0.6349 -0.6614246,-0.3495 -1.3796655,-0.64 -1.5960908,-0.6457 -0.2164254,-0.01 -0.6890282,-0.1631 -1.0502288,-0.3499 -0.3612006,-0.1868 -0.848283,-0.5312 -1.0824055,-0.7653 -0.2341226,-0.2341 -0.5240711,-0.4257 -0.6443301,-0.4257 l -0.2186527,0 0,-1.6216 0,-1.6217 -0.2532856,-0.084 -0.2532856,-0.084 1.3521891,-2.011 1.3521891,-2.0109 0.327193,0 c 0.1799561,0 1.1227944,0.4 2.0951964,0.8889 l 1.7680036,0.8889 0.3069349,-0.1178 0.3069352,-0.1177 0.5440413,0.2478 0.544041,0.2479 0,0.2947 0,0.2947 1.639895,0.8114 c 0.901943,0.4463 1.639896,0.8883 1.639896,0.9822 0,0.094 -0.09839,0.1707 -0.218653,0.1707 l -0.218653,0 0,1.8092 0,1.8092 -2.080092,1.0332 c -1.144051,0.5684 -2.1771856,1.0333 -2.2958542,1.0333 l -0.2157613,0 0,-1.6528 0,-1.6528 -0.2099635,0.1298 -0.2099632,0.1298 -1.3206061,-0.6667 -1.3206058,-0.6666 0,1.4214 0,1.4213 1.4759061,0.7576 c 0.8117484,0.4166 1.3775124,0.7577 1.2572534,0.758 z m 0.6769771,-0.1976 c 0.053375,0 0.9806235,-0.4438 2.0605515,-0.9862 l 1.963506,-0.9861 0,-1.6399 0,-1.6399 -1.990673,0.9998 c -1.09487,0.5499 -2.0267455,0.9637 -2.0708342,0.9196 -0.044089,-0.044 0.9009112,-0.5629 2.0999992,-1.1528 1.199088,-0.59 2.18016,-1.1336 2.18016,-1.2081 0,-0.074 -0.493916,-0.3666 -1.097591,-0.6494 l -1.097592,-0.5141 -0.185802,0.2034 c -0.102191,0.1119 -0.61681,0.8538 -1.143599,1.6486 l -0.9577971,1.4452 0.071313,1.7799 c 0.039222,0.979 0.1149835,1.78 0.1683586,1.78 z m 0.9446975,-1.5444 c -0.07015,0.01 -0.193143,-0.052 -0.273316,-0.132 -0.08017,-0.08 -0.145768,-0.3784 -0.145768,-0.6628 l 0,-0.517 0.382642,-0.1113 c 0.210453,-0.061 0.855979,-0.3459 1.434501,-0.6325 l 1.051859,-0.5211 0.114561,0.2986 c 0.06301,0.1641 0.08061,0.4748 0.03912,0.6902 l -0.07544,0.3918 -1.200302,0.5911 c -0.660167,0.3251 -1.257699,0.5973 -1.32785,0.605 z m 0.674179,-0.5328 0.218653,-0.1352 0,-0.4373 0,-0.4373 -0.218653,0.1352 -0.218652,0.1351 0,0.4373 0,0.4373 0.218652,-0.1351 z m 0.710622,-0.3816 0.273316,-0.09 0.06973,-0.4737 0.06973,-0.4738 -0.343045,0.1316 -0.343045,0.1317 0,0.4321 0,0.4321 0.273316,-0.09 z m -6.4502565,1.1381 c 0.030065,0 0.054663,-0.4807 0.054663,-1.0789 l 0,-1.0876 -0.6559583,-0.3392 -0.6559583,-0.3393 0,1.0919 0,1.0919 0.6012951,0.3262 c 0.3307123,0.1795 0.6258935,0.3302 0.6559583,0.335 z m -0.273316,-1.0845 c -0.060129,0 -0.1093264,-0.049 -0.1093264,-0.1093 0,-0.06 0.049197,-0.1094 0.1093264,-0.1094 0.06013,0 0.1093264,0.049 0.1093264,0.1094 0,0.06 -0.049197,0.1093 -0.1093264,0.1093 z m 0.6675097,0.8746 0.120878,0 -0.045609,-1.4088 -0.045608,-1.4088 -0.6340661,-0.2627 -0.6340661,-0.2626 -0.2316116,0.2316 -0.2316117,0.2316 0.6533603,0.3379 0.6533602,0.3378 0.1370481,-0.137 0.137048,-0.1371 0,1.2391 0,1.239 0.1208778,0 z m -1.9107771,-1.9216 0.068649,-1.0191 0.2201391,-0.2652 0.2201392,-0.2653 -0.6714306,-0.3472 -0.6714308,-0.3472 0,1.416 0,1.416 0.3826423,0.2155 0.3826424,0.2156 0.068649,-1.0191 z m 1.2692219,-2.2238 c 0.2775355,-0.3298 0.9018003,-1.1283 1.3872549,-1.7743 0.4854544,-0.6461 0.8826446,-1.2492 0.8826446,-1.3402 0,-0.091 -0.3896552,-0.3642 -0.8659004,-0.6071 -0.4762451,-0.243 -1.0026412,-0.4418 -1.1697688,-0.4418 l -0.3038688,0 -1.2185435,1.8311 -1.2185433,1.831 1.0010575,0.5505 1.0010575,0.5505 0.5046103,-0.5997 z m 4.6750798,-1.9836 c 0.060129,0 0.2405682,-0.083 0.4009752,-0.1848 l 0.291649,-0.1849 -0.346312,-0.1329 -0.3463122,-0.1329 -0.3463123,0.1329 -0.3463123,0.1329 0.2916491,0.1849 c 0.160407,0.1016 0.340846,0.1848 0.4009755,0.1848 z m -1.8764314,6.785 c -0.050294,0 -0.1018694,-0.123 -0.1146125,-0.2733 -0.012743,-0.1504 -0.00635,-0.5342 0.014206,-0.853 l 0.037373,-0.5796 -0.2622329,-0.1621 -0.2622328,-0.162 0.1008328,0.687 0.1008326,0.687 -0.1629005,0 c -0.089595,0 -0.3185386,-0.06 -0.508763,-0.1327 l -0.3458621,-0.1327 0,-0.4999 0,-0.4998 0.3458621,-0.1327 c 0.1902244,-0.073 0.4218409,-0.1328 0.5147038,-0.1328 0.092863,0 0.4291935,0.2413 0.7474015,0.5362 l 0.5785602,0.5362 0,0.4244 0,0.4243 -0.3458621,0.1327 c -0.1902244,0.073 -0.3870119,0.1328 -0.4373055,0.1328 z"
         id="path3188" />
      <path
         style="fill:#19218c"
         d="m 8.9870494,1050.3411 c -0.120259,2e-4 -0.7598183,-0.2855 -1.4212429,-0.6349 -0.6614246,-0.3495 -1.3796655,-0.64 -1.5960908,-0.6457 -0.2164254,-0.01 -0.6890282,-0.1631 -1.0502288,-0.3499 -0.3612006,-0.1868 -0.848283,-0.5312 -1.0824055,-0.7653 -0.2341226,-0.2341 -0.5240711,-0.4257 -0.6443301,-0.4257 l -0.2186527,0 0,-1.6216 0,-1.6217 -0.2532856,-0.084 -0.2532856,-0.084 1.3521891,-2.011 1.3521891,-2.0109 0.327193,0 c 0.1799561,0 1.1227944,0.4 2.0951964,0.8889 l 1.7680036,0.8889 0.3069349,-0.1178 0.3069352,-0.1177 0.5440413,0.2478 0.544041,0.2479 0,0.2947 0,0.2947 1.639895,0.8114 c 0.901943,0.4463 1.639896,0.8883 1.639896,0.9822 0,0.094 -0.09839,0.1707 -0.218653,0.1707 l -0.218653,0 0,1.8092 0,1.8092 -2.080092,1.0332 c -1.144051,0.5684 -2.1771856,1.0333 -2.2958542,1.0333 l -0.2157613,0 0,-1.6528 0,-1.6528 -0.2099635,0.1298 -0.2099632,0.1298 -1.3206061,-0.6667 -1.3206058,-0.6666 0,1.4214 0,1.4213 1.4759061,0.7576 c 0.8117484,0.4166 1.3775124,0.7577 1.2572534,0.758 z m 0.6769771,-0.1976 c 0.053375,0 0.9806235,-0.4438 2.0605515,-0.9862 l 1.963506,-0.9861 0,-1.6399 0,-1.6399 -1.990673,0.9998 c -1.09487,0.5499 -2.0267455,0.9637 -2.0708342,0.9196 -0.044089,-0.044 0.9009112,-0.5629 2.0999992,-1.1528 1.199088,-0.59 2.18016,-1.1336 2.18016,-1.2081 0,-0.074 -0.493916,-0.3666 -1.097591,-0.6494 l -1.097592,-0.5141 -0.185802,0.2034 c -0.102191,0.1119 -0.61681,0.8538 -1.143599,1.6486 l -0.9577971,1.4452 0.071313,1.7799 c 0.039222,0.979 0.1149835,1.78 0.1683586,1.78 z m 0.9446975,-1.5444 c -0.07015,0.01 -0.193143,-0.052 -0.273316,-0.132 -0.08017,-0.08 -0.145768,-0.3784 -0.145768,-0.6628 l 0,-0.517 0.382642,-0.1113 c 0.210453,-0.061 0.855979,-0.3459 1.434501,-0.6325 l 1.051859,-0.5211 0.114561,0.2986 c 0.06301,0.1641 0.08061,0.4748 0.03912,0.6902 l -0.07544,0.3918 -1.200302,0.5911 c -0.660167,0.3251 -1.257699,0.5973 -1.32785,0.605 z m 0.674179,-0.5328 0.218653,-0.1352 0,-0.4373 0,-0.4373 -0.218653,0.1352 -0.218652,0.1351 0,0.4373 0,0.4373 0.218652,-0.1351 z m 0.710622,-0.3816 0.273316,-0.09 0.06973,-0.4737 0.06973,-0.4738 -0.343045,0.1316 -0.343045,0.1317 0,0.4321 0,0.4321 0.273316,-0.09 z m -6.4502565,1.1381 c 0.030065,0 0.054663,-0.4807 0.054663,-1.0789 l 0,-1.0876 -0.6559583,-0.3392 -0.6559583,-0.3393 0,1.0919 0,1.0919 0.6012951,0.3262 c 0.3307123,0.1795 0.6258935,0.3302 0.6559583,0.335 z m -0.273316,-1.0845 c -0.060129,0 -0.1093264,-0.049 -0.1093264,-0.1093 0,-0.06 0.049197,-0.1094 0.1093264,-0.1094 0.06013,0 0.1093264,0.049 0.1093264,0.1094 0,0.06 -0.049197,0.1093 -0.1093264,0.1093 z m 0.6675097,0.8746 0.120878,0 -0.045609,-1.4088 -0.045608,-1.4088 -0.6340661,-0.2627 -0.6340661,-0.2626 -0.2316116,0.2316 -0.2316117,0.2316 0.6533603,0.3379 0.6533602,0.3378 0.1370481,-0.137 0.137048,-0.1371 0,1.2391 0,1.239 0.1208778,0 z m -1.9107771,-1.9216 0.068649,-1.0191 0.2201391,-0.2652 0.2201392,-0.2653 -0.6714306,-0.3472 -0.6714308,-0.3472 0,1.416 0,1.416 0.3826423,0.2155 0.3826424,0.2156 0.068649,-1.0191 z m 3.2263747,-0.4912 c 0.1286367,0 0.4252061,-0.2138 0.659043,-0.4843 0.2338369,-0.2706 0.6590999,-0.822 0.945029,-1.2252 l 0.519871,-0.7333 -0.2764989,-0.1709 -0.2764991,-0.1708 0.089386,-0.7657 0.089386,-0.7656 -1.5967133,-0.7901 c -0.8781923,-0.4346 -1.7279065,-0.7901 -1.8882537,-0.7901 l -0.2915407,0 -1.2260962,1.8424 -1.2260962,1.8424 2.1225491,1.1018 c 1.1674022,0.606 2.2277977,1.1053 2.3564346,1.1094 z m 2.6840293,-2.8902 0.075429,-0.4668 -0.3406983,-0.2491 -0.3406979,-0.2491 0.7025752,0 0.702574,0 -0.273315,0.091 -0.273316,0.091 0,0.5466 0,0.5466 0.273316,-0.09 0.273315,-0.09 0.06777,-0.5697 0.06777,-0.5697 -0.450409,-0.2411 -0.45041,-0.241 -0.4373055,0.234 -0.4373055,0.2341 0,0.528 0,0.5281 0.3826423,0.2166 0.3826423,0.2165 0.075429,-0.4667 z m -1.8425337,5.959 c -0.050294,0 -0.1018694,-0.123 -0.1146125,-0.2733 -0.012743,-0.1504 -0.00635,-0.5342 0.014206,-0.853 l 0.037373,-0.5796 -0.2622329,-0.1621 -0.2622328,-0.162 0.1008328,0.687 0.1008326,0.687 -0.1629005,0 c -0.089595,0 -0.3185386,-0.06 -0.508763,-0.1327 l -0.3458621,-0.1327 0,-0.4999 0,-0.4998 0.3458621,-0.1327 c 0.1902244,-0.073 0.4218409,-0.1328 0.5147038,-0.1328 0.092863,0 0.4291935,0.2413 0.7474015,0.5362 l 0.5785602,0.5362 0,0.4244 0,0.4243 -0.3458621,0.1327 c -0.1902244,0.073 -0.3870119,0.1328 -0.4373055,0.1328 z"
         id="path3186" />
      <path
         style="fill:#602323"
         d="m 8.9870494,1050.3411 c -0.120259,2e-4 -0.7598183,-0.2855 -1.4212429,-0.6349 -0.6614246,-0.3495 -1.3796655,-0.64 -1.5960908,-0.6457 -0.2164254,-0.01 -0.6890282,-0.1631 -1.0502288,-0.3499 -0.3612006,-0.1868 -0.848283,-0.5312 -1.0824055,-0.7653 -0.2341226,-0.2341 -0.5240711,-0.4257 -0.6443301,-0.4257 l -0.2186527,0 0,-1.6216 0,-1.6217 -0.2532856,-0.084 -0.2532856,-0.084 1.3521891,-2.011 1.3521891,-2.0109 0.327193,0 c 0.1799561,0 1.1227944,0.4 2.0951964,0.8889 l 1.7680036,0.8889 0.3069349,-0.1178 0.3069352,-0.1177 0.5440413,0.2478 0.544041,0.2479 0,0.2947 0,0.2947 1.639895,0.8114 c 0.901943,0.4463 1.639896,0.8883 1.639896,0.9822 0,0.094 -0.09839,0.1707 -0.218653,0.1707 l -0.218653,0 0,1.8092 0,1.8092 -2.080092,1.0332 c -1.144051,0.5684 -2.1771856,1.0333 -2.2958542,1.0333 l -0.2157613,0 0,-1.6528 0,-1.6528 -0.2099635,0.1298 -0.2099632,0.1298 -1.3206061,-0.6667 -1.3206058,-0.6666 0,1.4214 0,1.4213 1.4759061,0.7576 c 0.8117484,0.4166 1.3775124,0.7577 1.2572534,0.758 z m 0.6769771,-0.1976 c 0.053375,0 0.9806235,-0.4438 2.0605515,-0.9862 l 1.963506,-0.9861 0,-1.6399 0,-1.6399 -1.990673,0.9998 c -1.09487,0.5499 -2.0267455,0.9637 -2.0708342,0.9196 -0.044089,-0.044 0.9009112,-0.5629 2.0999992,-1.1528 1.199088,-0.59 2.18016,-1.1336 2.18016,-1.2081 0,-0.074 -0.493916,-0.3666 -1.097591,-0.6494 l -1.097592,-0.5141 -0.185802,0.2034 c -0.102191,0.1119 -0.61681,0.8538 -1.143599,1.6486 l -0.9577971,1.4452 0.071313,1.7799 c 0.039222,0.979 0.1149835,1.78 0.1683586,1.78 z m 0.9446975,-1.5444 c -0.07015,0.01 -0.193143,-0.052 -0.273316,-0.132 -0.08017,-0.08 -0.145768,-0.3784 -0.145768,-0.6628 l 0,-0.517 0.382642,-0.1113 c 0.210453,-0.061 0.855979,-0.3459 1.434501,-0.6325 l 1.051859,-0.5211 0.114561,0.2986 c 0.06301,0.1641 0.08061,0.4748 0.03912,0.6902 l -0.07544,0.3918 -1.200302,0.5911 c -0.660167,0.3251 -1.257699,0.5973 -1.32785,0.605 z m 0.01822,-0.2048 0.218653,0 0,-0.5467 0,-0.5466 -0.218653,0 -0.218653,0 0,0.5466 0,0.5467 0.218653,0 z m 0.655958,-0.328 0.218653,-0.1352 0,-0.4373 0,-0.4373 -0.218653,0.1352 -0.218652,0.1351 0,0.4373 0,0.4373 0.218652,-0.1351 z m 0.710622,-0.3816 0.273316,-0.09 0.06973,-0.4737 0.06973,-0.4738 -0.343045,0.1316 -0.343045,0.1317 0,0.4321 0,0.4321 0.273316,-0.09 z m 0.819948,-0.2744 0.218652,-0.1351 0,-0.5466 0,-0.5467 -0.218652,0.1352 -0.218653,0.1351 0,0.5466 0,0.5467 0.218653,-0.1352 z m -7.2702045,1.4125 c 0.030065,0 0.054663,-0.4807 0.054663,-1.0789 l 0,-1.0876 -0.6559583,-0.3392 -0.6559583,-0.3393 0,1.0919 0,1.0919 0.6012951,0.3262 c 0.3307123,0.1795 0.6258935,0.3302 0.6559583,0.335 z m -0.273316,-1.0845 c -0.060129,0 -0.1093264,-0.049 -0.1093264,-0.1093 0,-0.06 0.049197,-0.1094 0.1093264,-0.1094 0.06013,0 0.1093264,0.049 0.1093264,0.1094 0,0.06 -0.049197,0.1093 -0.1093264,0.1093 z m 0.6675097,0.8746 0.120878,0 -0.045609,-1.4088 -0.045608,-1.4088 -0.6340661,-0.2627 -0.6340661,-0.2626 -0.2316116,0.2316 -0.2316117,0.2316 0.6533603,0.3379 0.6533602,0.3378 0.1370481,-0.137 0.137048,-0.1371 0,1.2391 0,1.239 0.1208778,0 z m -1.9107771,-1.9216 0.068649,-1.0191 0.2201391,-0.2652 0.2201392,-0.2653 -0.6714306,-0.3472 -0.6714308,-0.3472 0,1.416 0,1.416 0.3826423,0.2155 0.3826424,0.2156 0.068649,-1.0191 z m 3.2263747,-0.4912 c 0.1286367,0 0.4252061,-0.2138 0.659043,-0.4843 0.2338369,-0.2706 0.6590999,-0.822 0.945029,-1.2252 l 0.519871,-0.7333 -0.2764989,-0.1709 -0.2764991,-0.1708 0.089386,-0.7657 0.089386,-0.7656 -1.5967133,-0.7901 c -0.8781923,-0.4346 -1.7279065,-0.7901 -1.8882537,-0.7901 l -0.2915407,0 -1.2260962,1.8424 -1.2260962,1.8424 2.1225491,1.1018 c 1.1674022,0.606 2.2277977,1.1053 2.3564346,1.1094 z m 2.6840293,-2.8902 0.075429,-0.4668 -0.3406983,-0.2491 -0.3406979,-0.2491 0.7025752,0 0.702574,0 -0.273315,0.091 -0.273316,0.091 0,0.5466 0,0.5466 0.273316,-0.09 0.273315,-0.09 0.06777,-0.5697 0.06777,-0.5697 -0.450409,-0.2411 -0.45041,-0.241 -0.4373055,0.234 -0.4373055,0.2341 0,0.528 0,0.5281 0.3826423,0.2166 0.3826423,0.2165 0.075429,-0.4667 z m -1.7531935,5.959 c -0.099431,0 -0.1807836,-0.1035 -0.1807836,-0.2301 l 0,-0.23 -0.6559583,-0.2287 -0.6559583,-0.2286 0,-0.5019 0,-0.5018 0.3458621,-0.1327 c 0.1902244,-0.073 0.4218409,-0.1328 0.5147038,-0.1328 0.092863,0 0.4291935,0.2413 0.7474015,0.5362 l 0.5785602,0.5362 -0.025364,0.5024 -0.025364,0.5024 -0.1051857,-0.4373 c -0.057852,-0.2405 -0.2054739,-0.5357 -0.3280485,-0.6559 l -0.2228625,-0.2187 0.096891,0.7106 0.09689,0.7107 -0.1807836,0 z m -0.2169346,-1.0978 0.073175,-0.4832 -0.237165,-0.2372 -0.237165,-0.2372 0,0.554 c 0,0.3046 0.073795,0.6288 0.1639895,0.7204 l 0.1639896,0.1665 0.073175,-0.4833 z m -0.7359961,0.2232 c 0.063904,0 0.1161888,-0.2657 0.1161888,-0.5904 l 0,-0.5904 -0.2476861,0.2477 -0.2476859,0.2477 0.1314973,0.3427 c 0.072323,0.1885 0.1837822,0.3427 0.2476859,0.3427 z"
         id="path3184" />
      <path
         style="fill:#000000"
         d="m 8.9870494,1050.3411 c -0.120259,2e-4 -0.7598183,-0.2855 -1.4212429,-0.6349 -0.6614246,-0.3495 -1.3796655,-0.64 -1.5960908,-0.6457 -0.2164254,-0.01 -0.6890282,-0.1631 -1.0502288,-0.3499 -0.3612006,-0.1868 -0.848283,-0.5312 -1.0824055,-0.7653 -0.2341226,-0.2341 -0.5240711,-0.4257 -0.6443301,-0.4257 l -0.2186527,0 0,-1.6216 0,-1.6217 -0.2532856,-0.084 -0.2532856,-0.084 1.3521891,-2.011 1.3521891,-2.0109 0.327193,0 c 0.1799561,0 1.1227944,0.4 2.0951964,0.8889 l 1.7680036,0.8889 0.3069349,-0.1178 0.3069352,-0.1177 0.5440413,0.2478 0.544041,0.2479 0,0.2947 0,0.2947 1.639895,0.8114 c 0.901943,0.4463 1.639896,0.8883 1.639896,0.9822 0,0.094 -0.09839,0.1707 -0.218653,0.1707 l -0.218653,0 0,1.8092 0,1.8092 -2.080092,1.0332 c -1.144051,0.5684 -2.1771856,1.0333 -2.2958542,1.0333 l -0.2157613,0 0,-1.6528 0,-1.6528 -0.2099635,0.1298 -0.2099632,0.1298 -1.3206061,-0.6667 -1.3206058,-0.6666 0,1.4214 0,1.4213 1.4759061,0.7576 c 0.8117484,0.4166 1.3775124,0.7577 1.2572534,0.758 z m 0.6603274,-0.1976 c 0.062532,0 0.9972732,-0.4438 2.0772012,-0.9862 l 1.963506,-0.9861 0,-1.6362 0,-1.6363 -2.077202,1.0318 -2.0772007,1.0319 0,1.5905 c 0,0.8748 0.051163,1.5906 0.1136955,1.5906 z m 0.9613472,-1.5444 c -0.07015,0.01 -0.193143,-0.052 -0.273316,-0.132 -0.08017,-0.08 -0.145768,-0.3784 -0.145768,-0.6628 l 0,-0.517 0.382642,-0.1113 c 0.210453,-0.061 0.855979,-0.3459 1.434501,-0.6325 l 1.051859,-0.5211 0.114561,0.2986 c 0.06301,0.1641 0.08061,0.4748 0.03912,0.6902 l -0.07544,0.3918 -1.200302,0.5911 c -0.660167,0.3251 -1.257699,0.5973 -1.32785,0.605 z m 0.01822,-0.2048 0.218653,0 0,-0.5467 0,-0.5466 -0.218653,0 -0.218653,0 0,0.5466 0,0.5467 0.218653,0 z m 0.655958,-0.328 0.218653,-0.1352 0,-0.4373 0,-0.4373 -0.218653,0.1352 -0.218652,0.1351 0,0.4373 0,0.4373 0.218652,-0.1351 z m 0.710622,-0.3816 0.273316,-0.09 0.06973,-0.4737 0.06973,-0.4738 -0.343045,0.1316 -0.343045,0.1317 0,0.4321 0,0.4321 0.273316,-0.09 z m 0.819948,-0.2744 0.218652,-0.1351 0,-0.5466 0,-0.5467 -0.218652,0.1352 -0.218653,0.1351 0,0.5466 0,0.5467 0.218653,-0.1352 z m -7.2702045,1.4125 c 0.030065,0 0.054663,-0.4807 0.054663,-1.0789 l 0,-1.0876 -0.6559583,-0.3392 -0.6559583,-0.3393 0,1.0919 0,1.0919 0.6012951,0.3262 c 0.3307123,0.1795 0.6258935,0.3302 0.6559583,0.335 z m -0.273316,-1.0845 c -0.060129,0 -0.1093264,-0.049 -0.1093264,-0.1093 0,-0.06 0.049197,-0.1094 0.1093264,-0.1094 0.06013,0 0.1093264,0.049 0.1093264,0.1094 0,0.06 -0.049197,0.1093 -0.1093264,0.1093 z m 0.6675097,0.8746 0.120878,0 -0.045609,-1.4088 -0.045608,-1.4088 -0.6340661,-0.2627 -0.6340661,-0.2626 -0.2316116,0.2316 -0.2316117,0.2316 0.6533603,0.3379 0.6533602,0.3378 0.1370481,-0.137 0.137048,-0.1371 0,1.2391 0,1.239 0.1208778,0 z m -1.9107771,-1.9216 0.068649,-1.0191 0.2201391,-0.2652 0.2201392,-0.2653 -0.6714306,-0.3472 -0.6714308,-0.3472 0,1.416 0,1.416 0.3826423,0.2155 0.3826424,0.2156 0.068649,-1.0191 z m 4.9603643,0.089 0.6559583,-0.078 2.1318643,-1.0621 c 1.172525,-0.5842 2.131864,-1.1215 2.131864,-1.1941 0,-0.072 -0.493916,-0.3632 -1.097591,-0.646 l -1.097592,-0.5141 -0.185802,0.2034 c -0.102191,0.1119 -0.641409,0.8911 -1.198262,1.7317 -0.5568533,0.8405 -1.0124605,1.451 -1.0124605,1.3567 0,-0.094 0.4913196,-0.8997 1.0918205,-1.7896 l 1.091822,-1.618 -0.217211,-0.1342 -0.217209,-0.1343 0,0.2265 c 0,0.1246 -0.233899,0.3798 -0.519775,0.5671 l -0.519774,0.3406 -0.5922917,-0.2699 -0.5922918,-0.2698 0.07708,-0.8083 0.07708,-0.8082 -1.5924645,-0.788 c -0.8758553,-0.4334 -1.7236574,-0.788 -1.8840046,-0.788 l -0.2915407,0 -1.2282228,1.8456 -1.2282228,1.8456 2.7806342,1.4315 2.780634,1.4315 0.6559583,-0.078 z m 0.9500397,-3.4706 0.075429,-0.4668 -0.3406983,-0.2491 -0.3406979,-0.2491 0.7025752,0 0.702574,0 -0.273315,0.091 -0.273316,0.091 0,0.5466 0,0.5466 0.273316,-0.09 0.273315,-0.09 0.06777,-0.5697 0.06777,-0.5697 -0.450409,-0.2411 -0.45041,-0.241 -0.4373055,0.234 -0.4373055,0.2341 0,0.528 0,0.5281 0.3826423,0.2166 0.3826423,0.2165 0.075429,-0.4667 z m -1.7531935,5.959 c -0.099431,0 -0.1807836,-0.1035 -0.1807836,-0.2301 l 0,-0.23 -0.6559583,-0.2287 -0.6559583,-0.2286 0,-0.5019 0,-0.5018 0.3458621,-0.1327 c 0.1902244,-0.073 0.4218409,-0.1328 0.5147038,-0.1328 0.092863,0 0.4291935,0.2413 0.7474015,0.5362 l 0.5785602,0.5362 -0.025364,0.5024 -0.025364,0.5024 -0.1051857,-0.4373 c -0.057852,-0.2405 -0.2054739,-0.5357 -0.3280485,-0.6559 l -0.2228625,-0.2187 0.096891,0.7106 0.09689,0.7107 -0.1807836,0 z m -0.2169346,-1.0978 0.073175,-0.4832 -0.237165,-0.2372 -0.237165,-0.2372 0,0.554 c 0,0.3046 0.073795,0.6288 0.1639895,0.7204 l 0.1639896,0.1665 0.073175,-0.4833 z m -0.7359961,0.2232 c 0.063904,0 0.1161888,-0.2657 0.1161888,-0.5904 l 0,-0.5904 -0.2476861,0.2477 -0.2476859,0.2477 0.1314973,0.3427 c 0.072323,0.1885 0.1837822,0.3427 0.2476859,0.3427 z"
         id="path3182" />
    </g>
  </g>
</svg>
