<?xml version="1.0" encoding="UTF-8" standalone="no"?>
<!-- Created with Inkscape (http://www.inkscape.org/) -->

<svg
   xmlns:dc="http://purl.org/dc/elements/1.1/"
   xmlns:cc="http://creativecommons.org/ns#"
   xmlns:rdf="http://www.w3.org/1999/02/22-rdf-syntax-ns#"
   xmlns:svg="http://www.w3.org/2000/svg"
   xmlns="http://www.w3.org/2000/svg"
   xmlns:sodipodi="http://sodipodi.sourceforge.net/DTD/sodipodi-0.dtd"
   xmlns:inkscape="http://www.inkscape.org/namespaces/inkscape"
   width="16"
   height="16"
   id="svg2"
   version="1.1"
   inkscape:version="0.47 r22583"
   sodipodi:docname="interstate-64.svg">
  <defs
     id="defs4">
    <inkscape:perspective
       sodipodi:type="inkscape:persp3d"
       inkscape:vp_x="0 : 526.18109 : 1"
       inkscape:vp_y="0 : 1000 : 0"
       inkscape:vp_z="744.09448 : 526.18109 : 1"
       inkscape:persp3d-origin="372.04724 : 350.78739 : 1"
       id="perspective10" />
    <inkscape:perspective
       id="perspective2824"
       inkscape:persp3d-origin="0.5 : 0.33333333 : 1"
       inkscape:vp_z="1 : 0.5 : 1"
       inkscape:vp_y="0 : 1000 : 0"
       inkscape:vp_x="0 : 0.5 : 1"
       sodipodi:type="inkscape:persp3d" />
    <inkscape:perspective
       id="perspective5878"
       inkscape:persp3d-origin="0.5 : 0.33333333 : 1"
       inkscape:vp_z="1 : 0.5 : 1"
       inkscape:vp_y="0 : 1000 : 0"
       inkscape:vp_x="0 : 0.5 : 1"
       sodipodi:type="inkscape:persp3d" />
    <inkscape:perspective
       id="perspective5921"
       inkscape:persp3d-origin="0.5 : 0.33333333 : 1"
       inkscape:vp_z="1 : 0.5 : 1"
       inkscape:vp_y="0 : 1000 : 0"
       inkscape:vp_x="0 : 0.5 : 1"
       sodipodi:type="inkscape:persp3d" />
    <inkscape:perspective
       id="perspective5943"
       inkscape:persp3d-origin="0.5 : 0.33333333 : 1"
       inkscape:vp_z="1 : 0.5 : 1"
       inkscape:vp_y="0 : 1000 : 0"
       inkscape:vp_x="0 : 0.5 : 1"
       sodipodi:type="inkscape:persp3d" />
    <inkscape:perspective
       id="perspective5989"
       inkscape:persp3d-origin="0.5 : 0.33333333 : 1"
       inkscape:vp_z="1 : 0.5 : 1"
       inkscape:vp_y="0 : 1000 : 0"
       inkscape:vp_x="0 : 0.5 : 1"
       sodipodi:type="inkscape:persp3d" />
    <inkscape:perspective
       id="perspective6011"
       inkscape:persp3d-origin="0.5 : 0.33333333 : 1"
       inkscape:vp_z="1 : 0.5 : 1"
       inkscape:vp_y="0 : 1000 : 0"
       inkscape:vp_x="0 : 0.5 : 1"
       sodipodi:type="inkscape:persp3d" />
    <inkscape:perspective
       id="perspective6033"
       inkscape:persp3d-origin="0.5 : 0.33333333 : 1"
       inkscape:vp_z="1 : 0.5 : 1"
       inkscape:vp_y="0 : 1000 : 0"
       inkscape:vp_x="0 : 0.5 : 1"
       sodipodi:type="inkscape:persp3d" />
    <inkscape:perspective
       id="perspective6245"
       inkscape:persp3d-origin="0.5 : 0.33333333 : 1"
       inkscape:vp_z="1 : 0.5 : 1"
       inkscape:vp_y="0 : 1000 : 0"
       inkscape:vp_x="0 : 0.5 : 1"
       sodipodi:type="inkscape:persp3d" />
    <inkscape:perspective
       id="perspective6269"
       inkscape:persp3d-origin="0.5 : 0.33333333 : 1"
       inkscape:vp_z="1 : 0.5 : 1"
       inkscape:vp_y="0 : 1000 : 0"
       inkscape:vp_x="0 : 0.5 : 1"
       sodipodi:type="inkscape:persp3d" />
    <inkscape:perspective
       id="perspective6364"
       inkscape:persp3d-origin="0.5 : 0.33333333 : 1"
       inkscape:vp_z="1 : 0.5 : 1"
       inkscape:vp_y="0 : 1000 : 0"
       inkscape:vp_x="0 : 0.5 : 1"
       sodipodi:type="inkscape:persp3d" />
    <inkscape:perspective
       id="perspective6396"
       inkscape:persp3d-origin="0.5 : 0.33333333 : 1"
       inkscape:vp_z="1 : 0.5 : 1"
       inkscape:vp_y="0 : 1000 : 0"
       inkscape:vp_x="0 : 0.5 : 1"
       sodipodi:type="inkscape:persp3d" />
    <inkscape:perspective
       id="perspective6438"
       inkscape:persp3d-origin="0.5 : 0.33333333 : 1"
       inkscape:vp_z="1 : 0.5 : 1"
       inkscape:vp_y="0 : 1000 : 0"
       inkscape:vp_x="0 : 0.5 : 1"
       sodipodi:type="inkscape:persp3d" />
    <inkscape:perspective
       id="perspective6460"
       inkscape:persp3d-origin="0.5 : 0.33333333 : 1"
       inkscape:vp_z="1 : 0.5 : 1"
       inkscape:vp_y="0 : 1000 : 0"
       inkscape:vp_x="0 : 0.5 : 1"
       sodipodi:type="inkscape:persp3d" />
    <inkscape:perspective
       id="perspective6480"
       inkscape:persp3d-origin="0.5 : 0.33333333 : 1"
       inkscape:vp_z="1 : 0.5 : 1"
       inkscape:vp_y="0 : 1000 : 0"
       inkscape:vp_x="0 : 0.5 : 1"
       sodipodi:type="inkscape:persp3d" />
    <inkscape:perspective
       id="perspective6504"
       inkscape:persp3d-origin="0.5 : 0.33333333 : 1"
       inkscape:vp_z="1 : 0.5 : 1"
       inkscape:vp_y="0 : 1000 : 0"
       inkscape:vp_x="0 : 0.5 : 1"
       sodipodi:type="inkscape:persp3d" />
    <inkscape:perspective
       id="perspective6524"
       inkscape:persp3d-origin="0.5 : 0.33333333 : 1"
       inkscape:vp_z="1 : 0.5 : 1"
       inkscape:vp_y="0 : 1000 : 0"
       inkscape:vp_x="0 : 0.5 : 1"
       sodipodi:type="inkscape:persp3d" />
    <inkscape:perspective
       id="perspective6548"
       inkscape:persp3d-origin="0.5 : 0.33333333 : 1"
       inkscape:vp_z="1 : 0.5 : 1"
       inkscape:vp_y="0 : 1000 : 0"
       inkscape:vp_x="0 : 0.5 : 1"
       sodipodi:type="inkscape:persp3d" />
    <inkscape:perspective
       id="perspective6572"
       inkscape:persp3d-origin="0.5 : 0.33333333 : 1"
       inkscape:vp_z="1 : 0.5 : 1"
       inkscape:vp_y="0 : 1000 : 0"
       inkscape:vp_x="0 : 0.5 : 1"
       sodipodi:type="inkscape:persp3d" />
    <inkscape:perspective
       id="perspective6594"
       inkscape:persp3d-origin="0.5 : 0.33333333 : 1"
       inkscape:vp_z="1 : 0.5 : 1"
       inkscape:vp_y="0 : 1000 : 0"
       inkscape:vp_x="0 : 0.5 : 1"
       sodipodi:type="inkscape:persp3d" />
    <inkscape:perspective
       id="perspective6614"
       inkscape:persp3d-origin="0.5 : 0.33333333 : 1"
       inkscape:vp_z="1 : 0.5 : 1"
       inkscape:vp_y="0 : 1000 : 0"
       inkscape:vp_x="0 : 0.5 : 1"
       sodipodi:type="inkscape:persp3d" />
    <inkscape:perspective
       id="perspective6650"
       inkscape:persp3d-origin="0.5 : 0.33333333 : 1"
       inkscape:vp_z="1 : 0.5 : 1"
       inkscape:vp_y="0 : 1000 : 0"
       inkscape:vp_x="0 : 0.5 : 1"
       sodipodi:type="inkscape:persp3d" />
    <inkscape:perspective
       id="perspective6676"
       inkscape:persp3d-origin="0.5 : 0.33333333 : 1"
       inkscape:vp_z="1 : 0.5 : 1"
       inkscape:vp_y="0 : 1000 : 0"
       inkscape:vp_x="0 : 0.5 : 1"
       sodipodi:type="inkscape:persp3d" />
    <inkscape:perspective
       id="perspective6710"
       inkscape:persp3d-origin="0.5 : 0.33333333 : 1"
       inkscape:vp_z="1 : 0.5 : 1"
       inkscape:vp_y="0 : 1000 : 0"
       inkscape:vp_x="0 : 0.5 : 1"
       sodipodi:type="inkscape:persp3d" />
    <inkscape:perspective
       id="perspective6748"
       inkscape:persp3d-origin="0.5 : 0.33333333 : 1"
       inkscape:vp_z="1 : 0.5 : 1"
       inkscape:vp_y="0 : 1000 : 0"
       inkscape:vp_x="0 : 0.5 : 1"
       sodipodi:type="inkscape:persp3d" />
    <inkscape:perspective
       id="perspective6786"
       inkscape:persp3d-origin="0.5 : 0.33333333 : 1"
       inkscape:vp_z="1 : 0.5 : 1"
       inkscape:vp_y="0 : 1000 : 0"
       inkscape:vp_x="0 : 0.5 : 1"
       sodipodi:type="inkscape:persp3d" />
    <inkscape:perspective
       id="perspective6810"
       inkscape:persp3d-origin="0.5 : 0.33333333 : 1"
       inkscape:vp_z="1 : 0.5 : 1"
       inkscape:vp_y="0 : 1000 : 0"
       inkscape:vp_x="0 : 0.5 : 1"
       sodipodi:type="inkscape:persp3d" />
    <inkscape:perspective
       id="perspective6848"
       inkscape:persp3d-origin="0.5 : 0.33333333 : 1"
       inkscape:vp_z="1 : 0.5 : 1"
       inkscape:vp_y="0 : 1000 : 0"
       inkscape:vp_x="0 : 0.5 : 1"
       sodipodi:type="inkscape:persp3d" />
    <inkscape:perspective
       id="perspective6870"
       inkscape:persp3d-origin="0.5 : 0.33333333 : 1"
       inkscape:vp_z="1 : 0.5 : 1"
       inkscape:vp_y="0 : 1000 : 0"
       inkscape:vp_x="0 : 0.5 : 1"
       sodipodi:type="inkscape:persp3d" />
    <inkscape:perspective
       id="perspective6908"
       inkscape:persp3d-origin="0.5 : 0.33333333 : 1"
       inkscape:vp_z="1 : 0.5 : 1"
       inkscape:vp_y="0 : 1000 : 0"
       inkscape:vp_x="0 : 0.5 : 1"
       sodipodi:type="inkscape:persp3d" />
    <inkscape:perspective
       id="perspective6946"
       inkscape:persp3d-origin="0.5 : 0.33333333 : 1"
       inkscape:vp_z="1 : 0.5 : 1"
       inkscape:vp_y="0 : 1000 : 0"
       inkscape:vp_x="0 : 0.5 : 1"
       sodipodi:type="inkscape:persp3d" />
    <inkscape:perspective
       id="perspective6970"
       inkscape:persp3d-origin="0.5 : 0.33333333 : 1"
       inkscape:vp_z="1 : 0.5 : 1"
       inkscape:vp_y="0 : 1000 : 0"
       inkscape:vp_x="0 : 0.5 : 1"
       sodipodi:type="inkscape:persp3d" />
    <inkscape:perspective
       id="perspective7008"
       inkscape:persp3d-origin="0.5 : 0.33333333 : 1"
       inkscape:vp_z="1 : 0.5 : 1"
       inkscape:vp_y="0 : 1000 : 0"
       inkscape:vp_x="0 : 0.5 : 1"
       sodipodi:type="inkscape:persp3d" />
    <inkscape:perspective
       id="perspective7036"
       inkscape:persp3d-origin="0.5 : 0.33333333 : 1"
       inkscape:vp_z="1 : 0.5 : 1"
       inkscape:vp_y="0 : 1000 : 0"
       inkscape:vp_x="0 : 0.5 : 1"
       sodipodi:type="inkscape:persp3d" />
    <inkscape:perspective
       id="perspective7060"
       inkscape:persp3d-origin="0.5 : 0.33333333 : 1"
       inkscape:vp_z="1 : 0.5 : 1"
       inkscape:vp_y="0 : 1000 : 0"
       inkscape:vp_x="0 : 0.5 : 1"
       sodipodi:type="inkscape:persp3d" />
    <inkscape:perspective
       id="perspective7098"
       inkscape:persp3d-origin="0.5 : 0.33333333 : 1"
       inkscape:vp_z="1 : 0.5 : 1"
       inkscape:vp_y="0 : 1000 : 0"
       inkscape:vp_x="0 : 0.5 : 1"
       sodipodi:type="inkscape:persp3d" />
    <inkscape:perspective
       id="perspective7136"
       inkscape:persp3d-origin="0.5 : 0.33333333 : 1"
       inkscape:vp_z="1 : 0.5 : 1"
       inkscape:vp_y="0 : 1000 : 0"
       inkscape:vp_x="0 : 0.5 : 1"
       sodipodi:type="inkscape:persp3d" />
    <inkscape:perspective
       id="perspective7174"
       inkscape:persp3d-origin="0.5 : 0.33333333 : 1"
       inkscape:vp_z="1 : 0.5 : 1"
       inkscape:vp_y="0 : 1000 : 0"
       inkscape:vp_x="0 : 0.5 : 1"
       sodipodi:type="inkscape:persp3d" />
    <inkscape:perspective
       id="perspective7212"
       inkscape:persp3d-origin="0.5 : 0.33333333 : 1"
       inkscape:vp_z="1 : 0.5 : 1"
       inkscape:vp_y="0 : 1000 : 0"
       inkscape:vp_x="0 : 0.5 : 1"
       sodipodi:type="inkscape:persp3d" />
    <inkscape:perspective
       id="perspective7234"
       inkscape:persp3d-origin="0.5 : 0.33333333 : 1"
       inkscape:vp_z="1 : 0.5 : 1"
       inkscape:vp_y="0 : 1000 : 0"
       inkscape:vp_x="0 : 0.5 : 1"
       sodipodi:type="inkscape:persp3d" />
    <inkscape:perspective
       id="perspective7272"
       inkscape:persp3d-origin="0.5 : 0.33333333 : 1"
       inkscape:vp_z="1 : 0.5 : 1"
       inkscape:vp_y="0 : 1000 : 0"
       inkscape:vp_x="0 : 0.5 : 1"
       sodipodi:type="inkscape:persp3d" />
    <inkscape:perspective
       id="perspective7294"
       inkscape:persp3d-origin="0.5 : 0.33333333 : 1"
       inkscape:vp_z="1 : 0.5 : 1"
       inkscape:vp_y="0 : 1000 : 0"
       inkscape:vp_x="0 : 0.5 : 1"
       sodipodi:type="inkscape:persp3d" />
    <inkscape:perspective
       id="perspective7330"
       inkscape:persp3d-origin="0.5 : 0.33333333 : 1"
       inkscape:vp_z="1 : 0.5 : 1"
       inkscape:vp_y="0 : 1000 : 0"
       inkscape:vp_x="0 : 0.5 : 1"
       sodipodi:type="inkscape:persp3d" />
    <inkscape:perspective
       id="perspective3068"
       inkscape:persp3d-origin="0.5 : 0.33333333 : 1"
       inkscape:vp_z="1 : 0.5 : 1"
       inkscape:vp_y="0 : 1000 : 0"
       inkscape:vp_x="0 : 0.5 : 1"
       sodipodi:type="inkscape:persp3d" />
    <inkscape:perspective
       id="perspective3106"
       inkscape:persp3d-origin="0.5 : 0.33333333 : 1"
       inkscape:vp_z="1 : 0.5 : 1"
       inkscape:vp_y="0 : 1000 : 0"
       inkscape:vp_x="0 : 0.5 : 1"
       sodipodi:type="inkscape:persp3d" />
    <inkscape:perspective
       id="perspective3128"
       inkscape:persp3d-origin="0.5 : 0.33333333 : 1"
       inkscape:vp_z="1 : 0.5 : 1"
       inkscape:vp_y="0 : 1000 : 0"
       inkscape:vp_x="0 : 0.5 : 1"
       sodipodi:type="inkscape:persp3d" />
    <inkscape:perspective
       id="perspective3152"
       inkscape:persp3d-origin="0.5 : 0.33333333 : 1"
       inkscape:vp_z="1 : 0.5 : 1"
       inkscape:vp_y="0 : 1000 : 0"
       inkscape:vp_x="0 : 0.5 : 1"
       sodipodi:type="inkscape:persp3d" />
    <inkscape:perspective
       id="perspective3174"
       inkscape:persp3d-origin="0.5 : 0.33333333 : 1"
       inkscape:vp_z="1 : 0.5 : 1"
       inkscape:vp_y="0 : 1000 : 0"
       inkscape:vp_x="0 : 0.5 : 1"
       sodipodi:type="inkscape:persp3d" />
    <inkscape:perspective
       id="perspective3212"
       inkscape:persp3d-origin="0.5 : 0.33333333 : 1"
       inkscape:vp_z="1 : 0.5 : 1"
       inkscape:vp_y="0 : 1000 : 0"
       inkscape:vp_x="0 : 0.5 : 1"
       sodipodi:type="inkscape:persp3d" />
    <inkscape:perspective
       id="perspective3238"
       inkscape:persp3d-origin="0.5 : 0.33333333 : 1"
       inkscape:vp_z="1 : 0.5 : 1"
       inkscape:vp_y="0 : 1000 : 0"
       inkscape:vp_x="0 : 0.5 : 1"
       sodipodi:type="inkscape:persp3d" />
  </defs>
  <sodipodi:namedview
     id="base"
     pagecolor="#ffffff"
     bordercolor="#666666"
     borderopacity="1.0"
     inkscape:pageopacity="0.0"
     inkscape:pageshadow="2"
     inkscape:zoom="11.313709"
     inkscape:cx="15.14621"
     inkscape:cy="0.53199498"
     inkscape:document-units="px"
     inkscape:current-layer="layer1"
     showgrid="true"
     inkscape:window-width="1280"
     inkscape:window-height="780"
     inkscape:window-x="-8"
     inkscape:window-y="-8"
     inkscape:window-maximized="1">
    <inkscape:grid
       type="xygrid"
       id="grid6324"
       empspacing="5"
       visible="true"
       enabled="true"
       snapvisiblegridlinesonly="true" />
  </sodipodi:namedview>
  <metadata
     id="metadata7">
    <rdf:RDF>
      <cc:Work
         rdf:about="">
        <dc:format>image/svg+xml</dc:format>
        <dc:type
           rdf:resource="http://purl.org/dc/dcmitype/StillImage" />
        <dc:title></dc:title>
      </cc:Work>
    </rdf:RDF>
  </metadata>
  <g
     inkscape:label="Calque 1"
     inkscape:groupmode="layer"
     id="layer1"
     transform="translate(0,-1036.3622)">
    <g
       id="g3244"
       transform="translate(-0.074464,0.1868)">
      <path
         style="fill:#c2c3c2"
         d="m 7.851883,1050.6807 -0.4945446,0 -1.2141969,-0.5889 -1.2141966,-0.589 -0.8692825,-0.8692 -0.8692825,-0.8693 -0.4532867,-0.9331 -0.4532867,-0.933 -0.00617,-1.4671 -0.00617,-1.4671 0.2589259,-0.8898 0.2589259,-0.8898 1.1360131,-0.9196 1.1360131,-0.9195 2.8709993,0 2.8709992,0 1.051453,0.8313 1.051453,0.8313 0.306408,0.8662 0.306408,0.8662 0,1.3974 0,1.3974 -0.311417,0.914 -0.311417,0.9139 -0.906163,1.0079 -0.906164,1.0079 -1.3687392,0.6559 -1.3687384,0.656 -0.4945446,-0.01 z"
         id="path3266" />
      <path
         style="fill:#c4bbba"
         d="m 7.9162038,1050.6855 c -0.1997902,-10e-5 -0.9091207,-0.2584 -1.5762897,-0.574 l -1.2130348,-0.5739 -0.9062644,-0.8353 -0.9062644,-0.8354 -0.3754127,-0.7359 c -0.206477,-0.4047 -0.4741369,-1.1962 -0.5947997,-1.7588 l -0.219387,-1.023 0.2403681,-1.3797 0.2403681,-1.3797 1.1987272,-1.1248 1.1987272,-1.1247 2.9042339,0 2.9042334,0 1.148951,0.9993 1.148951,0.9993 0.228777,1.0223 0.228777,1.0223 -0.08224,1.3526 -0.08223,1.3527 -0.376136,0.7825 -0.376135,0.7824 -0.897868,0.9015 -0.897868,0.9016 -1.2874645,0.6144 -1.2874649,0.6145 -0.3632548,-2e-4 z m 0.040359,-5.6725 5.3916802,0 -0.0613,-0.5946 -0.0613,-0.5945 -5.3303892,-0.041 -5.3303886,-0.041 4.9e-6,0.6357 4.9e-6,0.6358 5.3916798,0 z"
         id="path3264" />
      <path
         style="fill:#9f9da2"
         d="m 8.0939544,1050.6053 -0.5410056,0.1067 -1.3950886,-0.6998 -1.3950887,-0.6998 -0.8229594,-0.8928 -0.8229593,-0.8928 -0.3753699,-0.8486 -0.37537,-0.8486 -0.070686,-1.044 -0.070686,-1.0441 0.2405618,-1.1652 0.2405617,-1.1652 1.1520746,-1.0307 1.1520745,-1.0307 2.898311,0 2.8983115,0 1.069984,0.9237 1.069984,0.9238 0.309814,1.0657 0.309813,1.0657 -0.08971,1.3979 -0.08971,1.398 -0.563371,1.0351 -0.563371,1.0351 -0.781381,0.6688 -0.781382,0.6689 -1.0311686,0.4878 c -0.5671427,0.2683 -1.2746209,0.5358 -1.5721739,0.5945 z m -0.1497848,-5.5923 5.3792864,0 0,-0.6847 0,-0.6846 -5.3792864,0 -5.3792863,0 0,0.6846 0,0.6847 5.3792863,0 z"
         id="path3262" />
      <path
         style="fill:#dc8678"
         d="m 7.9236438,1050.6855 c -0.096296,-10e-5 -0.7314595,-0.2634 -1.4114731,-0.5851 l -1.2363884,-0.5849 -0.8605094,-0.7051 -0.8605094,-0.7051 -0.5927453,-1.1862 -0.5927453,-1.1862 0,-1.401 0,-1.401 0.3068346,-0.8662 0.3068346,-0.8661 1.111341,-0.9269 1.1113408,-0.9269 2.7385457,0 2.7385454,0 1.104498,0.9269 1.104497,0.9269 0.313678,1.0886 0.313678,1.0887 0,0.8939 0,0.8938 -0.331495,1.0265 -0.331496,1.0264 -0.963008,1.0537 -0.963008,1.0536 -1.4156651,0.6809 c -0.7786159,0.3745 -1.4944534,0.6809 -1.5907501,0.6808 z m 0.020526,-5.6725 5.3792862,0 0,-0.6847 0,-0.6846 -5.3792862,0 -5.3792863,0 0,0.6846 0,0.6847 5.3792863,0 z"
         id="path3260" />
      <path
         style="fill:#fd4220"
         d="m 7.9236438,1050.6855 c -0.096296,-10e-5 -0.7314595,-0.2634 -1.4114731,-0.5851 l -1.2363884,-0.5849 -0.8605094,-0.7051 -0.8605094,-0.7051 -0.5927453,-1.1862 -0.5927453,-1.1862 0,-1.401 0,-1.401 0.3068346,-0.8662 0.3068346,-0.8661 1.111341,-0.9269 1.1113408,-0.9269 2.7385457,0 2.7385454,0 1.104498,0.9269 1.104497,0.9269 0.313678,1.0886 0.313678,1.0887 0,0.8939 0,0.8938 -0.331495,1.0265 -0.331496,1.0264 -0.963008,1.0537 -0.963008,1.0536 -1.4156651,0.6809 c -0.7786159,0.3745 -1.4944534,0.6809 -1.5907501,0.6808 z m 0.020526,-5.6725 5.3792862,0 0,-0.7825 0,-0.7824 -5.3792862,0 -5.3792863,0 0,0.7824 0,0.7825 5.3792863,0 z"
         id="path3258" />
      <path
         style="fill:#fd3c1c"
         d="m 7.9236438,1050.6855 c -0.096296,-10e-5 -0.7314595,-0.2634 -1.4114731,-0.5851 l -1.2363884,-0.5849 -0.8605094,-0.7051 -0.8605094,-0.7051 -0.5927453,-1.1862 -0.5927453,-1.1862 0,-1.401 0,-1.401 0.3068346,-0.8662 0.3068346,-0.8661 1.111341,-0.9269 1.1113408,-0.9269 2.7385457,0 2.7385454,0 1.104498,0.9269 1.104497,0.9269 0.313678,1.0886 0.313678,1.0887 0,0.8939 0,0.8938 -0.331495,1.0265 -0.331496,1.0264 -0.963008,1.0537 -0.963008,1.0536 -1.4156651,0.6809 c -0.7786159,0.3745 -1.4944534,0.6809 -1.5907501,0.6808 z m 0.020526,-5.6725 5.3792862,0 0,-0.7825 0,-0.7824 -5.3792862,0 -5.3792863,0 0,0.7824 0,0.7825 5.3792863,0 z m 5.1302942,-1.8376 c 0.04984,-0.05 0.02984,-0.3672 -0.04442,-0.7054 -0.07427,-0.3381 -0.171281,-0.5785 -0.215583,-0.5342 -0.0443,0.044 -0.02431,0.3617 0.04442,0.7054 0.06874,0.3437 0.165748,0.5841 0.215583,0.5342 z m -10.0480469,-0.8032 0.2358572,-0.7824 4.737256,0 4.7372557,0 -8.1e-5,-0.1467 -8e-5,-0.1467 -4.7733196,0 -4.7733195,0 -0.214746,0.616 c -0.1181103,0.3388 -0.2079812,0.7569 -0.199713,0.9291 l 0.015033,0.3132 0.2358572,-0.7825 z m 4.9014408,-1.47 4.0915061,0 -0.766129,-0.6765 -0.76613,-0.6765 -2.5429352,-8e-4 -2.5429353,-7e-4 -0.7824417,0.6743 -0.7824416,0.6744 4.0915067,0 z m -0.062404,-0.1927 -3.5700934,0 0.5811746,-0.489 0.5811743,-0.489 2.5295028,0 2.5295028,0 0.459416,0.489 0.459416,0.489 -3.5700931,0 z"
         id="path3256" />
      <path
         style="fill:#af2913"
         d="m 7.9236438,1050.6855 c -0.096296,-10e-5 -0.7314595,-0.2634 -1.4114731,-0.5851 l -1.2363884,-0.5849 -0.8605094,-0.7051 -0.8605094,-0.7051 -0.5927453,-1.1862 -0.5927453,-1.1862 0,-1.401 0,-1.401 0.3068346,-0.8662 0.3068346,-0.8661 1.111341,-0.9269 1.1113408,-0.9269 2.7385457,0 2.7385454,0 1.104498,0.9269 1.104497,0.9269 0.313678,1.0886 0.313678,1.0887 0,0.8939 0,0.8938 -0.331495,1.0265 -0.331496,1.0264 -0.963008,1.0537 -0.963008,1.0536 -1.4156651,0.6809 c -0.7786159,0.3745 -1.4944534,0.6809 -1.5907501,0.6808 z m 0.020021,-5.6725 5.4355232,0 -0.122586,-1.1248 c -0.06742,-0.6186 -0.216137,-1.4549 -0.330476,-1.8583 l -0.20789,-0.7335 -4.7518623,0 -4.7518623,0 -0.2419018,0.5309 -0.2419018,0.5309 -0.111283,1.3274 -0.1112829,1.3274 5.4355229,0 z m 5.049e-4,-4.1234 4.1078183,9e-4 -0.782441,-0.6744 -0.782442,-0.6744 -2.5592472,0 -2.5592473,0 -0.7661297,0.6765 -0.7661297,0.6765 4.1078186,8e-4 z"
         id="path3254" />
      <path
         style="fill:#410096"
         d="m 7.9236438,1050.6855 c -0.096296,-10e-5 -0.7314595,-0.2634 -1.4114731,-0.5851 l -1.2363884,-0.5849 -0.8605094,-0.7051 -0.8605094,-0.7051 -0.5927453,-1.1862 -0.5927453,-1.1862 0,-1.401 0,-1.401 0.3068346,-0.8662 0.3068346,-0.8661 1.111341,-0.9269 1.1113408,-0.9269 2.7385457,0 2.7385454,0 1.104498,0.9269 1.104497,0.9269 0.313678,1.0886 0.313678,1.0887 0,0.8939 0,0.8938 -0.331495,1.0265 -0.331496,1.0264 -0.963008,1.0537 -0.963008,1.0536 -1.4156651,0.6809 c -0.7786159,0.3745 -1.4944534,0.6809 -1.5907501,0.6808 z m -0.00576,-5.6725 5.4055702,0 0,-0.8448 0,-0.8447 -0.300994,-1.0136 -0.300993,-1.0135 -4.7897191,0 -4.7897187,0 -0.2129674,0.5379 -0.2129674,0.5379 -0.1018903,1.3204 -0.1018904,1.3204 5.4055701,0 z m 0.026284,-3.9123 c 2.3130932,0 4.2056232,-0.043 4.2056232,-0.095 0,-0.052 -0.330092,-0.4021 -0.733539,-0.7772 l -0.733539,-0.682 -2.7027986,-0.01 -2.7027991,-0.01 -0.7657596,0.6357 c -0.4211678,0.3496 -0.7673464,0.7017 -0.7692857,0.7824 l -0.00353,0.1467 4.2056238,0 z"
         id="path3252" />
      <path
         style="fill:#3d0093"
         d="m 8.13978,1050.5633 -0.3912208,0.101 -1.2253897,-0.5654 -1.2253899,-0.5653 -0.8715079,-0.7142 -0.8715082,-0.7141 -0.5927453,-1.1862 -0.5927453,-1.1862 0,-1.401 0,-1.401 0.3068346,-0.8662 0.3068346,-0.8661 1.111341,-0.9269 1.1113408,-0.9269 2.7385457,0 2.7385454,0 1.104498,0.9269 1.104497,0.9269 0.313678,1.0886 0.313678,1.0887 0,0.8939 0,0.8938 -0.331495,1.0265 -0.331496,1.0264 -0.955289,1.0452 -0.955289,1.0452 -1.2072483,0.5777 c -0.6639863,0.3177 -1.3832972,0.6231 -1.5984687,0.6787 z m -0.2934156,-0.2759 c 0.1613786,0 0.8215637,-0.2468 1.4670781,-0.5567 l 1.1736625,-0.5634 0.819422,-0.7129 0.819422,-0.713 0.512723,-1.0479 0.512723,-1.048 0.109864,-1.0645 0.109863,-1.0645 -0.322713,-1.1101 -0.322713,-1.11 -4.7918323,0 -4.7918323,0 -0.2145158,0.5379 -0.214516,0.5379 -0.09335,1.3693 -0.09335,1.3693 0.4139762,1.0964 0.4139763,1.0965 0.8702216,0.8596 0.8702214,0.8597 1.2291265,0.6288 c 0.6760196,0.3459 1.3611634,0.6319 1.522542,0.6356 z m 0,-5.1643 -5.1836759,0 2.591838,-0.061 c 1.4255108,-0.034 3.758165,-0.034 5.1836755,0 l 2.591838,0.061 -5.1836756,0 z m 0.097805,-4.0224 c 2.3130936,0 4.2056236,-0.043 4.2056236,-0.095 0,-0.052 -0.330092,-0.4021 -0.733539,-0.7772 l -0.733539,-0.682 -2.702799,-0.01 -2.7027991,-0.01 -0.7657596,0.6357 c -0.4211678,0.3496 -0.7673464,0.7017 -0.7692857,0.7824 l -0.00353,0.1467 4.2056238,0 z"
         id="path3250" />
      <path
         style="fill:#6a180b"
         d="m 7.9155649,1050.4857 -0.5582265,0 -0.8767012,-0.3977 c -0.4821856,-0.2187 -1.3316817,-0.7412 -1.8877692,-1.161 l -1.0110682,-0.7634 -0.6062635,-1.2133 -0.6062634,-1.2132 0,-1.401 0,-1.401 0.3068346,-0.8662 0.3068346,-0.8661 1.111341,-0.9269 1.1113408,-0.9269 2.7385457,0 2.7385454,0 1.104498,0.9269 1.104497,0.9269 0.313678,1.0886 0.313678,1.0887 0,0.8939 0,0.8938 -0.329125,1.0191 -0.329125,1.0191 -0.837604,0.9316 -0.837604,0.9316 -1.3559082,0.7125 -1.3559085,0.7125 -0.5582264,0 z m -0.051541,-0.1957 0.5066852,0 1.1560033,-0.58 c 0.6358016,-0.319 1.4670486,-0.8379 1.8472166,-1.153 l 0.691213,-0.573 0.555662,-1.0209 0.555661,-1.021 0.09748,-1.2144 0.09749,-1.2145 -0.322869,-1.1106 -0.32287,-1.1106 -4.7918321,0 -4.7918323,0 -0.2312237,0.5379 -0.2312238,0.5379 -0.00845,1.8583 -0.00845,1.8583 0.5204774,0.8803 c 0.2862628,0.4841 0.7761354,1.1232 1.0886062,1.4201 0.3124706,0.2969 1.1345519,0.8451 1.8268473,1.2181 l 1.258719,0.6782 0.5066853,0 z m 0.080146,-9.1893 c 2.3130931,0 4.2056231,-0.043 4.2056231,-0.095 0,-0.052 -0.330092,-0.4021 -0.733539,-0.7772 l -0.733539,-0.682 -2.7027985,-0.01 -2.7027991,-0.01 -0.7657596,0.6357 c -0.4211678,0.3496 -0.7673464,0.7017 -0.7692857,0.7824 l -0.00353,0.1467 4.2056238,0 z"
         id="path3248" />
      <path
         style="fill:#100813"
         d="m 7.9008452,1050.4881 -0.5435068,0 -1.0244966,-0.477 -1.0244967,-0.4769 -0.9990261,-0.9345 -0.9990264,-0.9345 -0.376361,-0.7377 -0.376361,-0.7377 -0.094416,-0.9298 -0.094415,-0.9298 0.2490248,1.0783 0.2490249,1.0784 0.4433783,0.7174 c 0.2438581,0.3945 0.7519002,0.9882 1.1289827,1.3193 l 0.6856043,0.602 1.1596163,0.5854 1.1596164,0.5853 0.4457015,0 0.4457016,0 0.9780521,-0.4632 c 0.5379286,-0.2548 1.3496575,-0.7368 1.8038425,-1.0712 l 0.825791,-0.6079 0.590549,-1.0298 c 0.324802,-0.5663 0.591375,-0.9602 0.592385,-0.8752 10e-4,0.085 -0.167839,0.4871 -0.37522,0.8936 l -0.377055,0.7391 -0.790821,0.7144 -0.79082,0.7145 -1.1738713,0.5926 -1.1738708,0.5925 -0.5435067,0 z m 5.3606248,-4.656 -0.102739,0.2567 -0.01544,-0.3749 -0.01544,-0.3749 0.118181,0.1182 0.118181,0.1181 -0.102738,0.2568 z m 0.199682,-0.9632 -0.08442,0.4375 0.0027,-0.9781 0.0027,-0.978 0.08175,0.5406 c 0.04496,0.2973 0.04376,0.7374 -0.0027,0.978 z m -10.9563229,-1.0822 -0.090174,0.346 -0.00725,-0.5868 -0.00725,-0.5869 0.097422,0.2408 c 0.053582,0.1325 0.056844,0.3965 0.00725,0.5869 z m 10.7566409,-1.0844 -0.102739,0.2567 -0.01544,-0.3749 -0.01544,-0.3749 0.118181,0.1182 0.118181,0.1182 -0.102738,0.2567 z m -10.5661798,-0.2975 -0.1304069,0.1304 0,-0.2608 0,-0.2608 0.1304069,0.1304 0.130407,0.1304 -0.130407,0.1304 z m 10.3673518,-0.3912 -0.130407,0.1304 0,-0.2608 0,-0.2608 0.130407,0.1304 0.130407,0.1304 -0.130407,0.1304 z m -10.1717413,-0.1956 -0.130407,0.1304 0,-0.2608 0,-0.2608 0.130407,0.1304 0.1304068,0.1304 -0.1304068,0.1304 z m 9.9435293,-0.326 c -0.05379,0 -0.0978,-0.044 -0.0978,-0.098 0,-0.054 0.04401,-0.098 0.0978,-0.098 0.05379,0 0.09781,0.044 0.09781,0.098 0,0.054 -0.04401,0.098 -0.09781,0.098 z m -9.7805207,-0.1956 c -0.053793,0 -0.097805,-0.044 -0.097805,-0.098 0,-0.054 0.044012,-0.098 0.097805,-0.098 0.053793,0 0.097805,0.044 0.097805,0.098 0,0.054 -0.044012,0.098 -0.097805,0.098 z m 0.3230256,-0.1957 c -0.053793,0 0.1089321,-0.22 0.3616109,-0.489 0.2526787,-0.2689 0.5034284,-0.489 0.5572213,-0.489 0.053793,0 -0.1089322,0.2201 -0.3616109,0.489 -0.2526788,0.269 -0.5034285,0.489 -0.5572213,0.489 z m 9.0902261,0 c -0.04062,0 -0.194663,-0.154 -0.342319,-0.3423 l -0.268464,-0.3423 0.342318,0.2685 c 0.188275,0.1476 0.342318,0.3017 0.342318,0.3423 0,0.041 -0.03323,0.074 -0.07385,0.074 z m -7.6373554,-1.2225 -0.4066234,0.3423 0.3726355,-0.4401 0.3726353,-0.4401 2.7757166,0 2.7757164,0 0.372636,0.4401 0.372635,0.4401 -0.406623,-0.3423 -0.406624,-0.3423 -2.7077404,0 -2.7077408,0 -0.4066232,0.3423 z"
         id="path3246" />
    </g>
  </g>
</svg>
