<?xml version="1.0" encoding="UTF-8" standalone="no"?>
<!-- Created with Inkscape (http://www.inkscape.org/) -->

<svg
   xmlns:dc="http://purl.org/dc/elements/1.1/"
   xmlns:cc="http://creativecommons.org/ns#"
   xmlns:rdf="http://www.w3.org/1999/02/22-rdf-syntax-ns#"
   xmlns:svg="http://www.w3.org/2000/svg"
   xmlns="http://www.w3.org/2000/svg"
   xmlns:sodipodi="http://sodipodi.sourceforge.net/DTD/sodipodi-0.dtd"
   xmlns:inkscape="http://www.inkscape.org/namespaces/inkscape"
   width="16"
   height="16"
   id="svg2"
   version="1.1"
   inkscape:version="0.47 r22583"
   sodipodi:docname="INTE1-32.svg">
  <defs
     id="defs4">
    <inkscape:perspective
       sodipodi:type="inkscape:persp3d"
       inkscape:vp_x="0 : 526.18109 : 1"
       inkscape:vp_y="0 : 1000 : 0"
       inkscape:vp_z="744.09448 : 526.18109 : 1"
       inkscape:persp3d-origin="372.04724 : 350.78739 : 1"
       id="perspective10" />
    <inkscape:perspective
       id="perspective2824"
       inkscape:persp3d-origin="0.5 : 0.33333333 : 1"
       inkscape:vp_z="1 : 0.5 : 1"
       inkscape:vp_y="0 : 1000 : 0"
       inkscape:vp_x="0 : 0.5 : 1"
       sodipodi:type="inkscape:persp3d" />
    <inkscape:perspective
       id="perspective5878"
       inkscape:persp3d-origin="0.5 : 0.33333333 : 1"
       inkscape:vp_z="1 : 0.5 : 1"
       inkscape:vp_y="0 : 1000 : 0"
       inkscape:vp_x="0 : 0.5 : 1"
       sodipodi:type="inkscape:persp3d" />
    <inkscape:perspective
       id="perspective5921"
       inkscape:persp3d-origin="0.5 : 0.33333333 : 1"
       inkscape:vp_z="1 : 0.5 : 1"
       inkscape:vp_y="0 : 1000 : 0"
       inkscape:vp_x="0 : 0.5 : 1"
       sodipodi:type="inkscape:persp3d" />
    <inkscape:perspective
       id="perspective5943"
       inkscape:persp3d-origin="0.5 : 0.33333333 : 1"
       inkscape:vp_z="1 : 0.5 : 1"
       inkscape:vp_y="0 : 1000 : 0"
       inkscape:vp_x="0 : 0.5 : 1"
       sodipodi:type="inkscape:persp3d" />
    <inkscape:perspective
       id="perspective5989"
       inkscape:persp3d-origin="0.5 : 0.33333333 : 1"
       inkscape:vp_z="1 : 0.5 : 1"
       inkscape:vp_y="0 : 1000 : 0"
       inkscape:vp_x="0 : 0.5 : 1"
       sodipodi:type="inkscape:persp3d" />
    <inkscape:perspective
       id="perspective6011"
       inkscape:persp3d-origin="0.5 : 0.33333333 : 1"
       inkscape:vp_z="1 : 0.5 : 1"
       inkscape:vp_y="0 : 1000 : 0"
       inkscape:vp_x="0 : 0.5 : 1"
       sodipodi:type="inkscape:persp3d" />
    <inkscape:perspective
       id="perspective6033"
       inkscape:persp3d-origin="0.5 : 0.33333333 : 1"
       inkscape:vp_z="1 : 0.5 : 1"
       inkscape:vp_y="0 : 1000 : 0"
       inkscape:vp_x="0 : 0.5 : 1"
       sodipodi:type="inkscape:persp3d" />
    <inkscape:perspective
       id="perspective6245"
       inkscape:persp3d-origin="0.5 : 0.33333333 : 1"
       inkscape:vp_z="1 : 0.5 : 1"
       inkscape:vp_y="0 : 1000 : 0"
       inkscape:vp_x="0 : 0.5 : 1"
       sodipodi:type="inkscape:persp3d" />
    <inkscape:perspective
       id="perspective6269"
       inkscape:persp3d-origin="0.5 : 0.33333333 : 1"
       inkscape:vp_z="1 : 0.5 : 1"
       inkscape:vp_y="0 : 1000 : 0"
       inkscape:vp_x="0 : 0.5 : 1"
       sodipodi:type="inkscape:persp3d" />
    <inkscape:perspective
       id="perspective6364"
       inkscape:persp3d-origin="0.5 : 0.33333333 : 1"
       inkscape:vp_z="1 : 0.5 : 1"
       inkscape:vp_y="0 : 1000 : 0"
       inkscape:vp_x="0 : 0.5 : 1"
       sodipodi:type="inkscape:persp3d" />
    <inkscape:perspective
       id="perspective6396"
       inkscape:persp3d-origin="0.5 : 0.33333333 : 1"
       inkscape:vp_z="1 : 0.5 : 1"
       inkscape:vp_y="0 : 1000 : 0"
       inkscape:vp_x="0 : 0.5 : 1"
       sodipodi:type="inkscape:persp3d" />
    <inkscape:perspective
       id="perspective6438"
       inkscape:persp3d-origin="0.5 : 0.33333333 : 1"
       inkscape:vp_z="1 : 0.5 : 1"
       inkscape:vp_y="0 : 1000 : 0"
       inkscape:vp_x="0 : 0.5 : 1"
       sodipodi:type="inkscape:persp3d" />
    <inkscape:perspective
       id="perspective6460"
       inkscape:persp3d-origin="0.5 : 0.33333333 : 1"
       inkscape:vp_z="1 : 0.5 : 1"
       inkscape:vp_y="0 : 1000 : 0"
       inkscape:vp_x="0 : 0.5 : 1"
       sodipodi:type="inkscape:persp3d" />
    <inkscape:perspective
       id="perspective6480"
       inkscape:persp3d-origin="0.5 : 0.33333333 : 1"
       inkscape:vp_z="1 : 0.5 : 1"
       inkscape:vp_y="0 : 1000 : 0"
       inkscape:vp_x="0 : 0.5 : 1"
       sodipodi:type="inkscape:persp3d" />
  </defs>
  <sodipodi:namedview
     id="base"
     pagecolor="#ffffff"
     bordercolor="#666666"
     borderopacity="1.0"
     inkscape:pageopacity="0.0"
     inkscape:pageshadow="2"
     inkscape:zoom="8.671875"
     inkscape:cx="10.564203"
     inkscape:cy="2.743179"
     inkscape:document-units="px"
     inkscape:current-layer="layer1"
     showgrid="true"
     inkscape:window-width="1280"
     inkscape:window-height="780"
     inkscape:window-x="-8"
     inkscape:window-y="-8"
     inkscape:window-maximized="1">
    <inkscape:grid
       type="xygrid"
       id="grid6324"
       empspacing="5"
       visible="true"
       enabled="true"
       snapvisiblegridlinesonly="true" />
  </sodipodi:namedview>
  <metadata
     id="metadata7">
    <rdf:RDF>
      <cc:Work
         rdf:about="">
        <dc:format>image/svg+xml</dc:format>
        <dc:type
           rdf:resource="http://purl.org/dc/dcmitype/StillImage" />
        <dc:title></dc:title>
      </cc:Work>
    </rdf:RDF>
  </metadata>
  <g
     inkscape:label="Calque 1"
     inkscape:groupmode="layer"
     id="layer1"
     transform="translate(0,-1036.3622)">
    <g
       id="g6486"
       transform="translate(0.325862,0.2659)">
      <path
         style="fill:#bfbfbf"
         d="m 7.6853439,1049.9764 -1.1086208,0 0,-0.2771 0,-0.2772 -0.5543105,0 -0.5543104,0 0,-0.2771 0,-0.2772 -0.5543104,0 -0.5543104,0 0,-0.2771 0,-0.2772 -0.4283309,0 -0.4283307,0 -0.68029,-0.6803 -0.6802901,-0.6803 0,-0.4283 0,-0.4283 -0.2771552,0 -0.2771552,0 0,-0.5543 0,-0.5543 -0.2771552,0 -0.2771553,0 0,-2.4944 0,-2.4944 0.2771553,0 0.2771552,0 0,-0.4356 0,-0.4355 0.395936,-0.3959 0.395936,-0.396 5.3055426,0 5.3055421,0 0.395937,0.396 0.395936,0.3959 0,0.4355 0,0.4356 0.277155,0 0.277155,0 0,2.4944 0,2.4944 -0.277155,0 -0.277155,0 0,0.5543 0,0.5543 -0.277156,0 -0.277155,0 0,0.4283 0,0.4283 -0.68029,0.6803 -0.68029,0.6803 -0.428331,0 -0.428331,0 0,0.2772 0,0.2771 -0.55431,0 -0.5543104,0 0,0.2772 0,0.2771 -0.5543104,0 -0.5543105,0 0,0.2772 0,0.2771 -1.1086208,0 z"
         id="path6494" />
      <path
         style="fill:#fe0000"
         d="m 7.6853439,1049.9764 -1.1086208,0 0,-0.2771 0,-0.2772 -0.5543105,0 -0.5543104,0 0,-0.2771 0,-0.2772 -0.5543104,0 -0.5543104,0 0,-0.2771 0,-0.2772 -0.4283309,0 -0.4283307,0 -0.68029,-0.6803 -0.6802901,-0.6803 0,-0.4283 0,-0.4283 -0.2771552,0 -0.2771552,0 0,-0.5543 0,-0.5543 -0.2771552,0 -0.2771553,0 0,-2.4944 0,-2.4944 0.2771553,0 0.2771552,0 0,-0.4356 0,-0.4355 0.395936,-0.3959 0.395936,-0.396 5.3055426,0 5.3055421,0 0.395937,0.396 0.395936,0.3959 0,0.4355 0,0.4356 0.277155,0 0.277155,0 0,2.4944 0,2.4944 -0.277155,0 -0.277155,0 0,0.5543 0,0.5543 -0.277156,0 -0.277155,0 0,0.4283 0,0.4283 -0.68029,0.6803 -0.68029,0.6803 -0.428331,0 -0.428331,0 0,0.2772 0,0.2771 -0.55431,0 -0.5543104,0 0,0.2772 0,0.2771 -0.5543104,0 -0.5543105,0 0,0.2772 0,0.2771 -1.1086208,0 z m 0,-7.206 6.0974151,0 0,-0.5543 0,-0.5543 -6.0974151,0 -6.0974146,0 0,0.5543 0,0.5543 6.0974146,0 z"
         id="path6492" />
      <path
         style="fill:#00007f"
         d="m 7.6853439,1049.9764 -1.1086208,0 0,-0.2771 0,-0.2772 -0.5543105,0 -0.5543104,0 0,-0.2771 0,-0.2772 -0.5543104,0 -0.5543104,0 0,-0.2771 0,-0.2772 -0.4283309,0 -0.4283307,0 -0.68029,-0.6803 -0.6802901,-0.6803 0,-0.4283 0,-0.4283 -0.2771552,0 -0.2771552,0 0,-0.5543 0,-0.5543 -0.2771552,0 -0.2771553,0 0,-2.4944 0,-2.4944 0.2771553,0 0.2771552,0 0,-0.4356 0,-0.4355 0.395936,-0.3959 0.395936,-0.396 5.3055426,0 5.3055421,0 0.395937,0.396 0.395936,0.3959 0,0.4355 0,0.4356 0.277155,0 0.277155,0 0,2.4944 0,2.4944 -0.277155,0 -0.277155,0 0,0.5543 0,0.5543 -0.277156,0 -0.277155,0 0,0.4283 0,0.4283 -0.68029,0.6803 -0.68029,0.6803 -0.428331,0 -0.428331,0 0,0.2772 0,0.2771 -0.55431,0 -0.5543104,0 0,0.2772 0,0.2771 -0.5543104,0 -0.5543105,0 0,0.2772 0,0.2771 -1.1086208,0 z m 0,-7.206 6.0974151,0 0,-1.3858 0,-1.3857 -0.277156,0 -0.277155,0 0,-0.5543 0,-0.5544 -5.5431041,0 -5.5431042,0 0,0.5544 0,0.5543 -0.2771552,0 -0.2771552,0 0,1.3857 0,1.3858 6.0974146,0 z"
         id="path6490" />
      <path
         style="fill:#000000"
         d="m 7.6853439,1049.9764 -1.1086208,0 0,-0.2771 0,-0.2772 -0.5543105,0 -0.5543104,0 0,-0.2771 0,-0.2772 -0.5543104,0 -0.5543104,0 0,-0.2771 0,-0.2772 -0.4283309,0 -0.4283307,0 -0.68029,-0.6803 -0.6802901,-0.6803 0,-0.4283 0,-0.4283 -0.2771552,0 -0.2771552,0 0,-0.5543 0,-0.5543 -0.2771552,0 -0.2771553,0 0,-2.4944 0,-2.4944 0.2771553,0 0.2771552,0 0,-0.4356 0,-0.4355 0.395936,-0.3959 0.395936,-0.396 5.3055426,0 5.3055421,0 0.395937,0.396 0.395936,0.3959 0,0.4355 0,0.4356 0.277155,0 0.277155,0 0,2.4944 0,2.4944 -0.277155,0 -0.277155,0 0,0.5543 0,0.5543 -0.277156,0 -0.277155,0 0,0.4283 0,0.4283 -0.68029,0.6803 -0.68029,0.6803 -0.428331,0 -0.428331,0 0,0.2772 0,0.2771 -0.55431,0 -0.5543104,0 0,0.2772 0,0.2771 -0.5543104,0 -0.5543105,0 0,0.2772 0,0.2771 -1.1086208,0 z m 0,-0.5543 1.1086208,0 0,-0.2771 0,-0.2772 0.5543105,0 0.5543104,0 0,-0.2771 0,-0.2772 0.5543104,0 0.55431,0 0,-0.2771 0,-0.2772 0.43553,0 0.43553,0 0.395936,-0.3959 0.395936,-0.396 0,-0.4355 0,-0.4355 0.277155,0 0.277155,0 0,-0.5543 0,-0.5543 0.277155,0 0.277156,0 0,-2.4944 0,-2.4944 -0.277156,0 -0.277155,0 0,-0.5543 0,-0.5544 -5.5431041,0 -5.5431042,0 0,0.5544 0,0.5543 -0.2771552,0 -0.2771552,0 0,2.4944 0,2.4944 0.2771552,0 0.2771552,0 0,0.5543 0,0.5543 0.2771552,0 0.2771552,0 0,0.4355 0,0.4355 0.3959359,0.396 0.3959362,0.3959 0.4355294,0 0.4355298,0 0,0.2772 0,0.2771 0.5543104,0 0.5543104,0 0,0.2772 0,0.2771 0.5543104,0 0.5543105,0 0,0.2772 0,0.2771 1.1086208,0 z"
         id="path6488" />
    </g>
  </g>
</svg>
