<?xml version="1.0" encoding="UTF-8" standalone="no"?>
<!-- Created with Inkscape (http://www.inkscape.org/) -->

<svg
   xmlns:dc="http://purl.org/dc/elements/1.1/"
   xmlns:cc="http://creativecommons.org/ns#"
   xmlns:rdf="http://www.w3.org/1999/02/22-rdf-syntax-ns#"
   xmlns:svg="http://www.w3.org/2000/svg"
   xmlns="http://www.w3.org/2000/svg"
   xmlns:sodipodi="http://sodipodi.sourceforge.net/DTD/sodipodi-0.dtd"
   xmlns:inkscape="http://www.inkscape.org/namespaces/inkscape"
   width="16"
   height="16"
   id="svg2"
   version="1.1"
   inkscape:version="0.47 r22583"
   sodipodi:docname="lighthouse2-64.svg">
  <defs
     id="defs4">
    <inkscape:perspective
       sodipodi:type="inkscape:persp3d"
       inkscape:vp_x="0 : 526.18109 : 1"
       inkscape:vp_y="0 : 1000 : 0"
       inkscape:vp_z="744.09448 : 526.18109 : 1"
       inkscape:persp3d-origin="372.04724 : 350.78739 : 1"
       id="perspective10" />
    <inkscape:perspective
       id="perspective2824"
       inkscape:persp3d-origin="0.5 : 0.33333333 : 1"
       inkscape:vp_z="1 : 0.5 : 1"
       inkscape:vp_y="0 : 1000 : 0"
       inkscape:vp_x="0 : 0.5 : 1"
       sodipodi:type="inkscape:persp3d" />
    <inkscape:perspective
       id="perspective5878"
       inkscape:persp3d-origin="0.5 : 0.33333333 : 1"
       inkscape:vp_z="1 : 0.5 : 1"
       inkscape:vp_y="0 : 1000 : 0"
       inkscape:vp_x="0 : 0.5 : 1"
       sodipodi:type="inkscape:persp3d" />
    <inkscape:perspective
       id="perspective5921"
       inkscape:persp3d-origin="0.5 : 0.33333333 : 1"
       inkscape:vp_z="1 : 0.5 : 1"
       inkscape:vp_y="0 : 1000 : 0"
       inkscape:vp_x="0 : 0.5 : 1"
       sodipodi:type="inkscape:persp3d" />
    <inkscape:perspective
       id="perspective5943"
       inkscape:persp3d-origin="0.5 : 0.33333333 : 1"
       inkscape:vp_z="1 : 0.5 : 1"
       inkscape:vp_y="0 : 1000 : 0"
       inkscape:vp_x="0 : 0.5 : 1"
       sodipodi:type="inkscape:persp3d" />
    <inkscape:perspective
       id="perspective5989"
       inkscape:persp3d-origin="0.5 : 0.33333333 : 1"
       inkscape:vp_z="1 : 0.5 : 1"
       inkscape:vp_y="0 : 1000 : 0"
       inkscape:vp_x="0 : 0.5 : 1"
       sodipodi:type="inkscape:persp3d" />
    <inkscape:perspective
       id="perspective6011"
       inkscape:persp3d-origin="0.5 : 0.33333333 : 1"
       inkscape:vp_z="1 : 0.5 : 1"
       inkscape:vp_y="0 : 1000 : 0"
       inkscape:vp_x="0 : 0.5 : 1"
       sodipodi:type="inkscape:persp3d" />
    <inkscape:perspective
       id="perspective6033"
       inkscape:persp3d-origin="0.5 : 0.33333333 : 1"
       inkscape:vp_z="1 : 0.5 : 1"
       inkscape:vp_y="0 : 1000 : 0"
       inkscape:vp_x="0 : 0.5 : 1"
       sodipodi:type="inkscape:persp3d" />
    <inkscape:perspective
       id="perspective6245"
       inkscape:persp3d-origin="0.5 : 0.33333333 : 1"
       inkscape:vp_z="1 : 0.5 : 1"
       inkscape:vp_y="0 : 1000 : 0"
       inkscape:vp_x="0 : 0.5 : 1"
       sodipodi:type="inkscape:persp3d" />
    <inkscape:perspective
       id="perspective6269"
       inkscape:persp3d-origin="0.5 : 0.33333333 : 1"
       inkscape:vp_z="1 : 0.5 : 1"
       inkscape:vp_y="0 : 1000 : 0"
       inkscape:vp_x="0 : 0.5 : 1"
       sodipodi:type="inkscape:persp3d" />
    <inkscape:perspective
       id="perspective6364"
       inkscape:persp3d-origin="0.5 : 0.33333333 : 1"
       inkscape:vp_z="1 : 0.5 : 1"
       inkscape:vp_y="0 : 1000 : 0"
       inkscape:vp_x="0 : 0.5 : 1"
       sodipodi:type="inkscape:persp3d" />
    <inkscape:perspective
       id="perspective6396"
       inkscape:persp3d-origin="0.5 : 0.33333333 : 1"
       inkscape:vp_z="1 : 0.5 : 1"
       inkscape:vp_y="0 : 1000 : 0"
       inkscape:vp_x="0 : 0.5 : 1"
       sodipodi:type="inkscape:persp3d" />
    <inkscape:perspective
       id="perspective6438"
       inkscape:persp3d-origin="0.5 : 0.33333333 : 1"
       inkscape:vp_z="1 : 0.5 : 1"
       inkscape:vp_y="0 : 1000 : 0"
       inkscape:vp_x="0 : 0.5 : 1"
       sodipodi:type="inkscape:persp3d" />
    <inkscape:perspective
       id="perspective6460"
       inkscape:persp3d-origin="0.5 : 0.33333333 : 1"
       inkscape:vp_z="1 : 0.5 : 1"
       inkscape:vp_y="0 : 1000 : 0"
       inkscape:vp_x="0 : 0.5 : 1"
       sodipodi:type="inkscape:persp3d" />
    <inkscape:perspective
       id="perspective6480"
       inkscape:persp3d-origin="0.5 : 0.33333333 : 1"
       inkscape:vp_z="1 : 0.5 : 1"
       inkscape:vp_y="0 : 1000 : 0"
       inkscape:vp_x="0 : 0.5 : 1"
       sodipodi:type="inkscape:persp3d" />
    <inkscape:perspective
       id="perspective6504"
       inkscape:persp3d-origin="0.5 : 0.33333333 : 1"
       inkscape:vp_z="1 : 0.5 : 1"
       inkscape:vp_y="0 : 1000 : 0"
       inkscape:vp_x="0 : 0.5 : 1"
       sodipodi:type="inkscape:persp3d" />
    <inkscape:perspective
       id="perspective6524"
       inkscape:persp3d-origin="0.5 : 0.33333333 : 1"
       inkscape:vp_z="1 : 0.5 : 1"
       inkscape:vp_y="0 : 1000 : 0"
       inkscape:vp_x="0 : 0.5 : 1"
       sodipodi:type="inkscape:persp3d" />
    <inkscape:perspective
       id="perspective6548"
       inkscape:persp3d-origin="0.5 : 0.33333333 : 1"
       inkscape:vp_z="1 : 0.5 : 1"
       inkscape:vp_y="0 : 1000 : 0"
       inkscape:vp_x="0 : 0.5 : 1"
       sodipodi:type="inkscape:persp3d" />
    <inkscape:perspective
       id="perspective6572"
       inkscape:persp3d-origin="0.5 : 0.33333333 : 1"
       inkscape:vp_z="1 : 0.5 : 1"
       inkscape:vp_y="0 : 1000 : 0"
       inkscape:vp_x="0 : 0.5 : 1"
       sodipodi:type="inkscape:persp3d" />
    <inkscape:perspective
       id="perspective6594"
       inkscape:persp3d-origin="0.5 : 0.33333333 : 1"
       inkscape:vp_z="1 : 0.5 : 1"
       inkscape:vp_y="0 : 1000 : 0"
       inkscape:vp_x="0 : 0.5 : 1"
       sodipodi:type="inkscape:persp3d" />
    <inkscape:perspective
       id="perspective6614"
       inkscape:persp3d-origin="0.5 : 0.33333333 : 1"
       inkscape:vp_z="1 : 0.5 : 1"
       inkscape:vp_y="0 : 1000 : 0"
       inkscape:vp_x="0 : 0.5 : 1"
       sodipodi:type="inkscape:persp3d" />
    <inkscape:perspective
       id="perspective6650"
       inkscape:persp3d-origin="0.5 : 0.33333333 : 1"
       inkscape:vp_z="1 : 0.5 : 1"
       inkscape:vp_y="0 : 1000 : 0"
       inkscape:vp_x="0 : 0.5 : 1"
       sodipodi:type="inkscape:persp3d" />
    <inkscape:perspective
       id="perspective6676"
       inkscape:persp3d-origin="0.5 : 0.33333333 : 1"
       inkscape:vp_z="1 : 0.5 : 1"
       inkscape:vp_y="0 : 1000 : 0"
       inkscape:vp_x="0 : 0.5 : 1"
       sodipodi:type="inkscape:persp3d" />
    <inkscape:perspective
       id="perspective6710"
       inkscape:persp3d-origin="0.5 : 0.33333333 : 1"
       inkscape:vp_z="1 : 0.5 : 1"
       inkscape:vp_y="0 : 1000 : 0"
       inkscape:vp_x="0 : 0.5 : 1"
       sodipodi:type="inkscape:persp3d" />
    <inkscape:perspective
       id="perspective6748"
       inkscape:persp3d-origin="0.5 : 0.33333333 : 1"
       inkscape:vp_z="1 : 0.5 : 1"
       inkscape:vp_y="0 : 1000 : 0"
       inkscape:vp_x="0 : 0.5 : 1"
       sodipodi:type="inkscape:persp3d" />
    <inkscape:perspective
       id="perspective6786"
       inkscape:persp3d-origin="0.5 : 0.33333333 : 1"
       inkscape:vp_z="1 : 0.5 : 1"
       inkscape:vp_y="0 : 1000 : 0"
       inkscape:vp_x="0 : 0.5 : 1"
       sodipodi:type="inkscape:persp3d" />
    <inkscape:perspective
       id="perspective6810"
       inkscape:persp3d-origin="0.5 : 0.33333333 : 1"
       inkscape:vp_z="1 : 0.5 : 1"
       inkscape:vp_y="0 : 1000 : 0"
       inkscape:vp_x="0 : 0.5 : 1"
       sodipodi:type="inkscape:persp3d" />
    <inkscape:perspective
       id="perspective6848"
       inkscape:persp3d-origin="0.5 : 0.33333333 : 1"
       inkscape:vp_z="1 : 0.5 : 1"
       inkscape:vp_y="0 : 1000 : 0"
       inkscape:vp_x="0 : 0.5 : 1"
       sodipodi:type="inkscape:persp3d" />
    <inkscape:perspective
       id="perspective6870"
       inkscape:persp3d-origin="0.5 : 0.33333333 : 1"
       inkscape:vp_z="1 : 0.5 : 1"
       inkscape:vp_y="0 : 1000 : 0"
       inkscape:vp_x="0 : 0.5 : 1"
       sodipodi:type="inkscape:persp3d" />
    <inkscape:perspective
       id="perspective6908"
       inkscape:persp3d-origin="0.5 : 0.33333333 : 1"
       inkscape:vp_z="1 : 0.5 : 1"
       inkscape:vp_y="0 : 1000 : 0"
       inkscape:vp_x="0 : 0.5 : 1"
       sodipodi:type="inkscape:persp3d" />
    <inkscape:perspective
       id="perspective6946"
       inkscape:persp3d-origin="0.5 : 0.33333333 : 1"
       inkscape:vp_z="1 : 0.5 : 1"
       inkscape:vp_y="0 : 1000 : 0"
       inkscape:vp_x="0 : 0.5 : 1"
       sodipodi:type="inkscape:persp3d" />
    <inkscape:perspective
       id="perspective6970"
       inkscape:persp3d-origin="0.5 : 0.33333333 : 1"
       inkscape:vp_z="1 : 0.5 : 1"
       inkscape:vp_y="0 : 1000 : 0"
       inkscape:vp_x="0 : 0.5 : 1"
       sodipodi:type="inkscape:persp3d" />
    <inkscape:perspective
       id="perspective7008"
       inkscape:persp3d-origin="0.5 : 0.33333333 : 1"
       inkscape:vp_z="1 : 0.5 : 1"
       inkscape:vp_y="0 : 1000 : 0"
       inkscape:vp_x="0 : 0.5 : 1"
       sodipodi:type="inkscape:persp3d" />
    <inkscape:perspective
       id="perspective7036"
       inkscape:persp3d-origin="0.5 : 0.33333333 : 1"
       inkscape:vp_z="1 : 0.5 : 1"
       inkscape:vp_y="0 : 1000 : 0"
       inkscape:vp_x="0 : 0.5 : 1"
       sodipodi:type="inkscape:persp3d" />
    <inkscape:perspective
       id="perspective7060"
       inkscape:persp3d-origin="0.5 : 0.33333333 : 1"
       inkscape:vp_z="1 : 0.5 : 1"
       inkscape:vp_y="0 : 1000 : 0"
       inkscape:vp_x="0 : 0.5 : 1"
       sodipodi:type="inkscape:persp3d" />
    <inkscape:perspective
       id="perspective7098"
       inkscape:persp3d-origin="0.5 : 0.33333333 : 1"
       inkscape:vp_z="1 : 0.5 : 1"
       inkscape:vp_y="0 : 1000 : 0"
       inkscape:vp_x="0 : 0.5 : 1"
       sodipodi:type="inkscape:persp3d" />
    <inkscape:perspective
       id="perspective7136"
       inkscape:persp3d-origin="0.5 : 0.33333333 : 1"
       inkscape:vp_z="1 : 0.5 : 1"
       inkscape:vp_y="0 : 1000 : 0"
       inkscape:vp_x="0 : 0.5 : 1"
       sodipodi:type="inkscape:persp3d" />
    <inkscape:perspective
       id="perspective7174"
       inkscape:persp3d-origin="0.5 : 0.33333333 : 1"
       inkscape:vp_z="1 : 0.5 : 1"
       inkscape:vp_y="0 : 1000 : 0"
       inkscape:vp_x="0 : 0.5 : 1"
       sodipodi:type="inkscape:persp3d" />
    <inkscape:perspective
       id="perspective7212"
       inkscape:persp3d-origin="0.5 : 0.33333333 : 1"
       inkscape:vp_z="1 : 0.5 : 1"
       inkscape:vp_y="0 : 1000 : 0"
       inkscape:vp_x="0 : 0.5 : 1"
       sodipodi:type="inkscape:persp3d" />
    <inkscape:perspective
       id="perspective7234"
       inkscape:persp3d-origin="0.5 : 0.33333333 : 1"
       inkscape:vp_z="1 : 0.5 : 1"
       inkscape:vp_y="0 : 1000 : 0"
       inkscape:vp_x="0 : 0.5 : 1"
       sodipodi:type="inkscape:persp3d" />
    <inkscape:perspective
       id="perspective7272"
       inkscape:persp3d-origin="0.5 : 0.33333333 : 1"
       inkscape:vp_z="1 : 0.5 : 1"
       inkscape:vp_y="0 : 1000 : 0"
       inkscape:vp_x="0 : 0.5 : 1"
       sodipodi:type="inkscape:persp3d" />
    <inkscape:perspective
       id="perspective7294"
       inkscape:persp3d-origin="0.5 : 0.33333333 : 1"
       inkscape:vp_z="1 : 0.5 : 1"
       inkscape:vp_y="0 : 1000 : 0"
       inkscape:vp_x="0 : 0.5 : 1"
       sodipodi:type="inkscape:persp3d" />
    <inkscape:perspective
       id="perspective7330"
       inkscape:persp3d-origin="0.5 : 0.33333333 : 1"
       inkscape:vp_z="1 : 0.5 : 1"
       inkscape:vp_y="0 : 1000 : 0"
       inkscape:vp_x="0 : 0.5 : 1"
       sodipodi:type="inkscape:persp3d" />
    <inkscape:perspective
       id="perspective3068"
       inkscape:persp3d-origin="0.5 : 0.33333333 : 1"
       inkscape:vp_z="1 : 0.5 : 1"
       inkscape:vp_y="0 : 1000 : 0"
       inkscape:vp_x="0 : 0.5 : 1"
       sodipodi:type="inkscape:persp3d" />
    <inkscape:perspective
       id="perspective3106"
       inkscape:persp3d-origin="0.5 : 0.33333333 : 1"
       inkscape:vp_z="1 : 0.5 : 1"
       inkscape:vp_y="0 : 1000 : 0"
       inkscape:vp_x="0 : 0.5 : 1"
       sodipodi:type="inkscape:persp3d" />
    <inkscape:perspective
       id="perspective3128"
       inkscape:persp3d-origin="0.5 : 0.33333333 : 1"
       inkscape:vp_z="1 : 0.5 : 1"
       inkscape:vp_y="0 : 1000 : 0"
       inkscape:vp_x="0 : 0.5 : 1"
       sodipodi:type="inkscape:persp3d" />
    <inkscape:perspective
       id="perspective3152"
       inkscape:persp3d-origin="0.5 : 0.33333333 : 1"
       inkscape:vp_z="1 : 0.5 : 1"
       inkscape:vp_y="0 : 1000 : 0"
       inkscape:vp_x="0 : 0.5 : 1"
       sodipodi:type="inkscape:persp3d" />
    <inkscape:perspective
       id="perspective3174"
       inkscape:persp3d-origin="0.5 : 0.33333333 : 1"
       inkscape:vp_z="1 : 0.5 : 1"
       inkscape:vp_y="0 : 1000 : 0"
       inkscape:vp_x="0 : 0.5 : 1"
       sodipodi:type="inkscape:persp3d" />
    <inkscape:perspective
       id="perspective3212"
       inkscape:persp3d-origin="0.5 : 0.33333333 : 1"
       inkscape:vp_z="1 : 0.5 : 1"
       inkscape:vp_y="0 : 1000 : 0"
       inkscape:vp_x="0 : 0.5 : 1"
       sodipodi:type="inkscape:persp3d" />
    <inkscape:perspective
       id="perspective3238"
       inkscape:persp3d-origin="0.5 : 0.33333333 : 1"
       inkscape:vp_z="1 : 0.5 : 1"
       inkscape:vp_y="0 : 1000 : 0"
       inkscape:vp_x="0 : 0.5 : 1"
       sodipodi:type="inkscape:persp3d" />
    <inkscape:perspective
       id="perspective3276"
       inkscape:persp3d-origin="0.5 : 0.33333333 : 1"
       inkscape:vp_z="1 : 0.5 : 1"
       inkscape:vp_y="0 : 1000 : 0"
       inkscape:vp_x="0 : 0.5 : 1"
       sodipodi:type="inkscape:persp3d" />
  </defs>
  <sodipodi:namedview
     id="base"
     pagecolor="#ffffff"
     bordercolor="#666666"
     borderopacity="1.0"
     inkscape:pageopacity="0.0"
     inkscape:pageshadow="2"
     inkscape:zoom="11.313709"
     inkscape:cx="15.14621"
     inkscape:cy="-3.0035389"
     inkscape:document-units="px"
     inkscape:current-layer="layer1"
     showgrid="true"
     inkscape:window-width="1280"
     inkscape:window-height="780"
     inkscape:window-x="-8"
     inkscape:window-y="-8"
     inkscape:window-maximized="1">
    <inkscape:grid
       type="xygrid"
       id="grid6324"
       empspacing="5"
       visible="true"
       enabled="true"
       snapvisiblegridlinesonly="true" />
  </sodipodi:namedview>
  <metadata
     id="metadata7">
    <rdf:RDF>
      <cc:Work
         rdf:about="">
        <dc:format>image/svg+xml</dc:format>
        <dc:type
           rdf:resource="http://purl.org/dc/dcmitype/StillImage" />
        <dc:title></dc:title>
      </cc:Work>
    </rdf:RDF>
  </metadata>
  <g
     inkscape:label="Calque 1"
     inkscape:groupmode="layer"
     id="layer1"
     transform="translate(0,-1036.3622)">
    <g
       id="g3282"
       transform="translate(0.468264,-0.121)">
      <path
         style="fill:#f6e4a7"
         d="m 7.9593336,1050.8864 -2.3713117,0 -0.4593334,-0.5005 -0.4593337,-0.5006 0.2620968,-0.093 0.2620968,-0.094 0,-0.2645 c 0,-0.1455 0.1827641,-0.43 0.4061424,-0.6321 l 0.4061422,-0.3676 0.2228901,0.1378 0.2228898,0.1377 0.009,-1.218 c 0.00495,-0.6699 0.054461,-1.9728 0.110029,-2.8954 0.055568,-0.9226 0.1455283,-1.947 0.1999111,-2.2764 l 0.098878,-0.599 -0.3253212,-0.6855 -0.3253213,-0.6856 -1.5085854,-0.1444 c -0.8297218,-0.08 -1.7208836,-0.1957 -1.9803594,-0.2584 l -0.4717742,-0.1139 0,-0.3967 c 0,-0.2181 0.028435,-0.3966 0.063188,-0.3966 0.034753,0 0.8603584,0.2339 1.8346774,0.5198 0.9743192,0.2859 1.978219,0.5218 2.2308889,0.5242 l 0.4593997,0 0.1295878,-0.2097 0.1295877,-0.2096 0.4270316,0 0.4270317,0 0.6061779,0.4316 0.6061776,0.4316 -0.3995198,0.5644 -0.3995197,0.5643 0.2510262,3.5234 0.251026,3.5234 0.3085548,0.2002 c 0.1697053,0.1102 0.507135,0.2534 0.749844,0.3183 l 0.4412887,0.1181 -0.02193,0.7712 -0.02193,0.7712 -2.3713116,0 z m 2.8694904,-10.7071 -1.7562434,0.1247 1.9919354,-0.6294 c 1.095565,-0.3461 2.015524,-0.6306 2.044355,-0.6322 0.02883,0 0.05242,0.1758 0.05242,0.3941 l 0,0.397 -0.288111,0.1105 c -0.158461,0.061 -1.078421,0.1667 -2.044355,0.2353 z"
         id="path3304" />
      <path
         style="fill:#f5f85c"
         d="m 7.9593336,1050.8864 -2.3713117,0 -0.4593334,-0.5005 -0.4593337,-0.5006 0.2620968,-0.093 0.2620968,-0.094 0,-0.2645 c 0,-0.1455 0.1827641,-0.43 0.4061424,-0.6321 l 0.4061422,-0.3676 0.2228901,0.1378 0.2228898,0.1377 0.009,-1.218 c 0.00495,-0.6699 0.054461,-1.9728 0.110029,-2.8954 0.055568,-0.9226 0.1455283,-1.947 0.1999111,-2.2764 l 0.098878,-0.599 -0.3278739,-0.6909 -0.3278738,-0.691 -1.628879,-0.1442 c -0.8958837,-0.079 -1.7220131,-0.2065 -1.8358432,-0.2826 -0.1138301,-0.076 -0.2678863,-0.3036 -0.342347,-0.5054 -0.074461,-0.2019 -0.1099098,-0.367 -0.078776,-0.367 0.031134,0 0.8537777,0.2339 1.8280967,0.5198 0.9743192,0.2859 1.978219,0.5218 2.2308889,0.5242 l 0.4593997,0 0.1295878,-0.2097 0.1295877,-0.2096 0.4270316,0 0.4270317,0 0.6061779,0.4316 0.6061776,0.4316 -0.3995198,0.5644 -0.3995197,0.5643 0.2510262,3.5234 0.251026,3.5234 0.3085548,0.2002 c 0.1697053,0.1102 0.507135,0.2534 0.749844,0.3183 l 0.4412888,0.1181 -0.02193,0.7712 -0.02193,0.7712 -2.3713117,0 z m 0.1466419,-1.1532 c 0.08903,0 0.2880385,-0.2358 0.4422426,-0.5239 l 0.2803708,-0.5239 -0.1348582,-0.1348 -0.1348581,-0.1349 -0.405223,0.5004 -0.4052232,0.5005 0.097839,0.1583 c 0.053811,0.087 0.1706807,0.1583 0.2597102,0.1583 z m -0.5011368,-2.4945 0.9435484,-1.0087 0,-0.3888 0,-0.3889 -0.9435484,0.926 -0.9435484,0.9261 0,0.4715 0,0.4716 0.9435484,-1.0088 z m 0.050572,-2.5954 0.7248834,-0.7248 -0.073212,-0.3548 -0.073212,-0.3548 -0.7882754,0.7237 -0.7882753,0.7237 0.1366034,0.3559 0.1366035,0.356 0.7248836,-0.7249 z m -0.2316176,-2.182 0.5528256,-0.3623 -0.2452266,-0.082 c -0.1348745,-0.045 -0.3836459,-0.029 -0.5528254,0.036 l -0.3075991,0.118 0,0.3259 0,0.326 0.5528255,-0.3622 z m 2.4874971,-2.1952 -0.8387097,0.01 1.9919355,-0.613 c 1.095565,-0.3371 2.012484,-0.6142 2.037598,-0.6158 0.02511,0 -0.03251,0.2095 -0.128044,0.469 l -0.173706,0.4718 -1.025182,0.1389 c -0.56385,0.076 -1.402601,0.1412 -1.8638918,0.144 z"
         id="path3302" />
      <path
         style="fill:#b2b28f"
         d="m 7.9593336,1050.8864 -2.3713117,0 -0.4593334,-0.5005 -0.4593337,-0.5006 0.2620968,-0.093 0.2620968,-0.094 0,-0.2645 c 0,-0.1455 0.1827641,-0.43 0.4061424,-0.6321 l 0.4061422,-0.3676 0.2228901,0.1378 0.2228898,0.1377 0.009,-1.218 c 0.00495,-0.6699 0.054461,-1.9728 0.110029,-2.8954 0.055568,-0.9226 0.1455283,-1.947 0.1999111,-2.2764 l 0.098878,-0.599 -0.3376362,-0.7115 -0.3376362,-0.7115 -0.867238,0 -0.8672382,0 0.3145161,-0.2033 0.3145162,-0.2032 -0.4018818,0 -0.4018816,0 0.111578,-0.1115 0.1115781,-0.1116 0.979546,0.262 0.9795461,0.2619 0.4087189,-0.2552 c 0.2247954,-0.1404 0.5605548,-0.2552 0.7461316,-0.2552 l 0.3374125,0 0.6061779,0.4316 0.6061776,0.4316 -0.3995198,0.5644 -0.3995197,0.5643 0.2510262,3.5234 0.251026,3.5234 0.3085548,0.2002 c 0.1697053,0.1102 0.507135,0.2534 0.749844,0.3183 l 0.4412885,0.1181 -0.02193,0.7712 -0.02193,0.7712 -2.3713114,0 z m 0.1466419,-1.1532 c 0.08903,0 0.2880385,-0.2358 0.4422426,-0.5239 l 0.2803708,-0.5239 -0.1348582,-0.1348 -0.1348581,-0.1349 -0.405223,0.5004 -0.4052232,0.5005 0.097839,0.1583 c 0.053811,0.087 0.1706807,0.1583 0.2597102,0.1583 z m -0.5011368,-2.4945 0.9435484,-1.0087 0,-0.3888 0,-0.3889 -0.9435484,0.926 -0.9435484,0.9261 0,0.4715 0,0.4716 0.9435484,-1.0088 z m 0.050572,-2.5954 0.7248834,-0.7248 -0.073212,-0.3548 -0.073212,-0.3548 -0.7882754,0.7237 -0.7882753,0.7237 0.1366034,0.3559 0.1366035,0.356 0.7248836,-0.7249 z m -0.2316176,-2.182 0.5528256,-0.3623 -0.2452266,-0.082 c -0.1348745,-0.045 -0.3836459,-0.029 -0.5528254,0.036 l -0.3075991,0.118 0,0.3259 0,0.326 0.5528255,-0.3622 z m 2.6971749,-2.1949 -1.0483875,0 0.5944628,-0.1783 0.5944627,-0.1783 0.453924,0.1831 0.453925,0.183 -1.048387,0 z m -6.6048391,-0.227 -0.7338709,0 0.3669354,-0.096 c 0.2018146,-0.053 0.5320565,-0.053 0.733871,0 l 0.3669355,0.096 -0.733871,0 z m 8.5967741,0 -0.733871,0 0.366936,-0.096 c 0.201814,-0.053 0.532056,-0.053 0.733871,0 l 0.366935,0.096 -0.733871,0 z m -1.258064,-0.1611 -0.27957,0 0.139785,-0.1398 0.139785,-0.1397 0.139785,0.1397 0.139785,0.1398 -0.27957,0 z m -6.9193552,-0.2096 -0.2795699,0 0.1397849,-0.1398 0.139785,-0.1398 0.139785,0.1398 0.1397848,0.1398 -0.2795698,0 z m 7.6706992,-0.017 -0.401882,0.017 0.12668,-0.1267 0.12668,-0.1267 0.275202,0.1101 0.275202,0.1101 -0.401882,0.017 z m -8.3870971,-0.2097 -0.4018817,0.017 0.1266801,-0.1267 0.1266801,-0.1267 0.2752016,0.1101 0.2752016,0.1102 -0.4018817,0.016 z m 9.1034951,0.017 -0.27957,0 0.139785,-0.1398 0.139785,-0.1398 0.139785,0.1398 0.139784,0.1398 -0.279569,0 z m -9.8548392,-0.2097 -0.2795698,0 0.1397849,-0.1398 0.1397849,-0.1398 0.139785,0.1398 0.1397849,0.1398 -0.2795699,0 z m 10.4838712,0 -0.27957,0 0.139785,-0.1398 0.139785,-0.1398 0.139785,0.1398 0.139785,0.1398 -0.27957,0 z"
         id="path3300" />
      <path
         style="fill:#df9b66"
         d="m 7.9593336,1050.8864 -2.3713117,0 -0.4593334,-0.5005 -0.4593337,-0.5006 0.2620968,-0.093 0.2620968,-0.094 0,-0.2645 c 0,-0.1455 0.1827641,-0.43 0.4061424,-0.6321 l 0.4061422,-0.3676 0.2228901,0.1378 0.2228898,0.1377 0.012,-1.3228 c 0.0066,-0.7276 0.053565,-1.9362 0.1043666,-2.6858 0.050802,-0.7496 0.1354956,-1.746 0.1882087,-2.2142 l 0.095842,-0.8513 -0.3050473,-0.588 c -0.1677761,-0.3234 -0.3043111,-0.648 -0.3034114,-0.7213 8.997e-4,-0.073 0.2555978,-0.2512 0.5659959,-0.3954 0.3103978,-0.1441 0.6961041,-0.262 0.857125,-0.262 0.1610209,0 0.5655453,0.1942 0.8989431,0.4316 l 0.6061776,0.4316 -0.3995198,0.5644 -0.3995197,0.5643 0.2510262,3.5234 0.251026,3.5234 0.3085548,0.2002 c 0.1697053,0.1102 0.507135,0.2534 0.749844,0.3183 l 0.4412884,0.1181 -0.02193,0.7712 -0.02193,0.7712 -2.3713113,0 z m 0.092212,-1.1532 c 0.059093,0 0.2422336,-0.1348 0.4069803,-0.2996 l 0.2995391,-0.2995 0,-0.3295 c 0,-0.1812 -0.055642,-0.3295 -0.1236482,-0.3295 -0.068007,0 -0.2951753,0.2118 -0.5048192,0.4707 l -0.3811707,0.4708 0.097839,0.1583 c 0.053811,0.087 0.1461871,0.1583 0.2052798,0.1583 z m -0.4467064,-2.4945 0.9435484,-1.0087 0,-0.3888 0,-0.3889 -0.9435484,0.926 -0.9435484,0.9261 0,0.4715 0,0.4716 0.9435484,-1.0088 z m 0.050572,-2.5954 0.7248834,-0.7248 -0.073212,-0.3548 -0.073212,-0.3548 -0.7882754,0.7237 -0.7882753,0.7237 0.1366034,0.3559 0.1366035,0.356 0.7248836,-0.7249 z m -0.2316176,-2.182 0.5528256,-0.3623 -0.2452266,-0.082 c -0.1348745,-0.045 -0.3836459,-0.029 -0.5528254,0.036 l -0.3075991,0.118 0,0.3259 0,0.326 0.5528255,-0.3622 z m -1.8633093,-2.1784 -0.5766129,0.015 0,-0.2097 c 0,-0.1153 0.070766,-0.203 0.157258,-0.1949 0.086492,0.01 0.3459678,0.096 0.5766129,0.1949 l 0.4193549,0.1802 -0.5766129,0.015 z m 4.4451607,0 -0.7233865,-0.013 0.5073178,-0.2028 0.5073177,-0.2028 0.216069,0.2161 0.216069,0.2161 -0.723387,-0.013 z m -6.2798381,-0.2295 -0.5241936,0 0.2620968,-0.1058 0.2620968,-0.1057 0.2620967,0.1057 0.2620968,0.1058 -0.5241935,0 z m 8.1774191,0 -0.524194,0 0.262097,-0.1058 0.262097,-0.1057 0.262097,0.1057 0.262096,0.1058 -0.524193,0 z m -7.3387095,-0.1766 -0.2795698,0 0.1397848,-0.1398 0.139785,-0.1397 0.139785,0.1397 0.1397849,0.1398 -0.2795699,0 z m 6.2903225,0 -0.27957,0 0.139785,-0.1398 0.139785,-0.1397 0.139785,0.1397 0.139785,0.1398 -0.27957,0 z m -6.9193547,-0.2096 -0.2795699,0 0.1397849,-0.1398 0.139785,-0.1398 0.139785,0.1398 0.1397848,0.1398 -0.2795698,0 z m 7.7580637,0 -0.279569,0 0.139784,-0.1398 0.139785,-0.1398 0.139785,0.1398 0.139785,0.1398 -0.27957,0 z m -8.5967734,-0.2097 -0.2795699,0 0.1397849,-0.1398 0.139785,-0.1398 0.139785,0.1398 0.1397848,0.1398 -0.2795698,0 z m 9.2258064,0 -0.27957,0 0.139785,-0.1398 0.139785,-0.1398 0.139785,0.1398 0.139784,0.1398 -0.279569,0 z m -9.8548387,-0.2097 -0.2795698,0 0.1397849,-0.1398 0.1397849,-0.1398 0.139785,0.1398 0.1397849,0.1398 -0.2795699,0 z m 10.5887097,0 c -0.05766,0 -0.104839,-0.047 -0.104839,-0.1048 0,-0.058 0.04718,-0.1049 0.104839,-0.1049 0.05766,0 0.104838,0.047 0.104838,0.1049 0,0.058 -0.04718,0.1048 -0.104838,0.1048 z"
         id="path3298" />
      <path
         style="fill:#aeae5c"
         d="m 7.9593336,1050.8864 -2.3713117,0 -0.4593334,-0.5005 -0.4593337,-0.5006 0.2620968,-0.093 0.2620968,-0.094 0,-0.2645 c 0,-0.1455 0.1827641,-0.43 0.4061424,-0.6321 l 0.4061422,-0.3676 0.2228901,0.1378 0.2228898,0.1377 0.012,-1.3228 c 0.0066,-0.7276 0.053565,-1.9362 0.1043666,-2.6858 0.050802,-0.7496 0.1354956,-1.746 0.1882087,-2.2142 l 0.095842,-0.8513 -0.3050473,-0.588 c -0.1677761,-0.3234 -0.3043111,-0.648 -0.3034114,-0.7213 8.997e-4,-0.073 0.2555978,-0.2512 0.5659959,-0.3954 0.3103978,-0.1441 0.6961041,-0.262 0.857125,-0.262 0.1610209,0 0.5655453,0.1942 0.8989431,0.4316 l 0.6061776,0.4316 -0.3995198,0.5644 -0.3995197,0.5643 0.2510262,3.5234 0.251026,3.5234 0.3085548,0.2002 c 0.1697053,0.1102 0.507135,0.2534 0.749844,0.3183 l 0.4412884,0.1181 -0.02193,0.7712 -0.02193,0.7712 -2.3713113,0 z m 0.092212,-1.1532 c 0.059093,0 0.2422336,-0.1348 0.4069803,-0.2996 l 0.2995391,-0.2995 0,-0.3295 0,-0.3295 -0.1771799,0 c -0.097449,0 -0.3425794,0.1828 -0.544734,0.4061 l -0.3675538,0.4062 0.1377537,0.2229 c 0.075764,0.1226 0.1861019,0.2229 0.2451946,0.2229 z m -0.4467064,-2.3065 0.9435484,-1.0624 0,-0.4197 0,-0.4197 -0.3967388,0.2123 c -0.2182063,0.1168 -0.6428031,0.5048 -0.9435484,0.8622 l -0.5468096,0.6498 0,0.62 0,0.6199 0.9435484,-1.0624 z m -0.8387097,-1.6774 c 0.057661,0 0.1048387,-0.047 0.1048387,-0.1048 0,-0.058 -0.047177,-0.1049 -0.1048387,-0.1049 -0.057661,0 -0.1048387,0.047 -0.1048387,0.1049 0,0.058 0.047177,0.1048 0.1048387,0.1048 z m 0.8592313,-0.9734 0.7133494,-0.5441 -0.00524,-0.6566 -0.00524,-0.6565 -0.831012,0.8803 -0.831012,0.8804 0.1229052,0.3203 0.1229051,0.3203 0.7133496,-0.5441 z m -0.1059609,-2.2179 0.6484314,-0.4781 -0.3461634,-0.07 c -0.1903898,-0.039 -0.4821841,-0.018 -0.6484314,0.046 l -0.3022683,0.116 0,0.4322 0,0.4322 0.6484317,-0.478 z m -1.9589155,-2.2751 -0.5766129,0.015 0,-0.2097 c 0,-0.1153 0.070766,-0.203 0.157258,-0.1949 0.086492,0.01 0.3459678,0.096 0.5766129,0.1949 l 0.4193549,0.1802 -0.5766129,0.015 z m 4.4451616,0 -0.7233874,-0.013 0.5073178,-0.2028 0.5073186,-0.2028 0.216069,0.2161 0.216068,0.2161 -0.723387,-0.013 z m -6.279839,-0.2295 -0.5241936,0 0.2620968,-0.1058 0.2620968,-0.1057 0.2620967,0.1057 0.2620968,0.1058 -0.5241935,0 z m 8.177419,0 -0.524194,0 0.262098,-0.1058 0.262097,-0.1057 0.262097,0.1057 0.262096,0.1058 -0.524193,0 z m -7.3387094,-0.1766 -0.2795698,0 0.1397848,-0.1398 0.139785,-0.1397 0.139785,0.1397 0.1397849,0.1398 -0.2795699,0 z m 6.2903224,0 -0.27957,0 0.139785,-0.1398 0.139785,-0.1397 0.139785,0.1397 0.139785,0.1398 -0.27957,0 z m -6.9193546,-0.2096 -0.2795699,0 0.1397849,-0.1398 0.139785,-0.1398 0.139785,0.1398 0.1397848,0.1398 -0.2795698,0 z m 7.7580636,0 -0.279569,0 0.139784,-0.1398 0.139785,-0.1398 0.139785,0.1398 0.139785,0.1398 -0.27957,0 z m -8.5967733,-0.2097 -0.2795699,0 0.1397849,-0.1398 0.139785,-0.1398 0.139785,0.1398 0.1397848,0.1398 -0.2795698,0 z m 9.2258073,0 -0.27957,0 0.139785,-0.1398 0.139785,-0.1398 0.139785,0.1398 0.139784,0.1398 -0.279569,0 z m -9.8548396,-0.2097 -0.2795698,0 0.1397849,-0.1398 0.1397849,-0.1398 0.139785,0.1398 0.1397849,0.1398 -0.2795699,0 z m 10.5887106,0 c -0.05766,0 -0.104839,-0.047 -0.104839,-0.1048 0,-0.058 0.04718,-0.1049 0.104839,-0.1049 0.05766,0 0.104838,0.047 0.104838,0.1049 0,0.058 -0.04718,0.1048 -0.104838,0.1048 z"
         id="path3296" />
      <path
         style="fill:#cb562b"
         d="m 7.9593336,1050.8864 -2.3713117,0 -0.4593334,-0.5005 -0.4593337,-0.5006 0.2620968,-0.093 0.2620968,-0.094 0,-0.2645 c 0,-0.1455 0.1827641,-0.43 0.4061424,-0.6321 l 0.4061422,-0.3676 0.2228901,0.1378 0.2228898,0.1377 0.012,-1.3228 c 0.0066,-0.7276 0.053565,-1.9362 0.1043666,-2.6858 0.050802,-0.7496 0.1354956,-1.746 0.1882087,-2.2142 l 0.095842,-0.8513 -0.3050473,-0.588 c -0.1677761,-0.3234 -0.3043111,-0.648 -0.3034114,-0.7213 8.997e-4,-0.073 0.2555978,-0.2512 0.5659959,-0.3954 0.3103978,-0.1441 0.6961041,-0.262 0.857125,-0.262 0.1610209,0 0.5655453,0.1942 0.8989431,0.4316 l 0.6061776,0.4316 -0.3995198,0.5644 -0.3995197,0.5643 0.2510262,3.5234 0.251026,3.5234 0.3085548,0.2002 c 0.1697053,0.1102 0.507135,0.2534 0.749844,0.3183 l 0.4412884,0.1181 -0.02193,0.7712 -0.02193,0.7712 -2.3713113,0 z m 0.084829,-1.1532 c 0.1455262,0 0.4088557,-0.1443 0.585177,-0.3206 l 0.320584,-0.3206 -0.1183627,-0.3084 c -0.0651,-0.1697 -0.1861753,-0.3085 -0.2690575,-0.3085 -0.082882,0 -0.3567145,0.2193 -0.6085168,0.4873 l -0.4578224,0.4874 0.1417027,0.1417 c 0.077936,0.078 0.2607695,0.1417 0.4062957,0.1417 z m -0.4393241,-2.3065 0.9435484,-1.0624 0,-0.4197 0,-0.4197 -0.3967388,0.2123 c -0.2182063,0.1168 -0.6428031,0.5048 -0.9435484,0.8622 l -0.5468096,0.6498 0,0.62 0,0.6199 0.9435484,-1.0624 z m -0.8387097,-1.6774 c 0.057661,0 0.1048387,-0.047 0.1048387,-0.1048 0,-0.058 -0.047177,-0.1049 -0.1048387,-0.1049 -0.057661,0 -0.1048387,0.047 -0.1048387,0.1049 0,0.058 0.047177,0.1048 0.1048387,0.1048 z m 0.8592313,-0.9734 0.7133494,-0.5441 -0.00524,-0.6566 -0.00524,-0.6565 -0.831012,0.8803 -0.831012,0.8804 0.1229052,0.3203 0.1229051,0.3203 0.7133496,-0.5441 z M 7.5,1042.571 c 0.3459677,-0.2558 0.6290323,-0.5406 0.6290323,-0.6329 l 0,-0.1677 -0.4717742,0.05 c -0.2594758,0.027 -0.5410955,0.1443 -0.6258215,0.2596 -0.084726,0.1154 -0.1554922,0.3777 -0.1572581,0.5829 l -0.00321,0.3732 L 7.5,1042.571 z"
         id="path3294" />
      <path
         style="fill:#64615f"
         d="m 7.9593336,1050.8864 -2.3713117,0 -0.4593334,-0.5005 -0.4593337,-0.5006 0.2620968,-0.093 0.2620968,-0.094 0,-0.2645 c 0,-0.1455 0.1827641,-0.43 0.4061424,-0.6321 l 0.4061422,-0.3676 0.2228901,0.1378 0.2228898,0.1377 0.012,-1.3228 c 0.0066,-0.7276 0.053565,-1.9362 0.1043666,-2.6858 0.050802,-0.7496 0.1354956,-1.746 0.1882087,-2.2142 l 0.095842,-0.8513 -0.3050473,-0.588 c -0.1677761,-0.3234 -0.3043111,-0.648 -0.3034114,-0.7213 8.997e-4,-0.073 0.2555978,-0.2512 0.5659959,-0.3954 0.3103978,-0.1441 0.6961041,-0.262 0.857125,-0.262 0.1610209,0 0.5655453,0.1942 0.8989431,0.4316 l 0.6061776,0.4316 -0.3995198,0.5644 -0.3995197,0.5643 0.2510262,3.5234 0.251026,3.5234 0.3085548,0.2002 c 0.1697053,0.1102 0.507135,0.2534 0.749844,0.3183 l 0.4412884,0.1181 -0.02193,0.7712 -0.02193,0.7712 -2.3713113,0 z m 0.062257,-1.1532 c 0.1579406,0 0.4352497,-0.1481 0.6162422,-0.3291 l 0.3290774,-0.3291 -0.2315657,-0.4327 -0.2315654,-0.4327 -0.4819314,0.6044 -0.4819316,0.6044 0.097255,0.1574 c 0.05349,0.087 0.2264789,0.1574 0.3844194,0.1574 z m -0.4250775,-2.2338 0.9352229,-1.0162 0.00833,-0.6203 0.00833,-0.6203 -0.9435484,0.9261 -0.9435484,0.926 0,0.7105 0,0.7105 0.9352232,-1.0163 z m -0.058625,-2.5008 0.8310971,-0.9016 -0.067557,-0.5244 -0.067557,-0.5244 -0.6827009,0.5642 -0.6827009,0.5643 -0.080839,0.8618 -0.080839,0.8617 0.8310971,-0.9016 z M 7.5,1042.6041 c 0.3459677,-0.2463 0.6290323,-0.5347 0.6290323,-0.6408 l 0,-0.1929 -0.4717742,0.05 c -0.2594758,0.027 -0.5410955,0.1443 -0.6258215,0.2596 -0.084726,0.1154 -0.1554922,0.3813 -0.1572581,0.5909 l -0.00321,0.3812 L 7.5,1042.6041 z"
         id="path3292" />
      <path
         style="fill:#5cac00"
         d="m 9.4568328,1050.8754 c -0.4419839,0.032 -1.5144787,7e-4 -2.3833217,-0.07 l -1.5797147,-0.1287 -0.3310041,-0.311 -0.3310039,-0.3111 0.2332992,-0.4228 c 0.1283149,-0.2326 0.3601082,-0.5816 0.5150967,-0.7756 l 0.2817972,-0.3528 0.2638434,0.1012 0.2638432,0.1013 0.1638453,-1.3211 c 0.090115,-0.7265 0.1589105,-1.6041 0.152879,-1.95 l -0.010966,-0.6291 0.1452044,0.3735 0.1452043,0.3734 0.6506957,-0.688 c 0.3578827,-0.3783 0.702008,-0.8294 0.7647227,-1.0024 l 0.1140268,-0.3145 0.016554,0.8475 0.016553,0.8474 -0.9435484,0.9261 -0.9435484,0.926 0,0.7197 0,0.7197 0.8911291,-1.006 c 0.4901209,-0.5533 0.9552634,-1.1564 1.0336499,-1.34 l 0.1425207,-0.334 0.014737,1.3229 0.014737,1.3229 -0.176333,-0.109 -0.1763331,-0.109 -0.4414538,0.5971 -0.4414536,0.5971 0.1285394,0.1285 c 0.070697,0.071 0.2506704,0.1286 0.3999415,0.1286 0.149271,0 0.4401984,-0.1753 0.6465053,-0.3895 l 0.3751034,-0.3894 0.7108073,0.2972 0.7108074,0.2971 -0.234044,0.2341 -0.234044,0.234 0.234568,0.2827 0.234567,0.2826 -0.117401,0.1174 c -0.06457,0.065 -0.4790245,0.1438 -0.9210085,0.176 z m -2.5962628,-6.489 -0.1726982,0.4193 -0.013291,-0.7055 -0.013291,-0.7056 0.733871,-0.6722 c 0.403629,-0.3697 0.733871,-0.7363 0.733871,-0.8146 l 0,-0.1424 -0.5067205,0 -0.5067203,0 -0.088286,0.2621 -0.088286,0.2621 -0.148366,-0.7863 -0.1483661,-0.7863 -0.230794,0 -0.2307939,0 0.5656141,-0.5242 0.5656143,-0.5241 0.3186899,0 c 0.1752797,0 0.4517981,0.1331 0.6144851,0.2957 0.1626872,0.1627 0.4095671,0.3338 0.548622,0.3801 l 0.2528269,0.084 -0.3539214,0.5053 -0.3539214,0.5053 0,0.7858 0,0.7857 -0.6527206,0.4781 -0.6527206,0.478 -0.1726985,0.4194 z m 0.7442687,-3.4597 c 0.057661,0 0.1048387,-0.047 0.1048387,-0.1048 0,-0.058 -0.047177,-0.1049 -0.1048387,-0.1049 -0.057661,0 -0.1048387,0.047 -0.1048387,0.1049 0,0.058 0.047177,0.1048 0.1048387,0.1048 z"
         id="path3290" />
      <path
         style="fill:#c1350e"
         d="m 9.264785,1050.988 -0.6115592,0 -0.3145161,-0.2005 -0.3145162,-0.2005 0.8387097,0.1285 c 0.4612903,0.071 0.8780242,0.1624 0.9260754,0.2038 0.048051,0.041 -0.1878362,0.074 -0.5241936,0.072 z m -3.7319714,-0.2064 c -0.057661,0 -0.1631532,-0.094 -0.2344265,-0.2097 -0.071273,-0.1153 -0.08241,-0.2097 -0.024749,-0.2097 0.057661,0 0.1631532,0.094 0.2344265,0.2097 0.071273,0.1153 0.08241,0.2097 0.024749,0.2097 z m 0.4994445,0 -0.2795699,0 0.1397848,-0.1398 0.1397851,-0.1398 0.139785,0.1398 0.1397848,0.1398 -0.2795698,0 z m 0.6290322,0 -0.2795698,0 0.1397848,-0.1398 0.139785,-0.1398 0.139785,0.1398 0.1397848,0.1398 -0.2795698,0 z m 0.733871,0 c -0.057661,0 -0.1048387,-0.047 -0.1048387,-0.1049 0,-0.058 0.047177,-0.1048 0.1048387,-0.1048 0.057661,0 0.1048387,0.047 0.1048387,0.1048 0,0.058 -0.047177,0.1049 -0.1048387,0.1049 z m 2.9704297,-0.07 -0.139785,0.1397 0,-0.2795 0,-0.2796 0.139785,0.1398 0.139785,0.1398 -0.139785,0.1398 z m -5.2713131,-0.7735 -0.308948,0.2564 0.3132986,-0.628 c 0.1723141,-0.3454 0.4764617,-0.7543 0.6758834,-0.9086 l 0.3625849,-0.2805 -0.3669355,0.4322 c -0.2018145,0.2378 -0.3669355,0.5313 -0.3669355,0.6522 0,0.121 -0.1390266,0.3353 -0.3089479,0.4763 z m 5.1025521,-0.082 -0.2454949,0.1517 0.1385419,-0.2241 0.138542,-0.2242 -0.2634028,-0.1062 -0.2634033,-0.1062 0.2497222,-0.016 c 0.1373469,-0.01 0.3040069,0.071 0.3703559,0.1786 l 0.120633,0.1952 -0.245494,0.1517 z m -2.3159002,-0.869 -0.5329975,0.6167 -0.2545629,-0.4757 -0.2545628,-0.4756 -0.2608603,0.1001 -0.2608603,0.1001 0.1944187,-1.2895 c 0.1069303,-0.7092 0.1955955,-1.6198 0.1970339,-2.0234 l 0.00261,-0.7339 0.1373406,0.3735 0.1373406,0.3734 0.6506957,-0.688 c 0.3578831,-0.3783 0.7020084,-0.8294 0.7647231,-1.0024 l 0.1140268,-0.3145 0.016554,0.8475 0.016553,0.8474 -0.9435484,0.9261 -0.9435484,0.926 0,0.7197 0,0.7197 0.8911291,-1.006 c 0.4901209,-0.5533 0.9552634,-1.1564 1.0336499,-1.34 l 0.1425207,-0.334 0.014737,1.3105 0.014737,1.3105 -0.1720686,-0.052 -0.1720689,-0.052 -0.5329972,0.6166 z m 1.6110057,0.3269 c -0.057661,0 -0.1048387,-0.047 -0.1048387,-0.1048 0,-0.058 0.047177,-0.1049 0.1048387,-0.1049 0.057661,0 0.1048387,0.047 0.1048387,0.1049 0,0.058 -0.047177,0.1048 -0.1048387,0.1048 z m -0.4193549,-0.2097 c -0.057661,0 -0.1048387,-0.047 -0.1048387,-0.1048 0,-0.058 0.047178,-0.1048 0.1048387,-0.1048 0.057661,0 0.1048388,0.047 0.1048388,0.1048 0,0.058 -0.047178,0.1048 -0.1048388,0.1048 z m -2.2120106,-4.7177 -0.1726982,0.4193 -0.013291,-0.7055 -0.013291,-0.7056 0.733871,-0.6722 c 0.403629,-0.3697 0.733871,-0.7363 0.733871,-0.8146 l 0,-0.1424 -0.5067205,0 -0.5067203,0 -0.088286,0.2621 -0.088286,0.2621 -0.148366,-0.7863 -0.1483661,-0.7863 -0.230794,0 -0.2307939,0 0.5656141,-0.5242 0.5656143,-0.5241 0.3186899,0 c 0.1752797,0 0.4517981,0.1331 0.6144851,0.2957 0.1626872,0.1627 0.4095671,0.3338 0.548622,0.3801 l 0.2528269,0.084 -0.3539214,0.5053 -0.3539214,0.5053 0,0.7858 0,0.7857 -0.6527206,0.4781 -0.6527206,0.478 -0.1726985,0.4194 z m 0.7442687,-3.4597 c 0.057661,0 0.1048387,-0.047 0.1048387,-0.1048 0,-0.058 -0.047177,-0.1049 -0.1048387,-0.1049 -0.057661,0 -0.1048387,0.047 -0.1048387,0.1049 0,0.058 0.047177,0.1048 0.1048387,0.1048 z"
         id="path3288" />
      <path
         style="fill:#bb2200"
         d="m 9.264785,1050.988 -0.6115592,0 -0.3145161,-0.2005 -0.3145162,-0.2005 0.8387097,0.1285 c 0.4612903,0.071 0.8780242,0.1624 0.9260754,0.2038 0.048051,0.041 -0.1878362,0.074 -0.5241936,0.072 z m -3.7319714,-0.2064 c -0.057661,0 -0.1631532,-0.094 -0.2344265,-0.2097 -0.071273,-0.1153 -0.08241,-0.2097 -0.024749,-0.2097 0.057661,0 0.1631532,0.094 0.2344265,0.2097 0.071273,0.1153 0.08241,0.2097 0.024749,0.2097 z m 0.4994445,0 -0.2795699,0 0.1397848,-0.1398 0.1397851,-0.1398 0.139785,0.1398 0.1397848,0.1398 -0.2795698,0 z m 0.6290322,0 -0.2795698,0 0.1397848,-0.1398 0.139785,-0.1398 0.139785,0.1398 0.1397848,0.1398 -0.2795698,0 z m 0.733871,0 c -0.057661,0 -0.1048387,-0.047 -0.1048387,-0.1049 0,-0.058 0.047177,-0.1048 0.1048387,-0.1048 0.057661,0 0.1048387,0.047 0.1048387,0.1048 0,0.058 -0.047177,0.1049 -0.1048387,0.1049 z m 2.9704297,-0.07 -0.139785,0.1397 0,-0.2795 0,-0.2796 0.139785,0.1398 0.139785,0.1398 -0.139785,0.1398 z m -5.2713131,-0.7735 -0.308948,0.2564 0.3132986,-0.628 c 0.1723141,-0.3454 0.4764617,-0.7543 0.6758834,-0.9086 l 0.3625849,-0.2805 -0.3669355,0.4322 c -0.2018145,0.2378 -0.3669355,0.5313 -0.3669355,0.6522 0,0.121 -0.1390266,0.3353 -0.3089479,0.4763 z m 5.1025521,-0.082 -0.2454949,0.1517 0.1385419,-0.2241 0.138542,-0.2242 -0.2634028,-0.1062 -0.2634033,-0.1062 0.2497222,-0.016 c 0.1373469,-0.01 0.3040069,0.071 0.3703559,0.1786 l 0.120633,0.1952 -0.245494,0.1517 z m -2.2624021,-1.1196 -0.586902,0.6568 -0.2528294,-0.4724 -0.2528295,-0.4724 0.2766472,-0.3535 c 0.1521559,-0.1945 0.451413,-0.4836 0.665016,-0.6426 l 0.3883689,-0.289 0.2848755,-0.6545 0.2848755,-0.6546 -0.00835,1.3629 -0.00835,1.3629 -0.1018139,-0.2502 -0.1018139,-0.2503 -0.5869018,0.6569 z m 1.5575076,0.5775 c -0.057661,0 -0.1048387,-0.047 -0.1048387,-0.1048 0,-0.058 0.047177,-0.1049 0.1048387,-0.1049 0.057661,0 0.1048387,0.047 0.1048387,0.1049 0,0.058 -0.047177,0.1048 -0.1048387,0.1048 z m -0.4193549,-0.2097 c -0.057661,0 -0.1048387,-0.047 -0.1048387,-0.1048 0,-0.058 0.047178,-0.1048 0.1048387,-0.1048 0.057661,0 0.1048388,0.047 0.1048388,0.1048 0,0.058 -0.047178,0.1048 -0.1048388,0.1048 z m -2.5849088,-0.3368 -0.1736188,0.1073 0.2071357,-1.3005 c 0.1139247,-0.7154 0.2013744,-1.6309 0.1943328,-2.0345 l -0.012803,-0.7339 0.1415583,0.3735 0.1415582,0.3734 0.6506957,-0.688 c 0.3578825,-0.3783 0.7020078,-0.8294 0.7647225,-1.0024 l 0.1140268,-0.3145 0.016554,0.8302 0.016554,0.8302 -0.9435483,0.8663 -0.9435484,0.8663 0,0.8596 0,0.8597 -0.1736186,0.1073 z m 0.31877,-4.2761 -0.1120445,0.3145 -0.016554,-0.6713 -0.016553,-0.6714 0.733871,-0.7127 c 0.403629,-0.392 0.733871,-0.774 0.733871,-0.8488 l 0,-0.1361 -0.5067205,0 -0.5067203,0 -0.088286,0.2621 -0.088286,0.2621 -0.148366,-0.7863 -0.1483661,-0.7863 -0.230794,0 -0.2307939,0 0.5656141,-0.5242 0.5656143,-0.5241 0.3186899,0 c 0.1752797,0 0.4517981,0.1331 0.6144851,0.2957 0.1626872,0.1627 0.4095671,0.3338 0.548622,0.3801 l 0.2528269,0.084 -0.3539214,0.5053 -0.3539214,0.5053 0,0.6979 0,0.6979 -0.7101116,0.6708 c -0.3905615,0.3689 -0.7605317,0.8122 -0.8221563,0.9852 z m 0.7983969,-3.5645 c 0.057661,0 0.1048387,-0.047 0.1048387,-0.1048 0,-0.058 -0.047177,-0.1049 -0.1048387,-0.1049 -0.057661,0 -0.1048387,0.047 -0.1048387,0.1049 0,0.058 0.047177,0.1048 0.1048387,0.1048 z"
         id="path3286" />
      <path
         style="fill:#130d0c"
         d="m 9.264785,1050.988 -0.6115592,0 -0.3145161,-0.2005 -0.3145162,-0.2005 0.8387097,0.1285 c 0.4612903,0.071 0.8780242,0.1624 0.9260754,0.2038 0.048051,0.041 -0.1878362,0.074 -0.5241936,0.072 z m -3.7319714,-0.2064 c -0.057661,0 -0.1631532,-0.094 -0.2344265,-0.2097 -0.071273,-0.1153 -0.08241,-0.2097 -0.024749,-0.2097 0.057661,0 0.1631532,0.094 0.2344265,0.2097 0.071273,0.1153 0.08241,0.2097 0.024749,0.2097 z m 0.4994445,0 -0.2795699,0 0.1397848,-0.1398 0.1397851,-0.1398 0.139785,0.1398 0.1397848,0.1398 -0.2795698,0 z m 0.6290322,0 -0.2795698,0 0.1397848,-0.1398 0.139785,-0.1398 0.139785,0.1398 0.1397848,0.1398 -0.2795698,0 z m 0.733871,0 c -0.057661,0 -0.1048387,-0.047 -0.1048387,-0.1049 0,-0.058 0.047177,-0.1048 0.1048387,-0.1048 0.057661,0 0.1048387,0.047 0.1048387,0.1048 0,0.058 -0.047177,0.1049 -0.1048387,0.1049 z m 2.9704297,-0.07 -0.139785,0.1397 0,-0.2795 0,-0.2796 0.139785,0.1398 0.139785,0.1398 -0.139785,0.1398 z m -5.2713131,-0.7735 -0.308948,0.2564 0.3132986,-0.628 c 0.1723141,-0.3454 0.4764617,-0.7543 0.6758834,-0.9086 l 0.3625849,-0.2805 -0.3669355,0.4322 c -0.2018145,0.2378 -0.3669355,0.5313 -0.3669355,0.6522 0,0.121 -0.1390266,0.3353 -0.3089479,0.4763 z m 5.1025521,-0.082 -0.2454949,0.1517 0.1385419,-0.2241 0.138542,-0.2242 -0.2634028,-0.1062 -0.2634033,-0.1062 0.2497222,-0.016 c 0.1373469,-0.01 0.3040069,0.071 0.3703559,0.1786 l 0.120633,0.1952 -0.245494,0.1517 z m -0.7048945,-0.5421 c -0.057661,0 -0.1048387,-0.047 -0.1048387,-0.1048 0,-0.058 0.047177,-0.1049 0.1048387,-0.1049 0.057661,0 0.1048387,0.047 0.1048387,0.1049 0,0.058 -0.047177,0.1048 -0.1048387,0.1048 z m -0.4193549,-0.2097 c -0.057661,0 -0.1048387,-0.047 -0.1048387,-0.1048 0,-0.058 0.047178,-0.1048 0.1048387,-0.1048 0.057661,0 0.1048388,0.047 0.1048388,0.1048 0,0.058 -0.047178,0.1048 -0.1048388,0.1048 z m -2.5549795,-0.4014 -0.172298,0.1723 0.1011373,-0.9863 0.1011375,-0.9862 0.071161,0.8139 0.071161,0.814 -0.1722982,0.1723 z m 2.1824658,-0.8042 -0.084568,0.6814 0,-1.3629 0,-1.3629 0.084568,0.6815 c 0.046512,0.3748 0.046512,0.9881 0,1.3629 z m -1.895543,-2.5292 -0.1101266,0.2752 -0.016554,-0.4019 -0.016553,-0.4019 0.1266802,0.1267 0.12668,0.1267 -0.1101266,0.2752 z m 1.6821621,-0.4063 -0.090868,0.4718 0,-0.9436 0,-0.9435 0.090868,0.4718 c 0.049977,0.2594 0.049977,0.684 0,0.9435 z m -1.6808596,-0.5242 -0.09589,0.3669 0,-0.7338 0,-0.7339 0.09589,0.3669 c 0.05274,0.2019 0.05274,0.5321 0,0.7339 z m 1.5275998,-2.6197 -0.1614682,0.6802 -0.021463,-0.3669 -0.021463,-0.367 -0.5067205,0 -0.5067203,0 -0.088286,0.2621 -0.088286,0.2621 -0.148366,-0.7863 -0.1483661,-0.7863 -0.2525957,-0.01 -0.2525956,-0.01 0.4070111,-0.3078 0.4070109,-0.3079 0.7462149,0 0.7462147,0 0.3010334,0.1905 0.3010335,0.1905 -0.2753606,0.3318 c -0.1514483,0.1825 -0.3480211,0.6378 -0.4368285,1.0119 z m -0.7285875,-0.8924 c 0.057661,0 0.1048387,-0.047 0.1048387,-0.1048 0,-0.058 -0.047177,-0.1049 -0.1048387,-0.1049 -0.057661,0 -0.1048387,0.047 -0.1048387,0.1049 0,0.058 0.047177,0.1048 0.1048387,0.1048 z m 0,-1.0892 -0.6290322,0.01 0.2581061,-0.1044 c 0.1419586,-0.057 0.4250231,-0.061 0.6290323,-0.01 l 0.3709261,0.097 -0.6290323,0.01 z"
         id="path3284" />
    </g>
  </g>
</svg>
