<?xml version="1.0" encoding="UTF-8" standalone="no"?>
<!-- Created with Inkscape (http://www.inkscape.org/) -->

<svg
   xmlns:dc="http://purl.org/dc/elements/1.1/"
   xmlns:cc="http://creativecommons.org/ns#"
   xmlns:rdf="http://www.w3.org/1999/02/22-rdf-syntax-ns#"
   xmlns:svg="http://www.w3.org/2000/svg"
   xmlns="http://www.w3.org/2000/svg"
   xmlns:sodipodi="http://sodipodi.sourceforge.net/DTD/sodipodi-0.dtd"
   xmlns:inkscape="http://www.inkscape.org/namespaces/inkscape"
   width="16"
   height="16"
   id="svg2"
   version="1.1"
   inkscape:version="0.47 r22583"
   sodipodi:docname="lighthouse-64.svg">
  <defs
     id="defs4">
    <inkscape:perspective
       sodipodi:type="inkscape:persp3d"
       inkscape:vp_x="0 : 526.18109 : 1"
       inkscape:vp_y="0 : 1000 : 0"
       inkscape:vp_z="744.09448 : 526.18109 : 1"
       inkscape:persp3d-origin="372.04724 : 350.78739 : 1"
       id="perspective10" />
    <inkscape:perspective
       id="perspective2824"
       inkscape:persp3d-origin="0.5 : 0.33333333 : 1"
       inkscape:vp_z="1 : 0.5 : 1"
       inkscape:vp_y="0 : 1000 : 0"
       inkscape:vp_x="0 : 0.5 : 1"
       sodipodi:type="inkscape:persp3d" />
    <inkscape:perspective
       id="perspective5878"
       inkscape:persp3d-origin="0.5 : 0.33333333 : 1"
       inkscape:vp_z="1 : 0.5 : 1"
       inkscape:vp_y="0 : 1000 : 0"
       inkscape:vp_x="0 : 0.5 : 1"
       sodipodi:type="inkscape:persp3d" />
    <inkscape:perspective
       id="perspective5921"
       inkscape:persp3d-origin="0.5 : 0.33333333 : 1"
       inkscape:vp_z="1 : 0.5 : 1"
       inkscape:vp_y="0 : 1000 : 0"
       inkscape:vp_x="0 : 0.5 : 1"
       sodipodi:type="inkscape:persp3d" />
    <inkscape:perspective
       id="perspective5943"
       inkscape:persp3d-origin="0.5 : 0.33333333 : 1"
       inkscape:vp_z="1 : 0.5 : 1"
       inkscape:vp_y="0 : 1000 : 0"
       inkscape:vp_x="0 : 0.5 : 1"
       sodipodi:type="inkscape:persp3d" />
    <inkscape:perspective
       id="perspective5989"
       inkscape:persp3d-origin="0.5 : 0.33333333 : 1"
       inkscape:vp_z="1 : 0.5 : 1"
       inkscape:vp_y="0 : 1000 : 0"
       inkscape:vp_x="0 : 0.5 : 1"
       sodipodi:type="inkscape:persp3d" />
    <inkscape:perspective
       id="perspective6011"
       inkscape:persp3d-origin="0.5 : 0.33333333 : 1"
       inkscape:vp_z="1 : 0.5 : 1"
       inkscape:vp_y="0 : 1000 : 0"
       inkscape:vp_x="0 : 0.5 : 1"
       sodipodi:type="inkscape:persp3d" />
    <inkscape:perspective
       id="perspective6033"
       inkscape:persp3d-origin="0.5 : 0.33333333 : 1"
       inkscape:vp_z="1 : 0.5 : 1"
       inkscape:vp_y="0 : 1000 : 0"
       inkscape:vp_x="0 : 0.5 : 1"
       sodipodi:type="inkscape:persp3d" />
    <inkscape:perspective
       id="perspective6245"
       inkscape:persp3d-origin="0.5 : 0.33333333 : 1"
       inkscape:vp_z="1 : 0.5 : 1"
       inkscape:vp_y="0 : 1000 : 0"
       inkscape:vp_x="0 : 0.5 : 1"
       sodipodi:type="inkscape:persp3d" />
    <inkscape:perspective
       id="perspective6269"
       inkscape:persp3d-origin="0.5 : 0.33333333 : 1"
       inkscape:vp_z="1 : 0.5 : 1"
       inkscape:vp_y="0 : 1000 : 0"
       inkscape:vp_x="0 : 0.5 : 1"
       sodipodi:type="inkscape:persp3d" />
    <inkscape:perspective
       id="perspective6364"
       inkscape:persp3d-origin="0.5 : 0.33333333 : 1"
       inkscape:vp_z="1 : 0.5 : 1"
       inkscape:vp_y="0 : 1000 : 0"
       inkscape:vp_x="0 : 0.5 : 1"
       sodipodi:type="inkscape:persp3d" />
    <inkscape:perspective
       id="perspective6396"
       inkscape:persp3d-origin="0.5 : 0.33333333 : 1"
       inkscape:vp_z="1 : 0.5 : 1"
       inkscape:vp_y="0 : 1000 : 0"
       inkscape:vp_x="0 : 0.5 : 1"
       sodipodi:type="inkscape:persp3d" />
    <inkscape:perspective
       id="perspective6438"
       inkscape:persp3d-origin="0.5 : 0.33333333 : 1"
       inkscape:vp_z="1 : 0.5 : 1"
       inkscape:vp_y="0 : 1000 : 0"
       inkscape:vp_x="0 : 0.5 : 1"
       sodipodi:type="inkscape:persp3d" />
    <inkscape:perspective
       id="perspective6460"
       inkscape:persp3d-origin="0.5 : 0.33333333 : 1"
       inkscape:vp_z="1 : 0.5 : 1"
       inkscape:vp_y="0 : 1000 : 0"
       inkscape:vp_x="0 : 0.5 : 1"
       sodipodi:type="inkscape:persp3d" />
    <inkscape:perspective
       id="perspective6480"
       inkscape:persp3d-origin="0.5 : 0.33333333 : 1"
       inkscape:vp_z="1 : 0.5 : 1"
       inkscape:vp_y="0 : 1000 : 0"
       inkscape:vp_x="0 : 0.5 : 1"
       sodipodi:type="inkscape:persp3d" />
    <inkscape:perspective
       id="perspective6504"
       inkscape:persp3d-origin="0.5 : 0.33333333 : 1"
       inkscape:vp_z="1 : 0.5 : 1"
       inkscape:vp_y="0 : 1000 : 0"
       inkscape:vp_x="0 : 0.5 : 1"
       sodipodi:type="inkscape:persp3d" />
    <inkscape:perspective
       id="perspective6524"
       inkscape:persp3d-origin="0.5 : 0.33333333 : 1"
       inkscape:vp_z="1 : 0.5 : 1"
       inkscape:vp_y="0 : 1000 : 0"
       inkscape:vp_x="0 : 0.5 : 1"
       sodipodi:type="inkscape:persp3d" />
    <inkscape:perspective
       id="perspective6548"
       inkscape:persp3d-origin="0.5 : 0.33333333 : 1"
       inkscape:vp_z="1 : 0.5 : 1"
       inkscape:vp_y="0 : 1000 : 0"
       inkscape:vp_x="0 : 0.5 : 1"
       sodipodi:type="inkscape:persp3d" />
    <inkscape:perspective
       id="perspective6572"
       inkscape:persp3d-origin="0.5 : 0.33333333 : 1"
       inkscape:vp_z="1 : 0.5 : 1"
       inkscape:vp_y="0 : 1000 : 0"
       inkscape:vp_x="0 : 0.5 : 1"
       sodipodi:type="inkscape:persp3d" />
    <inkscape:perspective
       id="perspective6594"
       inkscape:persp3d-origin="0.5 : 0.33333333 : 1"
       inkscape:vp_z="1 : 0.5 : 1"
       inkscape:vp_y="0 : 1000 : 0"
       inkscape:vp_x="0 : 0.5 : 1"
       sodipodi:type="inkscape:persp3d" />
    <inkscape:perspective
       id="perspective6614"
       inkscape:persp3d-origin="0.5 : 0.33333333 : 1"
       inkscape:vp_z="1 : 0.5 : 1"
       inkscape:vp_y="0 : 1000 : 0"
       inkscape:vp_x="0 : 0.5 : 1"
       sodipodi:type="inkscape:persp3d" />
    <inkscape:perspective
       id="perspective6650"
       inkscape:persp3d-origin="0.5 : 0.33333333 : 1"
       inkscape:vp_z="1 : 0.5 : 1"
       inkscape:vp_y="0 : 1000 : 0"
       inkscape:vp_x="0 : 0.5 : 1"
       sodipodi:type="inkscape:persp3d" />
    <inkscape:perspective
       id="perspective6676"
       inkscape:persp3d-origin="0.5 : 0.33333333 : 1"
       inkscape:vp_z="1 : 0.5 : 1"
       inkscape:vp_y="0 : 1000 : 0"
       inkscape:vp_x="0 : 0.5 : 1"
       sodipodi:type="inkscape:persp3d" />
    <inkscape:perspective
       id="perspective6710"
       inkscape:persp3d-origin="0.5 : 0.33333333 : 1"
       inkscape:vp_z="1 : 0.5 : 1"
       inkscape:vp_y="0 : 1000 : 0"
       inkscape:vp_x="0 : 0.5 : 1"
       sodipodi:type="inkscape:persp3d" />
    <inkscape:perspective
       id="perspective6748"
       inkscape:persp3d-origin="0.5 : 0.33333333 : 1"
       inkscape:vp_z="1 : 0.5 : 1"
       inkscape:vp_y="0 : 1000 : 0"
       inkscape:vp_x="0 : 0.5 : 1"
       sodipodi:type="inkscape:persp3d" />
    <inkscape:perspective
       id="perspective6786"
       inkscape:persp3d-origin="0.5 : 0.33333333 : 1"
       inkscape:vp_z="1 : 0.5 : 1"
       inkscape:vp_y="0 : 1000 : 0"
       inkscape:vp_x="0 : 0.5 : 1"
       sodipodi:type="inkscape:persp3d" />
    <inkscape:perspective
       id="perspective6810"
       inkscape:persp3d-origin="0.5 : 0.33333333 : 1"
       inkscape:vp_z="1 : 0.5 : 1"
       inkscape:vp_y="0 : 1000 : 0"
       inkscape:vp_x="0 : 0.5 : 1"
       sodipodi:type="inkscape:persp3d" />
    <inkscape:perspective
       id="perspective6848"
       inkscape:persp3d-origin="0.5 : 0.33333333 : 1"
       inkscape:vp_z="1 : 0.5 : 1"
       inkscape:vp_y="0 : 1000 : 0"
       inkscape:vp_x="0 : 0.5 : 1"
       sodipodi:type="inkscape:persp3d" />
    <inkscape:perspective
       id="perspective6870"
       inkscape:persp3d-origin="0.5 : 0.33333333 : 1"
       inkscape:vp_z="1 : 0.5 : 1"
       inkscape:vp_y="0 : 1000 : 0"
       inkscape:vp_x="0 : 0.5 : 1"
       sodipodi:type="inkscape:persp3d" />
    <inkscape:perspective
       id="perspective6908"
       inkscape:persp3d-origin="0.5 : 0.33333333 : 1"
       inkscape:vp_z="1 : 0.5 : 1"
       inkscape:vp_y="0 : 1000 : 0"
       inkscape:vp_x="0 : 0.5 : 1"
       sodipodi:type="inkscape:persp3d" />
    <inkscape:perspective
       id="perspective6946"
       inkscape:persp3d-origin="0.5 : 0.33333333 : 1"
       inkscape:vp_z="1 : 0.5 : 1"
       inkscape:vp_y="0 : 1000 : 0"
       inkscape:vp_x="0 : 0.5 : 1"
       sodipodi:type="inkscape:persp3d" />
    <inkscape:perspective
       id="perspective6970"
       inkscape:persp3d-origin="0.5 : 0.33333333 : 1"
       inkscape:vp_z="1 : 0.5 : 1"
       inkscape:vp_y="0 : 1000 : 0"
       inkscape:vp_x="0 : 0.5 : 1"
       sodipodi:type="inkscape:persp3d" />
    <inkscape:perspective
       id="perspective7008"
       inkscape:persp3d-origin="0.5 : 0.33333333 : 1"
       inkscape:vp_z="1 : 0.5 : 1"
       inkscape:vp_y="0 : 1000 : 0"
       inkscape:vp_x="0 : 0.5 : 1"
       sodipodi:type="inkscape:persp3d" />
    <inkscape:perspective
       id="perspective7036"
       inkscape:persp3d-origin="0.5 : 0.33333333 : 1"
       inkscape:vp_z="1 : 0.5 : 1"
       inkscape:vp_y="0 : 1000 : 0"
       inkscape:vp_x="0 : 0.5 : 1"
       sodipodi:type="inkscape:persp3d" />
    <inkscape:perspective
       id="perspective7060"
       inkscape:persp3d-origin="0.5 : 0.33333333 : 1"
       inkscape:vp_z="1 : 0.5 : 1"
       inkscape:vp_y="0 : 1000 : 0"
       inkscape:vp_x="0 : 0.5 : 1"
       sodipodi:type="inkscape:persp3d" />
    <inkscape:perspective
       id="perspective7098"
       inkscape:persp3d-origin="0.5 : 0.33333333 : 1"
       inkscape:vp_z="1 : 0.5 : 1"
       inkscape:vp_y="0 : 1000 : 0"
       inkscape:vp_x="0 : 0.5 : 1"
       sodipodi:type="inkscape:persp3d" />
    <inkscape:perspective
       id="perspective7136"
       inkscape:persp3d-origin="0.5 : 0.33333333 : 1"
       inkscape:vp_z="1 : 0.5 : 1"
       inkscape:vp_y="0 : 1000 : 0"
       inkscape:vp_x="0 : 0.5 : 1"
       sodipodi:type="inkscape:persp3d" />
    <inkscape:perspective
       id="perspective7174"
       inkscape:persp3d-origin="0.5 : 0.33333333 : 1"
       inkscape:vp_z="1 : 0.5 : 1"
       inkscape:vp_y="0 : 1000 : 0"
       inkscape:vp_x="0 : 0.5 : 1"
       sodipodi:type="inkscape:persp3d" />
    <inkscape:perspective
       id="perspective7212"
       inkscape:persp3d-origin="0.5 : 0.33333333 : 1"
       inkscape:vp_z="1 : 0.5 : 1"
       inkscape:vp_y="0 : 1000 : 0"
       inkscape:vp_x="0 : 0.5 : 1"
       sodipodi:type="inkscape:persp3d" />
    <inkscape:perspective
       id="perspective7234"
       inkscape:persp3d-origin="0.5 : 0.33333333 : 1"
       inkscape:vp_z="1 : 0.5 : 1"
       inkscape:vp_y="0 : 1000 : 0"
       inkscape:vp_x="0 : 0.5 : 1"
       sodipodi:type="inkscape:persp3d" />
    <inkscape:perspective
       id="perspective7272"
       inkscape:persp3d-origin="0.5 : 0.33333333 : 1"
       inkscape:vp_z="1 : 0.5 : 1"
       inkscape:vp_y="0 : 1000 : 0"
       inkscape:vp_x="0 : 0.5 : 1"
       sodipodi:type="inkscape:persp3d" />
    <inkscape:perspective
       id="perspective7294"
       inkscape:persp3d-origin="0.5 : 0.33333333 : 1"
       inkscape:vp_z="1 : 0.5 : 1"
       inkscape:vp_y="0 : 1000 : 0"
       inkscape:vp_x="0 : 0.5 : 1"
       sodipodi:type="inkscape:persp3d" />
    <inkscape:perspective
       id="perspective7330"
       inkscape:persp3d-origin="0.5 : 0.33333333 : 1"
       inkscape:vp_z="1 : 0.5 : 1"
       inkscape:vp_y="0 : 1000 : 0"
       inkscape:vp_x="0 : 0.5 : 1"
       sodipodi:type="inkscape:persp3d" />
    <inkscape:perspective
       id="perspective3068"
       inkscape:persp3d-origin="0.5 : 0.33333333 : 1"
       inkscape:vp_z="1 : 0.5 : 1"
       inkscape:vp_y="0 : 1000 : 0"
       inkscape:vp_x="0 : 0.5 : 1"
       sodipodi:type="inkscape:persp3d" />
    <inkscape:perspective
       id="perspective3106"
       inkscape:persp3d-origin="0.5 : 0.33333333 : 1"
       inkscape:vp_z="1 : 0.5 : 1"
       inkscape:vp_y="0 : 1000 : 0"
       inkscape:vp_x="0 : 0.5 : 1"
       sodipodi:type="inkscape:persp3d" />
    <inkscape:perspective
       id="perspective3128"
       inkscape:persp3d-origin="0.5 : 0.33333333 : 1"
       inkscape:vp_z="1 : 0.5 : 1"
       inkscape:vp_y="0 : 1000 : 0"
       inkscape:vp_x="0 : 0.5 : 1"
       sodipodi:type="inkscape:persp3d" />
    <inkscape:perspective
       id="perspective3152"
       inkscape:persp3d-origin="0.5 : 0.33333333 : 1"
       inkscape:vp_z="1 : 0.5 : 1"
       inkscape:vp_y="0 : 1000 : 0"
       inkscape:vp_x="0 : 0.5 : 1"
       sodipodi:type="inkscape:persp3d" />
    <inkscape:perspective
       id="perspective3174"
       inkscape:persp3d-origin="0.5 : 0.33333333 : 1"
       inkscape:vp_z="1 : 0.5 : 1"
       inkscape:vp_y="0 : 1000 : 0"
       inkscape:vp_x="0 : 0.5 : 1"
       sodipodi:type="inkscape:persp3d" />
    <inkscape:perspective
       id="perspective3212"
       inkscape:persp3d-origin="0.5 : 0.33333333 : 1"
       inkscape:vp_z="1 : 0.5 : 1"
       inkscape:vp_y="0 : 1000 : 0"
       inkscape:vp_x="0 : 0.5 : 1"
       sodipodi:type="inkscape:persp3d" />
    <inkscape:perspective
       id="perspective3238"
       inkscape:persp3d-origin="0.5 : 0.33333333 : 1"
       inkscape:vp_z="1 : 0.5 : 1"
       inkscape:vp_y="0 : 1000 : 0"
       inkscape:vp_x="0 : 0.5 : 1"
       sodipodi:type="inkscape:persp3d" />
    <inkscape:perspective
       id="perspective3276"
       inkscape:persp3d-origin="0.5 : 0.33333333 : 1"
       inkscape:vp_z="1 : 0.5 : 1"
       inkscape:vp_y="0 : 1000 : 0"
       inkscape:vp_x="0 : 0.5 : 1"
       sodipodi:type="inkscape:persp3d" />
    <inkscape:perspective
       id="perspective3314"
       inkscape:persp3d-origin="0.5 : 0.33333333 : 1"
       inkscape:vp_z="1 : 0.5 : 1"
       inkscape:vp_y="0 : 1000 : 0"
       inkscape:vp_x="0 : 0.5 : 1"
       sodipodi:type="inkscape:persp3d" />
  </defs>
  <sodipodi:namedview
     id="base"
     pagecolor="#ffffff"
     bordercolor="#666666"
     borderopacity="1.0"
     inkscape:pageopacity="0.0"
     inkscape:pageshadow="2"
     inkscape:zoom="11.313709"
     inkscape:cx="15.14621"
     inkscape:cy="-3.0035389"
     inkscape:document-units="px"
     inkscape:current-layer="layer1"
     showgrid="true"
     inkscape:window-width="1280"
     inkscape:window-height="780"
     inkscape:window-x="-8"
     inkscape:window-y="-8"
     inkscape:window-maximized="1">
    <inkscape:grid
       type="xygrid"
       id="grid6324"
       empspacing="5"
       visible="true"
       enabled="true"
       snapvisiblegridlinesonly="true" />
  </sodipodi:namedview>
  <metadata
     id="metadata7">
    <rdf:RDF>
      <cc:Work
         rdf:about="">
        <dc:format>image/svg+xml</dc:format>
        <dc:type
           rdf:resource="http://purl.org/dc/dcmitype/StillImage" />
        <dc:title></dc:title>
      </cc:Work>
    </rdf:RDF>
  </metadata>
  <g
     inkscape:label="Calque 1"
     inkscape:groupmode="layer"
     id="layer1"
     transform="translate(0,-1036.3622)">
    <g
       id="g3320"
       transform="translate(12.75229,0.0417)">
      <path
         style="fill:#f6e3a7"
         d="m -4.3520448,1051.1539 -2.4846231,0 -0.4812823,-0.5245 -0.4812825,-0.5245 0.2746209,-0.098 0.2746209,-0.098 0,-0.2772 c 0,-0.1524 0.1914973,-0.4505 0.4255496,-0.6623 l 0.4255494,-0.3851 0.2335407,0.1443 0.2335404,0.1444 0.0059,-1.1664 c 0.00325,-0.6415 0.056988,-2.0562 0.1194276,-3.1437 0.06244,-1.0874 0.1555558,-2.1738 0.2069241,-2.4141 l 0.093397,-0.4368 -0.2488964,-0.8307 -0.2488964,-0.8308 0.420541,-0.3182 0.4205413,-0.3182 0.4393933,0 0.4393934,0 0.5184572,0.3988 0.5184572,0.3987 -0.3269427,0.64 -0.3269426,0.6399 0.254125,3.6918 0.2541249,3.6918 0.3232988,0.2097 c 0.1778146,0.1154 0.5313681,0.2655 0.7856747,0.3335 l 0.4623755,0.1237 -0.022982,0.8081 -0.022982,0.8081 -2.4846229,0 z m -0.8108275,-1.6478 c 0.060416,0 0.1098483,-0.049 0.1098483,-0.1098 0,-0.06 -0.049432,-0.1099 -0.1098483,-0.1099 -0.060417,0 -0.1098484,0.05 -0.1098484,0.1099 0,0.06 0.049432,0.1098 0.1098484,0.1098 z m -0.3295451,-0.4394 0.2929289,0 -0.1464643,-0.1464 -0.1464646,-0.1465 -0.1464645,0.1465 -0.1464643,0.1464 0.2929288,0 z"
         id="path3340" />
      <path
         style="fill:#cea161"
         d="m -4.3520448,1051.1539 -2.4846231,0 -0.4812823,-0.5245 -0.4812825,-0.5245 0.2746209,-0.098 0.2746209,-0.098 0,-0.2772 c 0,-0.1524 0.1914973,-0.4505 0.4255496,-0.6623 l 0.4255494,-0.3851 0.2335407,0.1443 0.2335404,0.1444 0.0059,-1.1664 c 0.00325,-0.6415 0.056988,-2.0562 0.1194276,-3.1437 0.06244,-1.0874 0.1555558,-2.1738 0.2069241,-2.4141 l 0.093397,-0.4368 -0.2488964,-0.8307 -0.2488964,-0.8308 0.420541,-0.3182 0.4205413,-0.3182 0.4393933,0 0.4393934,0 0.5184572,0.3988 0.5184572,0.3987 -0.3269427,0.64 -0.3269426,0.6399 0.254125,3.6918 0.2541249,3.6918 0.3232988,0.2097 c 0.1778146,0.1154 0.5313681,0.2655 0.7856747,0.3335 l 0.4623755,0.1237 -0.022982,0.8081 -0.022982,0.8081 -2.4846229,0 z m 0.1202679,-1.2084 c 0.048909,0 0.2301585,-0.1412 0.4027774,-0.3138 l 0.3138524,-0.3139 0,-0.3452 0,-0.3453 -0.1944294,0 c -0.1069363,0 -0.3489493,0.2359 -0.537807,0.5241 l -0.3433776,0.5241 0.1350298,0.135 c 0.074266,0.074 0.1750458,0.135 0.2239544,0.135 z m -0.9310954,-0.4394 c 0.060416,0 0.1098483,-0.049 0.1098483,-0.1098 0,-0.06 -0.049432,-0.1099 -0.1098483,-0.1099 -0.060417,0 -0.1098484,0.05 -0.1098484,0.1099 0,0.06 0.049432,0.1098 0.1098484,0.1098 z m -0.3295451,-0.4394 0.2929289,0 -0.1464643,-0.1464 -0.1464646,-0.1465 -0.1464645,0.1465 -0.1464643,0.1464 0.2929288,0 z m 0.7602154,-1.6814 0.9799118,-1.0648 0.00872,-0.4302 0.00872,-0.4302 -0.9886352,0.9703 -0.9886351,0.9702 0,0.5248 0,0.5248 0.9799121,-1.0649 z m 0.061712,-2.7728 0.7595213,-0.7595 -0.07671,-0.3962 -0.07671,-0.3963 -0.826966,0.7801 -0.8269663,0.7801 0.1441547,0.3756 0.1441546,0.3757 0.7595216,-0.7595 z m -0.2426853,-2.2864 0.579242,-0.3795 -0.2569446,-0.086 c -0.1413194,-0.047 -0.4019781,-0.03 -0.5792417,0.038 l -0.3222975,0.1236 0,0.3416 0,0.3415 0.5792418,-0.3796 z"
         id="path3338" />
      <path
         style="fill:#cb562b"
         d="m -4.3520448,1051.1539 -2.4846231,0 -0.4812823,-0.5245 -0.4812825,-0.5245 0.2746209,-0.098 0.2746209,-0.098 0,-0.2772 c 0,-0.1524 0.1914973,-0.4505 0.4255496,-0.6623 l 0.4255494,-0.3851 0.2335407,0.1443 0.2335404,0.1444 0.0059,-1.1664 c 0.00325,-0.6415 0.056988,-2.0562 0.1194276,-3.1437 0.06244,-1.0874 0.1555558,-2.1738 0.2069241,-2.4141 l 0.093397,-0.4368 -0.2488964,-0.8307 -0.2488964,-0.8308 0.420541,-0.3182 0.4205413,-0.3182 0.4393933,0 0.4393934,0 0.5184572,0.3988 0.5184572,0.3987 -0.3269427,0.64 -0.3269426,0.6399 0.254125,3.6918 0.2541249,3.6918 0.3232988,0.2097 c 0.1778146,0.1154 0.5313681,0.2655 0.7856747,0.3335 l 0.4623755,0.1237 -0.022982,0.8081 -0.022982,0.8081 -2.4846229,0 z m 0.1986814,-1.2117 c 0.071897,0 0.2893388,-0.172 0.4832031,-0.3862 l 0.352481,-0.3895 -0.1970109,-0.3187 -0.1970108,-0.3188 -0.5631643,0.5291 -0.5631646,0.529 0.2769723,0.1759 c 0.1523346,0.097 0.3357971,0.1773 0.4076942,0.1792 z m -1.0095089,-0.4361 c 0.060416,0 0.1098483,-0.049 0.1098483,-0.1098 0,-0.06 -0.049432,-0.1099 -0.1098483,-0.1099 -0.060417,0 -0.1098484,0.05 -0.1098484,0.1099 0,0.06 0.049432,0.1098 0.1098484,0.1098 z m -0.3295451,-0.4394 0.2929289,0 -0.1464643,-0.1464 -0.1464646,-0.1465 -0.1464645,0.1465 -0.1464643,0.1464 0.2929288,0 z m 0.7689384,-1.5378 0.9886352,-1.1132 0,-0.4398 0,-0.4398 -0.4156967,0.2225 c -0.2286331,0.1224 -0.6735189,0.5289 -0.9886351,0.9034 l -0.5729385,0.6809 0,0.6495 0,0.6496 0.9886351,-1.1131 z m -0.8787867,-1.7576 c 0.060417,0 0.1098483,-0.05 0.1098483,-0.1099 0,-0.06 -0.049432,-0.1098 -0.1098483,-0.1098 -0.060417,0 -0.1098484,0.049 -0.1098484,0.1098 0,0.06 0.049432,0.1099 0.1098484,0.1099 z m 0.9002889,-1.0199 0.7474363,-0.5701 -0.00549,-0.688 -0.00549,-0.6879 -0.8707212,0.9224 -0.8707213,0.9225 0.1287781,0.3356 0.128778,0.3355 0.7474365,-0.57 z m -0.1313505,-2.3103 c 0.3624995,-0.268 0.6590901,-0.5664 0.6590901,-0.6631 l 0,-0.1758 -0.4943176,0.052 c -0.2718746,0.029 -0.5669512,0.1512 -0.6557258,0.272 -0.088775,0.1208 -0.1629223,0.3957 -0.1647726,0.6107 l -0.00336,0.3911 0.6590901,-0.4873 z"
         id="path3336" />
      <path
         style="fill:#64615f"
         d="m -4.3520448,1051.1539 -2.4846231,0 -0.4812823,-0.5245 -0.4812825,-0.5245 0.2746209,-0.098 0.2746209,-0.098 0,-0.2772 c 0,-0.1524 0.1914973,-0.4505 0.4255496,-0.6623 l 0.4255494,-0.3851 0.2335407,0.1443 0.2335404,0.1444 0.0059,-1.1664 c 0.00325,-0.6415 0.056988,-2.0562 0.1194276,-3.1437 0.06244,-1.0874 0.1555558,-2.1738 0.2069241,-2.4141 l 0.093397,-0.4368 -0.2488964,-0.8307 -0.2488964,-0.8308 0.420541,-0.3182 0.4205413,-0.3182 0.4393933,0 0.4393934,0 0.5184572,0.3988 0.5184572,0.3987 -0.3269427,0.64 -0.3269426,0.6399 0.254125,3.6918 0.2541249,3.6918 0.3232988,0.2097 c 0.1778146,0.1154 0.5313681,0.2655 0.7856747,0.3335 l 0.4623755,0.1237 -0.022982,0.8081 -0.022982,0.8081 -2.4846229,0 z m 0.1986814,-1.2257 c 0.071897,0.01 0.2935458,-0.1626 0.4925521,-0.3825 l 0.3618297,-0.3998 -0.27814,-0.3804 -0.2781402,-0.3804 -0.48345,0.6539 -0.4834501,0.6539 0.2690382,0.109 c 0.147971,0.06 0.3278632,0.1167 0.3997603,0.1263 z m -1.0095089,-0.4221 c 0.060416,0 0.1098483,-0.049 0.1098483,-0.1098 0,-0.06 -0.049432,-0.1099 -0.1098483,-0.1099 -0.060417,0 -0.1098484,0.05 -0.1098484,0.1099 0,0.06 0.049432,0.1098 0.1098484,0.1098 z m -0.3295451,-0.4394 0.2929289,0 -0.1464643,-0.1464 -0.1464646,-0.1465 -0.1464645,0.1465 -0.1464643,0.1464 0.2929288,0 z m 0.7602154,-1.4617 0.9799118,-1.0648 0.00872,-0.6499 0.00872,-0.6499 -0.9886352,0.9703 -0.9886351,0.9702 0,0.7445 0,0.7444 0.9799121,-1.0648 z m -0.061426,-2.6203 0.8708105,-0.9447 -0.070786,-0.5495 -0.070786,-0.5494 -0.7153232,0.5912 -0.7153232,0.5913 -0.084702,0.9029 -0.084702,0.9029 0.8708105,-0.9447 z m -0.039699,-2.5089 c 0.3624995,-0.2581 0.6590901,-0.5602 0.6590901,-0.6714 l 0,-0.2022 -0.4943176,0.052 c -0.2718746,0.029 -0.5669512,0.1512 -0.6557258,0.272 -0.088775,0.1208 -0.1629223,0.3994 -0.1647726,0.6191 l -0.00336,0.3994 0.6590901,-0.4693 z"
         id="path3334" />
      <path
         style="fill:#5bb600"
         d="m -2.7829888,1051.1424 c -0.4631037,0.034 -1.5868468,7e-4 -2.4972069,-0.073 l -1.6552001,-0.1348 -0.3468209,-0.326 -0.3468208,-0.3259 0.2444474,-0.443 c 0.1344462,-0.2437 0.3773157,-0.6094 0.5397102,-0.8127 l 0.2952627,-0.3696 0.2764509,0.1061 0.2764507,0.106 0.1716746,-1.3841 c 0.094421,-0.7613 0.1665039,-1.6808 0.1601841,-2.0433 l -0.01149,-0.6591 0.1521428,0.3913 0.1521428,0.3912 0.6817887,-0.7207 c 0.3749838,-0.3965 0.7355529,-0.8691 0.8012644,-1.0504 l 0.1194755,-0.3295 0.017345,0.8879 0.017344,0.888 -0.9886352,0.9703 -0.9886351,0.9702 0,0.7542 0,0.7541 0.933711,-1.0541 c 0.513541,-0.5798 1.00091,-1.2116 1.0830421,-1.4041 l 0.1493309,-0.3499 0.015442,1.3861 0.015441,1.3861 -0.184759,-0.1142 -0.184759,-0.1142 -0.4659172,0.6302 -0.4659173,0.6302 0.3552847,0.1363 0.3552845,0.1363 0.4767554,-0.4478 0.4767555,-0.4479 0.7160027,0.3572 0.7160025,0.3571 -0.233049,0.2331 -0.2330489,0.233 0.2457762,0.2962 0.2457762,0.2961 -0.123011,0.123 c -0.067656,0.068 -0.501914,0.1507 -0.965018,0.1845 z m -2.3798835,-1.6363 c 0.060416,0 0.1098483,-0.049 0.1098483,-0.1098 0,-0.06 -0.049432,-0.1099 -0.1098483,-0.1099 -0.060417,0 -0.1098484,0.05 -0.1098484,0.1099 0,0.06 0.049432,0.1098 0.1098484,0.1098 z m -0.3295451,-0.4394 0.2929289,0 -0.1464643,-0.1464 -0.1464646,-0.1465 -0.1464645,0.1465 -0.1464643,0.1464 0.2929288,0 z m -0.010895,-4.7234 -0.1809506,0.4393 -0.013927,-0.7393 -0.013925,-0.7393 0.7689385,-0.7043 c 0.4229161,-0.3874 0.7689384,-0.7714 0.7689384,-0.8535 l 0,-0.1492 -0.5492418,0 -0.5492417,0 -0.014698,0.2747 c -0.00808,0.151 -0.1548767,-0.1703 -0.3262089,-0.714 -0.1713323,-0.5438 -0.313014,-1.0687 -0.3148483,-1.1664 l -0.00334,-0.1778 0.2212484,0.1368 0.2212484,0.1367 0.1318018,-0.3435 0.1318018,-0.3434 0.5257366,0 0.5257366,0 0,0.2197 0,0.2197 0.3551566,0 0.3551566,0 -0.1549059,0.6041 c -0.085198,0.3323 -0.2059138,1.029 -0.2682567,1.5483 l -0.1133508,0.9441 -0.6609619,0.4839 -0.6609619,0.484 -0.1809507,0.4394 z"
         id="path3332" />
      <path
         style="fill:#c1350e"
         d="m -2.9659054,1051.1901 c -0.3624995,0 -1.1781235,-0.044 -1.8124977,-0.088 l -1.1534077,-0.081 0,-0.1553 c 0,-0.086 0.1917985,-0.2752 0.4262191,-0.4216 l 0.426219,-0.2662 -0.033578,-0.4457 -0.033578,-0.4458 -0.18591,0 -0.1859102,0 0.1503266,-0.2432 0.1503268,-0.2432 -0.4310108,0.1368 -0.4310111,0.1368 0.2071847,-1.3766 c 0.1139514,-0.757 0.2084177,-1.7225 0.2099248,-2.1454 l 0.00274,-0.769 0.1439034,0.3913 0.1439033,0.3912 0.6817887,-0.7207 c 0.3749842,-0.3965 0.7355533,-0.8691 0.8012648,-1.0504 l 0.1194755,-0.3295 0.017345,0.8879 0.017344,0.888 -0.9886352,0.9703 -0.9886351,0.9702 0,0.7542 0,0.7541 0.933711,-1.0541 c 0.513541,-0.5798 1.00091,-1.2116 1.0830421,-1.4041 l 0.1493309,-0.3499 0.015442,1.3861 0.015441,1.3861 -0.184759,-0.1142 -0.184759,-0.1142 -0.4826033,0.6528 -0.4826032,0.6527 0.5787736,0.2201 0.5787734,0.22 0.1109607,0.4243 0.1109606,0.4243 0.581794,0.089 0.581794,0.089 -0.6590901,-0.01 z m -3.9286088,-0.1461 c -0.060417,0 -0.1709493,-0.099 -0.2456284,-0.2197 -0.074679,-0.1208 -0.086348,-0.2197 -0.025932,-0.2197 0.060417,0 0.1709493,0.099 0.2456284,0.2197 0.074679,0.1208 0.086348,0.2197 0.025932,0.2197 z m 0.52331,0 -0.2929288,0 0.1464643,-0.1465 0.1464645,-0.1464 0.1464646,0.1464 0.1464643,0.1465 -0.2929289,0 z m 4.5403985,-0.073 -0.1464646,0.1464 0,-0.2929 0,-0.2929 0.1464646,0.1464 0.1464643,0.1465 -0.1464643,0.1465 z m -5.5231993,-0.8104 -0.3237108,0.2686 0.3282693,-0.658 c 0.180548,-0.3619 0.4992291,-0.7903 0.7081799,-0.952 l 0.3799108,-0.2939 -0.3844692,0.4529 c -0.2114581,0.2491 -0.3844693,0.5566 -0.3844693,0.6833 0,0.1267 -0.1456698,0.3513 -0.3237107,0.4991 z m 5.3463733,-0.086 -0.2572253,0.159 0.1451622,-0.2349 0.1451622,-0.2348 -0.2759896,-0.1113 -0.2759898,-0.1113 0.261655,-0.017 c 0.1439104,-0.01 0.3185341,0.075 0.3880529,0.1871 l 0.1263979,0.2046 -0.2572255,0.1589 z m -0.670687,-0.5713 c -0.037339,0 -0.2161853,-0.099 -0.397435,-0.2164 l -0.3295451,-0.2129 0.261655,0 c 0.1439104,0 0.322756,0.096 0.3974351,0.2163 0.074679,0.1209 0.1052295,0.2182 0.06789,0.2164 z m -2.8249932,-5.1595 -0.1809506,0.4393 -0.013926,-0.7393 -0.013926,-0.7393 0.7689385,-0.7043 c 0.4229161,-0.3874 0.7689384,-0.7714 0.7689384,-0.8535 l 0,-0.1492 -0.5492418,0 -0.5492417,0 -0.014698,0.2747 c -0.00808,0.151 -0.1548767,-0.1703 -0.3262089,-0.714 -0.1713323,-0.5438 -0.313014,-1.0687 -0.3148483,-1.1664 l -0.00334,-0.1778 0.2212484,0.1368 0.2212484,0.1367 0.1318018,-0.3435 0.1318018,-0.3434 0.5257366,0 0.5257366,0 0,0.2197 0,0.2197 0.3551566,0 0.3551566,0 -0.1549059,0.6041 c -0.085198,0.3323 -0.2059138,1.029 -0.2682567,1.5483 l -0.1133508,0.9441 -0.6609619,0.4839 -0.6609619,0.484 -0.1809507,0.4394 z"
         id="path3330" />
      <path
         style="fill:#5a9100"
         d="m -2.9659054,1051.1901 c -0.3624995,0 -1.1781235,-0.044 -1.8124977,-0.088 l -1.1534077,-0.081 0,-0.1553 c 0,-0.086 0.1917985,-0.2752 0.4262191,-0.4216 l 0.426219,-0.2662 -0.033578,-0.4457 c -0.018468,-0.2452 -0.090364,-0.4458 -0.1597698,-0.4458 -0.069406,0 -0.1409047,-0.1953 -0.1588871,-0.434 l -0.032695,-0.434 0.666982,-0.6096 0.6669823,-0.6095 0.2989964,-0.6591 0.2989962,-0.6591 0.00524,1.4281 0.00524,1.428 -0.1614088,-0.2344 -0.1614083,-0.2344 -0.6063622,0.7064 -0.6063622,0.7065 0.6806291,0.2373 0.680629,0.2372 0.1128775,0.4317 0.1128777,0.4316 0.581794,0.089 0.581794,0.089 -0.6590901,-0.01 z m -3.9286088,-0.1461 c -0.060417,0 -0.1709493,-0.099 -0.2456284,-0.2197 -0.074679,-0.1208 -0.086348,-0.2197 -0.025932,-0.2197 0.060417,0 0.1709493,0.099 0.2456284,0.2197 0.074679,0.1208 0.086348,0.2197 0.025932,0.2197 z m 0.52331,0 -0.2929288,0 0.1464643,-0.1465 0.1464645,-0.1464 0.1464646,0.1464 0.1464643,0.1465 -0.2929289,0 z m 4.5403985,-0.073 -0.1464646,0.1464 0,-0.2929 0,-0.2929 0.1464646,0.1464 0.1464643,0.1465 -0.1464643,0.1465 z m -5.5231993,-0.8104 -0.3237108,0.2686 0.3282693,-0.658 c 0.180548,-0.3619 0.4992291,-0.7903 0.7081799,-0.952 l 0.3799108,-0.2939 -0.3844692,0.4529 c -0.2114581,0.2491 -0.3844693,0.5566 -0.3844693,0.6833 0,0.1267 -0.1456698,0.3513 -0.3237107,0.4991 z m 5.3463733,-0.086 -0.2572253,0.159 0.1451622,-0.2349 0.1451622,-0.2348 -0.2759896,-0.1113 -0.2759898,-0.1113 0.261655,-0.017 c 0.1439104,-0.01 0.3185341,0.075 0.3880529,0.1871 l 0.1263979,0.2046 -0.2572255,0.1589 z m -0.670687,-0.5713 c -0.037339,0 -0.2161853,-0.099 -0.397435,-0.2164 l -0.3295451,-0.2129 0.261655,0 c 0.1439104,0 0.322756,0.096 0.3974351,0.2163 0.074679,0.1209 0.1052295,0.2182 0.06789,0.2164 z m -3.2171305,-0.4361 -0.1833349,0 0.2184536,-1.3731 c 0.1201495,-0.7552 0.2124171,-1.7191 0.205039,-2.142 l -0.013415,-0.769 0.1483225,0.3913 0.1483225,0.3912 0.6817887,-0.7207 c 0.3749836,-0.3965 0.7355527,-0.8691 0.8012642,-1.0504 l 0.1194755,-0.3295 0.017345,0.8699 0.017344,0.8699 -0.9886352,0.9076 -0.9886351,0.9077 0,1.0236 0,1.0235 -0.1833351,0 z m 0.3979876,-4.7462 -0.1868009,0.4621 -0.013926,-0.7034 -0.013926,-0.7034 0.7689385,-0.7468 c 0.4229161,-0.4107 0.7689384,-0.811 0.7689384,-0.8894 l 0,-0.1426 -0.5492418,0 -0.5492417,0 -0.014698,0.2747 c -0.00808,0.151 -0.1548767,-0.1703 -0.3262089,-0.714 -0.1713323,-0.5438 -0.313014,-1.0687 -0.3148483,-1.1664 l -0.00334,-0.1778 0.2212484,0.1368 0.2212484,0.1367 0.1318018,-0.3435 0.1318018,-0.3434 0.5257366,0 0.5257366,0 0,0.2197 0,0.2197 0.3551566,0 0.3551566,0 -0.1472664,0.6041 c -0.080996,0.3323 -0.2276198,1.0407 -0.3258297,1.5742 l -0.1785634,0.9699 -0.5975385,0.4353 -0.5975386,0.4353 -0.186801,0.4622 z"
         id="path3328" />
      <path
         style="fill:#bb2200"
         d="m -2.9842134,1051.2603 -0.6407821,0 -0.329545,-0.2101 -0.3295451,-0.2101 0.8787868,0.1347 c 0.4833328,0.074 0.9199799,0.1701 0.9703272,0.2134 0.050347,0.043 -0.1968118,0.077 -0.5492418,0.075 z m -3.9103008,-0.2163 c -0.060417,0 -0.1709493,-0.099 -0.2456284,-0.2197 -0.074679,-0.1208 -0.086348,-0.2197 -0.025932,-0.2197 0.060417,0 0.1709493,0.099 0.2456284,0.2197 0.074679,0.1208 0.086348,0.2197 0.025932,0.2197 z m 0.52331,0 -0.2929288,0 0.1464643,-0.1465 0.1464645,-0.1464 0.1464646,0.1464 0.1464643,0.1465 -0.2929289,0 z m 0.6590901,0 -0.2929288,0 0.1464643,-0.1465 0.1464645,-0.1464 0.1464646,0.1464 0.1464643,0.1465 -0.2929289,0 z m 0.7689385,0 c -0.060417,0 -0.1098484,-0.049 -0.1098484,-0.1098 0,-0.06 0.049432,-0.1099 0.1098484,-0.1099 0.060416,0 0.1098483,0.049 0.1098483,0.1099 0,0.06 -0.049432,0.1098 -0.1098483,0.1098 z m 3.1123699,-0.073 -0.1464646,0.1464 0,-0.2929 0,-0.2929 0.1464646,0.1464 0.1464643,0.1465 -0.1464643,0.1465 z m -5.5231993,-0.8104 -0.3237108,0.2686 0.3282693,-0.658 c 0.180548,-0.3619 0.4992291,-0.7903 0.7081799,-0.952 l 0.3799108,-0.2939 -0.3844692,0.4529 c -0.2114581,0.2491 -0.3844693,0.5566 -0.3844693,0.6833 0,0.1267 -0.1456698,0.3513 -0.3237107,0.4991 z m 5.3463733,-0.086 -0.2572253,0.159 0.1451622,-0.2349 0.1451622,-0.2348 -0.2759896,-0.1113 -0.2759898,-0.1113 0.261655,-0.017 c 0.1439104,-0.01 0.3185341,0.075 0.3880529,0.1871 l 0.1263979,0.2046 -0.2572255,0.1589 z m -2.3705089,-1.1731 -0.6149466,0.6882 -0.2649107,-0.495 -0.2649108,-0.4949 0.2898666,-0.3705 c 0.1594266,-0.2037 0.4729834,-0.5067 0.6967933,-0.6732 l 0.4069268,-0.3028 0.2984881,-0.6858 0.298488,-0.6859 -0.00875,1.4281 -0.00875,1.428 -0.106679,-0.2622 -0.106679,-0.2623 -0.6149465,0.6883 z m 1.6998219,0.6018 c -0.037339,0 -0.2161853,-0.099 -0.397435,-0.2164 l -0.3295451,-0.2129 0.261655,0 c 0.1439104,0 0.322756,0.096 0.3974351,0.2163 0.074679,0.1209 0.1052295,0.2182 0.06789,0.2164 z m -3.2157102,-0.5693 -0.181915,0.1125 0.2170335,-1.3628 c 0.1193685,-0.7495 0.210997,-1.7087 0.2036189,-2.1316 l -0.013415,-0.769 0.1483225,0.3913 0.1483225,0.3912 0.6817887,-0.7207 c 0.3749836,-0.3965 0.7355527,-0.8691 0.8012642,-1.0504 l 0.1194755,-0.3295 0.017345,0.8699 0.017345,0.8699 -0.9886352,0.9076 -0.9886351,0.9077 0,0.9007 0,0.9008 -0.1819148,0.1124 z m 0.3965673,-4.613 -0.1868009,0.4621 -0.013926,-0.7034 -0.013926,-0.7034 0.7689385,-0.7468 c 0.4229161,-0.4107 0.7689384,-0.811 0.7689384,-0.8894 l 0,-0.1426 -0.5492418,0 -0.5492417,0 -0.014698,0.2747 c -0.00808,0.151 -0.1548767,-0.1703 -0.3262089,-0.714 -0.1713323,-0.5438 -0.313014,-1.0687 -0.3148483,-1.1664 l -0.00334,-0.1778 0.2212484,0.1368 0.2212484,0.1367 0.1318018,-0.3435 0.1318018,-0.3434 0.5257366,0 0.5257366,0 0,0.2197 0,0.2197 0.3551566,0 0.3551566,0 -0.1472664,0.6041 c -0.080996,0.3323 -0.2276198,1.0407 -0.3258297,1.5742 l -0.1785634,0.9699 -0.5975385,0.4353 -0.5975386,0.4353 -0.186801,0.4622 z"
         id="path3326" />
      <path
         style="fill:#551202"
         d="m -2.9842134,1051.2603 -0.6407821,0 -0.329545,-0.2101 -0.3295451,-0.2101 0.8787868,0.1347 c 0.4833328,0.074 0.9199799,0.1701 0.9703272,0.2134 0.050347,0.043 -0.1968118,0.077 -0.5492418,0.075 z m -3.9103008,-0.2163 c -0.060417,0 -0.1709493,-0.099 -0.2456284,-0.2197 -0.074679,-0.1208 -0.086348,-0.2197 -0.025932,-0.2197 0.060417,0 0.1709493,0.099 0.2456284,0.2197 0.074679,0.1208 0.086348,0.2197 0.025932,0.2197 z m 0.52331,0 -0.2929288,0 0.1464643,-0.1465 0.1464645,-0.1464 0.1464646,0.1464 0.1464643,0.1465 -0.2929289,0 z m 0.6590901,0 -0.2929288,0 0.1464643,-0.1465 0.1464645,-0.1464 0.1464646,0.1464 0.1464643,0.1465 -0.2929289,0 z m 0.7689385,0 c -0.060417,0 -0.1098484,-0.049 -0.1098484,-0.1098 0,-0.06 0.049432,-0.1099 0.1098484,-0.1099 0.060416,0 0.1098483,0.049 0.1098483,0.1099 0,0.06 -0.049432,0.1098 -0.1098483,0.1098 z m 3.1123699,-0.073 -0.1464646,0.1464 0,-0.2929 0,-0.2929 0.1464646,0.1464 0.1464643,0.1465 -0.1464643,0.1465 z m -5.5231993,-0.8104 -0.3237108,0.2686 0.3282693,-0.658 c 0.180548,-0.3619 0.4992291,-0.7903 0.7081799,-0.952 l 0.3799108,-0.2939 -0.3844692,0.4529 c -0.2114581,0.2491 -0.3844693,0.5566 -0.3844693,0.6833 0,0.1267 -0.1456698,0.3513 -0.3237107,0.4991 z m 5.3463733,-0.086 -0.2572253,0.159 0.1451622,-0.2349 0.1451622,-0.2348 -0.2759896,-0.1113 -0.2759898,-0.1113 0.261655,-0.017 c 0.1439104,-0.01 0.3185341,0.075 0.3880529,0.1871 l 0.1263979,0.2046 -0.2572255,0.1589 z m -0.670687,-0.5713 c -0.037339,0 -0.2161853,-0.099 -0.397435,-0.2164 l -0.3295451,-0.2129 0.261655,0 c 0.1439104,0 0.322756,0.096 0.3974351,0.2163 0.074679,0.1209 0.1052295,0.2182 0.06789,0.2164 z m -3.1843507,-0.637 -0.1805311,0.1805 0.10597,-1.0333 0.1059703,-1.0334 0.074561,0.8528 0.074561,0.8528 -0.1805314,0.1806 z m 2.2867533,-0.8426 -0.088608,0.714 0,-1.428 0,-1.4281 0.088608,0.714 c 0.048734,0.3928 0.048734,1.0354 0,1.4281 z m -1.9861201,-2.6501 -0.1153889,0.2883 -0.017345,-0.4211 -0.017344,-0.421 0.1327335,0.1327 0.1327333,0.1327 -0.1153889,0.2884 z m 1.7625429,-0.4257 -0.09521,0.4943 0,-0.9886 0,-0.9886 0.09521,0.4943 c 0.052365,0.2719 0.052365,0.7167 0,0.9886 z m -1.7611781,-0.5492 -0.1004724,0.3844 0,-0.7689 0,-0.7689 0.1004724,0.3844 c 0.05526,0.2115 0.05526,0.5575 0,0.769 z m 1.6409179,-2.8012 -0.2095067,0.769 -0.022489,-0.3845 -0.022488,-0.3845 -0.5492418,0 -0.5492417,0 -0.014698,0.2747 c -0.00808,0.151 -0.1548767,-0.1703 -0.3262089,-0.714 -0.1713323,-0.5438 -0.313014,-1.0459 -0.3148483,-1.1159 l -0.00334,-0.1271 1.2363181,-0.05 1.2363179,-0.05 -0.125536,0.5068 c -0.069045,0.2787 -0.219814,0.8527 -0.3350427,1.2756 z m -0.8037255,-2.0201 -0.65909,0.01 0.2704396,-0.1094 c 0.1487419,-0.06 0.4453324,-0.064 0.65909,-0.01 l 0.3886505,0.1013 -0.6590901,0.01 z"
         id="path3324" />
      <path
         style="fill:#110c0b"
         d="m -3.0940617,1051.2603 c -0.2920136,0 -0.679229,-0.1005 -0.8604788,-0.2194 l -0.3295451,-0.216 0.7689385,0.1411 c 0.4229161,0.078 0.8101315,0.1763 0.8604788,0.2194 0.050347,0.043 -0.14738,0.077 -0.4393934,0.075 z m -3.8004525,-0.2163 c -0.060417,0 -0.1709493,-0.099 -0.2456284,-0.2197 -0.074679,-0.1208 -0.086348,-0.2197 -0.025932,-0.2197 0.060417,0 0.1709493,0.099 0.2456284,0.2197 0.074679,0.1208 0.086348,0.2197 0.025932,0.2197 z m 0.52331,0 -0.2929288,0 0.1464643,-0.1465 0.1464645,-0.1464 0.1464646,0.1464 0.1464643,0.1465 -0.2929289,0 z m 0.6590901,0 -0.2929288,0 0.1464643,-0.1465 0.1464645,-0.1464 0.1464646,0.1464 0.1464643,0.1465 -0.2929289,0 z m 0.7689385,0 c -0.060417,0 -0.1098484,-0.049 -0.1098484,-0.1098 0,-0.06 0.049432,-0.1099 0.1098484,-0.1099 0.060416,0 0.1098483,0.049 0.1098483,0.1099 0,0.06 -0.049432,0.1098 -0.1098483,0.1098 z m 3.1123699,-0.073 -0.1464646,0.1464 0,-0.2929 0,-0.2929 0.1464646,0.1464 0.1464643,0.1465 -0.1464643,0.1465 z m -5.637801,-0.6964 -0.1907917,0.1179 0.3284642,-0.6584 c 0.1806552,-0.3621 0.4143205,-0.7115 0.5192557,-0.7763 l 0.1907917,-0.118 -0.3284642,0.6585 c -0.1806552,0.3621 -0.4143205,0.7114 -0.5192557,0.7763 z m 5.460975,-0.2003 -0.2572253,0.159 0.1451622,-0.2349 0.1451622,-0.2348 -0.2759896,-0.1113 -0.2759898,-0.1113 0.261655,-0.017 c 0.1439104,-0.01 0.3185341,0.075 0.3880529,0.1871 l 0.1263979,0.2046 -0.2572255,0.1589 z m -0.738577,-0.568 c -0.060417,0 -0.1098483,-0.049 -0.1098483,-0.1098 0,-0.06 0.049432,-0.1099 0.1098483,-0.1099 0.060417,0 0.1098484,0.05 0.1098484,0.1099 0,0.06 -0.049432,0.1098 -0.1098484,0.1098 z m -0.4393934,-0.2197 c -0.060417,0 -0.1098483,-0.049 -0.1098483,-0.1098 0,-0.06 0.049432,-0.1099 0.1098483,-0.1099 0.060417,0 0.1098484,0.049 0.1098484,0.1099 0,0.06 -0.049432,0.1098 -0.1098484,0.1098 z m -2.6770673,-0.4206 -0.1805311,0.1805 0.10597,-1.0333 0.1059703,-1.0334 0.074561,0.8528 0.074561,0.8528 -0.1805314,0.1806 z m 2.2870466,-0.8466 -0.088902,0.718 -0.00224,-1.3182 -0.00224,-1.3182 0.091144,0.6003 c 0.050129,0.3301 0.051138,0.9233 0.00224,1.3181 z m -1.9864134,-2.6461 -0.1153889,0.2883 -0.017345,-0.4211 -0.017344,-0.421 0.1327335,0.1327 0.1327333,0.1327 -0.1153889,0.2884 z m 1.7625429,-0.4257 -0.09521,0.4943 0,-0.9886 0,-0.9886 0.09521,0.4943 c 0.052365,0.2719 0.052365,0.7167 0,0.9886 z m -1.7611781,-0.5492 -0.1004724,0.3844 0,-0.7689 0,-0.7689 0.1004724,0.3844 c 0.05526,0.2115 0.05526,0.5575 0,0.769 z m 1.6409179,-2.8012 -0.2095067,0.769 -0.022489,-0.3845 -0.022488,-0.3845 -0.5492418,0 -0.5492417,0 -0.014698,0.2747 c -0.00808,0.151 -0.1548767,-0.1703 -0.3262089,-0.714 -0.1713323,-0.5438 -0.313014,-1.0496 -0.3148483,-1.124 l -0.00334,-0.1352 0.8787868,0.1607 0.8787868,0.1607 0,-0.1902 0,-0.1902 0.3551566,0 0.3551566,0 -0.1231613,0.4943 c -0.067739,0.2719 -0.2174395,0.8403 -0.3326682,1.2632 z m -0.8037255,-2.0201 -0.65909,0.01 0.2704396,-0.1094 c 0.1487419,-0.06 0.4453324,-0.064 0.65909,-0.01 l 0.3886505,0.1013 -0.6590901,0.01 z"
         id="path3322" />
    </g>
  </g>
</svg>
