<?xml version="1.0" encoding="UTF-8" standalone="no"?>
<!-- Created with Inkscape (http://www.inkscape.org/) -->

<svg
   xmlns:dc="http://purl.org/dc/elements/1.1/"
   xmlns:cc="http://creativecommons.org/ns#"
   xmlns:rdf="http://www.w3.org/1999/02/22-rdf-syntax-ns#"
   xmlns:svg="http://www.w3.org/2000/svg"
   xmlns="http://www.w3.org/2000/svg"
   xmlns:sodipodi="http://sodipodi.sourceforge.net/DTD/sodipodi-0.dtd"
   xmlns:inkscape="http://www.inkscape.org/namespaces/inkscape"
   width="16"
   height="16"
   id="svg2"
   version="1.1"
   inkscape:version="0.47 r22583"
   sodipodi:docname="LITE2-32.svg">
  <defs
     id="defs4">
    <inkscape:perspective
       sodipodi:type="inkscape:persp3d"
       inkscape:vp_x="0 : 526.18109 : 1"
       inkscape:vp_y="0 : 1000 : 0"
       inkscape:vp_z="744.09448 : 526.18109 : 1"
       inkscape:persp3d-origin="372.04724 : 350.78739 : 1"
       id="perspective10" />
    <inkscape:perspective
       id="perspective2824"
       inkscape:persp3d-origin="0.5 : 0.33333333 : 1"
       inkscape:vp_z="1 : 0.5 : 1"
       inkscape:vp_y="0 : 1000 : 0"
       inkscape:vp_x="0 : 0.5 : 1"
       sodipodi:type="inkscape:persp3d" />
    <inkscape:perspective
       id="perspective5878"
       inkscape:persp3d-origin="0.5 : 0.33333333 : 1"
       inkscape:vp_z="1 : 0.5 : 1"
       inkscape:vp_y="0 : 1000 : 0"
       inkscape:vp_x="0 : 0.5 : 1"
       sodipodi:type="inkscape:persp3d" />
    <inkscape:perspective
       id="perspective5921"
       inkscape:persp3d-origin="0.5 : 0.33333333 : 1"
       inkscape:vp_z="1 : 0.5 : 1"
       inkscape:vp_y="0 : 1000 : 0"
       inkscape:vp_x="0 : 0.5 : 1"
       sodipodi:type="inkscape:persp3d" />
    <inkscape:perspective
       id="perspective5943"
       inkscape:persp3d-origin="0.5 : 0.33333333 : 1"
       inkscape:vp_z="1 : 0.5 : 1"
       inkscape:vp_y="0 : 1000 : 0"
       inkscape:vp_x="0 : 0.5 : 1"
       sodipodi:type="inkscape:persp3d" />
    <inkscape:perspective
       id="perspective5989"
       inkscape:persp3d-origin="0.5 : 0.33333333 : 1"
       inkscape:vp_z="1 : 0.5 : 1"
       inkscape:vp_y="0 : 1000 : 0"
       inkscape:vp_x="0 : 0.5 : 1"
       sodipodi:type="inkscape:persp3d" />
    <inkscape:perspective
       id="perspective6011"
       inkscape:persp3d-origin="0.5 : 0.33333333 : 1"
       inkscape:vp_z="1 : 0.5 : 1"
       inkscape:vp_y="0 : 1000 : 0"
       inkscape:vp_x="0 : 0.5 : 1"
       sodipodi:type="inkscape:persp3d" />
    <inkscape:perspective
       id="perspective6033"
       inkscape:persp3d-origin="0.5 : 0.33333333 : 1"
       inkscape:vp_z="1 : 0.5 : 1"
       inkscape:vp_y="0 : 1000 : 0"
       inkscape:vp_x="0 : 0.5 : 1"
       sodipodi:type="inkscape:persp3d" />
    <inkscape:perspective
       id="perspective6245"
       inkscape:persp3d-origin="0.5 : 0.33333333 : 1"
       inkscape:vp_z="1 : 0.5 : 1"
       inkscape:vp_y="0 : 1000 : 0"
       inkscape:vp_x="0 : 0.5 : 1"
       sodipodi:type="inkscape:persp3d" />
    <inkscape:perspective
       id="perspective6269"
       inkscape:persp3d-origin="0.5 : 0.33333333 : 1"
       inkscape:vp_z="1 : 0.5 : 1"
       inkscape:vp_y="0 : 1000 : 0"
       inkscape:vp_x="0 : 0.5 : 1"
       sodipodi:type="inkscape:persp3d" />
    <inkscape:perspective
       id="perspective6364"
       inkscape:persp3d-origin="0.5 : 0.33333333 : 1"
       inkscape:vp_z="1 : 0.5 : 1"
       inkscape:vp_y="0 : 1000 : 0"
       inkscape:vp_x="0 : 0.5 : 1"
       sodipodi:type="inkscape:persp3d" />
    <inkscape:perspective
       id="perspective6396"
       inkscape:persp3d-origin="0.5 : 0.33333333 : 1"
       inkscape:vp_z="1 : 0.5 : 1"
       inkscape:vp_y="0 : 1000 : 0"
       inkscape:vp_x="0 : 0.5 : 1"
       sodipodi:type="inkscape:persp3d" />
    <inkscape:perspective
       id="perspective6438"
       inkscape:persp3d-origin="0.5 : 0.33333333 : 1"
       inkscape:vp_z="1 : 0.5 : 1"
       inkscape:vp_y="0 : 1000 : 0"
       inkscape:vp_x="0 : 0.5 : 1"
       sodipodi:type="inkscape:persp3d" />
    <inkscape:perspective
       id="perspective6460"
       inkscape:persp3d-origin="0.5 : 0.33333333 : 1"
       inkscape:vp_z="1 : 0.5 : 1"
       inkscape:vp_y="0 : 1000 : 0"
       inkscape:vp_x="0 : 0.5 : 1"
       sodipodi:type="inkscape:persp3d" />
    <inkscape:perspective
       id="perspective6480"
       inkscape:persp3d-origin="0.5 : 0.33333333 : 1"
       inkscape:vp_z="1 : 0.5 : 1"
       inkscape:vp_y="0 : 1000 : 0"
       inkscape:vp_x="0 : 0.5 : 1"
       sodipodi:type="inkscape:persp3d" />
    <inkscape:perspective
       id="perspective6504"
       inkscape:persp3d-origin="0.5 : 0.33333333 : 1"
       inkscape:vp_z="1 : 0.5 : 1"
       inkscape:vp_y="0 : 1000 : 0"
       inkscape:vp_x="0 : 0.5 : 1"
       sodipodi:type="inkscape:persp3d" />
    <inkscape:perspective
       id="perspective6524"
       inkscape:persp3d-origin="0.5 : 0.33333333 : 1"
       inkscape:vp_z="1 : 0.5 : 1"
       inkscape:vp_y="0 : 1000 : 0"
       inkscape:vp_x="0 : 0.5 : 1"
       sodipodi:type="inkscape:persp3d" />
    <inkscape:perspective
       id="perspective6548"
       inkscape:persp3d-origin="0.5 : 0.33333333 : 1"
       inkscape:vp_z="1 : 0.5 : 1"
       inkscape:vp_y="0 : 1000 : 0"
       inkscape:vp_x="0 : 0.5 : 1"
       sodipodi:type="inkscape:persp3d" />
    <inkscape:perspective
       id="perspective6572"
       inkscape:persp3d-origin="0.5 : 0.33333333 : 1"
       inkscape:vp_z="1 : 0.5 : 1"
       inkscape:vp_y="0 : 1000 : 0"
       inkscape:vp_x="0 : 0.5 : 1"
       sodipodi:type="inkscape:persp3d" />
    <inkscape:perspective
       id="perspective6594"
       inkscape:persp3d-origin="0.5 : 0.33333333 : 1"
       inkscape:vp_z="1 : 0.5 : 1"
       inkscape:vp_y="0 : 1000 : 0"
       inkscape:vp_x="0 : 0.5 : 1"
       sodipodi:type="inkscape:persp3d" />
    <inkscape:perspective
       id="perspective6614"
       inkscape:persp3d-origin="0.5 : 0.33333333 : 1"
       inkscape:vp_z="1 : 0.5 : 1"
       inkscape:vp_y="0 : 1000 : 0"
       inkscape:vp_x="0 : 0.5 : 1"
       sodipodi:type="inkscape:persp3d" />
    <inkscape:perspective
       id="perspective6650"
       inkscape:persp3d-origin="0.5 : 0.33333333 : 1"
       inkscape:vp_z="1 : 0.5 : 1"
       inkscape:vp_y="0 : 1000 : 0"
       inkscape:vp_x="0 : 0.5 : 1"
       sodipodi:type="inkscape:persp3d" />
    <inkscape:perspective
       id="perspective6676"
       inkscape:persp3d-origin="0.5 : 0.33333333 : 1"
       inkscape:vp_z="1 : 0.5 : 1"
       inkscape:vp_y="0 : 1000 : 0"
       inkscape:vp_x="0 : 0.5 : 1"
       sodipodi:type="inkscape:persp3d" />
    <inkscape:perspective
       id="perspective6710"
       inkscape:persp3d-origin="0.5 : 0.33333333 : 1"
       inkscape:vp_z="1 : 0.5 : 1"
       inkscape:vp_y="0 : 1000 : 0"
       inkscape:vp_x="0 : 0.5 : 1"
       sodipodi:type="inkscape:persp3d" />
    <inkscape:perspective
       id="perspective6748"
       inkscape:persp3d-origin="0.5 : 0.33333333 : 1"
       inkscape:vp_z="1 : 0.5 : 1"
       inkscape:vp_y="0 : 1000 : 0"
       inkscape:vp_x="0 : 0.5 : 1"
       sodipodi:type="inkscape:persp3d" />
    <inkscape:perspective
       id="perspective6786"
       inkscape:persp3d-origin="0.5 : 0.33333333 : 1"
       inkscape:vp_z="1 : 0.5 : 1"
       inkscape:vp_y="0 : 1000 : 0"
       inkscape:vp_x="0 : 0.5 : 1"
       sodipodi:type="inkscape:persp3d" />
    <inkscape:perspective
       id="perspective6810"
       inkscape:persp3d-origin="0.5 : 0.33333333 : 1"
       inkscape:vp_z="1 : 0.5 : 1"
       inkscape:vp_y="0 : 1000 : 0"
       inkscape:vp_x="0 : 0.5 : 1"
       sodipodi:type="inkscape:persp3d" />
    <inkscape:perspective
       id="perspective6848"
       inkscape:persp3d-origin="0.5 : 0.33333333 : 1"
       inkscape:vp_z="1 : 0.5 : 1"
       inkscape:vp_y="0 : 1000 : 0"
       inkscape:vp_x="0 : 0.5 : 1"
       sodipodi:type="inkscape:persp3d" />
    <inkscape:perspective
       id="perspective6870"
       inkscape:persp3d-origin="0.5 : 0.33333333 : 1"
       inkscape:vp_z="1 : 0.5 : 1"
       inkscape:vp_y="0 : 1000 : 0"
       inkscape:vp_x="0 : 0.5 : 1"
       sodipodi:type="inkscape:persp3d" />
    <inkscape:perspective
       id="perspective6908"
       inkscape:persp3d-origin="0.5 : 0.33333333 : 1"
       inkscape:vp_z="1 : 0.5 : 1"
       inkscape:vp_y="0 : 1000 : 0"
       inkscape:vp_x="0 : 0.5 : 1"
       sodipodi:type="inkscape:persp3d" />
    <inkscape:perspective
       id="perspective6946"
       inkscape:persp3d-origin="0.5 : 0.33333333 : 1"
       inkscape:vp_z="1 : 0.5 : 1"
       inkscape:vp_y="0 : 1000 : 0"
       inkscape:vp_x="0 : 0.5 : 1"
       sodipodi:type="inkscape:persp3d" />
    <inkscape:perspective
       id="perspective6970"
       inkscape:persp3d-origin="0.5 : 0.33333333 : 1"
       inkscape:vp_z="1 : 0.5 : 1"
       inkscape:vp_y="0 : 1000 : 0"
       inkscape:vp_x="0 : 0.5 : 1"
       sodipodi:type="inkscape:persp3d" />
    <inkscape:perspective
       id="perspective7008"
       inkscape:persp3d-origin="0.5 : 0.33333333 : 1"
       inkscape:vp_z="1 : 0.5 : 1"
       inkscape:vp_y="0 : 1000 : 0"
       inkscape:vp_x="0 : 0.5 : 1"
       sodipodi:type="inkscape:persp3d" />
    <inkscape:perspective
       id="perspective7036"
       inkscape:persp3d-origin="0.5 : 0.33333333 : 1"
       inkscape:vp_z="1 : 0.5 : 1"
       inkscape:vp_y="0 : 1000 : 0"
       inkscape:vp_x="0 : 0.5 : 1"
       sodipodi:type="inkscape:persp3d" />
    <inkscape:perspective
       id="perspective7060"
       inkscape:persp3d-origin="0.5 : 0.33333333 : 1"
       inkscape:vp_z="1 : 0.5 : 1"
       inkscape:vp_y="0 : 1000 : 0"
       inkscape:vp_x="0 : 0.5 : 1"
       sodipodi:type="inkscape:persp3d" />
    <inkscape:perspective
       id="perspective7098"
       inkscape:persp3d-origin="0.5 : 0.33333333 : 1"
       inkscape:vp_z="1 : 0.5 : 1"
       inkscape:vp_y="0 : 1000 : 0"
       inkscape:vp_x="0 : 0.5 : 1"
       sodipodi:type="inkscape:persp3d" />
    <inkscape:perspective
       id="perspective7136"
       inkscape:persp3d-origin="0.5 : 0.33333333 : 1"
       inkscape:vp_z="1 : 0.5 : 1"
       inkscape:vp_y="0 : 1000 : 0"
       inkscape:vp_x="0 : 0.5 : 1"
       sodipodi:type="inkscape:persp3d" />
    <inkscape:perspective
       id="perspective7174"
       inkscape:persp3d-origin="0.5 : 0.33333333 : 1"
       inkscape:vp_z="1 : 0.5 : 1"
       inkscape:vp_y="0 : 1000 : 0"
       inkscape:vp_x="0 : 0.5 : 1"
       sodipodi:type="inkscape:persp3d" />
    <inkscape:perspective
       id="perspective7212"
       inkscape:persp3d-origin="0.5 : 0.33333333 : 1"
       inkscape:vp_z="1 : 0.5 : 1"
       inkscape:vp_y="0 : 1000 : 0"
       inkscape:vp_x="0 : 0.5 : 1"
       sodipodi:type="inkscape:persp3d" />
    <inkscape:perspective
       id="perspective7234"
       inkscape:persp3d-origin="0.5 : 0.33333333 : 1"
       inkscape:vp_z="1 : 0.5 : 1"
       inkscape:vp_y="0 : 1000 : 0"
       inkscape:vp_x="0 : 0.5 : 1"
       sodipodi:type="inkscape:persp3d" />
    <inkscape:perspective
       id="perspective7272"
       inkscape:persp3d-origin="0.5 : 0.33333333 : 1"
       inkscape:vp_z="1 : 0.5 : 1"
       inkscape:vp_y="0 : 1000 : 0"
       inkscape:vp_x="0 : 0.5 : 1"
       sodipodi:type="inkscape:persp3d" />
    <inkscape:perspective
       id="perspective7294"
       inkscape:persp3d-origin="0.5 : 0.33333333 : 1"
       inkscape:vp_z="1 : 0.5 : 1"
       inkscape:vp_y="0 : 1000 : 0"
       inkscape:vp_x="0 : 0.5 : 1"
       sodipodi:type="inkscape:persp3d" />
    <inkscape:perspective
       id="perspective7330"
       inkscape:persp3d-origin="0.5 : 0.33333333 : 1"
       inkscape:vp_z="1 : 0.5 : 1"
       inkscape:vp_y="0 : 1000 : 0"
       inkscape:vp_x="0 : 0.5 : 1"
       sodipodi:type="inkscape:persp3d" />
    <inkscape:perspective
       id="perspective3068"
       inkscape:persp3d-origin="0.5 : 0.33333333 : 1"
       inkscape:vp_z="1 : 0.5 : 1"
       inkscape:vp_y="0 : 1000 : 0"
       inkscape:vp_x="0 : 0.5 : 1"
       sodipodi:type="inkscape:persp3d" />
    <inkscape:perspective
       id="perspective3106"
       inkscape:persp3d-origin="0.5 : 0.33333333 : 1"
       inkscape:vp_z="1 : 0.5 : 1"
       inkscape:vp_y="0 : 1000 : 0"
       inkscape:vp_x="0 : 0.5 : 1"
       sodipodi:type="inkscape:persp3d" />
    <inkscape:perspective
       id="perspective3128"
       inkscape:persp3d-origin="0.5 : 0.33333333 : 1"
       inkscape:vp_z="1 : 0.5 : 1"
       inkscape:vp_y="0 : 1000 : 0"
       inkscape:vp_x="0 : 0.5 : 1"
       sodipodi:type="inkscape:persp3d" />
    <inkscape:perspective
       id="perspective3152"
       inkscape:persp3d-origin="0.5 : 0.33333333 : 1"
       inkscape:vp_z="1 : 0.5 : 1"
       inkscape:vp_y="0 : 1000 : 0"
       inkscape:vp_x="0 : 0.5 : 1"
       sodipodi:type="inkscape:persp3d" />
    <inkscape:perspective
       id="perspective3174"
       inkscape:persp3d-origin="0.5 : 0.33333333 : 1"
       inkscape:vp_z="1 : 0.5 : 1"
       inkscape:vp_y="0 : 1000 : 0"
       inkscape:vp_x="0 : 0.5 : 1"
       sodipodi:type="inkscape:persp3d" />
    <inkscape:perspective
       id="perspective3212"
       inkscape:persp3d-origin="0.5 : 0.33333333 : 1"
       inkscape:vp_z="1 : 0.5 : 1"
       inkscape:vp_y="0 : 1000 : 0"
       inkscape:vp_x="0 : 0.5 : 1"
       sodipodi:type="inkscape:persp3d" />
    <inkscape:perspective
       id="perspective3238"
       inkscape:persp3d-origin="0.5 : 0.33333333 : 1"
       inkscape:vp_z="1 : 0.5 : 1"
       inkscape:vp_y="0 : 1000 : 0"
       inkscape:vp_x="0 : 0.5 : 1"
       sodipodi:type="inkscape:persp3d" />
    <inkscape:perspective
       id="perspective3276"
       inkscape:persp3d-origin="0.5 : 0.33333333 : 1"
       inkscape:vp_z="1 : 0.5 : 1"
       inkscape:vp_y="0 : 1000 : 0"
       inkscape:vp_x="0 : 0.5 : 1"
       sodipodi:type="inkscape:persp3d" />
    <inkscape:perspective
       id="perspective3314"
       inkscape:persp3d-origin="0.5 : 0.33333333 : 1"
       inkscape:vp_z="1 : 0.5 : 1"
       inkscape:vp_y="0 : 1000 : 0"
       inkscape:vp_x="0 : 0.5 : 1"
       sodipodi:type="inkscape:persp3d" />
    <inkscape:perspective
       id="perspective3350"
       inkscape:persp3d-origin="0.5 : 0.33333333 : 1"
       inkscape:vp_z="1 : 0.5 : 1"
       inkscape:vp_y="0 : 1000 : 0"
       inkscape:vp_x="0 : 0.5 : 1"
       sodipodi:type="inkscape:persp3d" />
    <inkscape:perspective
       id="perspective3376"
       inkscape:persp3d-origin="0.5 : 0.33333333 : 1"
       inkscape:vp_z="1 : 0.5 : 1"
       inkscape:vp_y="0 : 1000 : 0"
       inkscape:vp_x="0 : 0.5 : 1"
       sodipodi:type="inkscape:persp3d" />
  </defs>
  <sodipodi:namedview
     id="base"
     pagecolor="#ffffff"
     bordercolor="#666666"
     borderopacity="1.0"
     inkscape:pageopacity="0.0"
     inkscape:pageshadow="2"
     inkscape:zoom="11.313709"
     inkscape:cx="11.966503"
     inkscape:cy="4.3194832"
     inkscape:document-units="px"
     inkscape:current-layer="layer1"
     showgrid="true"
     inkscape:window-width="1280"
     inkscape:window-height="780"
     inkscape:window-x="-8"
     inkscape:window-y="-8"
     inkscape:window-maximized="1">
    <inkscape:grid
       type="xygrid"
       id="grid6324"
       empspacing="5"
       visible="true"
       enabled="true"
       snapvisiblegridlinesonly="true" />
  </sodipodi:namedview>
  <metadata
     id="metadata7">
    <rdf:RDF>
      <cc:Work
         rdf:about="">
        <dc:format>image/svg+xml</dc:format>
        <dc:type
           rdf:resource="http://purl.org/dc/dcmitype/StillImage" />
        <dc:title></dc:title>
      </cc:Work>
    </rdf:RDF>
  </metadata>
  <g
     inkscape:label="Calque 1"
     inkscape:groupmode="layer"
     id="layer1"
     transform="translate(0,-1036.3622)">
    <g
       id="g3382"
       transform="translate(23.294776,-0.7613)">
      <path
         style="fill:#bfbfbf"
         d="m -14.641312,1050.038 -3.709641,-0.01 -0.198832,-0.2258 c -0.109358,-0.1242 -0.198833,-0.2646 -0.198833,-0.3121 0,-0.047 0.357898,-0.086 0.795329,-0.086 l 0.795329,0 0,-0.1591 0,-0.159 0.477197,0 0.477198,0 0,-2.8632 0,-2.8632 0.159065,0 0.159066,0 0,-0.8821 0,-0.8821 0.390434,-0.3904 0.390435,-0.3905 0.491657,0 0.491658,0 0.390434,0.3905 0.390435,0.3904 0,0.8821 0,0.8821 0.159065,0 0.159066,0 0,2.8632 0,2.8632 0.477197,0 0.477198,0 0,0.159 0,0.1591 0.795329,0 0.795328,0 0,0.091 c 0,0.05 -0.102256,0.1931 -0.227236,0.3181 l -0.227237,0.2272 -3.709641,-0.01 z"
         id="path3392" />
      <path
         style="fill:#fefe00"
         d="m -14.641312,1050.038 -3.709641,-0.01 -0.198832,-0.2258 c -0.109358,-0.1242 -0.198833,-0.2646 -0.198833,-0.3121 0,-0.047 0.357898,-0.086 0.795329,-0.086 l 0.795329,0 0,-0.1591 0,-0.159 0.477197,0 0.477198,0 0,-2.8632 0,-2.8632 0.159065,0 0.159066,0 0,-0.8821 0,-0.8821 0.390434,-0.3904 0.390435,-0.3905 0.491657,0 0.491658,0 0.390434,0.3905 0.390435,0.3904 0,0.8183 0,0.8182 -0.477198,0.4458 -0.477197,0.4458 0,0.6633 0,0.6634 -0.227237,0.2272 -0.227237,0.2272 -0.24996,0 -0.249961,0 0,0.1591 0,0.1591 -0.318131,0 -0.318132,0 0,0.6362 0,0.6363 0.318132,0 0.318131,0 0,-0.1591 0,-0.159 0.249961,0 0.24996,0 0.227237,-0.2273 0.227237,-0.2272 0,-0.4999 0,-0.5 0.227237,-0.2272 c 0.12498,-0.125 0.268139,-0.2272 0.318131,-0.2272 0.04999,0 0.0909,0.2705 0.0909,0.6011 l 0,0.6012 -0.318132,0.2293 -0.318131,0.2293 0,0.692 0,0.692 -0.227237,0.2273 -0.227237,0.2272 -0.24996,0 -0.249961,0 0,0.1591 0,0.1591 0.477198,0 0.477197,0 0,-0.25 0,-0.25 0.227237,-0.2272 c 0.12498,-0.125 0.268139,-0.2272 0.318131,-0.2272 0.04999,0 0.0909,0.2147 0.0909,0.4772 l 0,0.4772 0.159066,0 0.159066,0 0,-0.4772 0,-0.4772 -0.159066,0 -0.159066,0 0,-0.7954 0,-0.7953 0.159066,0 0.159066,0 0,-0.6363 0,-0.6362 -0.159066,0 -0.159066,0 0,-0.7272 0,-0.7271 0.227237,-0.2273 c 0.12498,-0.125 0.268139,-0.2272 0.318131,-0.2272 l 0.09089,0 0,2.8632 0,2.8632 0.477197,0 0.477198,0 0,0.159 0,0.1591 0.795329,0 0.795328,0 0,0.091 c 0,0.05 -0.102256,0.1931 -0.227236,0.3181 l -0.227237,0.2272 -3.709641,-0.01 z m -0.92599,-5.4022 0.318131,0 0,-0.1591 0,-0.159 0.249961,0 0.24996,0 0.227237,-0.2273 0.227237,-0.2272 0,-0.25 0,-0.2499 -0.795329,0 -0.795329,0 0,0.6362 0,0.6363 0.318132,0 z m 0.954394,-1.5906 0.636263,0 0,-0.7954 0,-0.7953 -0.636263,0 -0.636263,0 0,0.7953 0,0.7954 0.636263,0 z"
         id="path3390" />
      <path
         style="fill:#7f7f7f"
         d="m -14.641312,1050.038 -3.709641,-0.01 -0.198832,-0.2258 c -0.109358,-0.1242 -0.198833,-0.2646 -0.198833,-0.3121 0,-0.047 0.357898,-0.086 0.795329,-0.086 l 0.795329,0 0,-0.1591 0,-0.159 0.477197,0 0.477198,0 0,-2.8632 0,-2.8632 0.159065,0 0.159066,0 0,-0.8821 0,-0.8821 0.390434,-0.3904 0.390435,-0.3905 0.491657,0 0.491658,0 0.390434,0.3905 0.390435,0.3904 0,0.8821 0,0.8821 0.159065,0 0.159066,0 0,2.8632 0,2.8632 0.477197,0 0.477198,0 0,0.159 0,0.1591 0.795329,0 0.795328,0 0,0.091 c 0,0.05 -0.102256,0.1931 -0.227236,0.3181 l -0.227237,0.2272 -3.709641,-0.01 z m 0.346536,-0.9483 0.954395,0 0,-0.4772 0,-0.4772 -0.159066,0 -0.159066,0 0,-0.7954 0,-0.7953 0.159066,0 0.159066,0 0,-0.6363 0,-0.6362 -0.159066,0 -0.159066,0 0,-0.7954 0,-0.7953 0.159066,0 c 0.08749,0 0.159066,-0.072 0.159066,-0.1591 l 0,-0.159 -1.272527,0 -1.272526,0 0,0.6362 0,0.6363 0.318132,0 0.318131,0 0,-0.1591 0,-0.159 0.318132,0 0.318131,0 0,-0.1591 c 0,-0.088 0.07158,-0.1591 0.159066,-0.1591 l 0.159066,0 0,0.7272 0,0.7272 -0.227237,0.2272 -0.227237,0.2272 -0.24996,0 -0.249961,0 0,0.1591 0,0.1591 -0.318131,0 -0.318132,0 0,0.6362 0,0.6363 0.318132,0 0.318131,0 0,-0.1591 0,-0.159 0.318132,0 0.318131,0 0,-0.1591 c 0,-0.088 0.07158,-0.1591 0.159066,-0.1591 l 0.159066,0 0,0.7272 0,0.7271 -0.227237,0.2273 -0.227237,0.2272 -0.24996,0 -0.249961,0 0,0.1591 0,0.1591 0.954395,0 z m -0.318132,-6.0445 0.636263,0 0,-0.7954 0,-0.7953 -0.636263,0 -0.636263,0 0,0.7953 0,0.7954 0.636263,0 z"
         id="path3388" />
      <path
         style="fill:#7f0000"
         d="m -15.726368,1049.0897 -0.477197,0 0,-2.8632 0,-2.8632 0.159065,0 0.159066,0 0,-0.8821 0,-0.8821 0.390434,-0.3904 0.390435,-0.3905 0.491657,0 0.491658,0 0.390434,0.3905 0.390435,0.3904 0,0.8821 0,0.8821 0.159065,0 0.159066,0 0,2.8632 0,2.8632 -0.159066,0 -0.159065,0 0,-0.4772 0,-0.4772 -0.159066,0 -0.159066,0 0,-0.7954 0,-0.7953 0.159066,0 0.159066,0 0,-0.6363 0,-0.6362 -0.159066,0 -0.159066,0 0,-0.7954 0,-0.7953 0.159066,0 c 0.08749,0 0.159066,-0.072 0.159066,-0.1591 l 0,-0.159 -1.272527,0 -1.272526,0 0,0.6362 0,0.6363 0.318132,0 0.318131,0 0,-0.1591 0,-0.159 0.318132,0 0.318131,0 0,-0.1591 c 0,-0.088 0.07158,-0.1591 0.159066,-0.1591 l 0.159066,0 0,0.7272 0,0.7272 -0.227237,0.2272 -0.227237,0.2272 -0.24996,0 -0.249961,0 0,0.1591 0,0.1591 -0.318131,0 -0.318132,0 0,0.6362 0,0.6363 0.318132,0 0.318131,0 0,-0.1591 0,-0.159 0.318132,0 0.318131,0 0,-0.1591 c 0,-0.088 0.07158,-0.1591 0.159066,-0.1591 l 0.159066,0 0,0.7272 0,0.7271 -0.227237,0.2273 -0.227237,0.2272 -0.24996,0 -0.249961,0 0,0.1591 0,0.1591 -0.477197,0 z m 1.11346,-6.0445 0.954395,0 0,-0.7954 0,-0.7953 -0.954395,0 -0.954394,0 0,0.7953 0,0.7954 0.954394,0 z"
         id="path3386" />
      <path
         style="fill:#000000"
         d="m -16.0445,1049.0897 -0.159065,0 0,-2.8632 0,-2.8632 0.159065,0 0.159066,0 0,-0.8821 0,-0.8821 0.390434,-0.3904 0.390435,-0.3905 0.491657,0 0.491658,0 0.390434,0.3905 0.390435,0.3904 0,0.8821 0,0.8821 0.159065,0 0.159066,0 0,2.8632 0,2.8632 -0.159066,0 -0.159065,0 0,-2.8632 0,-2.8632 -1.272527,0 -1.272526,0 0,2.8632 0,2.8632 -0.159066,0 z m 1.431592,-6.0445 0.954395,0 0,-0.7954 0,-0.7953 -0.954395,0 -0.954394,0 0,0.7953 0,0.7954 0.954394,0 z"
         id="path3384" />
    </g>
  </g>
</svg>
