<?xml version="1.0" encoding="UTF-8" standalone="no"?>
<!-- Created with Inkscape (http://www.inkscape.org/) -->

<svg
   xmlns:dc="http://purl.org/dc/elements/1.1/"
   xmlns:cc="http://creativecommons.org/ns#"
   xmlns:rdf="http://www.w3.org/1999/02/22-rdf-syntax-ns#"
   xmlns:svg="http://www.w3.org/2000/svg"
   xmlns="http://www.w3.org/2000/svg"
   xmlns:sodipodi="http://sodipodi.sourceforge.net/DTD/sodipodi-0.dtd"
   xmlns:inkscape="http://www.inkscape.org/namespaces/inkscape"
   width="16"
   height="16"
   id="svg2"
   version="1.1"
   inkscape:version="0.47 r22583"
   sodipodi:docname="MAIL-64.svg">
  <defs
     id="defs4">
    <inkscape:perspective
       sodipodi:type="inkscape:persp3d"
       inkscape:vp_x="0 : 526.18109 : 1"
       inkscape:vp_y="0 : 1000 : 0"
       inkscape:vp_z="744.09448 : 526.18109 : 1"
       inkscape:persp3d-origin="372.04724 : 350.78739 : 1"
       id="perspective10" />
    <inkscape:perspective
       id="perspective2824"
       inkscape:persp3d-origin="0.5 : 0.33333333 : 1"
       inkscape:vp_z="1 : 0.5 : 1"
       inkscape:vp_y="0 : 1000 : 0"
       inkscape:vp_x="0 : 0.5 : 1"
       sodipodi:type="inkscape:persp3d" />
    <inkscape:perspective
       id="perspective5878"
       inkscape:persp3d-origin="0.5 : 0.33333333 : 1"
       inkscape:vp_z="1 : 0.5 : 1"
       inkscape:vp_y="0 : 1000 : 0"
       inkscape:vp_x="0 : 0.5 : 1"
       sodipodi:type="inkscape:persp3d" />
    <inkscape:perspective
       id="perspective5921"
       inkscape:persp3d-origin="0.5 : 0.33333333 : 1"
       inkscape:vp_z="1 : 0.5 : 1"
       inkscape:vp_y="0 : 1000 : 0"
       inkscape:vp_x="0 : 0.5 : 1"
       sodipodi:type="inkscape:persp3d" />
    <inkscape:perspective
       id="perspective5943"
       inkscape:persp3d-origin="0.5 : 0.33333333 : 1"
       inkscape:vp_z="1 : 0.5 : 1"
       inkscape:vp_y="0 : 1000 : 0"
       inkscape:vp_x="0 : 0.5 : 1"
       sodipodi:type="inkscape:persp3d" />
    <inkscape:perspective
       id="perspective5989"
       inkscape:persp3d-origin="0.5 : 0.33333333 : 1"
       inkscape:vp_z="1 : 0.5 : 1"
       inkscape:vp_y="0 : 1000 : 0"
       inkscape:vp_x="0 : 0.5 : 1"
       sodipodi:type="inkscape:persp3d" />
    <inkscape:perspective
       id="perspective6011"
       inkscape:persp3d-origin="0.5 : 0.33333333 : 1"
       inkscape:vp_z="1 : 0.5 : 1"
       inkscape:vp_y="0 : 1000 : 0"
       inkscape:vp_x="0 : 0.5 : 1"
       sodipodi:type="inkscape:persp3d" />
    <inkscape:perspective
       id="perspective6033"
       inkscape:persp3d-origin="0.5 : 0.33333333 : 1"
       inkscape:vp_z="1 : 0.5 : 1"
       inkscape:vp_y="0 : 1000 : 0"
       inkscape:vp_x="0 : 0.5 : 1"
       sodipodi:type="inkscape:persp3d" />
    <inkscape:perspective
       id="perspective6245"
       inkscape:persp3d-origin="0.5 : 0.33333333 : 1"
       inkscape:vp_z="1 : 0.5 : 1"
       inkscape:vp_y="0 : 1000 : 0"
       inkscape:vp_x="0 : 0.5 : 1"
       sodipodi:type="inkscape:persp3d" />
    <inkscape:perspective
       id="perspective6269"
       inkscape:persp3d-origin="0.5 : 0.33333333 : 1"
       inkscape:vp_z="1 : 0.5 : 1"
       inkscape:vp_y="0 : 1000 : 0"
       inkscape:vp_x="0 : 0.5 : 1"
       sodipodi:type="inkscape:persp3d" />
    <inkscape:perspective
       id="perspective6364"
       inkscape:persp3d-origin="0.5 : 0.33333333 : 1"
       inkscape:vp_z="1 : 0.5 : 1"
       inkscape:vp_y="0 : 1000 : 0"
       inkscape:vp_x="0 : 0.5 : 1"
       sodipodi:type="inkscape:persp3d" />
    <inkscape:perspective
       id="perspective6396"
       inkscape:persp3d-origin="0.5 : 0.33333333 : 1"
       inkscape:vp_z="1 : 0.5 : 1"
       inkscape:vp_y="0 : 1000 : 0"
       inkscape:vp_x="0 : 0.5 : 1"
       sodipodi:type="inkscape:persp3d" />
    <inkscape:perspective
       id="perspective6438"
       inkscape:persp3d-origin="0.5 : 0.33333333 : 1"
       inkscape:vp_z="1 : 0.5 : 1"
       inkscape:vp_y="0 : 1000 : 0"
       inkscape:vp_x="0 : 0.5 : 1"
       sodipodi:type="inkscape:persp3d" />
    <inkscape:perspective
       id="perspective6460"
       inkscape:persp3d-origin="0.5 : 0.33333333 : 1"
       inkscape:vp_z="1 : 0.5 : 1"
       inkscape:vp_y="0 : 1000 : 0"
       inkscape:vp_x="0 : 0.5 : 1"
       sodipodi:type="inkscape:persp3d" />
    <inkscape:perspective
       id="perspective6480"
       inkscape:persp3d-origin="0.5 : 0.33333333 : 1"
       inkscape:vp_z="1 : 0.5 : 1"
       inkscape:vp_y="0 : 1000 : 0"
       inkscape:vp_x="0 : 0.5 : 1"
       sodipodi:type="inkscape:persp3d" />
    <inkscape:perspective
       id="perspective6504"
       inkscape:persp3d-origin="0.5 : 0.33333333 : 1"
       inkscape:vp_z="1 : 0.5 : 1"
       inkscape:vp_y="0 : 1000 : 0"
       inkscape:vp_x="0 : 0.5 : 1"
       sodipodi:type="inkscape:persp3d" />
    <inkscape:perspective
       id="perspective6524"
       inkscape:persp3d-origin="0.5 : 0.33333333 : 1"
       inkscape:vp_z="1 : 0.5 : 1"
       inkscape:vp_y="0 : 1000 : 0"
       inkscape:vp_x="0 : 0.5 : 1"
       sodipodi:type="inkscape:persp3d" />
    <inkscape:perspective
       id="perspective6548"
       inkscape:persp3d-origin="0.5 : 0.33333333 : 1"
       inkscape:vp_z="1 : 0.5 : 1"
       inkscape:vp_y="0 : 1000 : 0"
       inkscape:vp_x="0 : 0.5 : 1"
       sodipodi:type="inkscape:persp3d" />
    <inkscape:perspective
       id="perspective6572"
       inkscape:persp3d-origin="0.5 : 0.33333333 : 1"
       inkscape:vp_z="1 : 0.5 : 1"
       inkscape:vp_y="0 : 1000 : 0"
       inkscape:vp_x="0 : 0.5 : 1"
       sodipodi:type="inkscape:persp3d" />
    <inkscape:perspective
       id="perspective6594"
       inkscape:persp3d-origin="0.5 : 0.33333333 : 1"
       inkscape:vp_z="1 : 0.5 : 1"
       inkscape:vp_y="0 : 1000 : 0"
       inkscape:vp_x="0 : 0.5 : 1"
       sodipodi:type="inkscape:persp3d" />
    <inkscape:perspective
       id="perspective6614"
       inkscape:persp3d-origin="0.5 : 0.33333333 : 1"
       inkscape:vp_z="1 : 0.5 : 1"
       inkscape:vp_y="0 : 1000 : 0"
       inkscape:vp_x="0 : 0.5 : 1"
       sodipodi:type="inkscape:persp3d" />
    <inkscape:perspective
       id="perspective6650"
       inkscape:persp3d-origin="0.5 : 0.33333333 : 1"
       inkscape:vp_z="1 : 0.5 : 1"
       inkscape:vp_y="0 : 1000 : 0"
       inkscape:vp_x="0 : 0.5 : 1"
       sodipodi:type="inkscape:persp3d" />
    <inkscape:perspective
       id="perspective6676"
       inkscape:persp3d-origin="0.5 : 0.33333333 : 1"
       inkscape:vp_z="1 : 0.5 : 1"
       inkscape:vp_y="0 : 1000 : 0"
       inkscape:vp_x="0 : 0.5 : 1"
       sodipodi:type="inkscape:persp3d" />
    <inkscape:perspective
       id="perspective6710"
       inkscape:persp3d-origin="0.5 : 0.33333333 : 1"
       inkscape:vp_z="1 : 0.5 : 1"
       inkscape:vp_y="0 : 1000 : 0"
       inkscape:vp_x="0 : 0.5 : 1"
       sodipodi:type="inkscape:persp3d" />
    <inkscape:perspective
       id="perspective6748"
       inkscape:persp3d-origin="0.5 : 0.33333333 : 1"
       inkscape:vp_z="1 : 0.5 : 1"
       inkscape:vp_y="0 : 1000 : 0"
       inkscape:vp_x="0 : 0.5 : 1"
       sodipodi:type="inkscape:persp3d" />
    <inkscape:perspective
       id="perspective6786"
       inkscape:persp3d-origin="0.5 : 0.33333333 : 1"
       inkscape:vp_z="1 : 0.5 : 1"
       inkscape:vp_y="0 : 1000 : 0"
       inkscape:vp_x="0 : 0.5 : 1"
       sodipodi:type="inkscape:persp3d" />
    <inkscape:perspective
       id="perspective6810"
       inkscape:persp3d-origin="0.5 : 0.33333333 : 1"
       inkscape:vp_z="1 : 0.5 : 1"
       inkscape:vp_y="0 : 1000 : 0"
       inkscape:vp_x="0 : 0.5 : 1"
       sodipodi:type="inkscape:persp3d" />
    <inkscape:perspective
       id="perspective6848"
       inkscape:persp3d-origin="0.5 : 0.33333333 : 1"
       inkscape:vp_z="1 : 0.5 : 1"
       inkscape:vp_y="0 : 1000 : 0"
       inkscape:vp_x="0 : 0.5 : 1"
       sodipodi:type="inkscape:persp3d" />
    <inkscape:perspective
       id="perspective6870"
       inkscape:persp3d-origin="0.5 : 0.33333333 : 1"
       inkscape:vp_z="1 : 0.5 : 1"
       inkscape:vp_y="0 : 1000 : 0"
       inkscape:vp_x="0 : 0.5 : 1"
       sodipodi:type="inkscape:persp3d" />
    <inkscape:perspective
       id="perspective6908"
       inkscape:persp3d-origin="0.5 : 0.33333333 : 1"
       inkscape:vp_z="1 : 0.5 : 1"
       inkscape:vp_y="0 : 1000 : 0"
       inkscape:vp_x="0 : 0.5 : 1"
       sodipodi:type="inkscape:persp3d" />
    <inkscape:perspective
       id="perspective6946"
       inkscape:persp3d-origin="0.5 : 0.33333333 : 1"
       inkscape:vp_z="1 : 0.5 : 1"
       inkscape:vp_y="0 : 1000 : 0"
       inkscape:vp_x="0 : 0.5 : 1"
       sodipodi:type="inkscape:persp3d" />
    <inkscape:perspective
       id="perspective6970"
       inkscape:persp3d-origin="0.5 : 0.33333333 : 1"
       inkscape:vp_z="1 : 0.5 : 1"
       inkscape:vp_y="0 : 1000 : 0"
       inkscape:vp_x="0 : 0.5 : 1"
       sodipodi:type="inkscape:persp3d" />
    <inkscape:perspective
       id="perspective7008"
       inkscape:persp3d-origin="0.5 : 0.33333333 : 1"
       inkscape:vp_z="1 : 0.5 : 1"
       inkscape:vp_y="0 : 1000 : 0"
       inkscape:vp_x="0 : 0.5 : 1"
       sodipodi:type="inkscape:persp3d" />
    <inkscape:perspective
       id="perspective7036"
       inkscape:persp3d-origin="0.5 : 0.33333333 : 1"
       inkscape:vp_z="1 : 0.5 : 1"
       inkscape:vp_y="0 : 1000 : 0"
       inkscape:vp_x="0 : 0.5 : 1"
       sodipodi:type="inkscape:persp3d" />
    <inkscape:perspective
       id="perspective7060"
       inkscape:persp3d-origin="0.5 : 0.33333333 : 1"
       inkscape:vp_z="1 : 0.5 : 1"
       inkscape:vp_y="0 : 1000 : 0"
       inkscape:vp_x="0 : 0.5 : 1"
       sodipodi:type="inkscape:persp3d" />
    <inkscape:perspective
       id="perspective7098"
       inkscape:persp3d-origin="0.5 : 0.33333333 : 1"
       inkscape:vp_z="1 : 0.5 : 1"
       inkscape:vp_y="0 : 1000 : 0"
       inkscape:vp_x="0 : 0.5 : 1"
       sodipodi:type="inkscape:persp3d" />
    <inkscape:perspective
       id="perspective7136"
       inkscape:persp3d-origin="0.5 : 0.33333333 : 1"
       inkscape:vp_z="1 : 0.5 : 1"
       inkscape:vp_y="0 : 1000 : 0"
       inkscape:vp_x="0 : 0.5 : 1"
       sodipodi:type="inkscape:persp3d" />
    <inkscape:perspective
       id="perspective7174"
       inkscape:persp3d-origin="0.5 : 0.33333333 : 1"
       inkscape:vp_z="1 : 0.5 : 1"
       inkscape:vp_y="0 : 1000 : 0"
       inkscape:vp_x="0 : 0.5 : 1"
       sodipodi:type="inkscape:persp3d" />
    <inkscape:perspective
       id="perspective7212"
       inkscape:persp3d-origin="0.5 : 0.33333333 : 1"
       inkscape:vp_z="1 : 0.5 : 1"
       inkscape:vp_y="0 : 1000 : 0"
       inkscape:vp_x="0 : 0.5 : 1"
       sodipodi:type="inkscape:persp3d" />
    <inkscape:perspective
       id="perspective7234"
       inkscape:persp3d-origin="0.5 : 0.33333333 : 1"
       inkscape:vp_z="1 : 0.5 : 1"
       inkscape:vp_y="0 : 1000 : 0"
       inkscape:vp_x="0 : 0.5 : 1"
       sodipodi:type="inkscape:persp3d" />
    <inkscape:perspective
       id="perspective7272"
       inkscape:persp3d-origin="0.5 : 0.33333333 : 1"
       inkscape:vp_z="1 : 0.5 : 1"
       inkscape:vp_y="0 : 1000 : 0"
       inkscape:vp_x="0 : 0.5 : 1"
       sodipodi:type="inkscape:persp3d" />
    <inkscape:perspective
       id="perspective7294"
       inkscape:persp3d-origin="0.5 : 0.33333333 : 1"
       inkscape:vp_z="1 : 0.5 : 1"
       inkscape:vp_y="0 : 1000 : 0"
       inkscape:vp_x="0 : 0.5 : 1"
       sodipodi:type="inkscape:persp3d" />
    <inkscape:perspective
       id="perspective7330"
       inkscape:persp3d-origin="0.5 : 0.33333333 : 1"
       inkscape:vp_z="1 : 0.5 : 1"
       inkscape:vp_y="0 : 1000 : 0"
       inkscape:vp_x="0 : 0.5 : 1"
       sodipodi:type="inkscape:persp3d" />
    <inkscape:perspective
       id="perspective3068"
       inkscape:persp3d-origin="0.5 : 0.33333333 : 1"
       inkscape:vp_z="1 : 0.5 : 1"
       inkscape:vp_y="0 : 1000 : 0"
       inkscape:vp_x="0 : 0.5 : 1"
       sodipodi:type="inkscape:persp3d" />
    <inkscape:perspective
       id="perspective3106"
       inkscape:persp3d-origin="0.5 : 0.33333333 : 1"
       inkscape:vp_z="1 : 0.5 : 1"
       inkscape:vp_y="0 : 1000 : 0"
       inkscape:vp_x="0 : 0.5 : 1"
       sodipodi:type="inkscape:persp3d" />
    <inkscape:perspective
       id="perspective3128"
       inkscape:persp3d-origin="0.5 : 0.33333333 : 1"
       inkscape:vp_z="1 : 0.5 : 1"
       inkscape:vp_y="0 : 1000 : 0"
       inkscape:vp_x="0 : 0.5 : 1"
       sodipodi:type="inkscape:persp3d" />
    <inkscape:perspective
       id="perspective3152"
       inkscape:persp3d-origin="0.5 : 0.33333333 : 1"
       inkscape:vp_z="1 : 0.5 : 1"
       inkscape:vp_y="0 : 1000 : 0"
       inkscape:vp_x="0 : 0.5 : 1"
       sodipodi:type="inkscape:persp3d" />
    <inkscape:perspective
       id="perspective3174"
       inkscape:persp3d-origin="0.5 : 0.33333333 : 1"
       inkscape:vp_z="1 : 0.5 : 1"
       inkscape:vp_y="0 : 1000 : 0"
       inkscape:vp_x="0 : 0.5 : 1"
       sodipodi:type="inkscape:persp3d" />
    <inkscape:perspective
       id="perspective3212"
       inkscape:persp3d-origin="0.5 : 0.33333333 : 1"
       inkscape:vp_z="1 : 0.5 : 1"
       inkscape:vp_y="0 : 1000 : 0"
       inkscape:vp_x="0 : 0.5 : 1"
       sodipodi:type="inkscape:persp3d" />
    <inkscape:perspective
       id="perspective3238"
       inkscape:persp3d-origin="0.5 : 0.33333333 : 1"
       inkscape:vp_z="1 : 0.5 : 1"
       inkscape:vp_y="0 : 1000 : 0"
       inkscape:vp_x="0 : 0.5 : 1"
       sodipodi:type="inkscape:persp3d" />
    <inkscape:perspective
       id="perspective3276"
       inkscape:persp3d-origin="0.5 : 0.33333333 : 1"
       inkscape:vp_z="1 : 0.5 : 1"
       inkscape:vp_y="0 : 1000 : 0"
       inkscape:vp_x="0 : 0.5 : 1"
       sodipodi:type="inkscape:persp3d" />
    <inkscape:perspective
       id="perspective3314"
       inkscape:persp3d-origin="0.5 : 0.33333333 : 1"
       inkscape:vp_z="1 : 0.5 : 1"
       inkscape:vp_y="0 : 1000 : 0"
       inkscape:vp_x="0 : 0.5 : 1"
       sodipodi:type="inkscape:persp3d" />
    <inkscape:perspective
       id="perspective3350"
       inkscape:persp3d-origin="0.5 : 0.33333333 : 1"
       inkscape:vp_z="1 : 0.5 : 1"
       inkscape:vp_y="0 : 1000 : 0"
       inkscape:vp_x="0 : 0.5 : 1"
       sodipodi:type="inkscape:persp3d" />
    <inkscape:perspective
       id="perspective3376"
       inkscape:persp3d-origin="0.5 : 0.33333333 : 1"
       inkscape:vp_z="1 : 0.5 : 1"
       inkscape:vp_y="0 : 1000 : 0"
       inkscape:vp_x="0 : 0.5 : 1"
       sodipodi:type="inkscape:persp3d" />
    <inkscape:perspective
       id="perspective3402"
       inkscape:persp3d-origin="0.5 : 0.33333333 : 1"
       inkscape:vp_z="1 : 0.5 : 1"
       inkscape:vp_y="0 : 1000 : 0"
       inkscape:vp_x="0 : 0.5 : 1"
       sodipodi:type="inkscape:persp3d" />
    <inkscape:perspective
       id="perspective3428"
       inkscape:persp3d-origin="0.5 : 0.33333333 : 1"
       inkscape:vp_z="1 : 0.5 : 1"
       inkscape:vp_y="0 : 1000 : 0"
       inkscape:vp_x="0 : 0.5 : 1"
       sodipodi:type="inkscape:persp3d" />
    <inkscape:perspective
       id="perspective3466"
       inkscape:persp3d-origin="0.5 : 0.33333333 : 1"
       inkscape:vp_z="1 : 0.5 : 1"
       inkscape:vp_y="0 : 1000 : 0"
       inkscape:vp_x="0 : 0.5 : 1"
       sodipodi:type="inkscape:persp3d" />
    <inkscape:perspective
       id="perspective3504"
       inkscape:persp3d-origin="0.5 : 0.33333333 : 1"
       inkscape:vp_z="1 : 0.5 : 1"
       inkscape:vp_y="0 : 1000 : 0"
       inkscape:vp_x="0 : 0.5 : 1"
       sodipodi:type="inkscape:persp3d" />
  </defs>
  <sodipodi:namedview
     id="base"
     pagecolor="#ffffff"
     bordercolor="#666666"
     borderopacity="1.0"
     inkscape:pageopacity="0.0"
     inkscape:pageshadow="2"
     inkscape:zoom="11.313709"
     inkscape:cx="11.966503"
     inkscape:cy="11.390551"
     inkscape:document-units="px"
     inkscape:current-layer="layer1"
     showgrid="true"
     inkscape:window-width="1280"
     inkscape:window-height="780"
     inkscape:window-x="-8"
     inkscape:window-y="-8"
     inkscape:window-maximized="1">
    <inkscape:grid
       type="xygrid"
       id="grid6324"
       empspacing="5"
       visible="true"
       enabled="true"
       snapvisiblegridlinesonly="true" />
  </sodipodi:namedview>
  <metadata
     id="metadata7">
    <rdf:RDF>
      <cc:Work
         rdf:about="">
        <dc:format>image/svg+xml</dc:format>
        <dc:type
           rdf:resource="http://purl.org/dc/dcmitype/StillImage" />
        <dc:title></dc:title>
      </cc:Work>
    </rdf:RDF>
  </metadata>
  <g
     inkscape:label="Calque 1"
     inkscape:groupmode="layer"
     id="layer1"
     transform="translate(0,-1036.3622)">
    <g
       id="g3510"
       transform="translate(1.022226,0.3008)">
      <path
         style="fill:#e7fdd6"
         d="m 7.6592458,1048.0511 -4.7185308,0 -0.1037039,-0.1037 -0.103704,-0.1037 0,-2.9296 0,-2.9297 4.8222347,0 4.8222342,0 0,3.0334 0,3.0333 -4.7185302,0 z m -4.5370488,-0.4667 c 0.042778,0 0.077778,-0.035 0.077778,-0.078 0,-0.043 -0.035,-0.078 -0.077778,-0.078 -0.042778,0 -0.077778,0.035 -0.077778,0.078 0,0.043 0.035,0.078 0.077778,0.078 z m 5.9111264,-1.4 c 0.042778,0 0.077778,-0.035 0.077778,-0.078 0,-0.043 -0.035,-0.078 -0.077778,-0.078 -0.042778,0 -0.077778,0.035 -0.077778,0.078 0,0.043 0.035,0.078 0.077778,0.078 z"
         id="path3532" />
      <path
         style="fill:#dbfdcb"
         d="m 7.5555418,1047.8955 -4.8222347,0 0,-2.9555 0,-2.9556 4.8222347,0 4.8222342,0 0,2.9556 0,2.9555 -4.8222342,0 z m 0,-0.3111 4.5111232,0 -0.03325,-1.8277 -0.03325,-1.8278 -0.04962,1.75 -0.04962,1.75 -4.3504718,0 -4.3504722,0 0,-2.3899 0,-2.3899 0.6222238,0 0.6222238,0 0.00238,0.1732 0.00238,0.1732 0.1209884,-0.1904 0.1209887,-0.1904 2.5599697,-0.044 2.5599697,-0.044 -3.3834871,-0.077 -3.3834869,-0.077 1.449e-4,2.6056 1.449e-4,2.6055 4.5111228,0 z m -1.4777816,-1.0889 c 0.042778,0 0.077778,-0.035 0.077778,-0.078 0,-0.043 -0.035,-0.078 -0.077778,-0.078 -0.042778,0 -0.077778,0.035 -0.077778,0.078 0,0.043 0.035,0.078 0.077778,0.078 z M 5.6796898,1046.34 c 0.080507,0 0.1891426,-0.069 0.2414132,-0.1538 l 0.095038,-0.1538 -0.2414132,0.093 c -0.1327772,0.051 -0.2414132,0.1201 -0.2414132,0.1538 0,0.034 0.065869,0.061 0.1463755,0.061 z m 2.1869639,0 0.2074079,0 -0.1037039,-0.1037 -0.103704,-0.1037 -0.103704,0.1037 -0.1037039,0.1037 0.2074079,0 z m 1.1294601,-0.1868 0.7905352,-0.046 0.062959,-0.2334 0.062959,-0.2333 -0.1477862,0.2108 -0.1477861,0.2108 -0.7827638,-0.055 -0.7827637,-0.055 0.077056,0.1243 0.077056,0.1243 0.7905351,-0.046 z m -3.504292,-0.1243 c 0.042778,0 0.039202,-0.1475 -0.00795,-0.3278 l -0.085723,-0.3278 0.1454793,-0.3827 0.1454792,-0.3826 0.3498802,0.096 0.3498802,0.096 -0.2734549,-0.1714 -0.2734549,-0.1714 -0.1639191,0.1013 c -0.090156,0.056 -0.2250127,0.262 -0.2996826,0.4584 l -0.1357634,0.3571 0.085723,0.3278 c 0.047148,0.1803 0.1207239,0.3278 0.1635018,0.3278 z m 0.8970503,0 c 0.042778,0 0.077778,-0.035 0.077778,-0.078 0,-0.043 -0.035,-0.078 -0.077778,-0.078 -0.042778,0 -0.077778,0.035 -0.077778,0.078 0,0.043 0.035,0.078 0.077778,0.078 z m 0.4666679,0 c 0.042778,0 0.077778,-0.035 0.077778,-0.078 0,-0.043 -0.035,-0.078 -0.077778,-0.078 -0.042778,0 -0.077778,0.035 -0.077778,0.078 0,0.043 0.035,0.078 0.077778,0.078 z m 0.6222238,0 c 0.042778,0 0.077778,-0.035 0.077778,-0.078 0,-0.043 -0.035,-0.078 -0.077778,-0.078 -0.042778,0 -0.077778,0.035 -0.077778,0.078 0,0.043 0.035,0.078 0.077778,0.078 z m -1.3222256,-0.4667 0.2074079,0 -0.1037039,-0.1037 -0.103704,-0.1037 -0.1037041,0.1037 -0.1037038,0.1037 0.2074079,0 z m 2.6486208,-0.095 c 0.3446462,-0.01 0.658356,-0.049 0.697133,-0.088 0.038777,-0.039 -0.2431531,-0.087 -0.6265114,-0.1066 l -0.697015,-0.036 -1.181e-4,0.1238 -1.179e-4,0.1238 0.6266294,-0.017 z m -1.8708411,-0.061 0.2074079,0 -0.1037038,-0.1037 -0.1037041,-0.1038 -0.103704,0.1038 -0.1037038,0.1037 0.2074078,0 z m 0.7000019,0 c 0.042778,0 0.077778,-0.035 0.077778,-0.078 0,-0.043 -0.035,-0.078 -0.077778,-0.078 -0.042778,0 -0.077778,0.035 -0.077778,0.078 0,0.043 0.035,0.078 0.077778,0.078 z m 2.1777834,-0.1556 c 0.042778,0 0.077778,-0.035 0.077778,-0.078 0,-0.043 -0.035,-0.078 -0.077778,-0.078 -0.042778,0 -0.077778,0.035 -0.077778,0.078 0,0.043 0.035,0.078 0.077778,0.078 z m -2.250714,-0.4278 0.1406833,-0.35 0.2269406,0 0.2269405,0 0.071139,0.2722 0.071139,0.2723 0.018045,-0.2771 0.018045,-0.2771 -0.235315,-0.09 -0.2353149,-0.09 -0.2313529,0.192 -0.231353,0.192 0.00986,0.2531 0.00986,0.2532 0.1406831,-0.35 z m -1.0159611,0.1167 c 0.042778,0 0.077778,-0.035 0.077778,-0.078 0,-0.043 -0.035,-0.078 -0.077778,-0.078 -0.042778,0 -0.077778,0.035 -0.077778,0.078 0,0.043 0.035,0.078 0.077778,0.078 z m 0.3888898,0 0.2074079,0 -0.1037038,-0.1037 -0.1037041,-0.1037 -0.103704,0.1037 -0.1037038,0.1037 0.2074078,0 z m 2.6444513,0 0.2074079,0 -0.1037038,-0.1037 -0.1037041,-0.1037 -0.103704,0.1037 -0.1037039,0.1037 0.2074079,0 z m 0.8555578,-0.1948 0.622224,0 -0.351815,-0.068 c -0.193498,-0.037 -0.473499,-0.036 -0.622224,0 l -0.2704088,0.071 0.6222238,0 z m -0.311112,-0.2719 c 0.04278,0 0.07778,-0.035 0.07778,-0.078 0,-0.043 -0.035,-0.078 -0.07778,-0.078 -0.04278,0 -0.07778,0.035 -0.07778,0.078 0,0.043 0.035,0.078 0.07778,0.078 z m -0.2793892,-0.5812 c 0.036923,-0.1913 0.037879,-0.5413 0.00212,-0.7778 l -0.06501,-0.4299 -0.00212,0.7778 -0.00212,0.7778 0.067133,-0.3479 z m -6.0298075,0.1146 c 0.1660624,0 0.3389445,-0.06 0.3841825,-0.1331 l 0.082251,-0.1331 -0.3841823,0.073 c -0.2113003,0.04 -0.3841824,0.1003 -0.3841824,0.1331 0,0.033 0.1358691,0.06 0.3019314,0.06 z m 1.2017762,-0.052 0.1037039,-0.1037 -0.1037039,-0.1037 -0.103704,-0.1037 0,0.2074 0,0.2074 0.103704,-0.1037 z m 0.2851859,-0.1037 c 0.042778,0 0.077778,-0.035 0.077778,-0.078 0,-0.043 -0.035,-0.078 -0.077778,-0.078 -0.042778,0 -0.077778,0.035 -0.077778,0.078 0,0.043 0.035,0.078 0.077778,0.078 z m 0.3721678,-0.4008 c 0.033581,-0.032 -0.027491,-0.165 -0.135714,-0.2954 l -0.1967698,-0.2371 -0.2828845,0 -0.2828845,0 -0.09194,0.1487 -0.09194,0.1488 -0.2126176,-0.082 -0.2126178,-0.082 -0.090676,0.1467 -0.090675,0.1467 0.3860528,0 0.386053,0 0,-0.1361 0,-0.1361 0.2272009,0 c 0.1249606,0 0.3174611,0.098 0.4277789,0.2177 0.1103179,0.1197 0.2280531,0.1914 0.2616339,0.1593 z m 6.3167388,0.09 c 0.04278,0 0.07778,-0.035 0.07778,-0.078 0,-0.043 -0.035,-0.078 -0.07778,-0.078 -0.04278,0 -0.07778,0.035 -0.07778,0.078 0,0.043 0.035,0.078 0.07778,0.078 z m -1.050003,-0.1665 c 0.02139,0.01 0.03889,-0.088 0.03889,-0.2086 l 0,-0.2196 -0.272223,0.052 c -0.149723,0.029 -0.307223,0.062 -0.350001,0.075 -0.04278,0.013 0.06222,0.083 0.233334,0.1566 0.171112,0.073 0.328612,0.1386 0.350001,0.1446 z m -0.894447,-0.7669 0.207408,0 -0.103704,-0.1037 -0.103704,-0.1037 -0.1037039,0.1037 -0.1037039,0.1037 0.2074078,0 z m 1.866672,0 0.207407,0 -0.103703,-0.1037 -0.103704,-0.1037 -0.103704,0.1037 -0.103704,0.1037 0.207408,0 z"
         id="path3530" />
      <path
         style="fill:#cfe3b4"
         d="m 7.5555418,1047.8955 -4.8222347,0 0,-2.9555 0,-2.9556 4.8222347,0 4.8222342,0 0,2.9556 0,2.9555 -4.8222342,0 z m 0.038889,-0.3108 4.5500122,3e-4 -0.05474,-1.9058 -0.05474,-1.9059 -0.163479,0.35 -0.163479,0.35 -0.352396,0 c -0.193818,0 -0.44971,0.037 -0.568649,0.083 l -0.216252,0.083 -0.340916,-0.2957 -0.3409159,-0.2957 0,-0.6646 0,-0.6646 0.2722229,-0.2066 0.272223,-0.2067 -3.694454,0 -3.694454,-0.01 0,2.6445 0,2.6444 4.5500118,3e-4 z m -1.4502986,-1.2447 -0.14415,0 0,-0.1722 0,-0.1722 -0.2173086,0.083 -0.2173084,0.083 -0.080994,-0.4168 -0.080994,-0.4167 0.1340079,-0.049 0.1340079,-0.049 -0.079644,-0.2076 -0.079644,-0.2075 0.162946,-0.1007 0.1629459,-0.1007 0.2754377,0.1411 c 0.1514908,0.078 0.5312107,0.1804 0.8438218,0.2283 l 0.5683842,0.087 0.078166,-0.2989 0.078166,-0.2989 0.2478969,0 0.2478971,0 0,0.2557 0,0.2556 1.4000036,-0.1057 1.4000038,-0.1056 0,0.1446 0,0.1446 -1.4000038,0.1108 -1.4000036,0.1108 0,0.1209 c 0,0.067 0.1575004,0.1631 0.3500009,0.2147 0.1925005,0.052 0.5425014,0.095 0.7777798,0.096 l 0.4277789,0 0,0.1748 0,0.1748 -0.8514065,-0.071 -0.8514066,-0.071 -0.062485,0.168 -0.062485,0.168 -0.1995189,-0.1878 -0.199519,-0.1879 0.1787249,-0.2153 0.1787248,-0.2154 -0.1023544,-0.1023 c -0.056295,-0.056 -0.3006881,-0.1024 -0.5430963,-0.1024 l -0.4407418,0 0,0.1556 0,0.1555 0.1647364,0 0.1647364,0 -0.097707,0.1581 -0.097707,0.1581 -0.1712422,-0.1058 -0.1712423,-0.1059 0.097419,0.2539 0.097419,0.2539 -0.1487622,0.092 -0.1487622,0.092 -0.018045,-0.2815 -0.018045,-0.2814 -0.071139,0.2723 -0.071139,0.2722 -0.1441499,0 z m 0.011406,-0.7778 0.2074079,0 -0.1037039,-0.1037 -0.103704,-0.1037 -0.1037041,0.1037 -0.1037038,0.1037 0.2074079,0 z m 0.3888899,-0.1555 c 0.042778,0 0.077778,-0.035 0.077778,-0.078 0,-0.043 -0.035,-0.078 -0.077778,-0.078 -0.042778,0 -0.077778,0.035 -0.077778,0.078 0,0.043 0.035,0.078 0.077778,0.078 z m -1.9444495,-1.4 c -0.085556,0 -0.155556,-0.06 -0.155556,-0.1345 l 0,-0.1344 -0.5833348,0.018 -0.5833349,0.018 -0.047103,-0.5636 -0.047103,-0.5636 0.6304381,0.017 0.6304381,0.017 0,0.141 c 0,0.078 -0.1225003,0.234 -0.2722229,0.3477 l -0.2722229,0.2066 0.4148159,0.01 0.4148158,0 0.058733,-0.1762 0.058732,-0.1762 0.3431204,0.1089 0.3431203,0.1089 0,0.2229 0,0.2228 -0.3888899,0 -0.3888899,0 0,0.1556 c 0,0.086 -0.07,0.1556 -0.1555559,0.1556 z m 7.4173924,-0.4376 0.0817,-0.2041 -0.09398,-0.094 -0.09398,-0.094 0.01228,0.2982 0.01228,0.2981 0.0817,-0.2042 z m -1.078487,-0.1956 c 0.02139,0.01 0.03889,-0.088 0.03889,-0.2086 l 0,-0.2196 -0.272223,0.052 c -0.149723,0.029 -0.307223,0.062 -0.350001,0.075 -0.04278,0.013 0.06222,0.083 0.233334,0.1566 0.171112,0.073 0.328612,0.1386 0.350001,0.1446 z m 1.06905,-0.6113 c 0.0323,0 0.05873,-0.105 0.05873,-0.2333 l 0,-0.2334 -0.252381,0 -0.252381,0 0.19365,0.2334 c 0.106507,0.1283 0.220078,0.2333 0.252381,0.2333 z m -1.263495,-0.3111 c 0.04278,0 0.07778,-0.035 0.07778,-0.078 0,-0.043 -0.035,-0.078 -0.07778,-0.078 -0.04278,0 -0.07778,0.035 -0.07778,0.078 0,0.043 0.035,0.078 0.07778,0.078 z m 0.311112,0 c 0.04278,0 0.07778,-0.035 0.07778,-0.078 0,-0.043 -0.035,-0.078 -0.07778,-0.078 -0.04278,0 -0.07778,0.035 -0.07778,0.078 0,0.043 0.035,0.078 0.07778,0.078 z"
         id="path3528" />
      <path
         style="fill:#b2cda5"
         d="m 7.5555418,1047.8955 -4.8290995,0 0.042321,-2.9166 0.042321,-2.9167 4.7444567,0 4.744456,0 0.04232,2.9167 0.04232,2.9166 -4.829099,0 z m 0.077778,-0.3111 4.5889012,0 0,-2.6444 0,-2.6445 -0.427779,0.01 -0.427779,0.01 0.334072,0.2335 0.334073,0.2336 -0.08286,0.6527 c -0.04557,0.359 -0.151975,0.7402 -0.236453,0.8472 l -0.153594,0.1944 -0.55204,0 -0.552039,0 -0.284471,-0.2574 -0.2844719,-0.2575 0,-0.579 0,-0.5791 0.1950699,-0.1619 0.195069,-0.1619 0.543821,-0.066 c 0.299102,-0.036 -1.3286831,-0.077 -3.6173001,-0.091 l -4.1611219,-0.025 0,2.6445 0,2.6444 4.5889008,0 z m -1.0568888,-1.5166 -0.067413,0.35 -0.023566,-0.3111 -0.023566,-0.3112 -0.1198506,0.1886 -0.1198505,0.1886 -0.350499,-0.092 -0.350499,-0.092 0.071861,-0.6414 c 0.039524,-0.3527 0.077253,-0.6728 0.083842,-0.7113 0.00659,-0.039 0.09598,0.014 0.1986473,0.1166 l 0.1866672,0.1867 0.5041542,0 0.5041542,0 0.096139,0.1555 0.096139,0.1556 -0.3591814,0.011 c -0.1975497,0.01 -0.4991817,0.069 -0.6702933,0.1397 l -0.3111119,0.1288 0.507748,-0.01 c 0.2792616,0 0.5534289,0.038 0.6092609,0.094 l 0.1015127,0.1015 -0.2484407,0 -0.2484409,0 -0.067413,0.35 z m 1.3068655,0.1166 -0.1721988,0 0,-0.3124 0,-0.3125 0.8944468,0.099 0.8944468,0.099 0.1477781,0.1357 0.1477782,0.1357 -0.5654304,0 c -0.3109868,0 -0.7416373,-0.067 -0.9570011,-0.1489 l -0.3915707,-0.1489 0.086975,0.2267 0.086975,0.2266 -0.1721987,0 z m 0.7014117,-0.9024 c -0.4806534,0.04 -0.9088467,0.038 -0.9515407,-0.01 -0.042694,-0.043 -0.077626,-0.2019 -0.077626,-0.3537 l 0,-0.276 0.1769005,-0.1093 0.1769005,-0.1093 0.2508784,0.3228 0.2508783,0.3229 0.5444459,-0.055 c 0.2994452,-0.03 0.8944468,-0.093 1.3222259,-0.1401 l 0.77778,-0.085 -0.798464,0.2078 c -0.4391552,0.1143 -1.1917256,0.2404 -1.6723791,0.2802 z m -3.9847296,-1.2753 -0.155556,0 0,-0.1675 0,-0.1675 -0.5833348,0.05 -0.5833349,0.05 0,-0.5332 0,-0.5331 0.5350183,-3e-4 0.5350182,-2e-4 0.06128,0.1839 0.06128,0.1838 -0.324075,0 -0.3240749,0 0,0.1556 0,0.1555 0.4574874,0 0.4574874,0 0.096399,-0.1559 0.096399,-0.156 0.3060284,0.1638 0.3060282,0.1637 -0.091315,0.1478 -0.091315,0.1477 -0.3019315,0 -0.3019315,0 0,0.1556 c 0,0.086 -0.07,0.1556 -0.1555559,0.1556 z m -1.0111137,-0.7778 c 0.042778,0 0.077778,-0.035 0.077778,-0.078 0,-0.043 -0.035,-0.078 -0.077778,-0.078 -0.042778,0 -0.077778,0.035 -0.077778,0.078 0,0.043 0.035,0.078 0.077778,0.078 z m 7.1555741,0.9333 c 0.04278,0 0.07778,-0.035 0.07778,-0.078 0,-0.043 -0.035,-0.078 -0.07778,-0.078 -0.04278,0 -0.07778,0.035 -0.07778,0.078 0,0.043 0.035,0.078 0.07778,0.078 z m -0.09621,-0.7778 0.318602,0 0.159013,-0.2971 0.159014,-0.2971 -0.415627,0.1111 -0.415628,0.1112 -0.06199,0.186 -0.06199,0.1859 0.318602,0 z"
         id="path3526" />
      <path
         style="fill:#e2af69"
         d="m 7.5555418,1047.8955 -4.8290995,0 0.042321,-2.8749 0.042321,-2.8749 4.7444567,-0.034 4.744456,-0.034 0.04232,2.9087 0.04232,2.9087 -4.829099,0 z m 0.077778,-0.3111 4.5889012,0 0,-2.6444 0,-2.6445 -4.5889012,0 -4.5889008,0 0,2.6445 0,2.6444 4.5889008,0 z m -1.4388927,-1.418 c -0.064167,-0.01 -0.2404622,-0.05 -0.3917678,-0.09 l -0.2751009,-0.072 0.041767,-0.618 0.041767,-0.6179 0.3111119,0.099 c 0.1711116,0.054 0.4978233,0.1102 0.7260259,0.1244 0.2282026,0.014 0.4580482,0.069 0.5107681,0.1217 l 0.095854,0.096 -0.6274353,0.1003 -0.6274351,0.1003 0,0.1268 0,0.1268 0.5055569,-0.051 0.5055568,-0.051 -0.1944449,0.091 -0.194445,0.091 -0.00238,0.2593 -0.00238,0.2592 -0.1507919,-0.2333 -0.1507919,-0.2334 -0.00238,0.1945 c -0.00131,0.1069 -0.054882,0.1863 -0.119049,0.1764 z m 1.6888694,0.018 -0.1721988,0 0,-0.3284 0,-0.3284 0.5833349,0.1219 c 0.3208341,0.067 0.7408352,0.1274 0.9333357,0.134 l 0.3500009,0.012 0,0.1372 0,0.1371 -0.5833348,-0.083 c -0.3208342,-0.046 -0.706629,-0.1326 -0.8573219,-0.1933 l -0.273987,-0.1105 0.096185,0.2507 0.096185,0.2506 -0.1721987,0 z m 0.7014117,-0.9024 c -0.4806534,0.04 -0.9088467,0.038 -0.9515407,-0.01 -0.042694,-0.043 -0.077626,-0.1985 -0.077626,-0.3462 l 0,-0.2685 0.2477292,-0.095 0.2477291,-0.095 0.08613,0.3294 0.086129,0.3294 0.7161441,-0.087 c 0.3938794,-0.048 1.031145,-0.1237 1.4161461,-0.1688 l 0.700002,-0.082 -0.798464,0.2082 c -0.439155,0.1145 -1.1917254,0.2409 -1.6723789,0.2807 z m 2.3505068,-0.8087 -0.531448,0 -0.230523,-0.2722 -0.230524,-0.2722 0.056047,-0.6163 0.056046,-0.6162 0.189257,-0.1203 c 0.104091,-0.066 0.437758,-0.1213 0.741481,-0.1226 l 0.552223,0 0.186667,0.1867 0.186668,0.1866 0,0.6022 0,0.6023 -0.222223,0.2222 -0.222223,0.2222 -0.531448,0 z m -0.112998,-0.3111 0.207408,0 -0.103704,-0.1037 -0.103704,-0.1037 -0.103704,0.1037 -0.103704,0.1037 0.207408,0 z m -0.161029,-0.7778 0.305639,0 0.151321,-0.2827 0.151321,-0.2828 -0.45696,0.067 -0.45696,0.067 0,0.2156 0,0.2157 0.305639,0 z m -5.9400029,0.4445 -0.050727,0.2555 -0.1313905,-0.2093 -0.1313904,-0.2093 -0.526073,0.061 -0.5260728,0.061 -0.015668,-0.085 c -0.00862,-0.047 -0.026118,-0.2604 -0.038889,-0.4743 l -0.023221,-0.3889 0.116667,-0.039 c 0.064167,-0.021 0.3266675,-0.039 0.5833349,-0.039 l 0.4666678,0 0,0.1556 0,0.1555 -0.5055568,0 -0.5055569,0 0.2333339,0.1508 0.233334,0.1508 0.5055568,0 0.5055569,0 0,-0.161 0,-0.161 0.3154687,0.1688 0.3154688,0.1688 -0.099691,0.1613 -0.099691,0.1613 -0.2853669,-0.075 -0.2853671,-0.075 -0.050728,0.2555 z"
         id="path3524" />
      <path
         style="fill:#a6b49d"
         d="m 7.5555418,1047.8955 -4.8290995,0 0.042321,-2.8749 0.042321,-2.8749 4.7444567,-0.034 4.744456,-0.034 0.04232,2.9087 0.04232,2.9087 -4.829099,0 z m 0.077778,-0.3111 4.5889012,0 0,-2.6444 0,-2.6445 -4.5889012,0 -4.5889008,0 0,2.6445 0,2.6444 4.5889008,0 z m -1.4388927,-1.418 c -0.064167,-0.01 -0.2404622,-0.05 -0.3917678,-0.09 l -0.2751009,-0.072 0.041767,-0.618 0.041767,-0.6179 0.3111119,0.099 c 0.1711116,0.054 0.4978233,0.1102 0.7260259,0.1244 0.2282026,0.014 0.4580482,0.069 0.5107681,0.1217 l 0.095854,0.096 -0.6274353,0.1003 -0.6274351,0.1003 0,0.1268 0,0.1268 0.5055569,-0.051 0.5055568,-0.051 -0.1944449,0.091 -0.194445,0.091 -0.00238,0.2593 -0.00238,0.2592 -0.1507919,-0.2333 -0.1507919,-0.2334 -0.00238,0.1945 c -0.00131,0.1069 -0.054882,0.1863 -0.119049,0.1764 z m 1.6888694,0.018 -0.1721988,0 0,-0.3284 0,-0.3284 0.5833349,0.1219 c 0.3208341,0.067 0.7408352,0.1274 0.9333357,0.134 l 0.3500009,0.012 0,0.1372 0,0.1371 -0.5833348,-0.083 c -0.3208342,-0.046 -0.706629,-0.1326 -0.8573219,-0.1933 l -0.273987,-0.1105 0.096185,0.2507 0.096185,0.2506 -0.1721987,0 z m 0.7014117,-0.9024 c -0.4806534,0.04 -0.9088467,0.038 -0.9515407,-0.01 -0.042694,-0.043 -0.077626,-0.1985 -0.077626,-0.3462 l 0,-0.2685 0.2477292,-0.095 0.2477291,-0.095 0.08613,0.3294 0.086129,0.3294 0.7161441,-0.087 c 0.3938794,-0.048 1.031145,-0.1237 1.4161461,-0.1688 l 0.700002,-0.082 -0.798464,0.2082 c -0.439155,0.1145 -1.1917254,0.2409 -1.6723789,0.2807 z m 2.3505068,-0.8087 -0.531448,0 -0.230523,-0.2722 -0.230524,-0.2722 0.056047,-0.6163 0.056046,-0.6162 0.189257,-0.1203 c 0.104091,-0.066 0.437758,-0.1213 0.741481,-0.1226 l 0.552223,0 0.186667,0.1867 0.186668,0.1866 0,0.6022 0,0.6023 -0.222223,0.2222 -0.222223,0.2222 -0.531448,0 z m -0.07411,-0.3135 c 0.06417,0 0.116667,-0.07 0.116667,-0.158 l 0,-0.1605 -0.240043,-0.092 -0.240043,-0.092 -0.105453,0.1055 -0.105453,0.1054 0.228829,0.1447 c 0.125856,0.08 0.281329,0.1458 0.345496,0.1471 z m 0.574154,-0.3087 0.164737,0 0,-0.5538 0,-0.5539 -0.582041,0.048 -0.582042,0.048 -0.04625,0.2445 -0.04625,0.2445 0.406611,0.1852 0.406612,0.1853 0.167934,-0.1038 0.167934,-0.1038 -0.110993,0.1796 -0.110993,0.1796 0.164736,0 z m -6.7140749,-0.022 -0.050727,0.2555 -0.1313905,-0.2093 -0.1313904,-0.2093 -0.526073,0.061 -0.5260728,0.061 -0.015668,-0.085 c -0.00862,-0.047 -0.026118,-0.2604 -0.038889,-0.4743 l -0.023221,-0.3889 0.116667,-0.039 c 0.064167,-0.021 0.3266675,-0.039 0.5833349,-0.039 l 0.4666678,0 0,0.1556 0,0.1555 -0.5055568,0 -0.5055569,0 0.2333339,0.1508 0.233334,0.1508 0.5055568,0 0.5055569,0 0,-0.161 0,-0.161 0.3154687,0.1688 0.3154688,0.1688 -0.099691,0.1613 -0.099691,0.1613 -0.2853669,-0.075 -0.2853671,-0.075 -0.050728,0.2555 z"
         id="path3522" />
      <path
         style="fill:#929b6b"
         d="m 7.6592458,1047.8955 -4.7185308,0 -0.1037039,-0.1037 -0.103704,-0.1037 0,-2.774 0,-2.7741 4.8222347,0 4.8222342,0 0,2.8778 0,2.8777 -4.7185302,0 z m -0.036584,-0.1921 4.5217812,-0.041 0.04256,-2.6833 0.04256,-2.6834 -4.6703516,0 -4.6703521,0 0,2.6186 0,2.6185 0.1060087,0.106 0.1060087,0.106 4.5217811,-0.041 z m -1.4974616,-1.6613 -0.068258,0.2048 -0.1170066,-0.1893 -0.1170065,-0.1894 -0.1357635,0.084 -0.1357635,0.084 0.050998,-0.4314 c 0.028049,-0.2373 0.058979,-0.5264 0.068734,-0.6425 l 0.017736,-0.2111 0.2722229,0.1147 c 0.1497226,0.063 0.4634697,0.1277 0.6972158,0.1435 0.233746,0.016 0.4729133,0.077 0.5314829,0.1353 l 0.1064899,0.1065 -0.4148158,0.023 c -0.2281488,0.013 -0.5023162,0.03 -0.6092609,0.039 -0.1069447,0.01 -0.24325,0.084 -0.3029007,0.167 l -0.1084556,0.1515 0.1663045,0.1028 0.1663046,0.1027 -0.068258,0.2048 z m 0.4192282,0.1423 c -0.042778,0 -0.077778,-0.035 -0.077778,-0.078 0,-0.043 0.035,-0.078 0.077778,-0.078 0.042778,0 0.077778,0.035 0.077778,0.078 0,0.043 -0.035,0.078 -0.077778,0.078 z m 1.324763,-0.079 -0.1580934,0.098 0,-0.3203 0,-0.3203 0.194445,0.01 c 0.1069447,0 0.5444458,0.1099 0.9722247,0.2358 l 0.7777798,0.2291 -0.6222238,-0.065 c -0.3422231,-0.036 -0.7562073,-0.1188 -0.919965,-0.1846 l -0.2977411,-0.1195 0.1058336,0.1712 0.1058336,0.1713 -0.1580934,0.098 z m -1.4322496,-0.2342 c -0.059118,0 -0.1507489,-0.068 -0.2036254,-0.1531 l -0.096139,-0.1556 0.4369593,0 0.4369593,0 -0.2333339,0.1508 c -0.1283337,0.083 -0.2817028,0.1518 -0.3408205,0.1531 z m 2.3072586,-0.6434 -1.0669033,0.1165 -0.074662,-0.1945 -0.074662,-0.1946 0.1007427,-0.163 c 0.055409,-0.09 0.1994148,-0.163 0.3200141,-0.163 l 0.2192714,0 -0.098728,0.2573 -0.098728,0.2572 0.9202789,-0.103 c 0.5061534,-0.057 1.1652798,-0.1356 1.4647248,-0.1752 l 0.544446,-0.072 -0.544446,0.159 c -0.299445,0.087 -1.0245522,0.2114 -1.6113489,0.2755 z m 2.2024836,-0.7814 -0.575535,0.036 -0.163356,-0.3052 -0.163356,-0.3053 0,-0.5235 0,-0.5236 0.186667,-0.1866 0.186667,-0.1867 0.560002,0 0.560001,0 0.186667,0.1867 0.186668,0.1866 -0.0049,0.5522 -0.0049,0.5523 -0.189497,0.2406 -0.189499,0.2407 -0.575535,0.036 z m -0.176319,-0.2839 0.207408,0 0,-0.1501 c 0,-0.082 -0.140001,-0.225 -0.311112,-0.3166 l -0.311112,-0.1665 0,0.2129 c 0,0.1171 0.04667,0.2596 0.103704,0.3166 0.05704,0.057 0.197037,0.1037 0.311112,0.1037 z m 0.664895,-0.3111 0.164737,0 0,-0.5445 0,-0.5444 -0.525399,0 -0.525399,0 -0.185611,0.2237 -0.18561,0.2236 0.482244,0.2494 0.482243,0.2494 0.175023,-0.1082 0.175022,-0.1082 -0.110993,0.1796 -0.110993,0.1796 0.164736,0 z m -6.7963921,-0.026 c -0.064167,-0.014 -0.3791677,-0.054 -0.7000018,-0.087 l -0.5833349,-0.061 4.667e-4,-0.1851 4.667e-4,-0.1851 0.9992409,0 0.9992409,0 0.1151094,0.1151 0.1151108,0.1151 -0.4148158,0 -0.414816,0 0,0.1555 c 0,0.086 -0.0525,0.1438 -0.1166669,0.1294 z m -1.0240767,-0.754 -0.4407419,0 0.071296,-0.1944 0.071296,-0.1945 0.2138895,0.061 c 0.1176392,0.034 0.3888899,0.052 0.6027793,0.04 l 0.3888899,-0.021 -0.2333339,0.1516 -0.233334,0.1517 -0.4407418,0 z"
         id="path3520" />
      <path
         style="fill:#788671"
         d="m 7.6592458,1047.8955 -4.7185308,0 -0.1037039,-0.1037 -0.103704,-0.1037 0,-2.774 0,-2.7741 4.8222347,0 4.8222342,0 0,2.8778 0,2.8777 -4.7185302,0 z m 0,-0.1555 4.5629752,0 0,-2.7222 0,-2.7223 -4.6666792,0 -4.6666788,0 0,2.6186 0,2.6185 0.103704,0.1037 0.103704,0.1037 4.5629748,0 z m -1.6203746,-1.7135 c -0.064167,0 -0.1951254,-0.054 -0.2910189,-0.1167 l -0.174352,-0.1143 0.048901,-0.4449 c 0.026895,-0.2447 0.086162,-0.4822 0.1317038,-0.5277 l 0.082803,-0.083 0.1982041,0.1495 c 0.1090122,0.082 0.4025692,0.1624 0.6523487,0.1782 0.2497794,0.016 0.4889467,0.063 0.5314827,0.106 0.042536,0.043 -0.1443288,0.077 -0.4152554,0.077 -0.2709266,0 -0.545094,0.01 -0.6092609,0.015 -0.064167,0.01 -0.1680951,0.096 -0.2309519,0.1944 -0.062857,0.099 -0.1153568,0.2461 -0.1166669,0.3274 l -0.00238,0.1477 0.1866672,-0.1866 0.1866671,-0.1867 0.3966677,0 0.3966677,0 -0.2734549,0.1592 -0.2734549,0.1593 -0.154324,-0.095 -0.1543239,-0.095 0,0.1647 c 0,0.091 -0.0525,0.1637 -0.116667,0.1624 z m 1.8369629,0 -0.1647364,0 0,-0.2502 0,-0.2502 0.4277789,0.1165 c 0.2352784,0.064 0.6727795,0.1744 0.9722248,0.2451 l 0.5444458,0.1285 -0.6222238,-0.057 c -0.3422231,-0.032 -0.7562073,-0.1111 -0.919965,-0.1769 l -0.2977411,-0.1195 0.1124766,0.182 0.1124766,0.182 -0.1647364,0 z m 0.9106091,-0.7865 -1.1091464,0.1016 -0.074662,-0.1945 -0.074662,-0.1946 0.1007427,-0.163 c 0.055409,-0.09 0.1994148,-0.163 0.3200141,-0.163 l 0.2192714,0 -0.0985,0.2567 -0.0985,0.2566 1.0454303,-0.084 1.0454297,-0.084 -0.083136,0.083 c -0.045725,0.046 -0.5822523,0.1289 -1.1922827,0.1849 z m -0.9975675,-0.3 c 0.042778,0 0.077778,-0.035 0.077778,-0.078 0,-0.043 -0.035,-0.078 -0.077778,-0.078 -0.042778,0 -0.077778,0.035 -0.077778,0.078 0,0.043 0.035,0.078 0.077778,0.078 z m 2.7222293,-0.025 -0.38889,0 0.194445,-0.078 0.194445,-0.079 0.194445,0.079 0.194445,0.078 -0.38889,0 z m 0.466607,-0.4714 -0.544506,0.034 -0.194384,-0.3112 -0.194385,-0.3113 0,-0.5154 0,-0.5155 0.186667,-0.1866 0.186667,-0.1867 0.357779,0 0.357779,0 0,0.1555 0,0.1556 -0.372247,0 -0.372247,0 -0.0837,0.2181 -0.0837,0.2182 0.101277,0.1012 c 0.0557,0.056 0.103379,0.2551 0.105949,0.443 l 0.0047,0.3417 0.510797,0.016 0.510797,0.016 0.083,-0.1343 c 0.04565,-0.074 0.08914,-0.35 0.09663,-0.6137 l 0.01363,-0.4794 -0.214033,-0.1323 -0.214034,-0.1322 0.104754,-0.1048 0.104755,-0.1047 0.240741,0.2407 0.240742,0.2407 -0.0049,0.5167 -0.0049,0.5167 -0.189497,0.2406 -0.189498,0.2407 -0.544507,0.034 z m -6.368553,-0.5929 c -0.080507,0 -0.1824248,-0.058 -0.2264851,-0.1296 l -0.080109,-0.1296 -0.4735169,0.07 -0.4735167,0.07 8.53e-4,-0.2122 8.53e-4,-0.2121 1.0102607,-0.01 1.0102608,-0.01 0,0.1239 0,0.1239 -0.3111119,0 -0.311112,0 0,0.1555 c 0,0.086 -0.065869,0.1556 -0.1463755,0.1556 z m 6.377794,0 c -0.08051,0 -0.189142,-0.069 -0.241413,-0.1538 l -0.09504,-0.1538 0.241414,0.093 c 0.132777,0.051 0.241413,0.1201 0.241413,0.1538 0,0.034 -0.06587,0.061 -0.146376,0.061 z m -7.3591992,-0.7802 -0.4277788,0 0,-0.1464 c 0,-0.081 0.065163,-0.1866 0.1448073,-0.2358 l 0.1448073,-0.09 0.09806,0.1586 0.09806,0.1587 0.4182455,-0.091 0.4182456,-0.091 -0.2333339,0.1658 -0.233334,0.1658 -0.4277789,0 z"
         id="path3518" />
      <path
         style="fill:#63705c"
         d="m 2.9850019,1047.8955 c -0.042778,0 -0.1210405,-0.07 -0.1739168,-0.1555 -0.052876,-0.086 -0.061139,-0.1556 -0.018361,-0.1556 0.042778,0 0.1210404,0.07 0.1739168,0.1556 0.052876,0.085 0.061139,0.1555 0.018361,0.1555 z m 9.3149961,-0.1555 c -0.04278,0 -0.07778,-1.2201 -0.07778,-2.7114 l 0,-2.7114 -0.350001,-0.067 -0.350001,-0.068 0.427779,-0.021 0.427778,-0.021 0,2.8 c 0,1.54 -0.035,2.8 -0.07778,2.8 z m -6.2222378,-1.7111 c -0.042778,0 -0.077778,-0.035 -0.077778,-0.078 0,-0.043 0.035,-0.078 0.077778,-0.078 0.042778,0 0.077778,0.035 0.077778,0.078 0,0.043 -0.035,0.078 -0.077778,0.078 z m 1.7510682,-0.1227 -0.1414159,0.2005 0.067879,-0.2334 0.067879,-0.2333 0.3684353,0.043 c 0.2026394,0.024 0.4399238,0.1158 0.5272985,0.2043 l 0.1588632,0.1609 -0.4537615,-0.1714 -0.4537617,-0.1714 -0.1414158,0.2005 z m 1.4378289,0.098 -0.3888899,0 0.194445,-0.078 0.1944449,-0.078 0.194445,0.078 0.1944449,0.078 -0.3888899,0 z m -3.3268093,-0.4618 -0.2046657,0.3692 -0.086371,-0.3303 -0.086371,-0.3303 0.1361108,0 0.1361107,0 -0.090216,-0.2351 -0.090216,-0.2351 0.2506536,0.096 c 0.1378596,0.053 0.2481732,0.1412 0.2451415,0.1962 -0.00303,0.055 -0.097612,0.2661 -0.210178,0.4692 z m 0.4879131,0.3284 c -0.064167,0 -0.116667,-0.068 -0.116667,-0.1531 l 0,-0.1556 0.3500009,0 0.3500009,0 -0.2333339,0.1508 c -0.1283337,0.083 -0.2858341,0.1518 -0.3500009,0.1531 z m 2.1578108,-0.6173 -0.9144192,0.075 -0.077023,-0.2012 -0.077023,-0.2011 0.1014976,-0.1015 c 0.055824,-0.056 0.199625,-0.1159 0.3195586,-0.1335 l 0.2180608,-0.032 -0.080173,0.2089 -0.080173,0.2089 0.7520566,0.051 0.7520566,0.05 -0.9144194,0.075 z M 7.7888757,1044.94 c 0.042778,0 0.077778,-0.035 0.077778,-0.078 0,-0.043 -0.035,-0.078 -0.077778,-0.078 -0.042778,0 -0.077778,0.035 -0.077778,0.078 0,0.043 0.035,0.078 0.077778,0.078 z m -1.0202942,0.3111 -0.4758483,0 0.083246,-0.1347 0.083246,-0.1347 0.3926025,0.075 c 0.2159314,0.041 0.3926026,0.1019 0.3926026,0.1347 0,0.033 -0.2141318,0.06 -0.4758484,0.06 z m 2.9647437,-0.1556 -0.2074079,0 0.1037039,-0.1037 0.103704,-0.1037 0.103704,0.1037 0.1037039,0.1037 -0.2074079,0 z m 0.8685208,-0.1678 -0.298149,0.012 0.09398,-0.094 0.09398,-0.094 0.204168,0.082 0.204167,0.082 -0.298149,0.012 z m 0.138708,-0.5156 -0.228214,0.034 -0.08758,-0.1417 -0.08758,-0.1417 0.423997,0 0.423996,0 -0.108207,0.1082 c -0.05951,0.059 -0.210902,0.1233 -0.33642,0.1417 z m 0.939436,-0.2015 -0.205682,0.2813 -0.091,-0.1472 -0.091,-0.1472 0.235381,-0.1954 c 0.129459,-0.1074 0.262965,-0.1678 0.29668,-0.134 0.03372,0.034 -0.03126,0.1878 -0.144381,0.3425 z m -1.443945,-0.2039 -0.125432,0 -0.0379,-0.4975 c -0.02085,-0.2735 -0.01058,-0.466 0.02281,-0.4277 0.03339,0.038 0.106889,0.2621 0.163333,0.4974 l 0.102624,0.4278 -0.125431,0 z m -5.6360664,-0.1556 c -0.085556,0 -0.155556,-0.066 -0.155556,-0.1458 l 0,-0.1458 -0.5444458,0.088 -0.5444459,0.088 0,-0.1759 0,-0.1759 0.7000018,0 0.7000018,0 0,0.2334 0,0.2333 -0.1555559,0 z m 6.3869744,0 c -0.08051,0 -0.189142,-0.069 -0.241413,-0.1538 l -0.09504,-0.1538 0.241414,0.093 c 0.132777,0.051 0.241413,0.1201 0.241413,0.1538 0,0.034 -0.06587,0.061 -0.146376,0.061 z m 0.7686,-0.1556 c -0.08556,0 -0.155556,-0.07 -0.155556,-0.1555 0,-0.086 0.07,-0.1556 0.155556,-0.1556 0.08555,0 0.155556,0.07 0.155556,0.1556 0,0.086 -0.07,0.1555 -0.155556,0.1555 z m -6.6019481,-0.1555 -0.2425144,0 0,-0.1556 c 0,-0.085 0.065869,-0.1555 0.1463755,-0.1555 0.080507,0 0.189638,0.07 0.2425144,0.1555 l 0.096139,0.1556 -0.2425144,0 z m 5.2797221,0 c -0.04278,0 -0.07778,-0.035 -0.07778,-0.078 0,-0.043 0.035,-0.078 0.07778,-0.078 0.04278,0 0.07778,0.035 0.07778,0.078 0,0.043 -0.035,0.078 -0.07778,0.078 z m 1.343337,-0.4256 -0.176667,0.1767 0,-0.2645 0,-0.2644 -0.164737,0 -0.164736,0 0.09688,-0.1567 0.09688,-0.1568 0.244527,0.2445 0.244527,0.2446 -0.176667,0.1766 z m -8.1451277,-0.041 -0.4834133,0 0.1166669,-0.1167 c 0.064167,-0.064 0.3141497,-0.1166 0.5555176,-0.1166 l 0.4388506,0 -0.072104,0.1166 -0.072104,0.1167 -0.4834135,0 z m 6.6200687,-0.2142 -0.2849459,0.097 0.3491349,-0.2606 0.349135,-0.2607 0.273089,0.159 0.273089,0.159 -0.337279,0 c -0.185503,0 -0.465503,0.048 -0.622223,0.1016 z m -3.551621,-0.631 -3.8888989,2e-4 1.8965048,-0.049 c 1.0430775,-0.027 2.793082,-0.027 3.8888989,-2e-4 l 1.9923942,0.049 -3.888899,2e-4 z m 4.122233,0.067 -0.207408,0 0.103704,-0.1037 0.103704,-0.1037 0.103704,0.1037 0.103704,0.1037 -0.207408,0 z m 0.466668,0 -0.207408,0 0.103704,-0.1037 0.103704,-0.1037 0.103704,0.1037 0.103704,0.1037 -0.207408,0 z"
         id="path3516" />
      <path
         style="fill:#4c5349"
         d="m 12.33812,1046.3789 -0.05133,1.4389 0,-2.8778 0,-2.8778 0.05133,1.4389 c 0.02823,0.7914 0.02823,2.0864 0,2.8778 z m -6.2603598,-0.35 c -0.042778,0 -0.077778,-0.035 -0.077778,-0.078 0,-0.043 0.035,-0.078 0.077778,-0.078 0.042778,0 0.077778,0.035 0.077778,0.078 0,0.043 -0.035,0.078 -0.077778,0.078 z m -0.1521952,-0.5256 -0.229973,0.4432 0.021304,-0.5667 0.021305,-0.5667 0.2086686,0.08 c 0.1147677,0.044 0.2086686,0.1 0.2086686,0.1234 0,0.024 -0.103488,0.2429 -0.2299732,0.4867 z m 0.774419,0.2707 -0.2333339,0.09 0,-0.1507 0,-0.1507 0.2333339,0 c 0.1283337,0 0.2333339,0.027 0.2333339,0.061 0,0.034 -0.1050002,0.1015 -0.2333339,0.1507 z m 1.1666697,0.022 c -0.085556,0.053 -0.155556,0.061 -0.155556,0.018 0,-0.043 0.07,-0.121 0.155556,-0.1739 0.085556,-0.053 0.155556,-0.061 0.155556,-0.018 0,0.043 -0.07,0.1211 -0.155556,0.1739 z m 0.4666679,0.078 -0.2074079,0 0.1037038,-0.1037 0.1037041,-0.1037 0.103704,0.1037 0.1037039,0.1037 -0.2074079,0 z m -1.642518,-0.6222 -0.3980704,0 0.087113,-0.141 0.087113,-0.1409 0.310957,0.081 c 0.1710263,0.045 0.310957,0.1082 0.310957,0.141 0,0.033 -0.1791317,0.06 -0.3980703,0.06 z m 1.3794755,-0.011 -0.3408205,0.011 -0.096139,-0.1556 -0.096139,-0.1555 0.1258474,0.011 c 0.069216,0.01 0.2658478,0.071 0.4369593,0.1446 l 0.3111119,0.1337 -0.3408204,0.011 z m 0.8852663,-0.025 -0.5444459,0 0.272223,-0.071 c 0.1497226,-0.039 0.3947232,-0.039 0.5444458,0 l 0.272223,0.071 -0.5444459,0 z m 0.7777798,-0.1195 -0.2074079,0 0.1037039,-0.1037 0.103704,-0.1037 0.103704,0.1037 0.1037039,0.1037 -0.2074079,0 z m 1.0111138,-0.1555 c -0.04278,0 -0.07778,-0.035 -0.07778,-0.078 0,-0.043 0.035,-0.078 0.07778,-0.078 0.04278,0 0.07778,0.035 0.07778,0.078 0,0.043 -0.035,0.078 -0.07778,0.078 z m -0.155556,-0.4667 c -0.04278,0 -0.07778,-0.035 -0.07778,-0.078 0,-0.043 0.035,-0.078 0.07778,-0.078 0.04278,0 0.07778,0.035 0.07778,0.078 0,0.043 -0.035,0.078 -0.07778,0.078 z m 0.942516,0 c -0.03773,0 -0.11186,-0.07 -0.164736,-0.1555 l -0.09614,-0.1556 0.164736,0 0.164737,0 0,0.1556 c 0,0.085 -0.03087,0.1555 -0.0686,0.1555 z m -0.553626,-0.1555 -0.207408,0 0.103704,-0.1037 0.103704,-0.1037 0.103704,0.1037 0.103704,0.1037 -0.207408,0 z m -0.855558,-0.3111 c -0.04278,0 -0.07778,-0.035 -0.07778,-0.078 0,-0.043 0.035,-0.078 0.07778,-0.078 0.04278,0 0.07778,0.035 0.07778,0.078 0,0.043 -0.035,0.078 -0.07778,0.078 z m 1.633338,0 -0.207408,0 0.103704,-0.1038 0.103704,-0.1037 0.103704,0.1037 0.103704,0.1038 -0.207408,0 z m -7.1426115,-0.1556 -0.1685189,0 0,-0.1458 0,-0.1458 -0.5444458,0.088 -0.5444459,0.088 0,-0.1848 0,-0.1849 0.6490229,0.048 0.649023,0.048 0.063942,0.1945 0.063942,0.1944 -0.1685191,0 z m 7.1426115,-0.2333 -0.155556,0.096 0,-0.1647 0,-0.1648 0.155556,0 c 0.08555,0 0.155556,0.031 0.155556,0.069 0,0.038 -0.07,0.1119 -0.155556,0.1648 z m -6.6019481,-0.078 -0.2425144,0 0,-0.1556 c 0,-0.085 0.065869,-0.1555 0.1463755,-0.1555 0.080507,0 0.189638,0.07 0.2425144,0.1555 l 0.096139,0.1556 -0.2425144,0 z m 4.9686101,-0.1556 c -0.04278,0 -0.07778,-0.035 -0.07778,-0.078 0,-0.043 0.035,-0.078 0.07778,-0.078 0.04278,0 0.07778,0.035 0.07778,0.078 0,0.043 -0.035,0.078 -0.07778,0.078 z m -6.5241697,-0.3111 -0.2425144,0 0,-0.1555 c 0,-0.086 0.065869,-0.1556 0.1463755,-0.1556 0.080507,0 0.189638,0.07 0.2425144,0.1556 l 0.096139,0.1555 -0.2425144,0 z m 8.1575077,0 -0.207408,0 0.103704,-0.1037 0.103704,-0.1037 0.103704,0.1037 0.103704,0.1037 -0.207408,0 z m -7.5444643,-0.1555 c -0.042778,0 -0.077778,-0.035 -0.077778,-0.078 0,-0.043 0.035,-0.078 0.077778,-0.078 0.042778,0 0.077778,0.035 0.077778,0.078 0,0.043 -0.035,0.078 -0.077778,0.078 z m 6.3000163,-0.1556 -0.207408,0 0.103704,-0.1037 0.103704,-0.1037 0.103704,0.1037 0.103704,0.1037 -0.207408,0 z m 0.466668,0 -0.207408,0 0.103704,-0.1037 0.103704,-0.1037 0.103704,0.1037 0.103704,0.1037 -0.207408,0 z m 0.570372,-0.052 -0.103704,0.1037 0,-0.2075 0,-0.2074 0.103704,0.1037 0.103704,0.1037 -0.103704,0.1038 z m -8.581504,-0.4149 c -0.042778,0 -0.077778,-0.035 -0.077778,-0.078 0,-0.043 0.035,-0.078 0.077778,-0.078 0.042778,0 0.077778,0.035 0.077778,0.078 0,0.043 -0.035,0.078 -0.077778,0.078 z"
         id="path3514" />
      <path
         style="fill:#272c23"
         d="m 8.3333216,1045.8733 -0.2074079,0 0.1037038,-0.1037 0.1037041,-0.1037 0.103704,0.1037 0.1037039,0.1037 -0.2074079,0 z m -2.3952508,-0.4421 -0.2492005,0.3558 0.00238,-0.2291 c 0.00131,-0.1259 0.067504,-0.332 0.147098,-0.4579 l 0.1447158,-0.2288 0.1021026,0.1021 0.1021026,0.1021 -0.2492005,0.3558 z m 0.6063573,0.2866 c -0.042778,0 -0.077778,-0.035 -0.077778,-0.078 0,-0.043 0.035,-0.078 0.077778,-0.078 0.042778,0 0.077778,0.035 0.077778,0.078 0,0.043 -0.035,0.078 -0.077778,0.078 z m 0.025926,-0.5186 -0.103704,0.1038 0,-0.2075 0,-0.2074 0.103704,0.1037 0.1037039,0.1037 -0.1037039,0.1037 z m 1.3740776,0.052 -0.233334,0 0,-0.1507 0,-0.1506 0.233334,0.089 c 0.1283336,0.049 0.2333339,0.117 0.2333339,0.1507 0,0.034 -0.1050003,0.061 -0.2333339,0.061 z m 0.9333357,0 c -0.042778,0 -0.077778,-0.035 -0.077778,-0.078 0,-0.043 0.035,-0.078 0.077778,-0.078 0.042778,0 0.077778,0.035 0.077778,0.078 0,0.043 -0.035,0.078 -0.077778,0.078 z m 2.6444516,-0.9333 c -0.04278,0 -0.07778,-0.035 -0.07778,-0.078 0,-0.043 0.035,-0.078 0.07778,-0.078 0.04278,0 0.07778,0.035 0.07778,0.078 0,0.043 -0.035,0.078 -0.07778,0.078 z m 0.155556,-0.3111 c -0.04278,0 -0.07778,-0.035 -0.07778,-0.078 0,-0.043 0.035,-0.078 0.07778,-0.078 0.04278,0 0.07778,0.035 0.07778,0.078 0,0.043 -0.035,0.078 -0.07778,0.078 z m -6.990838,-0.1556 c -0.037729,0 -0.11186,-0.07 -0.1647364,-0.1556 l -0.096139,-0.1555 0.1647364,0 0.1647364,0 0,0.1555 c 0,0.086 -0.030869,0.1556 -0.068598,0.1556 z m -1.2277021,-0.2074 -0.103704,0.1037 0,-0.2074 0,-0.2074 0.103704,0.1037 0.1037039,0.1037 -0.1037039,0.1037 z m 8.2444661,0 -0.103704,0.1037 0,-0.2074 0,-0.2074 0.103704,0.1037 0.103704,0.1037 -0.103704,0.1037 z M 3.7444208,1043.54 c -0.042778,0 -0.077778,-0.035 -0.077778,-0.078 0,-0.043 0.035,-0.078 0.077778,-0.078 0.042778,0 0.077778,0.035 0.077778,0.078 0,0.043 -0.035,0.078 -0.077778,0.078 z m 1.4129666,-0.012 -0.2981488,0.012 0.093982,-0.094 0.093982,-0.094 0.2041672,0.082 0.2041671,0.082 -0.2981489,0.012 z m -1.6371201,-0.4544 -0.1647364,0 0,-0.1555 c 0,-0.086 0.030869,-0.1556 0.068598,-0.1556 0.037729,0 0.1118599,0.07 0.1647364,0.1556 l 0.096139,0.1555 -0.1647364,0 z m 8.1575077,0 c -0.04278,0 -0.07778,-0.035 -0.07778,-0.078 0,-0.043 0.035,-0.078 0.07778,-0.078 0.04278,0 0.07778,0.035 0.07778,0.078 0,0.043 -0.035,0.078 -0.07778,0.078 z m -0.155556,-0.3111 c -0.04278,0 -0.07778,-0.035 -0.07778,-0.078 0,-0.043 0.035,-0.078 0.07778,-0.078 0.04278,0 0.07778,0.035 0.07778,0.078 0,0.043 -0.035,0.078 -0.07778,0.078 z"
         id="path3512" />
    </g>
  </g>
</svg>
