<?xml version="1.0" encoding="UTF-8" standalone="no"?>
<!-- Created with Inkscape (http://www.inkscape.org/) -->

<svg
   xmlns:dc="http://purl.org/dc/elements/1.1/"
   xmlns:cc="http://creativecommons.org/ns#"
   xmlns:rdf="http://www.w3.org/1999/02/22-rdf-syntax-ns#"
   xmlns:svg="http://www.w3.org/2000/svg"
   xmlns="http://www.w3.org/2000/svg"
   xmlns:sodipodi="http://sodipodi.sourceforge.net/DTD/sodipodi-0.dtd"
   xmlns:inkscape="http://www.inkscape.org/namespaces/inkscape"
   width="16"
   height="16"
   id="svg2"
   version="1.1"
   inkscape:version="0.47 r22583"
   sodipodi:docname="MAIL2-64.svg">
  <defs
     id="defs4">
    <inkscape:perspective
       sodipodi:type="inkscape:persp3d"
       inkscape:vp_x="0 : 526.18109 : 1"
       inkscape:vp_y="0 : 1000 : 0"
       inkscape:vp_z="744.09448 : 526.18109 : 1"
       inkscape:persp3d-origin="372.04724 : 350.78739 : 1"
       id="perspective10" />
    <inkscape:perspective
       id="perspective2824"
       inkscape:persp3d-origin="0.5 : 0.33333333 : 1"
       inkscape:vp_z="1 : 0.5 : 1"
       inkscape:vp_y="0 : 1000 : 0"
       inkscape:vp_x="0 : 0.5 : 1"
       sodipodi:type="inkscape:persp3d" />
    <inkscape:perspective
       id="perspective5878"
       inkscape:persp3d-origin="0.5 : 0.33333333 : 1"
       inkscape:vp_z="1 : 0.5 : 1"
       inkscape:vp_y="0 : 1000 : 0"
       inkscape:vp_x="0 : 0.5 : 1"
       sodipodi:type="inkscape:persp3d" />
    <inkscape:perspective
       id="perspective5921"
       inkscape:persp3d-origin="0.5 : 0.33333333 : 1"
       inkscape:vp_z="1 : 0.5 : 1"
       inkscape:vp_y="0 : 1000 : 0"
       inkscape:vp_x="0 : 0.5 : 1"
       sodipodi:type="inkscape:persp3d" />
    <inkscape:perspective
       id="perspective5943"
       inkscape:persp3d-origin="0.5 : 0.33333333 : 1"
       inkscape:vp_z="1 : 0.5 : 1"
       inkscape:vp_y="0 : 1000 : 0"
       inkscape:vp_x="0 : 0.5 : 1"
       sodipodi:type="inkscape:persp3d" />
    <inkscape:perspective
       id="perspective5989"
       inkscape:persp3d-origin="0.5 : 0.33333333 : 1"
       inkscape:vp_z="1 : 0.5 : 1"
       inkscape:vp_y="0 : 1000 : 0"
       inkscape:vp_x="0 : 0.5 : 1"
       sodipodi:type="inkscape:persp3d" />
    <inkscape:perspective
       id="perspective6011"
       inkscape:persp3d-origin="0.5 : 0.33333333 : 1"
       inkscape:vp_z="1 : 0.5 : 1"
       inkscape:vp_y="0 : 1000 : 0"
       inkscape:vp_x="0 : 0.5 : 1"
       sodipodi:type="inkscape:persp3d" />
    <inkscape:perspective
       id="perspective6033"
       inkscape:persp3d-origin="0.5 : 0.33333333 : 1"
       inkscape:vp_z="1 : 0.5 : 1"
       inkscape:vp_y="0 : 1000 : 0"
       inkscape:vp_x="0 : 0.5 : 1"
       sodipodi:type="inkscape:persp3d" />
    <inkscape:perspective
       id="perspective6245"
       inkscape:persp3d-origin="0.5 : 0.33333333 : 1"
       inkscape:vp_z="1 : 0.5 : 1"
       inkscape:vp_y="0 : 1000 : 0"
       inkscape:vp_x="0 : 0.5 : 1"
       sodipodi:type="inkscape:persp3d" />
    <inkscape:perspective
       id="perspective6269"
       inkscape:persp3d-origin="0.5 : 0.33333333 : 1"
       inkscape:vp_z="1 : 0.5 : 1"
       inkscape:vp_y="0 : 1000 : 0"
       inkscape:vp_x="0 : 0.5 : 1"
       sodipodi:type="inkscape:persp3d" />
    <inkscape:perspective
       id="perspective6364"
       inkscape:persp3d-origin="0.5 : 0.33333333 : 1"
       inkscape:vp_z="1 : 0.5 : 1"
       inkscape:vp_y="0 : 1000 : 0"
       inkscape:vp_x="0 : 0.5 : 1"
       sodipodi:type="inkscape:persp3d" />
    <inkscape:perspective
       id="perspective6396"
       inkscape:persp3d-origin="0.5 : 0.33333333 : 1"
       inkscape:vp_z="1 : 0.5 : 1"
       inkscape:vp_y="0 : 1000 : 0"
       inkscape:vp_x="0 : 0.5 : 1"
       sodipodi:type="inkscape:persp3d" />
    <inkscape:perspective
       id="perspective6438"
       inkscape:persp3d-origin="0.5 : 0.33333333 : 1"
       inkscape:vp_z="1 : 0.5 : 1"
       inkscape:vp_y="0 : 1000 : 0"
       inkscape:vp_x="0 : 0.5 : 1"
       sodipodi:type="inkscape:persp3d" />
    <inkscape:perspective
       id="perspective6460"
       inkscape:persp3d-origin="0.5 : 0.33333333 : 1"
       inkscape:vp_z="1 : 0.5 : 1"
       inkscape:vp_y="0 : 1000 : 0"
       inkscape:vp_x="0 : 0.5 : 1"
       sodipodi:type="inkscape:persp3d" />
    <inkscape:perspective
       id="perspective6480"
       inkscape:persp3d-origin="0.5 : 0.33333333 : 1"
       inkscape:vp_z="1 : 0.5 : 1"
       inkscape:vp_y="0 : 1000 : 0"
       inkscape:vp_x="0 : 0.5 : 1"
       sodipodi:type="inkscape:persp3d" />
    <inkscape:perspective
       id="perspective6504"
       inkscape:persp3d-origin="0.5 : 0.33333333 : 1"
       inkscape:vp_z="1 : 0.5 : 1"
       inkscape:vp_y="0 : 1000 : 0"
       inkscape:vp_x="0 : 0.5 : 1"
       sodipodi:type="inkscape:persp3d" />
    <inkscape:perspective
       id="perspective6524"
       inkscape:persp3d-origin="0.5 : 0.33333333 : 1"
       inkscape:vp_z="1 : 0.5 : 1"
       inkscape:vp_y="0 : 1000 : 0"
       inkscape:vp_x="0 : 0.5 : 1"
       sodipodi:type="inkscape:persp3d" />
    <inkscape:perspective
       id="perspective6548"
       inkscape:persp3d-origin="0.5 : 0.33333333 : 1"
       inkscape:vp_z="1 : 0.5 : 1"
       inkscape:vp_y="0 : 1000 : 0"
       inkscape:vp_x="0 : 0.5 : 1"
       sodipodi:type="inkscape:persp3d" />
    <inkscape:perspective
       id="perspective6572"
       inkscape:persp3d-origin="0.5 : 0.33333333 : 1"
       inkscape:vp_z="1 : 0.5 : 1"
       inkscape:vp_y="0 : 1000 : 0"
       inkscape:vp_x="0 : 0.5 : 1"
       sodipodi:type="inkscape:persp3d" />
    <inkscape:perspective
       id="perspective6594"
       inkscape:persp3d-origin="0.5 : 0.33333333 : 1"
       inkscape:vp_z="1 : 0.5 : 1"
       inkscape:vp_y="0 : 1000 : 0"
       inkscape:vp_x="0 : 0.5 : 1"
       sodipodi:type="inkscape:persp3d" />
    <inkscape:perspective
       id="perspective6614"
       inkscape:persp3d-origin="0.5 : 0.33333333 : 1"
       inkscape:vp_z="1 : 0.5 : 1"
       inkscape:vp_y="0 : 1000 : 0"
       inkscape:vp_x="0 : 0.5 : 1"
       sodipodi:type="inkscape:persp3d" />
    <inkscape:perspective
       id="perspective6650"
       inkscape:persp3d-origin="0.5 : 0.33333333 : 1"
       inkscape:vp_z="1 : 0.5 : 1"
       inkscape:vp_y="0 : 1000 : 0"
       inkscape:vp_x="0 : 0.5 : 1"
       sodipodi:type="inkscape:persp3d" />
    <inkscape:perspective
       id="perspective6676"
       inkscape:persp3d-origin="0.5 : 0.33333333 : 1"
       inkscape:vp_z="1 : 0.5 : 1"
       inkscape:vp_y="0 : 1000 : 0"
       inkscape:vp_x="0 : 0.5 : 1"
       sodipodi:type="inkscape:persp3d" />
    <inkscape:perspective
       id="perspective6710"
       inkscape:persp3d-origin="0.5 : 0.33333333 : 1"
       inkscape:vp_z="1 : 0.5 : 1"
       inkscape:vp_y="0 : 1000 : 0"
       inkscape:vp_x="0 : 0.5 : 1"
       sodipodi:type="inkscape:persp3d" />
    <inkscape:perspective
       id="perspective6748"
       inkscape:persp3d-origin="0.5 : 0.33333333 : 1"
       inkscape:vp_z="1 : 0.5 : 1"
       inkscape:vp_y="0 : 1000 : 0"
       inkscape:vp_x="0 : 0.5 : 1"
       sodipodi:type="inkscape:persp3d" />
    <inkscape:perspective
       id="perspective6786"
       inkscape:persp3d-origin="0.5 : 0.33333333 : 1"
       inkscape:vp_z="1 : 0.5 : 1"
       inkscape:vp_y="0 : 1000 : 0"
       inkscape:vp_x="0 : 0.5 : 1"
       sodipodi:type="inkscape:persp3d" />
    <inkscape:perspective
       id="perspective6810"
       inkscape:persp3d-origin="0.5 : 0.33333333 : 1"
       inkscape:vp_z="1 : 0.5 : 1"
       inkscape:vp_y="0 : 1000 : 0"
       inkscape:vp_x="0 : 0.5 : 1"
       sodipodi:type="inkscape:persp3d" />
    <inkscape:perspective
       id="perspective6848"
       inkscape:persp3d-origin="0.5 : 0.33333333 : 1"
       inkscape:vp_z="1 : 0.5 : 1"
       inkscape:vp_y="0 : 1000 : 0"
       inkscape:vp_x="0 : 0.5 : 1"
       sodipodi:type="inkscape:persp3d" />
    <inkscape:perspective
       id="perspective6870"
       inkscape:persp3d-origin="0.5 : 0.33333333 : 1"
       inkscape:vp_z="1 : 0.5 : 1"
       inkscape:vp_y="0 : 1000 : 0"
       inkscape:vp_x="0 : 0.5 : 1"
       sodipodi:type="inkscape:persp3d" />
    <inkscape:perspective
       id="perspective6908"
       inkscape:persp3d-origin="0.5 : 0.33333333 : 1"
       inkscape:vp_z="1 : 0.5 : 1"
       inkscape:vp_y="0 : 1000 : 0"
       inkscape:vp_x="0 : 0.5 : 1"
       sodipodi:type="inkscape:persp3d" />
    <inkscape:perspective
       id="perspective6946"
       inkscape:persp3d-origin="0.5 : 0.33333333 : 1"
       inkscape:vp_z="1 : 0.5 : 1"
       inkscape:vp_y="0 : 1000 : 0"
       inkscape:vp_x="0 : 0.5 : 1"
       sodipodi:type="inkscape:persp3d" />
    <inkscape:perspective
       id="perspective6970"
       inkscape:persp3d-origin="0.5 : 0.33333333 : 1"
       inkscape:vp_z="1 : 0.5 : 1"
       inkscape:vp_y="0 : 1000 : 0"
       inkscape:vp_x="0 : 0.5 : 1"
       sodipodi:type="inkscape:persp3d" />
    <inkscape:perspective
       id="perspective7008"
       inkscape:persp3d-origin="0.5 : 0.33333333 : 1"
       inkscape:vp_z="1 : 0.5 : 1"
       inkscape:vp_y="0 : 1000 : 0"
       inkscape:vp_x="0 : 0.5 : 1"
       sodipodi:type="inkscape:persp3d" />
    <inkscape:perspective
       id="perspective7036"
       inkscape:persp3d-origin="0.5 : 0.33333333 : 1"
       inkscape:vp_z="1 : 0.5 : 1"
       inkscape:vp_y="0 : 1000 : 0"
       inkscape:vp_x="0 : 0.5 : 1"
       sodipodi:type="inkscape:persp3d" />
    <inkscape:perspective
       id="perspective7060"
       inkscape:persp3d-origin="0.5 : 0.33333333 : 1"
       inkscape:vp_z="1 : 0.5 : 1"
       inkscape:vp_y="0 : 1000 : 0"
       inkscape:vp_x="0 : 0.5 : 1"
       sodipodi:type="inkscape:persp3d" />
    <inkscape:perspective
       id="perspective7098"
       inkscape:persp3d-origin="0.5 : 0.33333333 : 1"
       inkscape:vp_z="1 : 0.5 : 1"
       inkscape:vp_y="0 : 1000 : 0"
       inkscape:vp_x="0 : 0.5 : 1"
       sodipodi:type="inkscape:persp3d" />
    <inkscape:perspective
       id="perspective7136"
       inkscape:persp3d-origin="0.5 : 0.33333333 : 1"
       inkscape:vp_z="1 : 0.5 : 1"
       inkscape:vp_y="0 : 1000 : 0"
       inkscape:vp_x="0 : 0.5 : 1"
       sodipodi:type="inkscape:persp3d" />
    <inkscape:perspective
       id="perspective7174"
       inkscape:persp3d-origin="0.5 : 0.33333333 : 1"
       inkscape:vp_z="1 : 0.5 : 1"
       inkscape:vp_y="0 : 1000 : 0"
       inkscape:vp_x="0 : 0.5 : 1"
       sodipodi:type="inkscape:persp3d" />
    <inkscape:perspective
       id="perspective7212"
       inkscape:persp3d-origin="0.5 : 0.33333333 : 1"
       inkscape:vp_z="1 : 0.5 : 1"
       inkscape:vp_y="0 : 1000 : 0"
       inkscape:vp_x="0 : 0.5 : 1"
       sodipodi:type="inkscape:persp3d" />
    <inkscape:perspective
       id="perspective7234"
       inkscape:persp3d-origin="0.5 : 0.33333333 : 1"
       inkscape:vp_z="1 : 0.5 : 1"
       inkscape:vp_y="0 : 1000 : 0"
       inkscape:vp_x="0 : 0.5 : 1"
       sodipodi:type="inkscape:persp3d" />
    <inkscape:perspective
       id="perspective7272"
       inkscape:persp3d-origin="0.5 : 0.33333333 : 1"
       inkscape:vp_z="1 : 0.5 : 1"
       inkscape:vp_y="0 : 1000 : 0"
       inkscape:vp_x="0 : 0.5 : 1"
       sodipodi:type="inkscape:persp3d" />
    <inkscape:perspective
       id="perspective7294"
       inkscape:persp3d-origin="0.5 : 0.33333333 : 1"
       inkscape:vp_z="1 : 0.5 : 1"
       inkscape:vp_y="0 : 1000 : 0"
       inkscape:vp_x="0 : 0.5 : 1"
       sodipodi:type="inkscape:persp3d" />
    <inkscape:perspective
       id="perspective7330"
       inkscape:persp3d-origin="0.5 : 0.33333333 : 1"
       inkscape:vp_z="1 : 0.5 : 1"
       inkscape:vp_y="0 : 1000 : 0"
       inkscape:vp_x="0 : 0.5 : 1"
       sodipodi:type="inkscape:persp3d" />
    <inkscape:perspective
       id="perspective3068"
       inkscape:persp3d-origin="0.5 : 0.33333333 : 1"
       inkscape:vp_z="1 : 0.5 : 1"
       inkscape:vp_y="0 : 1000 : 0"
       inkscape:vp_x="0 : 0.5 : 1"
       sodipodi:type="inkscape:persp3d" />
    <inkscape:perspective
       id="perspective3106"
       inkscape:persp3d-origin="0.5 : 0.33333333 : 1"
       inkscape:vp_z="1 : 0.5 : 1"
       inkscape:vp_y="0 : 1000 : 0"
       inkscape:vp_x="0 : 0.5 : 1"
       sodipodi:type="inkscape:persp3d" />
    <inkscape:perspective
       id="perspective3128"
       inkscape:persp3d-origin="0.5 : 0.33333333 : 1"
       inkscape:vp_z="1 : 0.5 : 1"
       inkscape:vp_y="0 : 1000 : 0"
       inkscape:vp_x="0 : 0.5 : 1"
       sodipodi:type="inkscape:persp3d" />
    <inkscape:perspective
       id="perspective3152"
       inkscape:persp3d-origin="0.5 : 0.33333333 : 1"
       inkscape:vp_z="1 : 0.5 : 1"
       inkscape:vp_y="0 : 1000 : 0"
       inkscape:vp_x="0 : 0.5 : 1"
       sodipodi:type="inkscape:persp3d" />
    <inkscape:perspective
       id="perspective3174"
       inkscape:persp3d-origin="0.5 : 0.33333333 : 1"
       inkscape:vp_z="1 : 0.5 : 1"
       inkscape:vp_y="0 : 1000 : 0"
       inkscape:vp_x="0 : 0.5 : 1"
       sodipodi:type="inkscape:persp3d" />
    <inkscape:perspective
       id="perspective3212"
       inkscape:persp3d-origin="0.5 : 0.33333333 : 1"
       inkscape:vp_z="1 : 0.5 : 1"
       inkscape:vp_y="0 : 1000 : 0"
       inkscape:vp_x="0 : 0.5 : 1"
       sodipodi:type="inkscape:persp3d" />
    <inkscape:perspective
       id="perspective3238"
       inkscape:persp3d-origin="0.5 : 0.33333333 : 1"
       inkscape:vp_z="1 : 0.5 : 1"
       inkscape:vp_y="0 : 1000 : 0"
       inkscape:vp_x="0 : 0.5 : 1"
       sodipodi:type="inkscape:persp3d" />
    <inkscape:perspective
       id="perspective3276"
       inkscape:persp3d-origin="0.5 : 0.33333333 : 1"
       inkscape:vp_z="1 : 0.5 : 1"
       inkscape:vp_y="0 : 1000 : 0"
       inkscape:vp_x="0 : 0.5 : 1"
       sodipodi:type="inkscape:persp3d" />
    <inkscape:perspective
       id="perspective3314"
       inkscape:persp3d-origin="0.5 : 0.33333333 : 1"
       inkscape:vp_z="1 : 0.5 : 1"
       inkscape:vp_y="0 : 1000 : 0"
       inkscape:vp_x="0 : 0.5 : 1"
       sodipodi:type="inkscape:persp3d" />
    <inkscape:perspective
       id="perspective3350"
       inkscape:persp3d-origin="0.5 : 0.33333333 : 1"
       inkscape:vp_z="1 : 0.5 : 1"
       inkscape:vp_y="0 : 1000 : 0"
       inkscape:vp_x="0 : 0.5 : 1"
       sodipodi:type="inkscape:persp3d" />
    <inkscape:perspective
       id="perspective3376"
       inkscape:persp3d-origin="0.5 : 0.33333333 : 1"
       inkscape:vp_z="1 : 0.5 : 1"
       inkscape:vp_y="0 : 1000 : 0"
       inkscape:vp_x="0 : 0.5 : 1"
       sodipodi:type="inkscape:persp3d" />
    <inkscape:perspective
       id="perspective3402"
       inkscape:persp3d-origin="0.5 : 0.33333333 : 1"
       inkscape:vp_z="1 : 0.5 : 1"
       inkscape:vp_y="0 : 1000 : 0"
       inkscape:vp_x="0 : 0.5 : 1"
       sodipodi:type="inkscape:persp3d" />
    <inkscape:perspective
       id="perspective3428"
       inkscape:persp3d-origin="0.5 : 0.33333333 : 1"
       inkscape:vp_z="1 : 0.5 : 1"
       inkscape:vp_y="0 : 1000 : 0"
       inkscape:vp_x="0 : 0.5 : 1"
       sodipodi:type="inkscape:persp3d" />
  </defs>
  <sodipodi:namedview
     id="base"
     pagecolor="#ffffff"
     bordercolor="#666666"
     borderopacity="1.0"
     inkscape:pageopacity="0.0"
     inkscape:pageshadow="2"
     inkscape:zoom="11.313709"
     inkscape:cx="11.966503"
     inkscape:cy="4.3194832"
     inkscape:document-units="px"
     inkscape:current-layer="layer1"
     showgrid="true"
     inkscape:window-width="1280"
     inkscape:window-height="780"
     inkscape:window-x="-8"
     inkscape:window-y="-8"
     inkscape:window-maximized="1">
    <inkscape:grid
       type="xygrid"
       id="grid6324"
       empspacing="5"
       visible="true"
       enabled="true"
       snapvisiblegridlinesonly="true" />
  </sodipodi:namedview>
  <metadata
     id="metadata7">
    <rdf:RDF>
      <cc:Work
         rdf:about="">
        <dc:format>image/svg+xml</dc:format>
        <dc:type
           rdf:resource="http://purl.org/dc/dcmitype/StillImage" />
        <dc:title></dc:title>
      </cc:Work>
    </rdf:RDF>
  </metadata>
  <g
     inkscape:label="Calque 1"
     inkscape:groupmode="layer"
     id="layer1"
     transform="translate(0,-1036.3622)">
    <g
       id="g3434"
       transform="translate(0.7330705,0.1074)">
      <path
         style="fill:#c7c7c7"
         d="m 7.0230705,1050.0238 -0.4230777,0 0,-2.0308 0,-2.0308 -0.9307707,0 -0.9307707,0 -0.3384621,-0.3385 -0.3384621,-0.3384 0,-1.0016 c 0,-0.5508 0.046382,-1.1224 0.1030718,-1.2701 l 0.1030718,-0.2686 1.5200899,-1.2683 1.5200897,-1.2683 0.9042873,0 0.9042871,0 0.4127769,-0.157 0.412777,-0.1569 0.1059333,0.7728 c 0.05826,0.4251 0.105933,1.0677 0.105933,1.428 l 0,0.6551 -1.223045,1.5213 c -0.6726746,0.8367 -1.2819064,1.5213 -1.3538484,1.5213 l -0.1308035,0 0,2.1154 0,2.1154 -0.4230776,0 z"
         id="path3456" />
      <path
         style="fill:#8c99c0"
         d="m 7.0230705,1050.0238 -0.4230777,0 0,-2.0308 0,-2.0308 -0.9307707,0 -0.9307707,0 -0.3384621,-0.3385 -0.3384621,-0.3384 0,-1.0016 c 0,-0.5508 0.046382,-1.1224 0.1030718,-1.2701 l 0.1030718,-0.2686 1.5200899,-1.2683 1.5200897,-1.2683 0.9042873,0 0.9042871,0 0.4127769,-0.157 0.412777,-0.1569 0.1059333,0.7728 c 0.05826,0.4251 0.105933,1.0677 0.105933,1.428 l 0,0.6551 -1.223045,1.5213 c -0.6726746,0.8367 -1.2819064,1.5213 -1.3538484,1.5213 l -0.1308035,0 0,2.1154 0,2.1154 -0.4230776,0 z m -1.7223355,-4.2415 0.3684871,-0.011 -0.3572298,-0.1443 -0.3572298,-0.1444 -0.1075487,-0.2802 -0.1075487,-0.2803 0.1576099,-0.2945 c 0.086685,-0.162 0.4970673,-0.6074 0.9119599,-0.9898 0.4148926,-0.3825 0.8051131,-0.7775 0.867157,-0.8779 l 0.112807,-0.1825 -0.9084131,0 -0.9084133,0 -0.3124732,0.2285 -0.3124732,0.2285 -0.074968,0.9138 -0.074968,0.9138 0.3673792,0.4654 0.3673793,0.4654 0.368487,-0.011 z m 1.6734353,0 0.2895619,0.011 0.3450545,-0.3704 0.3450545,-0.3704 -0.00538,-0.2642 -0.00538,-0.2643 -0.2484643,0.3285 c -0.1366556,0.1807 -0.2484645,0.3926 -0.2484645,0.4709 0,0.078 -0.1713465,0.2112 -0.3807699,0.2954 l -0.3807698,0.153 0.2895619,0.011 z m 2.958488,-3.7579 c 0.042907,-0.1647 0.040086,-0.3932 -0.00627,-0.5077 l -0.084285,-0.2083 0.00627,0.5076 0.00627,0.5077 0.078013,-0.2993 z"
         id="path3454" />
      <path
         style="fill:#7587bd"
         d="m 7.0230705,1050.0238 -0.4230777,0 0,-2.0308 0,-2.0308 -0.9307707,0 -0.9307707,0 -0.3384621,-0.3385 -0.3384621,-0.3384 0,-1.0016 c 0,-0.5508 0.046382,-1.1224 0.1030718,-1.2701 l 0.1030718,-0.2686 1.5200899,-1.2683 1.5200897,-1.2683 0.9042873,0 0.9042871,0 0.4127769,-0.157 0.412777,-0.1569 0.1059333,0.7728 c 0.05826,0.4251 0.105933,1.0677 0.105933,1.428 l 0,0.6551 -1.223045,1.5213 c -0.6726746,0.8367 -1.2819064,1.5213 -1.3538484,1.5213 l -0.1308035,0 0,2.1154 0,2.1154 -0.4230776,0 z m -1.7223355,-4.2415 0.3684871,-0.011 -0.3572298,-0.1443 -0.3572298,-0.1444 -0.1075487,-0.2802 -0.1075487,-0.2803 0.1576099,-0.2945 c 0.086685,-0.162 0.4970673,-0.6074 0.9119599,-0.9898 0.4148926,-0.3825 0.8051131,-0.7775 0.867157,-0.8779 l 0.112807,-0.1825 -0.9084131,0 -0.9084133,0 -0.3124732,0.2285 -0.3124732,0.2285 -0.074968,0.9138 -0.074968,0.9138 0.3673792,0.4654 0.3673793,0.4654 0.368487,-0.011 z m 1.6734353,0 0.2895619,0.011 0.3450545,-0.3704 0.3450545,-0.3704 -0.00538,-0.2642 -0.00538,-0.2643 -0.2484643,0.3285 c -0.1366556,0.1807 -0.2484645,0.3926 -0.2484645,0.4709 0,0.078 -0.1713465,0.2112 -0.3807699,0.2954 l -0.3807698,0.153 0.2895619,0.011 z m 2.8412124,-3.2047 c 0.090226,-0.1396 0.1652143,-0.4588 0.1666396,-0.7093 l 0.00259,-0.4554 -0.169231,-0.1045 -0.1692311,-0.1046 0.00259,0.8138 0.00259,0.8138 0.1640482,-0.2538 z m -3.9130355,-0.3385 0.5284146,0 0,-0.429 0,-0.429 -0.3100726,0.1659 c -0.17054,0.091 -0.4083266,0.2843 -0.5284146,0.429 l -0.2183419,0.2631 0.5284145,0 z"
         id="path3452" />
      <path
         style="fill:#8f9094"
         d="m 7.0230705,1050.0238 -0.4230777,0 0,-2.0308 0,-2.0308 -0.9307707,0 -0.9307707,0 -0.3384621,-0.3385 -0.3384621,-0.3384 0,-1.0016 c 0,-0.5508 0.046382,-1.1224 0.1030718,-1.2701 l 0.1030718,-0.2686 1.5200899,-1.2683 1.5200897,-1.2683 0.9042873,0 0.9042871,0 0.4127769,-0.157 0.412777,-0.1569 0.1059333,0.7728 c 0.05826,0.4251 0.105933,1.0677 0.105933,1.428 l 0,0.6551 -1.223045,1.5213 c -0.6726746,0.8367 -1.2819064,1.5213 -1.3538484,1.5213 l -0.1308035,0 0,2.1154 0,2.1154 -0.4230776,0 z m -1.7223355,-4.2415 0.3684871,-0.011 -0.3572298,-0.1443 -0.3572298,-0.1444 -0.1075487,-0.2802 -0.1075487,-0.2803 0.1576099,-0.2945 c 0.086685,-0.162 0.4970673,-0.6074 0.9119599,-0.9898 0.4148926,-0.3825 0.8051131,-0.7775 0.867157,-0.8779 l 0.112807,-0.1825 -0.9084131,0 -0.9084133,0 -0.3124732,0.2285 -0.3124732,0.2285 -0.074968,0.9138 -0.074968,0.9138 0.3673792,0.4654 0.3673793,0.4654 0.368487,-0.011 z m 1.6734353,0 0.2895619,0.011 0.3450545,-0.3704 0.3450545,-0.3704 -0.00538,-0.2642 -0.00538,-0.2643 -0.2484643,0.3285 c -0.1366556,0.1807 -0.2484645,0.3926 -0.2484645,0.4709 0,0.078 -0.1713465,0.2112 -0.3807699,0.2954 l -0.3807698,0.153 0.2895619,0.011 z m 2.8412124,-3.2047 c 0.090226,-0.1396 0.1652143,-0.4588 0.1666396,-0.7093 l 0.00259,-0.4554 -0.169231,-0.1045 -0.1692311,-0.1046 0.00259,0.8138 0.00259,0.8138 0.1640482,-0.2538 z m -3.5115442,-0.345 0.9730785,0.01 0,-0.7615 0,-0.7616 -0.1269233,0 c -0.069808,0 -0.5076931,0.3417 -0.9730785,0.7551 l -0.8461552,0.7515 0.9730785,0.01 z"
         id="path3450" />
      <path
         style="fill:#586ead"
         d="m 7.0230705,1050.0238 -0.2538466,0 0,-2.0308 0,-2.0308 -0.9858869,0 -0.9858869,0 -0.3679615,-0.3917 -0.3679614,-0.3916 0,-0.9484 c 0,-0.5216 0.045466,-1.0668 0.1010344,-1.2116 l 0.1010345,-0.2633 1.4472218,-1.2187 1.4472219,-1.2187 1.2017481,-0.1004 c 0.6609616,-0.055 1.28683,-0.1544 1.3908189,-0.2203 l 0.1890705,-0.1198 0.1070837,0.7813 c 0.0589,0.4296 0.107084,1.0754 0.107084,1.435 l 0,0.6538 -1.2062004,1.4803 c -0.6634102,0.8141 -1.310719,1.5412 -1.4384639,1.6156 l -0.2322637,0.1353 0,2.0224 0,2.0224 -0.2538465,0 z m -0.872384,-4.2308 1.2430042,0 0.2936742,-0.3245 0.2936743,-0.3245 -0.055907,-0.3948 -0.055907,-0.3947 -0.3040942,0.6346 -0.3040943,0.6346 -0.9518132,0 -0.9518133,0 -0.3094796,-0.28 c -0.1702139,-0.1541 -0.3094797,-0.3565 -0.3094797,-0.4498 0,-0.093 0.4759623,-0.6337 1.057694,-1.2007 l 1.057694,-1.031 -1.0144511,-0.052 -1.0144512,-0.052 -0.2970894,0.3669 -0.2970895,0.3669 0,0.912 0,0.9121 0.3384621,0.3384 0.3384621,0.3385 1.2430041,0 z m 0.6085499,-0.3385 c 0.087584,0 0.2057702,-0.075 0.2626361,-0.1673 l 0.1033925,-0.1673 -0.2626361,0.1008 c -0.1444498,0.055 -0.2626361,0.1307 -0.2626361,0.1673 0,0.037 0.07166,0.067 0.1592436,0.067 z m 0.4430526,-0.6769 c 0.1341225,0 0.2438591,-0.029 0.2438591,-0.065 0,-0.036 -0.1524131,-0.1047 -0.3386957,-0.1534 l -0.3386956,-0.089 0.094837,0.1534 c 0.05216,0.084 0.2045731,0.1535 0.3386956,0.1535 z m -1.796901,-0.1692 c 0.087584,0 0.2057703,-0.075 0.2626361,-0.1673 l 0.1033926,-0.1673 -0.2626361,0.1008 c -0.1444499,0.055 -0.2626361,0.1307 -0.2626361,0.1673 0,0.037 0.071659,0.067 0.1592435,0.067 z m 2.1635683,-0.1693 c 0.036519,0 0.022894,-0.07 -0.030277,-0.1564 l -0.096675,-0.1564 0.2982262,-0.078 0.2982262,-0.078 -0.3807698,-0.02 -0.3807699,-0.02 0,0.1411 c 0,0.078 0.050769,0.1918 0.1128208,0.2538 0.062051,0.062 0.1426997,0.1128 0.1792185,0.1128 z m -1.1381945,-0.1692 0.2256413,0 -0.1128205,-0.1128 -0.1128208,-0.1128 -0.1128208,0.1128 -0.1128205,0.1128 0.2256413,0 z m 0.5076931,0 0.2256414,0 -0.1128206,-0.1128 -0.1128208,-0.1128 -0.1128207,0.1128 -0.1128206,0.1128 0.2256413,0 z m -0.1833335,-0.3518 0.2679491,-0.013 -0.2186022,-0.088 -0.2186022,-0.088 0.1970159,-0.2374 0.1970158,-0.2374 -0.1692311,0 c -0.093077,0 -0.254049,0.1022 -0.3577152,0.2271 l -0.1884842,0.2271 0.1113525,0.1114 c 0.061244,0.061 0.2319294,0.1053 0.3793016,0.098 z m 1.1240918,-0.1559 c 0.041046,0 0.074628,-0.076 0.074628,-0.1692 l 0,-0.1693 -0.1792186,0 -0.1792185,0 0.1045905,0.1693 c 0.057525,0.093 0.1381731,0.1692 0.1792186,0.1692 z m 1.6823229,-0.6769 0.4230776,-0.3975 0,-0.8166 0,-0.8167 -0.1497677,0 c -0.082372,0 -0.2727573,0.1877 -0.4230777,0.4171 l -0.2733098,0.4172 0,0.797 0,0.7969 0.4230776,-0.3974 z m -2.2599679,-0.085 0.4892517,0 -0.2892964,-0.2116 c -0.1591132,-0.1163 -0.3427477,-0.2115 -0.4080768,-0.2115 -0.065329,0 -0.1553089,0.095 -0.1999551,0.2115 l -0.081175,0.2116 0.4892517,0 z m -1.6746539,-0.6549 c 0.2094235,-0.056 0.6663473,-0.1031 1.0153863,-0.1044 l 0.6346164,0 0,-0.7615 c 0,-0.4189 -0.04252,-0.7616 -0.094488,-0.7616 -0.051969,0 -0.504642,0.3237 -1.0059409,0.7193 -0.501299,0.3956 -0.9157031,0.7852 -0.920898,0.8659 l -0.00945,0.1466 0.3807698,-0.102 z"
         id="path3448" />
      <path
         style="fill:#385abb"
         d="m 7.0230705,1050.0238 -0.2538466,0 0,-2.0308 0,-2.0308 -0.9858869,0 -0.9858869,0 -0.3679615,-0.3917 -0.3679614,-0.3916 0,-0.9484 c 0,-0.5216 0.045466,-1.0668 0.1010344,-1.2116 l 0.1010345,-0.2633 1.4472218,-1.2187 1.4472219,-1.2187 1.2017481,-0.1004 c 0.6609616,-0.055 1.28683,-0.1544 1.3908189,-0.2203 l 0.1890705,-0.1198 0.1070837,0.7813 c 0.0589,0.4296 0.107084,1.0754 0.107084,1.435 l 0,0.6538 -1.2062004,1.4803 c -0.6634102,0.8141 -1.310719,1.5412 -1.4384639,1.6156 l -0.2322637,0.1353 0,2.0224 0,2.0224 -0.2538465,0 z m -0.872384,-4.2308 1.2430042,0 0.2936742,-0.3245 0.2936743,-0.3245 -0.055907,-0.3948 -0.055907,-0.3947 -0.3040942,0.6346 -0.3040943,0.6346 -0.9518132,0 -0.9518133,0 -0.3094796,-0.28 c -0.1702139,-0.1541 -0.3094797,-0.3565 -0.3094797,-0.4498 0,-0.093 0.4759623,-0.6337 1.057694,-1.2007 l 1.057694,-1.031 -1.0144511,-0.052 -1.0144512,-0.052 -0.2970894,0.3669 -0.2970895,0.3669 0,0.912 0,0.9121 0.3384621,0.3384 0.3384621,0.3385 1.2430041,0 z m 0.6085499,-0.3385 c 0.087584,0 0.2057702,-0.075 0.2626361,-0.1673 l 0.1033925,-0.1673 -0.2626361,0.1008 c -0.1444498,0.055 -0.2626361,0.1307 -0.2626361,0.1673 0,0.037 0.07166,0.067 0.1592436,0.067 z m 0.4430526,-0.6769 c 0.1341225,0 0.2438591,-0.029 0.2438591,-0.065 0,-0.036 -0.1524131,-0.1047 -0.3386957,-0.1534 l -0.3386956,-0.089 0.094837,0.1534 c 0.05216,0.084 0.2045731,0.1535 0.3386956,0.1535 z m -1.796901,-0.1692 c 0.087584,0 0.2057703,-0.075 0.2626361,-0.1673 l 0.1033926,-0.1673 -0.2626361,0.1008 c -0.1444499,0.055 -0.2626361,0.1307 -0.2626361,0.1673 0,0.037 0.071659,0.067 0.1592435,0.067 z m 2.1635683,-0.1693 c 0.036519,0 0.022894,-0.07 -0.030277,-0.1564 l -0.096675,-0.1564 0.2982262,-0.078 0.2982262,-0.078 -0.3807698,-0.02 -0.3807699,-0.02 0,0.1411 c 0,0.078 0.050769,0.1918 0.1128208,0.2538 0.062051,0.062 0.1426997,0.1128 0.1792185,0.1128 z m -1.1381945,-0.1692 0.2256413,0 -0.1128205,-0.1128 -0.1128208,-0.1128 -0.1128208,0.1128 -0.1128205,0.1128 0.2256413,0 z m 0.5076931,0 0.2256414,0 -0.1128206,-0.1128 -0.1128208,-0.1128 -0.1128207,0.1128 -0.1128206,0.1128 0.2256413,0 z m -0.1833335,-0.3518 0.2679491,-0.013 -0.2186022,-0.088 -0.2186022,-0.088 0.1970159,-0.2374 0.1970158,-0.2374 -0.1692311,0 c -0.093077,0 -0.254049,0.1022 -0.3577152,0.2271 l -0.1884842,0.2271 0.1113525,0.1114 c 0.061244,0.061 0.2319294,0.1053 0.3793016,0.098 z m 2.608138,-0.579 0.6072653,-0.6769 0.00705,-0.8038 0.00704,-0.8039 -0.1497677,0 c -0.082372,0 -0.2622386,0.1717 -0.399703,0.3815 -0.1374641,0.2098 -0.2930973,0.6476 -0.3458514,0.973 -0.052754,0.3254 -0.1493271,0.8201 -0.2146067,1.0994 l -0.1186906,0.5077 0.6072651,-0.677 z m -1.4840462,0.4231 c 0.041046,0 0.074628,-0.076 0.074628,-0.1692 l 0,-0.1693 -0.1792186,0 -0.1792185,0 0.1045905,0.1693 c 0.057525,0.093 0.1381731,0.1692 0.1792186,0.1692 z m -0.577645,-0.7615 0.4892517,0 -0.2892964,-0.2116 c -0.1591132,-0.1163 -0.3427477,-0.2115 -0.4080768,-0.2115 -0.065329,0 -0.1553089,0.095 -0.1999551,0.2115 l -0.081175,0.2116 0.4892517,0 z m 0.5253497,-0.4567 0.1269233,0.034 0,-1.0154 0,-1.0154 -0.3546688,0 -0.354669,0 -0.9895669,0.8039 c -0.5442618,0.4421 -0.9938926,0.8576 -0.9991793,0.9233 l -0.00961,0.1195 1.2269251,0.058 c 0.6748088,0.032 1.2840405,0.074 1.3538483,0.092 z"
         id="path3446" />
      <path
         style="fill:#5c5c5e"
         d="m 7.0230705,1050.0238 -0.2538466,0 0,-2.0308 0,-2.0308 -0.9858869,0 -0.9858869,0 -0.3679615,-0.3917 -0.3679614,-0.3916 0,-0.9484 c 0,-0.5216 0.045466,-1.0668 0.1010344,-1.2116 l 0.1010345,-0.2633 1.4472218,-1.2187 1.4472219,-1.2187 1.2017481,-0.1004 c 0.6609616,-0.055 1.28683,-0.1544 1.3908189,-0.2203 l 0.1890705,-0.1198 0.1070837,0.7813 c 0.0589,0.4296 0.107084,1.0754 0.107084,1.435 l 0,0.6538 -1.2062004,1.4803 c -0.6634102,0.8141 -1.310719,1.5412 -1.4384639,1.6156 l -0.2322637,0.1353 0,2.0224 0,2.0224 -0.2538465,0 z m -0.872384,-4.2308 1.2430042,0 0.2936742,-0.3245 0.2936743,-0.3245 -0.055907,-0.3948 -0.055907,-0.3947 -0.3040942,0.6346 -0.3040943,0.6346 -0.9518132,0 -0.9518133,0 -0.3094796,-0.28 c -0.1702139,-0.1541 -0.3094797,-0.3565 -0.3094797,-0.4498 0,-0.093 0.4759623,-0.6337 1.057694,-1.2007 l 1.057694,-1.031 -1.0144511,-0.052 -1.0144512,-0.052 -0.2970894,0.3669 -0.2970895,0.3669 0,0.912 0,0.9121 0.3384621,0.3384 0.3384621,0.3385 1.2430041,0 z m 0.6085499,-0.3385 c 0.087584,0 0.2057702,-0.075 0.2626361,-0.1673 l 0.1033925,-0.1673 -0.2626361,0.1008 c -0.1444498,0.055 -0.2626361,0.1307 -0.2626361,0.1673 0,0.037 0.07166,0.067 0.1592436,0.067 z m 0.4430526,-0.6769 c 0.1341225,0 0.2438591,-0.029 0.2438591,-0.065 0,-0.036 -0.1524131,-0.1047 -0.3386957,-0.1534 l -0.3386956,-0.089 0.094837,0.1534 c 0.05216,0.084 0.2045731,0.1535 0.3386956,0.1535 z m -1.796901,-0.1692 c 0.087584,0 0.2057703,-0.075 0.2626361,-0.1673 l 0.1033926,-0.1673 -0.2626361,0.1008 c -0.1444499,0.055 -0.2626361,0.1307 -0.2626361,0.1673 0,0.037 0.071659,0.067 0.1592435,0.067 z m 2.1635683,-0.1693 c 0.036519,0 0.022894,-0.07 -0.030277,-0.1564 l -0.096675,-0.1564 0.2982262,-0.078 0.2982262,-0.078 -0.3807698,-0.02 -0.3807699,-0.02 0,0.1411 c 0,0.078 0.050769,0.1918 0.1128208,0.2538 0.062051,0.062 0.1426997,0.1128 0.1792185,0.1128 z m -1.1381945,-0.1692 0.2256413,0 -0.1128205,-0.1128 -0.1128208,-0.1128 -0.1128208,0.1128 -0.1128205,0.1128 0.2256413,0 z m 0.5076931,0 0.2256414,0 -0.1128206,-0.1128 -0.1128208,-0.1128 -0.1128207,0.1128 -0.1128206,0.1128 0.2256413,0 z m -0.1833335,-0.3518 0.2679491,-0.013 -0.2186022,-0.088 -0.2186022,-0.088 0.1970159,-0.2374 0.1970158,-0.2374 -0.1692311,0 c -0.093077,0 -0.254049,0.1022 -0.3577152,0.2271 l -0.1884842,0.2271 0.1113525,0.1114 c 0.061244,0.061 0.2319294,0.1053 0.3793016,0.098 z m 2.608138,-0.579 0.6072653,-0.6769 0.00705,-0.8038 0.00704,-0.8039 -0.1497677,0 c -0.082372,0 -0.2622386,0.1717 -0.399703,0.3815 -0.1374641,0.2098 -0.2930973,0.6476 -0.3458514,0.973 -0.052754,0.3254 -0.1493271,0.8201 -0.2146067,1.0994 l -0.1186906,0.5077 0.6072651,-0.677 z m -1.4840462,0.4231 c 0.041046,0 0.074628,-0.076 0.074628,-0.1692 l 0,-0.1693 -0.1792186,0 -0.1792185,0 0.1045905,0.1693 c 0.057525,0.093 0.1381731,0.1692 0.1792186,0.1692 z m -0.577645,-0.7615 0.4892517,0 -0.2892964,-0.2116 c -0.1591132,-0.1163 -0.3427477,-0.2115 -0.4080768,-0.2115 -0.065329,0 -0.1553089,0.095 -0.1999551,0.2115 l -0.081175,0.2116 0.4892517,0 z m 0.6427972,-0.2539 c 0.076879,0 0.2627698,-0.1877 0.4130901,-0.4171 l 0.2733099,-0.4171 0,-0.6829 0,-0.6829 -0.6931309,0 -0.6931311,0 -0.9895669,0.8039 c -0.5442618,0.4421 -0.9938926,0.8609 -0.9991793,0.9307 l -0.00961,0.127 1.1746298,0 1.1746298,0 0.1045905,0.1692 c 0.057525,0.093 0.1674917,0.1692 0.2443708,0.1692 z m 1.2787086,-1.5231 c 0.046539,0 0.084616,-0.038 0.084616,-0.085 0,-0.047 -0.038077,-0.085 -0.084616,-0.085 -0.046539,0 -0.084615,0.038 -0.084615,0.085 0,0.047 0.038077,0.085 0.084615,0.085 z"
         id="path3444" />
      <path
         style="fill:#00a31e"
         d="m 7.0230705,1050.0238 -0.2538466,0 0,-2.0224 0,-2.0223 -0.9730785,-0.061 -0.9730785,-0.061 1.2853118,-0.032 1.285312,-0.032 0.2936742,-0.3245 0.2936743,-0.3245 -0.055907,-0.3948 -0.055907,-0.3947 -0.3750626,0.6346 -0.3750623,0.6346 -0.902632,0 -0.9026319,0 -0.2030772,-0.203 -0.2030773,-0.2031 0,-0.3016 0,-0.3015 0.9307707,-0.8823 c 0.511924,-0.4852 0.9307708,-0.9435 0.9307708,-1.0184 l 0,-0.1362 -0.9597531,0 -0.9597532,0 -0.3334519,0.2961 -0.3334519,0.2962 0.2146617,-0.3385 c 0.118064,-0.1861 0.7098599,-0.7573 1.3151022,-1.2692 0.6052423,-0.5119 1.2619333,-1.0233 1.4593132,-1.1363 l 0.3588727,-0.2056 0.8995884,-0.01 0.8995886,-0.01 0.3306119,-0.177 0.330612,-0.1769 0.00232,0.4731 c 0.00127,0.2602 0.044068,0.8962 0.095099,1.4133 l 0.09279,0.9403 -1.2758808,1.5415 c -0.7017343,0.8478 -1.355235,1.5906 -1.4522235,1.6505 l -0.1763427,0.109 0,2.0208 0,2.0208 -0.2538465,0 z m -1.1705148,-4.5826 0.3243595,-0.013 -0.2221157,-0.089 -0.2221158,-0.089 -0.1022438,0.1023 -0.1022436,0.1022 0.3243594,-0.013 z m 0.9589759,0.011 0.2961544,0 0,-0.3484 0,-0.3485 0.1570471,0.097 0.1570469,0.097 0.1082036,-0.3409 0.1082036,-0.3409 0.1578271,0 0.1578269,0 0,-0.5367 0,-0.5367 -0.2800753,-0.3094 -0.2800752,-0.3095 -0.227618,0 -0.2276178,0 0,0.1512 c 0,0.083 -0.4325716,0.5703 -0.9612702,1.0824 l -0.9612703,0.9311 0.4633924,-0.089 0.4633925,-0.089 -0.081206,-0.2117 -0.081206,-0.2116 0.180686,-0.1807 0.1806861,-0.1807 0.5253213,0.079 0.5253214,0.079 -0.3260888,-0.1429 -0.3260889,-0.1428 0.2976221,-0.1142 c 0.1636921,-0.063 0.4101189,-0.1143 0.5476151,-0.1143 l 0.2499931,0 -0.1045905,0.1693 -0.1045906,0.1692 0.2215264,0.012 0.2215263,0.012 -0.3384621,0.1454 c -0.1861542,0.08 -0.5859625,0.1508 -0.888463,0.1574 l -0.5500009,0.012 0.013361,0.2961 0.013361,0.2962 0.085358,-0.2116 0.085357,-0.2115 0.4512827,0.02 0.4512828,0.02 -0.2905171,0.076 -0.2905169,0.076 0.2059014,0.3323 0.2059016,0.3323 -0.2538466,0.1615 -0.2538466,0.1614 0.2961543,0 z m 0.4553979,-2.1974 -0.3484496,0 0.1000227,-0.1618 0.1000226,-0.1619 0.248427,0.095 c 0.1366347,0.052 0.2484269,0.1252 0.2484269,0.1618 0,0.037 -0.1568024,0.066 -0.3484496,0.066 z m -2.1054005,1.8616 c 0.046539,0 0.084615,-0.038 0.084615,-0.085 0,-0.047 -0.038077,-0.085 -0.084615,-0.085 -0.046539,0 -0.084616,0.038 -0.084616,0.085 0,0.047 0.038077,0.085 0.084616,0.085 z m 0.4130901,0 c 0.087584,0 0.198465,-0.063 0.2464022,-0.1411 l 0.087159,-0.141 -0.2464024,0 -0.2464023,0 0,0.141 c 0,0.078 0.07166,0.1411 0.1592436,0.1411 z m 0.9407582,-0.1693 c 0.046539,0 0.084615,-0.038 0.084615,-0.085 0,-0.046 -0.038077,-0.085 -0.084615,-0.085 -0.046538,0 -0.084615,0.038 -0.084615,0.085 0,0.046 0.038077,0.085 0.084615,0.085 z m 2.7144161,-1.4125 0.7548203,-0.8202 0,-0.8298 0,-0.8298 -0.1596349,0 c -0.087799,0 -0.2781842,0.1693 -0.4230776,0.3761 l -0.2634427,0.3761 0,0.534 0,0.5339 -0.2407819,0.1998 -0.2407818,0.1999 -0.074634,-0.3907 -0.074634,-0.3906 -0.016327,0.9307 -0.016327,0.9308 0.7548202,-0.8202 z m -1.2672102,-0.7875 c 0.066859,0 0.244552,-0.1877 0.3948723,-0.4171 l 0.2733099,-0.4171 0,-0.6829 0,-0.6829 -0.7199456,0 -0.7199454,0 -1.0866378,0.8885 -1.0866378,0.8884 1.2854481,0.085 1.2854478,0.085 0.126263,0.1269 c 0.069444,0.07 0.180966,0.1269 0.2478255,0.1269 z m 1.2604908,-1.5231 c 0.046539,0 0.084616,-0.038 0.084616,-0.085 0,-0.047 -0.038077,-0.085 -0.084616,-0.085 -0.046539,0 -0.084615,0.038 -0.084615,0.085 0,0.047 0.038077,0.085 0.084615,0.085 z m -4.5485167,4.5693 c -0.035142,0 -0.1684112,-0.1333 -0.2961543,-0.2962 l -0.2322603,-0.2961 0.2961543,0.2322 c 0.1628849,0.1278 0.2961544,0.261 0.2961544,0.2962 0,0.035 -0.028752,0.064 -0.063894,0.064 z m -0.4903831,-1.1454 -0.068481,0.5531 -0.00173,-1.0154 -0.00173,-1.0154 0.070208,0.4624 c 0.038614,0.2542 0.039391,0.7112 0.00173,1.0153 z"
         id="path3442" />
      <path
         style="fill:#23305d"
         d="m 7.0230705,1050.0238 -0.2538466,0 0,-2.0224 0,-2.0223 -0.9730785,-0.061 -0.9730785,-0.061 1.2853118,-0.032 1.285312,-0.032 0.2936742,-0.3245 0.2936743,-0.3245 -0.055907,-0.3948 -0.055907,-0.3947 -0.3750626,0.6346 -0.3750623,0.6346 -0.902632,0 -0.9026319,0 -0.2030772,-0.203 -0.2030773,-0.2031 0,-0.3016 0,-0.3015 0.9307707,-0.8823 c 0.511924,-0.4852 0.9307708,-0.9435 0.9307708,-1.0184 l 0,-0.1362 -0.9597531,0 -0.9597532,0 -0.3334519,0.2961 -0.3334519,0.2962 0.2146617,-0.3385 c 0.118064,-0.1861 0.7098599,-0.7573 1.3151022,-1.2692 0.6052423,-0.5119 1.2619333,-1.0233 1.4593132,-1.1363 l 0.3588727,-0.2056 0.9307707,-8e-4 0.9307708,-9e-4 -0.2961543,0.1725 -0.2961544,0.1725 0.031305,1.1339 0.031305,1.1339 0.062308,-0.8929 0.062308,-0.8928 0.1644264,0.1016 0.1644266,0.1016 -0.046501,-0.1699 -0.046501,-0.1698 0.3384621,-0.2626 0.3384621,-0.2626 -0.2257281,-0.1489 -0.2257282,-0.1489 0.2703882,-0.1037 0.2703881,-0.1038 0.00324,0.461 c 0.00178,0.2535 0.044992,0.8841 0.096023,1.4012 l 0.09278,0.9403 -1.2758807,1.5415 c -0.7017343,0.8478 -1.3552351,1.5906 -1.4522236,1.6505 l -0.1763435,0.109 0,2.0208 0,2.0208 -0.2538465,0 z m -1.1705148,-4.5826 0.3243595,-0.013 -0.2221157,-0.089 -0.2221158,-0.089 -0.1022438,0.1023 -0.1022436,0.1022 0.3243594,-0.013 z m 0.9589759,0.011 0.2961544,0 0,-0.3484 0,-0.3485 0.1570471,0.097 0.1570469,0.097 0.1082036,-0.3409 0.1082036,-0.3409 0.1578271,0 0.1578269,0 0,-0.5367 0,-0.5367 -0.2800753,-0.3094 -0.2800752,-0.3095 -0.227618,0 -0.2276178,0 0,0.1512 c 0,0.083 -0.4325716,0.5703 -0.9612702,1.0824 l -0.9612703,0.9311 0.4633924,-0.089 0.4633925,-0.089 -0.081206,-0.2117 -0.081206,-0.2116 0.180686,-0.1807 0.1806861,-0.1807 0.5253213,0.079 0.5253214,0.079 -0.3260888,-0.1429 -0.3260889,-0.1428 0.2976221,-0.1142 c 0.1636921,-0.063 0.4101189,-0.1143 0.5476151,-0.1143 l 0.2499931,0 -0.1045905,0.1693 -0.1045906,0.1692 0.2215264,0.012 0.2215263,0.012 -0.3384621,0.1454 c -0.1861542,0.08 -0.5859625,0.1508 -0.888463,0.1574 l -0.5500009,0.012 0.013361,0.2961 0.013361,0.2962 0.085358,-0.2116 0.085357,-0.2115 0.4512827,0.02 0.4512828,0.02 -0.2905171,0.076 -0.2905169,0.076 0.2059014,0.3323 0.2059016,0.3323 -0.2538466,0.1615 -0.2538466,0.1614 0.2961543,0 z m 0.4553979,-2.1974 -0.3484496,0 0.1000227,-0.1618 0.1000226,-0.1619 0.248427,0.095 c 0.1366347,0.052 0.2484269,0.1252 0.2484269,0.1618 0,0.037 -0.1568024,0.066 -0.3484496,0.066 z m -2.1054005,1.8616 c 0.046539,0 0.084615,-0.038 0.084615,-0.085 0,-0.047 -0.038077,-0.085 -0.084615,-0.085 -0.046539,0 -0.084616,0.038 -0.084616,0.085 0,0.047 0.038077,0.085 0.084616,0.085 z m 0.4130901,0 c 0.087584,0 0.198465,-0.063 0.2464022,-0.1411 l 0.087159,-0.141 -0.2464024,0 -0.2464023,0 0,0.141 c 0,0.078 0.07166,0.1411 0.1592436,0.1411 z m 0.9407582,-0.1693 c 0.046539,0 0.084615,-0.038 0.084615,-0.085 0,-0.046 -0.038077,-0.085 -0.084615,-0.085 -0.046538,0 -0.084615,0.038 -0.084615,0.085 0,0.046 0.038077,0.085 0.084615,0.085 z m 2.7144161,-1.4125 0.7548203,-0.8202 0,-0.8298 0,-0.8298 -0.1596349,0 c -0.087799,0 -0.2781842,0.1693 -0.4230776,0.3761 l -0.2634427,0.3761 0,0.534 0,0.5339 -0.2407819,0.1998 -0.2407818,0.1999 -0.074634,-0.3907 -0.074634,-0.3906 -0.016327,0.9307 -0.016327,0.9308 0.7548202,-0.8202 z m -1.2672102,-0.7875 c 0.066859,0 0.244552,-0.1877 0.3948723,-0.4171 l 0.2733099,-0.4171 0,-0.6829 0,-0.6829 -0.7199456,0 -0.7199454,0 -1.0866378,0.8885 -1.0866378,0.8884 1.2854481,0.085 1.2854478,0.085 0.126263,0.1269 c 0.069444,0.07 0.180966,0.1269 0.2478255,0.1269 z m -3.2880259,3.0462 c -0.035142,0 -0.1684112,-0.1333 -0.2961543,-0.2962 l -0.2322603,-0.2961 0.2961543,0.2322 c 0.1628849,0.1278 0.2961544,0.261 0.2961544,0.2962 0,0.035 -0.028752,0.064 -0.063894,0.064 z m -0.4903831,-1.1454 -0.068481,0.5531 -0.00173,-1.0154 -0.00173,-1.0154 0.070208,0.4624 c 0.038614,0.2542 0.039391,0.7112 0.00173,1.0153 z"
         id="path3440" />
      <path
         style="fill:#2f2f30"
         d="m 7.0230705,1050.0238 -0.2538466,0 0,-2.0224 0,-2.0223 -0.9730785,-0.061 -0.9730785,-0.061 1.2853118,-0.032 1.285312,-0.032 0.2936742,-0.3245 0.2936743,-0.3245 -0.055907,-0.3948 -0.055907,-0.3947 -0.3750626,0.6346 -0.3750623,0.6346 -0.902632,0 -0.9026319,0 -0.2030772,-0.203 -0.2030773,-0.2031 0,-0.3016 0,-0.3015 0.9307707,-0.8823 c 0.511924,-0.4852 0.9307708,-0.9435 0.9307708,-1.0184 l 0,-0.1362 -0.9597531,0 -0.9597532,0 -0.3334519,0.2961 -0.3334519,0.2962 0.2162696,-0.3385 c 0.1189482,-0.1861 0.758006,-0.7831 1.4201283,-1.3266 l 1.2038588,-0.9882 -1.0153863,0.9456 -1.0153863,0.9455 1.153435,4e-4 1.1534351,3e-4 0.358783,0.192 0.3587831,0.192 0.3916312,-0.4553 0.3916311,-0.4553 0,0.334 c 0,0.1838 0.046225,0.4546 0.1027214,0.6018 l 0.1027214,0.2677 -0.1755667,0 -0.1755667,0 -0.057798,-0.3808 -0.057798,-0.3808 -0.2164873,0.3859 -0.2164872,0.3858 0.050976,0.8708 0.050976,0.8707 0.888463,-1.0866 0.8884629,-1.0867 0,-0.8045 0,-0.8046 -0.1430022,0 c -0.078651,0 -0.2590992,0.1333 -0.4009952,0.2962 -0.1418958,0.1628 -0.2999947,0.4103 -0.3513304,0.55 l -0.093338,0.2538 -0.013361,-0.5293 -0.01336,-0.5292 0.2961543,-0.2241 0.2961543,-0.2241 -0.2115388,0.2372 c -0.1163463,0.1305 -0.2115388,0.3026 -0.2115388,0.3826 l 0,0.1453 0.1796697,-0.111 c 0.098818,-0.061 0.2540776,-0.3067 0.3450207,-0.5459 l 0.1653507,-0.4349 -0.1899788,-0.1175 -0.1899789,-0.1174 0.2703882,-0.1037 0.2703881,-0.1038 0.00324,0.461 c 0.00178,0.2535 0.044992,0.8841 0.096023,1.4012 l 0.09278,0.9403 -1.2758817,1.5415 c -0.7017343,0.8478 -1.3552351,1.5906 -1.4522236,1.6505 l -0.1763435,0.109 0,2.0208 0,2.0208 -0.2538465,0 z m -1.1705148,-4.5826 0.3243595,-0.013 -0.2221157,-0.089 -0.2221158,-0.089 -0.1022438,0.1023 -0.1022436,0.1022 0.3243594,-0.013 z m 0.9589759,0.011 0.2961544,0 0,-0.3484 0,-0.3485 0.1570471,0.097 0.1570469,0.097 0.1082036,-0.3409 0.1082036,-0.3409 0.1578271,0 0.1578269,0 0,-0.5367 0,-0.5367 -0.2800753,-0.3094 -0.2800752,-0.3095 -0.227618,0 -0.2276178,0 0,0.1512 c 0,0.083 -0.4325716,0.5703 -0.9612702,1.0824 l -0.9612703,0.9311 0.4633924,-0.089 0.4633925,-0.089 -0.081206,-0.2117 -0.081206,-0.2116 0.180686,-0.1807 0.1806861,-0.1807 0.5253213,0.079 0.5253214,0.079 -0.3260888,-0.1429 -0.3260889,-0.1428 0.2976221,-0.1142 c 0.1636921,-0.063 0.4101189,-0.1143 0.5476151,-0.1143 l 0.2499931,0 -0.1045905,0.1693 -0.1045906,0.1692 0.2215264,0.012 0.2215263,0.012 -0.3384621,0.1454 c -0.1861542,0.08 -0.5859625,0.1508 -0.888463,0.1574 l -0.5500009,0.012 0.013361,0.2961 0.013361,0.2962 0.085358,-0.2116 0.085357,-0.2115 0.4512827,0.02 0.4512828,0.02 -0.2905171,0.076 -0.2905169,0.076 0.2059014,0.3323 0.2059016,0.3323 -0.2538466,0.1615 -0.2538466,0.1614 0.2961543,0 z m 0.4553979,-2.1974 -0.3484496,0 0.1000227,-0.1618 0.1000226,-0.1619 0.248427,0.095 c 0.1366347,0.052 0.2484269,0.1252 0.2484269,0.1618 0,0.037 -0.1568024,0.066 -0.3484496,0.066 z m -2.1054005,1.8616 c 0.046539,0 0.084615,-0.038 0.084615,-0.085 0,-0.047 -0.038077,-0.085 -0.084615,-0.085 -0.046539,0 -0.084616,0.038 -0.084616,0.085 0,0.047 0.038077,0.085 0.084616,0.085 z m 0.4130901,0 c 0.087584,0 0.198465,-0.063 0.2464022,-0.1411 l 0.087159,-0.141 -0.2464024,0 -0.2464023,0 0,0.141 c 0,0.078 0.07166,0.1411 0.1592436,0.1411 z m 0.9407582,-0.1693 c 0.046539,0 0.084615,-0.038 0.084615,-0.085 0,-0.046 -0.038077,-0.085 -0.084615,-0.085 -0.046538,0 -0.084615,0.038 -0.084615,0.085 0,0.046 0.038077,0.085 0.084615,0.085 z m -1.84082,0.8462 c -0.035142,0 -0.1684112,-0.1333 -0.2961543,-0.2962 l -0.2322603,-0.2961 0.2961543,0.2322 c 0.1628849,0.1278 0.2961544,0.261 0.2961544,0.2962 0,0.035 -0.028752,0.064 -0.063894,0.064 z m -0.4903831,-1.1454 -0.068481,0.5531 -0.00173,-1.0154 -0.00173,-1.0154 0.070208,0.4624 c 0.038614,0.2542 0.039391,0.7112 0.00173,1.0153 z m 3.0081273,-4.1008 c -0.046539,0 -0.084615,-0.038 -0.084615,-0.085 0,-0.046 0.038077,-0.085 0.084615,-0.085 0.046538,0 0.084615,0.038 0.084615,0.085 0,0.047 -0.038077,0.085 -0.084615,0.085 z m 1.6076949,-0.027 c -0.046538,-0.012 -0.3892314,-0.076 -0.7615397,-0.1426 l -0.6769242,-0.1212 1.0153863,-0.021 1.0153863,-0.021 -0.2538466,0.1641 c -0.1396156,0.09 -0.2919235,0.1544 -0.3384621,0.1426 z"
         id="path3438" />
      <path
         style="fill:#060607"
         d="m 7.0230705,1050.0238 -0.2538466,0 0,-2.0224 0,-2.0223 -0.9730785,-0.061 -0.9730785,-0.061 1.226925,-0.032 1.2269251,-0.032 0,2.1154 0,2.1154 -0.2538465,0 z m -2.3485132,-4.2308 c -0.035142,0 -0.1684112,-0.1333 -0.2961543,-0.2962 l -0.2322603,-0.2961 0.2961543,0.2322 c 0.1628849,0.1278 0.2961544,0.261 0.2961544,0.2962 0,0.035 -0.028752,0.064 -0.063894,0.064 z m 2.8562063,0 c -0.046539,0 -0.084615,-0.038 -0.084615,-0.085 0,-0.047 0.038077,-0.085 0.084615,-0.085 0.046538,0 0.084615,0.038 0.084615,0.085 0,0.046 -0.038077,0.085 -0.084615,0.085 z m -1.8615415,-0.177 c -0.093077,0 -0.3025005,-0.08 -0.4653854,-0.175 l -0.2961543,-0.1725 0,-0.2936 0,-0.2935 0.9694781,-0.925 c 0.5332129,-0.5087 0.7883442,-0.7175 0.5669584,-0.464 l -0.4025196,0.461 0.2368889,0.076 c 0.1302891,0.042 0.3511201,0.1137 0.4907357,0.1603 l 0.2538466,0.085 -0.4653854,0.013 -0.4653854,0.013 0,-0.1792 0,-0.1793 -0.1719915,0.1063 -0.1719916,0.1063 0.1135238,0.1837 0.1135235,0.1837 -0.1727615,-0.1068 -0.1727614,-0.1067 -0.3187715,0.3569 -0.3187716,0.357 0.4230776,-0.1361 c 0.2326927,-0.075 0.5563471,-0.1278 0.719232,-0.1177 l 0.2961543,0.018 0,-0.1587 0,-0.1587 0.1974363,0 0.1974361,0 -0.1113524,0.1114 -0.1113525,0.1113 0.1736042,0.2092 0.1736043,0.2092 -0.2516295,0.2516 -0.2516293,0.2516 0.1047622,0.1048 0.1047619,0.1047 -0.2820516,0 -0.2820518,0 0,-0.1692 0,-0.1692 -0.3807698,0 -0.3807699,0 0.2538466,0.164 0.2538465,0.1641 -0.169231,0 z m -0.4794879,-0.3871 0.1128206,-0.1128 -0.1128206,-0.1129 -0.1128208,-0.1128 0,0.2257 0,0.2256 0.1128208,-0.1128 z m 0.3525646,-0.1154 c 0.069808,0 0.2411543,-0.076 0.3807699,-0.1667 l 0.2538465,-0.164 -0.3807698,0 -0.3807699,0 0,0.1692 c 0,0.093 0.057116,0.1681 0.1269233,0.1667 z m 0.9730785,-0.1667 c 0.046539,0 0.084615,-0.038 0.084615,-0.085 0,-0.046 -0.038077,-0.085 -0.084615,-0.085 -0.046538,0 -0.084615,0.038 -0.084615,0.085 0,0.046 0.038077,0.085 0.084615,0.085 z m 0.4023561,0.6769 -0.1485095,0 0.2961543,-0.3102 c 0.1628849,-0.1707 0.3260448,-0.2867 0.3625777,-0.2579 0.036533,0.029 -0.029907,0.1683 -0.1476448,0.3102 -0.1177374,0.1419 -0.2808973,0.2579 -0.3625777,0.2579 z m 0.9743965,-0.2538 -0.1489499,0.1692 0.174407,-0.3384 c 0.095924,-0.1862 0.3908229,-0.5286 0.6553315,-0.761 l 0.4809245,-0.4224 -0.5063816,0.5917 c -0.27851,0.3254 -0.5734091,0.6678 -0.6553315,0.7609 z m -3.7093902,-0.8038 -0.0705,0.4653 0,-0.9307 0,-0.9308 0.0705,0.4654 c 0.038775,0.2559 0.038775,0.6748 0,0.9308 z m 3.6018705,0 c -0.1861542,0.1162 -0.3384621,0.1843 -0.3384621,0.1512 0,-0.033 0.1523079,-0.2358 0.3384621,-0.4504 l 0.338462,-0.3903 0,0.2391 0,0.239 -0.338462,0.2114 z m -0.5923087,-0.6377 c -0.046539,0 -0.084615,-0.038 -0.084615,-0.085 0,-0.046 0.038077,-0.085 0.084615,-0.085 0.046538,0 0.084615,0.038 0.084615,0.085 0,0.047 -0.038077,0.085 -0.084615,0.085 z m -0.5076931,-0.1692 c -0.046539,0 -0.084616,-0.038 -0.084616,-0.085 0,-0.046 0.038077,-0.085 0.084616,-0.085 0.046538,0 0.084615,0.038 0.084615,0.085 0,0.046 -0.038077,0.085 -0.084615,0.085 z m 1.3927561,-0.4231 -0.072811,0.5077 -0.025356,-0.3545 -0.025356,-0.3546 -0.3321591,-0.3006 -0.3321591,-0.3006 -0.2601495,0.1 -0.2601496,0.1 0,-0.1639 0,-0.1639 0.3177406,0 0.3177407,0 0.2161336,0.2604 0.2161336,0.2604 0.5232049,-0.472 0.5232048,-0.4719 -0.3666035,0.4231 -0.3666035,0.423 -0.072811,0.5077 z m 1.3149406,0.2539 c -0.1396156,0.1158 -0.2538466,0.1726 -0.2538466,0.126 0,-0.047 0.114231,-0.1794 0.2538466,-0.2953 0.1396156,-0.1158 0.2538465,-0.1726 0.2538465,-0.126 0,0.046 -0.1142309,0.1794 -0.2538465,0.2953 z m -2.3692346,0 c -0.046539,0 -0.084616,-0.038 -0.084616,-0.085 0,-0.047 0.038077,-0.085 0.084616,-0.085 0.046538,0 0.084615,0.038 0.084615,0.085 0,0.047 -0.038077,0.085 -0.084615,0.085 z m 0.338462,-0.3385 -0.2538465,0 0,-0.1639 0,-0.1639 0.2538465,0.097 c 0.1396157,0.054 0.2538466,0.1273 0.2538466,0.1639 0,0.037 -0.1142309,0.066 -0.2538466,0.066 z m -3.0461588,-0.1692 c -0.046539,0 -0.084615,-0.038 -0.084615,-0.085 0,-0.047 0.038077,-0.085 0.084615,-0.085 0.046539,0 0.084616,0.038 0.084616,0.085 0,0.046 -0.038077,0.085 -0.084616,0.085 z m 4.5692382,0 c -0.046538,0 -0.084615,-0.038 -0.084615,-0.085 0,-0.047 0.038077,-0.085 0.084615,-0.085 0.046539,0 0.084616,0.038 0.084616,0.085 0,0.046 -0.038077,0.085 -0.084616,0.085 z m -4.1458751,-0.4195 -0.2535611,0.1026 0.4967616,-0.5185 c 0.2732187,-0.2851 0.5241461,-0.5185 0.5576159,-0.5185 0.03347,0 -0.07597,0.1872 -0.2432004,0.4159 -0.1672302,0.2288 -0.4181574,0.4621 -0.557616,0.5185 z m 5.3653092,-0.3844 -0.07334,0.3808 0,-0.7615 0,-0.7616 0.07334,0.3808 c 0.04034,0.2094 0.04034,0.5521 0,0.7615 z m -1.0907073,-0.3948 c -0.024261,0.039 -0.044111,-0.1233 -0.044111,-0.3601 l 0,-0.4305 0.2961543,-0.2241 0.2961543,-0.2241 -0.2115388,0.2372 c -0.1163463,0.1305 -0.2115388,0.3075 -0.2115388,0.3933 l 0,0.1561 0.2961543,-0.2293 0.2961544,-0.2294 -0.3366586,0.4202 c -0.1851623,0.2311 -0.3565087,0.4519 -0.3807699,0.4907 z M 6.1244578,1041.39 c -0.046539,0 0.053221,-0.1523 0.2216885,-0.3385 0.1684671,-0.1861 0.3443809,-0.3385 0.3909195,-0.3385 0.046539,0 -0.053221,0.1524 -0.2216885,0.3385 -0.1684671,0.1862 -0.3443809,0.3385 -0.3909195,0.3385 z m 3.6719167,-0.5077 -0.1144181,0 0.024405,-0.423 0.024405,-0.4229 0.1250275,-2e-4 0.1250278,-10e-5 -0.035015,0.4231 c -0.019258,0.2327 -0.086503,0.4231 -0.149433,0.4231 z m -2.604073,-0.3385 c -0.046539,0 -0.084615,-0.038 -0.084615,-0.085 0,-0.046 0.038077,-0.085 0.084615,-0.085 0.046538,0 0.084615,0.038 0.084615,0.085 0,0.047 -0.038077,0.085 -0.084615,0.085 z m 1.6076949,0 -0.2256413,0 0.1128206,-0.1128 0.1128207,-0.1128 0.1128208,0.1128 0.1128206,0.1128 -0.2256414,0 z m 0.4230776,-0.1692 c -0.046539,0 -0.084615,-0.038 -0.084615,-0.085 0,-0.047 0.038077,-0.085 0.084615,-0.085 0.046539,0 0.084616,0.038 0.084616,0.085 0,0.047 -0.038077,0.085 -0.084616,0.085 z"
         id="path3436" />
    </g>
  </g>
</svg>
