<?xml version="1.0" encoding="UTF-8" standalone="no"?>
<!-- Created with Inkscape (http://www.inkscape.org/) -->

<svg
   xmlns:dc="http://purl.org/dc/elements/1.1/"
   xmlns:cc="http://creativecommons.org/ns#"
   xmlns:rdf="http://www.w3.org/1999/02/22-rdf-syntax-ns#"
   xmlns:svg="http://www.w3.org/2000/svg"
   xmlns="http://www.w3.org/2000/svg"
   xmlns:sodipodi="http://sodipodi.sourceforge.net/DTD/sodipodi-0.dtd"
   xmlns:inkscape="http://www.inkscape.org/namespaces/inkscape"
   width="16"
   height="16"
   id="svg2"
   version="1.1"
   inkscape:version="0.47 r22583"
   sodipodi:docname="MAIL1-32.svg">
  <defs
     id="defs4">
    <inkscape:perspective
       sodipodi:type="inkscape:persp3d"
       inkscape:vp_x="0 : 526.18109 : 1"
       inkscape:vp_y="0 : 1000 : 0"
       inkscape:vp_z="744.09448 : 526.18109 : 1"
       inkscape:persp3d-origin="372.04724 : 350.78739 : 1"
       id="perspective10" />
    <inkscape:perspective
       id="perspective2824"
       inkscape:persp3d-origin="0.5 : 0.33333333 : 1"
       inkscape:vp_z="1 : 0.5 : 1"
       inkscape:vp_y="0 : 1000 : 0"
       inkscape:vp_x="0 : 0.5 : 1"
       sodipodi:type="inkscape:persp3d" />
    <inkscape:perspective
       id="perspective5878"
       inkscape:persp3d-origin="0.5 : 0.33333333 : 1"
       inkscape:vp_z="1 : 0.5 : 1"
       inkscape:vp_y="0 : 1000 : 0"
       inkscape:vp_x="0 : 0.5 : 1"
       sodipodi:type="inkscape:persp3d" />
    <inkscape:perspective
       id="perspective5921"
       inkscape:persp3d-origin="0.5 : 0.33333333 : 1"
       inkscape:vp_z="1 : 0.5 : 1"
       inkscape:vp_y="0 : 1000 : 0"
       inkscape:vp_x="0 : 0.5 : 1"
       sodipodi:type="inkscape:persp3d" />
    <inkscape:perspective
       id="perspective5943"
       inkscape:persp3d-origin="0.5 : 0.33333333 : 1"
       inkscape:vp_z="1 : 0.5 : 1"
       inkscape:vp_y="0 : 1000 : 0"
       inkscape:vp_x="0 : 0.5 : 1"
       sodipodi:type="inkscape:persp3d" />
    <inkscape:perspective
       id="perspective5989"
       inkscape:persp3d-origin="0.5 : 0.33333333 : 1"
       inkscape:vp_z="1 : 0.5 : 1"
       inkscape:vp_y="0 : 1000 : 0"
       inkscape:vp_x="0 : 0.5 : 1"
       sodipodi:type="inkscape:persp3d" />
    <inkscape:perspective
       id="perspective6011"
       inkscape:persp3d-origin="0.5 : 0.33333333 : 1"
       inkscape:vp_z="1 : 0.5 : 1"
       inkscape:vp_y="0 : 1000 : 0"
       inkscape:vp_x="0 : 0.5 : 1"
       sodipodi:type="inkscape:persp3d" />
    <inkscape:perspective
       id="perspective6033"
       inkscape:persp3d-origin="0.5 : 0.33333333 : 1"
       inkscape:vp_z="1 : 0.5 : 1"
       inkscape:vp_y="0 : 1000 : 0"
       inkscape:vp_x="0 : 0.5 : 1"
       sodipodi:type="inkscape:persp3d" />
    <inkscape:perspective
       id="perspective6245"
       inkscape:persp3d-origin="0.5 : 0.33333333 : 1"
       inkscape:vp_z="1 : 0.5 : 1"
       inkscape:vp_y="0 : 1000 : 0"
       inkscape:vp_x="0 : 0.5 : 1"
       sodipodi:type="inkscape:persp3d" />
    <inkscape:perspective
       id="perspective6269"
       inkscape:persp3d-origin="0.5 : 0.33333333 : 1"
       inkscape:vp_z="1 : 0.5 : 1"
       inkscape:vp_y="0 : 1000 : 0"
       inkscape:vp_x="0 : 0.5 : 1"
       sodipodi:type="inkscape:persp3d" />
    <inkscape:perspective
       id="perspective6364"
       inkscape:persp3d-origin="0.5 : 0.33333333 : 1"
       inkscape:vp_z="1 : 0.5 : 1"
       inkscape:vp_y="0 : 1000 : 0"
       inkscape:vp_x="0 : 0.5 : 1"
       sodipodi:type="inkscape:persp3d" />
    <inkscape:perspective
       id="perspective6396"
       inkscape:persp3d-origin="0.5 : 0.33333333 : 1"
       inkscape:vp_z="1 : 0.5 : 1"
       inkscape:vp_y="0 : 1000 : 0"
       inkscape:vp_x="0 : 0.5 : 1"
       sodipodi:type="inkscape:persp3d" />
    <inkscape:perspective
       id="perspective6438"
       inkscape:persp3d-origin="0.5 : 0.33333333 : 1"
       inkscape:vp_z="1 : 0.5 : 1"
       inkscape:vp_y="0 : 1000 : 0"
       inkscape:vp_x="0 : 0.5 : 1"
       sodipodi:type="inkscape:persp3d" />
    <inkscape:perspective
       id="perspective6460"
       inkscape:persp3d-origin="0.5 : 0.33333333 : 1"
       inkscape:vp_z="1 : 0.5 : 1"
       inkscape:vp_y="0 : 1000 : 0"
       inkscape:vp_x="0 : 0.5 : 1"
       sodipodi:type="inkscape:persp3d" />
    <inkscape:perspective
       id="perspective6480"
       inkscape:persp3d-origin="0.5 : 0.33333333 : 1"
       inkscape:vp_z="1 : 0.5 : 1"
       inkscape:vp_y="0 : 1000 : 0"
       inkscape:vp_x="0 : 0.5 : 1"
       sodipodi:type="inkscape:persp3d" />
    <inkscape:perspective
       id="perspective6504"
       inkscape:persp3d-origin="0.5 : 0.33333333 : 1"
       inkscape:vp_z="1 : 0.5 : 1"
       inkscape:vp_y="0 : 1000 : 0"
       inkscape:vp_x="0 : 0.5 : 1"
       sodipodi:type="inkscape:persp3d" />
    <inkscape:perspective
       id="perspective6524"
       inkscape:persp3d-origin="0.5 : 0.33333333 : 1"
       inkscape:vp_z="1 : 0.5 : 1"
       inkscape:vp_y="0 : 1000 : 0"
       inkscape:vp_x="0 : 0.5 : 1"
       sodipodi:type="inkscape:persp3d" />
    <inkscape:perspective
       id="perspective6548"
       inkscape:persp3d-origin="0.5 : 0.33333333 : 1"
       inkscape:vp_z="1 : 0.5 : 1"
       inkscape:vp_y="0 : 1000 : 0"
       inkscape:vp_x="0 : 0.5 : 1"
       sodipodi:type="inkscape:persp3d" />
    <inkscape:perspective
       id="perspective6572"
       inkscape:persp3d-origin="0.5 : 0.33333333 : 1"
       inkscape:vp_z="1 : 0.5 : 1"
       inkscape:vp_y="0 : 1000 : 0"
       inkscape:vp_x="0 : 0.5 : 1"
       sodipodi:type="inkscape:persp3d" />
    <inkscape:perspective
       id="perspective6594"
       inkscape:persp3d-origin="0.5 : 0.33333333 : 1"
       inkscape:vp_z="1 : 0.5 : 1"
       inkscape:vp_y="0 : 1000 : 0"
       inkscape:vp_x="0 : 0.5 : 1"
       sodipodi:type="inkscape:persp3d" />
    <inkscape:perspective
       id="perspective6614"
       inkscape:persp3d-origin="0.5 : 0.33333333 : 1"
       inkscape:vp_z="1 : 0.5 : 1"
       inkscape:vp_y="0 : 1000 : 0"
       inkscape:vp_x="0 : 0.5 : 1"
       sodipodi:type="inkscape:persp3d" />
    <inkscape:perspective
       id="perspective6650"
       inkscape:persp3d-origin="0.5 : 0.33333333 : 1"
       inkscape:vp_z="1 : 0.5 : 1"
       inkscape:vp_y="0 : 1000 : 0"
       inkscape:vp_x="0 : 0.5 : 1"
       sodipodi:type="inkscape:persp3d" />
    <inkscape:perspective
       id="perspective6676"
       inkscape:persp3d-origin="0.5 : 0.33333333 : 1"
       inkscape:vp_z="1 : 0.5 : 1"
       inkscape:vp_y="0 : 1000 : 0"
       inkscape:vp_x="0 : 0.5 : 1"
       sodipodi:type="inkscape:persp3d" />
    <inkscape:perspective
       id="perspective6710"
       inkscape:persp3d-origin="0.5 : 0.33333333 : 1"
       inkscape:vp_z="1 : 0.5 : 1"
       inkscape:vp_y="0 : 1000 : 0"
       inkscape:vp_x="0 : 0.5 : 1"
       sodipodi:type="inkscape:persp3d" />
    <inkscape:perspective
       id="perspective6748"
       inkscape:persp3d-origin="0.5 : 0.33333333 : 1"
       inkscape:vp_z="1 : 0.5 : 1"
       inkscape:vp_y="0 : 1000 : 0"
       inkscape:vp_x="0 : 0.5 : 1"
       sodipodi:type="inkscape:persp3d" />
    <inkscape:perspective
       id="perspective6786"
       inkscape:persp3d-origin="0.5 : 0.33333333 : 1"
       inkscape:vp_z="1 : 0.5 : 1"
       inkscape:vp_y="0 : 1000 : 0"
       inkscape:vp_x="0 : 0.5 : 1"
       sodipodi:type="inkscape:persp3d" />
    <inkscape:perspective
       id="perspective6810"
       inkscape:persp3d-origin="0.5 : 0.33333333 : 1"
       inkscape:vp_z="1 : 0.5 : 1"
       inkscape:vp_y="0 : 1000 : 0"
       inkscape:vp_x="0 : 0.5 : 1"
       sodipodi:type="inkscape:persp3d" />
    <inkscape:perspective
       id="perspective6848"
       inkscape:persp3d-origin="0.5 : 0.33333333 : 1"
       inkscape:vp_z="1 : 0.5 : 1"
       inkscape:vp_y="0 : 1000 : 0"
       inkscape:vp_x="0 : 0.5 : 1"
       sodipodi:type="inkscape:persp3d" />
    <inkscape:perspective
       id="perspective6870"
       inkscape:persp3d-origin="0.5 : 0.33333333 : 1"
       inkscape:vp_z="1 : 0.5 : 1"
       inkscape:vp_y="0 : 1000 : 0"
       inkscape:vp_x="0 : 0.5 : 1"
       sodipodi:type="inkscape:persp3d" />
    <inkscape:perspective
       id="perspective6908"
       inkscape:persp3d-origin="0.5 : 0.33333333 : 1"
       inkscape:vp_z="1 : 0.5 : 1"
       inkscape:vp_y="0 : 1000 : 0"
       inkscape:vp_x="0 : 0.5 : 1"
       sodipodi:type="inkscape:persp3d" />
    <inkscape:perspective
       id="perspective6946"
       inkscape:persp3d-origin="0.5 : 0.33333333 : 1"
       inkscape:vp_z="1 : 0.5 : 1"
       inkscape:vp_y="0 : 1000 : 0"
       inkscape:vp_x="0 : 0.5 : 1"
       sodipodi:type="inkscape:persp3d" />
    <inkscape:perspective
       id="perspective6970"
       inkscape:persp3d-origin="0.5 : 0.33333333 : 1"
       inkscape:vp_z="1 : 0.5 : 1"
       inkscape:vp_y="0 : 1000 : 0"
       inkscape:vp_x="0 : 0.5 : 1"
       sodipodi:type="inkscape:persp3d" />
    <inkscape:perspective
       id="perspective7008"
       inkscape:persp3d-origin="0.5 : 0.33333333 : 1"
       inkscape:vp_z="1 : 0.5 : 1"
       inkscape:vp_y="0 : 1000 : 0"
       inkscape:vp_x="0 : 0.5 : 1"
       sodipodi:type="inkscape:persp3d" />
    <inkscape:perspective
       id="perspective7036"
       inkscape:persp3d-origin="0.5 : 0.33333333 : 1"
       inkscape:vp_z="1 : 0.5 : 1"
       inkscape:vp_y="0 : 1000 : 0"
       inkscape:vp_x="0 : 0.5 : 1"
       sodipodi:type="inkscape:persp3d" />
    <inkscape:perspective
       id="perspective7060"
       inkscape:persp3d-origin="0.5 : 0.33333333 : 1"
       inkscape:vp_z="1 : 0.5 : 1"
       inkscape:vp_y="0 : 1000 : 0"
       inkscape:vp_x="0 : 0.5 : 1"
       sodipodi:type="inkscape:persp3d" />
    <inkscape:perspective
       id="perspective7098"
       inkscape:persp3d-origin="0.5 : 0.33333333 : 1"
       inkscape:vp_z="1 : 0.5 : 1"
       inkscape:vp_y="0 : 1000 : 0"
       inkscape:vp_x="0 : 0.5 : 1"
       sodipodi:type="inkscape:persp3d" />
    <inkscape:perspective
       id="perspective7136"
       inkscape:persp3d-origin="0.5 : 0.33333333 : 1"
       inkscape:vp_z="1 : 0.5 : 1"
       inkscape:vp_y="0 : 1000 : 0"
       inkscape:vp_x="0 : 0.5 : 1"
       sodipodi:type="inkscape:persp3d" />
    <inkscape:perspective
       id="perspective7174"
       inkscape:persp3d-origin="0.5 : 0.33333333 : 1"
       inkscape:vp_z="1 : 0.5 : 1"
       inkscape:vp_y="0 : 1000 : 0"
       inkscape:vp_x="0 : 0.5 : 1"
       sodipodi:type="inkscape:persp3d" />
    <inkscape:perspective
       id="perspective7212"
       inkscape:persp3d-origin="0.5 : 0.33333333 : 1"
       inkscape:vp_z="1 : 0.5 : 1"
       inkscape:vp_y="0 : 1000 : 0"
       inkscape:vp_x="0 : 0.5 : 1"
       sodipodi:type="inkscape:persp3d" />
    <inkscape:perspective
       id="perspective7234"
       inkscape:persp3d-origin="0.5 : 0.33333333 : 1"
       inkscape:vp_z="1 : 0.5 : 1"
       inkscape:vp_y="0 : 1000 : 0"
       inkscape:vp_x="0 : 0.5 : 1"
       sodipodi:type="inkscape:persp3d" />
    <inkscape:perspective
       id="perspective7272"
       inkscape:persp3d-origin="0.5 : 0.33333333 : 1"
       inkscape:vp_z="1 : 0.5 : 1"
       inkscape:vp_y="0 : 1000 : 0"
       inkscape:vp_x="0 : 0.5 : 1"
       sodipodi:type="inkscape:persp3d" />
    <inkscape:perspective
       id="perspective7294"
       inkscape:persp3d-origin="0.5 : 0.33333333 : 1"
       inkscape:vp_z="1 : 0.5 : 1"
       inkscape:vp_y="0 : 1000 : 0"
       inkscape:vp_x="0 : 0.5 : 1"
       sodipodi:type="inkscape:persp3d" />
    <inkscape:perspective
       id="perspective7330"
       inkscape:persp3d-origin="0.5 : 0.33333333 : 1"
       inkscape:vp_z="1 : 0.5 : 1"
       inkscape:vp_y="0 : 1000 : 0"
       inkscape:vp_x="0 : 0.5 : 1"
       sodipodi:type="inkscape:persp3d" />
    <inkscape:perspective
       id="perspective3068"
       inkscape:persp3d-origin="0.5 : 0.33333333 : 1"
       inkscape:vp_z="1 : 0.5 : 1"
       inkscape:vp_y="0 : 1000 : 0"
       inkscape:vp_x="0 : 0.5 : 1"
       sodipodi:type="inkscape:persp3d" />
    <inkscape:perspective
       id="perspective3106"
       inkscape:persp3d-origin="0.5 : 0.33333333 : 1"
       inkscape:vp_z="1 : 0.5 : 1"
       inkscape:vp_y="0 : 1000 : 0"
       inkscape:vp_x="0 : 0.5 : 1"
       sodipodi:type="inkscape:persp3d" />
    <inkscape:perspective
       id="perspective3128"
       inkscape:persp3d-origin="0.5 : 0.33333333 : 1"
       inkscape:vp_z="1 : 0.5 : 1"
       inkscape:vp_y="0 : 1000 : 0"
       inkscape:vp_x="0 : 0.5 : 1"
       sodipodi:type="inkscape:persp3d" />
    <inkscape:perspective
       id="perspective3152"
       inkscape:persp3d-origin="0.5 : 0.33333333 : 1"
       inkscape:vp_z="1 : 0.5 : 1"
       inkscape:vp_y="0 : 1000 : 0"
       inkscape:vp_x="0 : 0.5 : 1"
       sodipodi:type="inkscape:persp3d" />
    <inkscape:perspective
       id="perspective3174"
       inkscape:persp3d-origin="0.5 : 0.33333333 : 1"
       inkscape:vp_z="1 : 0.5 : 1"
       inkscape:vp_y="0 : 1000 : 0"
       inkscape:vp_x="0 : 0.5 : 1"
       sodipodi:type="inkscape:persp3d" />
    <inkscape:perspective
       id="perspective3212"
       inkscape:persp3d-origin="0.5 : 0.33333333 : 1"
       inkscape:vp_z="1 : 0.5 : 1"
       inkscape:vp_y="0 : 1000 : 0"
       inkscape:vp_x="0 : 0.5 : 1"
       sodipodi:type="inkscape:persp3d" />
    <inkscape:perspective
       id="perspective3238"
       inkscape:persp3d-origin="0.5 : 0.33333333 : 1"
       inkscape:vp_z="1 : 0.5 : 1"
       inkscape:vp_y="0 : 1000 : 0"
       inkscape:vp_x="0 : 0.5 : 1"
       sodipodi:type="inkscape:persp3d" />
    <inkscape:perspective
       id="perspective3276"
       inkscape:persp3d-origin="0.5 : 0.33333333 : 1"
       inkscape:vp_z="1 : 0.5 : 1"
       inkscape:vp_y="0 : 1000 : 0"
       inkscape:vp_x="0 : 0.5 : 1"
       sodipodi:type="inkscape:persp3d" />
    <inkscape:perspective
       id="perspective3314"
       inkscape:persp3d-origin="0.5 : 0.33333333 : 1"
       inkscape:vp_z="1 : 0.5 : 1"
       inkscape:vp_y="0 : 1000 : 0"
       inkscape:vp_x="0 : 0.5 : 1"
       sodipodi:type="inkscape:persp3d" />
    <inkscape:perspective
       id="perspective3350"
       inkscape:persp3d-origin="0.5 : 0.33333333 : 1"
       inkscape:vp_z="1 : 0.5 : 1"
       inkscape:vp_y="0 : 1000 : 0"
       inkscape:vp_x="0 : 0.5 : 1"
       sodipodi:type="inkscape:persp3d" />
    <inkscape:perspective
       id="perspective3376"
       inkscape:persp3d-origin="0.5 : 0.33333333 : 1"
       inkscape:vp_z="1 : 0.5 : 1"
       inkscape:vp_y="0 : 1000 : 0"
       inkscape:vp_x="0 : 0.5 : 1"
       sodipodi:type="inkscape:persp3d" />
    <inkscape:perspective
       id="perspective3402"
       inkscape:persp3d-origin="0.5 : 0.33333333 : 1"
       inkscape:vp_z="1 : 0.5 : 1"
       inkscape:vp_y="0 : 1000 : 0"
       inkscape:vp_x="0 : 0.5 : 1"
       sodipodi:type="inkscape:persp3d" />
  </defs>
  <sodipodi:namedview
     id="base"
     pagecolor="#ffffff"
     bordercolor="#666666"
     borderopacity="1.0"
     inkscape:pageopacity="0.0"
     inkscape:pageshadow="2"
     inkscape:zoom="11.313709"
     inkscape:cx="11.966503"
     inkscape:cy="4.3194832"
     inkscape:document-units="px"
     inkscape:current-layer="layer1"
     showgrid="true"
     inkscape:window-width="1280"
     inkscape:window-height="780"
     inkscape:window-x="-8"
     inkscape:window-y="-8"
     inkscape:window-maximized="1">
    <inkscape:grid
       type="xygrid"
       id="grid6324"
       empspacing="5"
       visible="true"
       enabled="true"
       snapvisiblegridlinesonly="true" />
  </sodipodi:namedview>
  <metadata
     id="metadata7">
    <rdf:RDF>
      <cc:Work
         rdf:about="">
        <dc:format>image/svg+xml</dc:format>
        <dc:type
           rdf:resource="http://purl.org/dc/dcmitype/StillImage" />
        <dc:title></dc:title>
      </cc:Work>
    </rdf:RDF>
  </metadata>
  <g
     inkscape:label="Calque 1"
     inkscape:groupmode="layer"
     id="layer1"
     transform="translate(0,-1036.3622)">
    <g
       id="g3408"
       transform="translate(0.552306,0.0852)">
      <path
         style="fill:#bfbfbf"
         d="m 8.3163103,1047.4741 -4.9732283,0 0,-3.1971 0,-3.1971 4.9732283,0 4.9732287,0 0,3.1971 0,3.1971 -4.9732287,0 z"
         id="path3418" />
      <path
         style="fill:#7f7f7f"
         d="m 8.3163103,1047.4741 -4.9732283,0 0,-3.1971 0,-3.1971 4.9732283,0 4.9732287,0 0,3.1971 0,3.1971 -4.9732287,0 z m 0,-0.3552 4.6179977,0 0,-2.8419 0,-2.8418 -4.6179977,0 -4.6179977,0 0,2.8418 0,2.8419 4.6179977,0 z m 0,-1.0657 -2.1313836,0 0,-0.8881 0,-0.8881 2.1313836,0 2.1313837,0 0,0.1628 c 0,0.09 -0.09991,0.2034 -0.222019,0.2529 l -0.222019,0.09 0.266423,0.1912 0.266423,0.1911 -0.266423,0.1911 -0.266423,0.1912 0.222019,0.09 c 0.12211,0.049 0.222019,0.1633 0.222019,0.2529 l 0,0.1628 -2.1313837,0 z m -1.5985377,-0.3553 c 0.097688,0 0.1776153,-0.08 0.1776153,-0.1776 0,-0.098 -0.079927,-0.1776 -0.1776153,-0.1776 -0.097688,0 -0.1776153,0.08 -0.1776153,0.1776 0,0.098 0.079927,0.1776 0.1776153,0.1776 z m 1.776153,0 0.5328459,0 0,-0.1776 0,-0.1776 -0.5328459,0 -0.5328459,0 0,0.1776 0,0.1776 0.5328459,0 z m -1.776153,-0.7104 c 0.097688,0 0.1776153,-0.08 0.1776153,-0.1776 0,-0.098 -0.079927,-0.1776 -0.1776153,-0.1776 -0.097688,0 -0.1776153,0.08 -0.1776153,0.1776 0,0.098 0.079927,0.1776 0.1776153,0.1776 z m 1.0656918,0 c 0.097688,0 0.1776153,-0.08 0.1776153,-0.1776 0,-0.098 -0.079927,-0.1776 -0.1776153,-0.1776 -0.097688,0 -0.1776153,0.08 -0.1776153,0.1776 0,0.098 0.079927,0.1776 0.1776153,0.1776 z m 1.0656918,0 c 0.097688,0 0.1776153,-0.08 0.1776153,-0.1776 0,-0.098 -0.079927,-0.1776 -0.1776153,-0.1776 -0.097688,0 -0.1776153,0.08 -0.1776153,0.1776 0,0.098 0.079927,0.1776 0.1776153,0.1776 z m 2.8418448,-1.4209 -0.888077,0 0,-0.8881 0,-0.8881 0.888077,0 0.888076,0 0,0.8881 0,0.8881 -0.888076,0 z m -6.3941507,-0.7105 -1.2433071,0 0,-0.5328 0,-0.5329 1.2433071,0 1.243307,0 0,0.5329 0,0.5328 -1.243307,0 z m -0.7104612,-0.3552 c 0.097688,0 0.1776153,-0.08 0.1776153,-0.1776 0,-0.098 -0.079927,-0.1777 -0.1776153,-0.1777 -0.097688,0 -0.1776153,0.08 -0.1776153,0.1777 0,0.098 0.079927,0.1776 0.1776153,0.1776 z m 1.0656917,0 c 0.097688,0 0.1776153,-0.08 0.1776153,-0.1776 0,-0.098 -0.079927,-0.1777 -0.1776153,-0.1777 -0.097688,0 -0.1776153,0.08 -0.1776153,0.1777 0,0.098 0.079927,0.1776 0.1776153,0.1776 z"
         id="path3416" />
      <path
         style="fill:#00007f"
         d="m 8.3163103,1047.4741 -4.9732283,0 0,-3.1971 0,-3.1971 4.9732283,0 4.9732287,0 0,3.1971 0,3.1971 -4.9732287,0 z m 0,-0.3552 4.6179977,0 0,-2.8419 0,-2.8418 -4.6179977,0 -4.6179977,0 0,2.8418 0,2.8419 4.6179977,0 z m -1.776153,-1.0657 -0.3552306,0 0,-0.1776 0,-0.1777 0.3552306,0 0.3552306,0 0,0.1777 0,0.1776 -0.3552306,0 z m 0.8880765,0 c -0.097688,0 -0.1776153,-0.08 -0.1776153,-0.1776 0,-0.098 0.079927,-0.1777 0.1776153,-0.1777 0.097688,0 0.1776153,0.08 0.1776153,0.1777 0,0.098 -0.079927,0.1776 -0.1776153,0.1776 z m 0.8880765,0 -0.3552306,0 0,-0.1776 0,-0.1777 0.3552306,0 0.3552306,0 0,0.1777 0,0.1776 -0.3552306,0 z m 0.8880765,0 c -0.097688,0 -0.1776153,-0.08 -0.1776153,-0.1776 0,-0.098 0.079927,-0.1777 0.1776153,-0.1777 0.097688,0 0.1776153,0.08 0.1776153,0.1777 0,0.098 -0.079927,0.1776 -0.1776153,0.1776 z m 0.8880762,0 -0.3552303,0 0,-0.1776 0,-0.1777 0.3552303,0 0.355231,0 0,0.1777 0,0.1776 -0.355231,0 z m -2.4866139,-0.7105 -1.4209224,0 0,-0.1776 0,-0.1776 1.4209224,0 1.4209224,0 0,0.1776 0,0.1776 -1.4209224,0 z m 2.3089989,0 -0.5328459,0 0,-0.1776 0,-0.1776 0.5328459,0 0.532846,0 0,0.1776 0,0.1776 -0.532846,0 z m -2.1313836,-0.7104 -1.5985377,0 0,-0.1777 0,-0.1776 1.5985377,0 1.5985377,0 0,0.1776 0,0.1777 -1.5985377,0 z m 2.3089986,0 -0.3552303,0 0,-0.1777 0,-0.1776 0.3552303,0 0.355231,0 0,0.1776 0,0.1777 -0.355231,0 z m 1.598538,-1.0657 -0.888077,0 0,-0.8881 0,-0.8881 0.888077,0 0.888076,0 0,0.8881 0,0.8881 -0.888076,0 z m -6.3941507,-0.7105 -1.2433071,0 0,-0.1776 0,-0.1776 1.2433071,0 1.243307,0 0,0.1776 0,0.1776 -1.243307,0 z m 0,-0.7105 -1.2433071,0 0,-0.1776 0,-0.1776 1.2433071,0 1.243307,0 0,0.1776 0,0.1776 -1.243307,0 z"
         id="path3414" />
      <path
         style="fill:#7f0000"
         d="m 8.3163103,1047.4741 -4.9732283,0 0,-3.1971 0,-3.1971 4.9732283,0 4.9732287,0 0,3.1971 0,3.1971 -4.9732287,0 z m 0,-0.3552 4.6179977,0 0,-2.8419 0,-2.8418 -4.6179977,0 -4.6179977,0 0,2.8418 0,2.8419 4.6179977,0 z m -1.776153,-1.0657 -0.3552306,0 0,-0.1776 0,-0.1777 0.3552306,0 0.3552306,0 0,0.1777 0,0.1776 -0.3552306,0 z m 0.8880765,0 c -0.097688,0 -0.1776153,-0.08 -0.1776153,-0.1776 0,-0.098 0.079927,-0.1777 0.1776153,-0.1777 0.097688,0 0.1776153,0.08 0.1776153,0.1777 0,0.098 -0.079927,0.1776 -0.1776153,0.1776 z m 0.8880765,0 -0.3552306,0 0,-0.1776 0,-0.1777 0.3552306,0 0.3552306,0 0,0.1777 0,0.1776 -0.3552306,0 z m 0.8880765,0 c -0.097688,0 -0.1776153,-0.08 -0.1776153,-0.1776 0,-0.098 0.079927,-0.1777 0.1776153,-0.1777 0.097688,0 0.1776153,0.08 0.1776153,0.1777 0,0.098 -0.079927,0.1776 -0.1776153,0.1776 z m 0.8880762,0 -0.3552303,0 0,-0.1776 0,-0.1777 0.3552303,0 0.355231,0 0,0.1777 0,0.1776 -0.355231,0 z m -2.4866139,-0.7105 -1.4209224,0 0,-0.1776 0,-0.1776 1.4209224,0 1.4209224,0 0,0.1776 0,0.1776 -1.4209224,0 z m 2.3089989,0 -0.5328459,0 0,-0.1776 0,-0.1776 0.5328459,0 0.532846,0 0,0.1776 0,0.1776 -0.532846,0 z m -2.1313836,-0.7104 -1.5985377,0 0,-0.1777 0,-0.1776 1.5985377,0 1.5985377,0 0,0.1776 0,0.1777 -1.5985377,0 z m 2.3089986,0 -0.3552303,0 0,-0.1777 0,-0.1776 0.3552303,0 0.355231,0 0,0.1776 0,0.1777 -0.355231,0 z m 1.27291,-1.0725 c -0.06513,0 -0.229357,-0.132 -0.364958,-0.2852 l -0.246548,-0.2784 0.246548,-0.1589 0.246548,-0.1588 -0.250825,-0.1615 -0.250825,-0.1615 0.311348,-0.3114 0.311347,-0.3113 0.161496,0.2508 0.161497,0.2508 0.161496,-0.2508 0.161497,-0.2508 0.311347,0.3113 0.311348,0.3114 -0.250825,0.1615 -0.250825,0.1615 0.250825,0.1615 0.250825,0.1615 -0.311348,0.3113 -0.311347,0.3114 -0.175019,-0.2509 -0.175018,-0.2508 -0.09009,0.222 c -0.04955,0.1222 -0.143372,0.219 -0.208497,0.2153 z m -6.0685227,-0.7037 -1.2433071,0 0,-0.1776 0,-0.1776 1.2433071,0 1.243307,0 0,0.1776 0,0.1776 -1.243307,0 z m 0,-0.7105 -1.2433071,0 0,-0.1776 0,-0.1776 1.2433071,0 1.243307,0 0,0.1776 0,0.1776 -1.243307,0 z"
         id="path3412" />
      <path
         style="fill:#000000"
         d="m 8.3163103,1047.4741 -4.9732283,0 0,-3.1971 0,-3.1971 4.9732283,0 4.9732287,0 0,3.1971 0,3.1971 -4.9732287,0 z m 0,-0.3552 4.6179977,0 0,-2.8419 0,-2.8418 -4.6179977,0 -4.6179977,0 0,2.8418 0,2.8419 4.6179977,0 z m -1.776153,-1.0657 -0.3552306,0 0,-0.1776 0,-0.1777 0.3552306,0 0.3552306,0 0,0.1777 0,0.1776 -0.3552306,0 z m 0.8880765,0 c -0.097688,0 -0.1776153,-0.08 -0.1776153,-0.1776 0,-0.098 0.079927,-0.1777 0.1776153,-0.1777 0.097688,0 0.1776153,0.08 0.1776153,0.1777 0,0.098 -0.079927,0.1776 -0.1776153,0.1776 z m 0.8880765,0 -0.3552306,0 0,-0.1776 0,-0.1777 0.3552306,0 0.3552306,0 0,0.1777 0,0.1776 -0.3552306,0 z m 0.8880765,0 c -0.097688,0 -0.1776153,-0.08 -0.1776153,-0.1776 0,-0.098 0.079927,-0.1777 0.1776153,-0.1777 0.097688,0 0.1776153,0.08 0.1776153,0.1777 0,0.098 -0.079927,0.1776 -0.1776153,0.1776 z m 0.8880762,0 -0.3552303,0 0,-0.1776 0,-0.1777 0.3552303,0 0.355231,0 0,0.1777 0,0.1776 -0.355231,0 z m -2.4866139,-0.7105 -1.4209224,0 0,-0.1776 0,-0.1776 1.4209224,0 1.4209224,0 0,0.1776 0,0.1776 -1.4209224,0 z m 2.3089989,0 -0.5328459,0 0,-0.1776 0,-0.1776 0.5328459,0 0.532846,0 0,0.1776 0,0.1776 -0.532846,0 z m -2.1313836,-0.7104 -1.5985377,0 0,-0.1777 0,-0.1776 1.5985377,0 1.5985377,0 0,0.1776 0,0.1777 -1.5985377,0 z m 2.3089986,0 -0.3552303,0 0,-0.1777 0,-0.1776 0.3552303,0 0.355231,0 0,0.1776 0,0.1777 -0.355231,0 z m -4.7956127,-1.7762 -1.2433071,0 0,-0.1776 0,-0.1776 1.2433071,0 1.243307,0 0,0.1776 0,0.1776 -1.243307,0 z m 0,-0.7105 -1.2433071,0 0,-0.1776 0,-0.1776 1.2433071,0 1.243307,0 0,0.1776 0,0.1776 -1.243307,0 z"
         id="path3410" />
    </g>
  </g>
</svg>
