<?xml version="1.0" encoding="UTF-8" standalone="no"?>
<!-- Created with Inkscape (http://www.inkscape.org/) -->

<svg
   xmlns:dc="http://purl.org/dc/elements/1.1/"
   xmlns:cc="http://creativecommons.org/ns#"
   xmlns:rdf="http://www.w3.org/1999/02/22-rdf-syntax-ns#"
   xmlns:svg="http://www.w3.org/2000/svg"
   xmlns="http://www.w3.org/2000/svg"
   xmlns:sodipodi="http://sodipodi.sourceforge.net/DTD/sodipodi-0.dtd"
   xmlns:inkscape="http://www.inkscape.org/namespaces/inkscape"
   width="16"
   height="16"
   id="svg2"
   version="1.1"
   inkscape:version="0.47 r22583"
   sodipodi:docname="MAIL3-64.svg">
  <defs
     id="defs4">
    <inkscape:perspective
       sodipodi:type="inkscape:persp3d"
       inkscape:vp_x="0 : 526.18109 : 1"
       inkscape:vp_y="0 : 1000 : 0"
       inkscape:vp_z="744.09448 : 526.18109 : 1"
       inkscape:persp3d-origin="372.04724 : 350.78739 : 1"
       id="perspective10" />
    <inkscape:perspective
       id="perspective2824"
       inkscape:persp3d-origin="0.5 : 0.33333333 : 1"
       inkscape:vp_z="1 : 0.5 : 1"
       inkscape:vp_y="0 : 1000 : 0"
       inkscape:vp_x="0 : 0.5 : 1"
       sodipodi:type="inkscape:persp3d" />
    <inkscape:perspective
       id="perspective5878"
       inkscape:persp3d-origin="0.5 : 0.33333333 : 1"
       inkscape:vp_z="1 : 0.5 : 1"
       inkscape:vp_y="0 : 1000 : 0"
       inkscape:vp_x="0 : 0.5 : 1"
       sodipodi:type="inkscape:persp3d" />
    <inkscape:perspective
       id="perspective5921"
       inkscape:persp3d-origin="0.5 : 0.33333333 : 1"
       inkscape:vp_z="1 : 0.5 : 1"
       inkscape:vp_y="0 : 1000 : 0"
       inkscape:vp_x="0 : 0.5 : 1"
       sodipodi:type="inkscape:persp3d" />
    <inkscape:perspective
       id="perspective5943"
       inkscape:persp3d-origin="0.5 : 0.33333333 : 1"
       inkscape:vp_z="1 : 0.5 : 1"
       inkscape:vp_y="0 : 1000 : 0"
       inkscape:vp_x="0 : 0.5 : 1"
       sodipodi:type="inkscape:persp3d" />
    <inkscape:perspective
       id="perspective5989"
       inkscape:persp3d-origin="0.5 : 0.33333333 : 1"
       inkscape:vp_z="1 : 0.5 : 1"
       inkscape:vp_y="0 : 1000 : 0"
       inkscape:vp_x="0 : 0.5 : 1"
       sodipodi:type="inkscape:persp3d" />
    <inkscape:perspective
       id="perspective6011"
       inkscape:persp3d-origin="0.5 : 0.33333333 : 1"
       inkscape:vp_z="1 : 0.5 : 1"
       inkscape:vp_y="0 : 1000 : 0"
       inkscape:vp_x="0 : 0.5 : 1"
       sodipodi:type="inkscape:persp3d" />
    <inkscape:perspective
       id="perspective6033"
       inkscape:persp3d-origin="0.5 : 0.33333333 : 1"
       inkscape:vp_z="1 : 0.5 : 1"
       inkscape:vp_y="0 : 1000 : 0"
       inkscape:vp_x="0 : 0.5 : 1"
       sodipodi:type="inkscape:persp3d" />
    <inkscape:perspective
       id="perspective6245"
       inkscape:persp3d-origin="0.5 : 0.33333333 : 1"
       inkscape:vp_z="1 : 0.5 : 1"
       inkscape:vp_y="0 : 1000 : 0"
       inkscape:vp_x="0 : 0.5 : 1"
       sodipodi:type="inkscape:persp3d" />
    <inkscape:perspective
       id="perspective6269"
       inkscape:persp3d-origin="0.5 : 0.33333333 : 1"
       inkscape:vp_z="1 : 0.5 : 1"
       inkscape:vp_y="0 : 1000 : 0"
       inkscape:vp_x="0 : 0.5 : 1"
       sodipodi:type="inkscape:persp3d" />
    <inkscape:perspective
       id="perspective6364"
       inkscape:persp3d-origin="0.5 : 0.33333333 : 1"
       inkscape:vp_z="1 : 0.5 : 1"
       inkscape:vp_y="0 : 1000 : 0"
       inkscape:vp_x="0 : 0.5 : 1"
       sodipodi:type="inkscape:persp3d" />
    <inkscape:perspective
       id="perspective6396"
       inkscape:persp3d-origin="0.5 : 0.33333333 : 1"
       inkscape:vp_z="1 : 0.5 : 1"
       inkscape:vp_y="0 : 1000 : 0"
       inkscape:vp_x="0 : 0.5 : 1"
       sodipodi:type="inkscape:persp3d" />
    <inkscape:perspective
       id="perspective6438"
       inkscape:persp3d-origin="0.5 : 0.33333333 : 1"
       inkscape:vp_z="1 : 0.5 : 1"
       inkscape:vp_y="0 : 1000 : 0"
       inkscape:vp_x="0 : 0.5 : 1"
       sodipodi:type="inkscape:persp3d" />
    <inkscape:perspective
       id="perspective6460"
       inkscape:persp3d-origin="0.5 : 0.33333333 : 1"
       inkscape:vp_z="1 : 0.5 : 1"
       inkscape:vp_y="0 : 1000 : 0"
       inkscape:vp_x="0 : 0.5 : 1"
       sodipodi:type="inkscape:persp3d" />
    <inkscape:perspective
       id="perspective6480"
       inkscape:persp3d-origin="0.5 : 0.33333333 : 1"
       inkscape:vp_z="1 : 0.5 : 1"
       inkscape:vp_y="0 : 1000 : 0"
       inkscape:vp_x="0 : 0.5 : 1"
       sodipodi:type="inkscape:persp3d" />
    <inkscape:perspective
       id="perspective6504"
       inkscape:persp3d-origin="0.5 : 0.33333333 : 1"
       inkscape:vp_z="1 : 0.5 : 1"
       inkscape:vp_y="0 : 1000 : 0"
       inkscape:vp_x="0 : 0.5 : 1"
       sodipodi:type="inkscape:persp3d" />
    <inkscape:perspective
       id="perspective6524"
       inkscape:persp3d-origin="0.5 : 0.33333333 : 1"
       inkscape:vp_z="1 : 0.5 : 1"
       inkscape:vp_y="0 : 1000 : 0"
       inkscape:vp_x="0 : 0.5 : 1"
       sodipodi:type="inkscape:persp3d" />
    <inkscape:perspective
       id="perspective6548"
       inkscape:persp3d-origin="0.5 : 0.33333333 : 1"
       inkscape:vp_z="1 : 0.5 : 1"
       inkscape:vp_y="0 : 1000 : 0"
       inkscape:vp_x="0 : 0.5 : 1"
       sodipodi:type="inkscape:persp3d" />
    <inkscape:perspective
       id="perspective6572"
       inkscape:persp3d-origin="0.5 : 0.33333333 : 1"
       inkscape:vp_z="1 : 0.5 : 1"
       inkscape:vp_y="0 : 1000 : 0"
       inkscape:vp_x="0 : 0.5 : 1"
       sodipodi:type="inkscape:persp3d" />
    <inkscape:perspective
       id="perspective6594"
       inkscape:persp3d-origin="0.5 : 0.33333333 : 1"
       inkscape:vp_z="1 : 0.5 : 1"
       inkscape:vp_y="0 : 1000 : 0"
       inkscape:vp_x="0 : 0.5 : 1"
       sodipodi:type="inkscape:persp3d" />
    <inkscape:perspective
       id="perspective6614"
       inkscape:persp3d-origin="0.5 : 0.33333333 : 1"
       inkscape:vp_z="1 : 0.5 : 1"
       inkscape:vp_y="0 : 1000 : 0"
       inkscape:vp_x="0 : 0.5 : 1"
       sodipodi:type="inkscape:persp3d" />
    <inkscape:perspective
       id="perspective6650"
       inkscape:persp3d-origin="0.5 : 0.33333333 : 1"
       inkscape:vp_z="1 : 0.5 : 1"
       inkscape:vp_y="0 : 1000 : 0"
       inkscape:vp_x="0 : 0.5 : 1"
       sodipodi:type="inkscape:persp3d" />
    <inkscape:perspective
       id="perspective6676"
       inkscape:persp3d-origin="0.5 : 0.33333333 : 1"
       inkscape:vp_z="1 : 0.5 : 1"
       inkscape:vp_y="0 : 1000 : 0"
       inkscape:vp_x="0 : 0.5 : 1"
       sodipodi:type="inkscape:persp3d" />
    <inkscape:perspective
       id="perspective6710"
       inkscape:persp3d-origin="0.5 : 0.33333333 : 1"
       inkscape:vp_z="1 : 0.5 : 1"
       inkscape:vp_y="0 : 1000 : 0"
       inkscape:vp_x="0 : 0.5 : 1"
       sodipodi:type="inkscape:persp3d" />
    <inkscape:perspective
       id="perspective6748"
       inkscape:persp3d-origin="0.5 : 0.33333333 : 1"
       inkscape:vp_z="1 : 0.5 : 1"
       inkscape:vp_y="0 : 1000 : 0"
       inkscape:vp_x="0 : 0.5 : 1"
       sodipodi:type="inkscape:persp3d" />
    <inkscape:perspective
       id="perspective6786"
       inkscape:persp3d-origin="0.5 : 0.33333333 : 1"
       inkscape:vp_z="1 : 0.5 : 1"
       inkscape:vp_y="0 : 1000 : 0"
       inkscape:vp_x="0 : 0.5 : 1"
       sodipodi:type="inkscape:persp3d" />
    <inkscape:perspective
       id="perspective6810"
       inkscape:persp3d-origin="0.5 : 0.33333333 : 1"
       inkscape:vp_z="1 : 0.5 : 1"
       inkscape:vp_y="0 : 1000 : 0"
       inkscape:vp_x="0 : 0.5 : 1"
       sodipodi:type="inkscape:persp3d" />
    <inkscape:perspective
       id="perspective6848"
       inkscape:persp3d-origin="0.5 : 0.33333333 : 1"
       inkscape:vp_z="1 : 0.5 : 1"
       inkscape:vp_y="0 : 1000 : 0"
       inkscape:vp_x="0 : 0.5 : 1"
       sodipodi:type="inkscape:persp3d" />
    <inkscape:perspective
       id="perspective6870"
       inkscape:persp3d-origin="0.5 : 0.33333333 : 1"
       inkscape:vp_z="1 : 0.5 : 1"
       inkscape:vp_y="0 : 1000 : 0"
       inkscape:vp_x="0 : 0.5 : 1"
       sodipodi:type="inkscape:persp3d" />
    <inkscape:perspective
       id="perspective6908"
       inkscape:persp3d-origin="0.5 : 0.33333333 : 1"
       inkscape:vp_z="1 : 0.5 : 1"
       inkscape:vp_y="0 : 1000 : 0"
       inkscape:vp_x="0 : 0.5 : 1"
       sodipodi:type="inkscape:persp3d" />
    <inkscape:perspective
       id="perspective6946"
       inkscape:persp3d-origin="0.5 : 0.33333333 : 1"
       inkscape:vp_z="1 : 0.5 : 1"
       inkscape:vp_y="0 : 1000 : 0"
       inkscape:vp_x="0 : 0.5 : 1"
       sodipodi:type="inkscape:persp3d" />
    <inkscape:perspective
       id="perspective6970"
       inkscape:persp3d-origin="0.5 : 0.33333333 : 1"
       inkscape:vp_z="1 : 0.5 : 1"
       inkscape:vp_y="0 : 1000 : 0"
       inkscape:vp_x="0 : 0.5 : 1"
       sodipodi:type="inkscape:persp3d" />
    <inkscape:perspective
       id="perspective7008"
       inkscape:persp3d-origin="0.5 : 0.33333333 : 1"
       inkscape:vp_z="1 : 0.5 : 1"
       inkscape:vp_y="0 : 1000 : 0"
       inkscape:vp_x="0 : 0.5 : 1"
       sodipodi:type="inkscape:persp3d" />
    <inkscape:perspective
       id="perspective7036"
       inkscape:persp3d-origin="0.5 : 0.33333333 : 1"
       inkscape:vp_z="1 : 0.5 : 1"
       inkscape:vp_y="0 : 1000 : 0"
       inkscape:vp_x="0 : 0.5 : 1"
       sodipodi:type="inkscape:persp3d" />
    <inkscape:perspective
       id="perspective7060"
       inkscape:persp3d-origin="0.5 : 0.33333333 : 1"
       inkscape:vp_z="1 : 0.5 : 1"
       inkscape:vp_y="0 : 1000 : 0"
       inkscape:vp_x="0 : 0.5 : 1"
       sodipodi:type="inkscape:persp3d" />
    <inkscape:perspective
       id="perspective7098"
       inkscape:persp3d-origin="0.5 : 0.33333333 : 1"
       inkscape:vp_z="1 : 0.5 : 1"
       inkscape:vp_y="0 : 1000 : 0"
       inkscape:vp_x="0 : 0.5 : 1"
       sodipodi:type="inkscape:persp3d" />
    <inkscape:perspective
       id="perspective7136"
       inkscape:persp3d-origin="0.5 : 0.33333333 : 1"
       inkscape:vp_z="1 : 0.5 : 1"
       inkscape:vp_y="0 : 1000 : 0"
       inkscape:vp_x="0 : 0.5 : 1"
       sodipodi:type="inkscape:persp3d" />
    <inkscape:perspective
       id="perspective7174"
       inkscape:persp3d-origin="0.5 : 0.33333333 : 1"
       inkscape:vp_z="1 : 0.5 : 1"
       inkscape:vp_y="0 : 1000 : 0"
       inkscape:vp_x="0 : 0.5 : 1"
       sodipodi:type="inkscape:persp3d" />
    <inkscape:perspective
       id="perspective7212"
       inkscape:persp3d-origin="0.5 : 0.33333333 : 1"
       inkscape:vp_z="1 : 0.5 : 1"
       inkscape:vp_y="0 : 1000 : 0"
       inkscape:vp_x="0 : 0.5 : 1"
       sodipodi:type="inkscape:persp3d" />
    <inkscape:perspective
       id="perspective7234"
       inkscape:persp3d-origin="0.5 : 0.33333333 : 1"
       inkscape:vp_z="1 : 0.5 : 1"
       inkscape:vp_y="0 : 1000 : 0"
       inkscape:vp_x="0 : 0.5 : 1"
       sodipodi:type="inkscape:persp3d" />
    <inkscape:perspective
       id="perspective7272"
       inkscape:persp3d-origin="0.5 : 0.33333333 : 1"
       inkscape:vp_z="1 : 0.5 : 1"
       inkscape:vp_y="0 : 1000 : 0"
       inkscape:vp_x="0 : 0.5 : 1"
       sodipodi:type="inkscape:persp3d" />
    <inkscape:perspective
       id="perspective7294"
       inkscape:persp3d-origin="0.5 : 0.33333333 : 1"
       inkscape:vp_z="1 : 0.5 : 1"
       inkscape:vp_y="0 : 1000 : 0"
       inkscape:vp_x="0 : 0.5 : 1"
       sodipodi:type="inkscape:persp3d" />
    <inkscape:perspective
       id="perspective7330"
       inkscape:persp3d-origin="0.5 : 0.33333333 : 1"
       inkscape:vp_z="1 : 0.5 : 1"
       inkscape:vp_y="0 : 1000 : 0"
       inkscape:vp_x="0 : 0.5 : 1"
       sodipodi:type="inkscape:persp3d" />
    <inkscape:perspective
       id="perspective3068"
       inkscape:persp3d-origin="0.5 : 0.33333333 : 1"
       inkscape:vp_z="1 : 0.5 : 1"
       inkscape:vp_y="0 : 1000 : 0"
       inkscape:vp_x="0 : 0.5 : 1"
       sodipodi:type="inkscape:persp3d" />
    <inkscape:perspective
       id="perspective3106"
       inkscape:persp3d-origin="0.5 : 0.33333333 : 1"
       inkscape:vp_z="1 : 0.5 : 1"
       inkscape:vp_y="0 : 1000 : 0"
       inkscape:vp_x="0 : 0.5 : 1"
       sodipodi:type="inkscape:persp3d" />
    <inkscape:perspective
       id="perspective3128"
       inkscape:persp3d-origin="0.5 : 0.33333333 : 1"
       inkscape:vp_z="1 : 0.5 : 1"
       inkscape:vp_y="0 : 1000 : 0"
       inkscape:vp_x="0 : 0.5 : 1"
       sodipodi:type="inkscape:persp3d" />
    <inkscape:perspective
       id="perspective3152"
       inkscape:persp3d-origin="0.5 : 0.33333333 : 1"
       inkscape:vp_z="1 : 0.5 : 1"
       inkscape:vp_y="0 : 1000 : 0"
       inkscape:vp_x="0 : 0.5 : 1"
       sodipodi:type="inkscape:persp3d" />
    <inkscape:perspective
       id="perspective3174"
       inkscape:persp3d-origin="0.5 : 0.33333333 : 1"
       inkscape:vp_z="1 : 0.5 : 1"
       inkscape:vp_y="0 : 1000 : 0"
       inkscape:vp_x="0 : 0.5 : 1"
       sodipodi:type="inkscape:persp3d" />
    <inkscape:perspective
       id="perspective3212"
       inkscape:persp3d-origin="0.5 : 0.33333333 : 1"
       inkscape:vp_z="1 : 0.5 : 1"
       inkscape:vp_y="0 : 1000 : 0"
       inkscape:vp_x="0 : 0.5 : 1"
       sodipodi:type="inkscape:persp3d" />
    <inkscape:perspective
       id="perspective3238"
       inkscape:persp3d-origin="0.5 : 0.33333333 : 1"
       inkscape:vp_z="1 : 0.5 : 1"
       inkscape:vp_y="0 : 1000 : 0"
       inkscape:vp_x="0 : 0.5 : 1"
       sodipodi:type="inkscape:persp3d" />
    <inkscape:perspective
       id="perspective3276"
       inkscape:persp3d-origin="0.5 : 0.33333333 : 1"
       inkscape:vp_z="1 : 0.5 : 1"
       inkscape:vp_y="0 : 1000 : 0"
       inkscape:vp_x="0 : 0.5 : 1"
       sodipodi:type="inkscape:persp3d" />
    <inkscape:perspective
       id="perspective3314"
       inkscape:persp3d-origin="0.5 : 0.33333333 : 1"
       inkscape:vp_z="1 : 0.5 : 1"
       inkscape:vp_y="0 : 1000 : 0"
       inkscape:vp_x="0 : 0.5 : 1"
       sodipodi:type="inkscape:persp3d" />
    <inkscape:perspective
       id="perspective3350"
       inkscape:persp3d-origin="0.5 : 0.33333333 : 1"
       inkscape:vp_z="1 : 0.5 : 1"
       inkscape:vp_y="0 : 1000 : 0"
       inkscape:vp_x="0 : 0.5 : 1"
       sodipodi:type="inkscape:persp3d" />
    <inkscape:perspective
       id="perspective3376"
       inkscape:persp3d-origin="0.5 : 0.33333333 : 1"
       inkscape:vp_z="1 : 0.5 : 1"
       inkscape:vp_y="0 : 1000 : 0"
       inkscape:vp_x="0 : 0.5 : 1"
       sodipodi:type="inkscape:persp3d" />
    <inkscape:perspective
       id="perspective3402"
       inkscape:persp3d-origin="0.5 : 0.33333333 : 1"
       inkscape:vp_z="1 : 0.5 : 1"
       inkscape:vp_y="0 : 1000 : 0"
       inkscape:vp_x="0 : 0.5 : 1"
       sodipodi:type="inkscape:persp3d" />
    <inkscape:perspective
       id="perspective3428"
       inkscape:persp3d-origin="0.5 : 0.33333333 : 1"
       inkscape:vp_z="1 : 0.5 : 1"
       inkscape:vp_y="0 : 1000 : 0"
       inkscape:vp_x="0 : 0.5 : 1"
       sodipodi:type="inkscape:persp3d" />
    <inkscape:perspective
       id="perspective3466"
       inkscape:persp3d-origin="0.5 : 0.33333333 : 1"
       inkscape:vp_z="1 : 0.5 : 1"
       inkscape:vp_y="0 : 1000 : 0"
       inkscape:vp_x="0 : 0.5 : 1"
       sodipodi:type="inkscape:persp3d" />
  </defs>
  <sodipodi:namedview
     id="base"
     pagecolor="#ffffff"
     bordercolor="#666666"
     borderopacity="1.0"
     inkscape:pageopacity="0.0"
     inkscape:pageshadow="2"
     inkscape:zoom="11.313709"
     inkscape:cx="11.966503"
     inkscape:cy="11.390551"
     inkscape:document-units="px"
     inkscape:current-layer="layer1"
     showgrid="true"
     inkscape:window-width="1280"
     inkscape:window-height="780"
     inkscape:window-x="-8"
     inkscape:window-y="-8"
     inkscape:window-maximized="1">
    <inkscape:grid
       type="xygrid"
       id="grid6324"
       empspacing="5"
       visible="true"
       enabled="true"
       snapvisiblegridlinesonly="true" />
  </sodipodi:namedview>
  <metadata
     id="metadata7">
    <rdf:RDF>
      <cc:Work
         rdf:about="">
        <dc:format>image/svg+xml</dc:format>
        <dc:type
           rdf:resource="http://purl.org/dc/dcmitype/StillImage" />
        <dc:title></dc:title>
      </cc:Work>
    </rdf:RDF>
  </metadata>
  <g
     inkscape:label="Calque 1"
     inkscape:groupmode="layer"
     id="layer1"
     transform="translate(0,-1036.3622)">
    <g
       id="g3472"
       transform="matrix(1.0989264,0,0,1.0989264,15.51158,-103.54519)">
      <path
         style="fill:#c7c7c7"
         d="m -6.9986992,1049.5456 -0.408296,0 0,-1.9598 0,-1.9598 -0.8697825,0 -0.8697825,0 -0.3551055,-0.378 -0.3551055,-0.378 0,-1.0382 0,-1.0382 0.7286726,-0.6982 c 0.4007698,-0.384 1.1055555,-0.9961 1.5661903,-1.3603 l 0.8375179,-0.662 1.1032509,0 1.1032509,0 0.2702898,0.2987 0.27029,0.2987 0,0.5995 0,0.5996 0.1536331,0 0.1536332,0 -0.1944628,0.3708 c -0.1069544,0.2039 -0.7053424,1.0124 -1.3297508,1.7965 -0.6244085,0.7842 -1.1939815,1.4257 -1.2657176,1.4257 l -0.1304295,0 0,2.0415 0,2.0415 -0.408296,0 z"
         id="path3494" />
      <path
         style="fill:#8c99c0"
         d="m -6.9986992,1049.5456 -0.408296,0 0,-1.9598 0,-1.9598 -0.8697825,0 -0.8697825,0 -0.3551055,-0.378 -0.3551055,-0.378 0,-1.0382 0,-1.0382 0.7286726,-0.6982 c 0.4007698,-0.384 1.1055555,-0.9961 1.5661903,-1.3603 l 0.8375179,-0.662 1.1032509,0 1.1032509,0 0.2702898,0.2987 0.27029,0.2987 0,0.5995 0,0.5996 0.1536331,0 0.1536332,0 -0.1944628,0.3708 c -0.1069544,0.2039 -0.7053424,1.0124 -1.3297508,1.7965 -0.6244085,0.7842 -1.1939815,1.4257 -1.2657176,1.4257 l -0.1304295,0 0,2.0415 0,2.0415 -0.408296,0 z m -1.5181188,-4.0959 0.37489,-0.013 -0.2449776,-0.09 c -0.1347377,-0.05 -0.3735908,-0.2021 -0.5307848,-0.3391 -0.157194,-0.1369 -0.2858072,-0.3174 -0.2858072,-0.4011 0,-0.084 0.4526089,-0.6235 1.0057975,-1.1996 l 1.0057977,-1.0474 -0.9965369,0 -0.9965367,0 -0.2542384,0.363 -0.2542384,0.3629 0,0.7877 0,0.7877 0.4008724,0.4009 0.4008725,0.4008 0.3748899,-0.013 z m 1.3684102,0 0.313027,-0.013 -0.2143554,-0.086 -0.2143554,-0.086 -0.098672,0.099 -0.098671,0.099 0.3130268,-0.013 z m 0.5480644,-0.1504 c 0.088971,0 0.2426116,-0.151 0.3414227,-0.3357 l 0.1796562,-0.3357 -0.065924,-0.1951 -0.065924,-0.1951 -0.2754982,0.5308 -0.2754982,0.5308 0.1617662,0 z"
         id="path3492" />
      <path
         style="fill:#7285bc"
         d="m -6.9986992,1049.5456 -0.408296,0 0,-1.9598 0,-1.9598 -0.8697825,0 -0.8697825,0 -0.3551055,-0.378 -0.3551055,-0.378 0,-1.0382 0,-1.0382 0.7286726,-0.6982 c 0.4007698,-0.384 1.1055555,-0.9961 1.5661903,-1.3603 l 0.8375179,-0.662 1.1032509,0 1.1032509,0 0.2702898,0.2987 0.27029,0.2987 0,0.5995 0,0.5996 0.1536331,0 0.1536332,0 -0.1944628,0.3708 c -0.1069544,0.2039 -0.7053424,1.0124 -1.3297508,1.7965 -0.6244085,0.7842 -1.1939815,1.4257 -1.2657176,1.4257 l -0.1304295,0 0,2.0415 0,2.0415 -0.408296,0 z m -1.5181188,-4.0959 0.37489,-0.013 -0.2449776,-0.09 c -0.1347377,-0.05 -0.3735908,-0.2021 -0.5307848,-0.3391 -0.157194,-0.1369 -0.2858072,-0.3174 -0.2858072,-0.4011 0,-0.084 0.4526089,-0.6235 1.0057975,-1.1996 l 1.0057977,-1.0474 -0.9965369,0 -0.9965367,0 -0.2542384,0.363 -0.2542384,0.3629 0,0.7877 0,0.7877 0.4008724,0.4009 0.4008725,0.4008 0.3748899,-0.013 z m 1.3684102,0 0.313027,-0.013 -0.2143554,-0.086 -0.2143554,-0.086 -0.098672,0.099 -0.098671,0.099 0.3130268,-0.013 z m 0.5480644,-0.1504 c 0.088971,0 0.2426116,-0.151 0.3414227,-0.3357 l 0.1796562,-0.3357 -0.065924,-0.1951 -0.065924,-0.1951 -0.2754982,0.5308 -0.2754982,0.5308 0.1617662,0 z m 2.2963978,-2.7764 0.2177578,0 -0.1088788,-0.1089 -0.108879,-0.1089 -0.108879,0.1089 -0.1088788,0.1089 0.2177578,0 z m -3.7847919,-0.49 0.5184239,0 0,-0.4082 0,-0.4083 -0.1348497,0 c -0.074167,0 -0.3074582,0.1837 -0.5184239,0.4083 l -0.3835742,0.4082 0.5184239,0 z m 3.8613254,-0.3266 c 0.047732,0 0.086785,-0.1984 0.086785,-0.4409 l 0,-0.441 -0.1850043,0.185 -0.1850042,0.185 0.098219,0.256 c 0.054021,0.1407 0.1372726,0.2559 0.1850042,0.2559 z"
         id="path3490" />
      <path
         style="fill:#8f8f93"
         d="m -6.9986992,1049.5456 -0.408296,0 0,-1.9598 0,-1.9598 -0.8697825,0 -0.8697825,0 -0.3551055,-0.378 -0.3551055,-0.378 0,-1.0382 0,-1.0382 0.7286726,-0.6982 c 0.4007698,-0.384 1.1055555,-0.9961 1.5661903,-1.3603 l 0.8375179,-0.662 1.1032509,0 1.1032509,0 0.2702898,0.2987 0.27029,0.2987 0,0.5995 0,0.5996 0.1536331,0 0.1536332,0 -0.1944628,0.3708 c -0.1069544,0.2039 -0.7053424,1.0124 -1.3297508,1.7965 -0.6244085,0.7842 -1.1939815,1.4257 -1.2657176,1.4257 l -0.1304295,0 0,2.0415 0,2.0415 -0.408296,0 z m -1.5181188,-4.0959 0.37489,-0.013 -0.2449776,-0.09 c -0.1347377,-0.05 -0.3735908,-0.2021 -0.5307848,-0.3391 -0.157194,-0.1369 -0.2858072,-0.3174 -0.2858072,-0.4011 0,-0.084 0.4526089,-0.6235 1.0057975,-1.1996 l 1.0057977,-1.0474 -0.9965369,0 -0.9965367,0 -0.2542384,0.363 -0.2542384,0.3629 0,0.7877 0,0.7877 0.4008724,0.4009 0.4008725,0.4008 0.3748899,-0.013 z m 1.3684102,0 0.313027,-0.013 -0.2143554,-0.086 -0.2143554,-0.086 -0.098672,0.099 -0.098671,0.099 0.3130268,-0.013 z m 0.5480644,-0.1504 c 0.088971,0 0.2426116,-0.151 0.3414227,-0.3357 l 0.1796562,-0.3357 -0.065924,-0.1951 -0.065924,-0.1951 -0.2754982,0.5308 -0.2754982,0.5308 0.1617662,0 z m 2.2963978,-2.7764 0.2177578,0 -0.1088788,-0.1089 -0.108879,-0.1089 -0.108879,0.1089 -0.1088788,0.1089 0.2177578,0 z m -3.3576658,-0.49 0.9078898,0 0,-0.8318 0,-0.8318 -0.8160957,0.6833 c -0.4488525,0.3758 -0.8574028,0.7501 -0.9078897,0.8318 l -0.091794,0.1485 0.9078897,0 z m 3.4341993,-0.3266 c 0.047732,0 0.086785,-0.1984 0.086785,-0.4409 l 0,-0.441 -0.1850043,0.185 -0.1850042,0.185 0.098219,0.256 c 0.054021,0.1407 0.1372726,0.2559 0.1850042,0.2559 z"
         id="path3488" />
      <path
         style="fill:#576cad"
         d="m -6.9986992,1049.5456 -0.2449776,0 0,-1.9598 0,-1.9598 -0.8762262,0 -0.8762265,0 -0.4303208,-0.3385 -0.4303209,-0.3385 0,-0.9788 0,-0.9788 0.1642744,-0.307 c 0.090351,-0.1688 0.7933865,-0.8254 1.5623013,-1.4591 l 1.3980269,-1.1522 1.0144537,0 1.0144539,0 0.3629761,0.2543 0.3629761,0.2542 0,0.644 0,0.644 0.1647024,0 0.1647023,0 -0.2055319,0.3639 c -0.1130427,0.2001 -0.7110629,0.9902 -1.3289341,1.7557 -0.6178712,0.7655 -1.2241908,1.4505 -1.3473768,1.5224 l -0.2239747,0.1306 0,1.9517 0,1.9517 -0.2449776,0 z m -0.9163443,-4.083 1.1251358,0 0.3606255,-0.292 0.3606256,-0.292 -0.056725,-0.3893 -0.056725,-0.3893 -0.2447173,0.4772 c -0.1345944,0.2624 -0.3183276,0.5311 -0.408296,0.5971 l -0.1635787,0.12 -0.8321092,0 -0.8321094,0 -0.2833071,-0.313 -0.283307,-0.3131 0.1602564,-0.2994 c 0.088141,-0.1646 0.5533317,-0.6668 1.0337571,-1.116 l 0.8735008,-0.8166 -0.9574394,-0.05 -0.9574394,-0.049 -0.3082782,0.279 -0.3082782,0.279 0,0.9546 0,0.9546 0.3266368,0.3266 0.3266368,0.3266 1.1251357,0 z m -0.3085437,-0.3266 0.2177578,0 -0.1088788,-0.1089 -0.108879,-0.1089 -0.108879,0.1089 -0.1088788,0.1089 0.2177578,0 z m 0.9702718,0 c 0.084524,0 0.198581,-0.073 0.2534601,-0.1614 l 0.09978,-0.1615 -0.2534601,0.097 c -0.139403,0.053 -0.25346,0.1261 -0.25346,0.1614 0,0.035 0.069156,0.064 0.1536798,0.064 z m 0.4275732,-0.6533 0.235339,0 0,-0.1633 c 0,-0.09 0.00274,-0.2184 0.00609,-0.2858 0.00335,-0.067 0.131964,-0.1724 0.2858072,-0.2335 l 0.2797154,-0.111 -0.3746258,-0.012 -0.3746258,-0.012 0.047989,0.2858 0.047989,0.2858 -0.3021965,-0.052 -0.3021966,-0.052 0.1076871,0.1743 c 0.059228,0.096 0.2135896,0.1742 0.3430262,0.1742 z m -1.6766086,-0.2555 0.2928508,-0.1115 -0.091425,-0.091 -0.091425,-0.091 -0.2014261,0.2029 -0.201426,0.203 0.2928508,-0.1116 z m 0.5237412,-0.071 c 0.044913,0 0.081659,-0.037 0.081659,-0.082 0,-0.045 -0.036747,-0.082 -0.081659,-0.082 -0.044913,0 -0.081659,0.037 -0.081659,0.082 0,0.045 0.036747,0.082 0.081659,0.082 z m 0.4899552,-0.1633 c 0.044913,0 0.081659,-0.037 0.081659,-0.082 0,-0.045 -0.036747,-0.082 -0.081659,-0.082 -0.044913,0 -0.081659,0.037 -0.081659,0.082 0,0.045 0.036747,0.082 0.081659,0.082 z m 0.408296,0 0.2177578,0 -0.1088788,-0.1089 -0.108879,-0.1089 -0.108879,0.1089 -0.1088788,0.1089 0.2177578,0 z m -0.8982512,-0.3267 c 0.044913,0 0.081659,-0.037 0.081659,-0.082 0,-0.045 -0.036747,-0.082 -0.081659,-0.082 -0.044913,0 -0.081659,0.037 -0.081659,0.082 0,0.045 0.036747,0.082 0.081659,0.082 z m 0.5716144,0 0.2177578,0 -0.1088788,-0.1088 -0.108879,-0.1089 -0.108879,0.1089 -0.1088788,0.1088 0.2177578,0 z m 1.2657176,-0.1695 c 0.022456,0 0.04083,-0.104 0.04083,-0.2388 l 0,-0.2449 -0.2514168,0 -0.2514165,0 0.2105869,0.2387 c 0.115823,0.1313 0.2289605,0.2416 0.2514168,0.245 z m -1.1023992,-0.3204 0.1633184,0 0,-0.173 0,-0.1729 -0.1633184,0.1009 c -0.089825,0.055 -0.1633184,0.1333 -0.1633184,0.173 0,0.04 0.073493,0.072 0.1633184,0.072 z m 2.7269224,-0.3663 0.4404647,-0.4404 -0.09984,-0.1 -0.09984,-0.1 -0.3406245,0.1823 -0.3406244,0.1823 0,0.358 0,0.358 0.4404648,-0.4405 z m -2.2334374,-0.1683 0.3301666,0.025 -0.094828,-0.1535 c -0.052155,-0.084 -0.20073,-0.1534 -0.3301666,-0.1534 l -0.235339,0 0,0.1286 0,0.1285 0.3301666,0.025 z m -1.0161039,-0.6087 1.0125741,0 0,-0.8318 0,-0.8318 -0.8574216,0.699 c -0.4715819,0.3844 -0.9272402,0.7587 -1.0125741,0.8318 l -0.1551525,0.1328 1.0125741,0 z m 3.0674114,-0.2275 c 0.1420844,-0.054 0.3258176,-0.099 0.408296,-0.099 l 0.1499611,0 0,-0.4083 0,-0.4083 -0.1445352,0 c -0.079494,0 -0.2632276,0.1812 -0.408296,0.4026 -0.1450685,0.2214 -0.2637608,0.4497 -0.2637608,0.5074 l 0,0.1049 0.2583349,-0.099 z"
         id="path3486" />
      <path
         style="fill:#2f53b8"
         d="m -6.9986992,1049.5456 -0.2449776,0 0,-1.9598 0,-1.9598 -0.8762262,0 -0.8762265,0 -0.4303208,-0.3385 -0.4303209,-0.3385 0,-0.9788 0,-0.9788 0.1642744,-0.307 c 0.090351,-0.1688 0.7933865,-0.8254 1.5623013,-1.4591 l 1.3980269,-1.1522 1.0144537,0 1.0144539,0 0.3629761,0.2543 0.3629761,0.2542 0,0.644 0,0.644 0.1647024,0 0.1647023,0 -0.2055319,0.3639 c -0.1130427,0.2001 -0.7110629,0.9902 -1.3289341,1.7557 -0.6178712,0.7655 -1.2241908,1.4505 -1.3473768,1.5224 l -0.2239747,0.1306 0,1.9517 0,1.9517 -0.2449776,0 z m -0.9163443,-4.083 1.1251358,0 0.3606255,-0.292 0.3606256,-0.292 -0.056725,-0.3893 -0.056725,-0.3893 -0.2447173,0.4772 c -0.1345944,0.2624 -0.3183276,0.5311 -0.408296,0.5971 l -0.1635787,0.12 -0.8321092,0 -0.8321094,0 -0.2833071,-0.313 -0.283307,-0.3131 0.1602564,-0.2994 c 0.088141,-0.1646 0.5533317,-0.6668 1.0337571,-1.116 l 0.8735008,-0.8166 -0.9574394,-0.05 -0.9574394,-0.049 -0.3082782,0.279 -0.3082782,0.279 0,0.9546 0,0.9546 0.3266368,0.3266 0.3266368,0.3266 1.1251357,0 z m -0.3085437,-0.3266 0.2177578,0 -0.1088788,-0.1089 -0.108879,-0.1089 -0.108879,0.1089 -0.1088788,0.1089 0.2177578,0 z m 0.9702718,0 c 0.084524,0 0.198581,-0.073 0.2534601,-0.1614 l 0.09978,-0.1615 -0.2534601,0.097 c -0.139403,0.053 -0.25346,0.1261 -0.25346,0.1614 0,0.035 0.069156,0.064 0.1536798,0.064 z m 0.4275732,-0.6533 0.235339,0 0,-0.1633 c 0,-0.09 0.00274,-0.2184 0.00609,-0.2858 0.00335,-0.067 0.131964,-0.1724 0.2858072,-0.2335 l 0.2797154,-0.111 -0.3746258,-0.012 -0.3746258,-0.012 0.047989,0.2858 0.047989,0.2858 -0.3021965,-0.052 -0.3021966,-0.052 0.1076871,0.1743 c 0.059228,0.096 0.2135896,0.1742 0.3430262,0.1742 z m -1.6766086,-0.2555 0.2928508,-0.1115 -0.091425,-0.091 -0.091425,-0.091 -0.2014261,0.2029 -0.201426,0.203 0.2928508,-0.1116 z m 0.5237412,-0.071 c 0.044913,0 0.081659,-0.037 0.081659,-0.082 0,-0.045 -0.036747,-0.082 -0.081659,-0.082 -0.044913,0 -0.081659,0.037 -0.081659,0.082 0,0.045 0.036747,0.082 0.081659,0.082 z m 0.4899552,-0.1633 c 0.044913,0 0.081659,-0.037 0.081659,-0.082 0,-0.045 -0.036747,-0.082 -0.081659,-0.082 -0.044913,0 -0.081659,0.037 -0.081659,0.082 0,0.045 0.036747,0.082 0.081659,0.082 z m 0.408296,0 0.2177578,0 -0.1088788,-0.1089 -0.108879,-0.1089 -0.108879,0.1089 -0.1088788,0.1089 0.2177578,0 z m -0.8982512,-0.3267 c 0.044913,0 0.081659,-0.037 0.081659,-0.082 0,-0.045 -0.036747,-0.082 -0.081659,-0.082 -0.044913,0 -0.081659,0.037 -0.081659,0.082 0,0.045 0.036747,0.082 0.081659,0.082 z m 0.5716144,0 0.2177578,0 -0.1088788,-0.1088 -0.108879,-0.1089 -0.108879,0.1089 -0.1088788,0.1088 0.2177578,0 z m 2.6879551,-0.5852 c 0.310649,-0.3518 0.5678754,-0.6997 0.5716144,-0.7731 l 0.0068,-0.1335 -0.3674664,0.1126 c -0.2021065,0.062 -0.459333,0.1862 -0.5716144,0.276 l -0.204148,0.1633 0,0.4972 0,0.4972 0.5648159,-0.6397 z m -1.4222375,0.4157 c 0.022456,0 0.04083,-0.104 0.04083,-0.2388 l 0,-0.2449 -0.2514168,0 -0.2514165,0 0.2105869,0.2387 c 0.115823,0.1313 0.2289605,0.2416 0.2514168,0.245 z m -1.1023992,-0.3204 0.1633184,0 0,-0.173 0,-0.1729 -0.1633184,0.1009 c -0.089825,0.055 -0.1633184,0.1333 -0.1633184,0.173 0,0.04 0.073493,0.072 0.1633184,0.072 z m 0.493485,-0.5346 0.3301666,0.025 -0.094828,-0.1535 c -0.052155,-0.084 -0.20073,-0.1534 -0.3301666,-0.1534 l -0.235339,0 0,0.1286 0,0.1285 0.3301666,0.025 z m 0.6089142,-0.2845 0.204148,0 0,-0.9609 0,-0.9608 -0.3112586,-0.081 -0.3112587,-0.081 -0.397247,0.2665 c -0.2184858,0.1465 -0.716341,0.5421 -1.1063448,0.8789 l -0.7090978,0.6124 0.9684778,0 0.9684779,0 0.2449776,0.1583 c 0.1347377,0.087 0.3368442,0.1594 0.4491256,0.1608 z m 1.4282099,-0.4695 0.5618034,-0.2629 0.00532,-0.3675 0.00532,-0.3675 -0.1326051,0 c -0.072933,0 -0.2797531,0.2021 -0.459601,0.4491 -0.1798478,0.2471 -0.3753805,0.5307 -0.4345169,0.6305 l -0.1075208,0.1812 0.5618033,-0.2629 z"
         id="path3484" />
      <path
         style="fill:#5e5f62"
         d="m -6.9986992,1049.5456 -0.2449776,0 0,-1.9598 0,-1.9598 -0.8762262,0 -0.8762265,0 -0.4303208,-0.3385 -0.4303209,-0.3385 0,-0.9788 0,-0.9788 0.1642744,-0.307 c 0.090351,-0.1688 0.7933865,-0.8254 1.5623013,-1.4591 l 1.3980269,-1.1522 1.0144537,0 1.0144539,0 0.3629761,0.2543 0.3629761,0.2542 0,0.644 0,0.644 0.1647024,0 0.1647023,0 -0.2055319,0.3639 c -0.1130427,0.2001 -0.7110629,0.9902 -1.3289341,1.7557 -0.6178712,0.7655 -1.2241908,1.4505 -1.3473768,1.5224 l -0.2239747,0.1306 0,1.9517 0,1.9517 -0.2449776,0 z m -0.9163443,-4.083 1.1251358,0 0.3606255,-0.292 0.3606256,-0.292 -0.056725,-0.3893 -0.056725,-0.3893 -0.2447173,0.4772 c -0.1345944,0.2624 -0.3183276,0.5311 -0.408296,0.5971 l -0.1635787,0.12 -0.8321092,0 -0.8321094,0 -0.2833071,-0.313 -0.283307,-0.3131 0.1602564,-0.2994 c 0.088141,-0.1646 0.5533317,-0.6668 1.0337571,-1.116 l 0.8735008,-0.8166 -0.9574394,-0.05 -0.9574394,-0.049 -0.3082782,0.279 -0.3082782,0.279 0,0.9546 0,0.9546 0.3266368,0.3266 0.3266368,0.3266 1.1251357,0 z m -0.3085437,-0.3266 0.2177578,0 -0.1088788,-0.1089 -0.108879,-0.1089 -0.108879,0.1089 -0.1088788,0.1089 0.2177578,0 z m 0.9702718,0 c 0.084524,0 0.198581,-0.073 0.2534601,-0.1614 l 0.09978,-0.1615 -0.2534601,0.097 c -0.139403,0.053 -0.25346,0.1261 -0.25346,0.1614 0,0.035 0.069156,0.064 0.1536798,0.064 z m 0.4275732,-0.6533 0.235339,0 0,-0.1633 c 0,-0.09 0.00274,-0.2184 0.00609,-0.2858 0.00335,-0.067 0.131964,-0.1724 0.2858072,-0.2335 l 0.2797154,-0.111 -0.3746258,-0.012 -0.3746258,-0.012 0.047989,0.2858 0.047989,0.2858 -0.3021965,-0.052 -0.3021966,-0.052 0.1076871,0.1743 c 0.059228,0.096 0.2135896,0.1742 0.3430262,0.1742 z m -1.6766086,-0.2555 0.2928508,-0.1115 -0.091425,-0.091 -0.091425,-0.091 -0.2014261,0.2029 -0.201426,0.203 0.2928508,-0.1116 z m 0.5237412,-0.071 c 0.044913,0 0.081659,-0.037 0.081659,-0.082 0,-0.045 -0.036747,-0.082 -0.081659,-0.082 -0.044913,0 -0.081659,0.037 -0.081659,0.082 0,0.045 0.036747,0.082 0.081659,0.082 z m 0.4899552,-0.1633 c 0.044913,0 0.081659,-0.037 0.081659,-0.082 0,-0.045 -0.036747,-0.082 -0.081659,-0.082 -0.044913,0 -0.081659,0.037 -0.081659,0.082 0,0.045 0.036747,0.082 0.081659,0.082 z m 0.408296,0 0.2177578,0 -0.1088788,-0.1089 -0.108879,-0.1089 -0.108879,0.1089 -0.1088788,0.1089 0.2177578,0 z m -0.8982512,-0.3267 c 0.044913,0 0.081659,-0.037 0.081659,-0.082 0,-0.045 -0.036747,-0.082 -0.081659,-0.082 -0.044913,0 -0.081659,0.037 -0.081659,0.082 0,0.045 0.036747,0.082 0.081659,0.082 z m 0.5716144,0 0.2177578,0 -0.1088788,-0.1088 -0.108879,-0.1089 -0.108879,0.1089 -0.1088788,0.1088 0.2177578,0 z m 2.6879551,-0.5852 c 0.310649,-0.3518 0.5678754,-0.6997 0.5716144,-0.7731 l 0.0068,-0.1335 -0.3674664,0.1126 c -0.2021065,0.062 -0.459333,0.1862 -0.5716144,0.276 l -0.204148,0.1633 0,0.4972 0,0.4972 0.5648159,-0.6397 z m -1.4222375,0.4157 c 0.022456,0 0.04083,-0.104 0.04083,-0.2388 l 0,-0.2449 -0.2514168,0 -0.2514165,0 0.2105869,0.2387 c 0.115823,0.1313 0.2289605,0.2416 0.2514168,0.245 z m -1.1023992,-0.3204 0.1633184,0 0,-0.173 0,-0.1729 -0.1633184,0.1009 c -0.089825,0.055 -0.1633184,0.1333 -0.1633184,0.173 0,0.04 0.073493,0.072 0.1633184,0.072 z m 0.493485,-0.5346 0.3301666,0.025 -0.094828,-0.1535 c -0.052155,-0.084 -0.20073,-0.1534 -0.3301666,-0.1534 l -0.235339,0 0,0.1286 0,0.1285 0.3301666,0.025 z m 0.6497438,-0.1245 c 0.044913,0 0.4401374,-0.439 0.8782772,-0.9811 l 0.7966182,-0.9856 -0.085321,-0.085 c -0.046926,-0.047 -0.4965971,-0.1277 -0.9992681,-0.1796 l -0.9139472,-0.094 -0.6139421,0.4258 c -0.337668,0.2342 -0.8683924,0.6486 -1.1793872,0.9209 l -0.5654452,0.4951 0.9833559,0 0.9833558,0 0.3170221,0.2398 c 0.1743623,0.1319 0.3537688,0.2419 0.3986814,0.2444 z m 1.3873803,-0.6295 0.5618034,-0.2629 0.00532,-0.3675 0.00532,-0.3675 -0.1326051,0 c -0.072933,0 -0.2797531,0.2021 -0.459601,0.4491 -0.1798478,0.2471 -0.3753805,0.5307 -0.4345169,0.6305 l -0.1075208,0.1812 0.5618033,-0.2629 z"
         id="path3482" />
      <path
         style="fill:#00a31e"
         d="m -6.9986992,1049.5456 -0.2449776,0 0,-1.9517 0,-1.9516 -0.9390808,-0.059 -0.9390808,-0.059 1.2404052,-0.031 1.2404054,-0.031 0.2509725,-0.2858 c 0.1380349,-0.1572 0.3013646,-0.4511 0.3629547,-0.6532 l 0.1119822,-0.3675 -0.158192,0 -0.1581921,0 -0.3372608,0.5716 -0.3372607,0.5716 -0.790885,0 -0.7908851,0 -0.3002752,-0.2195 -0.3002754,-0.2196 0.1015499,-0.4046 0.1015497,-0.4046 0.8207842,-0.6921 0.8207841,-0.6921 0,-0.2233 0,-0.2233 -0.2858072,-0.075 -0.2858072,-0.075 0.4944455,-0.019 0.4944455,-0.019 0.3869476,0.2711 0.3869477,0.271 0.1801764,-0.24 c 0.099097,-0.1321 0.4661588,-0.5866 0.8156928,-1.0102 l 0.6355162,-0.77 -0.087537,-0.087 c -0.048145,-0.048 -0.4859552,-0.1287 -0.9729104,-0.179 l -0.885373,-0.091 -0.479198,0.2519 c -0.2635586,0.1386 -0.9201574,0.6572 -1.4591081,1.1525 -0.5389507,0.4953 -1.071777,0.9816 -1.1840584,1.0808 l -0.204148,0.1802 0,-0.1448 c 0,-0.08 0.6670294,-0.7072 1.4822874,-1.3946 l 1.4822875,-1.2499 1.0179329,0 1.0179327,0 0.2979723,0.2179 0.2979723,0.2179 0.1234337,0.8029 0.1234336,0.8028 -0.1656403,0.3132 c -0.091102,0.1723 -0.6157812,0.8705 -1.1659534,1.5516 -0.5501721,0.681 -1.1289263,1.3343 -1.2861203,1.4517 l -0.2858072,0.2134 0,1.9505 0,1.9506 -0.2449776,0 z m -1.1640609,-4.4285 0.3474689,-0.019 -0.3266368,-0.08 c -0.1796502,-0.044 -0.4368767,-0.1642 -0.5716144,-0.2668 l -0.2449776,-0.1866 0.2241455,0.2858 0.2241454,0.2858 0.347469,-0.019 z m 1.0007425,0.019 0.2449776,0 0,-0.1582 0,-0.1582 -0.2449776,0.094 c -0.1347377,0.052 -0.2449776,0.1229 -0.2449776,0.1582 0,0.035 0.1102399,0.064 0.2449776,0.064 z m -1.1239517,-0.3266 c 0.044913,0 0.036238,-0.074 -0.019277,-0.1634 -0.055515,-0.09 -0.137683,-0.1633 -0.1825955,-0.1633 -0.044913,0 -0.036238,0.073 0.019277,0.1633 0.055515,0.09 0.137683,0.1634 0.1825955,0.1634 z m 0.7973149,-0.1634 c 0.044913,0 0.081659,-0.037 0.081659,-0.082 0,-0.045 -0.036747,-0.082 -0.081659,-0.082 -0.044913,0 -0.081659,0.037 -0.081659,0.082 0,0.045 0.036747,0.082 0.081659,0.082 z m 0.7512583,-0.172 0.3103113,-0.1661 0,-0.2392 0,-0.2392 0.1633184,0 0.1633184,0 0,-0.4783 0,-0.4783 -0.2566433,-0.2567 c -0.1411536,-0.1411 -0.318676,-0.2566 -0.3944941,-0.2566 -0.075818,0 -0.5430654,0.4217 -1.0383276,0.937 -0.4952622,0.5154 -0.8854302,0.9521 -0.8670401,0.9705 0.01839,0.018 0.4357672,-0.071 0.9275045,-0.1977 l 0.8940678,-0.2311 -0.7102867,0.082 -0.7102866,0.082 0.2323545,-0.2323 0.2323546,-0.2324 0.477932,0.062 0.4779322,0.062 -0.408296,-0.1378 -0.408296,-0.1378 0.2858072,-0.1217 0.2858072,-0.1216 0,-0.2275 0,-0.2275 0.3169982,0 0.3169983,0 0.1009363,0.1633 0.1009363,0.1634 -0.3771049,0.011 -0.377105,0.012 0.3157964,0.1237 0.3157962,0.1237 -0.1933074,0.1194 -0.1933076,0.1195 0,0.317 0,0.317 -0.2398519,0 -0.2398518,0 0.092859,0.242 0.092859,0.242 0.3103114,-0.1661 z m 0.3919705,-0.8079 c -0.044913,0 -0.081659,-0.037 -0.081659,-0.082 0,-0.045 0.036747,-0.082 0.081659,-0.082 0.044913,0 0.081659,0.037 0.081659,0.082 0,0.045 -0.036747,0.082 -0.081659,0.082 z m 1.558223,-0.4701 c 0.3556165,-0.3933 0.6465754,-0.7791 0.6465754,-0.8574 l 0,-0.1423 -0.2752812,0 -0.2752811,0 -0.3779925,0.3551 -0.3779924,0.3551 0.0067,0.5023 0.0067,0.5023 0.6465754,-0.7151 z m -0.2045354,-1.1385 c 0.2712808,-0.1931 0.5737592,-0.3512 0.6721743,-0.3512 l 0.1789365,0 -0.00664,-0.5308 -0.00664,-0.5308 -0.4946994,0.5717 c -0.2720846,0.3143 -0.5715762,0.7112 -0.6655369,0.882 l -0.1708377,0.3103 0.4932379,-0.3512 z m -4.2734213,3.4051 c -0.033914,0 -0.1625272,-0.1286 -0.2858072,-0.2858 l -0.2241455,-0.2858 0.2858072,0.2242 c 0.157194,0.1232 0.2858072,0.2519 0.2858072,0.2858 0,0.034 -0.027748,0.062 -0.061662,0.062 z m -0.4732499,-1.1053 -0.066088,0.5337 -0.00167,-0.9799 -0.00167,-0.9799 0.067755,0.4462 c 0.037265,0.2454 0.038015,0.6864 0.00167,0.9799 z"
         id="path3480" />
      <path
         style="fill:#25315d"
         d="m -6.9986992,1049.5456 -0.2449776,0 0,-1.9517 0,-1.9516 -0.9390808,-0.059 -0.9390808,-0.059 1.2404052,-0.031 1.2404054,-0.031 0.2509725,-0.2858 c 0.1380349,-0.1572 0.3013646,-0.4511 0.3629547,-0.6532 l 0.1119822,-0.3675 -0.158192,0 -0.1581921,0 -0.3372608,0.5716 -0.3372607,0.5716 -0.790885,0 -0.7908851,0 -0.3002752,-0.2195 -0.3002754,-0.2196 0.1015499,-0.4046 0.1015497,-0.4046 0.8207842,-0.6921 0.8207841,-0.6921 0,-0.2233 0,-0.2233 -0.2858072,-0.075 -0.2858072,-0.075 0.4944455,-0.019 0.4944455,-0.019 0.3869476,0.2711 0.3869477,0.271 0.1801764,-0.24 c 0.099097,-0.1321 0.4661588,-0.5866 0.8156928,-1.0102 l 0.6355162,-0.77 -0.087537,-0.087 c -0.048145,-0.048 -0.4859552,-0.1287 -0.9729104,-0.179 l -0.885373,-0.091 -0.479198,0.2519 c -0.2635586,0.1386 -0.9201574,0.6572 -1.4591081,1.1525 -0.5389507,0.4953 -1.071777,0.9816 -1.1840584,1.0808 l -0.204148,0.1802 0,-0.1448 c 0,-0.08 0.6670294,-0.7072 1.4822874,-1.3946 l 1.4822875,-1.2499 1.0179329,0 1.0179327,0 0.2979723,0.2179 0.2979723,0.2179 0.1234337,0.8029 0.1234336,0.8028 -0.1656403,0.3132 c -0.091102,0.1723 -0.6157812,0.8705 -1.1659534,1.5516 -0.5501721,0.681 -1.1289263,1.3343 -1.2861203,1.4517 l -0.2858072,0.2134 0,1.9505 0,1.9506 -0.2449776,0 z m -1.1640609,-4.4285 0.3474689,-0.019 -0.3266368,-0.08 c -0.1796502,-0.044 -0.4368767,-0.1642 -0.5716144,-0.2668 l -0.2449776,-0.1866 0.2241455,0.2858 0.2241454,0.2858 0.347469,-0.019 z m 1.0007425,0.019 0.2449776,0 0,-0.1582 0,-0.1582 -0.2449776,0.094 c -0.1347377,0.052 -0.2449776,0.1229 -0.2449776,0.1582 0,0.035 0.1102399,0.064 0.2449776,0.064 z m -1.1239517,-0.3266 c 0.044913,0 0.036238,-0.074 -0.019277,-0.1634 -0.055515,-0.09 -0.137683,-0.1633 -0.1825955,-0.1633 -0.044913,0 -0.036238,0.073 0.019277,0.1633 0.055515,0.09 0.137683,0.1634 0.1825955,0.1634 z m 0.7973149,-0.1634 c 0.044913,0 0.081659,-0.037 0.081659,-0.082 0,-0.045 -0.036747,-0.082 -0.081659,-0.082 -0.044913,0 -0.081659,0.037 -0.081659,0.082 0,0.045 0.036747,0.082 0.081659,0.082 z m 0.7512583,-0.172 0.3103113,-0.1661 0,-0.2392 0,-0.2392 0.1633184,0 0.1633184,0 0,-0.4783 0,-0.4783 -0.2566433,-0.2567 c -0.1411536,-0.1411 -0.318676,-0.2566 -0.3944941,-0.2566 -0.075818,0 -0.5430654,0.4217 -1.0383276,0.937 -0.4952622,0.5154 -0.8854302,0.9521 -0.8670401,0.9705 0.01839,0.018 0.4357672,-0.071 0.9275045,-0.1977 l 0.8940678,-0.2311 -0.7102867,0.082 -0.7102866,0.082 0.2323545,-0.2323 0.2323546,-0.2324 0.477932,0.062 0.4779322,0.062 -0.408296,-0.1378 -0.408296,-0.1378 0.2858072,-0.1217 0.2858072,-0.1216 0,-0.2275 0,-0.2275 0.3169982,0 0.3169983,0 0.1009363,0.1633 0.1009363,0.1634 -0.3771049,0.011 -0.377105,0.012 0.3157964,0.1237 0.3157962,0.1237 -0.1933074,0.1194 -0.1933076,0.1195 0,0.317 0,0.317 -0.2398519,0 -0.2398518,0 0.092859,0.242 0.092859,0.242 0.3103114,-0.1661 z m 0.3919705,-0.8079 c -0.044913,0 -0.081659,-0.037 -0.081659,-0.082 0,-0.045 0.036747,-0.082 0.081659,-0.082 0.044913,0 0.081659,0.037 0.081659,0.082 0,0.045 -0.036747,0.082 -0.081659,0.082 z m 1.5390043,-0.4484 0.6273566,-0.6935 0.085588,-0.3273 0.085588,-0.3273 -0.23199,0 -0.23199,0 -0.4828656,0.5308 -0.4828655,0.5308 0.00191,0.49 0.00191,0.4899 0.6273568,-0.6934 z m -0.1853167,-1.1602 c 0.2712808,-0.1931 0.5737592,-0.3512 0.6721743,-0.3512 l 0.1789365,0 -0.00664,-0.5308 -0.00664,-0.5308 -0.4946994,0.5717 c -0.2720846,0.3143 -0.5715762,0.7112 -0.6655369,0.882 l -0.1708377,0.3103 0.4932379,-0.3512 z m -4.2734213,3.4051 c -0.033914,0 -0.1625272,-0.1286 -0.2858072,-0.2858 l -0.2241455,-0.2858 0.2858072,0.2242 c 0.157194,0.1232 0.2858072,0.2519 0.2858072,0.2858 0,0.034 -0.027748,0.062 -0.061662,0.062 z m -0.4732499,-1.1053 -0.066088,0.5337 -0.00167,-0.9799 -0.00167,-0.9799 0.067755,0.4462 c 0.037265,0.2454 0.038015,0.6864 0.00167,0.9799 z"
         id="path3478" />
      <path
         style="fill:#2e2e2f"
         d="m -6.9986992,1049.5456 -0.2449776,0 0,-1.9517 0,-1.9516 -0.9390808,-0.059 -0.9390808,-0.059 1.2404052,-0.031 1.2404054,-0.031 0.2509725,-0.2858 c 0.1380349,-0.1572 0.3013646,-0.4511 0.3629547,-0.6532 l 0.1119822,-0.3675 -0.158192,0 -0.1581921,0 -0.3372608,0.5716 -0.3372607,0.5716 -0.790885,0 -0.7908851,0 -0.3002752,-0.2195 -0.3002754,-0.2196 0.1015499,-0.4046 0.1015497,-0.4046 0.8207842,-0.6921 0.8207841,-0.6921 0,-0.2543 0,-0.2543 0.3674664,0.08 c 0.2021065,0.044 0.4862884,0.13 0.6315152,0.1915 l 0.2640488,0.1118 0.8476679,-1.0145 0.847668,-1.0145 -0.2134656,-0.1354 -0.2134655,-0.1354 -1.010807,0 -1.0108071,0 -0.7856953,0.6683 c -0.4321325,0.3675 -0.9847221,0.8636 -1.2279768,1.1024 -0.2432548,0.2388 -0.5556012,0.5289 -0.6941032,0.6447 l -0.2518218,0.2106 0,-0.1448 c 0,-0.08 0.6670294,-0.7072 1.4822874,-1.3946 l 1.4822875,-1.2499 1.0179329,0 1.0179327,0 0.2979723,0.2179 0.2979723,0.2179 0.1234337,0.8029 0.1234336,0.8028 -0.1656403,0.3132 c -0.091102,0.1723 -0.6157812,0.8705 -1.1659534,1.5516 -0.5501721,0.681 -1.1289263,1.3343 -1.2861203,1.4517 l -0.2858072,0.2134 0,1.9505 0,1.9506 -0.2449776,0 z m -1.1640609,-4.4285 0.3474689,-0.019 -0.3266368,-0.08 c -0.1796502,-0.044 -0.4368767,-0.1642 -0.5716144,-0.2668 l -0.2449776,-0.1866 0.2241455,0.2858 0.2241454,0.2858 0.347469,-0.019 z m 1.0007425,0.019 0.2449776,0 0,-0.1582 0,-0.1582 -0.2449776,0.094 c -0.1347377,0.052 -0.2449776,0.1229 -0.2449776,0.1582 0,0.035 0.1102399,0.064 0.2449776,0.064 z m -1.1239517,-0.3266 c 0.044913,0 0.036238,-0.074 -0.019277,-0.1634 -0.055515,-0.09 -0.137683,-0.1633 -0.1825955,-0.1633 -0.044913,0 -0.036238,0.073 0.019277,0.1633 0.055515,0.09 0.137683,0.1634 0.1825955,0.1634 z m 0.7973149,-0.1634 c 0.044913,0 0.081659,-0.037 0.081659,-0.082 0,-0.045 -0.036747,-0.082 -0.081659,-0.082 -0.044913,0 -0.081659,0.037 -0.081659,0.082 0,0.045 0.036747,0.082 0.081659,0.082 z m 0.7512583,-0.172 0.3103113,-0.1661 0,-0.2392 0,-0.2392 0.1633184,0 0.1633184,0 0,-0.4783 0,-0.4783 -0.2566433,-0.2567 c -0.1411536,-0.1411 -0.318676,-0.2566 -0.3944941,-0.2566 -0.075818,0 -0.5430654,0.4217 -1.0383276,0.937 -0.4952622,0.5154 -0.8854302,0.9521 -0.8670401,0.9705 0.01839,0.018 0.4357672,-0.071 0.9275045,-0.1977 l 0.8940678,-0.2311 -0.7102867,0.082 -0.7102866,0.082 0.2323545,-0.2323 0.2323546,-0.2324 0.477932,0.062 0.4779322,0.062 -0.408296,-0.1378 -0.408296,-0.1378 0.2858072,-0.1217 0.2858072,-0.1216 0,-0.2275 0,-0.2275 0.3169982,0 0.3169983,0 0.1009363,0.1633 0.1009363,0.1634 -0.3771049,0.011 -0.377105,0.012 0.3157964,0.1237 0.3157962,0.1237 -0.1933074,0.1194 -0.1933076,0.1195 0,0.317 0,0.317 -0.2398519,0 -0.2398518,0 0.092859,0.242 0.092859,0.242 0.3103114,-0.1661 z m 0.3919705,-0.8079 c -0.044913,0 -0.081659,-0.037 -0.081659,-0.082 0,-0.045 0.036747,-0.082 0.081659,-0.082 0.044913,0 0.081659,0.037 0.081659,0.082 0,0.045 -0.036747,0.082 -0.081659,0.082 z m 1.2067182,0 c 0.3243813,-0.3833 0.719564,-0.9268 0.8781839,-1.208 l 0.2883996,-0.5112 -0.2269945,-0.049 -0.2269943,-0.049 -0.4697012,0.4681 c -0.2583358,0.2574 -0.6039516,0.5427 -0.7680355,0.6339 l -0.2983342,0.1659 0.116846,0.6229 0.1168461,0.6228 0.5897841,-0.6967 z m -0.1038243,-1.3517 c 0.4117193,-0.3369 0.8280783,-0.6125 0.9252425,-0.6125 l 0.176662,0 -0.00627,-0.5308 -0.00627,-0.5308 -0.7340318,0.8166 c -0.4037175,0.4492 -0.8172529,0.9636 -0.9189674,1.1433 l -0.1849358,0.3266 0.7485804,-0.6124 z m -4.0226276,3.1438 c -0.033914,0 -0.1625272,-0.1286 -0.2858072,-0.2858 l -0.2241455,-0.2858 0.2858072,0.2242 c 0.157194,0.1232 0.2858072,0.2519 0.2858072,0.2858 0,0.034 -0.027748,0.062 -0.061662,0.062 z m -0.4732499,-1.1053 -0.066088,0.5337 -0.00167,-0.9799 -0.00167,-0.9799 0.067755,0.4462 c 0.037265,0.2454 0.038015,0.6864 0.00167,0.9799 z"
         id="path3476" />
      <path
         style="fill:#060607"
         d="m -6.9986992,1049.5456 -0.2449776,0 0,-1.9513 0,-1.9513 -0.8574216,-0.06 -0.8574216,-0.06 1.1023992,-0.03 1.1023992,-0.03 0,2.0415 0,2.0415 -0.2449776,0 z m -2.2664601,-4.083 c -0.033914,0 -0.1625272,-0.1286 -0.2858072,-0.2858 l -0.2241455,-0.2858 0.2858072,0.2242 c 0.157194,0.1232 0.2858072,0.2519 0.2858072,0.2858 0,0.034 -0.027748,0.062 -0.061662,0.062 z m 2.7564153,0 c -0.044913,0 -0.081659,-0.037 -0.081659,-0.082 0,-0.045 0.036747,-0.082 0.081659,-0.082 0.044913,0 0.081659,0.037 0.081659,0.082 0,0.045 -0.036747,0.082 -0.081659,0.082 z m -1.7828926,-0.1762 -0.3130268,0.013 0.098671,-0.099 0.098672,-0.099 0.2143554,0.086 0.2143554,0.086 -0.313027,0.013 z m 0.8438118,-0.01 -0.4491256,0.019 0,-0.1633 0,-0.1633 -0.2757731,0 -0.2757732,0 0.3747311,-0.3491 0.374731,-0.3491 0.1567182,0.2266 0.156718,0.2266 -0.1033632,-0.3675 -0.1033632,-0.3674 0.2015437,0 0.2015437,0 -0.1074619,0.1074 -0.107462,0.1075 0.1965663,0.2368 0.1965662,0.2369 -0.2913871,0.2131 -0.2913871,0.213 0.2975519,0.077 0.2975519,0.077 -0.4491256,0.019 z m -1.3473768,-0.1444 c -0.044913,0 -0.081659,-0.037 -0.081659,-0.082 0,-0.045 0.036747,-0.082 0.081659,-0.082 0.044913,0 0.081659,0.037 0.081659,0.082 0,0.045 -0.036747,0.082 -0.081659,0.082 z m 2.04148,-0.082 c -0.089825,0.056 -0.1633184,0.064 -0.1633184,0.019 0,-0.045 0.073493,-0.1271 0.1633184,-0.1826 0.089825,-0.056 0.1633184,-0.064 0.1633184,-0.019 0,0.045 -0.073493,0.1271 -0.1633184,0.1826 z m 0.5385346,0.082 c -0.03304,0 0.00926,-0.1286 0.093997,-0.2858 0.084738,-0.1572 0.3574179,-0.4695 0.6059563,-0.6941 l 0.4518883,-0.4083 -0.5458849,0.6941 c -0.3002365,0.3818 -0.572917,0.6941 -0.6059563,0.6941 z m -2.5800146,-0.3811 -0.2449776,0 0,-0.2081 c 0,-0.1145 0.05512,-0.2376 0.1224888,-0.2737 0.067369,-0.036 0.306222,-0.011 0.5307848,0.056 l 0.408296,0.1213 -0.2858072,0.016 -0.2858072,0.016 0,0.1361 0,0.1361 -0.2449776,0 z m -0.9445921,-0.4763 -0.068037,0.4491 0,-0.8982 0,-0.8983 0.068037,0.4491 c 0.03742,0.247 0.03742,0.6513 0,0.8983 z m 3.1919606,0.3538 c -0.023414,0.038 -0.04257,-0.01 -0.04257,-0.097 0,-0.091 0.1653599,-0.3053 0.3674664,-0.4764 l 0.3674664,-0.3111 -0.3248963,0.4083 c -0.178693,0.2246 -0.3440529,0.4389 -0.3674664,0.4763 z m -0.6958437,-0.8029 -0.2177578,0 0.1088788,-0.1089 0.108879,-0.1089 0.108879,0.1089 0.1088788,0.1089 -0.2177578,0 z m -0.73941,-0.2178 -0.249455,0 0.4433288,-0.4627 c 0.2438308,-0.2545 0.4791363,-0.4628 0.5229011,-0.4628 0.043765,0 -0.080897,0.1708 -0.2770267,0.3796 l -0.3565994,0.3796 0.083153,0.083 0.083153,0.083 -0.2494548,0 z m 1.147706,0.054 c -0.044913,0 -0.081659,-0.037 -0.081659,-0.082 0,-0.045 0.036747,-0.082 0.081659,-0.082 0.044913,0 0.081659,0.037 0.081659,0.082 0,0.045 -0.036747,0.082 -0.081659,0.082 z m -0.4899552,-0.1633 c -0.044913,0 -0.081659,-0.037 -0.081659,-0.082 0,-0.045 0.036747,-0.082 0.081659,-0.082 0.044913,0 0.081659,0.037 0.081659,0.082 0,0.045 -0.036747,0.082 -0.081659,0.082 z m 2.6130944,-0.1633 c -0.1347377,0.1118 -0.2449776,0.1666 -0.2449776,0.1217 0,-0.045 0.1102399,-0.1732 0.2449776,-0.285 0.1347377,-0.1118 0.2449776,-0.1666 0.2449776,-0.1217 0,0.045 -0.1102399,0.1732 -0.2449776,0.285 z m -2.2864576,0 c -0.044913,0 -0.081659,-0.037 -0.081659,-0.082 0,-0.045 0.036747,-0.082 0.081659,-0.082 0.044913,0 0.081659,0.037 0.081659,0.082 0,0.045 -0.036747,0.082 -0.081659,0.082 z m 1.0232409,-0.09 -0.1199879,0.172 -0.0025,-0.3348 -0.0025,-0.3348 -0.204148,-0.22 -0.204148,-0.2199 0.2162381,0.1227 0.216238,0.1227 0.4370356,-0.3846 0.4370355,-0.3845 -0.3953302,0.4485 c -0.2174315,0.2466 -0.3603251,0.4834 -0.3175414,0.5262 0.042784,0.043 0.3492956,-0.146 0.6811374,-0.4195 l 0.6033486,-0.4973 0,0.1558 c 0,0.086 -0.2755998,0.3627 -0.612444,0.6157 -0.3368442,0.2529 -0.6664385,0.5372 -0.7324319,0.6318 z m -0.6966041,-0.2363 -0.2449776,0 0,-0.1582 0,-0.1582 0.2449776,0.094 c 0.1347377,0.052 0.2449776,0.1229 0.2449776,0.1582 0,0.035 -0.1102399,0.064 -0.2449776,0.064 z m -2.9397312,-0.1634 c -0.044913,0 -0.081659,-0.037 -0.081659,-0.082 0,-0.045 0.036747,-0.082 0.081659,-0.082 0.044913,0 0.081659,0.037 0.081659,0.082 0,0.045 -0.036747,0.082 -0.081659,0.082 z m 2.4769958,-0.381 -0.108879,0.1088 0,-0.2177 0,-0.2178 0.108879,0.1089 0.1088788,0.1089 -0.1088788,0.1089 z m 3.1030496,0 -0.108879,0.1088 0,-0.2177 0,-0.2178 0.108879,0.1089 0.1088788,0.1089 -0.1088788,0.1089 z m -5.181388,-0.1089 c -0.084524,0 -0.1536798,-0.029 -0.1536798,-0.064 0,-0.035 0.114057,-0.108 0.25346,-0.1614 l 0.2534601,-0.097 -0.09978,0.1614 c -0.054879,0.089 -0.1689361,0.1615 -0.2534601,0.1615 z m 2.5410738,0 c -0.044913,0 -0.081659,-0.037 -0.081659,-0.082 0,-0.045 0.036747,-0.082 0.081659,-0.082 0.044913,0 0.081659,0.037 0.081659,0.082 0,0.045 -0.036747,0.082 -0.081659,0.082 z m 2.7913507,-0.3381 c -0.00822,-0.01 -0.1619245,-0.075 -0.3415747,-0.1519 l -0.3266368,-0.1403 0.204148,-0.012 0.204148,-0.011 0,-0.4899 0,-0.49 -0.172957,0 -0.1729569,0 0.092315,-0.1494 0.092315,-0.1493 -0.2051655,-0.083 -0.2051656,-0.083 0.1945094,-0.013 c 0.1069803,-0.01 0.2496254,0.076 0.3169891,0.1853 0.067364,0.109 0.1702897,0.5132 0.2287243,0.8983 0.058435,0.385 0.099523,0.6949 0.091307,0.6886 z m -4.5878531,-0.3152 c -0.1347377,0.1118 -0.2449776,0.1666 -0.2449776,0.1217 0,-0.045 0.1102399,-0.1732 0.2449776,-0.285 0.1347377,-0.1118 0.2449776,-0.1666 0.2449776,-0.1217 0,0.045 -0.1102399,0.1732 -0.2449776,0.285 z m 3.2094306,0 c -0.044912,0 0.090949,-0.1837 0.301915,-0.4083 0.2109657,-0.2245 0.4203208,-0.4083 0.4652334,-0.4083 0.044913,0 -0.090949,0.1838 -0.301915,0.4083 -0.2109657,0.2246 -0.4203208,0.4083 -0.4652334,0.4083 z m -2.4434632,-0.6533 c -0.044913,0 0.051362,-0.1469 0.213943,-0.3266 0.1625812,-0.1796 0.3323489,-0.3266 0.3772614,-0.3266 0.044913,0 -0.051362,0.147 -0.213943,0.3266 -0.1625812,0.1797 -0.3323489,0.3266 -0.3772614,0.3266 z m 0.8672166,-0.6532 c -0.044913,0 -0.081659,-0.037 -0.081659,-0.082 0,-0.045 0.036747,-0.082 0.081659,-0.082 0.044913,0 0.081659,0.037 0.081659,0.082 0,0.045 -0.036747,0.082 -0.081659,0.082 z m 1.1432288,-0.214 -0.9799104,0 0.4462007,-0.068 c 0.2454104,-0.037 0.6863701,-0.038 0.9799104,0 l 0.5337097,0.066 -0.9799104,0 z"
         id="path3474" />
    </g>
  </g>
</svg>
