<?xml version="1.0" encoding="UTF-8" standalone="no"?>
<!-- Created with Inkscape (http://www.inkscape.org/) -->

<svg
   xmlns:dc="http://purl.org/dc/elements/1.1/"
   xmlns:cc="http://creativecommons.org/ns#"
   xmlns:rdf="http://www.w3.org/1999/02/22-rdf-syntax-ns#"
   xmlns:svg="http://www.w3.org/2000/svg"
   xmlns="http://www.w3.org/2000/svg"
   xmlns:sodipodi="http://sodipodi.sourceforge.net/DTD/sodipodi-0.dtd"
   xmlns:inkscape="http://www.inkscape.org/namespaces/inkscape"
   width="16"
   height="16"
   id="svg2"
   version="1.1"
   inkscape:version="0.47 r22583"
   sodipodi:docname="MBOX1-32.svg">
  <defs
     id="defs4">
    <inkscape:perspective
       sodipodi:type="inkscape:persp3d"
       inkscape:vp_x="0 : 526.18109 : 1"
       inkscape:vp_y="0 : 1000 : 0"
       inkscape:vp_z="744.09448 : 526.18109 : 1"
       inkscape:persp3d-origin="372.04724 : 350.78739 : 1"
       id="perspective10" />
    <inkscape:perspective
       id="perspective2824"
       inkscape:persp3d-origin="0.5 : 0.33333333 : 1"
       inkscape:vp_z="1 : 0.5 : 1"
       inkscape:vp_y="0 : 1000 : 0"
       inkscape:vp_x="0 : 0.5 : 1"
       sodipodi:type="inkscape:persp3d" />
    <inkscape:perspective
       id="perspective5878"
       inkscape:persp3d-origin="0.5 : 0.33333333 : 1"
       inkscape:vp_z="1 : 0.5 : 1"
       inkscape:vp_y="0 : 1000 : 0"
       inkscape:vp_x="0 : 0.5 : 1"
       sodipodi:type="inkscape:persp3d" />
    <inkscape:perspective
       id="perspective5921"
       inkscape:persp3d-origin="0.5 : 0.33333333 : 1"
       inkscape:vp_z="1 : 0.5 : 1"
       inkscape:vp_y="0 : 1000 : 0"
       inkscape:vp_x="0 : 0.5 : 1"
       sodipodi:type="inkscape:persp3d" />
    <inkscape:perspective
       id="perspective5943"
       inkscape:persp3d-origin="0.5 : 0.33333333 : 1"
       inkscape:vp_z="1 : 0.5 : 1"
       inkscape:vp_y="0 : 1000 : 0"
       inkscape:vp_x="0 : 0.5 : 1"
       sodipodi:type="inkscape:persp3d" />
    <inkscape:perspective
       id="perspective5989"
       inkscape:persp3d-origin="0.5 : 0.33333333 : 1"
       inkscape:vp_z="1 : 0.5 : 1"
       inkscape:vp_y="0 : 1000 : 0"
       inkscape:vp_x="0 : 0.5 : 1"
       sodipodi:type="inkscape:persp3d" />
    <inkscape:perspective
       id="perspective6011"
       inkscape:persp3d-origin="0.5 : 0.33333333 : 1"
       inkscape:vp_z="1 : 0.5 : 1"
       inkscape:vp_y="0 : 1000 : 0"
       inkscape:vp_x="0 : 0.5 : 1"
       sodipodi:type="inkscape:persp3d" />
    <inkscape:perspective
       id="perspective6033"
       inkscape:persp3d-origin="0.5 : 0.33333333 : 1"
       inkscape:vp_z="1 : 0.5 : 1"
       inkscape:vp_y="0 : 1000 : 0"
       inkscape:vp_x="0 : 0.5 : 1"
       sodipodi:type="inkscape:persp3d" />
    <inkscape:perspective
       id="perspective6245"
       inkscape:persp3d-origin="0.5 : 0.33333333 : 1"
       inkscape:vp_z="1 : 0.5 : 1"
       inkscape:vp_y="0 : 1000 : 0"
       inkscape:vp_x="0 : 0.5 : 1"
       sodipodi:type="inkscape:persp3d" />
    <inkscape:perspective
       id="perspective6269"
       inkscape:persp3d-origin="0.5 : 0.33333333 : 1"
       inkscape:vp_z="1 : 0.5 : 1"
       inkscape:vp_y="0 : 1000 : 0"
       inkscape:vp_x="0 : 0.5 : 1"
       sodipodi:type="inkscape:persp3d" />
    <inkscape:perspective
       id="perspective6364"
       inkscape:persp3d-origin="0.5 : 0.33333333 : 1"
       inkscape:vp_z="1 : 0.5 : 1"
       inkscape:vp_y="0 : 1000 : 0"
       inkscape:vp_x="0 : 0.5 : 1"
       sodipodi:type="inkscape:persp3d" />
    <inkscape:perspective
       id="perspective6396"
       inkscape:persp3d-origin="0.5 : 0.33333333 : 1"
       inkscape:vp_z="1 : 0.5 : 1"
       inkscape:vp_y="0 : 1000 : 0"
       inkscape:vp_x="0 : 0.5 : 1"
       sodipodi:type="inkscape:persp3d" />
    <inkscape:perspective
       id="perspective6438"
       inkscape:persp3d-origin="0.5 : 0.33333333 : 1"
       inkscape:vp_z="1 : 0.5 : 1"
       inkscape:vp_y="0 : 1000 : 0"
       inkscape:vp_x="0 : 0.5 : 1"
       sodipodi:type="inkscape:persp3d" />
    <inkscape:perspective
       id="perspective6460"
       inkscape:persp3d-origin="0.5 : 0.33333333 : 1"
       inkscape:vp_z="1 : 0.5 : 1"
       inkscape:vp_y="0 : 1000 : 0"
       inkscape:vp_x="0 : 0.5 : 1"
       sodipodi:type="inkscape:persp3d" />
    <inkscape:perspective
       id="perspective6480"
       inkscape:persp3d-origin="0.5 : 0.33333333 : 1"
       inkscape:vp_z="1 : 0.5 : 1"
       inkscape:vp_y="0 : 1000 : 0"
       inkscape:vp_x="0 : 0.5 : 1"
       sodipodi:type="inkscape:persp3d" />
    <inkscape:perspective
       id="perspective6504"
       inkscape:persp3d-origin="0.5 : 0.33333333 : 1"
       inkscape:vp_z="1 : 0.5 : 1"
       inkscape:vp_y="0 : 1000 : 0"
       inkscape:vp_x="0 : 0.5 : 1"
       sodipodi:type="inkscape:persp3d" />
    <inkscape:perspective
       id="perspective6524"
       inkscape:persp3d-origin="0.5 : 0.33333333 : 1"
       inkscape:vp_z="1 : 0.5 : 1"
       inkscape:vp_y="0 : 1000 : 0"
       inkscape:vp_x="0 : 0.5 : 1"
       sodipodi:type="inkscape:persp3d" />
    <inkscape:perspective
       id="perspective6548"
       inkscape:persp3d-origin="0.5 : 0.33333333 : 1"
       inkscape:vp_z="1 : 0.5 : 1"
       inkscape:vp_y="0 : 1000 : 0"
       inkscape:vp_x="0 : 0.5 : 1"
       sodipodi:type="inkscape:persp3d" />
    <inkscape:perspective
       id="perspective6572"
       inkscape:persp3d-origin="0.5 : 0.33333333 : 1"
       inkscape:vp_z="1 : 0.5 : 1"
       inkscape:vp_y="0 : 1000 : 0"
       inkscape:vp_x="0 : 0.5 : 1"
       sodipodi:type="inkscape:persp3d" />
    <inkscape:perspective
       id="perspective6594"
       inkscape:persp3d-origin="0.5 : 0.33333333 : 1"
       inkscape:vp_z="1 : 0.5 : 1"
       inkscape:vp_y="0 : 1000 : 0"
       inkscape:vp_x="0 : 0.5 : 1"
       sodipodi:type="inkscape:persp3d" />
    <inkscape:perspective
       id="perspective6614"
       inkscape:persp3d-origin="0.5 : 0.33333333 : 1"
       inkscape:vp_z="1 : 0.5 : 1"
       inkscape:vp_y="0 : 1000 : 0"
       inkscape:vp_x="0 : 0.5 : 1"
       sodipodi:type="inkscape:persp3d" />
    <inkscape:perspective
       id="perspective6650"
       inkscape:persp3d-origin="0.5 : 0.33333333 : 1"
       inkscape:vp_z="1 : 0.5 : 1"
       inkscape:vp_y="0 : 1000 : 0"
       inkscape:vp_x="0 : 0.5 : 1"
       sodipodi:type="inkscape:persp3d" />
    <inkscape:perspective
       id="perspective6676"
       inkscape:persp3d-origin="0.5 : 0.33333333 : 1"
       inkscape:vp_z="1 : 0.5 : 1"
       inkscape:vp_y="0 : 1000 : 0"
       inkscape:vp_x="0 : 0.5 : 1"
       sodipodi:type="inkscape:persp3d" />
    <inkscape:perspective
       id="perspective6710"
       inkscape:persp3d-origin="0.5 : 0.33333333 : 1"
       inkscape:vp_z="1 : 0.5 : 1"
       inkscape:vp_y="0 : 1000 : 0"
       inkscape:vp_x="0 : 0.5 : 1"
       sodipodi:type="inkscape:persp3d" />
    <inkscape:perspective
       id="perspective6748"
       inkscape:persp3d-origin="0.5 : 0.33333333 : 1"
       inkscape:vp_z="1 : 0.5 : 1"
       inkscape:vp_y="0 : 1000 : 0"
       inkscape:vp_x="0 : 0.5 : 1"
       sodipodi:type="inkscape:persp3d" />
    <inkscape:perspective
       id="perspective6786"
       inkscape:persp3d-origin="0.5 : 0.33333333 : 1"
       inkscape:vp_z="1 : 0.5 : 1"
       inkscape:vp_y="0 : 1000 : 0"
       inkscape:vp_x="0 : 0.5 : 1"
       sodipodi:type="inkscape:persp3d" />
    <inkscape:perspective
       id="perspective6810"
       inkscape:persp3d-origin="0.5 : 0.33333333 : 1"
       inkscape:vp_z="1 : 0.5 : 1"
       inkscape:vp_y="0 : 1000 : 0"
       inkscape:vp_x="0 : 0.5 : 1"
       sodipodi:type="inkscape:persp3d" />
    <inkscape:perspective
       id="perspective6848"
       inkscape:persp3d-origin="0.5 : 0.33333333 : 1"
       inkscape:vp_z="1 : 0.5 : 1"
       inkscape:vp_y="0 : 1000 : 0"
       inkscape:vp_x="0 : 0.5 : 1"
       sodipodi:type="inkscape:persp3d" />
    <inkscape:perspective
       id="perspective6870"
       inkscape:persp3d-origin="0.5 : 0.33333333 : 1"
       inkscape:vp_z="1 : 0.5 : 1"
       inkscape:vp_y="0 : 1000 : 0"
       inkscape:vp_x="0 : 0.5 : 1"
       sodipodi:type="inkscape:persp3d" />
    <inkscape:perspective
       id="perspective6908"
       inkscape:persp3d-origin="0.5 : 0.33333333 : 1"
       inkscape:vp_z="1 : 0.5 : 1"
       inkscape:vp_y="0 : 1000 : 0"
       inkscape:vp_x="0 : 0.5 : 1"
       sodipodi:type="inkscape:persp3d" />
    <inkscape:perspective
       id="perspective6946"
       inkscape:persp3d-origin="0.5 : 0.33333333 : 1"
       inkscape:vp_z="1 : 0.5 : 1"
       inkscape:vp_y="0 : 1000 : 0"
       inkscape:vp_x="0 : 0.5 : 1"
       sodipodi:type="inkscape:persp3d" />
    <inkscape:perspective
       id="perspective6970"
       inkscape:persp3d-origin="0.5 : 0.33333333 : 1"
       inkscape:vp_z="1 : 0.5 : 1"
       inkscape:vp_y="0 : 1000 : 0"
       inkscape:vp_x="0 : 0.5 : 1"
       sodipodi:type="inkscape:persp3d" />
    <inkscape:perspective
       id="perspective7008"
       inkscape:persp3d-origin="0.5 : 0.33333333 : 1"
       inkscape:vp_z="1 : 0.5 : 1"
       inkscape:vp_y="0 : 1000 : 0"
       inkscape:vp_x="0 : 0.5 : 1"
       sodipodi:type="inkscape:persp3d" />
    <inkscape:perspective
       id="perspective7036"
       inkscape:persp3d-origin="0.5 : 0.33333333 : 1"
       inkscape:vp_z="1 : 0.5 : 1"
       inkscape:vp_y="0 : 1000 : 0"
       inkscape:vp_x="0 : 0.5 : 1"
       sodipodi:type="inkscape:persp3d" />
    <inkscape:perspective
       id="perspective7060"
       inkscape:persp3d-origin="0.5 : 0.33333333 : 1"
       inkscape:vp_z="1 : 0.5 : 1"
       inkscape:vp_y="0 : 1000 : 0"
       inkscape:vp_x="0 : 0.5 : 1"
       sodipodi:type="inkscape:persp3d" />
    <inkscape:perspective
       id="perspective7098"
       inkscape:persp3d-origin="0.5 : 0.33333333 : 1"
       inkscape:vp_z="1 : 0.5 : 1"
       inkscape:vp_y="0 : 1000 : 0"
       inkscape:vp_x="0 : 0.5 : 1"
       sodipodi:type="inkscape:persp3d" />
    <inkscape:perspective
       id="perspective7136"
       inkscape:persp3d-origin="0.5 : 0.33333333 : 1"
       inkscape:vp_z="1 : 0.5 : 1"
       inkscape:vp_y="0 : 1000 : 0"
       inkscape:vp_x="0 : 0.5 : 1"
       sodipodi:type="inkscape:persp3d" />
    <inkscape:perspective
       id="perspective7174"
       inkscape:persp3d-origin="0.5 : 0.33333333 : 1"
       inkscape:vp_z="1 : 0.5 : 1"
       inkscape:vp_y="0 : 1000 : 0"
       inkscape:vp_x="0 : 0.5 : 1"
       sodipodi:type="inkscape:persp3d" />
    <inkscape:perspective
       id="perspective7212"
       inkscape:persp3d-origin="0.5 : 0.33333333 : 1"
       inkscape:vp_z="1 : 0.5 : 1"
       inkscape:vp_y="0 : 1000 : 0"
       inkscape:vp_x="0 : 0.5 : 1"
       sodipodi:type="inkscape:persp3d" />
    <inkscape:perspective
       id="perspective7234"
       inkscape:persp3d-origin="0.5 : 0.33333333 : 1"
       inkscape:vp_z="1 : 0.5 : 1"
       inkscape:vp_y="0 : 1000 : 0"
       inkscape:vp_x="0 : 0.5 : 1"
       sodipodi:type="inkscape:persp3d" />
    <inkscape:perspective
       id="perspective7272"
       inkscape:persp3d-origin="0.5 : 0.33333333 : 1"
       inkscape:vp_z="1 : 0.5 : 1"
       inkscape:vp_y="0 : 1000 : 0"
       inkscape:vp_x="0 : 0.5 : 1"
       sodipodi:type="inkscape:persp3d" />
    <inkscape:perspective
       id="perspective7294"
       inkscape:persp3d-origin="0.5 : 0.33333333 : 1"
       inkscape:vp_z="1 : 0.5 : 1"
       inkscape:vp_y="0 : 1000 : 0"
       inkscape:vp_x="0 : 0.5 : 1"
       sodipodi:type="inkscape:persp3d" />
    <inkscape:perspective
       id="perspective7330"
       inkscape:persp3d-origin="0.5 : 0.33333333 : 1"
       inkscape:vp_z="1 : 0.5 : 1"
       inkscape:vp_y="0 : 1000 : 0"
       inkscape:vp_x="0 : 0.5 : 1"
       sodipodi:type="inkscape:persp3d" />
    <inkscape:perspective
       id="perspective3068"
       inkscape:persp3d-origin="0.5 : 0.33333333 : 1"
       inkscape:vp_z="1 : 0.5 : 1"
       inkscape:vp_y="0 : 1000 : 0"
       inkscape:vp_x="0 : 0.5 : 1"
       sodipodi:type="inkscape:persp3d" />
    <inkscape:perspective
       id="perspective3106"
       inkscape:persp3d-origin="0.5 : 0.33333333 : 1"
       inkscape:vp_z="1 : 0.5 : 1"
       inkscape:vp_y="0 : 1000 : 0"
       inkscape:vp_x="0 : 0.5 : 1"
       sodipodi:type="inkscape:persp3d" />
    <inkscape:perspective
       id="perspective3128"
       inkscape:persp3d-origin="0.5 : 0.33333333 : 1"
       inkscape:vp_z="1 : 0.5 : 1"
       inkscape:vp_y="0 : 1000 : 0"
       inkscape:vp_x="0 : 0.5 : 1"
       sodipodi:type="inkscape:persp3d" />
    <inkscape:perspective
       id="perspective3152"
       inkscape:persp3d-origin="0.5 : 0.33333333 : 1"
       inkscape:vp_z="1 : 0.5 : 1"
       inkscape:vp_y="0 : 1000 : 0"
       inkscape:vp_x="0 : 0.5 : 1"
       sodipodi:type="inkscape:persp3d" />
    <inkscape:perspective
       id="perspective3174"
       inkscape:persp3d-origin="0.5 : 0.33333333 : 1"
       inkscape:vp_z="1 : 0.5 : 1"
       inkscape:vp_y="0 : 1000 : 0"
       inkscape:vp_x="0 : 0.5 : 1"
       sodipodi:type="inkscape:persp3d" />
    <inkscape:perspective
       id="perspective3212"
       inkscape:persp3d-origin="0.5 : 0.33333333 : 1"
       inkscape:vp_z="1 : 0.5 : 1"
       inkscape:vp_y="0 : 1000 : 0"
       inkscape:vp_x="0 : 0.5 : 1"
       sodipodi:type="inkscape:persp3d" />
    <inkscape:perspective
       id="perspective3238"
       inkscape:persp3d-origin="0.5 : 0.33333333 : 1"
       inkscape:vp_z="1 : 0.5 : 1"
       inkscape:vp_y="0 : 1000 : 0"
       inkscape:vp_x="0 : 0.5 : 1"
       sodipodi:type="inkscape:persp3d" />
    <inkscape:perspective
       id="perspective3276"
       inkscape:persp3d-origin="0.5 : 0.33333333 : 1"
       inkscape:vp_z="1 : 0.5 : 1"
       inkscape:vp_y="0 : 1000 : 0"
       inkscape:vp_x="0 : 0.5 : 1"
       sodipodi:type="inkscape:persp3d" />
    <inkscape:perspective
       id="perspective3314"
       inkscape:persp3d-origin="0.5 : 0.33333333 : 1"
       inkscape:vp_z="1 : 0.5 : 1"
       inkscape:vp_y="0 : 1000 : 0"
       inkscape:vp_x="0 : 0.5 : 1"
       sodipodi:type="inkscape:persp3d" />
    <inkscape:perspective
       id="perspective3350"
       inkscape:persp3d-origin="0.5 : 0.33333333 : 1"
       inkscape:vp_z="1 : 0.5 : 1"
       inkscape:vp_y="0 : 1000 : 0"
       inkscape:vp_x="0 : 0.5 : 1"
       sodipodi:type="inkscape:persp3d" />
    <inkscape:perspective
       id="perspective3376"
       inkscape:persp3d-origin="0.5 : 0.33333333 : 1"
       inkscape:vp_z="1 : 0.5 : 1"
       inkscape:vp_y="0 : 1000 : 0"
       inkscape:vp_x="0 : 0.5 : 1"
       sodipodi:type="inkscape:persp3d" />
    <inkscape:perspective
       id="perspective3402"
       inkscape:persp3d-origin="0.5 : 0.33333333 : 1"
       inkscape:vp_z="1 : 0.5 : 1"
       inkscape:vp_y="0 : 1000 : 0"
       inkscape:vp_x="0 : 0.5 : 1"
       sodipodi:type="inkscape:persp3d" />
    <inkscape:perspective
       id="perspective3428"
       inkscape:persp3d-origin="0.5 : 0.33333333 : 1"
       inkscape:vp_z="1 : 0.5 : 1"
       inkscape:vp_y="0 : 1000 : 0"
       inkscape:vp_x="0 : 0.5 : 1"
       sodipodi:type="inkscape:persp3d" />
    <inkscape:perspective
       id="perspective3466"
       inkscape:persp3d-origin="0.5 : 0.33333333 : 1"
       inkscape:vp_z="1 : 0.5 : 1"
       inkscape:vp_y="0 : 1000 : 0"
       inkscape:vp_x="0 : 0.5 : 1"
       sodipodi:type="inkscape:persp3d" />
    <inkscape:perspective
       id="perspective3504"
       inkscape:persp3d-origin="0.5 : 0.33333333 : 1"
       inkscape:vp_z="1 : 0.5 : 1"
       inkscape:vp_y="0 : 1000 : 0"
       inkscape:vp_x="0 : 0.5 : 1"
       sodipodi:type="inkscape:persp3d" />
    <inkscape:perspective
       id="perspective3542"
       inkscape:persp3d-origin="0.5 : 0.33333333 : 1"
       inkscape:vp_z="1 : 0.5 : 1"
       inkscape:vp_y="0 : 1000 : 0"
       inkscape:vp_x="0 : 0.5 : 1"
       sodipodi:type="inkscape:persp3d" />
  </defs>
  <sodipodi:namedview
     id="base"
     pagecolor="#ffffff"
     bordercolor="#666666"
     borderopacity="1.0"
     inkscape:pageopacity="0.0"
     inkscape:pageshadow="2"
     inkscape:zoom="11.313709"
     inkscape:cx="11.966503"
     inkscape:cy="11.390551"
     inkscape:document-units="px"
     inkscape:current-layer="layer1"
     showgrid="true"
     inkscape:window-width="1280"
     inkscape:window-height="780"
     inkscape:window-x="-8"
     inkscape:window-y="-8"
     inkscape:window-maximized="1">
    <inkscape:grid
       type="xygrid"
       id="grid6324"
       empspacing="5"
       visible="true"
       enabled="true"
       snapvisiblegridlinesonly="true" />
  </sodipodi:namedview>
  <metadata
     id="metadata7">
    <rdf:RDF>
      <cc:Work
         rdf:about="">
        <dc:format>image/svg+xml</dc:format>
        <dc:type
           rdf:resource="http://purl.org/dc/dcmitype/StillImage" />
        <dc:title></dc:title>
      </cc:Work>
    </rdf:RDF>
  </metadata>
  <g
     inkscape:label="Calque 1"
     inkscape:groupmode="layer"
     id="layer1"
     transform="translate(0,-1036.3622)">
    <g
       id="g3548"
       transform="translate(0.3214286,0.1046)">
      <path
         style="fill:#bfbfbf"
         d="m 5.9285714,1049.9693 -2.75,0 0,-2.0677 0,-2.0676 0.8787594,-0.8788 0.8787593,-0.8787 0.2998121,0 0.2998121,0 0,-0.1965 0,-0.1964 0.5892857,0 0.5892857,0 0,-0.1964 0,-0.1965 0.3928572,0 0.3928571,0 0,-0.1964 0,-0.1964 0.3086736,0 0.3086733,0 0.2806124,-0.2806 0.2806121,-0.2806 0,-0.421 0,-0.4209 0.2806122,-0.2806 0.2806123,-0.2806 0.3086734,0 0.3086736,0 0,-0.1964 0,-0.1965 0.3928571,0 0.392857,0 0,-0.1964 c 0,-0.108 0.08839,-0.1964 0.196429,-0.1964 l 0.196428,0 0,1.0997 0,1.0998 0.589286,0.5505 0.589286,0.5505 0,2.1941 0,2.1942 -0.280612,0.2806 -0.280613,0.2806 -0.308673,0 -0.308674,0 0,0.1964 0,0.1964 -0.392857,0 -0.392857,0 0,0.1965 0,0.1964 -0.3928571,0 -0.3928572,0 0,0.1964 0,0.1965 -0.3928571,0 -0.3928572,0 0,0.1964 0,0.1964 -2.75,0 z"
         id="path3556" />
      <path
         style="fill:#7f7f7f"
         d="m 5.9285714,1049.9693 -2.75,0 0,-2.0677 0,-2.0676 0.8787594,-0.8788 0.8787593,-0.8787 0.2998121,0 0.2998121,0 0,-0.1965 0,-0.1964 0.5892857,0 0.5892857,0 0,-0.1964 0,-0.1965 0.3928572,0 0.3928571,0 0,-0.1964 0,-0.1964 0.3086736,0 0.3086733,0 0.2806124,-0.2806 0.2806121,-0.2806 0,-0.421 0,-0.4209 0.2806122,-0.2806 0.2806123,-0.2806 0.3086734,0 0.3086736,0 0,-0.1964 0,-0.1965 0.3928571,0 0.392857,0 0,-0.1964 c 0,-0.108 0.08839,-0.1964 0.196429,-0.1964 l 0.196428,0 0,1.0997 0,1.0998 0.589286,0.5505 0.589286,0.5505 0,2.1941 0,2.1942 -0.280612,0.2806 -0.280613,0.2806 -0.308673,0 -0.308674,0 0,0.1964 0,0.1964 -0.392857,0 -0.392857,0 0,0.1965 0,0.1964 -0.3928571,0 -0.3928572,0 0,0.1964 0,0.1965 -0.3928571,0 -0.3928572,0 0,0.1964 0,0.1964 -2.75,0 z m 2.6026786,-4.7217 0.1473214,0.01 0,-0.3928 0,-0.3929 -0.3928571,0 c -0.2160714,0 -0.3928572,0.048 -0.3928572,0.1065 0,0.059 0.1104911,0.232 0.2455358,0.3854 0.1350446,0.1534 0.3118303,0.2822 0.3928571,0.2864 z m 0.9330357,-0.3854 0.3928572,0 0,-0.1965 0,-0.1964 0.3928571,0 0.392857,0 0,-0.1964 0,-0.1964 0.392857,0 0.392857,0 0,-0.3929 0,-0.3929 -0.589285,0 -0.589286,0 0,0.1965 0,0.1964 -0.3086736,0 -0.3086733,0 -0.2806124,0.2806 -0.2806121,0.2806 0,0.3087 0,0.3087 0.3928571,0 z"
         id="path3554" />
      <path
         style="fill:#7f0000"
         d="m 5.9285714,1049.9693 -2.75,0 0,-2.0677 0,-2.0676 0.8787594,-0.8788 0.8787593,-0.8787 0.2998121,0 0.2998121,0 0,-0.1965 0,-0.1964 0.5892857,0 0.5892857,0 0,-0.1964 0,-0.1965 0.3928572,0 0.3928571,0 0,-0.1964 0,-0.1964 0.3086736,0 0.3086733,0 0.2806124,-0.2806 0.2806121,-0.2806 0,-0.421 0,-0.4209 0.2806122,-0.2806 0.2806123,-0.2806 0.3086734,0 0.3086736,0 0,-0.1964 0,-0.1965 0.3928571,0 0.392857,0 0,-0.1964 c 0,-0.108 0.08839,-0.1964 0.196429,-0.1964 l 0.196428,0 0,1.0997 0,1.0998 0.589286,0.5505 0.589286,0.5505 0,2.1941 0,2.1942 -0.280612,0.2806 -0.280613,0.2806 -0.308673,0 -0.308674,0 0,0.1964 0,0.1964 -0.392857,0 -0.392857,0 0,0.1965 0,0.1964 -0.3928571,0 -0.3928572,0 0,0.1964 0,0.1965 -0.3928571,0 -0.3928572,0 0,0.1964 0,0.1964 -2.75,0 z m -0.1964285,-0.3928 2.1607142,0 0,-2.0715 0,-2.0714 -0.4821427,-0.4821 -0.482143,-0.4822 -0.3035713,0 -0.3035715,0 0,0.5893 0,0.5893 -0.5892857,0 -0.5892858,0 0,-0.5893 c 0,-0.3241 -0.047143,-0.5893 -0.1047618,-0.5893 -0.057619,0 -0.4111906,0.3064 -0.7857143,0.681 l -0.6809524,0.6809 0,1.8726 0,1.8727 2.1607143,0 z m 2.75,-0.3929 c 0.1080357,0 0.1964285,-0.088 0.1964285,-0.1964 l 0,-0.1965 0.3928572,0 0.3928571,0 0,-0.1964 0,-0.1964 0.3928572,0 0.3928571,0 0,-0.1964 0,-0.1965 0.392857,0 0.392857,0 0,-0.1964 0,-0.1964 0.392857,0 0.392858,0 0,-2.0715 0,-2.0714 -0.482143,-0.4821 -0.482143,-0.4822 -0.5,0 -0.5000001,0 0,0.1965 0,0.1964 -0.3928572,0 -0.3928571,0 0,2.1607 0,2.1607 -0.1964286,0 -0.1964286,0 0,-2.1607 0,-2.1607 -0.1964285,0 c -0.1080358,0 -0.1964286,0.088 -0.1964286,0.1964 l 0,0.1964 -0.3928572,0 -0.3928571,0 0,0.1965 0,0.1964 -0.3928571,0 c -0.2160715,0 -0.3928572,0.051 -0.3928572,0.1136 0,0.062 0.3535714,0.4533 0.7857143,0.8685 l 0.7857143,0.755 0,1.8814 0,1.8815 0.1964286,0 z"
         id="path3552" />
      <path
         style="fill:#000000"
         d="m 5.9285714,1049.9693 -2.75,0 0,-2.0677 0,-2.0676 0.8787594,-0.8788 0.8787593,-0.8787 0.2998121,0 0.2998121,0 0,-0.1965 0,-0.1964 0.5892857,0 0.5892857,0 0,-0.1964 0,-0.1965 0.3928572,0 0.3928571,0 0,-0.1964 0,-0.1964 0.3086736,0 0.3086733,0 0.2806124,-0.2806 0.2806121,-0.2806 0,-0.421 0,-0.4209 0.2806122,-0.2806 0.2806123,-0.2806 0.3086734,0 0.3086736,0 0,-0.1964 0,-0.1965 0.3928571,0 0.392857,0 0,-0.1964 c 0,-0.108 0.08839,-0.1964 0.196429,-0.1964 l 0.196428,0 0,1.0997 0,1.0998 0.589286,0.5505 0.589286,0.5505 0,2.1941 0,2.1942 -0.280612,0.2806 -0.280613,0.2806 -0.308673,0 -0.308674,0 0,0.1964 0,0.1964 -0.392857,0 -0.392857,0 0,0.1965 0,0.1964 -0.3928571,0 -0.3928572,0 0,0.1964 0,0.1965 -0.3928571,0 -0.3928572,0 0,0.1964 0,0.1964 -2.75,0 z m -0.1964285,-0.3928 2.1607142,0 0,-2.0715 0,-2.0714 -0.4821427,-0.4821 -0.482143,-0.4822 -0.3035713,0 -0.3035715,0 0,0.5893 0,0.5893 -0.5892857,0 -0.5892858,0 0,-0.5893 c 0,-0.3241 -0.047143,-0.5893 -0.1047618,-0.5893 -0.057619,0 -0.4111906,0.3064 -0.7857143,0.681 l -0.6809524,0.6809 0,1.8726 0,1.8727 2.1607143,0 z m 2.75,-0.3929 c 0.1080357,0 0.1964285,-0.088 0.1964285,-0.1964 l 0,-0.1965 0.3928572,0 0.3928571,0 0,-0.1964 0,-0.1964 0.3928572,0 0.3928571,0 0,-0.1964 0,-0.1965 0.392857,0 0.392857,0 0,-0.1964 0,-0.1964 0.392857,0 0.392858,0 0,-2.0715 0,-2.0714 -0.482143,-0.4821 -0.482143,-0.4822 -0.5,0 -0.5000001,0 0,0.1965 0,0.1964 -0.3928572,0 -0.3928571,0 0,2.1607 0,2.1607 -0.1964286,0 -0.1964286,0 0,-2.1607 0,-2.1607 -0.1964285,0 c -0.1080358,0 -0.1964286,0.088 -0.1964286,0.1964 l 0,0.1964 -0.3928572,0 -0.3928571,0 0,0.1965 0,0.1964 -0.3928571,0 c -0.2160715,0 -0.3928572,0.051 -0.3928572,0.1136 0,0.062 0.3535714,0.4533 0.7857143,0.8685 l 0.7857143,0.755 0,1.8814 0,1.8815 0.1964286,0 z m 0.9821428,-6.6786 0.3928572,0 0,-0.1964 0,-0.1964 0.3928571,0 0.392857,0 0,-0.5893 0,-0.5893 -0.392857,0 -0.3928571,0 0,0.1964 0,0.1965 -0.3928572,0 -0.3928571,0 0,0.5892 0,0.5893 0.3928571,0 z"
         id="path3550" />
    </g>
  </g>
</svg>
