<?xml version="1.0" encoding="UTF-8" standalone="no"?>
<!-- Created with Inkscape (http://www.inkscape.org/) -->

<svg
   xmlns:dc="http://purl.org/dc/elements/1.1/"
   xmlns:cc="http://creativecommons.org/ns#"
   xmlns:rdf="http://www.w3.org/1999/02/22-rdf-syntax-ns#"
   xmlns:svg="http://www.w3.org/2000/svg"
   xmlns="http://www.w3.org/2000/svg"
   xmlns:sodipodi="http://sodipodi.sourceforge.net/DTD/sodipodi-0.dtd"
   xmlns:inkscape="http://www.inkscape.org/namespaces/inkscape"
   width="16"
   height="16"
   id="svg2"
   version="1.1"
   inkscape:version="0.47 r22583"
   sodipodi:docname="mosque-64.svg">
  <defs
     id="defs4">
    <inkscape:perspective
       sodipodi:type="inkscape:persp3d"
       inkscape:vp_x="0 : 526.18109 : 1"
       inkscape:vp_y="0 : 1000 : 0"
       inkscape:vp_z="744.09448 : 526.18109 : 1"
       inkscape:persp3d-origin="372.04724 : 350.78739 : 1"
       id="perspective10" />
    <inkscape:perspective
       id="perspective2824"
       inkscape:persp3d-origin="0.5 : 0.33333333 : 1"
       inkscape:vp_z="1 : 0.5 : 1"
       inkscape:vp_y="0 : 1000 : 0"
       inkscape:vp_x="0 : 0.5 : 1"
       sodipodi:type="inkscape:persp3d" />
    <inkscape:perspective
       id="perspective5878"
       inkscape:persp3d-origin="0.5 : 0.33333333 : 1"
       inkscape:vp_z="1 : 0.5 : 1"
       inkscape:vp_y="0 : 1000 : 0"
       inkscape:vp_x="0 : 0.5 : 1"
       sodipodi:type="inkscape:persp3d" />
    <inkscape:perspective
       id="perspective5921"
       inkscape:persp3d-origin="0.5 : 0.33333333 : 1"
       inkscape:vp_z="1 : 0.5 : 1"
       inkscape:vp_y="0 : 1000 : 0"
       inkscape:vp_x="0 : 0.5 : 1"
       sodipodi:type="inkscape:persp3d" />
    <inkscape:perspective
       id="perspective5943"
       inkscape:persp3d-origin="0.5 : 0.33333333 : 1"
       inkscape:vp_z="1 : 0.5 : 1"
       inkscape:vp_y="0 : 1000 : 0"
       inkscape:vp_x="0 : 0.5 : 1"
       sodipodi:type="inkscape:persp3d" />
    <inkscape:perspective
       id="perspective5989"
       inkscape:persp3d-origin="0.5 : 0.33333333 : 1"
       inkscape:vp_z="1 : 0.5 : 1"
       inkscape:vp_y="0 : 1000 : 0"
       inkscape:vp_x="0 : 0.5 : 1"
       sodipodi:type="inkscape:persp3d" />
    <inkscape:perspective
       id="perspective6011"
       inkscape:persp3d-origin="0.5 : 0.33333333 : 1"
       inkscape:vp_z="1 : 0.5 : 1"
       inkscape:vp_y="0 : 1000 : 0"
       inkscape:vp_x="0 : 0.5 : 1"
       sodipodi:type="inkscape:persp3d" />
    <inkscape:perspective
       id="perspective6033"
       inkscape:persp3d-origin="0.5 : 0.33333333 : 1"
       inkscape:vp_z="1 : 0.5 : 1"
       inkscape:vp_y="0 : 1000 : 0"
       inkscape:vp_x="0 : 0.5 : 1"
       sodipodi:type="inkscape:persp3d" />
    <inkscape:perspective
       id="perspective6245"
       inkscape:persp3d-origin="0.5 : 0.33333333 : 1"
       inkscape:vp_z="1 : 0.5 : 1"
       inkscape:vp_y="0 : 1000 : 0"
       inkscape:vp_x="0 : 0.5 : 1"
       sodipodi:type="inkscape:persp3d" />
    <inkscape:perspective
       id="perspective6269"
       inkscape:persp3d-origin="0.5 : 0.33333333 : 1"
       inkscape:vp_z="1 : 0.5 : 1"
       inkscape:vp_y="0 : 1000 : 0"
       inkscape:vp_x="0 : 0.5 : 1"
       sodipodi:type="inkscape:persp3d" />
    <inkscape:perspective
       id="perspective6364"
       inkscape:persp3d-origin="0.5 : 0.33333333 : 1"
       inkscape:vp_z="1 : 0.5 : 1"
       inkscape:vp_y="0 : 1000 : 0"
       inkscape:vp_x="0 : 0.5 : 1"
       sodipodi:type="inkscape:persp3d" />
    <inkscape:perspective
       id="perspective6396"
       inkscape:persp3d-origin="0.5 : 0.33333333 : 1"
       inkscape:vp_z="1 : 0.5 : 1"
       inkscape:vp_y="0 : 1000 : 0"
       inkscape:vp_x="0 : 0.5 : 1"
       sodipodi:type="inkscape:persp3d" />
    <inkscape:perspective
       id="perspective6438"
       inkscape:persp3d-origin="0.5 : 0.33333333 : 1"
       inkscape:vp_z="1 : 0.5 : 1"
       inkscape:vp_y="0 : 1000 : 0"
       inkscape:vp_x="0 : 0.5 : 1"
       sodipodi:type="inkscape:persp3d" />
    <inkscape:perspective
       id="perspective6460"
       inkscape:persp3d-origin="0.5 : 0.33333333 : 1"
       inkscape:vp_z="1 : 0.5 : 1"
       inkscape:vp_y="0 : 1000 : 0"
       inkscape:vp_x="0 : 0.5 : 1"
       sodipodi:type="inkscape:persp3d" />
    <inkscape:perspective
       id="perspective6480"
       inkscape:persp3d-origin="0.5 : 0.33333333 : 1"
       inkscape:vp_z="1 : 0.5 : 1"
       inkscape:vp_y="0 : 1000 : 0"
       inkscape:vp_x="0 : 0.5 : 1"
       sodipodi:type="inkscape:persp3d" />
    <inkscape:perspective
       id="perspective6504"
       inkscape:persp3d-origin="0.5 : 0.33333333 : 1"
       inkscape:vp_z="1 : 0.5 : 1"
       inkscape:vp_y="0 : 1000 : 0"
       inkscape:vp_x="0 : 0.5 : 1"
       sodipodi:type="inkscape:persp3d" />
    <inkscape:perspective
       id="perspective6524"
       inkscape:persp3d-origin="0.5 : 0.33333333 : 1"
       inkscape:vp_z="1 : 0.5 : 1"
       inkscape:vp_y="0 : 1000 : 0"
       inkscape:vp_x="0 : 0.5 : 1"
       sodipodi:type="inkscape:persp3d" />
    <inkscape:perspective
       id="perspective6548"
       inkscape:persp3d-origin="0.5 : 0.33333333 : 1"
       inkscape:vp_z="1 : 0.5 : 1"
       inkscape:vp_y="0 : 1000 : 0"
       inkscape:vp_x="0 : 0.5 : 1"
       sodipodi:type="inkscape:persp3d" />
    <inkscape:perspective
       id="perspective6572"
       inkscape:persp3d-origin="0.5 : 0.33333333 : 1"
       inkscape:vp_z="1 : 0.5 : 1"
       inkscape:vp_y="0 : 1000 : 0"
       inkscape:vp_x="0 : 0.5 : 1"
       sodipodi:type="inkscape:persp3d" />
    <inkscape:perspective
       id="perspective6594"
       inkscape:persp3d-origin="0.5 : 0.33333333 : 1"
       inkscape:vp_z="1 : 0.5 : 1"
       inkscape:vp_y="0 : 1000 : 0"
       inkscape:vp_x="0 : 0.5 : 1"
       sodipodi:type="inkscape:persp3d" />
    <inkscape:perspective
       id="perspective6614"
       inkscape:persp3d-origin="0.5 : 0.33333333 : 1"
       inkscape:vp_z="1 : 0.5 : 1"
       inkscape:vp_y="0 : 1000 : 0"
       inkscape:vp_x="0 : 0.5 : 1"
       sodipodi:type="inkscape:persp3d" />
    <inkscape:perspective
       id="perspective6650"
       inkscape:persp3d-origin="0.5 : 0.33333333 : 1"
       inkscape:vp_z="1 : 0.5 : 1"
       inkscape:vp_y="0 : 1000 : 0"
       inkscape:vp_x="0 : 0.5 : 1"
       sodipodi:type="inkscape:persp3d" />
    <inkscape:perspective
       id="perspective6676"
       inkscape:persp3d-origin="0.5 : 0.33333333 : 1"
       inkscape:vp_z="1 : 0.5 : 1"
       inkscape:vp_y="0 : 1000 : 0"
       inkscape:vp_x="0 : 0.5 : 1"
       sodipodi:type="inkscape:persp3d" />
    <inkscape:perspective
       id="perspective6710"
       inkscape:persp3d-origin="0.5 : 0.33333333 : 1"
       inkscape:vp_z="1 : 0.5 : 1"
       inkscape:vp_y="0 : 1000 : 0"
       inkscape:vp_x="0 : 0.5 : 1"
       sodipodi:type="inkscape:persp3d" />
    <inkscape:perspective
       id="perspective6748"
       inkscape:persp3d-origin="0.5 : 0.33333333 : 1"
       inkscape:vp_z="1 : 0.5 : 1"
       inkscape:vp_y="0 : 1000 : 0"
       inkscape:vp_x="0 : 0.5 : 1"
       sodipodi:type="inkscape:persp3d" />
    <inkscape:perspective
       id="perspective6786"
       inkscape:persp3d-origin="0.5 : 0.33333333 : 1"
       inkscape:vp_z="1 : 0.5 : 1"
       inkscape:vp_y="0 : 1000 : 0"
       inkscape:vp_x="0 : 0.5 : 1"
       sodipodi:type="inkscape:persp3d" />
    <inkscape:perspective
       id="perspective6810"
       inkscape:persp3d-origin="0.5 : 0.33333333 : 1"
       inkscape:vp_z="1 : 0.5 : 1"
       inkscape:vp_y="0 : 1000 : 0"
       inkscape:vp_x="0 : 0.5 : 1"
       sodipodi:type="inkscape:persp3d" />
    <inkscape:perspective
       id="perspective6848"
       inkscape:persp3d-origin="0.5 : 0.33333333 : 1"
       inkscape:vp_z="1 : 0.5 : 1"
       inkscape:vp_y="0 : 1000 : 0"
       inkscape:vp_x="0 : 0.5 : 1"
       sodipodi:type="inkscape:persp3d" />
    <inkscape:perspective
       id="perspective6870"
       inkscape:persp3d-origin="0.5 : 0.33333333 : 1"
       inkscape:vp_z="1 : 0.5 : 1"
       inkscape:vp_y="0 : 1000 : 0"
       inkscape:vp_x="0 : 0.5 : 1"
       sodipodi:type="inkscape:persp3d" />
    <inkscape:perspective
       id="perspective6908"
       inkscape:persp3d-origin="0.5 : 0.33333333 : 1"
       inkscape:vp_z="1 : 0.5 : 1"
       inkscape:vp_y="0 : 1000 : 0"
       inkscape:vp_x="0 : 0.5 : 1"
       sodipodi:type="inkscape:persp3d" />
    <inkscape:perspective
       id="perspective6946"
       inkscape:persp3d-origin="0.5 : 0.33333333 : 1"
       inkscape:vp_z="1 : 0.5 : 1"
       inkscape:vp_y="0 : 1000 : 0"
       inkscape:vp_x="0 : 0.5 : 1"
       sodipodi:type="inkscape:persp3d" />
    <inkscape:perspective
       id="perspective6970"
       inkscape:persp3d-origin="0.5 : 0.33333333 : 1"
       inkscape:vp_z="1 : 0.5 : 1"
       inkscape:vp_y="0 : 1000 : 0"
       inkscape:vp_x="0 : 0.5 : 1"
       sodipodi:type="inkscape:persp3d" />
    <inkscape:perspective
       id="perspective7008"
       inkscape:persp3d-origin="0.5 : 0.33333333 : 1"
       inkscape:vp_z="1 : 0.5 : 1"
       inkscape:vp_y="0 : 1000 : 0"
       inkscape:vp_x="0 : 0.5 : 1"
       sodipodi:type="inkscape:persp3d" />
    <inkscape:perspective
       id="perspective7036"
       inkscape:persp3d-origin="0.5 : 0.33333333 : 1"
       inkscape:vp_z="1 : 0.5 : 1"
       inkscape:vp_y="0 : 1000 : 0"
       inkscape:vp_x="0 : 0.5 : 1"
       sodipodi:type="inkscape:persp3d" />
    <inkscape:perspective
       id="perspective7060"
       inkscape:persp3d-origin="0.5 : 0.33333333 : 1"
       inkscape:vp_z="1 : 0.5 : 1"
       inkscape:vp_y="0 : 1000 : 0"
       inkscape:vp_x="0 : 0.5 : 1"
       sodipodi:type="inkscape:persp3d" />
    <inkscape:perspective
       id="perspective7098"
       inkscape:persp3d-origin="0.5 : 0.33333333 : 1"
       inkscape:vp_z="1 : 0.5 : 1"
       inkscape:vp_y="0 : 1000 : 0"
       inkscape:vp_x="0 : 0.5 : 1"
       sodipodi:type="inkscape:persp3d" />
    <inkscape:perspective
       id="perspective7136"
       inkscape:persp3d-origin="0.5 : 0.33333333 : 1"
       inkscape:vp_z="1 : 0.5 : 1"
       inkscape:vp_y="0 : 1000 : 0"
       inkscape:vp_x="0 : 0.5 : 1"
       sodipodi:type="inkscape:persp3d" />
    <inkscape:perspective
       id="perspective7174"
       inkscape:persp3d-origin="0.5 : 0.33333333 : 1"
       inkscape:vp_z="1 : 0.5 : 1"
       inkscape:vp_y="0 : 1000 : 0"
       inkscape:vp_x="0 : 0.5 : 1"
       sodipodi:type="inkscape:persp3d" />
    <inkscape:perspective
       id="perspective7212"
       inkscape:persp3d-origin="0.5 : 0.33333333 : 1"
       inkscape:vp_z="1 : 0.5 : 1"
       inkscape:vp_y="0 : 1000 : 0"
       inkscape:vp_x="0 : 0.5 : 1"
       sodipodi:type="inkscape:persp3d" />
    <inkscape:perspective
       id="perspective7234"
       inkscape:persp3d-origin="0.5 : 0.33333333 : 1"
       inkscape:vp_z="1 : 0.5 : 1"
       inkscape:vp_y="0 : 1000 : 0"
       inkscape:vp_x="0 : 0.5 : 1"
       sodipodi:type="inkscape:persp3d" />
    <inkscape:perspective
       id="perspective7272"
       inkscape:persp3d-origin="0.5 : 0.33333333 : 1"
       inkscape:vp_z="1 : 0.5 : 1"
       inkscape:vp_y="0 : 1000 : 0"
       inkscape:vp_x="0 : 0.5 : 1"
       sodipodi:type="inkscape:persp3d" />
    <inkscape:perspective
       id="perspective7294"
       inkscape:persp3d-origin="0.5 : 0.33333333 : 1"
       inkscape:vp_z="1 : 0.5 : 1"
       inkscape:vp_y="0 : 1000 : 0"
       inkscape:vp_x="0 : 0.5 : 1"
       sodipodi:type="inkscape:persp3d" />
    <inkscape:perspective
       id="perspective7330"
       inkscape:persp3d-origin="0.5 : 0.33333333 : 1"
       inkscape:vp_z="1 : 0.5 : 1"
       inkscape:vp_y="0 : 1000 : 0"
       inkscape:vp_x="0 : 0.5 : 1"
       sodipodi:type="inkscape:persp3d" />
    <inkscape:perspective
       id="perspective3068"
       inkscape:persp3d-origin="0.5 : 0.33333333 : 1"
       inkscape:vp_z="1 : 0.5 : 1"
       inkscape:vp_y="0 : 1000 : 0"
       inkscape:vp_x="0 : 0.5 : 1"
       sodipodi:type="inkscape:persp3d" />
    <inkscape:perspective
       id="perspective3106"
       inkscape:persp3d-origin="0.5 : 0.33333333 : 1"
       inkscape:vp_z="1 : 0.5 : 1"
       inkscape:vp_y="0 : 1000 : 0"
       inkscape:vp_x="0 : 0.5 : 1"
       sodipodi:type="inkscape:persp3d" />
    <inkscape:perspective
       id="perspective3128"
       inkscape:persp3d-origin="0.5 : 0.33333333 : 1"
       inkscape:vp_z="1 : 0.5 : 1"
       inkscape:vp_y="0 : 1000 : 0"
       inkscape:vp_x="0 : 0.5 : 1"
       sodipodi:type="inkscape:persp3d" />
    <inkscape:perspective
       id="perspective3152"
       inkscape:persp3d-origin="0.5 : 0.33333333 : 1"
       inkscape:vp_z="1 : 0.5 : 1"
       inkscape:vp_y="0 : 1000 : 0"
       inkscape:vp_x="0 : 0.5 : 1"
       sodipodi:type="inkscape:persp3d" />
    <inkscape:perspective
       id="perspective3174"
       inkscape:persp3d-origin="0.5 : 0.33333333 : 1"
       inkscape:vp_z="1 : 0.5 : 1"
       inkscape:vp_y="0 : 1000 : 0"
       inkscape:vp_x="0 : 0.5 : 1"
       sodipodi:type="inkscape:persp3d" />
    <inkscape:perspective
       id="perspective3212"
       inkscape:persp3d-origin="0.5 : 0.33333333 : 1"
       inkscape:vp_z="1 : 0.5 : 1"
       inkscape:vp_y="0 : 1000 : 0"
       inkscape:vp_x="0 : 0.5 : 1"
       sodipodi:type="inkscape:persp3d" />
    <inkscape:perspective
       id="perspective3238"
       inkscape:persp3d-origin="0.5 : 0.33333333 : 1"
       inkscape:vp_z="1 : 0.5 : 1"
       inkscape:vp_y="0 : 1000 : 0"
       inkscape:vp_x="0 : 0.5 : 1"
       sodipodi:type="inkscape:persp3d" />
    <inkscape:perspective
       id="perspective3276"
       inkscape:persp3d-origin="0.5 : 0.33333333 : 1"
       inkscape:vp_z="1 : 0.5 : 1"
       inkscape:vp_y="0 : 1000 : 0"
       inkscape:vp_x="0 : 0.5 : 1"
       sodipodi:type="inkscape:persp3d" />
    <inkscape:perspective
       id="perspective3314"
       inkscape:persp3d-origin="0.5 : 0.33333333 : 1"
       inkscape:vp_z="1 : 0.5 : 1"
       inkscape:vp_y="0 : 1000 : 0"
       inkscape:vp_x="0 : 0.5 : 1"
       sodipodi:type="inkscape:persp3d" />
    <inkscape:perspective
       id="perspective3350"
       inkscape:persp3d-origin="0.5 : 0.33333333 : 1"
       inkscape:vp_z="1 : 0.5 : 1"
       inkscape:vp_y="0 : 1000 : 0"
       inkscape:vp_x="0 : 0.5 : 1"
       sodipodi:type="inkscape:persp3d" />
    <inkscape:perspective
       id="perspective3376"
       inkscape:persp3d-origin="0.5 : 0.33333333 : 1"
       inkscape:vp_z="1 : 0.5 : 1"
       inkscape:vp_y="0 : 1000 : 0"
       inkscape:vp_x="0 : 0.5 : 1"
       sodipodi:type="inkscape:persp3d" />
    <inkscape:perspective
       id="perspective3402"
       inkscape:persp3d-origin="0.5 : 0.33333333 : 1"
       inkscape:vp_z="1 : 0.5 : 1"
       inkscape:vp_y="0 : 1000 : 0"
       inkscape:vp_x="0 : 0.5 : 1"
       sodipodi:type="inkscape:persp3d" />
    <inkscape:perspective
       id="perspective3428"
       inkscape:persp3d-origin="0.5 : 0.33333333 : 1"
       inkscape:vp_z="1 : 0.5 : 1"
       inkscape:vp_y="0 : 1000 : 0"
       inkscape:vp_x="0 : 0.5 : 1"
       sodipodi:type="inkscape:persp3d" />
    <inkscape:perspective
       id="perspective3466"
       inkscape:persp3d-origin="0.5 : 0.33333333 : 1"
       inkscape:vp_z="1 : 0.5 : 1"
       inkscape:vp_y="0 : 1000 : 0"
       inkscape:vp_x="0 : 0.5 : 1"
       sodipodi:type="inkscape:persp3d" />
    <inkscape:perspective
       id="perspective3504"
       inkscape:persp3d-origin="0.5 : 0.33333333 : 1"
       inkscape:vp_z="1 : 0.5 : 1"
       inkscape:vp_y="0 : 1000 : 0"
       inkscape:vp_x="0 : 0.5 : 1"
       sodipodi:type="inkscape:persp3d" />
    <inkscape:perspective
       id="perspective3542"
       inkscape:persp3d-origin="0.5 : 0.33333333 : 1"
       inkscape:vp_z="1 : 0.5 : 1"
       inkscape:vp_y="0 : 1000 : 0"
       inkscape:vp_x="0 : 0.5 : 1"
       sodipodi:type="inkscape:persp3d" />
    <inkscape:perspective
       id="perspective3566"
       inkscape:persp3d-origin="0.5 : 0.33333333 : 1"
       inkscape:vp_z="1 : 0.5 : 1"
       inkscape:vp_y="0 : 1000 : 0"
       inkscape:vp_x="0 : 0.5 : 1"
       sodipodi:type="inkscape:persp3d" />
    <inkscape:perspective
       id="perspective3590"
       inkscape:persp3d-origin="0.5 : 0.33333333 : 1"
       inkscape:vp_z="1 : 0.5 : 1"
       inkscape:vp_y="0 : 1000 : 0"
       inkscape:vp_x="0 : 0.5 : 1"
       sodipodi:type="inkscape:persp3d" />
    <inkscape:perspective
       id="perspective3610"
       inkscape:persp3d-origin="0.5 : 0.33333333 : 1"
       inkscape:vp_z="1 : 0.5 : 1"
       inkscape:vp_y="0 : 1000 : 0"
       inkscape:vp_x="0 : 0.5 : 1"
       sodipodi:type="inkscape:persp3d" />
  </defs>
  <sodipodi:namedview
     id="base"
     pagecolor="#ffffff"
     bordercolor="#666666"
     borderopacity="1.0"
     inkscape:pageopacity="0.0"
     inkscape:pageshadow="2"
     inkscape:zoom="11.313709"
     inkscape:cx="11.966503"
     inkscape:cy="14.926085"
     inkscape:document-units="px"
     inkscape:current-layer="layer1"
     showgrid="true"
     inkscape:window-width="1280"
     inkscape:window-height="780"
     inkscape:window-x="-8"
     inkscape:window-y="-8"
     inkscape:window-maximized="1">
    <inkscape:grid
       type="xygrid"
       id="grid6324"
       empspacing="5"
       visible="true"
       enabled="true"
       snapvisiblegridlinesonly="true" />
  </sodipodi:namedview>
  <metadata
     id="metadata7">
    <rdf:RDF>
      <cc:Work
         rdf:about="">
        <dc:format>image/svg+xml</dc:format>
        <dc:type
           rdf:resource="http://purl.org/dc/dcmitype/StillImage" />
        <dc:title></dc:title>
      </cc:Work>
    </rdf:RDF>
  </metadata>
  <g
     inkscape:label="Calque 1"
     inkscape:groupmode="layer"
     id="layer1"
     transform="translate(0,-1036.3622)">
    <g
       id="g3616"
       transform="translate(-0.3086023,0.4375)">
      <path
         style="fill:#b6f2f3"
         d="m 7.8823248,1049.601 -3.9614221,0.011 -0.2259497,-0.2722 -0.2259496,-0.2723 0.1221695,-0.3849 0.1221694,-0.3849 -0.2941787,-0.1129 -0.2941788,-0.1129 0,-0.3439 0,-0.3439 0.1875003,-0.1158 0.1875002,-0.1159 0,-1.4128 0,-1.4127 0.3750006,-0.098 0.3750005,-0.098 0,-0.4509 0,-0.4509 0.4687506,-0.2136 0.4687507,-0.2136 0,-0.4386 0,-0.4387 0.2924987,0 0.2924989,0 0.8594657,-0.6562 0.8594658,-0.6563 0.2625067,0 0.2625069,0 -0.030435,-0.2344 c -0.016739,-0.1289 -0.019146,-0.5297 -0.00535,-0.8906 l 0.025087,-0.6562 0.1817579,0.2812 0.1817579,0.2813 0.00287,0.589 0.00287,0.5891 0.4218755,0.1077 0.4218756,0.1077 0.7395292,0.6125 0.7395285,0.6125 0.291723,0 0.291722,0 0.05997,0.4222 0.05997,0.4223 0.361905,0.1937 0.361906,0.1937 0,0.2759 0,0.2759 0.468751,0.4076 0.468751,0.4075 0.006,1.1381 0.006,1.1381 0.275287,0.3639 c 0.151409,0.2002 0.275288,0.4682 0.275288,0.5957 l 0,0.2316 -0.325972,0.063 -0.325972,0.063 0.435347,0.4353 0.435348,0.4354 -0.107578,0.1075 c -0.05917,0.059 -0.509169,0.1737 -1.000002,0.2545 l -0.892423,0.1469 -3.9614221,0.011 z m -1.9448361,-0.1763 0.2500003,0 -0.1250001,-0.125 -0.1250002,-0.125 -0.1250002,0.125 -0.1250001,0.125 0.2500003,0 z m 0.8437512,0 c 0.051563,0 0.09375,-0.042 0.09375,-0.094 0,-0.052 -0.042188,-0.094 -0.09375,-0.094 -0.051563,0 -0.09375,0.042 -0.09375,0.094 0,0.052 0.042188,0.094 0.09375,0.094 z m 1.1250015,0 c 0.051563,0 0.09375,-0.042 0.09375,-0.094 0,-0.052 -0.042187,-0.094 -0.09375,-0.094 -0.051563,0 -0.09375,0.042 -0.09375,0.094 0,0.052 0.042188,0.094 0.09375,0.094 z m 0.5625008,0 c 0.051563,0 0.09375,-0.042 0.09375,-0.094 0,-0.052 -0.042188,-0.094 -0.09375,-0.094 -0.051563,0 -0.09375,0.042 -0.09375,0.094 0,0.052 0.042188,0.094 0.09375,0.094 z m 0.9375013,0 c 0.051562,0 0.09375,-0.042 0.09375,-0.094 0,-0.052 -0.042188,-0.094 -0.09375,-0.094 -0.051563,0 -0.09375,0.042 -0.09375,0.094 0,0.052 0.042188,0.094 0.09375,0.094 z m 0.9531265,-0.015 0.359375,-0.015 -0.246094,-0.099 -0.246094,-0.098 -0.113281,0.1132 -0.1132816,0.1133 0.3593756,-0.015 z m 0.950936,0.015 c 0.03558,0 0.06469,-0.029 0.06469,-0.065 0,-0.036 -0.189844,-0.2254 -0.421875,-0.4218 l -0.421876,-0.3572 0.357186,0.4218 c 0.196452,0.2321 0.386296,0.4219 0.421875,0.4219 z m -5.7965533,-4.1787 c 0.037322,-0.5967 0.036976,-1.5249 -7.687e-4,-2.0625 l -0.068628,-0.9775 7.687e-4,2.0625 7.688e-4,2.0625 0.067858,-1.085 z"
         id="path3638" />
      <path
         style="fill:#fae0ba"
         d="m 7.8823248,1049.601 -3.9614221,0.011 -0.2259497,-0.2722 -0.2259496,-0.2723 0.1221695,-0.3849 0.1221694,-0.3849 -0.2941787,-0.1129 -0.2941788,-0.1129 0,-0.3439 0,-0.3439 0.1875003,-0.1158 0.1875002,-0.1159 0,-1.4128 0,-1.4127 0.3750006,-0.098 0.3750005,-0.098 0,-0.4509 0,-0.4509 0.4687506,-0.2136 0.4687507,-0.2136 0,-0.4386 0,-0.4387 0.2924987,0 0.2924989,0 0.8594657,-0.6562 0.8594658,-0.6563 0.2625067,0 0.2625069,0 -0.030435,-0.2344 c -0.016739,-0.1289 -0.019146,-0.5297 -0.00535,-0.8906 l 0.025087,-0.6562 0.1817579,0.2812 0.1817579,0.2813 0.00287,0.589 0.00287,0.5891 0.4218755,0.1077 0.4218756,0.1077 0.7395292,0.6125 0.7395285,0.6125 0.291723,0 0.291722,0 0.05997,0.4222 0.05997,0.4223 0.361905,0.1937 0.361906,0.1937 0,0.2759 0,0.2759 0.468751,0.4076 0.468751,0.4075 0.006,1.1381 0.006,1.1381 0.275287,0.3639 c 0.151409,0.2002 0.275288,0.4682 0.275288,0.5957 l 0,0.2316 -0.325972,0.063 -0.325972,0.063 0.435347,0.4353 0.435348,0.4354 -0.107578,0.1075 c -0.05917,0.059 -0.509169,0.1737 -1.000002,0.2545 l -0.892423,0.1469 -3.9614221,0.011 z m -1.9448361,-0.1763 0.2500003,0 -0.1250001,-0.125 -0.1250002,-0.125 -0.1250002,0.125 -0.1250001,0.125 0.2500003,0 z m 0.8437512,0 c 0.051563,0 0.09375,-0.042 0.09375,-0.094 0,-0.052 -0.042188,-0.094 -0.09375,-0.094 -0.051563,0 -0.09375,0.042 -0.09375,0.094 0,0.052 0.042188,0.094 0.09375,0.094 z m 1.1250015,0 c 0.051563,0 0.09375,-0.042 0.09375,-0.094 0,-0.052 -0.042187,-0.094 -0.09375,-0.094 -0.051563,0 -0.09375,0.042 -0.09375,0.094 0,0.052 0.042188,0.094 0.09375,0.094 z m 0.5625008,0 c 0.051563,0 0.09375,-0.042 0.09375,-0.094 0,-0.052 -0.042188,-0.094 -0.09375,-0.094 -0.051563,0 -0.09375,0.042 -0.09375,0.094 0,0.052 0.042188,0.094 0.09375,0.094 z m 0.9375013,0 c 0.051562,0 0.09375,-0.042 0.09375,-0.094 0,-0.052 -0.042188,-0.094 -0.09375,-0.094 -0.051563,0 -0.09375,0.042 -0.09375,0.094 0,0.052 0.042188,0.094 0.09375,0.094 z m 0.9531265,-0.015 0.359375,-0.015 -0.246094,-0.099 -0.246094,-0.098 -0.113281,0.1132 -0.1132816,0.1133 0.3593756,-0.015 z m 0.950936,0.015 c 0.03558,0 0.06469,-0.029 0.06469,-0.065 0,-0.036 -0.189844,-0.2254 -0.421875,-0.4218 l -0.421876,-0.3572 0.357186,0.4218 c 0.196452,0.2321 0.386296,0.4219 0.421875,0.4219 z m -7.0134446,-3.0862 0.6093759,-0.2556 0.055093,-1.4412 0.055093,-1.4412 -0.242593,0.08 -0.2425929,0.08 -0.057487,0.482 -0.057487,0.4821 -0.3643888,0.095 -0.3643887,0.095 0,1.0398 0,1.0397 0.6093758,-0.2556 z m 8.3555526,-0.8335 0.05867,-0.8421 -0.369949,-0.291 -0.369949,-0.2909 -0.06372,-0.3595 -0.06372,-0.3595 -0.234375,-0.078 -0.234376,-0.078 0,1.3947 0,1.3948 0.609376,0.1758 0.609376,0.1758 0.05867,-0.8421 z m -7.1386613,-0.259 c 0.037322,-0.5967 0.036976,-1.5249 -7.687e-4,-2.0625 l -0.068628,-0.9775 7.687e-4,2.0625 7.688e-4,2.0625 0.067858,-1.085 z"
         id="path3636" />
      <path
         style="fill:#45b0e8"
         d="m 7.8823248,1049.601 -3.9614221,0.011 -0.2259497,-0.2722 -0.2259496,-0.2723 0.1221695,-0.3849 0.1221694,-0.3849 -0.2941787,-0.1129 -0.2941788,-0.1129 0,-0.3439 0,-0.3439 0.1875003,-0.1158 0.1875002,-0.1159 0,-1.4128 0,-1.4127 0.3750006,-0.098 0.3750005,-0.098 0,-0.4509 0,-0.4509 0.4687506,-0.2136 0.4687507,-0.2136 0,-0.4386 0,-0.4387 0.2924987,0 0.2924989,0 0.8594657,-0.6562 0.8594658,-0.6563 0.2625067,0 0.2625069,0 -0.030435,-0.2344 c -0.016739,-0.1289 -0.019146,-0.5297 -0.00535,-0.8906 l 0.025087,-0.6562 0.1817579,0.2812 0.1817579,0.2813 0.00287,0.589 0.00287,0.5891 0.4218755,0.1077 0.4218756,0.1077 0.7395292,0.6125 0.7395285,0.6125 0.291723,0 0.291722,0 0.05997,0.4222 0.05997,0.4223 0.361905,0.1937 0.361906,0.1937 0,0.2759 0,0.2759 0.468751,0.4076 0.468751,0.4075 0.006,1.1381 0.006,1.1381 0.275287,0.3639 c 0.151409,0.2002 0.275288,0.4682 0.275288,0.5957 l 0,0.2316 -0.325972,0.063 -0.325972,0.063 0.435347,0.4353 0.435348,0.4354 -0.107578,0.1075 c -0.05917,0.059 -0.509169,0.1737 -1.000002,0.2545 l -0.892423,0.1469 -3.9614221,0.011 z m -3.2215285,-0.1792 0.3170597,0 0.1158815,-0.1875 0.1158816,-0.1875 -0.1516909,0 c -0.08343,0 -0.2782536,0.085 -0.4329413,0.1846 l -0.2812504,0.1818 0.3170598,0 z m 1.0096332,0 0.3891916,9e-4 0.4403684,-0.4687 0.4403683,-0.4688 -0.2670592,0.01 c -0.1468826,0 -0.5201846,0.2142 -0.82956,0.4678 l -0.5625008,0.4611 0.3891917,9e-4 z m 1.5468771,9e-4 0.7826849,0 0,-0.4687 0,-0.4688 -0.3423166,0 -0.3423166,0 -0.4403683,0.4688 -0.4403684,0.4687 0.782685,0 z m 1.7788712,0 0.7566839,0 -0.4403684,-0.4687 c -0.2422025,-0.2578 -0.542387,-0.4688 -0.6670766,-0.4688 l -0.2267082,0 -0.089607,0.4688 -0.089607,0.4687 0.7566839,0 z m 1.4883872,0 0.356703,0 -0.557079,-0.4687 c -0.3063932,-0.2578 -0.6650752,-0.4688 -0.797071,-0.4688 l -0.2399925,0 0.4403684,0.4688 0.4403681,0.4687 0.356703,0 z m 0.97992,-0.01 0.183239,0.01 -0.505683,-0.5057 -0.505682,-0.5056 -0.125994,0.1259 -0.125994,0.126 0.448438,0.3735 c 0.24664,0.2054 0.530895,0.3762 0.631676,0.3797 z m -5.9019968,-0.65 c 0.1031251,-0.064 0.1875002,-0.1581 0.1875002,-0.2097 0,-0.052 -0.084375,-0.042 -0.1875002,0.022 -0.1031252,0.064 -0.1875003,0.158 -0.1875003,0.2096 0,0.052 0.084375,0.042 0.1875003,-0.022 z m 5.2547758,-1.9701 0.176989,-0.2799 0.0029,-2.1094 0.0029,-2.1094 -2.8125042,0 -2.8125039,0 0,2.0396 0,2.0395 0.2812504,0.2334 0.2812504,0.2334 0,-1.7162 0,-1.7162 2.2968782,0.053 2.2968781,0.053 0.05451,1.7799 0.05452,1.78 0.17699,-0.28 z m -6.5204026,-0.4599 0.6093759,-0.2556 0.055093,-1.4412 0.055093,-1.4412 -0.242593,0.08 -0.2425929,0.08 -0.057487,0.482 -0.057487,0.4821 -0.3643888,0.095 -0.3643887,0.095 0,1.0398 0,1.0397 0.6093758,-0.2556 z m 8.3555526,-0.8335 0.05867,-0.8421 -0.369949,-0.291 -0.369949,-0.2909 -0.06372,-0.3595 -0.06372,-0.3595 -0.234375,-0.078 -0.234376,-0.078 0,1.3947 0,1.3948 0.609376,0.1758 0.609376,0.1758 0.05867,-0.8421 z m -4.4588204,-3.5803 1.9270214,0 -0.3273573,-0.3617 c -0.1800466,-0.199 -0.6127205,-0.4972 -0.9614978,-0.6627 l -0.6341405,-0.3009 -0.7207331,0.3677 c -0.3964031,0.2022 -0.8308887,0.5004 -0.9655234,0.6627 l -0.2447904,0.2949 1.9270211,0 z"
         id="path3634" />
      <path
         style="fill:#9b9c52"
         d="m 7.8823248,1049.601 -3.9614221,0.011 -0.2259497,-0.2722 -0.2259496,-0.2723 0.1221695,-0.3849 0.1221694,-0.3849 -0.2941787,-0.1129 -0.2941788,-0.1129 0,-0.3439 0,-0.3439 0.1875003,-0.1158 0.1875002,-0.1159 0,-1.4128 0,-1.4127 0.3750006,-0.098 0.3750005,-0.098 0,-0.4509 0,-0.4509 0.4687506,-0.2136 0.4687507,-0.2136 0,-0.4386 0,-0.4387 0.2924987,0 0.2924989,0 0.8594657,-0.6562 0.8594658,-0.6563 0.2625067,0 0.2625069,0 -0.030435,-0.2344 c -0.016739,-0.1289 -0.019146,-0.5297 -0.00535,-0.8906 l 0.025087,-0.6562 0.1817579,0.2812 0.1817579,0.2813 0.00287,0.589 0.00287,0.5891 0.4218755,0.1077 0.4218756,0.1077 0.7395292,0.6125 0.7395285,0.6125 0.291723,0 0.291722,0 0.05997,0.4222 0.05997,0.4223 0.361905,0.1937 0.361906,0.1937 0,0.2759 0,0.2759 0.468751,0.4076 0.468751,0.4075 0.006,1.1381 0.006,1.1381 0.275287,0.3639 c 0.151409,0.2002 0.275288,0.4682 0.275288,0.5957 l 0,0.2316 -0.325972,0.063 -0.325972,0.063 0.435347,0.4353 0.435348,0.4354 -0.107578,0.1075 c -0.05917,0.059 -0.509169,0.1737 -1.000002,0.2545 l -0.892423,0.1469 -3.9614221,0.011 z m -3.2215285,-0.1792 0.3170597,0 0.1158815,-0.1875 0.1158816,-0.1875 -0.1516909,0 c -0.08343,0 -0.2782536,0.085 -0.4329413,0.1846 l -0.2812504,0.1818 0.3170598,0 z m 1.0096332,0 0.3891916,9e-4 0.4403684,-0.4687 0.4403683,-0.4688 -0.2670592,0.01 c -0.1468826,0 -0.5201846,0.2142 -0.82956,0.4678 l -0.5625008,0.4611 0.3891917,9e-4 z m 1.5468771,9e-4 0.7826849,0 0,-0.4687 0,-0.4688 -0.3423166,0 -0.3423166,0 -0.4403683,0.4688 -0.4403684,0.4687 0.782685,0 z m 1.7788712,0 0.7566839,0 -0.4403684,-0.4687 c -0.2422025,-0.2578 -0.542387,-0.4688 -0.6670766,-0.4688 l -0.2267082,0 -0.089607,0.4688 -0.089607,0.4687 0.7566839,0 z m 1.4883872,0 0.356703,0 -0.557079,-0.4687 c -0.3063932,-0.2578 -0.6650752,-0.4688 -0.797071,-0.4688 l -0.2399925,0 0.4403684,0.4688 0.4403681,0.4687 0.356703,0 z m 0.97992,-0.01 0.183239,0.01 -0.505683,-0.5057 -0.505682,-0.5056 -0.125994,0.1259 -0.125994,0.126 0.448438,0.3735 c 0.24664,0.2054 0.530895,0.3762 0.631676,0.3797 z m -5.9019968,-0.65 c 0.1031251,-0.064 0.1875002,-0.1581 0.1875002,-0.2097 0,-0.052 -0.084375,-0.042 -0.1875002,0.022 -0.1031252,0.064 -0.1875003,0.158 -0.1875003,0.2096 0,0.052 0.084375,0.042 0.1875003,-0.022 z m 4.2761534,-2.259 c 0.031569,-0.6052 0.013948,-1.2735 -0.039157,-1.4851 l -0.096554,-0.3847 -0.5832005,-0.3445 c -0.3207602,-0.1895 -0.6223638,-0.3054 -0.6702301,-0.2575 -0.047866,0.048 0.2321945,0.8712 0.6223572,1.8296 l 0.7093866,1.7426 0.057398,-1.1004 z m 0.8874424,0.5031 0.273912,-0.6309 0,-2.041 0,-2.041 -2.8125042,0 -2.8125039,0 0,2.0396 0,2.0395 0.2812504,0.2334 0.2812504,0.2334 0,-1.6167 0,-1.6167 2.2500031,0 2.2500032,0 0.0073,2.0156 0.0073,2.0157 0.273912,-0.6309 z m -4.083999,0.3489 c 0.076535,-4e-4 0.450203,-0.7597 0.8303729,-1.6875 l 0.6912182,-1.6868 -0.2224676,9e-4 c -0.122357,6e-4 -0.4595202,0.1907 -0.7492514,0.4225 l -0.526784,0.4216 -0.081121,1.265 -0.081122,1.265 0.1391548,-7e-4 z m -2.322164,-1.0327 0.6324353,-0.2642 0.1175657,0.1175 0.1175657,0.1176 0,-1.6316 0,-1.6316 -0.3750005,0.2007 -0.3750006,0.2007 0,0.4403 0,0.4403 -0.3750005,0.098 -0.3750005,0.098 0,1.0392 0,1.0393 0.6324354,-0.2643 z m 8.414452,0.077 0.140625,0.019 0,-0.8422 0,-0.8421 -0.375,-0.2342 -0.375001,-0.2342 0,-0.2154 c 0,-0.1184 -0.165943,-0.4145 -0.368762,-0.658 l -0.368763,-0.4426 -0.0062,1.5197 -0.0062,1.5198 0.609376,0.1954 c 0.335157,0.1076 0.672657,0.2041 0.750001,0.2147 z m -4.5407794,-4.4809 1.9270214,0 -0.3273573,-0.3617 c -0.1800466,-0.199 -0.6127205,-0.4972 -0.9614978,-0.6627 l -0.6341405,-0.3009 -0.7207331,0.3677 c -0.3964031,0.2022 -0.8308887,0.5004 -0.9655234,0.6627 l -0.2447904,0.2949 1.9270211,0 z"
         id="path3632" />
      <path
         style="fill:#8b7968"
         d="m 7.8968664,1049.601 -3.9468804,0.011 -0.2250003,-0.225 -0.2250004,-0.225 0.013179,-0.2906 0.013178,-0.2906 0.1611432,0.375 0.1611433,0.375 0.013178,-0.3282 0.013178,-0.3281 -0.3750006,-0.375 -0.3750005,-0.375 0,-0.2702 c 0,-0.1486 0.084375,-0.3223 0.1875003,-0.386 l 0.1875002,-0.1159 0,-1.4128 0,-1.4127 0.3750006,-0.098 0.3750005,-0.098 0,-0.4509 0,-0.4509 0.4687506,-0.2136 0.4687507,-0.2136 0,-0.4386 0,-0.4387 0.2924987,0 0.2924989,0 0.8594657,-0.6562 0.8594658,-0.6563 0.2625067,0 0.2625069,0 -0.030435,-0.2344 c -0.016739,-0.1289 -0.019146,-0.5297 -0.00535,-0.8906 l 0.025087,-0.6562 0.1817579,0.2812 0.1817579,0.2813 0.00287,0.589 0.00287,0.5891 0.4218755,0.1077 0.4218756,0.1077 0.7395292,0.6125 0.7395286,0.6125 0.291723,0 0.291722,0 0.05997,0.4222 0.05997,0.4223 0.361905,0.1937 0.361906,0.1937 0,0.2759 0,0.2759 0.468751,0.4076 0.468751,0.4075 0.006,1.1381 0.006,1.1381 0.275287,0.3639 c 0.151409,0.2002 0.275288,0.4682 0.275288,0.5957 l 0,0.2316 -0.325972,0.063 -0.325972,0.063 0.435347,0.4353 0.435348,0.4354 -0.107578,0.1075 c -0.05917,0.059 -0.509169,0.1737 -1.000002,0.2545 l -0.892423,0.1469 -3.9468806,0.011 z m -3.3514385,-0.1882 0.3891917,0.012 0.4545595,-0.5143 0.4545595,-0.5143 -0.3788561,0.317 c -0.2083709,0.1743 -0.5880589,0.4003 -0.8437512,0.5024 l -0.464895,0.1854 0.3891916,0.012 z m 1.2045605,-7e-4 0.4687507,8e-4 0.3368789,-0.4628 0.3368789,-0.4629 -0.2431288,10e-4 c -0.1337209,5e-4 -0.4962541,0.2084 -0.8056295,0.462 l -0.5625008,0.461 0.4687506,9e-4 z m 1.4673182,0.013 0.7826849,0 0,-0.4687 0,-0.4688 -0.3423166,0 -0.3423166,0 -0.4403683,0.4688 -0.4403684,0.4687 0.782685,0 z m 1.7528702,0 0.7826849,0 -0.4403684,-0.4687 -0.4403683,-0.4688 -0.3423166,0 -0.3423166,0 0,0.4688 0,0.4687 0.782685,0 z m 1.4673182,-0.01 0.468751,0.01 -0.562501,-0.4611 c -0.309376,-0.2536 -0.6719089,-0.4641 -0.8056298,-0.4678 l -0.2431288,-0.01 0.336879,0.4629 0.3368789,0.4628 0.4687507,0 z m 1.125001,-0.01 0.281251,0 -0.562501,-0.461 -0.562501,-0.4611 -0.28125,0 -0.28125,0 0.5625,0.4611 0.562501,0.461 0.28125,0 z m 0.139342,-0.798 0.08131,-0.3428 -0.110325,-0.1104 -0.110325,-0.1103 -0.116913,0.1169 -0.116914,0.1169 0.145931,0.3363 0.145931,0.3362 0.08131,-0.3428 z m -1.8631964,-2.1037 c 0.031569,-0.6052 0.013948,-1.2735 -0.039157,-1.4851 l -0.096554,-0.3847 -0.5832005,-0.3445 c -0.3207602,-0.1895 -0.6223638,-0.3054 -0.6702301,-0.2575 -0.047866,0.048 0.2321945,0.8712 0.6223572,1.8296 l 0.7093866,1.7426 0.057398,-1.1004 z m 0.7794114,0.9508 c 0.09931,-0.061 0.267586,-0.425 0.373954,-0.808 l 0.193398,-0.6963 0.001,-1.8282 10e-4,-1.8281 -2.9062541,0 -2.906254,0 0,2.0396 0,2.0395 0.2812504,0.2334 0.2812504,0.2334 0,-1.6167 0,-1.6167 2.2500031,0 2.2500032,0 0,1.9798 0,1.9798 0.180558,-0.1115 z m -3.975968,-0.099 c 0.076535,-4e-4 0.450203,-0.7597 0.8303729,-1.6875 l 0.6912182,-1.6868 -0.2224676,9e-4 c -0.122357,6e-4 -0.4595202,0.1907 -0.7492514,0.4225 l -0.526784,0.4216 -0.081121,1.265 -0.081122,1.265 0.1391548,-7e-4 z m -2.322164,-1.0327 0.6324353,-0.2642 0.1175657,0.1175 0.1175657,0.1176 0,-1.6316 0,-1.6316 -0.3750005,0.2007 -0.3750006,0.2007 0,0.4403 0,0.4403 -0.3750005,0.098 -0.3750005,0.098 0,1.0392 0,1.0393 0.6324354,-0.2643 z m 8.367577,0.1897 0.1875,-0.1159 0,-0.8311 0,-0.8311 -0.375,-0.2342 -0.375001,-0.2342 0,-0.2154 c 0,-0.1184 -0.165943,-0.4145 -0.368762,-0.658 l -0.368763,-0.4426 -0.0062,1.5319 -0.0062,1.532 0.562501,0.1236 0.562501,0.1235 0,0.1837 0,0.1836 0.1875,-0.1158 z m -4.4939044,-4.5938 1.9270214,0 -0.3273573,-0.3617 c -0.1800466,-0.199 -0.6127205,-0.4972 -0.9614978,-0.6627 l -0.6341405,-0.3009 -0.7207331,0.3677 c -0.3964031,0.2022 -0.8308887,0.5004 -0.9655234,0.6627 l -0.2447904,0.2949 1.9270211,0 z"
         id="path3630" />
      <path
         style="fill:#67615c"
         d="m 7.8593663,1049.601 c -2.1914092,0.01 -3.9912352,-0.01 -3.9996132,-0.036 -0.00838,-0.026 -0.032658,-0.288 -0.053955,-0.5828 l -0.038722,-0.5359 -0.3210456,-0.2347 -0.3210456,-0.2348 0,-0.2964 c 0,-0.163 0.084375,-0.3485 0.1875003,-0.4122 l 0.1875002,-0.1159 0,-1.4128 0,-1.4127 0.3750006,-0.098 0.3750005,-0.098 0,-0.3396 0,-0.3395 0.451305,-0.355 0.4513051,-0.355 0.085662,-0.4555 0.085661,-0.4554 0.025534,2.2739 0.025534,2.2739 0.2812504,0.2334 0.2812504,0.2334 0,-1.6167 0,-1.6167 2.2436596,0 2.24366,0 0.05322,2.0156 0.05322,2.0157 0.339439,-0.7242 0.339438,-0.7242 -0.05819,-2.0418 -0.05819,-2.0419 0.140625,4e-4 0.140625,4e-4 0,0.3684 0,0.3684 0.375001,0.2007 0.375,0.2007 0,0.2759 0,0.2759 0.468751,0.4076 0.468751,0.4075 0,1.1491 0,1.1491 0.275287,0.364 c 0.151408,0.2002 0.27797,0.4632 0.28125,0.5846 l 0.006,0.2206 -0.325972,0.063 -0.325972,0.063 0.435347,0.4353 0.435348,0.4354 -0.107578,0.1075 c -0.05917,0.059 -0.509169,0.1737 -1.000002,0.2545 l -0.892423,0.1469 -3.984381,0.011 z m -3.3281295,-0.1891 0.3750005,0.011 0.5625008,-0.4511 0.5625007,-0.451 -0.1217718,-0.1229 -0.1217719,-0.123 -0.352183,0.378 c -0.1937007,0.208 -0.560779,0.4613 -0.8157295,0.5631 l -0.4635463,0.1849 0.3750005,0.011 z m 2.1116783,-0.01 1.3570764,0.013 0,-0.5578 0,-0.5578 -0.2736624,0 -0.2736624,0 -0.4763386,0.5137 -0.4763386,0.5137 0,-0.2214 c 0,-0.1217 0.084375,-0.2735 0.1875002,-0.3372 0.1031252,-0.064 0.1875003,-0.1953 0.1875003,-0.2924 0,-0.097 -0.083044,-0.1764 -0.1845421,-0.1764 -0.1014982,0 -0.4590572,0.2453 -0.7945756,0.5451 l -0.6100334,0.545 1.3570762,0.013 z m 3.3115759,-0.015 1.7913,-0.031 -0.323925,-0.3579 c -0.178158,-0.1969 -0.479751,-0.4413 -0.670207,-0.5432 l -0.346282,-0.1854 -0.107791,0.1078 -0.107792,0.1078 0.358226,0.4108 0.358226,0.4108 -0.70823,-0.5295 -0.7082292,-0.5296 -0.1230217,0.123 -0.1230219,0.1231 0.2218754,0.2218 c 0.1220314,0.1221 0.2218753,0.3096 0.2218753,0.4169 l 0,0.1949 -0.4856146,-0.5237 -0.4856146,-0.5237 -0.2175114,0.071 -0.2175114,0.071 -0.059025,0.498 -0.059025,0.498 1.7912996,-0.031 z m 1.747347,-0.7739 0.08131,-0.3428 -0.110325,-0.1104 -0.110325,-0.1103 -0.116913,0.1169 -0.116914,0.1169 0.145931,0.3363 0.145931,0.3362 0.08131,-0.3428 z m -1.8631964,-2.1037 c 0.031569,-0.6052 0.013948,-1.2735 -0.039157,-1.4851 l -0.096554,-0.3847 -0.5832005,-0.3445 c -0.3207602,-0.1895 -0.6223638,-0.3054 -0.6702301,-0.2575 -0.047866,0.048 0.2321945,0.8712 0.6223572,1.8296 l 0.7093866,1.7426 0.057398,-1.1004 z m -3.1965566,0.852 c 0.076535,-4e-4 0.450203,-0.7597 0.8303729,-1.6875 l 0.6912182,-1.6868 -0.2224676,9e-4 c -0.122357,6e-4 -0.4595202,0.1907 -0.7492514,0.4225 l -0.526784,0.4216 -0.081121,1.265 -0.081122,1.265 0.1391548,-7e-4 z m -2.2045984,-1.0016 0.7500011,-0.2002 0,-1.555 0,-1.555 -0.1500002,0 c -0.0825,0 -0.2512504,0.1013 -0.3750006,0.225 l -0.2250003,0.225 0,0.4094 0,0.4094 -0.3750005,0.098 -0.3750005,0.098 0,1.0228 0,1.0227 0.750001,-0.2002 z m 8.2500114,0.2523 0.1875,0 0,-1.0488 0,-1.0488 -0.36429,-0.095 -0.364291,-0.095 -0.115917,-0.5278 -0.115918,-0.5278 -0.269793,-0.1035 -0.269793,-0.1035 0,1.4792 0,1.4792 0.562501,0.1236 0.562501,0.1235 0,0.1726 c 0,0.095 0.08437,0.1726 0.1875,0.1726 z m -9.0625125,2.375 -0.1250002,0.125 0,-0.25 0,-0.25 0.1250002,0.125 0.1250002,0.125 -0.1250002,0.125 z m 7.1406345,-6.6904 c -0.02578,0 -0.13125,-0.065 -0.234375,-0.1406 -0.103125,-0.076 -0.31151,-0.3065 -0.463077,-0.5127 l -0.2755761,-0.375 0.5099521,0.4545 c 0.280473,0.25 0.509951,0.4821 0.509951,0.5156 0,0.034 -0.02109,0.06 -0.04687,0.058 z m -4.9445193,-0.1846 c -0.051284,0 -0.043525,-0.08 0.017243,-0.1788 0.060767,-0.098 0.3821534,-0.3638 0.7141916,-0.5899 l 0.6037055,-0.4112 -0.620948,0.59 c -0.3415214,0.3244 -0.6629077,0.5899 -0.7141917,0.5899 z m 2.4601412,-0.069 -1.8750026,9e-4 0.8843409,-0.07 c 0.4863875,-0.038 1.3301386,-0.039 1.8750026,-8e-4 l 0.9906622,0.069 -1.8750031,9e-4 z m 1.406252,-0.7122 c -0.051563,-0.01 -0.3996233,-0.1779 -0.7734682,-0.373 l -0.6797179,-0.3548 -0.502874,0.1912 -0.502874,0.1912 0.1155311,-0.187 c 0.063542,-0.1028 0.2408131,-0.1869 0.3939354,-0.1869 l 0.2784041,0 -0.030435,-0.2344 c -0.016739,-0.1289 -0.014508,-0.5297 0.00496,-0.8906 l 0.035394,-0.6562 0.1611432,0.375 c 0.088629,0.2062 0.1670736,0.607 0.1743218,0.8906 l 0.013179,0.5156 0.2604783,0 c 0.1432632,0 0.4596698,0.1659 0.703126,0.3688 0.2434561,0.2028 0.40046,0.3605 0.3488975,0.3505 z m -1.5937522,-1.0943 c 0.051562,0 0.09375,-0.042 0.09375,-0.094 0,-0.052 -0.042188,-0.094 -0.09375,-0.094 -0.051563,0 -0.09375,0.042 -0.09375,0.094 0,0.052 0.042188,0.094 0.09375,0.094 z"
         id="path3628" />
      <path
         style="fill:#1d0ff0"
         d="m 7.7868994,1049.6122 -3.9119135,0 0,-0.6738 0,-0.6738 -0.3750006,-0.098 -0.3750005,-0.098 0,-0.3421 0,-0.3421 0.1875003,-0.1158 0.1875002,-0.1159 0.036128,-1.3483 0.036127,-1.3483 0.066681,1.1761 0.066681,1.1762 0.4076622,-0.2856 c 0.2242143,-0.157 0.5576385,-0.2855 0.7409427,-0.2855 l 0.3332806,0 0,-1.6138 0,-1.6138 -0.3281255,0.1143 -0.3281254,0.1142 0.3062501,-0.2395 c 0.1684375,-0.1317 0.348494,-0.4061 0.4001252,-0.6098 l 0.093875,-0.3703 0.02175,2.2739 0.02175,2.2739 0.269994,0.2241 0.2699938,0.224 0.06387,0.4083 c 0.035128,0.2245 0.029356,-0.541 -0.012828,-1.7011 l -0.076698,-2.1094 2.2677442,0 2.2677448,0 0.05587,2.0156 0.05587,2.0157 0.353912,-0.7969 0.353912,-0.7969 0.177595,0 c 0.09768,0 0.452354,0.1304 0.788167,0.2897 l 0.610568,0.2898 0.246329,0.4602 c 0.135479,0.2532 0.316444,0.4603 0.402143,0.4603 l 0.155816,0 0,0.3013 0,0.3013 -0.28125,-0.1079 -0.28125,-0.1079 0,0.1816 c 0,0.1 0.175782,0.3574 0.390625,0.5722 0.214844,0.2149 0.356065,0.4252 0.313825,0.4675 -0.04224,0.042 -0.524852,0.1617 -1.072469,0.2656 l -0.995666,0.1888 -3.9119141,0 z m -2.5900367,-0.1948 1.0406264,0.01 0.2525074,-0.2344 0.2525075,-0.2343 -0.1323231,0.2343 -0.1323228,0.2344 0.7610667,0 0.7610667,0 0,-0.6562 0,-0.6563 -0.1457803,0 c -0.080179,0 -0.3321938,0.1306 -0.5600325,0.2902 l -0.4142524,0.2901 0.095807,-0.2496 0.095807,-0.2497 -0.4264004,0.022 c -0.2345202,0.012 -0.6162443,0.084 -0.8482759,0.1597 l -0.4218756,0.1376 0,0.1839 0,0.1839 -0.6093758,0.2649 -0.6093758,0.2648 1.0406264,0.01 z m 0.2065075,-0.1802 c -0.051563,0 0.1044157,-0.2109 0.3466182,-0.4687 0.2422026,-0.2578 0.482556,-0.4688 0.5341185,-0.4688 0.051563,0 -0.1044157,0.211 -0.3466182,0.4688 -0.2422025,0.2578 -0.4825559,0.4687 -0.5341185,0.4687 z m 3.5451883,0.1875 0.7610668,0 -0.1323229,-0.2344 -0.1323231,-0.2343 0.2525076,0.2343 0.2525073,0.2344 0.4663298,0 0.466331,0 -0.550313,-0.6094 -0.550312,-0.6093 0.664784,0.6093 0.664784,0.6094 0.362469,0 0.362468,0 -0.58074,-0.5807 -0.58074,-0.5808 -0.7549614,-0.039 -0.7549618,-0.039 0.102695,0.2677 0.1026951,0.2676 -0.4658572,-0.3053 -0.4658573,-0.3052 -0.1256578,0.1257 c -0.069112,0.069 -0.1256578,0.3647 -0.1256578,0.6569 l 0,0.5312 0.7610667,0 z m 2.7532795,-0.8115 0.08131,-0.3428 -0.110325,-0.1104 -0.110325,-0.1103 -0.116913,0.1169 -0.116914,0.1169 0.145931,0.3363 0.145931,0.3362 0.08131,-0.3428 z m -5.0411411,-1.1666 c 0.088389,-0.098 0.4345228,-0.8531 0.7691862,-1.6781 0.3346634,-0.825 0.6699497,-1.5659 0.7450807,-1.6465 l 0.1366018,-0.1464 0.7348392,1.8227 0.7348392,1.8226 0.056086,-1.2826 c 0.030847,-0.7055 0.013866,-1.3927 -0.03774,-1.5271 l -0.093826,-0.2445 -0.760114,-0.3878 -0.7601141,-0.3878 -0.5501411,0.2845 -0.5501409,0.2845 -0.2926326,0.4178 -0.2926324,0.4177 0,1.2146 0,1.2145 0.1607074,-0.1781 z m -3.0669614,1.6031 c -0.051563,0 -0.09375,-0.042 -0.09375,-0.094 0,-0.052 0.042188,-0.094 0.09375,-0.094 0.051562,0 0.09375,0.042 0.09375,0.094 0,0.052 -0.042188,0.094 -0.09375,0.094 z m 9.1875125,-4.5 c -0.05156,0 -0.09375,-0.042 -0.09375,-0.094 0,-0.052 0.04219,-0.094 0.09375,-0.094 0.05156,0 0.09375,0.042 0.09375,0.094 0,0.052 -0.04219,0.094 -0.09375,0.094 z m -8.7187619,-0.2348 -0.2812504,0.076 0.2126849,-0.1549 c 0.1169767,-0.085 0.2591188,-0.3237 0.3158714,-0.5299 l 0.1031865,-0.375 -0.034621,0.454 -0.034621,0.4541 -0.2812504,0.076 z m 8.0000109,-0.5777 -0.125,0.125 0,-0.25 0,-0.25 0.125,0.125 0.125,0.125 -0.125,0.125 z m -0.34831,-0.5029 c -0.03187,0 -0.184503,-0.085 -0.339191,-0.1846 l -0.28125,-0.1818 0.223309,0 c 0.122821,0 0.275457,0.082 0.339192,0.1846 0.06373,0.1031 0.08981,0.1862 0.05794,0.1846 z m -0.995442,-0.9346 c -0.05156,0 -0.09375,-0.042 -0.09375,-0.094 0,-0.052 0.04219,-0.094 0.09375,-0.094 0.05156,0 0.09375,0.042 0.09375,0.094 0,0.052 -0.04219,0.094 -0.09375,0.094 z m -4.6875062,-0.1875 c -0.051562,0 -0.09375,-0.042 -0.09375,-0.094 0,-0.052 0.042188,-0.094 0.09375,-0.094 0.051563,0 0.09375,0.042 0.09375,0.094 0,0.052 -0.042188,0.094 -0.09375,0.094 z m 4.3125062,0 c -0.05156,0 -0.09375,-0.042 -0.09375,-0.094 0,-0.052 0.04219,-0.094 0.09375,-0.094 0.05156,0 0.09375,0.042 0.09375,0.094 0,0.052 -0.04219,0.094 -0.09375,0.094 z m -3.5625051,-0.75 c -0.1546877,0.1284 -0.2812504,0.1912 -0.2812504,0.1397 0,-0.052 0.1265627,-0.1988 0.2812504,-0.3272 0.1546877,-0.1284 0.2812504,-0.1912 0.2812504,-0.1397 0,0.052 -0.1265627,0.1988 -0.2812504,0.3272 z m 2.8346352,0 c -0.051563,0 -0.1458967,-0.084 -0.2096316,-0.1875 -0.063735,-0.1031 -0.073694,-0.1875 -0.022131,-0.1875 0.051563,0 0.1458967,0.084 0.2096316,0.1875 0.063735,0.1031 0.073694,0.1875 0.022131,0.1875 z m -2.2721345,-0.375 c -0.051563,0 -0.09375,-0.042 -0.09375,-0.094 0,-0.052 0.042188,-0.094 0.09375,-0.094 0.051563,0 0.09375,0.042 0.09375,0.094 0,0.052 -0.042188,0.094 -0.09375,0.094 z m 1.6875024,0 c -0.051563,0 -0.09375,-0.042 -0.09375,-0.094 0,-0.052 0.042188,-0.094 0.09375,-0.094 0.051562,0 0.09375,0.042 0.09375,0.094 0,0.052 -0.042188,0.094 -0.09375,0.094 z m -0.8437512,-0.25 -0.577255,0 0.2047749,-0.1266 c 0.1126261,-0.07 0.190329,-0.2032 0.1726733,-0.2968 -0.017655,-0.094 -0.02211,-0.4586 -0.0099,-0.811 0.012212,-0.3523 0.06015,-0.6027 0.1065274,-0.5563 0.046378,0.046 0.1172966,0.4058 0.1575973,0.7986 l 0.073274,0.7143 0.2247804,0.1389 0.2247803,0.1389 -0.577255,0 z m -0.09375,-0.5 c 0.051562,0 0.09375,-0.042 0.09375,-0.094 0,-0.052 -0.042188,-0.094 -0.09375,-0.094 -0.051563,0 -0.09375,0.042 -0.09375,0.094 0,0.052 0.042188,0.094 0.09375,0.094 z"
         id="path3626" />
      <path
         style="fill:#3d9b10"
         d="m 7.7868994,1049.6122 -3.9119135,0 0,-0.6738 0,-0.6738 -0.3750006,-0.098 -0.3750005,-0.098 0,-0.3421 0,-0.3421 0.1875003,-0.1158 0.1875002,-0.1159 0.036128,-1.3483 0.036127,-1.3483 0.066681,1.1761 0.066681,1.1762 0.4076622,-0.2856 c 0.2242143,-0.157 0.5576385,-0.2855 0.7409427,-0.2855 l 0.3332806,0 0,-1.6138 0,-1.6138 -0.3281255,0.1143 -0.3281254,0.1142 0.3062501,-0.2395 c 0.1684375,-0.1317 0.348494,-0.4061 0.4001252,-0.6098 l 0.093875,-0.3703 0.02175,2.2739 0.02175,2.2739 0.2812504,0.2334 0.2812504,0.2334 0,0.4458 0,0.4458 0.2343753,4e-4 0.2343753,5e-4 -0.060252,-1.2661 -0.060252,-1.266 0.1933223,-0.508 0.1933222,-0.508 0.7682194,-0.3919 0.7682195,-0.3919 0.3653488,0.116 c 0.2009418,0.064 0.6180188,0.3285 0.926838,0.5884 l 0.5614882,0.4724 0,1.5771 0,1.5771 0.244211,0 0.244211,0 0.337121,-0.9375 0.33712,-0.9375 0.187208,0 c 0.102965,0 0.461964,0.1304 0.797777,0.2897 l 0.610569,0.2898 0.246328,0.4602 c 0.13548,0.2532 0.316445,0.4603 0.402144,0.4603 l 0.155816,0 0,0.3013 0,0.3013 -0.28125,-0.1079 -0.28125,-0.1079 0,0.1816 c 0,0.1 0.175781,0.3574 0.390625,0.5722 0.214844,0.2149 0.356065,0.4252 0.313825,0.4675 -0.04224,0.042 -0.524852,0.1617 -1.072469,0.2656 l -0.995667,0.1888 -3.9119132,0 z m -2.5900367,-0.1948 1.0406264,0.01 0.2525074,-0.2344 0.2525075,-0.2343 -0.1323231,0.2343 -0.1323228,0.2344 0.7610667,0 0.7610667,0 0,-0.6562 0,-0.6563 -0.1457803,0 c -0.080179,0 -0.3321938,0.1306 -0.5600325,0.2902 l -0.4142524,0.2901 0.095807,-0.2496 0.095807,-0.2497 -0.4264004,0.022 c -0.2345202,0.012 -0.6162443,0.084 -0.8482759,0.1597 l -0.4218756,0.1376 0,0.1839 0,0.1839 -0.6093758,0.2649 -0.6093758,0.2648 1.0406264,0.01 z m 0.2065075,-0.1802 c -0.051563,0 0.1044157,-0.2109 0.3466182,-0.4687 0.2422026,-0.2578 0.482556,-0.4688 0.5341185,-0.4688 0.051563,0 -0.1044157,0.211 -0.3466182,0.4688 -0.2422025,0.2578 -0.4825559,0.4687 -0.5341185,0.4687 z m 3.5451883,0.1875 0.7610668,0 -0.1323229,-0.2344 -0.1323231,-0.2343 0.2525076,0.2343 0.2525073,0.2344 0.4663298,0 0.466331,0 -0.522682,-0.5455 c -0.287475,-0.3001 -0.676636,-0.5859 -0.8648025,-0.6351 l -0.3421206,-0.089 0.1087359,0.2833 0.1087361,0.2834 -0.4658572,-0.3053 -0.4658573,-0.3052 -0.1256578,0.1257 c -0.069112,0.069 -0.1256578,0.3647 -0.1256578,0.6569 l 0,0.5312 0.7610667,0 z m 2.5064885,0 0.381488,0 -0.558895,-0.5435 -0.558895,-0.5434 -0.46875,-0.1344 -0.468751,-0.1343 0.646157,0.6778 0.646157,0.6778 0.381489,0 z m 0.246791,-0.8115 0.08131,-0.3428 -0.110325,-0.1104 -0.110325,-0.1103 -0.116913,0.1169 -0.116914,0.1169 0.145931,0.3363 0.145931,0.3362 0.08131,-0.3428 z m -3.3932357,-0.6885 1.5809917,0 -0.054175,-1.6375 -0.054175,-1.6376 -0.7882367,-0.4342 -0.7882368,-0.4343 -0.559758,0.2895 -0.559758,0.2895 -0.2926326,0.4178 -0.2926324,0.4177 0,1.068 c 0,0.5874 0.051215,1.2014 0.1138106,1.3645 l 0.1138106,0.2966 1.5809916,0 z m -4.7148668,1.125 c -0.051563,0 -0.09375,-0.042 -0.09375,-0.094 0,-0.052 0.042188,-0.094 0.09375,-0.094 0.051562,0 0.09375,0.042 0.09375,0.094 0,0.052 -0.042188,0.094 -0.09375,0.094 z m 9.1875125,-4.5 c -0.05156,0 -0.09375,-0.042 -0.09375,-0.094 0,-0.052 0.04219,-0.094 0.09375,-0.094 0.05156,0 0.09375,0.042 0.09375,0.094 0,0.052 -0.04219,0.094 -0.09375,0.094 z m -8.7187619,-0.2348 -0.2812504,0.076 0.2126849,-0.1549 c 0.1169767,-0.085 0.2591188,-0.3237 0.3158714,-0.5299 l 0.1031865,-0.375 -0.034621,0.454 -0.034621,0.4541 -0.2812504,0.076 z m 8.0000109,-0.5777 -0.125,0.125 0,-0.25 0,-0.25 0.125,0.125 0.125,0.125 -0.125,0.125 z m -0.34831,-0.5029 c -0.03187,0 -0.184503,-0.085 -0.339191,-0.1846 l -0.28125,-0.1818 0.223309,0 c 0.122821,0 0.275457,0.082 0.339192,0.1846 0.06373,0.1031 0.08981,0.1862 0.05794,0.1846 z m -0.995442,-0.9346 c -0.05156,0 -0.09375,-0.042 -0.09375,-0.094 0,-0.052 0.04219,-0.094 0.09375,-0.094 0.05156,0 0.09375,0.042 0.09375,0.094 0,0.052 -0.04219,0.094 -0.09375,0.094 z m -4.6875062,-0.1875 c -0.051562,0 -0.09375,-0.042 -0.09375,-0.094 0,-0.052 0.042188,-0.094 0.09375,-0.094 0.051563,0 0.09375,0.042 0.09375,0.094 0,0.052 -0.042188,0.094 -0.09375,0.094 z m 4.3125062,0 c -0.05156,0 -0.09375,-0.042 -0.09375,-0.094 0,-0.052 0.04219,-0.094 0.09375,-0.094 0.05156,0 0.09375,0.042 0.09375,0.094 0,0.052 -0.04219,0.094 -0.09375,0.094 z m -3.5625051,-0.75 c -0.1546877,0.1284 -0.2812504,0.1912 -0.2812504,0.1397 0,-0.052 0.1265627,-0.1988 0.2812504,-0.3272 0.1546877,-0.1284 0.2812504,-0.1912 0.2812504,-0.1397 0,0.052 -0.1265627,0.1988 -0.2812504,0.3272 z m 2.8346352,0 c -0.051563,0 -0.1458967,-0.084 -0.2096316,-0.1875 -0.063735,-0.1031 -0.073694,-0.1875 -0.022131,-0.1875 0.051563,0 0.1458967,0.084 0.2096316,0.1875 0.063735,0.1031 0.073694,0.1875 0.022131,0.1875 z m -2.2721345,-0.375 c -0.051563,0 -0.09375,-0.042 -0.09375,-0.094 0,-0.052 0.042188,-0.094 0.09375,-0.094 0.051563,0 0.09375,0.042 0.09375,0.094 0,0.052 -0.042188,0.094 -0.09375,0.094 z m 1.6875024,0 c -0.051563,0 -0.09375,-0.042 -0.09375,-0.094 0,-0.052 0.042188,-0.094 0.09375,-0.094 0.051562,0 0.09375,0.042 0.09375,0.094 0,0.052 -0.042188,0.094 -0.09375,0.094 z m -0.8437512,-0.25 -0.577255,0 0.2047749,-0.1266 c 0.1126261,-0.07 0.190329,-0.2032 0.1726733,-0.2968 -0.017655,-0.094 -0.02211,-0.4586 -0.0099,-0.811 0.012212,-0.3523 0.06015,-0.6027 0.1065274,-0.5563 0.046378,0.046 0.1172966,0.4058 0.1575973,0.7986 l 0.073274,0.7143 0.2247804,0.1389 0.2247803,0.1389 -0.577255,0 z m -0.09375,-0.5 c 0.051562,0 0.09375,-0.042 0.09375,-0.094 0,-0.052 -0.042188,-0.094 -0.09375,-0.094 -0.051563,0 -0.09375,0.042 -0.09375,0.094 0,0.052 0.042188,0.094 0.09375,0.094 z"
         id="path3624" />
      <path
         style="fill:#13135d"
         d="m 7.7400243,1049.5761 -3.9587886,-0.036 1.2115615,-0.068 1.2115616,-0.068 0.2775577,-0.2244 0.2775578,-0.2244 -0.1408082,0.2343 -0.140808,0.2344 0.7610667,0 0.7610667,0 0,-0.6562 0,-0.6563 -0.1457803,0 c -0.080179,0 -0.3321938,0.1306 -0.5600325,0.2902 l -0.4142524,0.2901 0.095807,-0.2496 0.095807,-0.2497 -0.5201505,0.038 c -0.2860828,0.021 -0.5801449,0.045 -0.6534716,0.053 -0.073327,0.01 -0.3029097,0.1972 -0.5101844,0.4197 l -0.3768634,0.4045 -0.1192518,-0.3107 -0.1192519,-0.3108 0.1075063,-0.2801 0.1075063,-0.2802 0.3344297,0.029 c 0.1839365,0.016 0.50318,0.015 0.7094303,-7e-4 l 0.3750005,-0.029 -0.060252,-1.2661 -0.060252,-1.266 0.1933223,-0.508 0.1933222,-0.508 0.7682194,-0.3919 0.7682195,-0.3919 0.3653488,0.116 c 0.2009418,0.064 0.6180188,0.3285 0.926838,0.5884 l 0.561489,0.4724 0,1.5771 0,1.5771 0.375001,0 0.375,0 0.01435,-0.2344 c 0.0079,-0.1289 0.04108,-0.3716 0.07376,-0.5393 0.03268,-0.1677 0.116281,-0.4841 0.18579,-0.7031 l 0.126378,-0.3982 0.193404,0 c 0.106372,0 0.472009,0.1322 0.812527,0.2938 l 0.619125,0.2938 0.109778,0.4093 c 0.06038,0.2252 0.11093,0.5142 0.112338,0.6424 l 0.0026,0.233 -0.720069,-0.028 -0.720069,-0.028 -0.22506,0.1391 -0.225059,0.1391 0.126296,0.4061 0.126296,0.4061 -0.353044,-0.306 c -0.194175,-0.1683 -0.563983,-0.3666 -0.821795,-0.4407 l -0.4687514,-0.1348 0.6835944,0.6993 0.683595,0.6994 0.863282,-0.1295 0.863283,-0.1295 0.02954,-0.3166 c 0.01624,-0.1741 0.02517,-0.4248 0.01984,-0.557 l -0.0097,-0.2403 0.459298,0.4956 c 0.252613,0.2725 0.427095,0.5277 0.387737,0.5671 -0.03936,0.039 -0.519611,0.1565 -1.067228,0.2604 l -0.995668,0.1888 -3.9587891,-0.036 z m 1.2085342,-0.1514 0.7610668,0 -0.1323229,-0.2344 -0.1323231,-0.2343 0.2525076,0.2343 0.2525073,0.2344 0.4663298,0 0.466331,0 -0.522682,-0.5455 c -0.287475,-0.3001 -0.676636,-0.5859 -0.8648025,-0.6351 l -0.3421206,-0.089 0.1087359,0.2833 0.1087361,0.2834 -0.4658572,-0.3053 -0.4658573,-0.3052 -0.1256578,0.1257 c -0.069112,0.069 -0.1256578,0.3647 -0.1256578,0.6569 l 0,0.5312 0.7610667,0 z m -0.6399562,-1.5 1.5809917,0 -0.054175,-1.6375 -0.054175,-1.6376 -0.7882367,-0.4342 -0.7882368,-0.4343 -0.559758,0.2895 -0.559758,0.2895 -0.2926326,0.4178 -0.2926324,0.4177 0,1.068 c 0,0.5874 0.051215,1.2014 0.1138106,1.3645 l 0.1138106,0.2966 1.5809916,0 z m -2.9052321,1.3125 c -0.051563,0 0.1044157,-0.2109 0.3466182,-0.4687 0.2422026,-0.2578 0.482556,-0.4688 0.5341185,-0.4688 0.051563,0 -0.1044157,0.211 -0.3466182,0.4688 -0.2422025,0.2578 -0.4825559,0.4687 -0.5341185,0.4687 z m -1.8096347,-0.1875 c -0.051563,0 -0.09375,-0.042 -0.09375,-0.094 0,-0.052 0.042188,-0.094 0.09375,-0.094 0.051562,0 0.09375,0.042 0.09375,0.094 0,0.052 -0.042188,0.094 -0.09375,0.094 z m 0.3283338,-0.7717 c -0.077459,-0.012 -0.28849,-0.06 -0.468959,-0.1075 l -0.3281255,-0.086 0,-0.3502 0,-0.3502 0.1875003,-0.1158 0.1875002,-0.1159 0.036128,-1.3483 0.036127,-1.3483 0.066681,1.1761 0.066681,1.1762 0.4076622,-0.2856 c 0.2242143,-0.157 0.5576385,-0.2855 0.7409427,-0.2855 l 0.3332806,0 0,-1.6138 0,-1.6138 -0.3281255,0.1143 -0.3281254,0.1142 0.3062501,-0.2395 c 0.1684375,-0.1317 0.3509233,-0.4061 0.4055239,-0.6098 l 0.099274,-0.3703 -0.00538,2.1858 -0.00539,2.1859 0.1137099,0.184 0.1137101,0.184 -0.7480165,0.7707 c -0.411409,0.424 -0.8113914,0.761 -0.8888499,0.7491 z m 9.5213147,-0.1658 -0.181616,0 0.107926,-0.2812 c 0.05936,-0.1547 0.141086,-0.2813 0.181616,-0.2813 0.04053,0 0.07369,0.1266 0.07369,0.2813 l 0,0.2812 -0.181615,0 z m -0.662136,-3.5625 c -0.05156,0 -0.09375,-0.042 -0.09375,-0.094 0,-0.052 0.04219,-0.094 0.09375,-0.094 0.05156,0 0.09375,0.042 0.09375,0.094 0,0.052 -0.04219,0.094 -0.09375,0.094 z m -8.7187619,-0.2348 -0.2812504,0.076 0.2126849,-0.1549 c 0.1169767,-0.085 0.2591188,-0.3237 0.3158714,-0.5299 l 0.1031865,-0.375 -0.034621,0.454 -0.034621,0.4541 -0.2812504,0.076 z m 8.0000109,-0.5777 -0.125,0.125 0,-0.25 0,-0.25 0.125,0.125 0.125,0.125 -0.125,0.125 z m -0.34831,-0.5029 c -0.03187,0 -0.184503,-0.085 -0.339191,-0.1846 l -0.28125,-0.1818 0.223309,0 c 0.122821,0 0.275457,0.082 0.339192,0.1846 0.06373,0.1031 0.08981,0.1862 0.05794,0.1846 z m -0.995442,-0.9346 c -0.05156,0 -0.09375,-0.042 -0.09375,-0.094 0,-0.052 0.04219,-0.094 0.09375,-0.094 0.05156,0 0.09375,0.042 0.09375,0.094 0,0.052 -0.04219,0.094 -0.09375,0.094 z m -4.6875062,-0.1875 c -0.051562,0 -0.09375,-0.042 -0.09375,-0.094 0,-0.052 0.042188,-0.094 0.09375,-0.094 0.051563,0 0.09375,0.042 0.09375,0.094 0,0.052 -0.042188,0.094 -0.09375,0.094 z m 4.3125062,0 c -0.05156,0 -0.09375,-0.042 -0.09375,-0.094 0,-0.052 0.04219,-0.094 0.09375,-0.094 0.05156,0 0.09375,0.042 0.09375,0.094 0,0.052 -0.04219,0.094 -0.09375,0.094 z m -3.5625051,-0.75 c -0.1546877,0.1284 -0.2812504,0.1912 -0.2812504,0.1397 0,-0.052 0.1265627,-0.1988 0.2812504,-0.3272 0.1546877,-0.1284 0.2812504,-0.1912 0.2812504,-0.1397 0,0.052 -0.1265627,0.1988 -0.2812504,0.3272 z m 2.8346352,0 c -0.051563,0 -0.1458967,-0.084 -0.2096316,-0.1875 -0.063735,-0.1031 -0.073694,-0.1875 -0.022131,-0.1875 0.051563,0 0.1458967,0.084 0.2096316,0.1875 0.063735,0.1031 0.073694,0.1875 0.022131,0.1875 z m -2.2721345,-0.375 c -0.051563,0 -0.09375,-0.042 -0.09375,-0.094 0,-0.052 0.042188,-0.094 0.09375,-0.094 0.051563,0 0.09375,0.042 0.09375,0.094 0,0.052 -0.042188,0.094 -0.09375,0.094 z m 1.6875024,0 c -0.051563,0 -0.09375,-0.042 -0.09375,-0.094 0,-0.052 0.042188,-0.094 0.09375,-0.094 0.051562,0 0.09375,0.042 0.09375,0.094 0,0.052 -0.042188,0.094 -0.09375,0.094 z m -0.8437512,-0.25 -0.577255,0 0.2047749,-0.1266 c 0.1126261,-0.07 0.190329,-0.2032 0.1726733,-0.2968 -0.017655,-0.094 -0.02211,-0.4586 -0.0099,-0.811 0.012212,-0.3523 0.06015,-0.6027 0.1065274,-0.5563 0.046378,0.046 0.1172966,0.4058 0.1575973,0.7986 l 0.073274,0.7143 0.2247804,0.1389 0.2247803,0.1389 -0.577255,0 z m -0.09375,-0.5 c 0.051562,0 0.09375,-0.042 0.09375,-0.094 0,-0.052 -0.042188,-0.094 -0.09375,-0.094 -0.051563,0 -0.09375,0.042 -0.09375,0.094 0,0.052 0.042188,0.094 0.09375,0.094 z"
         id="path3622" />
      <path
         style="fill:#185806"
         d="m 7.7400243,1049.5761 -3.9587886,-0.036 1.2115615,-0.068 1.2115616,-0.068 0.2775577,-0.2244 0.2775578,-0.2244 -0.1408082,0.2343 -0.140808,0.2344 0.7610667,0 0.7610667,0 0,-0.6562 0,-0.6563 0.1498501,0 0.1498502,0 -0.076614,0.6563 -0.076613,0.6562 0.7815804,0 0.7815804,0 -0.1323229,-0.2344 -0.1323231,-0.2343 0.2525076,0.2343 0.2525073,0.2344 0.4663295,0 0.466331,0 -0.53891,-0.5625 -0.5389098,-0.5625 -0.2305458,0 c -0.1268001,0 -0.2586707,0.079 -0.2930459,0.1744 l -0.0625,0.1744 -0.3750005,-0.2832 -0.3750005,-0.2832 0.3750005,0.037 c 0.2062503,0.02 0.5175637,0.027 0.6918075,0.015 l 0.3168068,-0.022 0.078195,-0.6094 0.078195,-0.6093 -0.025292,0.7066 -0.025292,0.7067 0.6008247,0.5823 0.600825,0.5823 0.857593,-0.1286 0.857593,-0.1286 0.02954,-0.3166 c 0.01624,-0.1741 0.02517,-0.4248 0.01984,-0.557 l -0.0097,-0.2403 0.459298,0.4956 c 0.252613,0.2725 0.427095,0.5277 0.387737,0.5671 -0.03936,0.039 -0.519611,0.1565 -1.067228,0.2604 l -0.995668,0.1888 -3.9587889,-0.036 z m -1.8853445,-0.7608 -0.5720794,0.5157 0.4538783,-0.5157 0.4538781,-0.5156 -0.2128801,0 c -0.117084,0 -0.3824687,0.182 -0.5897434,0.4045 l -0.3768634,0.4045 -0.1192518,-0.3107 -0.1192519,-0.3108 0.1034419,-0.2696 0.1034416,-0.2695 0.440176,0.047 c 0.2420969,0.026 0.5348692,0.1055 0.6506054,0.177 l 0.2104293,0.1301 0.086327,-0.2356 0.086327,-0.2355 0.2484379,0.2343 0.2484378,0.2344 -0.2616156,0 -0.2616155,0 -0.5720792,0.5156 z m -2.2609443,0.2344 c -0.051563,0 -0.09375,-0.042 -0.09375,-0.094 0,-0.052 0.042188,-0.094 0.09375,-0.094 0.051562,0 0.09375,0.042 0.09375,0.094 0,0.052 -0.042188,0.094 -0.09375,0.094 z m 7.7231045,-0.1875 c -0.04588,0 -0.188465,-0.1265 -0.316844,-0.2812 l -0.233417,-0.2813 -0.305168,-0.01 -0.305166,-0.01 0.318419,-0.242 0.31842,-0.242 0.09133,-0.5036 c 0.05023,-0.2771 0.144661,-0.6717 0.209841,-0.8771 l 0.11851,-0.3734 0.193404,0 c 0.106372,0 0.472009,0.1322 0.812527,0.2938 l 0.619125,0.2938 0.109778,0.4093 c 0.06038,0.2252 0.11093,0.5142 0.112338,0.6424 l 0.0026,0.233 -0.720069,-0.028 -0.720069,-0.028 -0.22506,0.1391 -0.225059,0.1391 0.114012,0.3592 c 0.06271,0.1976 0.07647,0.3592 0.03059,0.3592 z m -4.1180168,-0.3892 -0.3324177,0.2548 0.1181028,-0.3078 0.1181029,-0.3078 0.2924398,0 c 0.1608421,0 0.2572838,0.024 0.2143151,0.053 -0.042969,0.029 -0.2277131,0.1676 -0.4105429,0.3077 z m -3.2767539,-0.195 c -0.077459,-0.012 -0.28849,-0.06 -0.468959,-0.1075 l -0.3281255,-0.086 0,-0.3502 0,-0.3502 0.1875003,-0.1158 0.1875002,-0.1159 0.036128,-1.3483 0.036127,-1.3483 0.066681,1.1761 0.066681,1.1762 0.4076622,-0.2856 c 0.2242143,-0.157 0.5576385,-0.2855 0.7409427,-0.2855 l 0.3332806,0 0,-1.6138 0,-1.6138 -0.3281255,0.1143 -0.3281254,0.1142 0.3062501,-0.2395 c 0.1684375,-0.1317 0.3509233,-0.4061 0.4055239,-0.6098 l 0.099274,-0.3703 -0.00538,2.1858 -0.00539,2.1859 0.1137099,0.184 0.1137101,0.184 -0.7480165,0.7707 c -0.411409,0.424 -0.8113914,0.761 -0.8888499,0.7491 z m 9.5213147,-0.1658 -0.181616,0 0.107926,-0.2812 c 0.05936,-0.1547 0.141086,-0.2813 0.181616,-0.2813 0.04053,0 0.07369,0.1266 0.07369,0.2813 l 0,0.2812 -0.181615,0 z m -3.440306,-2.5898 -0.098479,0.2461 -0.014803,-0.3594 -0.014803,-0.3594 0.1132815,0.1133 0.1132815,0.1133 -0.09848,0.2461 z m -0.1988755,-0.7852 c -0.038936,0 -0.186592,-0.1476 -0.3281255,-0.3281 l -0.2573338,-0.3281 0.3281255,0.2573 c 0.180469,0.1415 0.3281254,0.2892 0.3281254,0.3281 0,0.039 -0.031856,0.071 -0.070792,0.071 z m 2.9770455,-0.1875 c -0.05156,0 -0.09375,-0.042 -0.09375,-0.094 0,-0.052 0.04219,-0.094 0.09375,-0.094 0.05156,0 0.09375,0.042 0.09375,0.094 0,0.052 -0.04219,0.094 -0.09375,0.094 z m -8.7187619,-0.2348 -0.2812504,0.076 0.2126849,-0.1549 c 0.1169767,-0.085 0.2591188,-0.3237 0.3158714,-0.5299 l 0.1031865,-0.375 -0.034621,0.454 -0.034621,0.4541 -0.2812504,0.076 z m 3.0937543,0.047 c -0.051563,0 -0.09375,-0.042 -0.09375,-0.094 0,-0.052 0.042187,-0.094 0.09375,-0.094 0.051563,0 0.09375,0.042 0.09375,0.094 0,0.052 -0.042187,0.094 -0.09375,0.094 z m 1.8750026,-0.1875 c -0.051563,0 -0.09375,-0.042 -0.09375,-0.094 0,-0.052 0.042188,-0.094 0.09375,-0.094 0.051562,0 0.09375,0.042 0.09375,0.094 0,0.052 -0.042188,0.094 -0.09375,0.094 z m -1.3125018,-0.1875 c -0.051563,0 -0.09375,-0.042 -0.09375,-0.094 0,-0.052 0.042188,-0.094 0.09375,-0.094 0.051563,0 0.09375,0.042 0.09375,0.094 0,0.052 -0.042188,0.094 -0.09375,0.094 z m 0.9375012,0 c -0.051562,0 -0.09375,-0.042 -0.09375,-0.094 0,-0.052 0.042188,-0.094 0.09375,-0.094 0.051563,0 0.09375,0.042 0.09375,0.094 0,0.052 -0.042188,0.094 -0.09375,0.094 z m -0.3750005,-0.1875 c -0.051562,0 -0.09375,-0.042 -0.09375,-0.094 0,-0.052 0.042188,-0.094 0.09375,-0.094 0.051563,0 0.09375,0.042 0.09375,0.094 0,0.052 -0.042188,0.094 -0.09375,0.094 z m 3.7812551,-0.062 -0.125,0.125 0,-0.25 0,-0.25 0.125,0.125 0.125,0.125 -0.125,0.125 z m -0.34831,-0.5029 c -0.03187,0 -0.184503,-0.085 -0.339191,-0.1846 l -0.28125,-0.1818 0.223309,0 c 0.122821,0 0.275457,0.082 0.339192,0.1846 0.06373,0.1031 0.08981,0.1862 0.05794,0.1846 z m -0.995442,-0.9346 c -0.05156,0 -0.09375,-0.042 -0.09375,-0.094 0,-0.052 0.04219,-0.094 0.09375,-0.094 0.05156,0 0.09375,0.042 0.09375,0.094 0,0.052 -0.04219,0.094 -0.09375,0.094 z m -4.6875062,-0.1875 c -0.051562,0 -0.09375,-0.042 -0.09375,-0.094 0,-0.052 0.042188,-0.094 0.09375,-0.094 0.051563,0 0.09375,0.042 0.09375,0.094 0,0.052 -0.042188,0.094 -0.09375,0.094 z m 4.3125062,0 c -0.05156,0 -0.09375,-0.042 -0.09375,-0.094 0,-0.052 0.04219,-0.094 0.09375,-0.094 0.05156,0 0.09375,0.042 0.09375,0.094 0,0.052 -0.04219,0.094 -0.09375,0.094 z m -3.5625051,-0.75 c -0.1546877,0.1284 -0.2812504,0.1912 -0.2812504,0.1397 0,-0.052 0.1265627,-0.1988 0.2812504,-0.3272 0.1546877,-0.1284 0.2812504,-0.1912 0.2812504,-0.1397 0,0.052 -0.1265627,0.1988 -0.2812504,0.3272 z m 2.8346352,0 c -0.051563,0 -0.1458967,-0.084 -0.2096316,-0.1875 -0.063735,-0.1031 -0.073694,-0.1875 -0.022131,-0.1875 0.051563,0 0.1458967,0.084 0.2096316,0.1875 0.063735,0.1031 0.073694,0.1875 0.022131,0.1875 z m -2.2721345,-0.375 c -0.051563,0 -0.09375,-0.042 -0.09375,-0.094 0,-0.052 0.042188,-0.094 0.09375,-0.094 0.051563,0 0.09375,0.042 0.09375,0.094 0,0.052 -0.042188,0.094 -0.09375,0.094 z m 1.6875024,0 c -0.051563,0 -0.09375,-0.042 -0.09375,-0.094 0,-0.052 0.042188,-0.094 0.09375,-0.094 0.051562,0 0.09375,0.042 0.09375,0.094 0,0.052 -0.042188,0.094 -0.09375,0.094 z m -0.8437512,-0.25 -0.577255,0 0.2047749,-0.1266 c 0.1126261,-0.07 0.190329,-0.2032 0.1726733,-0.2968 -0.017655,-0.094 -0.02211,-0.4586 -0.0099,-0.811 0.012212,-0.3523 0.06015,-0.6027 0.1065274,-0.5563 0.046378,0.046 0.1172966,0.4058 0.1575973,0.7986 l 0.073274,0.7143 0.2247804,0.1389 0.2247803,0.1389 -0.577255,0 z m -0.09375,-0.5 c 0.051562,0 0.09375,-0.042 0.09375,-0.094 0,-0.052 -0.042188,-0.094 -0.09375,-0.094 -0.051563,0 -0.09375,0.042 -0.09375,0.094 0,0.052 0.042188,0.094 0.09375,0.094 z"
         id="path3620" />
      <path
         style="fill:#182015"
         d="m 7.8124913,1049.5653 -4.0312556,-0.025 1.2115615,-0.068 1.2115616,-0.068 0.2775577,-0.2244 0.2775578,-0.2244 -0.1408082,0.2343 -0.140808,0.2344 0.7610667,0 0.7610667,0 0,-0.6562 0,-0.6563 0.1498501,0 0.1498502,0 -0.076614,0.6563 -0.076613,0.6562 0.7815804,0 0.7815804,0 -0.1323229,-0.2344 -0.1323231,-0.2343 0.2525076,0.2343 0.2525073,0.2344 0.4663295,0 0.466331,0 -0.53891,-0.5625 -0.5389098,-0.5625 -0.2305458,0 c -0.1268001,0 -0.2586707,0.079 -0.2930459,0.1744 l -0.0625,0.1744 -0.3750005,-0.2832 -0.3750005,-0.2832 0.3750005,0.037 c 0.2062503,0.02 0.5175637,0.027 0.6918075,0.015 l 0.3168068,-0.022 0.076143,-0.6094 0.076142,-0.6093 -0.010556,0.6985 -0.010556,0.6985 0.5551077,0.5799 0.555108,0.5798 1.125002,-0.097 1.125001,-0.097 -0.750001,0.167 -0.750001,0.167 -4.031255,-0.025 z m -1.9578115,-0.75 -0.5720794,0.5157 0.4349055,-0.4955 0.4349057,-0.4954 -0.1543365,-0.083 -0.1543365,-0.083 0.2222613,0.053 0.2222615,0.052 0.082426,-0.2238 0.082427,-0.2238 0.2484379,0.2343 0.2484378,0.2344 -0.2616156,0 -0.2616155,0 -0.5720792,0.5156 z m 7.8107462,0.4219 c -0.08089,0 -0.305233,-0.2742 -0.498537,-0.6094 l -0.351464,-0.6093 0.498537,0.5252 c 0.274196,0.289 0.498538,0.5632 0.498538,0.6094 0,0.046 -0.06618,0.084 -0.147074,0.084 z m -10.0716905,-0.1875 c -0.051563,0 -0.09375,-0.042 -0.09375,-0.094 0,-0.052 0.042188,-0.094 0.09375,-0.094 0.051562,0 0.09375,0.042 0.09375,0.094 0,0.052 -0.042188,0.094 -0.09375,0.094 z m 3.6050877,-0.5767 -0.3324177,0.2548 0.1181028,-0.3078 0.1181029,-0.3078 0.2924398,0 c 0.1608421,0 0.2572838,0.024 0.2143151,0.053 -0.042969,0.029 -0.2277131,0.1676 -0.4105429,0.3077 z m 3.3434878,-0.1733 c -0.160774,0 -0.292316,-0.037 -0.292316,-0.083 0,-0.045 0.07855,-0.1312 0.174544,-0.1905 l 0.174544,-0.1079 0.117772,0.1906 0.117772,0.1905 -0.292316,0 z m -7.2357106,-0.1875 -0.1816156,0 0,-0.3639 0,-0.364 0.1875003,-0.1158 0.1875002,-0.1159 0.036724,-1.3483 0.036724,-1.3483 0.065978,1.2825 0.065978,1.2825 -0.2174286,0.262 -0.2174285,0.2619 0.1088421,0.2837 0.1088422,0.2836 -0.1816156,0 z m 10.1367836,0 -0.181616,0 0.107926,-0.2812 c 0.05936,-0.1547 0.141086,-0.2813 0.181616,-0.2813 0.04053,0 0.07369,0.1266 0.07369,0.2813 l 0,0.2812 -0.181615,0 z m -2.130888,-1.75 -0.125,0.125 0,-0.25 0,-0.25 0.125,0.125 0.125,0.125 -0.125,0.125 z m -6.0312582,-0.125 c -0.051563,0 -0.09375,-0.7262 -0.09375,-1.6138 l 0,-1.6138 -0.3281255,0.1143 -0.3281254,0.1142 0.3062501,-0.2395 c 0.1684375,-0.1317 0.348494,-0.4061 0.4001252,-0.6098 l 0.093875,-0.3703 0.02175,2.1093 c 0.011963,1.1602 -0.020437,2.1094 -0.072,2.1094 z m 4.7218402,-0.7148 -0.098479,0.2461 -0.014803,-0.3594 -0.014803,-0.3594 0.1132815,0.1133 0.1132815,0.1133 -0.09848,0.2461 z m -0.1988755,-0.7852 c -0.038936,0 -0.186592,-0.1476 -0.3281255,-0.3281 l -0.2573338,-0.3281 0.3281255,0.2573 c 0.180469,0.1415 0.3281254,0.2892 0.3281254,0.3281 0,0.039 -0.031856,0.071 -0.070792,0.071 z m 2.9770455,-0.1875 c -0.05156,0 -0.09375,-0.042 -0.09375,-0.094 0,-0.052 0.04219,-0.094 0.09375,-0.094 0.05156,0 0.09375,0.042 0.09375,0.094 0,0.052 -0.04219,0.094 -0.09375,0.094 z m -8.7187619,-0.2348 -0.2812504,0.076 0.2126849,-0.1549 c 0.1169767,-0.085 0.2591188,-0.3237 0.3158714,-0.5299 l 0.1031865,-0.375 -0.034621,0.454 -0.034621,0.4541 -0.2812504,0.076 z m 3.0937543,0.047 c -0.051563,0 -0.09375,-0.042 -0.09375,-0.094 0,-0.052 0.042187,-0.094 0.09375,-0.094 0.051563,0 0.09375,0.042 0.09375,0.094 0,0.052 -0.042187,0.094 -0.09375,0.094 z m 1.8750026,-0.1875 c -0.051563,0 -0.09375,-0.042 -0.09375,-0.094 0,-0.052 0.042188,-0.094 0.09375,-0.094 0.051562,0 0.09375,0.042 0.09375,0.094 0,0.052 -0.042188,0.094 -0.09375,0.094 z m -1.3125018,-0.1875 c -0.051563,0 -0.09375,-0.042 -0.09375,-0.094 0,-0.052 0.042188,-0.094 0.09375,-0.094 0.051563,0 0.09375,0.042 0.09375,0.094 0,0.052 -0.042188,0.094 -0.09375,0.094 z m 0.9375012,0 c -0.051562,0 -0.09375,-0.042 -0.09375,-0.094 0,-0.052 0.042188,-0.094 0.09375,-0.094 0.051563,0 0.09375,0.042 0.09375,0.094 0,0.052 -0.042188,0.094 -0.09375,0.094 z m -0.3750005,-0.1875 c -0.051562,0 -0.09375,-0.042 -0.09375,-0.094 0,-0.052 0.042188,-0.094 0.09375,-0.094 0.051563,0 0.09375,0.042 0.09375,0.094 0,0.052 -0.042188,0.094 -0.09375,0.094 z m 3.7812551,-0.062 -0.125,0.125 0,-0.25 0,-0.25 0.125,0.125 0.125,0.125 -0.125,0.125 z m -0.34831,-0.5029 c -0.03187,0 -0.184503,-0.085 -0.339191,-0.1846 l -0.28125,-0.1818 0.223309,0 c 0.122821,0 0.275457,0.082 0.339192,0.1846 0.06373,0.1031 0.08981,0.1862 0.05794,0.1846 z m -0.995442,-0.9346 c -0.05156,0 -0.09375,-0.042 -0.09375,-0.094 0,-0.052 0.04219,-0.094 0.09375,-0.094 0.05156,0 0.09375,0.042 0.09375,0.094 0,0.052 -0.04219,0.094 -0.09375,0.094 z m -4.6875062,-0.1875 c -0.051562,0 -0.09375,-0.042 -0.09375,-0.094 0,-0.052 0.042188,-0.094 0.09375,-0.094 0.051563,0 0.09375,0.042 0.09375,0.094 0,0.052 -0.042188,0.094 -0.09375,0.094 z m 4.3125062,0 c -0.05156,0 -0.09375,-0.042 -0.09375,-0.094 0,-0.052 0.04219,-0.094 0.09375,-0.094 0.05156,0 0.09375,0.042 0.09375,0.094 0,0.052 -0.04219,0.094 -0.09375,0.094 z m -3.5625051,-0.75 c -0.1546877,0.1284 -0.2812504,0.1912 -0.2812504,0.1397 0,-0.052 0.1265627,-0.1988 0.2812504,-0.3272 0.1546877,-0.1284 0.2812504,-0.1912 0.2812504,-0.1397 0,0.052 -0.1265627,0.1988 -0.2812504,0.3272 z m 2.8346352,0 c -0.051563,0 -0.1458967,-0.084 -0.2096316,-0.1875 -0.063735,-0.1031 -0.073694,-0.1875 -0.022131,-0.1875 0.051563,0 0.1458967,0.084 0.2096316,0.1875 0.063735,0.1031 0.073694,0.1875 0.022131,0.1875 z m -2.2721345,-0.375 c -0.051563,0 -0.09375,-0.042 -0.09375,-0.094 0,-0.052 0.042188,-0.094 0.09375,-0.094 0.051563,0 0.09375,0.042 0.09375,0.094 0,0.052 -0.042188,0.094 -0.09375,0.094 z m 1.6875024,0 c -0.051563,0 -0.09375,-0.042 -0.09375,-0.094 0,-0.052 0.042188,-0.094 0.09375,-0.094 0.051562,0 0.09375,0.042 0.09375,0.094 0,0.052 -0.042188,0.094 -0.09375,0.094 z m -0.8437512,-0.25 -0.577255,0 0.2047749,-0.1266 c 0.1126261,-0.07 0.190329,-0.2032 0.1726733,-0.2968 -0.017655,-0.094 -0.02211,-0.4586 -0.0099,-0.811 0.012212,-0.3523 0.06015,-0.6027 0.1065274,-0.5563 0.046378,0.046 0.1172966,0.4058 0.1575973,0.7986 l 0.073274,0.7143 0.2247804,0.1389 0.2247803,0.1389 -0.577255,0 z m -0.09375,-0.5 c 0.051562,0 0.09375,-0.042 0.09375,-0.094 0,-0.052 -0.042188,-0.094 -0.09375,-0.094 -0.051563,0 -0.09375,0.042 -0.09375,0.094 0,0.052 0.042188,0.094 0.09375,0.094 z"
         id="path3618" />
    </g>
  </g>
</svg>
