<?xml version="1.0" encoding="UTF-8" standalone="no"?>
<!-- Created with Inkscape (http://www.inkscape.org/) -->

<svg
   xmlns:dc="http://purl.org/dc/elements/1.1/"
   xmlns:cc="http://creativecommons.org/ns#"
   xmlns:rdf="http://www.w3.org/1999/02/22-rdf-syntax-ns#"
   xmlns:svg="http://www.w3.org/2000/svg"
   xmlns="http://www.w3.org/2000/svg"
   xmlns:sodipodi="http://sodipodi.sourceforge.net/DTD/sodipodi-0.dtd"
   xmlns:inkscape="http://www.inkscape.org/namespaces/inkscape"
   width="16"
   height="16"
   id="svg2"
   version="1.1"
   inkscape:version="0.47 r22583"
   sodipodi:docname="oneway-right-64.svg">
  <defs
     id="defs4">
    <inkscape:perspective
       sodipodi:type="inkscape:persp3d"
       inkscape:vp_x="0 : 526.18109 : 1"
       inkscape:vp_y="0 : 1000 : 0"
       inkscape:vp_z="744.09448 : 526.18109 : 1"
       inkscape:persp3d-origin="372.04724 : 350.78739 : 1"
       id="perspective10" />
    <inkscape:perspective
       id="perspective2824"
       inkscape:persp3d-origin="0.5 : 0.33333333 : 1"
       inkscape:vp_z="1 : 0.5 : 1"
       inkscape:vp_y="0 : 1000 : 0"
       inkscape:vp_x="0 : 0.5 : 1"
       sodipodi:type="inkscape:persp3d" />
    <inkscape:perspective
       id="perspective5878"
       inkscape:persp3d-origin="0.5 : 0.33333333 : 1"
       inkscape:vp_z="1 : 0.5 : 1"
       inkscape:vp_y="0 : 1000 : 0"
       inkscape:vp_x="0 : 0.5 : 1"
       sodipodi:type="inkscape:persp3d" />
    <inkscape:perspective
       id="perspective5921"
       inkscape:persp3d-origin="0.5 : 0.33333333 : 1"
       inkscape:vp_z="1 : 0.5 : 1"
       inkscape:vp_y="0 : 1000 : 0"
       inkscape:vp_x="0 : 0.5 : 1"
       sodipodi:type="inkscape:persp3d" />
    <inkscape:perspective
       id="perspective5943"
       inkscape:persp3d-origin="0.5 : 0.33333333 : 1"
       inkscape:vp_z="1 : 0.5 : 1"
       inkscape:vp_y="0 : 1000 : 0"
       inkscape:vp_x="0 : 0.5 : 1"
       sodipodi:type="inkscape:persp3d" />
    <inkscape:perspective
       id="perspective5989"
       inkscape:persp3d-origin="0.5 : 0.33333333 : 1"
       inkscape:vp_z="1 : 0.5 : 1"
       inkscape:vp_y="0 : 1000 : 0"
       inkscape:vp_x="0 : 0.5 : 1"
       sodipodi:type="inkscape:persp3d" />
    <inkscape:perspective
       id="perspective6011"
       inkscape:persp3d-origin="0.5 : 0.33333333 : 1"
       inkscape:vp_z="1 : 0.5 : 1"
       inkscape:vp_y="0 : 1000 : 0"
       inkscape:vp_x="0 : 0.5 : 1"
       sodipodi:type="inkscape:persp3d" />
    <inkscape:perspective
       id="perspective6033"
       inkscape:persp3d-origin="0.5 : 0.33333333 : 1"
       inkscape:vp_z="1 : 0.5 : 1"
       inkscape:vp_y="0 : 1000 : 0"
       inkscape:vp_x="0 : 0.5 : 1"
       sodipodi:type="inkscape:persp3d" />
    <inkscape:perspective
       id="perspective6245"
       inkscape:persp3d-origin="0.5 : 0.33333333 : 1"
       inkscape:vp_z="1 : 0.5 : 1"
       inkscape:vp_y="0 : 1000 : 0"
       inkscape:vp_x="0 : 0.5 : 1"
       sodipodi:type="inkscape:persp3d" />
    <inkscape:perspective
       id="perspective6269"
       inkscape:persp3d-origin="0.5 : 0.33333333 : 1"
       inkscape:vp_z="1 : 0.5 : 1"
       inkscape:vp_y="0 : 1000 : 0"
       inkscape:vp_x="0 : 0.5 : 1"
       sodipodi:type="inkscape:persp3d" />
    <inkscape:perspective
       id="perspective6364"
       inkscape:persp3d-origin="0.5 : 0.33333333 : 1"
       inkscape:vp_z="1 : 0.5 : 1"
       inkscape:vp_y="0 : 1000 : 0"
       inkscape:vp_x="0 : 0.5 : 1"
       sodipodi:type="inkscape:persp3d" />
    <inkscape:perspective
       id="perspective6396"
       inkscape:persp3d-origin="0.5 : 0.33333333 : 1"
       inkscape:vp_z="1 : 0.5 : 1"
       inkscape:vp_y="0 : 1000 : 0"
       inkscape:vp_x="0 : 0.5 : 1"
       sodipodi:type="inkscape:persp3d" />
    <inkscape:perspective
       id="perspective6438"
       inkscape:persp3d-origin="0.5 : 0.33333333 : 1"
       inkscape:vp_z="1 : 0.5 : 1"
       inkscape:vp_y="0 : 1000 : 0"
       inkscape:vp_x="0 : 0.5 : 1"
       sodipodi:type="inkscape:persp3d" />
    <inkscape:perspective
       id="perspective6460"
       inkscape:persp3d-origin="0.5 : 0.33333333 : 1"
       inkscape:vp_z="1 : 0.5 : 1"
       inkscape:vp_y="0 : 1000 : 0"
       inkscape:vp_x="0 : 0.5 : 1"
       sodipodi:type="inkscape:persp3d" />
    <inkscape:perspective
       id="perspective6480"
       inkscape:persp3d-origin="0.5 : 0.33333333 : 1"
       inkscape:vp_z="1 : 0.5 : 1"
       inkscape:vp_y="0 : 1000 : 0"
       inkscape:vp_x="0 : 0.5 : 1"
       sodipodi:type="inkscape:persp3d" />
    <inkscape:perspective
       id="perspective6504"
       inkscape:persp3d-origin="0.5 : 0.33333333 : 1"
       inkscape:vp_z="1 : 0.5 : 1"
       inkscape:vp_y="0 : 1000 : 0"
       inkscape:vp_x="0 : 0.5 : 1"
       sodipodi:type="inkscape:persp3d" />
    <inkscape:perspective
       id="perspective6524"
       inkscape:persp3d-origin="0.5 : 0.33333333 : 1"
       inkscape:vp_z="1 : 0.5 : 1"
       inkscape:vp_y="0 : 1000 : 0"
       inkscape:vp_x="0 : 0.5 : 1"
       sodipodi:type="inkscape:persp3d" />
    <inkscape:perspective
       id="perspective6548"
       inkscape:persp3d-origin="0.5 : 0.33333333 : 1"
       inkscape:vp_z="1 : 0.5 : 1"
       inkscape:vp_y="0 : 1000 : 0"
       inkscape:vp_x="0 : 0.5 : 1"
       sodipodi:type="inkscape:persp3d" />
    <inkscape:perspective
       id="perspective6572"
       inkscape:persp3d-origin="0.5 : 0.33333333 : 1"
       inkscape:vp_z="1 : 0.5 : 1"
       inkscape:vp_y="0 : 1000 : 0"
       inkscape:vp_x="0 : 0.5 : 1"
       sodipodi:type="inkscape:persp3d" />
    <inkscape:perspective
       id="perspective6594"
       inkscape:persp3d-origin="0.5 : 0.33333333 : 1"
       inkscape:vp_z="1 : 0.5 : 1"
       inkscape:vp_y="0 : 1000 : 0"
       inkscape:vp_x="0 : 0.5 : 1"
       sodipodi:type="inkscape:persp3d" />
    <inkscape:perspective
       id="perspective6614"
       inkscape:persp3d-origin="0.5 : 0.33333333 : 1"
       inkscape:vp_z="1 : 0.5 : 1"
       inkscape:vp_y="0 : 1000 : 0"
       inkscape:vp_x="0 : 0.5 : 1"
       sodipodi:type="inkscape:persp3d" />
    <inkscape:perspective
       id="perspective6650"
       inkscape:persp3d-origin="0.5 : 0.33333333 : 1"
       inkscape:vp_z="1 : 0.5 : 1"
       inkscape:vp_y="0 : 1000 : 0"
       inkscape:vp_x="0 : 0.5 : 1"
       sodipodi:type="inkscape:persp3d" />
    <inkscape:perspective
       id="perspective6676"
       inkscape:persp3d-origin="0.5 : 0.33333333 : 1"
       inkscape:vp_z="1 : 0.5 : 1"
       inkscape:vp_y="0 : 1000 : 0"
       inkscape:vp_x="0 : 0.5 : 1"
       sodipodi:type="inkscape:persp3d" />
    <inkscape:perspective
       id="perspective6710"
       inkscape:persp3d-origin="0.5 : 0.33333333 : 1"
       inkscape:vp_z="1 : 0.5 : 1"
       inkscape:vp_y="0 : 1000 : 0"
       inkscape:vp_x="0 : 0.5 : 1"
       sodipodi:type="inkscape:persp3d" />
    <inkscape:perspective
       id="perspective6748"
       inkscape:persp3d-origin="0.5 : 0.33333333 : 1"
       inkscape:vp_z="1 : 0.5 : 1"
       inkscape:vp_y="0 : 1000 : 0"
       inkscape:vp_x="0 : 0.5 : 1"
       sodipodi:type="inkscape:persp3d" />
    <inkscape:perspective
       id="perspective6786"
       inkscape:persp3d-origin="0.5 : 0.33333333 : 1"
       inkscape:vp_z="1 : 0.5 : 1"
       inkscape:vp_y="0 : 1000 : 0"
       inkscape:vp_x="0 : 0.5 : 1"
       sodipodi:type="inkscape:persp3d" />
    <inkscape:perspective
       id="perspective6810"
       inkscape:persp3d-origin="0.5 : 0.33333333 : 1"
       inkscape:vp_z="1 : 0.5 : 1"
       inkscape:vp_y="0 : 1000 : 0"
       inkscape:vp_x="0 : 0.5 : 1"
       sodipodi:type="inkscape:persp3d" />
    <inkscape:perspective
       id="perspective6848"
       inkscape:persp3d-origin="0.5 : 0.33333333 : 1"
       inkscape:vp_z="1 : 0.5 : 1"
       inkscape:vp_y="0 : 1000 : 0"
       inkscape:vp_x="0 : 0.5 : 1"
       sodipodi:type="inkscape:persp3d" />
    <inkscape:perspective
       id="perspective6870"
       inkscape:persp3d-origin="0.5 : 0.33333333 : 1"
       inkscape:vp_z="1 : 0.5 : 1"
       inkscape:vp_y="0 : 1000 : 0"
       inkscape:vp_x="0 : 0.5 : 1"
       sodipodi:type="inkscape:persp3d" />
    <inkscape:perspective
       id="perspective6908"
       inkscape:persp3d-origin="0.5 : 0.33333333 : 1"
       inkscape:vp_z="1 : 0.5 : 1"
       inkscape:vp_y="0 : 1000 : 0"
       inkscape:vp_x="0 : 0.5 : 1"
       sodipodi:type="inkscape:persp3d" />
    <inkscape:perspective
       id="perspective6946"
       inkscape:persp3d-origin="0.5 : 0.33333333 : 1"
       inkscape:vp_z="1 : 0.5 : 1"
       inkscape:vp_y="0 : 1000 : 0"
       inkscape:vp_x="0 : 0.5 : 1"
       sodipodi:type="inkscape:persp3d" />
    <inkscape:perspective
       id="perspective6970"
       inkscape:persp3d-origin="0.5 : 0.33333333 : 1"
       inkscape:vp_z="1 : 0.5 : 1"
       inkscape:vp_y="0 : 1000 : 0"
       inkscape:vp_x="0 : 0.5 : 1"
       sodipodi:type="inkscape:persp3d" />
    <inkscape:perspective
       id="perspective7008"
       inkscape:persp3d-origin="0.5 : 0.33333333 : 1"
       inkscape:vp_z="1 : 0.5 : 1"
       inkscape:vp_y="0 : 1000 : 0"
       inkscape:vp_x="0 : 0.5 : 1"
       sodipodi:type="inkscape:persp3d" />
    <inkscape:perspective
       id="perspective7036"
       inkscape:persp3d-origin="0.5 : 0.33333333 : 1"
       inkscape:vp_z="1 : 0.5 : 1"
       inkscape:vp_y="0 : 1000 : 0"
       inkscape:vp_x="0 : 0.5 : 1"
       sodipodi:type="inkscape:persp3d" />
    <inkscape:perspective
       id="perspective7060"
       inkscape:persp3d-origin="0.5 : 0.33333333 : 1"
       inkscape:vp_z="1 : 0.5 : 1"
       inkscape:vp_y="0 : 1000 : 0"
       inkscape:vp_x="0 : 0.5 : 1"
       sodipodi:type="inkscape:persp3d" />
    <inkscape:perspective
       id="perspective7098"
       inkscape:persp3d-origin="0.5 : 0.33333333 : 1"
       inkscape:vp_z="1 : 0.5 : 1"
       inkscape:vp_y="0 : 1000 : 0"
       inkscape:vp_x="0 : 0.5 : 1"
       sodipodi:type="inkscape:persp3d" />
    <inkscape:perspective
       id="perspective7136"
       inkscape:persp3d-origin="0.5 : 0.33333333 : 1"
       inkscape:vp_z="1 : 0.5 : 1"
       inkscape:vp_y="0 : 1000 : 0"
       inkscape:vp_x="0 : 0.5 : 1"
       sodipodi:type="inkscape:persp3d" />
    <inkscape:perspective
       id="perspective7174"
       inkscape:persp3d-origin="0.5 : 0.33333333 : 1"
       inkscape:vp_z="1 : 0.5 : 1"
       inkscape:vp_y="0 : 1000 : 0"
       inkscape:vp_x="0 : 0.5 : 1"
       sodipodi:type="inkscape:persp3d" />
    <inkscape:perspective
       id="perspective7212"
       inkscape:persp3d-origin="0.5 : 0.33333333 : 1"
       inkscape:vp_z="1 : 0.5 : 1"
       inkscape:vp_y="0 : 1000 : 0"
       inkscape:vp_x="0 : 0.5 : 1"
       sodipodi:type="inkscape:persp3d" />
    <inkscape:perspective
       id="perspective7234"
       inkscape:persp3d-origin="0.5 : 0.33333333 : 1"
       inkscape:vp_z="1 : 0.5 : 1"
       inkscape:vp_y="0 : 1000 : 0"
       inkscape:vp_x="0 : 0.5 : 1"
       sodipodi:type="inkscape:persp3d" />
    <inkscape:perspective
       id="perspective7272"
       inkscape:persp3d-origin="0.5 : 0.33333333 : 1"
       inkscape:vp_z="1 : 0.5 : 1"
       inkscape:vp_y="0 : 1000 : 0"
       inkscape:vp_x="0 : 0.5 : 1"
       sodipodi:type="inkscape:persp3d" />
    <inkscape:perspective
       id="perspective7294"
       inkscape:persp3d-origin="0.5 : 0.33333333 : 1"
       inkscape:vp_z="1 : 0.5 : 1"
       inkscape:vp_y="0 : 1000 : 0"
       inkscape:vp_x="0 : 0.5 : 1"
       sodipodi:type="inkscape:persp3d" />
    <inkscape:perspective
       id="perspective7330"
       inkscape:persp3d-origin="0.5 : 0.33333333 : 1"
       inkscape:vp_z="1 : 0.5 : 1"
       inkscape:vp_y="0 : 1000 : 0"
       inkscape:vp_x="0 : 0.5 : 1"
       sodipodi:type="inkscape:persp3d" />
    <inkscape:perspective
       id="perspective3068"
       inkscape:persp3d-origin="0.5 : 0.33333333 : 1"
       inkscape:vp_z="1 : 0.5 : 1"
       inkscape:vp_y="0 : 1000 : 0"
       inkscape:vp_x="0 : 0.5 : 1"
       sodipodi:type="inkscape:persp3d" />
    <inkscape:perspective
       id="perspective3106"
       inkscape:persp3d-origin="0.5 : 0.33333333 : 1"
       inkscape:vp_z="1 : 0.5 : 1"
       inkscape:vp_y="0 : 1000 : 0"
       inkscape:vp_x="0 : 0.5 : 1"
       sodipodi:type="inkscape:persp3d" />
    <inkscape:perspective
       id="perspective3128"
       inkscape:persp3d-origin="0.5 : 0.33333333 : 1"
       inkscape:vp_z="1 : 0.5 : 1"
       inkscape:vp_y="0 : 1000 : 0"
       inkscape:vp_x="0 : 0.5 : 1"
       sodipodi:type="inkscape:persp3d" />
    <inkscape:perspective
       id="perspective3152"
       inkscape:persp3d-origin="0.5 : 0.33333333 : 1"
       inkscape:vp_z="1 : 0.5 : 1"
       inkscape:vp_y="0 : 1000 : 0"
       inkscape:vp_x="0 : 0.5 : 1"
       sodipodi:type="inkscape:persp3d" />
    <inkscape:perspective
       id="perspective3174"
       inkscape:persp3d-origin="0.5 : 0.33333333 : 1"
       inkscape:vp_z="1 : 0.5 : 1"
       inkscape:vp_y="0 : 1000 : 0"
       inkscape:vp_x="0 : 0.5 : 1"
       sodipodi:type="inkscape:persp3d" />
    <inkscape:perspective
       id="perspective3212"
       inkscape:persp3d-origin="0.5 : 0.33333333 : 1"
       inkscape:vp_z="1 : 0.5 : 1"
       inkscape:vp_y="0 : 1000 : 0"
       inkscape:vp_x="0 : 0.5 : 1"
       sodipodi:type="inkscape:persp3d" />
    <inkscape:perspective
       id="perspective3238"
       inkscape:persp3d-origin="0.5 : 0.33333333 : 1"
       inkscape:vp_z="1 : 0.5 : 1"
       inkscape:vp_y="0 : 1000 : 0"
       inkscape:vp_x="0 : 0.5 : 1"
       sodipodi:type="inkscape:persp3d" />
    <inkscape:perspective
       id="perspective3276"
       inkscape:persp3d-origin="0.5 : 0.33333333 : 1"
       inkscape:vp_z="1 : 0.5 : 1"
       inkscape:vp_y="0 : 1000 : 0"
       inkscape:vp_x="0 : 0.5 : 1"
       sodipodi:type="inkscape:persp3d" />
    <inkscape:perspective
       id="perspective3314"
       inkscape:persp3d-origin="0.5 : 0.33333333 : 1"
       inkscape:vp_z="1 : 0.5 : 1"
       inkscape:vp_y="0 : 1000 : 0"
       inkscape:vp_x="0 : 0.5 : 1"
       sodipodi:type="inkscape:persp3d" />
    <inkscape:perspective
       id="perspective3350"
       inkscape:persp3d-origin="0.5 : 0.33333333 : 1"
       inkscape:vp_z="1 : 0.5 : 1"
       inkscape:vp_y="0 : 1000 : 0"
       inkscape:vp_x="0 : 0.5 : 1"
       sodipodi:type="inkscape:persp3d" />
    <inkscape:perspective
       id="perspective3376"
       inkscape:persp3d-origin="0.5 : 0.33333333 : 1"
       inkscape:vp_z="1 : 0.5 : 1"
       inkscape:vp_y="0 : 1000 : 0"
       inkscape:vp_x="0 : 0.5 : 1"
       sodipodi:type="inkscape:persp3d" />
    <inkscape:perspective
       id="perspective3402"
       inkscape:persp3d-origin="0.5 : 0.33333333 : 1"
       inkscape:vp_z="1 : 0.5 : 1"
       inkscape:vp_y="0 : 1000 : 0"
       inkscape:vp_x="0 : 0.5 : 1"
       sodipodi:type="inkscape:persp3d" />
    <inkscape:perspective
       id="perspective3428"
       inkscape:persp3d-origin="0.5 : 0.33333333 : 1"
       inkscape:vp_z="1 : 0.5 : 1"
       inkscape:vp_y="0 : 1000 : 0"
       inkscape:vp_x="0 : 0.5 : 1"
       sodipodi:type="inkscape:persp3d" />
    <inkscape:perspective
       id="perspective3466"
       inkscape:persp3d-origin="0.5 : 0.33333333 : 1"
       inkscape:vp_z="1 : 0.5 : 1"
       inkscape:vp_y="0 : 1000 : 0"
       inkscape:vp_x="0 : 0.5 : 1"
       sodipodi:type="inkscape:persp3d" />
    <inkscape:perspective
       id="perspective3504"
       inkscape:persp3d-origin="0.5 : 0.33333333 : 1"
       inkscape:vp_z="1 : 0.5 : 1"
       inkscape:vp_y="0 : 1000 : 0"
       inkscape:vp_x="0 : 0.5 : 1"
       sodipodi:type="inkscape:persp3d" />
    <inkscape:perspective
       id="perspective3542"
       inkscape:persp3d-origin="0.5 : 0.33333333 : 1"
       inkscape:vp_z="1 : 0.5 : 1"
       inkscape:vp_y="0 : 1000 : 0"
       inkscape:vp_x="0 : 0.5 : 1"
       sodipodi:type="inkscape:persp3d" />
    <inkscape:perspective
       id="perspective3566"
       inkscape:persp3d-origin="0.5 : 0.33333333 : 1"
       inkscape:vp_z="1 : 0.5 : 1"
       inkscape:vp_y="0 : 1000 : 0"
       inkscape:vp_x="0 : 0.5 : 1"
       sodipodi:type="inkscape:persp3d" />
    <inkscape:perspective
       id="perspective3590"
       inkscape:persp3d-origin="0.5 : 0.33333333 : 1"
       inkscape:vp_z="1 : 0.5 : 1"
       inkscape:vp_y="0 : 1000 : 0"
       inkscape:vp_x="0 : 0.5 : 1"
       sodipodi:type="inkscape:persp3d" />
    <inkscape:perspective
       id="perspective3610"
       inkscape:persp3d-origin="0.5 : 0.33333333 : 1"
       inkscape:vp_z="1 : 0.5 : 1"
       inkscape:vp_y="0 : 1000 : 0"
       inkscape:vp_x="0 : 0.5 : 1"
       sodipodi:type="inkscape:persp3d" />
    <inkscape:perspective
       id="perspective3648"
       inkscape:persp3d-origin="0.5 : 0.33333333 : 1"
       inkscape:vp_z="1 : 0.5 : 1"
       inkscape:vp_y="0 : 1000 : 0"
       inkscape:vp_x="0 : 0.5 : 1"
       sodipodi:type="inkscape:persp3d" />
    <inkscape:perspective
       id="perspective3668"
       inkscape:persp3d-origin="0.5 : 0.33333333 : 1"
       inkscape:vp_z="1 : 0.5 : 1"
       inkscape:vp_y="0 : 1000 : 0"
       inkscape:vp_x="0 : 0.5 : 1"
       sodipodi:type="inkscape:persp3d" />
    <inkscape:perspective
       id="perspective3706"
       inkscape:persp3d-origin="0.5 : 0.33333333 : 1"
       inkscape:vp_z="1 : 0.5 : 1"
       inkscape:vp_y="0 : 1000 : 0"
       inkscape:vp_x="0 : 0.5 : 1"
       sodipodi:type="inkscape:persp3d" />
  </defs>
  <sodipodi:namedview
     id="base"
     pagecolor="#ffffff"
     bordercolor="#666666"
     borderopacity="1.0"
     inkscape:pageopacity="0.0"
     inkscape:pageshadow="2"
     inkscape:zoom="11.313709"
     inkscape:cx="11.966503"
     inkscape:cy="14.926085"
     inkscape:document-units="px"
     inkscape:current-layer="layer1"
     showgrid="true"
     inkscape:window-width="1280"
     inkscape:window-height="780"
     inkscape:window-x="-8"
     inkscape:window-y="-8"
     inkscape:window-maximized="1">
    <inkscape:grid
       type="xygrid"
       id="grid6324"
       empspacing="5"
       visible="true"
       enabled="true"
       snapvisiblegridlinesonly="true" />
  </sodipodi:namedview>
  <metadata
     id="metadata7">
    <rdf:RDF>
      <cc:Work
         rdf:about="">
        <dc:format>image/svg+xml</dc:format>
        <dc:type
           rdf:resource="http://purl.org/dc/dcmitype/StillImage" />
        <dc:title></dc:title>
      </cc:Work>
    </rdf:RDF>
  </metadata>
  <g
     inkscape:label="Calque 1"
     inkscape:groupmode="layer"
     id="layer1"
     transform="translate(0,-1036.3622)">
    <g
       id="g3712"
       transform="translate(0.2625507,-4.6141)">
      <path
         style="fill:#feaf1e"
         d="m 8.7523964,1051.8823 -6.4779471,0 0,-1.7994 0,-1.7994 6.4779471,0 6.4779476,0 0,1.7994 0,1.7994 -6.4779476,0 z"
         id="path3734" />
      <path
         style="fill:#eea41c"
         d="m 8.7523964,1051.8823 -6.4779471,0 0,-1.7994 0,-1.7994 6.4779471,0 6.4779476,0 0,1.7994 0,1.7994 -6.4779476,0 z m 3.8987646,-0.5329 c 0.296906,-0.1915 0.841729,-0.5435 1.210719,-0.7822 l 0.670889,-0.4341 -1.030775,-0.6838 c -0.566927,-0.3762 -1.118122,-0.6844 -1.224879,-0.685 l -0.194102,-10e-4 0.148281,0.2399 0.148281,0.24 -4.6926768,0 -4.692677,0 0,0.8397 0,0.8397 0.4382948,0 0.4382949,0 -0.1015836,-0.6921 -0.1015836,-0.6921 3.9819201,-0.02 3.9819202,-0.02 0,0.218 c 0,0.1198 -0.107966,0.2846 -0.239924,0.3662 -0.131958,0.082 -0.239924,0.3039 -0.239924,0.494 l 0,0.3457 0.479848,0 0.479848,0 0,0.3875 0,0.3875 0.539829,-0.3482 z m -7.5775986,-0.5067 0.1599491,-0.16 -0.1599491,-0.1599 -0.1599494,-0.16 0,0.3199 0,0.3199 0.1599494,-0.1599 z m 2.7115366,0.08 0.180984,0 -0.1178729,-0.6166 -0.117873,-0.6166 -0.2166077,0.2166 -0.2166074,0.2166 0.1534964,0.4 c 0.084423,0.22 0.2349393,0.4 0.3344806,0.4 z m 0.8873228,-0.08 0.1599492,-0.16 -0.1599492,-0.1599 -0.1599493,-0.16 0,0.3199 0,0.3199 0.1599493,-0.1599 z m 1.2795944,0.08 0.3198988,0 -0.159949,-0.1599 -0.1599498,-0.16 -0.1599493,0.16 -0.1599492,0.1599 0.3198985,0 z m -5.5982257,-0.5598 0.1599491,-0.1599 -0.1599491,-0.16 -0.1599494,-0.1599 0,0.3199 0,0.3199 0.1599494,-0.16 z m 6.1980355,0.08 c 0.06598,0 0.119962,-0.054 0.119962,-0.12 0,-0.066 -0.05398,-0.1199 -0.119962,-0.1199 -0.06598,0 -0.119962,0.054 -0.119962,0.1199 0,0.066 0.05398,0.12 0.119962,0.12 z"
         id="path3732" />
      <path
         style="fill:#d69419"
         d="m 8.7523964,1051.8823 -6.4779471,0 0,-1.7994 0,-1.7994 6.4779471,0 6.4779476,0 0,1.7994 0,1.7994 -6.4779476,0 z m 4.0345746,-0.6119 c 0.371601,-0.2195 0.920031,-0.5834 1.218733,-0.8087 l 0.543095,-0.4097 -0.973666,-0.6443 c -0.535516,-0.3544 -1.090317,-0.6444 -1.232893,-0.6444 l -0.259227,0 0.148281,0.2399 0.148281,0.24 -4.6926768,0 -4.692677,0 0,0.8397 0,0.8397 0.4382948,0 0.4382949,0 -0.1070261,-0.7292 -0.107026,-0.7292 0.928332,0.056 0.9283321,0.056 0.176269,0.2534 0.176269,0.2534 0.00367,-0.2999 0.00367,-0.2999 0.8538935,0 0.8538935,0 -0.1496082,0.2421 -0.149608,0.242 0.1516164,0.4777 c 0.083389,0.2628 0.2336077,0.4777 0.3338194,0.4777 l 0.1822028,0 -0.1049689,-0.7152 -0.1049689,-0.7152 1.9338169,0.034 1.9338166,0.034 -0.227789,0.4256 c -0.125284,0.2341 -0.227789,0.5407 -0.227789,0.6813 l 0,0.2557 0.479848,0 0.479848,0 0,0.3735 0,0.3734 0.675639,-0.3991 z m -7.873358,-0.3478 0.2399239,0 0,-0.254 0,-0.2541 -0.2399239,0.1482 c -0.1319582,0.082 -0.239924,0.1959 -0.239924,0.2541 0,0.058 0.1079658,0.1058 0.239924,0.1058 z m 0.8397338,0 c 0.065979,0 0.119962,-0.054 0.119962,-0.1199 0,-0.066 -0.053983,-0.12 -0.119962,-0.12 -0.065979,0 -0.1199619,0.054 -0.1199619,0.12 0,0.066 0.053983,0.1199 0.1199619,0.1199 z m 2.919075,-0.08 0.1599492,-0.16 -0.1599492,-0.1599 -0.1599493,-0.16 0,0.3199 0,0.3199 0.1599493,-0.1599 z m 1.2795944,0.08 0.3198988,0 -0.159949,-0.1599 -0.1599498,-0.16 -0.1599493,0.16 -0.1599492,0.1599 0.3198985,0 z m -5.5182512,-0.5998 c 0.1319582,-0.082 0.239924,-0.1959 0.239924,-0.2541 0,-0.058 -0.1079658,-0.1058 -0.239924,-0.1058 l -0.2399239,0 0,0.2541 0,0.2541 0.2399239,-0.1483 z m 6.158049,0.04 0.159949,-0.1599 -0.159949,-0.16 -0.15995,-0.1599 0,0.3199 0,0.3199 0.15995,-0.16 z"
         id="path3730" />
      <path
         style="fill:#be8316"
         d="m 8.7523964,1051.8823 -6.4779471,0 0,-1.7994 0,-1.7994 6.4779471,0 6.4779476,0 0,1.7994 0,1.7994 -6.4779476,0 z m 4.3322916,-0.7562 c 0.535346,-0.3009 1.076022,-0.6708 1.201503,-0.822 l 0.228147,-0.2749 -0.956435,-0.6329 c -0.526039,-0.3482 -1.066716,-0.633 -1.201503,-0.633 l -0.245068,0 0,0.2399 0,0.24 -4.5585554,0 -4.5585554,0 0,0.8397 0,0.8397 0.4293249,0 0.429325,0 -0.00946,-0.6598 -0.00946,-0.6597 0.5398289,-0.077 0.539829,-0.077 0.00367,0.3166 0.00367,0.3166 0.23625,-0.3599 0.23625,-0.3599 0.23625,0.3599 0.23625,0.3599 0.00367,-0.2489 0.00367,-0.2488 0.7197719,-0.055 0.7197719,-0.055 0,0.7236 0,0.7235 0.3538879,0 0.3538878,0 -0.1338795,-0.6694 -0.1338797,-0.6694 1.1981728,-0.016 1.1981729,-0.016 0.262551,0.5055 0.262551,0.5055 -0.127876,-0.5098 -0.127875,-0.5098 0.59885,0 0.59885,0 -0.232315,0.4341 c -0.127773,0.2387 -0.232315,0.5491 -0.232315,0.6897 l 0,0.2557 0.479848,0 0.479848,0 0,0.3753 0,0.3752 0.973356,-0.547 z m -8.171075,-0.2035 0.2399239,0 0,-0.254 0,-0.2541 -0.2399239,0.1482 c -0.1319582,0.082 -0.239924,0.1959 -0.239924,0.2541 0,0.058 0.1079658,0.1058 0.239924,0.1058 z m 0.7197719,0 0.3198985,0 -0.1599492,-0.1599 -0.1599493,-0.16 -0.1599494,0.16 -0.1599492,0.1599 0.3198986,0 z m 0.5998099,0 c 0.065979,0 0.119962,-0.054 0.119962,-0.1199 0,-0.066 -0.053983,-0.12 -0.119962,-0.12 -0.065979,0 -0.119962,0.054 -0.119962,0.12 0,0.066 0.053983,0.1199 0.119962,0.1199 z m 2.439227,-0.08 0.1599492,-0.16 -0.1599492,-0.1599 -0.1599493,-0.16 0,0.3199 0,0.3199 0.1599493,-0.1599 z m 1.2795944,0.08 0.3198988,0 -0.159949,-0.1599 -0.1599498,-0.16 -0.1599493,0.16 -0.1599492,0.1599 0.3198985,0 z m -5.5182512,-0.4798 c 0.1319582,0 0.239924,-0.108 0.239924,-0.2399 0,-0.132 -0.1079658,-0.24 -0.239924,-0.24 -0.1319582,0 -0.2399239,0.108 -0.2399239,0.24 0,0.1319 0.1079657,0.2399 0.2399239,0.2399 z m 4.9184413,0 c 0.065979,0 0.119962,-0.054 0.119962,-0.12 0,-0.066 -0.053983,-0.1199 -0.119962,-0.1199 -0.065979,0 -0.119962,0.054 -0.119962,0.1199 0,0.066 0.053983,0.12 0.119962,0.12 z"
         id="path3728" />
      <path
         style="fill:#ae7814"
         d="m 8.7523964,1051.8823 -6.4779471,0 0,-1.7994 0,-1.7994 6.4779471,0 6.4779476,0 0,1.7994 0,1.7994 -6.4779476,0 z m 3.4956506,-0.2399 c 0.07519,0 0.629817,-0.3393 1.232499,-0.7539 l 1.095785,-0.7539 -0.572709,-0.4349 c -0.314989,-0.2392 -0.833298,-0.5747 -1.151797,-0.7456 l -0.57909,-0.3107 -0.100695,0.2999 -0.100695,0.2999 -4.538562,0 -4.5385618,0 0,0.8397 0,0.8397 0.6597909,0 0.6597909,0 -0.3235118,-0.205 -0.3235118,-0.205 0.086039,-0.4511 0.086039,-0.4511 0.5676403,-0.081 0.5676402,-0.081 -0.1086711,0.7404 -0.1086712,0.7404 0.1983708,0 0.1983708,0 0,-0.7197 0,-0.7198 0.239924,0 0.239924,0 0.00367,0.2999 0.00367,0.2999 0.2177514,-0.3441 0.2177517,-0.3441 0.1000636,0.8239 0.1000653,0.824 0.038397,-0.7798 0.038397,-0.7797 0.5398289,0 0.5398289,0 -0.3598859,0.2326 -0.359886,0.2326 0.359886,0.023 0.3598859,0.023 -0.2977627,0.1203 -0.2977629,0.1203 0.3406064,0.3406 c 0.1873336,0.1874 0.4535849,0.3406 0.5916695,0.3406 l 0.2510634,0 -0.1338795,-0.6694 -0.1338797,-0.6694 1.1981728,-0.016 1.1981727,-0.016 0.262551,0.5055 0.262551,0.5055 -0.127876,-0.5098 -0.127875,-0.5098 0.59885,0 0.59885,0 -0.232315,0.4341 c -0.127773,0.2387 -0.232315,0.5491 -0.232315,0.6897 l 0,0.2557 0.479848,0 0.479848,0 0,0.3599 c 0,0.198 0.06152,0.3599 0.136715,0.3599 z m -6.6005025,-0.7198 0.2540835,0 -0.1482812,-0.2399 c -0.081555,-0.1319 -0.1958921,-0.2399 -0.2540835,-0.2399 -0.058191,0 -0.1058024,0.108 -0.1058024,0.2399 l 0,0.2399 0.2540836,0 z m 2.872458,0 0.2323939,0 0,-0.3599 c 0,-0.1979 -0.042432,-0.3598 -0.094293,-0.3598 -0.051861,0 -0.1564384,0.1619 -0.232394,0.3598 l -0.1381012,0.3599 0.232394,0 z m 1.4461733,0 0.2540832,0 -0.148281,-0.2399 c -0.081554,-0.1319 -0.1958919,-0.2399 -0.2540833,-0.2399 -0.058191,0 -0.1058024,0.108 -0.1058024,0.2399 l 0,0.2399 0.2540835,0 z m 0.8255742,0 c 0.06598,0 0.119962,-0.054 0.119962,-0.1199 0,-0.066 -0.05398,-0.12 -0.119962,-0.12 -0.06598,0 -0.119962,0.054 -0.119962,0.12 0,0.066 0.05398,0.1199 0.119962,0.1199 z m -6.357985,-0.4798 c 0.1319582,0 0.239924,-0.1016 0.239924,-0.2258 0,-0.1241 -0.1079658,-0.2925 -0.239924,-0.374 l -0.2399239,-0.1483 0,0.374 0,0.3741 0.2399239,0 z m 4.9184413,0 c 0.065979,0 0.119962,-0.054 0.119962,-0.12 0,-0.066 -0.053983,-0.1199 -0.119962,-0.1199 -0.065979,0 -0.119962,0.054 -0.119962,0.1199 0,0.066 0.053983,0.12 0.119962,0.12 z"
         id="path3726" />
      <path
         style="fill:#9a6a11"
         d="m 8.7523964,1051.8823 -6.4779471,0 0,-1.7994 0,-1.7994 6.4779471,0 6.4779476,0 0,1.7994 0,1.7994 -6.4779476,0 z m 3.4956506,-0.2399 c 0.07519,0 0.620696,-0.333 1.21223,-0.74 l 1.075516,-0.7399 -0.248958,-0.3 c -0.136927,-0.165 -0.643751,-0.5068 -1.126276,-0.7596 l -0.877317,-0.4595 -0.105949,0.2999 -0.105948,0.2999 -4.538562,0 -4.5385618,0 0,0.8397 0,0.8397 0.6597909,0 0.6597909,0 -0.3235118,-0.205 -0.3235118,-0.205 0.086039,-0.4511 0.086039,-0.4511 0.5676403,-0.081 0.5676402,-0.081 -0.1086711,0.7404 -0.1086712,0.7404 0.1983708,0 0.1983708,0 0,-0.7197 0,-0.7198 0.239924,0 0.239924,0 0.00367,0.2999 0.00367,0.2999 0.2177514,-0.3441 0.2177517,-0.3441 0.1000636,0.8239 0.1000653,0.824 0.038397,-0.7798 0.038397,-0.7797 0.5398289,0 0.5398289,0 -0.3598859,0.2326 -0.359886,0.2326 0.359886,0.023 0.3598859,0.023 -0.2977627,0.1203 -0.2977629,0.1203 0.3406064,0.3406 c 0.1873336,0.1874 0.4535849,0.3406 0.5916695,0.3406 l 0.2510634,0 -0.1337204,-0.6686 -0.1337204,-0.6686 0.8667483,-0.023 0.8667486,-0.023 -0.1284845,0.5118 -0.1284846,0.5117 0.2778524,-0.5398 c 0.1528188,-0.2969 0.3528206,-0.5398 0.4444485,-0.5398 0.091628,0 0.2916294,0.2429 0.4444484,0.5398 l 0.277852,0.5398 -0.118183,-0.4798 -0.118183,-0.4798 0.620871,-0.036 0.620871,-0.036 -0.264028,0.264 c -0.145216,0.1452 -0.264029,0.4583 -0.264029,0.6959 l 0,0.4318 0.479848,0 0.479848,0 0,0.3599 c 0,0.198 0.06152,0.3599 0.136715,0.3599 z m -6.6005025,-0.7198 0.2540835,0 -0.1482812,-0.2399 c -0.081555,-0.1319 -0.1958921,-0.2399 -0.2540835,-0.2399 -0.058191,0 -0.1058024,0.108 -0.1058024,0.2399 l 0,0.2399 0.2540836,0 z m 2.872458,0 0.2323939,0 0,-0.3599 c 0,-0.1979 -0.042432,-0.3598 -0.094293,-0.3598 -0.051861,0 -0.1564384,0.1619 -0.232394,0.3598 l -0.1381012,0.3599 0.232394,0 z m 0.5922799,0 c 0.065979,0 0.1199619,-0.054 0.1199619,-0.1199 0,-0.066 -0.053983,-0.12 -0.1199619,-0.12 -0.065979,0 -0.119962,0.054 -0.119962,0.12 0,0.066 0.053983,0.1199 0.119962,0.1199 z m 0.7056123,0 0.3740453,0 0,-0.2399 c 0,-0.1319 -0.101594,-0.2399 -0.2257642,-0.2399 -0.1241704,0 -0.2924908,0.108 -0.3740455,0.2399 l -0.1482812,0.2399 0.3740456,0 z m 0.8538933,0 0.319899,0 -0.159949,-0.1599 -0.15995,-0.16 -0.159949,0.16 -0.159949,0.1599 0.319898,0 z m -6.238023,-0.4798 c 0.1319582,0 0.239924,-0.1016 0.239924,-0.2258 0,-0.1241 -0.1079658,-0.2925 -0.239924,-0.374 l -0.2399239,-0.1483 0,0.374 0,0.3741 0.2399239,0 z"
         id="path3724" />
      <path
         style="fill:#7c540e"
         d="m 8.7523964,1051.8823 -6.4779471,0 0,-1.7994 0,-1.7994 6.4779471,0 6.4779476,0 0,1.7994 0,1.7994 -6.4779476,0 z m 3.5178736,-0.2399 c 0.08742,0 0.685754,-0.338 1.329639,-0.7512 l 1.1707,-0.7513 -1.200212,-0.8082 c -0.660116,-0.4446 -1.258453,-0.8083 -1.329638,-0.8083 -0.07118,0 -0.129427,0.1619 -0.129427,0.3599 l 0,0.3599 -4.5585554,0 -4.5585554,0 0,0.8397 0,0.8397 0.6597909,0 0.6597909,0 -0.3235118,-0.205 -0.3235118,-0.205 0.086874,-0.4511 0.086874,-0.4511 0.4732763,0 0.4732765,0 0.086874,0.4511 0.086874,0.4511 -0.3235118,0.205 -0.3235118,0.205 0.419867,0 0.4198669,0 0,-0.7491 0,-0.7492 0.359886,0.2987 0.3598859,0.2987 0.031584,-0.3293 c 0.017371,-0.1811 0.1111241,0.049 0.2083401,0.5105 l 0.1767563,0.8397 0.031584,-0.7798 0.031584,-0.7797 0.5398289,0 0.5398289,0 -0.3598859,0.2326 -0.359886,0.2326 0.359886,0.023 0.3598859,0.023 -0.2977627,0.1203 -0.2977629,0.1203 0.3406064,0.3406 c 0.1873336,0.1874 0.4648625,0.3406 0.616731,0.3406 l 0.2761247,0 -0.1467965,-0.6683 -0.1467963,-0.6684 0.487619,0 0.4876191,0 0,0.2179 0,0.2179 0.394494,-0.3274 0.3944938,-0.3274 -0.1660262,0.5979 -0.1660261,0.5979 0.286764,-0.4798 c 0.1577203,-0.2639 0.3306947,-0.5307 0.3843875,-0.5929 0.053693,-0.062 0.1980656,0.046 0.3208286,0.24 0.122762,0.1941 0.224643,0.4609 0.226401,0.5928 l 0.0032,0.2399 -0.7686908,0.054 -0.7686905,0.054 -0.1571399,-0.2542 -0.1571398,-0.2543 -0.1458208,0.38 -0.1458217,0.38 1.9118615,0 1.911862,0 0,0.3599 c 0,0.198 0.07152,0.3599 0.158938,0.3599 z m -1.358558,-0.9597 c -0.131958,0 -0.239924,-0.099 -0.239924,-0.2203 0,-0.1212 -0.05666,-0.3679 -0.125902,-0.5484 l -0.125903,-0.3281 0.491729,0 0.491729,0 -0.125902,0.3281 c -0.06925,0.1805 -0.125903,0.4272 -0.125903,0.5484 0,0.1212 -0.107966,0.2203 -0.239924,0.2203 z m -5.2641675,0.2399 0.2540835,0 -0.1482812,-0.2399 c -0.081555,-0.1319 -0.1958921,-0.2399 -0.2540835,-0.2399 -0.058191,0 -0.1058024,0.108 -0.1058024,0.2399 l 0,0.2399 0.2540836,0 z m -1.2137795,-0.4798 c 0.1319582,0 0.239924,-0.1016 0.239924,-0.2258 0,-0.1241 -0.1079658,-0.2925 -0.239924,-0.374 l -0.2399239,-0.1483 0,0.374 0,0.3741 0.2399239,0 z"
         id="path3722" />
      <path
         style="fill:#5f410b"
         d="m 8.7523964,1051.8823 -6.4779471,0 0,-1.7994 0,-1.7994 6.4779471,0 6.4779476,0 0,1.7994 0,1.7994 -6.4779476,0 z m 3.5388786,-0.2409 c 0.09897,-6e-4 0.62672,-0.2975 1.172782,-0.6598 0.546061,-0.3623 1.031907,-0.736 1.079658,-0.8305 l 0.08682,-0.1717 -1.147971,-0.728 c -0.631384,-0.4004 -1.198205,-0.728 -1.259601,-0.728 -0.0614,0 -0.11163,0.1619 -0.11163,0.3599 l 0,0.3599 -4.6785174,0 -4.6785173,0 0,0.8397 0,0.8397 4.6785173,0 4.6785174,0 0,0.3599 0,0.3599 0.179943,-10e-4 z m -7.86504,-0.9587 -0.4873778,0 -0.1442898,-0.376 -0.1442897,-0.376 0.2556546,-0.2557 0.2556546,-0.2556 0.3760131,0.1443 0.376013,0.1443 0,0.4873 0,0.4874 -0.487378,0 z m -0.112432,-0.2399 0.3998734,0 -0.099968,-0.2999 -0.099968,-0.2999 -0.2199301,0.06 c -0.1209618,0.033 -0.255919,0.1679 -0.2999051,0.2999 l -0.079975,0.2399 0.3998732,0 z m 1.0796579,0 -0.2325761,0.3599 -0.00367,-0.6892 -0.00367,-0.6892 0.3365543,0.2794 0.3365543,0.2793 0.1243524,-0.31 0.1243521,-0.3099 0.018941,0.6598 0.018941,0.6598 -0.239924,0 -0.2399239,0 -0.00367,-0.2999 -0.00367,-0.2999 -0.232576,0.3599 z m 1.4995248,0.2362 -0.5398289,0 0,-0.5998 0,-0.5998 0.5398289,0 0.5398289,0 -0.3270531,0.2072 -0.3270528,0.2073 0.3270528,0.13 0.3270531,0.1301 -0.3598859,0.023 -0.359886,0.023 0.359886,0.2326 0.3598859,0.2326 -0.5398289,0 z m 1.3957308,0 -0.2237562,0 -0.1580363,-0.4979 -0.1580364,-0.4979 0.1418684,-0.1419 0.1418685,-0.1419 0,0.3093 0,0.3093 0.359886,-0.2987 0.3598859,-0.2987 0,0.2835 0,0.2835 0.239924,-0.1483 0.2399239,-0.1483 0,0.494 0,0.494 -0.2199303,0 c -0.1209615,0 -0.2743867,-0.1349 -0.3409445,-0.2999 l -0.1210143,-0.2999 -0.018942,0.2999 -0.018941,0.2999 -0.223756,0 z m 1.66315,-0.1028 -0.4796982,0 0.00367,-0.2485 c 0.00202,-0.1367 0.1041159,-0.4073 0.2268785,-0.6014 0.1227626,-0.1942 0.2696455,-0.3021 0.3264072,-0.24 0.05676,0.062 0.17053,0.3328 0.252819,0.6015 l 0.149618,0.4884 -0.4796985,0 z m 1.2400615,-0.3179 -0.165906,0.4189 -0.297079,-0.4757 c -0.163393,-0.2616 -0.297079,-0.508 -0.297079,-0.5475 0,-0.04 0.215932,-0.072 0.479848,-0.072 0.263916,0 0.47226,0.058 0.462985,0.1285 -0.0093,0.071 -0.09152,0.3171 -0.182769,0.5476 z"
         id="path3720" />
      <path
         style="fill:#4f3609"
         d="m 8.7523964,1051.8823 -6.4779471,0 0,-1.7994 0,-1.7994 6.4779471,0 6.4779476,0 0,1.7994 0,1.7994 -6.4779476,0 z m 3.5388786,-0.2409 c 0.09897,-6e-4 0.62672,-0.2975 1.172782,-0.6598 0.546061,-0.3623 1.031907,-0.736 1.079658,-0.8305 l 0.08682,-0.1717 -1.147971,-0.728 c -0.631384,-0.4004 -1.198205,-0.728 -1.259601,-0.728 -0.0614,0 -0.11163,0.1619 -0.11163,0.3599 l 0,0.3599 -4.6785174,0 -4.6785173,0 0,0.8397 0,0.8397 4.6785173,0 4.6785174,0 0,0.3599 0,0.3599 0.179943,-10e-4 z m -7.86504,-0.9587 -0.4873778,0 -0.1442898,-0.376 -0.1442897,-0.376 0.2556546,-0.2557 0.2556546,-0.2556 0.3760131,0.1443 0.376013,0.1443 0,0.4873 0,0.4874 -0.487378,0 z m -0.1324255,-0.2399 0.3798795,0 0,-0.3799 0,-0.3799 -0.2849097,0.095 c -0.1567004,0.052 -0.3276462,0.2232 -0.3798796,0.3799 l -0.09497,0.2849 0.3798797,0 z m 1.0219623,0.05 -0.1243521,0.3099 -0.018942,-0.6892 -0.018941,-0.6892 0.3365543,0.2794 0.3365543,0.2793 0.1243524,-0.31 0.1243521,-0.3099 0.018941,0.6892 0.018941,0.6892 -0.3365543,-0.2793 -0.3365543,-0.2794 -0.1243524,0.31 z m 1.5772139,0.1621 -0.5398289,0.028 0,-0.5998 0,-0.5998 0.5398289,0.017 0.5398289,0.017 -0.4798479,0.2062 -0.479848,0.2062 0.479848,0.034 0.4798479,0.034 -0.4798479,0.1907 -0.479848,0.1907 0.479848,0.1245 0.4798479,0.1244 -0.5398289,0.028 z m 1.3875518,0.028 c -0.1055711,0 -0.2542405,-0.2382 -0.330376,-0.5293 -0.076136,-0.2912 -0.088728,-0.5791 -0.027983,-0.6398 0.060745,-0.061 0.1104459,0.029 0.1104459,0.1988 l 0,0.3093 0.359886,-0.2987 0.3598859,-0.2987 0,0.2835 0,0.2835 0.239924,-0.1483 0.2399239,-0.1483 0,0.494 0,0.494 -0.2399239,0 -0.239924,0 -0.018942,-0.2999 -0.018942,-0.2999 -0.1210143,0.2999 c -0.066557,0.165 -0.2073895,0.2999 -0.3129606,0.2999 z m 1.6714787,-0.1028 -0.4798479,0 0.00367,-0.2485 c 0.00202,-0.1367 0.098381,-0.398 0.2141352,-0.5808 l 0.2104613,-0.3323 0.2657132,0.4965 c 0.146143,0.273 0.265713,0.5344 0.265713,0.5808 0,0.046 -0.215931,0.084 -0.4798481,0.084 z m -0.1199619,-0.377 c 0.065979,0 0.1199619,-0.054 0.1199619,-0.12 0,-0.066 -0.053983,-0.12 -0.1199619,-0.12 -0.065979,0 -0.119962,0.054 -0.119962,0.12 0,0.066 0.053983,0.12 0.119962,0.12 z m 1.3805477,-0.038 -0.189267,0.5116 -0.295735,-0.4735 c -0.162655,-0.2605 -0.295736,-0.5422 -0.295736,-0.6262 0,-0.084 0.161949,-0.018 0.359886,0.1461 l 0.359886,0.2987 0,-0.3093 0,-0.3093 0.125116,0.1251 0.125117,0.1251 -0.189267,0.5117 z"
         id="path3718" />
      <path
         style="fill:#3d2906"
         d="m 8.7523964,1051.8823 -6.4779471,0 0,-1.7994 0,-1.7994 6.4779471,0 6.4779476,0 0,1.7994 0,1.7994 -6.4779476,0 z m 3.5178736,-0.2399 c 0.08742,0 0.681228,-0.3351 1.319582,-0.7448 0.638354,-0.4096 1.160644,-0.7762 1.160644,-0.8147 0,-0.039 -0.52229,-0.4051 -1.160644,-0.8147 -0.638354,-0.4097 -1.232166,-0.7448 -1.319582,-0.7448 -0.08742,0 -0.158938,0.1619 -0.158938,0.3599 l 0,0.3599 -4.6785174,0 -4.6785173,0 0,0.8397 0,0.8397 4.6785173,0 4.6785174,0 0,0.3599 c 0,0.198 0.07152,0.3599 0.158938,0.3599 z m -7.8056584,-0.9597 -0.4823753,0 -0.1349,-0.2183 -0.1349,-0.2182 0.1509294,-0.3933 0.1509293,-0.3934 0.3896779,0.074 0.3896781,0.074 0.076668,0.5373 0.076668,0.5374 -0.4823753,0 z m -0.1708021,-0.2399 0.3798795,0 0,-0.3799 0,-0.3799 -0.2849097,0.095 c -0.1567004,0.052 -0.3276462,0.2232 -0.3798796,0.3799 l -0.09497,0.2849 0.3798797,0 z m 1.1318091,-0.083 -0.2574902,0.443 -0.0073,-0.7078 -0.0073,-0.7078 0.2647861,0.2648 0.2647859,0.2648 -0.2574903,0.443 z m 0.5818118,0.323 c -0.058191,0 -0.1526471,-0.081 -0.2099018,-0.1799 -0.057255,-0.099 -0.017231,-0.3959 0.088939,-0.6598 l 0.1930385,-0.4799 0.016864,0.6598 c 0.00927,0.3629 -0.030749,0.6598 -0.08894,0.6598 z m 0.8855553,-0.028 -0.5398289,0.028 0,-0.5998 0,-0.5998 0.5398289,0.017 0.5398289,0.017 -0.4798479,0.2062 -0.479848,0.2062 0.479848,0.034 0.4798479,0.034 -0.4798479,0.1907 -0.479848,0.1907 0.479848,0.1245 0.4798479,0.1244 -0.5398289,0.028 z m 1.4995248,-0.2121 -0.359886,0.2987 0,-0.2235 c 0,-0.1229 0.1585149,-0.433 0.3522557,-0.6891 l 0.3522554,-0.4658 0.00763,0.3141 0.00763,0.3141 0.239924,-0.1483 0.2399239,-0.1483 0,0.494 0,0.494 -0.2399239,0 -0.239924,0 0,-0.2693 0,-0.2693 -0.3598859,0.2987 z m 1.5595057,0.1371 -0.4798479,0 0,-0.1885 c 0,-0.1037 0.1045774,-0.1885 0.232394,-0.1885 l 0.2323939,0 -0.1320181,-0.4199 -0.1320182,-0.4199 0.3794721,0.4658 c 0.20871,0.2561 0.379472,0.5299 0.379472,0.6083 0,0.078 -0.215931,0.1427 -0.4798478,0.1427 z m 1.2522118,-0.3923 -0.19764,0.5343 -0.300615,-0.6598 -0.300615,-0.6598 0.373139,0.3097 0.373139,0.3097 0,-0.3093 0,-0.3093 0.125116,0.1251 0.125117,0.1251 -0.197641,0.5343 z m -3.2515781,-0.3046 -0.1599493,0.1599 0,-0.3199 0,-0.3199 0.1599493,0.16 0.1599492,0.1599 -0.1599492,0.16 z"
         id="path3716" />
      <path
         style="fill:#010000"
         d="m 8.7523964,1051.8823 -6.4779471,0 0,-1.7994 0,-1.7994 6.4779471,0 6.4779476,0 0,1.7994 0,1.7994 -6.4779476,0 z m 3.6156126,-0.2399 c 0.141172,0 0.734983,-0.3291 1.319581,-0.7313 0.584598,-0.4022 1.062906,-0.7688 1.062906,-0.8147 0,-0.046 -0.52229,-0.4186 -1.160644,-0.8282 -0.638354,-0.4097 -1.232166,-0.7448 -1.319582,-0.7448 -0.08742,0 -0.158938,0.1619 -0.158938,0.3599 l 0,0.3599 -4.6785174,0 -4.6785173,0 0,0.9597 0,0.9597 4.6785173,0 4.6785174,0 0,0.2399 0,0.2399 0.256677,0 z m -8.2941299,-0.9597 c -0.065979,0 -0.119962,-0.054 -0.119962,-0.12 0,-0.066 0.053983,-0.1199 0.119962,-0.1199 0.065979,0 0.119962,0.054 0.119962,0.1199 0,0.066 -0.053983,0.12 -0.119962,0.12 z m 0.6402251,-0.1844 -0.2534919,0.2535 0.1485883,-0.5682 0.1485882,-0.5682 0.1049034,0.3147 0.1049037,0.3148 -0.2534917,0.2534 z m 0.6793567,-0.055 -0.2325761,0.3599 -0.00367,-0.5399 -0.00367,-0.5398 0.239924,0 c 0.1319582,0 0.2382706,0.081 0.23625,0.18 -0.00202,0.099 -0.1083331,0.3419 -0.23625,0.5398 z m 0.6139695,0.2399 c -0.058191,0 -0.1590331,-0.086 -0.2240931,-0.1914 l -0.1182906,-0.1914 0.2204191,-0.3484 0.2204191,-0.3484 0.00367,0.5398 c 0.00202,0.2969 -0.043937,0.5398 -0.1021284,0.5398 z m 0.5293433,-0.144 -0.176269,0.264 -0.00367,-0.5174 -0.00367,-0.5174 0.5336412,0.1396 0.5336411,0.1395 -0.3536981,0.1139 c -0.1945342,0.063 -0.4330193,0.2327 -0.5299673,0.3778 z m 1.6073713,0.144 c -0.061336,0 -0.1115205,-0.095 -0.1115205,-0.2105 0,-0.1158 0.1796249,-0.3588 0.3991663,-0.5399 l 0.3991663,-0.3292 -0.2876458,0.5398 c -0.1582051,0.2969 -0.33783,0.5398 -0.3991663,0.5398 z m 0.8481754,-0.12 -0.239924,0.1483 0,-0.2399 c 0,-0.132 0.1079658,-0.3066 0.239924,-0.3882 l 0.2399239,-0.1483 0,0.2399 c 0,0.132 -0.1079657,0.3067 -0.2399239,0.3882 z m 1.3337416,0.12 c -0.05819,0 -0.172529,-0.108 -0.254084,-0.2399 l -0.1482809,-0.2399 0.2540839,0 0.254083,0 0,0.2399 c 0,0.1319 -0.04761,0.2399 -0.105802,0.2399 z m -0.7339317,-0.2399 c -0.065979,0 -0.119962,-0.054 -0.119962,-0.12 0,-0.066 0.053983,-0.1199 0.119962,-0.1199 0.065979,0 0.119962,0.054 0.119962,0.1199 0,0.066 -0.053983,0.12 -0.119962,0.12 z m -5.7581752,-0.2399 c -0.065979,0 -0.119962,-0.054 -0.119962,-0.12 0,-0.066 0.053983,-0.12 0.119962,-0.12 0.065979,0 0.119962,0.054 0.119962,0.12 0,0.066 -0.053983,0.12 -0.119962,0.12 z m 7.0777569,0 -0.319898,0 0.159949,-0.16 0.159949,-0.1599 0.15995,0.1599 0.159949,0.16 -0.319899,0 z m -0.9596958,-0.24 -0.3198985,0 0.1599492,-0.1599 0.1599493,-0.16 0.1599498,0.16 0.159949,0.1599 -0.3198988,0 z M 4.313803,1049.723 c -0.065979,0 -0.1199619,-0.054 -0.1199619,-0.1199 0,-0.066 0.053983,-0.12 0.1199619,-0.12 0.065979,0 0.119962,0.054 0.119962,0.12 0,0.066 -0.053983,0.1199 -0.119962,0.1199 z"
         id="path3714" />
    </g>
  </g>
</svg>
