<?xml version="1.0" encoding="UTF-8" standalone="no"?>
<!-- Created with Inkscape (http://www.inkscape.org/) -->

<svg
   xmlns:dc="http://purl.org/dc/elements/1.1/"
   xmlns:cc="http://creativecommons.org/ns#"
   xmlns:rdf="http://www.w3.org/1999/02/22-rdf-syntax-ns#"
   xmlns:svg="http://www.w3.org/2000/svg"
   xmlns="http://www.w3.org/2000/svg"
   xmlns:sodipodi="http://sodipodi.sourceforge.net/DTD/sodipodi-0.dtd"
   xmlns:inkscape="http://www.inkscape.org/namespaces/inkscape"
   width="16"
   height="16"
   id="svg2"
   version="1.1"
   inkscape:version="0.47 r22583"
   sodipodi:docname="oneway-left-64.svg">
  <defs
     id="defs4">
    <inkscape:perspective
       sodipodi:type="inkscape:persp3d"
       inkscape:vp_x="0 : 526.18109 : 1"
       inkscape:vp_y="0 : 1000 : 0"
       inkscape:vp_z="744.09448 : 526.18109 : 1"
       inkscape:persp3d-origin="372.04724 : 350.78739 : 1"
       id="perspective10" />
    <inkscape:perspective
       id="perspective2824"
       inkscape:persp3d-origin="0.5 : 0.33333333 : 1"
       inkscape:vp_z="1 : 0.5 : 1"
       inkscape:vp_y="0 : 1000 : 0"
       inkscape:vp_x="0 : 0.5 : 1"
       sodipodi:type="inkscape:persp3d" />
    <inkscape:perspective
       id="perspective5878"
       inkscape:persp3d-origin="0.5 : 0.33333333 : 1"
       inkscape:vp_z="1 : 0.5 : 1"
       inkscape:vp_y="0 : 1000 : 0"
       inkscape:vp_x="0 : 0.5 : 1"
       sodipodi:type="inkscape:persp3d" />
    <inkscape:perspective
       id="perspective5921"
       inkscape:persp3d-origin="0.5 : 0.33333333 : 1"
       inkscape:vp_z="1 : 0.5 : 1"
       inkscape:vp_y="0 : 1000 : 0"
       inkscape:vp_x="0 : 0.5 : 1"
       sodipodi:type="inkscape:persp3d" />
    <inkscape:perspective
       id="perspective5943"
       inkscape:persp3d-origin="0.5 : 0.33333333 : 1"
       inkscape:vp_z="1 : 0.5 : 1"
       inkscape:vp_y="0 : 1000 : 0"
       inkscape:vp_x="0 : 0.5 : 1"
       sodipodi:type="inkscape:persp3d" />
    <inkscape:perspective
       id="perspective5989"
       inkscape:persp3d-origin="0.5 : 0.33333333 : 1"
       inkscape:vp_z="1 : 0.5 : 1"
       inkscape:vp_y="0 : 1000 : 0"
       inkscape:vp_x="0 : 0.5 : 1"
       sodipodi:type="inkscape:persp3d" />
    <inkscape:perspective
       id="perspective6011"
       inkscape:persp3d-origin="0.5 : 0.33333333 : 1"
       inkscape:vp_z="1 : 0.5 : 1"
       inkscape:vp_y="0 : 1000 : 0"
       inkscape:vp_x="0 : 0.5 : 1"
       sodipodi:type="inkscape:persp3d" />
    <inkscape:perspective
       id="perspective6033"
       inkscape:persp3d-origin="0.5 : 0.33333333 : 1"
       inkscape:vp_z="1 : 0.5 : 1"
       inkscape:vp_y="0 : 1000 : 0"
       inkscape:vp_x="0 : 0.5 : 1"
       sodipodi:type="inkscape:persp3d" />
    <inkscape:perspective
       id="perspective6245"
       inkscape:persp3d-origin="0.5 : 0.33333333 : 1"
       inkscape:vp_z="1 : 0.5 : 1"
       inkscape:vp_y="0 : 1000 : 0"
       inkscape:vp_x="0 : 0.5 : 1"
       sodipodi:type="inkscape:persp3d" />
    <inkscape:perspective
       id="perspective6269"
       inkscape:persp3d-origin="0.5 : 0.33333333 : 1"
       inkscape:vp_z="1 : 0.5 : 1"
       inkscape:vp_y="0 : 1000 : 0"
       inkscape:vp_x="0 : 0.5 : 1"
       sodipodi:type="inkscape:persp3d" />
    <inkscape:perspective
       id="perspective6364"
       inkscape:persp3d-origin="0.5 : 0.33333333 : 1"
       inkscape:vp_z="1 : 0.5 : 1"
       inkscape:vp_y="0 : 1000 : 0"
       inkscape:vp_x="0 : 0.5 : 1"
       sodipodi:type="inkscape:persp3d" />
    <inkscape:perspective
       id="perspective6396"
       inkscape:persp3d-origin="0.5 : 0.33333333 : 1"
       inkscape:vp_z="1 : 0.5 : 1"
       inkscape:vp_y="0 : 1000 : 0"
       inkscape:vp_x="0 : 0.5 : 1"
       sodipodi:type="inkscape:persp3d" />
    <inkscape:perspective
       id="perspective6438"
       inkscape:persp3d-origin="0.5 : 0.33333333 : 1"
       inkscape:vp_z="1 : 0.5 : 1"
       inkscape:vp_y="0 : 1000 : 0"
       inkscape:vp_x="0 : 0.5 : 1"
       sodipodi:type="inkscape:persp3d" />
    <inkscape:perspective
       id="perspective6460"
       inkscape:persp3d-origin="0.5 : 0.33333333 : 1"
       inkscape:vp_z="1 : 0.5 : 1"
       inkscape:vp_y="0 : 1000 : 0"
       inkscape:vp_x="0 : 0.5 : 1"
       sodipodi:type="inkscape:persp3d" />
    <inkscape:perspective
       id="perspective6480"
       inkscape:persp3d-origin="0.5 : 0.33333333 : 1"
       inkscape:vp_z="1 : 0.5 : 1"
       inkscape:vp_y="0 : 1000 : 0"
       inkscape:vp_x="0 : 0.5 : 1"
       sodipodi:type="inkscape:persp3d" />
    <inkscape:perspective
       id="perspective6504"
       inkscape:persp3d-origin="0.5 : 0.33333333 : 1"
       inkscape:vp_z="1 : 0.5 : 1"
       inkscape:vp_y="0 : 1000 : 0"
       inkscape:vp_x="0 : 0.5 : 1"
       sodipodi:type="inkscape:persp3d" />
    <inkscape:perspective
       id="perspective6524"
       inkscape:persp3d-origin="0.5 : 0.33333333 : 1"
       inkscape:vp_z="1 : 0.5 : 1"
       inkscape:vp_y="0 : 1000 : 0"
       inkscape:vp_x="0 : 0.5 : 1"
       sodipodi:type="inkscape:persp3d" />
    <inkscape:perspective
       id="perspective6548"
       inkscape:persp3d-origin="0.5 : 0.33333333 : 1"
       inkscape:vp_z="1 : 0.5 : 1"
       inkscape:vp_y="0 : 1000 : 0"
       inkscape:vp_x="0 : 0.5 : 1"
       sodipodi:type="inkscape:persp3d" />
    <inkscape:perspective
       id="perspective6572"
       inkscape:persp3d-origin="0.5 : 0.33333333 : 1"
       inkscape:vp_z="1 : 0.5 : 1"
       inkscape:vp_y="0 : 1000 : 0"
       inkscape:vp_x="0 : 0.5 : 1"
       sodipodi:type="inkscape:persp3d" />
    <inkscape:perspective
       id="perspective6594"
       inkscape:persp3d-origin="0.5 : 0.33333333 : 1"
       inkscape:vp_z="1 : 0.5 : 1"
       inkscape:vp_y="0 : 1000 : 0"
       inkscape:vp_x="0 : 0.5 : 1"
       sodipodi:type="inkscape:persp3d" />
    <inkscape:perspective
       id="perspective6614"
       inkscape:persp3d-origin="0.5 : 0.33333333 : 1"
       inkscape:vp_z="1 : 0.5 : 1"
       inkscape:vp_y="0 : 1000 : 0"
       inkscape:vp_x="0 : 0.5 : 1"
       sodipodi:type="inkscape:persp3d" />
    <inkscape:perspective
       id="perspective6650"
       inkscape:persp3d-origin="0.5 : 0.33333333 : 1"
       inkscape:vp_z="1 : 0.5 : 1"
       inkscape:vp_y="0 : 1000 : 0"
       inkscape:vp_x="0 : 0.5 : 1"
       sodipodi:type="inkscape:persp3d" />
    <inkscape:perspective
       id="perspective6676"
       inkscape:persp3d-origin="0.5 : 0.33333333 : 1"
       inkscape:vp_z="1 : 0.5 : 1"
       inkscape:vp_y="0 : 1000 : 0"
       inkscape:vp_x="0 : 0.5 : 1"
       sodipodi:type="inkscape:persp3d" />
    <inkscape:perspective
       id="perspective6710"
       inkscape:persp3d-origin="0.5 : 0.33333333 : 1"
       inkscape:vp_z="1 : 0.5 : 1"
       inkscape:vp_y="0 : 1000 : 0"
       inkscape:vp_x="0 : 0.5 : 1"
       sodipodi:type="inkscape:persp3d" />
    <inkscape:perspective
       id="perspective6748"
       inkscape:persp3d-origin="0.5 : 0.33333333 : 1"
       inkscape:vp_z="1 : 0.5 : 1"
       inkscape:vp_y="0 : 1000 : 0"
       inkscape:vp_x="0 : 0.5 : 1"
       sodipodi:type="inkscape:persp3d" />
    <inkscape:perspective
       id="perspective6786"
       inkscape:persp3d-origin="0.5 : 0.33333333 : 1"
       inkscape:vp_z="1 : 0.5 : 1"
       inkscape:vp_y="0 : 1000 : 0"
       inkscape:vp_x="0 : 0.5 : 1"
       sodipodi:type="inkscape:persp3d" />
    <inkscape:perspective
       id="perspective6810"
       inkscape:persp3d-origin="0.5 : 0.33333333 : 1"
       inkscape:vp_z="1 : 0.5 : 1"
       inkscape:vp_y="0 : 1000 : 0"
       inkscape:vp_x="0 : 0.5 : 1"
       sodipodi:type="inkscape:persp3d" />
    <inkscape:perspective
       id="perspective6848"
       inkscape:persp3d-origin="0.5 : 0.33333333 : 1"
       inkscape:vp_z="1 : 0.5 : 1"
       inkscape:vp_y="0 : 1000 : 0"
       inkscape:vp_x="0 : 0.5 : 1"
       sodipodi:type="inkscape:persp3d" />
    <inkscape:perspective
       id="perspective6870"
       inkscape:persp3d-origin="0.5 : 0.33333333 : 1"
       inkscape:vp_z="1 : 0.5 : 1"
       inkscape:vp_y="0 : 1000 : 0"
       inkscape:vp_x="0 : 0.5 : 1"
       sodipodi:type="inkscape:persp3d" />
    <inkscape:perspective
       id="perspective6908"
       inkscape:persp3d-origin="0.5 : 0.33333333 : 1"
       inkscape:vp_z="1 : 0.5 : 1"
       inkscape:vp_y="0 : 1000 : 0"
       inkscape:vp_x="0 : 0.5 : 1"
       sodipodi:type="inkscape:persp3d" />
    <inkscape:perspective
       id="perspective6946"
       inkscape:persp3d-origin="0.5 : 0.33333333 : 1"
       inkscape:vp_z="1 : 0.5 : 1"
       inkscape:vp_y="0 : 1000 : 0"
       inkscape:vp_x="0 : 0.5 : 1"
       sodipodi:type="inkscape:persp3d" />
    <inkscape:perspective
       id="perspective6970"
       inkscape:persp3d-origin="0.5 : 0.33333333 : 1"
       inkscape:vp_z="1 : 0.5 : 1"
       inkscape:vp_y="0 : 1000 : 0"
       inkscape:vp_x="0 : 0.5 : 1"
       sodipodi:type="inkscape:persp3d" />
    <inkscape:perspective
       id="perspective7008"
       inkscape:persp3d-origin="0.5 : 0.33333333 : 1"
       inkscape:vp_z="1 : 0.5 : 1"
       inkscape:vp_y="0 : 1000 : 0"
       inkscape:vp_x="0 : 0.5 : 1"
       sodipodi:type="inkscape:persp3d" />
    <inkscape:perspective
       id="perspective7036"
       inkscape:persp3d-origin="0.5 : 0.33333333 : 1"
       inkscape:vp_z="1 : 0.5 : 1"
       inkscape:vp_y="0 : 1000 : 0"
       inkscape:vp_x="0 : 0.5 : 1"
       sodipodi:type="inkscape:persp3d" />
    <inkscape:perspective
       id="perspective7060"
       inkscape:persp3d-origin="0.5 : 0.33333333 : 1"
       inkscape:vp_z="1 : 0.5 : 1"
       inkscape:vp_y="0 : 1000 : 0"
       inkscape:vp_x="0 : 0.5 : 1"
       sodipodi:type="inkscape:persp3d" />
    <inkscape:perspective
       id="perspective7098"
       inkscape:persp3d-origin="0.5 : 0.33333333 : 1"
       inkscape:vp_z="1 : 0.5 : 1"
       inkscape:vp_y="0 : 1000 : 0"
       inkscape:vp_x="0 : 0.5 : 1"
       sodipodi:type="inkscape:persp3d" />
    <inkscape:perspective
       id="perspective7136"
       inkscape:persp3d-origin="0.5 : 0.33333333 : 1"
       inkscape:vp_z="1 : 0.5 : 1"
       inkscape:vp_y="0 : 1000 : 0"
       inkscape:vp_x="0 : 0.5 : 1"
       sodipodi:type="inkscape:persp3d" />
    <inkscape:perspective
       id="perspective7174"
       inkscape:persp3d-origin="0.5 : 0.33333333 : 1"
       inkscape:vp_z="1 : 0.5 : 1"
       inkscape:vp_y="0 : 1000 : 0"
       inkscape:vp_x="0 : 0.5 : 1"
       sodipodi:type="inkscape:persp3d" />
    <inkscape:perspective
       id="perspective7212"
       inkscape:persp3d-origin="0.5 : 0.33333333 : 1"
       inkscape:vp_z="1 : 0.5 : 1"
       inkscape:vp_y="0 : 1000 : 0"
       inkscape:vp_x="0 : 0.5 : 1"
       sodipodi:type="inkscape:persp3d" />
    <inkscape:perspective
       id="perspective7234"
       inkscape:persp3d-origin="0.5 : 0.33333333 : 1"
       inkscape:vp_z="1 : 0.5 : 1"
       inkscape:vp_y="0 : 1000 : 0"
       inkscape:vp_x="0 : 0.5 : 1"
       sodipodi:type="inkscape:persp3d" />
    <inkscape:perspective
       id="perspective7272"
       inkscape:persp3d-origin="0.5 : 0.33333333 : 1"
       inkscape:vp_z="1 : 0.5 : 1"
       inkscape:vp_y="0 : 1000 : 0"
       inkscape:vp_x="0 : 0.5 : 1"
       sodipodi:type="inkscape:persp3d" />
    <inkscape:perspective
       id="perspective7294"
       inkscape:persp3d-origin="0.5 : 0.33333333 : 1"
       inkscape:vp_z="1 : 0.5 : 1"
       inkscape:vp_y="0 : 1000 : 0"
       inkscape:vp_x="0 : 0.5 : 1"
       sodipodi:type="inkscape:persp3d" />
    <inkscape:perspective
       id="perspective7330"
       inkscape:persp3d-origin="0.5 : 0.33333333 : 1"
       inkscape:vp_z="1 : 0.5 : 1"
       inkscape:vp_y="0 : 1000 : 0"
       inkscape:vp_x="0 : 0.5 : 1"
       sodipodi:type="inkscape:persp3d" />
    <inkscape:perspective
       id="perspective3068"
       inkscape:persp3d-origin="0.5 : 0.33333333 : 1"
       inkscape:vp_z="1 : 0.5 : 1"
       inkscape:vp_y="0 : 1000 : 0"
       inkscape:vp_x="0 : 0.5 : 1"
       sodipodi:type="inkscape:persp3d" />
    <inkscape:perspective
       id="perspective3106"
       inkscape:persp3d-origin="0.5 : 0.33333333 : 1"
       inkscape:vp_z="1 : 0.5 : 1"
       inkscape:vp_y="0 : 1000 : 0"
       inkscape:vp_x="0 : 0.5 : 1"
       sodipodi:type="inkscape:persp3d" />
    <inkscape:perspective
       id="perspective3128"
       inkscape:persp3d-origin="0.5 : 0.33333333 : 1"
       inkscape:vp_z="1 : 0.5 : 1"
       inkscape:vp_y="0 : 1000 : 0"
       inkscape:vp_x="0 : 0.5 : 1"
       sodipodi:type="inkscape:persp3d" />
    <inkscape:perspective
       id="perspective3152"
       inkscape:persp3d-origin="0.5 : 0.33333333 : 1"
       inkscape:vp_z="1 : 0.5 : 1"
       inkscape:vp_y="0 : 1000 : 0"
       inkscape:vp_x="0 : 0.5 : 1"
       sodipodi:type="inkscape:persp3d" />
    <inkscape:perspective
       id="perspective3174"
       inkscape:persp3d-origin="0.5 : 0.33333333 : 1"
       inkscape:vp_z="1 : 0.5 : 1"
       inkscape:vp_y="0 : 1000 : 0"
       inkscape:vp_x="0 : 0.5 : 1"
       sodipodi:type="inkscape:persp3d" />
    <inkscape:perspective
       id="perspective3212"
       inkscape:persp3d-origin="0.5 : 0.33333333 : 1"
       inkscape:vp_z="1 : 0.5 : 1"
       inkscape:vp_y="0 : 1000 : 0"
       inkscape:vp_x="0 : 0.5 : 1"
       sodipodi:type="inkscape:persp3d" />
    <inkscape:perspective
       id="perspective3238"
       inkscape:persp3d-origin="0.5 : 0.33333333 : 1"
       inkscape:vp_z="1 : 0.5 : 1"
       inkscape:vp_y="0 : 1000 : 0"
       inkscape:vp_x="0 : 0.5 : 1"
       sodipodi:type="inkscape:persp3d" />
    <inkscape:perspective
       id="perspective3276"
       inkscape:persp3d-origin="0.5 : 0.33333333 : 1"
       inkscape:vp_z="1 : 0.5 : 1"
       inkscape:vp_y="0 : 1000 : 0"
       inkscape:vp_x="0 : 0.5 : 1"
       sodipodi:type="inkscape:persp3d" />
    <inkscape:perspective
       id="perspective3314"
       inkscape:persp3d-origin="0.5 : 0.33333333 : 1"
       inkscape:vp_z="1 : 0.5 : 1"
       inkscape:vp_y="0 : 1000 : 0"
       inkscape:vp_x="0 : 0.5 : 1"
       sodipodi:type="inkscape:persp3d" />
    <inkscape:perspective
       id="perspective3350"
       inkscape:persp3d-origin="0.5 : 0.33333333 : 1"
       inkscape:vp_z="1 : 0.5 : 1"
       inkscape:vp_y="0 : 1000 : 0"
       inkscape:vp_x="0 : 0.5 : 1"
       sodipodi:type="inkscape:persp3d" />
    <inkscape:perspective
       id="perspective3376"
       inkscape:persp3d-origin="0.5 : 0.33333333 : 1"
       inkscape:vp_z="1 : 0.5 : 1"
       inkscape:vp_y="0 : 1000 : 0"
       inkscape:vp_x="0 : 0.5 : 1"
       sodipodi:type="inkscape:persp3d" />
    <inkscape:perspective
       id="perspective3402"
       inkscape:persp3d-origin="0.5 : 0.33333333 : 1"
       inkscape:vp_z="1 : 0.5 : 1"
       inkscape:vp_y="0 : 1000 : 0"
       inkscape:vp_x="0 : 0.5 : 1"
       sodipodi:type="inkscape:persp3d" />
    <inkscape:perspective
       id="perspective3428"
       inkscape:persp3d-origin="0.5 : 0.33333333 : 1"
       inkscape:vp_z="1 : 0.5 : 1"
       inkscape:vp_y="0 : 1000 : 0"
       inkscape:vp_x="0 : 0.5 : 1"
       sodipodi:type="inkscape:persp3d" />
    <inkscape:perspective
       id="perspective3466"
       inkscape:persp3d-origin="0.5 : 0.33333333 : 1"
       inkscape:vp_z="1 : 0.5 : 1"
       inkscape:vp_y="0 : 1000 : 0"
       inkscape:vp_x="0 : 0.5 : 1"
       sodipodi:type="inkscape:persp3d" />
    <inkscape:perspective
       id="perspective3504"
       inkscape:persp3d-origin="0.5 : 0.33333333 : 1"
       inkscape:vp_z="1 : 0.5 : 1"
       inkscape:vp_y="0 : 1000 : 0"
       inkscape:vp_x="0 : 0.5 : 1"
       sodipodi:type="inkscape:persp3d" />
    <inkscape:perspective
       id="perspective3542"
       inkscape:persp3d-origin="0.5 : 0.33333333 : 1"
       inkscape:vp_z="1 : 0.5 : 1"
       inkscape:vp_y="0 : 1000 : 0"
       inkscape:vp_x="0 : 0.5 : 1"
       sodipodi:type="inkscape:persp3d" />
    <inkscape:perspective
       id="perspective3566"
       inkscape:persp3d-origin="0.5 : 0.33333333 : 1"
       inkscape:vp_z="1 : 0.5 : 1"
       inkscape:vp_y="0 : 1000 : 0"
       inkscape:vp_x="0 : 0.5 : 1"
       sodipodi:type="inkscape:persp3d" />
    <inkscape:perspective
       id="perspective3590"
       inkscape:persp3d-origin="0.5 : 0.33333333 : 1"
       inkscape:vp_z="1 : 0.5 : 1"
       inkscape:vp_y="0 : 1000 : 0"
       inkscape:vp_x="0 : 0.5 : 1"
       sodipodi:type="inkscape:persp3d" />
    <inkscape:perspective
       id="perspective3610"
       inkscape:persp3d-origin="0.5 : 0.33333333 : 1"
       inkscape:vp_z="1 : 0.5 : 1"
       inkscape:vp_y="0 : 1000 : 0"
       inkscape:vp_x="0 : 0.5 : 1"
       sodipodi:type="inkscape:persp3d" />
    <inkscape:perspective
       id="perspective3648"
       inkscape:persp3d-origin="0.5 : 0.33333333 : 1"
       inkscape:vp_z="1 : 0.5 : 1"
       inkscape:vp_y="0 : 1000 : 0"
       inkscape:vp_x="0 : 0.5 : 1"
       sodipodi:type="inkscape:persp3d" />
    <inkscape:perspective
       id="perspective3668"
       inkscape:persp3d-origin="0.5 : 0.33333333 : 1"
       inkscape:vp_z="1 : 0.5 : 1"
       inkscape:vp_y="0 : 1000 : 0"
       inkscape:vp_x="0 : 0.5 : 1"
       sodipodi:type="inkscape:persp3d" />
  </defs>
  <sodipodi:namedview
     id="base"
     pagecolor="#ffffff"
     bordercolor="#666666"
     borderopacity="1.0"
     inkscape:pageopacity="0.0"
     inkscape:pageshadow="2"
     inkscape:zoom="11.313709"
     inkscape:cx="11.966503"
     inkscape:cy="14.926085"
     inkscape:document-units="px"
     inkscape:current-layer="layer1"
     showgrid="true"
     inkscape:window-width="1280"
     inkscape:window-height="780"
     inkscape:window-x="-8"
     inkscape:window-y="-8"
     inkscape:window-maximized="1">
    <inkscape:grid
       type="xygrid"
       id="grid6324"
       empspacing="5"
       visible="true"
       enabled="true"
       snapvisiblegridlinesonly="true" />
  </sodipodi:namedview>
  <metadata
     id="metadata7">
    <rdf:RDF>
      <cc:Work
         rdf:about="">
        <dc:format>image/svg+xml</dc:format>
        <dc:type
           rdf:resource="http://purl.org/dc/dcmitype/StillImage" />
        <dc:title></dc:title>
      </cc:Work>
    </rdf:RDF>
  </metadata>
  <g
     inkscape:label="Calque 1"
     inkscape:groupmode="layer"
     id="layer1"
     transform="translate(0,-1036.3622)">
    <g
       id="g3674"
       transform="translate(0.574515,0.3636)">
      <path
         style="fill:#fcae1d"
         d="m 8.1382283,1046.9048 -6.1755944,0 0,-1.7155 0,-1.7154 6.1755944,0 6.1755947,0 0,1.7154 0,1.7155 -6.1755947,0 z"
         id="path3696" />
      <path
         style="fill:#d79419"
         d="m 8.1382283,1046.9048 -6.1755944,0 0,-1.7155 0,-1.7154 6.1755944,0 6.1755947,0 0,1.7154 0,1.7155 -6.1755947,0 z m -3.2425704,-0.5672 0.073952,-0.3477 0.383499,0 0.3834989,0 -0.3172222,-0.2009 -0.317222,-0.2009 0.1139601,-0.5962 0.1139598,-0.5961 -0.3248694,0 -0.3248695,0 0.1413603,-0.2287 0.1413603,-0.2287 -0.2471283,0 c -0.1359207,0 -0.660785,0.2737 -1.1663649,0.6083 l -0.9192365,0.6083 0.1807819,0.1602 c 0.09943,0.088 0.5924881,0.434 1.0956846,0.7687 l 0.9149029,0.6085 0.073952,-0.3478 z m 4.8055294,-0.3477 3.9264587,0 0,-0.8006 0,-0.8005 -0.438281,0 -0.43828,0 -0.290642,0.6566 -0.290643,0.6566 -1.558334,-10e-4 -1.5583348,0 -0.027086,-0.484 c -0.014897,-0.2662 -0.014897,-0.5612 0,-0.6556 0.014897,-0.094 -0.075841,-0.1715 -0.2016397,-0.1715 l -0.2287258,0 0,0.4575 0,0.4574 -0.2859071,0.016 -0.2859072,0.016 0.4574515,0.1978 0.4574514,0.1979 -1.4375773,-0.015 -1.437577,-0.015 -0.1444423,0.1444 -0.1444424,0.1445 3.926458,0 z m -3.9226961,-0.6433 0.120131,-0.3002 -0.1381883,-0.1382 -0.1381885,-0.1382 0.018057,0.4384 0.018058,0.4384 0.1201311,-0.3002 z m 5.9431068,0.1096 0.152484,-0.1525 -0.152484,-0.1525 -0.152484,-0.1525 0,0.305 0,0.305 0.152484,-0.1525 z m -4.5991367,-0.6099 c 0.055475,0 0.1008641,-0.103 0.1008641,-0.2288 l 0,-0.2287 -0.2422244,0 -0.2422244,0 0.1413603,0.2287 c 0.077748,0.1258 0.186749,0.2288 0.2422244,0.2288 z m -0.8140387,-0.2288 0.3049675,0 -0.1524836,-0.1525 -0.1524839,-0.1524 -0.1524839,0.1524 -0.1524837,0.1525 0.3049676,0 z m 1.2579914,0 c 0.0629,0 0.1143629,-0.051 0.1143629,-0.1143 0,-0.063 -0.051463,-0.1144 -0.1143629,-0.1144 -0.0629,0 -0.1143629,0.052 -0.1143629,0.1144 0,0.063 0.051463,0.1143 0.1143629,0.1143 z m 1.8298057,0 c 0.0629,0 0.1143629,-0.051 0.1143629,-0.1143 0,-0.063 -0.051463,-0.1144 -0.1143629,-0.1144 -0.0629,0 -0.1143628,0.052 -0.1143628,0.1144 0,0.063 0.051463,0.1143 0.1143628,0.1143 z m 0.6861773,0 c 0.0629,0 0.114363,-0.051 0.114363,-0.1143 0,-0.063 -0.05146,-0.1144 -0.114363,-0.1144 -0.0629,0 -0.114363,0.052 -0.114363,0.1144 0,0.063 0.051463,0.1143 0.114363,0.1143 z m 0.686177,0 c 0.0629,0 0.114363,-0.051 0.114363,-0.1143 0,-0.063 -0.05146,-0.1144 -0.114363,-0.1144 -0.0629,0 -0.114363,0.052 -0.114363,0.1144 0,0.063 0.05146,0.1143 0.114363,0.1143 z m 1.257991,0 0.304968,0 -0.152484,-0.1525 -0.152484,-0.1524 -0.152483,0.1524 -0.152484,0.1525 0.304967,0 z"
         id="path3694" />
      <path
         style="fill:#be8316"
         d="m 8.1382283,1046.9048 -6.1755944,0 0,-1.7155 0,-1.7154 6.1755944,0 6.1755947,0 0,1.7154 0,1.7155 -6.1755947,0 z m -3.3737043,-0.2389 0.1715443,0.01 0,-0.3431 0,-0.3431 0.40027,-0.018 0.40027,-0.018 -0.2859072,-0.1154 -0.2859071,-0.1154 0,-0.5337 0,-0.5336 0.2859071,-0.1154 0.2859072,-0.1154 -0.3812096,-0.018 -0.3812094,-0.018 -0.095995,-0.2859 -0.095995,-0.2859 -0.5520609,0.2962 c -0.3036333,0.1629 -0.7972244,0.4824 -1.096869,0.7099 l -0.5448084,0.4137 1.0022598,0.7095 c 0.551243,0.3901 1.0794548,0.714 1.1738042,0.7196 z m 4.9176029,-0.7025 3.9455191,0.026 0,-0.8006 0,-0.8005 -0.972085,0.031 -0.972084,0.031 0.487296,0.095 0.487297,0.096 -0.254656,0.5396 -0.254655,0.5396 -1.490633,-0.037 -1.490632,-0.037 -0.072374,-0.629 -0.072374,-0.629 -0.2135331,0 -0.2135333,0 0,0.4575 0,0.4574 -0.2859071,0.016 -0.2859072,0.016 0.4574515,0.1965 0.4574514,0.1966 -0.9720843,0.016 -0.9720843,0.016 -0.0035,-0.2859 -0.0035,-0.286 -0.1680418,0.2595 c -0.092423,0.1427 -0.373895,0.3109 -0.6254933,0.3737 l -0.4574514,0.1143 3.9455186,0.027 z m -3.8274248,-0.5476 0.2324567,-0.1437 -0.1315925,-0.2129 c -0.072376,-0.1171 -0.1769814,-0.2129 -0.2324567,-0.2129 -0.055475,0 -0.1008642,0.1604 -0.1008642,0.3565 l 0,0.3566 0.2324567,-0.1436 z m 5.8405869,0.067 c 0.04642,-0.046 0.02502,-0.3115 -0.04756,-0.589 l -0.131967,-0.5047 -0.831045,0.016 -0.8310448,0.016 0.4574518,0.181 0.457451,0.181 0.265244,-0.099 0.265243,-0.099 0.155911,0.4913 c 0.08575,0.2702 0.193893,0.4532 0.240317,0.4068 z m -1.155441,-0.1788 c 0.0629,0 0.114363,-0.052 0.114363,-0.1144 0,-0.063 -0.05146,-0.1143 -0.114363,-0.1143 -0.0629,0 -0.114363,0.051 -0.114363,0.1143 0,0.063 0.05146,0.1144 0.114363,0.1144 z m -3.4064143,-0.2287 c 0.04944,0 0.089892,-0.1544 0.089892,-0.3431 l 0,-0.3431 -0.2215471,0 -0.2215472,0 0.1316555,0.3431 c 0.07241,0.1887 0.1721067,0.3431 0.2215471,0.3431 z m -0.9203136,-0.4755 0.438391,-0.018 -0.3002025,-0.1201 -0.3002025,-0.1201 -0.1381885,0.1381 -0.1381883,0.1382 0.4383908,-0.018 z m 1.3532939,0.018 c 0.0629,0 0.1143629,-0.051 0.1143629,-0.1143 0,-0.063 -0.051463,-0.1144 -0.1143629,-0.1144 -0.0629,0 -0.1143629,0.052 -0.1143629,0.1144 0,0.063 0.051463,0.1143 0.1143629,0.1143 z m 1.9441686,0 0.3049675,0 -0.1524836,-0.1525 -0.1524839,-0.1524 -0.1524839,0.1524 -0.1524836,0.1525 0.3049675,0 z"
         id="path3692" />
      <path
         style="fill:#ae7814"
         d="m 8.1382283,1046.9048 -6.1755944,0 0,-1.7155 0,-1.7154 6.1755944,0 6.1755947,0 0,1.7154 0,1.7155 -6.1755947,0 z m -3.3737043,-0.2389 0.1715443,0.01 0,-0.3431 0,-0.3431 4.3457886,0 4.3457891,0 0,-0.8006 0,-0.8005 -4.3267287,0 -4.326728,0 -0.095995,-0.2859 -0.095995,-0.2859 -0.5520609,0.2962 c -0.3036333,0.1629 -0.7972244,0.4824 -1.096869,0.7099 l -0.5448084,0.4137 1.0022598,0.7095 c 0.551243,0.3901 1.0794548,0.714 1.1738042,0.7196 z m 1.1436286,-0.9397 -0.7433586,0.069 0,-0.5874 0,-0.5874 0.9149029,0.036 0.9149028,0.036 0.0035,0.2484 0.0035,0.2484 0.2217207,-0.343 0.2217208,-0.3431 0.0035,0.629 0.0035,0.629 -0.2287257,0 -0.2287257,0 -0.0035,-0.2859 -0.0035,-0.286 -0.1680418,0.2337 -0.1680419,0.2337 -0.7433585,0.07 z m -0.037646,-0.3202 0.2166522,-0.1339 -0.1338983,-0.2167 -0.1338986,-0.2166 -0.2166519,0.1339 -0.2166522,0.1339 0.1338983,0.2166 0.1338985,0.2167 0.216652,-0.1339 z m 2.3249031,0.3391 -0.5146328,0.016 0,-0.5719 0,-0.5718 0.5146328,0 0.5146329,0 -0.3117882,0.1976 -0.3117879,0.1975 0.3117879,0.124 0.3117882,0.124 -0.4574514,0.034 -0.4574515,0.034 0.4574515,0.1965 0.4574514,0.1966 -0.5146329,0.016 z m 1.3532939,0.016 c -0.1048327,0 -0.2592226,-0.069 -0.3430885,-0.1525 -0.083866,-0.084 -0.1524839,-0.3197 -0.1524839,-0.5241 l 0,-0.3715 1.1232628,-0.015 1.123263,-0.015 0.250297,0.482 0.250297,0.4819 -0.121908,-0.486 -0.121907,-0.4861 0.543141,0 0.543141,0 -0.246233,0.5218 -0.246232,0.5217 -1.033928,-0.012 -1.033928,-0.012 -0.1680419,-0.2521 -0.1680418,-0.2522 -0.0035,0.286 c -0.00193,0.1572 -0.089275,0.2859 -0.1941072,0.2859 z m 0.9911444,-0.4575 c 0.0629,0 0.114363,-0.052 0.114363,-0.1144 0,-0.063 -0.05146,-0.1143 -0.114363,-0.1143 -0.0629,0 -0.114363,0.051 -0.114363,0.1143 0,0.063 0.05146,0.1144 0.114363,0.1144 z"
         id="path3690" />
      <path
         style="fill:#976811"
         d="m 8.1382283,1046.9048 -6.1755944,0 0,-1.7155 0,-1.7154 6.1755944,0 6.1755947,0 0,1.7154 0,1.7155 -6.1755947,0 z m -3.3737043,-0.2389 0.1715443,0.01 0,-0.3431 0,-0.3431 4.3457886,0 4.3457891,0 0,-0.8006 0,-0.8005 -4.3267287,0 -4.326728,0 -0.1010037,-0.2859 -0.1010034,-0.2859 -0.8363695,0.4381 c -0.460003,0.241 -0.9427919,0.5664 -1.0728641,0.7231 l -0.236495,0.285 0.9832631,0.6962 c 0.5407947,0.383 1.0604579,0.7009 1.1548073,0.7065 z m 1.3061679,-0.951 -0.580819,0.066 -0.1625396,-0.1626 c -0.089397,-0.089 -0.1625393,-0.3505 -0.1625393,-0.5802 l 0,-0.4177 0.9149029,0.036 0.9149028,0.036 0.0035,0.2484 0.0035,0.2484 0.2217207,-0.343 0.2217208,-0.3431 0.0035,0.629 0.0035,0.629 -0.2287257,0 -0.2287257,0 -0.0035,-0.2859 -0.0035,-0.286 -0.1680418,0.2296 -0.1680419,0.2296 -0.5808192,0.066 z m -0.2001853,-0.3089 0.2166522,-0.1339 -0.1338983,-0.2167 -0.1338986,-0.2166 -0.2166519,0.1339 -0.2166522,0.1339 0.1338983,0.2166 0.1338985,0.2167 0.216652,-0.1339 z m 2.3249031,0.3391 -0.5146328,0.016 0,-0.5719 0,-0.5718 0.5146328,0 0.5146329,0 -0.3117882,0.1976 -0.3117879,0.1975 0.3117879,0.124 0.3117882,0.124 -0.4574514,0.034 -0.4574515,0.034 0.4574515,0.1965 0.4574514,0.1966 -0.5146329,0.016 z m 1.3532939,0.016 c -0.1048327,0 -0.2592226,-0.069 -0.3430885,-0.1525 -0.083866,-0.084 -0.1524839,-0.3197 -0.1524839,-0.5241 l 0,-0.3715 1.1232628,-0.015 1.123263,-0.015 0.250297,0.482 0.250297,0.4819 -0.126737,-0.5013 -0.126737,-0.5012 0.47425,0.036 0.474251,0.036 -0.119993,0.3127 c -0.066,0.172 -0.119994,0.3979 -0.119994,0.5021 l 0,0.1893 -1.086447,-0.013 -1.086447,-0.013 -0.1680419,-0.2521 -0.1680418,-0.2522 -0.0035,0.286 c -0.00193,0.1572 -0.089275,0.2859 -0.1941072,0.2859 z m 1.0292654,-0.305 0.152484,-0.1525 -0.152484,-0.1525 -0.152484,-0.1525 0,0.305 0,0.305 0.152484,-0.1525 z"
         id="path3688" />
      <path
         style="fill:#7c550e"
         d="m 8.1382283,1046.9048 -6.1755944,0 0,-1.7155 0,-1.7154 6.1755944,0 6.1755947,0 0,1.7154 0,1.7155 -6.1755947,0 z m -3.3737043,-0.2314 0.1715443,0 0,-0.3431 0,-0.3431 4.3457886,0 4.3457891,0 0,-0.8006 0,-0.8005 -4.3457891,0 -4.3457886,0 0,-0.3431 c 0,-0.1887 -0.055524,-0.3431 -0.1233861,-0.3431 -0.067863,0 -0.6371484,0.346 -1.26508,0.7689 l -1.141694,0.7689 1.0935358,0.7151 c 0.6014447,0.3934 1.1707306,0.7164 1.26508,0.7179 z m 1.0602082,-0.9122 -0.4455696,0 -0.1274524,-0.3322 -0.1274524,-0.3321 0.1481297,-0.2397 0.1481296,-0.2397 0.4439527,0 0.4439528,0 0.0035,0.2859 0.0035,0.2859 0.2426364,-0.343 0.2426364,-0.3431 0.1246372,0.3118 0.1246372,0.3117 0.1975371,-0.3117 0.1975358,-0.3118 0.0035,0.629 0.0035,0.629 -0.2287257,0 -0.2287257,0 -0.0035,-0.2859 -0.0035,-0.286 -0.2217208,0.3431 -0.2217208,0.3431 -0.02156,-0.3431 -0.02156,-0.3431 -0.115366,0.286 -0.1153661,0.2859 -0.4455693,0 z m 0.06436,-0.2288 0.1906047,0 0,-0.3431 0,-0.343 -0.2152271,0 c -0.1183749,0 -0.2699665,0.089 -0.3368704,0.1968 l -0.1216432,0.1968 0.1462655,0.1463 c 0.080446,0.08 0.2320377,0.1462 0.3368705,0.1462 z m 2.3063175,0.2022 -0.5146328,0.027 0,-0.5719 0,-0.5718 0.5146328,0.016 0.5146329,0.016 -0.4574514,0.1966 -0.4574515,0.1965 0.4574515,0.032 0.4574514,0.032 -0.4574514,0.1819 -0.4574515,0.1818 0.4574515,0.1186 0.4574514,0.1187 -0.5146329,0.026 z m 1.339644,0.027 c -0.11234,0 -0.2667298,-0.1628 -0.3430885,-0.3618 -0.076359,-0.199 -0.138834,-0.4346 -0.138834,-0.5236 l 0,-0.1617 0.7718804,-0.021 0.7718804,-0.021 -0.09215,0.4869 -0.09215,0.4869 0.227807,-0.5146 c 0.125294,-0.2831 0.323038,-0.5147 0.439432,-0.5147 0.116394,0 0.2741,0.1628 0.350459,0.3618 0.07636,0.199 0.13863,0.4306 0.13838,0.5147 l -4.55e-4,0.1528 -0.732813,0.052 -0.732812,0.052 -0.1781335,-0.2804 -0.1781332,-0.2804 -0.0035,0.286 -0.0035,0.2859 -0.2042546,0 z m 2.4915113,0 c -0.125799,0 -0.228725,-0.094 -0.228725,-0.2101 0,-0.1155 -0.05401,-0.3507 -0.120026,-0.5228 l -0.120026,-0.3127 0.468777,0 0.468778,0 -0.120026,0.3127 c -0.06601,0.1721 -0.120026,0.4073 -0.120026,0.5228 0,0.1156 -0.102926,0.2101 -0.228726,0.2101 z"
         id="path3686" />
      <path
         style="fill:#5f410b"
         d="m 8.1382283,1046.9048 -6.1755944,0 0,-1.7155 0,-1.7154 6.1755944,0 6.1755947,0 0,1.7154 0,1.7155 -6.1755947,0 z m -3.3737043,-0.2297 0.1715443,10e-4 0,-0.3431 0,-0.3431 4.4601514,0 4.4601513,0 0,-0.8006 0,-0.8005 -4.4601513,0 -4.4601514,0 0,-0.3431 c 0,-0.1887 -0.047889,-0.3431 -0.1064197,-0.3431 -0.058531,0 -0.5988952,0.3123 -1.20081,0.6941 l -1.0943904,0.694 0.082767,0.1637 c 0.045522,0.09 0.5086913,0.4463 1.0292658,0.7917 0.5205744,0.3454 1.0236939,0.6284 1.1180433,0.629 z m 1.028574,-0.9566 -0.4009616,0.077 -0.1339393,-0.3491 -0.1339393,-0.349 0.1481297,-0.2397 0.1481296,-0.2397 0.4598608,0 0.4598609,0 -0.07309,0.5123 -0.07309,0.5123 -0.4009617,0.076 z m 0.095994,-0.1861 0.1906047,0 0,-0.3431 0,-0.343 -0.2152271,0 c -0.1183749,0 -0.2699665,0.089 -0.3368704,0.1968 l -0.1216432,0.1968 0.1462655,0.1463 c 0.080446,0.08 0.2320377,0.1462 0.3368705,0.1462 z m 0.8027188,0.048 -0.1185481,0.2954 -0.018057,-0.657 -0.018057,-0.657 0.3208459,0.2663 0.3208459,0.2663 0.1185483,-0.2955 0.1185481,-0.2954 0.018057,0.657 0.018057,0.657 -0.3208459,-0.2663 -0.3208459,-0.2663 -0.1185483,0.2955 z m 1.5035987,0.1545 -0.5146328,0.027 0,-0.5719 0,-0.5718 0.5146328,0.016 0.5146329,0.016 -0.4574514,0.1966 -0.4574515,0.1965 0.4574515,0.032 0.4574514,0.032 -0.4574514,0.1819 -0.4574515,0.1818 0.4574515,0.1186 0.4574514,0.1187 -0.5146329,0.026 z m 1.466321,-0.3282 -0.3063035,0.4189 -0.1511479,-0.3938 c -0.083132,-0.2167 -0.149572,-0.5142 -0.1476457,-0.6611 l 0.0035,-0.2672 0.2217208,0.3431 0.2217207,0.343 0.0035,-0.2859 0.0035,-0.2859 0.2287257,0 c 0.1257992,0 0.2287257,0.083 0.2287257,0.185 0,0.1018 -0.1378365,0.3736 -0.3063033,0.6039 z m 1.1063845,0.2974 -0.8000812,0.057 0,-0.2099 c 0,-0.1154 0.062475,-0.3727 0.1388342,-0.5717 0.07636,-0.199 0.221113,-0.3618 0.321675,-0.3618 l 0.182842,0 -0.108687,0.5147 -0.108687,0.5146 0.278196,-0.4575 c 0.153007,-0.2516 0.320075,-0.5059 0.371262,-0.5651 0.05119,-0.059 0.188821,0.044 0.305853,0.2287 0.117033,0.185 0.214157,0.4394 0.215831,0.5652 l 0.003,0.2287 -0.800081,0.057 z m 1.517687,-0.3212 -0.166062,0.4219 -0.248078,-0.5445 -0.248077,-0.5444 0.430216,0 c 0.236619,0 0.422982,0.055 0.41414,0.1225 -0.0088,0.067 -0.0908,0.3124 -0.182139,0.5445 z"
         id="path3684" />
      <path
         style="fill:#4f3609"
         d="m 8.1382283,1046.9048 -6.1755944,0 0,-1.7155 0,-1.7154 6.1755944,0 6.1755947,0 0,1.7154 0,1.7155 -6.1755947,0 z m -3.3737043,-0.2297 0.1715443,10e-4 0,-0.3431 0,-0.3431 4.4601514,0 4.4601513,0 0,-0.8006 0,-0.8005 -4.4601513,0 -4.4601514,0 0,-0.3431 c 0,-0.1887 -0.047889,-0.3431 -0.1064197,-0.3431 -0.058531,0 -0.5988952,0.3123 -1.20081,0.6941 l -1.0943904,0.694 0.082767,0.1637 c 0.045522,0.09 0.5086913,0.4463 1.0292658,0.7917 0.5205744,0.3454 1.0236939,0.6284 1.1180433,0.629 z m 1.0259474,-0.9568 -0.398335,0.077 -0.1440421,-0.3754 -0.1440419,-0.3754 0.2437222,-0.2437 0.2437221,-0.2437 0.3753672,0.144 0.3753673,0.1441 -0.076712,0.3983 -0.076712,0.3983 -0.3983352,0.077 z m 0.098621,-0.1859 0.1906047,0 0,-0.3431 0,-0.343 -0.3430886,0 -0.3430886,0 0,0.1906 c 0,0.1048 0.068618,0.2592 0.1524839,0.3431 0.083866,0.084 0.2382558,0.1524 0.3430886,0.1524 z m 0.8027188,0.048 -0.1185481,0.2954 -0.018057,-0.657 -0.018057,-0.657 0.3208459,0.2663 0.3208459,0.2663 0.1185483,-0.2955 0.1185481,-0.2954 0.018057,0.657 0.018057,0.657 -0.3208459,-0.2663 -0.3208459,-0.2663 -0.1185483,0.2955 z m 1.5035987,0.1545 -0.5146328,0.027 0,-0.5719 0,-0.5718 0.5146328,0.016 0.5146329,0.016 -0.4574514,0.1966 -0.4574515,0.1965 0.4574515,0.032 0.4574514,0.032 -0.4574514,0.1819 -0.4574515,0.1818 0.4574515,0.1186 0.4574514,0.1187 -0.5146329,0.026 z m 1.4650564,-0.3264 -0.3075682,0.4206 -0.1408113,-0.5385 c -0.077446,-0.2961 -0.09343,-0.5858 -0.035521,-0.6437 0.05791,-0.058 0.1052909,0.027 0.1052909,0.1895 l 0,0.2949 0.3430886,-0.2847 0.3430885,-0.2848 0,0.213 c 0,0.1172 -0.1384056,0.4023 -0.3075679,0.6337 z m 1.1100927,0.2956 -0.8025248,0.057 0,-0.2099 c 0,-0.1154 0.062475,-0.3727 0.1388338,-0.5717 0.07636,-0.199 0.221113,-0.3618 0.321675,-0.3618 l 0.182842,0 -0.09549,0.5147 -0.09549,0.5146 0.136435,-0.2873 0.136434,-0.2874 0.206571,0.1277 0.20657,0.1277 -0.136214,-0.355 -0.136214,-0.355 0.253196,0 0.253197,0 0,0.2101 c 0,0.1155 0.05236,0.347 0.116349,0.5146 l 0.116347,0.3046 -0.802525,0.057 z m 1.515243,-0.3212 -0.166062,0.4219 -0.248078,-0.5445 -0.248077,-0.5444 0.430216,0 c 0.236619,0 0.422982,0.055 0.41414,0.1225 -0.0088,0.067 -0.0908,0.3124 -0.182139,0.5445 z"
         id="path3682" />
      <path
         style="fill:#3d2906"
         d="m 8.1382283,1046.9048 -6.1755944,0 0,-1.7155 0,-1.7154 6.1755944,0 6.1755947,0 0,1.7154 0,1.7155 -6.1755947,0 z m -3.3737043,-0.2297 0.1715443,10e-4 0,-0.3431 0,-0.3431 4.4601514,0 4.4601513,0 0,-0.8006 0,-0.8005 -4.4601513,0 -4.4601514,0 0,-0.3431 0,-0.3431 -0.1715443,10e-4 c -0.094349,5e-4 -0.6347139,0.3083 -1.20081,0.6838 l -1.0292658,0.6828 0.082767,0.1739 c 0.045522,0.096 0.5086913,0.4566 1.0292658,0.802 0.5205744,0.3454 1.0236939,0.6284 1.1180433,0.629 z m 1.0259474,-0.9568 -0.398335,0.077 -0.1440421,-0.3754 -0.1440419,-0.3754 0.2437222,-0.2437 0.2437221,-0.2437 0.3753672,0.144 0.3753673,0.1441 -0.076712,0.3983 -0.076712,0.3983 -0.3983352,0.077 z m -0.053863,-0.1859 0.3430886,0 0,-0.3431 0,-0.343 -0.3430886,0 -0.3430886,0 0,0.343 0,0.3431 0.3430886,0 z m 0.9552027,0.048 -0.1185481,0.2954 -0.018057,-0.657 -0.018057,-0.657 0.3208459,0.2663 0.3208459,0.2663 0.1185483,-0.2955 0.1185481,-0.2954 0.018057,0.657 0.018057,0.657 -0.3208459,-0.2663 -0.3208459,-0.2663 -0.1185483,0.2955 z m 1.5035987,0.1545 -0.5146328,0.027 0,-0.5719 0,-0.5718 0.5146328,0.016 0.5146329,0.016 -0.4574514,0.1966 -0.4574515,0.1965 0.4574515,0.032 0.4574514,0.032 -0.4574514,0.1819 -0.4574515,0.1818 0.4574515,0.1186 0.4574514,0.1187 -0.5146329,0.026 z m 1.4650564,-0.3264 -0.3075682,0.4206 -0.1408113,-0.5385 c -0.077446,-0.2961 -0.09343,-0.5858 -0.035521,-0.6437 0.05791,-0.058 0.1052909,0.027 0.1052909,0.1895 l 0,0.2949 0.3430886,-0.2847 0.3430885,-0.2848 0,0.213 c 0,0.1172 -0.1384056,0.4023 -0.3075679,0.6337 z m 0.5362938,0.2386 -0.2287259,0.1414 0,-0.3431 c 0,-0.1887 0.1029269,-0.4067 0.2287259,-0.4845 l 0.228725,-0.1413 0,0.343 c 0,0.1887 -0.102926,0.4067 -0.228725,0.4845 z m 1.306101,0.01 c -0.02646,0.014 -0.228231,-0.015 -0.44838,-0.064 l -0.40027,-0.089 0,-0.2255 0,-0.2254 0.226106,0.1397 0.226106,0.1398 -0.136214,-0.355 -0.136214,-0.355 0.22652,0 0.22652,0 0.131968,0.5047 c 0.07258,0.2775 0.110318,0.5159 0.08386,0.5297 z m 0.648117,0.1093 c -0.02804,0 -0.158177,-0.2353 -0.289189,-0.5228 l -0.238204,-0.5228 0.389129,0 0.389129,0 -0.09994,0.5228 c -0.05497,0.2875 -0.122883,0.5228 -0.150925,0.5228 z"
         id="path3680" />
      <path
         style="fill:#0f0a01"
         d="m 8.1382283,1046.9048 -6.1755944,0 0,-1.7155 0,-1.7154 6.1755944,0 6.1755947,0 0,1.7154 0,1.7155 -6.1755947,0 z m -3.4880672,-0.2389 0.2859072,0.01 0,-0.2238 0,-0.2238 4.40297,-0.062 4.4029697,-0.062 0.07099,-0.8577 0.07099,-0.8577 -4.4739592,0 -4.4739585,0 0,-0.3431 c 0,-0.1887 -0.068184,-0.3431 -0.1515201,-0.3431 -0.083336,0 -0.6494321,0.3195 -1.2579913,0.71 -0.6085594,0.3906 -1.1064715,0.7452 -1.1064715,0.7881 0,0.043 0.4374379,0.3878 0.9720843,0.7665 0.5346463,0.3786 1.1007425,0.6931 1.2579914,0.6987 z m 1.1403103,-0.9476 -0.398335,0.077 -0.1440421,-0.3754 -0.1440419,-0.3754 0.2437222,-0.2437 0.2437221,-0.2437 0.3753672,0.144 0.3753673,0.1441 -0.076712,0.3983 -0.076712,0.3983 -0.3983352,0.077 z m -0.053863,-0.1859 0.3430886,0 0,-0.3431 0,-0.343 -0.3430886,0 -0.3430886,0 0,0.343 0,0.3431 0.3430886,0 z m 0.8882263,0.2288 c -0.048227,0 -0.087686,-0.2634 -0.087686,-0.5854 l 0,-0.5853 0.2072529,0.1281 0.207253,0.1281 -0.1195666,0.4572 c -0.065762,0.2515 -0.1590257,0.4573 -0.207253,0.4573 z m 0.7263524,0 c -0.055475,0 -0.1455224,-0.077 -0.2001048,-0.1716 -0.054582,-0.094 -0.016427,-0.3774 0.084788,-0.629 l 0.1840285,-0.4574 0.016077,0.629 c 0.00884,0.3459 -0.029314,0.629 -0.084789,0.629 z m 0.8442227,-0.027 -0.5146328,0.027 0,-0.5719 0,-0.5718 0.5146328,0.027 0.5146329,0.026 -0.40027,0.1046 -0.40027,0.1046 0,0.3095 0,0.3096 0.40027,0.1046 0.40027,0.1046 -0.5146329,0.026 z m 1.4503315,-0.3684 -0.3077443,0.4056 -0.133361,-0.51 c -0.073348,-0.2804 -0.08598,-0.5573 -0.02807,-0.6152 0.05791,-0.058 0.1052909,0.027 0.1052909,0.1895 l 0,0.2949 0.3430886,-0.2847 0.3430885,-0.2848 -0.00727,0.1996 c -0.004,0.1097 -0.1457594,0.382 -0.3150187,0.6051 z m 0.5510187,0.2806 -0.2287259,0.1414 0,-0.3431 c 0,-0.1887 0.1029269,-0.4067 0.2287259,-0.4845 l 0.228725,-0.1413 0,0.343 c 0,0.1887 -0.102926,0.4067 -0.228725,0.4845 z m 1.333704,-0.023 c -0.04164,0.029 -0.255834,0.013 -0.475983,-0.036 -0.220148,-0.049 -0.398694,-0.1587 -0.396767,-0.2438 0.0019,-0.085 0.09379,-0.2973 0.20414,-0.4716 l 0.200639,-0.3168 0.271842,0.508 c 0.149513,0.2793 0.237771,0.5316 0.196129,0.5606 z m -0.533164,-0.3206 c 0.0629,0 0.114363,-0.052 0.114363,-0.1144 0,-0.063 -0.05146,-0.1143 -0.114363,-0.1143 -0.0629,0 -0.114363,0.051 -0.114363,0.1143 0,0.063 0.05146,0.1144 0.114363,0.1144 z m 1.171635,0 c -0.0475,0 -0.227618,-0.1801 -0.40027,-0.4003 l -0.313914,-0.4002 0.40027,0.3139 c 0.220149,0.1726 0.40027,0.3528 0.40027,0.4003 0,0.047 -0.03886,0.086 -0.08636,0.086 z m 0.200719,-0.4574 c -0.0629,0 -0.114363,-0.052 -0.114363,-0.1144 0,-0.063 0.05146,-0.1144 0.114363,-0.1144 0.0629,0 0.114363,0.052 0.114363,0.1144 0,0.063 -0.05146,0.1144 -0.114363,0.1144 z"
         id="path3678" />
      <path
         style="fill:#000000"
         d="m 3.2778068,1046.6724 -1.0864471,0 0,-1.4868 0,-1.4867 1.0292657,0 c 0.5660961,0 1.0292657,0.038 1.0292657,0.084 0,0.046 -0.4117063,0.3564 -0.9149028,0.6894 -0.5031966,0.333 -0.9141622,0.6812 -0.9132568,0.7738 9.058e-4,0.092 0.4383433,0.4497 0.9720843,0.7936 l 0.9704382,0.6254 -1.0864472,0 z m 6.2327758,0 -4.5745143,0 0,-0.2288 0,-0.2287 4.4601514,0 4.4601513,0 0,-0.9149 0,-0.9149 -4.4601513,0 -4.4601514,0 0,-0.3431 0,-0.3431 4.5745143,0 4.5745144,0 0,1.4867 0,1.4868 -4.5745144,0 z m -3.7096143,-0.9184 -0.2930857,0 0.3192363,-0.2022 0.3192366,-0.2021 -0.1612431,-0.4234 -0.1612432,-0.4233 0.2726475,0.2705 0.2726474,0.2705 -0.1375552,0.3585 -0.1375549,0.3585 -0.2930857,0 z m 0.8238663,0 c -0.048227,0 -0.087686,-0.2634 -0.087686,-0.5854 l 0,-0.5853 0.2072529,0.1281 0.207253,0.1281 -0.1195666,0.4572 c -0.065762,0.2515 -0.1590257,0.4573 -0.207253,0.4573 z m 0.7569957,-0.2903 -0.1054398,0.4046 -0.00847,-0.6862 -0.00847,-0.6861 0.113915,0.2815 c 0.062653,0.1549 0.066467,0.4637 0.00847,0.6862 z m 0.8135794,0.2637 -0.5146328,0.027 0,-0.5719 0,-0.5718 0.5146328,0.027 0.5146329,0.026 -0.40027,0.1046 -0.40027,0.1046 0,0.3095 0,0.3096 0.40027,0.1046 0.40027,0.1046 -0.5146329,0.026 z m 1.4222616,-0.33 -0.3358144,0.444 0.00727,-0.2153 c 0.004,-0.1184 0.1583907,-0.415 0.3430885,-0.6592 l 0.3358151,-0.444 -0.00727,0.2153 c -0.004,0.1184 -0.1583908,0.415 -0.3430886,0.6592 z m 1.9077597,0.3405 c -0.03887,-0.01 -0.276533,-0.1046 -0.528131,-0.2127 l -0.457452,-0.1965 0.386772,-0.016 0.386771,-0.016 0.14136,0.2287 c 0.07775,0.1258 0.109554,0.2215 0.07068,0.2127 z m -1.328671,-0.327 c -0.125799,0.078 -0.228726,0.09 -0.228726,0.027 0,-0.063 0.102927,-0.178 0.228726,-0.2558 0.125799,-0.078 0.228725,-0.09 0.228725,-0.027 0,0.063 -0.102926,0.178 -0.228725,0.2558 z m -4.9176032,-0.1144 c -0.0629,0 -0.1143628,-0.052 -0.1143628,-0.1144 0,-0.063 0.051463,-0.1143 0.1143628,-0.1143 0.0629,0 0.1143629,0.051 0.1143629,0.1143 0,0.063 -0.051463,0.1144 -0.1143629,0.1144 z m 5.9738662,-0.2287 c -0.0629,0 -0.177975,-0.1029 -0.255723,-0.2287 -0.07775,-0.1258 -0.0899,-0.2288 -0.027,-0.2288 0.0629,0 0.177975,0.103 0.255723,0.2288 0.07775,0.1258 0.0899,0.2287 0.027,0.2287 z m -5.7451404,-0.2287 c -0.0629,0 -0.1143629,-0.052 -0.1143629,-0.1144 0,-0.063 0.051463,-0.1144 0.1143629,-0.1144 0.062899,0 0.1143628,0.052 0.1143628,0.1144 0,0.063 -0.051463,0.1144 -0.1143628,0.1144 z m 3.6596114,0 c -0.0629,0 -0.1143628,-0.052 -0.1143628,-0.1144 0,-0.063 0.051463,-0.1144 0.1143628,-0.1144 0.0629,0 0.1143629,0.052 0.1143629,0.1144 0,0.063 -0.051463,0.1144 -0.1143629,0.1144 z m 2.515983,0 c -0.0629,0 -0.114363,-0.052 -0.114363,-0.1144 0,-0.063 0.05146,-0.1144 0.114363,-0.1144 0.0629,0 0.114363,0.052 0.114363,0.1144 0,0.063 -0.05146,0.1144 -0.114363,0.1144 z m 0.686177,0 c -0.0629,0 -0.114363,-0.052 -0.114363,-0.1144 0,-0.063 0.05146,-0.1144 0.114363,-0.1144 0.0629,0 0.114363,0.052 0.114363,0.1144 0,0.063 -0.05146,0.1144 -0.114363,0.1144 z"
         id="path3676" />
    </g>
  </g>
</svg>
