<?xml version="1.0" encoding="UTF-8" standalone="no"?>
<!-- Created with Inkscape (http://www.inkscape.org/) -->

<svg
   xmlns:dc="http://purl.org/dc/elements/1.1/"
   xmlns:cc="http://creativecommons.org/ns#"
   xmlns:rdf="http://www.w3.org/1999/02/22-rdf-syntax-ns#"
   xmlns:svg="http://www.w3.org/2000/svg"
   xmlns="http://www.w3.org/2000/svg"
   xmlns:sodipodi="http://sodipodi.sourceforge.net/DTD/sodipodi-0.dtd"
   xmlns:inkscape="http://www.inkscape.org/namespaces/inkscape"
   width="16"
   height="16"
   id="svg2"
   version="1.1"
   inkscape:version="0.47 r22583"
   sodipodi:docname="pencil-64.svg">
  <defs
     id="defs4">
    <inkscape:perspective
       sodipodi:type="inkscape:persp3d"
       inkscape:vp_x="0 : 526.18109 : 1"
       inkscape:vp_y="0 : 1000 : 0"
       inkscape:vp_z="744.09448 : 526.18109 : 1"
       inkscape:persp3d-origin="372.04724 : 350.78739 : 1"
       id="perspective10" />
    <inkscape:perspective
       id="perspective2824"
       inkscape:persp3d-origin="0.5 : 0.33333333 : 1"
       inkscape:vp_z="1 : 0.5 : 1"
       inkscape:vp_y="0 : 1000 : 0"
       inkscape:vp_x="0 : 0.5 : 1"
       sodipodi:type="inkscape:persp3d" />
    <inkscape:perspective
       id="perspective5878"
       inkscape:persp3d-origin="0.5 : 0.33333333 : 1"
       inkscape:vp_z="1 : 0.5 : 1"
       inkscape:vp_y="0 : 1000 : 0"
       inkscape:vp_x="0 : 0.5 : 1"
       sodipodi:type="inkscape:persp3d" />
    <inkscape:perspective
       id="perspective5921"
       inkscape:persp3d-origin="0.5 : 0.33333333 : 1"
       inkscape:vp_z="1 : 0.5 : 1"
       inkscape:vp_y="0 : 1000 : 0"
       inkscape:vp_x="0 : 0.5 : 1"
       sodipodi:type="inkscape:persp3d" />
    <inkscape:perspective
       id="perspective5943"
       inkscape:persp3d-origin="0.5 : 0.33333333 : 1"
       inkscape:vp_z="1 : 0.5 : 1"
       inkscape:vp_y="0 : 1000 : 0"
       inkscape:vp_x="0 : 0.5 : 1"
       sodipodi:type="inkscape:persp3d" />
    <inkscape:perspective
       id="perspective5989"
       inkscape:persp3d-origin="0.5 : 0.33333333 : 1"
       inkscape:vp_z="1 : 0.5 : 1"
       inkscape:vp_y="0 : 1000 : 0"
       inkscape:vp_x="0 : 0.5 : 1"
       sodipodi:type="inkscape:persp3d" />
    <inkscape:perspective
       id="perspective6011"
       inkscape:persp3d-origin="0.5 : 0.33333333 : 1"
       inkscape:vp_z="1 : 0.5 : 1"
       inkscape:vp_y="0 : 1000 : 0"
       inkscape:vp_x="0 : 0.5 : 1"
       sodipodi:type="inkscape:persp3d" />
    <inkscape:perspective
       id="perspective6033"
       inkscape:persp3d-origin="0.5 : 0.33333333 : 1"
       inkscape:vp_z="1 : 0.5 : 1"
       inkscape:vp_y="0 : 1000 : 0"
       inkscape:vp_x="0 : 0.5 : 1"
       sodipodi:type="inkscape:persp3d" />
    <inkscape:perspective
       id="perspective6245"
       inkscape:persp3d-origin="0.5 : 0.33333333 : 1"
       inkscape:vp_z="1 : 0.5 : 1"
       inkscape:vp_y="0 : 1000 : 0"
       inkscape:vp_x="0 : 0.5 : 1"
       sodipodi:type="inkscape:persp3d" />
    <inkscape:perspective
       id="perspective6269"
       inkscape:persp3d-origin="0.5 : 0.33333333 : 1"
       inkscape:vp_z="1 : 0.5 : 1"
       inkscape:vp_y="0 : 1000 : 0"
       inkscape:vp_x="0 : 0.5 : 1"
       sodipodi:type="inkscape:persp3d" />
    <inkscape:perspective
       id="perspective6364"
       inkscape:persp3d-origin="0.5 : 0.33333333 : 1"
       inkscape:vp_z="1 : 0.5 : 1"
       inkscape:vp_y="0 : 1000 : 0"
       inkscape:vp_x="0 : 0.5 : 1"
       sodipodi:type="inkscape:persp3d" />
    <inkscape:perspective
       id="perspective6396"
       inkscape:persp3d-origin="0.5 : 0.33333333 : 1"
       inkscape:vp_z="1 : 0.5 : 1"
       inkscape:vp_y="0 : 1000 : 0"
       inkscape:vp_x="0 : 0.5 : 1"
       sodipodi:type="inkscape:persp3d" />
    <inkscape:perspective
       id="perspective6438"
       inkscape:persp3d-origin="0.5 : 0.33333333 : 1"
       inkscape:vp_z="1 : 0.5 : 1"
       inkscape:vp_y="0 : 1000 : 0"
       inkscape:vp_x="0 : 0.5 : 1"
       sodipodi:type="inkscape:persp3d" />
    <inkscape:perspective
       id="perspective6460"
       inkscape:persp3d-origin="0.5 : 0.33333333 : 1"
       inkscape:vp_z="1 : 0.5 : 1"
       inkscape:vp_y="0 : 1000 : 0"
       inkscape:vp_x="0 : 0.5 : 1"
       sodipodi:type="inkscape:persp3d" />
    <inkscape:perspective
       id="perspective6480"
       inkscape:persp3d-origin="0.5 : 0.33333333 : 1"
       inkscape:vp_z="1 : 0.5 : 1"
       inkscape:vp_y="0 : 1000 : 0"
       inkscape:vp_x="0 : 0.5 : 1"
       sodipodi:type="inkscape:persp3d" />
    <inkscape:perspective
       id="perspective6504"
       inkscape:persp3d-origin="0.5 : 0.33333333 : 1"
       inkscape:vp_z="1 : 0.5 : 1"
       inkscape:vp_y="0 : 1000 : 0"
       inkscape:vp_x="0 : 0.5 : 1"
       sodipodi:type="inkscape:persp3d" />
    <inkscape:perspective
       id="perspective6524"
       inkscape:persp3d-origin="0.5 : 0.33333333 : 1"
       inkscape:vp_z="1 : 0.5 : 1"
       inkscape:vp_y="0 : 1000 : 0"
       inkscape:vp_x="0 : 0.5 : 1"
       sodipodi:type="inkscape:persp3d" />
    <inkscape:perspective
       id="perspective6548"
       inkscape:persp3d-origin="0.5 : 0.33333333 : 1"
       inkscape:vp_z="1 : 0.5 : 1"
       inkscape:vp_y="0 : 1000 : 0"
       inkscape:vp_x="0 : 0.5 : 1"
       sodipodi:type="inkscape:persp3d" />
    <inkscape:perspective
       id="perspective6572"
       inkscape:persp3d-origin="0.5 : 0.33333333 : 1"
       inkscape:vp_z="1 : 0.5 : 1"
       inkscape:vp_y="0 : 1000 : 0"
       inkscape:vp_x="0 : 0.5 : 1"
       sodipodi:type="inkscape:persp3d" />
    <inkscape:perspective
       id="perspective6594"
       inkscape:persp3d-origin="0.5 : 0.33333333 : 1"
       inkscape:vp_z="1 : 0.5 : 1"
       inkscape:vp_y="0 : 1000 : 0"
       inkscape:vp_x="0 : 0.5 : 1"
       sodipodi:type="inkscape:persp3d" />
    <inkscape:perspective
       id="perspective6614"
       inkscape:persp3d-origin="0.5 : 0.33333333 : 1"
       inkscape:vp_z="1 : 0.5 : 1"
       inkscape:vp_y="0 : 1000 : 0"
       inkscape:vp_x="0 : 0.5 : 1"
       sodipodi:type="inkscape:persp3d" />
    <inkscape:perspective
       id="perspective6650"
       inkscape:persp3d-origin="0.5 : 0.33333333 : 1"
       inkscape:vp_z="1 : 0.5 : 1"
       inkscape:vp_y="0 : 1000 : 0"
       inkscape:vp_x="0 : 0.5 : 1"
       sodipodi:type="inkscape:persp3d" />
    <inkscape:perspective
       id="perspective6676"
       inkscape:persp3d-origin="0.5 : 0.33333333 : 1"
       inkscape:vp_z="1 : 0.5 : 1"
       inkscape:vp_y="0 : 1000 : 0"
       inkscape:vp_x="0 : 0.5 : 1"
       sodipodi:type="inkscape:persp3d" />
    <inkscape:perspective
       id="perspective6710"
       inkscape:persp3d-origin="0.5 : 0.33333333 : 1"
       inkscape:vp_z="1 : 0.5 : 1"
       inkscape:vp_y="0 : 1000 : 0"
       inkscape:vp_x="0 : 0.5 : 1"
       sodipodi:type="inkscape:persp3d" />
    <inkscape:perspective
       id="perspective6748"
       inkscape:persp3d-origin="0.5 : 0.33333333 : 1"
       inkscape:vp_z="1 : 0.5 : 1"
       inkscape:vp_y="0 : 1000 : 0"
       inkscape:vp_x="0 : 0.5 : 1"
       sodipodi:type="inkscape:persp3d" />
    <inkscape:perspective
       id="perspective6786"
       inkscape:persp3d-origin="0.5 : 0.33333333 : 1"
       inkscape:vp_z="1 : 0.5 : 1"
       inkscape:vp_y="0 : 1000 : 0"
       inkscape:vp_x="0 : 0.5 : 1"
       sodipodi:type="inkscape:persp3d" />
    <inkscape:perspective
       id="perspective6810"
       inkscape:persp3d-origin="0.5 : 0.33333333 : 1"
       inkscape:vp_z="1 : 0.5 : 1"
       inkscape:vp_y="0 : 1000 : 0"
       inkscape:vp_x="0 : 0.5 : 1"
       sodipodi:type="inkscape:persp3d" />
    <inkscape:perspective
       id="perspective6848"
       inkscape:persp3d-origin="0.5 : 0.33333333 : 1"
       inkscape:vp_z="1 : 0.5 : 1"
       inkscape:vp_y="0 : 1000 : 0"
       inkscape:vp_x="0 : 0.5 : 1"
       sodipodi:type="inkscape:persp3d" />
    <inkscape:perspective
       id="perspective6870"
       inkscape:persp3d-origin="0.5 : 0.33333333 : 1"
       inkscape:vp_z="1 : 0.5 : 1"
       inkscape:vp_y="0 : 1000 : 0"
       inkscape:vp_x="0 : 0.5 : 1"
       sodipodi:type="inkscape:persp3d" />
    <inkscape:perspective
       id="perspective6908"
       inkscape:persp3d-origin="0.5 : 0.33333333 : 1"
       inkscape:vp_z="1 : 0.5 : 1"
       inkscape:vp_y="0 : 1000 : 0"
       inkscape:vp_x="0 : 0.5 : 1"
       sodipodi:type="inkscape:persp3d" />
    <inkscape:perspective
       id="perspective6946"
       inkscape:persp3d-origin="0.5 : 0.33333333 : 1"
       inkscape:vp_z="1 : 0.5 : 1"
       inkscape:vp_y="0 : 1000 : 0"
       inkscape:vp_x="0 : 0.5 : 1"
       sodipodi:type="inkscape:persp3d" />
    <inkscape:perspective
       id="perspective6970"
       inkscape:persp3d-origin="0.5 : 0.33333333 : 1"
       inkscape:vp_z="1 : 0.5 : 1"
       inkscape:vp_y="0 : 1000 : 0"
       inkscape:vp_x="0 : 0.5 : 1"
       sodipodi:type="inkscape:persp3d" />
    <inkscape:perspective
       id="perspective7008"
       inkscape:persp3d-origin="0.5 : 0.33333333 : 1"
       inkscape:vp_z="1 : 0.5 : 1"
       inkscape:vp_y="0 : 1000 : 0"
       inkscape:vp_x="0 : 0.5 : 1"
       sodipodi:type="inkscape:persp3d" />
    <inkscape:perspective
       id="perspective7036"
       inkscape:persp3d-origin="0.5 : 0.33333333 : 1"
       inkscape:vp_z="1 : 0.5 : 1"
       inkscape:vp_y="0 : 1000 : 0"
       inkscape:vp_x="0 : 0.5 : 1"
       sodipodi:type="inkscape:persp3d" />
    <inkscape:perspective
       id="perspective7060"
       inkscape:persp3d-origin="0.5 : 0.33333333 : 1"
       inkscape:vp_z="1 : 0.5 : 1"
       inkscape:vp_y="0 : 1000 : 0"
       inkscape:vp_x="0 : 0.5 : 1"
       sodipodi:type="inkscape:persp3d" />
    <inkscape:perspective
       id="perspective7098"
       inkscape:persp3d-origin="0.5 : 0.33333333 : 1"
       inkscape:vp_z="1 : 0.5 : 1"
       inkscape:vp_y="0 : 1000 : 0"
       inkscape:vp_x="0 : 0.5 : 1"
       sodipodi:type="inkscape:persp3d" />
    <inkscape:perspective
       id="perspective7136"
       inkscape:persp3d-origin="0.5 : 0.33333333 : 1"
       inkscape:vp_z="1 : 0.5 : 1"
       inkscape:vp_y="0 : 1000 : 0"
       inkscape:vp_x="0 : 0.5 : 1"
       sodipodi:type="inkscape:persp3d" />
    <inkscape:perspective
       id="perspective7174"
       inkscape:persp3d-origin="0.5 : 0.33333333 : 1"
       inkscape:vp_z="1 : 0.5 : 1"
       inkscape:vp_y="0 : 1000 : 0"
       inkscape:vp_x="0 : 0.5 : 1"
       sodipodi:type="inkscape:persp3d" />
    <inkscape:perspective
       id="perspective7212"
       inkscape:persp3d-origin="0.5 : 0.33333333 : 1"
       inkscape:vp_z="1 : 0.5 : 1"
       inkscape:vp_y="0 : 1000 : 0"
       inkscape:vp_x="0 : 0.5 : 1"
       sodipodi:type="inkscape:persp3d" />
    <inkscape:perspective
       id="perspective7234"
       inkscape:persp3d-origin="0.5 : 0.33333333 : 1"
       inkscape:vp_z="1 : 0.5 : 1"
       inkscape:vp_y="0 : 1000 : 0"
       inkscape:vp_x="0 : 0.5 : 1"
       sodipodi:type="inkscape:persp3d" />
    <inkscape:perspective
       id="perspective7272"
       inkscape:persp3d-origin="0.5 : 0.33333333 : 1"
       inkscape:vp_z="1 : 0.5 : 1"
       inkscape:vp_y="0 : 1000 : 0"
       inkscape:vp_x="0 : 0.5 : 1"
       sodipodi:type="inkscape:persp3d" />
    <inkscape:perspective
       id="perspective7294"
       inkscape:persp3d-origin="0.5 : 0.33333333 : 1"
       inkscape:vp_z="1 : 0.5 : 1"
       inkscape:vp_y="0 : 1000 : 0"
       inkscape:vp_x="0 : 0.5 : 1"
       sodipodi:type="inkscape:persp3d" />
    <inkscape:perspective
       id="perspective7330"
       inkscape:persp3d-origin="0.5 : 0.33333333 : 1"
       inkscape:vp_z="1 : 0.5 : 1"
       inkscape:vp_y="0 : 1000 : 0"
       inkscape:vp_x="0 : 0.5 : 1"
       sodipodi:type="inkscape:persp3d" />
    <inkscape:perspective
       id="perspective3068"
       inkscape:persp3d-origin="0.5 : 0.33333333 : 1"
       inkscape:vp_z="1 : 0.5 : 1"
       inkscape:vp_y="0 : 1000 : 0"
       inkscape:vp_x="0 : 0.5 : 1"
       sodipodi:type="inkscape:persp3d" />
    <inkscape:perspective
       id="perspective3106"
       inkscape:persp3d-origin="0.5 : 0.33333333 : 1"
       inkscape:vp_z="1 : 0.5 : 1"
       inkscape:vp_y="0 : 1000 : 0"
       inkscape:vp_x="0 : 0.5 : 1"
       sodipodi:type="inkscape:persp3d" />
    <inkscape:perspective
       id="perspective3128"
       inkscape:persp3d-origin="0.5 : 0.33333333 : 1"
       inkscape:vp_z="1 : 0.5 : 1"
       inkscape:vp_y="0 : 1000 : 0"
       inkscape:vp_x="0 : 0.5 : 1"
       sodipodi:type="inkscape:persp3d" />
    <inkscape:perspective
       id="perspective3152"
       inkscape:persp3d-origin="0.5 : 0.33333333 : 1"
       inkscape:vp_z="1 : 0.5 : 1"
       inkscape:vp_y="0 : 1000 : 0"
       inkscape:vp_x="0 : 0.5 : 1"
       sodipodi:type="inkscape:persp3d" />
    <inkscape:perspective
       id="perspective3174"
       inkscape:persp3d-origin="0.5 : 0.33333333 : 1"
       inkscape:vp_z="1 : 0.5 : 1"
       inkscape:vp_y="0 : 1000 : 0"
       inkscape:vp_x="0 : 0.5 : 1"
       sodipodi:type="inkscape:persp3d" />
    <inkscape:perspective
       id="perspective3212"
       inkscape:persp3d-origin="0.5 : 0.33333333 : 1"
       inkscape:vp_z="1 : 0.5 : 1"
       inkscape:vp_y="0 : 1000 : 0"
       inkscape:vp_x="0 : 0.5 : 1"
       sodipodi:type="inkscape:persp3d" />
    <inkscape:perspective
       id="perspective3238"
       inkscape:persp3d-origin="0.5 : 0.33333333 : 1"
       inkscape:vp_z="1 : 0.5 : 1"
       inkscape:vp_y="0 : 1000 : 0"
       inkscape:vp_x="0 : 0.5 : 1"
       sodipodi:type="inkscape:persp3d" />
    <inkscape:perspective
       id="perspective3276"
       inkscape:persp3d-origin="0.5 : 0.33333333 : 1"
       inkscape:vp_z="1 : 0.5 : 1"
       inkscape:vp_y="0 : 1000 : 0"
       inkscape:vp_x="0 : 0.5 : 1"
       sodipodi:type="inkscape:persp3d" />
    <inkscape:perspective
       id="perspective3314"
       inkscape:persp3d-origin="0.5 : 0.33333333 : 1"
       inkscape:vp_z="1 : 0.5 : 1"
       inkscape:vp_y="0 : 1000 : 0"
       inkscape:vp_x="0 : 0.5 : 1"
       sodipodi:type="inkscape:persp3d" />
    <inkscape:perspective
       id="perspective3350"
       inkscape:persp3d-origin="0.5 : 0.33333333 : 1"
       inkscape:vp_z="1 : 0.5 : 1"
       inkscape:vp_y="0 : 1000 : 0"
       inkscape:vp_x="0 : 0.5 : 1"
       sodipodi:type="inkscape:persp3d" />
    <inkscape:perspective
       id="perspective3376"
       inkscape:persp3d-origin="0.5 : 0.33333333 : 1"
       inkscape:vp_z="1 : 0.5 : 1"
       inkscape:vp_y="0 : 1000 : 0"
       inkscape:vp_x="0 : 0.5 : 1"
       sodipodi:type="inkscape:persp3d" />
    <inkscape:perspective
       id="perspective3402"
       inkscape:persp3d-origin="0.5 : 0.33333333 : 1"
       inkscape:vp_z="1 : 0.5 : 1"
       inkscape:vp_y="0 : 1000 : 0"
       inkscape:vp_x="0 : 0.5 : 1"
       sodipodi:type="inkscape:persp3d" />
    <inkscape:perspective
       id="perspective3428"
       inkscape:persp3d-origin="0.5 : 0.33333333 : 1"
       inkscape:vp_z="1 : 0.5 : 1"
       inkscape:vp_y="0 : 1000 : 0"
       inkscape:vp_x="0 : 0.5 : 1"
       sodipodi:type="inkscape:persp3d" />
    <inkscape:perspective
       id="perspective3466"
       inkscape:persp3d-origin="0.5 : 0.33333333 : 1"
       inkscape:vp_z="1 : 0.5 : 1"
       inkscape:vp_y="0 : 1000 : 0"
       inkscape:vp_x="0 : 0.5 : 1"
       sodipodi:type="inkscape:persp3d" />
    <inkscape:perspective
       id="perspective3504"
       inkscape:persp3d-origin="0.5 : 0.33333333 : 1"
       inkscape:vp_z="1 : 0.5 : 1"
       inkscape:vp_y="0 : 1000 : 0"
       inkscape:vp_x="0 : 0.5 : 1"
       sodipodi:type="inkscape:persp3d" />
    <inkscape:perspective
       id="perspective3542"
       inkscape:persp3d-origin="0.5 : 0.33333333 : 1"
       inkscape:vp_z="1 : 0.5 : 1"
       inkscape:vp_y="0 : 1000 : 0"
       inkscape:vp_x="0 : 0.5 : 1"
       sodipodi:type="inkscape:persp3d" />
    <inkscape:perspective
       id="perspective3566"
       inkscape:persp3d-origin="0.5 : 0.33333333 : 1"
       inkscape:vp_z="1 : 0.5 : 1"
       inkscape:vp_y="0 : 1000 : 0"
       inkscape:vp_x="0 : 0.5 : 1"
       sodipodi:type="inkscape:persp3d" />
    <inkscape:perspective
       id="perspective3590"
       inkscape:persp3d-origin="0.5 : 0.33333333 : 1"
       inkscape:vp_z="1 : 0.5 : 1"
       inkscape:vp_y="0 : 1000 : 0"
       inkscape:vp_x="0 : 0.5 : 1"
       sodipodi:type="inkscape:persp3d" />
    <inkscape:perspective
       id="perspective3610"
       inkscape:persp3d-origin="0.5 : 0.33333333 : 1"
       inkscape:vp_z="1 : 0.5 : 1"
       inkscape:vp_y="0 : 1000 : 0"
       inkscape:vp_x="0 : 0.5 : 1"
       sodipodi:type="inkscape:persp3d" />
    <inkscape:perspective
       id="perspective3648"
       inkscape:persp3d-origin="0.5 : 0.33333333 : 1"
       inkscape:vp_z="1 : 0.5 : 1"
       inkscape:vp_y="0 : 1000 : 0"
       inkscape:vp_x="0 : 0.5 : 1"
       sodipodi:type="inkscape:persp3d" />
    <inkscape:perspective
       id="perspective3668"
       inkscape:persp3d-origin="0.5 : 0.33333333 : 1"
       inkscape:vp_z="1 : 0.5 : 1"
       inkscape:vp_y="0 : 1000 : 0"
       inkscape:vp_x="0 : 0.5 : 1"
       sodipodi:type="inkscape:persp3d" />
    <inkscape:perspective
       id="perspective3706"
       inkscape:persp3d-origin="0.5 : 0.33333333 : 1"
       inkscape:vp_z="1 : 0.5 : 1"
       inkscape:vp_y="0 : 1000 : 0"
       inkscape:vp_x="0 : 0.5 : 1"
       sodipodi:type="inkscape:persp3d" />
    <inkscape:perspective
       id="perspective3744"
       inkscape:persp3d-origin="0.5 : 0.33333333 : 1"
       inkscape:vp_z="1 : 0.5 : 1"
       inkscape:vp_y="0 : 1000 : 0"
       inkscape:vp_x="0 : 0.5 : 1"
       sodipodi:type="inkscape:persp3d" />
    <inkscape:perspective
       id="perspective3770"
       inkscape:persp3d-origin="0.5 : 0.33333333 : 1"
       inkscape:vp_z="1 : 0.5 : 1"
       inkscape:vp_y="0 : 1000 : 0"
       inkscape:vp_x="0 : 0.5 : 1"
       sodipodi:type="inkscape:persp3d" />
  </defs>
  <sodipodi:namedview
     id="base"
     pagecolor="#ffffff"
     bordercolor="#666666"
     borderopacity="1.0"
     inkscape:pageopacity="0.0"
     inkscape:pageshadow="2"
     inkscape:zoom="11.313709"
     inkscape:cx="11.966503"
     inkscape:cy="14.926085"
     inkscape:document-units="px"
     inkscape:current-layer="layer1"
     showgrid="true"
     inkscape:window-width="1280"
     inkscape:window-height="780"
     inkscape:window-x="-8"
     inkscape:window-y="-8"
     inkscape:window-maximized="1">
    <inkscape:grid
       type="xygrid"
       id="grid6324"
       empspacing="5"
       visible="true"
       enabled="true"
       snapvisiblegridlinesonly="true" />
  </sodipodi:namedview>
  <metadata
     id="metadata7">
    <rdf:RDF>
      <cc:Work
         rdf:about="">
        <dc:format>image/svg+xml</dc:format>
        <dc:type
           rdf:resource="http://purl.org/dc/dcmitype/StillImage" />
        <dc:title></dc:title>
      </cc:Work>
    </rdf:RDF>
  </metadata>
  <g
     inkscape:label="Calque 1"
     inkscape:groupmode="layer"
     id="layer1"
     transform="translate(0,-1036.3622)">
    <g
       id="g3776"
       transform="translate(-0.231317,1.0687)">
      <path
         style="fill:#d5e5b7"
         d="m 6.1959659,1049.8795 -0.1589237,0 -0.252258,-1.3691 -0.252258,-1.369 -0.7146923,-1.4192 -0.714692,-1.4192 -0.1978676,-1.298 c -0.1088274,-0.7138 -0.2592724,-1.5074 -0.3343223,-1.7634 l -0.1364547,-0.4656 0.4119114,0 c 0.2265513,0 0.7987541,-0.1364 1.271562,-0.3033 0.4728079,-0.1668 1.355357,-0.6323 1.9612204,-1.0344 0.6058632,-0.4022 1.213807,-0.7312 1.3509859,-0.7312 l 0.2494162,0 -0.1476577,0.2586 c -0.081212,0.1422 0.127871,0 0.464628,-0.3103 l 0.6122857,-0.569 0.3009795,0 0.3009793,0 0.241465,0.3866 0.241465,0.3867 -0.8262021,0.803 -0.8262018,0.803 0.1311279,0.8872 c 0.07212,0.488 0.258691,1.1926 0.4146014,1.5657 0.1559105,0.3731 0.8013956,1.3404 1.4344116,2.1494 0.633017,0.809 1.150939,1.5583 1.150939,1.665 l 0,0.1941 -1.396552,0.4614 -1.3965517,0.4614 -1.3862803,0.811 c -0.7624541,0.4461 -1.4429489,0.9028 -1.5122104,1.0148 -0.069262,0.1121 -0.1974457,0.2038 -0.2848537,0.2038 z m 1.1143789,-8.4828 c 0.056897,0 0.1034483,-0.046 0.1034483,-0.1034 0,-0.057 -0.046552,-0.1035 -0.1034483,-0.1035 -0.056897,0 -0.1034482,0.047 -0.1034482,0.1035 0,0.057 0.046552,0.1034 0.1034482,0.1034 z"
         id="path3794" />
      <path
         style="fill:#c9d8ad"
         d="m 6.1959659,1049.8795 -0.1589237,0 -0.252258,-1.3691 -0.252258,-1.369 -0.7146923,-1.4192 -0.714692,-1.4192 -0.1978676,-1.298 c -0.1088274,-0.7138 -0.2592724,-1.5074 -0.3343223,-1.7634 l -0.1364547,-0.4656 0.4119114,0 c 0.2265513,0 0.7987541,-0.1364 1.271562,-0.3033 0.4728079,-0.1668 1.355357,-0.6323 1.9612204,-1.0344 0.6058632,-0.4022 1.2261072,-0.7312 1.3783196,-0.7312 l 0.2767498,0 -0.4016129,0.3217 -0.4016131,0.3218 0.4161081,-0.1992 c 0.2288594,-0.1095 0.5924271,-0.3939 0.8079283,-0.6321 l 0.3918205,-0.4329 0.3319585,0 0.3319581,0 0.241465,0.3866 0.241465,0.3867 -0.8262021,0.803 -0.8262018,0.803 0.1311279,0.8872 c 0.07212,0.488 0.258691,1.1926 0.4146014,1.5657 0.1559105,0.3731 0.8013956,1.3404 1.4344116,2.1494 0.633017,0.809 1.150939,1.5583 1.150939,1.665 l 0,0.1941 -1.396552,0.4614 -1.3965517,0.4614 -1.3862803,0.811 c -0.7624541,0.4461 -1.4429489,0.9028 -1.5122104,1.0148 -0.069262,0.1121 -0.1974457,0.2038 -0.2848537,0.2038 z m 0.8250068,-0.9695 c 0.4436375,-0.2936 0.8066135,-0.5755 0.8066135,-0.6266 0,-0.051 -0.3265821,0.109 -0.7257376,0.3557 l -0.7257379,0.4485 -0.1291473,-0.6457 c -0.071031,-0.3552 -0.1694181,-0.6055 -0.218638,-0.5562 -0.04922,0.049 -0.027498,0.4199 0.048272,0.8238 l 0.1377623,0.7343 0.8066135,-0.5338 z m -0.124421,-0.4788 c 0.056897,0 0.1034483,-0.046 0.1034483,-0.1034 0,-0.057 -0.046552,-0.1035 -0.1034483,-0.1035 -0.056896,0 -0.1034483,0.047 -0.1034483,0.1035 0,0.057 0.046552,0.1034 0.1034483,0.1034 z m 1.2413793,-0.2069 c 0.056897,0 0.1034483,-0.047 0.1034483,-0.1034 0,-0.057 -0.046552,-0.1035 -0.1034483,-0.1035 -0.056897,0 -0.1034482,0.047 -0.1034482,0.1035 0,0.057 0.046552,0.1034 0.1034482,0.1034 z m -1.6206896,-0.2758 0.1379309,-0.138 -0.1379309,-0.1379 -0.1379311,-0.1379 0,0.2758 0,0.2759 0.1379311,-0.1379 z m 0.8275863,0 0.1379309,-0.138 -0.1379309,-0.1379 -0.1379311,-0.1379 0,0.2758 0,0.2759 0.1379311,-0.1379 z m 1.2068964,0.069 c 0.056897,0 0.1034483,-0.046 0.1034483,-0.1034 0,-0.057 -0.046552,-0.1035 -0.1034483,-0.1035 -0.056896,0 -0.1034482,0.047 -0.1034482,0.1035 0,0.057 0.046552,0.1034 0.1034482,0.1034 z m 0.4137931,-0.2069 c 0.056897,0 0.1034483,-0.047 0.1034483,-0.1034 0,-0.057 -0.046552,-0.1035 -0.1034483,-0.1035 -0.056897,0 -0.1034482,0.047 -0.1034482,0.1035 0,0.057 0.046552,0.1034 0.1034482,0.1034 z m -3.0064934,-0.2069 0.2004031,0 -0.1190905,-0.3103 c -0.0655,-0.1707 -0.1556812,-0.3104 -0.2004031,-0.3104 -0.044722,0 -0.081313,0.1397 -0.081313,0.3104 l 0,0.3103 0.2004031,0 z m 3.4202865,0 c 0.056897,0 0.1034483,-0.046 0.1034483,-0.1034 0,-0.057 -0.046552,-0.1035 -0.1034483,-0.1035 -0.056897,0 -0.1034482,0.047 -0.1034482,0.1035 0,0.057 0.046552,0.1034 0.1034482,0.1034 z m 1.2413797,-0.4138 c 0.0569,0 0.103448,-0.047 0.103448,-0.1034 0,-0.057 -0.04655,-0.1035 -0.103448,-0.1035 -0.0569,0 -0.103449,0.047 -0.103449,0.1035 0,0.057 0.04655,0.1034 0.103449,0.1034 z m -3.9310348,-0.2069 c 0.056897,0 0.1034482,-0.046 0.1034482,-0.1034 0,-0.057 -0.046552,-0.1035 -0.1034482,-0.1035 -0.056897,0 -0.1034483,0.047 -0.1034483,0.1035 0,0.057 0.046552,0.1034 0.1034483,0.1034 z m 0.4137931,0 c 0.056896,0 0.1034483,-0.046 0.1034483,-0.1034 0,-0.057 -0.046552,-0.1035 -0.1034483,-0.1035 -0.056897,0 -0.1034483,0.047 -0.1034483,0.1035 0,0.057 0.046552,0.1034 0.1034483,0.1034 z m 2.0689655,0 c 0.056897,0 0.1034483,-0.046 0.1034483,-0.1034 0,-0.057 -0.046552,-0.1035 -0.1034483,-0.1035 -0.056897,0 -0.1034483,0.047 -0.1034483,0.1035 0,0.057 0.046552,0.1034 0.1034483,0.1034 z m 2.0689652,0 c 0.0569,0 0.103449,-0.046 0.103449,-0.1034 0,-0.057 -0.04655,-0.1035 -0.103449,-0.1035 -0.0569,0 -0.103448,0.047 -0.103448,0.1035 0,0.057 0.04655,0.1034 0.103448,0.1034 z m -5.5862066,-0.2069 c 0.056897,0 0.1034483,-0.047 0.1034483,-0.1034 0,-0.057 -0.046552,-0.1035 -0.1034483,-0.1035 -0.056896,0 -0.1034483,0.047 -0.1034483,0.1035 0,0.057 0.046552,0.1034 0.1034483,0.1034 z m 2.2758621,-0.1262 c 0.3413793,-0.076 0.6594827,-0.1723 0.7068966,-0.2132 0.047414,-0.041 -0.092242,-0.073 -0.3103448,-0.071 -0.2181035,0 -0.536207,0.098 -0.7068966,0.2132 l -0.3103449,0.21 0.6206897,-0.1388 z m 1.6551724,0.1262 c 0.056896,0 0.1034483,-0.047 0.1034483,-0.1034 0,-0.057 -0.046552,-0.1035 -0.1034483,-0.1035 -0.056897,0 -0.1034483,0.047 -0.1034483,0.1035 0,0.057 0.046552,0.1034 0.1034483,0.1034 z m 2.2395671,0 0.174514,0 -0.689799,-0.8505 c -0.37939,-0.4677 -0.858979,-1.0496 -1.065754,-1.2931 l -0.375955,-0.4426 0.211099,0.4339 0.211099,0.4338 -0.227017,0.227 -0.2270164,0.227 0.4435964,-0.116 0.443597,-0.116 0.0032,0.5931 0.0032,0.5931 0.182997,-0.289 0.182996,-0.289 0.277397,0.4442 c 0.152569,0.2443 0.355929,0.4441 0.451911,0.4441 z m -6.3774981,-0.4137 c 0.056897,0 0.1034482,-0.047 0.1034482,-0.1035 0,-0.057 -0.046552,-0.1034 -0.1034482,-0.1034 -0.056897,0 -0.1034483,0.046 -0.1034483,0.1034 0,0.057 0.046552,0.1035 0.1034483,0.1035 z m 3.0313183,-0.4138 c 0.056897,0 0.3221137,-0.2328 0.5893713,-0.5173 0.2672576,-0.2845 0.4393713,-0.5172 0.3824748,-0.5172 -0.056897,0 -0.3221137,0.2327 -0.5893713,0.5172 -0.2672576,0.2845 -0.4393713,0.5173 -0.3824748,0.5173 z m -3.2425694,-0.2069 c 0.067299,0 0.025982,-0.1801 -0.091814,-0.4002 -0.1177968,-0.2201 -0.214176,-0.4529 -0.214176,-0.5173 0,-0.064 0.1396552,-0.117 0.3103448,-0.117 l 0.3103448,0 0,-0.2142 0,-0.2142 -0.4137931,0.2215 -0.4137931,0.2214 -0.031794,-0.3693 c -0.017487,-0.2032 -0.050146,-0.6021 -0.072577,-0.8866 -0.022431,-0.2845 -0.1090041,-0.7034 -0.1923848,-0.931 -0.083381,-0.2276 -0.231738,-0.6 -0.3296831,-0.8276 l -0.1780818,-0.4138 0.1247114,0.7241 c 0.068591,0.3983 0.1895251,0.7507 0.2687417,0.7831 l 0.1440298,0.059 -0.09314,0.4873 -0.09314,0.4872 0.4219219,0.9538 c 0.2320572,0.5246 0.4769849,0.9539 0.5442836,0.9539 z m 4.3491821,0 c 0.056896,0 0.1034483,-0.047 0.1034483,-0.1035 0,-0.057 -0.046552,-0.1034 -0.1034483,-0.1034 -0.056897,0 -0.1034483,0.047 -0.1034483,0.1034 0,0.057 0.046552,0.1035 0.1034483,0.1035 z m -3.5172414,-0.2069 c 0.056897,0 0.1034483,-0.047 0.1034483,-0.1035 0,-0.057 -0.046552,-0.1034 -0.1034483,-0.1034 -0.056896,0 -0.1034483,0.046 -0.1034483,0.1034 0,0.057 0.046552,0.1035 0.1034483,0.1035 z m 0.4137931,-0.2069 c 0.056897,0 0.1034483,-0.047 0.1034483,-0.1035 0,-0.057 -0.046552,-0.1034 -0.1034483,-0.1034 -0.056897,0 -0.1034483,0.047 -0.1034483,0.1034 0,0.057 0.046552,0.1035 0.1034483,0.1035 z m -0.8275862,-0.2069 c 0.056897,0 0.1034483,-0.047 0.1034483,-0.1035 0,-0.057 -0.046552,-0.1034 -0.1034483,-0.1034 -0.056896,0 -0.1034483,0.046 -0.1034483,0.1034 0,0.057 0.046552,0.1035 0.1034483,0.1035 z m 1.1631424,-0.3563 0.232108,-0.2321 0.3368575,0.1068 0.3368576,0.1068 -0.2915826,-0.2073 -0.2915826,-0.2072 -0.2773829,0.1064 c -0.1525606,0.059 -0.2773829,0.2082 -0.2773829,0.3326 l 0,0.2261 0.2321079,-0.2321 z m 1.1472025,-0.5403 0.1379309,-0.1379 -0.1379309,-0.1379 -0.1379311,-0.138 0,0.2759 0,0.2759 0.1379311,-0.138 z m -2.2068966,-0.1379 0.275862,0 -0.1379309,-0.1379 -0.1379311,-0.138 -0.1379311,0.138 -0.1379309,0.1379 0.275862,0 z m 0.6206896,-0.3104 c 0.1137931,-0.07 0.2068966,-0.1744 0.2068966,-0.2313 0,-0.057 -0.093103,-0.046 -0.2068966,0.024 -0.1137931,0.07 -0.2068965,0.1745 -0.2068965,0.2314 0,0.057 0.093103,0.046 0.2068965,-0.024 z m 0.5517243,0.034 0.1379308,-0.1379 -0.1379308,-0.1379 -0.1379312,-0.138 0,0.2759 0,0.2759 0.1379312,-0.138 z m 0.8965516,-0.2414 c 0.1137931,-0.07 0.2068966,-0.1744 0.2068966,-0.2313 0,-0.057 -0.093103,-0.046 -0.2068966,0.024 -0.1137931,0.07 -0.2068965,0.1744 -0.2068965,0.2313 0,0.057 0.093103,0.046 0.2068965,-0.024 z m -1.0110968,-0.5723 c 0.2404485,0.018 0.4033796,0.012 0.3620689,-0.014 -0.04131,-0.026 -0.2380411,-0.1722 -0.437179,-0.3246 l -0.362069,-0.2771 0,0.2916 0,0.2916 0.4371791,0.033 z m 0.9076485,0.055 c 0.056897,0 0.1034483,-0.046 0.1034483,-0.1034 0,-0.057 -0.046552,-0.1035 -0.1034483,-0.1035 -0.056896,0 -0.1034482,0.047 -0.1034482,0.1035 0,0.057 0.046552,0.1034 0.1034482,0.1034 z m -0.3103448,-0.4138 0.275862,0 -0.1379309,-0.1379 -0.1379311,-0.1379 -0.1379311,0.1379 -0.1379309,0.1379 0.275862,0 z m 1.5517241,0 c 0.056897,0 0.1034483,-0.046 0.1034483,-0.1034 0,-0.057 -0.046552,-0.1035 -0.1034483,-0.1035 -0.056897,0 -0.1034482,0.047 -0.1034482,0.1035 0,0.057 0.046552,0.1034 0.1034482,0.1034 z m -3.275862,-0.6896 0.1379309,-0.138 -0.1379309,-0.1379 -0.1379311,-0.1379 0,0.2758 0,0.2759 0.1379311,-0.1379 z m 1,-0.138 c 0.056897,0 0.1034482,-0.047 0.1034482,-0.1034 0,-0.057 -0.046552,-0.1035 -0.1034482,-0.1035 -0.056897,0 -0.1034483,0.047 -0.1034483,0.1035 0,0.057 0.046552,0.1034 0.1034483,0.1034 z m 0.6206896,0 c 0.056897,0 0.1034483,-0.047 0.1034483,-0.1034 0,-0.057 -0.046552,-0.1035 -0.1034483,-0.1035 -0.056897,0 -0.1034482,0.047 -0.1034482,0.1035 0,0.057 0.046552,0.1034 0.1034482,0.1034 z m 0.4137931,-0.2069 c 0.056897,0 0.1034483,-0.046 0.1034483,-0.1034 0,-0.057 -0.046552,-0.1035 -0.1034483,-0.1035 -0.056896,0 -0.1034482,0.047 -0.1034482,0.1035 0,0.057 0.046552,0.1034 0.1034482,0.1034 z m -0.4137931,-0.2069 c 0.056897,0 0.1034483,-0.046 0.1034483,-0.1034 0,-0.057 -0.046552,-0.1035 -0.1034483,-0.1035 -0.056897,0 -0.1034482,0.047 -0.1034482,0.1035 0,0.057 0.046552,0.1034 0.1034482,0.1034 z m -3.2894944,-0.2208 c 0.2390539,0.01 0.7325996,-0.09 1.0967682,-0.2169 0.3641687,-0.1269 0.6340963,-0.2584 0.5998394,-0.292 -0.034257,-0.034 -0.5278028,0.064 -1.0967683,0.2168 l -1.0344828,0.2781 0.4346435,0.014 z m 2.8757013,0.014 C 6.9534487,1041.1894 7,1041.1424 7,1041.086 c 0,-0.057 -0.046552,-0.1035 -0.1034483,-0.1035 -0.056896,0 -0.1034483,0.047 -0.1034483,0.1035 0,0.057 0.046552,0.1034 0.1034483,0.1034 z m 1.862069,-0.2069 c 0.056897,0 0.1034483,-0.046 0.1034483,-0.1034 0,-0.057 -0.046552,-0.1035 -0.1034483,-0.1035 -0.056897,0 -0.1034483,0.047 -0.1034483,0.1035 0,0.057 0.046552,0.1034 0.1034483,0.1034 z m -2.6896552,-0.4138 c 0.056897,0 0.1034483,-0.046 0.1034483,-0.1034 0,-0.057 -0.046552,-0.1034 -0.1034483,-0.1034 -0.056896,0 -0.1034483,0.046 -0.1034483,0.1034 0,0.057 0.046552,0.1034 0.1034483,0.1034 z m 0.4137931,-0.2068 c 0.056897,0 0.1034483,-0.047 0.1034483,-0.1035 0,-0.057 -0.046552,-0.1034 -0.1034483,-0.1034 -0.056897,0 -0.1034483,0.046 -0.1034483,0.1034 0,0.057 0.046552,0.1035 0.1034483,0.1035 z m 1.4482759,-0.6207 c 0.056896,0 0.1034483,-0.047 0.1034483,-0.1035 0,-0.057 -0.046552,-0.1034 -0.1034483,-0.1034 -0.056897,0 -0.1034483,0.047 -0.1034483,0.1034 0,0.057 0.046552,0.1035 0.1034483,0.1035 z"
         id="path3792" />
      <path
         style="fill:#b8c69f"
         d="m 6.1959659,1049.8795 -0.1589237,0 -0.252258,-1.3691 -0.252258,-1.369 -0.7146923,-1.4192 -0.714692,-1.4192 -0.1978676,-1.298 c -0.1088274,-0.7138 -0.2592724,-1.5074 -0.3343223,-1.7634 l -0.1364547,-0.4656 0.4119114,0 c 0.2265513,0 0.7987541,-0.1364 1.271562,-0.3033 0.4728079,-0.1668 1.3676977,-0.6405 1.9886445,-1.0526 l 1.128994,-0.7494 0.2207265,0.074 0.2207268,0.074 -1.4735468,0.8826 -1.4735469,0.8826 -1.0030291,0.2316 -1.0030291,0.2315 0.1603614,0.4339 c 0.088199,0.2387 0.2231888,0.9215 0.2999783,1.5174 l 0.1396169,1.0835 0.7150291,1.492 0.7150293,1.492 0.2311295,1.1748 0.2311295,1.1748 1.4781145,-0.9117 1.4781147,-0.9118 1.4054872,-0.4189 1.405488,-0.4189 -0.371005,-0.4719 c -0.204052,-0.2595 -0.810769,-1.0526 -1.348258,-1.7625 l -0.9772531,-1.2906 -0.211248,-0.7605 c -0.1161865,-0.4184 -0.2117675,-0.9701 -0.2124021,-1.2261 -6.345e-4,-0.2561 -0.050981,-0.4656 -0.1118814,-0.4656 -0.0609,0 -0.3361162,0.1477 -0.6115911,0.3282 l -0.5008637,0.3282 -0.2479622,-0.1532 -0.2479624,-0.1533 0.1476259,0.2389 0.147626,0.2388 -0.2191069,0 -0.219107,0 0,-0.2819 c 0,-0.155 0.277927,-0.6438 0.6176158,-1.0862 0.3396885,-0.4423 0.9215851,-1.1064 1.2931034,-1.4756 l 0.6754877,-0.6714 0.3123006,0 0.3123005,-10e-4 0.241465,0.3866 0.241465,0.3867 -0.8262021,0.803 -0.8262018,0.803 0.1311279,0.8872 c 0.07212,0.488 0.258691,1.1926 0.4146014,1.5657 0.1559105,0.3731 0.8013956,1.3404 1.4344116,2.1494 0.633017,0.809 1.150939,1.5583 1.150939,1.665 l 0,0.1941 -1.396552,0.4614 -1.3965517,0.4614 -1.3862803,0.811 c -0.7624541,0.4461 -1.4429489,0.9028 -1.5122104,1.0148 -0.069262,0.1121 -0.1974457,0.2038 -0.2848537,0.2038 z m 0.5733424,-1.6552 -0.1831014,0 0,-0.3225 0,-0.3226 -0.2068966,0.1279 -0.2068965,0.1278 0,-0.315 0,-0.3151 1.2066174,-0.3704 1.2066174,-0.3704 -0.077363,-0.2321 -0.077363,-0.2321 0.646885,-0.5443 0.6468851,-0.5443 0.2175227,0.1344 0.2175226,0.1345 -0.4936616,0.3796 -0.4936618,0.3796 0.2068965,0 c 0.1137931,0 0.3835438,-0.1357 0.599446,-0.2991 l 0.3925499,-0.2972 0.176416,0.1091 0.176416,0.109 0,0.5272 0,0.5271 -0.310345,-0.1191 -0.310345,-0.1191 0,0.2095 0,0.2095 -0.2586206,-0.053 c -0.1422414,-0.029 -0.7136464,0.083 -1.2697891,0.2496 l -1.0111686,0.3029 -0.30573,0.4655 c -0.1681517,0.256 -0.3881258,0.4655 -0.4888316,0.4655 z m -0.5747589,-3.1034 -0.3916574,0 -0.1262553,-0.329 -0.1262551,-0.3291 0.1299817,-0.2103 0.1299815,-0.2103 0.1699045,0.2749 0.1699045,0.2749 0.1367139,-0.3562 0.136714,-0.3563 0.2882091,0 0.2882092,0 0,-0.2069 0,-0.2069 -0.2097039,0 c -0.1153372,0 -0.416064,0.1164 -0.6682819,0.2586 -0.2522176,0.1423 -0.5705487,0.3983 -0.7074021,0.569 l -0.2488243,0.3103 -0.2397273,-0.2361 -0.2397275,-0.2362 -0.032822,-0.8498 -0.032822,-0.8499 -0.1551725,-2e-4 -0.1551724,-2e-4 0,-0.5172 0,-0.5173 0.6206897,0 0.6206896,0 0,0.3104 0,0.3103 0.1847609,0 c 0.1016185,0 0.2383517,-0.1396 0.3038514,-0.3103 l 0.1190905,-0.3104 0.2256004,0 0.2256004,0 -0.1278691,0.2069 -0.1278691,0.2069 0.3225553,0 0.3225552,0 0,0.2134 c 0,0.1174 -0.1396552,0.267 -0.3103448,0.3325 l -0.3103449,0.1191 0,0.2537 0,0.2537 0.362069,0 0.362069,0 0.1551724,-0.2273 0.1551724,-0.2273 0.1877545,0.2915 0.1877545,0.2916 -0.1073423,0.2798 -0.1073421,0.2797 0.3333807,-0.1279 0.3333809,-0.128 0,0.2291 0,0.229 -0.2068965,0 -0.2068966,0 0,0.3233 0,0.3234 -0.362069,-0.037 c -0.1991379,-0.02 -0.4784482,-0.026 -0.6206896,-0.013 l -0.2586207,0.024 0,0.3103 0,0.3104 -0.3916575,0 z m -0.3324804,-1.6552 c 0.056896,0 0.1034482,-0.047 0.1034482,-0.1034 0,-0.057 -0.046552,-0.1035 -0.1034482,-0.1035 -0.056897,0 -0.1034483,0.047 -0.1034483,0.1035 0,0.057 0.046552,0.1034 0.1034483,0.1034 z m -0.6206897,-0.6207 c 0.056897,0 0.1034483,-0.046 0.1034483,-0.1034 0,-0.057 -0.046552,-0.1035 -0.1034483,-0.1035 -0.056897,0 -0.1034483,0.047 -0.1034483,0.1035 0,0.057 0.046552,0.1034 0.1034483,0.1034 z"
         id="path3790" />
      <path
         style="fill:#d8e62a"
         d="m 6.1959659,1049.8795 -0.1589237,0 -0.252258,-1.3691 -0.252258,-1.369 -0.7146923,-1.4192 -0.714692,-1.4192 -0.1978676,-1.298 c -0.1088274,-0.7138 -0.2592724,-1.5074 -0.3343223,-1.7634 l -0.1364547,-0.4656 0.4119114,0 c 0.2265513,0 0.7987541,-0.1364 1.271562,-0.3033 0.4728079,-0.1668 1.355357,-0.6323 1.9612204,-1.0344 0.6058632,-0.4022 1.2315881,-0.7291 1.3904996,-0.7265 l 0.28893,0 -1.7334236,1.016 -1.7334236,1.016 -0.8152934,0.1378 -0.8152935,0.1377 0.1448129,0.3415 c 0.079647,0.1878 0.2273195,0.8535 0.3281611,1.4794 l 0.1833484,1.1379 0.6976656,1.5518 0.6976653,1.5517 0.2444555,1.1896 c 0.1344505,0.6544 0.2906183,1.1897 0.3470398,1.1897 0.056421,0 0.3989584,-0.2223 0.7611935,-0.4941 0.3622351,-0.2718 1.1241265,-0.7244 1.693092,-1.0059 0.5689655,-0.2814 1.5239983,-0.672 2.1222943,-0.8679 l 1.087811,-0.3561 -0.147221,-0.2414 c -0.08097,-0.1328 -0.547093,-0.7338 -1.035826,-1.3354 -0.488733,-0.6017 -1.0637722,-1.4396 -1.2778656,-1.8621 l -0.3892606,-0.7681 -0.1464277,-0.8793 -0.1464277,-0.8794 -0.2773806,0 c -0.1525596,0 -0.4296714,0.1523 -0.6158045,0.3385 l -0.3384235,0.3384 -0.2147462,-0.2148 -0.2147463,-0.2147 0.4817665,-0.6926 c 0.2649716,-0.381 0.8054533,-1.0418 1.2010703,-1.4685 l 0.719304,-0.7759 0.3220355,0 0.3220354,0 0.241465,0.3866 0.241465,0.3867 -0.8262021,0.803 -0.8262018,0.803 0.1311279,0.8872 c 0.07212,0.488 0.258691,1.1926 0.4146014,1.5657 0.1559105,0.3731 0.8013956,1.3404 1.4344116,2.1494 0.633017,0.809 1.150939,1.5583 1.150939,1.665 l 0,0.1941 -1.396552,0.4614 -1.3965517,0.4614 -1.3862803,0.811 c -0.7624541,0.4461 -1.4429489,0.9028 -1.5122104,1.0148 -0.069262,0.1121 -0.1974457,0.2038 -0.2848537,0.2038 z m 1.0410196,-2.1637 -0.3889489,0.4945 -0.1166595,-0.1167 -0.1166594,-0.1166 0.1122289,-0.2925 0.1122288,-0.2925 -0.3851048,0.1446 -0.3851051,0.1445 0.2917684,-0.3585 0.2917684,-0.3585 0.2341403,0.09 0.2341403,0.09 0.3929456,-0.2873 0.3929458,-0.2874 0.465487,0 0.4654868,0 0.1264045,-0.2045 0.1264045,-0.2045 -0.3210906,0.1232 -0.3210906,0.1232 0,-0.214 c 0,-0.1177 0.2453143,-0.407 0.5451432,-0.6428 0.2998287,-0.2359 0.6401206,-0.4288 0.7562042,-0.4288 l 0.2110612,0 -0.3941353,0.4488 -0.3941354,0.4489 0.3103448,-0.1187 c 0.1706897,-0.065 0.4732759,-0.1841 0.6724134,-0.2641 l 0.362069,-0.1454 0,0.3325 c 0,0.1828 -0.02327,0.4001 -0.05172,0.4828 -0.02845,0.083 -0.237931,0.1775 -0.465517,0.2106 -0.2275862,0.033 -0.8548543,0.2053 -1.3939293,0.3826 l -0.980136,0.3225 -0.3889492,0.4944 z m -1.0304718,-2.5949 c -0.087031,0 -0.269962,-0.1118 -0.4065137,-0.2483 -0.1365517,-0.1366 -0.2482759,-0.3327 -0.2482759,-0.4359 l 0,-0.1877 0.2851335,0.1094 0.2851334,0.1094 0.2424528,-0.2424 c 0.133349,-0.1334 0.3529018,-0.2425 0.4878952,-0.2425 l 0.2454424,0 0.069728,-0.362 0.069728,-0.3621 -0.3001818,0 -0.3001821,0 -0.2575633,0.3103 c -0.1416597,0.1707 -0.3758573,0.3104 -0.5204391,0.3104 l -0.2628758,0 -0.1190904,0.3103 -0.1190905,0.3104 -0.2198835,0 -0.2198834,0 -0.1305714,-0.3403 -0.1305714,-0.3402 0.3835055,-0.2805 0.3835054,-0.2804 -0.5050612,0 -0.5050614,0 0.3103448,-0.2006 0.3103449,-0.2006 -0.2521273,0 -0.2521272,0 0.1321146,-0.3443 0.1321144,-0.3443 -0.2420561,0.1496 -0.2420564,0.1496 0,-0.2021 c 0,-0.1112 0.056513,-0.3495 0.125584,-0.5295 l 0.1255839,-0.3273 0.3813767,0 0.3813768,0 0.2052279,0.3621 0.2052278,0.3621 0.3157142,-0.4138 0.3157142,-0.4138 0.00658,0.3556 0.00658,0.3555 0.3103448,-0.1191 0.3103449,-0.119 0,0.2069 c 0,0.1137 -0.1396552,0.2604 -0.3103449,0.3259 l -0.3103448,0.1191 0,0.29 0,0.29 0.6724138,-0.025 0.6724138,-0.025 -0.065562,0.3828 -0.065562,0.3828 0.2558938,-0.1581 0.2558938,-0.1582 -0.1386079,0.3612 c -0.076233,0.1987 -0.1386066,0.4568 -0.1386066,0.5736 l 0,0.2124 -0.5089643,-0.1277 -0.508964,-0.1277 -0.2224531,0.4156 c -0.1223494,0.2286 -0.2936603,0.4157 -0.3806911,0.4157 z m -0.3444447,-1.6552 c 0.056896,0 0.1034482,-0.047 0.1034482,-0.1034 0,-0.057 -0.046552,-0.1035 -0.1034482,-0.1035 -0.056897,0 -0.1034483,0.047 -0.1034483,0.1035 0,0.057 0.046552,0.1034 0.1034483,0.1034 z m -0.4260036,-0.6207 0.3225553,0 0,-0.2069 c 0,-0.1138 -0.087609,-0.2069 -0.1946861,-0.2069 -0.1070775,0 -0.2522272,0.093 -0.3225553,0.2069 l -0.1278691,0.2069 0.3225552,0 z m -0.4015826,-0.6207 c 0.056896,0 0.1034482,-0.047 0.1034482,-0.1034 0,-0.057 -0.046552,-0.1035 -0.1034482,-0.1035 -0.056897,0 -0.1034483,0.047 -0.1034483,0.1035 0,0.057 0.046552,0.1034 0.1034483,0.1034 z"
         id="path3788" />
      <path
         style="fill:#a2ae8b"
         d="m 6.1959659,1049.8795 -0.1589237,0 -0.252258,-1.3691 -0.252258,-1.369 -0.7146923,-1.4192 -0.714692,-1.4192 -0.1978676,-1.298 c -0.1088274,-0.7138 -0.2592724,-1.5074 -0.3343223,-1.7634 l -0.1364547,-0.4656 0.4119114,0 c 0.2265513,0 0.7987541,-0.1364 1.271562,-0.3033 0.4728079,-0.1668 1.3698629,-0.6419 1.9934555,-1.0558 l 1.1338051,-0.7526 0.2889797,0.1109 0.2889796,0.1109 0.3618505,-0.3999 0.3618503,-0.3998 0.4334509,0.021 0.4334507,0.021 -0.5172413,0.1439 -0.5172414,0.1439 0.1034483,0.1292 0.1034483,0.1291 -0.4955917,0.5276 -0.4955918,0.5275 -0.2285462,-0.1274 -0.2285462,-0.1274 0.2589292,0.2789 0.2589294,0.2789 0.8086018,-0.7895 0.8086016,-0.7896 0.244927,0.1514 0.244927,0.1513 -0.8687824,0.8852 -0.868782,0.8853 0.148654,0.8798 c 0.08176,0.484 0.2719421,1.175 0.4226273,1.5356 0.1506853,0.3607 0.7918951,1.3177 1.4249111,2.1267 0.633017,0.809 1.150939,1.5583 1.150939,1.665 l 0,0.1941 -1.396552,0.4614 -1.3965517,0.4614 -1.3862803,0.811 c -0.7624541,0.4461 -1.4429489,0.9028 -1.5122104,1.0148 -0.069262,0.1121 -0.1974457,0.2038 -0.2848537,0.2038 z m 0.1083693,-0.4138 c 0.056421,0 0.3989584,-0.2223 0.7611935,-0.4941 0.3622351,-0.2718 1.1241265,-0.7244 1.693092,-1.0059 0.5689655,-0.2814 1.5239983,-0.672 2.1222943,-0.8679 l 1.087811,-0.3561 -0.147221,-0.2414 c -0.08097,-0.1328 -0.547093,-0.7338 -1.035826,-1.3354 -0.488733,-0.6017 -1.0623415,-1.4396 -1.2746862,-1.8621 -0.2123446,-0.4225 -0.4535522,-1.1405 -0.5360169,-1.5957 -0.082465,-0.4552 -0.2579834,-0.9619 -0.390042,-1.1259 l -0.2401063,-0.2984 0.2243478,0.1342 0.2243479,0.1342 0.9049366,-0.9221 0.9049361,-0.922 -0.209387,0 c -0.115164,0 -0.5252263,0.3258 -0.9112504,0.7241 l -0.7018622,0.7242 -0.3883773,0 -0.3883773,0 0.079182,-0.3621 0.079182,-0.3621 0.2216981,0.043 0.2216982,0.043 0.3867039,-0.4537 0.3867039,-0.4537 -0.3293811,0.2532 -0.3293814,0.2533 -0.1160727,-0.1161 -0.1160727,-0.1161 -1.6235114,0.9338 -1.6235117,0.9338 -0.7882688,0.1405 -0.7882686,0.1404 0.1429851,0.3368 c 0.078642,0.1852 0.225492,0.8487 0.3263336,1.4746 l 0.1833484,1.1379 0.6976656,1.5518 0.6976653,1.5517 0.2444555,1.1896 c 0.1344505,0.6544 0.2906183,1.1897 0.3470398,1.1897 z m 0.9326503,-1.7499 -0.3889489,0.4945 -0.1166595,-0.1167 -0.1166594,-0.1166 0.1122289,-0.2925 0.1122288,-0.2925 -0.3851048,0.1446 -0.3851051,0.1445 0.2917684,-0.3585 0.2917684,-0.3585 0.2341403,0.09 0.2341403,0.09 0.3929456,-0.2873 0.3929458,-0.2874 0.465487,0 0.4654868,0 0.1264045,-0.2045 0.1264045,-0.2045 -0.3210906,0.1232 -0.3210906,0.1232 0,-0.214 c 0,-0.1177 0.2453143,-0.407 0.5451432,-0.6428 0.2998287,-0.2359 0.6401206,-0.4288 0.7562042,-0.4288 l 0.2110612,0 -0.3941353,0.4488 -0.3941354,0.4489 0.3103448,-0.1187 c 0.1706897,-0.065 0.4732759,-0.1841 0.6724134,-0.2641 l 0.362069,-0.1454 0,0.3325 c 0,0.1828 -0.02327,0.4001 -0.05172,0.4828 -0.02845,0.083 -0.237931,0.1775 -0.465517,0.2106 -0.2275862,0.033 -0.8548543,0.2053 -1.3939293,0.3826 l -0.980136,0.3225 -0.3889492,0.4944 z m -1.0304718,-2.5949 c -0.087031,0 -0.269962,-0.1118 -0.4065137,-0.2483 -0.1365517,-0.1366 -0.2482759,-0.3327 -0.2482759,-0.4359 l 0,-0.1877 0.2851335,0.1094 0.2851334,0.1094 0.2424528,-0.2424 c 0.133349,-0.1334 0.3529018,-0.2425 0.4878952,-0.2425 l 0.2454424,0 0.069728,-0.362 0.069728,-0.3621 -0.3001818,0 -0.3001821,0 -0.2575633,0.3103 c -0.1416597,0.1707 -0.3758573,0.3104 -0.5204391,0.3104 l -0.2628758,0 -0.1190904,0.3103 -0.1190905,0.3104 -0.2198835,0 -0.2198834,0 -0.1305714,-0.3403 -0.1305714,-0.3402 0.3835055,-0.2805 0.3835054,-0.2804 -0.5050612,0 -0.5050614,0 0.3103448,-0.2006 0.3103449,-0.2006 -0.2521273,0 -0.2521272,0 0.1321146,-0.3443 0.1321144,-0.3443 -0.2420561,0.1496 -0.2420564,0.1496 0,-0.2021 c 0,-0.1112 0.056513,-0.3495 0.125584,-0.5295 l 0.1255839,-0.3273 0.3813767,0 0.3813768,0 0.2052279,0.3621 0.2052278,0.3621 0.3157142,-0.4138 0.3157142,-0.4138 0.00658,0.3556 0.00658,0.3555 0.3103448,-0.1191 0.3103449,-0.119 0,0.2069 c 0,0.1137 -0.1396552,0.2604 -0.3103449,0.3259 l -0.3103448,0.1191 0,0.29 0,0.29 0.6724138,-0.025 0.6724138,-0.025 -0.065562,0.3828 -0.065562,0.3828 0.2558938,-0.1581 0.2558938,-0.1582 -0.1386079,0.3612 c -0.076233,0.1987 -0.1386066,0.4568 -0.1386066,0.5736 l 0,0.2124 -0.5089643,-0.1277 -0.508964,-0.1277 -0.2224531,0.4156 c -0.1223494,0.2286 -0.2936603,0.4157 -0.3806911,0.4157 z m -0.3444447,-1.6552 c 0.056896,0 0.1034482,-0.047 0.1034482,-0.1034 0,-0.057 -0.046552,-0.1035 -0.1034482,-0.1035 -0.056897,0 -0.1034483,0.047 -0.1034483,0.1035 0,0.057 0.046552,0.1034 0.1034483,0.1034 z m -0.4260036,-0.6207 0.3225553,0 0,-0.2069 c 0,-0.1138 -0.087609,-0.2069 -0.1946861,-0.2069 -0.1070775,0 -0.2522272,0.093 -0.3225553,0.2069 l -0.1278691,0.2069 0.3225552,0 z m -0.4015826,-0.6207 c 0.056896,0 0.1034482,-0.047 0.1034482,-0.1034 0,-0.057 -0.046552,-0.1035 -0.1034482,-0.1035 -0.056897,0 -0.1034483,0.047 -0.1034483,0.1035 0,0.057 0.046552,0.1034 0.1034483,0.1034 z m 2.5984173,-0.8276 c -0.1070775,0 -0.2560556,-0.099 -0.3310627,-0.2206 l -0.1363762,-0.2207 0.1104008,-0.1104 0.110401,-0.1104 0.2206616,0.1364 c 0.1213639,0.075 0.2206616,0.224 0.2206616,0.331 0,0.1071 -0.087609,0.1947 -0.1946861,0.1947 z m 0.918824,-2.0689 c -0.056896,0 -0.1034482,-0.047 -0.1034482,-0.1035 0,-0.057 0.046552,-0.1034 0.1034482,-0.1034 0.056897,0 0.1034483,0.047 0.1034483,0.1034 0,0.057 -0.046552,0.1035 -0.1034483,0.1035 z"
         id="path3786" />
      <path
         style="fill:#8b9475"
         d="m 6.1602034,1049.8795 -0.1946862,0 0.00317,-0.4655 0.00317,-0.4655 0.1727919,0.2725 0.1727922,0.2725 0.980335,-0.6617 c 0.5391844,-0.3639 1.6005195,-0.9262 2.3585226,-1.2496 0.7580031,-0.3234 1.5356241,-0.5906 1.7280461,-0.5937 0.192422,0 0.399479,-0.086 0.460126,-0.184 l 0.110268,-0.1784 -1.138043,-1.4647 -1.1380431,-1.4646 -0.3048418,-0.7296 c -0.1676632,-0.4013 -0.3054155,-0.8955 -0.3061167,-1.0983 -7.035e-4,-0.2028 -0.1364251,-0.6278 -0.301609,-0.9445 l -0.3003344,-0.5758 0.1638879,0.1013 0.163888,0.1013 0.9049365,-0.9221 0.9049376,-0.922 -0.209387,0 c -0.115164,0 -0.5252265,0.3258 -0.9112506,0.7241 l -0.7018622,0.7242 -0.3732068,0 -0.3732068,0 0,-0.2424 c 0,-0.1333 0.1540849,-0.4126 0.3424113,-0.6207 l 0.3424111,-0.3783 -0.227014,0 c -0.1248575,0 -0.8142875,0.3663 -1.5320662,0.8139 l -1.3050526,0.814 -0.6206896,0.1202 -0.6206897,0.1202 0.7765831,-0.3029 c 0.4271206,-0.1666 1.2891941,-0.6431 1.9157191,-1.059 l 1.139136,-0.7561 0.2889797,0.1109 0.2889796,0.1109 0.3618505,-0.3999 0.3618503,-0.3998 0.4334509,0.021 0.4334509,0.021 -0.5172415,0.1439 -0.5172414,0.1439 0.1034483,0.1292 0.1034483,0.1291 -0.4955917,0.5276 -0.4955918,0.5275 -0.2285462,-0.1274 -0.2285462,-0.1274 0.2589292,0.2789 0.2589294,0.2789 0.8086018,-0.7895 0.8086018,-0.7896 0.244927,0.1514 0.244927,0.1513 -0.8687826,0.8852 -0.868782,0.8853 0.148654,0.8798 c 0.08176,0.484 0.2719421,1.175 0.4226273,1.5356 0.1506853,0.3607 0.7918953,1.3177 1.4249113,2.1267 0.633017,0.809 1.150939,1.5583 1.150939,1.665 l 0,0.1941 -1.396552,0.4614 -1.3965519,0.4614 -1.3862803,0.811 c -0.7624541,0.4461 -1.4429489,0.9028 -1.5122104,1.0148 -0.069262,0.1121 -0.2135388,0.2038 -0.3206162,0.2038 z m 2.327388,-10.3448 c 0.056897,0 0.2719632,-0.1862 0.4779258,-0.4138 0.2059627,-0.2276 0.3279259,-0.4138 0.2710294,-0.4138 -0.056897,0 -0.2719633,0.1862 -0.4779259,0.4138 -0.2059626,0.2276 -0.3279259,0.4138 -0.2710293,0.4138 z m -2.5919471,9.1551 -0.1043557,0.2587 0,-0.5173 0,-0.5172 0.1043557,0.2586 0.1043558,0.2586 -0.1043558,0.2586 z m 1.4739096,-1.1472 -0.5764505,0.5522 0,-0.3425 0,-0.3426 -0.3620689,0.1357 -0.362069,0.1357 0.2917684,-0.3585 0.2917684,-0.3585 0.2341403,0.09 0.2341403,0.09 0.3929456,-0.2873 0.3929458,-0.2874 0.4259733,0 c 0.2342851,0 0.5656283,-0.1036 0.7363179,-0.2264 l 0.3103448,-0.2233 -0.3620689,0.1165 -0.362069,0.1165 0,-0.2801 0,-0.28 0.5099622,-0.3342 c 0.2804791,-0.1838 0.5830653,-0.331 0.6724137,-0.3272 0.089348,0 -0.070307,0.2038 -0.3547897,0.4444 l -0.5172414,0.4376 0.5689656,-0.138 0.5689652,-0.1381 0,0.4398 0,0.4399 -0.3037187,-0.1165 -0.303719,-0.1166 -0.1057688,0.1712 c -0.058173,0.094 -0.4069241,0.2313 -0.775003,0.3049 l -0.6692344,0.1339 -0.5764502,0.5523 z m -1.6764958,0.1 -0.108666,0.2716 -0.016334,-0.3966 -0.016334,-0.3965 0.1250001,0.125 0.1249999,0.125 -0.108666,0.2715 z m -0.2000657,-0.7387 c -0.036249,0.036 -0.3646065,-0.5398 -0.7296844,-1.2801 l -0.6637775,-1.3461 -0.196062,-1.2852 c -0.1078341,-0.7069 -0.2574666,-1.4947 -0.3325165,-1.7507 l -0.1364547,-0.4656 0.489648,0.024 0.4896478,0.024 -0.3772603,0.098 -0.3772606,0.098 0.1371141,0.344 c 0.075413,0.1892 0.21557,0.8845 0.3114608,1.5452 l 0.174347,1.2013 0.6383524,1.3641 c 0.3510939,0.7503 0.6086946,1.3938 0.5724459,1.43 z m 4.9543756,-0.6966 -0.104355,0.2586 0,-0.5172 0,-0.5173 0.104355,0.2586 0.104356,0.2587 -0.104356,0.2586 z m -4.2993891,-1.0862 c -0.072487,0 -0.2408193,-0.1314 -0.3740715,-0.292 l -0.2422764,-0.2919 0.2169432,-0.1341 0.216943,-0.134 0.00629,0.2708 0.00629,0.2708 0.2108859,-0.362 0.2108857,-0.3621 0.4035124,0 0.4035125,0 0,-0.4138 0,-0.4138 -0.4202866,0 -0.4202866,0 -0.1190904,0.3103 -0.1190905,0.3104 -0.2660735,0 -0.2660736,0 -0.1190904,0.3103 c -0.0655,0.1707 -0.2151162,0.3104 -0.3324805,0.3104 l -0.21339,0 0.014541,-0.569 0.014543,-0.5689 0.1778129,0.4137 0.1778129,0.4138 0.014543,-0.4655 0.014541,-0.4655 -0.4655173,-0.016 -0.4655172,-0.016 0.236657,-0.097 0.2366569,-0.097 -0.1056151,-0.4039 c -0.058089,-0.2221 -0.1791436,-0.4039 -0.2690116,-0.4039 l -0.1633964,0 0.101441,-0.3879 0.101441,-0.3879 0.3447068,0.026 0.3447066,0.026 0.254689,0.3103 0.2546891,0.3104 0.2265794,-0.3104 0.2265795,-0.3103 0.1049383,0.2586 0.1049386,0.2586 0.3448274,0.01 0.3448277,0.01 -0.4137931,0.2513 c -0.2275862,0.1382 -0.4413619,0.3805 -0.4750569,0.5385 l -0.061264,0.2872 0.7336775,-0.119 0.7336776,-0.1191 0,0.4008 0,0.4008 0.23223,0 0.2322297,0 -0.2304347,0.2777 -0.230435,0.2776 0.1529533,0.153 0.1529532,0.1529 -0.5549164,-0.1393 -0.5549164,-0.1392 -0.2702899,0.4328 c -0.1486593,0.238 -0.3295974,0.4328 -0.4020846,0.4328 z m -0.2514271,-1.7242 0.1379309,-0.1379 -0.1379309,-0.1379 -0.1379311,-0.138 0,0.2759 0,0.2759 0.1379311,-0.138 z m -0.4604864,-0.5517 0.3225553,0 0,-0.2069 c 0,-0.1138 -0.087609,-0.2069 -0.1946861,-0.2069 -0.1070775,0 -0.2522272,0.093 -0.3225553,0.2069 l -0.1278691,0.2069 0.3225552,0 z m -0.4015826,-0.6207 c 0.056896,0 0.1034482,-0.047 0.1034482,-0.1034 0,-0.057 -0.046552,-0.1035 -0.1034482,-0.1035 -0.056897,0 -0.1034483,0.047 -0.1034483,0.1035 0,0.057 0.046552,0.1034 0.1034483,0.1034 z m 2.6185305,-0.951 -0.2106277,0.1302 -0.1384622,-0.2241 -0.1384622,-0.224 0.1276142,-0.1276 0.1276142,-0.1276 0.2214757,0.2215 0.2214757,0.2214 -0.2106277,0.1302 z"
         id="path3784" />
      <path
         style="fill:#7a8366"
         d="m 6.1043984,1049.8795 -0.1388812,0 0.024,-0.4655 0.024,-0.4655 0.08975,0.3367 0.08975,0.3368 1.3507171,-0.9057 c 0.7428943,-0.4982 1.4598101,-0.9055 1.5931463,-0.9052 l 0.2424289,5e-4 -1.2413793,0.7442 c -0.6827586,0.4093 -1.3883654,0.8745 -1.5680153,1.0339 -0.1796498,0.1594 -0.3891325,0.2898 -0.4655173,0.2898 z m -0.2087541,-1.1897 -0.1043557,0.2587 0,-0.5173 0,-0.5172 0.1043557,0.2586 0.1043558,0.2586 -0.1043558,0.2586 z m 1.3770679,-1.0906 -0.4796088,0.4617 0,-0.3256 0,-0.3256 -0.3620689,0.1357 -0.362069,0.1357 0.2737475,-0.3368 0.2737476,-0.3368 0.2742902,0.1053 0.2742904,0.1052 0.1365862,-0.221 0.1365865,-0.221 0.4533069,-7e-4 0.4533068,-8e-4 0.684852,-0.4175 0.6848522,-0.4176 0.1944581,0.1202 c 0.1069521,0.066 0.1944581,0.2133 0.1944581,0.3271 l 0,0.2069 -0.1746138,-0.1079 -0.1746141,-0.108 -1.0009495,0.38 -1.0009496,0.3799 -0.4796088,0.4616 z m -1.5796541,0.043 -0.108666,0.2716 -0.016334,-0.3966 -0.016334,-0.3965 0.1250001,0.125 0.1249999,0.125 -0.108666,0.2715 z m 4.0887567,0.06 c -0.2213775,0.064 -0.030091,-0.064 0.4250822,-0.286 0.455172,-0.2217 0.985022,-0.4101 1.177444,-0.4185 0.192423,-0.01 0.408748,-0.1106 0.480724,-0.2271 l 0.130866,-0.2117 -0.804501,-0.978 c -0.442475,-0.5378 -1.007939,-1.2716 -1.2565861,-1.6305 -0.2486468,-0.3589 -0.4520853,-0.7107 -0.4520853,-0.7817 0,-0.071 0.6051724,0.6641 1.3448274,1.6335 0.739655,0.9694 1.344828,1.8458 1.344828,1.9475 l 0,0.185 -0.994048,0.3251 c -0.546726,0.1789 -1.175174,0.3779 -1.3965512,0.4424 z m -4.278863,-0.809 c -0.041726,0.042 -0.3745659,-0.5299 -0.7396438,-1.2702 l -0.6637775,-1.3461 -0.196062,-1.2852 c -0.1078341,-0.7069 -0.2574666,-1.4947 -0.3325165,-1.7507 l -0.1364547,-0.4656 0.489648,0.024 0.4896478,0.024 -0.3772603,0.098 -0.3772606,0.098 0.1370628,0.344 c 0.075384,0.1892 0.2218719,0.9285 0.3255277,1.643 l 0.1884654,1.299 0.6342447,1.2564 c 0.3488348,0.691 0.6001053,1.2906 0.558379,1.3323 z m 4.9444162,-0.6867 -0.104355,0.2586 0,-0.5172 0,-0.5173 0.104355,0.2586 0.104356,0.2587 -0.104356,0.2586 z m -1.5179157,-0.052 -0.3464098,0 0.485923,-0.5173 c 0.2672576,-0.2845 0.5860732,-0.5143 0.7084788,-0.5106 L 10,1045.134 l -0.4137931,0.3184 -0.4137931,0.3184 0.051724,0.1923 0.051724,0.1923 -0.3464098,0 z M 6.2068966,1045.12 c -0.094828,0 -0.2344829,-0.062 -0.3103448,-0.138 -0.075862,-0.076 -0.1365054,-0.2853 -0.1347629,-0.4655 l 0.00317,-0.3276 0.1925983,0.3046 0.1925984,0.3045 0.1367139,-0.3562 0.136714,-0.3563 0.3916574,0 0.3916575,0 0,-0.4138 0,-0.4138 -0.4202866,0 -0.4202866,0 -0.1112668,0.29 -0.1112669,0.2899 -0.3994811,0.1045 -0.399481,0.1045 0,-0.4786 0,-0.4785 -0.4655173,0.09 -0.4655172,0.09 0.4921136,-0.2159 0.4921134,-0.2159 0.2944613,0.3652 0.2944616,0.3652 -0.1398635,-0.5172 c -0.076925,-0.2845 -0.1764008,-0.5576 -0.2210576,-0.6069 -0.044657,-0.049 -0.1913667,0.021 -0.326022,0.1552 -0.1346551,0.1346 -0.3193102,0.2448 -0.4103447,0.2448 l -0.1655173,0 0,-0.3103 0,-0.3104 -0.2004031,0 -0.2004031,0 0.1145709,-0.2985 0.1145708,-0.2986 0.3444529,-0.071 0.344453,-0.071 0.254689,0.3179 0.2546891,0.3179 0.1920521,-0.2922 0.1920524,-0.2922 0.3438991,0.3439 0.3438991,0.3439 -0.3251231,0 -0.3251232,0 0,0.4373 0,0.4373 0.6483674,-0.095 0.6483675,-0.095 0.099901,0.382 0.099901,0.382 0.184519,0 0.1845192,0 -0.2500603,0.4004 -0.2500606,0.4004 -0.1673373,-0.1034 -0.1673373,-0.1034 -0.4119418,0.1307 -0.4119416,0.1308 0,0.2964 0,0.2964 -0.1724137,0 z m -1.137931,-2.9655 0.1379309,-0.138 -0.1379309,-0.1379 -0.1379311,-0.1379 0,0.2758 0,0.2759 0.1379311,-0.1379 z m 0.068965,2.3448 -0.2068965,0 0.014542,-0.569 0.014542,-0.5689 0.1778129,0.4137 c 0.097797,0.2276 0.1843569,0.4837 0.1923549,0.569 0.008,0.085 -0.078562,0.1552 -0.1923549,0.1552 z m 4.2481831,-1.698 c -0.032523,0.033 -0.1096965,-0.071 -0.1714967,-0.2322 -0.0618,-0.161 -0.1726227,-0.7004 -0.2462721,-1.1985 l -0.1339078,-0.9058 0.8328329,-0.8095 0.832833,-0.8095 -0.126846,-0.2052 -0.126847,-0.2053 0.258219,0.1596 0.258218,0.1596 -0.8769835,0.8936 -0.8769828,0.8936 0.218183,1.0995 c 0.1200006,0.6047 0.1915731,1.1268 0.15905,1.1601 z m -1.7331008,-1.5289 -0.2106277,0.1302 -0.1384622,-0.2241 -0.1384622,-0.224 0.1276142,-0.1276 0.1276142,-0.1276 0.2214757,0.2215 0.2214757,0.2214 -0.2106277,0.1302 z m -2.6185305,-0.6137 -0.6206897,0.1227 0.7562483,-0.2959 c 0.4159365,-0.1627 0.9978331,-0.4541 1.2931034,-0.6476 C 6.7584152,1039.6454 7,1039.5367 7,1039.5974 c 0,0.061 -0.3025862,0.297 -0.6724138,0.525 -0.3698276,0.2279 -0.9517241,0.4697 -1.2931034,0.5372 z m 3.2068965,-0.5042 c -0.1137931,0 -0.2068965,-0.041 -0.2068965,-0.091 0,-0.05 0.093103,-0.1488 0.2068965,-0.2191 l 0.2068966,-0.1279 0,0.2191 0,0.2192 -0.2068966,0 z m 0.4531086,0 c -0.056897,0 0.065067,-0.1863 0.2710293,-0.4138 0.2059627,-0.2276 0.4210294,-0.4138 0.4779259,-0.4138 0.056897,0 -0.065067,0.1862 -0.2710293,0.4138 -0.2059626,0.2275 -0.4210293,0.4138 -0.4779259,0.4138 z m -1.0293533,-0.8944 -0.5616863,0.3471 0.3626516,-0.392 0.3626515,-0.392 0.5121915,-0.022 0.5121914,-0.022 0.4028665,-0.3646 0.4028665,-0.3646 0.3774631,0.098 0.377463,0.098 -0.4334511,0.024 -0.4334509,0.024 -0.3941353,0.4355 c -0.2167746,0.2395 -0.3708595,0.4723 -0.3424113,0.5172 0.028448,0.045 -0.018103,0.058 -0.1034482,0.03 -0.085345,-0.028 -0.1318966,-0.1215 -0.1034483,-0.2069 l 0.051724,-0.1551 -0.2141758,0 c -0.1177967,0 -0.4669347,0.1562 -0.775862,0.347 z m 1.0934861,0.067 c 0.056897,0 0.1034483,-0.047 0.1034483,-0.1035 0,-0.057 -0.046552,-0.1034 -0.1034483,-0.1034 -0.056897,0 -0.1034483,0.047 -0.1034483,0.1034 0,0.057 0.046552,0.1035 0.1034483,0.1035 z"
         id="path3782" />
      <path
         style="fill:#606557"
         d="m 6.0827701,1049.8795 c -0.064489,0 -0.1064527,-0.2095 -0.093253,-0.4655 l 0.024,-0.4655 0.094443,0.3611 0.094444,0.3612 0.6574183,-0.4858 c 0.3615799,-0.2672 0.7970734,-0.5598 0.967763,-0.6502 l 0.3103448,-0.1643 -0.2068965,0.197 c -0.1137931,0.1083 -0.5498224,0.4478 -0.9689541,0.7544 -0.4191316,0.3067 -0.8148213,0.5576 -0.8793103,0.5576 z m -0.1871258,-1.1897 -0.1043557,0.2587 0,-0.5173 0,-0.5172 0.1043557,0.2586 0.1043558,0.2586 -0.1043558,0.2586 z m 2.7595281,-0.4821 -0.5172414,0.2463 0.4016131,-0.3217 c 0.2208871,-0.177 0.4924389,-0.3218 0.6034482,-0.3218 0.1110095,0 0.1630421,0.034 0.1156285,0.075 -0.047414,0.041 -0.3189656,0.1862 -0.6034484,0.3217 z m -1.5510825,-0.5422 -0.3109865,0.444 0,-0.3686 0,-0.3686 -0.2337376,0.1445 -0.2337377,0.1444 0.090381,-0.2711 0.090381,-0.2712 0.4019775,-0.048 c 0.2210876,-0.026 0.7216732,-0.1484 1.1124122,-0.2713 0.3907392,-0.1229 0.7461153,-0.1878 0.7897245,-0.1442 0.04361,0.044 -0.2525215,0.1888 -0.658069,0.3227 l -0.7373586,0.2433 -0.3109866,0.444 z m -1.4110318,-0.023 -0.108666,0.2716 -0.016334,-0.3966 -0.016334,-0.3965 0.1250001,0.125 0.1249999,0.125 -0.108666,0.2715 z m 3.8931488,0.1618 -0.2068966,0 0.3103449,-0.2006 c 0.1706896,-0.1103 0.4034478,-0.2005 0.5172418,-0.2005 l 0.206896,0 -0.310345,0.2005 c -0.1706894,0.1103 -0.403448,0.2006 -0.5172411,0.2006 z m 1.0344831,-0.4252 -0.206897,0.011 0.310345,-0.2006 c 0.17069,-0.1103 0.45,-0.1954 0.62069,-0.1891 l 0.310344,0.011 -0.413793,0.1778 c -0.227586,0.098 -0.506896,0.183 -0.620689,0.1892 z m -5.1183659,-0.4846 c -0.042332,0.042 -0.327845,-0.4346 -0.6344733,-1.0598 -0.3066284,-0.6252 -0.5530277,-1.2045 -0.5475545,-1.2873 0.00547,-0.083 0.2909864,0.3941 0.6344734,1.0598 0.3434867,0.6657 0.5898862,1.245 0.5475544,1.2873 z m 6.4509829,0.089 -0.219107,0 0.135926,-0.2199 0.135927,-0.2199 -0.382337,-0.4525 -0.382337,-0.4525 0.465518,0.3941 0.465517,0.3942 0,0.2783 0,0.2782 -0.219107,0 z m -2.6087993,-0.4878 -0.3789905,0.1328 0.3605911,-0.3826 0.3605911,-0.3826 0.2497538,0.2498 0.2497538,0.2498 -0.2313545,0 c -0.1272447,0 -0.4018999,0.06 -0.6103448,0.1328 z m 1.0692853,-0.1328 c -0.0569,0 -0.103448,-0.047 -0.103448,-0.1035 0,-0.057 0.04655,-0.1034 0.103448,-0.1034 0.0569,0 0.103448,0.046 0.103448,0.1034 0,0.057 -0.04655,0.1035 -0.103448,0.1035 z m -1.6872388,-0.2069 c -0.074533,0 0.033,-0.1863 0.238963,-0.4138 0.2059627,-0.2276 0.4531513,-0.4138 0.5493079,-0.4138 l 0.1748301,0 -0.4137931,0.4138 c -0.2275862,0.2275 -0.4747747,0.4138 -0.5493079,0.4138 z m 2.5468918,-0.6207 c -0.03926,0 -0.248743,-0.2095 -0.465517,-0.4656 l -0.394136,-0.4655 0.465517,0.3942 c 0.256035,0.2167 0.465518,0.4262 0.465518,0.4655 0,0.039 -0.03212,0.071 -0.07138,0.071 z m -4.8775883,-0.8496 -0.3427334,0.4544 -0.1472518,-0.1472 c -0.080988,-0.081 -0.1458261,-0.2947 -0.1440836,-0.4749 l 0.00317,-0.3276 0.1925983,0.3046 0.1925984,0.3045 0.1367139,-0.3562 0.136714,-0.3563 0.3916574,0 0.3916575,0 0,-0.4138 0,-0.4138 -0.3884597,0 -0.3884599,0 -0.2556726,0.3081 -0.2556728,0.308 -0.1617741,-0.1 -0.1617741,-0.1 -0.1186344,0.3091 -0.1186345,0.3092 -0.2651142,-0.016 -0.2651141,-0.016 0.2586207,-0.1043 0.2586207,-0.1044 0,-0.4806 0,-0.4807 -0.4655173,0.09 -0.4655172,0.09 0.4921136,-0.2159 0.4921134,-0.2159 0.2771685,0.3652 0.2771686,0.3652 0.00658,-0.5689 0.00658,-0.569 -0.2586206,0 c -0.1422414,0 -0.3982536,0.091 -0.5689161,0.1993 l -0.3102952,0.1962 -0.1406801,-0.3545 c -0.077374,-0.195 -0.1472241,-0.4709 -0.1552221,-0.6131 l -0.014542,-0.2587 0.3457777,0 0.3457779,0 0.37836,0.3424 0.3783602,0.3425 0,-0.3425 0,-0.3424 0.2162717,0 0.2162717,0 -0.1410311,0.7518 -0.1410312,0.7518 0.6680619,-0.098 0.6680619,-0.098 0.1209166,0.329 c 0.066504,0.181 0.2208112,0.3975 0.3429043,0.4811 l 0.221988,0.152 -0.2586207,0 -0.2586206,0 0,0.291 0,0.2909 -0.4410493,-0.1153 -0.441049,-0.1153 -0.3427337,0.4543 z m -1.3268921,-2.5297 0.1379309,-0.138 -0.1379309,-0.1379 -0.1379311,-0.1379 0,0.2758 0,0.2759 0.1379311,-0.1379 z m 5.3608184,2.3448 c -0.05019,0 -0.293966,-0.2847 -0.5417144,-0.6326 -0.2477487,-0.348 -0.4159221,-0.6672 -0.3737187,-0.7094 0.042203,-0.042 0.2859747,0.2425 0.5417141,0.6326 0.255739,0.3902 0.423913,0.7094 0.373719,0.7094 z m -6.1850018,-0.375 -0.108666,0.2715 -0.016334,-0.3965 -0.016334,-0.3966 0.125,0.125 0.1249999,0.125 -0.108666,0.2716 z m 0.7897006,-0.4526 c -0.056897,0 -0.1034483,-0.047 -0.1034483,-0.1035 0,-0.057 0.046552,-0.1034 0.1034483,-0.1034 0.056896,0 0.1034482,0.047 0.1034482,0.1034 0,0.057 -0.046552,0.1035 -0.1034482,0.1035 z m -0.980668,-0.2069 c -0.056896,0 -0.1561698,-0.3957 -0.2206071,-0.8793 -0.064438,-0.4836 -0.180508,-1.0888 -0.2579347,-1.3448 l -0.1407757,-0.4656 0.489648,0.024 0.4896478,0.024 -0.3772603,0.098 -0.3772606,0.098 0.1414968,0.344 c 0.077823,0.1892 0.1898712,0.7397 0.2489954,1.2233 0.059124,0.4836 0.060947,0.8793 0.00405,0.8793 z m 5.3442139,-0.6739 c -0.039076,0.039 -0.1291008,-0.08 -0.2000551,-0.2651 -0.070955,-0.1849 -0.1210055,-0.4915 -0.1112247,-0.6814 l 0.017783,-0.3451 0.1822719,0.6103 c 0.1002497,0.3356 0.1503006,0.6422 0.1112247,0.6813 z m -2.7083735,-0.5675 c -0.056897,0 -0.1034483,-0.047 -0.1034483,-0.1034 0,-0.057 0.046552,-0.1035 0.1034483,-0.1035 0.056897,0 0.1034482,0.047 0.1034482,0.1035 0,0.057 -0.046552,0.1034 -0.1034482,0.1034 z m 2.3206042,-1.2414 -0.091839,0.5173 -0.028175,-0.527 -0.028176,-0.527 0.8190171,-0.7997 0.8190165,-0.7998 -0.126846,-0.2052 -0.126847,-0.2053 0.258219,0.1596 0.258218,0.1596 -0.8303739,0.8552 -0.8303739,0.8551 -0.091839,0.5172 z m -1.4808076,0.2069 c -0.1774053,0 -0.3225552,-0.041 -0.3225552,-0.091 0,-0.05 0.08667,-0.1448 0.1926004,-0.2103 l 0.1926002,-0.119 0.129955,0.2103 0.1299548,0.2102 -0.3225552,0 z m -2.6846243,-0.4301 -0.3965516,0.016 0.1249999,-0.125 0.1250001,-0.125 0.2715517,0.1087 0.2715517,0.1087 -0.3965518,0.016 z m 0.5962688,-0.1906 c -0.090879,0 -0.1264411,-0.03 -0.079027,-0.067 0.047414,-0.037 0.4353449,-0.2775 0.862069,-0.5341 C 6.6508621,1039.7109 7,1039.5475 7,1039.6044 c 0,0.057 -0.3135755,0.2972 -0.6968346,0.5341 -0.3832591,0.2368 -0.7711902,0.4306 -0.8620691,0.4306 z m 2.800283,-0.4137 -0.275862,0 0.1379309,-0.138 0.1379311,-0.1379 0.1379311,0.1379 0.1379309,0.138 -0.275862,0 z m -0.8275862,-0.7242 c -0.1137931,0.07 -0.2068965,0.081 -0.2068965,0.024 0,-0.057 0.093103,-0.161 0.2068965,-0.2313 0.1137931,-0.07 0.2068966,-0.081 0.2068966,-0.024 0,0.057 -0.093103,0.161 -0.2068966,0.2313 z m 0.9425336,-0.4233 -0.4968077,0.022 0.110832,-0.1793 0.110832,-0.1794 0.3786878,0.099 0.3786879,0.099 0.3541663,-0.3914 0.3541664,-0.3913 0.3300027,0.016 0.3300029,0.016 -0.3103453,0.1141 c -0.1706896,0.063 -0.475286,0.2578 -0.6768811,0.4335 l -0.3665363,0.3195 -0.4968076,0.022 z"
         id="path3780" />
      <path
         style="fill:#20221e"
         d="m 6.5905205,1049.5652 -0.4094795,0.3706 -0.1333215,-0.3474 -0.1333216,-0.3474 0.1290078,-0.1291 0.1290081,-0.129 0,0.3769 0,0.3769 0.4137931,-0.3744 C 6.8137931,1049.1563 7,1049.0343 7,1049.0912 c 0,0.057 -0.1842658,0.2702 -0.4094795,0.474 z m 0.8232726,-0.6167 c -0.1137931,0.07 -0.2068965,0.081 -0.2068965,0.024 0,-0.057 0.093103,-0.161 0.2068965,-0.2313 0.1137931,-0.07 0.2068966,-0.081 0.2068966,-0.024 0,0.057 -0.093103,0.161 -0.2068966,0.2314 z m -1.5138385,-0.4785 -0.108666,0.2716 -0.016334,-0.3966 -0.016334,-0.3965 0.1250001,0.125 0.1249998,0.125 -0.108666,0.2715 z m 2.0310799,0.1681 c -0.056897,0 -0.1034483,-0.046 -0.1034483,-0.1034 0,-0.057 0.046552,-0.1035 0.1034483,-0.1035 0.056896,0 0.1034483,0.047 0.1034483,0.1035 0,0.057 -0.046552,0.1034 -0.1034483,0.1034 z m 0.7241379,-0.4138 c -0.2275862,0.1218 -0.4137931,0.1749 -0.4137931,0.118 0,-0.057 0.1862069,-0.2031 0.4137931,-0.3249 0.2275862,-0.1218 0.4137931,-0.1749 0.4137931,-0.118 0,0.057 -0.1862069,0.2031 -0.4137931,0.3249 z m -1.4660855,-0.6495 -0.3959835,0.4885 0,-0.308 0,-0.3079 0.3153447,-0.2617 c 0.1734396,-0.144 0.3516321,-0.2252 0.3959835,-0.1805 0.044351,0.045 -0.097554,0.301 -0.3153447,0.5696 z m 2.39712,0.2357 c -0.056897,0 -0.1034483,-0.047 -0.1034483,-0.1034 0,-0.057 0.046552,-0.1035 0.1034483,-0.1035 0.056896,0 0.1034483,0.047 0.1034483,0.1035 0,0.057 -0.046552,0.1034 -0.1034483,0.1034 z m -3.8965517,-0.2758 -0.1379311,0.1379 0,-0.2759 0,-0.2758 0.1379311,0.1379 0.1379309,0.1379 -0.1379309,0.138 z m 4.4137928,0.069 -0.2758617,0 0.1379309,-0.1379 0.1379308,-0.1379 0.137931,0.1379 0.137931,0.1379 -0.275862,0 z m 0.517242,-0.2069 c -0.0569,0 -0.103449,-0.046 -0.103449,-0.1034 0,-0.057 0.04655,-0.1035 0.103449,-0.1035 0.0569,0 0.103448,0.047 0.103448,0.1035 0,0.057 -0.04655,0.1034 -0.103448,0.1034 z m 0.637931,-0.2232 -0.396552,0.016 0.125,-0.125 0.125,-0.125 0.271552,0.1087 0.271551,0.1087 -0.396551,0.016 z m -5.7758623,-0.2595 -0.1379311,0.1379 0,-0.2759 0,-0.2758 0.1379311,0.1379 0.1379309,0.1379 -0.1379309,0.138 z m 2.8620689,0.069 c -0.056897,0 -0.1034483,-0.046 -0.1034483,-0.1034 0,-0.057 0.046552,-0.1035 0.1034483,-0.1035 0.056896,0 0.1034483,0.047 0.1034483,0.1035 0,0.057 -0.046552,0.1034 -0.1034483,0.1034 z m 3.6206894,0 c -0.113793,0 -0.206896,-0.041 -0.206896,-0.091 0,-0.05 0.0931,-0.1488 0.206896,-0.2191 l 0.206897,-0.1279 0,0.2191 0,0.2191 -0.206897,0 z m -6.7241377,-0.6206 c -0.056897,0 -0.1034483,-0.047 -0.1034483,-0.1035 0,-0.057 0.046552,-0.1034 0.1034483,-0.1034 0.056897,0 0.1034483,0.046 0.1034483,0.1034 0,0.057 -0.046552,0.1035 -0.1034483,0.1035 z m 4.4482759,-0.1035 c -0.1137931,0.07 -0.2068966,0.081 -0.2068966,0.024 0,-0.057 0.093103,-0.161 0.2068966,-0.2313 0.1137931,-0.07 0.2068965,-0.081 0.2068965,-0.024 0,0.057 -0.093103,0.161 -0.2068965,0.2313 z m 2.1977468,0.1035 c -0.04296,0 -0.205894,-0.163 -0.362069,-0.3621 l -0.283954,-0.3621 0.362069,0.284 c 0.199138,0.1561 0.362069,0.3191 0.362069,0.362 0,0.043 -0.03515,0.078 -0.07812,0.078 z m -3.025333,-0.3104 c -0.1137931,0.07 -0.2068966,0.081 -0.2068966,0.024 0,-0.057 0.093103,-0.161 0.2068966,-0.2313 0.1137931,-0.07 0.2068965,-0.081 0.2068965,-0.024 0,0.057 -0.093103,0.161 -0.2068965,0.2313 z m -3.8275862,-0.1034 c -0.056897,0 -0.1034483,-0.047 -0.1034483,-0.1035 0,-0.057 0.046552,-0.1034 0.1034483,-0.1034 0.056896,0 0.1034482,0.046 0.1034482,0.1034 0,0.057 -0.046552,0.1035 -0.1034482,0.1035 z m -0.2068966,-0.4138 c -0.056896,0 -0.1034483,-0.047 -0.1034483,-0.1035 0,-0.057 0.046552,-0.1034 0.1034483,-0.1034 0.056897,0 0.1034483,0.046 0.1034483,0.1034 0,0.057 -0.046552,0.1035 -0.1034483,0.1035 z m 6.2322298,-0.2069 c -0.04296,0 -0.205894,-0.163 -0.362069,-0.3621 l -0.283954,-0.3621 0.362069,0.284 c 0.199138,0.1562 0.362069,0.3191 0.362069,0.3621 0,0.043 -0.03515,0.078 -0.07812,0.078 z m -6.4391263,-0.2069 c -0.056897,0 -0.1034483,-0.047 -0.1034483,-0.1035 0,-0.057 0.046552,-0.1034 0.1034483,-0.1034 0.056897,0 0.1034482,0.046 0.1034482,0.1034 0,0.057 -0.046552,0.1035 -0.1034482,0.1035 z m -0.2068966,-0.4138 c -0.056897,0 -0.1034483,-0.047 -0.1034483,-0.1035 0,-0.057 0.046552,-0.1034 0.1034483,-0.1034 0.056897,0 0.1034483,0.047 0.1034483,0.1034 0,0.057 -0.046552,0.1035 -0.1034483,0.1035 z m 1.4482759,0 c -0.056897,0 -0.1034483,-0.047 -0.1034483,-0.1035 0,-0.057 0.046552,-0.1034 0.1034483,-0.1034 0.056896,0 0.1034482,0.047 0.1034482,0.1034 0,0.057 -0.046552,0.1035 -0.1034482,0.1035 z m 1.0888349,-0.3736 -0.5590711,0.1069 0.1093973,-0.177 c 0.060169,-0.097 0.243558,-0.177 0.407532,-0.177 l 0.2981345,0 0,-0.3986 0,-0.3987 -0.362069,-0.095 -0.362069,-0.095 0.5829079,-0.024 0.5829076,-0.024 -0.1309195,0.4125 -0.1309196,0.4125 0.3755979,-0.1423 0.3755981,-0.1423 -0.3139781,0.3172 -0.3139779,0.3172 -0.5590711,0.1068 z m -2.7061217,-0.2083 -0.108666,0.2715 -0.016334,-0.3965 -0.016334,-0.3966 0.125,0.125 0.1249999,0.125 -0.108666,0.2716 z m 5.9865348,0.1681 c -0.0569,0 -0.160989,-0.093 -0.231317,-0.2069 -0.070328,-0.1138 -0.081317,-0.2069 -0.024421,-0.2069 0.056897,0 0.160989,0.093 0.231318,0.2069 0.07033,0.1138 0.08132,0.2069 0.02442,0.2069 z m -4.6553748,-0.5322 -0.1837978,0.1136 -0.098416,-0.5149 c -0.054129,-0.2831 -0.068051,-0.5148 -0.030938,-0.5148 0.037113,0 0.1641091,0.1806 0.2822137,0.4012 l 0.2147355,0.4013 -0.1837976,0.1136 z m 4.2415821,-0.088 c -0.056897,0 -0.1609893,-0.093 -0.2313174,-0.2069 -0.070328,-0.1138 -0.081317,-0.2069 -0.024421,-0.2069 0.056896,0 0.1609893,0.093 0.2313173,0.2069 0.070328,0.1138 0.081317,0.2069 0.024421,0.2069 z m -4.9899381,-0.4138 c -0.056896,0 -0.1034483,-0.047 -0.1034483,-0.1034 0,-0.057 0.046552,-0.1035 0.1034483,-0.1035 0.056897,0 0.1034483,0.047 0.1034483,0.1035 0,0.057 -0.046552,0.1034 -0.1034483,0.1034 z m 1.2758621,-0.069 -0.1379311,0.138 0,-0.2759 0,-0.2759 0.1379311,0.138 0.1379309,0.1379 -0.1379309,0.1379 z m -2.0635191,-0.4005 -0.095377,0.3661 -0.00767,-0.6207 -0.00767,-0.6207 0.1030432,0.2547 c 0.056674,0.14 0.060123,0.4193 0.00767,0.6206 z m 1.0980018,-0.1992 c -0.2275862,0.1421 -0.4137931,0.2044 -0.4137931,0.1384 0,-0.066 0.1330049,-0.2529 0.2955664,-0.4155 0.1625618,-0.1626 0.3487687,-0.2956 0.4137931,-0.2956 0.065025,0 0.1182267,0.071 0.1182267,0.1572 0,0.086 -0.1862069,0.2734 -0.4137931,0.4155 z m 4.2413793,0.2549 c -0.056897,0 -0.1034482,-0.046 -0.1034482,-0.1034 0,-0.057 0.046552,-0.1035 0.1034482,-0.1035 0.056897,0 0.1034483,0.047 0.1034483,0.1035 0,0.057 -0.046552,0.1034 -0.1034483,0.1034 z m -0.1690109,-0.5819 -0.108666,0.2716 -0.016334,-0.3966 -0.016334,-0.3965 0.1250001,0.125 0.1249998,0.125 -0.108666,0.2715 z m -3.1068511,-0.1077 -0.1379311,0.1379 0,-0.2759 0,-0.2758 0.1379311,0.1379 0.1379309,0.1379 -0.1379309,0.138 z m -1.2413793,-0.2069 -0.1379311,0.1379 0,-0.2759 0,-0.2758 0.1379311,0.1379 0.1379309,0.1379 -0.1379309,0.138 z m -1.0328878,-0.138 c -0.05239,0 -0.1520695,-0.148 -0.22151,-0.329 l -0.1262551,-0.329 0.11633,-0.1882 0.1163299,-0.1883 0.3498586,0.024 0.3498585,0.024 -0.3706705,0.096 -0.3706707,0.096 0.1259922,0.397 c 0.069296,0.2183 0.083127,0.3969 0.030737,0.3969 z m 1.4121981,0 c -0.056897,0 -0.1034483,-0.047 -0.1034483,-0.1034 0,-0.057 0.046552,-0.1035 0.1034483,-0.1035 0.056897,0 0.1034483,0.047 0.1034483,0.1035 0,0.057 -0.046552,0.1034 -0.1034483,0.1034 z m 3.7640671,-0.6763 -0.095377,0.366 -0.00767,-0.6207 -0.00767,-0.6207 0.1030431,0.2547 c 0.056674,0.1401 0.060123,0.4194 0.00767,0.6207 z m -1.488205,0.056 c -0.056897,0 -0.1034483,-0.047 -0.1034483,-0.1034 0,-0.057 0.046552,-0.1035 0.1034483,-0.1035 0.056897,0 0.1034483,0.047 0.1034483,0.1035 0,0.057 -0.046552,0.1034 -0.1034483,0.1034 z m -2.5862069,-0.4138 -0.275862,0 0.1379309,-0.1379 0.1379311,-0.1379 0.1379311,0.1379 0.1379309,0.1379 -0.275862,0 z m 0.5466629,-0.2069 c -0.1110095,0 -0.1630422,-0.034 -0.1156285,-0.075 0.047414,-0.042 0.3189656,-0.1862 0.6034483,-0.3217 l 0.5172414,-0.2464 -0.4016131,0.3218 c -0.2208871,0.177 -0.4924388,0.3217 -0.6034481,0.3217 z m 3.824196,-0.4137 c -0.056897,0 0.164148,-0.2794 0.49121,-0.6207 0.3270626,-0.3414 0.6412106,-0.6207 0.6981066,-0.6207 0.0569,0 -0.164148,0.2793 -0.49121,0.6207 -0.3270621,0.3413 -0.6412101,0.6207 -0.6981066,0.6207 z m -2.50879,-0.3104 c -0.1137931,0.07 -0.2068965,0.081 -0.2068965,0.024 0,-0.057 0.093103,-0.161 0.2068965,-0.2313 C 6.9068966,1039.5678 7,1039.5568 7,1039.6137 c 0,0.057 -0.093103,0.161 -0.2068966,0.2313 z m 0.5172414,-0.3103 c -0.056897,0 -0.1034482,-0.047 -0.1034482,-0.1035 0,-0.057 0.046552,-0.1034 0.1034482,-0.1034 0.056897,0 0.1034483,0.046 0.1034483,0.1034 0,0.057 -0.046552,0.1035 -0.1034483,0.1035 z m 0.6206897,-0.4138 c -0.056897,0 -0.1034483,-0.047 -0.1034483,-0.1035 0,-0.057 0.046552,-0.1034 0.1034483,-0.1034 0.056896,0 0.1034483,0.046 0.1034483,0.1034 0,0.057 -0.046552,0.1035 -0.1034483,0.1035 z m 0.8915207,0 c -0.035164,0 -0.2035897,-0.093 -0.3742793,-0.2037 l -0.3103449,-0.2006 0.2464103,0 c 0.1355257,0 0.3039513,0.09 0.3742794,0.2038 0.070328,0.1138 0.099099,0.2054 0.063935,0.2037 z m 0.7097947,-0.6665 -0.5575722,0.2614 0.3371185,-0.3371 0.3371185,-0.3371 0.2204536,0.076 0.2204537,0.076 -0.5575721,0.2614 z m 0.8814431,0.2559 c -0.0569,0 -0.103448,-0.047 -0.103448,-0.1035 0,-0.057 0.04655,-0.1034 0.103448,-0.1034 0.0569,0 0.103448,0.047 0.103448,0.1034 0,0.057 -0.04655,0.1035 -0.103448,0.1035 z"
         id="path3778" />
    </g>
  </g>
</svg>
