<?xml version="1.0" encoding="UTF-8" standalone="no"?>
<!-- Created with Inkscape (http://www.inkscape.org/) -->

<svg
   xmlns:dc="http://purl.org/dc/elements/1.1/"
   xmlns:cc="http://creativecommons.org/ns#"
   xmlns:rdf="http://www.w3.org/1999/02/22-rdf-syntax-ns#"
   xmlns:svg="http://www.w3.org/2000/svg"
   xmlns="http://www.w3.org/2000/svg"
   xmlns:sodipodi="http://sodipodi.sourceforge.net/DTD/sodipodi-0.dtd"
   xmlns:inkscape="http://www.inkscape.org/namespaces/inkscape"
   width="16"
   height="16"
   id="svg2"
   version="1.1"
   inkscape:version="0.47 r22583"
   sodipodi:docname="PINGY-64.svg">
  <defs
     id="defs4">
    <inkscape:perspective
       sodipodi:type="inkscape:persp3d"
       inkscape:vp_x="0 : 526.18109 : 1"
       inkscape:vp_y="0 : 1000 : 0"
       inkscape:vp_z="744.09448 : 526.18109 : 1"
       inkscape:persp3d-origin="372.04724 : 350.78739 : 1"
       id="perspective10" />
    <inkscape:perspective
       id="perspective2824"
       inkscape:persp3d-origin="0.5 : 0.33333333 : 1"
       inkscape:vp_z="1 : 0.5 : 1"
       inkscape:vp_y="0 : 1000 : 0"
       inkscape:vp_x="0 : 0.5 : 1"
       sodipodi:type="inkscape:persp3d" />
    <inkscape:perspective
       id="perspective5878"
       inkscape:persp3d-origin="0.5 : 0.33333333 : 1"
       inkscape:vp_z="1 : 0.5 : 1"
       inkscape:vp_y="0 : 1000 : 0"
       inkscape:vp_x="0 : 0.5 : 1"
       sodipodi:type="inkscape:persp3d" />
    <inkscape:perspective
       id="perspective5921"
       inkscape:persp3d-origin="0.5 : 0.33333333 : 1"
       inkscape:vp_z="1 : 0.5 : 1"
       inkscape:vp_y="0 : 1000 : 0"
       inkscape:vp_x="0 : 0.5 : 1"
       sodipodi:type="inkscape:persp3d" />
    <inkscape:perspective
       id="perspective5943"
       inkscape:persp3d-origin="0.5 : 0.33333333 : 1"
       inkscape:vp_z="1 : 0.5 : 1"
       inkscape:vp_y="0 : 1000 : 0"
       inkscape:vp_x="0 : 0.5 : 1"
       sodipodi:type="inkscape:persp3d" />
    <inkscape:perspective
       id="perspective5989"
       inkscape:persp3d-origin="0.5 : 0.33333333 : 1"
       inkscape:vp_z="1 : 0.5 : 1"
       inkscape:vp_y="0 : 1000 : 0"
       inkscape:vp_x="0 : 0.5 : 1"
       sodipodi:type="inkscape:persp3d" />
    <inkscape:perspective
       id="perspective6011"
       inkscape:persp3d-origin="0.5 : 0.33333333 : 1"
       inkscape:vp_z="1 : 0.5 : 1"
       inkscape:vp_y="0 : 1000 : 0"
       inkscape:vp_x="0 : 0.5 : 1"
       sodipodi:type="inkscape:persp3d" />
    <inkscape:perspective
       id="perspective6033"
       inkscape:persp3d-origin="0.5 : 0.33333333 : 1"
       inkscape:vp_z="1 : 0.5 : 1"
       inkscape:vp_y="0 : 1000 : 0"
       inkscape:vp_x="0 : 0.5 : 1"
       sodipodi:type="inkscape:persp3d" />
    <inkscape:perspective
       id="perspective6245"
       inkscape:persp3d-origin="0.5 : 0.33333333 : 1"
       inkscape:vp_z="1 : 0.5 : 1"
       inkscape:vp_y="0 : 1000 : 0"
       inkscape:vp_x="0 : 0.5 : 1"
       sodipodi:type="inkscape:persp3d" />
    <inkscape:perspective
       id="perspective6269"
       inkscape:persp3d-origin="0.5 : 0.33333333 : 1"
       inkscape:vp_z="1 : 0.5 : 1"
       inkscape:vp_y="0 : 1000 : 0"
       inkscape:vp_x="0 : 0.5 : 1"
       sodipodi:type="inkscape:persp3d" />
    <inkscape:perspective
       id="perspective6364"
       inkscape:persp3d-origin="0.5 : 0.33333333 : 1"
       inkscape:vp_z="1 : 0.5 : 1"
       inkscape:vp_y="0 : 1000 : 0"
       inkscape:vp_x="0 : 0.5 : 1"
       sodipodi:type="inkscape:persp3d" />
    <inkscape:perspective
       id="perspective6396"
       inkscape:persp3d-origin="0.5 : 0.33333333 : 1"
       inkscape:vp_z="1 : 0.5 : 1"
       inkscape:vp_y="0 : 1000 : 0"
       inkscape:vp_x="0 : 0.5 : 1"
       sodipodi:type="inkscape:persp3d" />
    <inkscape:perspective
       id="perspective6438"
       inkscape:persp3d-origin="0.5 : 0.33333333 : 1"
       inkscape:vp_z="1 : 0.5 : 1"
       inkscape:vp_y="0 : 1000 : 0"
       inkscape:vp_x="0 : 0.5 : 1"
       sodipodi:type="inkscape:persp3d" />
    <inkscape:perspective
       id="perspective6460"
       inkscape:persp3d-origin="0.5 : 0.33333333 : 1"
       inkscape:vp_z="1 : 0.5 : 1"
       inkscape:vp_y="0 : 1000 : 0"
       inkscape:vp_x="0 : 0.5 : 1"
       sodipodi:type="inkscape:persp3d" />
    <inkscape:perspective
       id="perspective6480"
       inkscape:persp3d-origin="0.5 : 0.33333333 : 1"
       inkscape:vp_z="1 : 0.5 : 1"
       inkscape:vp_y="0 : 1000 : 0"
       inkscape:vp_x="0 : 0.5 : 1"
       sodipodi:type="inkscape:persp3d" />
    <inkscape:perspective
       id="perspective6504"
       inkscape:persp3d-origin="0.5 : 0.33333333 : 1"
       inkscape:vp_z="1 : 0.5 : 1"
       inkscape:vp_y="0 : 1000 : 0"
       inkscape:vp_x="0 : 0.5 : 1"
       sodipodi:type="inkscape:persp3d" />
    <inkscape:perspective
       id="perspective6524"
       inkscape:persp3d-origin="0.5 : 0.33333333 : 1"
       inkscape:vp_z="1 : 0.5 : 1"
       inkscape:vp_y="0 : 1000 : 0"
       inkscape:vp_x="0 : 0.5 : 1"
       sodipodi:type="inkscape:persp3d" />
    <inkscape:perspective
       id="perspective6548"
       inkscape:persp3d-origin="0.5 : 0.33333333 : 1"
       inkscape:vp_z="1 : 0.5 : 1"
       inkscape:vp_y="0 : 1000 : 0"
       inkscape:vp_x="0 : 0.5 : 1"
       sodipodi:type="inkscape:persp3d" />
    <inkscape:perspective
       id="perspective6572"
       inkscape:persp3d-origin="0.5 : 0.33333333 : 1"
       inkscape:vp_z="1 : 0.5 : 1"
       inkscape:vp_y="0 : 1000 : 0"
       inkscape:vp_x="0 : 0.5 : 1"
       sodipodi:type="inkscape:persp3d" />
    <inkscape:perspective
       id="perspective6594"
       inkscape:persp3d-origin="0.5 : 0.33333333 : 1"
       inkscape:vp_z="1 : 0.5 : 1"
       inkscape:vp_y="0 : 1000 : 0"
       inkscape:vp_x="0 : 0.5 : 1"
       sodipodi:type="inkscape:persp3d" />
    <inkscape:perspective
       id="perspective6614"
       inkscape:persp3d-origin="0.5 : 0.33333333 : 1"
       inkscape:vp_z="1 : 0.5 : 1"
       inkscape:vp_y="0 : 1000 : 0"
       inkscape:vp_x="0 : 0.5 : 1"
       sodipodi:type="inkscape:persp3d" />
    <inkscape:perspective
       id="perspective6650"
       inkscape:persp3d-origin="0.5 : 0.33333333 : 1"
       inkscape:vp_z="1 : 0.5 : 1"
       inkscape:vp_y="0 : 1000 : 0"
       inkscape:vp_x="0 : 0.5 : 1"
       sodipodi:type="inkscape:persp3d" />
    <inkscape:perspective
       id="perspective6676"
       inkscape:persp3d-origin="0.5 : 0.33333333 : 1"
       inkscape:vp_z="1 : 0.5 : 1"
       inkscape:vp_y="0 : 1000 : 0"
       inkscape:vp_x="0 : 0.5 : 1"
       sodipodi:type="inkscape:persp3d" />
    <inkscape:perspective
       id="perspective6710"
       inkscape:persp3d-origin="0.5 : 0.33333333 : 1"
       inkscape:vp_z="1 : 0.5 : 1"
       inkscape:vp_y="0 : 1000 : 0"
       inkscape:vp_x="0 : 0.5 : 1"
       sodipodi:type="inkscape:persp3d" />
    <inkscape:perspective
       id="perspective6748"
       inkscape:persp3d-origin="0.5 : 0.33333333 : 1"
       inkscape:vp_z="1 : 0.5 : 1"
       inkscape:vp_y="0 : 1000 : 0"
       inkscape:vp_x="0 : 0.5 : 1"
       sodipodi:type="inkscape:persp3d" />
    <inkscape:perspective
       id="perspective6786"
       inkscape:persp3d-origin="0.5 : 0.33333333 : 1"
       inkscape:vp_z="1 : 0.5 : 1"
       inkscape:vp_y="0 : 1000 : 0"
       inkscape:vp_x="0 : 0.5 : 1"
       sodipodi:type="inkscape:persp3d" />
    <inkscape:perspective
       id="perspective6810"
       inkscape:persp3d-origin="0.5 : 0.33333333 : 1"
       inkscape:vp_z="1 : 0.5 : 1"
       inkscape:vp_y="0 : 1000 : 0"
       inkscape:vp_x="0 : 0.5 : 1"
       sodipodi:type="inkscape:persp3d" />
    <inkscape:perspective
       id="perspective6848"
       inkscape:persp3d-origin="0.5 : 0.33333333 : 1"
       inkscape:vp_z="1 : 0.5 : 1"
       inkscape:vp_y="0 : 1000 : 0"
       inkscape:vp_x="0 : 0.5 : 1"
       sodipodi:type="inkscape:persp3d" />
    <inkscape:perspective
       id="perspective6870"
       inkscape:persp3d-origin="0.5 : 0.33333333 : 1"
       inkscape:vp_z="1 : 0.5 : 1"
       inkscape:vp_y="0 : 1000 : 0"
       inkscape:vp_x="0 : 0.5 : 1"
       sodipodi:type="inkscape:persp3d" />
    <inkscape:perspective
       id="perspective6908"
       inkscape:persp3d-origin="0.5 : 0.33333333 : 1"
       inkscape:vp_z="1 : 0.5 : 1"
       inkscape:vp_y="0 : 1000 : 0"
       inkscape:vp_x="0 : 0.5 : 1"
       sodipodi:type="inkscape:persp3d" />
    <inkscape:perspective
       id="perspective6946"
       inkscape:persp3d-origin="0.5 : 0.33333333 : 1"
       inkscape:vp_z="1 : 0.5 : 1"
       inkscape:vp_y="0 : 1000 : 0"
       inkscape:vp_x="0 : 0.5 : 1"
       sodipodi:type="inkscape:persp3d" />
    <inkscape:perspective
       id="perspective6970"
       inkscape:persp3d-origin="0.5 : 0.33333333 : 1"
       inkscape:vp_z="1 : 0.5 : 1"
       inkscape:vp_y="0 : 1000 : 0"
       inkscape:vp_x="0 : 0.5 : 1"
       sodipodi:type="inkscape:persp3d" />
    <inkscape:perspective
       id="perspective7008"
       inkscape:persp3d-origin="0.5 : 0.33333333 : 1"
       inkscape:vp_z="1 : 0.5 : 1"
       inkscape:vp_y="0 : 1000 : 0"
       inkscape:vp_x="0 : 0.5 : 1"
       sodipodi:type="inkscape:persp3d" />
    <inkscape:perspective
       id="perspective7036"
       inkscape:persp3d-origin="0.5 : 0.33333333 : 1"
       inkscape:vp_z="1 : 0.5 : 1"
       inkscape:vp_y="0 : 1000 : 0"
       inkscape:vp_x="0 : 0.5 : 1"
       sodipodi:type="inkscape:persp3d" />
    <inkscape:perspective
       id="perspective7060"
       inkscape:persp3d-origin="0.5 : 0.33333333 : 1"
       inkscape:vp_z="1 : 0.5 : 1"
       inkscape:vp_y="0 : 1000 : 0"
       inkscape:vp_x="0 : 0.5 : 1"
       sodipodi:type="inkscape:persp3d" />
    <inkscape:perspective
       id="perspective7098"
       inkscape:persp3d-origin="0.5 : 0.33333333 : 1"
       inkscape:vp_z="1 : 0.5 : 1"
       inkscape:vp_y="0 : 1000 : 0"
       inkscape:vp_x="0 : 0.5 : 1"
       sodipodi:type="inkscape:persp3d" />
    <inkscape:perspective
       id="perspective7136"
       inkscape:persp3d-origin="0.5 : 0.33333333 : 1"
       inkscape:vp_z="1 : 0.5 : 1"
       inkscape:vp_y="0 : 1000 : 0"
       inkscape:vp_x="0 : 0.5 : 1"
       sodipodi:type="inkscape:persp3d" />
    <inkscape:perspective
       id="perspective7174"
       inkscape:persp3d-origin="0.5 : 0.33333333 : 1"
       inkscape:vp_z="1 : 0.5 : 1"
       inkscape:vp_y="0 : 1000 : 0"
       inkscape:vp_x="0 : 0.5 : 1"
       sodipodi:type="inkscape:persp3d" />
    <inkscape:perspective
       id="perspective7212"
       inkscape:persp3d-origin="0.5 : 0.33333333 : 1"
       inkscape:vp_z="1 : 0.5 : 1"
       inkscape:vp_y="0 : 1000 : 0"
       inkscape:vp_x="0 : 0.5 : 1"
       sodipodi:type="inkscape:persp3d" />
    <inkscape:perspective
       id="perspective7234"
       inkscape:persp3d-origin="0.5 : 0.33333333 : 1"
       inkscape:vp_z="1 : 0.5 : 1"
       inkscape:vp_y="0 : 1000 : 0"
       inkscape:vp_x="0 : 0.5 : 1"
       sodipodi:type="inkscape:persp3d" />
    <inkscape:perspective
       id="perspective7272"
       inkscape:persp3d-origin="0.5 : 0.33333333 : 1"
       inkscape:vp_z="1 : 0.5 : 1"
       inkscape:vp_y="0 : 1000 : 0"
       inkscape:vp_x="0 : 0.5 : 1"
       sodipodi:type="inkscape:persp3d" />
    <inkscape:perspective
       id="perspective7294"
       inkscape:persp3d-origin="0.5 : 0.33333333 : 1"
       inkscape:vp_z="1 : 0.5 : 1"
       inkscape:vp_y="0 : 1000 : 0"
       inkscape:vp_x="0 : 0.5 : 1"
       sodipodi:type="inkscape:persp3d" />
    <inkscape:perspective
       id="perspective7330"
       inkscape:persp3d-origin="0.5 : 0.33333333 : 1"
       inkscape:vp_z="1 : 0.5 : 1"
       inkscape:vp_y="0 : 1000 : 0"
       inkscape:vp_x="0 : 0.5 : 1"
       sodipodi:type="inkscape:persp3d" />
    <inkscape:perspective
       id="perspective3068"
       inkscape:persp3d-origin="0.5 : 0.33333333 : 1"
       inkscape:vp_z="1 : 0.5 : 1"
       inkscape:vp_y="0 : 1000 : 0"
       inkscape:vp_x="0 : 0.5 : 1"
       sodipodi:type="inkscape:persp3d" />
    <inkscape:perspective
       id="perspective3106"
       inkscape:persp3d-origin="0.5 : 0.33333333 : 1"
       inkscape:vp_z="1 : 0.5 : 1"
       inkscape:vp_y="0 : 1000 : 0"
       inkscape:vp_x="0 : 0.5 : 1"
       sodipodi:type="inkscape:persp3d" />
    <inkscape:perspective
       id="perspective3128"
       inkscape:persp3d-origin="0.5 : 0.33333333 : 1"
       inkscape:vp_z="1 : 0.5 : 1"
       inkscape:vp_y="0 : 1000 : 0"
       inkscape:vp_x="0 : 0.5 : 1"
       sodipodi:type="inkscape:persp3d" />
    <inkscape:perspective
       id="perspective3152"
       inkscape:persp3d-origin="0.5 : 0.33333333 : 1"
       inkscape:vp_z="1 : 0.5 : 1"
       inkscape:vp_y="0 : 1000 : 0"
       inkscape:vp_x="0 : 0.5 : 1"
       sodipodi:type="inkscape:persp3d" />
    <inkscape:perspective
       id="perspective3174"
       inkscape:persp3d-origin="0.5 : 0.33333333 : 1"
       inkscape:vp_z="1 : 0.5 : 1"
       inkscape:vp_y="0 : 1000 : 0"
       inkscape:vp_x="0 : 0.5 : 1"
       sodipodi:type="inkscape:persp3d" />
    <inkscape:perspective
       id="perspective3212"
       inkscape:persp3d-origin="0.5 : 0.33333333 : 1"
       inkscape:vp_z="1 : 0.5 : 1"
       inkscape:vp_y="0 : 1000 : 0"
       inkscape:vp_x="0 : 0.5 : 1"
       sodipodi:type="inkscape:persp3d" />
    <inkscape:perspective
       id="perspective3238"
       inkscape:persp3d-origin="0.5 : 0.33333333 : 1"
       inkscape:vp_z="1 : 0.5 : 1"
       inkscape:vp_y="0 : 1000 : 0"
       inkscape:vp_x="0 : 0.5 : 1"
       sodipodi:type="inkscape:persp3d" />
    <inkscape:perspective
       id="perspective3276"
       inkscape:persp3d-origin="0.5 : 0.33333333 : 1"
       inkscape:vp_z="1 : 0.5 : 1"
       inkscape:vp_y="0 : 1000 : 0"
       inkscape:vp_x="0 : 0.5 : 1"
       sodipodi:type="inkscape:persp3d" />
    <inkscape:perspective
       id="perspective3314"
       inkscape:persp3d-origin="0.5 : 0.33333333 : 1"
       inkscape:vp_z="1 : 0.5 : 1"
       inkscape:vp_y="0 : 1000 : 0"
       inkscape:vp_x="0 : 0.5 : 1"
       sodipodi:type="inkscape:persp3d" />
    <inkscape:perspective
       id="perspective3350"
       inkscape:persp3d-origin="0.5 : 0.33333333 : 1"
       inkscape:vp_z="1 : 0.5 : 1"
       inkscape:vp_y="0 : 1000 : 0"
       inkscape:vp_x="0 : 0.5 : 1"
       sodipodi:type="inkscape:persp3d" />
    <inkscape:perspective
       id="perspective3376"
       inkscape:persp3d-origin="0.5 : 0.33333333 : 1"
       inkscape:vp_z="1 : 0.5 : 1"
       inkscape:vp_y="0 : 1000 : 0"
       inkscape:vp_x="0 : 0.5 : 1"
       sodipodi:type="inkscape:persp3d" />
    <inkscape:perspective
       id="perspective3402"
       inkscape:persp3d-origin="0.5 : 0.33333333 : 1"
       inkscape:vp_z="1 : 0.5 : 1"
       inkscape:vp_y="0 : 1000 : 0"
       inkscape:vp_x="0 : 0.5 : 1"
       sodipodi:type="inkscape:persp3d" />
    <inkscape:perspective
       id="perspective3428"
       inkscape:persp3d-origin="0.5 : 0.33333333 : 1"
       inkscape:vp_z="1 : 0.5 : 1"
       inkscape:vp_y="0 : 1000 : 0"
       inkscape:vp_x="0 : 0.5 : 1"
       sodipodi:type="inkscape:persp3d" />
    <inkscape:perspective
       id="perspective3466"
       inkscape:persp3d-origin="0.5 : 0.33333333 : 1"
       inkscape:vp_z="1 : 0.5 : 1"
       inkscape:vp_y="0 : 1000 : 0"
       inkscape:vp_x="0 : 0.5 : 1"
       sodipodi:type="inkscape:persp3d" />
    <inkscape:perspective
       id="perspective3504"
       inkscape:persp3d-origin="0.5 : 0.33333333 : 1"
       inkscape:vp_z="1 : 0.5 : 1"
       inkscape:vp_y="0 : 1000 : 0"
       inkscape:vp_x="0 : 0.5 : 1"
       sodipodi:type="inkscape:persp3d" />
    <inkscape:perspective
       id="perspective3542"
       inkscape:persp3d-origin="0.5 : 0.33333333 : 1"
       inkscape:vp_z="1 : 0.5 : 1"
       inkscape:vp_y="0 : 1000 : 0"
       inkscape:vp_x="0 : 0.5 : 1"
       sodipodi:type="inkscape:persp3d" />
    <inkscape:perspective
       id="perspective3566"
       inkscape:persp3d-origin="0.5 : 0.33333333 : 1"
       inkscape:vp_z="1 : 0.5 : 1"
       inkscape:vp_y="0 : 1000 : 0"
       inkscape:vp_x="0 : 0.5 : 1"
       sodipodi:type="inkscape:persp3d" />
    <inkscape:perspective
       id="perspective3590"
       inkscape:persp3d-origin="0.5 : 0.33333333 : 1"
       inkscape:vp_z="1 : 0.5 : 1"
       inkscape:vp_y="0 : 1000 : 0"
       inkscape:vp_x="0 : 0.5 : 1"
       sodipodi:type="inkscape:persp3d" />
    <inkscape:perspective
       id="perspective3610"
       inkscape:persp3d-origin="0.5 : 0.33333333 : 1"
       inkscape:vp_z="1 : 0.5 : 1"
       inkscape:vp_y="0 : 1000 : 0"
       inkscape:vp_x="0 : 0.5 : 1"
       sodipodi:type="inkscape:persp3d" />
    <inkscape:perspective
       id="perspective3648"
       inkscape:persp3d-origin="0.5 : 0.33333333 : 1"
       inkscape:vp_z="1 : 0.5 : 1"
       inkscape:vp_y="0 : 1000 : 0"
       inkscape:vp_x="0 : 0.5 : 1"
       sodipodi:type="inkscape:persp3d" />
    <inkscape:perspective
       id="perspective3668"
       inkscape:persp3d-origin="0.5 : 0.33333333 : 1"
       inkscape:vp_z="1 : 0.5 : 1"
       inkscape:vp_y="0 : 1000 : 0"
       inkscape:vp_x="0 : 0.5 : 1"
       sodipodi:type="inkscape:persp3d" />
    <inkscape:perspective
       id="perspective3706"
       inkscape:persp3d-origin="0.5 : 0.33333333 : 1"
       inkscape:vp_z="1 : 0.5 : 1"
       inkscape:vp_y="0 : 1000 : 0"
       inkscape:vp_x="0 : 0.5 : 1"
       sodipodi:type="inkscape:persp3d" />
    <inkscape:perspective
       id="perspective3744"
       inkscape:persp3d-origin="0.5 : 0.33333333 : 1"
       inkscape:vp_z="1 : 0.5 : 1"
       inkscape:vp_y="0 : 1000 : 0"
       inkscape:vp_x="0 : 0.5 : 1"
       sodipodi:type="inkscape:persp3d" />
    <inkscape:perspective
       id="perspective3770"
       inkscape:persp3d-origin="0.5 : 0.33333333 : 1"
       inkscape:vp_z="1 : 0.5 : 1"
       inkscape:vp_y="0 : 1000 : 0"
       inkscape:vp_x="0 : 0.5 : 1"
       sodipodi:type="inkscape:persp3d" />
    <inkscape:perspective
       id="perspective3804"
       inkscape:persp3d-origin="0.5 : 0.33333333 : 1"
       inkscape:vp_z="1 : 0.5 : 1"
       inkscape:vp_y="0 : 1000 : 0"
       inkscape:vp_x="0 : 0.5 : 1"
       sodipodi:type="inkscape:persp3d" />
    <inkscape:perspective
       id="perspective3828"
       inkscape:persp3d-origin="0.5 : 0.33333333 : 1"
       inkscape:vp_z="1 : 0.5 : 1"
       inkscape:vp_y="0 : 1000 : 0"
       inkscape:vp_x="0 : 0.5 : 1"
       sodipodi:type="inkscape:persp3d" />
    <inkscape:perspective
       id="perspective3852"
       inkscape:persp3d-origin="0.5 : 0.33333333 : 1"
       inkscape:vp_z="1 : 0.5 : 1"
       inkscape:vp_y="0 : 1000 : 0"
       inkscape:vp_x="0 : 0.5 : 1"
       sodipodi:type="inkscape:persp3d" />
    <inkscape:perspective
       id="perspective3876"
       inkscape:persp3d-origin="0.5 : 0.33333333 : 1"
       inkscape:vp_z="1 : 0.5 : 1"
       inkscape:vp_y="0 : 1000 : 0"
       inkscape:vp_x="0 : 0.5 : 1"
       sodipodi:type="inkscape:persp3d" />
    <inkscape:perspective
       id="perspective3900"
       inkscape:persp3d-origin="0.5 : 0.33333333 : 1"
       inkscape:vp_z="1 : 0.5 : 1"
       inkscape:vp_y="0 : 1000 : 0"
       inkscape:vp_x="0 : 0.5 : 1"
       sodipodi:type="inkscape:persp3d" />
    <inkscape:perspective
       id="perspective3924"
       inkscape:persp3d-origin="0.5 : 0.33333333 : 1"
       inkscape:vp_z="1 : 0.5 : 1"
       inkscape:vp_y="0 : 1000 : 0"
       inkscape:vp_x="0 : 0.5 : 1"
       sodipodi:type="inkscape:persp3d" />
    <inkscape:perspective
       id="perspective3948"
       inkscape:persp3d-origin="0.5 : 0.33333333 : 1"
       inkscape:vp_z="1 : 0.5 : 1"
       inkscape:vp_y="0 : 1000 : 0"
       inkscape:vp_x="0 : 0.5 : 1"
       sodipodi:type="inkscape:persp3d" />
    <inkscape:perspective
       id="perspective3986"
       inkscape:persp3d-origin="0.5 : 0.33333333 : 1"
       inkscape:vp_z="1 : 0.5 : 1"
       inkscape:vp_y="0 : 1000 : 0"
       inkscape:vp_x="0 : 0.5 : 1"
       sodipodi:type="inkscape:persp3d" />
    <inkscape:perspective
       id="perspective4024"
       inkscape:persp3d-origin="0.5 : 0.33333333 : 1"
       inkscape:vp_z="1 : 0.5 : 1"
       inkscape:vp_y="0 : 1000 : 0"
       inkscape:vp_x="0 : 0.5 : 1"
       sodipodi:type="inkscape:persp3d" />
  </defs>
  <sodipodi:namedview
     id="base"
     pagecolor="#ffffff"
     bordercolor="#666666"
     borderopacity="1.0"
     inkscape:pageopacity="0.0"
     inkscape:pageshadow="2"
     inkscape:zoom="11.313709"
     inkscape:cx="11.966503"
     inkscape:cy="14.926085"
     inkscape:document-units="px"
     inkscape:current-layer="layer1"
     showgrid="true"
     inkscape:window-width="1280"
     inkscape:window-height="780"
     inkscape:window-x="-8"
     inkscape:window-y="-8"
     inkscape:window-maximized="1">
    <inkscape:grid
       type="xygrid"
       id="grid6324"
       empspacing="5"
       visible="true"
       enabled="true"
       snapvisiblegridlinesonly="true" />
  </sodipodi:namedview>
  <metadata
     id="metadata7">
    <rdf:RDF>
      <cc:Work
         rdf:about="">
        <dc:format>image/svg+xml</dc:format>
        <dc:type
           rdf:resource="http://purl.org/dc/dcmitype/StillImage" />
        <dc:title></dc:title>
      </cc:Work>
    </rdf:RDF>
  </metadata>
  <g
     inkscape:label="Calque 1"
     inkscape:groupmode="layer"
     id="layer1"
     transform="translate(0,-1036.3622)">
    <g
       id="g4030"
       transform="translate(13.514635,0.2468)">
      <path
         style="fill:#c8c8c8"
         d="m -5.7870749,1049.3622 c -0.051916,0 -0.2033791,-0.1204 -0.3365854,-0.2676 l -0.2421934,-0.2676 0,-0.8973 0,-0.8972 -0.6023663,-0.1805 -0.6023663,-0.1805 -0.4220239,-0.422 -0.4220239,-0.422 0,-0.4227 0,-0.4227 0.4248542,-0.4838 0.4248542,-0.4839 -0.074398,-0.9481 -0.074397,-0.948 0.3930405,-0.3659 0.3930405,-0.3658 0.8621938,0 0.8621939,0 0.3299479,0.3299 0.3299479,0.33 -0.041651,0.9274 -0.041651,0.9275 0.5206467,0.5206 0.5206464,0.5207 0,0.4424 0,0.4424 -0.4385495,0.4385 -0.4385495,0.4386 -0.4394992,0.096 -0.4394993,0.097 0,1.0566 0,1.0567 -0.1756098,0.1756 c -0.096585,0.097 -0.2180862,0.1756 -0.2700017,0.1756 z"
         id="path4052" />
      <path
         style="fill:#b6b6b6"
         d="m -5.7870749,1049.3622 c -0.051916,0 -0.2033791,-0.1204 -0.3365854,-0.2676 l -0.2421934,-0.2676 0,-0.8973 0,-0.8972 -0.6023663,-0.1805 -0.6023663,-0.1805 -0.4220239,-0.422 -0.4220239,-0.422 0,-0.4227 0,-0.4227 0.4248542,-0.4838 0.4248542,-0.4839 -0.074398,-0.9481 -0.074397,-0.948 0.3930405,-0.3659 0.3930405,-0.3658 0.8621938,0 0.8621939,0 0.3299479,0.3299 0.3299479,0.33 -0.041651,0.9274 -0.041651,0.9275 0.5206467,0.5206 0.5206464,0.5207 0,0.4424 0,0.4424 -0.4385495,0.4385 -0.4385495,0.4386 -0.4394992,0.096 -0.4394993,0.097 0,1.0566 0,1.0567 -0.1756098,0.1756 c -0.096585,0.097 -0.2180862,0.1756 -0.2700017,0.1756 z m -1.1931432,-5.0035 0.044172,-0.8967 -0.1905136,-0.1185 -0.1905136,-0.1185 -0.044172,0.8968 -0.044172,0.8967 0.1905136,0.1185 0.1905137,0.1185 0.044172,-0.8968 z"
         id="path4050" />
      <path
         style="fill:#a7a7a7"
         d="m -5.7870749,1049.3622 c -0.051916,0 -0.2033791,-0.1204 -0.3365854,-0.2676 l -0.2421934,-0.2676 0,-0.8973 0,-0.8972 -0.6023663,-0.1805 -0.6023663,-0.1805 -0.4220239,-0.422 -0.4220239,-0.422 0,-0.4227 0,-0.4227 0.4248542,-0.4838 0.4248542,-0.4839 -0.074398,-0.9481 -0.074397,-0.948 0.3930405,-0.3659 0.3930405,-0.3658 0.8621938,0 0.8621939,0 0.3299479,0.3299 0.3299479,0.33 -0.041651,0.9274 -0.041651,0.9275 0.5206467,0.5206 0.5206464,0.5207 0,0.4424 0,0.4424 -0.4385495,0.4385 -0.4385495,0.4386 -0.4394992,0.096 -0.4394993,0.097 0,1.0566 0,1.0567 -0.1756098,0.1756 c -0.096585,0.097 -0.2180862,0.1756 -0.2700017,0.1756 z m -1.9521919,-3.0732 c 0.030987,0 0.054149,-0.4116 0.051471,-0.9146 l -0.00487,-0.9146 -0.2878142,0.3454 c -0.1582979,0.1901 -0.2878143,0.4393 -0.2878143,0.554 0,0.1146 0.1063543,0.3707 0.2363429,0.5691 0.1299886,0.1984 0.261696,0.3607 0.292683,0.3607 z m 1.1904863,-0.7375 c 0.020122,0 0.036585,-0.4446 0.036585,-0.9951 l 0,-1.0009 -0.3727395,-0.1698 c -0.2050067,-0.093 -0.4025676,-0.1698 -0.4390244,-0.1698 -0.036457,0 -0.066285,0.4259 -0.066285,0.9465 l 0,0.9466 0.402439,0.2183 c 0.2213415,0.1201 0.4189025,0.2209 0.4390244,0.2242 z"
         id="path4048" />
      <path
         style="fill:#999a9c"
         d="m -5.7870749,1049.3622 c -0.051916,0 -0.2033791,-0.1204 -0.3365854,-0.2676 l -0.2421934,-0.2676 0,-0.8973 0,-0.8972 -0.6023663,-0.1805 -0.6023663,-0.1805 -0.4220239,-0.422 -0.4220239,-0.422 0,-0.4227 0,-0.4227 0.4248542,-0.4838 0.4248542,-0.4839 -0.074398,-0.9481 -0.074397,-0.948 0.3930405,-0.3659 0.3930405,-0.3658 0.8621938,0 0.8621939,0 0.3299479,0.3299 0.3299479,0.33 -0.041651,0.9274 -0.041651,0.9275 0.5206467,0.5206 0.5206464,0.5207 0,0.4424 0,0.4424 -0.4385495,0.4385 -0.4385495,0.4386 -0.4394992,0.096 -0.4394993,0.097 0,1.0566 0,1.0567 -0.1756098,0.1756 c -0.096585,0.097 -0.2180862,0.1756 -0.2700017,0.1756 z m -1.4680846,-2.7805 0.1575985,0 0,-0.4943 0,-0.4942 -0.2195122,-0.1822 -0.2195122,-0.1822 0,-0.4211 0,-0.4211 -0.1295107,0 c -0.071231,0 -0.2358651,0.1623 -0.3658537,0.3607 l -0.2363429,0.3607 0,0.3091 0,0.3091 0.4277674,0.4277 c 0.235272,0.2353 0.4986866,0.4278 0.5853658,0.4278 z m 0.9990619,-0.8783 c 0.020122,2e-4 0.036585,-0.4936 0.036585,-1.0973 l 0,-1.0976 -0.2601211,0 -0.260121,0 -0.3347083,-0.2344 c -0.1840896,-0.1289 -0.354978,-0.2113 -0.379752,-0.1829 -0.024774,0.028 -0.00405,0.5125 0.046049,1.0759 l 0.091092,1.0244 0.5121952,0.2558 c 0.2817073,0.1408 0.5286585,0.256 0.5487804,0.2561 z"
         id="path4046" />
      <path
         style="fill:#878787"
         d="m -5.7870749,1049.3622 c -0.051916,0 -0.2033791,-0.1204 -0.3365854,-0.2676 l -0.2421934,-0.2676 0,-0.8973 0,-0.8972 -0.6023663,-0.1805 -0.6023663,-0.1805 -0.4220239,-0.422 -0.4220239,-0.422 0,-0.4227 0,-0.4227 0.4248542,-0.4838 0.4248542,-0.4839 -0.074398,-0.9481 -0.074397,-0.948 0.3930405,-0.3659 0.3930405,-0.3658 0.8621938,0 0.8621939,0 0.3299479,0.3299 0.3299479,0.33 -0.041651,0.9274 -0.041651,0.9275 0.5206467,0.5206 0.5206464,0.5207 0,0.4424 0,0.4424 -0.4385495,0.4385 -0.4385495,0.4386 -0.4394992,0.096 -0.4394993,0.097 0,1.0566 0,1.0567 -0.1756098,0.1756 c -0.096585,0.097 -0.2180862,0.1756 -0.2700017,0.1756 z m -0.9961617,-2.6341 0.2710415,0 0,-0.4246 0,-0.4246 -0.5121951,-0.3022 -0.5121952,-0.3022 0,-0.4561 0,-0.4562 -0.1829268,0.061 c -0.1006098,0.033 -0.2795329,0.2319 -0.3976071,0.4413 l -0.2146802,0.3807 0.1434415,0.4079 0.1434415,0.4079 0.4953192,0.3338 0.4953192,0.3338 0.2710415,0 z m 0.7466512,-1.0247 0.2560976,3e-4 0,-1.0976 0,-1.0976 -0.402439,-9e-4 -0.4024391,-9e-4 -0.4242118,-0.2212 c -0.2333166,-0.1217 -0.4389423,-0.2036 -0.4569461,-0.182 -0.018004,0.022 0.00826,0.5002 0.058358,1.0636 l 0.091092,1.0244 0.5121952,0.2558 c 0.2817073,0.1408 0.627439,0.256 0.7682926,0.2561 z m -0.1532272,-2.492 0.5418946,0 0.3762483,-0.1715 0.3762482,-0.1714 0.087007,-0.3467 0.087007,-0.3466 -0.2569478,-0.2839 -0.2569477,-0.284 -0.4825658,-0.09 -0.4825657,-0.091 -0.5228569,0.1725 -0.5228572,0.1726 -0.1503668,0.281 -0.1503668,0.2809 0.153285,0.2864 c 0.084307,0.1576 0.2677211,0.3531 0.4075877,0.4346 l 0.254303,0.1482 0.5418947,0 z"
         id="path4044" />
      <path
         style="fill:#777778"
         d="m -5.7870749,1049.3622 c -0.051916,0 -0.2033791,-0.1204 -0.3365854,-0.2676 l -0.2421934,-0.2676 0,-0.8973 0,-0.8972 -0.6023663,-0.1805 -0.6023663,-0.1805 -0.4220239,-0.422 -0.4220239,-0.422 0,-0.4227 0,-0.4227 0.4248542,-0.4838 0.4248542,-0.4839 -0.074398,-0.9481 -0.074397,-0.948 0.3930405,-0.3659 0.3930405,-0.3658 0.8621938,0 0.8621939,0 0.3299479,0.3299 0.3299479,0.33 -0.041651,0.9274 -0.041651,0.9275 0.5206467,0.5206 0.5206464,0.5207 0,0.4424 0,0.4424 -0.4385495,0.4385 -0.4385495,0.4386 -0.4394992,0.096 -0.4394993,0.097 0,1.0566 0,1.0567 -0.1756098,0.1756 c -0.096585,0.097 -0.2180862,0.1756 -0.2700017,0.1756 z m 0.2597283,-0.9179 c 0.031679,-0.3036 0.031148,-0.7646 -0.00119,-1.0244 l -0.058774,-0.4723 0.00119,1.0244 0.00119,1.0244 0.057599,-0.5521 z m -0.5824095,-1.5763 0.3292683,0.01 0,-0.5122 0,-0.5122 -0.3851658,0 -0.3851657,0 -0.492883,-0.3046 -0.4928831,-0.3046 -0.00462,-0.5369 -0.00462,-0.5368 -0.3612291,0.4106 -0.3612291,0.4106 0,0.4053 0,0.4054 0.3519789,0.3307 0.3519788,0.3306 0.5626553,0.2006 c 0.3094604,0.1104 0.710826,0.2035 0.8919236,0.2071 z m -0.011969,-1.1649 c 0.1745146,3e-4 0.4214658,-0.039 0.5487805,-0.088 l 0.2314815,-0.089 0,-1.0453 0,-1.0453 -0.789514,0 -0.7895141,0 -0.3303891,-0.2927 -0.3303891,-0.2927 0.095513,0.4939 c 0.052532,0.2717 0.095513,0.783 0.095513,1.1363 l 0,0.6424 0.4756098,0.29 0.4756097,0.29 0.3172995,5e-4 z m 0.024153,-2.4872 0.690985,0 0.3252448,-0.2278 0.3252447,-0.2279 -0.00224,-0.3209 c -0.00123,-0.1766 -0.051963,-0.3992 -0.1127344,-0.4948 -0.060771,-0.096 -0.294538,-0.2437 -0.5194811,-0.3292 -0.224943,-0.086 -0.5726047,-0.1555 -0.7725816,-0.1555 l -0.3635942,0 -0.421386,0.2179 -0.4213861,0.2179 -0.1022936,0.3223 -0.1022935,0.3223 0.392766,0.3378 0.392766,0.3379 0.6909849,0 z"
         id="path4042" />
      <path
         style="fill:#676767"
         d="m -5.7870749,1049.3622 c -0.051916,0 -0.1976191,-0.1152 -0.3237853,-0.2561 l -0.2293934,-0.2561 -0.049385,-0.9881 -0.049385,-0.9881 0.2926829,0 c 0.1609756,-9e-4 0.4408537,-0.041 0.6219513,-0.09 l 0.3292682,-0.088 0,-0.4219 0,-0.422 -0.6242344,0 -0.6242343,0 -0.509912,-0.2725 -0.5099119,-0.2725 -0.073171,-0.5495 -0.073171,-0.5494 -0.2733546,0.3038 -0.2733546,0.3037 -0.1141047,0.4816 -0.1141047,0.4816 -0.01498,-0.3973 -0.01498,-0.3974 0.4215487,-0.4807 c 0.2318519,-0.2643 0.4547006,-0.6124 0.4952194,-0.7733 l 0.07367,-0.2927 0.016976,0.8436 0.016976,0.8436 0.4756098,0.29 0.4756097,0.29 0.4430479,5e-4 0.4430479,6e-4 0.3252448,-0.2278 0.3252448,-0.2279 0,-1.0317 0,-1.0318 -0.2323054,0.089 c -0.1277679,0.049 -0.4800293,0.1287 -0.7828027,0.1772 l -0.5504974,0.088 -0.4976851,-0.2648 c -0.2737267,-0.1456 -0.5470753,-0.2512 -0.6074411,-0.2347 l -0.1097561,0.03 0,-0.4867 0,-0.4866 0.3610781,-0.3393 0.3610781,-0.3392 0.6998975,-0.06 0.6998975,-0.06 0.4756097,0.2987 0.4756098,0.2987 0,1.0119 0,1.0119 0.5121951,0.5122 0.5121951,0.5122 0,0.3146 c 0,0.173 -0.095879,0.5 -0.2130657,0.7266 l -0.2130657,0.412 -0.5041727,0.2393 c -0.2772949,0.1315 -0.5765373,0.2392 -0.664983,0.2392 l -0.1608104,0 0,1.0683 0,1.0683 -0.1756098,0.1756 c -0.096585,0.097 -0.2180862,0.1756 -0.2700017,0.1756 z m 0.1529286,-0.3658 0.1463414,-0.091 0,-0.9426 0,-0.9426 -0.1463414,0 -0.1463415,0 0,1.0331 0,1.033 0.1463415,-0.09 z m -0.2271621,-5.7244 c 0.2372561,-0.033 0.5829878,-0.1597 0.7682927,-0.2812 l 0.3369181,-0.2207 0,-0.4319 0,-0.4319 -0.431757,-0.2233 -0.4317571,-0.2232 -0.4367649,0 c -0.2402208,0 -0.6064955,0.064 -0.813944,0.1434 l -0.3771791,0.1434 -0.1686923,0.3702 -0.1686924,0.3703 0.3350188,0.3566 0.3350188,0.3566 0.311082,0.066 c 0.171095,0.036 0.5052005,0.039 0.7424564,0.01 z m -0.9435696,3.5875 c -0.1207318,0 -0.4363512,-0.099 -0.7013768,-0.2293 l -0.4818644,-0.2374 -0.159054,-0.308 -0.159054,-0.308 0.4214063,0.3842 0.4214063,0.3842 0.4390244,0.153 0.4390243,0.1531 -0.2195121,0.01 z"
         id="path4040" />
      <path
         style="fill:#525252"
         d="m -5.865008,1049.2159 c -0.094779,0 -0.2401729,-0.082 -0.3230979,-0.183 l -0.1507725,-0.1829 -0.050073,-0.9881 -0.050073,-0.9881 0.4803101,3e-4 0.48031,3e-4 0.5074949,-0.212 0.5074948,-0.2121 0,-0.5907 0,-0.5907 -0.4756098,0.29 -0.4756097,0.29 -0.4828771,6e-4 -0.4828771,5e-4 -0.4317571,-0.2233 c -0.2374664,-0.1228 -0.431757,-0.2562 -0.431757,-0.2964 0,-0.04 0.1942906,0.027 0.431757,0.1501 l 0.4317571,0.2233 0.4514404,0 0.4514406,0 0.3607048,-0.2364 0.3607049,-0.2363 0,-1.0859 0,-1.0859 -0.3007959,0.161 -0.300796,0.161 -0.1748138,-0.071 -0.1748138,-0.071 0.2454761,-0.012 0.2454761,-0.012 0.3033044,-0.3856 0.3033044,-0.3856 0,0.7368 0,0.7368 0.5121951,0.5122 0.5121951,0.5122 0,0.3693 0,0.3692 -0.3730955,0.4434 -0.3730953,0.4434 -0.5049534,0.1826 -0.5049533,0.1826 0,0.9657 0,0.9657 -0.1756098,0.1757 c -0.096585,0.097 -0.2531561,0.1756 -0.3479348,0.1756 z m 0.1211056,-0.1824 0.1829268,-0.061 0.043272,-0.9761 0.043272,-0.9762 -0.2261985,0 -0.2261986,0 0,1.0366 0,1.0366 0.1829269,-0.06 z m -1.0609756,-2.1716 c -0.1207318,0 -0.3182927,-0.056 -0.4390244,-0.1338 l -0.2195122,-0.1419 0.1463414,0.01 c 0.080488,0 0.2780488,0.065 0.4390244,0.1339 l 0.2926829,0.1257 -0.2195121,0.01 z m -0.7793687,-0.2802 c -0.026214,0 -0.2073113,-0.1811 -0.4024391,-0.4024 l -0.3547776,-0.4025 0.402439,0.3548 c 0.2213415,0.1951 0.402439,0.3762 0.402439,0.4025 0,0.026 -0.021448,0.048 -0.047661,0.048 z m -0.6863233,-1.2865 -0.1141047,0.4816 -0.01498,-0.3973 -0.01498,-0.3974 0.4215487,-0.4807 c 0.2318519,-0.2643 0.4547006,-0.6124 0.4952194,-0.7733 l 0.07367,-0.2927 -0.00229,0.878 -0.00229,0.8781 -0.090491,-0.4924 -0.090492,-0.4925 -0.2733546,0.3035 -0.2733546,0.3035 -0.1141047,0.4816 z m 2.0510578,-1.7867 -0.1951219,0 0.097561,-0.097 0.097561,-0.098 0.097561,0.098 0.097561,0.097 -0.1951219,0 z m 0.3658537,0 c -0.040244,0 -0.073171,-0.033 -0.073171,-0.073 0,-0.04 0.032927,-0.073 0.073171,-0.073 0.040244,0 0.073171,0.033 0.073171,0.073 0,0.04 -0.032927,0.073 -0.073171,0.073 z m -0.8048781,-0.1617 c -0.1207317,0 -0.4006097,-0.1047 -0.6219512,-0.2419 l -0.402439,-0.2495 0.00573,-0.3686 0.00573,-0.3685 0.1996047,0.4587 0.1996046,0.4587 0.4166185,0.1517 0.4166185,0.1517 -0.2195122,0.01 z m 2.0345299,-1.2386 c -0.0385,0.039 -0.1571832,-0.075 -0.263741,-0.2527 l -0.1937411,-0.3226 0.2637409,0.2526 c 0.1450575,0.139 0.232241,0.2842 0.1937412,0.3227 z m -2.6930665,-0.2094 c -0.1207317,0.1002 -0.2195122,0.1492 -0.2195122,0.109 0,-0.04 0.098781,-0.1552 0.2195122,-0.2554 0.1207317,-0.1001 0.2195122,-0.1492 0.2195122,-0.109 0,0.04 -0.098781,0.1552 -0.2195122,0.2554 z m 0.9588253,-0.396 -0.6509307,0.083 0.2119064,-0.134 0.2119063,-0.1341 0.5000001,0 c 0.2749999,0 0.4725609,0.022 0.4390244,0.051 -0.033537,0.029 -0.3538945,0.091 -0.7119065,0.1363 z m 1.0167845,0.1033 -0.1951219,0 0.097561,-0.098 0.097561,-0.097 0.097561,0.097 0.097561,0.098 -0.1951219,0 z"
         id="path4038" />
      <path
         style="fill:#403d3e"
         d="m -5.8536585,1049.2159 c -0.088537,0 -0.24,-0.079 -0.3365854,-0.1756 l -0.1756098,-0.1757 0,-0.9951 0,-0.9951 0.4811869,0 0.4811868,0 0.651598,-0.3293 0.6515978,-0.3292 0.2208737,-0.4049 0.2208739,-0.405 -0.3356466,-0.6194 -0.3356466,-0.6195 0.2955044,0.2932 0.2955043,0.2932 0.089693,0.4484 0.089693,0.4485 -0.3860608,0.4588 -0.3860607,0.4588 -0.5049534,0.1826 -0.5049533,0.1826 0,0.9657 0,0.9657 -0.1756098,0.1757 c -0.096585,0.097 -0.2480488,0.1756 -0.3365853,0.1756 z m 0.1097561,-0.1824 0.1829268,-0.061 0.043272,-0.9761 0.043272,-0.9762 -0.2261985,0 -0.2261986,0 0,1.0366 0,1.0366 0.1829269,-0.06 z m -1.0609756,-2.1716 c -0.1207318,0 -0.3182927,-0.056 -0.4390244,-0.1338 l -0.2195122,-0.1419 0.1463414,0.01 c 0.080488,0 0.2780488,0.065 0.4390244,0.1339 l 0.2926829,0.1257 -0.2195121,0.01 z m -0.7876048,-0.2802 c -0.040244,0 -0.1138706,-0.066 -0.1636148,-0.1463 -0.049744,-0.081 -0.057517,-0.1464 -0.017273,-0.1464 0.040244,0 0.1138705,0.066 0.1636147,0.1464 0.049744,0.081 0.057517,0.1463 0.017273,0.1463 z m -0.4390244,-0.439 c -0.040244,0 -0.1138706,-0.066 -0.1636148,-0.1463 -0.049744,-0.081 -0.057517,-0.1464 -0.017273,-0.1464 0.040244,0 0.1138705,0.066 0.1636147,0.1464 0.049744,0.08 0.057517,0.1463 0.017273,0.1463 z m 2.1046779,-0.3266 -0.5121951,0 0.2560976,-0.067 c 0.1408536,-0.037 0.3713414,-0.037 0.5121951,0 l 0.2560976,0.067 -0.5121952,0 z m -2.3908857,-0.2222 -0.073813,0.1829 0,-0.3658 0,-0.3659 0.073813,0.183 0.073813,0.1829 -0.073813,0.1829 z m 1.5860077,0.1098 c -0.040244,0 -0.073171,-0.033 -0.073171,-0.073 0,-0.04 0.032927,-0.073 0.073171,-0.073 0.040244,0 0.073171,0.033 0.073171,0.073 0,0.04 -0.032927,0.073 -0.073171,0.073 z m 1.4674381,0 -0.1423179,0 0.3252448,-0.2278 0.3252447,-0.2279 0,-1.1803 0,-1.1804 -0.2492827,0.2009 -0.2492829,0.2008 0.2858683,-0.3881 c 0.1572273,-0.2134 0.3039967,-0.3709 0.3261538,-0.3499 0.022157,0.021 0.043166,0.646 0.046687,1.3889 l 0.0064,1.3509 -0.2661993,0.2018 c -0.1464096,0.111 -0.3302424,0.2039 -0.4085172,0.2064 z m -1.7428478,-0.1417 c -0.040244,0 -0.1138705,-0.066 -0.1636147,-0.1463 -0.049744,-0.081 -0.057517,-0.1464 -0.017273,-0.1464 0.040244,0 0.1138705,0.066 0.1636148,0.1464 0.049744,0.081 0.057517,0.1463 0.017273,0.1463 z m -0.4295005,-0.5579 -0.076861,0.1921 -0.011553,-0.2805 -0.011553,-0.2805 0.088415,0.088 0.088415,0.088 -0.076861,0.1921 z m -0.7935303,-0.04 c -0.02098,0.034 -0.038145,-0.01 -0.038145,-0.087 0,-0.081 0.1481707,-0.2735 0.3292683,-0.4268 l 0.3292683,-0.2788 -0.2911234,0.3658 c -0.1601179,0.2013 -0.3082886,0.3933 -0.3292683,0.4269 z m 0.7904816,-0.9756 -0.073813,0.1829 0,-0.3659 0,-0.3658 0.073813,0.1829 0.073813,0.1829 -0.073813,0.183 z m 1.1469833,-0.4757 c -0.040244,0 -0.073171,-0.033 -0.073171,-0.073 0,-0.04 0.032927,-0.073 0.073171,-0.073 0.040244,0 0.073171,0.033 0.073171,0.073 0,0.04 -0.032927,0.073 -0.073171,0.073 z m -0.4390244,-0.1507 c -0.080488,0 -0.327439,-0.1157 -0.5487805,-0.2529 l -0.402439,-0.2495 0.019929,-0.3686 0.019929,-0.3685 0.064608,0.3383 0.064607,0.3384 0.464244,0.283 c 0.2553341,0.1557 0.3983902,0.2816 0.3179024,0.2798 z m 1.2439024,0 -0.1951219,0 0.097561,-0.098 0.097561,-0.098 0.097561,0.098 0.097561,0.098 -0.1951219,0 z m 0.8637982,-1.254 c -0.0385,0.039 -0.1571832,-0.075 -0.263741,-0.2527 l -0.1937411,-0.3226 0.2637409,0.2526 c 0.1450575,0.139 0.232241,0.2842 0.1937412,0.3227 z m -2.6930665,-0.2094 c -0.1207317,0.1002 -0.2195122,0.1492 -0.2195122,0.109 0,-0.04 0.098781,-0.1552 0.2195122,-0.2554 0.1207317,-0.1001 0.2195122,-0.1492 0.2195122,-0.109 0,0.04 -0.098781,0.1552 -0.2195122,0.2554 z m 0.5121952,-0.2927 -0.195122,0 0.097561,-0.098 0.097561,-0.097 0.097561,0.097 0.097561,0.098 -0.1951219,0 z m 1.4634146,0 -0.1951219,0 0.097561,-0.098 0.097561,-0.097 0.097561,0.097 0.097561,0.098 -0.1951219,0 z m -0.7317073,-0.1803 -0.5121952,0 0.2560976,-0.067 c 0.1408537,-0.037 0.3713415,-0.037 0.5121951,0 l 0.2560976,0.067 -0.5121951,0 z"
         id="path4036" />
      <path
         style="fill:#333132"
         d="m -6.0073171,1049.2162 c -0.00402,-2e-4 -0.086341,-0.079 -0.1829268,-0.1759 l -0.1756098,-0.1757 0,-0.976 0,-0.9761 0.6219513,-0.076 c 0.3420731,-0.042 0.7207317,-0.1032 0.8414634,-0.1364 0.1207317,-0.033 0.071341,0.01 -0.1097561,0.085 l -0.3292683,0.1457 -0.028662,1.0327 -0.028663,1.0328 -0.051195,-0.9879 -0.051195,-0.9878 -0.2975581,0 -0.2975582,0 0.048147,1.0979 c 0.026481,0.6039 0.044854,1.0978 0.04083,1.0976 z m -0.7975609,-2.3543 c -0.1207318,0 -0.3182927,-0.056 -0.4390244,-0.1338 l -0.2195122,-0.1419 0.1463414,0.01 c 0.080488,0 0.2780488,0.065 0.4390244,0.1339 l 0.2926829,0.1257 -0.2195121,0.01 z m -0.7876048,-0.2802 c -0.040244,0 -0.1138706,-0.066 -0.1636148,-0.1463 -0.049744,-0.081 -0.057517,-0.1464 -0.017273,-0.1464 0.040244,0 0.1138705,0.066 0.1636147,0.1464 0.049744,0.081 0.057517,0.1463 0.017273,0.1463 z m 3.1512202,0 c -0.040244,0 0.081495,-0.1646 0.2705309,-0.3658 0.1890358,-0.2013 0.3766285,-0.3659 0.4168724,-0.3659 0.040244,0 -0.081495,0.1646 -0.2705309,0.3659 -0.1890359,0.2012 -0.3766285,0.3658 -0.4168724,0.3658 z m -3.5902446,-0.439 c -0.040244,0 -0.1138706,-0.066 -0.1636148,-0.1463 -0.049744,-0.081 -0.057517,-0.1464 -0.017273,-0.1464 0.040244,0 0.1138705,0.066 0.1636147,0.1464 0.049744,0.08 0.057517,0.1463 0.017273,0.1463 z m 1.8851657,-0.2927 c -0.040244,0 -0.073171,-0.033 -0.073171,-0.073 0,-0.04 0.032927,-0.073 0.073171,-0.073 0.040244,0 0.073171,0.033 0.073171,0.073 0,0.04 -0.032927,0.073 -0.073171,0.073 z m 0.5121952,0 -0.1951219,0 0.097561,-0.098 0.097561,-0.098 0.097561,0.098 0.097561,0.098 -0.1951219,0 z m -2.6835687,-0.2561 -0.073813,0.1829 0,-0.3658 0,-0.3659 0.073813,0.183 0.073813,0.1829 -0.073813,0.1829 z m 1.5860077,0.1098 c -0.040244,0 -0.073171,-0.033 -0.073171,-0.073 0,-0.04 0.032927,-0.073 0.073171,-0.073 0.040244,0 0.073171,0.033 0.073171,0.073 0,0.04 -0.032927,0.073 -0.073171,0.073 z m 1.4634146,0 c -0.040244,0 -0.073171,-0.033 -0.073171,-0.073 0,-0.04 0.032927,-0.073 0.073171,-0.073 0.040244,0 0.073171,0.033 0.073171,0.073 0,0.04 -0.032927,0.073 -0.073171,0.073 z m 1.6335046,-0.1098 -0.073813,0.1829 0,-0.3658 0,-0.3659 0.073813,0.183 0.073813,0.1829 -0.073813,0.1829 z m -3.3896021,-0.037 c -0.040244,0 -0.073171,-0.033 -0.073171,-0.073 0,-0.04 0.032927,-0.073 0.073171,-0.073 0.040244,0 0.073171,0.033 0.073171,0.073 0,0.04 -0.032927,0.073 -0.073171,0.073 z m 2.1951219,-0.1463 c -0.1207317,0.1002 -0.2195122,0.1492 -0.2195122,0.109 0,-0.04 0.098781,-0.1552 0.2195122,-0.2554 0.1207317,-0.1002 0.2195122,-0.1492 0.2195122,-0.109 0,0.04 -0.098781,0.1552 -0.2195122,0.2554 z m -3.4008795,-0.4512 c -0.02098,0.034 -0.038145,-0.01 -0.038145,-0.087 0,-0.081 0.1481707,-0.2735 0.3292683,-0.4268 l 0.3292683,-0.2788 -0.2911234,0.3658 c -0.1601179,0.2013 -0.3082886,0.3933 -0.3292683,0.4269 z m 4.4903103,-0.079 c -0.035772,0.035 -0.1897706,-0.1118 -0.3422183,-0.3252 l -0.2771778,-0.3881 0.3422184,0.3252 c 0.1882201,0.1788 0.3129502,0.3535 0.2771777,0.3881 z m -0.8089429,-0.6399 c -0.00671,-1e-4 -0.056098,-0.044 -0.1097561,-0.098 -0.053659,-0.054 -0.097561,-0.3581 -0.097561,-0.6765 l 0,-0.5789 -0.2560975,0.1984 -0.2560976,0.1983 0.2911234,-0.3633 c 0.1601179,-0.1999 0.3021933,-0.3847 0.3157233,-0.4108 0.013531,-0.026 0.047159,0.3527 0.07473,0.8417 0.027572,0.4891 0.044643,0.8891 0.037935,0.8889 z m -2.8908858,-0.2563 -0.073813,0.1829 0,-0.3659 0,-0.3658 0.073813,0.1829 0.073813,0.1829 -0.073813,0.183 z m 0.6347882,-0.622 -0.195122,0 0.097561,-0.098 0.097561,-0.098 0.097561,0.098 0.097561,0.098 -0.1951219,0 z m 1.3170731,0 -0.1951219,0 0.097561,-0.098 0.097561,-0.098 0.097561,0.098 0.097561,0.098 -0.1951219,0 z m -1.6656535,-0.1463 c -0.040244,0 -0.1138705,-0.066 -0.1636148,-0.1464 -0.049744,-0.081 -0.057517,-0.1463 -0.017273,-0.1463 0.040244,0 0.1138704,0.066 0.1636147,0.1463 0.049744,0.081 0.057517,0.1464 0.017273,0.1464 z m 2.4705316,-1.0244 c -0.040244,0 -0.073171,-0.033 -0.073171,-0.073 0,-0.04 0.032927,-0.073 0.073171,-0.073 0.040244,0 0.073171,0.033 0.073171,0.073 0,0.04 -0.032927,0.073 -0.073171,0.073 z m -2.6341464,-0.2927 c -0.1207317,0.1002 -0.2195122,0.1492 -0.2195122,0.109 0,-0.04 0.098781,-0.1552 0.2195122,-0.2554 0.1207317,-0.1001 0.2195122,-0.1492 0.2195122,-0.109 0,0.04 -0.098781,0.1552 -0.2195122,0.2554 z m 2.5050782,0 c -0.040244,0 -0.1138705,-0.066 -0.1636148,-0.1464 -0.049744,-0.08 -0.057517,-0.1463 -0.017273,-0.1463 0.040244,0 0.1138705,0.066 0.1636147,0.1463 0.049744,0.081 0.057517,0.1464 0.017273,0.1464 z m -1.992883,-0.2927 -0.195122,0 0.097561,-0.098 0.097561,-0.097 0.097561,0.097 0.097561,0.098 -0.1951219,0 z m 1.4634146,0 -0.1951219,0 0.097561,-0.098 0.097561,-0.097 0.097561,0.097 0.097561,0.098 -0.1951219,0 z m -0.8048781,-0.1749 -0.4390244,0.01 0.1801417,-0.073 c 0.099078,-0.04 0.296639,-0.043 0.4390244,-0.01 l 0.2588827,0.067 -0.4390244,0.01 z"
         id="path4034" />
      <path
         style="fill:#020202"
         d="m -6.1875198,1049.0699 c -0.022648,-2e-4 -0.075596,-0.09 -0.1176617,-0.1997 -0.042066,-0.1096 -0.055484,-0.5871 -0.029819,-1.061 l 0.046665,-0.8616 0.070997,1.0613 c 0.039048,0.5837 0.052467,1.0611 0.029819,1.061 z m 0.8054071,-1.0939 -0.055505,1.0204 0.011492,-1.0859 0.011492,-1.0859 0.2195121,-0.059 0.2195122,-0.059 -0.1754988,0.1249 -0.1754987,0.125 -0.055505,1.0203 z m -1.4227653,-1.1016 -0.195122,0 0.097561,-0.098 0.097561,-0.098 0.097561,0.098 0.097561,0.098 -0.1951219,0 z m -0.4390244,-0.1463 -0.1951219,0 0.097561,-0.098 0.097561,-0.098 0.097561,0.098 0.097561,0.098 -0.1951219,0 z m 2.4878048,0 -0.1951219,0 0.097561,-0.098 0.097561,-0.098 0.097561,0.098 0.097561,0.098 -0.1951219,0 z m -2.8363852,-0.1464 c -0.040244,0 -0.1138706,-0.066 -0.1636148,-0.1463 -0.049744,-0.081 -0.057517,-0.1464 -0.017273,-0.1464 0.040244,0 0.1138705,0.066 0.1636147,0.1464 0.049744,0.081 0.057517,0.1463 0.017273,0.1463 z m 3.2754096,-0.073 c -0.080488,0.05 -0.1463414,0.058 -0.1463414,0.017 0,-0.04 0.065854,-0.1139 0.1463414,-0.1636 0.080488,-0.05 0.1463415,-0.058 0.1463415,-0.017 0,0.04 -0.065854,0.1139 -0.1463415,0.1636 z m -3.714434,-0.3658 c -0.040244,0 -0.1138706,-0.066 -0.1636148,-0.1463 -0.049744,-0.081 -0.057517,-0.1464 -0.017273,-0.1464 0.040244,0 0.1138705,0.066 0.1636147,0.1464 0.049744,0.08 0.057517,0.1463 0.017273,0.1463 z m 4.1534584,-0.073 c -0.080488,0.05 -0.1463414,0.057 -0.1463414,0.017 0,-0.04 0.065854,-0.1139 0.1463414,-0.1636 0.080488,-0.05 0.1463415,-0.057 0.1463415,-0.017 0,0.04 -0.065854,0.1139 -0.1463415,0.1636 z m -4.4366174,-0.6311 -0.076861,0.1921 -0.011553,-0.2805 -0.011553,-0.2805 0.088415,0.088 0.088415,0.089 -0.076861,0.192 z m 4.6829268,0 -0.076861,0.1921 -0.011553,-0.2805 -0.011553,-0.2805 0.088415,0.088 0.088415,0.089 -0.076861,0.192 z m -4.5633826,-0.4664 c -0.040244,0 -0.073171,-0.033 -0.073171,-0.073 0,-0.04 0.032927,-0.073 0.073171,-0.073 0.040244,0 0.073171,0.033 0.073171,0.073 0,0.04 -0.032927,0.073 -0.073171,0.073 z m 4.390244,0 c -0.040244,0 -0.073171,-0.033 -0.073171,-0.073 0,-0.04 0.032927,-0.073 0.073171,-0.073 0.040244,0 0.073171,0.033 0.073171,0.073 0,0.04 -0.032927,0.073 -0.073171,0.073 z m -4.097561,-0.4391 c -0.1207317,0.1002 -0.2195122,0.1493 -0.2195122,0.109 0,-0.04 0.098781,-0.1551 0.2195122,-0.2553 0.1207317,-0.1002 0.2195122,-0.1493 0.2195122,-0.109 0,0.04 -0.098781,0.1551 -0.2195122,0.2553 z m 3.9691383,0.1464 c -0.030389,0 -0.1456326,-0.1153 -0.2560976,-0.2561 l -0.2008456,-0.2561 0.2560976,0.2008 c 0.1408536,0.1105 0.2560975,0.2257 0.2560975,0.2561 0,0.03 -0.024863,0.055 -0.055252,0.055 z m -0.644463,-0.4388 c -0.022648,-10e-5 -0.075977,-0.091 -0.118509,-0.2018 -0.042532,-0.1108 -0.055688,-0.5224 -0.029237,-0.9146 l 0.048094,-0.7131 0.070415,0.9149 c 0.038728,0.5032 0.051885,0.9148 0.029236,0.9146 z m -2.8619025,-0.2563 -0.073813,0.1829 0,-0.3659 0,-0.3658 0.073813,0.1829 0.073813,0.1829 -0.073813,0.183 z m 2.7567394,-1.7927 c -0.040244,0 -0.073171,-0.033 -0.073171,-0.073 0,-0.04 0.032927,-0.073 0.073171,-0.073 0.040244,0 0.073171,0.033 0.073171,0.073 0,0.04 -0.032927,0.073 -0.073171,0.073 z m -2.6341464,-0.2927 c -0.1207317,0.1002 -0.2195122,0.1492 -0.2195122,0.109 0,-0.04 0.098781,-0.1552 0.2195122,-0.2554 0.1207317,-0.1001 0.2195122,-0.1492 0.2195122,-0.109 0,0.04 -0.098781,0.1552 -0.2195122,0.2554 z m 2.4878049,0 c -0.040244,0 -0.073171,-0.033 -0.073171,-0.073 0,-0.04 0.032927,-0.073 0.073171,-0.073 0.040244,0 0.073171,0.033 0.073171,0.073 0,0.04 -0.032927,0.073 -0.073171,0.073 z m -1.9756097,-0.2927 -0.195122,0 0.097561,-0.098 0.097561,-0.097 0.097561,0.097 0.097561,0.098 -0.1951219,0 z m 1.4634146,0 -0.1951219,0 0.097561,-0.098 0.097561,-0.097 0.097561,0.097 0.097561,0.098 -0.1951219,0 z m -0.7317073,-0.1694 -0.3658537,0 0.1829268,-0.074 0.1829269,-0.074 0.1829268,0.074 0.1829268,0.074 -0.3658536,0 z"
         id="path4032" />
    </g>
  </g>
</svg>
