<?xml version="1.0" encoding="UTF-8" standalone="no"?>
<!-- Created with Inkscape (http://www.inkscape.org/) -->

<svg
   xmlns:dc="http://purl.org/dc/elements/1.1/"
   xmlns:cc="http://creativecommons.org/ns#"
   xmlns:rdf="http://www.w3.org/1999/02/22-rdf-syntax-ns#"
   xmlns:svg="http://www.w3.org/2000/svg"
   xmlns="http://www.w3.org/2000/svg"
   xmlns:sodipodi="http://sodipodi.sourceforge.net/DTD/sodipodi-0.dtd"
   xmlns:inkscape="http://www.inkscape.org/namespaces/inkscape"
   width="16"
   height="16"
   id="svg2"
   version="1.1"
   inkscape:version="0.47 r22583"
   sodipodi:docname="police-64.svg">
  <defs
     id="defs4">
    <inkscape:perspective
       sodipodi:type="inkscape:persp3d"
       inkscape:vp_x="0 : 526.18109 : 1"
       inkscape:vp_y="0 : 1000 : 0"
       inkscape:vp_z="744.09448 : 526.18109 : 1"
       inkscape:persp3d-origin="372.04724 : 350.78739 : 1"
       id="perspective10" />
    <inkscape:perspective
       id="perspective2824"
       inkscape:persp3d-origin="0.5 : 0.33333333 : 1"
       inkscape:vp_z="1 : 0.5 : 1"
       inkscape:vp_y="0 : 1000 : 0"
       inkscape:vp_x="0 : 0.5 : 1"
       sodipodi:type="inkscape:persp3d" />
    <inkscape:perspective
       id="perspective5878"
       inkscape:persp3d-origin="0.5 : 0.33333333 : 1"
       inkscape:vp_z="1 : 0.5 : 1"
       inkscape:vp_y="0 : 1000 : 0"
       inkscape:vp_x="0 : 0.5 : 1"
       sodipodi:type="inkscape:persp3d" />
    <inkscape:perspective
       id="perspective5921"
       inkscape:persp3d-origin="0.5 : 0.33333333 : 1"
       inkscape:vp_z="1 : 0.5 : 1"
       inkscape:vp_y="0 : 1000 : 0"
       inkscape:vp_x="0 : 0.5 : 1"
       sodipodi:type="inkscape:persp3d" />
    <inkscape:perspective
       id="perspective5943"
       inkscape:persp3d-origin="0.5 : 0.33333333 : 1"
       inkscape:vp_z="1 : 0.5 : 1"
       inkscape:vp_y="0 : 1000 : 0"
       inkscape:vp_x="0 : 0.5 : 1"
       sodipodi:type="inkscape:persp3d" />
    <inkscape:perspective
       id="perspective5989"
       inkscape:persp3d-origin="0.5 : 0.33333333 : 1"
       inkscape:vp_z="1 : 0.5 : 1"
       inkscape:vp_y="0 : 1000 : 0"
       inkscape:vp_x="0 : 0.5 : 1"
       sodipodi:type="inkscape:persp3d" />
    <inkscape:perspective
       id="perspective6011"
       inkscape:persp3d-origin="0.5 : 0.33333333 : 1"
       inkscape:vp_z="1 : 0.5 : 1"
       inkscape:vp_y="0 : 1000 : 0"
       inkscape:vp_x="0 : 0.5 : 1"
       sodipodi:type="inkscape:persp3d" />
    <inkscape:perspective
       id="perspective6033"
       inkscape:persp3d-origin="0.5 : 0.33333333 : 1"
       inkscape:vp_z="1 : 0.5 : 1"
       inkscape:vp_y="0 : 1000 : 0"
       inkscape:vp_x="0 : 0.5 : 1"
       sodipodi:type="inkscape:persp3d" />
    <inkscape:perspective
       id="perspective6245"
       inkscape:persp3d-origin="0.5 : 0.33333333 : 1"
       inkscape:vp_z="1 : 0.5 : 1"
       inkscape:vp_y="0 : 1000 : 0"
       inkscape:vp_x="0 : 0.5 : 1"
       sodipodi:type="inkscape:persp3d" />
    <inkscape:perspective
       id="perspective6269"
       inkscape:persp3d-origin="0.5 : 0.33333333 : 1"
       inkscape:vp_z="1 : 0.5 : 1"
       inkscape:vp_y="0 : 1000 : 0"
       inkscape:vp_x="0 : 0.5 : 1"
       sodipodi:type="inkscape:persp3d" />
    <inkscape:perspective
       id="perspective6364"
       inkscape:persp3d-origin="0.5 : 0.33333333 : 1"
       inkscape:vp_z="1 : 0.5 : 1"
       inkscape:vp_y="0 : 1000 : 0"
       inkscape:vp_x="0 : 0.5 : 1"
       sodipodi:type="inkscape:persp3d" />
    <inkscape:perspective
       id="perspective6396"
       inkscape:persp3d-origin="0.5 : 0.33333333 : 1"
       inkscape:vp_z="1 : 0.5 : 1"
       inkscape:vp_y="0 : 1000 : 0"
       inkscape:vp_x="0 : 0.5 : 1"
       sodipodi:type="inkscape:persp3d" />
    <inkscape:perspective
       id="perspective6438"
       inkscape:persp3d-origin="0.5 : 0.33333333 : 1"
       inkscape:vp_z="1 : 0.5 : 1"
       inkscape:vp_y="0 : 1000 : 0"
       inkscape:vp_x="0 : 0.5 : 1"
       sodipodi:type="inkscape:persp3d" />
    <inkscape:perspective
       id="perspective6460"
       inkscape:persp3d-origin="0.5 : 0.33333333 : 1"
       inkscape:vp_z="1 : 0.5 : 1"
       inkscape:vp_y="0 : 1000 : 0"
       inkscape:vp_x="0 : 0.5 : 1"
       sodipodi:type="inkscape:persp3d" />
    <inkscape:perspective
       id="perspective6480"
       inkscape:persp3d-origin="0.5 : 0.33333333 : 1"
       inkscape:vp_z="1 : 0.5 : 1"
       inkscape:vp_y="0 : 1000 : 0"
       inkscape:vp_x="0 : 0.5 : 1"
       sodipodi:type="inkscape:persp3d" />
    <inkscape:perspective
       id="perspective6504"
       inkscape:persp3d-origin="0.5 : 0.33333333 : 1"
       inkscape:vp_z="1 : 0.5 : 1"
       inkscape:vp_y="0 : 1000 : 0"
       inkscape:vp_x="0 : 0.5 : 1"
       sodipodi:type="inkscape:persp3d" />
    <inkscape:perspective
       id="perspective6524"
       inkscape:persp3d-origin="0.5 : 0.33333333 : 1"
       inkscape:vp_z="1 : 0.5 : 1"
       inkscape:vp_y="0 : 1000 : 0"
       inkscape:vp_x="0 : 0.5 : 1"
       sodipodi:type="inkscape:persp3d" />
    <inkscape:perspective
       id="perspective6548"
       inkscape:persp3d-origin="0.5 : 0.33333333 : 1"
       inkscape:vp_z="1 : 0.5 : 1"
       inkscape:vp_y="0 : 1000 : 0"
       inkscape:vp_x="0 : 0.5 : 1"
       sodipodi:type="inkscape:persp3d" />
    <inkscape:perspective
       id="perspective6572"
       inkscape:persp3d-origin="0.5 : 0.33333333 : 1"
       inkscape:vp_z="1 : 0.5 : 1"
       inkscape:vp_y="0 : 1000 : 0"
       inkscape:vp_x="0 : 0.5 : 1"
       sodipodi:type="inkscape:persp3d" />
    <inkscape:perspective
       id="perspective6594"
       inkscape:persp3d-origin="0.5 : 0.33333333 : 1"
       inkscape:vp_z="1 : 0.5 : 1"
       inkscape:vp_y="0 : 1000 : 0"
       inkscape:vp_x="0 : 0.5 : 1"
       sodipodi:type="inkscape:persp3d" />
    <inkscape:perspective
       id="perspective6614"
       inkscape:persp3d-origin="0.5 : 0.33333333 : 1"
       inkscape:vp_z="1 : 0.5 : 1"
       inkscape:vp_y="0 : 1000 : 0"
       inkscape:vp_x="0 : 0.5 : 1"
       sodipodi:type="inkscape:persp3d" />
    <inkscape:perspective
       id="perspective6650"
       inkscape:persp3d-origin="0.5 : 0.33333333 : 1"
       inkscape:vp_z="1 : 0.5 : 1"
       inkscape:vp_y="0 : 1000 : 0"
       inkscape:vp_x="0 : 0.5 : 1"
       sodipodi:type="inkscape:persp3d" />
    <inkscape:perspective
       id="perspective6676"
       inkscape:persp3d-origin="0.5 : 0.33333333 : 1"
       inkscape:vp_z="1 : 0.5 : 1"
       inkscape:vp_y="0 : 1000 : 0"
       inkscape:vp_x="0 : 0.5 : 1"
       sodipodi:type="inkscape:persp3d" />
    <inkscape:perspective
       id="perspective6710"
       inkscape:persp3d-origin="0.5 : 0.33333333 : 1"
       inkscape:vp_z="1 : 0.5 : 1"
       inkscape:vp_y="0 : 1000 : 0"
       inkscape:vp_x="0 : 0.5 : 1"
       sodipodi:type="inkscape:persp3d" />
    <inkscape:perspective
       id="perspective6748"
       inkscape:persp3d-origin="0.5 : 0.33333333 : 1"
       inkscape:vp_z="1 : 0.5 : 1"
       inkscape:vp_y="0 : 1000 : 0"
       inkscape:vp_x="0 : 0.5 : 1"
       sodipodi:type="inkscape:persp3d" />
    <inkscape:perspective
       id="perspective6786"
       inkscape:persp3d-origin="0.5 : 0.33333333 : 1"
       inkscape:vp_z="1 : 0.5 : 1"
       inkscape:vp_y="0 : 1000 : 0"
       inkscape:vp_x="0 : 0.5 : 1"
       sodipodi:type="inkscape:persp3d" />
    <inkscape:perspective
       id="perspective6810"
       inkscape:persp3d-origin="0.5 : 0.33333333 : 1"
       inkscape:vp_z="1 : 0.5 : 1"
       inkscape:vp_y="0 : 1000 : 0"
       inkscape:vp_x="0 : 0.5 : 1"
       sodipodi:type="inkscape:persp3d" />
    <inkscape:perspective
       id="perspective6848"
       inkscape:persp3d-origin="0.5 : 0.33333333 : 1"
       inkscape:vp_z="1 : 0.5 : 1"
       inkscape:vp_y="0 : 1000 : 0"
       inkscape:vp_x="0 : 0.5 : 1"
       sodipodi:type="inkscape:persp3d" />
    <inkscape:perspective
       id="perspective6870"
       inkscape:persp3d-origin="0.5 : 0.33333333 : 1"
       inkscape:vp_z="1 : 0.5 : 1"
       inkscape:vp_y="0 : 1000 : 0"
       inkscape:vp_x="0 : 0.5 : 1"
       sodipodi:type="inkscape:persp3d" />
    <inkscape:perspective
       id="perspective6908"
       inkscape:persp3d-origin="0.5 : 0.33333333 : 1"
       inkscape:vp_z="1 : 0.5 : 1"
       inkscape:vp_y="0 : 1000 : 0"
       inkscape:vp_x="0 : 0.5 : 1"
       sodipodi:type="inkscape:persp3d" />
    <inkscape:perspective
       id="perspective6946"
       inkscape:persp3d-origin="0.5 : 0.33333333 : 1"
       inkscape:vp_z="1 : 0.5 : 1"
       inkscape:vp_y="0 : 1000 : 0"
       inkscape:vp_x="0 : 0.5 : 1"
       sodipodi:type="inkscape:persp3d" />
    <inkscape:perspective
       id="perspective6970"
       inkscape:persp3d-origin="0.5 : 0.33333333 : 1"
       inkscape:vp_z="1 : 0.5 : 1"
       inkscape:vp_y="0 : 1000 : 0"
       inkscape:vp_x="0 : 0.5 : 1"
       sodipodi:type="inkscape:persp3d" />
    <inkscape:perspective
       id="perspective7008"
       inkscape:persp3d-origin="0.5 : 0.33333333 : 1"
       inkscape:vp_z="1 : 0.5 : 1"
       inkscape:vp_y="0 : 1000 : 0"
       inkscape:vp_x="0 : 0.5 : 1"
       sodipodi:type="inkscape:persp3d" />
    <inkscape:perspective
       id="perspective7036"
       inkscape:persp3d-origin="0.5 : 0.33333333 : 1"
       inkscape:vp_z="1 : 0.5 : 1"
       inkscape:vp_y="0 : 1000 : 0"
       inkscape:vp_x="0 : 0.5 : 1"
       sodipodi:type="inkscape:persp3d" />
    <inkscape:perspective
       id="perspective7060"
       inkscape:persp3d-origin="0.5 : 0.33333333 : 1"
       inkscape:vp_z="1 : 0.5 : 1"
       inkscape:vp_y="0 : 1000 : 0"
       inkscape:vp_x="0 : 0.5 : 1"
       sodipodi:type="inkscape:persp3d" />
    <inkscape:perspective
       id="perspective7098"
       inkscape:persp3d-origin="0.5 : 0.33333333 : 1"
       inkscape:vp_z="1 : 0.5 : 1"
       inkscape:vp_y="0 : 1000 : 0"
       inkscape:vp_x="0 : 0.5 : 1"
       sodipodi:type="inkscape:persp3d" />
    <inkscape:perspective
       id="perspective7136"
       inkscape:persp3d-origin="0.5 : 0.33333333 : 1"
       inkscape:vp_z="1 : 0.5 : 1"
       inkscape:vp_y="0 : 1000 : 0"
       inkscape:vp_x="0 : 0.5 : 1"
       sodipodi:type="inkscape:persp3d" />
    <inkscape:perspective
       id="perspective7174"
       inkscape:persp3d-origin="0.5 : 0.33333333 : 1"
       inkscape:vp_z="1 : 0.5 : 1"
       inkscape:vp_y="0 : 1000 : 0"
       inkscape:vp_x="0 : 0.5 : 1"
       sodipodi:type="inkscape:persp3d" />
    <inkscape:perspective
       id="perspective7212"
       inkscape:persp3d-origin="0.5 : 0.33333333 : 1"
       inkscape:vp_z="1 : 0.5 : 1"
       inkscape:vp_y="0 : 1000 : 0"
       inkscape:vp_x="0 : 0.5 : 1"
       sodipodi:type="inkscape:persp3d" />
    <inkscape:perspective
       id="perspective7234"
       inkscape:persp3d-origin="0.5 : 0.33333333 : 1"
       inkscape:vp_z="1 : 0.5 : 1"
       inkscape:vp_y="0 : 1000 : 0"
       inkscape:vp_x="0 : 0.5 : 1"
       sodipodi:type="inkscape:persp3d" />
    <inkscape:perspective
       id="perspective7272"
       inkscape:persp3d-origin="0.5 : 0.33333333 : 1"
       inkscape:vp_z="1 : 0.5 : 1"
       inkscape:vp_y="0 : 1000 : 0"
       inkscape:vp_x="0 : 0.5 : 1"
       sodipodi:type="inkscape:persp3d" />
    <inkscape:perspective
       id="perspective7294"
       inkscape:persp3d-origin="0.5 : 0.33333333 : 1"
       inkscape:vp_z="1 : 0.5 : 1"
       inkscape:vp_y="0 : 1000 : 0"
       inkscape:vp_x="0 : 0.5 : 1"
       sodipodi:type="inkscape:persp3d" />
    <inkscape:perspective
       id="perspective7330"
       inkscape:persp3d-origin="0.5 : 0.33333333 : 1"
       inkscape:vp_z="1 : 0.5 : 1"
       inkscape:vp_y="0 : 1000 : 0"
       inkscape:vp_x="0 : 0.5 : 1"
       sodipodi:type="inkscape:persp3d" />
    <inkscape:perspective
       id="perspective3068"
       inkscape:persp3d-origin="0.5 : 0.33333333 : 1"
       inkscape:vp_z="1 : 0.5 : 1"
       inkscape:vp_y="0 : 1000 : 0"
       inkscape:vp_x="0 : 0.5 : 1"
       sodipodi:type="inkscape:persp3d" />
    <inkscape:perspective
       id="perspective3106"
       inkscape:persp3d-origin="0.5 : 0.33333333 : 1"
       inkscape:vp_z="1 : 0.5 : 1"
       inkscape:vp_y="0 : 1000 : 0"
       inkscape:vp_x="0 : 0.5 : 1"
       sodipodi:type="inkscape:persp3d" />
    <inkscape:perspective
       id="perspective3128"
       inkscape:persp3d-origin="0.5 : 0.33333333 : 1"
       inkscape:vp_z="1 : 0.5 : 1"
       inkscape:vp_y="0 : 1000 : 0"
       inkscape:vp_x="0 : 0.5 : 1"
       sodipodi:type="inkscape:persp3d" />
    <inkscape:perspective
       id="perspective3152"
       inkscape:persp3d-origin="0.5 : 0.33333333 : 1"
       inkscape:vp_z="1 : 0.5 : 1"
       inkscape:vp_y="0 : 1000 : 0"
       inkscape:vp_x="0 : 0.5 : 1"
       sodipodi:type="inkscape:persp3d" />
    <inkscape:perspective
       id="perspective3174"
       inkscape:persp3d-origin="0.5 : 0.33333333 : 1"
       inkscape:vp_z="1 : 0.5 : 1"
       inkscape:vp_y="0 : 1000 : 0"
       inkscape:vp_x="0 : 0.5 : 1"
       sodipodi:type="inkscape:persp3d" />
    <inkscape:perspective
       id="perspective3212"
       inkscape:persp3d-origin="0.5 : 0.33333333 : 1"
       inkscape:vp_z="1 : 0.5 : 1"
       inkscape:vp_y="0 : 1000 : 0"
       inkscape:vp_x="0 : 0.5 : 1"
       sodipodi:type="inkscape:persp3d" />
    <inkscape:perspective
       id="perspective3238"
       inkscape:persp3d-origin="0.5 : 0.33333333 : 1"
       inkscape:vp_z="1 : 0.5 : 1"
       inkscape:vp_y="0 : 1000 : 0"
       inkscape:vp_x="0 : 0.5 : 1"
       sodipodi:type="inkscape:persp3d" />
    <inkscape:perspective
       id="perspective3276"
       inkscape:persp3d-origin="0.5 : 0.33333333 : 1"
       inkscape:vp_z="1 : 0.5 : 1"
       inkscape:vp_y="0 : 1000 : 0"
       inkscape:vp_x="0 : 0.5 : 1"
       sodipodi:type="inkscape:persp3d" />
    <inkscape:perspective
       id="perspective3314"
       inkscape:persp3d-origin="0.5 : 0.33333333 : 1"
       inkscape:vp_z="1 : 0.5 : 1"
       inkscape:vp_y="0 : 1000 : 0"
       inkscape:vp_x="0 : 0.5 : 1"
       sodipodi:type="inkscape:persp3d" />
    <inkscape:perspective
       id="perspective3350"
       inkscape:persp3d-origin="0.5 : 0.33333333 : 1"
       inkscape:vp_z="1 : 0.5 : 1"
       inkscape:vp_y="0 : 1000 : 0"
       inkscape:vp_x="0 : 0.5 : 1"
       sodipodi:type="inkscape:persp3d" />
    <inkscape:perspective
       id="perspective3376"
       inkscape:persp3d-origin="0.5 : 0.33333333 : 1"
       inkscape:vp_z="1 : 0.5 : 1"
       inkscape:vp_y="0 : 1000 : 0"
       inkscape:vp_x="0 : 0.5 : 1"
       sodipodi:type="inkscape:persp3d" />
    <inkscape:perspective
       id="perspective3402"
       inkscape:persp3d-origin="0.5 : 0.33333333 : 1"
       inkscape:vp_z="1 : 0.5 : 1"
       inkscape:vp_y="0 : 1000 : 0"
       inkscape:vp_x="0 : 0.5 : 1"
       sodipodi:type="inkscape:persp3d" />
    <inkscape:perspective
       id="perspective3428"
       inkscape:persp3d-origin="0.5 : 0.33333333 : 1"
       inkscape:vp_z="1 : 0.5 : 1"
       inkscape:vp_y="0 : 1000 : 0"
       inkscape:vp_x="0 : 0.5 : 1"
       sodipodi:type="inkscape:persp3d" />
    <inkscape:perspective
       id="perspective3466"
       inkscape:persp3d-origin="0.5 : 0.33333333 : 1"
       inkscape:vp_z="1 : 0.5 : 1"
       inkscape:vp_y="0 : 1000 : 0"
       inkscape:vp_x="0 : 0.5 : 1"
       sodipodi:type="inkscape:persp3d" />
    <inkscape:perspective
       id="perspective3504"
       inkscape:persp3d-origin="0.5 : 0.33333333 : 1"
       inkscape:vp_z="1 : 0.5 : 1"
       inkscape:vp_y="0 : 1000 : 0"
       inkscape:vp_x="0 : 0.5 : 1"
       sodipodi:type="inkscape:persp3d" />
    <inkscape:perspective
       id="perspective3542"
       inkscape:persp3d-origin="0.5 : 0.33333333 : 1"
       inkscape:vp_z="1 : 0.5 : 1"
       inkscape:vp_y="0 : 1000 : 0"
       inkscape:vp_x="0 : 0.5 : 1"
       sodipodi:type="inkscape:persp3d" />
    <inkscape:perspective
       id="perspective3566"
       inkscape:persp3d-origin="0.5 : 0.33333333 : 1"
       inkscape:vp_z="1 : 0.5 : 1"
       inkscape:vp_y="0 : 1000 : 0"
       inkscape:vp_x="0 : 0.5 : 1"
       sodipodi:type="inkscape:persp3d" />
    <inkscape:perspective
       id="perspective3590"
       inkscape:persp3d-origin="0.5 : 0.33333333 : 1"
       inkscape:vp_z="1 : 0.5 : 1"
       inkscape:vp_y="0 : 1000 : 0"
       inkscape:vp_x="0 : 0.5 : 1"
       sodipodi:type="inkscape:persp3d" />
    <inkscape:perspective
       id="perspective3610"
       inkscape:persp3d-origin="0.5 : 0.33333333 : 1"
       inkscape:vp_z="1 : 0.5 : 1"
       inkscape:vp_y="0 : 1000 : 0"
       inkscape:vp_x="0 : 0.5 : 1"
       sodipodi:type="inkscape:persp3d" />
    <inkscape:perspective
       id="perspective3648"
       inkscape:persp3d-origin="0.5 : 0.33333333 : 1"
       inkscape:vp_z="1 : 0.5 : 1"
       inkscape:vp_y="0 : 1000 : 0"
       inkscape:vp_x="0 : 0.5 : 1"
       sodipodi:type="inkscape:persp3d" />
    <inkscape:perspective
       id="perspective3668"
       inkscape:persp3d-origin="0.5 : 0.33333333 : 1"
       inkscape:vp_z="1 : 0.5 : 1"
       inkscape:vp_y="0 : 1000 : 0"
       inkscape:vp_x="0 : 0.5 : 1"
       sodipodi:type="inkscape:persp3d" />
    <inkscape:perspective
       id="perspective3706"
       inkscape:persp3d-origin="0.5 : 0.33333333 : 1"
       inkscape:vp_z="1 : 0.5 : 1"
       inkscape:vp_y="0 : 1000 : 0"
       inkscape:vp_x="0 : 0.5 : 1"
       sodipodi:type="inkscape:persp3d" />
    <inkscape:perspective
       id="perspective3744"
       inkscape:persp3d-origin="0.5 : 0.33333333 : 1"
       inkscape:vp_z="1 : 0.5 : 1"
       inkscape:vp_y="0 : 1000 : 0"
       inkscape:vp_x="0 : 0.5 : 1"
       sodipodi:type="inkscape:persp3d" />
    <inkscape:perspective
       id="perspective3770"
       inkscape:persp3d-origin="0.5 : 0.33333333 : 1"
       inkscape:vp_z="1 : 0.5 : 1"
       inkscape:vp_y="0 : 1000 : 0"
       inkscape:vp_x="0 : 0.5 : 1"
       sodipodi:type="inkscape:persp3d" />
    <inkscape:perspective
       id="perspective3804"
       inkscape:persp3d-origin="0.5 : 0.33333333 : 1"
       inkscape:vp_z="1 : 0.5 : 1"
       inkscape:vp_y="0 : 1000 : 0"
       inkscape:vp_x="0 : 0.5 : 1"
       sodipodi:type="inkscape:persp3d" />
    <inkscape:perspective
       id="perspective3828"
       inkscape:persp3d-origin="0.5 : 0.33333333 : 1"
       inkscape:vp_z="1 : 0.5 : 1"
       inkscape:vp_y="0 : 1000 : 0"
       inkscape:vp_x="0 : 0.5 : 1"
       sodipodi:type="inkscape:persp3d" />
    <inkscape:perspective
       id="perspective3852"
       inkscape:persp3d-origin="0.5 : 0.33333333 : 1"
       inkscape:vp_z="1 : 0.5 : 1"
       inkscape:vp_y="0 : 1000 : 0"
       inkscape:vp_x="0 : 0.5 : 1"
       sodipodi:type="inkscape:persp3d" />
    <inkscape:perspective
       id="perspective3876"
       inkscape:persp3d-origin="0.5 : 0.33333333 : 1"
       inkscape:vp_z="1 : 0.5 : 1"
       inkscape:vp_y="0 : 1000 : 0"
       inkscape:vp_x="0 : 0.5 : 1"
       sodipodi:type="inkscape:persp3d" />
    <inkscape:perspective
       id="perspective3900"
       inkscape:persp3d-origin="0.5 : 0.33333333 : 1"
       inkscape:vp_z="1 : 0.5 : 1"
       inkscape:vp_y="0 : 1000 : 0"
       inkscape:vp_x="0 : 0.5 : 1"
       sodipodi:type="inkscape:persp3d" />
    <inkscape:perspective
       id="perspective3924"
       inkscape:persp3d-origin="0.5 : 0.33333333 : 1"
       inkscape:vp_z="1 : 0.5 : 1"
       inkscape:vp_y="0 : 1000 : 0"
       inkscape:vp_x="0 : 0.5 : 1"
       sodipodi:type="inkscape:persp3d" />
    <inkscape:perspective
       id="perspective3948"
       inkscape:persp3d-origin="0.5 : 0.33333333 : 1"
       inkscape:vp_z="1 : 0.5 : 1"
       inkscape:vp_y="0 : 1000 : 0"
       inkscape:vp_x="0 : 0.5 : 1"
       sodipodi:type="inkscape:persp3d" />
    <inkscape:perspective
       id="perspective3986"
       inkscape:persp3d-origin="0.5 : 0.33333333 : 1"
       inkscape:vp_z="1 : 0.5 : 1"
       inkscape:vp_y="0 : 1000 : 0"
       inkscape:vp_x="0 : 0.5 : 1"
       sodipodi:type="inkscape:persp3d" />
    <inkscape:perspective
       id="perspective4024"
       inkscape:persp3d-origin="0.5 : 0.33333333 : 1"
       inkscape:vp_z="1 : 0.5 : 1"
       inkscape:vp_y="0 : 1000 : 0"
       inkscape:vp_x="0 : 0.5 : 1"
       sodipodi:type="inkscape:persp3d" />
    <inkscape:perspective
       id="perspective4062"
       inkscape:persp3d-origin="0.5 : 0.33333333 : 1"
       inkscape:vp_z="1 : 0.5 : 1"
       inkscape:vp_y="0 : 1000 : 0"
       inkscape:vp_x="0 : 0.5 : 1"
       sodipodi:type="inkscape:persp3d" />
    <inkscape:perspective
       id="perspective4100"
       inkscape:persp3d-origin="0.5 : 0.33333333 : 1"
       inkscape:vp_z="1 : 0.5 : 1"
       inkscape:vp_y="0 : 1000 : 0"
       inkscape:vp_x="0 : 0.5 : 1"
       sodipodi:type="inkscape:persp3d" />
    <inkscape:perspective
       id="perspective4126"
       inkscape:persp3d-origin="0.5 : 0.33333333 : 1"
       inkscape:vp_z="1 : 0.5 : 1"
       inkscape:vp_y="0 : 1000 : 0"
       inkscape:vp_x="0 : 0.5 : 1"
       sodipodi:type="inkscape:persp3d" />
  </defs>
  <sodipodi:namedview
     id="base"
     pagecolor="#ffffff"
     bordercolor="#666666"
     borderopacity="1.0"
     inkscape:pageopacity="0.0"
     inkscape:pageshadow="2"
     inkscape:zoom="11.313709"
     inkscape:cx="11.966503"
     inkscape:cy="14.926085"
     inkscape:document-units="px"
     inkscape:current-layer="layer1"
     showgrid="true"
     inkscape:window-width="1280"
     inkscape:window-height="780"
     inkscape:window-x="-8"
     inkscape:window-y="-8"
     inkscape:window-maximized="1">
    <inkscape:grid
       type="xygrid"
       id="grid6324"
       empspacing="5"
       visible="true"
       enabled="true"
       snapvisiblegridlinesonly="true" />
  </sodipodi:namedview>
  <metadata
     id="metadata7">
    <rdf:RDF>
      <cc:Work
         rdf:about="">
        <dc:format>image/svg+xml</dc:format>
        <dc:type
           rdf:resource="http://purl.org/dc/dcmitype/StillImage" />
        <dc:title></dc:title>
      </cc:Work>
    </rdf:RDF>
  </metadata>
  <g
     inkscape:label="Calque 1"
     inkscape:groupmode="layer"
     id="layer1"
     transform="translate(0,-1036.3622)">
    <g
       id="g4132"
       transform="translate(0.4323335,0.1428)">
      <path
         style="fill:#cdcece"
         d="m 8.642385,1049.4183 -0.6909416,0.7204 -0.2413959,-0.4511 -0.2413958,-0.451 -0.6727402,-0.3192 -0.67274,-0.3193 -0.9463034,-0.1179 -0.9463033,-0.118 -0.4010043,-0.539 -0.4010042,-0.539 0,-1.7458 0,-1.7459 -0.6058847,-0.1967 -0.6058847,-0.1967 1.0088359,-1.3333 1.0088359,-1.3334 0.5107745,-0.2327 0.5107744,-0.2327 0.7053242,-0.01 0.7053243,-0.01 0.4552252,-0.2523 0.455225,-0.2524 0.252312,-0.4552 0.252312,-0.4552 0.00675,0.3001 0.00675,0.3002 0.4408485,0.4141 0.4408484,0.4142 0.8448677,0 0.8448681,0 0.537346,0.3543 0.537346,0.3543 0.839817,1.2518 0.839817,1.2519 -0.424781,0.1325 c -0.233629,0.073 -0.482475,0.2226 -0.552991,0.3326 l -0.128211,0.1999 0.107598,1.6608 0.107597,1.6608 -0.47764,0.4776 -0.47764,0.4777 -1.120797,0.1371 -1.1207967,0.1372 -0.6909415,0.7203 z"
         id="path4154" />
      <path
         style="fill:#cfcbbb"
         d="m 8.642385,1049.4183 -0.6909416,0.7204 -0.2413959,-0.4511 -0.2413958,-0.451 -0.6727402,-0.3192 -0.67274,-0.3193 -0.9463034,-0.1179 -0.9463033,-0.118 -0.4010043,-0.539 -0.4010042,-0.539 0,-1.7458 0,-1.7459 -0.6058847,-0.1967 -0.6058847,-0.1967 1.0088359,-1.3333 1.0088359,-1.3334 0.5107745,-0.2327 0.5107744,-0.2327 0.7053242,-0.01 0.7053243,-0.01 0.4552252,-0.2523 0.455225,-0.2524 0.252312,-0.4552 0.252312,-0.4552 0.00675,0.3001 0.00675,0.3002 0.4408485,0.4141 0.4408484,0.4142 0.8448677,0 0.8448681,0 0.537346,0.3543 0.537346,0.3543 0.839817,1.2518 0.839817,1.2519 -0.424781,0.1325 c -0.233629,0.073 -0.482475,0.2226 -0.552991,0.3326 l -0.128211,0.1999 0.107598,1.6608 0.107597,1.6608 -0.47764,0.4776 -0.47764,0.4777 -1.120797,0.1371 -1.1207967,0.1372 -0.6909415,0.7203 z m -0.6128721,-0.01 c 0.036144,0 0.065717,-0.029 0.065717,-0.066 0,-0.036 -0.1928574,-0.229 -0.428572,-0.4286 l -0.428572,-0.3628 0.3628553,0.4286 c 0.1995704,0.2357 0.3924278,0.4285 0.4285721,0.4285 z m 0.7323842,-0.7256 c 0.2095241,-0.096 0.5095246,-0.2229 0.6666677,-0.2812 l 0.2857146,-0.1059 -0.296928,-0.015 -0.2969282,-0.015 -0.3697394,0.2962 -0.3697396,0.2962 0.3809529,-0.1752 z m -1.7142881,-0.036 c 0.052381,0 0.095238,-0.043 0.095238,-0.095 0,-0.052 -0.042857,-0.095 -0.095238,-0.095 -0.052381,0 -0.095238,0.043 -0.095238,0.095 0,0.052 0.042857,0.095 0.095238,0.095 z m -0.3809529,-0.2124 0.1904764,0.016 -0.2857147,-0.1846 c -0.157143,-0.1016 -0.4571435,-0.1774 -0.6666676,-0.1686 l -0.3809529,0.016 0.4761912,0.1525 c 0.2619051,0.084 0.5619055,0.1597 0.6666676,0.1685 z m 3.5238149,-0.1986 0.476191,0 -0.238096,-0.096 -0.238095,-0.096 -0.238096,0.096 -0.2380956,0.096 0.4761916,0 z m -5.3220999,-0.1604 c 0.2033414,0 0.3697115,-0.033 0.3697115,-0.073 0,-0.04 -0.2116921,-0.1135 -0.4704269,-0.163 l -0.4704268,-0.09 0.1007152,0.1629 c 0.055393,0.09 0.2670855,0.163 0.470427,0.163 z m 6.4422429,0 c 0.08478,0 0.309765,-0.172 0.499963,-0.3821 0.190198,-0.2102 0.310626,-0.4074 0.267617,-0.4382 -0.04301,-0.031 -0.267992,0.1411 -0.499963,0.3821 l -0.421765,0.4382 0.154148,0 z m 0.91662,-1.3846 c 0.04829,-0.1853 0.04512,-0.4425 -0.0071,-0.5714 l -0.09487,-0.2345 0.0071,0.5714 0.0071,0.5715 0.08781,-0.337 z m -0.227237,-1.0916 c 0.05238,0 0.09524,-0.1286 0.09524,-0.2857 l 0,-0.2857 -4.1428628,0.044 -4.142863,0.044 4.0476248,0.055 4.047625,0.055 0,0.1867 c 0,0.1027 0.04286,0.1867 0.09524,0.1867 z m -8.4762025,-3.3333 c 0.104762,-0.065 0.1904764,-0.1606 0.1904764,-0.213 0,-0.052 -0.085714,-0.042 -0.1904764,0.022 -0.1047621,0.065 -0.1904765,0.1606 -0.1904765,0.213 0,0.052 0.085714,0.042 0.1904765,-0.023 z m 5.4285791,0.095 c 0.052381,0 0.095238,-0.043 0.095238,-0.095 0,-0.052 -0.042857,-0.095 -0.095238,-0.095 -0.052381,0 -0.095238,0.043 -0.095238,0.095 0,0.052 0.042857,0.095 0.095238,0.095 z m 2.2857174,-0.1905 c 0.05238,0 0.09524,-0.043 0.09524,-0.095 0,-0.052 -0.04286,-0.095 -0.09524,-0.095 -0.05238,0 -0.09524,0.043 -0.09524,0.095 0,0.052 0.04286,0.095 0.09524,0.095 z m -7.2667138,-0.1904 c 0.044018,0 0.2273539,-0.2249 0.4074122,-0.4997 l 0.3273788,-0.4996 -0.2092097,0.1293 c -0.1150653,0.071 -0.2984008,0.2959 -0.407412,0.4996 -0.1090114,0.2037 -0.1621874,0.3704 -0.1181693,0.3704 z m 4.5558175,0 c 0.034633,0 0.01962,-0.3215 -0.033361,-0.7143 l -0.096329,-0.7143 -0.070963,0.4424 c -0.039029,0.2433 -0.024017,0.5648 0.033361,0.7143 0.057378,0.1495 0.1326591,0.2719 0.1672917,0.2719 z m 3.4977393,0 c 0.04044,0 -0.0311,-0.1676 -0.15897,-0.3723 -0.127874,-0.2048 -0.269387,-0.3354 -0.314472,-0.2904 -0.04508,0.045 0.02645,0.2127 0.15897,0.3723 0.132518,0.1597 0.274031,0.2904 0.314472,0.2904 z m -0.954837,-0.1905 c 0.05238,0 0.04226,-0.086 -0.02248,-0.1905 -0.06475,-0.1048 -0.160578,-0.1905 -0.212959,-0.1905 -0.05238,0 -0.04226,0.086 0.02248,0.1905 0.06475,0.1048 0.160578,0.1905 0.212959,0.1905 z m -0.403435,-0.5715 c 0.05238,0 0.09524,-0.043 0.09524,-0.095 0,-0.052 -0.04286,-0.095 -0.09524,-0.095 -0.05238,0 -0.09524,0.043 -0.09524,0.095 0,0.052 0.04286,0.095 0.09524,0.095 z m -0.190477,-0.3809 c 0.05238,0 0.09524,-0.043 0.09524,-0.095 0,-0.052 -0.04286,-0.095 -0.09524,-0.095 -0.05238,0 -0.09524,0.043 -0.09524,0.095 0,0.052 0.04286,0.095 0.09524,0.095 z"
         id="path4152" />
      <path
         style="fill:#b1b2b3"
         d="m 8.642385,1049.4183 -0.6909416,0.7204 -0.2413959,-0.4511 -0.2413958,-0.451 -0.6727402,-0.3192 -0.67274,-0.3193 -0.9463034,-0.1179 -0.9463033,-0.118 -0.4010043,-0.539 -0.4010042,-0.539 0,-1.7458 0,-1.7459 -0.6058847,-0.1967 -0.6058847,-0.1967 1.0088359,-1.3333 1.0088359,-1.3334 0.5107745,-0.2327 0.5107744,-0.2327 0.7053242,-0.01 0.7053243,-0.01 0.4552252,-0.2523 0.455225,-0.2524 0.252312,-0.4552 0.252312,-0.4552 0.00675,0.3001 0.00675,0.3002 0.4408485,0.4141 0.4408484,0.4142 0.8448677,0 0.8448681,0 0.537346,0.3543 0.537346,0.3543 0.839817,1.2518 0.839817,1.2519 -0.424781,0.1325 c -0.233629,0.073 -0.482475,0.2226 -0.552991,0.3326 l -0.128211,0.1999 0.107598,1.6608 0.107597,1.6608 -0.47764,0.4776 -0.47764,0.4777 -1.120797,0.1371 -1.1207967,0.1372 -0.6909415,0.7203 z m -0.2347251,-0.4145 0.4385141,-0.412 0.910244,-0.2448 0.910244,-0.2448 -0.416172,-0.013 c -0.228895,-0.01 -0.6574671,0.078 -0.9523826,0.1903 -0.2949156,0.1117 -0.7162027,0.3717 -0.9361935,0.5777 l -0.3999834,0.3746 -0.2666842,-0.3215 c -0.1466764,-0.1769 -0.5425032,-0.4369 -0.879615,-0.5778 -0.3371119,-0.1409 -0.7656839,-0.2502 -0.9523823,-0.2429 l -0.3394517,0.013 0.8717451,0.2686 0.8717448,0.2686 0.3509295,0.3878 0.3509292,0.3877 0.438514,-0.4119 z m -3.4795882,-0.9494 0.4052492,-0.022 -0.380953,-0.094 c -0.2095241,-0.052 -0.5095245,-0.1916 -0.6666676,-0.3113 l -0.2857147,-0.2176 0.2614185,0.3334 0.2614183,0.3333 0.4052493,-0.022 z m 6.1045443,0 0.365955,0.026 0.348332,-0.3152 c 0.191583,-0.1734 0.348332,-0.4068 0.348332,-0.5186 l 0,-0.2033 -0.28739,0.4103 -0.28739,0.4103 -0.426897,0.082 -0.426896,0.082 0.365954,0.026 z m -7.0326304,-0.736 c 0.052381,0 0.095238,-0.043 0.095238,-0.095 0,-0.052 -0.042857,-0.095 -0.095238,-0.095 -0.052381,0 -0.095238,0.043 -0.095238,0.095 0,0.052 0.042857,0.095 0.095238,0.095 z m 5.1759881,-0.065 c 0.070599,-0.071 0.1377155,-0.342 0.1491473,-0.6032 l 0.020785,-0.4748 -0.1491471,0 -0.1491473,0 0,0.6032 0,0.6032 0.1283619,-0.1284 z m -1.5569353,-0.1256 c 0.052381,0 0.095238,-0.043 0.095238,-0.095 0,-0.052 -0.042857,-0.095 -0.095238,-0.095 -0.052381,0 -0.095238,0.043 -0.095238,0.095 0,0.052 0.042857,0.095 0.095238,0.095 z m 3.2729786,-0.3452 0.100042,-0.25 -0.115079,-0.1151 -0.11508,-0.1151 0.01504,0.3651 0.01504,0.3651 0.100042,-0.25 z m 1.335217,-0.087 c 0.04829,-0.1853 0.04512,-0.4425 -0.0071,-0.5714 l -0.09487,-0.2345 0.0071,0.5714 0.0071,0.5715 0.08781,-0.337 z m -4.3609235,-0.4005 0.068225,-0.547 -0.1670995,-0.1671 -0.1670994,-0.1671 0.098875,0.7141 0.098875,0.7141 0.068225,-0.547 z m -1.3901309,0.071 c 0.052381,0 0.095238,-0.043 0.095238,-0.095 0,-0.052 -0.042857,-0.095 -0.095238,-0.095 -0.052381,0 -0.095238,0.043 -0.095238,0.095 0,0.052 0.042857,0.095 0.095238,0.095 z m 5.5238174,-0.5714 c 0.05238,0 0.09524,-0.1714 0.09524,-0.381 l 0,-0.3809 -4.1428628,0.044 -4.142863,0.044 4.0476248,0.055 4.047625,0.055 0,0.282 c 0,0.155 0.04286,0.2819 0.09524,0.2819 z m -8.3158874,-3.6668 c 0.2453163,-0.1641 0.5716057,-0.4776 0.7250875,-0.6967 0.1534817,-0.2191 0.2481544,-0.3984 0.2103839,-0.3984 -0.037771,0 -0.36406,0.3135 -0.7250876,0.6967 l -0.6564136,0.6968 0.4460298,-0.2984 z m 1.8396877,0.2382 c 0.052381,0 0.095238,-0.043 0.095238,-0.095 0,-0.052 -0.042857,-0.095 -0.095238,-0.095 -0.052381,0 -0.095238,0.043 -0.095238,0.095 0,0.052 0.042857,0.095 0.095238,0.095 z m 1.3333352,0 c 0.052381,0 0.095238,-0.043 0.095238,-0.095 0,-0.052 -0.042857,-0.095 -0.095238,-0.095 -0.052381,0 -0.095238,0.043 -0.095238,0.095 0,0.052 0.042857,0.095 0.095238,0.095 z m 2.154284,0 c 0.052381,0 -0.046618,-0.1567 -0.2199978,-0.3483 l -0.3152362,-0.3484 -0.03202,-0.7469 -0.03202,-0.7469 -0.075831,0.733 -0.075831,0.733 0.3278482,0.3622 c 0.1803167,0.1993 0.3707055,0.3623 0.4230865,0.3623 z m 1.6552455,0 c 0.05238,0 0.09524,-0.043 0.09524,-0.095 0,-0.052 -0.04286,-0.095 -0.09524,-0.095 -0.05238,0 -0.09524,0.043 -0.09524,0.095 0,0.052 0.04286,0.095 0.09524,0.095 z m 1.566334,0 c 0.03636,0 -0.01633,-0.15 -0.117102,-0.3333 -0.100772,-0.1834 -0.315347,-0.5048 -0.476835,-0.7143 -0.161488,-0.2095 -0.29634,-0.3132 -0.299672,-0.2304 -0.0033,0.083 0.18149,0.4042 0.410716,0.7143 0.229226,0.31 0.446527,0.5637 0.482893,0.5637 z m -7.0901516,-0.1905 c 0.052381,0 0.095238,-0.043 0.095238,-0.095 0,-0.052 -0.042857,-0.095 -0.095238,-0.095 -0.052381,0 -0.095238,0.043 -0.095238,0.095 0,0.052 0.042857,0.095 0.095238,0.095 z m 6.0598156,-0.01 0.155044,0.01 -0.427017,-0.7597 c -0.234859,-0.4179 -0.452074,-0.7348 -0.4827,-0.7041 -0.03062,0.031 0.09176,0.3697 0.271973,0.7535 0.18021,0.3839 0.397425,0.7007 0.4827,0.7041 z m -6.4407685,-0.1842 c 0.052381,0 0.095238,-0.043 0.095238,-0.095 0,-0.052 -0.042857,-0.095 -0.095238,-0.095 -0.052381,0 -0.095238,0.043 -0.095238,0.095 0,0.052 0.042857,0.095 0.095238,0.095 z m 2.8571469,-1.7143 c 0.052381,0 0.095238,-0.043 0.095238,-0.095 0,-0.052 -0.042857,-0.095 -0.095238,-0.095 -0.052381,0 -0.095238,0.043 -0.095238,0.095 0,0.052 0.042857,0.095 0.095238,0.095 z"
         id="path4150" />
      <path
         style="fill:#7984af"
         d="m 8.642385,1049.4183 -0.6909416,0.7204 -0.2413959,-0.4511 -0.2413958,-0.451 -0.6727402,-0.3192 -0.67274,-0.3193 -0.9463034,-0.1179 -0.9463033,-0.118 -0.4010043,-0.539 -0.4010042,-0.539 0,-1.7458 0,-1.7459 -0.6010127,-0.1951 -0.6010127,-0.1952 0.3795187,-0.521 0.3795187,-0.521 0.1669273,0.1032 0.1669274,0.1032 0.7688532,-0.7689 0.7688535,-0.7688 -0.00854,-0.2381 -0.00854,-0.2381 -0.8486084,0.9471 c -0.4667346,0.521 -0.8486084,0.8796 -0.8486084,0.7969 0,-0.083 0.2283131,-0.4497 0.5073625,-0.8156 l 0.5073625,-0.6652 0.5307989,-0.2744 0.530799,-0.2745 0.7237458,-0.01 0.7237458,-0.01 0.4552252,-0.2523 0.455225,-0.2524 0.252312,-0.4552 0.252312,-0.4552 0.00675,0.3001 0.00675,0.3002 0.4408485,0.4141 0.4408484,0.4142 0.8448677,0 0.8448678,0 0.535982,0.3534 0.535983,0.3534 0.480951,0.7078 c 0.264524,0.3892 0.440252,0.7484 0.390508,0.7982 -0.04974,0.05 -0.272685,-0.2044 -0.495425,-0.5648 -0.222739,-0.3604 -0.532517,-0.7612 -0.688395,-0.8905 l -0.283413,-0.2353 0,0.1796 c 0,0.099 0.307201,0.5384 0.682668,0.977 l 0.682668,0.7976 0.153641,-0.095 0.153641,-0.095 0.303222,0.4627 0.303223,0.4628 -0.425245,0.1327 c -0.233885,0.073 -0.482939,0.2227 -0.553455,0.3327 l -0.128211,0.1999 0.107598,1.6608 0.107597,1.6608 -0.47764,0.4776 -0.47764,0.4777 -1.120797,0.1371 -1.1207964,0.1372 -0.6909415,0.7203 z m -0.103739,-0.4726 0.61047,-0.4656 1.234964,-0.197 1.234964,-0.1969 0.333334,-0.4069 0.333334,-0.4069 -0.0026,-0.6932 c -0.0014,-0.3812 -0.05471,-0.8877 -0.118408,-1.1254 l -0.115808,-0.4322 -4.1196929,0.051 -4.1196929,0.051 -0.05765,0.8948 -0.05765,0.8949 0.2945052,0.5695 0.2945053,0.5695 0.9060032,0.1282 0.9060032,0.1282 0.784944,0.3383 c 0.4317192,0.186 0.8441328,0.434 0.9164748,0.551 l 0.1315307,0.2129 0.6104698,-0.4657 z m -2.6815149,-0.9036 -0.428572,0.061 0,-1.4418 0,-1.4418 0.8435385,0 0.8435387,0 0.2993201,0.2993 0.2993202,0.2993 0,0.4518 0,0.4518 -0.4233351,0.2965 -0.423335,0.2965 -0.3469207,0 -0.3469207,0 0.055969,0.3333 0.055969,0.3334 -0.4285721,0.061 z m 0.7305553,-1.5947 0.180422,-0.1115 -0.1115068,-0.1804 -0.111507,-0.1805 -0.1804218,0.1116 -0.180422,0.1115 0.1115068,0.1804 0.1115071,0.1804 0.1804217,-0.1115 z m 2.3163269,1.6291 -0.82074,0 -0.09955,-0.2594 c -0.054753,-0.1427 -0.073491,-0.7641 -0.041641,-1.381 l 0.057909,-1.1215 0.8947363,-0.058 0.8947361,-0.058 0.3909803,0.391 0.39098,0.391 0,0.7511 0,0.7511 -0.423336,0.2965 -0.4233346,0.2965 -0.8207401,0 z m 0.3816941,-0.8095 0.2380956,-0.079 0,-0.5397 0,-0.5397 -0.2380956,-0.079 -0.2380956,-0.079 0,0.6984 0,0.6984 0.2380956,-0.079 z m 0.3260121,-4.7143 c 0.2870473,0 0.7918375,-0.094 1.1217575,-0.2091 0.329919,-0.115 0.599852,-0.2453 0.599852,-0.2895 0,-0.044 -0.20855,-0.4108 -0.463444,-0.8146 l -0.463445,-0.7341 -0.484597,0.093 -0.4845971,0.093 -0.6841194,-0.4037 -0.6841193,-0.4036 0.1078497,1.0013 0.1078499,1.0013 0.4025542,0.3333 0.4025543,0.3334 0.5219042,0 z m -3.4143704,-0.1905 0.8864552,0 0.2956149,-0.3333 0.2956151,-0.3334 0.06724,-0.885 0.06724,-0.8851 -0.5143512,0.266 -0.5143512,0.266 -0.6605916,0 -0.6605914,0 -0.4285455,0.6934 -0.4285454,0.6934 0.3541776,0.259 0.3541779,0.259 0.8864551,0 z"
         id="path4148" />
      <path
         style="fill:#5d6aaa"
         d="m 8.642385,1049.4183 -0.6909416,0.7204 -0.2413959,-0.4511 -0.2413958,-0.451 -0.6727402,-0.3192 -0.67274,-0.3193 -0.9463034,-0.1179 -0.9463033,-0.118 -0.4010043,-0.539 -0.4010042,-0.539 0,-1.7458 0,-1.7459 -0.6058847,-0.1967 -0.6058847,-0.1967 1.0088359,-1.3333 1.0088359,-1.3334 0.5107745,-0.2327 0.5107744,-0.2327 0.7053242,-0.01 0.7053243,-0.01 0.4552252,-0.2523 0.455225,-0.2524 0.252312,-0.4552 0.252312,-0.4552 0.00675,0.3001 0.00675,0.3002 0.4408485,0.4141 0.4408484,0.4142 0.8448677,0 0.8448681,0 0.535982,0.3534 0.535983,0.3534 0.480951,0.7078 c 0.264524,0.3892 0.440252,0.7484 0.390508,0.7982 -0.04974,0.05 -0.272685,-0.2044 -0.495425,-0.5648 -0.222739,-0.3604 -0.532517,-0.7612 -0.688395,-0.8905 l -0.283413,-0.2353 0,0.2133 c 0,0.1173 0.309333,0.5556 0.687407,0.9741 l 0.687408,0.7609 0.148901,-0.092 0.148902,-0.092 0.303222,0.4627 0.303223,0.4628 -0.425245,0.1327 c -0.233885,0.073 -0.482939,0.2227 -0.553455,0.3327 l -0.128211,0.1999 0.107598,1.6608 0.107597,1.6608 -0.47764,0.4776 -0.47764,0.4777 -1.120797,0.1371 -1.1207967,0.1372 -0.6909415,0.7203 z m -0.2371954,-0.3213 0.4051983,-0.4183 0.7376605,-0.2048 c 0.4057133,-0.1126 0.9772716,-0.2053 1.2701286,-0.2059 l 0.532468,-10e-4 0.467534,-0.4676 0.467533,-0.4675 -0.0026,-0.7229 c -0.0014,-0.3977 -0.05429,-0.9158 -0.117454,-1.1516 l -0.114853,-0.4285 -4.1682664,0 -4.1682667,0 0.00281,1 0.00281,1 0.2400169,0.4762 0.2400169,0.4762 0.7571766,0.1579 c 0.416447,0.087 1.088007,0.2432 1.4923554,0.3473 l 0.7351789,0.1892 0.4076799,0.4198 0.4076797,0.4198 0.4051983,-0.4183 z m -2.6089254,-1.0205 -0.3677051,0 0,-1.4286 0,-1.4285 0.7408041,0 0.7408041,0 0.445836,0.361 0.4458359,0.361 -0.1908225,0.5426 -0.1908228,0.5426 -0.5672454,0.098 -0.5672453,0.098 -0.060867,0.4274 -0.060867,0.4273 -0.3677051,0 z m 0.6203915,-1.5675 c 0.124405,-0.041 0.2601194,-0.1771 0.3015877,-0.3016 l 0.075397,-0.2261 -0.3015878,0 -0.3015877,0 0,0.3015 0,0.3016 0.2261908,-0.075 z m 2.3577636,1.5675 -0.6791898,0 0,-1.4286 0,-1.4285 0.7362184,0 0.7362186,0 0.5018785,0.3947 0.501879,0.3948 -0.0029,0.6052 c -0.0016,0.3329 -0.06589,0.6996 -0.142857,0.8148 -0.07697,0.1153 -0.327163,0.3082 -0.5559905,0.4286 l -0.4160503,0.219 -0.6791899,0 z m 0.4757372,-0.7619 0.3930213,0 -0.059688,-0.6175 -0.059687,-0.6175 -0.3333338,-0.063 -0.3333338,-0.063 0,0.6807 0,0.6806 0.3930211,0 z m -5.781557,-4.9157 c 0.33631,-0.238 0.7956614,-0.6915 1.0207807,-1.0076 0.2251196,-0.3162 0.3783941,-0.6058 0.3406102,-0.6435 -0.037784,-0.038 -0.1984601,0.031 -0.3570582,0.1538 -0.1585981,0.1224 -0.5870354,0.6067 -0.9520828,1.0764 l -0.6637225,0.8538 0.6114726,-0.4329 z m 3.2342778,9e-4 0.4171741,-0.078 0.2714606,-0.3133 0.2714603,-0.3134 0.1172465,-0.9047 0.1172464,-0.9048 -0.1392133,0.01 c -0.076568,0 -0.3055962,0.1319 -0.5089531,0.2857 l -0.3697394,0.2796 -0.7227269,0 -0.7227271,0 -0.4554104,0.7143 -0.4554103,0.7143 0.3032533,0.1753 c 0.1667894,0.096 0.5633336,0.2295 0.8812093,0.2957 0.3178757,0.066 0.7656843,0.085 0.99513,0.043 z m 3.0235414,0.1529 0.6366033,0 0.490086,-0.2233 c 0.269548,-0.1228 0.464202,-0.2728 0.432565,-0.3333 -0.03164,-0.061 -0.214634,-0.4178 -0.406661,-0.794 l -0.349141,-0.6838 -0.7744646,-0.03 -0.7744642,-0.03 -0.469169,-0.3074 -0.4691691,-0.3075 0.097002,1.0096 0.097003,1.0095 0.426603,0.3454 0.4266031,0.3455 0.6366034,0 z"
         id="path4146" />
      <path
         style="fill:#6e6e6d"
         d="m 8.642385,1049.4183 -0.6909416,0.7204 -0.2413959,-0.4511 -0.2413958,-0.451 -0.6727402,-0.3192 -0.67274,-0.3193 -0.9463034,-0.1179 -0.9463033,-0.118 -0.4010043,-0.539 -0.4010042,-0.539 0,-1.7458 0,-1.7459 -0.6058847,-0.1967 -0.6058847,-0.1967 1.0088359,-1.3333 1.0088359,-1.3334 0.5107745,-0.2327 0.5107744,-0.2327 0.7053242,-0.01 0.7053243,-0.01 0.4552252,-0.2523 0.455225,-0.2524 0.252312,-0.4552 0.252312,-0.4552 0.00675,0.3001 0.00675,0.3002 0.4408485,0.4141 0.4408484,0.4142 0.8448677,0 0.8448681,0 0.535982,0.3534 0.535983,0.3534 0.480951,0.7078 c 0.264524,0.3892 0.440252,0.7484 0.390508,0.7982 -0.04974,0.05 -0.272685,-0.2044 -0.495425,-0.5648 -0.222739,-0.3604 -0.532517,-0.7612 -0.688395,-0.8905 l -0.283413,-0.2353 0,0.2133 c 0,0.1173 0.309333,0.5556 0.687407,0.9741 l 0.687408,0.7609 0.148901,-0.092 0.148902,-0.092 0.303222,0.4627 0.303223,0.4628 -0.425245,0.1327 c -0.233885,0.073 -0.482939,0.2227 -0.553455,0.3327 l -0.128211,0.1999 0.107598,1.6608 0.107597,1.6608 -0.47764,0.4776 -0.47764,0.4777 -1.120797,0.1371 -1.1207967,0.1372 -0.6909415,0.7203 z m -0.2371954,-0.3213 0.4051983,-0.4183 0.7376605,-0.2048 c 0.4057133,-0.1126 0.9772716,-0.2053 1.2701286,-0.2059 l 0.532468,-10e-4 0.467534,-0.4676 0.467533,-0.4675 -0.0026,-0.7229 c -0.0014,-0.3977 -0.05429,-0.9158 -0.117454,-1.1516 l -0.114853,-0.4285 -4.1682664,0 -4.1682667,0 0.00281,1 0.00281,1 0.2400169,0.4762 0.2400169,0.4762 0.7571766,0.1579 c 0.416447,0.087 1.088007,0.2432 1.4923554,0.3473 l 0.7351789,0.1892 0.4076799,0.4198 0.4076797,0.4198 0.4051983,-0.4183 z m -2.5956776,-1.211 -0.3809529,0 0,-1.2381 0,-1.2381 0.7463273,0 c 0.4104798,0 0.8819091,0.052 1.0476206,0.1156 l 0.3012931,0.1157 0,0.5129 0,0.513 -0.2285717,0.2285 -0.2285718,0.2286 -0.4380958,0 -0.4380959,0 0,0.381 0,0.3809 -0.3809529,0 z m 0.7142867,-1.3696 0.3333338,-0.064 -0.013545,-0.1878 -0.013545,-0.1879 -0.3197886,-0.062 -0.3197885,-0.062 0,0.3137 0,0.3136 0.3333338,-0.064 z m 2.4857178,1.3696 -0.914287,0 0,-1.2381 0,-1.2381 0.774428,0 0.7744281,0 0.3684304,0.1972 0.368431,0.1972 0,0.8123 0,0.8124 -0.228572,0.2286 -0.2285715,0.2285 -0.914287,0 z m 0.2222226,-0.3809 c 0.066349,0 0.2234924,-0.1029 0.3492068,-0.2286 l 0.2285718,-0.2286 0,-0.4314 0,-0.4314 -0.3559085,-0.1904 -0.3559085,-0.1905 -0.1202827,0.1203 c -0.066156,0.066 -0.1202826,0.3917 -0.1202826,0.7234 0,0.3318 0.057143,0.6603 0.1269843,0.7302 0.069841,0.07 0.18127,0.127 0.2476194,0.127 z m -5.7631396,-5.1062 c 0.33631,-0.238 0.7956614,-0.6915 1.0207807,-1.0076 0.2251196,-0.3162 0.3783941,-0.6058 0.3406102,-0.6435 -0.037784,-0.038 -0.1984601,0.031 -0.3570582,0.1538 -0.1585981,0.1224 -0.5870354,0.6067 -0.9520828,1.0764 l -0.6637225,0.8538 0.6114726,-0.4329 z m 3.2342778,9e-4 0.4171741,-0.078 0.2714606,-0.3133 0.2714603,-0.3134 0.1172465,-0.9047 0.1172464,-0.9048 -0.1392133,0.01 c -0.076568,0 -0.3055962,0.1319 -0.5089531,0.2857 l -0.3697394,0.2796 -0.7227269,0 -0.7227271,0 -0.4554104,0.7143 -0.4554103,0.7143 0.3032533,0.1753 c 0.1667894,0.096 0.5633336,0.2295 0.8812093,0.2957 0.3178757,0.066 0.7656843,0.085 0.99513,0.043 z m 3.0235414,0.1529 0.6366033,0 0.490086,-0.2233 c 0.269548,-0.1228 0.464202,-0.2728 0.432565,-0.3333 -0.03164,-0.061 -0.214634,-0.4178 -0.406661,-0.794 l -0.349141,-0.6838 -0.7744646,-0.03 -0.7744642,-0.03 -0.469169,-0.3074 -0.4691691,-0.3075 0.097002,1.0096 0.097003,1.0095 0.426603,0.3454 0.4266031,0.3455 0.6366034,0 z"
         id="path4144" />
      <path
         style="fill:#504f4f"
         d="m 8.1195844,1049.9813 c -0.077248,0 -0.3071859,-0.2189 -0.5109744,-0.4863 l -0.3705245,-0.4863 -0.7619059,-0.2673 -0.7619058,-0.2672 -0.6277066,-0.01 -0.6277064,-0.01 -0.4675333,-0.4676 -0.467533,-0.4675 0.016372,-0.5325 0.016372,-0.5325 0.1631051,0.5443 c 0.089708,0.2994 0.3099111,0.7065 0.4893407,0.9048 l 0.3262355,0.3605 0.6087226,0 c 0.3347974,0 0.9000851,0.097 1.2561947,0.2164 l 0.647472,0.2164 0.4981274,0.4613 0.4981275,0.4613 0.5647052,-0.5647 0.5647052,-0.5647 1.1276466,-0.1352 1.127647,-0.1351 0.428572,-0.392 0.428572,-0.392 0,-0.9317 0,-0.9317 -0.171736,-0.3209 -0.171737,-0.3208 -4.057784,10e-5 -4.0577844,0 -0.1484161,0.4762 -0.1484161,0.4761 0.089286,-0.7771 0.089287,-0.7771 -0.2353867,-0.3219 -0.2353866,-0.322 -0.5278386,-0.1411 -0.5278385,-0.1412 0.5967625,-0.6645 c 0.3282194,-0.3656 0.4801318,-0.5006 0.337583,-0.3001 l -0.2591795,0.3645 0.3809529,-0.2061 c 0.2095241,-0.1133 0.5832561,-0.3966 0.8305155,-0.6296 l 0.4495625,-0.4235 0.2672804,-0.6396 0.2672804,-0.6397 0.9022069,0.033 0.902207,0.033 -0.7797891,0.072 -0.7797893,0.071 -0.4171625,0.7423 -0.4171625,0.7422 0.3398078,0.1743 c 0.1868941,0.096 0.5841524,0.2328 0.8827961,0.3043 l 0.5429886,0.1301 0.6179997,-0.204 0.6179995,-0.2039 0.2120424,-0.4236 c 0.1166234,-0.2329 0.2467926,-0.6378 0.2892648,-0.8997 l 0.077223,-0.4762 0.025939,0.6811 0.025939,0.6811 0.4537294,0.4262 0.4537294,0.4263 0.5542361,0.016 c 0.3048297,0.01 0.866939,-0.087 1.249131,-0.2135 l 0.694894,-0.2294 -0.555058,-0.9414 c -0.305283,-0.5177 -0.492998,-0.9408 -0.417144,-0.9401 0.07585,7e-4 0.395058,0.1716 0.709344,0.3797 l 0.57143,0.3785 -0.200001,0 c -0.11,7e-4 -0.302857,-0.1016 -0.428572,-0.2273 l -0.228572,-0.2286 0,0.1428 c 0,0.079 0.127279,0.3889 0.282841,0.6898 l 0.282841,0.5469 0.608696,0.4334 0.608697,0.4335 -0.143409,-0.2756 c -0.07888,-0.1515 0.07318,-0.022 0.337904,0.2882 l 0.481313,0.5637 -0.567136,0.2384 -0.567135,0.2385 0.126436,1.7987 0.126437,1.7987 -0.464753,0.4648 -0.464753,0.4647 -1.020444,0.1354 -1.0204438,0.1354 -0.5281438,0.2731 -0.5281438,0.2731 -0.1215727,0.383 c -0.066865,0.2107 -0.1847753,0.3831 -0.2620229,0.3831 z m -2.3100724,-2.0953 -0.3809529,0 0,-1.2381 0,-1.2381 0.7463273,0 c 0.4104798,0 0.8819091,0.052 1.0476206,0.1156 l 0.3012931,0.1157 0,0.5129 0,0.513 -0.2285717,0.2285 -0.2285718,0.2286 -0.4380958,0 -0.4380959,0 0,0.381 0,0.3809 -0.3809529,0 z m 0.7142867,-1.3696 0.3333338,-0.064 -0.013545,-0.1878 -0.013545,-0.1879 -0.3197886,-0.062 -0.3197885,-0.062 0,0.3137 0,0.3136 0.3333338,-0.064 z m 2.4857178,1.3696 -0.914287,0 0,-1.2381 0,-1.2381 0.774428,0 0.7744281,0 0.3684304,0.1972 0.368431,0.1972 0,0.8123 0,0.8124 -0.228572,0.2286 -0.2285715,0.2285 -0.914287,0 z m 0.2222226,-0.3809 c 0.066349,0 0.2234924,-0.1029 0.3492068,-0.2286 l 0.2285718,-0.2286 0,-0.4314 0,-0.4314 -0.3559085,-0.1904 -0.3559085,-0.1905 -0.1202827,0.1203 c -0.066156,0.066 -0.1202826,0.3917 -0.1202826,0.7234 0,0.3318 0.057143,0.6603 0.1269843,0.7302 0.069841,0.07 0.18127,0.127 0.2476194,0.127 z m -5.7714368,-1.2064 -0.1269843,0.127 0,-0.254 0,-0.2539 0.1269843,0.127 0.1269843,0.1269 -0.1269843,0.127 z m 8.9431307,-4.127 c -0.05238,0 -0.148213,-0.086 -0.21296,-0.1904 -0.06475,-0.1048 -0.07486,-0.1905 -0.02248,-0.1905 0.05238,0 0.148212,0.086 0.212959,0.1905 0.06475,0.1047 0.07486,0.1904 0.02248,0.1904 z m -9.0008174,-0.1904 c -0.052381,0 0.087864,-0.2572 0.3116553,-0.5715 0.2237916,-0.3143 0.4497508,-0.5714 0.5021318,-0.5714 0.052381,0 -0.087864,0.2571 -0.3116553,0.5714 -0.2237915,0.3143 -0.4497508,0.5715 -0.5021318,0.5715 z m 8.6198644,-0.381 c -0.05238,0 -0.148213,-0.086 -0.212959,-0.1905 -0.06475,-0.1047 -0.07486,-0.1905 -0.02248,-0.1905 0.05238,0 0.148212,0.086 0.212959,0.1905 0.06475,0.1048 0.07486,0.1905 0.02248,0.1905 z m -7.451065,-0.7619 c -0.052381,0 -0.095238,-0.043 -0.095238,-0.095 0,-0.052 0.042857,-0.095 0.095238,-0.095 0.052381,0 0.095238,0.043 0.095238,0.095 0,0.052 -0.042857,0.095 -0.095238,0.095 z m 4.5826764,-0.381 c -0.1509604,0 -0.3225075,-0.078 -0.3812158,-0.1727 l -0.1067424,-0.1727 0.3812158,0.1 c 0.2096687,0.055 0.3812158,0.1326 0.3812158,0.1727 0,0.04 -0.123513,0.073 -0.2744734,0.073 z M 7.047609,1040.267 c -0.052381,0 -0.095238,-0.043 -0.095238,-0.095 0,-0.052 0.042857,-0.095 0.095238,-0.095 0.052381,0 0.095238,0.043 0.095238,0.095 0,0.052 -0.042857,0.095 -0.095238,0.095 z m 0.74453,-0.4429 -0.4375317,0.2065 0.3126616,-0.5009 c 0.1719639,-0.2754 0.3277178,-0.5257 0.3461199,-0.556 0.018402,-0.03 0.074594,0.1021 0.1248701,0.2944 l 0.091412,0.3495 -0.4375317,0.2065 z"
         id="path4142" />
      <path
         style="fill:#001da1"
         d="m 8.1219648,1049.8695 -0.1772936,0.1096 -0.1088009,-0.2836 -0.1088009,-0.2835 -0.6254449,-0.3813 -0.6254449,-0.3813 0.2119041,-8e-4 c 0.1165474,-4e-4 0.5267402,0.2495 0.9115394,0.5553 l 0.6996353,0.556 -0.1772936,0.1096 z m 0.4494559,-0.6501 c -0.1571431,0.1304 -0.2857147,0.1942 -0.2857147,0.1418 0,-0.052 0.1285716,-0.2019 0.2857147,-0.3323 0.1571431,-0.1304 0.2857147,-0.1943 0.2857147,-0.1419 0,0.052 -0.1285716,0.2019 -0.2857147,0.3324 z m 0.5714294,-0.3973 -0.1904765,0.01 0.2857147,-0.1847 c 0.1571431,-0.1015 0.4142863,-0.1799 0.5714294,-0.1741 l 0.2857143,0.01 -0.3809526,0.1637 c -0.2095241,0.09 -0.4666673,0.1684 -0.5714293,0.1742 z m -2.9523852,-0.1742 -0.2539685,0 0.1269842,-0.127 0.1269843,-0.1269 0.1269844,0.1269 0.1269842,0.127 -0.2539686,0 z m -0.857144,-0.2276 -0.5714294,0.01 0.2344704,-0.095 c 0.1289589,-0.052 0.3861021,-0.055 0.5714294,-0.01 l 0.3369589,0.088 -0.5714293,0.01 z m 5.6190551,0.01 -0.476191,0 0.238096,-0.096 0.238095,-0.096 0.238096,0.096 0.238096,0.096 -0.476192,0 z m -6.6618383,-0.1604 c -0.1000508,0 -0.2736564,-0.1715 -0.3857903,-0.381 -0.1121339,-0.2095 -0.1770561,-0.3809 -0.1442716,-0.3809 0.032785,0 0.2063902,0.1714 0.3857904,0.3809 l 0.326182,0.381 -0.1819105,0 z m 7.3765383,0 -0.216082,0 0.369005,-0.2698 0.369004,-0.2699 0.114547,-1.2063 0.114548,-1.2064 0.02904,1.0528 0.02904,1.0529 -0.296515,0.4233 -0.296516,0.4234 -0.216081,0 z m -5.857564,-0.381 -0.3809529,0 0,-1.2381 0,-1.2381 0.7463273,0 c 0.4104798,0 0.8819091,0.052 1.0476206,0.1156 l 0.3012931,0.1157 0,0.5129 0,0.513 -0.2285717,0.2285 -0.2285718,0.2286 -0.4380958,0 -0.4380959,0 0,0.381 0,0.3809 -0.3809529,0 z m 0.7142867,-1.3696 0.3333338,-0.064 -0.013545,-0.1878 -0.013545,-0.1879 -0.3197886,-0.062 -0.3197885,-0.062 0,0.3137 0,0.3136 0.3333338,-0.064 z m 2.4857178,1.3696 -0.914287,0 0,-1.2381 0,-1.2381 0.774428,0 0.7744281,0 0.3684304,0.1972 0.368431,0.1972 0,0.8123 0,0.8124 -0.228572,0.2286 -0.2285715,0.2285 -0.914287,0 z m 0.2222226,-0.3809 c 0.066349,0 0.2234924,-0.1029 0.3492068,-0.2286 l 0.2285718,-0.2286 0,-0.4314 0,-0.4314 -0.3559085,-0.1904 -0.3559085,-0.1905 -0.1202827,0.1203 c -0.066156,0.066 -0.1202826,0.3917 -0.1202826,0.7234 0,0.3318 0.057143,0.6603 0.1269843,0.7302 0.069841,0.07 0.18127,0.127 0.2476194,0.127 z m -5.5809603,-0.254 -0.1269843,0.127 0,-0.254 0,-0.254 0.1269843,0.127 0.1269843,0.127 -0.1269843,0.127 z m 0.00313,-1.8056 -0.1000419,0.25 -0.015038,-0.365 -0.015038,-0.3651 0.1150795,0.1151 0.1150795,0.115 -0.1000419,0.25 z m 8.6318002,-1.0833 -0.09524,0.5714 -4.2381006,-0.051 -4.2381013,-0.051 0,-0.3478 0,-0.3478 -0.3333338,-0.2978 -0.3333338,-0.2979 -0.4757521,-0.065 -0.475752,-0.065 1.1900388,-0.811 1.1900388,-0.811 0,0.1672 0,0.1672 0.837889,0.2346 0.8378892,0.2346 0.5775227,-0.1268 0.5775229,-0.1269 0.2279352,-0.2746 c 0.1253644,-0.1511 0.2939419,-0.5527 0.3746169,-0.8925 l 0.1466819,-0.6179 0.019498,0.5363 c 0.010724,0.295 0.1045536,0.6953 0.2085115,0.8895 l 0.1890142,0.3532 0.6226256,0.2055 0.6226257,0.2055 0.5903842,-0.1694 c 0.324711,-0.093 0.762971,-0.2616 0.973912,-0.3745 l 0.383528,-0.2053 0.357308,0.3967 c 0.19652,0.2182 0.550166,0.4704 0.785881,0.5606 0.235715,0.09 0.428572,0.2314 0.428572,0.3139 0,0.082 -0.192857,0.2346 -0.428572,0.3381 l -0.428572,0.188 -0.09524,0.5714 z m 0.498674,-1.619 c -0.05238,0 -0.148213,-0.086 -0.21296,-0.1905 -0.06475,-0.1048 -0.07486,-0.1905 -0.02248,-0.1905 0.05238,0 0.148212,0.086 0.212959,0.1905 0.06475,0.1047 0.07486,0.1905 0.02248,0.1905 z m -9.6415442,-0.2858 c -0.1047621,0.065 -0.1904765,0.075 -0.1904765,0.023 0,-0.052 0.085714,-0.1482 0.1904765,-0.2129 0.104762,-0.065 0.1904764,-0.075 0.1904764,-0.023 0,0.052 -0.085714,0.1482 -0.1904764,0.2129 z m 9.2605912,-0.2857 c -0.05238,0 -0.148213,-0.086 -0.21296,-0.1904 -0.06475,-0.1048 -0.07486,-0.1905 -0.02248,-0.1905 0.05238,0 0.148212,0.086 0.212959,0.1905 0.06475,0.1047 0.07486,0.1904 0.02248,0.1904 z m -8.6891619,-0.4762 c -0.104762,0.065 -0.1904764,0.075 -0.1904764,0.023 0,-0.052 0.085714,-0.1482 0.1904764,-0.2129 0.1047621,-0.065 0.1904765,-0.075 0.1904765,-0.023 0,0.052 -0.085714,0.1482 -0.1904765,0.2129 z m 0.8437407,-0.095 c -0.052381,0 -0.00349,-0.1714 0.1086416,-0.381 0.1121339,-0.2095 0.2467372,-0.3809 0.2991182,-0.3809 0.052381,0 0.00349,0.1714 -0.1086417,0.3809 -0.1121339,0.2096 -0.2467371,0.381 -0.2991181,0.381 z m 7.4644682,0 c -0.05238,0 -0.148213,-0.086 -0.212959,-0.1905 -0.06475,-0.1047 -0.07486,-0.1905 -0.02248,-0.1905 0.05238,0 0.148212,0.086 0.212959,0.1905 0.06475,0.1048 0.07486,0.1905 0.02248,0.1905 z m -0.57143,-0.5714 c -0.05238,0 -0.148212,-0.086 -0.212959,-0.1905 -0.06475,-0.1048 -0.07486,-0.1905 -0.02248,-0.1905 0.05238,0 0.148213,0.086 0.21296,0.1905 0.06475,0.1048 0.07486,0.1905 0.02248,0.1905 z m -6.8796348,-0.1905 c -0.052381,0 -0.095238,-0.043 -0.095238,-0.095 0,-0.052 0.042857,-0.095 0.095238,-0.095 0.052381,0 0.095238,0.043 0.095238,0.095 0,0.052 -0.042857,0.095 -0.095238,0.095 z m 0.3809529,-0.1963 -0.1904764,0 0.2857147,-0.1847 c 0.157143,-0.1015 0.3714291,-0.1846 0.4761911,-0.1846 l 0.1904765,0 -0.2857147,0.1846 c -0.1571431,0.1016 -0.3714291,0.1847 -0.4761912,0.1847 z m 5.9047699,0.01 c -0.05238,0 -0.09524,-0.043 -0.09524,-0.095 0,-0.052 0.04286,-0.095 0.09524,-0.095 0.05238,0 0.09524,0.043 0.09524,0.095 0,0.052 -0.04286,0.095 -0.09524,0.095 z m -4.1904817,-0.1905 c -0.052381,0 -0.095238,-0.043 -0.095238,-0.095 0,-0.052 0.042857,-0.095 0.095238,-0.095 0.052381,0 0.095238,0.043 0.095238,0.095 0,0.052 -0.042857,0.095 -0.095238,0.095 z m 2.3809557,0 -0.2539685,0 0.1269842,-0.1269 0.1269843,-0.127 0.1269844,0.127 0.1269842,0.1269 -0.2539686,0 z m -1.3809543,-0.6485 -0.428572,0.3628 0.3084789,-0.3809 c 0.1696635,-0.2096 0.355754,-0.5096 0.4135345,-0.6667 l 0.1050553,-0.2857 0.015038,0.3038 0.015037,0.3038 -0.428572,0.3629 z"
         id="path4140" />
      <path
         style="fill:#001a9b"
         d="m 8.1219648,1049.8695 -0.1772936,0.1096 -0.1088009,-0.2836 -0.1088009,-0.2835 -0.6254449,-0.3813 -0.6254449,-0.3813 0.2119041,-8e-4 c 0.1165474,-4e-4 0.5267402,0.2495 0.9115394,0.5553 l 0.6996353,0.556 -0.1772936,0.1096 z m 0.4494559,-0.6501 c -0.1571431,0.1304 -0.2857147,0.1942 -0.2857147,0.1418 0,-0.052 0.1285716,-0.2019 0.2857147,-0.3323 0.1571431,-0.1304 0.2857147,-0.1943 0.2857147,-0.1419 0,0.052 -0.1285716,0.2019 -0.2857147,0.3324 z m 0.5714294,-0.3973 -0.1904765,0.01 0.2857147,-0.1847 c 0.1571431,-0.1015 0.4142863,-0.1799 0.5714294,-0.1741 l 0.2857143,0.01 -0.3809526,0.1637 c -0.2095241,0.09 -0.4666673,0.1684 -0.5714293,0.1742 z m -2.9523852,-0.1742 -0.2539685,0 0.1269842,-0.127 0.1269843,-0.1269 0.1269844,0.1269 0.1269842,0.127 -0.2539686,0 z m -0.857144,-0.2276 -0.5714294,0.01 0.2344704,-0.095 c 0.1289589,-0.052 0.3861021,-0.055 0.5714294,-0.01 l 0.3369589,0.088 -0.5714293,0.01 z m 5.6190551,0.01 -0.476191,0 0.238096,-0.096 0.238095,-0.096 0.238096,0.096 0.238096,0.096 -0.476192,0 z m -6.6618383,-0.1604 c -0.1000508,0 -0.2736564,-0.1715 -0.3857903,-0.381 -0.1121339,-0.2095 -0.1770561,-0.3809 -0.1442716,-0.3809 0.032785,0 0.2063902,0.1714 0.3857904,0.3809 l 0.326182,0.381 -0.1819105,0 z m 7.3765383,0 -0.216082,0 0.369005,-0.2698 0.369004,-0.2699 0.114547,-1.2063 0.114548,-1.2064 0.02904,1.0528 0.02904,1.0529 -0.296515,0.4233 -0.296516,0.4234 -0.216081,0 z m -5.857564,-0.4111 -0.4761911,0 0.2380955,-0.096 0.2380956,-0.096 0.2380956,0.096 0.2380956,0.096 -0.4761912,0 z m 3.3060218,-0.019 -0.925066,0.089 0.063872,-1.2582 0.063872,-1.2581 0.6504148,0 0.6504148,0 0.3809529,0.381 0.3809527,0.3809 -0.0029,0.5238 c -0.0016,0.2881 -0.07818,0.6427 -0.170174,0.788 l -0.167257,0.2641 -0.9250654,0.089 z m -0.1281977,-0.1413 0.418746,0 0.1196411,-0.1935 0.1196413,-0.1936 0.1364985,0.084 0.1364984,0.084 0,-0.8432 0,-0.8431 -0.6734704,6e-4 -0.6734703,6e-4 -0.00142,0.9518 -0.00141,0.9517 0.4187457,0 z m -5.3365573,-0.4444 -0.1269843,0.127 0,-0.254 0,-0.254 0.1269843,0.127 0.1269843,0.127 -0.1269843,0.127 z m 3.0634964,-0.3295 -0.6190485,-0.012 0.4427132,-0.1775 0.4427132,-0.1775 -0.06332,-0.3342 -0.06332,-0.3343 -0.6174885,-0.06 -0.6174887,-0.06 0,-0.1784 0,-0.1784 0.6190485,0 0.6190485,0 0.2857147,0.1846 0.2857147,0.1846 -0.2333811,0 -0.2333811,0 0.185762,0.4886 c 0.1021691,0.2687 0.185762,0.5258 0.185762,0.5714 0,0.046 -0.2785718,0.077 -0.6190485,0.071 z m 0.3333338,-0.1784 c 0.052381,0 0.095238,-0.043 0.095238,-0.095 0,-0.052 -0.042857,-0.095 -0.095238,-0.095 -0.052381,0 -0.095238,0.043 -0.095238,0.095 0,0.052 0.042857,0.095 0.095238,0.095 z m 0.4126991,-0.4445 -0.1269844,0.127 0,-0.254 0,-0.2539 0.1269844,0.127 0.1269841,0.1269 -0.1269841,0.127 z m -3.8063965,-0.8532 -0.1000419,0.25 -0.015038,-0.365 -0.015038,-0.3651 0.1150795,0.1151 0.1150795,0.115 -0.1000419,0.25 z m 8.6318004,-1.0833 -0.09524,0.5714 -4.2381008,-0.051 -4.2381013,-0.051 0,-0.3478 0,-0.3478 -0.3333338,-0.2978 -0.3333338,-0.2979 -0.4757521,-0.065 -0.475752,-0.065 1.1900388,-0.811 1.1900388,-0.811 0,0.1672 0,0.1672 0.837889,0.2346 0.8378892,0.2346 0.5775227,-0.1268 0.5775229,-0.1269 0.2279352,-0.2746 c 0.1253644,-0.1511 0.2939419,-0.5527 0.3746169,-0.8925 l 0.1466819,-0.6179 0.019498,0.5363 c 0.010724,0.295 0.1045536,0.6953 0.2085115,0.8895 l 0.1890142,0.3532 0.6226256,0.2055 0.6226257,0.2055 0.5903834,-0.1694 c 0.324711,-0.093 0.762971,-0.2616 0.973912,-0.3745 l 0.383528,-0.2053 0.357308,0.3967 c 0.19652,0.2182 0.550166,0.4704 0.785881,0.5606 0.235715,0.09 0.428572,0.2314 0.428572,0.3139 0,0.082 -0.192857,0.2346 -0.428572,0.3381 l -0.428572,0.188 -0.09524,0.5714 z m -4.4162375,0.095 3.9647265,0 0.314076,-0.6586 0.314075,-0.6586 -0.516892,-0.361 -0.516892,-0.3609 -0.57143,0.2491 -0.571429,0.2491 -0.6931852,0.01 -0.6931849,0.01 -0.4391445,-0.3556 -0.4391444,-0.3556 -0.5819587,0.3549 -0.5819588,0.3549 -0.6125862,7e-4 -0.6125862,7e-4 -0.6488114,-0.3094 -0.6488112,-0.3094 -0.5914868,0.4373 -0.5914868,0.4374 0.3766918,0.2638 0.3766917,0.2638 0,0.3702 0,0.3701 3.9647271,0 z m 4.3209985,-1.1428 c -0.05238,0 -0.09524,-0.043 -0.09524,-0.095 0,-0.052 0.04286,-0.095 0.09524,-0.095 0.05238,0 0.09524,0.043 0.09524,0.095 0,0.052 -0.04286,0.095 -0.09524,0.095 z m 0.593913,-0.5714 c -0.05238,0 -0.148213,-0.086 -0.21296,-0.1905 -0.06475,-0.1048 -0.07486,-0.1905 -0.02248,-0.1905 0.05238,0 0.148212,0.086 0.212959,0.1905 0.06475,0.1047 0.07486,0.1905 0.02248,0.1905 z m -9.6415444,-0.2858 c -0.1047621,0.065 -0.1904765,0.075 -0.1904765,0.023 0,-0.052 0.085714,-0.1482 0.1904765,-0.2129 0.104762,-0.065 0.1904764,-0.075 0.1904764,-0.023 0,0.052 -0.085714,0.1482 -0.1904764,0.2129 z m 9.2605914,-0.2857 c -0.05238,0 -0.148213,-0.086 -0.21296,-0.1904 -0.06475,-0.1048 -0.07486,-0.1905 -0.02248,-0.1905 0.05238,0 0.148212,0.086 0.212959,0.1905 0.06475,0.1047 0.07486,0.1904 0.02248,0.1904 z m -8.6891621,-0.4762 c -0.104762,0.065 -0.1904764,0.075 -0.1904764,0.023 0,-0.052 0.085714,-0.1482 0.1904764,-0.2129 0.1047621,-0.065 0.1904765,-0.075 0.1904765,-0.023 0,0.052 -0.085714,0.1482 -0.1904765,0.2129 z m 0.8437407,-0.095 c -0.052381,0 -0.00349,-0.1714 0.1086416,-0.381 0.1121339,-0.2095 0.2467372,-0.3809 0.2991182,-0.3809 0.052381,0 0.00349,0.1714 -0.1086417,0.3809 -0.1121339,0.2096 -0.2467371,0.381 -0.2991181,0.381 z m 7.4644684,0 c -0.05238,0 -0.148213,-0.086 -0.212959,-0.1905 -0.06475,-0.1047 -0.07486,-0.1905 -0.02248,-0.1905 0.05238,0 0.148212,0.086 0.212959,0.1905 0.06475,0.1048 0.07486,0.1905 0.02248,0.1905 z m -0.57143,-0.5714 c -0.05238,0 -0.148212,-0.086 -0.212959,-0.1905 -0.06475,-0.1048 -0.07486,-0.1905 -0.02248,-0.1905 0.05238,0 0.148213,0.086 0.21296,0.1905 0.06475,0.1048 0.07486,0.1905 0.02248,0.1905 z m -6.879635,-0.1905 c -0.052381,0 -0.095238,-0.043 -0.095238,-0.095 0,-0.052 0.042857,-0.095 0.095238,-0.095 0.052381,0 0.095238,0.043 0.095238,0.095 0,0.052 -0.042857,0.095 -0.095238,0.095 z m 0.3809529,-0.1963 -0.1904764,0 0.2857147,-0.1847 c 0.157143,-0.1015 0.3714291,-0.1846 0.4761911,-0.1846 l 0.1904765,0 -0.2857147,0.1846 c -0.1571431,0.1016 -0.3714291,0.1847 -0.4761912,0.1847 z m 5.9047701,0.01 c -0.05238,0 -0.09524,-0.043 -0.09524,-0.095 0,-0.052 0.04286,-0.095 0.09524,-0.095 0.05238,0 0.09524,0.043 0.09524,0.095 0,0.052 -0.04286,0.095 -0.09524,0.095 z m -4.1904819,-0.1905 c -0.052381,0 -0.095238,-0.043 -0.095238,-0.095 0,-0.052 0.042857,-0.095 0.095238,-0.095 0.052381,0 0.095238,0.043 0.095238,0.095 0,0.052 -0.042857,0.095 -0.095238,0.095 z m 2.3809557,0 -0.2539685,0 0.1269842,-0.1269 0.1269843,-0.127 0.1269844,0.127 0.1269842,0.1269 -0.2539686,0 z m -1.3809543,-0.6485 -0.428572,0.3628 0.3084789,-0.3809 c 0.1696635,-0.2096 0.355754,-0.5096 0.4135345,-0.6667 l 0.1050553,-0.2857 0.015038,0.3038 0.015037,0.3038 -0.428572,0.3629 z"
         id="path4138" />
      <path
         style="fill:#001060"
         d="m 8.1219648,1049.8695 -0.1772936,0.1096 -0.1088009,-0.2836 -0.1088009,-0.2835 -0.6254449,-0.3813 -0.6254449,-0.3813 0.2119041,-8e-4 c 0.1165474,-4e-4 0.5267402,0.2495 0.9115394,0.5553 l 0.6996353,0.556 -0.1772936,0.1096 z m 0.4494559,-0.6501 c -0.1571431,0.1304 -0.2857147,0.1942 -0.2857147,0.1418 0,-0.052 0.1285716,-0.2019 0.2857147,-0.3323 0.1571431,-0.1304 0.2857147,-0.1943 0.2857147,-0.1419 0,0.052 -0.1285716,0.2019 -0.2857147,0.3324 z m 0.5714294,-0.3973 -0.1904765,0.01 0.2857147,-0.1847 c 0.1571431,-0.1015 0.4142863,-0.1799 0.5714294,-0.1741 l 0.2857143,0.01 -0.3809526,0.1637 c -0.2095241,0.09 -0.4666673,0.1684 -0.5714293,0.1742 z m -2.9523852,-0.1742 -0.2539685,0 0.1269842,-0.127 0.1269843,-0.1269 0.1269844,0.1269 0.1269842,0.127 -0.2539686,0 z m -0.857144,-0.2276 -0.5714294,0.01 0.2344704,-0.095 c 0.1289589,-0.052 0.3861021,-0.055 0.5714294,-0.01 l 0.3369589,0.088 -0.5714293,0.01 z m 5.6190551,0.01 -0.476191,0 0.238096,-0.096 0.238095,-0.096 0.238096,0.096 0.238096,0.096 -0.476192,0 z m -6.6618383,-0.1604 c -0.1000508,0 -0.2736564,-0.1715 -0.3857903,-0.381 -0.1121339,-0.2095 -0.1770561,-0.3809 -0.1442716,-0.3809 0.032785,0 0.2063902,0.1714 0.3857904,0.3809 l 0.326182,0.381 -0.1819105,0 z m 7.3765383,0 -0.216082,0 0.369005,-0.2698 0.369004,-0.2699 0.114547,-1.2063 0.114548,-1.2064 0.02904,1.0528 0.02904,1.0529 -0.296515,0.4233 -0.296516,0.4234 -0.216081,0 z m -8.0162972,-1.0159 -0.1269843,0.127 0,-0.254 0,-0.254 0.1269843,0.127 0.1269843,0.127 -0.1269843,0.127 z m 0.00313,-1.8056 -0.1000419,0.25 -0.015038,-0.365 -0.015038,-0.3651 0.1150795,0.1151 0.1150795,0.115 -0.1000419,0.25 z m 8.6318002,-1.0833 -0.09524,0.5714 -4.2381006,-0.051 -4.2381013,-0.051 0,-0.3478 0,-0.3478 -0.3333338,-0.2978 -0.3333338,-0.2979 -0.4757521,-0.065 -0.475752,-0.065 1.1900388,-0.811 1.1900388,-0.811 0,0.1672 0,0.1672 0.837889,0.2346 0.8378892,0.2346 0.5775227,-0.1268 0.5775229,-0.1269 0.2279352,-0.2746 c 0.1253644,-0.1511 0.2939419,-0.5527 0.3746169,-0.8925 l 0.1466819,-0.6179 0.019498,0.5363 c 0.010724,0.295 0.1045536,0.6953 0.2085115,0.8895 l 0.1890142,0.3532 0.6226256,0.2055 0.6226257,0.2055 0.5903842,-0.1694 c 0.324711,-0.093 0.762971,-0.2616 0.973912,-0.3745 l 0.383528,-0.2053 0.357308,0.3967 c 0.19652,0.2182 0.550166,0.4704 0.785881,0.5606 0.235715,0.09 0.428572,0.2314 0.428572,0.3139 0,0.082 -0.192857,0.2346 -0.428572,0.3381 l -0.428572,0.188 -0.09524,0.5714 z m -4.3937946,0.2857 3.9871696,0 0.130604,-0.4285 c 0.07183,-0.2358 0.248256,-0.5631 0.392054,-0.7274 l 0.26145,-0.2988 -0.594013,-0.4392 -0.594013,-0.4392 -0.648812,0.3094 -0.648811,0.3094 -0.5173478,-7e-4 -0.5173479,-7e-4 -0.630968,-0.3847 -0.6309679,-0.3847 -0.4899592,0.3854 -0.489959,0.3854 -0.6007056,0 -0.6007054,0 -0.6971153,-0.3554 -0.6971151,-0.3554 -0.5991376,0.5002 -0.5991378,0.5002 0.3988341,0.3609 0.3988341,0.361 0,0.3514 0,0.3514 3.9871698,0 z m 4.8924686,-1.9047 c -0.05238,0 -0.148213,-0.086 -0.21296,-0.1905 -0.06475,-0.1048 -0.07486,-0.1905 -0.02248,-0.1905 0.05238,0 0.148212,0.086 0.212959,0.1905 0.06475,0.1047 0.07486,0.1905 0.02248,0.1905 z m -9.6415442,-0.2858 c -0.1047621,0.065 -0.1904765,0.075 -0.1904765,0.023 0,-0.052 0.085714,-0.1482 0.1904765,-0.2129 0.104762,-0.065 0.1904764,-0.075 0.1904764,-0.023 0,0.052 -0.085714,0.1482 -0.1904764,0.2129 z m 9.2605912,-0.2857 c -0.05238,0 -0.148213,-0.086 -0.21296,-0.1904 -0.06475,-0.1048 -0.07486,-0.1905 -0.02248,-0.1905 0.05238,0 0.148212,0.086 0.212959,0.1905 0.06475,0.1047 0.07486,0.1904 0.02248,0.1904 z m -8.6891619,-0.4762 c -0.104762,0.065 -0.1904764,0.075 -0.1904764,0.023 0,-0.052 0.085714,-0.1482 0.1904764,-0.2129 0.1047621,-0.065 0.1904765,-0.075 0.1904765,-0.023 0,0.052 -0.085714,0.1482 -0.1904765,0.2129 z m 0.8437407,-0.095 c -0.052381,0 -0.00349,-0.1714 0.1086416,-0.381 0.1121339,-0.2095 0.2467372,-0.3809 0.2991182,-0.3809 0.052381,0 0.00349,0.1714 -0.1086417,0.3809 -0.1121339,0.2096 -0.2467371,0.381 -0.2991181,0.381 z m 7.4644682,0 c -0.05238,0 -0.148213,-0.086 -0.212959,-0.1905 -0.06475,-0.1047 -0.07486,-0.1905 -0.02248,-0.1905 0.05238,0 0.148212,0.086 0.212959,0.1905 0.06475,0.1048 0.07486,0.1905 0.02248,0.1905 z m -0.57143,-0.5714 c -0.05238,0 -0.148212,-0.086 -0.212959,-0.1905 -0.06475,-0.1048 -0.07486,-0.1905 -0.02248,-0.1905 0.05238,0 0.148213,0.086 0.21296,0.1905 0.06475,0.1048 0.07486,0.1905 0.02248,0.1905 z m -6.8796348,-0.1905 c -0.052381,0 -0.095238,-0.043 -0.095238,-0.095 0,-0.052 0.042857,-0.095 0.095238,-0.095 0.052381,0 0.095238,0.043 0.095238,0.095 0,0.052 -0.042857,0.095 -0.095238,0.095 z m 0.3809529,-0.1963 -0.1904764,0 0.2857147,-0.1847 c 0.157143,-0.1015 0.3714291,-0.1846 0.4761911,-0.1846 l 0.1904765,0 -0.2857147,0.1846 c -0.1571431,0.1016 -0.3714291,0.1847 -0.4761912,0.1847 z m 5.9047699,0.01 c -0.05238,0 -0.09524,-0.043 -0.09524,-0.095 0,-0.052 0.04286,-0.095 0.09524,-0.095 0.05238,0 0.09524,0.043 0.09524,0.095 0,0.052 -0.04286,0.095 -0.09524,0.095 z m -4.1904817,-0.1905 c -0.052381,0 -0.095238,-0.043 -0.095238,-0.095 0,-0.052 0.042857,-0.095 0.095238,-0.095 0.052381,0 0.095238,0.043 0.095238,0.095 0,0.052 -0.042857,0.095 -0.095238,0.095 z m 2.3809557,0 -0.2539685,0 0.1269842,-0.1269 0.1269843,-0.127 0.1269844,0.127 0.1269842,0.1269 -0.2539686,0 z m -1.3809543,-0.6485 -0.428572,0.3628 0.3084789,-0.3809 c 0.1696635,-0.2096 0.355754,-0.5096 0.4135345,-0.6667 l 0.1050553,-0.2857 0.015038,0.3038 0.015037,0.3038 -0.428572,0.3629 z"
         id="path4136" />
      <path
         style="fill:#11121b"
         d="m 8.1219648,1049.8695 -0.1772936,0.1096 -0.1088009,-0.2836 -0.1088009,-0.2835 -0.6254449,-0.3813 -0.6254449,-0.3813 0.2119041,-8e-4 c 0.1165474,-4e-4 0.5267402,0.2495 0.9115394,0.5553 l 0.6996353,0.556 -0.1772936,0.1096 z m 0.4494559,-0.6501 c -0.1571431,0.1304 -0.2857147,0.1942 -0.2857147,0.1418 0,-0.052 0.1285716,-0.2019 0.2857147,-0.3323 0.1571431,-0.1304 0.2857147,-0.1943 0.2857147,-0.1419 0,0.052 -0.1285716,0.2019 -0.2857147,0.3324 z m 0.5714294,-0.3973 -0.1904765,0.01 0.2857147,-0.1847 c 0.1571431,-0.1015 0.4142863,-0.1799 0.5714294,-0.1741 l 0.2857143,0.01 -0.3809526,0.1637 c -0.2095241,0.09 -0.4666673,0.1684 -0.5714293,0.1742 z m -2.9523852,-0.1742 -0.2539685,0 0.1269842,-0.127 0.1269843,-0.1269 0.1269844,0.1269 0.1269842,0.127 -0.2539686,0 z m -0.857144,-0.2276 -0.5714294,0.01 0.2344704,-0.095 c 0.1289589,-0.052 0.3861021,-0.055 0.5714294,-0.01 l 0.3369589,0.088 -0.5714293,0.01 z m 5.6190551,0.01 -0.476191,0 0.238096,-0.096 0.238095,-0.096 0.238096,0.096 0.238096,0.096 -0.476192,0 z m -6.6618383,-0.1604 c -0.1000508,0 -0.2736564,-0.1715 -0.3857903,-0.381 -0.1121339,-0.2095 -0.1770561,-0.3809 -0.1442716,-0.3809 0.032785,0 0.2063902,0.1714 0.3857904,0.3809 l 0.326182,0.381 -0.1819105,0 z m 7.3765383,0 -0.216082,0 0.369005,-0.2698 0.369004,-0.2699 0.114547,-1.2063 0.114548,-1.2064 0.02904,1.0528 0.02904,1.0529 -0.296515,0.4233 -0.296516,0.4234 -0.216081,0 z m -8.0162972,-1.0159 -0.1269843,0.127 0,-0.254 0,-0.254 0.1269843,0.127 0.1269843,0.127 -0.1269843,0.127 z m 0.00313,-1.8056 -0.1000419,0.25 -0.015038,-0.365 -0.015038,-0.3651 0.1150795,0.1151 0.1150795,0.115 -0.1000419,0.25 z m 8.6010352,-0.9881 -0.06447,0.4762 -4.2857197,-0.1007 -4.2857204,-0.1008 4.2381013,-0.042 4.2381008,-0.042 0,-0.3576 0,-0.3576 0.333334,-0.2615 0.333334,-0.2614 -0.221241,0.2857 c -0.121683,0.1572 -0.250255,0.5 -0.285715,0.7619 z m -8.6125913,-0.3809 c -0.039553,0 -0.1895536,-0.15 -0.3333338,-0.3333 l -0.2614184,-0.3334 0.3333338,0.2614 c 0.1833336,0.1438 0.3333338,0.2938 0.3333338,0.3334 0,0.04 -0.032362,0.072 -0.071915,0.072 z m -1.0709433,-0.5714 c -0.2095241,0 -0.3809529,-0.035 -0.3809529,-0.079 0,-0.043 0.5142864,-0.4296 1.1428587,-0.8587 0.6285723,-0.429 1.1410287,-0.7151 1.1387919,-0.6357 -0.00224,0.079 -0.3450946,0.3856 -0.7619059,0.6805 -0.4168114,0.2948 -0.7578389,0.6163 -0.7578389,0.7142 l 0,0.1782 -0.3809529,0 z m 10.5238246,-0.01 c -0.07857,0 -0.422782,-0.2602 -0.764911,-0.5714 l -0.622054,-0.5659 -0.330329,0 -0.330328,0 0.283787,-0.1794 0.283787,-0.1795 0.478119,0.4402 c 0.262965,0.242 0.628119,0.4928 0.811452,0.5573 l 0.333334,0.1172 0,0.1964 c 0,0.1081 -0.06429,0.194 -0.142857,0.1909 z m -6.2594772,-0.7818 -0.5500564,0.1534 -0.6666677,-0.1741 c -0.3666671,-0.096 -0.752382,-0.2628 -0.857144,-0.3711 l -0.1904765,-0.197 0.4761912,0.1643 c 0.2619051,0.09 0.8396613,0.162 1.2839027,0.1593 l 0.8077117,-0.01 0.3072762,-0.3073 0.3072761,-0.3073 0.1512308,-0.6401 0.1512309,-0.6401 0.019498,0.5363 c 0.010724,0.295 0.1034024,0.6931 0.205953,0.8847 l 0.1864557,0.3484 0.5980283,0.2085 0.5980281,0.2085 0.5012321,-0.098 0.501233,-0.098 -0.464654,0.2021 -0.4646539,0.2021 -0.5155969,-0.1133 -0.5155967,-0.1132 -0.3363828,-0.3717 -0.3363826,-0.3717 -0.3237898,0.293 c -0.1780842,0.1612 -0.571315,0.3621 -0.8738461,0.4465 z m 5.9486262,0.025 c -0.05238,0 -0.148213,-0.086 -0.21296,-0.1905 -0.06475,-0.1048 -0.07486,-0.1905 -0.02248,-0.1905 0.05238,0 0.148212,0.086 0.212959,0.1905 0.06475,0.1047 0.07486,0.1905 0.02248,0.1905 z m -9.6415442,-0.2858 c -0.1047621,0.065 -0.1904765,0.075 -0.1904765,0.023 0,-0.052 0.085714,-0.1482 0.1904765,-0.2129 0.104762,-0.065 0.1904764,-0.075 0.1904764,-0.023 0,0.052 -0.085714,0.1482 -0.1904764,0.2129 z m 7.7142962,0.095 c -0.05238,0 -0.09524,-0.043 -0.09524,-0.095 0,-0.052 0.04286,-0.095 0.09524,-0.095 0.05238,0 0.09524,0.043 0.09524,0.095 0,0.052 -0.04286,0.095 -0.09524,0.095 z m 1.546295,-0.381 c -0.05238,0 -0.148213,-0.086 -0.21296,-0.1904 -0.06475,-0.1048 -0.07486,-0.1905 -0.02248,-0.1905 0.05238,0 0.148212,0.086 0.212959,0.1905 0.06475,0.1047 0.07486,0.1904 0.02248,0.1904 z m -8.6891619,-0.4762 c -0.104762,0.065 -0.1904764,0.075 -0.1904764,0.023 0,-0.052 0.085714,-0.1482 0.1904764,-0.2129 0.1047621,-0.065 0.1904765,-0.075 0.1904765,-0.023 0,0.052 -0.085714,0.1482 -0.1904765,0.2129 z m 0.8437407,-0.095 c -0.052381,0 -0.00349,-0.1714 0.1086416,-0.381 0.1121339,-0.2095 0.2467372,-0.3809 0.2991182,-0.3809 0.052381,0 0.00349,0.1714 -0.1086417,0.3809 -0.1121339,0.2096 -0.2467371,0.381 -0.2991181,0.381 z m 7.4644682,0 c -0.05238,0 -0.148213,-0.086 -0.212959,-0.1905 -0.06475,-0.1047 -0.07486,-0.1905 -0.02248,-0.1905 0.05238,0 0.148212,0.086 0.212959,0.1905 0.06475,0.1048 0.07486,0.1905 0.02248,0.1905 z m -0.57143,-0.5714 c -0.05238,0 -0.148212,-0.086 -0.212959,-0.1905 -0.06475,-0.1048 -0.07486,-0.1905 -0.02248,-0.1905 0.05238,0 0.148213,0.086 0.21296,0.1905 0.06475,0.1048 0.07486,0.1905 0.02248,0.1905 z m -6.8796348,-0.1905 c -0.052381,0 -0.095238,-0.043 -0.095238,-0.095 0,-0.052 0.042857,-0.095 0.095238,-0.095 0.052381,0 0.095238,0.043 0.095238,0.095 0,0.052 -0.042857,0.095 -0.095238,0.095 z m 0.3809529,-0.1963 -0.1904764,0 0.2857147,-0.1847 c 0.157143,-0.1015 0.3714291,-0.1846 0.4761911,-0.1846 l 0.1904765,0 -0.2857147,0.1846 c -0.1571431,0.1016 -0.3714291,0.1847 -0.4761912,0.1847 z m 5.9047699,0.01 c -0.05238,0 -0.09524,-0.043 -0.09524,-0.095 0,-0.052 0.04286,-0.095 0.09524,-0.095 0.05238,0 0.09524,0.043 0.09524,0.095 0,0.052 -0.04286,0.095 -0.09524,0.095 z m -4.1904817,-0.1905 c -0.052381,0 -0.095238,-0.043 -0.095238,-0.095 0,-0.052 0.042857,-0.095 0.095238,-0.095 0.052381,0 0.095238,0.043 0.095238,0.095 0,0.052 -0.042857,0.095 -0.095238,0.095 z m 2.3809557,0 -0.2539685,0 0.1269842,-0.1269 0.1269843,-0.127 0.1269844,0.127 0.1269842,0.1269 -0.2539686,0 z m -1.3809543,-0.6485 -0.428572,0.3628 0.3084789,-0.3809 c 0.1696635,-0.2096 0.355754,-0.5096 0.4135345,-0.6667 l 0.1050553,-0.2857 0.015038,0.3038 0.015037,0.3038 -0.428572,0.3629 z"
         id="path4134" />
    </g>
  </g>
</svg>
