<?xml version="1.0" encoding="UTF-8" standalone="no"?>
<!-- Created with Inkscape (http://www.inkscape.org/) -->

<svg
   xmlns:dc="http://purl.org/dc/elements/1.1/"
   xmlns:cc="http://creativecommons.org/ns#"
   xmlns:rdf="http://www.w3.org/1999/02/22-rdf-syntax-ns#"
   xmlns:svg="http://www.w3.org/2000/svg"
   xmlns="http://www.w3.org/2000/svg"
   xmlns:sodipodi="http://sodipodi.sourceforge.net/DTD/sodipodi-0.dtd"
   xmlns:inkscape="http://www.inkscape.org/namespaces/inkscape"
   width="16"
   height="16"
   id="svg2"
   version="1.1"
   inkscape:version="0.47 r22583"
   sodipodi:docname="RAIL2-32.svg">
  <defs
     id="defs4">
    <inkscape:perspective
       sodipodi:type="inkscape:persp3d"
       inkscape:vp_x="0 : 526.18109 : 1"
       inkscape:vp_y="0 : 1000 : 0"
       inkscape:vp_z="744.09448 : 526.18109 : 1"
       inkscape:persp3d-origin="372.04724 : 350.78739 : 1"
       id="perspective10" />
    <inkscape:perspective
       id="perspective2824"
       inkscape:persp3d-origin="0.5 : 0.33333333 : 1"
       inkscape:vp_z="1 : 0.5 : 1"
       inkscape:vp_y="0 : 1000 : 0"
       inkscape:vp_x="0 : 0.5 : 1"
       sodipodi:type="inkscape:persp3d" />
    <inkscape:perspective
       id="perspective5878"
       inkscape:persp3d-origin="0.5 : 0.33333333 : 1"
       inkscape:vp_z="1 : 0.5 : 1"
       inkscape:vp_y="0 : 1000 : 0"
       inkscape:vp_x="0 : 0.5 : 1"
       sodipodi:type="inkscape:persp3d" />
    <inkscape:perspective
       id="perspective5921"
       inkscape:persp3d-origin="0.5 : 0.33333333 : 1"
       inkscape:vp_z="1 : 0.5 : 1"
       inkscape:vp_y="0 : 1000 : 0"
       inkscape:vp_x="0 : 0.5 : 1"
       sodipodi:type="inkscape:persp3d" />
    <inkscape:perspective
       id="perspective5943"
       inkscape:persp3d-origin="0.5 : 0.33333333 : 1"
       inkscape:vp_z="1 : 0.5 : 1"
       inkscape:vp_y="0 : 1000 : 0"
       inkscape:vp_x="0 : 0.5 : 1"
       sodipodi:type="inkscape:persp3d" />
    <inkscape:perspective
       id="perspective5989"
       inkscape:persp3d-origin="0.5 : 0.33333333 : 1"
       inkscape:vp_z="1 : 0.5 : 1"
       inkscape:vp_y="0 : 1000 : 0"
       inkscape:vp_x="0 : 0.5 : 1"
       sodipodi:type="inkscape:persp3d" />
    <inkscape:perspective
       id="perspective6011"
       inkscape:persp3d-origin="0.5 : 0.33333333 : 1"
       inkscape:vp_z="1 : 0.5 : 1"
       inkscape:vp_y="0 : 1000 : 0"
       inkscape:vp_x="0 : 0.5 : 1"
       sodipodi:type="inkscape:persp3d" />
    <inkscape:perspective
       id="perspective6033"
       inkscape:persp3d-origin="0.5 : 0.33333333 : 1"
       inkscape:vp_z="1 : 0.5 : 1"
       inkscape:vp_y="0 : 1000 : 0"
       inkscape:vp_x="0 : 0.5 : 1"
       sodipodi:type="inkscape:persp3d" />
    <inkscape:perspective
       id="perspective6245"
       inkscape:persp3d-origin="0.5 : 0.33333333 : 1"
       inkscape:vp_z="1 : 0.5 : 1"
       inkscape:vp_y="0 : 1000 : 0"
       inkscape:vp_x="0 : 0.5 : 1"
       sodipodi:type="inkscape:persp3d" />
    <inkscape:perspective
       id="perspective6269"
       inkscape:persp3d-origin="0.5 : 0.33333333 : 1"
       inkscape:vp_z="1 : 0.5 : 1"
       inkscape:vp_y="0 : 1000 : 0"
       inkscape:vp_x="0 : 0.5 : 1"
       sodipodi:type="inkscape:persp3d" />
    <inkscape:perspective
       id="perspective6364"
       inkscape:persp3d-origin="0.5 : 0.33333333 : 1"
       inkscape:vp_z="1 : 0.5 : 1"
       inkscape:vp_y="0 : 1000 : 0"
       inkscape:vp_x="0 : 0.5 : 1"
       sodipodi:type="inkscape:persp3d" />
    <inkscape:perspective
       id="perspective6396"
       inkscape:persp3d-origin="0.5 : 0.33333333 : 1"
       inkscape:vp_z="1 : 0.5 : 1"
       inkscape:vp_y="0 : 1000 : 0"
       inkscape:vp_x="0 : 0.5 : 1"
       sodipodi:type="inkscape:persp3d" />
    <inkscape:perspective
       id="perspective6438"
       inkscape:persp3d-origin="0.5 : 0.33333333 : 1"
       inkscape:vp_z="1 : 0.5 : 1"
       inkscape:vp_y="0 : 1000 : 0"
       inkscape:vp_x="0 : 0.5 : 1"
       sodipodi:type="inkscape:persp3d" />
    <inkscape:perspective
       id="perspective6460"
       inkscape:persp3d-origin="0.5 : 0.33333333 : 1"
       inkscape:vp_z="1 : 0.5 : 1"
       inkscape:vp_y="0 : 1000 : 0"
       inkscape:vp_x="0 : 0.5 : 1"
       sodipodi:type="inkscape:persp3d" />
    <inkscape:perspective
       id="perspective6480"
       inkscape:persp3d-origin="0.5 : 0.33333333 : 1"
       inkscape:vp_z="1 : 0.5 : 1"
       inkscape:vp_y="0 : 1000 : 0"
       inkscape:vp_x="0 : 0.5 : 1"
       sodipodi:type="inkscape:persp3d" />
    <inkscape:perspective
       id="perspective6504"
       inkscape:persp3d-origin="0.5 : 0.33333333 : 1"
       inkscape:vp_z="1 : 0.5 : 1"
       inkscape:vp_y="0 : 1000 : 0"
       inkscape:vp_x="0 : 0.5 : 1"
       sodipodi:type="inkscape:persp3d" />
    <inkscape:perspective
       id="perspective6524"
       inkscape:persp3d-origin="0.5 : 0.33333333 : 1"
       inkscape:vp_z="1 : 0.5 : 1"
       inkscape:vp_y="0 : 1000 : 0"
       inkscape:vp_x="0 : 0.5 : 1"
       sodipodi:type="inkscape:persp3d" />
    <inkscape:perspective
       id="perspective6548"
       inkscape:persp3d-origin="0.5 : 0.33333333 : 1"
       inkscape:vp_z="1 : 0.5 : 1"
       inkscape:vp_y="0 : 1000 : 0"
       inkscape:vp_x="0 : 0.5 : 1"
       sodipodi:type="inkscape:persp3d" />
    <inkscape:perspective
       id="perspective6572"
       inkscape:persp3d-origin="0.5 : 0.33333333 : 1"
       inkscape:vp_z="1 : 0.5 : 1"
       inkscape:vp_y="0 : 1000 : 0"
       inkscape:vp_x="0 : 0.5 : 1"
       sodipodi:type="inkscape:persp3d" />
    <inkscape:perspective
       id="perspective6594"
       inkscape:persp3d-origin="0.5 : 0.33333333 : 1"
       inkscape:vp_z="1 : 0.5 : 1"
       inkscape:vp_y="0 : 1000 : 0"
       inkscape:vp_x="0 : 0.5 : 1"
       sodipodi:type="inkscape:persp3d" />
    <inkscape:perspective
       id="perspective6614"
       inkscape:persp3d-origin="0.5 : 0.33333333 : 1"
       inkscape:vp_z="1 : 0.5 : 1"
       inkscape:vp_y="0 : 1000 : 0"
       inkscape:vp_x="0 : 0.5 : 1"
       sodipodi:type="inkscape:persp3d" />
    <inkscape:perspective
       id="perspective6650"
       inkscape:persp3d-origin="0.5 : 0.33333333 : 1"
       inkscape:vp_z="1 : 0.5 : 1"
       inkscape:vp_y="0 : 1000 : 0"
       inkscape:vp_x="0 : 0.5 : 1"
       sodipodi:type="inkscape:persp3d" />
    <inkscape:perspective
       id="perspective6676"
       inkscape:persp3d-origin="0.5 : 0.33333333 : 1"
       inkscape:vp_z="1 : 0.5 : 1"
       inkscape:vp_y="0 : 1000 : 0"
       inkscape:vp_x="0 : 0.5 : 1"
       sodipodi:type="inkscape:persp3d" />
    <inkscape:perspective
       id="perspective6710"
       inkscape:persp3d-origin="0.5 : 0.33333333 : 1"
       inkscape:vp_z="1 : 0.5 : 1"
       inkscape:vp_y="0 : 1000 : 0"
       inkscape:vp_x="0 : 0.5 : 1"
       sodipodi:type="inkscape:persp3d" />
    <inkscape:perspective
       id="perspective6748"
       inkscape:persp3d-origin="0.5 : 0.33333333 : 1"
       inkscape:vp_z="1 : 0.5 : 1"
       inkscape:vp_y="0 : 1000 : 0"
       inkscape:vp_x="0 : 0.5 : 1"
       sodipodi:type="inkscape:persp3d" />
    <inkscape:perspective
       id="perspective6786"
       inkscape:persp3d-origin="0.5 : 0.33333333 : 1"
       inkscape:vp_z="1 : 0.5 : 1"
       inkscape:vp_y="0 : 1000 : 0"
       inkscape:vp_x="0 : 0.5 : 1"
       sodipodi:type="inkscape:persp3d" />
    <inkscape:perspective
       id="perspective6810"
       inkscape:persp3d-origin="0.5 : 0.33333333 : 1"
       inkscape:vp_z="1 : 0.5 : 1"
       inkscape:vp_y="0 : 1000 : 0"
       inkscape:vp_x="0 : 0.5 : 1"
       sodipodi:type="inkscape:persp3d" />
    <inkscape:perspective
       id="perspective6848"
       inkscape:persp3d-origin="0.5 : 0.33333333 : 1"
       inkscape:vp_z="1 : 0.5 : 1"
       inkscape:vp_y="0 : 1000 : 0"
       inkscape:vp_x="0 : 0.5 : 1"
       sodipodi:type="inkscape:persp3d" />
    <inkscape:perspective
       id="perspective6870"
       inkscape:persp3d-origin="0.5 : 0.33333333 : 1"
       inkscape:vp_z="1 : 0.5 : 1"
       inkscape:vp_y="0 : 1000 : 0"
       inkscape:vp_x="0 : 0.5 : 1"
       sodipodi:type="inkscape:persp3d" />
    <inkscape:perspective
       id="perspective6908"
       inkscape:persp3d-origin="0.5 : 0.33333333 : 1"
       inkscape:vp_z="1 : 0.5 : 1"
       inkscape:vp_y="0 : 1000 : 0"
       inkscape:vp_x="0 : 0.5 : 1"
       sodipodi:type="inkscape:persp3d" />
    <inkscape:perspective
       id="perspective6946"
       inkscape:persp3d-origin="0.5 : 0.33333333 : 1"
       inkscape:vp_z="1 : 0.5 : 1"
       inkscape:vp_y="0 : 1000 : 0"
       inkscape:vp_x="0 : 0.5 : 1"
       sodipodi:type="inkscape:persp3d" />
    <inkscape:perspective
       id="perspective6970"
       inkscape:persp3d-origin="0.5 : 0.33333333 : 1"
       inkscape:vp_z="1 : 0.5 : 1"
       inkscape:vp_y="0 : 1000 : 0"
       inkscape:vp_x="0 : 0.5 : 1"
       sodipodi:type="inkscape:persp3d" />
    <inkscape:perspective
       id="perspective7008"
       inkscape:persp3d-origin="0.5 : 0.33333333 : 1"
       inkscape:vp_z="1 : 0.5 : 1"
       inkscape:vp_y="0 : 1000 : 0"
       inkscape:vp_x="0 : 0.5 : 1"
       sodipodi:type="inkscape:persp3d" />
    <inkscape:perspective
       id="perspective7036"
       inkscape:persp3d-origin="0.5 : 0.33333333 : 1"
       inkscape:vp_z="1 : 0.5 : 1"
       inkscape:vp_y="0 : 1000 : 0"
       inkscape:vp_x="0 : 0.5 : 1"
       sodipodi:type="inkscape:persp3d" />
    <inkscape:perspective
       id="perspective7060"
       inkscape:persp3d-origin="0.5 : 0.33333333 : 1"
       inkscape:vp_z="1 : 0.5 : 1"
       inkscape:vp_y="0 : 1000 : 0"
       inkscape:vp_x="0 : 0.5 : 1"
       sodipodi:type="inkscape:persp3d" />
    <inkscape:perspective
       id="perspective7098"
       inkscape:persp3d-origin="0.5 : 0.33333333 : 1"
       inkscape:vp_z="1 : 0.5 : 1"
       inkscape:vp_y="0 : 1000 : 0"
       inkscape:vp_x="0 : 0.5 : 1"
       sodipodi:type="inkscape:persp3d" />
    <inkscape:perspective
       id="perspective7136"
       inkscape:persp3d-origin="0.5 : 0.33333333 : 1"
       inkscape:vp_z="1 : 0.5 : 1"
       inkscape:vp_y="0 : 1000 : 0"
       inkscape:vp_x="0 : 0.5 : 1"
       sodipodi:type="inkscape:persp3d" />
    <inkscape:perspective
       id="perspective7174"
       inkscape:persp3d-origin="0.5 : 0.33333333 : 1"
       inkscape:vp_z="1 : 0.5 : 1"
       inkscape:vp_y="0 : 1000 : 0"
       inkscape:vp_x="0 : 0.5 : 1"
       sodipodi:type="inkscape:persp3d" />
    <inkscape:perspective
       id="perspective7212"
       inkscape:persp3d-origin="0.5 : 0.33333333 : 1"
       inkscape:vp_z="1 : 0.5 : 1"
       inkscape:vp_y="0 : 1000 : 0"
       inkscape:vp_x="0 : 0.5 : 1"
       sodipodi:type="inkscape:persp3d" />
    <inkscape:perspective
       id="perspective7234"
       inkscape:persp3d-origin="0.5 : 0.33333333 : 1"
       inkscape:vp_z="1 : 0.5 : 1"
       inkscape:vp_y="0 : 1000 : 0"
       inkscape:vp_x="0 : 0.5 : 1"
       sodipodi:type="inkscape:persp3d" />
    <inkscape:perspective
       id="perspective7272"
       inkscape:persp3d-origin="0.5 : 0.33333333 : 1"
       inkscape:vp_z="1 : 0.5 : 1"
       inkscape:vp_y="0 : 1000 : 0"
       inkscape:vp_x="0 : 0.5 : 1"
       sodipodi:type="inkscape:persp3d" />
    <inkscape:perspective
       id="perspective7294"
       inkscape:persp3d-origin="0.5 : 0.33333333 : 1"
       inkscape:vp_z="1 : 0.5 : 1"
       inkscape:vp_y="0 : 1000 : 0"
       inkscape:vp_x="0 : 0.5 : 1"
       sodipodi:type="inkscape:persp3d" />
    <inkscape:perspective
       id="perspective7330"
       inkscape:persp3d-origin="0.5 : 0.33333333 : 1"
       inkscape:vp_z="1 : 0.5 : 1"
       inkscape:vp_y="0 : 1000 : 0"
       inkscape:vp_x="0 : 0.5 : 1"
       sodipodi:type="inkscape:persp3d" />
    <inkscape:perspective
       id="perspective3068"
       inkscape:persp3d-origin="0.5 : 0.33333333 : 1"
       inkscape:vp_z="1 : 0.5 : 1"
       inkscape:vp_y="0 : 1000 : 0"
       inkscape:vp_x="0 : 0.5 : 1"
       sodipodi:type="inkscape:persp3d" />
    <inkscape:perspective
       id="perspective3106"
       inkscape:persp3d-origin="0.5 : 0.33333333 : 1"
       inkscape:vp_z="1 : 0.5 : 1"
       inkscape:vp_y="0 : 1000 : 0"
       inkscape:vp_x="0 : 0.5 : 1"
       sodipodi:type="inkscape:persp3d" />
    <inkscape:perspective
       id="perspective3128"
       inkscape:persp3d-origin="0.5 : 0.33333333 : 1"
       inkscape:vp_z="1 : 0.5 : 1"
       inkscape:vp_y="0 : 1000 : 0"
       inkscape:vp_x="0 : 0.5 : 1"
       sodipodi:type="inkscape:persp3d" />
    <inkscape:perspective
       id="perspective3152"
       inkscape:persp3d-origin="0.5 : 0.33333333 : 1"
       inkscape:vp_z="1 : 0.5 : 1"
       inkscape:vp_y="0 : 1000 : 0"
       inkscape:vp_x="0 : 0.5 : 1"
       sodipodi:type="inkscape:persp3d" />
    <inkscape:perspective
       id="perspective3174"
       inkscape:persp3d-origin="0.5 : 0.33333333 : 1"
       inkscape:vp_z="1 : 0.5 : 1"
       inkscape:vp_y="0 : 1000 : 0"
       inkscape:vp_x="0 : 0.5 : 1"
       sodipodi:type="inkscape:persp3d" />
    <inkscape:perspective
       id="perspective3212"
       inkscape:persp3d-origin="0.5 : 0.33333333 : 1"
       inkscape:vp_z="1 : 0.5 : 1"
       inkscape:vp_y="0 : 1000 : 0"
       inkscape:vp_x="0 : 0.5 : 1"
       sodipodi:type="inkscape:persp3d" />
    <inkscape:perspective
       id="perspective3238"
       inkscape:persp3d-origin="0.5 : 0.33333333 : 1"
       inkscape:vp_z="1 : 0.5 : 1"
       inkscape:vp_y="0 : 1000 : 0"
       inkscape:vp_x="0 : 0.5 : 1"
       sodipodi:type="inkscape:persp3d" />
    <inkscape:perspective
       id="perspective3276"
       inkscape:persp3d-origin="0.5 : 0.33333333 : 1"
       inkscape:vp_z="1 : 0.5 : 1"
       inkscape:vp_y="0 : 1000 : 0"
       inkscape:vp_x="0 : 0.5 : 1"
       sodipodi:type="inkscape:persp3d" />
    <inkscape:perspective
       id="perspective3314"
       inkscape:persp3d-origin="0.5 : 0.33333333 : 1"
       inkscape:vp_z="1 : 0.5 : 1"
       inkscape:vp_y="0 : 1000 : 0"
       inkscape:vp_x="0 : 0.5 : 1"
       sodipodi:type="inkscape:persp3d" />
    <inkscape:perspective
       id="perspective3350"
       inkscape:persp3d-origin="0.5 : 0.33333333 : 1"
       inkscape:vp_z="1 : 0.5 : 1"
       inkscape:vp_y="0 : 1000 : 0"
       inkscape:vp_x="0 : 0.5 : 1"
       sodipodi:type="inkscape:persp3d" />
    <inkscape:perspective
       id="perspective3376"
       inkscape:persp3d-origin="0.5 : 0.33333333 : 1"
       inkscape:vp_z="1 : 0.5 : 1"
       inkscape:vp_y="0 : 1000 : 0"
       inkscape:vp_x="0 : 0.5 : 1"
       sodipodi:type="inkscape:persp3d" />
    <inkscape:perspective
       id="perspective3402"
       inkscape:persp3d-origin="0.5 : 0.33333333 : 1"
       inkscape:vp_z="1 : 0.5 : 1"
       inkscape:vp_y="0 : 1000 : 0"
       inkscape:vp_x="0 : 0.5 : 1"
       sodipodi:type="inkscape:persp3d" />
    <inkscape:perspective
       id="perspective3428"
       inkscape:persp3d-origin="0.5 : 0.33333333 : 1"
       inkscape:vp_z="1 : 0.5 : 1"
       inkscape:vp_y="0 : 1000 : 0"
       inkscape:vp_x="0 : 0.5 : 1"
       sodipodi:type="inkscape:persp3d" />
    <inkscape:perspective
       id="perspective3466"
       inkscape:persp3d-origin="0.5 : 0.33333333 : 1"
       inkscape:vp_z="1 : 0.5 : 1"
       inkscape:vp_y="0 : 1000 : 0"
       inkscape:vp_x="0 : 0.5 : 1"
       sodipodi:type="inkscape:persp3d" />
    <inkscape:perspective
       id="perspective3504"
       inkscape:persp3d-origin="0.5 : 0.33333333 : 1"
       inkscape:vp_z="1 : 0.5 : 1"
       inkscape:vp_y="0 : 1000 : 0"
       inkscape:vp_x="0 : 0.5 : 1"
       sodipodi:type="inkscape:persp3d" />
    <inkscape:perspective
       id="perspective3542"
       inkscape:persp3d-origin="0.5 : 0.33333333 : 1"
       inkscape:vp_z="1 : 0.5 : 1"
       inkscape:vp_y="0 : 1000 : 0"
       inkscape:vp_x="0 : 0.5 : 1"
       sodipodi:type="inkscape:persp3d" />
    <inkscape:perspective
       id="perspective3566"
       inkscape:persp3d-origin="0.5 : 0.33333333 : 1"
       inkscape:vp_z="1 : 0.5 : 1"
       inkscape:vp_y="0 : 1000 : 0"
       inkscape:vp_x="0 : 0.5 : 1"
       sodipodi:type="inkscape:persp3d" />
    <inkscape:perspective
       id="perspective3590"
       inkscape:persp3d-origin="0.5 : 0.33333333 : 1"
       inkscape:vp_z="1 : 0.5 : 1"
       inkscape:vp_y="0 : 1000 : 0"
       inkscape:vp_x="0 : 0.5 : 1"
       sodipodi:type="inkscape:persp3d" />
    <inkscape:perspective
       id="perspective3610"
       inkscape:persp3d-origin="0.5 : 0.33333333 : 1"
       inkscape:vp_z="1 : 0.5 : 1"
       inkscape:vp_y="0 : 1000 : 0"
       inkscape:vp_x="0 : 0.5 : 1"
       sodipodi:type="inkscape:persp3d" />
    <inkscape:perspective
       id="perspective3648"
       inkscape:persp3d-origin="0.5 : 0.33333333 : 1"
       inkscape:vp_z="1 : 0.5 : 1"
       inkscape:vp_y="0 : 1000 : 0"
       inkscape:vp_x="0 : 0.5 : 1"
       sodipodi:type="inkscape:persp3d" />
    <inkscape:perspective
       id="perspective3668"
       inkscape:persp3d-origin="0.5 : 0.33333333 : 1"
       inkscape:vp_z="1 : 0.5 : 1"
       inkscape:vp_y="0 : 1000 : 0"
       inkscape:vp_x="0 : 0.5 : 1"
       sodipodi:type="inkscape:persp3d" />
    <inkscape:perspective
       id="perspective3706"
       inkscape:persp3d-origin="0.5 : 0.33333333 : 1"
       inkscape:vp_z="1 : 0.5 : 1"
       inkscape:vp_y="0 : 1000 : 0"
       inkscape:vp_x="0 : 0.5 : 1"
       sodipodi:type="inkscape:persp3d" />
    <inkscape:perspective
       id="perspective3744"
       inkscape:persp3d-origin="0.5 : 0.33333333 : 1"
       inkscape:vp_z="1 : 0.5 : 1"
       inkscape:vp_y="0 : 1000 : 0"
       inkscape:vp_x="0 : 0.5 : 1"
       sodipodi:type="inkscape:persp3d" />
    <inkscape:perspective
       id="perspective3770"
       inkscape:persp3d-origin="0.5 : 0.33333333 : 1"
       inkscape:vp_z="1 : 0.5 : 1"
       inkscape:vp_y="0 : 1000 : 0"
       inkscape:vp_x="0 : 0.5 : 1"
       sodipodi:type="inkscape:persp3d" />
    <inkscape:perspective
       id="perspective3804"
       inkscape:persp3d-origin="0.5 : 0.33333333 : 1"
       inkscape:vp_z="1 : 0.5 : 1"
       inkscape:vp_y="0 : 1000 : 0"
       inkscape:vp_x="0 : 0.5 : 1"
       sodipodi:type="inkscape:persp3d" />
    <inkscape:perspective
       id="perspective3828"
       inkscape:persp3d-origin="0.5 : 0.33333333 : 1"
       inkscape:vp_z="1 : 0.5 : 1"
       inkscape:vp_y="0 : 1000 : 0"
       inkscape:vp_x="0 : 0.5 : 1"
       sodipodi:type="inkscape:persp3d" />
    <inkscape:perspective
       id="perspective3852"
       inkscape:persp3d-origin="0.5 : 0.33333333 : 1"
       inkscape:vp_z="1 : 0.5 : 1"
       inkscape:vp_y="0 : 1000 : 0"
       inkscape:vp_x="0 : 0.5 : 1"
       sodipodi:type="inkscape:persp3d" />
    <inkscape:perspective
       id="perspective3876"
       inkscape:persp3d-origin="0.5 : 0.33333333 : 1"
       inkscape:vp_z="1 : 0.5 : 1"
       inkscape:vp_y="0 : 1000 : 0"
       inkscape:vp_x="0 : 0.5 : 1"
       sodipodi:type="inkscape:persp3d" />
    <inkscape:perspective
       id="perspective3900"
       inkscape:persp3d-origin="0.5 : 0.33333333 : 1"
       inkscape:vp_z="1 : 0.5 : 1"
       inkscape:vp_y="0 : 1000 : 0"
       inkscape:vp_x="0 : 0.5 : 1"
       sodipodi:type="inkscape:persp3d" />
    <inkscape:perspective
       id="perspective3924"
       inkscape:persp3d-origin="0.5 : 0.33333333 : 1"
       inkscape:vp_z="1 : 0.5 : 1"
       inkscape:vp_y="0 : 1000 : 0"
       inkscape:vp_x="0 : 0.5 : 1"
       sodipodi:type="inkscape:persp3d" />
    <inkscape:perspective
       id="perspective3948"
       inkscape:persp3d-origin="0.5 : 0.33333333 : 1"
       inkscape:vp_z="1 : 0.5 : 1"
       inkscape:vp_y="0 : 1000 : 0"
       inkscape:vp_x="0 : 0.5 : 1"
       sodipodi:type="inkscape:persp3d" />
    <inkscape:perspective
       id="perspective3986"
       inkscape:persp3d-origin="0.5 : 0.33333333 : 1"
       inkscape:vp_z="1 : 0.5 : 1"
       inkscape:vp_y="0 : 1000 : 0"
       inkscape:vp_x="0 : 0.5 : 1"
       sodipodi:type="inkscape:persp3d" />
    <inkscape:perspective
       id="perspective4024"
       inkscape:persp3d-origin="0.5 : 0.33333333 : 1"
       inkscape:vp_z="1 : 0.5 : 1"
       inkscape:vp_y="0 : 1000 : 0"
       inkscape:vp_x="0 : 0.5 : 1"
       sodipodi:type="inkscape:persp3d" />
    <inkscape:perspective
       id="perspective4062"
       inkscape:persp3d-origin="0.5 : 0.33333333 : 1"
       inkscape:vp_z="1 : 0.5 : 1"
       inkscape:vp_y="0 : 1000 : 0"
       inkscape:vp_x="0 : 0.5 : 1"
       sodipodi:type="inkscape:persp3d" />
    <inkscape:perspective
       id="perspective4100"
       inkscape:persp3d-origin="0.5 : 0.33333333 : 1"
       inkscape:vp_z="1 : 0.5 : 1"
       inkscape:vp_y="0 : 1000 : 0"
       inkscape:vp_x="0 : 0.5 : 1"
       sodipodi:type="inkscape:persp3d" />
    <inkscape:perspective
       id="perspective4126"
       inkscape:persp3d-origin="0.5 : 0.33333333 : 1"
       inkscape:vp_z="1 : 0.5 : 1"
       inkscape:vp_y="0 : 1000 : 0"
       inkscape:vp_x="0 : 0.5 : 1"
       sodipodi:type="inkscape:persp3d" />
    <inkscape:perspective
       id="perspective4164"
       inkscape:persp3d-origin="0.5 : 0.33333333 : 1"
       inkscape:vp_z="1 : 0.5 : 1"
       inkscape:vp_y="0 : 1000 : 0"
       inkscape:vp_x="0 : 0.5 : 1"
       sodipodi:type="inkscape:persp3d" />
    <inkscape:perspective
       id="perspective4184"
       inkscape:persp3d-origin="0.5 : 0.33333333 : 1"
       inkscape:vp_z="1 : 0.5 : 1"
       inkscape:vp_y="0 : 1000 : 0"
       inkscape:vp_x="0 : 0.5 : 1"
       sodipodi:type="inkscape:persp3d" />
  </defs>
  <sodipodi:namedview
     id="base"
     pagecolor="#ffffff"
     bordercolor="#666666"
     borderopacity="1.0"
     inkscape:pageopacity="0.0"
     inkscape:pageshadow="2"
     inkscape:zoom="11.313709"
     inkscape:cx="11.966503"
     inkscape:cy="14.926085"
     inkscape:document-units="px"
     inkscape:current-layer="layer1"
     showgrid="true"
     inkscape:window-width="1280"
     inkscape:window-height="780"
     inkscape:window-x="-8"
     inkscape:window-y="-8"
     inkscape:window-maximized="1">
    <inkscape:grid
       type="xygrid"
       id="grid6324"
       empspacing="5"
       visible="true"
       enabled="true"
       snapvisiblegridlinesonly="true" />
  </sodipodi:namedview>
  <metadata
     id="metadata7">
    <rdf:RDF>
      <cc:Work
         rdf:about="">
        <dc:format>image/svg+xml</dc:format>
        <dc:type
           rdf:resource="http://purl.org/dc/dcmitype/StillImage" />
        <dc:title></dc:title>
      </cc:Work>
    </rdf:RDF>
  </metadata>
  <g
     inkscape:label="Calque 1"
     inkscape:groupmode="layer"
     id="layer1"
     transform="translate(0,-1036.3622)">
    <g
       id="g4190"
       transform="translate(0.3478261,0.3044)">
      <path
         style="fill:#bfbfbf"
         d="m 3.5652174,1048.1882 -0.8695652,0 0,-1.1428 0,-1.1429 0.2484472,-0.2484 0.2484472,-0.2485 0.2732919,0 0.2732919,0 0,-0.1739 0,-0.1739 0.3478261,0 0.3478261,0 0,-0.3478 0,-0.3478 -0.3478261,0 -0.3478261,0 0,-0.174 0,-0.1739 -0.2732919,0 -0.2732919,0 -0.2484472,-0.2484 -0.2484472,-0.2485 0,-0.9689 0,-0.9689 1.2173913,0 1.2173913,0 0,0.1739 0,0.1739 0.3478261,0 0.3478261,0 0,0.1739 0,0.1739 0.347826,0 0.3478261,0 0,0.1739 0,0.1739 0.3478261,0 0.3478261,0 0,0.1739 0,0.174 0.6956522,0 0.6956522,0 0,-0.174 0,-0.1739 0.347826,0 0.3478261,0 0,-0.1739 0,-0.1739 0.3478261,0 0.3478261,0 0,-0.1739 0,-0.1739 0.347826,0 0.347826,0 0,-0.1739 0,-0.1739 1.217391,0 1.217392,0 0,0.9689 0,0.9689 -0.248447,0.2485 -0.248448,0.2484 -0.273291,0 -0.273292,0 0,0.1739 0,0.174 -0.347827,0 -0.347826,0 0,0.3478 0,0.3478 0.347826,0 0.347827,0 0,0.1739 0,0.1739 0.273292,0 0.273291,0 0.248448,0.2485 0.248447,0.2484 0,1.1429 0,1.1428 -0.869565,0 -0.869566,0 0,-0.1739 0,-0.1739 -0.347826,0 -0.347826,0 0,-0.1739 0,-0.1739 -0.347826,0 -0.347826,0 0,-0.1739 0,-0.1739 -0.3478261,0 -0.3478261,0 0,-0.1739 0,-0.174 -0.3478261,0 -0.347826,0 0,-0.1739 0,-0.1739 -0.6956522,0 -0.6956522,0 0,0.1739 0,0.1739 -0.3478261,0 -0.3478261,0 0,0.174 0,0.1739 -0.3478261,0 -0.347826,0 0,0.1739 0,0.1739 -0.3478261,0 -0.3478261,0 0,0.1739 0,0.1739 -0.3478261,0 -0.3478261,0 0,0.1739 0,0.1739 -0.8695652,0 z"
         id="path4196" />
      <path
         style="fill:#fe0000"
         d="m 3.5652174,1048.1882 -0.8695652,0 0,-1.1428 0,-1.1429 0.2484472,-0.2484 0.2484472,-0.2485 0.2732919,0 0.2732919,0 0,-0.1739 0,-0.1739 0.3478261,0 0.3478261,0 0,-0.3478 0,-0.3478 -0.3478261,0 -0.3478261,0 0,-0.174 0,-0.1739 -0.2732919,0 -0.2732919,0 -0.2484472,-0.2484 -0.2484472,-0.2485 0,-0.9689 0,-0.9689 1.2173913,0 1.2173913,0 0,0.1739 0,0.1739 0.3478261,0 0.3478261,0 0,0.1739 0,0.1739 0.347826,0 0.3478261,0 0,0.1739 0,0.1739 0.3478261,0 0.3478261,0 0,0.1739 0,0.174 0.6956522,0 0.6956522,0 0,-0.174 0,-0.1739 0.347826,0 0.3478261,0 0,-0.1739 0,-0.1739 0.3478261,0 0.3478261,0 0,-0.1739 0,-0.1739 0.347826,0 0.347826,0 0,-0.1739 0,-0.1739 1.217391,0 1.217392,0 0,0.9689 0,0.9689 -0.248447,0.2485 -0.248448,0.2484 -0.273291,0 -0.273292,0 0,0.1739 0,0.174 -0.347827,0 -0.347826,0 0,0.3478 0,0.3478 0.347826,0 0.347827,0 0,0.1739 0,0.1739 0.273292,0 0.273291,0 0.248448,0.2485 0.248447,0.2484 0,1.1429 0,1.1428 -0.869565,0 -0.869566,0 0,-0.1739 0,-0.1739 -0.347826,0 -0.347826,0 0,-0.1739 0,-0.1739 -0.347826,0 -0.347826,0 0,-0.1739 0,-0.1739 -0.3478261,0 -0.3478261,0 0,-0.1739 0,-0.174 -0.3478261,0 -0.347826,0 0,-0.1739 0,-0.1739 -0.6956522,0 -0.6956522,0 0,0.1739 0,0.1739 -0.3478261,0 -0.3478261,0 0,0.174 0,0.1739 -0.3478261,0 -0.347826,0 0,0.1739 0,0.1739 -0.3478261,0 -0.3478261,0 0,0.1739 0,0.1739 -0.3478261,0 -0.3478261,0 0,0.1739 0,0.1739 -0.8695652,0 z m 0.173913,-0.3478 0.6956522,0 0,-0.1739 0,-0.1739 0.3478261,0 0.3478261,0 0,-0.1739 0,-0.1739 0.3478261,0 0.3478261,0 0,-0.1739 0,-0.174 0.347826,0 0.3478261,0 0,-0.1739 0,-0.1739 0.3478261,0 0.3478261,0 0,-0.1739 0,-0.1739 0.6956522,0 0.6956522,0 0,0.1739 0,0.1739 0.347826,0 0.3478261,0 0,0.1739 0,0.1739 0.3478261,0 0.3478261,0 0,0.174 0,0.1739 0.347826,0 0.347826,0 0,0.1739 0,0.1739 0.347826,0 0.347826,0 0,0.1739 0,0.1739 0.695653,0 0.695652,0 0,-1.0435 0,-1.0434 -0.347826,0 -0.347826,0 0,-0.1739 0,-0.174 -0.347827,0 -0.347826,0 0,-0.1739 0,-0.1739 -0.347826,0 -0.347826,0 0,-0.3478 0,-0.3478 0.347826,0 0.347826,0 0,-0.174 0,-0.1739 0.347826,0 0.347827,0 0,-0.1739 0,-0.1739 0.347826,0 0.347826,0 0,-0.8696 0,-0.8695 -1.043479,0 -1.043478,0 0,0.1739 0,0.1739 -0.347826,0 -0.347826,0 0,0.1739 0,0.1739 -0.3478261,0 -0.3478261,0 0,0.1739 0,0.174 -0.3478261,0 -0.347826,0 0,0.1739 0,0.1739 -0.6956522,0 -0.6956522,0 0,-0.1739 0,-0.1739 -0.3478261,0 -0.3478261,0 0,-0.174 0,-0.1739 -0.3478261,0 -0.347826,0 0,-0.1739 0,-0.1739 -0.3478261,0 -0.3478261,0 0,-0.1739 0,-0.1739 -1.0434783,0 -1.0434782,0 0,0.8695 0,0.8696 0.347826,0 0.3478261,0 0,0.1739 0,0.1739 0.3478261,0 0.3478261,0 0,0.1739 0,0.174 0.3478261,0 0.3478261,0 0,0.3478 0,0.3478 -0.3478261,0 -0.3478261,0 0,0.1739 0,0.1739 -0.3478261,0 -0.3478261,0 0,0.174 0,0.1739 -0.3478261,0 -0.347826,0 0,1.0434 0,1.0435 0.6956521,0 z m 0,-0.3478 -0.3478261,0 0,-0.6957 0,-0.6956 0.3478261,0 0.3478261,0 0,-0.1739 0,-0.1739 0.3478261,0 0.3478261,0 0,-0.1739 0,-0.174 0.3478261,0 0.3478261,0 0,-0.1739 0,-0.1739 0.3478261,0 0.347826,0 0,-0.3478 0,-0.3478 -0.347826,0 -0.3478261,0 0,-0.174 0,-0.1739 -0.3478261,0 -0.3478261,0 0,-0.1739 0,-0.1739 -0.3478261,0 -0.3478261,0 0,-0.1739 0,-0.1739 -0.3478261,0 -0.3478261,0 0,-0.5218 0,-0.5217 0.6956522,0 0.6956522,0 0,0.1739 0,0.1739 0.3478261,0 0.3478261,0 0,0.1739 0,0.174 0.3478261,0 0.347826,0 0,0.1739 0,0.1739 0.3478261,0 0.3478261,0 0,0.1739 0,0.1739 0.3478261,0 0.3478261,0 0,0.1739 0,0.1739 0.3478261,0 0.3478261,0 0,-0.1739 0,-0.1739 0.3478261,0 0.347826,0 0,-0.1739 0,-0.1739 0.3478261,0 0.3478261,0 0,-0.1739 0,-0.1739 0.3478261,0 0.347826,0 0,-0.174 0,-0.1739 0.347826,0 0.347826,0 0,-0.1739 0,-0.1739 0.695652,0 0.695653,0 0,0.5217 0,0.5218 -0.347826,0 -0.347827,0 0,0.1739 0,0.1739 -0.347826,0 -0.347826,0 0,0.1739 0,0.1739 -0.347826,0 -0.347826,0 0,0.1739 0,0.174 -0.347826,0 -0.3478261,0 0,0.3478 0,0.3478 0.3478261,0 0.347826,0 0,0.1739 0,0.1739 0.347826,0 0.347826,0 0,0.174 0,0.1739 0.347826,0 0.347826,0 0,0.1739 0,0.1739 0.347827,0 0.347826,0 0,0.6956 0,0.6957 -0.347826,0 -0.347827,0 0,-0.1739 0,-0.1739 -0.347826,0 -0.347826,0 0,-0.1739 0,-0.174 -0.347826,0 -0.347826,0 0,-0.1739 0,-0.1739 -0.347826,0 -0.3478261,0 0,-0.1739 0,-0.1739 -0.3478261,0 -0.3478261,0 0,-0.1739 0,-0.1739 -0.347826,0 -0.3478261,0 0,-0.1739 0,-0.174 -0.3478261,0 -0.3478261,0 0,0.174 0,0.1739 -0.3478261,0 -0.3478261,0 0,0.1739 0,0.1739 -0.3478261,0 -0.3478261,0 0,0.1739 0,0.1739 -0.347826,0 -0.3478261,0 0,0.1739 0,0.1739 -0.3478261,0 -0.3478261,0 0,0.174 0,0.1739 -0.3478261,0 -0.3478261,0 0,0.1739 0,0.1739 -0.3478261,0 z"
         id="path4194" />
      <path
         style="fill:#000000"
         d="m 3.5652174,1048.1882 -0.8695652,0 0,-1.1428 0,-1.1429 0.2484472,-0.2484 0.2484472,-0.2485 0.2732919,0 0.2732919,0 0,-0.1739 0,-0.1739 0.3478261,0 0.3478261,0 0,-0.3478 0,-0.3478 -0.3478261,0 -0.3478261,0 0,-0.174 0,-0.1739 -0.2732919,0 -0.2732919,0 -0.2484472,-0.2484 -0.2484472,-0.2485 0,-0.9689 0,-0.9689 1.2173913,0 1.2173913,0 0,0.1739 0,0.1739 0.3478261,0 0.3478261,0 0,0.1739 0,0.1739 0.347826,0 0.3478261,0 0,0.1739 0,0.1739 0.3478261,0 0.3478261,0 0,0.1739 0,0.174 0.6956522,0 0.6956522,0 0,-0.174 0,-0.1739 0.347826,0 0.3478261,0 0,-0.1739 0,-0.1739 0.3478261,0 0.3478261,0 0,-0.1739 0,-0.1739 0.347826,0 0.347826,0 0,-0.1739 0,-0.1739 1.217391,0 1.217392,0 0,0.9689 0,0.9689 -0.248447,0.2485 -0.248448,0.2484 -0.273291,0 -0.273292,0 0,0.1739 0,0.174 -0.347827,0 -0.347826,0 0,0.3478 0,0.3478 0.347826,0 0.347827,0 0,0.1739 0,0.1739 0.273292,0 0.273291,0 0.248448,0.2485 0.248447,0.2484 0,1.1429 0,1.1428 -0.869565,0 -0.869566,0 0,-0.1739 0,-0.1739 -0.347826,0 -0.347826,0 0,-0.1739 0,-0.1739 -0.347826,0 -0.347826,0 0,-0.1739 0,-0.1739 -0.3478261,0 -0.3478261,0 0,-0.1739 0,-0.174 -0.3478261,0 -0.347826,0 0,-0.1739 0,-0.1739 -0.6956522,0 -0.6956522,0 0,0.1739 0,0.1739 -0.3478261,0 -0.3478261,0 0,0.174 0,0.1739 -0.3478261,0 -0.347826,0 0,0.1739 0,0.1739 -0.3478261,0 -0.3478261,0 0,0.1739 0,0.1739 -0.3478261,0 -0.3478261,0 0,0.1739 0,0.1739 -0.8695652,0 z m 0.173913,-0.3478 0.6956522,0 0,-0.1739 0,-0.1739 0.3478261,0 0.3478261,0 0,-0.1739 0,-0.1739 0.3478261,0 0.3478261,0 0,-0.1739 0,-0.174 0.347826,0 0.3478261,0 0,-0.1739 0,-0.1739 0.3478261,0 0.3478261,0 0,-0.1739 0,-0.1739 0.6956522,0 0.6956522,0 0,0.1739 0,0.1739 0.347826,0 0.3478261,0 0,0.1739 0,0.1739 0.3478261,0 0.3478261,0 0,0.174 0,0.1739 0.347826,0 0.347826,0 0,0.1739 0,0.1739 0.347826,0 0.347826,0 0,0.1739 0,0.1739 0.695653,0 0.695652,0 0,-1.0435 0,-1.0434 -0.347826,0 -0.347826,0 0,-0.1739 0,-0.174 -0.347827,0 -0.347826,0 0,-0.1739 0,-0.1739 -0.347826,0 -0.347826,0 0,-0.3478 0,-0.3478 0.347826,0 0.347826,0 0,-0.174 0,-0.1739 0.347826,0 0.347827,0 0,-0.1739 0,-0.1739 0.347826,0 0.347826,0 0,-0.8696 0,-0.8695 -1.043479,0 -1.043478,0 0,0.1739 0,0.1739 -0.347826,0 -0.347826,0 0,0.1739 0,0.1739 -0.3478261,0 -0.3478261,0 0,0.1739 0,0.174 -0.3478261,0 -0.347826,0 0,0.1739 0,0.1739 -0.6956522,0 -0.6956522,0 0,-0.1739 0,-0.1739 -0.3478261,0 -0.3478261,0 0,-0.174 0,-0.1739 -0.3478261,0 -0.347826,0 0,-0.1739 0,-0.1739 -0.3478261,0 -0.3478261,0 0,-0.1739 0,-0.1739 -1.0434783,0 -1.0434782,0 0,0.8695 0,0.8696 0.347826,0 0.3478261,0 0,0.1739 0,0.1739 0.3478261,0 0.3478261,0 0,0.1739 0,0.174 0.3478261,0 0.3478261,0 0,0.3478 0,0.3478 -0.3478261,0 -0.3478261,0 0,0.1739 0,0.1739 -0.3478261,0 -0.3478261,0 0,0.174 0,0.1739 -0.3478261,0 -0.347826,0 0,1.0434 0,1.0435 0.6956521,0 z"
         id="path4192" />
    </g>
  </g>
</svg>
