<?xml version="1.0" encoding="UTF-8" standalone="no"?>
<!-- Created with Inkscape (http://www.inkscape.org/) -->

<svg
   xmlns:dc="http://purl.org/dc/elements/1.1/"
   xmlns:cc="http://creativecommons.org/ns#"
   xmlns:rdf="http://www.w3.org/1999/02/22-rdf-syntax-ns#"
   xmlns:svg="http://www.w3.org/2000/svg"
   xmlns="http://www.w3.org/2000/svg"
   xmlns:sodipodi="http://sodipodi.sourceforge.net/DTD/sodipodi-0.dtd"
   xmlns:inkscape="http://www.inkscape.org/namespaces/inkscape"
   width="16"
   height="16"
   id="svg2"
   version="1.1"
   inkscape:version="0.47 r22583"
   sodipodi:docname="RAIL3-32.svg">
  <defs
     id="defs4">
    <inkscape:perspective
       sodipodi:type="inkscape:persp3d"
       inkscape:vp_x="0 : 526.18109 : 1"
       inkscape:vp_y="0 : 1000 : 0"
       inkscape:vp_z="744.09448 : 526.18109 : 1"
       inkscape:persp3d-origin="372.04724 : 350.78739 : 1"
       id="perspective10" />
    <inkscape:perspective
       id="perspective2824"
       inkscape:persp3d-origin="0.5 : 0.33333333 : 1"
       inkscape:vp_z="1 : 0.5 : 1"
       inkscape:vp_y="0 : 1000 : 0"
       inkscape:vp_x="0 : 0.5 : 1"
       sodipodi:type="inkscape:persp3d" />
    <inkscape:perspective
       id="perspective5878"
       inkscape:persp3d-origin="0.5 : 0.33333333 : 1"
       inkscape:vp_z="1 : 0.5 : 1"
       inkscape:vp_y="0 : 1000 : 0"
       inkscape:vp_x="0 : 0.5 : 1"
       sodipodi:type="inkscape:persp3d" />
    <inkscape:perspective
       id="perspective5921"
       inkscape:persp3d-origin="0.5 : 0.33333333 : 1"
       inkscape:vp_z="1 : 0.5 : 1"
       inkscape:vp_y="0 : 1000 : 0"
       inkscape:vp_x="0 : 0.5 : 1"
       sodipodi:type="inkscape:persp3d" />
    <inkscape:perspective
       id="perspective5943"
       inkscape:persp3d-origin="0.5 : 0.33333333 : 1"
       inkscape:vp_z="1 : 0.5 : 1"
       inkscape:vp_y="0 : 1000 : 0"
       inkscape:vp_x="0 : 0.5 : 1"
       sodipodi:type="inkscape:persp3d" />
    <inkscape:perspective
       id="perspective5989"
       inkscape:persp3d-origin="0.5 : 0.33333333 : 1"
       inkscape:vp_z="1 : 0.5 : 1"
       inkscape:vp_y="0 : 1000 : 0"
       inkscape:vp_x="0 : 0.5 : 1"
       sodipodi:type="inkscape:persp3d" />
    <inkscape:perspective
       id="perspective6011"
       inkscape:persp3d-origin="0.5 : 0.33333333 : 1"
       inkscape:vp_z="1 : 0.5 : 1"
       inkscape:vp_y="0 : 1000 : 0"
       inkscape:vp_x="0 : 0.5 : 1"
       sodipodi:type="inkscape:persp3d" />
    <inkscape:perspective
       id="perspective6033"
       inkscape:persp3d-origin="0.5 : 0.33333333 : 1"
       inkscape:vp_z="1 : 0.5 : 1"
       inkscape:vp_y="0 : 1000 : 0"
       inkscape:vp_x="0 : 0.5 : 1"
       sodipodi:type="inkscape:persp3d" />
    <inkscape:perspective
       id="perspective6245"
       inkscape:persp3d-origin="0.5 : 0.33333333 : 1"
       inkscape:vp_z="1 : 0.5 : 1"
       inkscape:vp_y="0 : 1000 : 0"
       inkscape:vp_x="0 : 0.5 : 1"
       sodipodi:type="inkscape:persp3d" />
    <inkscape:perspective
       id="perspective6269"
       inkscape:persp3d-origin="0.5 : 0.33333333 : 1"
       inkscape:vp_z="1 : 0.5 : 1"
       inkscape:vp_y="0 : 1000 : 0"
       inkscape:vp_x="0 : 0.5 : 1"
       sodipodi:type="inkscape:persp3d" />
    <inkscape:perspective
       id="perspective6364"
       inkscape:persp3d-origin="0.5 : 0.33333333 : 1"
       inkscape:vp_z="1 : 0.5 : 1"
       inkscape:vp_y="0 : 1000 : 0"
       inkscape:vp_x="0 : 0.5 : 1"
       sodipodi:type="inkscape:persp3d" />
    <inkscape:perspective
       id="perspective6396"
       inkscape:persp3d-origin="0.5 : 0.33333333 : 1"
       inkscape:vp_z="1 : 0.5 : 1"
       inkscape:vp_y="0 : 1000 : 0"
       inkscape:vp_x="0 : 0.5 : 1"
       sodipodi:type="inkscape:persp3d" />
    <inkscape:perspective
       id="perspective6438"
       inkscape:persp3d-origin="0.5 : 0.33333333 : 1"
       inkscape:vp_z="1 : 0.5 : 1"
       inkscape:vp_y="0 : 1000 : 0"
       inkscape:vp_x="0 : 0.5 : 1"
       sodipodi:type="inkscape:persp3d" />
    <inkscape:perspective
       id="perspective6460"
       inkscape:persp3d-origin="0.5 : 0.33333333 : 1"
       inkscape:vp_z="1 : 0.5 : 1"
       inkscape:vp_y="0 : 1000 : 0"
       inkscape:vp_x="0 : 0.5 : 1"
       sodipodi:type="inkscape:persp3d" />
    <inkscape:perspective
       id="perspective6480"
       inkscape:persp3d-origin="0.5 : 0.33333333 : 1"
       inkscape:vp_z="1 : 0.5 : 1"
       inkscape:vp_y="0 : 1000 : 0"
       inkscape:vp_x="0 : 0.5 : 1"
       sodipodi:type="inkscape:persp3d" />
    <inkscape:perspective
       id="perspective6504"
       inkscape:persp3d-origin="0.5 : 0.33333333 : 1"
       inkscape:vp_z="1 : 0.5 : 1"
       inkscape:vp_y="0 : 1000 : 0"
       inkscape:vp_x="0 : 0.5 : 1"
       sodipodi:type="inkscape:persp3d" />
    <inkscape:perspective
       id="perspective6524"
       inkscape:persp3d-origin="0.5 : 0.33333333 : 1"
       inkscape:vp_z="1 : 0.5 : 1"
       inkscape:vp_y="0 : 1000 : 0"
       inkscape:vp_x="0 : 0.5 : 1"
       sodipodi:type="inkscape:persp3d" />
    <inkscape:perspective
       id="perspective6548"
       inkscape:persp3d-origin="0.5 : 0.33333333 : 1"
       inkscape:vp_z="1 : 0.5 : 1"
       inkscape:vp_y="0 : 1000 : 0"
       inkscape:vp_x="0 : 0.5 : 1"
       sodipodi:type="inkscape:persp3d" />
    <inkscape:perspective
       id="perspective6572"
       inkscape:persp3d-origin="0.5 : 0.33333333 : 1"
       inkscape:vp_z="1 : 0.5 : 1"
       inkscape:vp_y="0 : 1000 : 0"
       inkscape:vp_x="0 : 0.5 : 1"
       sodipodi:type="inkscape:persp3d" />
    <inkscape:perspective
       id="perspective6594"
       inkscape:persp3d-origin="0.5 : 0.33333333 : 1"
       inkscape:vp_z="1 : 0.5 : 1"
       inkscape:vp_y="0 : 1000 : 0"
       inkscape:vp_x="0 : 0.5 : 1"
       sodipodi:type="inkscape:persp3d" />
    <inkscape:perspective
       id="perspective6614"
       inkscape:persp3d-origin="0.5 : 0.33333333 : 1"
       inkscape:vp_z="1 : 0.5 : 1"
       inkscape:vp_y="0 : 1000 : 0"
       inkscape:vp_x="0 : 0.5 : 1"
       sodipodi:type="inkscape:persp3d" />
    <inkscape:perspective
       id="perspective6650"
       inkscape:persp3d-origin="0.5 : 0.33333333 : 1"
       inkscape:vp_z="1 : 0.5 : 1"
       inkscape:vp_y="0 : 1000 : 0"
       inkscape:vp_x="0 : 0.5 : 1"
       sodipodi:type="inkscape:persp3d" />
    <inkscape:perspective
       id="perspective6676"
       inkscape:persp3d-origin="0.5 : 0.33333333 : 1"
       inkscape:vp_z="1 : 0.5 : 1"
       inkscape:vp_y="0 : 1000 : 0"
       inkscape:vp_x="0 : 0.5 : 1"
       sodipodi:type="inkscape:persp3d" />
    <inkscape:perspective
       id="perspective6710"
       inkscape:persp3d-origin="0.5 : 0.33333333 : 1"
       inkscape:vp_z="1 : 0.5 : 1"
       inkscape:vp_y="0 : 1000 : 0"
       inkscape:vp_x="0 : 0.5 : 1"
       sodipodi:type="inkscape:persp3d" />
    <inkscape:perspective
       id="perspective6748"
       inkscape:persp3d-origin="0.5 : 0.33333333 : 1"
       inkscape:vp_z="1 : 0.5 : 1"
       inkscape:vp_y="0 : 1000 : 0"
       inkscape:vp_x="0 : 0.5 : 1"
       sodipodi:type="inkscape:persp3d" />
    <inkscape:perspective
       id="perspective6786"
       inkscape:persp3d-origin="0.5 : 0.33333333 : 1"
       inkscape:vp_z="1 : 0.5 : 1"
       inkscape:vp_y="0 : 1000 : 0"
       inkscape:vp_x="0 : 0.5 : 1"
       sodipodi:type="inkscape:persp3d" />
    <inkscape:perspective
       id="perspective6810"
       inkscape:persp3d-origin="0.5 : 0.33333333 : 1"
       inkscape:vp_z="1 : 0.5 : 1"
       inkscape:vp_y="0 : 1000 : 0"
       inkscape:vp_x="0 : 0.5 : 1"
       sodipodi:type="inkscape:persp3d" />
    <inkscape:perspective
       id="perspective6848"
       inkscape:persp3d-origin="0.5 : 0.33333333 : 1"
       inkscape:vp_z="1 : 0.5 : 1"
       inkscape:vp_y="0 : 1000 : 0"
       inkscape:vp_x="0 : 0.5 : 1"
       sodipodi:type="inkscape:persp3d" />
    <inkscape:perspective
       id="perspective6870"
       inkscape:persp3d-origin="0.5 : 0.33333333 : 1"
       inkscape:vp_z="1 : 0.5 : 1"
       inkscape:vp_y="0 : 1000 : 0"
       inkscape:vp_x="0 : 0.5 : 1"
       sodipodi:type="inkscape:persp3d" />
    <inkscape:perspective
       id="perspective6908"
       inkscape:persp3d-origin="0.5 : 0.33333333 : 1"
       inkscape:vp_z="1 : 0.5 : 1"
       inkscape:vp_y="0 : 1000 : 0"
       inkscape:vp_x="0 : 0.5 : 1"
       sodipodi:type="inkscape:persp3d" />
    <inkscape:perspective
       id="perspective6946"
       inkscape:persp3d-origin="0.5 : 0.33333333 : 1"
       inkscape:vp_z="1 : 0.5 : 1"
       inkscape:vp_y="0 : 1000 : 0"
       inkscape:vp_x="0 : 0.5 : 1"
       sodipodi:type="inkscape:persp3d" />
    <inkscape:perspective
       id="perspective6970"
       inkscape:persp3d-origin="0.5 : 0.33333333 : 1"
       inkscape:vp_z="1 : 0.5 : 1"
       inkscape:vp_y="0 : 1000 : 0"
       inkscape:vp_x="0 : 0.5 : 1"
       sodipodi:type="inkscape:persp3d" />
    <inkscape:perspective
       id="perspective7008"
       inkscape:persp3d-origin="0.5 : 0.33333333 : 1"
       inkscape:vp_z="1 : 0.5 : 1"
       inkscape:vp_y="0 : 1000 : 0"
       inkscape:vp_x="0 : 0.5 : 1"
       sodipodi:type="inkscape:persp3d" />
    <inkscape:perspective
       id="perspective7036"
       inkscape:persp3d-origin="0.5 : 0.33333333 : 1"
       inkscape:vp_z="1 : 0.5 : 1"
       inkscape:vp_y="0 : 1000 : 0"
       inkscape:vp_x="0 : 0.5 : 1"
       sodipodi:type="inkscape:persp3d" />
    <inkscape:perspective
       id="perspective7060"
       inkscape:persp3d-origin="0.5 : 0.33333333 : 1"
       inkscape:vp_z="1 : 0.5 : 1"
       inkscape:vp_y="0 : 1000 : 0"
       inkscape:vp_x="0 : 0.5 : 1"
       sodipodi:type="inkscape:persp3d" />
    <inkscape:perspective
       id="perspective7098"
       inkscape:persp3d-origin="0.5 : 0.33333333 : 1"
       inkscape:vp_z="1 : 0.5 : 1"
       inkscape:vp_y="0 : 1000 : 0"
       inkscape:vp_x="0 : 0.5 : 1"
       sodipodi:type="inkscape:persp3d" />
    <inkscape:perspective
       id="perspective7136"
       inkscape:persp3d-origin="0.5 : 0.33333333 : 1"
       inkscape:vp_z="1 : 0.5 : 1"
       inkscape:vp_y="0 : 1000 : 0"
       inkscape:vp_x="0 : 0.5 : 1"
       sodipodi:type="inkscape:persp3d" />
    <inkscape:perspective
       id="perspective7174"
       inkscape:persp3d-origin="0.5 : 0.33333333 : 1"
       inkscape:vp_z="1 : 0.5 : 1"
       inkscape:vp_y="0 : 1000 : 0"
       inkscape:vp_x="0 : 0.5 : 1"
       sodipodi:type="inkscape:persp3d" />
    <inkscape:perspective
       id="perspective7212"
       inkscape:persp3d-origin="0.5 : 0.33333333 : 1"
       inkscape:vp_z="1 : 0.5 : 1"
       inkscape:vp_y="0 : 1000 : 0"
       inkscape:vp_x="0 : 0.5 : 1"
       sodipodi:type="inkscape:persp3d" />
    <inkscape:perspective
       id="perspective7234"
       inkscape:persp3d-origin="0.5 : 0.33333333 : 1"
       inkscape:vp_z="1 : 0.5 : 1"
       inkscape:vp_y="0 : 1000 : 0"
       inkscape:vp_x="0 : 0.5 : 1"
       sodipodi:type="inkscape:persp3d" />
    <inkscape:perspective
       id="perspective7272"
       inkscape:persp3d-origin="0.5 : 0.33333333 : 1"
       inkscape:vp_z="1 : 0.5 : 1"
       inkscape:vp_y="0 : 1000 : 0"
       inkscape:vp_x="0 : 0.5 : 1"
       sodipodi:type="inkscape:persp3d" />
    <inkscape:perspective
       id="perspective7294"
       inkscape:persp3d-origin="0.5 : 0.33333333 : 1"
       inkscape:vp_z="1 : 0.5 : 1"
       inkscape:vp_y="0 : 1000 : 0"
       inkscape:vp_x="0 : 0.5 : 1"
       sodipodi:type="inkscape:persp3d" />
    <inkscape:perspective
       id="perspective7330"
       inkscape:persp3d-origin="0.5 : 0.33333333 : 1"
       inkscape:vp_z="1 : 0.5 : 1"
       inkscape:vp_y="0 : 1000 : 0"
       inkscape:vp_x="0 : 0.5 : 1"
       sodipodi:type="inkscape:persp3d" />
    <inkscape:perspective
       id="perspective3068"
       inkscape:persp3d-origin="0.5 : 0.33333333 : 1"
       inkscape:vp_z="1 : 0.5 : 1"
       inkscape:vp_y="0 : 1000 : 0"
       inkscape:vp_x="0 : 0.5 : 1"
       sodipodi:type="inkscape:persp3d" />
    <inkscape:perspective
       id="perspective3106"
       inkscape:persp3d-origin="0.5 : 0.33333333 : 1"
       inkscape:vp_z="1 : 0.5 : 1"
       inkscape:vp_y="0 : 1000 : 0"
       inkscape:vp_x="0 : 0.5 : 1"
       sodipodi:type="inkscape:persp3d" />
    <inkscape:perspective
       id="perspective3128"
       inkscape:persp3d-origin="0.5 : 0.33333333 : 1"
       inkscape:vp_z="1 : 0.5 : 1"
       inkscape:vp_y="0 : 1000 : 0"
       inkscape:vp_x="0 : 0.5 : 1"
       sodipodi:type="inkscape:persp3d" />
    <inkscape:perspective
       id="perspective3152"
       inkscape:persp3d-origin="0.5 : 0.33333333 : 1"
       inkscape:vp_z="1 : 0.5 : 1"
       inkscape:vp_y="0 : 1000 : 0"
       inkscape:vp_x="0 : 0.5 : 1"
       sodipodi:type="inkscape:persp3d" />
    <inkscape:perspective
       id="perspective3174"
       inkscape:persp3d-origin="0.5 : 0.33333333 : 1"
       inkscape:vp_z="1 : 0.5 : 1"
       inkscape:vp_y="0 : 1000 : 0"
       inkscape:vp_x="0 : 0.5 : 1"
       sodipodi:type="inkscape:persp3d" />
    <inkscape:perspective
       id="perspective3212"
       inkscape:persp3d-origin="0.5 : 0.33333333 : 1"
       inkscape:vp_z="1 : 0.5 : 1"
       inkscape:vp_y="0 : 1000 : 0"
       inkscape:vp_x="0 : 0.5 : 1"
       sodipodi:type="inkscape:persp3d" />
    <inkscape:perspective
       id="perspective3238"
       inkscape:persp3d-origin="0.5 : 0.33333333 : 1"
       inkscape:vp_z="1 : 0.5 : 1"
       inkscape:vp_y="0 : 1000 : 0"
       inkscape:vp_x="0 : 0.5 : 1"
       sodipodi:type="inkscape:persp3d" />
    <inkscape:perspective
       id="perspective3276"
       inkscape:persp3d-origin="0.5 : 0.33333333 : 1"
       inkscape:vp_z="1 : 0.5 : 1"
       inkscape:vp_y="0 : 1000 : 0"
       inkscape:vp_x="0 : 0.5 : 1"
       sodipodi:type="inkscape:persp3d" />
    <inkscape:perspective
       id="perspective3314"
       inkscape:persp3d-origin="0.5 : 0.33333333 : 1"
       inkscape:vp_z="1 : 0.5 : 1"
       inkscape:vp_y="0 : 1000 : 0"
       inkscape:vp_x="0 : 0.5 : 1"
       sodipodi:type="inkscape:persp3d" />
    <inkscape:perspective
       id="perspective3350"
       inkscape:persp3d-origin="0.5 : 0.33333333 : 1"
       inkscape:vp_z="1 : 0.5 : 1"
       inkscape:vp_y="0 : 1000 : 0"
       inkscape:vp_x="0 : 0.5 : 1"
       sodipodi:type="inkscape:persp3d" />
    <inkscape:perspective
       id="perspective3376"
       inkscape:persp3d-origin="0.5 : 0.33333333 : 1"
       inkscape:vp_z="1 : 0.5 : 1"
       inkscape:vp_y="0 : 1000 : 0"
       inkscape:vp_x="0 : 0.5 : 1"
       sodipodi:type="inkscape:persp3d" />
    <inkscape:perspective
       id="perspective3402"
       inkscape:persp3d-origin="0.5 : 0.33333333 : 1"
       inkscape:vp_z="1 : 0.5 : 1"
       inkscape:vp_y="0 : 1000 : 0"
       inkscape:vp_x="0 : 0.5 : 1"
       sodipodi:type="inkscape:persp3d" />
    <inkscape:perspective
       id="perspective3428"
       inkscape:persp3d-origin="0.5 : 0.33333333 : 1"
       inkscape:vp_z="1 : 0.5 : 1"
       inkscape:vp_y="0 : 1000 : 0"
       inkscape:vp_x="0 : 0.5 : 1"
       sodipodi:type="inkscape:persp3d" />
    <inkscape:perspective
       id="perspective3466"
       inkscape:persp3d-origin="0.5 : 0.33333333 : 1"
       inkscape:vp_z="1 : 0.5 : 1"
       inkscape:vp_y="0 : 1000 : 0"
       inkscape:vp_x="0 : 0.5 : 1"
       sodipodi:type="inkscape:persp3d" />
    <inkscape:perspective
       id="perspective3504"
       inkscape:persp3d-origin="0.5 : 0.33333333 : 1"
       inkscape:vp_z="1 : 0.5 : 1"
       inkscape:vp_y="0 : 1000 : 0"
       inkscape:vp_x="0 : 0.5 : 1"
       sodipodi:type="inkscape:persp3d" />
    <inkscape:perspective
       id="perspective3542"
       inkscape:persp3d-origin="0.5 : 0.33333333 : 1"
       inkscape:vp_z="1 : 0.5 : 1"
       inkscape:vp_y="0 : 1000 : 0"
       inkscape:vp_x="0 : 0.5 : 1"
       sodipodi:type="inkscape:persp3d" />
    <inkscape:perspective
       id="perspective3566"
       inkscape:persp3d-origin="0.5 : 0.33333333 : 1"
       inkscape:vp_z="1 : 0.5 : 1"
       inkscape:vp_y="0 : 1000 : 0"
       inkscape:vp_x="0 : 0.5 : 1"
       sodipodi:type="inkscape:persp3d" />
    <inkscape:perspective
       id="perspective3590"
       inkscape:persp3d-origin="0.5 : 0.33333333 : 1"
       inkscape:vp_z="1 : 0.5 : 1"
       inkscape:vp_y="0 : 1000 : 0"
       inkscape:vp_x="0 : 0.5 : 1"
       sodipodi:type="inkscape:persp3d" />
    <inkscape:perspective
       id="perspective3610"
       inkscape:persp3d-origin="0.5 : 0.33333333 : 1"
       inkscape:vp_z="1 : 0.5 : 1"
       inkscape:vp_y="0 : 1000 : 0"
       inkscape:vp_x="0 : 0.5 : 1"
       sodipodi:type="inkscape:persp3d" />
    <inkscape:perspective
       id="perspective3648"
       inkscape:persp3d-origin="0.5 : 0.33333333 : 1"
       inkscape:vp_z="1 : 0.5 : 1"
       inkscape:vp_y="0 : 1000 : 0"
       inkscape:vp_x="0 : 0.5 : 1"
       sodipodi:type="inkscape:persp3d" />
    <inkscape:perspective
       id="perspective3668"
       inkscape:persp3d-origin="0.5 : 0.33333333 : 1"
       inkscape:vp_z="1 : 0.5 : 1"
       inkscape:vp_y="0 : 1000 : 0"
       inkscape:vp_x="0 : 0.5 : 1"
       sodipodi:type="inkscape:persp3d" />
    <inkscape:perspective
       id="perspective3706"
       inkscape:persp3d-origin="0.5 : 0.33333333 : 1"
       inkscape:vp_z="1 : 0.5 : 1"
       inkscape:vp_y="0 : 1000 : 0"
       inkscape:vp_x="0 : 0.5 : 1"
       sodipodi:type="inkscape:persp3d" />
    <inkscape:perspective
       id="perspective3744"
       inkscape:persp3d-origin="0.5 : 0.33333333 : 1"
       inkscape:vp_z="1 : 0.5 : 1"
       inkscape:vp_y="0 : 1000 : 0"
       inkscape:vp_x="0 : 0.5 : 1"
       sodipodi:type="inkscape:persp3d" />
    <inkscape:perspective
       id="perspective3770"
       inkscape:persp3d-origin="0.5 : 0.33333333 : 1"
       inkscape:vp_z="1 : 0.5 : 1"
       inkscape:vp_y="0 : 1000 : 0"
       inkscape:vp_x="0 : 0.5 : 1"
       sodipodi:type="inkscape:persp3d" />
    <inkscape:perspective
       id="perspective3804"
       inkscape:persp3d-origin="0.5 : 0.33333333 : 1"
       inkscape:vp_z="1 : 0.5 : 1"
       inkscape:vp_y="0 : 1000 : 0"
       inkscape:vp_x="0 : 0.5 : 1"
       sodipodi:type="inkscape:persp3d" />
    <inkscape:perspective
       id="perspective3828"
       inkscape:persp3d-origin="0.5 : 0.33333333 : 1"
       inkscape:vp_z="1 : 0.5 : 1"
       inkscape:vp_y="0 : 1000 : 0"
       inkscape:vp_x="0 : 0.5 : 1"
       sodipodi:type="inkscape:persp3d" />
    <inkscape:perspective
       id="perspective3852"
       inkscape:persp3d-origin="0.5 : 0.33333333 : 1"
       inkscape:vp_z="1 : 0.5 : 1"
       inkscape:vp_y="0 : 1000 : 0"
       inkscape:vp_x="0 : 0.5 : 1"
       sodipodi:type="inkscape:persp3d" />
    <inkscape:perspective
       id="perspective3876"
       inkscape:persp3d-origin="0.5 : 0.33333333 : 1"
       inkscape:vp_z="1 : 0.5 : 1"
       inkscape:vp_y="0 : 1000 : 0"
       inkscape:vp_x="0 : 0.5 : 1"
       sodipodi:type="inkscape:persp3d" />
    <inkscape:perspective
       id="perspective3900"
       inkscape:persp3d-origin="0.5 : 0.33333333 : 1"
       inkscape:vp_z="1 : 0.5 : 1"
       inkscape:vp_y="0 : 1000 : 0"
       inkscape:vp_x="0 : 0.5 : 1"
       sodipodi:type="inkscape:persp3d" />
    <inkscape:perspective
       id="perspective3924"
       inkscape:persp3d-origin="0.5 : 0.33333333 : 1"
       inkscape:vp_z="1 : 0.5 : 1"
       inkscape:vp_y="0 : 1000 : 0"
       inkscape:vp_x="0 : 0.5 : 1"
       sodipodi:type="inkscape:persp3d" />
    <inkscape:perspective
       id="perspective3948"
       inkscape:persp3d-origin="0.5 : 0.33333333 : 1"
       inkscape:vp_z="1 : 0.5 : 1"
       inkscape:vp_y="0 : 1000 : 0"
       inkscape:vp_x="0 : 0.5 : 1"
       sodipodi:type="inkscape:persp3d" />
    <inkscape:perspective
       id="perspective3986"
       inkscape:persp3d-origin="0.5 : 0.33333333 : 1"
       inkscape:vp_z="1 : 0.5 : 1"
       inkscape:vp_y="0 : 1000 : 0"
       inkscape:vp_x="0 : 0.5 : 1"
       sodipodi:type="inkscape:persp3d" />
    <inkscape:perspective
       id="perspective4024"
       inkscape:persp3d-origin="0.5 : 0.33333333 : 1"
       inkscape:vp_z="1 : 0.5 : 1"
       inkscape:vp_y="0 : 1000 : 0"
       inkscape:vp_x="0 : 0.5 : 1"
       sodipodi:type="inkscape:persp3d" />
    <inkscape:perspective
       id="perspective4062"
       inkscape:persp3d-origin="0.5 : 0.33333333 : 1"
       inkscape:vp_z="1 : 0.5 : 1"
       inkscape:vp_y="0 : 1000 : 0"
       inkscape:vp_x="0 : 0.5 : 1"
       sodipodi:type="inkscape:persp3d" />
    <inkscape:perspective
       id="perspective4100"
       inkscape:persp3d-origin="0.5 : 0.33333333 : 1"
       inkscape:vp_z="1 : 0.5 : 1"
       inkscape:vp_y="0 : 1000 : 0"
       inkscape:vp_x="0 : 0.5 : 1"
       sodipodi:type="inkscape:persp3d" />
    <inkscape:perspective
       id="perspective4126"
       inkscape:persp3d-origin="0.5 : 0.33333333 : 1"
       inkscape:vp_z="1 : 0.5 : 1"
       inkscape:vp_y="0 : 1000 : 0"
       inkscape:vp_x="0 : 0.5 : 1"
       sodipodi:type="inkscape:persp3d" />
    <inkscape:perspective
       id="perspective4164"
       inkscape:persp3d-origin="0.5 : 0.33333333 : 1"
       inkscape:vp_z="1 : 0.5 : 1"
       inkscape:vp_y="0 : 1000 : 0"
       inkscape:vp_x="0 : 0.5 : 1"
       sodipodi:type="inkscape:persp3d" />
    <inkscape:perspective
       id="perspective4184"
       inkscape:persp3d-origin="0.5 : 0.33333333 : 1"
       inkscape:vp_z="1 : 0.5 : 1"
       inkscape:vp_y="0 : 1000 : 0"
       inkscape:vp_x="0 : 0.5 : 1"
       sodipodi:type="inkscape:persp3d" />
    <inkscape:perspective
       id="perspective4206"
       inkscape:persp3d-origin="0.5 : 0.33333333 : 1"
       inkscape:vp_z="1 : 0.5 : 1"
       inkscape:vp_y="0 : 1000 : 0"
       inkscape:vp_x="0 : 0.5 : 1"
       sodipodi:type="inkscape:persp3d" />
  </defs>
  <sodipodi:namedview
     id="base"
     pagecolor="#ffffff"
     bordercolor="#666666"
     borderopacity="1.0"
     inkscape:pageopacity="0.0"
     inkscape:pageshadow="2"
     inkscape:zoom="11.313709"
     inkscape:cx="11.966503"
     inkscape:cy="14.926085"
     inkscape:document-units="px"
     inkscape:current-layer="layer1"
     showgrid="true"
     inkscape:window-width="1280"
     inkscape:window-height="780"
     inkscape:window-x="-8"
     inkscape:window-y="-8"
     inkscape:window-maximized="1">
    <inkscape:grid
       type="xygrid"
       id="grid6324"
       empspacing="5"
       visible="true"
       enabled="true"
       snapvisiblegridlinesonly="true" />
  </sodipodi:namedview>
  <metadata
     id="metadata7">
    <rdf:RDF>
      <cc:Work
         rdf:about="">
        <dc:format>image/svg+xml</dc:format>
        <dc:type
           rdf:resource="http://purl.org/dc/dcmitype/StillImage" />
        <dc:title></dc:title>
      </cc:Work>
    </rdf:RDF>
  </metadata>
  <g
     inkscape:label="Calque 1"
     inkscape:groupmode="layer"
     id="layer1"
     transform="translate(0,-1036.3622)">
    <g
       id="g4212"
       transform="translate(0.735856,0.2644)">
      <path
         style="fill:#bfbfbf"
         d="m 8.0565928,1049.1924 -0.509435,0 0,-1.5283 0,-1.5283 -0.3396233,0 -0.3396233,0 0,0.1698 0,0.1698 -0.3396233,0 -0.3396233,0 0,0.1698 0,0.1698 -0.3396233,0 -0.3396233,0 0,0.1699 0,0.1698 -0.258409,0 -0.258409,0 -0.938183,-0.9382 -0.938183,-0.9382 0.2504986,-0.2505 0.2504985,-0.2505 0.2668469,0 0.2668469,0 0,-0.1698 0,-0.1698 0.3396233,0 0.3396233,0 0,-0.3396 0,-0.3397 -0.3396233,0 -0.3396233,0 0,-0.1698 0,-0.1698 -0.2668469,0 -0.2668469,0 -0.242588,-0.2426 c -0.1334235,-0.1334 -0.2425881,-0.3265 -0.2425881,-0.429 0,-0.1025 0.3418576,-0.5282 0.7596837,-0.9461 l 0.7596836,-0.7597 0.4289979,0 0.4289978,0 0,0.1699 0,0.1698 0.3396233,0 0.3396233,0 0,0.1698 0,0.1698 0.3396233,0 0.3396233,0 0,0.1698 0,0.1698 0.3396233,0 0.3396233,0 0,-0.6792 0,-0.6793 0.509435,0 0.5094349,0 0,0.8491 0,0.849 0.1698116,0 c 0.093396,0 0.1698117,-0.076 0.1698117,-0.1698 l 0,-0.1698 0.3396233,0 0.3396233,0 0,-0.1698 0,-0.1698 0.3396233,0 0.3396231,0 0,-0.1698 0,-0.1698 0.339623,0 0.339624,0 0,-0.1698 0,-0.1699 0.428998,0 0.428998,0 0.759683,0.7597 c 0.417826,0.4179 0.759684,0.8436 0.759684,0.9461 0,0.1025 -0.109165,0.2956 -0.242588,0.429 l -0.242588,0.2426 -0.266847,0 -0.266847,0 0,0.1698 0,0.1698 -0.339623,0 -0.339624,0 0,0.3397 0,0.3396 0.339624,0 0.339623,0 0,0.1698 0,0.1698 0.266847,0 0.266847,0 0.242588,0.2426 c 0.133423,0.1334 0.242588,0.3265 0.242588,0.429 0,0.1025 -0.341858,0.5283 -0.759684,0.9461 l -0.759683,0.7597 -0.428998,0 -0.428998,0 0,-0.1698 0,-0.1699 -0.339624,0 -0.339623,0 0,-0.1698 0,-0.1698 -0.3396231,0 -0.3396233,0 0,-0.1698 0,-0.1698 -0.3396233,0 -0.3396233,0 0,-0.1698 c 0,-0.093 -0.076415,-0.1698 -0.1698117,-0.1698 l -0.1698116,0 0,1.6981 0,1.6981 -0.5094349,0 z"
         id="path4218" />
      <path
         style="fill:#7f7f7f"
         d="m 8.0565928,1049.1924 -0.509435,0 0,-1.5283 0,-1.5283 -0.3396233,0 -0.3396233,0 0,0.1698 0,0.1698 -0.3396233,0 -0.3396233,0 0,0.1698 0,0.1698 -0.3396233,0 -0.3396233,0 0,0.1699 0,0.1698 -0.258409,0 -0.258409,0 -0.938183,-0.9382 -0.938183,-0.9382 0.2504986,-0.2505 0.2504985,-0.2505 0.2668469,0 0.2668469,0 0,-0.1698 0,-0.1698 0.3396233,0 0.3396233,0 0,-0.3396 0,-0.3397 -0.3396233,0 -0.3396233,0 0,-0.1698 0,-0.1698 -0.2668469,0 -0.2668469,0 -0.242588,-0.2426 c -0.1334235,-0.1334 -0.2425881,-0.3265 -0.2425881,-0.429 0,-0.1025 0.3418576,-0.5282 0.7596837,-0.9461 l 0.7596836,-0.7597 0.4289979,0 0.4289978,0 0,0.1699 0,0.1698 0.3396233,0 0.3396233,0 0,0.1698 0,0.1698 0.3396233,0 0.3396233,0 0,0.1698 0,0.1698 0.3396233,0 0.3396233,0 0,-0.6792 0,-0.6793 0.509435,0 0.5094349,0 0,0.8491 0,0.849 0.1698116,0 c 0.093396,0 0.1698117,-0.076 0.1698117,-0.1698 l 0,-0.1698 0.3396233,0 0.3396233,0 0,-0.1698 0,-0.1698 0.3396233,0 0.3396231,0 0,-0.1698 0,-0.1698 0.339623,0 0.339624,0 0,-0.1698 0,-0.1699 0.428998,0 0.428998,0 0.759683,0.7597 c 0.417826,0.4179 0.759684,0.8436 0.759684,0.9461 0,0.1025 -0.109165,0.2956 -0.242588,0.429 l -0.242588,0.2426 -0.266847,0 -0.266847,0 0,0.1698 0,0.1698 -0.339623,0 -0.339624,0 0,0.3397 0,0.3396 0.339624,0 0.339623,0 0,0.1698 0,0.1698 0.266847,0 0.266847,0 0.242588,0.2426 c 0.133423,0.1334 0.242588,0.3265 0.242588,0.429 0,0.1025 -0.341858,0.5283 -0.759684,0.9461 l -0.759683,0.7597 -0.428998,0 -0.428998,0 0,-0.1698 0,-0.1699 -0.339624,0 -0.339623,0 0,-0.1698 0,-0.1698 -0.3396231,0 -0.3396233,0 0,-0.1698 0,-0.1698 -0.3396233,0 -0.3396233,0 0,-0.1698 c 0,-0.093 -0.076415,-0.1698 -0.1698117,-0.1698 l -0.1698116,0 0,1.6981 0,1.6981 -0.5094349,0 z m -0.8490583,-3.7359 0.3396233,0 0,-0.1698 0,-0.1698 -0.3396233,0 -0.3396233,0 0,-0.1698 0,-0.1698 -0.3396233,0 -0.3396233,0 0,-0.1698 0,-0.1698 -0.3396233,0 -0.3396233,0 0,0.1698 0,0.1698 0.3396233,0 0.3396233,0 0,0.1698 0,0.1698 0.3396233,0 0.3396233,0 0,0.1698 0,0.1698 0.3396233,0 z m 3.3962325,-1.6981 0.339624,0 0,-0.1698 0,-0.1698 -0.339624,0 -0.339623,0 0,-0.1698 0,-0.1698 -0.3396231,0 -0.3396233,0 0,-0.1698 0,-0.1698 -0.3396233,0 -0.3396233,0 0,0.1698 0,0.1698 0.3396233,0 0.3396233,0 0,0.1698 0,0.1698 0.3396233,0 0.3396231,0 0,0.1698 0,0.1698 0.339623,0 z"
         id="path4216" />
      <path
         style="fill:#000000"
         d="m 8.0565928,1049.1924 -0.509435,0 0,-1.5283 0,-1.5283 -0.3396233,0 -0.3396233,0 0,0.1698 0,0.1698 -0.3396233,0 -0.3396233,0 0,0.1698 0,0.1698 -0.3396233,0 -0.3396233,0 0,0.1699 0,0.1698 -0.258409,0 -0.258409,0 -0.938183,-0.9382 -0.938183,-0.9382 0.2504986,-0.2505 0.2504985,-0.2505 0.2668469,0 0.2668469,0 0,-0.1698 0,-0.1698 0.3396233,0 0.3396233,0 0,-0.3396 0,-0.3397 -0.3396233,0 -0.3396233,0 0,-0.1698 0,-0.1698 -0.2668469,0 -0.2668469,0 -0.242588,-0.2426 c -0.1334235,-0.1334 -0.2425881,-0.3265 -0.2425881,-0.429 0,-0.1025 0.3418576,-0.5282 0.7596837,-0.9461 l 0.7596836,-0.7597 0.4289979,0 0.4289978,0 0,0.1699 0,0.1698 0.3396233,0 0.3396233,0 0,0.1698 0,0.1698 0.3396233,0 0.3396233,0 0,0.1698 0,0.1698 0.3396233,0 0.3396233,0 0,-0.6792 0,-0.6793 0.509435,0 0.5094349,0 0,0.8491 0,0.849 0.1698116,0 c 0.093396,0 0.1698117,-0.076 0.1698117,-0.1698 l 0,-0.1698 0.3396233,0 0.3396233,0 0,-0.1698 0,-0.1698 0.3396233,0 0.3396231,0 0,-0.1698 0,-0.1698 0.339623,0 0.339624,0 0,-0.1698 0,-0.1699 0.428998,0 0.428998,0 0.759683,0.7597 c 0.417826,0.4179 0.759684,0.8436 0.759684,0.9461 0,0.1025 -0.109165,0.2956 -0.242588,0.429 l -0.242588,0.2426 -0.266847,0 -0.266847,0 0,0.1698 0,0.1698 -0.339623,0 -0.339624,0 0,0.3397 0,0.3396 0.339624,0 0.339623,0 0,0.1698 0,0.1698 0.266847,0 0.266847,0 0.242588,0.2426 c 0.133423,0.1334 0.242588,0.3265 0.242588,0.429 0,0.1025 -0.341858,0.5283 -0.759684,0.9461 l -0.759683,0.7597 -0.428998,0 -0.428998,0 0,-0.1698 0,-0.1699 -0.339624,0 -0.339623,0 0,-0.1698 0,-0.1698 -0.3396231,0 -0.3396233,0 0,-0.1698 0,-0.1698 -0.3396233,0 -0.3396233,0 0,-0.1698 c 0,-0.093 -0.076415,-0.1698 -0.1698117,-0.1698 l -0.1698116,0 0,1.6981 0,1.6981 -0.5094349,0 z m -2.8443451,-2.3897 0.2971703,0.012 0,-0.1698 0,-0.1698 0.3396233,0 0.3396233,0 0,-0.1698 0,-0.1698 0.3396233,0 0.3396233,0 0,-0.1698 0,-0.1698 0.3396233,0 0.3396233,0 0,-0.3397 0,-0.3396 -0.3396233,0 -0.3396233,0 0,-0.1698 0,-0.1698 -0.3396233,0 -0.3396233,0 0,-0.1698 0,-0.1698 -0.6792466,0 -0.6792465,0 0,0.1698 0,0.1698 -0.3396233,0 -0.3396233,0 0,0.1698 0,0.1698 -0.3396233,0 c -0.1867928,0 -0.3396233,0.04 -0.3396233,0.089 0,0.049 0.3247648,0.4254 0.7216995,0.8367 l 0.7216995,0.7479 0.2971704,0.012 z m 6.1613323,0.012 0.43019,0 0.58868,-0.5886 0.588681,-0.5887 0,-0.2604 0,-0.2604 -0.339624,0 -0.339623,0 0,-0.1698 0,-0.1698 -0.339623,0 -0.339624,0 0,-0.1698 0,-0.1698 -0.339623,0 -0.339623,0 0,-0.1698 0,-0.1698 -0.339624,0 -0.339623,0 0,-0.1699 0,-0.1698 -0.3396231,0 -0.3396233,0 0,-0.1698 0,-0.1698 -0.3396233,0 -0.3396233,0 0,-0.1698 0,-0.1698 -0.3396233,0 -0.3396233,0 0,-0.1698 0,-0.1698 -0.3396233,0 -0.3396233,0 0,-0.1698 0,-0.1699 -0.3396233,0 -0.3396233,0 0,-0.1698 0,-0.1698 -0.3396233,0 -0.3396233,0 0,-0.1698 0,-0.1698 -0.3396233,0 -0.3396233,0 0,-0.1698 0,-0.1698 -0.4301894,0 -0.4301896,0 -0.5886803,0.5887 -0.5886804,0.5886 0,0.2604 0,0.2604 0.3396233,0 0.3396233,0 0,0.1698 0,0.1698 0.3396233,0 0.3396233,0 0,0.1698 0,0.1698 0.3396233,0 0.3396232,0 0,0.1698 0,0.1699 0.3396233,0 0.3396233,0 0,0.1698 0,0.1698 0.3396233,0 0.3396233,0 0,0.1698 0,0.1698 0.3396233,0 0.3396233,0 0,0.1698 0,0.1698 0.3396233,0 0.3396233,0 0,0.1698 0,0.1698 0.3396233,0 0.3396233,0 0,0.1699 0,0.1698 0.3396233,0 0.3396233,0 0,0.1698 0,0.1698 0.3396233,0 0.3396231,0 0,0.1698 0,0.1698 0.339623,0 0.339624,0 0,0.1698 0,0.1698 0.430189,0 z m -0.430189,-3.0566 0.679246,0 0,-0.1698 0,-0.1698 0.339624,0 0.339623,0 0,-0.1698 0,-0.1698 0.339623,0 0.339624,0 0,-0.2604 0,-0.2604 -0.588681,-0.5886 -0.58868,-0.5887 -0.43019,0 -0.430189,0 0,0.1698 0,0.1698 -0.339624,0 -0.339623,0 0,0.1698 0,0.1698 -0.3396231,0 -0.3396233,0 0,0.1698 0,0.1698 -0.3396233,0 -0.3396233,0 0,0.3397 0,0.3396 0.3396233,0 0.3396233,0 0,0.1698 0,0.1698 0.3396233,0 0.3396231,0 0,0.1698 0,0.1698 0.679247,0 z"
         id="path4214" />
    </g>
  </g>
</svg>
