<?xml version="1.0" encoding="UTF-8" standalone="no"?>
<!-- Created with Inkscape (http://www.inkscape.org/) -->

<svg
   xmlns:dc="http://purl.org/dc/elements/1.1/"
   xmlns:cc="http://creativecommons.org/ns#"
   xmlns:rdf="http://www.w3.org/1999/02/22-rdf-syntax-ns#"
   xmlns:svg="http://www.w3.org/2000/svg"
   xmlns="http://www.w3.org/2000/svg"
   xmlns:sodipodi="http://sodipodi.sourceforge.net/DTD/sodipodi-0.dtd"
   xmlns:inkscape="http://www.inkscape.org/namespaces/inkscape"
   width="16"
   height="16"
   id="svg2"
   version="1.1"
   inkscape:version="0.47 r22583"
   sodipodi:docname="RAIL-64.svg">
  <defs
     id="defs4">
    <inkscape:perspective
       sodipodi:type="inkscape:persp3d"
       inkscape:vp_x="0 : 526.18109 : 1"
       inkscape:vp_y="0 : 1000 : 0"
       inkscape:vp_z="744.09448 : 526.18109 : 1"
       inkscape:persp3d-origin="372.04724 : 350.78739 : 1"
       id="perspective10" />
    <inkscape:perspective
       id="perspective2824"
       inkscape:persp3d-origin="0.5 : 0.33333333 : 1"
       inkscape:vp_z="1 : 0.5 : 1"
       inkscape:vp_y="0 : 1000 : 0"
       inkscape:vp_x="0 : 0.5 : 1"
       sodipodi:type="inkscape:persp3d" />
    <inkscape:perspective
       id="perspective5878"
       inkscape:persp3d-origin="0.5 : 0.33333333 : 1"
       inkscape:vp_z="1 : 0.5 : 1"
       inkscape:vp_y="0 : 1000 : 0"
       inkscape:vp_x="0 : 0.5 : 1"
       sodipodi:type="inkscape:persp3d" />
    <inkscape:perspective
       id="perspective5921"
       inkscape:persp3d-origin="0.5 : 0.33333333 : 1"
       inkscape:vp_z="1 : 0.5 : 1"
       inkscape:vp_y="0 : 1000 : 0"
       inkscape:vp_x="0 : 0.5 : 1"
       sodipodi:type="inkscape:persp3d" />
    <inkscape:perspective
       id="perspective5943"
       inkscape:persp3d-origin="0.5 : 0.33333333 : 1"
       inkscape:vp_z="1 : 0.5 : 1"
       inkscape:vp_y="0 : 1000 : 0"
       inkscape:vp_x="0 : 0.5 : 1"
       sodipodi:type="inkscape:persp3d" />
    <inkscape:perspective
       id="perspective5989"
       inkscape:persp3d-origin="0.5 : 0.33333333 : 1"
       inkscape:vp_z="1 : 0.5 : 1"
       inkscape:vp_y="0 : 1000 : 0"
       inkscape:vp_x="0 : 0.5 : 1"
       sodipodi:type="inkscape:persp3d" />
    <inkscape:perspective
       id="perspective6011"
       inkscape:persp3d-origin="0.5 : 0.33333333 : 1"
       inkscape:vp_z="1 : 0.5 : 1"
       inkscape:vp_y="0 : 1000 : 0"
       inkscape:vp_x="0 : 0.5 : 1"
       sodipodi:type="inkscape:persp3d" />
    <inkscape:perspective
       id="perspective6033"
       inkscape:persp3d-origin="0.5 : 0.33333333 : 1"
       inkscape:vp_z="1 : 0.5 : 1"
       inkscape:vp_y="0 : 1000 : 0"
       inkscape:vp_x="0 : 0.5 : 1"
       sodipodi:type="inkscape:persp3d" />
    <inkscape:perspective
       id="perspective6245"
       inkscape:persp3d-origin="0.5 : 0.33333333 : 1"
       inkscape:vp_z="1 : 0.5 : 1"
       inkscape:vp_y="0 : 1000 : 0"
       inkscape:vp_x="0 : 0.5 : 1"
       sodipodi:type="inkscape:persp3d" />
    <inkscape:perspective
       id="perspective6269"
       inkscape:persp3d-origin="0.5 : 0.33333333 : 1"
       inkscape:vp_z="1 : 0.5 : 1"
       inkscape:vp_y="0 : 1000 : 0"
       inkscape:vp_x="0 : 0.5 : 1"
       sodipodi:type="inkscape:persp3d" />
    <inkscape:perspective
       id="perspective6364"
       inkscape:persp3d-origin="0.5 : 0.33333333 : 1"
       inkscape:vp_z="1 : 0.5 : 1"
       inkscape:vp_y="0 : 1000 : 0"
       inkscape:vp_x="0 : 0.5 : 1"
       sodipodi:type="inkscape:persp3d" />
    <inkscape:perspective
       id="perspective6396"
       inkscape:persp3d-origin="0.5 : 0.33333333 : 1"
       inkscape:vp_z="1 : 0.5 : 1"
       inkscape:vp_y="0 : 1000 : 0"
       inkscape:vp_x="0 : 0.5 : 1"
       sodipodi:type="inkscape:persp3d" />
    <inkscape:perspective
       id="perspective6438"
       inkscape:persp3d-origin="0.5 : 0.33333333 : 1"
       inkscape:vp_z="1 : 0.5 : 1"
       inkscape:vp_y="0 : 1000 : 0"
       inkscape:vp_x="0 : 0.5 : 1"
       sodipodi:type="inkscape:persp3d" />
    <inkscape:perspective
       id="perspective6460"
       inkscape:persp3d-origin="0.5 : 0.33333333 : 1"
       inkscape:vp_z="1 : 0.5 : 1"
       inkscape:vp_y="0 : 1000 : 0"
       inkscape:vp_x="0 : 0.5 : 1"
       sodipodi:type="inkscape:persp3d" />
    <inkscape:perspective
       id="perspective6480"
       inkscape:persp3d-origin="0.5 : 0.33333333 : 1"
       inkscape:vp_z="1 : 0.5 : 1"
       inkscape:vp_y="0 : 1000 : 0"
       inkscape:vp_x="0 : 0.5 : 1"
       sodipodi:type="inkscape:persp3d" />
    <inkscape:perspective
       id="perspective6504"
       inkscape:persp3d-origin="0.5 : 0.33333333 : 1"
       inkscape:vp_z="1 : 0.5 : 1"
       inkscape:vp_y="0 : 1000 : 0"
       inkscape:vp_x="0 : 0.5 : 1"
       sodipodi:type="inkscape:persp3d" />
    <inkscape:perspective
       id="perspective6524"
       inkscape:persp3d-origin="0.5 : 0.33333333 : 1"
       inkscape:vp_z="1 : 0.5 : 1"
       inkscape:vp_y="0 : 1000 : 0"
       inkscape:vp_x="0 : 0.5 : 1"
       sodipodi:type="inkscape:persp3d" />
    <inkscape:perspective
       id="perspective6548"
       inkscape:persp3d-origin="0.5 : 0.33333333 : 1"
       inkscape:vp_z="1 : 0.5 : 1"
       inkscape:vp_y="0 : 1000 : 0"
       inkscape:vp_x="0 : 0.5 : 1"
       sodipodi:type="inkscape:persp3d" />
    <inkscape:perspective
       id="perspective6572"
       inkscape:persp3d-origin="0.5 : 0.33333333 : 1"
       inkscape:vp_z="1 : 0.5 : 1"
       inkscape:vp_y="0 : 1000 : 0"
       inkscape:vp_x="0 : 0.5 : 1"
       sodipodi:type="inkscape:persp3d" />
    <inkscape:perspective
       id="perspective6594"
       inkscape:persp3d-origin="0.5 : 0.33333333 : 1"
       inkscape:vp_z="1 : 0.5 : 1"
       inkscape:vp_y="0 : 1000 : 0"
       inkscape:vp_x="0 : 0.5 : 1"
       sodipodi:type="inkscape:persp3d" />
    <inkscape:perspective
       id="perspective6614"
       inkscape:persp3d-origin="0.5 : 0.33333333 : 1"
       inkscape:vp_z="1 : 0.5 : 1"
       inkscape:vp_y="0 : 1000 : 0"
       inkscape:vp_x="0 : 0.5 : 1"
       sodipodi:type="inkscape:persp3d" />
    <inkscape:perspective
       id="perspective6650"
       inkscape:persp3d-origin="0.5 : 0.33333333 : 1"
       inkscape:vp_z="1 : 0.5 : 1"
       inkscape:vp_y="0 : 1000 : 0"
       inkscape:vp_x="0 : 0.5 : 1"
       sodipodi:type="inkscape:persp3d" />
    <inkscape:perspective
       id="perspective6676"
       inkscape:persp3d-origin="0.5 : 0.33333333 : 1"
       inkscape:vp_z="1 : 0.5 : 1"
       inkscape:vp_y="0 : 1000 : 0"
       inkscape:vp_x="0 : 0.5 : 1"
       sodipodi:type="inkscape:persp3d" />
    <inkscape:perspective
       id="perspective6710"
       inkscape:persp3d-origin="0.5 : 0.33333333 : 1"
       inkscape:vp_z="1 : 0.5 : 1"
       inkscape:vp_y="0 : 1000 : 0"
       inkscape:vp_x="0 : 0.5 : 1"
       sodipodi:type="inkscape:persp3d" />
    <inkscape:perspective
       id="perspective6748"
       inkscape:persp3d-origin="0.5 : 0.33333333 : 1"
       inkscape:vp_z="1 : 0.5 : 1"
       inkscape:vp_y="0 : 1000 : 0"
       inkscape:vp_x="0 : 0.5 : 1"
       sodipodi:type="inkscape:persp3d" />
    <inkscape:perspective
       id="perspective6786"
       inkscape:persp3d-origin="0.5 : 0.33333333 : 1"
       inkscape:vp_z="1 : 0.5 : 1"
       inkscape:vp_y="0 : 1000 : 0"
       inkscape:vp_x="0 : 0.5 : 1"
       sodipodi:type="inkscape:persp3d" />
    <inkscape:perspective
       id="perspective6810"
       inkscape:persp3d-origin="0.5 : 0.33333333 : 1"
       inkscape:vp_z="1 : 0.5 : 1"
       inkscape:vp_y="0 : 1000 : 0"
       inkscape:vp_x="0 : 0.5 : 1"
       sodipodi:type="inkscape:persp3d" />
    <inkscape:perspective
       id="perspective6848"
       inkscape:persp3d-origin="0.5 : 0.33333333 : 1"
       inkscape:vp_z="1 : 0.5 : 1"
       inkscape:vp_y="0 : 1000 : 0"
       inkscape:vp_x="0 : 0.5 : 1"
       sodipodi:type="inkscape:persp3d" />
    <inkscape:perspective
       id="perspective6870"
       inkscape:persp3d-origin="0.5 : 0.33333333 : 1"
       inkscape:vp_z="1 : 0.5 : 1"
       inkscape:vp_y="0 : 1000 : 0"
       inkscape:vp_x="0 : 0.5 : 1"
       sodipodi:type="inkscape:persp3d" />
    <inkscape:perspective
       id="perspective6908"
       inkscape:persp3d-origin="0.5 : 0.33333333 : 1"
       inkscape:vp_z="1 : 0.5 : 1"
       inkscape:vp_y="0 : 1000 : 0"
       inkscape:vp_x="0 : 0.5 : 1"
       sodipodi:type="inkscape:persp3d" />
    <inkscape:perspective
       id="perspective6946"
       inkscape:persp3d-origin="0.5 : 0.33333333 : 1"
       inkscape:vp_z="1 : 0.5 : 1"
       inkscape:vp_y="0 : 1000 : 0"
       inkscape:vp_x="0 : 0.5 : 1"
       sodipodi:type="inkscape:persp3d" />
    <inkscape:perspective
       id="perspective6970"
       inkscape:persp3d-origin="0.5 : 0.33333333 : 1"
       inkscape:vp_z="1 : 0.5 : 1"
       inkscape:vp_y="0 : 1000 : 0"
       inkscape:vp_x="0 : 0.5 : 1"
       sodipodi:type="inkscape:persp3d" />
    <inkscape:perspective
       id="perspective7008"
       inkscape:persp3d-origin="0.5 : 0.33333333 : 1"
       inkscape:vp_z="1 : 0.5 : 1"
       inkscape:vp_y="0 : 1000 : 0"
       inkscape:vp_x="0 : 0.5 : 1"
       sodipodi:type="inkscape:persp3d" />
    <inkscape:perspective
       id="perspective7036"
       inkscape:persp3d-origin="0.5 : 0.33333333 : 1"
       inkscape:vp_z="1 : 0.5 : 1"
       inkscape:vp_y="0 : 1000 : 0"
       inkscape:vp_x="0 : 0.5 : 1"
       sodipodi:type="inkscape:persp3d" />
    <inkscape:perspective
       id="perspective7060"
       inkscape:persp3d-origin="0.5 : 0.33333333 : 1"
       inkscape:vp_z="1 : 0.5 : 1"
       inkscape:vp_y="0 : 1000 : 0"
       inkscape:vp_x="0 : 0.5 : 1"
       sodipodi:type="inkscape:persp3d" />
    <inkscape:perspective
       id="perspective7098"
       inkscape:persp3d-origin="0.5 : 0.33333333 : 1"
       inkscape:vp_z="1 : 0.5 : 1"
       inkscape:vp_y="0 : 1000 : 0"
       inkscape:vp_x="0 : 0.5 : 1"
       sodipodi:type="inkscape:persp3d" />
    <inkscape:perspective
       id="perspective7136"
       inkscape:persp3d-origin="0.5 : 0.33333333 : 1"
       inkscape:vp_z="1 : 0.5 : 1"
       inkscape:vp_y="0 : 1000 : 0"
       inkscape:vp_x="0 : 0.5 : 1"
       sodipodi:type="inkscape:persp3d" />
    <inkscape:perspective
       id="perspective7174"
       inkscape:persp3d-origin="0.5 : 0.33333333 : 1"
       inkscape:vp_z="1 : 0.5 : 1"
       inkscape:vp_y="0 : 1000 : 0"
       inkscape:vp_x="0 : 0.5 : 1"
       sodipodi:type="inkscape:persp3d" />
    <inkscape:perspective
       id="perspective7212"
       inkscape:persp3d-origin="0.5 : 0.33333333 : 1"
       inkscape:vp_z="1 : 0.5 : 1"
       inkscape:vp_y="0 : 1000 : 0"
       inkscape:vp_x="0 : 0.5 : 1"
       sodipodi:type="inkscape:persp3d" />
    <inkscape:perspective
       id="perspective7234"
       inkscape:persp3d-origin="0.5 : 0.33333333 : 1"
       inkscape:vp_z="1 : 0.5 : 1"
       inkscape:vp_y="0 : 1000 : 0"
       inkscape:vp_x="0 : 0.5 : 1"
       sodipodi:type="inkscape:persp3d" />
    <inkscape:perspective
       id="perspective7272"
       inkscape:persp3d-origin="0.5 : 0.33333333 : 1"
       inkscape:vp_z="1 : 0.5 : 1"
       inkscape:vp_y="0 : 1000 : 0"
       inkscape:vp_x="0 : 0.5 : 1"
       sodipodi:type="inkscape:persp3d" />
    <inkscape:perspective
       id="perspective7294"
       inkscape:persp3d-origin="0.5 : 0.33333333 : 1"
       inkscape:vp_z="1 : 0.5 : 1"
       inkscape:vp_y="0 : 1000 : 0"
       inkscape:vp_x="0 : 0.5 : 1"
       sodipodi:type="inkscape:persp3d" />
    <inkscape:perspective
       id="perspective7330"
       inkscape:persp3d-origin="0.5 : 0.33333333 : 1"
       inkscape:vp_z="1 : 0.5 : 1"
       inkscape:vp_y="0 : 1000 : 0"
       inkscape:vp_x="0 : 0.5 : 1"
       sodipodi:type="inkscape:persp3d" />
    <inkscape:perspective
       id="perspective3068"
       inkscape:persp3d-origin="0.5 : 0.33333333 : 1"
       inkscape:vp_z="1 : 0.5 : 1"
       inkscape:vp_y="0 : 1000 : 0"
       inkscape:vp_x="0 : 0.5 : 1"
       sodipodi:type="inkscape:persp3d" />
    <inkscape:perspective
       id="perspective3106"
       inkscape:persp3d-origin="0.5 : 0.33333333 : 1"
       inkscape:vp_z="1 : 0.5 : 1"
       inkscape:vp_y="0 : 1000 : 0"
       inkscape:vp_x="0 : 0.5 : 1"
       sodipodi:type="inkscape:persp3d" />
    <inkscape:perspective
       id="perspective3128"
       inkscape:persp3d-origin="0.5 : 0.33333333 : 1"
       inkscape:vp_z="1 : 0.5 : 1"
       inkscape:vp_y="0 : 1000 : 0"
       inkscape:vp_x="0 : 0.5 : 1"
       sodipodi:type="inkscape:persp3d" />
    <inkscape:perspective
       id="perspective3152"
       inkscape:persp3d-origin="0.5 : 0.33333333 : 1"
       inkscape:vp_z="1 : 0.5 : 1"
       inkscape:vp_y="0 : 1000 : 0"
       inkscape:vp_x="0 : 0.5 : 1"
       sodipodi:type="inkscape:persp3d" />
    <inkscape:perspective
       id="perspective3174"
       inkscape:persp3d-origin="0.5 : 0.33333333 : 1"
       inkscape:vp_z="1 : 0.5 : 1"
       inkscape:vp_y="0 : 1000 : 0"
       inkscape:vp_x="0 : 0.5 : 1"
       sodipodi:type="inkscape:persp3d" />
    <inkscape:perspective
       id="perspective3212"
       inkscape:persp3d-origin="0.5 : 0.33333333 : 1"
       inkscape:vp_z="1 : 0.5 : 1"
       inkscape:vp_y="0 : 1000 : 0"
       inkscape:vp_x="0 : 0.5 : 1"
       sodipodi:type="inkscape:persp3d" />
    <inkscape:perspective
       id="perspective3238"
       inkscape:persp3d-origin="0.5 : 0.33333333 : 1"
       inkscape:vp_z="1 : 0.5 : 1"
       inkscape:vp_y="0 : 1000 : 0"
       inkscape:vp_x="0 : 0.5 : 1"
       sodipodi:type="inkscape:persp3d" />
    <inkscape:perspective
       id="perspective3276"
       inkscape:persp3d-origin="0.5 : 0.33333333 : 1"
       inkscape:vp_z="1 : 0.5 : 1"
       inkscape:vp_y="0 : 1000 : 0"
       inkscape:vp_x="0 : 0.5 : 1"
       sodipodi:type="inkscape:persp3d" />
    <inkscape:perspective
       id="perspective3314"
       inkscape:persp3d-origin="0.5 : 0.33333333 : 1"
       inkscape:vp_z="1 : 0.5 : 1"
       inkscape:vp_y="0 : 1000 : 0"
       inkscape:vp_x="0 : 0.5 : 1"
       sodipodi:type="inkscape:persp3d" />
    <inkscape:perspective
       id="perspective3350"
       inkscape:persp3d-origin="0.5 : 0.33333333 : 1"
       inkscape:vp_z="1 : 0.5 : 1"
       inkscape:vp_y="0 : 1000 : 0"
       inkscape:vp_x="0 : 0.5 : 1"
       sodipodi:type="inkscape:persp3d" />
    <inkscape:perspective
       id="perspective3376"
       inkscape:persp3d-origin="0.5 : 0.33333333 : 1"
       inkscape:vp_z="1 : 0.5 : 1"
       inkscape:vp_y="0 : 1000 : 0"
       inkscape:vp_x="0 : 0.5 : 1"
       sodipodi:type="inkscape:persp3d" />
    <inkscape:perspective
       id="perspective3402"
       inkscape:persp3d-origin="0.5 : 0.33333333 : 1"
       inkscape:vp_z="1 : 0.5 : 1"
       inkscape:vp_y="0 : 1000 : 0"
       inkscape:vp_x="0 : 0.5 : 1"
       sodipodi:type="inkscape:persp3d" />
    <inkscape:perspective
       id="perspective3428"
       inkscape:persp3d-origin="0.5 : 0.33333333 : 1"
       inkscape:vp_z="1 : 0.5 : 1"
       inkscape:vp_y="0 : 1000 : 0"
       inkscape:vp_x="0 : 0.5 : 1"
       sodipodi:type="inkscape:persp3d" />
    <inkscape:perspective
       id="perspective3466"
       inkscape:persp3d-origin="0.5 : 0.33333333 : 1"
       inkscape:vp_z="1 : 0.5 : 1"
       inkscape:vp_y="0 : 1000 : 0"
       inkscape:vp_x="0 : 0.5 : 1"
       sodipodi:type="inkscape:persp3d" />
    <inkscape:perspective
       id="perspective3504"
       inkscape:persp3d-origin="0.5 : 0.33333333 : 1"
       inkscape:vp_z="1 : 0.5 : 1"
       inkscape:vp_y="0 : 1000 : 0"
       inkscape:vp_x="0 : 0.5 : 1"
       sodipodi:type="inkscape:persp3d" />
    <inkscape:perspective
       id="perspective3542"
       inkscape:persp3d-origin="0.5 : 0.33333333 : 1"
       inkscape:vp_z="1 : 0.5 : 1"
       inkscape:vp_y="0 : 1000 : 0"
       inkscape:vp_x="0 : 0.5 : 1"
       sodipodi:type="inkscape:persp3d" />
    <inkscape:perspective
       id="perspective3566"
       inkscape:persp3d-origin="0.5 : 0.33333333 : 1"
       inkscape:vp_z="1 : 0.5 : 1"
       inkscape:vp_y="0 : 1000 : 0"
       inkscape:vp_x="0 : 0.5 : 1"
       sodipodi:type="inkscape:persp3d" />
    <inkscape:perspective
       id="perspective3590"
       inkscape:persp3d-origin="0.5 : 0.33333333 : 1"
       inkscape:vp_z="1 : 0.5 : 1"
       inkscape:vp_y="0 : 1000 : 0"
       inkscape:vp_x="0 : 0.5 : 1"
       sodipodi:type="inkscape:persp3d" />
    <inkscape:perspective
       id="perspective3610"
       inkscape:persp3d-origin="0.5 : 0.33333333 : 1"
       inkscape:vp_z="1 : 0.5 : 1"
       inkscape:vp_y="0 : 1000 : 0"
       inkscape:vp_x="0 : 0.5 : 1"
       sodipodi:type="inkscape:persp3d" />
    <inkscape:perspective
       id="perspective3648"
       inkscape:persp3d-origin="0.5 : 0.33333333 : 1"
       inkscape:vp_z="1 : 0.5 : 1"
       inkscape:vp_y="0 : 1000 : 0"
       inkscape:vp_x="0 : 0.5 : 1"
       sodipodi:type="inkscape:persp3d" />
    <inkscape:perspective
       id="perspective3668"
       inkscape:persp3d-origin="0.5 : 0.33333333 : 1"
       inkscape:vp_z="1 : 0.5 : 1"
       inkscape:vp_y="0 : 1000 : 0"
       inkscape:vp_x="0 : 0.5 : 1"
       sodipodi:type="inkscape:persp3d" />
    <inkscape:perspective
       id="perspective3706"
       inkscape:persp3d-origin="0.5 : 0.33333333 : 1"
       inkscape:vp_z="1 : 0.5 : 1"
       inkscape:vp_y="0 : 1000 : 0"
       inkscape:vp_x="0 : 0.5 : 1"
       sodipodi:type="inkscape:persp3d" />
    <inkscape:perspective
       id="perspective3744"
       inkscape:persp3d-origin="0.5 : 0.33333333 : 1"
       inkscape:vp_z="1 : 0.5 : 1"
       inkscape:vp_y="0 : 1000 : 0"
       inkscape:vp_x="0 : 0.5 : 1"
       sodipodi:type="inkscape:persp3d" />
    <inkscape:perspective
       id="perspective3770"
       inkscape:persp3d-origin="0.5 : 0.33333333 : 1"
       inkscape:vp_z="1 : 0.5 : 1"
       inkscape:vp_y="0 : 1000 : 0"
       inkscape:vp_x="0 : 0.5 : 1"
       sodipodi:type="inkscape:persp3d" />
    <inkscape:perspective
       id="perspective3804"
       inkscape:persp3d-origin="0.5 : 0.33333333 : 1"
       inkscape:vp_z="1 : 0.5 : 1"
       inkscape:vp_y="0 : 1000 : 0"
       inkscape:vp_x="0 : 0.5 : 1"
       sodipodi:type="inkscape:persp3d" />
    <inkscape:perspective
       id="perspective3828"
       inkscape:persp3d-origin="0.5 : 0.33333333 : 1"
       inkscape:vp_z="1 : 0.5 : 1"
       inkscape:vp_y="0 : 1000 : 0"
       inkscape:vp_x="0 : 0.5 : 1"
       sodipodi:type="inkscape:persp3d" />
    <inkscape:perspective
       id="perspective3852"
       inkscape:persp3d-origin="0.5 : 0.33333333 : 1"
       inkscape:vp_z="1 : 0.5 : 1"
       inkscape:vp_y="0 : 1000 : 0"
       inkscape:vp_x="0 : 0.5 : 1"
       sodipodi:type="inkscape:persp3d" />
    <inkscape:perspective
       id="perspective3876"
       inkscape:persp3d-origin="0.5 : 0.33333333 : 1"
       inkscape:vp_z="1 : 0.5 : 1"
       inkscape:vp_y="0 : 1000 : 0"
       inkscape:vp_x="0 : 0.5 : 1"
       sodipodi:type="inkscape:persp3d" />
    <inkscape:perspective
       id="perspective3900"
       inkscape:persp3d-origin="0.5 : 0.33333333 : 1"
       inkscape:vp_z="1 : 0.5 : 1"
       inkscape:vp_y="0 : 1000 : 0"
       inkscape:vp_x="0 : 0.5 : 1"
       sodipodi:type="inkscape:persp3d" />
    <inkscape:perspective
       id="perspective3924"
       inkscape:persp3d-origin="0.5 : 0.33333333 : 1"
       inkscape:vp_z="1 : 0.5 : 1"
       inkscape:vp_y="0 : 1000 : 0"
       inkscape:vp_x="0 : 0.5 : 1"
       sodipodi:type="inkscape:persp3d" />
    <inkscape:perspective
       id="perspective3948"
       inkscape:persp3d-origin="0.5 : 0.33333333 : 1"
       inkscape:vp_z="1 : 0.5 : 1"
       inkscape:vp_y="0 : 1000 : 0"
       inkscape:vp_x="0 : 0.5 : 1"
       sodipodi:type="inkscape:persp3d" />
    <inkscape:perspective
       id="perspective3986"
       inkscape:persp3d-origin="0.5 : 0.33333333 : 1"
       inkscape:vp_z="1 : 0.5 : 1"
       inkscape:vp_y="0 : 1000 : 0"
       inkscape:vp_x="0 : 0.5 : 1"
       sodipodi:type="inkscape:persp3d" />
    <inkscape:perspective
       id="perspective4024"
       inkscape:persp3d-origin="0.5 : 0.33333333 : 1"
       inkscape:vp_z="1 : 0.5 : 1"
       inkscape:vp_y="0 : 1000 : 0"
       inkscape:vp_x="0 : 0.5 : 1"
       sodipodi:type="inkscape:persp3d" />
    <inkscape:perspective
       id="perspective4062"
       inkscape:persp3d-origin="0.5 : 0.33333333 : 1"
       inkscape:vp_z="1 : 0.5 : 1"
       inkscape:vp_y="0 : 1000 : 0"
       inkscape:vp_x="0 : 0.5 : 1"
       sodipodi:type="inkscape:persp3d" />
    <inkscape:perspective
       id="perspective4100"
       inkscape:persp3d-origin="0.5 : 0.33333333 : 1"
       inkscape:vp_z="1 : 0.5 : 1"
       inkscape:vp_y="0 : 1000 : 0"
       inkscape:vp_x="0 : 0.5 : 1"
       sodipodi:type="inkscape:persp3d" />
    <inkscape:perspective
       id="perspective4126"
       inkscape:persp3d-origin="0.5 : 0.33333333 : 1"
       inkscape:vp_z="1 : 0.5 : 1"
       inkscape:vp_y="0 : 1000 : 0"
       inkscape:vp_x="0 : 0.5 : 1"
       sodipodi:type="inkscape:persp3d" />
    <inkscape:perspective
       id="perspective4164"
       inkscape:persp3d-origin="0.5 : 0.33333333 : 1"
       inkscape:vp_z="1 : 0.5 : 1"
       inkscape:vp_y="0 : 1000 : 0"
       inkscape:vp_x="0 : 0.5 : 1"
       sodipodi:type="inkscape:persp3d" />
    <inkscape:perspective
       id="perspective4184"
       inkscape:persp3d-origin="0.5 : 0.33333333 : 1"
       inkscape:vp_z="1 : 0.5 : 1"
       inkscape:vp_y="0 : 1000 : 0"
       inkscape:vp_x="0 : 0.5 : 1"
       sodipodi:type="inkscape:persp3d" />
    <inkscape:perspective
       id="perspective4206"
       inkscape:persp3d-origin="0.5 : 0.33333333 : 1"
       inkscape:vp_z="1 : 0.5 : 1"
       inkscape:vp_y="0 : 1000 : 0"
       inkscape:vp_x="0 : 0.5 : 1"
       sodipodi:type="inkscape:persp3d" />
    <inkscape:perspective
       id="perspective4228"
       inkscape:persp3d-origin="0.5 : 0.33333333 : 1"
       inkscape:vp_z="1 : 0.5 : 1"
       inkscape:vp_y="0 : 1000 : 0"
       inkscape:vp_x="0 : 0.5 : 1"
       sodipodi:type="inkscape:persp3d" />
  </defs>
  <sodipodi:namedview
     id="base"
     pagecolor="#ffffff"
     bordercolor="#666666"
     borderopacity="1.0"
     inkscape:pageopacity="0.0"
     inkscape:pageshadow="2"
     inkscape:zoom="11.313709"
     inkscape:cx="11.966503"
     inkscape:cy="14.926085"
     inkscape:document-units="px"
     inkscape:current-layer="layer1"
     showgrid="true"
     inkscape:window-width="1280"
     inkscape:window-height="780"
     inkscape:window-x="-8"
     inkscape:window-y="-8"
     inkscape:window-maximized="1">
    <inkscape:grid
       type="xygrid"
       id="grid6324"
       empspacing="5"
       visible="true"
       enabled="true"
       snapvisiblegridlinesonly="true" />
  </sodipodi:namedview>
  <metadata
     id="metadata7">
    <rdf:RDF>
      <cc:Work
         rdf:about="">
        <dc:format>image/svg+xml</dc:format>
        <dc:type
           rdf:resource="http://purl.org/dc/dcmitype/StillImage" />
        <dc:title></dc:title>
      </cc:Work>
    </rdf:RDF>
  </metadata>
  <g
     inkscape:label="Calque 1"
     inkscape:groupmode="layer"
     id="layer1"
     transform="translate(0,-1036.3622)">
    <g
       id="g4234"
       transform="translate(0.4444444,0.0644)">
      <path
         style="fill:#9d978b"
         d="m 5.3547436,1049.5854 -4.2436325,-0.015 0.5,-0.2411 c 0.275,-0.1326 0.5,-0.3308 0.5,-0.4403 l 0,-0.1991 0.9444445,-0.4287 L 4,1047.8324 l 0.6006549,0 c 0.3303602,0 0.8803602,-0.1287 1.2222222,-0.2801 0.341862,-0.1513 0.75356,-0.4012 0.9148845,-0.5552 0.1613244,-0.154 0.5363244,-0.341 0.8333333,-0.4155 l 0.5400162,-0.1356 -0.00707,-1.0314 -0.00707,-1.0315 -0.3176555,-0.4196 -0.3176556,-0.4196 0.2214305,-0.4137 0.2214306,-0.4138 0.4288071,0 0.4288071,0 0.2214307,0.4138 0.2214305,0.4137 -0.3176556,0.4196 -0.3176556,0.4196 -0.00707,0.9685 -0.00707,0.9686 0.5935728,-0.149 c 0.3264652,-0.082 0.8399509,-0.3428 1.1410799,-0.5797 l 0.547507,-0.4306 0.592254,0 0.592253,0 0.218293,-0.2183 c 0.120061,-0.1201 0.699189,-0.363 1.286951,-0.5399 l 1.068658,-0.3217 -0.409173,0.4808 c -0.225045,0.2644 -1.349539,1.5074 -2.498874,2.7621 l -2.0897013,2.2814 -4.2436324,-0.015 z"
         id="path4256" />
      <path
         style="fill:#a08c65"
         d="m 5.3452962,1049.5854 -4.2341851,-0.015 0.5,-0.2411 c 0.275,-0.1326 0.5,-0.3308 0.5,-0.4403 l 0,-0.1991 0.9444445,-0.4287 L 4,1047.8324 l 0.6006549,0 c 0.3303602,0 0.8803602,-0.1278 1.2222222,-0.2781 0.341862,-0.1503 0.6715673,-0.3391 0.7326785,-0.4195 0.061111,-0.08 0.5111111,-0.3189 1,-0.53 0.4888888,-0.2111 1.1543088,-0.41 1.4787113,-0.4419 l 0.5898224,-0.058 0.5151787,-0.3609 0.515179,-0.3608 0.456664,0 0.456664,0 0.488954,-0.3425 c 0.268925,-0.1884 0.950304,-0.4813 1.514175,-0.651 l 1.02522,-0.3086 -0.31997,0.3733 c -0.175983,0.2053 -0.599162,0.6955 -0.940397,1.0893 l -0.620427,0.716 -0.225334,-0.1393 -0.225333,-0.1392 0.137545,0.2225 0.137544,0.2226 -0.603209,0.5779 c -0.331765,0.3179 -0.70321,0.6082 -0.825432,0.6451 l -0.222222,0.067 0.06671,0.2002 0.06671,0.2001 -0.721415,0.7443 -0.7214147,0.7443 -4.2341851,-0.015 z m 3.4193667,-1.0961 1.3202181,0 0.137341,-0.2222 0.137341,-0.2222 -1.4575592,0 -1.4575594,0 0,0.2222 0,0.2222 1.3202185,0 z m 1.7596031,-1.5556 c 0.363883,0 0.819785,-0.061 1.013115,-0.1348 0.193329,-0.074 0.351508,-0.2019 0.351508,-0.2837 l 0,-0.1488 -0.890282,0.085 -0.890282,0.085 -0.1228328,0.1988 -0.1228331,0.1987 0.6616069,0 z m 0.586845,0.8889 C 11.05,1047.8226 11,1047.7726 11,1047.7115 c 0,-0.061 0.05,-0.1111 0.111111,-0.1111 0.06111,0 0.111111,0.05 0.111111,0.1111 0,0.061 -0.05,0.1111 -0.111111,0.1111 z m -2.3008519,-3.7627 -0.4055124,0.5008 -0.485244,-0.4852 -0.4852443,-0.4853 0.2351338,-0.4393 0.235134,-0.4394 0.4288071,0 0.4288071,0 0.2268158,0.4238 0.2268156,0.4238 -0.4055127,0.5008 z"
         id="path4254" />
      <path
         style="fill:#857862"
         d="m 5.3452962,1049.5854 -4.2341851,-0.015 0.5,-0.2411 c 0.275,-0.1326 0.5,-0.3308 0.5,-0.4403 l 0,-0.1991 0.9444445,-0.4287 L 4,1047.8324 l 0.6006549,0 c 0.3303602,0 0.8803602,-0.1278 1.2222222,-0.2781 0.341862,-0.1503 0.6923945,-0.3745 0.7789609,-0.4981 l 0.1573938,-0.2249 2.1125918,0.071 2.1125924,0.071 0.452236,-0.1435 c 0.24873,-0.079 0.452237,-0.2195 0.452237,-0.3123 l 0,-0.1687 -0.611111,0.063 c -0.336111,0.035 -1.2898911,0.1064 -2.1195109,0.1588 l -1.5083995,0.095 0.3879791,-0.2837 0.3879791,-0.2837 0.2856084,0.1096 0.2856085,0.1096 0.8972106,-0.4677 c 0.4934657,-0.2572 1.0718807,-0.4676 1.2853657,-0.4676 0.213486,0 0.608185,-0.1541 0.87711,-0.3425 0.268925,-0.1884 0.950304,-0.4813 1.514175,-0.651 l 1.02522,-0.3086 -0.31997,0.3733 c -0.175983,0.2053 -0.599162,0.6955 -0.940397,1.0893 l -0.620427,0.716 -0.225334,-0.1393 -0.225333,-0.1392 0.137545,0.2225 0.137544,0.2226 -0.603209,0.5779 c -0.331765,0.3179 -0.70321,0.6082 -0.825432,0.6451 l -0.222222,0.067 0.06671,0.2002 0.06671,0.2001 -0.721415,0.7443 -0.7214147,0.7443 -4.2341851,-0.015 z m 1.5173629,-1.0961 3.2222219,0 0.137341,-0.2222 0.137341,-0.2222 -3.2222221,0 -3.2222222,0 -0.1373409,0.2222 -0.1373409,0.2222 3.2222222,0 z m 4.2484519,-0.6667 C 11.05,1047.8226 11,1047.7726 11,1047.7115 c 0,-0.061 0.05,-0.1111 0.111111,-0.1111 0.06111,0 0.111111,0.05 0.111111,0.1111 0,0.061 -0.05,0.1111 -0.111111,0.1111 z m -2.3958859,-3.5958 -0.3072451,0.255 -0.3917611,-0.2865 -0.3917611,-0.2865 0.07666,-0.5431 0.07666,-0.5431 0.5555555,0 0.5555556,0 0.066791,0.5746 0.066791,0.5746 -0.3072451,0.255 z"
         id="path4252" />
      <path
         style="fill:#af901a"
         d="m 5.3473131,1049.5854 -4.236202,-0.015 0.5,-0.2411 c 0.275,-0.1326 0.5,-0.3294 0.5,-0.4373 l 0,-0.1962 1.0184234,-0.4365 1.0184235,-0.4366 0.6147536,0 0.6147537,0 1.4656396,-0.7777 c 0.8061018,-0.4278 1.546172,-0.7743 1.6446007,-0.7699 0.098429,0 -0.071039,0.1507 -0.3765945,0.3254 l -0.5555555,0.3176 2.0283455,0.01 2.0283459,0.01 0.294017,-0.3542 0.294017,-0.3543 -1.489496,0.076 c -0.8192223,0.042 -1.4892854,0.026 -1.489029,-0.036 2.667e-4,-0.062 0.3254662,-0.2598 0.7226884,-0.4399 l 0.7222226,-0.3275 1.111111,0.03 1.111111,0.03 -0.636048,-0.1072 -0.636048,-0.1071 0.464445,-0.3254 c 0.255445,-0.1789 0.913585,-0.4604 1.462533,-0.6256 l 0.998087,-0.3004 -0.912178,1.0818 -0.912179,1.0818 -0.226419,-0.14 -0.226419,-0.1399 0.137545,0.2225 0.137544,0.2226 -0.603209,0.5779 c -0.331765,0.3179 -0.701015,0.6082 -0.820555,0.6451 -0.11954,0.037 -0.237476,0.2044 -0.262079,0.372 -0.0246,0.1676 -0.320507,0.5926 -0.657564,0.9445 l -0.6128299,0.6396 -4.236202,-0.015 z m 3.1254769,-0.9186 1.3616791,0.045 0.2766419,-0.3333 0.276642,-0.3333 -3.236317,0 -3.2363173,0 -0.1314831,0.2127 -0.1314829,0.2127 1.7294791,0.076 c 0.9512138,0.042 2.3422349,0.096 3.0911582,0.1206 z m 2.638321,-0.8442 C 11.05,1047.8226 11,1047.7726 11,1047.7115 c 0,-0.061 0.05,-0.1111 0.111111,-0.1111 0.06111,0 0.111111,0.05 0.111111,0.1111 0,0.061 -0.05,0.1111 -0.111111,0.1111 z m -2.9029839,-3.5555 c -0.1611547,0 -0.3583244,-0.1057 -0.4381551,-0.2349 l -0.1451467,-0.2348 0.1362656,-0.543 0.1362655,-0.5429 0.4252356,0 0.4252358,0 0.1444458,0.4551 0.1444457,0.4551 -0.2677917,0.3227 c -0.1472856,0.1775 -0.3996458,0.3227 -0.5608005,0.3227 z"
         id="path4250" />
      <path
         style="fill:#6e6c6b"
         d="m 5.3473131,1049.5854 -4.236202,-0.015 0.5,-0.2411 c 0.275,-0.1326 0.5,-0.3294 0.5,-0.4373 l 0,-0.1962 1.0184234,-0.4365 1.0184235,-0.4366 0.6147536,0 0.6147537,0 1.4656396,-0.7777 c 0.8061018,-0.4278 1.546172,-0.7743 1.6446007,-0.7699 0.098429,0 -0.071039,0.1507 -0.3765945,0.3254 l -0.5555555,0.3176 2.0283455,0.01 2.0283459,0.01 0.294017,-0.3542 0.294017,-0.3543 -1.489496,0.076 c -0.8192223,0.042 -1.4892854,0.026 -1.489029,-0.036 2.667e-4,-0.062 0.3254662,-0.2598 0.7226884,-0.4399 l 0.7222226,-0.3275 1.111111,0.03 1.111111,0.03 -0.636048,-0.1072 -0.636048,-0.1071 0.464445,-0.3254 c 0.255445,-0.1789 0.913585,-0.4604 1.462533,-0.6256 l 0.998087,-0.3004 -0.912178,1.0818 -0.912179,1.0818 -0.226419,-0.14 -0.226419,-0.1399 0.137545,0.2225 0.137544,0.2226 -0.603209,0.5779 c -0.331765,0.3179 -0.701015,0.6082 -0.820555,0.6451 -0.11954,0.037 -0.237476,0.2044 -0.262079,0.372 -0.0246,0.1676 -0.320507,0.5926 -0.657564,0.9445 l -0.6128299,0.6396 -4.236202,-0.015 z m 3.1254769,-0.9186 1.3616791,0.045 0.2766419,-0.3333 0.276642,-0.3333 -3.236317,0 -3.2363173,0 -0.1314831,0.2127 -0.1314829,0.2127 1.7294791,0.076 c 0.9512138,0.042 2.3422349,0.096 3.0911582,0.1206 z m 2.638321,-0.8442 C 11.05,1047.8226 11,1047.7726 11,1047.7115 c 0,-0.061 0.05,-0.1111 0.111111,-0.1111 0.06111,0 0.111111,0.05 0.111111,0.1111 0,0.061 -0.05,0.1111 -0.111111,0.1111 z m -2.9970672,-3.7825 -0.1695994,0.2744 -0.1425137,-0.2306 -0.1425138,-0.2306 0.2495722,-0.1542 0.249572,-0.1542 -0.2342169,-0.1448 -0.2342169,-0.1448 0.2070891,-0.3274 0.2070889,-0.3275 0.0034,0.2778 0.0034,0.2778 0.2353371,0 0.2353371,0 -0.1373409,-0.2223 -0.1373408,-0.2222 0.2204742,0 0.2204742,0 -0.018738,0.659 -0.018738,0.6591 -0.2134671,-0.132 -0.2134673,-0.1319 -0.1695991,0.2744 z"
         id="path4248" />
      <path
         style="fill:#977b22"
         d="m 4.2307836,1049.5224 -2.8974503,0.1411 0.6261003,-0.5904 0.6261004,-0.5904 0.7899271,-0.33 0.7899273,-0.3301 0.6060385,0 0.6060384,0 1.4978683,-0.7948 c 0.8238273,-0.4372 1.5464337,-0.7464 1.6057917,-0.687 0.059358,0.059 -0.1246122,0.192 -0.4088229,0.2949 l -0.5167468,0.1869 1.8888888,0.1111 1.8888886,0.1112 0.499124,-0.4268 c 0.274518,-0.2348 0.544511,-0.3815 0.599984,-0.326 0.05547,0.056 -0.493481,0.7082 -1.219896,1.4506 l -1.3207563,1.3496 -1.3817774,0.1445 c -0.7599775,0.079 -2.68563,0.2079 -4.2792277,0.2856 z m 5.2802311,-0.6213 c 0.097725,0.018 0.5380643,-0.3174 0.9785333,-0.7451 l 0.800852,-0.7778 -1.4603582,0 -1.4603585,0 -0.407064,0.1667 -0.4070637,0.1666 L 9,1047.8398 l 1.444444,0.1283 -3.2646624,0.038 -3.2646629,0.038 -0.1373409,0.2222 -0.1373409,0.2222 1.5131149,0.024 c 0.8322131,0.013 2.1131149,0.099 2.8464482,0.1896 0.7333333,0.091 1.41329,0.1801 1.5110147,0.1981 z m 0.5445413,-2.5813 c -0.4583338,0.044 -0.8333338,0.062 -0.8333338,0.039 0,-0.022 0.275,-0.2232 0.6111111,-0.4461 l 0.6111107,-0.4051 1.240679,0.058 1.240679,0.058 0.314877,-0.3821 0.314877,-0.3821 -0.666212,0.1661 -0.666211,0.166 0.176427,-0.1764 c 0.09703,-0.097 0.628096,-0.3479 1.180137,-0.5575 l 1.003711,-0.381 -0.84726,0.9555 -0.847259,0.9555 -0.517122,-0.1112 -0.517121,-0.1111 -0.482879,0.2368 c -0.265583,0.1302 -0.857878,0.2729 -1.316211,0.3171 z m 1.833333,-0.9416 -0.296296,0 0.148148,-0.1482 0.148148,-0.1481 0.148148,0.1481 0.148148,0.1482 -0.296296,0 z m -3.8219001,-1.3063 -0.216654,0.3063 0.1095838,-0.5 0.1095837,-0.5 -0.1944435,0 -0.1944433,0 0.1449188,-0.3777 0.1449192,-0.3776 0.088847,0.2665 c 0.048866,0.1466 0.1864155,0.2666 0.3056658,0.2666 l 0.2168186,0 -0.1373409,-0.2223 -0.1373408,-0.2222 0.2204742,0 0.2204742,0 -0.018738,0.659 -0.018738,0.6591 -0.2134671,-0.132 -0.2134673,-0.1319 -0.216654,0.3062 z"
         id="path4246" />
      <path
         style="fill:#756853"
         d="M 4.2307836,1049.5224 1.3333333,1049.6635 2,1049.0347 l 0.6666667,-0.6289 1.8874202,0.059 c 1.0380813,0.032 2.6277107,0.1416 3.53251,0.2431 l 1.6450893,0.1845 0.7793568,-0.7569 0.779357,-0.7569 -1.4603582,0 -1.4603585,0 -0.407064,0.1667 -0.4070637,0.1666 L 9,1047.8398 l 1.444444,0.1283 -3.3333329,0.012 -3.3333333,0.012 1.0549293,-0.1776 1.0549293,-0.1776 0.7228485,-0.4074 0.7228484,-0.4074 2,0.1111 1.9999997,0.1112 0.499124,-0.4268 c 0.274518,-0.2348 0.544511,-0.3815 0.599984,-0.326 0.05547,0.056 -0.493481,0.7082 -1.219896,1.4506 l -1.3207563,1.3496 -1.3817774,0.1445 c -0.7599775,0.079 -2.68563,0.2079 -4.2792277,0.2856 z m -0.675228,-1.2553 c -0.061111,0 -0.1111112,-0.05 -0.1111112,-0.1111 0,-0.061 0.05,-0.1111 0.1111112,-0.1111 0.061111,0 0.1111111,0.05 0.1111111,0.1111 0,0.061 -0.05,0.1111 -0.1111111,0.1111 z m 4.2222222,-1.5624 -0.2222222,0 0.3333333,-0.2154 c 0.1833333,-0.1185 0.4333333,-0.2154 0.5555555,-0.2154 l 0.2222223,0 -0.3333334,0.2154 C 8.15,1046.6078 7.9,1046.7047 7.7777778,1046.7047 z m 2.2777782,-0.3849 c -0.4583338,0.044 -0.8333338,0.062 -0.8333338,0.039 0,-0.022 0.275,-0.2232 0.6111111,-0.4461 l 0.6111107,-0.4051 1.240679,0.058 1.240679,0.058 0.314877,-0.3821 0.314877,-0.3821 -0.666212,0.1661 -0.666211,0.166 0.176427,-0.1764 c 0.09703,-0.097 0.628096,-0.3479 1.180137,-0.5575 l 1.003711,-0.381 -0.84726,0.9555 -0.847259,0.9555 -0.517122,-0.1112 -0.517121,-0.1111 -0.482879,0.2368 c -0.265583,0.1302 -0.857878,0.2729 -1.316211,0.3171 z m 1.833333,-0.9416 -0.296296,0 0.148148,-0.1482 0.148148,-0.1481 0.148148,0.1481 0.148148,0.1482 -0.296296,0 z m -3.5555557,-1.4286 -0.3779304,0 0.1037722,-0.3968 c 0.057075,-0.2183 0.180446,-0.3968 0.2741582,-0.3968 0.093712,0 0.2170836,0.1785 0.2741583,0.3968 l 0.1037722,0.3968 -0.3779305,0 z m 0.3333334,-1.0159 c -0.061111,0 -0.1111111,-0.05 -0.1111111,-0.1111 0,-0.061 0.05,-0.1111 0.1111111,-0.1111 0.061111,0 0.1111111,0.05 0.1111111,0.1111 0,0.061 -0.05,0.1111 -0.1111111,0.1111 z"
         id="path4244" />
      <path
         style="fill:#545150"
         d="m 4.2307836,1049.5195 -2.8974503,0.1384 0.7688397,-0.7013 0.7688396,-0.7013 0.3357177,0.1288 c 0.1846448,0.071 1.7308695,0.2279 3.436055,0.349 l 3.1003374,0.2201 0.7648933,-0.7875 0.764893,-0.7875 -1.4516126,0 -1.4516131,0 -0.407064,0.1667 -0.4070637,0.1666 L 9,1047.8398 l 1.444444,0.1283 -3.3333329,0.012 -3.3333333,0.012 1.069488,-0.1797 1.0694882,-0.1796 0.5655811,-0.3706 0.5655809,-0.3706 2.1767489,0.075 2.1767491,0.075 0.467322,-0.423 c 0.257027,-0.2326 0.511702,-0.3785 0.565943,-0.3243 0.05424,0.054 -0.495719,0.706 -1.222134,1.4484 l -1.3207563,1.3496 -1.3817774,0.1445 c -0.7599775,0.079 -2.68563,0.2067 -4.2792277,0.2827 z m -0.675228,-1.2524 c -0.061111,0 -0.1111112,-0.05 -0.1111112,-0.1111 0,-0.061 0.05,-0.1111 0.1111112,-0.1111 0.061111,0 0.1111111,0.05 0.1111111,0.1111 0,0.061 -0.05,0.1111 -0.1111111,0.1111 z m 6.7414464,-2 -0.9514491,0 0.5262938,-0.3687 0.5262943,-0.3686 1.257369,0.045 1.257368,0.045 0.411336,-0.4546 c 0.226235,-0.2499 0.352347,-0.4545 0.28025,-0.4545 -0.0721,0 -0.410493,0.1063 -0.751991,0.2361 l -0.620904,0.2361 0.172209,-0.1723 c 0.09471,-0.095 0.623878,-0.3436 1.175919,-0.5532 l 1.003711,-0.381 -0.84726,0.9398 -0.847259,0.9399 -0.97774,-0.1 -0.977741,-0.1 0.157522,0.2549 0.157522,0.2549 -0.95145,0 z m 0.147442,-0.2222 c 0.06111,0 0.111112,-0.05 0.111112,-0.1112 0,-0.061 -0.05,-0.1111 -0.111112,-0.1111 -0.06111,0 -0.111111,0.05 -0.111111,0.1111 0,0.061 0.05,0.1112 0.111111,0.1112 z M 12,1045.3782 c -0.06111,0 -0.111111,-0.05 -0.111111,-0.1111 0,-0.061 0.05,-0.1111 0.111111,-0.1111 0.06111,0 0.111111,0.05 0.111111,0.1111 0,0.061 -0.05,0.1111 -0.111111,0.1111 z m -3.6666667,-1.4286 -0.3779304,0 0.1037722,-0.3968 c 0.057075,-0.2183 0.180446,-0.3968 0.2741582,-0.3968 0.093712,0 0.2170836,0.1785 0.2741583,0.3968 l 0.1037722,0.3968 -0.3779305,0 z m 0.3333334,-1.0159 c -0.061111,0 -0.1111111,-0.05 -0.1111111,-0.1111 0,-0.061 0.05,-0.1111 0.1111111,-0.1111 0.061111,0 0.1111111,0.05 0.1111111,0.1111 0,0.061 -0.05,0.1111 -0.1111111,0.1111 z"
         id="path4242" />
      <path
         style="fill:#5f4d29"
         d="m 1.5555556,1049.6004 c -0.061111,0 -0.1111112,-0.05 -0.1111112,-0.1111 0,-0.061 0.05,-0.1111 0.1111112,-0.1111 0.061111,0 0.1111111,0.05 0.1111111,0.1111 0,0.061 -0.05,0.1111 -0.1111111,0.1111 z m 3.2222102,-0.343 -2.999988,0.1237 0.2777778,-0.1311 0.2777777,-0.1311 0,-0.2985 0,-0.2985 0.3888889,-0.081 c 0.2138889,-0.045 0.7888889,-0.01 1.2777778,0.085 0.4888889,0.091 1.6338889,0.1706 2.5444444,0.1759 l 1.6555556,0.01 -0.2111231,0.2111 -0.2111231,0.2112 -2.999988,0.1236 z m 5.1731233,-0.3237 c -0.045512,0 0.096919,-0.2468 0.3165139,-0.5485 0.219595,-0.3017 0.491695,-0.5517 0.604667,-0.5556 l 0.205403,-0.01 -0.521917,0.5556 c -0.287055,0.3055 -0.5591549,0.5555 -0.6046669,0.5555 z m -6.3953335,-0.6666 c -0.061111,0 -0.1111112,-0.05 -0.1111112,-0.1111 0,-0.061 0.05,-0.1111 0.1111112,-0.1111 0.061111,0 0.1111111,0.05 0.1111111,0.1111 0,0.061 -0.05,0.1111 -0.1111111,0.1111 z m 1.1111111,-0.2656 -0.6666667,0.01 0.2735484,-0.1107 c 0.1504518,-0.061 0.4504518,-0.065 0.6666667,-0.01 l 0.3931182,0.1024 -0.6666666,0.01 z m 1,0.043 c -0.1222223,0 -0.2222223,-0.044 -0.2222223,-0.098 0,-0.054 0.1,-0.1598 0.2222223,-0.2354 l 0.2222222,-0.1373 0,0.2353 0,0.2354 -0.2222222,0 z m 2.8888889,-0.6667 -2.0262298,0 0.1373409,-0.2222 0.1373409,-0.2223 1.751548,0 1.7515484,0 0.13734,0.2223 0.137341,0.2222 -2.0262294,0 z m 3.3333334,-0.3333 -0.444445,0.4022 0,-0.2073 c 0,-0.114 0.2,-0.3785 0.444445,-0.5878 l 0.444444,-0.3806 0,0.1856 c 0,0.1021 -0.2,0.3666 -0.444444,0.5879 z m -2.1111112,-0.7778 c -0.061111,0 -0.1111111,-0.05 -0.1111111,-0.1111 0,-0.061 0.05,-0.1111 0.1111111,-0.1111 0.061111,0 0.1111111,0.05 0.1111111,0.1111 0,0.061 -0.05,0.1111 -0.1111111,0.1111 z m 1.4444442,-0.5111 -1.222222,0 0.611111,-0.092 c 0.336111,-0.051 0.886111,-0.051 1.222222,0 l 0.611111,0.092 -1.222222,0 z M 13,1045.7115 c -0.122222,0.076 -0.222222,0.087 -0.222222,0.026 0,-0.061 0.1,-0.173 0.222222,-0.2485 0.122222,-0.075 0.222222,-0.087 0.222222,-0.026 0,0.061 -0.1,0.1729 -0.222222,0.2484 z m -0.222222,-0.7778 -0.296296,0 0.148148,-0.1481 0.148148,-0.1482 0.148148,0.1482 0.148148,0.1481 -0.296296,0 z m 1.02623,0 c -0.06111,0 -0.172915,-0.1 -0.248452,-0.2222 -0.07554,-0.1222 -0.08734,-0.2222 -0.02623,-0.2222 0.06111,0 0.172914,0.1 0.248452,0.2222 0.07554,0.1222 0.08734,0.2222 0.02623,0.2222 z m -5.4706747,-0.9841 -0.3779304,0 0.1037722,-0.3968 c 0.057075,-0.2183 0.180446,-0.3968 0.2741582,-0.3968 0.093712,0 0.2170836,0.1785 0.2741583,0.3968 l 0.1037722,0.3968 -0.3779305,0 z m 0.3333334,-1.0159 c -0.061111,0 -0.1111111,-0.05 -0.1111111,-0.1111 0,-0.061 0.05,-0.1111 0.1111111,-0.1111 0.061111,0 0.1111111,0.05 0.1111111,0.1111 0,0.061 -0.05,0.1111 -0.1111111,0.1111 z"
         id="path4240" />
      <path
         style="fill:#443b2e"
         d="m 1.5555556,1049.6004 c -0.061111,0 -0.1111112,-0.05 -0.1111112,-0.1111 0,-0.061 0.05,-0.1111 0.1111112,-0.1111 0.061111,0 0.1111111,0.05 0.1111111,0.1111 0,0.061 -0.05,0.1111 -0.1111111,0.1111 z m 1.8888888,-0.2516 -1.6666666,0.023 0.3333333,-0.2154 0.3333333,-0.2155 2.7777778,0.031 2.7777778,0.031 -1.4444444,0.1624 c -0.7944445,0.089 -2.1944445,0.1725 -3.1111112,0.1849 z m 6.5064447,-0.4151 c -0.045512,0 0.096919,-0.2468 0.3165139,-0.5485 0.219595,-0.3017 0.491695,-0.5517 0.604667,-0.5556 l 0.205403,-0.01 -0.521917,0.5556 c -0.287055,0.3055 -0.5591549,0.5555 -0.6046669,0.5555 z m -7.3953335,-0.2222 -0.2962963,0 0.1481481,-0.1481 0.1481482,-0.1482 0.1481481,0.1482 0.1481481,0.1481 -0.2962962,0 z m 3.2222222,-0.8889 c -0.061111,0 -0.1111111,-0.05 -0.1111111,-0.1111 0,-0.061 0.05,-0.1111 0.1111111,-0.1111 0.061111,0 0.1111111,0.05 0.1111111,0.1111 0,0.061 -0.05,0.1111 -0.1111111,0.1111 z m 2.7777778,-0.5245 -2.1111112,0 L 7.5,1047.2148 c 0.5805556,-0.046 1.5305556,-0.046 2.1111111,0 l 1.0555559,0.083 -2.1111114,0 z m 3.3333334,-0.2532 c -0.244445,0.2212 -0.444445,0.3367 -0.444445,0.2566 0,-0.08 0.2,-0.3455 0.444445,-0.59 l 0.444444,-0.4444 0,0.1878 c 0,0.1032 -0.2,0.3687 -0.444444,0.59 z m -2.1111112,-0.7778 c -0.061111,0 -0.1111111,-0.05 -0.1111111,-0.1111 0,-0.061 0.05,-0.1111 0.1111111,-0.1111 0.061111,0 0.1111111,0.05 0.1111111,0.1111 0,0.061 -0.05,0.1111 -0.1111111,0.1111 z m 1.4444442,-0.5111 -1.222222,0 0.611111,-0.092 c 0.336111,-0.051 0.886111,-0.051 1.222222,0 l 0.611111,0.092 -1.222222,0 z M 13,1045.7115 c -0.122222,0.076 -0.222222,0.087 -0.222222,0.026 0,-0.061 0.1,-0.173 0.222222,-0.2485 0.122222,-0.075 0.222222,-0.087 0.222222,-0.026 0,0.061 -0.1,0.1729 -0.222222,0.2484 z m -0.222222,-0.7778 -0.296296,0 0.148148,-0.1481 0.148148,-0.1482 0.148148,0.1482 0.148148,0.1481 -0.296296,0 z m 1.02623,0 c -0.06111,0 -0.172915,-0.1 -0.248452,-0.2222 -0.07554,-0.1222 -0.08734,-0.2222 -0.02623,-0.2222 0.06111,0 0.172914,0.1 0.248452,0.2222 0.07554,0.1222 0.08734,0.2222 0.02623,0.2222 z m -5.1025902,-0.9064 c -0.019113,-0.01 -0.1597511,-0.068 -0.3125289,-0.1296 l -0.2777778,-0.1121 0,-0.3148 0,-0.3148 0.1963042,0 0.196304,0 0.1162249,0.4444 c 0.063924,0.2445 0.1005869,0.4366 0.081474,0.4269 z"
         id="path4238" />
      <path
         style="fill:#332c26"
         d="m 2.8888889,1049.3714 -1.1111111,0 0.3333333,-0.2154 0.3333333,-0.2155 1.1111112,0 1.1111111,0 -0.3333334,0.2155 L 4,1049.3714 l -1.1111111,0 z m -0.4444445,-0.6599 c -0.061111,0 -0.1111111,-0.05 -0.1111111,-0.1111 0,-0.061 0.05,-0.1111 0.1111111,-0.1111 0.061111,0 0.1111112,0.05 0.1111112,0.1111 0,0.061 -0.05,0.1111 -0.1111112,0.1111 z m 7.7777776,0 c -0.06111,0 -0.111111,-0.05 -0.111111,-0.1111 0,-0.061 0.05,-0.1111 0.111111,-0.1111 0.06111,0 0.111111,0.05 0.111111,0.1111 0,0.061 -0.05,0.1111 -0.111111,0.1111 z m 0.666667,-0.6666 c -0.06111,0 -0.111111,-0.05 -0.111111,-0.1112 0,-0.061 0.05,-0.1111 0.111111,-0.1111 0.06111,0 0.111111,0.05 0.111111,0.1111 0,0.061 -0.05,0.1112 -0.111111,0.1112 z m 0.597783,-0.6667 c -0.06111,0 0.06989,-0.2 0.291106,-0.4445 0.221219,-0.2444 0.452216,-0.4444 0.513328,-0.4444 0.06111,0 -0.06989,0.2 -0.291106,0.4444 -0.221219,0.2445 -0.452217,0.4445 -0.513328,0.4445 z m -1.153339,-1.5556 -0.296296,0 0.148148,-0.1481 0.148148,-0.1482 0.148149,0.1482 0.148148,0.1481 -0.296297,0 z m 2.777778,-0.2222 C 13.05,1045.6004 13,1045.5504 13,1045.4893 c 0,-0.061 0.05,-0.1111 0.111111,-0.1111 0.06111,0 0.111111,0.05 0.111111,0.1111 0,0.061 -0.05,0.1111 -0.111111,0.1111 z m -4.7777777,-1.8889 -0.2222222,0.1374 0,-0.3465 0,-0.3464 0.2222222,0 c 0.1222223,0 0.2222223,0.094 0.2222223,0.2091 0,0.115 -0.1,0.2709 -0.2222223,0.3464 z"
         id="path4236" />
    </g>
  </g>
</svg>
