<?xml version="1.0" encoding="UTF-8" standalone="no"?>
<!-- Created with Inkscape (http://www.inkscape.org/) -->

<svg
   xmlns:dc="http://purl.org/dc/elements/1.1/"
   xmlns:cc="http://creativecommons.org/ns#"
   xmlns:rdf="http://www.w3.org/1999/02/22-rdf-syntax-ns#"
   xmlns:svg="http://www.w3.org/2000/svg"
   xmlns="http://www.w3.org/2000/svg"
   xmlns:sodipodi="http://sodipodi.sourceforge.net/DTD/sodipodi-0.dtd"
   xmlns:inkscape="http://www.inkscape.org/namespaces/inkscape"
   width="16"
   height="16"
   id="svg2"
   version="1.1"
   inkscape:version="0.47 r22583"
   sodipodi:docname="RED-CAR.svg">
  <defs
     id="defs4">
    <inkscape:perspective
       sodipodi:type="inkscape:persp3d"
       inkscape:vp_x="0 : 526.18109 : 1"
       inkscape:vp_y="0 : 1000 : 0"
       inkscape:vp_z="744.09448 : 526.18109 : 1"
       inkscape:persp3d-origin="372.04724 : 350.78739 : 1"
       id="perspective10" />
    <inkscape:perspective
       id="perspective2824"
       inkscape:persp3d-origin="0.5 : 0.33333333 : 1"
       inkscape:vp_z="1 : 0.5 : 1"
       inkscape:vp_y="0 : 1000 : 0"
       inkscape:vp_x="0 : 0.5 : 1"
       sodipodi:type="inkscape:persp3d" />
    <inkscape:perspective
       id="perspective5878"
       inkscape:persp3d-origin="0.5 : 0.33333333 : 1"
       inkscape:vp_z="1 : 0.5 : 1"
       inkscape:vp_y="0 : 1000 : 0"
       inkscape:vp_x="0 : 0.5 : 1"
       sodipodi:type="inkscape:persp3d" />
    <inkscape:perspective
       id="perspective5921"
       inkscape:persp3d-origin="0.5 : 0.33333333 : 1"
       inkscape:vp_z="1 : 0.5 : 1"
       inkscape:vp_y="0 : 1000 : 0"
       inkscape:vp_x="0 : 0.5 : 1"
       sodipodi:type="inkscape:persp3d" />
    <inkscape:perspective
       id="perspective5943"
       inkscape:persp3d-origin="0.5 : 0.33333333 : 1"
       inkscape:vp_z="1 : 0.5 : 1"
       inkscape:vp_y="0 : 1000 : 0"
       inkscape:vp_x="0 : 0.5 : 1"
       sodipodi:type="inkscape:persp3d" />
    <inkscape:perspective
       id="perspective5989"
       inkscape:persp3d-origin="0.5 : 0.33333333 : 1"
       inkscape:vp_z="1 : 0.5 : 1"
       inkscape:vp_y="0 : 1000 : 0"
       inkscape:vp_x="0 : 0.5 : 1"
       sodipodi:type="inkscape:persp3d" />
    <inkscape:perspective
       id="perspective6011"
       inkscape:persp3d-origin="0.5 : 0.33333333 : 1"
       inkscape:vp_z="1 : 0.5 : 1"
       inkscape:vp_y="0 : 1000 : 0"
       inkscape:vp_x="0 : 0.5 : 1"
       sodipodi:type="inkscape:persp3d" />
    <inkscape:perspective
       id="perspective6033"
       inkscape:persp3d-origin="0.5 : 0.33333333 : 1"
       inkscape:vp_z="1 : 0.5 : 1"
       inkscape:vp_y="0 : 1000 : 0"
       inkscape:vp_x="0 : 0.5 : 1"
       sodipodi:type="inkscape:persp3d" />
    <inkscape:perspective
       id="perspective6245"
       inkscape:persp3d-origin="0.5 : 0.33333333 : 1"
       inkscape:vp_z="1 : 0.5 : 1"
       inkscape:vp_y="0 : 1000 : 0"
       inkscape:vp_x="0 : 0.5 : 1"
       sodipodi:type="inkscape:persp3d" />
    <inkscape:perspective
       id="perspective6269"
       inkscape:persp3d-origin="0.5 : 0.33333333 : 1"
       inkscape:vp_z="1 : 0.5 : 1"
       inkscape:vp_y="0 : 1000 : 0"
       inkscape:vp_x="0 : 0.5 : 1"
       sodipodi:type="inkscape:persp3d" />
    <inkscape:perspective
       id="perspective6364"
       inkscape:persp3d-origin="0.5 : 0.33333333 : 1"
       inkscape:vp_z="1 : 0.5 : 1"
       inkscape:vp_y="0 : 1000 : 0"
       inkscape:vp_x="0 : 0.5 : 1"
       sodipodi:type="inkscape:persp3d" />
    <inkscape:perspective
       id="perspective6396"
       inkscape:persp3d-origin="0.5 : 0.33333333 : 1"
       inkscape:vp_z="1 : 0.5 : 1"
       inkscape:vp_y="0 : 1000 : 0"
       inkscape:vp_x="0 : 0.5 : 1"
       sodipodi:type="inkscape:persp3d" />
    <inkscape:perspective
       id="perspective6438"
       inkscape:persp3d-origin="0.5 : 0.33333333 : 1"
       inkscape:vp_z="1 : 0.5 : 1"
       inkscape:vp_y="0 : 1000 : 0"
       inkscape:vp_x="0 : 0.5 : 1"
       sodipodi:type="inkscape:persp3d" />
    <inkscape:perspective
       id="perspective6460"
       inkscape:persp3d-origin="0.5 : 0.33333333 : 1"
       inkscape:vp_z="1 : 0.5 : 1"
       inkscape:vp_y="0 : 1000 : 0"
       inkscape:vp_x="0 : 0.5 : 1"
       sodipodi:type="inkscape:persp3d" />
    <inkscape:perspective
       id="perspective6480"
       inkscape:persp3d-origin="0.5 : 0.33333333 : 1"
       inkscape:vp_z="1 : 0.5 : 1"
       inkscape:vp_y="0 : 1000 : 0"
       inkscape:vp_x="0 : 0.5 : 1"
       sodipodi:type="inkscape:persp3d" />
    <inkscape:perspective
       id="perspective6504"
       inkscape:persp3d-origin="0.5 : 0.33333333 : 1"
       inkscape:vp_z="1 : 0.5 : 1"
       inkscape:vp_y="0 : 1000 : 0"
       inkscape:vp_x="0 : 0.5 : 1"
       sodipodi:type="inkscape:persp3d" />
    <inkscape:perspective
       id="perspective6524"
       inkscape:persp3d-origin="0.5 : 0.33333333 : 1"
       inkscape:vp_z="1 : 0.5 : 1"
       inkscape:vp_y="0 : 1000 : 0"
       inkscape:vp_x="0 : 0.5 : 1"
       sodipodi:type="inkscape:persp3d" />
    <inkscape:perspective
       id="perspective6548"
       inkscape:persp3d-origin="0.5 : 0.33333333 : 1"
       inkscape:vp_z="1 : 0.5 : 1"
       inkscape:vp_y="0 : 1000 : 0"
       inkscape:vp_x="0 : 0.5 : 1"
       sodipodi:type="inkscape:persp3d" />
    <inkscape:perspective
       id="perspective6572"
       inkscape:persp3d-origin="0.5 : 0.33333333 : 1"
       inkscape:vp_z="1 : 0.5 : 1"
       inkscape:vp_y="0 : 1000 : 0"
       inkscape:vp_x="0 : 0.5 : 1"
       sodipodi:type="inkscape:persp3d" />
    <inkscape:perspective
       id="perspective6594"
       inkscape:persp3d-origin="0.5 : 0.33333333 : 1"
       inkscape:vp_z="1 : 0.5 : 1"
       inkscape:vp_y="0 : 1000 : 0"
       inkscape:vp_x="0 : 0.5 : 1"
       sodipodi:type="inkscape:persp3d" />
    <inkscape:perspective
       id="perspective6614"
       inkscape:persp3d-origin="0.5 : 0.33333333 : 1"
       inkscape:vp_z="1 : 0.5 : 1"
       inkscape:vp_y="0 : 1000 : 0"
       inkscape:vp_x="0 : 0.5 : 1"
       sodipodi:type="inkscape:persp3d" />
    <inkscape:perspective
       id="perspective6650"
       inkscape:persp3d-origin="0.5 : 0.33333333 : 1"
       inkscape:vp_z="1 : 0.5 : 1"
       inkscape:vp_y="0 : 1000 : 0"
       inkscape:vp_x="0 : 0.5 : 1"
       sodipodi:type="inkscape:persp3d" />
    <inkscape:perspective
       id="perspective6676"
       inkscape:persp3d-origin="0.5 : 0.33333333 : 1"
       inkscape:vp_z="1 : 0.5 : 1"
       inkscape:vp_y="0 : 1000 : 0"
       inkscape:vp_x="0 : 0.5 : 1"
       sodipodi:type="inkscape:persp3d" />
    <inkscape:perspective
       id="perspective6710"
       inkscape:persp3d-origin="0.5 : 0.33333333 : 1"
       inkscape:vp_z="1 : 0.5 : 1"
       inkscape:vp_y="0 : 1000 : 0"
       inkscape:vp_x="0 : 0.5 : 1"
       sodipodi:type="inkscape:persp3d" />
    <inkscape:perspective
       id="perspective6748"
       inkscape:persp3d-origin="0.5 : 0.33333333 : 1"
       inkscape:vp_z="1 : 0.5 : 1"
       inkscape:vp_y="0 : 1000 : 0"
       inkscape:vp_x="0 : 0.5 : 1"
       sodipodi:type="inkscape:persp3d" />
    <inkscape:perspective
       id="perspective6786"
       inkscape:persp3d-origin="0.5 : 0.33333333 : 1"
       inkscape:vp_z="1 : 0.5 : 1"
       inkscape:vp_y="0 : 1000 : 0"
       inkscape:vp_x="0 : 0.5 : 1"
       sodipodi:type="inkscape:persp3d" />
    <inkscape:perspective
       id="perspective6810"
       inkscape:persp3d-origin="0.5 : 0.33333333 : 1"
       inkscape:vp_z="1 : 0.5 : 1"
       inkscape:vp_y="0 : 1000 : 0"
       inkscape:vp_x="0 : 0.5 : 1"
       sodipodi:type="inkscape:persp3d" />
    <inkscape:perspective
       id="perspective6848"
       inkscape:persp3d-origin="0.5 : 0.33333333 : 1"
       inkscape:vp_z="1 : 0.5 : 1"
       inkscape:vp_y="0 : 1000 : 0"
       inkscape:vp_x="0 : 0.5 : 1"
       sodipodi:type="inkscape:persp3d" />
    <inkscape:perspective
       id="perspective6870"
       inkscape:persp3d-origin="0.5 : 0.33333333 : 1"
       inkscape:vp_z="1 : 0.5 : 1"
       inkscape:vp_y="0 : 1000 : 0"
       inkscape:vp_x="0 : 0.5 : 1"
       sodipodi:type="inkscape:persp3d" />
    <inkscape:perspective
       id="perspective6908"
       inkscape:persp3d-origin="0.5 : 0.33333333 : 1"
       inkscape:vp_z="1 : 0.5 : 1"
       inkscape:vp_y="0 : 1000 : 0"
       inkscape:vp_x="0 : 0.5 : 1"
       sodipodi:type="inkscape:persp3d" />
    <inkscape:perspective
       id="perspective6946"
       inkscape:persp3d-origin="0.5 : 0.33333333 : 1"
       inkscape:vp_z="1 : 0.5 : 1"
       inkscape:vp_y="0 : 1000 : 0"
       inkscape:vp_x="0 : 0.5 : 1"
       sodipodi:type="inkscape:persp3d" />
    <inkscape:perspective
       id="perspective6970"
       inkscape:persp3d-origin="0.5 : 0.33333333 : 1"
       inkscape:vp_z="1 : 0.5 : 1"
       inkscape:vp_y="0 : 1000 : 0"
       inkscape:vp_x="0 : 0.5 : 1"
       sodipodi:type="inkscape:persp3d" />
    <inkscape:perspective
       id="perspective7008"
       inkscape:persp3d-origin="0.5 : 0.33333333 : 1"
       inkscape:vp_z="1 : 0.5 : 1"
       inkscape:vp_y="0 : 1000 : 0"
       inkscape:vp_x="0 : 0.5 : 1"
       sodipodi:type="inkscape:persp3d" />
    <inkscape:perspective
       id="perspective7036"
       inkscape:persp3d-origin="0.5 : 0.33333333 : 1"
       inkscape:vp_z="1 : 0.5 : 1"
       inkscape:vp_y="0 : 1000 : 0"
       inkscape:vp_x="0 : 0.5 : 1"
       sodipodi:type="inkscape:persp3d" />
    <inkscape:perspective
       id="perspective7060"
       inkscape:persp3d-origin="0.5 : 0.33333333 : 1"
       inkscape:vp_z="1 : 0.5 : 1"
       inkscape:vp_y="0 : 1000 : 0"
       inkscape:vp_x="0 : 0.5 : 1"
       sodipodi:type="inkscape:persp3d" />
    <inkscape:perspective
       id="perspective7098"
       inkscape:persp3d-origin="0.5 : 0.33333333 : 1"
       inkscape:vp_z="1 : 0.5 : 1"
       inkscape:vp_y="0 : 1000 : 0"
       inkscape:vp_x="0 : 0.5 : 1"
       sodipodi:type="inkscape:persp3d" />
    <inkscape:perspective
       id="perspective7136"
       inkscape:persp3d-origin="0.5 : 0.33333333 : 1"
       inkscape:vp_z="1 : 0.5 : 1"
       inkscape:vp_y="0 : 1000 : 0"
       inkscape:vp_x="0 : 0.5 : 1"
       sodipodi:type="inkscape:persp3d" />
    <inkscape:perspective
       id="perspective7174"
       inkscape:persp3d-origin="0.5 : 0.33333333 : 1"
       inkscape:vp_z="1 : 0.5 : 1"
       inkscape:vp_y="0 : 1000 : 0"
       inkscape:vp_x="0 : 0.5 : 1"
       sodipodi:type="inkscape:persp3d" />
    <inkscape:perspective
       id="perspective7212"
       inkscape:persp3d-origin="0.5 : 0.33333333 : 1"
       inkscape:vp_z="1 : 0.5 : 1"
       inkscape:vp_y="0 : 1000 : 0"
       inkscape:vp_x="0 : 0.5 : 1"
       sodipodi:type="inkscape:persp3d" />
    <inkscape:perspective
       id="perspective7234"
       inkscape:persp3d-origin="0.5 : 0.33333333 : 1"
       inkscape:vp_z="1 : 0.5 : 1"
       inkscape:vp_y="0 : 1000 : 0"
       inkscape:vp_x="0 : 0.5 : 1"
       sodipodi:type="inkscape:persp3d" />
    <inkscape:perspective
       id="perspective7272"
       inkscape:persp3d-origin="0.5 : 0.33333333 : 1"
       inkscape:vp_z="1 : 0.5 : 1"
       inkscape:vp_y="0 : 1000 : 0"
       inkscape:vp_x="0 : 0.5 : 1"
       sodipodi:type="inkscape:persp3d" />
    <inkscape:perspective
       id="perspective7294"
       inkscape:persp3d-origin="0.5 : 0.33333333 : 1"
       inkscape:vp_z="1 : 0.5 : 1"
       inkscape:vp_y="0 : 1000 : 0"
       inkscape:vp_x="0 : 0.5 : 1"
       sodipodi:type="inkscape:persp3d" />
    <inkscape:perspective
       id="perspective7330"
       inkscape:persp3d-origin="0.5 : 0.33333333 : 1"
       inkscape:vp_z="1 : 0.5 : 1"
       inkscape:vp_y="0 : 1000 : 0"
       inkscape:vp_x="0 : 0.5 : 1"
       sodipodi:type="inkscape:persp3d" />
    <inkscape:perspective
       id="perspective3068"
       inkscape:persp3d-origin="0.5 : 0.33333333 : 1"
       inkscape:vp_z="1 : 0.5 : 1"
       inkscape:vp_y="0 : 1000 : 0"
       inkscape:vp_x="0 : 0.5 : 1"
       sodipodi:type="inkscape:persp3d" />
    <inkscape:perspective
       id="perspective3106"
       inkscape:persp3d-origin="0.5 : 0.33333333 : 1"
       inkscape:vp_z="1 : 0.5 : 1"
       inkscape:vp_y="0 : 1000 : 0"
       inkscape:vp_x="0 : 0.5 : 1"
       sodipodi:type="inkscape:persp3d" />
    <inkscape:perspective
       id="perspective3128"
       inkscape:persp3d-origin="0.5 : 0.33333333 : 1"
       inkscape:vp_z="1 : 0.5 : 1"
       inkscape:vp_y="0 : 1000 : 0"
       inkscape:vp_x="0 : 0.5 : 1"
       sodipodi:type="inkscape:persp3d" />
    <inkscape:perspective
       id="perspective3152"
       inkscape:persp3d-origin="0.5 : 0.33333333 : 1"
       inkscape:vp_z="1 : 0.5 : 1"
       inkscape:vp_y="0 : 1000 : 0"
       inkscape:vp_x="0 : 0.5 : 1"
       sodipodi:type="inkscape:persp3d" />
    <inkscape:perspective
       id="perspective3174"
       inkscape:persp3d-origin="0.5 : 0.33333333 : 1"
       inkscape:vp_z="1 : 0.5 : 1"
       inkscape:vp_y="0 : 1000 : 0"
       inkscape:vp_x="0 : 0.5 : 1"
       sodipodi:type="inkscape:persp3d" />
    <inkscape:perspective
       id="perspective3212"
       inkscape:persp3d-origin="0.5 : 0.33333333 : 1"
       inkscape:vp_z="1 : 0.5 : 1"
       inkscape:vp_y="0 : 1000 : 0"
       inkscape:vp_x="0 : 0.5 : 1"
       sodipodi:type="inkscape:persp3d" />
    <inkscape:perspective
       id="perspective3238"
       inkscape:persp3d-origin="0.5 : 0.33333333 : 1"
       inkscape:vp_z="1 : 0.5 : 1"
       inkscape:vp_y="0 : 1000 : 0"
       inkscape:vp_x="0 : 0.5 : 1"
       sodipodi:type="inkscape:persp3d" />
    <inkscape:perspective
       id="perspective3276"
       inkscape:persp3d-origin="0.5 : 0.33333333 : 1"
       inkscape:vp_z="1 : 0.5 : 1"
       inkscape:vp_y="0 : 1000 : 0"
       inkscape:vp_x="0 : 0.5 : 1"
       sodipodi:type="inkscape:persp3d" />
    <inkscape:perspective
       id="perspective3314"
       inkscape:persp3d-origin="0.5 : 0.33333333 : 1"
       inkscape:vp_z="1 : 0.5 : 1"
       inkscape:vp_y="0 : 1000 : 0"
       inkscape:vp_x="0 : 0.5 : 1"
       sodipodi:type="inkscape:persp3d" />
    <inkscape:perspective
       id="perspective3350"
       inkscape:persp3d-origin="0.5 : 0.33333333 : 1"
       inkscape:vp_z="1 : 0.5 : 1"
       inkscape:vp_y="0 : 1000 : 0"
       inkscape:vp_x="0 : 0.5 : 1"
       sodipodi:type="inkscape:persp3d" />
    <inkscape:perspective
       id="perspective3376"
       inkscape:persp3d-origin="0.5 : 0.33333333 : 1"
       inkscape:vp_z="1 : 0.5 : 1"
       inkscape:vp_y="0 : 1000 : 0"
       inkscape:vp_x="0 : 0.5 : 1"
       sodipodi:type="inkscape:persp3d" />
    <inkscape:perspective
       id="perspective3402"
       inkscape:persp3d-origin="0.5 : 0.33333333 : 1"
       inkscape:vp_z="1 : 0.5 : 1"
       inkscape:vp_y="0 : 1000 : 0"
       inkscape:vp_x="0 : 0.5 : 1"
       sodipodi:type="inkscape:persp3d" />
    <inkscape:perspective
       id="perspective3428"
       inkscape:persp3d-origin="0.5 : 0.33333333 : 1"
       inkscape:vp_z="1 : 0.5 : 1"
       inkscape:vp_y="0 : 1000 : 0"
       inkscape:vp_x="0 : 0.5 : 1"
       sodipodi:type="inkscape:persp3d" />
    <inkscape:perspective
       id="perspective3466"
       inkscape:persp3d-origin="0.5 : 0.33333333 : 1"
       inkscape:vp_z="1 : 0.5 : 1"
       inkscape:vp_y="0 : 1000 : 0"
       inkscape:vp_x="0 : 0.5 : 1"
       sodipodi:type="inkscape:persp3d" />
    <inkscape:perspective
       id="perspective3504"
       inkscape:persp3d-origin="0.5 : 0.33333333 : 1"
       inkscape:vp_z="1 : 0.5 : 1"
       inkscape:vp_y="0 : 1000 : 0"
       inkscape:vp_x="0 : 0.5 : 1"
       sodipodi:type="inkscape:persp3d" />
    <inkscape:perspective
       id="perspective3542"
       inkscape:persp3d-origin="0.5 : 0.33333333 : 1"
       inkscape:vp_z="1 : 0.5 : 1"
       inkscape:vp_y="0 : 1000 : 0"
       inkscape:vp_x="0 : 0.5 : 1"
       sodipodi:type="inkscape:persp3d" />
    <inkscape:perspective
       id="perspective3566"
       inkscape:persp3d-origin="0.5 : 0.33333333 : 1"
       inkscape:vp_z="1 : 0.5 : 1"
       inkscape:vp_y="0 : 1000 : 0"
       inkscape:vp_x="0 : 0.5 : 1"
       sodipodi:type="inkscape:persp3d" />
    <inkscape:perspective
       id="perspective3590"
       inkscape:persp3d-origin="0.5 : 0.33333333 : 1"
       inkscape:vp_z="1 : 0.5 : 1"
       inkscape:vp_y="0 : 1000 : 0"
       inkscape:vp_x="0 : 0.5 : 1"
       sodipodi:type="inkscape:persp3d" />
    <inkscape:perspective
       id="perspective3610"
       inkscape:persp3d-origin="0.5 : 0.33333333 : 1"
       inkscape:vp_z="1 : 0.5 : 1"
       inkscape:vp_y="0 : 1000 : 0"
       inkscape:vp_x="0 : 0.5 : 1"
       sodipodi:type="inkscape:persp3d" />
    <inkscape:perspective
       id="perspective3648"
       inkscape:persp3d-origin="0.5 : 0.33333333 : 1"
       inkscape:vp_z="1 : 0.5 : 1"
       inkscape:vp_y="0 : 1000 : 0"
       inkscape:vp_x="0 : 0.5 : 1"
       sodipodi:type="inkscape:persp3d" />
    <inkscape:perspective
       id="perspective3668"
       inkscape:persp3d-origin="0.5 : 0.33333333 : 1"
       inkscape:vp_z="1 : 0.5 : 1"
       inkscape:vp_y="0 : 1000 : 0"
       inkscape:vp_x="0 : 0.5 : 1"
       sodipodi:type="inkscape:persp3d" />
    <inkscape:perspective
       id="perspective3706"
       inkscape:persp3d-origin="0.5 : 0.33333333 : 1"
       inkscape:vp_z="1 : 0.5 : 1"
       inkscape:vp_y="0 : 1000 : 0"
       inkscape:vp_x="0 : 0.5 : 1"
       sodipodi:type="inkscape:persp3d" />
    <inkscape:perspective
       id="perspective3744"
       inkscape:persp3d-origin="0.5 : 0.33333333 : 1"
       inkscape:vp_z="1 : 0.5 : 1"
       inkscape:vp_y="0 : 1000 : 0"
       inkscape:vp_x="0 : 0.5 : 1"
       sodipodi:type="inkscape:persp3d" />
    <inkscape:perspective
       id="perspective3770"
       inkscape:persp3d-origin="0.5 : 0.33333333 : 1"
       inkscape:vp_z="1 : 0.5 : 1"
       inkscape:vp_y="0 : 1000 : 0"
       inkscape:vp_x="0 : 0.5 : 1"
       sodipodi:type="inkscape:persp3d" />
    <inkscape:perspective
       id="perspective3804"
       inkscape:persp3d-origin="0.5 : 0.33333333 : 1"
       inkscape:vp_z="1 : 0.5 : 1"
       inkscape:vp_y="0 : 1000 : 0"
       inkscape:vp_x="0 : 0.5 : 1"
       sodipodi:type="inkscape:persp3d" />
    <inkscape:perspective
       id="perspective3828"
       inkscape:persp3d-origin="0.5 : 0.33333333 : 1"
       inkscape:vp_z="1 : 0.5 : 1"
       inkscape:vp_y="0 : 1000 : 0"
       inkscape:vp_x="0 : 0.5 : 1"
       sodipodi:type="inkscape:persp3d" />
    <inkscape:perspective
       id="perspective3852"
       inkscape:persp3d-origin="0.5 : 0.33333333 : 1"
       inkscape:vp_z="1 : 0.5 : 1"
       inkscape:vp_y="0 : 1000 : 0"
       inkscape:vp_x="0 : 0.5 : 1"
       sodipodi:type="inkscape:persp3d" />
    <inkscape:perspective
       id="perspective3876"
       inkscape:persp3d-origin="0.5 : 0.33333333 : 1"
       inkscape:vp_z="1 : 0.5 : 1"
       inkscape:vp_y="0 : 1000 : 0"
       inkscape:vp_x="0 : 0.5 : 1"
       sodipodi:type="inkscape:persp3d" />
    <inkscape:perspective
       id="perspective3900"
       inkscape:persp3d-origin="0.5 : 0.33333333 : 1"
       inkscape:vp_z="1 : 0.5 : 1"
       inkscape:vp_y="0 : 1000 : 0"
       inkscape:vp_x="0 : 0.5 : 1"
       sodipodi:type="inkscape:persp3d" />
    <inkscape:perspective
       id="perspective3924"
       inkscape:persp3d-origin="0.5 : 0.33333333 : 1"
       inkscape:vp_z="1 : 0.5 : 1"
       inkscape:vp_y="0 : 1000 : 0"
       inkscape:vp_x="0 : 0.5 : 1"
       sodipodi:type="inkscape:persp3d" />
    <inkscape:perspective
       id="perspective3948"
       inkscape:persp3d-origin="0.5 : 0.33333333 : 1"
       inkscape:vp_z="1 : 0.5 : 1"
       inkscape:vp_y="0 : 1000 : 0"
       inkscape:vp_x="0 : 0.5 : 1"
       sodipodi:type="inkscape:persp3d" />
    <inkscape:perspective
       id="perspective3986"
       inkscape:persp3d-origin="0.5 : 0.33333333 : 1"
       inkscape:vp_z="1 : 0.5 : 1"
       inkscape:vp_y="0 : 1000 : 0"
       inkscape:vp_x="0 : 0.5 : 1"
       sodipodi:type="inkscape:persp3d" />
    <inkscape:perspective
       id="perspective4024"
       inkscape:persp3d-origin="0.5 : 0.33333333 : 1"
       inkscape:vp_z="1 : 0.5 : 1"
       inkscape:vp_y="0 : 1000 : 0"
       inkscape:vp_x="0 : 0.5 : 1"
       sodipodi:type="inkscape:persp3d" />
    <inkscape:perspective
       id="perspective4062"
       inkscape:persp3d-origin="0.5 : 0.33333333 : 1"
       inkscape:vp_z="1 : 0.5 : 1"
       inkscape:vp_y="0 : 1000 : 0"
       inkscape:vp_x="0 : 0.5 : 1"
       sodipodi:type="inkscape:persp3d" />
    <inkscape:perspective
       id="perspective4100"
       inkscape:persp3d-origin="0.5 : 0.33333333 : 1"
       inkscape:vp_z="1 : 0.5 : 1"
       inkscape:vp_y="0 : 1000 : 0"
       inkscape:vp_x="0 : 0.5 : 1"
       sodipodi:type="inkscape:persp3d" />
    <inkscape:perspective
       id="perspective4126"
       inkscape:persp3d-origin="0.5 : 0.33333333 : 1"
       inkscape:vp_z="1 : 0.5 : 1"
       inkscape:vp_y="0 : 1000 : 0"
       inkscape:vp_x="0 : 0.5 : 1"
       sodipodi:type="inkscape:persp3d" />
    <inkscape:perspective
       id="perspective4164"
       inkscape:persp3d-origin="0.5 : 0.33333333 : 1"
       inkscape:vp_z="1 : 0.5 : 1"
       inkscape:vp_y="0 : 1000 : 0"
       inkscape:vp_x="0 : 0.5 : 1"
       sodipodi:type="inkscape:persp3d" />
    <inkscape:perspective
       id="perspective4184"
       inkscape:persp3d-origin="0.5 : 0.33333333 : 1"
       inkscape:vp_z="1 : 0.5 : 1"
       inkscape:vp_y="0 : 1000 : 0"
       inkscape:vp_x="0 : 0.5 : 1"
       sodipodi:type="inkscape:persp3d" />
    <inkscape:perspective
       id="perspective4206"
       inkscape:persp3d-origin="0.5 : 0.33333333 : 1"
       inkscape:vp_z="1 : 0.5 : 1"
       inkscape:vp_y="0 : 1000 : 0"
       inkscape:vp_x="0 : 0.5 : 1"
       sodipodi:type="inkscape:persp3d" />
    <inkscape:perspective
       id="perspective4228"
       inkscape:persp3d-origin="0.5 : 0.33333333 : 1"
       inkscape:vp_z="1 : 0.5 : 1"
       inkscape:vp_y="0 : 1000 : 0"
       inkscape:vp_x="0 : 0.5 : 1"
       sodipodi:type="inkscape:persp3d" />
    <inkscape:perspective
       id="perspective4266"
       inkscape:persp3d-origin="0.5 : 0.33333333 : 1"
       inkscape:vp_z="1 : 0.5 : 1"
       inkscape:vp_y="0 : 1000 : 0"
       inkscape:vp_x="0 : 0.5 : 1"
       sodipodi:type="inkscape:persp3d" />
  </defs>
  <sodipodi:namedview
     id="base"
     pagecolor="#ffffff"
     bordercolor="#666666"
     borderopacity="1.0"
     inkscape:pageopacity="0.0"
     inkscape:pageshadow="2"
     inkscape:zoom="11.313709"
     inkscape:cx="11.966503"
     inkscape:cy="14.926085"
     inkscape:document-units="px"
     inkscape:current-layer="layer1"
     showgrid="true"
     inkscape:window-width="1280"
     inkscape:window-height="780"
     inkscape:window-x="-8"
     inkscape:window-y="-8"
     inkscape:window-maximized="1">
    <inkscape:grid
       type="xygrid"
       id="grid6324"
       empspacing="5"
       visible="true"
       enabled="true"
       snapvisiblegridlinesonly="true" />
  </sodipodi:namedview>
  <metadata
     id="metadata7">
    <rdf:RDF>
      <cc:Work
         rdf:about="">
        <dc:format>image/svg+xml</dc:format>
        <dc:type
           rdf:resource="http://purl.org/dc/dcmitype/StillImage" />
        <dc:title></dc:title>
      </cc:Work>
    </rdf:RDF>
  </metadata>
  <g
     inkscape:label="Calque 1"
     inkscape:groupmode="layer"
     id="layer1"
     transform="translate(0,-1036.3622)">
    <g
       id="g4272"
       transform="translate(0.5481884,0.3334)">
      <path
         style="fill:#9b9b9d"
         d="m 4.5068879,1048.2243 -0.6025901,-0.01 -0.3774094,-0.2087 c -0.2075752,-0.1149 -0.568473,-0.3818 -0.8019951,-0.5933 l -0.4245856,-0.3846 0,-0.8248 0,-0.8249 0.4305188,-0.4305 0.4305188,-0.4305 1.1262951,-0.2223 1.1262952,-0.2223 0.8491713,-0.5644 0.8491712,-0.5644 0.9178305,-8e-4 0.9178307,-8e-4 0.6861594,0.3571 c 0.3773873,0.1964 1.0478833,0.4548 1.4899893,0.5742 l 0.803829,0.2172 0.658632,0.6586 0.658633,0.6587 0,0.7419 0,0.7419 -0.365004,0.1953 c -0.200752,0.1074 -0.505798,0.1953 -0.677879,0.1953 l -0.312874,0 -0.479799,0.3775 -0.479798,0.3774 -0.455324,0 -0.455324,0 -0.4529374,-0.4888 -0.4529376,-0.4887 -1.7553324,0.2441 -1.7553323,0.244 -0.2465812,0.3391 -0.2465812,0.339 -0.60259,-0.01 z m -0.036476,-0.3716 c 0.051894,0 0.094352,-0.043 0.094352,-0.094 0,-0.052 -0.042459,-0.094 -0.094352,-0.094 -0.051894,0 -0.094352,0.042 -0.094352,0.094 0,0.052 0.042459,0.094 0.094352,0.094 z m -0.3774094,-0.3775 c 0.051894,0 0.094352,-0.042 0.094352,-0.094 0,-0.052 -0.042458,-0.094 -0.094352,-0.094 -0.051894,0 -0.094352,0.043 -0.094352,0.094 0,0.052 0.042459,0.094 0.094352,0.094 z m 6.4159605,0 c 0.05189,0 0.09435,-0.042 0.09435,-0.094 0,-0.052 -0.04246,-0.094 -0.09435,-0.094 -0.05189,0 -0.09435,0.043 -0.09435,0.094 0,0.052 0.04246,0.094 0.09435,0.094 z m -0.471762,-0.1887 c 0.103788,0 0.188705,-0.085 0.188705,-0.1887 0,-0.1038 -0.08492,-0.1887 -0.188705,-0.1887 -0.1037874,0 -0.1887046,0.085 -0.1887046,0.1887 0,0.1038 0.084917,0.1887 0.1887046,0.1887 z m -6.9820745,-0.6604 c 0.1037876,-0.064 0.1887047,-0.1591 0.1887047,-0.211 0,-0.052 -0.084917,-0.042 -0.1887047,0.022 -0.1037876,0.064 -0.1887047,0.1591 -0.1887047,0.2109 0,0.052 0.084917,0.042 0.1887047,-0.022 z m 4.2458562,-1.0379 0.2830571,0 0,-0.1828 0,-0.1828 -0.2830571,0.1087 c -0.1556814,0.06 -0.2830571,0.1419 -0.2830571,0.1827 0,0.041 0.1273757,0.074 0.2830571,0.074 z m 1.6151269,0 0.1998415,0 -0.1166259,-0.1887 c -0.064144,-0.1038 -0.1540729,-0.1887 -0.1998415,-0.1887 -0.045769,0 -0.083216,0.085 -0.083216,0.1887 l 0,0.1887 0.1998415,0 z m -2.4694405,-0.4686 0.1309212,-0.081 -0.084025,-0.5725 -0.084025,-0.5725 -0.1675697,0.1036 -0.1675694,0.1035 0,0.4292 c 0,0.2361 0.054303,0.4835 0.1206729,0.5499 0.06637,0.066 0.1795875,0.084 0.2515942,0.04 z m 3.3420295,-0.6282 0.099111,-0.2477 -0.114009,-0.114 -0.1140092,-0.114 0.014898,0.3616 0.014898,0.3617 0.099111,-0.2476 z m -2.1074279,-0.3457 0.2801785,-0.1075 0,-0.3572 0,-0.3573 -0.1732711,0 c -0.095299,0 -0.3060366,0.051 -0.4683058,0.1133 l -0.2950348,0.1132 0.1881273,0.3515 0.1881275,0.3515 0.2801784,-0.1075 z"
         id="path4294" />
      <path
         style="fill:#ddab41"
         d="m 4.5068879,1048.2243 -0.6025901,-0.01 -0.3774094,-0.2087 c -0.2075752,-0.1149 -0.568473,-0.3818 -0.8019951,-0.5933 l -0.4245856,-0.3846 0,-0.8248 0,-0.8249 0.4305188,-0.4305 0.4305188,-0.4305 1.1262951,-0.2223 1.1262952,-0.2223 0.8491713,-0.5644 0.8491712,-0.5644 0.9178305,-8e-4 0.9178307,-8e-4 0.6861594,0.3571 c 0.3773873,0.1964 1.0478833,0.4548 1.4899893,0.5742 l 0.803829,0.2172 0.658632,0.6586 0.658633,0.6587 0,0.7419 0,0.7419 -0.365004,0.1953 c -0.200752,0.1074 -0.505798,0.1953 -0.677879,0.1953 l -0.312874,0 -0.479799,0.3775 -0.479798,0.3774 -0.455324,0 -0.455324,0 -0.4529374,-0.4888 -0.4529376,-0.4887 -1.7553324,0.2441 -1.7553323,0.244 -0.2465812,0.3391 -0.2465812,0.339 -0.60259,-0.01 z m 0.0393,-0.3716 c 0.1017545,0 0.2409814,-0.091 0.3093933,-0.2013 0.068412,-0.1107 0.094653,-0.2295 0.058313,-0.264 -0.03634,-0.034 -0.1755668,0.056 -0.3093933,0.2012 l -0.2433208,0.2641 0.1850078,0 z m -0.2644802,-0.3775 c 0.1556814,-0.1292 0.2830571,-0.2643 0.2830571,-0.3002 0,-0.036 -0.1273757,-0.016 -0.2830571,0.043 -0.1556814,0.06 -0.2830571,0.1948 -0.2830571,0.3002 l 0,0.1917 0.2830571,-0.235 z m 6.2587063,0.1258 0.125803,-0.1258 -0.125803,-0.1258 -0.125803,-0.1258 0,0.2516 0,0.2517 0.125803,-0.1259 z m -0.503213,-0.3145 c 0.103788,0 0.188705,-0.085 0.188705,-0.1887 0,-0.1038 -0.08492,-0.1887 -0.188705,-0.1887 -0.1037869,0 -0.1887041,0.085 -0.1887041,0.1887 0,0.1038 0.084917,0.1887 0.1887041,0.1887 z m 0.988496,0 0.175183,0 -0.08649,-0.2358 -0.08649,-0.2359 -0.212293,0.047 -0.212293,0.047 0,-0.1887 0,-0.1887 -0.217951,0 -0.217952,0 0.341551,0.3774 c 0.187853,0.2076 0.420383,0.3774 0.516734,0.3774 z m -7.97057,-0.6604 c 0.1037876,-0.064 0.1887047,-0.1591 0.1887047,-0.211 0,-0.052 -0.084917,-0.042 -0.1887047,0.022 -0.1037876,0.064 -0.1887047,0.1591 -0.1887047,0.2109 0,0.052 0.084917,0.042 0.1887047,-0.022 z m -0.1887047,-1.1323 c 0.1037876,-0.064 0.1887047,-0.159 0.1887047,-0.2109 0,-0.052 -0.084917,-0.042 -0.1887047,0.022 -0.1037876,0.064 -0.1887047,0.1591 -0.1887047,0.211 0,0.052 0.084917,0.042 0.1887047,-0.022 z m 4.7899547,0.094 0.713933,0 -0.083703,-0.2359 -0.083703,-0.2359 -0.4469484,0.053 c -0.2458215,0.029 -0.5294251,0.1351 -0.6302298,0.2359 l -0.1832816,0.1833 0.7139328,0 z m 1.3540855,0 0.2941939,0 -0.116626,-0.1887 c -0.064144,-0.1038 -0.1965314,-0.1887 -0.2941938,-0.1887 -0.097663,0 -0.177568,0.085 -0.177568,0.1887 l 0,0.1887 0.2941939,0 z m -2.4770314,-0.4248 0.2433693,-0.3305 -0.09014,-0.4715 -0.090141,-0.4715 -0.2610584,0 -0.2610585,0 -0.022358,0.2358 c -0.012298,0.1298 -0.00826,0.3633 0.00897,0.519 0.017227,0.1557 0.075812,0.4104 0.1301879,0.5661 l 0.098864,0.283 0.2433693,-0.3304 z m 3.3370747,-0.33 0.1666952,0 0,-0.3663 0,-0.3663 -0.2012588,-0.1244 c -0.1106926,-0.068 -0.2347003,-0.091 -0.2755725,-0.05 -0.040872,0.041 -0.025318,0.2616 0.034564,0.4906 l 0.1088766,0.4164 0.1666957,0 z m -1.8058025,-0.6426 c 0.4620967,-0.01 0.8401968,-0.045 0.8402229,-0.078 2.58e-5,-0.033 -0.087858,-0.2238 -0.195297,-0.4246 l -0.1953441,-0.365 -0.6426903,0 -0.6426904,0 -0.1061013,0.1717 -0.1061015,0.1717 0.1039131,0.2708 0.1039131,0.2708 0.8401755,-0.018 z"
         id="path4292" />
      <path
         style="fill:#af8a39"
         d="m 4.5068879,1048.2243 -0.6025901,-0.01 -0.3774094,-0.2087 c -0.2075752,-0.1149 -0.568473,-0.3818 -0.8019951,-0.5933 l -0.4245856,-0.3846 0,-0.8248 0,-0.8249 0.4305188,-0.4305 0.4305188,-0.4305 1.1262951,-0.2223 1.1262952,-0.2223 0.8491713,-0.5644 0.8491712,-0.5644 0.9178305,-8e-4 0.9178307,-8e-4 0.6861594,0.3571 c 0.3773873,0.1964 1.0478833,0.4548 1.4899893,0.5742 l 0.803829,0.2172 0.658632,0.6586 0.658633,0.6587 0,0.7419 0,0.7419 -0.365004,0.1953 c -0.200752,0.1074 -0.505798,0.1953 -0.677879,0.1953 l -0.312874,0 -0.479799,0.3775 -0.479798,0.3774 -0.455324,0 -0.455324,0 -0.4529374,-0.4888 -0.4529376,-0.4887 -1.7553324,0.2441 -1.7553323,0.244 -0.2465812,0.3391 -0.2465812,0.339 -0.60259,-0.01 z m 0.0393,-0.3716 c 0.1017545,0 0.2409814,-0.091 0.3093933,-0.2013 0.068412,-0.1107 0.094653,-0.2295 0.058313,-0.264 -0.03634,-0.034 -0.1755668,0.056 -0.3093933,0.2012 l -0.2433208,0.2641 0.1850078,0 z m -0.2644802,-0.3775 c 0.1556814,-0.1292 0.2830571,-0.2643 0.2830571,-0.3002 0,-0.036 -0.1273757,-0.016 -0.2830571,0.043 -0.1556814,0.06 -0.2830571,0.1948 -0.2830571,0.3002 l 0,0.1917 0.2830571,-0.235 z m 6.2587063,0.1258 0.125803,-0.1258 -0.125803,-0.1258 -0.125803,-0.1258 0,0.2516 0,0.2517 0.125803,-0.1259 z m -0.503213,-0.3145 c 0.103788,0 0.188705,-0.085 0.188705,-0.1887 0,-0.1038 -0.08492,-0.1887 -0.188705,-0.1887 -0.1037869,0 -0.1887041,0.085 -0.1887041,0.1887 0,0.1038 0.084917,0.1887 0.1887041,0.1887 z m 0.988496,0 0.175183,0 -0.08649,-0.2358 -0.08649,-0.2359 -0.212293,0.047 -0.212293,0.047 0,-0.1887 0,-0.1887 -0.217951,0 -0.217952,0 0.341551,0.3774 c 0.187853,0.2076 0.420383,0.3774 0.516734,0.3774 z m -3.2776163,-0.4776 c 0.4806095,-0.064 1.0012112,-0.1613 1.1568926,-0.2158 l 0.2830571,-0.099 -0.4717618,-0.2052 -0.4717618,-0.2053 0.5661142,-0.073 c 0.3113628,-0.04 0.6431864,-0.1482 0.7373859,-0.2396 l 0.171272,-0.1662 -0.2322449,-0.2798 -0.2322448,-0.2799 -0.2692603,0.1033 c -0.1480932,0.057 -0.2692603,0.1891 -0.2692603,0.2939 l 0,0.1905 0.3774095,-0.099 0.3774094,-0.099 0,0.1539 0,0.1539 -1.3478754,0.013 c -0.7413314,0.01 -1.3823424,0.047 -1.4244691,0.089 -0.042127,0.042 -0.019872,0.3026 0.049454,0.5788 l 0.1260479,0.5022 0.8738357,-0.1166 z m 1.4399497,-1.4094 c -0.051894,0 -0.094352,-0.043 -0.094352,-0.094 0,-0.052 0.042458,-0.094 0.094352,-0.094 0.051894,0 0.094352,0.042 0.094352,0.094 0,0.052 -0.042459,0.094 -0.094352,0.094 z m -6.1329034,1.2266 c 0.1037876,-0.064 0.1887047,-0.1591 0.1887047,-0.211 0,-0.052 -0.084917,-0.042 -0.1887047,0.022 -0.1037876,0.064 -0.1887047,0.1591 -0.1887047,0.2109 0,0.052 0.084917,0.042 0.1887047,-0.022 z m 9.718293,-0.6605 c 0.05189,0 0.09435,-0.042 0.09435,-0.094 0,-0.052 -0.04246,-0.094 -0.09435,-0.094 -0.05189,0 -0.09435,0.043 -0.09435,0.094 0,0.052 0.04246,0.094 0.09435,0.094 z m -9.257668,-0.1887 c 0.1495562,0 0.3278937,-0.091 0.3963056,-0.2013 0.068412,-0.1106 0.085577,-0.24 0.038146,-0.2875 -0.047432,-0.047 -0.2257691,-0.033 -0.3963056,0.033 -0.1705362,0.065 -0.310066,0.1948 -0.310066,0.2875 l 0,0.1685 0.2719203,0 z m -0.6493297,-0.2831 c 0.1037876,-0.064 0.1887047,-0.159 0.1887047,-0.2109 0,-0.052 -0.084917,-0.042 -0.1887047,0.022 -0.1037876,0.064 -0.1887047,0.1591 -0.1887047,0.211 0,0.052 0.084917,0.042 0.1887047,-0.022 z m 4.8591465,0.094 0.6447412,0 -0.078627,-0.2359 -0.078627,-0.2359 -0.5661142,0 -0.5661142,0 0,0.2359 0,0.2359 0.6447412,0 z m -1.1921377,-0.4248 0.2433693,-0.3305 -0.09014,-0.4715 -0.090141,-0.4715 -0.2610584,0 -0.2610585,0 -0.022358,0.2358 c -0.012298,0.1298 -0.00826,0.3633 0.00897,0.519 0.017227,0.1557 0.075812,0.4104 0.1301879,0.5661 l 0.098864,0.283 0.2433693,-0.3304 z m 5.0245449,0.047 c 0.09766,0 0.177568,-0.08 0.177568,-0.1776 0,-0.098 -0.09057,-0.2335 -0.20126,-0.3019 l -0.201259,-0.1244 -0.100694,0.1007 -0.100693,0.1007 0.124385,0.2012 c 0.06841,0.1107 0.20429,0.2013 0.301953,0.2013 z m -3.5911746,-0.2633 0.5599018,-0.02 4.305e-4,-0.1415 4.302e-4,-0.1415 -0.460625,0 -0.460625,0 -0.099707,0.1613 -0.099707,0.1613 0.5599016,-0.02 z m 0.8438196,0.075 c 0.051894,0 0.094352,-0.043 0.094352,-0.094 0,-0.052 -0.042459,-0.094 -0.094352,-0.094 -0.051894,0 -0.094352,0.042 -0.094352,0.094 0,0.052 0.042459,0.094 0.094352,0.094 z m 1.0598848,-0.1887 0.1666952,0 0,-0.3663 0,-0.3663 -0.2012588,-0.1244 c -0.1106926,-0.068 -0.2347003,-0.091 -0.2755725,-0.05 -0.040872,0.041 -0.025318,0.2616 0.034564,0.4906 l 0.1088766,0.4164 0.1666957,0 z m 0.8271622,-0.3774 c 0.05189,0 0.09435,-0.042 0.09435,-0.094 0,-0.052 -0.04246,-0.094 -0.09435,-0.094 -0.05189,0 -0.09435,0.042 -0.09435,0.094 0,0.052 0.04246,0.094 0.09435,0.094 z m -2.6329647,-0.2652 c 0.4620967,-0.01 0.8401968,-0.045 0.8402229,-0.078 2.58e-5,-0.033 -0.087858,-0.2238 -0.195297,-0.4246 l -0.1953441,-0.365 -0.6426903,0 -0.6426904,0 -0.1061013,0.1717 -0.1061015,0.1717 0.1039131,0.2708 0.1039131,0.2708 0.8401755,-0.018 z"
         id="path4290" />
      <path
         style="fill:#e63139"
         d="m 4.5068879,1048.2243 -0.6025901,-0.01 -0.3774094,-0.2087 c -0.2075752,-0.1149 -0.568473,-0.3818 -0.8019951,-0.5933 l -0.4245856,-0.3846 0,-0.8248 0,-0.8249 0.4305188,-0.4305 0.4305188,-0.4305 1.1262951,-0.2223 1.1262952,-0.2223 0.8491713,-0.5644 0.8491712,-0.5644 0.9178305,-8e-4 0.9178307,-8e-4 0.6861594,0.3571 c 0.3773873,0.1964 1.0478833,0.4548 1.4899893,0.5742 l 0.803829,0.2172 0.658632,0.6586 0.658633,0.6587 0,0.7419 0,0.7419 -0.365004,0.1953 c -0.200752,0.1074 -0.505798,0.1953 -0.677879,0.1953 l -0.312874,0 -0.479799,0.3775 -0.479798,0.3774 -0.455324,0 -0.455324,0 -0.4529374,-0.4888 -0.4529376,-0.4887 -1.7553324,0.2441 -1.7553323,0.244 -0.2465812,0.3391 -0.2465812,0.339 -0.60259,-0.01 z m 0.0393,-0.3716 c 0.1017545,0 0.2409814,-0.091 0.3093933,-0.2013 0.068412,-0.1107 0.094653,-0.2295 0.058313,-0.264 -0.03634,-0.034 -0.1755668,0.056 -0.3093933,0.2012 l -0.2433208,0.2641 0.1850078,0 z m -0.2644802,-0.3775 c 0.1556814,-0.1292 0.2830571,-0.2643 0.2830571,-0.3002 0,-0.036 -0.1273757,-0.016 -0.2830571,0.043 -0.1556814,0.06 -0.2830571,0.1948 -0.2830571,0.3002 l 0,0.1917 0.2830571,-0.235 z m 6.2587063,0.1258 0.125803,-0.1258 -0.125803,-0.1258 -0.125803,-0.1258 0,0.2516 0,0.2517 0.125803,-0.1259 z m -0.503213,-0.3145 c 0.103788,0 0.188705,-0.085 0.188705,-0.1887 0,-0.1038 -0.08492,-0.1887 -0.188705,-0.1887 -0.1037869,0 -0.1887041,0.085 -0.1887041,0.1887 0,0.1038 0.084917,0.1887 0.1887041,0.1887 z m 0.988496,0 0.175183,0 -0.08649,-0.2358 -0.08649,-0.2359 -0.212293,0.047 -0.212293,0.047 0,-0.1887 0,-0.1887 -0.217951,0 -0.217952,0 0.341551,0.3774 c 0.187853,0.2076 0.420383,0.3774 0.516734,0.3774 z m -3.1647959,-0.4629 c 0.5601794,-0.1119 1.0808712,-0.2658 1.1570932,-0.342 l 0.1385853,-0.1386 -0.3145078,0 -0.3145079,0 0,-0.2107 0,-0.2107 0.3772215,0.099 0.3772215,0.099 0.1056771,-0.171 0.1056771,-0.171 -0.4828986,0 -0.4828986,0 0,-0.3774 0,-0.3774 0.2719203,0 c 0.1495562,0 0.3238009,0.084 0.3872104,0.1865 l 0.1152901,0.1866 -0.292858,-0.1124 -0.2928581,-0.1124 0,0.1869 0,0.1869 0.518938,0.1 c 0.2854159,0.055 0.5521968,0.067 0.5928466,0.027 0.04065,-0.04 -0.1291846,-0.2421 -0.3774094,-0.4489 l -0.4513181,-0.3759 -0.6141231,-0.1217 -0.6141229,-0.1217 -0.4911021,0.3217 -0.491102,0.3218 0.1617014,0.1577 c 0.088936,0.087 0.4164529,0.1944 0.7278157,0.2393 l 0.5661141,0.082 -0.801995,-0.022 -0.8019951,-0.022 0,0.4105 c 0,0.2258 0.045422,0.5289 0.1009383,0.6736 l 0.1009384,0.263 1.0185077,-0.2033 z m -0.4504391,-1.5621 -0.4469019,0.1169 0.1993762,-0.1994 0.199376,-0.1994 0.2475258,0.083 0.2475257,0.082 -0.4469018,0.1169 z m 0.8340448,-0.051 c -0.051894,0 -0.094352,-0.043 -0.094352,-0.094 0,-0.052 0.042459,-0.094 0.094352,-0.094 0.051894,0 0.094352,0.042 0.094352,0.094 0,0.052 -0.042459,0.094 -0.094352,0.094 z m -5.1893798,1.4153 c 0.1037876,-0.064 0.1887047,-0.1591 0.1887047,-0.211 0,-0.052 -0.084917,-0.042 -0.1887047,0.022 -0.1037876,0.064 -0.1887047,0.1591 -0.1887047,0.2109 0,0.052 0.084917,0.042 0.1887047,-0.022 z m 9.748583,-0.6605 c 0.03523,0 0.06406,-0.069 0.06406,-0.1526 0,-0.084 -0.128756,-0.3175 -0.286124,-0.519 l -0.286123,-0.3663 0.222061,0.519 c 0.122134,0.2854 0.250889,0.5189 0.286124,0.5189 z m -9.287958,-0.1887 c 0.1495562,0 0.3278937,-0.091 0.3963056,-0.2013 0.068412,-0.1106 0.085577,-0.24 0.038146,-0.2875 -0.047432,-0.047 -0.2257691,-0.033 -0.3963056,0.033 -0.1705362,0.065 -0.310066,0.1948 -0.310066,0.2875 l 0,0.1685 0.2719203,0 z m -0.6493297,-0.2831 c 0.1037876,-0.064 0.1887047,-0.159 0.1887047,-0.2109 0,-0.052 -0.084917,-0.042 -0.1887047,0.022 -0.1037876,0.064 -0.1887047,0.1591 -0.1887047,0.211 0,0.052 0.084917,0.042 0.1887047,-0.022 z m 3.6670088,-0.3304 0.2433693,-0.3305 -0.09014,-0.4715 -0.090141,-0.4715 -0.2610584,0 -0.2610585,0 -0.022358,0.2358 c -0.012298,0.1298 -0.00826,0.3633 0.00897,0.519 0.017227,0.1557 0.075812,0.4104 0.1301879,0.5661 l 0.098864,0.283 0.2433693,-0.3304 z m 5.0245449,0.047 c 0.09766,0 0.177568,-0.075 0.177568,-0.167 0,-0.092 -0.219661,-0.3109 -0.488135,-0.4869 l -0.488134,-0.3198 -0.109431,0.1094 -0.10943,0.1095 0.240345,0 0.240345,0 -0.112381,0.2928 -0.11238,0.2929 0.173504,-0.1072 0.173504,-0.1073 0.118529,0.1918 c 0.06519,0.1055 0.198433,0.1918 0.296096,0.1918 z m -1.6874702,-0.3774 0.1666952,0 0,-0.3663 0,-0.3663 -0.2012588,-0.1244 c -0.1106926,-0.068 -0.2347003,-0.091 -0.2755725,-0.05 -0.040872,0.041 -0.025318,0.2616 0.034564,0.4906 l 0.1088766,0.4164 0.1666957,0 z m -1.8058025,-0.6426 c 0.4620967,-0.01 0.8401968,-0.045 0.8402229,-0.078 2.58e-5,-0.033 -0.087858,-0.2238 -0.195297,-0.4246 l -0.1953441,-0.365 -0.6426903,0 -0.6426904,0 -0.1061013,0.1717 -0.1061015,0.1717 0.1039131,0.2708 0.1039131,0.2708 0.8401755,-0.018 z"
         id="path4288" />
      <path
         style="fill:#cf2e35"
         d="m 4.5068879,1048.2243 -0.6025901,-0.01 -0.3774094,-0.2087 c -0.2075752,-0.1149 -0.568473,-0.3818 -0.8019951,-0.5933 l -0.4245856,-0.3846 0,-0.8248 0,-0.8249 0.4305188,-0.4305 0.4305188,-0.4305 1.1262951,-0.2223 1.1262952,-0.2223 0.8491713,-0.5644 0.8491712,-0.5644 0.9178305,-8e-4 0.9178307,-8e-4 0.6861594,0.3571 c 0.3773873,0.1964 1.0478833,0.4548 1.4899893,0.5742 l 0.803829,0.2172 0.658632,0.6586 0.658633,0.6587 0,0.7419 0,0.7419 -0.365004,0.1953 c -0.200752,0.1074 -0.505798,0.1953 -0.677879,0.1953 l -0.312874,0 -0.479799,0.3775 -0.479798,0.3774 -0.455324,0 -0.455324,0 -0.4529374,-0.4888 -0.4529376,-0.4887 -1.7553324,0.2441 -1.7553323,0.244 -0.2465812,0.3391 -0.2465812,0.339 -0.60259,-0.01 z m 0.0393,-0.3716 c 0.1017545,0 0.2409814,-0.091 0.3093933,-0.2013 0.068412,-0.1107 0.094653,-0.2295 0.058313,-0.264 -0.03634,-0.034 -0.1755668,0.056 -0.3093933,0.2012 l -0.2433208,0.2641 0.1850078,0 z m -0.2644802,-0.3775 c 0.1556814,-0.1292 0.2830571,-0.2643 0.2830571,-0.3002 0,-0.036 -0.1273757,-0.016 -0.2830571,0.043 -0.1556814,0.06 -0.2830571,0.1948 -0.2830571,0.3002 l 0,0.1917 0.2830571,-0.235 z m 6.2587063,0.1258 0.125803,-0.1258 -0.125803,-0.1258 -0.125803,-0.1258 0,0.2516 0,0.2517 0.125803,-0.1259 z m -7.3273834,-0.3145 c 0.074597,0 0.2810466,-0.1698 0.4587781,-0.3774 l 0.323148,-0.3774 0.4662577,0 0.4662578,0 0.356276,0.3824 0.3562761,0.3825 0.3115415,-0.1196 c 0.1713478,-0.066 0.3115415,-0.1892 0.3115415,-0.2744 0,-0.085 -0.2192953,-0.3273 -0.4873228,-0.5381 -0.2680275,-0.2108 -0.6562831,-0.437 -0.8627905,-0.5025 l -0.3754674,-0.1192 -0.4648171,0.1167 -0.4648171,0.1166 -0.1773598,0.4665 -0.1773596,0.4665 -0.2045122,0 -0.2045121,0 0.1166259,0.1887 c 0.064144,0.1038 0.1776595,0.1887 0.252256,0.1887 z m 3.3331337,0 c 0.051894,0 0.094352,-0.042 0.094352,-0.094 0,-0.052 -0.042459,-0.094 -0.094352,-0.094 -0.051894,0 -0.094352,0.043 -0.094352,0.094 0,0.052 0.042458,0.094 0.094352,0.094 z m 3.4910367,0 c 0.103788,0 0.188705,-0.085 0.188705,-0.1887 0,-0.1038 -0.08492,-0.1887 -0.188705,-0.1887 -0.1037869,0 -0.1887041,0.085 -0.1887041,0.1887 0,0.1038 0.084917,0.1887 0.1887041,0.1887 z m 0.988496,0 0.175183,0 -0.08649,-0.2358 -0.08649,-0.2359 -0.212293,0.047 -0.212293,0.047 0,-0.1887 0,-0.1887 -0.217951,0 -0.217952,0 0.341551,0.3774 c 0.187853,0.2076 0.420383,0.3774 0.516734,0.3774 z m -3.1647959,-0.4629 c 0.5601794,-0.1119 1.0808712,-0.2658 1.1570932,-0.342 l 0.1385853,-0.1386 -0.3145078,0 -0.3145079,0 0,-0.2107 0,-0.2107 0.3772215,0.099 0.3772215,0.099 0.1056771,-0.171 0.1056771,-0.171 -0.4828986,0 -0.4828986,0 0,-0.3774 0,-0.3774 0.3302333,-0.012 0.3302332,-0.012 -0.4717618,-0.1896 -0.4717618,-0.1896 -0.5032185,0.099 -0.5032185,0.099 -0.1897839,-0.5445 -0.1897839,-0.5444 -0.3920497,0.1025 -0.3920498,0.1026 0,0.1778 0,0.1778 -0.1415285,-0.075 c -0.077841,-0.041 -0.481197,0.033 -0.8963474,0.1631 l -0.7548189,0.2376 0.6132903,0.014 0.6132904,0.014 0,0.2628 0,0.2629 -0.2984907,0.1146 c -0.1641701,0.063 -0.4554739,0.1145 -0.6473421,0.1145 l -0.3488511,0 -0.060301,-0.4246 -0.060301,-0.4246 -0.8019951,0.8096 -0.8019951,0.8097 0,0.2587 0,0.2587 0.2775952,-0.041 c 0.1526773,-0.022 0.3437408,-0.1134 0.4245857,-0.2023 l 0.1469904,-0.1615 -0.2358809,0.1358 -0.2358809,0.1357 0,-0.1592 c 0,-0.088 0.246624,-0.3048 0.5480536,-0.4829 l 0.5480536,-0.3237 0.5578415,0 0.5578416,0 0.6867997,0.4661 0.6867997,0.466 0,-0.4429 0,-0.443 -0.2830571,-0.2349 -0.2830571,-0.2349 0.014898,-0.4015 0.014898,-0.4015 0.094405,0.2831 c 0.051923,0.1557 0.1362011,0.4104 0.1872844,0.5661 l 0.092879,0.283 0.2433693,-0.3304 0.2433693,-0.3305 -0.093939,-0.5187 -0.093939,-0.5187 0.144099,0.134 0.1440989,0.1341 0.03556,0.7151 0.035559,0.7151 0.7424859,0.1261 0.7424859,0.1261 -0.8963474,-0.033 -0.8963474,-0.033 0,0.4105 c 0,0.2258 0.045422,0.5289 0.1009383,0.6736 l 0.1009384,0.263 1.0185077,-0.2033 z m -0.4341147,-1.5664 -0.3459588,0.091 0,-0.2313 0,-0.2312 0.3459588,0.09 c 0.1902772,0.05 0.3459586,0.1132 0.3459586,0.1408 0,0.028 -0.1556814,0.091 -0.3459586,0.1408 z m 0.8177204,-0.046 c -0.051894,0 -0.094352,-0.043 -0.094352,-0.094 0,-0.052 0.042459,-0.094 0.094352,-0.094 0.051894,0 0.094352,0.042 0.094352,0.094 0,0.052 -0.042459,0.094 -0.094352,0.094 z m 3.6618122,1.6954 c 0.06175,0 0.237416,-0.082 0.390358,-0.1787 l 0.278077,-0.1759 0.120248,0.1946 0.120248,0.1946 0.130587,-0.3403 0.130587,-0.3403 -0.127692,0.1277 -0.127691,0.1277 -0.723936,-0.3694 -0.723935,-0.3693 -0.432104,0 c -0.237656,0 -0.559479,0.085 -0.71516,0.1858 l -0.2830567,0.1829 0.5840427,0 0.584044,0 0.341551,0.3774 c 0.187853,0.2076 0.392077,0.3761 0.453832,0.3745 z m 0.420279,-0.9435 0.119291,0 -0.225846,-0.6569 c -0.124215,-0.3614 -0.280632,-0.7118 -0.347592,-0.7787 -0.06696,-0.067 -0.401138,-0.1526 -0.742617,-0.1904 l -0.620871,-0.069 0.260057,0.1657 0.260057,0.1658 -0.147685,0.2389 -0.147685,0.239 0.217861,-0.1346 0.217862,-0.1347 0,0.1684 c 0,0.093 -0.05076,0.2191 -0.112802,0.2812 l -0.112801,0.1128 -0.264608,-0.1015 -0.264608,-0.1016 0,-0.4138 0,-0.4139 0.226445,-0.2264 0.226446,-0.2264 -0.320798,0 -0.320798,0 0,0.5661 0,0.5661 -0.3061626,0 -0.3061629,0 0.2349164,0.283 0.2349161,0.2831 0.778889,0 0.778889,0 0.283057,0.1829 c 0.155682,0.1006 0.336739,0.1842 0.40235,0.1858 z m -1.062816,-1.318 c -0.05189,0 -0.09435,-0.043 -0.09435,-0.094 0,-0.052 0.04246,-0.094 0.09435,-0.094 0.05189,0 0.09435,0.042 0.09435,0.094 0,0.052 -0.04246,0.094 -0.09435,0.094 z m 1.539928,1.3209 c 0.03523,0 0.06406,-0.069 0.06406,-0.1526 0,-0.084 -0.128756,-0.3175 -0.286124,-0.519 l -0.286123,-0.3663 0.222061,0.519 c 0.122134,0.2854 0.250889,0.5189 0.286124,0.5189 z m -3.0967416,-0.2144 c 0.077841,0.014 0.1415285,-0.029 0.1415285,-0.095 0,-0.066 -0.1450476,-0.2268 -0.322328,-0.3564 l -0.322328,-0.2357 -0.2437862,0.093 c -0.1340824,0.052 -0.2437861,0.1635 -0.2437861,0.249 l 0,0.1554 0.4245856,0.082 c 0.2335221,0.045 0.4882735,0.093 0.5661142,0.1075 z m -0.518938,-0.3517 c -0.051894,0 -0.094352,-0.043 -0.094352,-0.094 0,-0.052 0.042458,-0.094 0.094352,-0.094 0.051894,0 0.094352,0.042 0.094352,0.094 0,0.052 -0.042459,0.094 -0.094352,0.094 z m -6.3216081,0.094 c 0.1037876,-0.064 0.1887047,-0.159 0.1887047,-0.2109 0,-0.052 -0.084917,-0.042 -0.1887047,0.022 -0.1037876,0.064 -0.1887047,0.1591 -0.1887047,0.211 0,0.052 0.084917,0.042 0.1887047,-0.022 z m 0.2830571,-0.4717 c 0.051894,0 0.094352,-0.043 0.094352,-0.094 0,-0.052 -0.042458,-0.094 -0.094352,-0.094 -0.051894,0 -0.094352,0.042 -0.094352,0.094 0,0.052 0.042459,0.094 0.094352,0.094 z m 6.6523109,-0.1388 0.2553657,-0.098 -0.05715,-0.3857 -0.057153,-0.3858 -0.2441114,-0.081 -0.2441117,-0.08 0.1069233,0.5374 0.1069231,0.5374 -0.1998583,-0.4594 -0.1998584,-0.4595 0.098023,-0.2554 0.098023,-0.2554 -0.3912144,-0.1448 -0.3912143,-0.1447 -0.7696875,0.1048 -0.7696877,0.1048 -0.059468,0.1887 c -0.032707,0.1038 0.00706,0.2936 0.088374,0.4217 l 0.1478414,0.2331 0.651086,0.095 0.6510859,0.095 -0.4717618,-0.1836 -0.4717618,-0.1836 0.6132903,0.087 0.6132903,0.087 0,-0.102 c 0,-0.056 -0.089602,-0.2875 -0.1991148,-0.5142 l -0.1991148,-0.4122 0.2934672,0.3663 c 0.1614069,0.2015 0.2934672,0.4774 0.2934672,0.6133 l 0,0.247 -0.2358809,0.01 -0.2358809,0.01 0.4622541,0.256 0.4622543,0.256 0.2553656,-0.098 z"
         id="path4286" />
      <path
         style="fill:#6a5c5a"
         d="m 4.5068879,1048.2243 -0.6025901,-0.01 -0.3774094,-0.2087 c -0.2075752,-0.1149 -0.568473,-0.3818 -0.8019951,-0.5933 l -0.4245856,-0.3846 0,-0.8248 0,-0.8249 0.4305188,-0.4305 0.4305188,-0.4305 1.1262951,-0.2223 1.1262952,-0.2223 0.8491713,-0.5644 0.8491712,-0.5644 0.9178305,-8e-4 0.9178307,-8e-4 0.6861594,0.3571 c 0.3773873,0.1964 1.0478833,0.4548 1.4899893,0.5742 l 0.803829,0.2172 0.658632,0.6586 0.658633,0.6587 0,0.7419 0,0.7419 -0.365004,0.1953 c -0.200752,0.1074 -0.505798,0.1953 -0.677879,0.1953 l -0.312874,0 -0.479799,0.3775 -0.479798,0.3774 -0.455324,0 -0.455324,0 -0.4529374,-0.4888 -0.4529376,-0.4887 -1.7553324,0.2441 -1.7553323,0.244 -0.2465812,0.3391 -0.2465812,0.339 -0.60259,-0.01 z m 0.0393,-0.3716 c 0.1017545,0 0.2409814,-0.091 0.3093933,-0.2013 0.068412,-0.1107 0.094653,-0.2295 0.058313,-0.264 -0.03634,-0.034 -0.1755668,0.056 -0.3093933,0.2012 l -0.2433208,0.2641 0.1850078,0 z m -0.2644802,-0.3775 c 0.1556814,-0.1292 0.2830571,-0.2643 0.2830571,-0.3002 0,-0.036 -0.1273757,-0.016 -0.2830571,0.043 -0.1556814,0.06 -0.2830571,0.1948 -0.2830571,0.3002 l 0,0.1917 0.2830571,-0.235 z m 6.2587063,0.1258 0.125803,-0.1258 -0.125803,-0.1258 -0.125803,-0.1258 0,0.2516 0,0.2517 0.125803,-0.1259 z m -7.3146925,-0.3145 c 0.081577,0 0.3020191,-0.1698 0.489872,-0.3774 l 0.3415509,-0.3774 0.3831764,0 0.3831766,0 0.4418403,0.4151 0.4418404,0.4151 0.5610215,-0.3314 0.5610218,-0.3314 0,0.1652 0,0.1653 1.0250937,-0.2047 c 0.5638016,-0.1126 1.0874572,-0.2671 1.1636792,-0.3433 l 0.1385853,-0.1386 -0.3145078,0 -0.3145079,0 0,-0.2107 0,-0.2107 0.3772215,0.099 0.3772215,0.099 0.1056771,-0.171 0.1056771,-0.171 -0.4828986,0 -0.4828986,0 0,-0.3774 0,-0.3774 0.3302333,-0.015 0.3302332,-0.015 -0.5270358,-0.1922 -0.5270359,-0.1923 -0.5108401,0.1344 -0.5108401,0.1344 0.3673039,0.1354 0.3673041,0.1354 -0.4147405,0.1084 -0.4147407,0.1085 0.1237694,-0.2003 0.1237691,-0.2002 -0.2343035,0.1448 -0.2343035,0.1448 0.1579709,0.1539 c 0.086884,0.085 0.4127222,0.1907 0.724085,0.2356 l 0.5661141,0.082 -0.801995,-0.022 -0.8019951,-0.022 0,0.3945 c 0,0.217 -0.053639,0.4482 -0.1191976,0.5137 l -0.1191974,0.1192 -0.7937291,-0.4651 -0.793729,-0.4652 -0.4186439,0 -0.418644,0 -0.546617,0.5985 -0.5466171,0.5984 0.096629,0.1564 c 0.053146,0.086 0.163374,0.1563 0.2449504,0.1563 z m 5.0187853,-2.0757 c -0.051894,0 -0.094352,-0.043 -0.094352,-0.094 0,-0.052 0.042459,-0.094 0.094352,-0.094 0.051894,0 0.094352,0.042 0.094352,0.094 0,0.052 -0.042459,0.094 -0.094352,0.094 z m -1.7926948,2.0757 0.2516062,0 -0.125803,-0.1258 -0.1258032,-0.1258 -0.1258032,0.1258 -0.1258031,0.1258 0.2516063,0 z m 3.585389,0 c 0.103788,0 0.188705,-0.085 0.188705,-0.1887 0,-0.1038 -0.08492,-0.1887 -0.188705,-0.1887 -0.1037869,0 -0.1887041,0.085 -0.1887041,0.1887 0,0.1038 0.084917,0.1887 0.1887041,0.1887 z m 0.988496,0 0.175183,0 -0.08649,-0.2358 -0.08649,-0.2359 -0.212293,0.047 -0.212293,0.047 0,-0.1887 0,-0.1887 -0.217951,0 -0.217952,0 0.341551,0.3774 c 0.187853,0.2076 0.420383,0.3774 0.516734,0.3774 z m 1.700547,-0.417 0.330233,-0.1624 0,-0.2113 0,-0.2113 -0.421334,0.3595 -0.421334,0.3595 0.25572,-0.3302 0.255719,-0.3302 -0.677496,-0.2831 c -0.372623,-0.1557 -0.854274,-0.2831 -1.070337,-0.2831 -0.216063,0 -0.643376,0.1296 -0.949585,0.2879 -0.3062081,0.1584 -0.5567425,0.3312 -0.5567425,0.3841 0,0.053 0.1642516,0.01 0.3650038,-0.099 0.2007517,-0.1075 0.5404197,-0.1954 0.7548187,-0.1954 l 0.389815,0 0.360272,0.3603 c 0.19815,0.1981 0.51659,0.3956 0.707643,0.4388 l 0.34737,0.078 0.330234,-0.1623 z m -10.0416207,-0.1816 c 0.1012737,-0.1735 0.4853281,-0.5017 0.853454,-0.7292 l 0.6693198,-0.4137 0.5719744,0.1144 0.5719742,0.1144 0.5502331,0.3918 0.5502332,0.3918 0.00289,-0.6261 c 0.00159,-0.3444 0.065277,-0.7242 0.1415286,-0.844 0.076252,-0.1198 0.2235566,-0.2375 0.3273442,-0.2614 0.1037876,-0.024 0.3779548,-0.1298 0.6092605,-0.2352 l 0.4205559,-0.1916 0.6173201,0.1855 0.6173201,0.1856 -0.044912,0.2135 -0.044912,0.2135 0.25994,-0.1 0.2599398,-0.1 -0.046415,-0.318 -0.046415,-0.3181 0.081106,0.2359 c 0.044608,0.1297 0.1597959,0.2359 0.2559734,0.2359 l 0.1748684,0 0,-0.3834 0,-0.3833 -0.2819734,-0.1082 -0.2819733,-0.1082 0.087351,-0.1413 0.087351,-0.1414 -0.4232515,-0.1928 -0.4232513,-0.1929 -0.9389407,0.1425 c -0.5164173,0.078 -0.9601698,0.1528 -0.9861167,0.1653 -0.025947,0.012 -0.1371049,0.023 -0.2470177,0.023 l -0.1998415,0 0.1290772,0.2089 0.1290773,0.2088 0.162227,-0.256 0.162227,-0.256 0.00289,0.2224 c 0.00159,0.1223 0.1363309,0.3558 0.2994257,0.5189 l 0.2965365,0.2966 -0.208106,0 -0.2081062,0 -0.1269181,-0.3303 -0.1269183,-0.3302 -0.1314062,0.4718 -0.1314064,0.4717 -0.01881,-0.4246 -0.01881,-0.4245 -0.2830571,0 -0.2830571,0 0,0.1887 c 0,0.1037 -0.063688,0.1744 -0.1415285,0.1569 -0.077841,-0.017 -0.481197,0.038 -0.8963474,0.1228 -0.4151504,0.085 -0.9421482,0.2765 -1.1711061,0.4255 l -0.4162871,0.2708 -0.1875353,-0.1159 -0.1875351,-0.1159 -0.2085829,0.4299 -0.2085828,0.4299 0.2934672,-0.3663 0.2934672,-0.3663 0,0.2266 c 0,0.1246 -0.1698342,0.372 -0.3774094,0.5497 l -0.3774095,0.3232 0.00574,0.477 0.00574,0.477 0.1841339,-0.3156 z m 1.7386129,-1.291 -0.2358809,0 0,-0.3774 0,-0.3774 0.6604666,0 0.6604665,0 0,0.261 0,0.2611 -0.4245856,0.1138 c -0.2335221,0.062 -0.5307321,0.1149 -0.6604666,0.1163 z m 1.7455187,0 c -0.051894,0 -0.094352,-0.043 -0.094352,-0.094 0,-0.052 0.042459,-0.094 0.094352,-0.094 0.051894,0 0.094352,0.042 0.094352,0.094 0,0.052 -0.042459,0.094 -0.094352,0.094 z m -0.1541502,-0.5307 -0.099111,0.2476 -0.014898,-0.3616 -0.014898,-0.3617 0.1140092,0.114 0.114009,0.114 -0.099111,0.2477 z m 2.7960163,-0.4345 c -0.1037876,-0.01 -0.4009975,-0.084 -0.6604665,-0.167 l -0.4717618,-0.1511 0.3774094,-0.016 c 0.2075752,-0.01 0.5047851,0.066 0.6604665,0.167 l 0.2830571,0.1829 -0.1887047,-0.016 z m 0.057908,-0.6338 -0.105636,0.1056 -0.1288445,-0.3383 -0.1288446,-0.3384 0.2344805,0.2327 0.2344805,0.2328 -0.1056359,0.1056 z m 0.5082059,3.1086 c 0.051894,0 0.094352,-0.042 0.094352,-0.094 0,-0.052 -0.042459,-0.094 -0.094352,-0.094 -0.051894,0 -0.094352,0.043 -0.094352,0.094 0,0.052 0.042459,0.094 0.094352,0.094 z m -6.3216081,-0.283 c 0.1037876,-0.064 0.1887047,-0.1591 0.1887047,-0.211 0,-0.052 -0.084917,-0.042 -0.1887047,0.022 -0.1037876,0.064 -0.1887047,0.1591 -0.1887047,0.2109 0,0.052 0.084917,0.042 0.1887047,-0.022 z m 9.6711172,-0.6036 c 0.07784,-0.043 0.141528,-0.1428 0.141528,-0.2207 0,-0.078 -0.13206,-0.3063 -0.293467,-0.5078 l -0.293467,-0.3663 0.214403,0.4408 c 0.117923,0.2424 0.175695,0.4794 0.128385,0.5267 -0.04731,0.047 -0.221629,-0.2529 -0.387374,-0.6671 l -0.301354,-0.7532 -0.370328,-0.1981 c -0.203681,-0.1091 -0.406728,-0.1982 -0.451215,-0.1982 -0.04449,0 -0.08227,0.191 -0.08396,0.4245 -0.0017,0.2336 -0.01333,0.5412 -0.02587,0.6836 l -0.0228,0.259 -0.283057,-0.2349 -0.283057,-0.2349 0,-0.3484 0,-0.3484 0.285197,0.1095 0.285197,0.1094 -0.116682,-0.3041 -0.116682,-0.304 -0.331052,0 -0.331052,0 0.08973,0.4694 0.08973,0.4694 -0.2957258,0.1135 -0.2957262,0.1134 0.2000755,0.3204 0.2000755,0.3204 0.601905,-0.07 0.601906,-0.07 0.651599,0.2729 c 0.35838,0.15 0.715288,0.2372 0.793129,0.1937 z m -3.0192758,-0.2713 c 0.077841,0.014 0.1415285,-0.059 0.1415285,-0.163 0,-0.1038 -0.063688,-0.195 -0.1415285,-0.2027 -0.077841,-0.01 -0.3325921,-0.05 -0.5661142,-0.093 l -0.4245856,-0.079 0,0.1744 0,0.1744 0.4245856,0.082 c 0.2335221,0.045 0.4882735,0.093 0.5661142,0.1075 z m 1.1794048,-0.7291 c 0.05189,0 0.09435,-0.043 0.09435,-0.094 0,-0.052 -0.04246,-0.094 -0.09435,-0.094 -0.05189,0 -0.09435,0.042 -0.09435,0.094 0,0.052 0.04246,0.094 0.09435,0.094 z"
         id="path4284" />
      <path
         style="fill:#8c6232"
         d="m 4.5068879,1048.2152 c -0.3314246,-0.01 -0.7092656,-0.058 -0.8396468,-0.1105 l -0.2370565,-0.096 0.1246846,-0.2017 0.1246845,-0.2018 -0.2318305,0.1433 -0.2318306,0.1433 -0.4577925,-0.4301 -0.4577924,-0.4301 0,-0.8248 0,-0.8249 0.4305188,-0.4305 0.4305188,-0.4305 1.1262951,-0.2223 1.1262952,-0.2223 0.8491713,-0.5644 0.8491712,-0.5644 0.9178305,-8e-4 0.9178307,-8e-4 0.6861594,0.3571 c 0.3773873,0.1964 1.0478833,0.4548 1.4899893,0.5742 l 0.803829,0.2172 0.658632,0.6586 0.658633,0.6587 0,0.7419 0,0.7419 -0.398556,0.2133 -0.398555,0.2133 -0.444905,-0.085 -0.444906,-0.085 0.0918,0.1485 0.0918,0.1485 -0.422555,0.296 -0.422554,0.296 -0.438784,0 -0.438785,0 -0.4529374,-0.4888 -0.4529376,-0.4887 -1.7553324,0.2441 -1.7553323,0.244 -0.2465812,0.3391 -0.2465812,0.339 -0.60259,-0.015 z m 0.1522288,-0.4411 0.1887048,-0.047 0.065493,-0.3617 0.065493,-0.3618 -0.2402723,0.2314 -0.2402722,0.2314 -0.249806,-0.2074 -0.2498062,-0.2073 0,0.2905 0,0.2904 0.2358809,0.094 c 0.1297345,0.052 0.320798,0.073 0.4245856,0.047 z m 5.8161493,-0.125 c 0.08525,0.01 0.276317,-0.1065 0.424585,-0.2547 0.148268,-0.1483 0.269579,-0.3606 0.269579,-0.4718 l 0,-0.2022 -0.179328,0 c -0.09863,0 -0.27252,0.1486 -0.38642,0.3303 l -0.207092,0.3302 0.116079,-0.4246 c 0.06384,-0.2335 0.07484,-0.4246 0.02444,-0.4246 -0.0504,0 -0.225956,0.052 -0.390126,0.1146 l -0.2984905,0.1145 0,0.3415 0,0.3415 0.2358805,0.095 c 0.129735,0.052 0.305635,0.1019 0.390889,0.1101 z m -7.2606816,-0.3626 c 0.087702,0 0.3131558,-0.1698 0.5010087,-0.3774 l 0.3415509,-0.3774 0.3831764,0 0.3831766,0 0.4418403,0.4151 0.4418404,0.4151 0.5610215,-0.3314 0.5610218,-0.3314 0,0.1652 0,0.1653 1.0250937,-0.2047 c 0.5638016,-0.1126 1.0874572,-0.2671 1.1636792,-0.3433 l 0.1385853,-0.1386 -0.3616839,-0.019 -0.3616842,-0.019 0.4717618,-0.1394 0.4717618,-0.1394 -0.044912,-0.2124 -0.044913,-0.2124 0.2807934,0.1077 0.2807933,0.1078 0,-0.1887 c 0,-0.1038 -0.1486049,-0.2538 -0.3302332,-0.3332 -0.1816283,-0.08 -0.4002329,-0.1289 -0.4857882,-0.1099 l -0.155555,0.035 0.1100256,-0.178 0.1100254,-0.178 -0.5635204,-0.1238 -0.5635206,-0.1237 -0.38439,0.122 -0.38439,0.122 0.111119,0.1797 0.1111189,0.1798 -0.2362909,-0.052 -0.2362908,-0.052 -0.1808974,0.5662 c -0.099494,0.3113 -0.2095647,0.6734 -0.2446025,0.8046 l -0.063705,0.2386 -0.9337668,-0.5214 -0.933767,-0.5213 -0.627942,0.2299 -0.6279417,0.23 0.3774094,-0.2909 0.3774095,-0.2908 0.6150832,0.096 0.6150832,0.096 0.5643213,0.4018 0.5643213,0.4018 0,-0.6626 0,-0.6627 0.555852,-0.3283 c 0.3057186,-0.1806 0.5264786,-0.3765 0.4905777,-0.4353 l -0.065274,-0.1069 0.7668147,-0.01 0.7668148,-0.01 -0.2328805,0.078 -0.2328806,0.078 0.5066961,0.2629 c 0.2786827,0.1446 0.5444593,0.2629 0.5906148,0.2629 0.046155,0 0.022834,-0.1062 -0.051824,-0.2359 l -0.1357435,-0.2359 0.1717829,0.1573 c 0.09448,0.087 0.1791166,0.2138 0.1880804,0.283 0.00896,0.069 0.07591,0.2593 0.1487686,0.4223 l 0.1324719,0.2965 0.552903,-0.081 0.552903,-0.081 0.602685,0.2101 c 0.331477,0.1156 0.632488,0.1803 0.668914,0.1439 0.03643,-0.036 -0.06212,-0.3734 -0.218993,-0.7489 l -0.285223,-0.6826 -0.365315,-0.1955 c -0.200923,-0.1076 -0.401714,-0.1955 -0.446201,-0.1955 -0.04449,0 -0.08227,0.191 -0.08396,0.4245 -0.0017,0.2336 -0.01333,0.5412 -0.02587,0.6836 l -0.0228,0.259 -0.283057,-0.2349 -0.283057,-0.2349 0,-0.3484 0,-0.3484 0.285197,0.1095 0.285197,0.1094 -0.116682,-0.3041 -0.116682,-0.304 -0.352659,0 -0.352659,0 -0.6178516,-0.3767 c -0.3398183,-0.2072 -0.6919368,-0.3771 -0.7824858,-0.3775 l -0.1646343,-7e-4 0.2557347,0.3303 0.2557349,0.3302 -0.4137298,-0.3526 -0.41373,-0.3526 -0.5265417,0.1485 c -0.2895979,0.082 -0.5902296,0.1661 -0.6680703,0.1875 -0.077841,0.021 -0.2405986,0.05 -0.3616842,0.063 l -0.2201553,0.024 0.1415285,0.1416 c 0.077841,0.078 0.2335221,0.1415 0.3459586,0.1415 l 0.20443,0 0.077268,0.2831 0.077268,0.283 -0.2001813,-0.283 -0.2001814,-0.2831 -0.00578,0.2831 -0.00578,0.283 -0.1601954,-0.2527 -0.1601954,-0.2528 -1.0163195,0.3274 c -0.5589756,0.18 -1.2500159,0.4473 -1.5356446,0.5939 l -0.5193247,0.2665 -0.192272,-0.1189 -0.1922719,-0.1188 -0.2791025,0.668 c -0.1535064,0.3674 -0.2778022,0.8618 -0.276213,1.0986 l 0.00289,0.4307 0.1829256,-0.2831 0.1829255,-0.283 0.026478,0.1415 c 0.014563,0.078 0.047707,0.2264 0.073654,0.3302 0.025947,0.1038 0.057791,0.2312 0.070764,0.2831 0.012974,0.052 0.095344,0.094 0.1830459,0.094 z m -0.2538102,-1.5096 c -0.051894,0 -0.094352,-0.043 -0.094352,-0.094 0,-0.052 0.042458,-0.094 0.094352,-0.094 0.051894,0 0.094352,0.043 0.094352,0.094 0,0.052 -0.042459,0.094 -0.094352,0.094 z m 5.1893799,0 -0.2516063,0 0.1258031,-0.1258 0.1258032,-0.1258 0.1258032,0.1258 0.125803,0.1258 -0.2516062,0 z m 0.4717618,0 c -0.051894,0 -0.094352,-0.043 -0.094352,-0.094 0,-0.052 0.042459,-0.094 0.094352,-0.094 0.051894,0 0.094352,0.043 0.094352,0.094 0,0.052 -0.042459,0.094 -0.094352,0.094 z m -5.4409861,-0.4403 -0.1258032,0.1258 0,-0.2516 0,-0.2516 0.1258032,0.1258 0.125803,0.1258 -0.125803,0.1258 z m 1.242306,0.06 -0.2358809,0 0,-0.3774 0,-0.3774 0.6604666,0 0.6604665,0 0,0.261 0,0.2611 -0.4245856,0.1138 c -0.2335221,0.062 -0.5307321,0.1149 -0.6604666,0.1163 z m 1.7455187,0 c -0.051894,0 -0.094352,-0.043 -0.094352,-0.094 0,-0.052 0.042459,-0.094 0.094352,-0.094 0.051894,0 0.094352,0.042 0.094352,0.094 0,0.052 -0.042459,0.094 -0.094352,0.094 z m -0.1887047,-0.3774 c -0.051894,0 -0.094352,-0.043 -0.094352,-0.094 0,-0.052 0.042459,-0.094 0.094352,-0.094 0.051894,0 0.094352,0.042 0.094352,0.094 0,0.052 -0.042459,0.094 -0.094352,0.094 z m 4.1821272,-0.3302 -0.09518,0.2358 0,-0.4717 0,-0.4718 0.09518,0.2359 0.09518,0.2359 -0.09518,0.2359 z m -5.6603141,2.5317 0.125803,-0.1258 -0.125803,-0.1258 -0.1258033,-0.1258 0,0.2516 0,0.2516 0.1258033,-0.1258 z m 1.9499487,0.063 0.2516062,0 -0.125803,-0.1258 -0.1258032,-0.1258 -0.1258032,0.1258 -0.1258031,0.1258 0.2516063,0 z m 6.2744324,-0.3424 0.330233,-0.079 0,-0.2903 0,-0.2903 -0.421334,0.3595 -0.421334,0.3595 0.255735,-0.3302 0.255735,-0.3303 -0.140564,0 -0.140564,0 0.224905,-0.271 0.224906,-0.271 -0.19516,-0.3646 -0.195161,-0.3647 0.100268,-0.1003 0.100268,-0.1002 -0.191395,-0.1183 -0.191396,-0.1183 0.06824,0.3353 c 0.03753,0.1844 0.123801,0.4753 0.191705,0.6464 l 0.123463,0.3111 -0.170433,0.1054 -0.170433,0.1053 -0.67152,-0.2061 -0.671521,-0.2061 -0.444668,0.1117 c -0.244568,0.061 -0.6145026,0.2474 -0.8220778,0.4133 l -0.3774095,0.3016 0.41218,-0.1991 c 0.2266993,-0.1095 0.5875963,-0.1991 0.8019953,-0.1991 l 0.389815,0 0.360272,0.3603 c 0.19815,0.1981 0.51659,0.3936 0.707643,0.4343 0.191054,0.041 0.495975,0.039 0.677604,0 z m -3.3495093,-0.035 c 0.051894,0 0.094352,-0.042 0.094352,-0.094 0,-0.052 -0.042459,-0.094 -0.094352,-0.094 -0.051894,0 -0.094352,0.043 -0.094352,0.094 0,0.052 0.042459,0.094 0.094352,0.094 z m 1.5096383,-1.887 c 0.05189,0 0.09435,-0.043 0.09435,-0.094 0,-0.052 -0.04246,-0.094 -0.09435,-0.094 -0.05189,0 -0.09435,0.042 -0.09435,0.094 0,0.052 0.04246,0.094 0.09435,0.094 z"
         id="path4282" />
      <path
         style="fill:#992a2f"
         d="m 4.5068879,1048.2152 c -0.3314246,-0.01 -0.7092656,-0.058 -0.8396468,-0.1105 l -0.2370565,-0.096 0.1246846,-0.2017 0.1246845,-0.2018 -0.2318305,0.1433 -0.2318306,0.1433 -0.4577925,-0.4301 -0.4577924,-0.4301 0,-0.8248 0,-0.8249 0.4305188,-0.4305 0.4305188,-0.4305 1.1262951,-0.2223 1.1262952,-0.2223 0.8491713,-0.5644 0.8491712,-0.5644 0.9178305,-8e-4 0.9178307,-8e-4 0.6861594,0.3571 c 0.3773873,0.1964 1.0478833,0.4548 1.4899893,0.5742 l 0.803829,0.2172 0.658632,0.6586 0.658633,0.6587 0,0.7419 0,0.7419 -0.398556,0.2133 -0.398555,0.2133 -0.444905,-0.085 -0.444906,-0.085 0.0918,0.1485 0.0918,0.1485 -0.422555,0.296 -0.422554,0.296 -0.438784,0 -0.438785,0 -0.4529374,-0.4888 -0.4529376,-0.4887 -1.7553324,0.2441 -1.7553323,0.244 -0.2465812,0.3391 -0.2465812,0.339 -0.60259,-0.015 z m 0.1522288,-0.4411 0.1887048,-0.047 0.065493,-0.3617 0.065493,-0.3618 -0.2402723,0.2314 -0.2402722,0.2314 -0.249806,-0.2074 -0.2498062,-0.2073 0,0.2905 0,0.2904 0.2358809,0.094 c 0.1297345,0.052 0.320798,0.073 0.4245856,0.047 z m 5.8161493,-0.125 c 0.08525,0.01 0.276317,-0.1065 0.424585,-0.2547 0.148268,-0.1483 0.269579,-0.3606 0.269579,-0.4718 0,-0.1112 -0.06793,-0.2022 -0.150964,-0.2022 -0.08303,0 -0.257896,0.1062 -0.38859,0.2359 l -0.237625,0.2359 0.125721,-0.3302 c 0.06915,-0.1817 0.08112,-0.3303 0.02661,-0.3303 -0.05451,0 -0.233429,0.052 -0.397599,0.1146 l -0.2984905,0.1145 0,0.3415 0,0.3415 0.2358805,0.095 c 0.129735,0.052 0.305635,0.1019 0.390889,0.1101 z m -7.2606816,-0.3626 c 0.087702,0 0.3131558,-0.1698 0.5010087,-0.3774 l 0.3415509,-0.3774 0.3831764,0 0.3831766,0 0.4447393,0.4178 0.4447395,0.4178 0.3668574,-0.2291 c 0.2017716,-0.126 0.4316974,-0.2278 0.5109464,-0.2262 0.079249,0 0.016714,0.092 -0.138968,0.2011 l -0.2830571,0.1982 0.4161447,-0.1168 c 0.2288797,-0.064 0.8462759,-0.1847 1.3719918,-0.2678 0.5257159,-0.083 0.975329,-0.1848 0.9991405,-0.2259 0.023812,-0.041 0.243254,-0.302 0.4876498,-0.5797 l 0.4443559,-0.505 -0.1559924,-0.2498 c -0.085796,-0.1374 -0.1721551,-0.3564 -0.1919097,-0.4866 l -0.035917,-0.2368 0.1752174,0.1083 0.1752174,0.1083 -0.080697,0.1305 c -0.044383,0.072 0.017919,0.257 0.1384506,0.4116 l 0.2191475,0.281 0.754819,0 c 0.41515,0 0.958727,0.076 1.20795,0.1633 l 0.453131,0.1583 -0.120737,-0.3147 -0.120736,-0.3146 0.199408,0.1232 0.199408,0.1233 -0.101295,0.2639 -0.101294,0.264 0.277134,0 0.277135,0 -0.006,-0.1415 c -0.0033,-0.078 -0.127956,-0.3027 -0.277012,-0.4996 l -0.271011,-0.358 0.09139,-0.1479 0.09139,-0.1478 -0.22094,-0.1366 -0.220939,-0.1365 0.126587,0.2048 0.126587,0.2048 -0.191783,0.1185 -0.191783,0.1186 0,-0.2835 0,-0.2835 -0.419397,-0.2938 c -0.230669,-0.1615 -0.490432,-0.2937 -0.577251,-0.2937 l -0.157854,0 0.119483,0.2358 0.119483,0.2359 -0.270678,-0.3302 -0.270678,-0.3302 -0.304869,0 c -0.167678,0 -0.5829017,-0.1696 -0.9227199,-0.3767 -0.3398183,-0.2072 -0.6919368,-0.3771 -0.7824858,-0.3775 l -0.1646343,-7e-4 0.2557347,0.3303 0.2557349,0.3302 -0.4137298,-0.3526 -0.41373,-0.3526 -0.5265417,0.1485 c -0.2895979,0.082 -0.5902296,0.1661 -0.6680703,0.1875 -0.077841,0.021 -0.2405986,0.05 -0.3616842,0.063 l -0.2201553,0.024 0.1415285,0.1416 c 0.077841,0.078 0.2335221,0.1415 0.3459586,0.1415 l 0.20443,0 0.077268,0.2831 0.077268,0.283 -0.2001813,-0.283 -0.2001814,-0.2831 -0.00578,0.2831 -0.00578,0.283 -0.1601954,-0.2527 -0.1601954,-0.2528 -1.0163195,0.3274 c -0.5589756,0.18 -1.2500159,0.4473 -1.5356446,0.5939 l -0.5193247,0.2665 -0.192272,-0.1189 -0.1922719,-0.1188 -0.2791025,0.668 c -0.1535064,0.3674 -0.2778022,0.8618 -0.276213,1.0986 l 0.00289,0.4307 0.1829256,-0.2831 0.1829255,-0.283 0.026478,0.1415 c 0.014563,0.078 0.047707,0.2264 0.073654,0.3302 0.025947,0.1038 0.057791,0.2312 0.070764,0.2831 0.012974,0.052 0.095344,0.094 0.1830459,0.094 z m 3.2844034,-0.6939 -0.1415286,0.083 -0.8817045,-0.4964 -0.8817047,-0.4963 -0.6279331,0.2299 -0.6279332,0.23 0.3774094,-0.2909 0.3774095,-0.2908 0.6150832,0.096 0.6150832,0.096 0.5643213,0.4018 0.5643213,0.4018 0,-0.6516 0,-0.6516 0.518938,-0.332 0.5189379,-0.332 -0.4245856,0.464 -0.4245856,0.464 0,0.4956 0,0.4956 -0.1415285,0.083 z m -3.5382136,-0.8157 c -0.051894,0 -0.094352,-0.043 -0.094352,-0.094 0,-0.052 0.042458,-0.094 0.094352,-0.094 0.051894,0 0.094352,0.043 0.094352,0.094 0,0.052 -0.042459,0.094 -0.094352,0.094 z m 0.2201556,-0.4403 -0.1258032,0.1258 0,-0.2516 0,-0.2516 0.1258032,0.1258 0.125803,0.1258 -0.125803,0.1258 z m 1.242306,0.06 -0.2358809,0 0,-0.3774 0,-0.3774 0.6604666,0 0.6604665,0 0,0.261 0,0.2611 -0.4245856,0.1138 c -0.2335221,0.062 -0.5307321,0.1149 -0.6604666,0.1163 z m 1.7455187,0 c -0.051894,0 -0.094352,-0.043 -0.094352,-0.094 0,-0.052 0.042459,-0.094 0.094352,-0.094 0.051894,0 0.094352,0.042 0.094352,0.094 0,0.052 -0.042459,0.094 -0.094352,0.094 z m 4.7176185,0 c -0.05189,0 -0.09435,-0.043 -0.09435,-0.094 0,-0.052 0.04246,-0.094 0.09435,-0.094 0.05189,0 0.09435,0.042 0.09435,0.094 0,0.052 -0.04246,0.094 -0.09435,0.094 z m -4.9063232,-0.3774 c -0.051894,0 -0.094352,-0.043 -0.094352,-0.094 0,-0.052 0.042459,-0.094 0.094352,-0.094 0.051894,0 0.094352,0.042 0.094352,0.094 0,0.052 -0.042459,0.094 -0.094352,0.094 z m 3.2662932,0 c -0.032072,0 -0.1856887,-0.085 -0.3413701,-0.1858 l -0.283057,-0.1829 0.2247441,0 c 0.1236093,0 0.2772257,0.082 0.34137,0.1858 0.064144,0.1038 0.090385,0.1874 0.058313,0.1858 z m 1.851008,0 c -0.05189,0 -0.146834,-0.085 -0.210978,-0.1887 -0.06414,-0.1038 -0.07417,-0.1887 -0.02227,-0.1887 0.05189,0 0.146834,0.085 0.210978,0.1887 0.06414,0.1038 0.07417,0.1887 0.02227,0.1887 z m -0.935174,-0.3302 -0.09518,0.2358 0,-0.4717 0,-0.4718 0.09518,0.2359 0.09518,0.2359 -0.09518,0.2359 z m -2.3782956,-0.047 c -0.097662,0 -0.2294485,-0.084 -0.292858,-0.1866 l -0.1152901,-0.1865 0.292858,0.1124 c 0.1610719,0.062 0.292858,0.1457 0.292858,0.1865 0,0.041 -0.079905,0.074 -0.1775679,0.074 z m 0.460625,-0.01 -0.1887047,0 0.2830571,-0.1829 c 0.1556814,-0.1006 0.3679742,-0.183 0.4717618,-0.183 l 0.1887047,0 -0.2830571,0.183 c -0.1556814,0.1006 -0.3679742,0.1829 -0.4717618,0.1829 z m 2.2959076,-0.057 -0.125803,0.1258 0,-0.2516 0,-0.2516 0.125803,0.1258 0.125803,0.1258 -0.125803,0.1258 z m -6.0385511,2.6418 0.125803,-0.1258 -0.125803,-0.1258 -0.1258033,-0.1258 0,0.2516 0,0.2516 0.1258033,-0.1258 z m 8.2243811,-0.2795 0.330233,-0.079 0,-0.2903 0,-0.2903 -0.421334,0.3595 -0.421334,0.3595 0.25572,-0.3302 0.255719,-0.3302 -0.677496,-0.2831 c -0.372623,-0.1557 -0.854274,-0.2831 -1.070337,-0.2831 -0.216063,0 -0.643376,0.1296 -0.949585,0.2879 -0.3062085,0.1584 -0.5567429,0.3312 -0.5567429,0.3841 0,0.053 0.1642516,0.01 0.3650038,-0.099 0.2007521,-0.1075 0.5404201,-0.1954 0.7548191,-0.1954 l 0.389815,0 0.360272,0.3603 c 0.19815,0.1981 0.51659,0.3936 0.707643,0.4343 0.191054,0.041 0.495975,0.039 0.677604,0 z m -3.3495093,-0.035 c 0.051894,0 0.094352,-0.042 0.094352,-0.094 0,-0.052 -0.042459,-0.094 -0.094352,-0.094 -0.051894,0 -0.094352,0.043 -0.094352,0.094 0,0.052 0.042459,0.094 0.094352,0.094 z"
         id="path4280" />
      <path
         style="fill:#672a2a"
         d="m 4.5068879,1048.2243 -0.6025901,-0.01 -0.3774094,-0.2087 c -0.2075752,-0.1149 -0.568473,-0.3818 -0.8019951,-0.5933 l -0.4245856,-0.3846 0,-0.8248 0,-0.8249 0.4305188,-0.4305 0.4305188,-0.4305 1.1262951,-0.2223 1.1262952,-0.2223 0.8491713,-0.5644 0.8491712,-0.5644 0.9178305,-8e-4 0.9178307,-8e-4 0.6861594,0.3571 c 0.3773873,0.1964 1.0478833,0.4548 1.4899893,0.5742 l 0.803829,0.2172 0.658632,0.6586 0.658633,0.6587 0,0.7419 0,0.7419 -0.365004,0.1953 c -0.200752,0.1074 -0.545432,0.1953 -0.765956,0.1953 l -0.400952,0 0.118528,-0.1917 0.118529,-0.1918 0.177354,0.1096 0.177354,0.1096 0.375721,-0.1193 0.375721,-0.1192 0,-0.2703 0,-0.2704 -0.330233,-0.022 -0.330234,-0.022 0.330234,-0.086 c 0.181628,-0.047 0.330233,-0.1599 0.330233,-0.25 0,-0.09 -0.07766,-0.2117 -0.172588,-0.2704 l -0.172587,-0.1067 -0.07584,0.2276 -0.07584,0.2275 -0.126822,-0.3305 -0.126822,-0.3305 0.211024,0.1304 0.211024,0.1304 -0.09525,-0.2621 -0.09524,-0.2622 -0.212293,0.047 -0.212293,0.047 0,-0.2089 0,-0.2089 0.283057,0.1086 c 0.155682,0.06 0.283057,0.07 0.283057,0.023 0,-0.047 -0.421762,-0.299 -0.93725,-0.5602 l -0.93725,-0.4749 -0.416001,0 -0.4159997,0 -0.3587854,-0.3247 -0.3587854,-0.3247 -1.1254321,-0.046 -1.125432,-0.046 0.1304059,0.211 0.1304061,0.211 -0.2026479,-0.1253 -0.2026477,-0.1252 -0.2903775,0.2904 c -0.1597076,0.1597 -0.6134904,0.4043 -1.008406,0.5437 -0.3949158,0.1393 -1.0781653,0.3141 -1.5183327,0.3885 l -0.8003041,0.1352 0.082703,0.1338 c 0.045486,0.074 0.00469,0.2572 -0.090661,0.4079 l -0.1733638,0.274 -0.00289,-0.2589 -0.00289,-0.259 -0.2456977,0.2039 -0.2456977,0.2039 -0.03728,0.7155 -0.03728,0.7156 0.1857357,0.283 0.1857357,0.2831 0.00709,-0.1887 0.00709,-0.1887 0.3907794,0.4717 0.3907793,0.4718 -0.1076383,-0.3345 -0.1076383,-0.3345 0.3731295,-0.3731 0.3731292,-0.3732 0.2830571,0 0.2830571,0 0.3836452,0.3837 0.3836452,0.3836 0.8901116,-0.1188 c 0.4895614,-0.065 1.1873217,-0.161 1.5505782,-0.2126 0.3632566,-0.052 0.8505913,-0.1072 1.0829661,-0.1234 l 0.4224994,-0.029 0.086828,-0.2263 0.086828,-0.2263 -0.3206231,0.1148 c -0.1763425,0.063 -0.2781643,0.077 -0.2262705,0.031 0.051894,-0.046 0.2592578,-0.208 0.460809,-0.3603 l 0.3664568,-0.2768 -0.1348044,0.2247 -0.1348043,0.2247 0.6175191,-0.097 0.617519,-0.097 0.332437,0.2493 0.332437,0.2494 0.08079,0.4218 0.08079,0.4219 -0.408035,0.2858 -0.408034,0.2858 -0.438784,0 -0.438785,0 -0.4529373,-0.4888 -0.4529376,-0.4887 -1.7553324,0.2441 -1.7553323,0.244 -0.2465812,0.3391 -0.2465812,0.339 -0.60259,-0.01 z m 0.1522288,-0.4502 0.1887048,-0.047 0.065493,-0.3617 0.065493,-0.3618 -0.2402723,0.2314 -0.2402722,0.2314 -0.249806,-0.2074 -0.2498062,-0.2073 0,0.2905 0,0.2904 0.2358809,0.094 c 0.1297345,0.052 0.320798,0.073 0.4245856,0.047 z m 5.8161493,-0.125 c 0.08525,0.01 0.276317,-0.1065 0.424585,-0.2547 0.148268,-0.1483 0.269579,-0.3697 0.269579,-0.492 l 0,-0.2224 -0.270866,0.104 -0.270865,0.1039 -0.06297,-0.1889 -0.06297,-0.1889 -0.326633,0.1254 -0.3266335,0.1253 0,0.3415 0,0.3415 0.2358805,0.095 c 0.129735,0.052 0.305635,0.1019 0.390889,0.1101 z m -7.5144918,-0.1739 c 0.051894,0 0.094352,-0.042 0.094352,-0.094 0,-0.052 -0.042459,-0.094 -0.094352,-0.094 -0.051894,0 -0.094352,0.043 -0.094352,0.094 0,0.052 0.042458,0.094 0.094352,0.094 z m 1.5410887,-0.2516 0.125803,-0.1258 -0.125803,-0.1258 -0.1258033,-0.1258 0,0.2516 0,0.2516 0.1258033,-0.1258 z m -1.3523839,-2.2015 c 0.051894,0 0.094352,-0.043 0.094352,-0.094 0,-0.052 -0.042458,-0.094 -0.094352,-0.094 -0.051894,0 -0.094352,0.042 -0.094352,0.094 0,0.052 0.042459,0.094 0.094352,0.094 z m -0.2719203,1.887 -0.1998415,0 0,-0.1887 c 0,-0.1038 0.037447,-0.1887 0.083216,-0.1887 0.045769,0 0.1356973,0.085 0.1998415,0.1887 l 0.116626,0.1887 -0.1998415,0 z m 9.6128043,-0.094 c -0.103788,0.064 -0.188705,0.074 -0.188705,0.022 0,-0.052 0.08492,-0.1469 0.188705,-0.211 0.103787,-0.064 0.188704,-0.074 0.188704,-0.022 0,0.052 -0.08492,0.1468 -0.188704,0.211 z m -6.1106302,-0.094 c -0.051894,0 -0.146834,-0.085 -0.2109783,-0.1887 -0.064144,-0.1038 -0.074167,-0.1887 -0.022274,-0.1887 0.051894,0 0.146834,0.085 0.2109783,0.1887 0.064144,0.1038 0.074167,0.1887 0.022274,0.1887 z m -0.5661142,-0.3774 c -0.051894,0 -0.1468339,-0.085 -0.2109783,-0.1887 -0.064144,-0.1038 -0.074167,-0.1887 -0.022273,-0.1887 0.051894,0 0.1468339,0.085 0.2109783,0.1887 0.064144,0.1038 0.074167,0.1887 0.022273,0.1887 z m -2.1923778,-0.283 c -0.1037876,0.064 -0.1887048,0.074 -0.1887048,0.022 0,-0.052 0.084917,-0.1468 0.1887048,-0.2109 0.1037876,-0.064 0.1887047,-0.074 0.1887047,-0.022 0,0.052 -0.084917,0.1468 -0.1887047,0.211 z m 8.5860652,0.094 c -0.05189,0 -0.09435,-0.042 -0.09435,-0.094 0,-0.052 0.04246,-0.094 0.09435,-0.094 0.05189,0 0.09435,0.043 0.09435,0.094 0,0.052 -0.04246,0.094 -0.09435,0.094 z m -6.9820751,-0.1887 c -0.051894,0 -0.094352,-0.042 -0.094352,-0.094 0,-0.052 0.042459,-0.094 0.094352,-0.094 0.051894,0 0.094352,0.043 0.094352,0.094 0,0.052 -0.042459,0.094 -0.094352,0.094 z m 1.3523839,-0.063 -0.1258032,0.1258 0,-0.2516 0,-0.2516 0.1258032,0.1258 0.125803,0.1258 -0.125803,0.1258 z m 3.5672172,0.063 c -0.05189,0 -0.1852446,-0.1698 -0.2963355,-0.3774 -0.1110908,-0.2076 -0.1595249,-0.3774 -0.1076311,-0.3774 0.051894,0 0.185245,0.1698 0.2963356,0.3774 0.111091,0.2076 0.159525,0.3774 0.107631,0.3774 z m 1.685064,0 c -0.05189,0 -0.09435,-0.042 -0.09435,-0.094 0,-0.052 0.04246,-0.094 0.09435,-0.094 0.05189,0 0.09435,0.043 0.09435,0.094 0,0.052 -0.04246,0.094 -0.09435,0.094 z m -7.5481887,-0.1887 c -0.051894,0 -0.094352,-0.043 -0.094352,-0.094 0,-0.052 0.042459,-0.094 0.094352,-0.094 0.051894,0 0.094352,0.043 0.094352,0.094 0,0.052 -0.042458,0.094 -0.094352,0.094 z m 0.3774094,0 c -0.051894,0 -0.094352,-0.043 -0.094352,-0.094 0,-0.052 0.042459,-0.094 0.094352,-0.094 0.051894,0 0.094352,0.043 0.094352,0.094 0,0.052 -0.042459,0.094 -0.094352,0.094 z m 5.8498463,0 c -0.05189,0 -0.09435,-0.043 -0.09435,-0.094 0,-0.052 0.04246,-0.094 0.09435,-0.094 0.05189,0 0.09435,0.043 0.09435,0.094 0,0.052 -0.04246,0.094 -0.09435,0.094 z m 0.754819,0 c -0.05189,0 -0.09435,-0.043 -0.09435,-0.094 0,-0.052 0.04246,-0.094 0.09435,-0.094 0.05189,0 0.09435,0.043 0.09435,0.094 0,0.052 -0.04246,0.094 -0.09435,0.094 z m -6.5519123,-0.4659 -0.2611715,0.1002 -0.1316715,-0.1316 c -0.072419,-0.072 -0.1316718,-0.2025 -0.1316718,-0.289 l 0,-0.1572 0.6604666,0 0.6604665,0 0,0.1887 0,0.1887 -0.2676235,0 c -0.1471927,0 -0.3851505,0.045 -0.5287948,0.1002 z m 1.4568848,0.089 c -0.051894,0 -0.094352,-0.043 -0.094352,-0.094 0,-0.052 0.042459,-0.094 0.094352,-0.094 0.051894,0 0.094352,0.042 0.094352,0.094 0,0.052 -0.042459,0.094 -0.094352,0.094 z m 0.4110642,0 c -0.1049999,0 -0.1555265,-0.022 -0.1122818,-0.049 0.043245,-0.027 0.2909198,-0.2181 0.5503888,-0.4246 l 0.4717618,-0.3754 -0.3594802,0.4246 c -0.197714,0.2335 -0.445389,0.4246 -0.5503886,0.4246 z M 9.18803,1045.023 c -0.051894,0 -0.094352,-0.043 -0.094352,-0.094 0,-0.052 0.042458,-0.094 0.094352,-0.094 0.051894,0 0.094352,0.042 0.094352,0.094 0,0.052 -0.042459,0.094 -0.094352,0.094 z m 0.5661142,0 c -0.051894,0 -0.094352,-0.043 -0.094352,-0.094 0,-0.052 0.042459,-0.094 0.094352,-0.094 0.051894,0 0.094352,0.042 0.094352,0.094 0,0.052 -0.042459,0.094 -0.094352,0.094 z m 1.3209328,0 c -0.05189,0 -0.09435,-0.043 -0.09435,-0.094 0,-0.052 0.04246,-0.094 0.09435,-0.094 0.05189,0 0.09435,0.042 0.09435,0.094 0,0.052 -0.04246,0.094 -0.09435,0.094 z m -2.2644564,-0.1887 c -0.051894,0 -0.094352,-0.043 -0.094352,-0.094 0,-0.052 0.042459,-0.094 0.094352,-0.094 0.051894,0 0.094352,0.042 0.094352,0.094 0,0.052 -0.042459,0.094 -0.094352,0.094 z m -0.9435236,-0.1887 c -0.051894,0 -0.094352,-0.043 -0.094352,-0.094 0,-0.052 0.042459,-0.094 0.094352,-0.094 0.051894,0 0.094352,0.042 0.094352,0.094 0,0.052 -0.042458,0.094 -0.094352,0.094 z m 0.3774094,0 c -0.051894,0 -0.094352,-0.043 -0.094352,-0.094 0,-0.052 0.042459,-0.094 0.094352,-0.094 0.051894,0 0.094352,0.042 0.094352,0.094 0,0.052 -0.042459,0.094 -0.094352,0.094 z m -0.7548189,-0.1887 c -0.051894,0 -0.094352,-0.042 -0.094352,-0.094 0,-0.052 0.042459,-0.094 0.094352,-0.094 0.051894,0 0.094352,0.042 0.094352,0.094 0,0.052 -0.042459,0.094 -0.094352,0.094 z m 1.3209331,0 c -0.051894,0 -0.094352,-0.042 -0.094352,-0.094 0,-0.052 0.042459,-0.094 0.094352,-0.094 0.051894,0 0.094352,0.042 0.094352,0.094 0,0.052 -0.042459,0.094 -0.094352,0.094 z m 2.2644564,0 c -0.05189,0 -0.09435,-0.042 -0.09435,-0.094 0,-0.052 0.04246,-0.094 0.09435,-0.094 0.05189,0 0.09435,0.042 0.09435,0.094 0,0.052 -0.04246,0.094 -0.09435,0.094 z m -4.3402083,-0.1887 c -0.051894,0 -0.094352,-0.043 -0.094352,-0.094 0,-0.052 0.042459,-0.094 0.094352,-0.094 0.051894,0 0.094352,0.042 0.094352,0.094 0,0.052 -0.042459,0.094 -0.094352,0.094 z m 0.3774094,-0.1887 c -0.051894,0 -0.094352,-0.043 -0.094352,-0.094 0,-0.052 0.042459,-0.094 0.094352,-0.094 0.051894,0 0.094352,0.042 0.094352,0.094 0,0.052 -0.042459,0.094 -0.094352,0.094 z m 1.5096378,-0.5662 c -0.051894,0 -0.094352,-0.042 -0.094352,-0.094 0,-0.052 0.042459,-0.094 0.094352,-0.094 0.051894,0 0.094352,0.043 0.094352,0.094 0,0.052 -0.042459,0.094 -0.094352,0.094 z"
         id="path4278" />
      <path
         style="fill:#221e1f"
         d="m 4.5068879,1048.2243 -0.6025901,-0.01 -0.3774094,-0.2087 c -0.2075752,-0.1149 -0.568473,-0.3818 -0.8019951,-0.5933 l -0.4245856,-0.3846 0,-0.8248 0,-0.8249 0.4305188,-0.4305 0.4305188,-0.4305 1.1262951,-0.2223 1.1262952,-0.2223 0.8491713,-0.5644 0.8491712,-0.5644 0.9178305,-8e-4 0.9178307,-8e-4 0.6861594,0.3571 c 0.3773873,0.1964 1.0478833,0.4548 1.4899893,0.5742 l 0.803829,0.2172 0.658632,0.6586 0.658633,0.6587 0,0.7419 0,0.7419 -0.365004,0.1953 c -0.200752,0.1074 -0.505798,0.1953 -0.677879,0.1953 l -0.312874,0 -0.479799,0.3775 -0.479798,0.3774 -0.455324,0 -0.455324,0 -0.4529374,-0.4888 -0.4529376,-0.4887 -1.7553324,0.2441 -1.7553323,0.244 -0.2465812,0.3391 -0.2465812,0.339 -0.60259,-0.01 z m -0.8847993,-0.8726 0.0952,-0.5369 0.7086215,-0.059 0.7086216,-0.059 0.1397018,0.3548 0.1397019,0.3548 1.6983425,-0.2508 c 0.9340884,-0.138 1.8257182,-0.2266 1.9813996,-0.1971 l 0.283057,0.054 0.2944602,-0.3585 0.2944601,-0.3586 0.5069542,0 0.506954,0 0.283638,0.2354 c 0.156001,0.1295 0.283638,0.3498 0.283638,0.4895 l 0,0.254 0.235881,-0.073 c 0.129734,-0.04 0.469403,-0.1238 0.754819,-0.1863 l 0.518938,-0.1138 0,-0.7367 0,-0.7367 -0.576024,-0.576 -0.576024,-0.576 -0.792086,-0.2137 c -0.435646,-0.1175 -1.100857,-0.3743 -1.4782445,-0.5707 l -0.6861594,-0.3571 -0.9178307,0 -0.9178305,0 -0.8221587,0.5572 -0.8221588,0.5571 -1.1426293,0.2248 -1.1426294,0.2248 -0.3468447,0.3468 -0.3468448,0.3469 0,0.8355 0,0.8354 0.518938,0.4091 0.518938,0.4091 0.0952,-0.5369 z m 1.331222,-2.1409 -0.5549774,0 -0.1166259,-0.1887 -0.1166259,-0.1887 0.6716033,0 0.6716033,0 0,0.1887 0,0.1887 -0.5549774,0 z m -0.4455254,2.6419 0.2575289,0 0.1159273,-0.3021 0.1159276,-0.3021 -0.2633786,-0.1637 -0.2633784,-0.1636 -0.063293,0.1839 -0.063294,0.1838 -0.1725874,-0.1067 -0.1725875,-0.1066 0,0.2627 c 0,0.1445 0.056611,0.3194 0.1258032,0.3886 0.069192,0.069 0.2416909,0.1258 0.3833318,0.1258 z m 5.9674808,-0.2036 c 0.08525,0.01 0.276317,-0.1065 0.424585,-0.2547 0.148268,-0.1483 0.269579,-0.3697 0.269579,-0.492 l 0,-0.2224 -0.292858,0.1124 -0.292858,0.1124 0.11529,-0.1865 0.11529,-0.1866 -0.184408,0 c -0.101424,0 -0.318729,0.052 -0.482899,0.1146 l -0.2984905,0.1145 0,0.3415 0,0.3415 0.2358805,0.095 c 0.129735,0.052 0.305635,0.1019 0.390889,0.1101 z"
         id="path4276" />
      <path
         style="fill:#000000"
         d="m 4.5068879,1048.2243 -0.6025901,-0.01 -0.3774094,-0.2087 c -0.2075752,-0.1149 -0.568473,-0.3818 -0.8019951,-0.5933 l -0.4245856,-0.3846 0,-0.8248 0,-0.8249 0.4305188,-0.4305 0.4305188,-0.4305 1.1262951,-0.2223 1.1262952,-0.2223 0.8491713,-0.5644 0.8491712,-0.5644 0.9178305,-8e-4 0.9178307,-8e-4 0.6861594,0.3571 c 0.3773873,0.1964 1.0478833,0.4548 1.4899893,0.5742 l 0.803829,0.2172 0.658632,0.6586 0.658633,0.6587 0,0.7419 0,0.7419 -0.365004,0.1953 c -0.200752,0.1074 -0.505798,0.1953 -0.677879,0.1953 l -0.312874,0 -0.479799,0.3775 -0.479798,0.3774 -0.455324,0 -0.455324,0 -0.4529374,-0.4888 -0.4529376,-0.4887 -1.7553324,0.2441 -1.7553323,0.244 -0.2465812,0.3391 -0.2465812,0.339 -0.60259,-0.01 z m -0.015209,-0.1829 0.625921,0 0.1791243,-0.3347 0.1791242,-0.3347 1.836868,-0.2466 1.836868,-0.2465 0.4514451,0.4869 0.4514455,0.4869 0.438676,0 0.438677,0 0.479798,-0.3775 c 0.263889,-0.2075 0.608065,-0.3774 0.764834,-0.3774 0.156769,0 0.419356,-0.052 0.583526,-0.1145 l 0.298491,-0.1145 0,-0.7202 0,-0.7201 -0.576024,-0.576 -0.576024,-0.576 -0.792086,-0.2137 c -0.435646,-0.1175 -1.100857,-0.3743 -1.4782442,-0.5707 l -0.6861594,-0.3571 -0.9178307,8e-4 -0.9178305,9e-4 -0.8491712,0.5643 -0.8491713,0.5644 -1.1156168,0.2202 -1.1156169,0.2202 -0.3567784,0.3568 -0.3567784,0.3568 0.05711,0.8801 0.05711,0.8802 0.6411966,0.4308 0.6411965,0.4309 0.6259209,0 z"
         id="path4274" />
    </g>
  </g>
</svg>
