<?xml version="1.0" encoding="UTF-8" standalone="no"?>
<!-- Created with Inkscape (http://www.inkscape.org/) -->

<svg
   xmlns:dc="http://purl.org/dc/elements/1.1/"
   xmlns:cc="http://creativecommons.org/ns#"
   xmlns:rdf="http://www.w3.org/1999/02/22-rdf-syntax-ns#"
   xmlns:svg="http://www.w3.org/2000/svg"
   xmlns="http://www.w3.org/2000/svg"
   xmlns:sodipodi="http://sodipodi.sourceforge.net/DTD/sodipodi-0.dtd"
   xmlns:inkscape="http://www.inkscape.org/namespaces/inkscape"
   width="16"
   height="16"
   id="svg2"
   version="1.1"
   inkscape:version="0.47 r22583"
   sodipodi:docname="REST1-32.svg">
  <defs
     id="defs4">
    <inkscape:perspective
       sodipodi:type="inkscape:persp3d"
       inkscape:vp_x="0 : 526.18109 : 1"
       inkscape:vp_y="0 : 1000 : 0"
       inkscape:vp_z="744.09448 : 526.18109 : 1"
       inkscape:persp3d-origin="372.04724 : 350.78739 : 1"
       id="perspective10" />
    <inkscape:perspective
       id="perspective2824"
       inkscape:persp3d-origin="0.5 : 0.33333333 : 1"
       inkscape:vp_z="1 : 0.5 : 1"
       inkscape:vp_y="0 : 1000 : 0"
       inkscape:vp_x="0 : 0.5 : 1"
       sodipodi:type="inkscape:persp3d" />
    <inkscape:perspective
       id="perspective5878"
       inkscape:persp3d-origin="0.5 : 0.33333333 : 1"
       inkscape:vp_z="1 : 0.5 : 1"
       inkscape:vp_y="0 : 1000 : 0"
       inkscape:vp_x="0 : 0.5 : 1"
       sodipodi:type="inkscape:persp3d" />
    <inkscape:perspective
       id="perspective5921"
       inkscape:persp3d-origin="0.5 : 0.33333333 : 1"
       inkscape:vp_z="1 : 0.5 : 1"
       inkscape:vp_y="0 : 1000 : 0"
       inkscape:vp_x="0 : 0.5 : 1"
       sodipodi:type="inkscape:persp3d" />
    <inkscape:perspective
       id="perspective5943"
       inkscape:persp3d-origin="0.5 : 0.33333333 : 1"
       inkscape:vp_z="1 : 0.5 : 1"
       inkscape:vp_y="0 : 1000 : 0"
       inkscape:vp_x="0 : 0.5 : 1"
       sodipodi:type="inkscape:persp3d" />
    <inkscape:perspective
       id="perspective5989"
       inkscape:persp3d-origin="0.5 : 0.33333333 : 1"
       inkscape:vp_z="1 : 0.5 : 1"
       inkscape:vp_y="0 : 1000 : 0"
       inkscape:vp_x="0 : 0.5 : 1"
       sodipodi:type="inkscape:persp3d" />
    <inkscape:perspective
       id="perspective6011"
       inkscape:persp3d-origin="0.5 : 0.33333333 : 1"
       inkscape:vp_z="1 : 0.5 : 1"
       inkscape:vp_y="0 : 1000 : 0"
       inkscape:vp_x="0 : 0.5 : 1"
       sodipodi:type="inkscape:persp3d" />
    <inkscape:perspective
       id="perspective6033"
       inkscape:persp3d-origin="0.5 : 0.33333333 : 1"
       inkscape:vp_z="1 : 0.5 : 1"
       inkscape:vp_y="0 : 1000 : 0"
       inkscape:vp_x="0 : 0.5 : 1"
       sodipodi:type="inkscape:persp3d" />
    <inkscape:perspective
       id="perspective6245"
       inkscape:persp3d-origin="0.5 : 0.33333333 : 1"
       inkscape:vp_z="1 : 0.5 : 1"
       inkscape:vp_y="0 : 1000 : 0"
       inkscape:vp_x="0 : 0.5 : 1"
       sodipodi:type="inkscape:persp3d" />
    <inkscape:perspective
       id="perspective6269"
       inkscape:persp3d-origin="0.5 : 0.33333333 : 1"
       inkscape:vp_z="1 : 0.5 : 1"
       inkscape:vp_y="0 : 1000 : 0"
       inkscape:vp_x="0 : 0.5 : 1"
       sodipodi:type="inkscape:persp3d" />
    <inkscape:perspective
       id="perspective6364"
       inkscape:persp3d-origin="0.5 : 0.33333333 : 1"
       inkscape:vp_z="1 : 0.5 : 1"
       inkscape:vp_y="0 : 1000 : 0"
       inkscape:vp_x="0 : 0.5 : 1"
       sodipodi:type="inkscape:persp3d" />
    <inkscape:perspective
       id="perspective6396"
       inkscape:persp3d-origin="0.5 : 0.33333333 : 1"
       inkscape:vp_z="1 : 0.5 : 1"
       inkscape:vp_y="0 : 1000 : 0"
       inkscape:vp_x="0 : 0.5 : 1"
       sodipodi:type="inkscape:persp3d" />
  </defs>
  <sodipodi:namedview
     id="base"
     pagecolor="#ffffff"
     bordercolor="#666666"
     borderopacity="1.0"
     inkscape:pageopacity="0.0"
     inkscape:pageshadow="2"
     inkscape:zoom="8.671875"
     inkscape:cx="10.564203"
     inkscape:cy="2.743179"
     inkscape:document-units="px"
     inkscape:current-layer="layer1"
     showgrid="true"
     inkscape:window-width="1280"
     inkscape:window-height="780"
     inkscape:window-x="-8"
     inkscape:window-y="-8"
     inkscape:window-maximized="1">
    <inkscape:grid
       type="xygrid"
       id="grid6324"
       empspacing="5"
       visible="true"
       enabled="true"
       snapvisiblegridlinesonly="true" />
  </sodipodi:namedview>
  <metadata
     id="metadata7">
    <rdf:RDF>
      <cc:Work
         rdf:about="">
        <dc:format>image/svg+xml</dc:format>
        <dc:type
           rdf:resource="http://purl.org/dc/dcmitype/StillImage" />
        <dc:title></dc:title>
      </cc:Work>
    </rdf:RDF>
  </metadata>
  <g
     inkscape:label="Calque 1"
     inkscape:groupmode="layer"
     id="layer1"
     transform="translate(0,-1036.3622)">
    <g
       id="g6420"
       transform="matrix(1.1782181,0,0,1.2445625,-0.88310863,-255.1694)">
      <path
         style="fill:#bfbfbf"
         d="m 7.7543378,1049.4927 -1.8254967,0 0,-0.174 0,-0.1739 -0.4706862,0 -0.4706861,0 -0.7015747,-0.6956 -0.7015747,-0.6957 -0.2881364,0 -0.2881366,0 0,-0.3478 0,-0.3478 -0.1825497,0 -0.1825497,0 0,-0.3479 0,-0.3478 -0.1825496,0 -0.1825497,0 0,-1.7391 0,-1.7392 0.1825497,0 0.1825496,0 0,-0.3478 0,-0.3478 0.1825497,0 0.1825497,0 0,-0.3478 0,-0.3479 0.2881366,0 0.2881364,0 0.7015747,-0.6956 0.7015747,-0.6957 0.4706861,0 0.4706862,0 0,-0.1739 0,-0.1739 1.8254967,0 1.8254967,0 0,0.1739 0,0.1739 0.4706865,0 0.470686,0 0.701575,0.6957 0.701574,0.6956 0.288137,0 0.288136,0 0,0.3479 0,0.3478 0.18255,0 0.18255,0 0,0.3478 0,0.3478 0.182549,0 0.18255,0 0,1.7392 0,1.7391 -0.18255,0 -0.182549,0 0,0.3478 0,0.3479 -0.18255,0 -0.18255,0 0,0.3478 0,0.3478 -0.288136,0 -0.288137,0 -0.701574,0.6957 -0.701575,0.6956 -0.470686,0 -0.4706865,0 0,0.1739 0,0.174 -1.8254967,0 z"
         id="path6428" />
      <path
         style="fill:#7f7f7f"
         d="m 7.7543378,1049.4927 -1.8254967,0 0,-0.174 0,-0.1739 -0.4706862,0 -0.4706861,0 -0.7015747,-0.6956 -0.7015747,-0.6957 -0.2881364,0 -0.2881366,0 0,-0.3478 0,-0.3478 -0.1825497,0 -0.1825497,0 0,-0.3479 0,-0.3478 -0.1825496,0 -0.1825497,0 0,-1.7391 0,-1.7392 0.1825497,0 0.1825496,0 0,-0.3478 0,-0.3478 0.1825497,0 0.1825497,0 0,-0.3478 0,-0.3479 0.2881366,0 0.2881364,0 0.7015747,-0.6956 0.7015747,-0.6957 0.4706861,0 0.4706862,0 0,-0.1739 0,-0.1739 1.8254967,0 1.8254967,0 0,0.1739 0,0.1739 0.4706865,0 0.470686,0 0.701575,0.6957 0.701574,0.6956 0.288137,0 0.288136,0 0,0.3479 0,0.3478 0.18255,0 0.18255,0 0,0.3478 0,0.3478 0.182549,0 0.18255,0 0,1.7392 0,1.7391 -0.18255,0 -0.182549,0 0,0.3478 0,0.3479 -0.18255,0 -0.18255,0 0,0.3478 0,0.3478 -0.288136,0 -0.288137,0 -0.701574,0.6957 -0.701575,0.6956 -0.470686,0 -0.4706865,0 0,0.1739 0,0.174 -1.8254967,0 z m -1.095298,-1.3914 0.3650994,0 0,-2.2608 0,-2.2609 0.1825496,0 0.1825497,0 0,-1.2174 0,-1.2174 -0.1825497,0 -0.1825496,0 0,1.0435 0,1.0435 -0.1825497,0 -0.1825497,0 0,-1.0435 0,-1.0435 -0.1825497,0 -0.1825496,0 0,1.0435 0,1.0435 -0.1825497,0 -0.1825497,0 0,-1.0435 0,-1.0435 -0.1825496,0 -0.1825497,0 0,1.2174 0,1.2174 0.3650993,0 0.3650994,0 0,2.2609 0,2.2608 0.3650993,0 z m 2.5556954,0 0.3650993,0 0,-3.6521 0,-3.6522 -0.2868638,0 -0.2868637,0 -0.2607853,0.2484 -0.2607852,0.2485 0,1.8385 0,1.8385 0.1825497,0 0.1825497,0 0,1.5652 0,1.5652 0.3650993,0 z"
         id="path6426" />
      <path
         style="fill:#00007f"
         d="m 7.7543378,1049.4927 -1.4603973,0 0,-0.174 0,-0.1739 -0.547649,0 -0.5476491,0 0,-0.1739 0,-0.1739 -0.2786284,0 -0.2786285,0 -0.8166696,-0.778 -0.8166695,-0.7781 0,-0.2654 0,-0.2655 -0.1825497,0 -0.1825497,0 0,-0.3478 0,-0.3478 -0.1825496,0 -0.1825497,0 0,-1.3913 0,-1.3913 0.1825497,0 0.1825496,0 0,-0.3479 0,-0.3478 0.1825497,0 0.1825497,0 0,-0.2654 0,-0.2655 0.8166695,-0.778 0.8166696,-0.778 0.2786285,0 0.2786284,0 0,-0.174 0,-0.1739 0.5476491,0 0.547649,0 0,-0.1739 0,-0.1739 1.4603973,0 1.4603974,0 0,0.1739 0,0.1739 0.547649,0 0.5476488,0 0,0.1739 0,0.174 0.278629,0 0.278628,0 0.81667,0.778 0.816669,0.778 0,0.2655 0,0.2654 0.18255,0 0.18255,0 0,0.3478 0,0.3479 0.182549,0 0.18255,0 0,1.3913 0,1.3913 -0.18255,0 -0.182549,0 0,0.3478 0,0.3478 -0.18255,0 -0.18255,0 0,0.2655 0,0.2654 -0.816669,0.7781 -0.81667,0.778 -0.278628,0 -0.278629,0 0,0.1739 0,0.1739 -0.5476488,0 -0.547649,0 0,0.1739 0,0.174 -1.4603974,0 z m -1.095298,-1.3914 0.3650994,0 0,-2.2608 0,-2.2609 0.1825496,0 0.1825497,0 0,-1.2174 0,-1.2174 -0.9127484,0 -0.9127483,0 0,1.179 0,1.179 0.3650993,0.2507 0.3650994,0.2507 0,2.0486 0,2.0485 0.3650993,0 z m 2.5556954,0 0.3650993,0 0,-3.6521 0,-3.6522 -0.2868638,0 -0.2868637,0 -0.2607853,0.2484 -0.2607852,0.2485 0,1.8385 0,1.8385 0.1825497,0 0.1825497,0 0,1.5652 0,1.5652 0.3650993,0 z"
         id="path6424" />
      <path
         style="fill:#000000"
         d="m 7.7543378,1049.4927 -1.4603973,0 0,-0.174 0,-0.1739 -0.547649,0 -0.5476491,0 0,-0.1739 0,-0.1739 -0.2786284,0 -0.2786285,0 -0.8166696,-0.778 -0.8166695,-0.7781 0,-0.2654 0,-0.2655 -0.1825497,0 -0.1825497,0 0,-0.3478 0,-0.3478 -0.1825496,0 -0.1825497,0 0,-1.3913 0,-1.3913 0.1825497,0 0.1825496,0 0,-0.3479 0,-0.3478 0.1825497,0 0.1825497,0 0,-0.2654 0,-0.2655 0.8166695,-0.778 0.8166696,-0.778 0.2786285,0 0.2786284,0 0,-0.174 0,-0.1739 0.5476491,0 0.547649,0 0,-0.1739 0,-0.1739 1.4603973,0 1.4603974,0 0,0.1739 0,0.1739 0.547649,0 0.5476488,0 0,0.1739 0,0.174 0.278629,0 0.278628,0 0.81667,0.778 0.816669,0.778 0,0.2655 0,0.2654 0.18255,0 0.18255,0 0,0.3478 0,0.3479 0.182549,0 0.18255,0 0,1.3913 0,1.3913 -0.18255,0 -0.182549,0 0,0.3478 0,0.3478 -0.18255,0 -0.18255,0 0,0.2655 0,0.2654 -0.816669,0.7781 -0.81667,0.778 -0.278628,0 -0.278629,0 0,0.1739 0,0.1739 -0.5476488,0 -0.547649,0 0,0.1739 0,0.174 -1.4603974,0 z m 0,-0.3479 1.4603974,0 0,-0.1739 0,-0.1739 0.547649,0 0.5476488,0 0,-0.1739 0,-0.1739 0.27991,0 0.279909,0 0.632839,-0.6029 0.632839,-0.6029 0,-0.2667 0,-0.2667 0.18255,0 0.182549,0 0,-0.3478 0,-0.3478 0.18255,0 0.18255,0 0,-1.3913 0,-1.3913 -0.18255,0 -0.18255,0 0,-0.3479 0,-0.3478 -0.182549,0 -0.18255,0 0,-0.2666 0,-0.2667 -0.632839,-0.6029 -0.632839,-0.6029 -0.279909,0 -0.27991,0 0,-0.1739 0,-0.1739 -0.5476488,0 -0.547649,0 0,-0.174 0,-0.1739 -1.4603974,0 -1.4603973,0 0,0.1739 0,0.174 -0.547649,0 -0.5476491,0 0,0.1739 0,0.1739 -0.2799094,0 -0.2799096,0 -0.6328388,0.6029 -0.6328389,0.6029 0,0.2667 0,0.2666 -0.1825496,0 -0.1825497,0 0,0.3478 0,0.3479 -0.1825497,0 -0.1825497,0 0,1.3913 0,1.3913 0.1825497,0 0.1825497,0 0,0.3478 0,0.3478 0.1825497,0 0.1825496,0 0,0.2667 0,0.2667 0.6328389,0.6029 0.6328388,0.6029 0.2799096,0 0.2799094,0 0,0.1739 0,0.1739 0.5476491,0 0.547649,0 0,0.1739 0,0.1739 1.4603973,0 z"
         id="path6422" />
    </g>
  </g>
</svg>
