<?xml version="1.0" encoding="UTF-8" standalone="no"?>
<!-- Created with Inkscape (http://www.inkscape.org/) -->

<svg
   xmlns:dc="http://purl.org/dc/elements/1.1/"
   xmlns:cc="http://creativecommons.org/ns#"
   xmlns:rdf="http://www.w3.org/1999/02/22-rdf-syntax-ns#"
   xmlns:svg="http://www.w3.org/2000/svg"
   xmlns="http://www.w3.org/2000/svg"
   xmlns:sodipodi="http://sodipodi.sourceforge.net/DTD/sodipodi-0.dtd"
   xmlns:inkscape="http://www.inkscape.org/namespaces/inkscape"
   width="16"
   height="16"
   id="svg2"
   version="1.1"
   inkscape:version="0.47 r22583"
   sodipodi:docname="STAT1-32.svg">
  <defs
     id="defs4">
    <inkscape:perspective
       sodipodi:type="inkscape:persp3d"
       inkscape:vp_x="0 : 526.18109 : 1"
       inkscape:vp_y="0 : 1000 : 0"
       inkscape:vp_z="744.09448 : 526.18109 : 1"
       inkscape:persp3d-origin="372.04724 : 350.78739 : 1"
       id="perspective10" />
    <inkscape:perspective
       id="perspective2824"
       inkscape:persp3d-origin="0.5 : 0.33333333 : 1"
       inkscape:vp_z="1 : 0.5 : 1"
       inkscape:vp_y="0 : 1000 : 0"
       inkscape:vp_x="0 : 0.5 : 1"
       sodipodi:type="inkscape:persp3d" />
    <inkscape:perspective
       id="perspective5878"
       inkscape:persp3d-origin="0.5 : 0.33333333 : 1"
       inkscape:vp_z="1 : 0.5 : 1"
       inkscape:vp_y="0 : 1000 : 0"
       inkscape:vp_x="0 : 0.5 : 1"
       sodipodi:type="inkscape:persp3d" />
    <inkscape:perspective
       id="perspective5921"
       inkscape:persp3d-origin="0.5 : 0.33333333 : 1"
       inkscape:vp_z="1 : 0.5 : 1"
       inkscape:vp_y="0 : 1000 : 0"
       inkscape:vp_x="0 : 0.5 : 1"
       sodipodi:type="inkscape:persp3d" />
    <inkscape:perspective
       id="perspective5943"
       inkscape:persp3d-origin="0.5 : 0.33333333 : 1"
       inkscape:vp_z="1 : 0.5 : 1"
       inkscape:vp_y="0 : 1000 : 0"
       inkscape:vp_x="0 : 0.5 : 1"
       sodipodi:type="inkscape:persp3d" />
    <inkscape:perspective
       id="perspective5989"
       inkscape:persp3d-origin="0.5 : 0.33333333 : 1"
       inkscape:vp_z="1 : 0.5 : 1"
       inkscape:vp_y="0 : 1000 : 0"
       inkscape:vp_x="0 : 0.5 : 1"
       sodipodi:type="inkscape:persp3d" />
    <inkscape:perspective
       id="perspective6011"
       inkscape:persp3d-origin="0.5 : 0.33333333 : 1"
       inkscape:vp_z="1 : 0.5 : 1"
       inkscape:vp_y="0 : 1000 : 0"
       inkscape:vp_x="0 : 0.5 : 1"
       sodipodi:type="inkscape:persp3d" />
    <inkscape:perspective
       id="perspective6033"
       inkscape:persp3d-origin="0.5 : 0.33333333 : 1"
       inkscape:vp_z="1 : 0.5 : 1"
       inkscape:vp_y="0 : 1000 : 0"
       inkscape:vp_x="0 : 0.5 : 1"
       sodipodi:type="inkscape:persp3d" />
    <inkscape:perspective
       id="perspective6245"
       inkscape:persp3d-origin="0.5 : 0.33333333 : 1"
       inkscape:vp_z="1 : 0.5 : 1"
       inkscape:vp_y="0 : 1000 : 0"
       inkscape:vp_x="0 : 0.5 : 1"
       sodipodi:type="inkscape:persp3d" />
    <inkscape:perspective
       id="perspective6269"
       inkscape:persp3d-origin="0.5 : 0.33333333 : 1"
       inkscape:vp_z="1 : 0.5 : 1"
       inkscape:vp_y="0 : 1000 : 0"
       inkscape:vp_x="0 : 0.5 : 1"
       sodipodi:type="inkscape:persp3d" />
    <inkscape:perspective
       id="perspective6364"
       inkscape:persp3d-origin="0.5 : 0.33333333 : 1"
       inkscape:vp_z="1 : 0.5 : 1"
       inkscape:vp_y="0 : 1000 : 0"
       inkscape:vp_x="0 : 0.5 : 1"
       sodipodi:type="inkscape:persp3d" />
    <inkscape:perspective
       id="perspective6396"
       inkscape:persp3d-origin="0.5 : 0.33333333 : 1"
       inkscape:vp_z="1 : 0.5 : 1"
       inkscape:vp_y="0 : 1000 : 0"
       inkscape:vp_x="0 : 0.5 : 1"
       sodipodi:type="inkscape:persp3d" />
    <inkscape:perspective
       id="perspective6438"
       inkscape:persp3d-origin="0.5 : 0.33333333 : 1"
       inkscape:vp_z="1 : 0.5 : 1"
       inkscape:vp_y="0 : 1000 : 0"
       inkscape:vp_x="0 : 0.5 : 1"
       sodipodi:type="inkscape:persp3d" />
    <inkscape:perspective
       id="perspective6460"
       inkscape:persp3d-origin="0.5 : 0.33333333 : 1"
       inkscape:vp_z="1 : 0.5 : 1"
       inkscape:vp_y="0 : 1000 : 0"
       inkscape:vp_x="0 : 0.5 : 1"
       sodipodi:type="inkscape:persp3d" />
  </defs>
  <sodipodi:namedview
     id="base"
     pagecolor="#ffffff"
     bordercolor="#666666"
     borderopacity="1.0"
     inkscape:pageopacity="0.0"
     inkscape:pageshadow="2"
     inkscape:zoom="8.671875"
     inkscape:cx="10.564203"
     inkscape:cy="2.743179"
     inkscape:document-units="px"
     inkscape:current-layer="layer1"
     showgrid="true"
     inkscape:window-width="1280"
     inkscape:window-height="780"
     inkscape:window-x="-8"
     inkscape:window-y="-8"
     inkscape:window-maximized="1">
    <inkscape:grid
       type="xygrid"
       id="grid6324"
       empspacing="5"
       visible="true"
       enabled="true"
       snapvisiblegridlinesonly="true" />
  </sodipodi:namedview>
  <metadata
     id="metadata7">
    <rdf:RDF>
      <cc:Work
         rdf:about="">
        <dc:format>image/svg+xml</dc:format>
        <dc:type
           rdf:resource="http://purl.org/dc/dcmitype/StillImage" />
        <dc:title></dc:title>
      </cc:Work>
    </rdf:RDF>
  </metadata>
  <g
     inkscape:label="Calque 1"
     inkscape:groupmode="layer"
     id="layer1"
     transform="translate(0,-1036.3622)">
    <g
       id="g6466"
       transform="translate(-0.0374612,-0.5134)">
      <path
         style="fill:#bfbfbf"
         d="m 8.2914749,1050.3676 c -0.07638,0 -0.3001762,-0.2238 -0.4973242,-0.4973 l -0.3584509,-0.4974 -1.6857402,0 -1.6857402,0 0,-0.2486 0,-0.2487 -0.3842961,0 -0.3842958,0 -0.6103526,-0.6103 -0.6103523,-0.6104 0,-1.3789 0,-1.379 0.2486621,0 0.2486621,0 0,-1.1884 0,-1.1884 -0.4973242,-0.3585 -0.4973241,-0.3584 0,-0.3264 0,-0.3264 0.9148693,-0.9149 0.9148691,-0.9148 0.100501,0.3015 0.100501,0.3015 0.4766022,0 0.4766024,0 0,0.2486 0,0.2487 1.7199129,0 1.7199126,0 0.1450531,-0.3108 0.1450528,-0.3108 0.1450528,0.3108 0.145053,0.3108 1.7199123,0 1.719913,0 0,-0.2487 0,-0.2486 0.476603,0 0.476602,0 0.100501,-0.3015 0.100501,-0.3015 0.914869,0.9148 0.914869,0.9149 0,0.3264 0,0.3264 -0.497324,0.3584 -0.497324,0.3585 0,1.1884 0,1.1884 0.248662,0 0.248662,0 0,1.379 0,1.3789 -0.610352,0.6104 -0.610353,0.6103 -0.384296,0 -0.384296,0 0,0.2487 0,0.2486 -1.68574,0 -1.6857401,0 -0.3584508,0.4974 c -0.197148,0.2735 -0.4209439,0.4973 -0.4973242,0.4973 z"
         id="path6470" />
      <path
         style="fill:#000000"
         d="m 8.2914749,1050.3676 c -0.07638,0 -0.3001762,-0.2238 -0.4973242,-0.4973 l -0.3584509,-0.4974 -1.6857402,0 -1.6857402,0 0,-0.2486 0,-0.2487 -0.3842961,0 -0.3842958,0 -0.6103526,-0.6103 -0.6103523,-0.6104 0,-1.3789 0,-1.379 0.2486621,0 0.2486621,0 0,-1.1884 0,-1.1884 -0.4973242,-0.3585 -0.4973241,-0.3584 0,-0.3264 0,-0.3264 0.9148693,-0.9149 0.9148691,-0.9148 0.100501,0.3015 0.100501,0.3015 0.4766022,0 0.4766024,0 0,0.2486 0,0.2487 1.7199129,0 1.7199126,0 0.1450531,-0.3108 0.1450528,-0.3108 0.1450528,0.3108 0.145053,0.3108 1.7199123,0 1.719913,0 0,-0.2487 0,-0.2486 0.476603,0 0.476602,0 0.100501,-0.3015 0.100501,-0.3015 0.914869,0.9148 0.914869,0.9149 0,0.3264 0,0.3264 -0.497324,0.3584 -0.497324,0.3585 0,1.1884 0,1.1884 0.248662,0 0.248662,0 0,1.379 0,1.3789 -0.610352,0.6104 -0.610353,0.6103 -0.384296,0 -0.384296,0 0,0.2487 0,0.2486 -1.68574,0 -1.6857401,0 -0.3584508,0.4974 c -0.197148,0.2735 -0.4209439,0.4973 -0.4973242,0.4973 z m 0,-0.9947 0.7459863,0 0,-0.2486 0,-0.2487 1.7406348,0 1.740634,0 0,-0.2486 0,-0.2487 0.390755,0 0.390755,0 0.355231,-0.3552 0.355232,-0.3553 0,-1.3854 0,-1.3854 -0.248662,0 -0.248662,0 0,-0.4973 0,-0.4973 -5.2219041,0 -5.2219039,0 0,0.4973 0,0.4973 -0.2486621,0 -0.2486621,0 0,1.3854 0,1.3854 0.3552315,0.3553 0.3552317,0.3552 0.3907545,0 0.3907549,0 0,0.2487 0,0.2486 1.7406346,0 1.7406346,0 0,0.2487 0,0.2486 0.7459863,0 z m -0.050863,-6.4804 5.0467101,0.015 0.610353,-0.6103 c 0.335694,-0.3357 0.610352,-0.7324 0.610352,-0.8816 0,-0.1492 -0.299454,-0.5708 -0.665453,-0.9368 l -0.665454,-0.6654 -0.101255,0.3037 -0.101254,0.3038 -0.476602,0 -0.476603,0 0,0.2487 0,0.2486 -1.719913,0 -1.7199127,0 -0.145053,-0.3108 -0.1450528,-0.3108 -0.1450528,0.3108 -0.1450531,0.3108 -1.7199126,0 -1.7199129,0 0,-0.2486 0,-0.2487 -0.4766024,0 -0.4766022,0 -0.1012544,-0.3038 -0.1012545,-0.3037 -0.6654538,0.6654 c -0.3659995,0.366 -0.6654536,0.7865 -0.6654536,0.9343 0,0.1479 0.2517704,0.5378 0.5594897,0.8664 l 0.5594897,0.5976 5.0467103,0.015 z"
         id="path6468" />
    </g>
  </g>
</svg>
