<?xml version="1.0" encoding="UTF-8" standalone="no"?>
<!-- Created with Inkscape (http://www.inkscape.org/) -->

<svg
   xmlns:dc="http://purl.org/dc/elements/1.1/"
   xmlns:cc="http://creativecommons.org/ns#"
   xmlns:rdf="http://www.w3.org/1999/02/22-rdf-syntax-ns#"
   xmlns:svg="http://www.w3.org/2000/svg"
   xmlns="http://www.w3.org/2000/svg"
   xmlns:sodipodi="http://sodipodi.sourceforge.net/DTD/sodipodi-0.dtd"
   xmlns:inkscape="http://www.inkscape.org/namespaces/inkscape"
   width="16"
   height="16"
   id="svg2"
   version="1.1"
   inkscape:version="0.47 r22583"
   sodipodi:docname="STOP-64.svg">
  <defs
     id="defs4">
    <inkscape:perspective
       sodipodi:type="inkscape:persp3d"
       inkscape:vp_x="0 : 526.18109 : 1"
       inkscape:vp_y="0 : 1000 : 0"
       inkscape:vp_z="744.09448 : 526.18109 : 1"
       inkscape:persp3d-origin="372.04724 : 350.78739 : 1"
       id="perspective10" />
    <inkscape:perspective
       id="perspective2824"
       inkscape:persp3d-origin="0.5 : 0.33333333 : 1"
       inkscape:vp_z="1 : 0.5 : 1"
       inkscape:vp_y="0 : 1000 : 0"
       inkscape:vp_x="0 : 0.5 : 1"
       sodipodi:type="inkscape:persp3d" />
    <inkscape:perspective
       id="perspective5878"
       inkscape:persp3d-origin="0.5 : 0.33333333 : 1"
       inkscape:vp_z="1 : 0.5 : 1"
       inkscape:vp_y="0 : 1000 : 0"
       inkscape:vp_x="0 : 0.5 : 1"
       sodipodi:type="inkscape:persp3d" />
    <inkscape:perspective
       id="perspective5921"
       inkscape:persp3d-origin="0.5 : 0.33333333 : 1"
       inkscape:vp_z="1 : 0.5 : 1"
       inkscape:vp_y="0 : 1000 : 0"
       inkscape:vp_x="0 : 0.5 : 1"
       sodipodi:type="inkscape:persp3d" />
    <inkscape:perspective
       id="perspective5943"
       inkscape:persp3d-origin="0.5 : 0.33333333 : 1"
       inkscape:vp_z="1 : 0.5 : 1"
       inkscape:vp_y="0 : 1000 : 0"
       inkscape:vp_x="0 : 0.5 : 1"
       sodipodi:type="inkscape:persp3d" />
    <inkscape:perspective
       id="perspective5989"
       inkscape:persp3d-origin="0.5 : 0.33333333 : 1"
       inkscape:vp_z="1 : 0.5 : 1"
       inkscape:vp_y="0 : 1000 : 0"
       inkscape:vp_x="0 : 0.5 : 1"
       sodipodi:type="inkscape:persp3d" />
    <inkscape:perspective
       id="perspective6011"
       inkscape:persp3d-origin="0.5 : 0.33333333 : 1"
       inkscape:vp_z="1 : 0.5 : 1"
       inkscape:vp_y="0 : 1000 : 0"
       inkscape:vp_x="0 : 0.5 : 1"
       sodipodi:type="inkscape:persp3d" />
    <inkscape:perspective
       id="perspective6033"
       inkscape:persp3d-origin="0.5 : 0.33333333 : 1"
       inkscape:vp_z="1 : 0.5 : 1"
       inkscape:vp_y="0 : 1000 : 0"
       inkscape:vp_x="0 : 0.5 : 1"
       sodipodi:type="inkscape:persp3d" />
    <inkscape:perspective
       id="perspective6245"
       inkscape:persp3d-origin="0.5 : 0.33333333 : 1"
       inkscape:vp_z="1 : 0.5 : 1"
       inkscape:vp_y="0 : 1000 : 0"
       inkscape:vp_x="0 : 0.5 : 1"
       sodipodi:type="inkscape:persp3d" />
    <inkscape:perspective
       id="perspective6269"
       inkscape:persp3d-origin="0.5 : 0.33333333 : 1"
       inkscape:vp_z="1 : 0.5 : 1"
       inkscape:vp_y="0 : 1000 : 0"
       inkscape:vp_x="0 : 0.5 : 1"
       sodipodi:type="inkscape:persp3d" />
    <inkscape:perspective
       id="perspective6364"
       inkscape:persp3d-origin="0.5 : 0.33333333 : 1"
       inkscape:vp_z="1 : 0.5 : 1"
       inkscape:vp_y="0 : 1000 : 0"
       inkscape:vp_x="0 : 0.5 : 1"
       sodipodi:type="inkscape:persp3d" />
    <inkscape:perspective
       id="perspective6396"
       inkscape:persp3d-origin="0.5 : 0.33333333 : 1"
       inkscape:vp_z="1 : 0.5 : 1"
       inkscape:vp_y="0 : 1000 : 0"
       inkscape:vp_x="0 : 0.5 : 1"
       sodipodi:type="inkscape:persp3d" />
    <inkscape:perspective
       id="perspective6438"
       inkscape:persp3d-origin="0.5 : 0.33333333 : 1"
       inkscape:vp_z="1 : 0.5 : 1"
       inkscape:vp_y="0 : 1000 : 0"
       inkscape:vp_x="0 : 0.5 : 1"
       sodipodi:type="inkscape:persp3d" />
    <inkscape:perspective
       id="perspective6460"
       inkscape:persp3d-origin="0.5 : 0.33333333 : 1"
       inkscape:vp_z="1 : 0.5 : 1"
       inkscape:vp_y="0 : 1000 : 0"
       inkscape:vp_x="0 : 0.5 : 1"
       sodipodi:type="inkscape:persp3d" />
    <inkscape:perspective
       id="perspective6480"
       inkscape:persp3d-origin="0.5 : 0.33333333 : 1"
       inkscape:vp_z="1 : 0.5 : 1"
       inkscape:vp_y="0 : 1000 : 0"
       inkscape:vp_x="0 : 0.5 : 1"
       sodipodi:type="inkscape:persp3d" />
    <inkscape:perspective
       id="perspective6504"
       inkscape:persp3d-origin="0.5 : 0.33333333 : 1"
       inkscape:vp_z="1 : 0.5 : 1"
       inkscape:vp_y="0 : 1000 : 0"
       inkscape:vp_x="0 : 0.5 : 1"
       sodipodi:type="inkscape:persp3d" />
    <inkscape:perspective
       id="perspective6524"
       inkscape:persp3d-origin="0.5 : 0.33333333 : 1"
       inkscape:vp_z="1 : 0.5 : 1"
       inkscape:vp_y="0 : 1000 : 0"
       inkscape:vp_x="0 : 0.5 : 1"
       sodipodi:type="inkscape:persp3d" />
    <inkscape:perspective
       id="perspective6548"
       inkscape:persp3d-origin="0.5 : 0.33333333 : 1"
       inkscape:vp_z="1 : 0.5 : 1"
       inkscape:vp_y="0 : 1000 : 0"
       inkscape:vp_x="0 : 0.5 : 1"
       sodipodi:type="inkscape:persp3d" />
    <inkscape:perspective
       id="perspective6572"
       inkscape:persp3d-origin="0.5 : 0.33333333 : 1"
       inkscape:vp_z="1 : 0.5 : 1"
       inkscape:vp_y="0 : 1000 : 0"
       inkscape:vp_x="0 : 0.5 : 1"
       sodipodi:type="inkscape:persp3d" />
    <inkscape:perspective
       id="perspective6594"
       inkscape:persp3d-origin="0.5 : 0.33333333 : 1"
       inkscape:vp_z="1 : 0.5 : 1"
       inkscape:vp_y="0 : 1000 : 0"
       inkscape:vp_x="0 : 0.5 : 1"
       sodipodi:type="inkscape:persp3d" />
    <inkscape:perspective
       id="perspective6614"
       inkscape:persp3d-origin="0.5 : 0.33333333 : 1"
       inkscape:vp_z="1 : 0.5 : 1"
       inkscape:vp_y="0 : 1000 : 0"
       inkscape:vp_x="0 : 0.5 : 1"
       sodipodi:type="inkscape:persp3d" />
    <inkscape:perspective
       id="perspective6650"
       inkscape:persp3d-origin="0.5 : 0.33333333 : 1"
       inkscape:vp_z="1 : 0.5 : 1"
       inkscape:vp_y="0 : 1000 : 0"
       inkscape:vp_x="0 : 0.5 : 1"
       sodipodi:type="inkscape:persp3d" />
    <inkscape:perspective
       id="perspective6676"
       inkscape:persp3d-origin="0.5 : 0.33333333 : 1"
       inkscape:vp_z="1 : 0.5 : 1"
       inkscape:vp_y="0 : 1000 : 0"
       inkscape:vp_x="0 : 0.5 : 1"
       sodipodi:type="inkscape:persp3d" />
    <inkscape:perspective
       id="perspective6710"
       inkscape:persp3d-origin="0.5 : 0.33333333 : 1"
       inkscape:vp_z="1 : 0.5 : 1"
       inkscape:vp_y="0 : 1000 : 0"
       inkscape:vp_x="0 : 0.5 : 1"
       sodipodi:type="inkscape:persp3d" />
    <inkscape:perspective
       id="perspective6748"
       inkscape:persp3d-origin="0.5 : 0.33333333 : 1"
       inkscape:vp_z="1 : 0.5 : 1"
       inkscape:vp_y="0 : 1000 : 0"
       inkscape:vp_x="0 : 0.5 : 1"
       sodipodi:type="inkscape:persp3d" />
    <inkscape:perspective
       id="perspective6786"
       inkscape:persp3d-origin="0.5 : 0.33333333 : 1"
       inkscape:vp_z="1 : 0.5 : 1"
       inkscape:vp_y="0 : 1000 : 0"
       inkscape:vp_x="0 : 0.5 : 1"
       sodipodi:type="inkscape:persp3d" />
    <inkscape:perspective
       id="perspective6810"
       inkscape:persp3d-origin="0.5 : 0.33333333 : 1"
       inkscape:vp_z="1 : 0.5 : 1"
       inkscape:vp_y="0 : 1000 : 0"
       inkscape:vp_x="0 : 0.5 : 1"
       sodipodi:type="inkscape:persp3d" />
    <inkscape:perspective
       id="perspective6848"
       inkscape:persp3d-origin="0.5 : 0.33333333 : 1"
       inkscape:vp_z="1 : 0.5 : 1"
       inkscape:vp_y="0 : 1000 : 0"
       inkscape:vp_x="0 : 0.5 : 1"
       sodipodi:type="inkscape:persp3d" />
    <inkscape:perspective
       id="perspective6870"
       inkscape:persp3d-origin="0.5 : 0.33333333 : 1"
       inkscape:vp_z="1 : 0.5 : 1"
       inkscape:vp_y="0 : 1000 : 0"
       inkscape:vp_x="0 : 0.5 : 1"
       sodipodi:type="inkscape:persp3d" />
    <inkscape:perspective
       id="perspective6908"
       inkscape:persp3d-origin="0.5 : 0.33333333 : 1"
       inkscape:vp_z="1 : 0.5 : 1"
       inkscape:vp_y="0 : 1000 : 0"
       inkscape:vp_x="0 : 0.5 : 1"
       sodipodi:type="inkscape:persp3d" />
    <inkscape:perspective
       id="perspective6946"
       inkscape:persp3d-origin="0.5 : 0.33333333 : 1"
       inkscape:vp_z="1 : 0.5 : 1"
       inkscape:vp_y="0 : 1000 : 0"
       inkscape:vp_x="0 : 0.5 : 1"
       sodipodi:type="inkscape:persp3d" />
    <inkscape:perspective
       id="perspective6970"
       inkscape:persp3d-origin="0.5 : 0.33333333 : 1"
       inkscape:vp_z="1 : 0.5 : 1"
       inkscape:vp_y="0 : 1000 : 0"
       inkscape:vp_x="0 : 0.5 : 1"
       sodipodi:type="inkscape:persp3d" />
    <inkscape:perspective
       id="perspective7008"
       inkscape:persp3d-origin="0.5 : 0.33333333 : 1"
       inkscape:vp_z="1 : 0.5 : 1"
       inkscape:vp_y="0 : 1000 : 0"
       inkscape:vp_x="0 : 0.5 : 1"
       sodipodi:type="inkscape:persp3d" />
    <inkscape:perspective
       id="perspective7036"
       inkscape:persp3d-origin="0.5 : 0.33333333 : 1"
       inkscape:vp_z="1 : 0.5 : 1"
       inkscape:vp_y="0 : 1000 : 0"
       inkscape:vp_x="0 : 0.5 : 1"
       sodipodi:type="inkscape:persp3d" />
    <inkscape:perspective
       id="perspective7060"
       inkscape:persp3d-origin="0.5 : 0.33333333 : 1"
       inkscape:vp_z="1 : 0.5 : 1"
       inkscape:vp_y="0 : 1000 : 0"
       inkscape:vp_x="0 : 0.5 : 1"
       sodipodi:type="inkscape:persp3d" />
    <inkscape:perspective
       id="perspective7098"
       inkscape:persp3d-origin="0.5 : 0.33333333 : 1"
       inkscape:vp_z="1 : 0.5 : 1"
       inkscape:vp_y="0 : 1000 : 0"
       inkscape:vp_x="0 : 0.5 : 1"
       sodipodi:type="inkscape:persp3d" />
    <inkscape:perspective
       id="perspective7136"
       inkscape:persp3d-origin="0.5 : 0.33333333 : 1"
       inkscape:vp_z="1 : 0.5 : 1"
       inkscape:vp_y="0 : 1000 : 0"
       inkscape:vp_x="0 : 0.5 : 1"
       sodipodi:type="inkscape:persp3d" />
    <inkscape:perspective
       id="perspective7174"
       inkscape:persp3d-origin="0.5 : 0.33333333 : 1"
       inkscape:vp_z="1 : 0.5 : 1"
       inkscape:vp_y="0 : 1000 : 0"
       inkscape:vp_x="0 : 0.5 : 1"
       sodipodi:type="inkscape:persp3d" />
    <inkscape:perspective
       id="perspective7212"
       inkscape:persp3d-origin="0.5 : 0.33333333 : 1"
       inkscape:vp_z="1 : 0.5 : 1"
       inkscape:vp_y="0 : 1000 : 0"
       inkscape:vp_x="0 : 0.5 : 1"
       sodipodi:type="inkscape:persp3d" />
    <inkscape:perspective
       id="perspective7234"
       inkscape:persp3d-origin="0.5 : 0.33333333 : 1"
       inkscape:vp_z="1 : 0.5 : 1"
       inkscape:vp_y="0 : 1000 : 0"
       inkscape:vp_x="0 : 0.5 : 1"
       sodipodi:type="inkscape:persp3d" />
    <inkscape:perspective
       id="perspective7272"
       inkscape:persp3d-origin="0.5 : 0.33333333 : 1"
       inkscape:vp_z="1 : 0.5 : 1"
       inkscape:vp_y="0 : 1000 : 0"
       inkscape:vp_x="0 : 0.5 : 1"
       sodipodi:type="inkscape:persp3d" />
    <inkscape:perspective
       id="perspective7294"
       inkscape:persp3d-origin="0.5 : 0.33333333 : 1"
       inkscape:vp_z="1 : 0.5 : 1"
       inkscape:vp_y="0 : 1000 : 0"
       inkscape:vp_x="0 : 0.5 : 1"
       sodipodi:type="inkscape:persp3d" />
    <inkscape:perspective
       id="perspective7330"
       inkscape:persp3d-origin="0.5 : 0.33333333 : 1"
       inkscape:vp_z="1 : 0.5 : 1"
       inkscape:vp_y="0 : 1000 : 0"
       inkscape:vp_x="0 : 0.5 : 1"
       sodipodi:type="inkscape:persp3d" />
    <inkscape:perspective
       id="perspective3068"
       inkscape:persp3d-origin="0.5 : 0.33333333 : 1"
       inkscape:vp_z="1 : 0.5 : 1"
       inkscape:vp_y="0 : 1000 : 0"
       inkscape:vp_x="0 : 0.5 : 1"
       sodipodi:type="inkscape:persp3d" />
    <inkscape:perspective
       id="perspective3106"
       inkscape:persp3d-origin="0.5 : 0.33333333 : 1"
       inkscape:vp_z="1 : 0.5 : 1"
       inkscape:vp_y="0 : 1000 : 0"
       inkscape:vp_x="0 : 0.5 : 1"
       sodipodi:type="inkscape:persp3d" />
    <inkscape:perspective
       id="perspective3128"
       inkscape:persp3d-origin="0.5 : 0.33333333 : 1"
       inkscape:vp_z="1 : 0.5 : 1"
       inkscape:vp_y="0 : 1000 : 0"
       inkscape:vp_x="0 : 0.5 : 1"
       sodipodi:type="inkscape:persp3d" />
    <inkscape:perspective
       id="perspective3152"
       inkscape:persp3d-origin="0.5 : 0.33333333 : 1"
       inkscape:vp_z="1 : 0.5 : 1"
       inkscape:vp_y="0 : 1000 : 0"
       inkscape:vp_x="0 : 0.5 : 1"
       sodipodi:type="inkscape:persp3d" />
    <inkscape:perspective
       id="perspective3174"
       inkscape:persp3d-origin="0.5 : 0.33333333 : 1"
       inkscape:vp_z="1 : 0.5 : 1"
       inkscape:vp_y="0 : 1000 : 0"
       inkscape:vp_x="0 : 0.5 : 1"
       sodipodi:type="inkscape:persp3d" />
    <inkscape:perspective
       id="perspective3212"
       inkscape:persp3d-origin="0.5 : 0.33333333 : 1"
       inkscape:vp_z="1 : 0.5 : 1"
       inkscape:vp_y="0 : 1000 : 0"
       inkscape:vp_x="0 : 0.5 : 1"
       sodipodi:type="inkscape:persp3d" />
    <inkscape:perspective
       id="perspective3238"
       inkscape:persp3d-origin="0.5 : 0.33333333 : 1"
       inkscape:vp_z="1 : 0.5 : 1"
       inkscape:vp_y="0 : 1000 : 0"
       inkscape:vp_x="0 : 0.5 : 1"
       sodipodi:type="inkscape:persp3d" />
    <inkscape:perspective
       id="perspective3276"
       inkscape:persp3d-origin="0.5 : 0.33333333 : 1"
       inkscape:vp_z="1 : 0.5 : 1"
       inkscape:vp_y="0 : 1000 : 0"
       inkscape:vp_x="0 : 0.5 : 1"
       sodipodi:type="inkscape:persp3d" />
    <inkscape:perspective
       id="perspective3314"
       inkscape:persp3d-origin="0.5 : 0.33333333 : 1"
       inkscape:vp_z="1 : 0.5 : 1"
       inkscape:vp_y="0 : 1000 : 0"
       inkscape:vp_x="0 : 0.5 : 1"
       sodipodi:type="inkscape:persp3d" />
    <inkscape:perspective
       id="perspective3350"
       inkscape:persp3d-origin="0.5 : 0.33333333 : 1"
       inkscape:vp_z="1 : 0.5 : 1"
       inkscape:vp_y="0 : 1000 : 0"
       inkscape:vp_x="0 : 0.5 : 1"
       sodipodi:type="inkscape:persp3d" />
    <inkscape:perspective
       id="perspective3376"
       inkscape:persp3d-origin="0.5 : 0.33333333 : 1"
       inkscape:vp_z="1 : 0.5 : 1"
       inkscape:vp_y="0 : 1000 : 0"
       inkscape:vp_x="0 : 0.5 : 1"
       sodipodi:type="inkscape:persp3d" />
    <inkscape:perspective
       id="perspective3402"
       inkscape:persp3d-origin="0.5 : 0.33333333 : 1"
       inkscape:vp_z="1 : 0.5 : 1"
       inkscape:vp_y="0 : 1000 : 0"
       inkscape:vp_x="0 : 0.5 : 1"
       sodipodi:type="inkscape:persp3d" />
    <inkscape:perspective
       id="perspective3428"
       inkscape:persp3d-origin="0.5 : 0.33333333 : 1"
       inkscape:vp_z="1 : 0.5 : 1"
       inkscape:vp_y="0 : 1000 : 0"
       inkscape:vp_x="0 : 0.5 : 1"
       sodipodi:type="inkscape:persp3d" />
    <inkscape:perspective
       id="perspective3466"
       inkscape:persp3d-origin="0.5 : 0.33333333 : 1"
       inkscape:vp_z="1 : 0.5 : 1"
       inkscape:vp_y="0 : 1000 : 0"
       inkscape:vp_x="0 : 0.5 : 1"
       sodipodi:type="inkscape:persp3d" />
    <inkscape:perspective
       id="perspective3504"
       inkscape:persp3d-origin="0.5 : 0.33333333 : 1"
       inkscape:vp_z="1 : 0.5 : 1"
       inkscape:vp_y="0 : 1000 : 0"
       inkscape:vp_x="0 : 0.5 : 1"
       sodipodi:type="inkscape:persp3d" />
    <inkscape:perspective
       id="perspective3542"
       inkscape:persp3d-origin="0.5 : 0.33333333 : 1"
       inkscape:vp_z="1 : 0.5 : 1"
       inkscape:vp_y="0 : 1000 : 0"
       inkscape:vp_x="0 : 0.5 : 1"
       sodipodi:type="inkscape:persp3d" />
    <inkscape:perspective
       id="perspective3566"
       inkscape:persp3d-origin="0.5 : 0.33333333 : 1"
       inkscape:vp_z="1 : 0.5 : 1"
       inkscape:vp_y="0 : 1000 : 0"
       inkscape:vp_x="0 : 0.5 : 1"
       sodipodi:type="inkscape:persp3d" />
    <inkscape:perspective
       id="perspective3590"
       inkscape:persp3d-origin="0.5 : 0.33333333 : 1"
       inkscape:vp_z="1 : 0.5 : 1"
       inkscape:vp_y="0 : 1000 : 0"
       inkscape:vp_x="0 : 0.5 : 1"
       sodipodi:type="inkscape:persp3d" />
    <inkscape:perspective
       id="perspective3610"
       inkscape:persp3d-origin="0.5 : 0.33333333 : 1"
       inkscape:vp_z="1 : 0.5 : 1"
       inkscape:vp_y="0 : 1000 : 0"
       inkscape:vp_x="0 : 0.5 : 1"
       sodipodi:type="inkscape:persp3d" />
    <inkscape:perspective
       id="perspective3648"
       inkscape:persp3d-origin="0.5 : 0.33333333 : 1"
       inkscape:vp_z="1 : 0.5 : 1"
       inkscape:vp_y="0 : 1000 : 0"
       inkscape:vp_x="0 : 0.5 : 1"
       sodipodi:type="inkscape:persp3d" />
    <inkscape:perspective
       id="perspective3668"
       inkscape:persp3d-origin="0.5 : 0.33333333 : 1"
       inkscape:vp_z="1 : 0.5 : 1"
       inkscape:vp_y="0 : 1000 : 0"
       inkscape:vp_x="0 : 0.5 : 1"
       sodipodi:type="inkscape:persp3d" />
    <inkscape:perspective
       id="perspective3706"
       inkscape:persp3d-origin="0.5 : 0.33333333 : 1"
       inkscape:vp_z="1 : 0.5 : 1"
       inkscape:vp_y="0 : 1000 : 0"
       inkscape:vp_x="0 : 0.5 : 1"
       sodipodi:type="inkscape:persp3d" />
    <inkscape:perspective
       id="perspective3744"
       inkscape:persp3d-origin="0.5 : 0.33333333 : 1"
       inkscape:vp_z="1 : 0.5 : 1"
       inkscape:vp_y="0 : 1000 : 0"
       inkscape:vp_x="0 : 0.5 : 1"
       sodipodi:type="inkscape:persp3d" />
    <inkscape:perspective
       id="perspective3770"
       inkscape:persp3d-origin="0.5 : 0.33333333 : 1"
       inkscape:vp_z="1 : 0.5 : 1"
       inkscape:vp_y="0 : 1000 : 0"
       inkscape:vp_x="0 : 0.5 : 1"
       sodipodi:type="inkscape:persp3d" />
    <inkscape:perspective
       id="perspective3804"
       inkscape:persp3d-origin="0.5 : 0.33333333 : 1"
       inkscape:vp_z="1 : 0.5 : 1"
       inkscape:vp_y="0 : 1000 : 0"
       inkscape:vp_x="0 : 0.5 : 1"
       sodipodi:type="inkscape:persp3d" />
    <inkscape:perspective
       id="perspective3828"
       inkscape:persp3d-origin="0.5 : 0.33333333 : 1"
       inkscape:vp_z="1 : 0.5 : 1"
       inkscape:vp_y="0 : 1000 : 0"
       inkscape:vp_x="0 : 0.5 : 1"
       sodipodi:type="inkscape:persp3d" />
    <inkscape:perspective
       id="perspective3852"
       inkscape:persp3d-origin="0.5 : 0.33333333 : 1"
       inkscape:vp_z="1 : 0.5 : 1"
       inkscape:vp_y="0 : 1000 : 0"
       inkscape:vp_x="0 : 0.5 : 1"
       sodipodi:type="inkscape:persp3d" />
    <inkscape:perspective
       id="perspective3876"
       inkscape:persp3d-origin="0.5 : 0.33333333 : 1"
       inkscape:vp_z="1 : 0.5 : 1"
       inkscape:vp_y="0 : 1000 : 0"
       inkscape:vp_x="0 : 0.5 : 1"
       sodipodi:type="inkscape:persp3d" />
    <inkscape:perspective
       id="perspective3900"
       inkscape:persp3d-origin="0.5 : 0.33333333 : 1"
       inkscape:vp_z="1 : 0.5 : 1"
       inkscape:vp_y="0 : 1000 : 0"
       inkscape:vp_x="0 : 0.5 : 1"
       sodipodi:type="inkscape:persp3d" />
    <inkscape:perspective
       id="perspective3924"
       inkscape:persp3d-origin="0.5 : 0.33333333 : 1"
       inkscape:vp_z="1 : 0.5 : 1"
       inkscape:vp_y="0 : 1000 : 0"
       inkscape:vp_x="0 : 0.5 : 1"
       sodipodi:type="inkscape:persp3d" />
    <inkscape:perspective
       id="perspective3948"
       inkscape:persp3d-origin="0.5 : 0.33333333 : 1"
       inkscape:vp_z="1 : 0.5 : 1"
       inkscape:vp_y="0 : 1000 : 0"
       inkscape:vp_x="0 : 0.5 : 1"
       sodipodi:type="inkscape:persp3d" />
    <inkscape:perspective
       id="perspective3986"
       inkscape:persp3d-origin="0.5 : 0.33333333 : 1"
       inkscape:vp_z="1 : 0.5 : 1"
       inkscape:vp_y="0 : 1000 : 0"
       inkscape:vp_x="0 : 0.5 : 1"
       sodipodi:type="inkscape:persp3d" />
    <inkscape:perspective
       id="perspective4024"
       inkscape:persp3d-origin="0.5 : 0.33333333 : 1"
       inkscape:vp_z="1 : 0.5 : 1"
       inkscape:vp_y="0 : 1000 : 0"
       inkscape:vp_x="0 : 0.5 : 1"
       sodipodi:type="inkscape:persp3d" />
    <inkscape:perspective
       id="perspective4062"
       inkscape:persp3d-origin="0.5 : 0.33333333 : 1"
       inkscape:vp_z="1 : 0.5 : 1"
       inkscape:vp_y="0 : 1000 : 0"
       inkscape:vp_x="0 : 0.5 : 1"
       sodipodi:type="inkscape:persp3d" />
    <inkscape:perspective
       id="perspective4100"
       inkscape:persp3d-origin="0.5 : 0.33333333 : 1"
       inkscape:vp_z="1 : 0.5 : 1"
       inkscape:vp_y="0 : 1000 : 0"
       inkscape:vp_x="0 : 0.5 : 1"
       sodipodi:type="inkscape:persp3d" />
    <inkscape:perspective
       id="perspective4126"
       inkscape:persp3d-origin="0.5 : 0.33333333 : 1"
       inkscape:vp_z="1 : 0.5 : 1"
       inkscape:vp_y="0 : 1000 : 0"
       inkscape:vp_x="0 : 0.5 : 1"
       sodipodi:type="inkscape:persp3d" />
    <inkscape:perspective
       id="perspective4164"
       inkscape:persp3d-origin="0.5 : 0.33333333 : 1"
       inkscape:vp_z="1 : 0.5 : 1"
       inkscape:vp_y="0 : 1000 : 0"
       inkscape:vp_x="0 : 0.5 : 1"
       sodipodi:type="inkscape:persp3d" />
    <inkscape:perspective
       id="perspective4184"
       inkscape:persp3d-origin="0.5 : 0.33333333 : 1"
       inkscape:vp_z="1 : 0.5 : 1"
       inkscape:vp_y="0 : 1000 : 0"
       inkscape:vp_x="0 : 0.5 : 1"
       sodipodi:type="inkscape:persp3d" />
    <inkscape:perspective
       id="perspective4206"
       inkscape:persp3d-origin="0.5 : 0.33333333 : 1"
       inkscape:vp_z="1 : 0.5 : 1"
       inkscape:vp_y="0 : 1000 : 0"
       inkscape:vp_x="0 : 0.5 : 1"
       sodipodi:type="inkscape:persp3d" />
    <inkscape:perspective
       id="perspective4228"
       inkscape:persp3d-origin="0.5 : 0.33333333 : 1"
       inkscape:vp_z="1 : 0.5 : 1"
       inkscape:vp_y="0 : 1000 : 0"
       inkscape:vp_x="0 : 0.5 : 1"
       sodipodi:type="inkscape:persp3d" />
    <inkscape:perspective
       id="perspective4266"
       inkscape:persp3d-origin="0.5 : 0.33333333 : 1"
       inkscape:vp_z="1 : 0.5 : 1"
       inkscape:vp_y="0 : 1000 : 0"
       inkscape:vp_x="0 : 0.5 : 1"
       sodipodi:type="inkscape:persp3d" />
    <inkscape:perspective
       id="perspective4304"
       inkscape:persp3d-origin="0.5 : 0.33333333 : 1"
       inkscape:vp_z="1 : 0.5 : 1"
       inkscape:vp_y="0 : 1000 : 0"
       inkscape:vp_x="0 : 0.5 : 1"
       sodipodi:type="inkscape:persp3d" />
    <inkscape:perspective
       id="perspective4342"
       inkscape:persp3d-origin="0.5 : 0.33333333 : 1"
       inkscape:vp_z="1 : 0.5 : 1"
       inkscape:vp_y="0 : 1000 : 0"
       inkscape:vp_x="0 : 0.5 : 1"
       sodipodi:type="inkscape:persp3d" />
  </defs>
  <sodipodi:namedview
     id="base"
     pagecolor="#ffffff"
     bordercolor="#666666"
     borderopacity="1.0"
     inkscape:pageopacity="0.0"
     inkscape:pageshadow="2"
     inkscape:zoom="11.313709"
     inkscape:cx="11.966503"
     inkscape:cy="14.926085"
     inkscape:document-units="px"
     inkscape:current-layer="layer1"
     showgrid="true"
     inkscape:window-width="1280"
     inkscape:window-height="780"
     inkscape:window-x="-8"
     inkscape:window-y="-8"
     inkscape:window-maximized="1">
    <inkscape:grid
       type="xygrid"
       id="grid6324"
       empspacing="5"
       visible="true"
       enabled="true"
       snapvisiblegridlinesonly="true" />
  </sodipodi:namedview>
  <metadata
     id="metadata7">
    <rdf:RDF>
      <cc:Work
         rdf:about="">
        <dc:format>image/svg+xml</dc:format>
        <dc:type
           rdf:resource="http://purl.org/dc/dcmitype/StillImage" />
        <dc:title></dc:title>
      </cc:Work>
    </rdf:RDF>
  </metadata>
  <g
     inkscape:label="Calque 1"
     inkscape:groupmode="layer"
     id="layer1"
     transform="translate(0,-1036.3622)">
    <g
       id="g4348"
       transform="translate(-1.4638998,-1.0126)">
      <path
         style="fill:#f60002"
         d="m 8.9356952,1050.8489 -0.6281794,0 0,-1.3461 0,-1.3461 -0.7679741,0 -0.7679742,0 -1.116564,-1.1266 -1.116564,-1.1265 0,-1.7948 0,-1.7948 1.215993,-1.2067 1.215993,-1.2067 1.8848476,0 1.8848479,0 1.206675,1.216 1.206675,1.216 0,1.7955 0,1.7955 -1.126578,1.1165 -1.126578,1.1166 -0.66822,0 -0.6682205,0 0,1.3461 0,1.3461 -0.6281793,0 z"
         id="path4370" />
      <path
         style="fill:#b53702"
         d="m 8.9356952,1050.8489 -0.6281794,0 0,-1.3461 0,-1.3461 -0.7679741,0 -0.7679742,0 -1.116564,-1.1266 -1.116564,-1.1265 -0.00149,-1.79 -0.00149,-1.79 1.2978973,-1.2115 1.2978972,-1.2115 1.7732652,0 1.7732648,0 1.237842,1.2502 1.237843,1.2502 0,1.7458 0,1.7457 -1.211489,1.1278 -1.211489,1.1278 -0.583309,0 -0.5833091,0 0,1.3461 0,1.3461 -0.6281793,0 z m -0.08974,-3.297 1.8845378,0 -0.9422687,-0.066 c -0.518248,-0.036 -1.3662901,-0.036 -1.8845381,0 l -0.9422691,0.066 1.8845381,0 z m -2.0327321,-0.2926 c 0.03215,0 0.058454,-0.026 0.058454,-0.058 0,-0.032 -0.2221063,-0.2543 -0.4935695,-0.4936 l -0.4935696,-0.4351 0.4351155,0.4935 c 0.2393135,0.2715 0.4614198,0.4936 0.4935695,0.4936 z m 4.6351899,-0.5384 c 0.148071,-0.1229 0.269219,-0.2638 0.269219,-0.3132 0,-0.049 -0.121148,0.011 -0.269219,0.1337 -0.148071,0.1229 -0.26922,0.2638 -0.26922,0.3132 0,0.049 0.121149,-0.011 0.26922,-0.1337 z m 0.673049,-0.6951 0.31409,-0.2463 -0.03136,-0.8305 -0.03136,-0.8306 -0.07072,0.8042 -0.07072,0.8041 -0.21201,0.2727 -0.21201,0.2728 0.31409,-0.2464 z m -6.7479782,-0.2596 c 0.064419,-0.064 0.1096793,-0.379 0.100579,-0.6991 l -0.016546,-0.5819 0.2135107,-0.1358 0.2135106,-0.1357 -0.2316204,0 -0.2316205,0 0.033934,-0.7628 0.033933,-0.7628 1.0950862,-1.1666 1.0950861,-1.1667 -1.2114888,1.1615 -1.2114888,1.1614 0,1.6056 0,1.6055 0.117125,-0.1171 z m 2.165186,-0.885 c 0.041123,-0.2715 0.041123,-0.7157 0,-0.9871 l -0.07477,-0.4936 0,0.9871 0,0.9872 0.07477,-0.4936 z m 3.0422572,0.344 0.119653,-0.1196 -0.119653,-0.1197 -0.119653,-0.1197 0,0.2394 0,0.2393 0.119653,-0.1197 z m 0.896612,-0.075 0.09053,-0.2243 -0.09053,-0.2244 -0.09053,-0.2243 0,0.4487 0,0.4487 0.09053,-0.2244 z m -4.3366421,-0.045 c 0.049357,0 0.08974,-0.04 0.08974,-0.09 0,-0.049 -0.040383,-0.09 -0.08974,-0.09 -0.049357,0 -0.08974,0.04 -0.08974,0.09 0,0.049 0.040383,0.09 0.08974,0.09 z m -0.7952575,-0.2769 c 0.091893,-0.057 0.1670781,-0.1437 0.1670781,-0.193 0,-0.049 -0.080766,-0.04 -0.1794798,0.021 l -0.1794798,0.1109 0,-0.22 0,-0.22 -0.1077123,0.1077 -0.1077121,0.1077 0.120114,0.1944 0.120114,0.1943 0.1670779,-0.1032 z m 3.379767,0.097 c 0.049357,0 -0.00718,-0.097 -0.1256359,-0.2154 l -0.2153758,-0.2154 0,-0.3124 0,-0.3125 0.1995462,-0.1233 0.1995464,-0.1234 0.1566651,0.2474 0.1566646,0.2473 0.0027,-0.2137 c 0.0015,-0.1176 -0.08155,-0.2659 -0.1845935,-0.3296 l -0.1873414,-0.1158 -0.2613576,0.2169 -0.2613576,0.2169 0,0.3011 c 0,0.1656 0.096919,0.398 0.2153758,0.5165 0.1184567,0.1185 0.2557587,0.2154 0.3051157,0.2154 z m 1.0050866,-0.1795 c 0.04936,0 0.08974,-0.04 0.08974,-0.09 0,-0.049 -0.04038,-0.09 -0.08974,-0.09 -0.04936,0 -0.08974,0.04 -0.08974,0.09 0,0.049 0.04038,0.09 0.08974,0.09 z m -0.717919,-0.1795 c 0.04936,0 0.08974,-0.04 0.08974,-0.09 0,-0.049 -0.04038,-0.09 -0.08974,-0.09 -0.049357,0 -0.08974,0.04 -0.08974,0.09 0,0.049 0.040383,0.09 0.08974,0.09 z m -2.8716771,-0.1795 c 0.049357,0 0.08974,-0.04 0.08974,-0.09 0,-0.049 -0.040383,-0.09 -0.08974,-0.09 -0.049357,0 -0.08974,0.04 -0.08974,0.09 0,0.049 0.040383,0.09 0.08974,0.09 z m -0.2692197,-0.3589 0.2393063,0 -0.119653,-0.1197 -0.1196533,-0.1196 -0.1196533,0.1196 -0.1196531,0.1197 0.2393064,0 z m -0.3932373,-0.1823 c 0.030504,0 0.00555,-0.078 -0.055462,-0.1767 -0.061009,-0.099 -0.2071154,-0.1782 -0.324682,-0.1767 l -0.2137575,0 0.2692198,0.174 c 0.1480708,0.096 0.2941778,0.1752 0.324682,0.1767 z m 4.2819671,-0.057 0.119653,-0.1197 -0.119653,-0.1196 -0.119654,-0.1197 0,0.2393 0,0.2393 0.119654,-0.1196 z m 0.867486,0.06 c 0.14807,0 0.269219,-0.032 0.269219,-0.071 0,-0.039 -0.121149,-0.1171 -0.269219,-0.1739 l -0.26922,-0.1033 0,0.1738 0,0.1739 0.26922,0 z m -4.4869961,-0.1795 c 0.049357,0 0.08974,-0.04 0.08974,-0.09 0,-0.049 -0.040383,-0.09 -0.08974,-0.09 -0.049357,0 -0.08974,0.04 -0.08974,0.09 0,0.049 0.040383,0.09 0.08974,0.09 z m -0.1453253,-0.4812 0.1512223,-0.212 0.8047107,-0.076 0.8047107,-0.077 -0.8833693,0.019 -0.8833694,0.019 -0.072564,0.2692 -0.072564,0.2692 0.1512224,-0.212 z m 2.2769849,-0.149 c 0.2589388,-0.1697 0.4707979,-0.3424 0.4707979,-0.3839 0,-0.042 -0.1570338,0.01 -0.3489637,0.1114 -0.1919302,0.1027 -0.4037893,0.2754 -0.4707979,0.3839 l -0.1218339,0.1971 0.4707976,-0.3085 z m 1.3453035,0.2655 c 0.03676,0 -0.0337,-0.1154 -0.156586,-0.2635 -0.122888,-0.148 -0.309746,-0.2692 -0.41524,-0.2692 l -0.1918076,0 0.3483936,0.2635 c 0.191617,0.145 0.378474,0.2661 0.41524,0.2692 z m 1.757578,-0.3098 0.09103,-0.2259 -0.713394,-0.851 c -0.392366,-0.4681 -0.901226,-1.0126 -1.130798,-1.21 -0.229573,-0.1974 0.04375,0.166 0.60739,0.8077 l 1.024796,1.1666 0.01497,0.2692 0.01498,0.2692 0.09103,-0.2258 z m -6.4908999,-0.043 c 0.049357,0 0.08974,-0.04 0.08974,-0.09 0,-0.049 -0.040383,-0.09 -0.08974,-0.09 -0.049357,0 -0.08974,0.04 -0.08974,0.09 0,0.049 0.040383,0.09 0.08974,0.09 z m 0.7179193,0 c 0.049357,0 0.08974,-0.04 0.08974,-0.09 0,-0.049 -0.040383,-0.09 -0.08974,-0.09 -0.049357,0 -0.08974,0.04 -0.08974,0.09 0,0.049 0.040383,0.09 0.08974,0.09 z m 4.8459556,-0.045 0.717919,0 -0.405922,-0.078 c -0.223257,-0.043 -0.546321,-0.041 -0.717919,0 l -0.311998,0.082 0.71792,0 z m -5.2049152,-0.1342 c 0.049357,0 0.08974,-0.04 0.08974,-0.09 0,-0.049 -0.040383,-0.09 -0.08974,-0.09 -0.049357,0 -0.08974,0.04 -0.08974,0.09 0,0.049 0.040383,0.09 0.08974,0.09 z"
         id="path4368" />
      <path
         style="fill:#e90004"
         d="m 8.8459552,1048.2915 c -0.2467847,-0.01 -0.8121462,-0.049 -1.2563587,-0.086 l -0.8076592,-0.068 -1.1217489,-1.1067 -1.1217489,-1.1066 -0.00149,-1.8 -0.00149,-1.8 1.2978973,-1.2115 1.2978972,-1.2115 1.7828623,0 1.7828617,0 1.228246,1.2729 1.228245,1.2729 -3e-6,1.7334 -3e-6,1.7334 -1.186637,1.0769 -1.186637,1.0769 -0.742768,0.1213 c -0.408522,0.067 -0.9446826,0.1132 -1.1914674,0.1032 z m 0,-0.7396 1.8845378,0 -0.9422687,-0.066 c -0.518248,-0.036 -1.3662901,-0.036 -1.8845381,0 l -0.9422691,0.066 1.8845381,0 z m -2.0327321,-0.2926 c 0.03215,0 0.058454,-0.026 0.058454,-0.058 0,-0.032 -0.2221063,-0.2543 -0.4935695,-0.4936 l -0.4935696,-0.4351 0.4351155,0.4935 c 0.2393135,0.2715 0.4614198,0.4936 0.4935695,0.4936 z m 4.6351899,-0.5384 c 0.148071,-0.1229 0.269219,-0.2638 0.269219,-0.3132 0,-0.049 -0.121148,0.011 -0.269219,0.1337 -0.148071,0.1229 -0.26922,0.2638 -0.26922,0.3132 0,0.049 0.121149,-0.011 0.26922,-0.1337 z m 0.673049,-0.6951 0.31409,-0.2463 -0.03136,-0.8305 -0.03136,-0.8306 -0.07072,0.8042 -0.07072,0.8041 -0.21201,0.2727 -0.21201,0.2728 0.31409,-0.2464 z m -6.7479782,-0.2596 c 0.064419,-0.064 0.1096793,-0.379 0.100579,-0.6991 l -0.016546,-0.5819 0.2135107,-0.1358 0.2135106,-0.1357 -0.2316204,0 -0.2316205,0 0.033934,-0.7628 0.033933,-0.7628 1.0950862,-1.1666 1.0950861,-1.1667 -1.2114888,1.1615 -1.2114888,1.1614 0,1.6056 0,1.6055 0.117125,-0.1171 z m 2.165186,-0.885 c 0.041123,-0.2715 0.041123,-0.7157 0,-0.9871 l -0.07477,-0.4936 0,0.9871 0,0.9872 0.07477,-0.4936 z m 3.0422572,0.344 0.119653,-0.1196 -0.119653,-0.1197 -0.119653,-0.1197 0,0.2394 0,0.2393 0.119653,-0.1197 z m 0.896612,-0.075 0.09053,-0.2243 -0.09053,-0.2244 -0.09053,-0.2243 0,0.4487 0,0.4487 0.09053,-0.2244 z m -4.3366421,-0.045 c 0.049357,0 0.08974,-0.04 0.08974,-0.09 0,-0.049 -0.040383,-0.09 -0.08974,-0.09 -0.049357,0 -0.08974,0.04 -0.08974,0.09 0,0.049 0.040383,0.09 0.08974,0.09 z m -0.7952575,-0.2769 c 0.091893,-0.057 0.1670781,-0.1437 0.1670781,-0.193 0,-0.049 -0.080766,-0.04 -0.1794798,0.021 l -0.1794798,0.1109 0,-0.22 0,-0.22 -0.1077123,0.1077 -0.1077121,0.1077 0.120114,0.1944 0.120114,0.1943 0.1670779,-0.1032 z m 3.379767,0.097 c 0.049357,0 -0.00718,-0.097 -0.1256359,-0.2154 l -0.2153758,-0.2154 0,-0.3124 0,-0.3125 0.1995462,-0.1233 0.1995464,-0.1234 0.1566651,0.2474 0.1566646,0.2473 0.0027,-0.2137 c 0.0015,-0.1176 -0.08155,-0.2659 -0.1845935,-0.3296 l -0.1873414,-0.1158 -0.2613576,0.2169 -0.2613576,0.2169 0,0.3011 c 0,0.1656 0.096919,0.398 0.2153758,0.5165 0.1184567,0.1185 0.2557587,0.2154 0.3051157,0.2154 z m 1.0050866,-0.1795 c 0.04936,0 0.08974,-0.04 0.08974,-0.09 0,-0.049 -0.04038,-0.09 -0.08974,-0.09 -0.04936,0 -0.08974,0.04 -0.08974,0.09 0,0.049 0.04038,0.09 0.08974,0.09 z m -0.717919,-0.1795 c 0.04936,0 0.08974,-0.04 0.08974,-0.09 0,-0.049 -0.04038,-0.09 -0.08974,-0.09 -0.049357,0 -0.08974,0.04 -0.08974,0.09 0,0.049 0.040383,0.09 0.08974,0.09 z m -2.8716771,-0.1795 c 0.049357,0 0.08974,-0.04 0.08974,-0.09 0,-0.049 -0.040383,-0.09 -0.08974,-0.09 -0.049357,0 -0.08974,0.04 -0.08974,0.09 0,0.049 0.040383,0.09 0.08974,0.09 z m -0.2692197,-0.3589 0.2393063,0 -0.119653,-0.1197 -0.1196533,-0.1196 -0.1196533,0.1196 -0.1196531,0.1197 0.2393064,0 z m -0.3932373,-0.1823 c 0.030504,0 0.00555,-0.078 -0.055462,-0.1767 -0.061009,-0.099 -0.2071154,-0.1782 -0.324682,-0.1767 l -0.2137575,0 0.2692198,0.174 c 0.1480708,0.096 0.2941778,0.1752 0.324682,0.1767 z m 4.2819671,-0.057 0.119653,-0.1197 -0.119653,-0.1196 -0.119654,-0.1197 0,0.2393 0,0.2393 0.119654,-0.1196 z m 0.867486,0.06 c 0.14807,0 0.269219,-0.032 0.269219,-0.071 0,-0.039 -0.121149,-0.1171 -0.269219,-0.1739 l -0.26922,-0.1033 0,0.1738 0,0.1739 0.26922,0 z m -4.4869961,-0.1795 c 0.049357,0 0.08974,-0.04 0.08974,-0.09 0,-0.049 -0.040383,-0.09 -0.08974,-0.09 -0.049357,0 -0.08974,0.04 -0.08974,0.09 0,0.049 0.040383,0.09 0.08974,0.09 z m -0.1453253,-0.4812 0.1512223,-0.212 0.8047107,-0.076 0.8047107,-0.077 -0.8833693,0.019 -0.8833694,0.019 -0.072564,0.2692 -0.072564,0.2692 0.1512224,-0.212 z m 2.2769849,-0.149 c 0.2589388,-0.1697 0.4707979,-0.3424 0.4707979,-0.3839 0,-0.042 -0.1570338,0.01 -0.3489637,0.1114 -0.1919302,0.1027 -0.4037893,0.2754 -0.4707979,0.3839 l -0.1218339,0.1971 0.4707976,-0.3085 z m 1.3453035,0.2655 c 0.03676,0 -0.0337,-0.1154 -0.156586,-0.2635 -0.122888,-0.148 -0.309746,-0.2692 -0.41524,-0.2692 l -0.1918076,0 0.3483936,0.2635 c 0.191617,0.145 0.378474,0.2661 0.41524,0.2692 z m 1.757578,-0.3098 0.09103,-0.2259 -0.713394,-0.851 c -0.392366,-0.4681 -0.901226,-1.0126 -1.130798,-1.21 -0.229573,-0.1974 0.04375,0.166 0.60739,0.8077 l 1.024796,1.1666 0.01497,0.2692 0.01498,0.2692 0.09103,-0.2258 z m -6.4908999,-0.043 c 0.049357,0 0.08974,-0.04 0.08974,-0.09 0,-0.049 -0.040383,-0.09 -0.08974,-0.09 -0.049357,0 -0.08974,0.04 -0.08974,0.09 0,0.049 0.040383,0.09 0.08974,0.09 z m 0.7179193,0 c 0.049357,0 0.08974,-0.04 0.08974,-0.09 0,-0.049 -0.040383,-0.09 -0.08974,-0.09 -0.049357,0 -0.08974,0.04 -0.08974,0.09 0,0.049 0.040383,0.09 0.08974,0.09 z m 4.8459556,-0.045 0.717919,0 -0.405922,-0.078 c -0.223257,-0.043 -0.546321,-0.041 -0.717919,0 l -0.311998,0.082 0.71792,0 z m -5.2049152,-0.1342 c 0.049357,0 0.08974,-0.04 0.08974,-0.09 0,-0.049 -0.040383,-0.09 -0.08974,-0.09 -0.049357,0 -0.08974,0.04 -0.08974,0.09 0,0.049 0.040383,0.09 0.08974,0.09 z"
         id="path4366" />
      <path
         style="fill:#d30007"
         d="m 9.5638745,1048.2194 -1.1666188,0.079 -0.7396811,-0.1155 -0.7396812,-0.1155 -1.1897269,-1.1156 -1.189727,-1.1156 0,-1.6406 0,-1.6406 1.2866906,-1.327 1.2866909,-1.327 1.8093361,0.01 1.8093359,0.01 1.211489,1.3776 1.211489,1.3777 0,1.4882 0,1.4881 -1.211489,1.2473 -1.211489,1.2473 -1.1666185,0.079 z m -0.723563,-0.608 1.6994145,0.01 0.947913,-0.9362 0.947913,-0.9361 0,-0.8048 0,-0.8048 -0.215376,0.2153 -0.215376,0.2154 -0.323064,0 -0.323063,0 0,0.359 0,0.3589 -0.26922,0 -0.26922,0 -0.01138,-0.4935 -0.01138,-0.4936 -0.15798,0.3921 -0.157979,0.3921 -0.375863,0.2011 -0.3758627,0.2012 -0.332878,-0.1057 -0.3328778,-0.1056 -0.209127,-0.5049 -0.2091272,-0.5049 0.1205928,-0.4804 0.1205929,-0.4805 0.3500626,-0.2452 0.3500627,-0.2452 0.3534157,0.092 0.353416,0.092 0.255966,0.4711 0.255968,0.471 0.0072,-0.4935 0.0072,-0.4936 0.592284,0 0.592283,0 0.215376,0.2154 0.215376,0.2153 0,-0.3846 0,-0.3846 -1.006472,-1.0871 -1.006471,-1.0871 -1.4756605,0 -1.4756605,0 -1.1074646,1.0022 -1.1074646,1.0022 0,1.7015 0,1.7015 0.942269,0.879 0.9422691,0.8791 1.6994146,0.01 z m -2.6298845,-2.1523 c -0.080525,0 -0.2877494,-0.088 -0.4604987,-0.1884 l -0.3140897,-0.183 0,-0.35 0,-0.3501 0.2153758,0 0.2153758,0 -0.2153758,-0.2153 -0.2153758,-0.2154 0,-0.3129 0,-0.3129 0.3948197,-0.2765 0.3948197,-0.2766 0.4128395,0.2705 0.4128395,0.2705 0,-0.1836 0,-0.1836 0.8076592,0 0.8076592,0 0,0.25 0,0.25 -0.2692197,0.1033 -0.2692198,0.1034 0,0.8132 0,0.8133 -0.2692197,0 -0.2692197,0 0,-0.8974 0,-0.8974 -0.1922999,0 c -0.1057648,0 -0.3082991,0.116 -0.4500762,0.2578 l -0.2577766,0.2578 0.1808566,0.1118 0.1808566,0.1117 0,0.4318 0,0.4318 -0.3471605,0.1858 c -0.1909381,0.1022 -0.4130444,0.1834 -0.4935695,0.1804 z m 0.150851,-0.6401 0.1827166,-0.1129 -0.1921271,-0.1921 -0.192127,-0.1922 -0.1107035,0.1107 -0.1107035,0.1107 0.120114,0.1944 0.120114,0.1943 0.1827165,-0.1129 z m -0.017448,-0.9698 c 0.092888,0 0.1688874,-0.081 0.1688874,-0.1795 l 0,-0.1795 -0.2798121,0 -0.2798121,0 0.1109247,0.1795 c 0.061009,0.099 0.1869239,0.1795 0.2798121,0.1795 z m 3.4713314,1.023 0.1974126,-0.066 0,-0.6132 0,-0.6132 -0.3589597,0 -0.3589596,0 -0.058647,0.4137 -0.058648,0.4137 0.2201946,0.2653 0.2201949,0.2653 0.1974123,-0.066 z m 1.8117006,-0.9577 0.268189,-0.1029 -0.0993,-0.1607 c -0.05462,-0.088 -0.175301,-0.1607 -0.268189,-0.1607 l -0.168887,0 0,0.2636 0,0.2636 0.268189,-0.1029 z"
         id="path4364" />
      <path
         style="fill:#af000b"
         d="m 8.8595094,1048.1567 -1.9084621,0 -1.1165639,-1.1266 -1.1165641,-1.1265 0,-1.7589 0,-1.759 0.5060357,-0.506 c 0.2783196,-0.2783 0.8889761,-0.8375 1.3570146,-1.2425 l 0.8509788,-0.7366 1.5594609,0 1.5594607,0 1.211561,1.2782 1.21156,1.2782 0,1.6088 0,1.6087 -1.10301,1.2411 -1.10301,1.2411 -1.9084616,0 z m -0.011018,-0.5384 1.7137586,0 1.026391,-1.0372 1.026391,-1.0373 0,-1.3709 0,-1.3709 -1.021169,-1.1815 -1.021169,-1.1814 -1.6317769,0 -1.6317768,0 -1.0263905,1.0372 -1.0263907,1.0372 0,1.7308 0,1.7308 0.9391863,0.8216 0.9391863,0.8216 1.7137595,0 z m -2.2701737,-2.3212 -0.3830999,0.1405 -0.3796893,-0.2659 -0.3796896,-0.266 0,-0.259 0,-0.2591 0.1575035,0 c 0.086627,0 0.2580481,0.1212 0.380936,0.2693 0.1228878,0.148 0.294309,0.2692 0.380936,0.2692 l 0.1575034,0 0,-0.2498 0,-0.2498 -0.4367372,-0.1096 -0.4367372,-0.1096 -0.1165306,-0.3671 -0.1165306,-0.3672 0.2162845,-0.2606 0.2162845,-0.2606 0.4204085,0 0.4204083,0 0.1794798,0.3354 0.1794799,0.3353 -0.1117811,0.1118 -0.1117813,0.1118 -0.2348291,-0.1949 -0.2348293,-0.1949 -0.2303842,0.078 -0.2303843,0.078 0.5942407,0.3084 0.5942406,0.3084 -0.055801,0.4639 -0.055801,0.464 -0.3830997,0.1405 z m 3.1699716,0.162 c -0.052071,0 -0.2404924,-0.09 -0.4187144,-0.194 l -0.3240397,-0.1885 -0.1683514,-0.4428 -0.1683513,-0.4428 0.2588831,-0.6196 0.2588831,-0.6196 0.4450378,0 0.4450375,0 0.28204,0.282 0.282039,0.2821 0,0.6949 0,0.6949 -0.398895,0.2794 c -0.219392,0.1537 -0.4414979,0.277 -0.4935687,0.274 z m -0.00493,-0.533 c 0.07454,0 0.2352013,-0.1201 0.3570257,-0.2669 l 0.221498,-0.2669 -0.116126,-0.4627 -0.116126,-0.4627 -0.3974856,0.057 -0.3974857,0.056 -0.058647,0.4137 -0.058648,0.4137 0.2152338,0.2593 c 0.1183786,0.1427 0.2762209,0.2594 0.3507609,0.2594 z m -1.8845382,0.3589 -0.2692197,0 0,-0.8974 0,-0.8974 -0.2692198,0 -0.2692197,0 0,-0.2692 0,-0.2692 0.7073269,0 0.707327,0 0.111708,0.1807 0.1117081,0.1808 -0.2805955,0.1077 -0.2805956,0.1076 0,0.8782 0,0.8782 -0.2692197,0 z m 3.2306369,0 -0.26922,0 0,-1.1666 0,-1.1666 0.632028,0 0.632027,0 0.202019,0.4434 0.20202,0.4434 -0.227844,0.2745 -0.227844,0.2745 -0.336983,0 -0.336983,0 0,0.4487 0,0.4487 -0.26922,0 z m 0.482352,-1.2975 c 0.117223,-0.039 0.245102,-0.1669 0.284176,-0.2841 l 0.07104,-0.2132 -0.284177,0 -0.284176,0 0,0.2842 0,0.2842 0.213132,-0.071 z"
         id="path4362" />
      <path
         style="fill:#90000f"
         d="m 8.7810464,1048.1567 -1.7609588,0 -1.1510841,-1.1053 -1.1510842,-1.1053 0,-1.7263 0,-1.7263 1.215993,-1.2067 1.2159931,-1.2067 1.8090329,0 1.8090327,0 1.10301,1.2411 1.10301,1.2411 0,1.5905 0,1.5906 -1.215993,1.2066 -1.215993,1.2067 -1.7609586,0 z m 0.090223,-0.3589 1.6672816,0 1.03824,-1.1186 1.038241,-1.1185 0,-1.4115 0,-1.4115 -1.009058,-1.1493 -1.009057,-1.1493 -1.6334416,0 -1.6334411,0 -1.126578,1.1165 -1.1265778,1.1166 0,1.5483 0,1.5483 1.0635549,1.0145 1.0635548,1.0145 1.6672812,0 z m -2.6434336,-2.5128 -0.4204083,0 -0.1862801,-0.348 -0.18628,-0.3481 0.1812329,-0.112 0.1812329,-0.112 0.1076746,0.2806 0.1076746,0.2806 0.2500174,0 0.2500173,0 0,-0.2404 0,-0.2404 -0.4604747,-0.2099 -0.4604745,-0.2098 0.056645,-0.492 0.056645,-0.4921 0.4945901,-0.057 0.4945898,-0.057 0.1108922,0.2889 0.1108921,0.289 -0.1075752,0.1076 -0.1075753,0.1076 -0.2575783,-0.2138 -0.2575785,-0.2138 -0.1158392,0.1875 -0.115839,0.1874 0.4553701,0.2075 0.4553702,0.2075 0.1080183,0.3403 0.1080181,0.3403 -0.2162845,0.2606 -0.2162845,0.2606 -0.4204085,0 z m 1.63098,0 -0.2692197,0 0,-0.8782 0,-0.8782 -0.2805956,-0.1076 -0.2805955,-0.1077 0.1117081,-0.1808 0.111708,-0.1807 0.6175871,0 0.617587,0 0,0.2692 0,0.2692 -0.1794798,0 -0.1794799,0 0,0.8974 0,0.8974 -0.2692197,0 z m 1.9141193,0 -0.4962287,0 -0.2153758,-0.2153 -0.2153758,-0.2154 0,-0.6692 0,-0.6692 0.2820398,-0.2821 0.2820397,-0.282 0.3183225,0 0.3183232,0 0.297037,0.3282 0.297036,0.3282 0,0.4913 c 0,0.2702 -0.08361,0.6474 -0.185794,0.8384 l -0.185795,0.3471 -0.4962289,0 z m -0.1253037,-0.3589 c 0.1118757,0 0.3003296,-0.097 0.4187866,-0.2154 l 0.215376,-0.2154 0,-0.4065 0,-0.4065 -0.3314646,-0.1773 -0.3314641,-0.1774 -0.2069754,0.2069 -0.2069754,0.207 0,0.4726 c 0,0.26 0.053844,0.5265 0.1196533,0.5923 0.065809,0.066 0.2111878,0.1197 0.3230636,0.1197 z m 1.4418216,0.3589 -0.26922,0 0,-1.0825 0,-1.0825 0.269621,-0.1035 0.269621,-0.1034 0.459211,0.1152 0.45921,0.1153 -0.05578,0.5771 -0.05578,0.5772 -0.40383,0.057 -0.403829,0.057 0,0.4362 0,0.4362 -0.26922,0 z m 0.4487,-1.2563 c 0.08706,0 0.211532,-0.086 0.276599,-0.1914 l 0.118305,-0.1915 -0.09997,-0.1 -0.09997,-0.1 -0.288337,0.1106 -0.288336,0.1107 0.111708,0.1807 c 0.06144,0.099 0.182941,0.1808 0.270004,0.1808 z"
         id="path4360" />
      <path
         style="fill:#6c0013"
         d="m 8.8411263,1047.9723 -1.8797092,0 -1.1217489,-0.9993 -1.1217489,-0.9993 0,-1.7377 0,-1.7376 1.215993,-1.2067 1.2159931,-1.2067 1.7958257,0 1.7958259,0 1.116217,1.2685 1.116217,1.2684 0,1.5636 0,1.5635 -1.126578,1.1166 -1.126578,1.1165 -1.8797087,0 z m 0.00483,-0.1745 1.7162947,0 1.026391,-1.0373 1.026391,-1.0372 -8.07e-4,-1.5203 -8.07e-4,-1.5204 -1.000669,-1.1218 -1.000669,-1.1217 -1.6410227,0 -1.6410225,0 -1.126578,1.1165 -1.1265778,1.1166 0,1.5256 0,1.5255 1.0263908,1.0372 1.0263905,1.0373 1.716295,0 z m -2.6144052,-2.5128 -0.4480176,0 -0.1062797,-0.2769 -0.1062797,-0.277 0.1364843,-0.1269 0.1364843,-0.1268 0.080125,0.2243 0.080125,0.2244 0.2436706,0 c 0.134019,0 0.2914611,-0.077 0.3498714,-0.1719 l 0.1062005,-0.1718 -0.5554328,-0.2872 -0.5554329,-0.2872 0.055995,-0.3752 0.055995,-0.3751 0.310722,-0.1948 0.3107221,-0.1948 0.3067741,0.3068 0.3067739,0.3068 -0.1269177,0.1269 -0.1269179,0.1269 -0.2123846,-0.2124 c -0.1168114,-0.1168 -0.2769972,-0.2123 -0.3559683,-0.2123 l -0.1435838,0 0,0.2692 0,0.2692 0.2414025,0 0.2414027,0 0.3113422,0.344 0.311342,0.3441 -0.2000999,0.3738 -0.2000999,0.3739 -0.4480177,0 z m 1.5375263,0 -0.1794798,0 0,-0.8782 0,-0.8782 -0.2805956,-0.1076 -0.2805955,-0.1077 0.1117081,-0.1808 0.111708,-0.1807 0.6175871,0 0.617587,0 0,0.2692 0,0.2692 -0.2692197,0 -0.2692198,0 0,0.8974 0,0.8974 -0.1794798,0 z m 1.8780329,0 -0.4295647,0 -0.1857946,-0.3471 -0.1857947,-0.3472 0,-0.5374 0,-0.5374 0.2820398,-0.2821 c 0.1551218,-0.1551 0.3974195,-0.282 0.5384395,-0.282 l 0.2563997,0 0.3589597,0.359 0.358959,0.3589 0,0.5256 0,0.5257 -0.282039,0.282 -0.28204,0.282 -0.4295647,0 z m 5.205e-4,-0.3589 c 0.1118778,0 0.3003317,-0.097 0.4187882,-0.2154 l 0.215376,-0.2154 0,-0.3908 0,-0.3908 -0.26922,-0.2235 -0.2692195,-0.2234 -0.2692198,0.2234 -0.2692197,0.2235 0,0.4865 c 0,0.2676 0.053844,0.5404 0.1196533,0.6062 0.065809,0.066 0.2111878,0.1197 0.3230636,0.1197 z m 1.3435172,0.3589 -0.188045,0 0.05343,-1.1217 0.05344,-1.1218 0.413709,-0.059 0.413708,-0.059 0.268415,0.2228 0.268415,0.2228 -0.05394,0.464 -0.05394,0.4641 -0.49357,0.057 -0.493569,0.057 0,0.4368 0,0.4367 -0.188044,0 z m 0.547006,-1.2563 0.358959,0 0,-0.25 0,-0.2501 -0.251672,-0.097 -0.251673,-0.097 -0.107287,0.1073 c -0.05901,0.059 -0.107287,0.215 -0.107287,0.3466 l 0,0.2393 0.35896,0 z"
         id="path4358" />
      <path
         style="fill:#4b0017"
         d="m 8.8515735,1047.9736 -1.8901564,0 -1.032009,-0.9987 -1.032009,-0.9987 0,-1.8297 0,-1.8297 1.1265778,-1.1165 1.126578,-1.1166 1.7899692,0 1.7899689,0 1.056829,1.2476 1.056828,1.2475 -0.03438,1.6655 -0.03438,1.6655 -1.016831,1.032 -1.016831,1.032 -1.8901565,0 z m -0.00562,-0.1758 1.7162945,0 1.026391,-1.0373 1.026391,-1.0372 0,-1.542 0,-1.5419 -0.94227,-1.0872 -0.942269,-1.0872 -1.7193419,-0.013 -1.7193426,-0.013 -1.1074646,1.0022 -1.1074647,1.0022 0,1.6399 0,1.6399 1.0263908,1.0372 1.0263905,1.0373 1.716295,0 z m -2.5346594,-2.5479 -0.4706415,0.055 -0.1126679,-0.2937 c -0.061967,-0.1614 -0.112668,-0.3372 -0.112668,-0.3906 0,-0.053 0.1201203,0 0.2669341,0.1245 l 0.266934,0.2215 0.2715054,-0.1042 c 0.149328,-0.057 0.2715055,-0.1795 0.2715055,-0.2717 l 0,-0.1675 -0.5384395,-0.1878 -0.5384395,-0.1877 0,-0.3619 0,-0.362 0.3187244,-0.1706 0.3187244,-0.1706 0.309455,0.1732 c 0.1702002,0.095 0.309455,0.2506 0.309455,0.3453 l 0,0.1721 -0.35448,-0.2214 -0.3544799,-0.2214 -0.204582,0.2046 -0.2045822,0.2046 0.5699932,0.2947 0.5699933,0.2948 -0.055801,0.4833 -0.055801,0.4833 -0.4706415,0.055 z m 1.5876677,-0.7725 -0.065185,0.8974 -0.032351,-0.9334 -0.032351,-0.9333 -0.3140897,-0.183 -0.3140897,-0.1829 0.7073533,-0.01 0.7073532,-0.01 -0.2957271,0.2243 -0.2957273,0.2244 -0.065186,0.8974 z m 1.7568282,0.8076 -0.4382472,0 -0.1857946,-0.3471 -0.1857947,-0.3472 0,-0.54 0,-0.5401 0.3796896,-0.266 0.3796894,-0.2659 0.3821815,0.1414 0.382181,0.1414 0.159872,0.5574 0.159871,0.5574 -0.2977,0.4544 -0.297701,0.4543 -0.438247,0 z m 0.1699168,-0.3962 0.3663452,-0.053 0.05403,-0.5537 0.05404,-0.5537 -0.276099,-0.2292 -0.276099,-0.2291 -0.2715054,0.1042 -0.2715054,0.1042 0,0.6039 c 0,0.3321 0.057251,0.6611 0.1272241,0.7311 l 0.1272241,0.1272 0.3663454,-0.052 z m 1.3005842,0.013 -0.0728,0.4732 -0.02689,-1.1331 -0.02689,-1.1332 0.58331,0.056 0.583309,0.056 0.05699,0.4956 0.05699,0.4957 -0.540611,0.1081 -0.540612,0.1081 -0.0728,0.4732 z m 0.401267,-0.8729 0.348368,0 0.09836,-0.1592 0.09836,-0.1591 -0.259382,-0.2153 -0.259381,-0.2152 -0.187342,0.1157 c -0.103038,0.064 -0.187342,0.2322 -0.187342,0.3744 l 0,0.2587 0.348367,0 z"
         id="path4356" />
      <path
         style="fill:#2c001b"
         d="m 8.8578863,1047.9772 -1.9077059,0 -1.0263906,-1.0372 -1.0263907,-1.0372 0,-1.7047 0,-1.7046 1.2159931,-1.2067 1.215993,-1.2067 1.6400346,0 1.6400342,0 1.089095,1.2115 1.089096,1.2115 0.0034,1.6735 0.0034,1.6735 -1.014459,1.0636 -1.01446,1.0635 -1.9077057,0 z m 0.017771,-0.1864 1.7347607,0.01 0.99869,-1.0321 0.998689,-1.032 0.0036,-1.5829 0.0036,-1.5829 -1.032009,-1.1541 -1.032009,-1.154 -1.5859838,-10e-5 -1.5859831,-10e-5 -1.1510842,1.1053 -1.1510842,1.1054 -0.00244,1.7214 -0.00244,1.7215 1.0344494,0.9353 1.0344494,0.9353 1.7347606,0.01 z m -2.454776,-2.5438 -0.361056,0.052 -0.2222535,-0.2223 c -0.1222395,-0.1222 -0.2222536,-0.303 -0.2222536,-0.4017 l 0,-0.1795 0.2153758,0.2154 0.2153758,0.2154 0.3230637,0 0.3230637,0 0,-0.2658 0,-0.2658 -0.4422679,-0.111 -0.4422679,-0.111 -0.1140006,-0.3592 -0.1140005,-0.3592 0.1766084,-0.1766 0.1766085,-0.1766 0.4104717,0.06 0.4104716,0.06 0.088115,0.2692 0.088116,0.2693 -0.2961214,-0.2445 -0.2961212,-0.2444 -0.2828812,0.1085 -0.2828813,0.1086 0.1185502,0.1918 c 0.065203,0.1055 0.3179805,0.2677 0.5617285,0.3603 l 0.443178,0.1685 -0.056783,0.4935 -0.056783,0.4935 -0.3610558,0.052 z m 1.4804851,-0.8927 -0.064417,1.0205 -0.033937,-1.0189 -0.033937,-1.0188 -0.3140897,-0.082 -0.3140897,-0.082 0.7179193,0 0.7179193,0 -0.3054761,0.08 -0.3054761,0.081 -0.064417,1.0205 z m 1.8189119,0.9307 -0.3102438,0 -0.2820397,-0.282 -0.2820398,-0.282 0,-0.4477 c 0,-0.2462 0.083608,-0.6039 0.1857947,-0.7949 l 0.1857946,-0.3471 0.4064888,0 0.4064889,0 0.215376,0.2154 0.215376,0.2153 0,0.6462 0,0.6461 -0.215376,0.2154 -0.215376,0.2153 -0.3102437,0 z m 0.08009,-0.3929 0.3916857,-0.056 0,-0.7179 0,-0.7179 -0.4020934,-0.057 -0.4020935,-0.057 -0.199681,0.4383 -0.199681,0.4382 0.2100887,0.3926 0.2100887,0.3926 0.3916858,-0.056 z m 1.3268307,2e-4 -0.0737,0.4825 -0.02689,-1.1218 -0.02689,-1.1217 0.544073,0 0.544072,0 0.112671,0.2936 0.11267,0.2936 -0.181503,0.2897 -0.181503,0.2897 -0.374646,0.056 -0.374646,0.056 -0.0737,0.4825 z m 0.418891,-0.6841 c 0.07017,0 0.225198,-0.1177 0.344497,-0.2614 l 0.216908,-0.2614 -0.115784,-0.1873 -0.115783,-0.1873 -0.348368,0 -0.348367,0 0,0.329 c 0,0.181 0.05384,0.3829 0.119653,0.4487 0.06581,0.066 0.177069,0.1197 0.247244,0.1197 z"
         id="path4354" />
      <path
         style="fill:#16001e"
         d="m 8.840337,1047.9394 -1.8901566,0.038 -1.0263906,-1.0372 -1.0263907,-1.0372 0,-1.7047 0,-1.7046 1.2159931,-1.2067 1.215993,-1.2067 1.6221051,0 1.6221047,0 0.527149,0.5833 0.527149,0.5833 -0.548261,-0.4935 -0.54826,-0.4936 -1.6106826,0 -1.6106825,0 -1.1165639,1.1266 -1.1165641,1.1266 0,1.7063 0,1.7064 0.9422691,0.9297 0.9422691,0.9298 1.8845381,0.058 1.8845378,0.058 -1.890156,0.038 z m 2.347901,-0.4508 -0.419712,0.3989 0.339943,-0.476 c 0.186969,-0.2618 0.37584,-0.4413 0.419712,-0.3988 0.04387,0.042 -0.109101,0.2566 -0.339943,0.4759 z m 0.736042,-0.9472 c -0.04936,0 0.09995,-0.2019 0.331792,-0.4487 0.231842,-0.2468 0.461914,-0.4487 0.511271,-0.4487 0.04936,0 -0.09995,0.2019 -0.331791,0.4487 -0.231842,0.2468 -0.461915,0.4487 -0.511272,0.4487 z m -5.6807822,-1.2564 c -0.1085853,0 -0.2943469,-0.097 -0.4128036,-0.2153 -0.1184567,-0.1185 -0.2153758,-0.2858 -0.2153758,-0.3718 l 0,-0.1564 0.2900522,0.29 0.2900523,0.2901 0.2035172,-0.068 c 0.1119345,-0.037 0.2283534,-0.1957 0.2587088,-0.3522 l 0.055191,-0.2845 -0.5038908,-0.2415 -0.5038911,-0.2415 0,-0.3565 0,-0.3566 0.4706415,-0.055 0.4706415,-0.054 0.1233014,0.3238 0.1233012,0.3238 -0.226009,-0.2244 -0.2260093,-0.2243 -0.3230637,0 -0.3230637,0 0,0.2785 0,0.2786 0.5384395,0.1877 0.5384395,0.1877 0,0.3055 c 0,0.168 -0.096919,0.4024 -0.2153758,0.5209 -0.1184567,0.1184 -0.3042183,0.2153 -0.4128036,0.2153 z m 1.6578688,-0.9307 -0.064417,1.0205 -0.033937,-1.0189 -0.033937,-1.0188 -0.3140897,-0.082 -0.3140897,-0.082 0.7179193,0 0.7179193,0 -0.3054761,0.08 -0.3054761,0.081 -0.064417,1.0205 z m 1.8458502,0.9307 -0.3424676,0 -0.279397,-0.3989 -0.279397,-0.3989 0,-0.3959 0,-0.3959 0.2820398,-0.2821 0.2820397,-0.282 0.3102438,0 0.3102435,0 0.215376,0.2154 c 0.118457,0.1184 0.210256,0.3405 0.203999,0.4935 l -0.01138,0.2782 -0.16232,-0.4038 -0.162319,-0.4038 -0.3584288,0 -0.3584284,0 -0.201056,0.3756 -0.201056,0.3757 0.103452,0.4122 0.103452,0.4122 0.3140673,0.1205 0.3140672,0.1205 0.3156617,-0.3898 c 0.173614,-0.2144 0.315662,-0.3352 0.315662,-0.2684 0,0.067 -0.08361,0.2776 -0.185795,0.4686 l -0.185795,0.3471 -0.3424672,0 z m 1.3810492,-0.4038 -0.07477,0.4936 -0.02689,-1.1218 -0.02689,-1.1217 0.526345,0 0.526345,0 0.116663,0.3675 0.116663,0.3676 -0.216285,0.2606 -0.216284,0.2606 -0.325062,0 -0.325062,0 -0.07477,0.4936 z m 0.454757,-0.7054 0.403829,-0.057 0,-0.3589 0,-0.359 -0.403829,-0.057 -0.40383,-0.057 0,0.4737 0,0.4736 0.40383,-0.057 z m 1.202514,-1.5303 c -0.04442,0.036 -0.358364,-0.2646 -0.697651,-0.667 l -0.616885,-0.7318 0.697651,0.6671 c 0.383708,0.3669 0.661307,0.6962 0.616885,0.7317 z"
         id="path4352" />
      <path
         style="fill:#050020"
         d="m 7.1408969,1047.9772 c -0.049357,0 -0.08974,-0.04 -0.08974,-0.09 0,-0.049 0.040383,-0.09 0.08974,-0.09 0.049357,0 0.08974,0.04 0.08974,0.09 0,0.049 -0.040383,0.09 -0.08974,0.09 z m 3.4101171,0 c -0.04936,0 -0.08974,-0.04 -0.08974,-0.09 0,-0.049 0.04038,-0.09 0.08974,-0.09 0.04936,0 0.08974,0.04 0.08974,0.09 0,0.049 -0.04038,0.09 -0.08974,0.09 z m -3.747892,-0.1794 c -0.049357,0 -0.139656,-0.081 -0.2006646,-0.1795 -0.061009,-0.099 -0.070542,-0.1795 -0.021185,-0.1795 0.049357,0 0.139656,0.081 0.2006646,0.1795 0.061009,0.099 0.070542,0.1795 0.021185,0.1795 z m -0.8966074,-0.8974 c -0.03727,0 -0.1786104,-0.1414 -0.3140898,-0.3141 l -0.2463261,-0.3141 0.3140897,0.2463 c 0.1727493,0.1355 0.3140897,0.2768 0.3140897,0.3141 0,0.037 -0.030494,0.068 -0.067763,0.068 z m 1.9523016,-1.6154 c -0.049357,0 -0.08974,-0.04 -0.08974,-0.09 0,-0.049 0.040383,-0.09 0.08974,-0.09 0.049357,0 0.08974,0.04 0.08974,0.09 0,0.049 -0.040383,0.09 -0.08974,0.09 z m -1.9693187,-0.1794 c -0.040433,0 -0.1267516,-0.086 -0.1918191,-0.1915 -0.065067,-0.1052 -0.079812,-0.2299 -0.032765,-0.2769 0.047047,-0.047 0.1333654,0.039 0.1918193,0.1914 0.058454,0.1523 0.073198,0.277 0.032765,0.277 z m 0.9440874,-0.3345 -0.078475,0.2355 -0.1111544,-0.4251 -0.1111544,-0.4251 0.1896296,0.1897 0.1896294,0.1896 -0.078475,0.2354 z m 3.4704801,0.023 -0.223018,0.2213 0.122546,-0.3218 0.122546,-0.3218 0.100472,0.1004 0.100472,0.1005 -0.223018,0.2214 z m 1.054608,-0.4069 -0.35896,0 0,-0.1626 0,-0.1627 0.35896,0.094 c 0.197428,0.052 0.358959,0.1248 0.358959,0.1626 0,0.038 -0.161531,0.069 -0.358959,0.069 z m -5.1829387,-0.1794 c -0.086627,0 -0.259668,-0.1231 -0.3845357,-0.2736 -0.1248677,-0.1505 -0.1953315,-0.2985 -0.1565862,-0.329 0.038745,-0.031 0.2117863,0.092 0.3845356,0.2735 l 0.3140897,0.3291 -0.1575034,0 z m 5.9716777,-0.1786 -0.190332,0.1904 0.01489,-0.4098 0.01489,-0.4097 -0.493569,0.01 -0.49357,0.01 0,-0.1536 0,-0.1536 0.475467,0.057 0.475467,0.057 0.193548,0.3092 0.193549,0.3091 -0.190332,0.1903 z m -1.775878,-0.1804 c -0.04936,0 -0.08974,-0.04 -0.08974,-0.09 0,-0.049 0.04038,-0.09 0.08974,-0.09 0.04936,0 0.08974,0.04 0.08974,0.09 0,0.049 -0.04038,0.09 -0.08974,0.09 z m -0.124018,-0.3769 c -0.0305,-0.01 -0.2573769,-0.082 -0.5041616,-0.1615 l -0.4486996,-0.1437 0.3932372,-0.018 0.393237,-0.018 0.110925,0.1795 c 0.06101,0.099 0.08597,0.1714 0.05546,0.1615 z m -3.9890616,-0.1757 -0.3440029,0.014 0.1084356,-0.1085 0.1084358,-0.1084 0.2355673,0.094 0.2355672,0.094 -0.344003,0.014 z m 1.6003618,-0.031 -0.7179193,0 0.3119971,-0.082 c 0.1715984,-0.045 0.4946621,-0.046 0.7179193,0 l 0.4059222,0.078 -0.7179193,0 z M 6.064018,1041.516 c -0.6416404,0.6359 -1.1666189,1.1158 -1.1666189,1.0665 0,-0.049 0.5249785,-0.6101 1.1666189,-1.246 0.6416403,-0.636 1.1666188,-1.1159 1.1666188,-1.0665 0,0.049 -0.5249785,0.61 -1.1666188,1.246 z m 6.672039,1.0768 c -0.03215,0 -0.254256,-0.2221 -0.493569,-0.4935 l -0.435116,-0.4936 0.49357,0.4351 c 0.271463,0.2393 0.493569,0.4614 0.493569,0.4936 0,0.032 -0.0263,0.058 -0.05845,0.058 z m -1.439307,-1.6153 c -0.03406,0 -0.215781,-0.1817 -0.40383,-0.4038 l -0.341906,-0.4038 0.403829,0.3419 c 0.222106,0.188 0.40383,0.3697 0.40383,0.4038 0,0.034 -0.02787,0.062 -0.06192,0.062 z"
         id="path4350" />
    </g>
  </g>
</svg>
