<?xml version="1.0" encoding="UTF-8" standalone="no"?>
<!-- Created with Inkscape (http://www.inkscape.org/) -->

<svg
   xmlns:dc="http://purl.org/dc/elements/1.1/"
   xmlns:cc="http://creativecommons.org/ns#"
   xmlns:rdf="http://www.w3.org/1999/02/22-rdf-syntax-ns#"
   xmlns:svg="http://www.w3.org/2000/svg"
   xmlns="http://www.w3.org/2000/svg"
   xmlns:sodipodi="http://sodipodi.sourceforge.net/DTD/sodipodi-0.dtd"
   xmlns:inkscape="http://www.inkscape.org/namespaces/inkscape"
   width="16"
   height="16"
   id="svg2"
   version="1.1"
   inkscape:version="0.47 r22583"
   sodipodi:docname="STOP1-32.svg">
  <defs
     id="defs4">
    <inkscape:perspective
       sodipodi:type="inkscape:persp3d"
       inkscape:vp_x="0 : 526.18109 : 1"
       inkscape:vp_y="0 : 1000 : 0"
       inkscape:vp_z="744.09448 : 526.18109 : 1"
       inkscape:persp3d-origin="372.04724 : 350.78739 : 1"
       id="perspective10" />
    <inkscape:perspective
       id="perspective2824"
       inkscape:persp3d-origin="0.5 : 0.33333333 : 1"
       inkscape:vp_z="1 : 0.5 : 1"
       inkscape:vp_y="0 : 1000 : 0"
       inkscape:vp_x="0 : 0.5 : 1"
       sodipodi:type="inkscape:persp3d" />
    <inkscape:perspective
       id="perspective5878"
       inkscape:persp3d-origin="0.5 : 0.33333333 : 1"
       inkscape:vp_z="1 : 0.5 : 1"
       inkscape:vp_y="0 : 1000 : 0"
       inkscape:vp_x="0 : 0.5 : 1"
       sodipodi:type="inkscape:persp3d" />
    <inkscape:perspective
       id="perspective5921"
       inkscape:persp3d-origin="0.5 : 0.33333333 : 1"
       inkscape:vp_z="1 : 0.5 : 1"
       inkscape:vp_y="0 : 1000 : 0"
       inkscape:vp_x="0 : 0.5 : 1"
       sodipodi:type="inkscape:persp3d" />
    <inkscape:perspective
       id="perspective5943"
       inkscape:persp3d-origin="0.5 : 0.33333333 : 1"
       inkscape:vp_z="1 : 0.5 : 1"
       inkscape:vp_y="0 : 1000 : 0"
       inkscape:vp_x="0 : 0.5 : 1"
       sodipodi:type="inkscape:persp3d" />
    <inkscape:perspective
       id="perspective5989"
       inkscape:persp3d-origin="0.5 : 0.33333333 : 1"
       inkscape:vp_z="1 : 0.5 : 1"
       inkscape:vp_y="0 : 1000 : 0"
       inkscape:vp_x="0 : 0.5 : 1"
       sodipodi:type="inkscape:persp3d" />
    <inkscape:perspective
       id="perspective6011"
       inkscape:persp3d-origin="0.5 : 0.33333333 : 1"
       inkscape:vp_z="1 : 0.5 : 1"
       inkscape:vp_y="0 : 1000 : 0"
       inkscape:vp_x="0 : 0.5 : 1"
       sodipodi:type="inkscape:persp3d" />
    <inkscape:perspective
       id="perspective6033"
       inkscape:persp3d-origin="0.5 : 0.33333333 : 1"
       inkscape:vp_z="1 : 0.5 : 1"
       inkscape:vp_y="0 : 1000 : 0"
       inkscape:vp_x="0 : 0.5 : 1"
       sodipodi:type="inkscape:persp3d" />
    <inkscape:perspective
       id="perspective6245"
       inkscape:persp3d-origin="0.5 : 0.33333333 : 1"
       inkscape:vp_z="1 : 0.5 : 1"
       inkscape:vp_y="0 : 1000 : 0"
       inkscape:vp_x="0 : 0.5 : 1"
       sodipodi:type="inkscape:persp3d" />
    <inkscape:perspective
       id="perspective6269"
       inkscape:persp3d-origin="0.5 : 0.33333333 : 1"
       inkscape:vp_z="1 : 0.5 : 1"
       inkscape:vp_y="0 : 1000 : 0"
       inkscape:vp_x="0 : 0.5 : 1"
       sodipodi:type="inkscape:persp3d" />
    <inkscape:perspective
       id="perspective6364"
       inkscape:persp3d-origin="0.5 : 0.33333333 : 1"
       inkscape:vp_z="1 : 0.5 : 1"
       inkscape:vp_y="0 : 1000 : 0"
       inkscape:vp_x="0 : 0.5 : 1"
       sodipodi:type="inkscape:persp3d" />
    <inkscape:perspective
       id="perspective6396"
       inkscape:persp3d-origin="0.5 : 0.33333333 : 1"
       inkscape:vp_z="1 : 0.5 : 1"
       inkscape:vp_y="0 : 1000 : 0"
       inkscape:vp_x="0 : 0.5 : 1"
       sodipodi:type="inkscape:persp3d" />
    <inkscape:perspective
       id="perspective6438"
       inkscape:persp3d-origin="0.5 : 0.33333333 : 1"
       inkscape:vp_z="1 : 0.5 : 1"
       inkscape:vp_y="0 : 1000 : 0"
       inkscape:vp_x="0 : 0.5 : 1"
       sodipodi:type="inkscape:persp3d" />
  </defs>
  <sodipodi:namedview
     id="base"
     pagecolor="#ffffff"
     bordercolor="#666666"
     borderopacity="1.0"
     inkscape:pageopacity="0.0"
     inkscape:pageshadow="2"
     inkscape:zoom="8.671875"
     inkscape:cx="10.564203"
     inkscape:cy="2.743179"
     inkscape:document-units="px"
     inkscape:current-layer="layer1"
     showgrid="true"
     inkscape:window-width="1280"
     inkscape:window-height="780"
     inkscape:window-x="-8"
     inkscape:window-y="-8"
     inkscape:window-maximized="1">
    <inkscape:grid
       type="xygrid"
       id="grid6324"
       empspacing="5"
       visible="true"
       enabled="true"
       snapvisiblegridlinesonly="true" />
  </sodipodi:namedview>
  <metadata
     id="metadata7">
    <rdf:RDF>
      <cc:Work
         rdf:about="">
        <dc:format>image/svg+xml</dc:format>
        <dc:type
           rdf:resource="http://purl.org/dc/dcmitype/StillImage" />
        <dc:title></dc:title>
      </cc:Work>
    </rdf:RDF>
  </metadata>
  <g
     inkscape:label="Calque 1"
     inkscape:groupmode="layer"
     id="layer1"
     transform="translate(0,-1036.3622)">
    <g
       id="g6444"
       transform="translate(0.243188,0.1509)">
      <path
         style="fill:#bfbfbf"
         d="m 7.5446041,1050.4474 -2.7511102,-0.017 -1.8506303,-1.8862 -1.8506303,-1.8862 0,-2.4737 0,-2.4737 1.9035054,-1.9035 1.9035056,-1.9035 2.6982348,0 2.6982349,0 1.903506,1.9035 1.903505,1.9035 0,2.4739 0,2.4739 -1.903505,1.9035 -1.903506,1.9035 -2.7511099,-0.017 z"
         id="path6450" />
      <path
         style="fill:#fe0000"
         d="m 7.5446041,1050.4474 -2.7511102,-0.017 -1.8506303,-1.8862 -1.8506303,-1.8862 0,-2.4737 0,-2.4737 1.9035054,-1.9035 1.9035056,-1.9035 2.6982348,0 2.6982349,0 1.903506,1.9035 1.903505,1.9035 0,2.4739 0,2.4739 -1.903505,1.9035 -1.903506,1.9035 -2.7511099,-0.017 z m 4.037e-4,-0.4485 2.7515332,0.017 1.678773,-1.6788 1.678773,-1.6788 0,-2.4747 0,-2.4748 -1.678773,-1.6787 -1.678773,-1.6788 -2.6990619,0 -2.6990619,0 -1.6787731,1.6788 -1.6787731,1.6787 0,2.4745 0,2.4745 1.6263114,1.6617 1.6263115,1.6617 2.7515236,0.017 z m 5.384e-4,-0.897 -2.3034147,-0.017 -1.4019926,-1.4371 -1.4019926,-1.4372 0,-2.0268 0,-2.0269 1.4539181,-1.4539 1.4539184,-1.4539 2.2514963,0 2.2514963,0 1.4539186,1.4539 1.453918,1.4539 0,2.0272 0,2.0272 -1.453918,1.4539 -1.4539186,1.4539 -2.3034218,-0.017 z"
         id="path6448" />
      <path
         style="fill:#000000"
         d="m 7.5446041,1050.4474 -2.7511102,-0.017 -1.8506303,-1.8862 -1.8506303,-1.8862 0,-2.4737 0,-2.4737 1.9035054,-1.9035 1.9035056,-1.9035 2.6982348,0 2.6982349,0 1.903506,1.9035 1.903505,1.9035 0,2.4739 0,2.4739 -1.903505,1.9035 -1.903506,1.9035 -2.7511099,-0.017 z m 4.037e-4,-0.4485 2.7515332,0.017 1.678773,-1.6788 1.678773,-1.6788 0,-2.4747 0,-2.4748 -1.678773,-1.6787 -1.678773,-1.6788 -2.6990619,0 -2.6990619,0 -1.6787731,1.6788 -1.6787731,1.6787 0,2.4745 0,2.4745 1.6263114,1.6617 1.6263115,1.6617 2.7515236,0.017 z"
         id="path6446" />
    </g>
  </g>
</svg>
