<?xml version="1.0" encoding="UTF-8" standalone="no"?>
<!-- Created with Inkscape (http://www.inkscape.org/) -->

<svg
   xmlns:dc="http://purl.org/dc/elements/1.1/"
   xmlns:cc="http://creativecommons.org/ns#"
   xmlns:rdf="http://www.w3.org/1999/02/22-rdf-syntax-ns#"
   xmlns:svg="http://www.w3.org/2000/svg"
   xmlns="http://www.w3.org/2000/svg"
   xmlns:sodipodi="http://sodipodi.sourceforge.net/DTD/sodipodi-0.dtd"
   xmlns:inkscape="http://www.inkscape.org/namespaces/inkscape"
   width="16"
   height="16"
   id="svg2"
   version="1.1"
   inkscape:version="0.47 r22583"
   sodipodi:docname="synagogue-64.svg">
  <defs
     id="defs4">
    <inkscape:perspective
       sodipodi:type="inkscape:persp3d"
       inkscape:vp_x="0 : 526.18109 : 1"
       inkscape:vp_y="0 : 1000 : 0"
       inkscape:vp_z="744.09448 : 526.18109 : 1"
       inkscape:persp3d-origin="372.04724 : 350.78739 : 1"
       id="perspective10" />
    <inkscape:perspective
       id="perspective2824"
       inkscape:persp3d-origin="0.5 : 0.33333333 : 1"
       inkscape:vp_z="1 : 0.5 : 1"
       inkscape:vp_y="0 : 1000 : 0"
       inkscape:vp_x="0 : 0.5 : 1"
       sodipodi:type="inkscape:persp3d" />
    <inkscape:perspective
       id="perspective5878"
       inkscape:persp3d-origin="0.5 : 0.33333333 : 1"
       inkscape:vp_z="1 : 0.5 : 1"
       inkscape:vp_y="0 : 1000 : 0"
       inkscape:vp_x="0 : 0.5 : 1"
       sodipodi:type="inkscape:persp3d" />
    <inkscape:perspective
       id="perspective5921"
       inkscape:persp3d-origin="0.5 : 0.33333333 : 1"
       inkscape:vp_z="1 : 0.5 : 1"
       inkscape:vp_y="0 : 1000 : 0"
       inkscape:vp_x="0 : 0.5 : 1"
       sodipodi:type="inkscape:persp3d" />
    <inkscape:perspective
       id="perspective5943"
       inkscape:persp3d-origin="0.5 : 0.33333333 : 1"
       inkscape:vp_z="1 : 0.5 : 1"
       inkscape:vp_y="0 : 1000 : 0"
       inkscape:vp_x="0 : 0.5 : 1"
       sodipodi:type="inkscape:persp3d" />
    <inkscape:perspective
       id="perspective5989"
       inkscape:persp3d-origin="0.5 : 0.33333333 : 1"
       inkscape:vp_z="1 : 0.5 : 1"
       inkscape:vp_y="0 : 1000 : 0"
       inkscape:vp_x="0 : 0.5 : 1"
       sodipodi:type="inkscape:persp3d" />
    <inkscape:perspective
       id="perspective6011"
       inkscape:persp3d-origin="0.5 : 0.33333333 : 1"
       inkscape:vp_z="1 : 0.5 : 1"
       inkscape:vp_y="0 : 1000 : 0"
       inkscape:vp_x="0 : 0.5 : 1"
       sodipodi:type="inkscape:persp3d" />
    <inkscape:perspective
       id="perspective6033"
       inkscape:persp3d-origin="0.5 : 0.33333333 : 1"
       inkscape:vp_z="1 : 0.5 : 1"
       inkscape:vp_y="0 : 1000 : 0"
       inkscape:vp_x="0 : 0.5 : 1"
       sodipodi:type="inkscape:persp3d" />
    <inkscape:perspective
       id="perspective6245"
       inkscape:persp3d-origin="0.5 : 0.33333333 : 1"
       inkscape:vp_z="1 : 0.5 : 1"
       inkscape:vp_y="0 : 1000 : 0"
       inkscape:vp_x="0 : 0.5 : 1"
       sodipodi:type="inkscape:persp3d" />
    <inkscape:perspective
       id="perspective6269"
       inkscape:persp3d-origin="0.5 : 0.33333333 : 1"
       inkscape:vp_z="1 : 0.5 : 1"
       inkscape:vp_y="0 : 1000 : 0"
       inkscape:vp_x="0 : 0.5 : 1"
       sodipodi:type="inkscape:persp3d" />
    <inkscape:perspective
       id="perspective6364"
       inkscape:persp3d-origin="0.5 : 0.33333333 : 1"
       inkscape:vp_z="1 : 0.5 : 1"
       inkscape:vp_y="0 : 1000 : 0"
       inkscape:vp_x="0 : 0.5 : 1"
       sodipodi:type="inkscape:persp3d" />
    <inkscape:perspective
       id="perspective6396"
       inkscape:persp3d-origin="0.5 : 0.33333333 : 1"
       inkscape:vp_z="1 : 0.5 : 1"
       inkscape:vp_y="0 : 1000 : 0"
       inkscape:vp_x="0 : 0.5 : 1"
       sodipodi:type="inkscape:persp3d" />
    <inkscape:perspective
       id="perspective6438"
       inkscape:persp3d-origin="0.5 : 0.33333333 : 1"
       inkscape:vp_z="1 : 0.5 : 1"
       inkscape:vp_y="0 : 1000 : 0"
       inkscape:vp_x="0 : 0.5 : 1"
       sodipodi:type="inkscape:persp3d" />
    <inkscape:perspective
       id="perspective6460"
       inkscape:persp3d-origin="0.5 : 0.33333333 : 1"
       inkscape:vp_z="1 : 0.5 : 1"
       inkscape:vp_y="0 : 1000 : 0"
       inkscape:vp_x="0 : 0.5 : 1"
       sodipodi:type="inkscape:persp3d" />
    <inkscape:perspective
       id="perspective6480"
       inkscape:persp3d-origin="0.5 : 0.33333333 : 1"
       inkscape:vp_z="1 : 0.5 : 1"
       inkscape:vp_y="0 : 1000 : 0"
       inkscape:vp_x="0 : 0.5 : 1"
       sodipodi:type="inkscape:persp3d" />
    <inkscape:perspective
       id="perspective6504"
       inkscape:persp3d-origin="0.5 : 0.33333333 : 1"
       inkscape:vp_z="1 : 0.5 : 1"
       inkscape:vp_y="0 : 1000 : 0"
       inkscape:vp_x="0 : 0.5 : 1"
       sodipodi:type="inkscape:persp3d" />
    <inkscape:perspective
       id="perspective6524"
       inkscape:persp3d-origin="0.5 : 0.33333333 : 1"
       inkscape:vp_z="1 : 0.5 : 1"
       inkscape:vp_y="0 : 1000 : 0"
       inkscape:vp_x="0 : 0.5 : 1"
       sodipodi:type="inkscape:persp3d" />
    <inkscape:perspective
       id="perspective6548"
       inkscape:persp3d-origin="0.5 : 0.33333333 : 1"
       inkscape:vp_z="1 : 0.5 : 1"
       inkscape:vp_y="0 : 1000 : 0"
       inkscape:vp_x="0 : 0.5 : 1"
       sodipodi:type="inkscape:persp3d" />
    <inkscape:perspective
       id="perspective6572"
       inkscape:persp3d-origin="0.5 : 0.33333333 : 1"
       inkscape:vp_z="1 : 0.5 : 1"
       inkscape:vp_y="0 : 1000 : 0"
       inkscape:vp_x="0 : 0.5 : 1"
       sodipodi:type="inkscape:persp3d" />
    <inkscape:perspective
       id="perspective6594"
       inkscape:persp3d-origin="0.5 : 0.33333333 : 1"
       inkscape:vp_z="1 : 0.5 : 1"
       inkscape:vp_y="0 : 1000 : 0"
       inkscape:vp_x="0 : 0.5 : 1"
       sodipodi:type="inkscape:persp3d" />
    <inkscape:perspective
       id="perspective6614"
       inkscape:persp3d-origin="0.5 : 0.33333333 : 1"
       inkscape:vp_z="1 : 0.5 : 1"
       inkscape:vp_y="0 : 1000 : 0"
       inkscape:vp_x="0 : 0.5 : 1"
       sodipodi:type="inkscape:persp3d" />
    <inkscape:perspective
       id="perspective6650"
       inkscape:persp3d-origin="0.5 : 0.33333333 : 1"
       inkscape:vp_z="1 : 0.5 : 1"
       inkscape:vp_y="0 : 1000 : 0"
       inkscape:vp_x="0 : 0.5 : 1"
       sodipodi:type="inkscape:persp3d" />
    <inkscape:perspective
       id="perspective6676"
       inkscape:persp3d-origin="0.5 : 0.33333333 : 1"
       inkscape:vp_z="1 : 0.5 : 1"
       inkscape:vp_y="0 : 1000 : 0"
       inkscape:vp_x="0 : 0.5 : 1"
       sodipodi:type="inkscape:persp3d" />
    <inkscape:perspective
       id="perspective6710"
       inkscape:persp3d-origin="0.5 : 0.33333333 : 1"
       inkscape:vp_z="1 : 0.5 : 1"
       inkscape:vp_y="0 : 1000 : 0"
       inkscape:vp_x="0 : 0.5 : 1"
       sodipodi:type="inkscape:persp3d" />
    <inkscape:perspective
       id="perspective6748"
       inkscape:persp3d-origin="0.5 : 0.33333333 : 1"
       inkscape:vp_z="1 : 0.5 : 1"
       inkscape:vp_y="0 : 1000 : 0"
       inkscape:vp_x="0 : 0.5 : 1"
       sodipodi:type="inkscape:persp3d" />
    <inkscape:perspective
       id="perspective6786"
       inkscape:persp3d-origin="0.5 : 0.33333333 : 1"
       inkscape:vp_z="1 : 0.5 : 1"
       inkscape:vp_y="0 : 1000 : 0"
       inkscape:vp_x="0 : 0.5 : 1"
       sodipodi:type="inkscape:persp3d" />
    <inkscape:perspective
       id="perspective6810"
       inkscape:persp3d-origin="0.5 : 0.33333333 : 1"
       inkscape:vp_z="1 : 0.5 : 1"
       inkscape:vp_y="0 : 1000 : 0"
       inkscape:vp_x="0 : 0.5 : 1"
       sodipodi:type="inkscape:persp3d" />
    <inkscape:perspective
       id="perspective6848"
       inkscape:persp3d-origin="0.5 : 0.33333333 : 1"
       inkscape:vp_z="1 : 0.5 : 1"
       inkscape:vp_y="0 : 1000 : 0"
       inkscape:vp_x="0 : 0.5 : 1"
       sodipodi:type="inkscape:persp3d" />
    <inkscape:perspective
       id="perspective6870"
       inkscape:persp3d-origin="0.5 : 0.33333333 : 1"
       inkscape:vp_z="1 : 0.5 : 1"
       inkscape:vp_y="0 : 1000 : 0"
       inkscape:vp_x="0 : 0.5 : 1"
       sodipodi:type="inkscape:persp3d" />
    <inkscape:perspective
       id="perspective6908"
       inkscape:persp3d-origin="0.5 : 0.33333333 : 1"
       inkscape:vp_z="1 : 0.5 : 1"
       inkscape:vp_y="0 : 1000 : 0"
       inkscape:vp_x="0 : 0.5 : 1"
       sodipodi:type="inkscape:persp3d" />
    <inkscape:perspective
       id="perspective6946"
       inkscape:persp3d-origin="0.5 : 0.33333333 : 1"
       inkscape:vp_z="1 : 0.5 : 1"
       inkscape:vp_y="0 : 1000 : 0"
       inkscape:vp_x="0 : 0.5 : 1"
       sodipodi:type="inkscape:persp3d" />
    <inkscape:perspective
       id="perspective6970"
       inkscape:persp3d-origin="0.5 : 0.33333333 : 1"
       inkscape:vp_z="1 : 0.5 : 1"
       inkscape:vp_y="0 : 1000 : 0"
       inkscape:vp_x="0 : 0.5 : 1"
       sodipodi:type="inkscape:persp3d" />
    <inkscape:perspective
       id="perspective7008"
       inkscape:persp3d-origin="0.5 : 0.33333333 : 1"
       inkscape:vp_z="1 : 0.5 : 1"
       inkscape:vp_y="0 : 1000 : 0"
       inkscape:vp_x="0 : 0.5 : 1"
       sodipodi:type="inkscape:persp3d" />
    <inkscape:perspective
       id="perspective7036"
       inkscape:persp3d-origin="0.5 : 0.33333333 : 1"
       inkscape:vp_z="1 : 0.5 : 1"
       inkscape:vp_y="0 : 1000 : 0"
       inkscape:vp_x="0 : 0.5 : 1"
       sodipodi:type="inkscape:persp3d" />
    <inkscape:perspective
       id="perspective7060"
       inkscape:persp3d-origin="0.5 : 0.33333333 : 1"
       inkscape:vp_z="1 : 0.5 : 1"
       inkscape:vp_y="0 : 1000 : 0"
       inkscape:vp_x="0 : 0.5 : 1"
       sodipodi:type="inkscape:persp3d" />
    <inkscape:perspective
       id="perspective7098"
       inkscape:persp3d-origin="0.5 : 0.33333333 : 1"
       inkscape:vp_z="1 : 0.5 : 1"
       inkscape:vp_y="0 : 1000 : 0"
       inkscape:vp_x="0 : 0.5 : 1"
       sodipodi:type="inkscape:persp3d" />
    <inkscape:perspective
       id="perspective7136"
       inkscape:persp3d-origin="0.5 : 0.33333333 : 1"
       inkscape:vp_z="1 : 0.5 : 1"
       inkscape:vp_y="0 : 1000 : 0"
       inkscape:vp_x="0 : 0.5 : 1"
       sodipodi:type="inkscape:persp3d" />
    <inkscape:perspective
       id="perspective7174"
       inkscape:persp3d-origin="0.5 : 0.33333333 : 1"
       inkscape:vp_z="1 : 0.5 : 1"
       inkscape:vp_y="0 : 1000 : 0"
       inkscape:vp_x="0 : 0.5 : 1"
       sodipodi:type="inkscape:persp3d" />
    <inkscape:perspective
       id="perspective7212"
       inkscape:persp3d-origin="0.5 : 0.33333333 : 1"
       inkscape:vp_z="1 : 0.5 : 1"
       inkscape:vp_y="0 : 1000 : 0"
       inkscape:vp_x="0 : 0.5 : 1"
       sodipodi:type="inkscape:persp3d" />
    <inkscape:perspective
       id="perspective7234"
       inkscape:persp3d-origin="0.5 : 0.33333333 : 1"
       inkscape:vp_z="1 : 0.5 : 1"
       inkscape:vp_y="0 : 1000 : 0"
       inkscape:vp_x="0 : 0.5 : 1"
       sodipodi:type="inkscape:persp3d" />
    <inkscape:perspective
       id="perspective7272"
       inkscape:persp3d-origin="0.5 : 0.33333333 : 1"
       inkscape:vp_z="1 : 0.5 : 1"
       inkscape:vp_y="0 : 1000 : 0"
       inkscape:vp_x="0 : 0.5 : 1"
       sodipodi:type="inkscape:persp3d" />
    <inkscape:perspective
       id="perspective7294"
       inkscape:persp3d-origin="0.5 : 0.33333333 : 1"
       inkscape:vp_z="1 : 0.5 : 1"
       inkscape:vp_y="0 : 1000 : 0"
       inkscape:vp_x="0 : 0.5 : 1"
       sodipodi:type="inkscape:persp3d" />
    <inkscape:perspective
       id="perspective7330"
       inkscape:persp3d-origin="0.5 : 0.33333333 : 1"
       inkscape:vp_z="1 : 0.5 : 1"
       inkscape:vp_y="0 : 1000 : 0"
       inkscape:vp_x="0 : 0.5 : 1"
       sodipodi:type="inkscape:persp3d" />
    <inkscape:perspective
       id="perspective3068"
       inkscape:persp3d-origin="0.5 : 0.33333333 : 1"
       inkscape:vp_z="1 : 0.5 : 1"
       inkscape:vp_y="0 : 1000 : 0"
       inkscape:vp_x="0 : 0.5 : 1"
       sodipodi:type="inkscape:persp3d" />
    <inkscape:perspective
       id="perspective3106"
       inkscape:persp3d-origin="0.5 : 0.33333333 : 1"
       inkscape:vp_z="1 : 0.5 : 1"
       inkscape:vp_y="0 : 1000 : 0"
       inkscape:vp_x="0 : 0.5 : 1"
       sodipodi:type="inkscape:persp3d" />
    <inkscape:perspective
       id="perspective3128"
       inkscape:persp3d-origin="0.5 : 0.33333333 : 1"
       inkscape:vp_z="1 : 0.5 : 1"
       inkscape:vp_y="0 : 1000 : 0"
       inkscape:vp_x="0 : 0.5 : 1"
       sodipodi:type="inkscape:persp3d" />
    <inkscape:perspective
       id="perspective3152"
       inkscape:persp3d-origin="0.5 : 0.33333333 : 1"
       inkscape:vp_z="1 : 0.5 : 1"
       inkscape:vp_y="0 : 1000 : 0"
       inkscape:vp_x="0 : 0.5 : 1"
       sodipodi:type="inkscape:persp3d" />
    <inkscape:perspective
       id="perspective3174"
       inkscape:persp3d-origin="0.5 : 0.33333333 : 1"
       inkscape:vp_z="1 : 0.5 : 1"
       inkscape:vp_y="0 : 1000 : 0"
       inkscape:vp_x="0 : 0.5 : 1"
       sodipodi:type="inkscape:persp3d" />
    <inkscape:perspective
       id="perspective3212"
       inkscape:persp3d-origin="0.5 : 0.33333333 : 1"
       inkscape:vp_z="1 : 0.5 : 1"
       inkscape:vp_y="0 : 1000 : 0"
       inkscape:vp_x="0 : 0.5 : 1"
       sodipodi:type="inkscape:persp3d" />
    <inkscape:perspective
       id="perspective3238"
       inkscape:persp3d-origin="0.5 : 0.33333333 : 1"
       inkscape:vp_z="1 : 0.5 : 1"
       inkscape:vp_y="0 : 1000 : 0"
       inkscape:vp_x="0 : 0.5 : 1"
       sodipodi:type="inkscape:persp3d" />
    <inkscape:perspective
       id="perspective3276"
       inkscape:persp3d-origin="0.5 : 0.33333333 : 1"
       inkscape:vp_z="1 : 0.5 : 1"
       inkscape:vp_y="0 : 1000 : 0"
       inkscape:vp_x="0 : 0.5 : 1"
       sodipodi:type="inkscape:persp3d" />
    <inkscape:perspective
       id="perspective3314"
       inkscape:persp3d-origin="0.5 : 0.33333333 : 1"
       inkscape:vp_z="1 : 0.5 : 1"
       inkscape:vp_y="0 : 1000 : 0"
       inkscape:vp_x="0 : 0.5 : 1"
       sodipodi:type="inkscape:persp3d" />
    <inkscape:perspective
       id="perspective3350"
       inkscape:persp3d-origin="0.5 : 0.33333333 : 1"
       inkscape:vp_z="1 : 0.5 : 1"
       inkscape:vp_y="0 : 1000 : 0"
       inkscape:vp_x="0 : 0.5 : 1"
       sodipodi:type="inkscape:persp3d" />
    <inkscape:perspective
       id="perspective3376"
       inkscape:persp3d-origin="0.5 : 0.33333333 : 1"
       inkscape:vp_z="1 : 0.5 : 1"
       inkscape:vp_y="0 : 1000 : 0"
       inkscape:vp_x="0 : 0.5 : 1"
       sodipodi:type="inkscape:persp3d" />
    <inkscape:perspective
       id="perspective3402"
       inkscape:persp3d-origin="0.5 : 0.33333333 : 1"
       inkscape:vp_z="1 : 0.5 : 1"
       inkscape:vp_y="0 : 1000 : 0"
       inkscape:vp_x="0 : 0.5 : 1"
       sodipodi:type="inkscape:persp3d" />
    <inkscape:perspective
       id="perspective3428"
       inkscape:persp3d-origin="0.5 : 0.33333333 : 1"
       inkscape:vp_z="1 : 0.5 : 1"
       inkscape:vp_y="0 : 1000 : 0"
       inkscape:vp_x="0 : 0.5 : 1"
       sodipodi:type="inkscape:persp3d" />
    <inkscape:perspective
       id="perspective3466"
       inkscape:persp3d-origin="0.5 : 0.33333333 : 1"
       inkscape:vp_z="1 : 0.5 : 1"
       inkscape:vp_y="0 : 1000 : 0"
       inkscape:vp_x="0 : 0.5 : 1"
       sodipodi:type="inkscape:persp3d" />
    <inkscape:perspective
       id="perspective3504"
       inkscape:persp3d-origin="0.5 : 0.33333333 : 1"
       inkscape:vp_z="1 : 0.5 : 1"
       inkscape:vp_y="0 : 1000 : 0"
       inkscape:vp_x="0 : 0.5 : 1"
       sodipodi:type="inkscape:persp3d" />
    <inkscape:perspective
       id="perspective3542"
       inkscape:persp3d-origin="0.5 : 0.33333333 : 1"
       inkscape:vp_z="1 : 0.5 : 1"
       inkscape:vp_y="0 : 1000 : 0"
       inkscape:vp_x="0 : 0.5 : 1"
       sodipodi:type="inkscape:persp3d" />
    <inkscape:perspective
       id="perspective3566"
       inkscape:persp3d-origin="0.5 : 0.33333333 : 1"
       inkscape:vp_z="1 : 0.5 : 1"
       inkscape:vp_y="0 : 1000 : 0"
       inkscape:vp_x="0 : 0.5 : 1"
       sodipodi:type="inkscape:persp3d" />
    <inkscape:perspective
       id="perspective3590"
       inkscape:persp3d-origin="0.5 : 0.33333333 : 1"
       inkscape:vp_z="1 : 0.5 : 1"
       inkscape:vp_y="0 : 1000 : 0"
       inkscape:vp_x="0 : 0.5 : 1"
       sodipodi:type="inkscape:persp3d" />
    <inkscape:perspective
       id="perspective3610"
       inkscape:persp3d-origin="0.5 : 0.33333333 : 1"
       inkscape:vp_z="1 : 0.5 : 1"
       inkscape:vp_y="0 : 1000 : 0"
       inkscape:vp_x="0 : 0.5 : 1"
       sodipodi:type="inkscape:persp3d" />
    <inkscape:perspective
       id="perspective3648"
       inkscape:persp3d-origin="0.5 : 0.33333333 : 1"
       inkscape:vp_z="1 : 0.5 : 1"
       inkscape:vp_y="0 : 1000 : 0"
       inkscape:vp_x="0 : 0.5 : 1"
       sodipodi:type="inkscape:persp3d" />
    <inkscape:perspective
       id="perspective3668"
       inkscape:persp3d-origin="0.5 : 0.33333333 : 1"
       inkscape:vp_z="1 : 0.5 : 1"
       inkscape:vp_y="0 : 1000 : 0"
       inkscape:vp_x="0 : 0.5 : 1"
       sodipodi:type="inkscape:persp3d" />
    <inkscape:perspective
       id="perspective3706"
       inkscape:persp3d-origin="0.5 : 0.33333333 : 1"
       inkscape:vp_z="1 : 0.5 : 1"
       inkscape:vp_y="0 : 1000 : 0"
       inkscape:vp_x="0 : 0.5 : 1"
       sodipodi:type="inkscape:persp3d" />
    <inkscape:perspective
       id="perspective3744"
       inkscape:persp3d-origin="0.5 : 0.33333333 : 1"
       inkscape:vp_z="1 : 0.5 : 1"
       inkscape:vp_y="0 : 1000 : 0"
       inkscape:vp_x="0 : 0.5 : 1"
       sodipodi:type="inkscape:persp3d" />
    <inkscape:perspective
       id="perspective3770"
       inkscape:persp3d-origin="0.5 : 0.33333333 : 1"
       inkscape:vp_z="1 : 0.5 : 1"
       inkscape:vp_y="0 : 1000 : 0"
       inkscape:vp_x="0 : 0.5 : 1"
       sodipodi:type="inkscape:persp3d" />
    <inkscape:perspective
       id="perspective3804"
       inkscape:persp3d-origin="0.5 : 0.33333333 : 1"
       inkscape:vp_z="1 : 0.5 : 1"
       inkscape:vp_y="0 : 1000 : 0"
       inkscape:vp_x="0 : 0.5 : 1"
       sodipodi:type="inkscape:persp3d" />
    <inkscape:perspective
       id="perspective3828"
       inkscape:persp3d-origin="0.5 : 0.33333333 : 1"
       inkscape:vp_z="1 : 0.5 : 1"
       inkscape:vp_y="0 : 1000 : 0"
       inkscape:vp_x="0 : 0.5 : 1"
       sodipodi:type="inkscape:persp3d" />
    <inkscape:perspective
       id="perspective3852"
       inkscape:persp3d-origin="0.5 : 0.33333333 : 1"
       inkscape:vp_z="1 : 0.5 : 1"
       inkscape:vp_y="0 : 1000 : 0"
       inkscape:vp_x="0 : 0.5 : 1"
       sodipodi:type="inkscape:persp3d" />
    <inkscape:perspective
       id="perspective3876"
       inkscape:persp3d-origin="0.5 : 0.33333333 : 1"
       inkscape:vp_z="1 : 0.5 : 1"
       inkscape:vp_y="0 : 1000 : 0"
       inkscape:vp_x="0 : 0.5 : 1"
       sodipodi:type="inkscape:persp3d" />
    <inkscape:perspective
       id="perspective3900"
       inkscape:persp3d-origin="0.5 : 0.33333333 : 1"
       inkscape:vp_z="1 : 0.5 : 1"
       inkscape:vp_y="0 : 1000 : 0"
       inkscape:vp_x="0 : 0.5 : 1"
       sodipodi:type="inkscape:persp3d" />
    <inkscape:perspective
       id="perspective3924"
       inkscape:persp3d-origin="0.5 : 0.33333333 : 1"
       inkscape:vp_z="1 : 0.5 : 1"
       inkscape:vp_y="0 : 1000 : 0"
       inkscape:vp_x="0 : 0.5 : 1"
       sodipodi:type="inkscape:persp3d" />
    <inkscape:perspective
       id="perspective3948"
       inkscape:persp3d-origin="0.5 : 0.33333333 : 1"
       inkscape:vp_z="1 : 0.5 : 1"
       inkscape:vp_y="0 : 1000 : 0"
       inkscape:vp_x="0 : 0.5 : 1"
       sodipodi:type="inkscape:persp3d" />
    <inkscape:perspective
       id="perspective3986"
       inkscape:persp3d-origin="0.5 : 0.33333333 : 1"
       inkscape:vp_z="1 : 0.5 : 1"
       inkscape:vp_y="0 : 1000 : 0"
       inkscape:vp_x="0 : 0.5 : 1"
       sodipodi:type="inkscape:persp3d" />
    <inkscape:perspective
       id="perspective4024"
       inkscape:persp3d-origin="0.5 : 0.33333333 : 1"
       inkscape:vp_z="1 : 0.5 : 1"
       inkscape:vp_y="0 : 1000 : 0"
       inkscape:vp_x="0 : 0.5 : 1"
       sodipodi:type="inkscape:persp3d" />
    <inkscape:perspective
       id="perspective4062"
       inkscape:persp3d-origin="0.5 : 0.33333333 : 1"
       inkscape:vp_z="1 : 0.5 : 1"
       inkscape:vp_y="0 : 1000 : 0"
       inkscape:vp_x="0 : 0.5 : 1"
       sodipodi:type="inkscape:persp3d" />
    <inkscape:perspective
       id="perspective4100"
       inkscape:persp3d-origin="0.5 : 0.33333333 : 1"
       inkscape:vp_z="1 : 0.5 : 1"
       inkscape:vp_y="0 : 1000 : 0"
       inkscape:vp_x="0 : 0.5 : 1"
       sodipodi:type="inkscape:persp3d" />
    <inkscape:perspective
       id="perspective4126"
       inkscape:persp3d-origin="0.5 : 0.33333333 : 1"
       inkscape:vp_z="1 : 0.5 : 1"
       inkscape:vp_y="0 : 1000 : 0"
       inkscape:vp_x="0 : 0.5 : 1"
       sodipodi:type="inkscape:persp3d" />
    <inkscape:perspective
       id="perspective4164"
       inkscape:persp3d-origin="0.5 : 0.33333333 : 1"
       inkscape:vp_z="1 : 0.5 : 1"
       inkscape:vp_y="0 : 1000 : 0"
       inkscape:vp_x="0 : 0.5 : 1"
       sodipodi:type="inkscape:persp3d" />
    <inkscape:perspective
       id="perspective4184"
       inkscape:persp3d-origin="0.5 : 0.33333333 : 1"
       inkscape:vp_z="1 : 0.5 : 1"
       inkscape:vp_y="0 : 1000 : 0"
       inkscape:vp_x="0 : 0.5 : 1"
       sodipodi:type="inkscape:persp3d" />
    <inkscape:perspective
       id="perspective4206"
       inkscape:persp3d-origin="0.5 : 0.33333333 : 1"
       inkscape:vp_z="1 : 0.5 : 1"
       inkscape:vp_y="0 : 1000 : 0"
       inkscape:vp_x="0 : 0.5 : 1"
       sodipodi:type="inkscape:persp3d" />
    <inkscape:perspective
       id="perspective4228"
       inkscape:persp3d-origin="0.5 : 0.33333333 : 1"
       inkscape:vp_z="1 : 0.5 : 1"
       inkscape:vp_y="0 : 1000 : 0"
       inkscape:vp_x="0 : 0.5 : 1"
       sodipodi:type="inkscape:persp3d" />
    <inkscape:perspective
       id="perspective4266"
       inkscape:persp3d-origin="0.5 : 0.33333333 : 1"
       inkscape:vp_z="1 : 0.5 : 1"
       inkscape:vp_y="0 : 1000 : 0"
       inkscape:vp_x="0 : 0.5 : 1"
       sodipodi:type="inkscape:persp3d" />
    <inkscape:perspective
       id="perspective4304"
       inkscape:persp3d-origin="0.5 : 0.33333333 : 1"
       inkscape:vp_z="1 : 0.5 : 1"
       inkscape:vp_y="0 : 1000 : 0"
       inkscape:vp_x="0 : 0.5 : 1"
       sodipodi:type="inkscape:persp3d" />
    <inkscape:perspective
       id="perspective4342"
       inkscape:persp3d-origin="0.5 : 0.33333333 : 1"
       inkscape:vp_z="1 : 0.5 : 1"
       inkscape:vp_y="0 : 1000 : 0"
       inkscape:vp_x="0 : 0.5 : 1"
       sodipodi:type="inkscape:persp3d" />
    <inkscape:perspective
       id="perspective4380"
       inkscape:persp3d-origin="0.5 : 0.33333333 : 1"
       inkscape:vp_z="1 : 0.5 : 1"
       inkscape:vp_y="0 : 1000 : 0"
       inkscape:vp_x="0 : 0.5 : 1"
       sodipodi:type="inkscape:persp3d" />
    <inkscape:perspective
       id="perspective4402"
       inkscape:persp3d-origin="0.5 : 0.33333333 : 1"
       inkscape:vp_z="1 : 0.5 : 1"
       inkscape:vp_y="0 : 1000 : 0"
       inkscape:vp_x="0 : 0.5 : 1"
       sodipodi:type="inkscape:persp3d" />
  </defs>
  <sodipodi:namedview
     id="base"
     pagecolor="#ffffff"
     bordercolor="#666666"
     borderopacity="1.0"
     inkscape:pageopacity="0.0"
     inkscape:pageshadow="2"
     inkscape:zoom="11.313709"
     inkscape:cx="11.966503"
     inkscape:cy="0.78394935"
     inkscape:document-units="px"
     inkscape:current-layer="layer1"
     showgrid="true"
     inkscape:window-width="1280"
     inkscape:window-height="780"
     inkscape:window-x="-8"
     inkscape:window-y="-8"
     inkscape:window-maximized="1">
    <inkscape:grid
       type="xygrid"
       id="grid6324"
       empspacing="5"
       visible="true"
       enabled="true"
       snapvisiblegridlinesonly="true" />
  </sodipodi:namedview>
  <metadata
     id="metadata7">
    <rdf:RDF>
      <cc:Work
         rdf:about="">
        <dc:format>image/svg+xml</dc:format>
        <dc:type
           rdf:resource="http://purl.org/dc/dcmitype/StillImage" />
        <dc:title></dc:title>
      </cc:Work>
    </rdf:RDF>
  </metadata>
  <g
     inkscape:label="Calque 1"
     inkscape:groupmode="layer"
     id="layer1"
     transform="translate(0,-1036.3622)">
    <g
       id="g4408"
       transform="translate(-0.426148,0.7018)">
      <path
         style="fill:#d5d5aa"
         d="m 8.4274194,1048.0718 -4.2822581,0 0,-0.1654 c 0,-0.091 0.093357,-0.238 0.2074608,-0.3266 l 0.2074607,-0.1612 0.483525,-2.5386 0.4835248,-2.5386 0.2888531,-0.049 c 0.1588692,-0.027 0.5338127,-0.1119 0.8332078,-0.1888 l 0.5443549,-0.1397 0,-0.2197 0,-0.2197 0.4354839,-0.1518 0.4354838,-0.1518 0,-0.131 0,-0.131 0.217742,0 0.2177419,0 0,0.1337 0,0.1336 0.4266449,0.094 0.4266447,0.094 0.045129,0.317 0.045129,0.3171 0.7741574,0.1484 0.774157,0.1485 0.114718,0.2144 c 0.0631,0.118 0.357986,1.2596 0.655312,2.537 l 0.540593,2.3226 0.203595,0.1612 c 0.111978,0.089 0.203596,0.2356 0.203596,0.3266 l 0,0.1654 -4.2822574,0 z m -0.4354839,-4.3548 c 0.039919,0 0.072581,-0.033 0.072581,-0.073 0,-0.04 -0.032661,-0.073 -0.072581,-0.073 -0.039919,0 -0.072581,0.033 -0.072581,0.073 0,0.04 0.032661,0.073 0.072581,0.073 z m -0.1451613,-2.0322 c 0.039919,0 0.072581,-0.033 0.072581,-0.073 0,-0.04 -0.032661,-0.073 -0.072581,-0.073 -0.039919,0 -0.072581,0.033 -0.072581,0.073 0,0.04 0.032661,0.073 0.072581,0.073 z"
         id="path4430" />
      <path
         style="fill:#b2b390"
         d="m 8.4274194,1048.0718 -4.2822581,0 0,-0.1654 c 0,-0.091 0.093357,-0.238 0.2074608,-0.3266 l 0.2074607,-0.1612 0.483525,-2.5386 0.4835248,-2.5386 0.2888531,-0.049 c 0.1588692,-0.027 0.5338127,-0.1119 0.8332078,-0.1888 l 0.5443549,-0.1397 0,-0.2197 0,-0.2197 0.4354839,-0.1518 0.4354838,-0.1518 0,-0.131 0,-0.131 0.217742,0 0.2177419,0 0,0.1337 0,0.1336 0.4266449,0.094 0.4266447,0.094 0.045129,0.317 0.045129,0.3171 0.7741574,0.1484 0.774157,0.1485 0.114718,0.2144 c 0.0631,0.118 0.357986,1.2596 0.655312,2.537 l 0.540593,2.3226 0.203595,0.1612 c 0.111978,0.089 0.203596,0.2356 0.203596,0.3266 l 0,0.1654 -4.2822574,0 z m -0.9560108,-0.5806 0.1576237,0 0,-1.0836 0,-1.0836 0.2555772,-0.1368 0.2555773,-0.1368 0.4339388,0.081 0.4339389,0.081 0.1066481,0.1598 0.1066481,0.1598 0.00222,0.9799 0.00222,0.9798 0.1618872,0 0.1618873,0 -0.084911,-0.7621 c -0.046701,-0.4191 -0.1229668,-1.5133 -0.16948,-2.4314 -0.046513,-0.9182 -0.1165491,-1.8223 -0.1556354,-2.0092 l -0.071066,-0.3398 -0.207015,0.079 -0.2070149,0.08 -0.085796,-0.1389 -0.085797,-0.1388 0.1900186,-0.017 c 0.1045102,-0.01 0.2553412,-0.01 0.3351799,0 l 0.1451613,0.019 -0.2817769,-0.2198 -0.2817768,-0.2199 -0.2988684,0 -0.2988682,0 0.2177419,0.1473 0.217742,0.1474 -0.3833574,-0.089 -0.3833571,-0.089 -0.073125,0.1206 c -0.040219,0.066 -0.1182758,1.4108 -0.1734599,2.9876 l -0.1003348,2.8669 0.1576236,0 z m 1.2463333,-2.6129 c -0.039919,0 -0.072581,-0.033 -0.072581,-0.073 0,-0.04 0.032661,-0.073 0.072581,-0.073 0.039919,0 0.072581,0.033 0.072581,0.073 0,0.04 -0.032661,0.073 -0.072581,0.073 z m 0.4354839,0 c -0.039919,0 -0.072581,-0.033 -0.072581,-0.073 0,-0.04 0.032661,-0.073 0.072581,-0.073 0.039919,0 0.072581,0.033 0.072581,0.073 0,0.04 -0.032661,0.073 -0.072581,0.073 z m -1.282258,-0.3387 -0.096774,0.097 0,-0.1936 0,-0.1935 0.096774,0.097 0.096774,0.097 -0.096774,0.097 z m 1.0645161,0.048 -0.1935484,0 0.096774,-0.097 0.096774,-0.097 0.096774,0.097 0.096774,0.097 -0.1935483,0 z m -1.2040065,-0.6895 -0.062908,0.3266 -0.019768,-0.3085 c -0.010873,-0.1697 0.018632,-0.5005 0.065567,-0.7351 l 0.085335,-0.4267 0.288943,-0.1805 0.288943,-0.1804 0.2000081,0.166 0.2000082,0.166 0.1515201,-0.094 0.1515201,-0.094 0,0.1451 c 0,0.08 -0.06798,0.1872 -0.1510661,0.2386 l -0.1510661,0.093 0.088268,0.2781 0.088267,0.2781 -0.2154272,0 -0.2154272,0 -0.084677,0.1815 -0.084677,0.1815 -0.084677,-0.1815 -0.084677,-0.1815 -0.1955489,0 -0.1955491,0 -0.062908,0.3267 z m 0.6233613,-0.617 c 0.079839,0 0.1451613,-0.065 0.1451613,-0.1451 0,-0.08 -0.065323,-0.1452 -0.1451613,-0.1452 -0.079839,0 -0.1451613,0.065 -0.1451613,0.1452 0,0.08 0.065323,0.1451 0.1451613,0.1451 z m 0.2177419,0.871 c -0.039919,0 -0.072581,-0.033 -0.072581,-0.073 0,-0.04 0.032661,-0.073 0.072581,-0.073 0.039919,0 0.072581,0.033 0.072581,0.073 0,0.04 -0.032661,0.073 -0.072581,0.073 z m -0.8709677,-1.7419 c -0.039919,0 -0.072581,-0.033 -0.072581,-0.073 0,-0.04 0.032661,-0.073 0.072581,-0.073 0.039919,0 0.072581,0.033 0.072581,0.073 0,0.04 -0.032661,0.073 -0.072581,0.073 z"
         id="path4428" />
      <path
         style="fill:#8e9074"
         d="m 8.4274194,1048.0718 -4.2822581,0 0,-0.1654 c 0,-0.091 0.093357,-0.238 0.2074608,-0.3266 l 0.2074607,-0.1612 0.483525,-2.5386 0.4835248,-2.5386 0.2888531,-0.049 c 0.1588692,-0.027 0.5338127,-0.1119 0.8332078,-0.1888 l 0.5443549,-0.1397 0,-0.2197 0,-0.2197 0.4354839,-0.1518 0.4354838,-0.1518 0,-0.131 0,-0.131 0.217742,0 0.2177419,0 0,0.1337 0,0.1336 0.4266449,0.094 0.4266447,0.094 0.045129,0.317 0.045129,0.3171 0.7741574,0.1484 0.774157,0.1485 0.114718,0.2144 c 0.0631,0.118 0.357986,1.2596 0.655312,2.537 l 0.540593,2.3226 0.203595,0.1612 c 0.111978,0.089 0.203596,0.2356 0.203596,0.3266 l 0,0.1654 -4.2822574,0 z m -0.9241407,-0.5803 0.1983342,2e-4 -0.048513,-0.8579 -0.048513,-0.8579 0.1668783,-0.3119 0.1668785,-0.3118 0.5348608,0.044 0.5348607,0.044 0.042396,1.125 0.042397,1.125 0.2324809,0 0.2324809,0 -0.088614,-0.9798 c -0.048737,-0.5389 -0.1328828,-1.8392 -0.1869898,-2.8895 l -0.098376,-1.9097 -0.34875,-0.1589 c -0.1918125,-0.087 -0.4599909,-0.1566 -0.595952,-0.1537 -0.1359611,0 -0.3778472,0.084 -0.5375246,0.1814 l -0.2903226,0.1763 -0.053173,2.867 -0.053173,2.8669 0.1983341,3e-4 z m 0.85156,-3.7936 c -0.039919,-0.01 -0.1884484,-0.045 -0.3300645,-0.082 l -0.2574839,-0.067 0.044212,-0.3301 0.044212,-0.3302 0.2741876,-0.2741 0.2741876,-0.2742 0.060052,0.1801 0.060052,0.1802 0.2084107,0 0.2084108,0 -0.097697,0.3992 c -0.053733,0.2195 -0.1692925,0.4472 -0.2567979,0.5058 -0.087505,0.059 -0.1917621,0.1001 -0.2316815,0.092 z m 0,-0.4164 c 0.079839,0 0.1451613,-0.065 0.1451613,-0.1451 0,-0.08 -0.065323,-0.1452 -0.1451613,-0.1452 -0.079839,0 -0.1451613,0.065 -0.1451613,0.1452 0,0.08 0.065323,0.1451 0.1451613,0.1451 z"
         id="path4426" />
      <path
         style="fill:#7d856c"
         d="m 8.4274194,1048.0718 -4.2822581,0 0,-0.1654 c 0,-0.091 0.093357,-0.238 0.2074608,-0.3266 l 0.2074607,-0.1612 0.483525,-2.5386 0.4835248,-2.5386 0.2888531,-0.049 c 0.1588692,-0.027 0.5338127,-0.1119 0.8332078,-0.1888 l 0.5443549,-0.1397 0,-0.2197 0,-0.2197 0.4354839,-0.1518 0.4354838,-0.1518 0,-0.131 0,-0.131 0.217742,0 0.2177419,0 0,0.1337 0,0.1336 0.4266449,0.094 0.4266447,0.094 0.045129,0.317 0.045129,0.3171 0.7741574,0.1484 0.774157,0.1485 0.114718,0.2144 c 0.0631,0.118 0.357986,1.2596 0.655312,2.537 l 0.540593,2.3226 0.203595,0.1612 c 0.111978,0.089 0.203596,0.2356 0.203596,0.3266 l 0,0.1654 -4.2822574,0 z m -0.7666714,-0.5276 0.1363826,-0.084 -0.087085,-0.6739 -0.087085,-0.6738 0.1223502,-0.4355 0.1223503,-0.4355 0.5702013,0 0.5702012,0 0.042396,1.125 0.042397,1.125 0.2116358,0 0.2116358,0 -0.01435,-0.5444 c -0.00789,-0.2993 -0.089546,-1.6221 -0.1814516,-2.9395 l -0.1671013,-2.3951 -0.5080645,-0.1225 -0.5080645,-0.1225 -0.3991936,0.1552 -0.3991935,0.1552 0,2.8826 0,2.8826 0.092828,0.093 0.092828,0.093 0.1363828,-0.084 z m 0.814834,-3.9037 -0.1933239,0.069 -0.2346023,-0.1376 -0.2346021,-0.1376 0.068209,-0.3568 0.068209,-0.3568 0.2026836,-0.078 0.2026838,-0.078 0.2177419,0.084 0.217742,0.083 0,0.42 c 0,0.231 -0.027319,0.4199 -0.060708,0.4199 -0.033389,0 -0.1477039,0.031 -0.2540322,0.069 z m -0.1207433,-0.359 c 0.079839,0 0.1451613,-0.061 0.1451613,-0.1366 0,-0.075 -0.065323,-0.1769 -0.1451613,-0.2263 l -0.1451613,-0.09 0,0.2263 0,0.2263 0.1451613,0 z"
         id="path4424" />
      <path
         style="fill:#c76b00"
         d="m 8.4274194,1048.0718 -4.2822581,0 0,-0.2022 0,-0.2022 0.1998574,-0.077 0.1998574,-0.077 0.4806433,-2.5154 0.4806434,-2.5155 0.1419021,-0.096 c 0.078046,-0.053 0.4283749,-0.1389 0.7785084,-0.1914 l 0.6366062,-0.095 0.127179,-0.3345 0.127179,-0.3345 0.3734894,-0.094 0.3734892,-0.094 0,-0.1424 0,-0.1424 0.217742,0 0.2177419,0 0,0.1337 0,0.1336 0.4354839,0.096 0.4354838,0.096 0,0.3332 0,0.3332 0.4536291,0.091 c 0.2494962,0.05 0.6101702,0.091 0.8014992,0.091 l 0.34787,0 0.138476,0.3266 c 0.07616,0.1796 0.370987,1.3391 0.655167,2.5766 l 0.516691,2.25 0.212689,0.1612 c 0.116979,0.089 0.212688,0.2356 0.212688,0.3266 l 0,0.1654 -4.2822576,0 z m -0.8939554,-0.4755 0.1681489,-0.055 0.072581,-1.1499 0.072581,-1.1498 0.5806452,0 0.5806451,0 0.072581,1.1498 0.072581,1.1499 0.2044764,0.068 0.2044763,0.067 -0.097808,-1.6528 c -0.053794,-0.9091 -0.1395011,-2.2625 -0.1904596,-3.0077 l -0.092652,-1.3548 -0.3769198,-0.1467 -0.37692,-0.1467 -0.5080646,0.1225 -0.5080645,0.1225 -0.073491,2.9032 c -0.04042,1.5968 -0.050764,2.9557 -0.022988,3.0198 l 0.050503,0.1165 0.1681489,-0.055 z m 0.942118,-3.956 -0.1933239,0.069 -0.2338973,-0.1786 -0.2338972,-0.1787 0.1148538,-0.3104 c 0.063169,-0.1708 0.178859,-0.3501 0.2570878,-0.3984 l 0.1422342,-0.088 0.2308416,0.089 0.2308416,0.089 0,0.42 c 0,0.231 -0.027319,0.4199 -0.060708,0.4199 -0.033389,0 -0.1477039,0.031 -0.2540322,0.069 z m -0.091711,-0.3297 0.1741935,-0.1742 -0.1741935,-0.1742 -0.1741936,-0.1742 0,0.3484 0,0.3484 0.1741936,-0.1742 z"
         id="path4422" />
      <path
         style="fill:#61625a"
         d="m 8.4274194,1048.0718 -4.2822581,0 0,-0.2022 0,-0.2022 0.1998574,-0.077 0.1998574,-0.077 0.4806433,-2.5154 0.4806434,-2.5155 0.1419021,-0.096 c 0.078046,-0.053 0.4283749,-0.1389 0.7785084,-0.1914 l 0.6366062,-0.095 0.127179,-0.3345 0.127179,-0.3345 0.3734894,-0.094 0.3734892,-0.094 0,-0.1424 0,-0.1424 0.217742,0 0.2177419,0 0,0.1337 0,0.1336 0.4354839,0.096 0.4354838,0.096 0,0.3332 0,0.3332 0.4536291,0.091 c 0.2494962,0.05 0.6101702,0.091 0.8014992,0.091 l 0.34787,0 0.138476,0.3266 c 0.07616,0.1796 0.370987,1.3391 0.655167,2.5766 l 0.516691,2.25 0.212689,0.1612 c 0.116979,0.089 0.212688,0.2356 0.212688,0.3266 l 0,0.1654 -4.2822576,0 z m -0.8939554,-0.4755 0.1681489,-0.055 0.072581,-1.1499 0.072581,-1.1498 0.5806452,0 0.5806451,0 0.072581,1.1498 0.072581,1.1499 0.2044764,0.068 0.2044763,0.067 -0.097808,-1.6528 c -0.053794,-0.9091 -0.1395011,-2.2625 -0.1904596,-3.0077 l -0.092652,-1.3548 -0.3769198,-0.1467 -0.37692,-0.1467 -0.5080646,0.1225 -0.5080645,0.1225 -0.073491,2.9032 c -0.04042,1.5968 -0.050764,2.9557 -0.022988,3.0198 l 0.050503,0.1165 0.1681489,-0.055 z m 0.942118,-3.956 -0.1933239,0.069 -0.2338973,-0.1786 -0.2338972,-0.1787 0.1148538,-0.3104 c 0.063169,-0.1708 0.178859,-0.3501 0.2570878,-0.3984 l 0.1422342,-0.088 0.2308416,0.089 0.2308416,0.089 0,0.42 c 0,0.231 -0.027319,0.4199 -0.060708,0.4199 -0.033389,0 -0.1477039,0.031 -0.2540322,0.069 z m -0.091711,-0.3297 0.1741935,-0.1742 -0.1741935,-0.1742 -0.1741936,-0.1742 0,0.3484 0,0.3484 0.1741936,-0.1742 z m 1.5163423,4.1352 c 0.035178,-0.035 0.014211,-0.9375 -0.046593,-2.0052 l -0.1105537,-1.9413 -0.055884,0.3629 c -0.030736,0.1996 -0.00977,1.1019 0.046593,2.0052 0.056362,0.9033 0.1312588,1.6136 0.166437,1.5784 z m -4.9159231,-0.2449 c 0.073313,-0.1198 0.3168617,-1.1323 0.5412182,-2.25 0.2243564,-1.1178 0.4464878,-2.0728 0.4936255,-2.1224 0.047138,-0.05 0.2721161,-0.1342 0.4999522,-0.188 l 0.4142472,-0.098 -0.051344,2.4109 -0.051344,2.4109 0.094401,-0.3358 0.094401,-0.3358 0.01447,-2.1573 0.01447,-2.1573 -0.5443548,0.1001 c -0.2993952,0.055 -0.5839722,0.1439 -0.6323932,0.1976 -0.048421,0.054 -0.2616787,0.9794 -0.4739063,2.0572 -0.2122274,1.0779 -0.4220643,2.123 -0.4663041,2.3226 l -0.080436,0.3629 0.1332975,-0.2177 z m 6.0560328,0.1451 c 0.03992,0 0.07258,-0.033 0.07258,-0.072 0,-0.04 -0.03266,-0.073 -0.07258,-0.073 -0.03992,0 -0.07258,0.033 -0.07258,0.073 0,0.04 0.03266,0.072 0.07258,0.072 z m 0.817332,-2e-4 0.09153,2e-4 -0.581841,-2.3244 -0.581841,-2.3245 -0.380652,-0.084 c -0.209359,-0.046 -0.5031472,-0.1178 -0.6528631,-0.1588 l -0.2722108,-0.075 0.099326,0.1607 0.099326,0.1607 0.4218099,0 0.421809,0 0.132626,0.254 c 0.07294,0.1397 0.352864,1.1848 0.622043,2.3224 0.269179,1.1375 0.530604,2.0684 0.580943,2.0685 z"
         id="path4420" />
      <path
         style="fill:#b96300"
         d="m 8.4274194,1048.0718 -4.2822581,0 0,-0.2177 0,-0.2177 0.2177419,0 c 0.1197581,0 0.2183096,-0.049 0.2190033,-0.1089 6.938e-4,-0.06 0.1968047,-1.0887 0.4358021,-2.2863 0.2389974,-1.1976 0.4671317,-2.3197 0.506965,-2.4937 l 0.072424,-0.3162 0.7982252,-0.1786 0.7982253,-0.1787 0,-0.2496 0,-0.2496 0.4354839,-0.1804 0.4354838,-0.1804 0,-0.1275 0,-0.1276 0.217742,0 0.2177419,0 0,0.131 0,0.131 0.4354839,0.1518 0.4354838,0.1518 0,0.2881 0,0.2881 0.2540323,0.072 c 0.1397177,0.04 0.5273143,0.1142 0.8613263,0.1661 l 0.607294,0.094 0.1495,0.6971 c 0.08223,0.3834 0.353259,1.5542 0.602299,2.6018 l 0.452799,1.9047 0.20573,0 0.205729,0 0,0.2177 0,0.2177 -4.2822579,0 z m -0.9627338,-0.4354 0.3095079,0 0,-1.1697 0,-1.1696 0.6169355,0.045 0.6169355,0.045 0.042396,1.125 0.042397,1.125 0.2030688,0 c 0.1116879,0 0.2286377,-0.049 0.2598885,-0.1089 0.031251,-0.06 -0.025788,-1.252 -0.1267531,-2.6492 -0.1009649,-1.3972 -0.1880013,-2.709 -0.1934139,-2.9152 l -0.00984,-0.3748 -0.5290771,-0.1624 -0.529077,-0.1624 -0.4144714,0.2144 -0.4144713,0.2143 -0.00296,1.339 c -0.00163,0.7365 -0.042924,2.0739 -0.091766,2.9721 l -0.088803,1.6331 0.309508,0 z M 8.5,1043.5258 l -0.2177419,0.1621 -0.1814516,-0.1971 c -0.099798,-0.1083 -0.1814517,-0.2698 -0.1814517,-0.3587 0,-0.089 0.090208,-0.2518 0.2004608,-0.3621 l 0.2004609,-0.2005 0.087606,0.088 0.087605,0.088 -0.2376627,0.1737 -0.2376626,0.1738 0.106974,0.1731 0.106974,0.1731 0.3143966,-0.096 c 0.1729181,-0.053 0.2817352,-0.07 0.2418159,-0.037 -0.039919,0.033 -0.1705645,0.132 -0.2903226,0.2212 z m 0.2177419,-0.5346 c -0.039919,0 -0.072581,-0.033 -0.072581,-0.073 0,-0.04 0.032661,-0.073 0.072581,-0.073 0.039919,0 0.072581,0.033 0.072581,0.073 0,0.04 -0.032661,0.073 -0.072581,0.073 z m 1.1824714,4.4546 c 0.035178,-0.035 0.014211,-0.9375 -0.046593,-2.0052 l -0.1105537,-1.9413 -0.055884,0.3629 c -0.030736,0.1996 -0.00977,1.1019 0.046593,2.0052 0.056362,0.9033 0.1312588,1.6136 0.166437,1.5784 z m -4.9159231,-0.2449 c 0.073313,-0.1198 0.3168617,-1.1323 0.5412182,-2.25 0.2243564,-1.1178 0.4464878,-2.0728 0.4936255,-2.1224 0.047138,-0.05 0.2721161,-0.1342 0.4999522,-0.188 l 0.4142472,-0.098 -0.051344,2.4109 -0.051344,2.4109 0.094401,-0.3358 0.094401,-0.3358 0.01447,-2.1573 0.01447,-2.1573 -0.5443548,0.1001 c -0.2993952,0.055 -0.5839722,0.1439 -0.6323932,0.1976 -0.048421,0.054 -0.2616787,0.9794 -0.4739063,2.0572 -0.2122274,1.0779 -0.4220643,2.123 -0.4663041,2.3226 l -0.080436,0.3629 0.1332975,-0.2177 z m 6.0560328,0.1451 c 0.03992,0 0.07258,-0.033 0.07258,-0.072 0,-0.04 -0.03266,-0.073 -0.07258,-0.073 -0.03992,0 -0.07258,0.033 -0.07258,0.073 0,0.04 0.03266,0.072 0.07258,0.072 z m 0.817332,-2e-4 0.09153,2e-4 -0.581841,-2.3244 -0.581841,-2.3245 -0.380652,-0.084 c -0.209359,-0.046 -0.5031472,-0.1178 -0.6528631,-0.1588 l -0.2722108,-0.075 0.099326,0.1607 0.099326,0.1607 0.4218099,0 0.421809,0 0.132626,0.254 c 0.07294,0.1397 0.352864,1.1848 0.622043,2.3224 0.269179,1.1375 0.530604,2.0684 0.580943,2.0685 z"
         id="path4418" />
      <path
         style="fill:#c61400"
         d="m 8.4274194,1048.0718 -4.2822581,0 0,-0.2177 0,-0.2177 0.2177419,0 c 0.1197581,0 0.2183096,-0.049 0.2190033,-0.1089 6.938e-4,-0.06 0.1968047,-1.0887 0.4358021,-2.2863 0.2389974,-1.1976 0.4671317,-2.3197 0.506965,-2.4937 l 0.072424,-0.3162 0.7982252,-0.1786 0.7982253,-0.1787 0,-0.2496 0,-0.2496 0.4354839,-0.1804 0.4354838,-0.1804 0,-0.1275 0,-0.1276 0.217742,0 0.2177419,0 0,0.131 0,0.131 0.4354839,0.1518 0.4354838,0.1518 0,0.2881 0,0.2881 0.2540323,0.072 c 0.1397177,0.04 0.5273143,0.1142 0.8613263,0.1661 l 0.607294,0.094 0.1495,0.6971 c 0.08223,0.3834 0.353259,1.5542 0.602299,2.6018 l 0.452799,1.9047 0.20573,0 0.205729,0 0,0.2177 0,0.2177 -4.2822579,0 z m -0.9627338,-0.4354 0.3095079,0 0,-1.1697 0,-1.1696 0.6169355,0.045 0.6169355,0.045 0.042396,1.125 0.042397,1.125 0.2030688,0 c 0.1116879,0 0.2286377,-0.049 0.2598885,-0.1089 0.031251,-0.06 -0.025788,-1.252 -0.1267531,-2.6492 -0.1009649,-1.3972 -0.1880013,-2.709 -0.1934139,-2.9152 l -0.00984,-0.3748 -0.5290771,-0.1624 -0.529077,-0.1624 -0.4144714,0.2144 -0.4144713,0.2143 -0.00296,1.339 c -0.00163,0.7365 -0.042924,2.0739 -0.091766,2.9721 l -0.088803,1.6331 0.309508,0 z M 8.5,1043.5258 l -0.2177419,0.1621 -0.1814516,-0.1971 c -0.099798,-0.1083 -0.1814517,-0.2698 -0.1814517,-0.3587 0,-0.089 0.090208,-0.2518 0.2004608,-0.3621 l 0.2004609,-0.2005 0.087606,0.088 0.087605,0.088 -0.2376627,0.1737 -0.2376626,0.1738 0.106974,0.1731 0.106974,0.1731 0.3143966,-0.096 c 0.1729181,-0.053 0.2817352,-0.07 0.2418159,-0.037 -0.039919,0.033 -0.1705645,0.132 -0.2903226,0.2212 z m 0.2177419,-0.5346 c -0.039919,0 -0.072581,-0.033 -0.072581,-0.073 0,-0.04 0.032661,-0.073 0.072581,-0.073 0.039919,0 0.072581,0.033 0.072581,0.073 0,0.04 -0.032661,0.073 -0.072581,0.073 z m -2.7943548,4.4701 1.0524194,-0.043 0.039684,-2.5874 0.039684,-2.5875 -0.2574259,0.077 c -0.1415843,0.042 -0.4376317,0.1196 -0.6578832,0.1721 l -0.4004572,0.096 -0.066143,0.3106 c -0.036378,0.1708 -0.2317777,1.1538 -0.4342202,2.1845 -0.2024426,1.0307 -0.3680774,1.9971 -0.3680774,2.1475 l 0,0.2735 1.0524194,-0.043 z m 4.9872319,0.016 1.073252,-0.028 8.13e-4,-0.1602 c 4.5e-4,-0.088 -0.239457,-1.1832 -0.533128,-2.4335 l -0.533941,-2.2731 -0.428566,-0.086 c -0.235711,-0.047 -0.5588478,-0.086 -0.7180822,-0.086 l -0.2895171,0 0.092635,1.5604 c 0.050949,0.8583 0.1310301,2.0047 0.1779581,2.5476 l 0.085323,0.987 1.0732532,-0.028 z"
         id="path4416" />
      <path
         style="fill:#a90f00"
         d="m 8.4274194,1048.0718 -4.2822581,0 0,-0.2177 0,-0.2177 0.2177419,0 c 0.1197581,0 0.2183096,-0.049 0.2190033,-0.1089 6.938e-4,-0.06 0.1968047,-1.0887 0.4358021,-2.2863 0.2389974,-1.1976 0.4671317,-2.3197 0.506965,-2.4937 l 0.072424,-0.3162 0.7982252,-0.1786 0.7982253,-0.1787 0,-0.2496 0,-0.2496 0.4354839,-0.1804 0.4354838,-0.1804 0,-0.1275 0,-0.1276 0.217742,0 0.2177419,0 0,0.131 0,0.131 0.4354839,0.1518 0.4354838,0.1518 0,0.2881 0,0.2881 0.2540323,0.072 c 0.1397177,0.04 0.5273143,0.1142 0.8613263,0.1661 l 0.607294,0.094 0.1495,0.6971 c 0.08223,0.3834 0.353259,1.5542 0.602299,2.6018 l 0.452799,1.9047 0.20573,0 0.205729,0 0,0.2177 0,0.2177 -4.2822579,0 z m -0.9627338,-0.4354 0.3095079,0 0,-1.1697 0,-1.1696 0.6169355,0.045 0.6169355,0.045 0.042396,1.125 0.042397,1.125 0.2030688,0 c 0.1116879,0 0.2286377,-0.049 0.2598885,-0.1089 0.031251,-0.06 -0.025788,-1.252 -0.1267531,-2.6492 -0.1009649,-1.3972 -0.1880013,-2.709 -0.1934139,-2.9152 l -0.00984,-0.3748 -0.5290771,-0.1624 -0.529077,-0.1624 -0.4144714,0.2144 -0.4144713,0.2143 -0.00296,1.339 c -0.00163,0.7365 -0.042924,2.0739 -0.091766,2.9721 l -0.088803,1.6331 0.309508,0 z M 8.5,1043.5258 l -0.2177419,0.1621 -0.1814516,-0.1971 c -0.099798,-0.1083 -0.1814517,-0.2698 -0.1814517,-0.3587 0,-0.089 0.090208,-0.2518 0.2004608,-0.3621 l 0.2004609,-0.2005 0.087606,0.088 0.087605,0.088 -0.2376627,0.1737 -0.2376626,0.1738 0.106974,0.1731 0.106974,0.1731 0.3143966,-0.096 c 0.1729181,-0.053 0.2817352,-0.07 0.2418159,-0.037 -0.039919,0.033 -0.1705645,0.132 -0.2903226,0.2212 z m 0.2177419,-0.5346 c -0.039919,0 -0.072581,-0.033 -0.072581,-0.073 0,-0.04 0.032661,-0.073 0.072581,-0.073 0.039919,0 0.072581,0.033 0.072581,0.073 0,0.04 -0.032661,0.073 -0.072581,0.073 z m -2.7943548,4.4701 1.0524194,-0.043 0.039684,-2.5874 0.039684,-2.5875 -0.2574259,0.077 c -0.1415843,0.042 -0.4376317,0.1196 -0.6578832,0.1721 l -0.4004572,0.096 -0.066143,0.3106 c -0.036378,0.1708 -0.2317777,1.1538 -0.4342202,2.1845 -0.2024426,1.0307 -0.3680774,1.9971 -0.3680774,2.1475 l 0,0.2735 1.0524194,-0.043 z m 2.5040323,0.03 0.3629032,0 0,-1.0161 0,-1.0162 -0.3629032,0 -0.3629033,0 0,1.0162 0,1.0161 0.3629033,0 z m 2.4831996,-0.014 1.073252,-0.028 8.13e-4,-0.1602 c 4.5e-4,-0.088 -0.239457,-1.1832 -0.533128,-2.4335 l -0.533941,-2.2731 -0.428566,-0.086 c -0.235711,-0.047 -0.5588478,-0.086 -0.7180822,-0.086 l -0.2895171,0 0.092635,1.5604 c 0.050949,0.8583 0.1310301,2.0047 0.1779581,2.5476 l 0.085323,0.987 1.0732532,-0.028 z"
         id="path4414" />
      <path
         style="fill:#592800"
         d="m 8.4274194,1048.0718 -4.2822581,0 0,-0.2177 0,-0.2177 0.2177419,0 c 0.1197581,0 0.2183096,-0.049 0.2190033,-0.1089 6.938e-4,-0.06 0.1968047,-1.0887 0.4358021,-2.2863 0.2389974,-1.1976 0.4671317,-2.3197 0.506965,-2.4937 l 0.072424,-0.3162 0.7982252,-0.1786 0.7982253,-0.1787 0,-0.2496 0,-0.2496 0.4354839,-0.1804 0.4354838,-0.1804 0,-0.1275 0,-0.1276 0.217742,0 0.2177419,0 0,0.131 0,0.131 0.4354839,0.1518 0.4354838,0.1518 0,0.2881 0,0.2881 0.2540323,0.072 c 0.1397177,0.04 0.5273143,0.1142 0.8613263,0.1661 l 0.607294,0.094 0.1495,0.6971 c 0.08223,0.3834 0.353259,1.5542 0.602299,2.6018 l 0.452799,1.9047 0.20573,0 0.205729,0 0,0.2177 0,0.2177 -4.2822579,0 z m -0.9627338,-0.4354 0.3095079,0 0,-1.1697 0,-1.1696 0.6169355,0.045 0.6169355,0.045 0.042396,1.125 0.042397,1.125 0.2030688,0 c 0.1116879,0 0.2286377,-0.049 0.2598885,-0.1089 0.031251,-0.06 -0.025788,-1.252 -0.1267531,-2.6492 -0.1009649,-1.3972 -0.1880013,-2.709 -0.1934139,-2.9152 l -0.00984,-0.3748 -0.5290771,-0.1624 -0.529077,-0.1624 -0.4144714,0.2144 -0.4144713,0.2143 -0.00296,1.339 c -0.00163,0.7365 -0.042924,2.0739 -0.091766,2.9721 l -0.088803,1.6331 0.309508,0 z M 8.5,1043.5258 l -0.2177419,0.1621 -0.1814516,-0.1971 c -0.099798,-0.1083 -0.1814517,-0.2698 -0.1814517,-0.3587 0,-0.089 0.090208,-0.2518 0.2004608,-0.3621 l 0.2004609,-0.2005 0.087606,0.088 0.087605,0.088 -0.2376627,0.1737 -0.2376626,0.1738 0.106974,0.1731 0.106974,0.1731 0.3143966,-0.096 c 0.1729181,-0.053 0.2817352,-0.07 0.2418159,-0.037 -0.039919,0.033 -0.1705645,0.132 -0.2903226,0.2212 z m 0.2177419,-0.5346 c -0.039919,0 -0.072581,-0.033 -0.072581,-0.073 0,-0.04 0.032661,-0.073 0.072581,-0.073 0.039919,0 0.072581,0.033 0.072581,0.073 0,0.04 -0.032661,0.073 -0.072581,0.073 z m -2.7943548,4.4701 1.0524194,-0.043 0.039684,-2.5874 0.039684,-2.5875 -0.2574259,0.077 c -0.1415843,0.042 -0.4376317,0.1196 -0.6578832,0.1721 l -0.4004572,0.096 -0.066143,0.3106 c -0.036378,0.1708 -0.2317777,1.1538 -0.4342202,2.1845 -0.2024426,1.0307 -0.3680774,1.9971 -0.3680774,2.1475 l 0,0.2735 1.0524194,-0.043 z m 2.5394972,0 0.4000189,-0.046 0,-0.9435 0,-0.9436 -0.4354838,0 -0.4354839,0 -0.044535,0.7811 c -0.024494,0.4296 -0.00854,0.8749 0.035465,0.9896 l 0.08,0.2084 0.4000188,-0.046 z m 2.4477347,0.013 1.073252,-0.028 8.13e-4,-0.1602 c 4.5e-4,-0.088 -0.239457,-1.1832 -0.533128,-2.4335 l -0.533941,-2.2731 -0.428566,-0.086 c -0.235711,-0.047 -0.5588478,-0.086 -0.7180822,-0.086 l -0.2895171,0 0.092635,1.5604 c 0.050949,0.8583 0.1310301,2.0047 0.1779581,2.5476 l 0.085323,0.987 1.0732532,-0.028 z"
         id="path4412" />
      <path
         style="fill:#130f0b"
         d="m 8.4274194,1048.0718 -4.2822581,0 0,-0.2177 0,-0.2177 0.2177419,0 0.217742,0 0.016839,-0.3266 0.016839,-0.3267 0.066385,0.2541 0.066386,0.254 1.1434024,0 1.1434023,0 0.052377,-0.8347 0.052377,-0.8347 0.027448,0.9073 0.027448,0.9073 0.2903226,0 0.2903225,0 0,-1.1613 0,-1.1613 0.108871,-3e-4 0.108871,-2e-4 0,1.1252 0,1.1253 0.4354839,0 0.4354838,0 0,-1.1115 0,-1.1115 0.108871,0.068 0.108871,0.068 0,1.0784 0,1.0783 1.4767273,-0.067 1.476727,-0.067 0.117824,-0.1856 0.117825,-0.1857 0.0022,0.254 0.0022,0.2541 0.217741,0 0.217742,0 0,0.2177 0,0.2177 -4.2822581,0 z m 1.2008559,-1.5967 -0.039566,0.7984 -0.1846254,-2.8241 -0.1846255,-2.824 -0.1782778,-0.1265 -0.1782778,-0.1266 0.217742,0.059 0.2177419,0.059 0.046386,0.3152 0.046386,0.3152 0.1640974,0 0.1640974,0 -0.141309,0.1413 -0.141309,0.1414 0.1155521,1.6369 c 0.063554,0.9003 0.097747,1.9962 0.075986,2.4353 z m 2.4547577,0.4627 -0.07624,0.1905 -0.01146,-0.2782 -0.01146,-0.2783 0.0877,0.088 0.0877,0.088 -0.07624,0.1905 z m -7.2580648,-0.1452 -0.076242,0.1905 -0.01146,-0.2782 -0.01146,-0.2782 0.087702,0.088 0.087702,0.088 -0.076242,0.1905 z m 7.1129028,-0.4355 -0.07624,0.1906 -0.01146,-0.2783 -0.01146,-0.2782 0.0877,0.088 0.0877,0.088 -0.07624,0.1905 z m -6.9677415,-0.2903 -0.076242,0.1905 -0.01146,-0.2782 -0.01146,-0.2782 0.087702,0.088 0.087702,0.088 -0.076242,0.1905 z m 6.8225805,-0.2903 -0.07624,0.1905 -0.01146,-0.2782 -0.01146,-0.2782 0.0877,0.088 0.0877,0.088 -0.07624,0.1905 z m -4.5991616,-0.1 -0.1451613,0.09 0,-0.2263 0,-0.2263 0.1451613,0 c 0.079839,0 0.1451613,0.062 0.1451613,0.1366 0,0.075 -0.065323,0.1769 -0.1451613,0.2263 z m -2.0782577,-0.3357 -0.076242,0.1905 -0.01146,-0.2782 -0.01146,-0.2782 0.087702,0.088 0.087702,0.088 -0.076242,0.1905 z m 6.5292343,-0.1361 -0.07322,0.1815 0,-0.3629 0,-0.3629 0.07322,0.1814 0.07322,0.1815 -0.07322,0.1814 z m -6.384073,-0.5897 -0.076242,0.1905 -0.01146,-0.2782 -0.01146,-0.2782 0.087702,0.088 0.087702,0.088 -0.076242,0.1905 z m 6.241936,-0.1452 -0.07624,0.1906 -0.01146,-0.2783 -0.01146,-0.2782 0.0877,0.088 0.0877,0.088 -0.07624,0.1905 z m -4.236259,-0.027 c -0.039919,0 -0.072581,-0.4899 -0.072581,-1.0887 l 0,-1.0887 -0.3266129,-0.02 -0.3266129,-0.02 0.3176865,-0.062 0.3176866,-0.062 0.061739,-0.3177 0.061739,-0.3177 0.019768,1.4879 c 0.010873,0.8184 -0.012893,1.4879 -0.052812,1.4879 z m -1.8605157,-0.5534 -0.076242,0.1905 -0.01146,-0.2782 -0.01146,-0.2782 0.087702,0.088 0.087702,0.088 -0.076242,0.1905 z m 5.9516127,0 -0.07624,0.1905 -0.01146,-0.2782 -0.01146,-0.2782 0.0877,0.088 0.0877,0.088 -0.07624,0.1905 z m -2.9574104,-0.2741 -0.1175575,0.071 -0.1814516,-0.1963 c -0.099798,-0.1081 -0.1814517,-0.2692 -0.1814517,-0.3581 0,-0.089 0.090208,-0.2518 0.2004608,-0.3621 l 0.2004609,-0.2005 0.087606,0.088 0.087605,0.088 -0.251776,0.1958 -0.2517759,0.1958 0.2627188,0.2038 0.2627189,0.2038 -0.1175576,0.071 z m 0.3179263,-0.1886 c -0.039919,0 -0.072581,-0.033 -0.072581,-0.073 0,-0.04 0.032661,-0.073 0.072581,-0.073 0.039919,0 0.072581,0.033 0.072581,0.073 0,0.04 -0.032661,0.073 -0.072581,0.073 z m 2.4943231,-0.118 -0.07624,0.1906 -0.01146,-0.2783 -0.01146,-0.2782 0.0877,0.088 0.0877,0.088 -0.07624,0.1905 z m -5.6612904,-0.1451 -0.076241,0.1905 -0.01146,-0.2782 -0.01146,-0.2782 0.087702,0.088 0.087701,0.088 -0.076242,0.1905 z m 3.1669673,-0.1724 c -0.039919,0 -0.072581,-0.033 -0.072581,-0.073 0,-0.04 0.032661,-0.073 0.072581,-0.073 0.039919,0 0.072581,0.033 0.072581,0.073 0,0.04 -0.032661,0.073 -0.072581,0.073 z m 2.3311481,-0.2903 c -0.03521,0 -0.104386,-0.065 -0.153729,-0.1452 l -0.08971,-0.1451 0.153728,0 0.153728,0 0,0.1451 c 0,0.08 -0.02881,0.1452 -0.06401,0.1452 z m -5.3795352,-0.1452 c -0.039919,0 -0.072581,-0.033 -0.072581,-0.073 0,-0.04 0.032661,-0.072 0.072581,-0.072 0.039919,0 0.072581,0.033 0.072581,0.072 0,0.04 -0.032661,0.073 -0.072581,0.073 z m 0.5080646,-0.1451 -0.1935484,0 0.096774,-0.097 0.096774,-0.097 0.096774,0.097 0.096774,0.097 -0.1935483,0 z m 4.1491936,-0.011 -0.278226,0.011 0.0877,-0.088 0.0877,-0.088 0.190525,0.076 0.190524,0.076 -0.278226,0.012 z m -2.6250001,-0.9539 -0.2903226,0.1034 0.3266129,-0.1719 c 0.1796371,-0.094 0.3266129,-0.2271 0.3266129,-0.2948 0,-0.068 0.069988,-0.123 0.15553,-0.123 0.085541,0 0.2438879,0.088 0.3518807,0.1964 l 0.1963509,0.1963 -0.3881711,0 c -0.2134942,0 -0.5188163,0.042 -0.6784937,0.098 z"
         id="path4410" />
    </g>
  </g>
</svg>
