<?xml version="1.0" encoding="UTF-8" standalone="no"?>
<!-- Created with Inkscape (http://www.inkscape.org/) -->

<svg
   xmlns:dc="http://purl.org/dc/elements/1.1/"
   xmlns:cc="http://creativecommons.org/ns#"
   xmlns:rdf="http://www.w3.org/1999/02/22-rdf-syntax-ns#"
   xmlns:svg="http://www.w3.org/2000/svg"
   xmlns="http://www.w3.org/2000/svg"
   xmlns:sodipodi="http://sodipodi.sourceforge.net/DTD/sodipodi-0.dtd"
   xmlns:inkscape="http://www.inkscape.org/namespaces/inkscape"
   width="16"
   height="16"
   id="svg2"
   version="1.1"
   inkscape:version="0.47 r22583"
   sodipodi:docname="temple-64.svg">
  <defs
     id="defs4">
    <inkscape:perspective
       sodipodi:type="inkscape:persp3d"
       inkscape:vp_x="0 : 526.18109 : 1"
       inkscape:vp_y="0 : 1000 : 0"
       inkscape:vp_z="744.09448 : 526.18109 : 1"
       inkscape:persp3d-origin="372.04724 : 350.78739 : 1"
       id="perspective10" />
    <inkscape:perspective
       id="perspective2824"
       inkscape:persp3d-origin="0.5 : 0.33333333 : 1"
       inkscape:vp_z="1 : 0.5 : 1"
       inkscape:vp_y="0 : 1000 : 0"
       inkscape:vp_x="0 : 0.5 : 1"
       sodipodi:type="inkscape:persp3d" />
    <inkscape:perspective
       id="perspective5878"
       inkscape:persp3d-origin="0.5 : 0.33333333 : 1"
       inkscape:vp_z="1 : 0.5 : 1"
       inkscape:vp_y="0 : 1000 : 0"
       inkscape:vp_x="0 : 0.5 : 1"
       sodipodi:type="inkscape:persp3d" />
    <inkscape:perspective
       id="perspective5921"
       inkscape:persp3d-origin="0.5 : 0.33333333 : 1"
       inkscape:vp_z="1 : 0.5 : 1"
       inkscape:vp_y="0 : 1000 : 0"
       inkscape:vp_x="0 : 0.5 : 1"
       sodipodi:type="inkscape:persp3d" />
    <inkscape:perspective
       id="perspective5943"
       inkscape:persp3d-origin="0.5 : 0.33333333 : 1"
       inkscape:vp_z="1 : 0.5 : 1"
       inkscape:vp_y="0 : 1000 : 0"
       inkscape:vp_x="0 : 0.5 : 1"
       sodipodi:type="inkscape:persp3d" />
    <inkscape:perspective
       id="perspective5989"
       inkscape:persp3d-origin="0.5 : 0.33333333 : 1"
       inkscape:vp_z="1 : 0.5 : 1"
       inkscape:vp_y="0 : 1000 : 0"
       inkscape:vp_x="0 : 0.5 : 1"
       sodipodi:type="inkscape:persp3d" />
    <inkscape:perspective
       id="perspective6011"
       inkscape:persp3d-origin="0.5 : 0.33333333 : 1"
       inkscape:vp_z="1 : 0.5 : 1"
       inkscape:vp_y="0 : 1000 : 0"
       inkscape:vp_x="0 : 0.5 : 1"
       sodipodi:type="inkscape:persp3d" />
    <inkscape:perspective
       id="perspective6033"
       inkscape:persp3d-origin="0.5 : 0.33333333 : 1"
       inkscape:vp_z="1 : 0.5 : 1"
       inkscape:vp_y="0 : 1000 : 0"
       inkscape:vp_x="0 : 0.5 : 1"
       sodipodi:type="inkscape:persp3d" />
    <inkscape:perspective
       id="perspective6245"
       inkscape:persp3d-origin="0.5 : 0.33333333 : 1"
       inkscape:vp_z="1 : 0.5 : 1"
       inkscape:vp_y="0 : 1000 : 0"
       inkscape:vp_x="0 : 0.5 : 1"
       sodipodi:type="inkscape:persp3d" />
    <inkscape:perspective
       id="perspective6269"
       inkscape:persp3d-origin="0.5 : 0.33333333 : 1"
       inkscape:vp_z="1 : 0.5 : 1"
       inkscape:vp_y="0 : 1000 : 0"
       inkscape:vp_x="0 : 0.5 : 1"
       sodipodi:type="inkscape:persp3d" />
    <inkscape:perspective
       id="perspective6364"
       inkscape:persp3d-origin="0.5 : 0.33333333 : 1"
       inkscape:vp_z="1 : 0.5 : 1"
       inkscape:vp_y="0 : 1000 : 0"
       inkscape:vp_x="0 : 0.5 : 1"
       sodipodi:type="inkscape:persp3d" />
    <inkscape:perspective
       id="perspective6396"
       inkscape:persp3d-origin="0.5 : 0.33333333 : 1"
       inkscape:vp_z="1 : 0.5 : 1"
       inkscape:vp_y="0 : 1000 : 0"
       inkscape:vp_x="0 : 0.5 : 1"
       sodipodi:type="inkscape:persp3d" />
    <inkscape:perspective
       id="perspective6438"
       inkscape:persp3d-origin="0.5 : 0.33333333 : 1"
       inkscape:vp_z="1 : 0.5 : 1"
       inkscape:vp_y="0 : 1000 : 0"
       inkscape:vp_x="0 : 0.5 : 1"
       sodipodi:type="inkscape:persp3d" />
    <inkscape:perspective
       id="perspective6460"
       inkscape:persp3d-origin="0.5 : 0.33333333 : 1"
       inkscape:vp_z="1 : 0.5 : 1"
       inkscape:vp_y="0 : 1000 : 0"
       inkscape:vp_x="0 : 0.5 : 1"
       sodipodi:type="inkscape:persp3d" />
    <inkscape:perspective
       id="perspective6480"
       inkscape:persp3d-origin="0.5 : 0.33333333 : 1"
       inkscape:vp_z="1 : 0.5 : 1"
       inkscape:vp_y="0 : 1000 : 0"
       inkscape:vp_x="0 : 0.5 : 1"
       sodipodi:type="inkscape:persp3d" />
    <inkscape:perspective
       id="perspective6504"
       inkscape:persp3d-origin="0.5 : 0.33333333 : 1"
       inkscape:vp_z="1 : 0.5 : 1"
       inkscape:vp_y="0 : 1000 : 0"
       inkscape:vp_x="0 : 0.5 : 1"
       sodipodi:type="inkscape:persp3d" />
    <inkscape:perspective
       id="perspective6524"
       inkscape:persp3d-origin="0.5 : 0.33333333 : 1"
       inkscape:vp_z="1 : 0.5 : 1"
       inkscape:vp_y="0 : 1000 : 0"
       inkscape:vp_x="0 : 0.5 : 1"
       sodipodi:type="inkscape:persp3d" />
    <inkscape:perspective
       id="perspective6548"
       inkscape:persp3d-origin="0.5 : 0.33333333 : 1"
       inkscape:vp_z="1 : 0.5 : 1"
       inkscape:vp_y="0 : 1000 : 0"
       inkscape:vp_x="0 : 0.5 : 1"
       sodipodi:type="inkscape:persp3d" />
    <inkscape:perspective
       id="perspective6572"
       inkscape:persp3d-origin="0.5 : 0.33333333 : 1"
       inkscape:vp_z="1 : 0.5 : 1"
       inkscape:vp_y="0 : 1000 : 0"
       inkscape:vp_x="0 : 0.5 : 1"
       sodipodi:type="inkscape:persp3d" />
    <inkscape:perspective
       id="perspective6594"
       inkscape:persp3d-origin="0.5 : 0.33333333 : 1"
       inkscape:vp_z="1 : 0.5 : 1"
       inkscape:vp_y="0 : 1000 : 0"
       inkscape:vp_x="0 : 0.5 : 1"
       sodipodi:type="inkscape:persp3d" />
    <inkscape:perspective
       id="perspective6614"
       inkscape:persp3d-origin="0.5 : 0.33333333 : 1"
       inkscape:vp_z="1 : 0.5 : 1"
       inkscape:vp_y="0 : 1000 : 0"
       inkscape:vp_x="0 : 0.5 : 1"
       sodipodi:type="inkscape:persp3d" />
    <inkscape:perspective
       id="perspective6650"
       inkscape:persp3d-origin="0.5 : 0.33333333 : 1"
       inkscape:vp_z="1 : 0.5 : 1"
       inkscape:vp_y="0 : 1000 : 0"
       inkscape:vp_x="0 : 0.5 : 1"
       sodipodi:type="inkscape:persp3d" />
    <inkscape:perspective
       id="perspective6676"
       inkscape:persp3d-origin="0.5 : 0.33333333 : 1"
       inkscape:vp_z="1 : 0.5 : 1"
       inkscape:vp_y="0 : 1000 : 0"
       inkscape:vp_x="0 : 0.5 : 1"
       sodipodi:type="inkscape:persp3d" />
    <inkscape:perspective
       id="perspective6710"
       inkscape:persp3d-origin="0.5 : 0.33333333 : 1"
       inkscape:vp_z="1 : 0.5 : 1"
       inkscape:vp_y="0 : 1000 : 0"
       inkscape:vp_x="0 : 0.5 : 1"
       sodipodi:type="inkscape:persp3d" />
    <inkscape:perspective
       id="perspective6748"
       inkscape:persp3d-origin="0.5 : 0.33333333 : 1"
       inkscape:vp_z="1 : 0.5 : 1"
       inkscape:vp_y="0 : 1000 : 0"
       inkscape:vp_x="0 : 0.5 : 1"
       sodipodi:type="inkscape:persp3d" />
    <inkscape:perspective
       id="perspective6786"
       inkscape:persp3d-origin="0.5 : 0.33333333 : 1"
       inkscape:vp_z="1 : 0.5 : 1"
       inkscape:vp_y="0 : 1000 : 0"
       inkscape:vp_x="0 : 0.5 : 1"
       sodipodi:type="inkscape:persp3d" />
    <inkscape:perspective
       id="perspective6810"
       inkscape:persp3d-origin="0.5 : 0.33333333 : 1"
       inkscape:vp_z="1 : 0.5 : 1"
       inkscape:vp_y="0 : 1000 : 0"
       inkscape:vp_x="0 : 0.5 : 1"
       sodipodi:type="inkscape:persp3d" />
    <inkscape:perspective
       id="perspective6848"
       inkscape:persp3d-origin="0.5 : 0.33333333 : 1"
       inkscape:vp_z="1 : 0.5 : 1"
       inkscape:vp_y="0 : 1000 : 0"
       inkscape:vp_x="0 : 0.5 : 1"
       sodipodi:type="inkscape:persp3d" />
    <inkscape:perspective
       id="perspective6870"
       inkscape:persp3d-origin="0.5 : 0.33333333 : 1"
       inkscape:vp_z="1 : 0.5 : 1"
       inkscape:vp_y="0 : 1000 : 0"
       inkscape:vp_x="0 : 0.5 : 1"
       sodipodi:type="inkscape:persp3d" />
    <inkscape:perspective
       id="perspective6908"
       inkscape:persp3d-origin="0.5 : 0.33333333 : 1"
       inkscape:vp_z="1 : 0.5 : 1"
       inkscape:vp_y="0 : 1000 : 0"
       inkscape:vp_x="0 : 0.5 : 1"
       sodipodi:type="inkscape:persp3d" />
    <inkscape:perspective
       id="perspective6946"
       inkscape:persp3d-origin="0.5 : 0.33333333 : 1"
       inkscape:vp_z="1 : 0.5 : 1"
       inkscape:vp_y="0 : 1000 : 0"
       inkscape:vp_x="0 : 0.5 : 1"
       sodipodi:type="inkscape:persp3d" />
    <inkscape:perspective
       id="perspective6970"
       inkscape:persp3d-origin="0.5 : 0.33333333 : 1"
       inkscape:vp_z="1 : 0.5 : 1"
       inkscape:vp_y="0 : 1000 : 0"
       inkscape:vp_x="0 : 0.5 : 1"
       sodipodi:type="inkscape:persp3d" />
    <inkscape:perspective
       id="perspective7008"
       inkscape:persp3d-origin="0.5 : 0.33333333 : 1"
       inkscape:vp_z="1 : 0.5 : 1"
       inkscape:vp_y="0 : 1000 : 0"
       inkscape:vp_x="0 : 0.5 : 1"
       sodipodi:type="inkscape:persp3d" />
    <inkscape:perspective
       id="perspective7036"
       inkscape:persp3d-origin="0.5 : 0.33333333 : 1"
       inkscape:vp_z="1 : 0.5 : 1"
       inkscape:vp_y="0 : 1000 : 0"
       inkscape:vp_x="0 : 0.5 : 1"
       sodipodi:type="inkscape:persp3d" />
    <inkscape:perspective
       id="perspective7060"
       inkscape:persp3d-origin="0.5 : 0.33333333 : 1"
       inkscape:vp_z="1 : 0.5 : 1"
       inkscape:vp_y="0 : 1000 : 0"
       inkscape:vp_x="0 : 0.5 : 1"
       sodipodi:type="inkscape:persp3d" />
    <inkscape:perspective
       id="perspective7098"
       inkscape:persp3d-origin="0.5 : 0.33333333 : 1"
       inkscape:vp_z="1 : 0.5 : 1"
       inkscape:vp_y="0 : 1000 : 0"
       inkscape:vp_x="0 : 0.5 : 1"
       sodipodi:type="inkscape:persp3d" />
    <inkscape:perspective
       id="perspective7136"
       inkscape:persp3d-origin="0.5 : 0.33333333 : 1"
       inkscape:vp_z="1 : 0.5 : 1"
       inkscape:vp_y="0 : 1000 : 0"
       inkscape:vp_x="0 : 0.5 : 1"
       sodipodi:type="inkscape:persp3d" />
    <inkscape:perspective
       id="perspective7174"
       inkscape:persp3d-origin="0.5 : 0.33333333 : 1"
       inkscape:vp_z="1 : 0.5 : 1"
       inkscape:vp_y="0 : 1000 : 0"
       inkscape:vp_x="0 : 0.5 : 1"
       sodipodi:type="inkscape:persp3d" />
    <inkscape:perspective
       id="perspective7212"
       inkscape:persp3d-origin="0.5 : 0.33333333 : 1"
       inkscape:vp_z="1 : 0.5 : 1"
       inkscape:vp_y="0 : 1000 : 0"
       inkscape:vp_x="0 : 0.5 : 1"
       sodipodi:type="inkscape:persp3d" />
    <inkscape:perspective
       id="perspective7234"
       inkscape:persp3d-origin="0.5 : 0.33333333 : 1"
       inkscape:vp_z="1 : 0.5 : 1"
       inkscape:vp_y="0 : 1000 : 0"
       inkscape:vp_x="0 : 0.5 : 1"
       sodipodi:type="inkscape:persp3d" />
    <inkscape:perspective
       id="perspective7272"
       inkscape:persp3d-origin="0.5 : 0.33333333 : 1"
       inkscape:vp_z="1 : 0.5 : 1"
       inkscape:vp_y="0 : 1000 : 0"
       inkscape:vp_x="0 : 0.5 : 1"
       sodipodi:type="inkscape:persp3d" />
    <inkscape:perspective
       id="perspective7294"
       inkscape:persp3d-origin="0.5 : 0.33333333 : 1"
       inkscape:vp_z="1 : 0.5 : 1"
       inkscape:vp_y="0 : 1000 : 0"
       inkscape:vp_x="0 : 0.5 : 1"
       sodipodi:type="inkscape:persp3d" />
    <inkscape:perspective
       id="perspective7330"
       inkscape:persp3d-origin="0.5 : 0.33333333 : 1"
       inkscape:vp_z="1 : 0.5 : 1"
       inkscape:vp_y="0 : 1000 : 0"
       inkscape:vp_x="0 : 0.5 : 1"
       sodipodi:type="inkscape:persp3d" />
    <inkscape:perspective
       id="perspective3068"
       inkscape:persp3d-origin="0.5 : 0.33333333 : 1"
       inkscape:vp_z="1 : 0.5 : 1"
       inkscape:vp_y="0 : 1000 : 0"
       inkscape:vp_x="0 : 0.5 : 1"
       sodipodi:type="inkscape:persp3d" />
    <inkscape:perspective
       id="perspective3106"
       inkscape:persp3d-origin="0.5 : 0.33333333 : 1"
       inkscape:vp_z="1 : 0.5 : 1"
       inkscape:vp_y="0 : 1000 : 0"
       inkscape:vp_x="0 : 0.5 : 1"
       sodipodi:type="inkscape:persp3d" />
    <inkscape:perspective
       id="perspective3128"
       inkscape:persp3d-origin="0.5 : 0.33333333 : 1"
       inkscape:vp_z="1 : 0.5 : 1"
       inkscape:vp_y="0 : 1000 : 0"
       inkscape:vp_x="0 : 0.5 : 1"
       sodipodi:type="inkscape:persp3d" />
    <inkscape:perspective
       id="perspective3152"
       inkscape:persp3d-origin="0.5 : 0.33333333 : 1"
       inkscape:vp_z="1 : 0.5 : 1"
       inkscape:vp_y="0 : 1000 : 0"
       inkscape:vp_x="0 : 0.5 : 1"
       sodipodi:type="inkscape:persp3d" />
    <inkscape:perspective
       id="perspective3174"
       inkscape:persp3d-origin="0.5 : 0.33333333 : 1"
       inkscape:vp_z="1 : 0.5 : 1"
       inkscape:vp_y="0 : 1000 : 0"
       inkscape:vp_x="0 : 0.5 : 1"
       sodipodi:type="inkscape:persp3d" />
    <inkscape:perspective
       id="perspective3212"
       inkscape:persp3d-origin="0.5 : 0.33333333 : 1"
       inkscape:vp_z="1 : 0.5 : 1"
       inkscape:vp_y="0 : 1000 : 0"
       inkscape:vp_x="0 : 0.5 : 1"
       sodipodi:type="inkscape:persp3d" />
    <inkscape:perspective
       id="perspective3238"
       inkscape:persp3d-origin="0.5 : 0.33333333 : 1"
       inkscape:vp_z="1 : 0.5 : 1"
       inkscape:vp_y="0 : 1000 : 0"
       inkscape:vp_x="0 : 0.5 : 1"
       sodipodi:type="inkscape:persp3d" />
    <inkscape:perspective
       id="perspective3276"
       inkscape:persp3d-origin="0.5 : 0.33333333 : 1"
       inkscape:vp_z="1 : 0.5 : 1"
       inkscape:vp_y="0 : 1000 : 0"
       inkscape:vp_x="0 : 0.5 : 1"
       sodipodi:type="inkscape:persp3d" />
    <inkscape:perspective
       id="perspective3314"
       inkscape:persp3d-origin="0.5 : 0.33333333 : 1"
       inkscape:vp_z="1 : 0.5 : 1"
       inkscape:vp_y="0 : 1000 : 0"
       inkscape:vp_x="0 : 0.5 : 1"
       sodipodi:type="inkscape:persp3d" />
    <inkscape:perspective
       id="perspective3350"
       inkscape:persp3d-origin="0.5 : 0.33333333 : 1"
       inkscape:vp_z="1 : 0.5 : 1"
       inkscape:vp_y="0 : 1000 : 0"
       inkscape:vp_x="0 : 0.5 : 1"
       sodipodi:type="inkscape:persp3d" />
    <inkscape:perspective
       id="perspective3376"
       inkscape:persp3d-origin="0.5 : 0.33333333 : 1"
       inkscape:vp_z="1 : 0.5 : 1"
       inkscape:vp_y="0 : 1000 : 0"
       inkscape:vp_x="0 : 0.5 : 1"
       sodipodi:type="inkscape:persp3d" />
    <inkscape:perspective
       id="perspective3402"
       inkscape:persp3d-origin="0.5 : 0.33333333 : 1"
       inkscape:vp_z="1 : 0.5 : 1"
       inkscape:vp_y="0 : 1000 : 0"
       inkscape:vp_x="0 : 0.5 : 1"
       sodipodi:type="inkscape:persp3d" />
    <inkscape:perspective
       id="perspective3428"
       inkscape:persp3d-origin="0.5 : 0.33333333 : 1"
       inkscape:vp_z="1 : 0.5 : 1"
       inkscape:vp_y="0 : 1000 : 0"
       inkscape:vp_x="0 : 0.5 : 1"
       sodipodi:type="inkscape:persp3d" />
    <inkscape:perspective
       id="perspective3466"
       inkscape:persp3d-origin="0.5 : 0.33333333 : 1"
       inkscape:vp_z="1 : 0.5 : 1"
       inkscape:vp_y="0 : 1000 : 0"
       inkscape:vp_x="0 : 0.5 : 1"
       sodipodi:type="inkscape:persp3d" />
    <inkscape:perspective
       id="perspective3504"
       inkscape:persp3d-origin="0.5 : 0.33333333 : 1"
       inkscape:vp_z="1 : 0.5 : 1"
       inkscape:vp_y="0 : 1000 : 0"
       inkscape:vp_x="0 : 0.5 : 1"
       sodipodi:type="inkscape:persp3d" />
    <inkscape:perspective
       id="perspective3542"
       inkscape:persp3d-origin="0.5 : 0.33333333 : 1"
       inkscape:vp_z="1 : 0.5 : 1"
       inkscape:vp_y="0 : 1000 : 0"
       inkscape:vp_x="0 : 0.5 : 1"
       sodipodi:type="inkscape:persp3d" />
    <inkscape:perspective
       id="perspective3566"
       inkscape:persp3d-origin="0.5 : 0.33333333 : 1"
       inkscape:vp_z="1 : 0.5 : 1"
       inkscape:vp_y="0 : 1000 : 0"
       inkscape:vp_x="0 : 0.5 : 1"
       sodipodi:type="inkscape:persp3d" />
    <inkscape:perspective
       id="perspective3590"
       inkscape:persp3d-origin="0.5 : 0.33333333 : 1"
       inkscape:vp_z="1 : 0.5 : 1"
       inkscape:vp_y="0 : 1000 : 0"
       inkscape:vp_x="0 : 0.5 : 1"
       sodipodi:type="inkscape:persp3d" />
    <inkscape:perspective
       id="perspective3610"
       inkscape:persp3d-origin="0.5 : 0.33333333 : 1"
       inkscape:vp_z="1 : 0.5 : 1"
       inkscape:vp_y="0 : 1000 : 0"
       inkscape:vp_x="0 : 0.5 : 1"
       sodipodi:type="inkscape:persp3d" />
    <inkscape:perspective
       id="perspective3648"
       inkscape:persp3d-origin="0.5 : 0.33333333 : 1"
       inkscape:vp_z="1 : 0.5 : 1"
       inkscape:vp_y="0 : 1000 : 0"
       inkscape:vp_x="0 : 0.5 : 1"
       sodipodi:type="inkscape:persp3d" />
    <inkscape:perspective
       id="perspective3668"
       inkscape:persp3d-origin="0.5 : 0.33333333 : 1"
       inkscape:vp_z="1 : 0.5 : 1"
       inkscape:vp_y="0 : 1000 : 0"
       inkscape:vp_x="0 : 0.5 : 1"
       sodipodi:type="inkscape:persp3d" />
    <inkscape:perspective
       id="perspective3706"
       inkscape:persp3d-origin="0.5 : 0.33333333 : 1"
       inkscape:vp_z="1 : 0.5 : 1"
       inkscape:vp_y="0 : 1000 : 0"
       inkscape:vp_x="0 : 0.5 : 1"
       sodipodi:type="inkscape:persp3d" />
    <inkscape:perspective
       id="perspective3744"
       inkscape:persp3d-origin="0.5 : 0.33333333 : 1"
       inkscape:vp_z="1 : 0.5 : 1"
       inkscape:vp_y="0 : 1000 : 0"
       inkscape:vp_x="0 : 0.5 : 1"
       sodipodi:type="inkscape:persp3d" />
    <inkscape:perspective
       id="perspective3770"
       inkscape:persp3d-origin="0.5 : 0.33333333 : 1"
       inkscape:vp_z="1 : 0.5 : 1"
       inkscape:vp_y="0 : 1000 : 0"
       inkscape:vp_x="0 : 0.5 : 1"
       sodipodi:type="inkscape:persp3d" />
    <inkscape:perspective
       id="perspective3804"
       inkscape:persp3d-origin="0.5 : 0.33333333 : 1"
       inkscape:vp_z="1 : 0.5 : 1"
       inkscape:vp_y="0 : 1000 : 0"
       inkscape:vp_x="0 : 0.5 : 1"
       sodipodi:type="inkscape:persp3d" />
    <inkscape:perspective
       id="perspective3828"
       inkscape:persp3d-origin="0.5 : 0.33333333 : 1"
       inkscape:vp_z="1 : 0.5 : 1"
       inkscape:vp_y="0 : 1000 : 0"
       inkscape:vp_x="0 : 0.5 : 1"
       sodipodi:type="inkscape:persp3d" />
    <inkscape:perspective
       id="perspective3852"
       inkscape:persp3d-origin="0.5 : 0.33333333 : 1"
       inkscape:vp_z="1 : 0.5 : 1"
       inkscape:vp_y="0 : 1000 : 0"
       inkscape:vp_x="0 : 0.5 : 1"
       sodipodi:type="inkscape:persp3d" />
    <inkscape:perspective
       id="perspective3876"
       inkscape:persp3d-origin="0.5 : 0.33333333 : 1"
       inkscape:vp_z="1 : 0.5 : 1"
       inkscape:vp_y="0 : 1000 : 0"
       inkscape:vp_x="0 : 0.5 : 1"
       sodipodi:type="inkscape:persp3d" />
    <inkscape:perspective
       id="perspective3900"
       inkscape:persp3d-origin="0.5 : 0.33333333 : 1"
       inkscape:vp_z="1 : 0.5 : 1"
       inkscape:vp_y="0 : 1000 : 0"
       inkscape:vp_x="0 : 0.5 : 1"
       sodipodi:type="inkscape:persp3d" />
    <inkscape:perspective
       id="perspective3924"
       inkscape:persp3d-origin="0.5 : 0.33333333 : 1"
       inkscape:vp_z="1 : 0.5 : 1"
       inkscape:vp_y="0 : 1000 : 0"
       inkscape:vp_x="0 : 0.5 : 1"
       sodipodi:type="inkscape:persp3d" />
    <inkscape:perspective
       id="perspective3948"
       inkscape:persp3d-origin="0.5 : 0.33333333 : 1"
       inkscape:vp_z="1 : 0.5 : 1"
       inkscape:vp_y="0 : 1000 : 0"
       inkscape:vp_x="0 : 0.5 : 1"
       sodipodi:type="inkscape:persp3d" />
    <inkscape:perspective
       id="perspective3986"
       inkscape:persp3d-origin="0.5 : 0.33333333 : 1"
       inkscape:vp_z="1 : 0.5 : 1"
       inkscape:vp_y="0 : 1000 : 0"
       inkscape:vp_x="0 : 0.5 : 1"
       sodipodi:type="inkscape:persp3d" />
    <inkscape:perspective
       id="perspective4024"
       inkscape:persp3d-origin="0.5 : 0.33333333 : 1"
       inkscape:vp_z="1 : 0.5 : 1"
       inkscape:vp_y="0 : 1000 : 0"
       inkscape:vp_x="0 : 0.5 : 1"
       sodipodi:type="inkscape:persp3d" />
    <inkscape:perspective
       id="perspective4062"
       inkscape:persp3d-origin="0.5 : 0.33333333 : 1"
       inkscape:vp_z="1 : 0.5 : 1"
       inkscape:vp_y="0 : 1000 : 0"
       inkscape:vp_x="0 : 0.5 : 1"
       sodipodi:type="inkscape:persp3d" />
    <inkscape:perspective
       id="perspective4100"
       inkscape:persp3d-origin="0.5 : 0.33333333 : 1"
       inkscape:vp_z="1 : 0.5 : 1"
       inkscape:vp_y="0 : 1000 : 0"
       inkscape:vp_x="0 : 0.5 : 1"
       sodipodi:type="inkscape:persp3d" />
    <inkscape:perspective
       id="perspective4126"
       inkscape:persp3d-origin="0.5 : 0.33333333 : 1"
       inkscape:vp_z="1 : 0.5 : 1"
       inkscape:vp_y="0 : 1000 : 0"
       inkscape:vp_x="0 : 0.5 : 1"
       sodipodi:type="inkscape:persp3d" />
    <inkscape:perspective
       id="perspective4164"
       inkscape:persp3d-origin="0.5 : 0.33333333 : 1"
       inkscape:vp_z="1 : 0.5 : 1"
       inkscape:vp_y="0 : 1000 : 0"
       inkscape:vp_x="0 : 0.5 : 1"
       sodipodi:type="inkscape:persp3d" />
    <inkscape:perspective
       id="perspective4184"
       inkscape:persp3d-origin="0.5 : 0.33333333 : 1"
       inkscape:vp_z="1 : 0.5 : 1"
       inkscape:vp_y="0 : 1000 : 0"
       inkscape:vp_x="0 : 0.5 : 1"
       sodipodi:type="inkscape:persp3d" />
    <inkscape:perspective
       id="perspective4206"
       inkscape:persp3d-origin="0.5 : 0.33333333 : 1"
       inkscape:vp_z="1 : 0.5 : 1"
       inkscape:vp_y="0 : 1000 : 0"
       inkscape:vp_x="0 : 0.5 : 1"
       sodipodi:type="inkscape:persp3d" />
    <inkscape:perspective
       id="perspective4228"
       inkscape:persp3d-origin="0.5 : 0.33333333 : 1"
       inkscape:vp_z="1 : 0.5 : 1"
       inkscape:vp_y="0 : 1000 : 0"
       inkscape:vp_x="0 : 0.5 : 1"
       sodipodi:type="inkscape:persp3d" />
    <inkscape:perspective
       id="perspective4266"
       inkscape:persp3d-origin="0.5 : 0.33333333 : 1"
       inkscape:vp_z="1 : 0.5 : 1"
       inkscape:vp_y="0 : 1000 : 0"
       inkscape:vp_x="0 : 0.5 : 1"
       sodipodi:type="inkscape:persp3d" />
    <inkscape:perspective
       id="perspective4304"
       inkscape:persp3d-origin="0.5 : 0.33333333 : 1"
       inkscape:vp_z="1 : 0.5 : 1"
       inkscape:vp_y="0 : 1000 : 0"
       inkscape:vp_x="0 : 0.5 : 1"
       sodipodi:type="inkscape:persp3d" />
    <inkscape:perspective
       id="perspective4342"
       inkscape:persp3d-origin="0.5 : 0.33333333 : 1"
       inkscape:vp_z="1 : 0.5 : 1"
       inkscape:vp_y="0 : 1000 : 0"
       inkscape:vp_x="0 : 0.5 : 1"
       sodipodi:type="inkscape:persp3d" />
    <inkscape:perspective
       id="perspective4380"
       inkscape:persp3d-origin="0.5 : 0.33333333 : 1"
       inkscape:vp_z="1 : 0.5 : 1"
       inkscape:vp_y="0 : 1000 : 0"
       inkscape:vp_x="0 : 0.5 : 1"
       sodipodi:type="inkscape:persp3d" />
    <inkscape:perspective
       id="perspective4402"
       inkscape:persp3d-origin="0.5 : 0.33333333 : 1"
       inkscape:vp_z="1 : 0.5 : 1"
       inkscape:vp_y="0 : 1000 : 0"
       inkscape:vp_x="0 : 0.5 : 1"
       sodipodi:type="inkscape:persp3d" />
    <inkscape:perspective
       id="perspective4440"
       inkscape:persp3d-origin="0.5 : 0.33333333 : 1"
       inkscape:vp_z="1 : 0.5 : 1"
       inkscape:vp_y="0 : 1000 : 0"
       inkscape:vp_x="0 : 0.5 : 1"
       sodipodi:type="inkscape:persp3d" />
    <inkscape:perspective
       id="perspective4466"
       inkscape:persp3d-origin="0.5 : 0.33333333 : 1"
       inkscape:vp_z="1 : 0.5 : 1"
       inkscape:vp_y="0 : 1000 : 0"
       inkscape:vp_x="0 : 0.5 : 1"
       sodipodi:type="inkscape:persp3d" />
    <inkscape:perspective
       id="perspective4504"
       inkscape:persp3d-origin="0.5 : 0.33333333 : 1"
       inkscape:vp_z="1 : 0.5 : 1"
       inkscape:vp_y="0 : 1000 : 0"
       inkscape:vp_x="0 : 0.5 : 1"
       sodipodi:type="inkscape:persp3d" />
    <inkscape:perspective
       id="perspective4530"
       inkscape:persp3d-origin="0.5 : 0.33333333 : 1"
       inkscape:vp_z="1 : 0.5 : 1"
       inkscape:vp_y="0 : 1000 : 0"
       inkscape:vp_x="0 : 0.5 : 1"
       sodipodi:type="inkscape:persp3d" />
    <inkscape:perspective
       id="perspective4566"
       inkscape:persp3d-origin="0.5 : 0.33333333 : 1"
       inkscape:vp_z="1 : 0.5 : 1"
       inkscape:vp_y="0 : 1000 : 0"
       inkscape:vp_x="0 : 0.5 : 1"
       sodipodi:type="inkscape:persp3d" />
    <inkscape:perspective
       id="perspective4588"
       inkscape:persp3d-origin="0.5 : 0.33333333 : 1"
       inkscape:vp_z="1 : 0.5 : 1"
       inkscape:vp_y="0 : 1000 : 0"
       inkscape:vp_x="0 : 0.5 : 1"
       sodipodi:type="inkscape:persp3d" />
  </defs>
  <sodipodi:namedview
     id="base"
     pagecolor="#ffffff"
     bordercolor="#666666"
     borderopacity="1.0"
     inkscape:pageopacity="0.0"
     inkscape:pageshadow="2"
     inkscape:zoom="11.313709"
     inkscape:cx="11.966503"
     inkscape:cy="0.78394935"
     inkscape:document-units="px"
     inkscape:current-layer="layer1"
     showgrid="true"
     inkscape:window-width="1280"
     inkscape:window-height="780"
     inkscape:window-x="-8"
     inkscape:window-y="-8"
     inkscape:window-maximized="1">
    <inkscape:grid
       type="xygrid"
       id="grid6324"
       empspacing="5"
       visible="true"
       enabled="true"
       snapvisiblegridlinesonly="true" />
  </sodipodi:namedview>
  <metadata
     id="metadata7">
    <rdf:RDF>
      <cc:Work
         rdf:about="">
        <dc:format>image/svg+xml</dc:format>
        <dc:type
           rdf:resource="http://purl.org/dc/dcmitype/StillImage" />
        <dc:title></dc:title>
      </cc:Work>
    </rdf:RDF>
  </metadata>
  <g
     inkscape:label="Calque 1"
     inkscape:groupmode="layer"
     id="layer1"
     transform="translate(0,-1036.3622)">
    <g
       id="g4594"
       transform="translate(-0.103156,0.6347)">
      <path
         style="fill:#9cdbfa"
         d="m 8.7542094,1048.5048 -5.8987798,0.054 -0.1240431,-0.3233 c -0.068224,-0.1778 -0.124043,-0.5341 -0.124043,-0.7918 l 0,-0.4686 0.6952654,-0.6105 c 0.382396,-0.3357 0.8708928,-0.6662 1.0855485,-0.7343 l 0.3902832,-0.1239 0.2096948,-0.6531 0.2096949,-0.6532 0.020668,0.5496 0.020667,0.5496 0.4346061,0.2326 0.4346063,0.2326 1.1912089,-0.5693 1.1912089,-0.5694 -0.083179,-0.2167 c -0.045749,-0.1193 -0.013479,-0.5795 0.07171,-1.0227 l 0.1548896,-0.8059 0.023281,0.646 0.023281,0.646 0.1936061,0.1197 0.1936062,0.1196 -0.096991,0.2528 -0.096991,0.2528 1.095792,0.5374 1.0957916,0.5374 0.427176,-0.1117 0.427176,-0.1117 0,-0.5837 0,-0.5838 0.202447,0 0.202448,0 0,0.5034 0,0.5034 0.657956,0.2934 c 0.361875,0.1613 0.876975,0.4696 1.144665,0.685 l 0.486711,0.3918 0.01941,0.8866 0.01941,0.8866 -5.8987797,0.054 z"
         id="path4616" />
      <path
         style="fill:#c9c8c7"
         d="m 8.7542094,1048.5048 -5.8987798,0.054 -0.1240431,-0.3233 c -0.068224,-0.1778 -0.124043,-0.5341 -0.124043,-0.7918 l 0,-0.4686 0.6952654,-0.6105 c 0.382396,-0.3357 0.8708928,-0.6662 1.0855485,-0.7343 l 0.3902832,-0.1239 0.2096948,-0.6531 0.2096949,-0.6532 0.020668,0.5496 0.020667,0.5496 0.4346061,0.2326 0.4346063,0.2326 1.1912089,-0.5693 1.1912089,-0.5694 -0.083179,-0.2167 c -0.045749,-0.1193 -0.013479,-0.5795 0.07171,-1.0227 l 0.1548896,-0.8059 0.023281,0.646 0.023281,0.646 0.1936061,0.1197 0.1936062,0.1196 -0.096991,0.2528 -0.096991,0.2528 1.095792,0.5374 1.0957916,0.5374 0.427176,-0.1117 0.427176,-0.1117 0,-0.5837 0,-0.5838 0.202447,0 0.202448,0 0,0.5034 0,0.5034 0.657956,0.2934 c 0.361875,0.1613 0.876975,0.4696 1.144665,0.685 l 0.486711,0.3918 0.01941,0.8866 0.01941,0.8866 -5.8987797,0.054 z m 3.5706296,-0.1548 2.024479,0 0,-0.6074 0,-0.6073 -2.024479,0 -2.024478,0 0,0.6073 0,0.6074 2.024478,0 z"
         id="path4614" />
      <path
         style="fill:#86bbd4"
         d="m 8.7087918,1048.5524 -5.8556812,0 -0.1228836,-0.3202 c -0.067586,-0.1761 -0.1228835,-0.5311 -0.1228835,-0.7888 l 0,-0.4686 0.6952654,-0.6105 c 0.382396,-0.3357 0.8708928,-0.6662 1.0855485,-0.7343 l 0.3902832,-0.1239 0.2096948,-0.6531 0.2096949,-0.6532 0.020668,0.5496 0.020667,0.5496 0.4346061,0.2326 0.4346063,0.2326 1.1912089,-0.5693 1.1912089,-0.5694 -0.083179,-0.2167 c -0.045749,-0.1193 -0.013479,-0.5795 0.07171,-1.0227 l 0.1548896,-0.8059 0.023281,0.646 0.023281,0.646 0.1936061,0.1197 0.1936062,0.1196 -0.096991,0.2528 -0.096991,0.2528 1.095792,0.5374 1.0957916,0.5374 0.427176,-0.1117 0.427176,-0.1117 0,-0.5837 0,-0.5838 0.202447,0 0.202448,0 0,0.5034 0,0.5034 0.683853,0.2858 c 0.37612,0.1571 0.753207,0.3979 0.837971,0.5351 l 0.154119,0.2493 -0.180016,-0.087 c -0.09901,-0.048 -0.522324,-0.2437 -0.940701,-0.4345 l -0.760686,-0.347 -0.808285,0.4124 c -0.444557,0.2268 -0.808285,0.4634 -0.808285,0.5259 l 0,0.1136 1.973866,-0.058 1.973866,-0.059 0.182078,0.7282 0.182077,0.7282 -0.125111,0.326 -0.125112,0.326 -5.8556813,0 z m 3.6160472,-0.2024 2.024479,0 0,-0.6074 0,-0.6073 -2.024479,0 -2.024478,0 0,0.6073 0,0.6074 2.024478,0 z m -7.2375096,-1.6259 c 1.0856265,0 1.9738663,-0.03 1.9738663,-0.075 0,-0.045 -0.3240627,-0.2725 -0.7201393,-0.5061 l -0.7201393,-0.4249 -0.4439357,10e-4 -0.4439357,10e-4 -0.8097913,0.4988 -0.8097913,0.4988 1.9738663,0.01 z m 3.4769025,-10e-4 1.0275617,-0.01 0.5992224,-0.4897 0.599223,-0.4897 -0.9028945,-0.4096 c -0.496592,-0.2252 -1.0335591,-0.4115 -1.1932605,-0.414 -0.1597012,0 -0.6892028,0.1886 -1.1766703,0.4246 l -0.8863042,0.4291 0.4527804,0.4819 0.4527804,0.482 1.0275616,-0.01 z"
         id="path4612" />
      <path
         style="fill:#a4a3a2"
         d="m 8.7087918,1048.5524 -5.8556812,0 -0.1228836,-0.3202 c -0.067586,-0.1761 -0.1228835,-0.5311 -0.1228835,-0.7888 l 0,-0.4686 0.6952654,-0.6105 c 0.382396,-0.3357 0.8708928,-0.6662 1.0855485,-0.7343 l 0.3902832,-0.1239 0.2096948,-0.6531 0.2096949,-0.6532 0.020668,0.5496 0.020667,0.5496 0.4346061,0.2326 0.4346063,0.2326 1.1912089,-0.5693 1.1912089,-0.5694 -0.083179,-0.2167 c -0.045749,-0.1193 -0.013479,-0.5795 0.07171,-1.0227 l 0.1548896,-0.8059 0.023281,0.646 0.023281,0.646 0.1936061,0.1197 0.1936062,0.1196 -0.096991,0.2528 -0.096991,0.2528 1.095792,0.5374 1.0957916,0.5374 0.427176,-0.1117 0.427176,-0.1117 0,-0.5837 0,-0.5838 0.202447,0 0.202448,0 0,0.5034 0,0.5034 0.683853,0.2858 c 0.37612,0.1571 0.753207,0.3979 0.837971,0.5351 l 0.154119,0.2493 -0.180016,-0.087 c -0.09901,-0.048 -0.522324,-0.2437 -0.940701,-0.4345 l -0.760686,-0.347 -0.808285,0.4124 c -0.444557,0.2268 -0.808285,0.4634 -0.808285,0.5259 l 0,0.1136 1.973866,-0.058 1.973866,-0.059 0.182078,0.7282 0.182077,0.7282 -0.125111,0.326 -0.125112,0.326 -5.8556813,0 z m 3.5520872,-0.246 2.189662,-0.058 0,-0.6074 0,-0.6073 -2.125702,0 -2.125702,0 -0.06396,0.6649 -0.06396,0.665 2.189661,-0.058 z m -7.1735496,-1.5823 c 1.0856265,0 1.9738663,-0.03 1.9738663,-0.075 0,-0.045 -0.3240627,-0.2725 -0.7201393,-0.5061 l -0.7201393,-0.4249 -0.4439357,10e-4 -0.4439357,10e-4 -0.8097913,0.4988 -0.8097913,0.4988 1.9738663,0.01 z m 3.4769025,-10e-4 1.0275617,-0.01 0.5992224,-0.4897 0.599223,-0.4897 -0.9028945,-0.4096 c -0.496592,-0.2252 -1.0335591,-0.4115 -1.1932605,-0.414 -0.1597012,0 -0.6892028,0.1886 -1.1766703,0.4246 l -0.8863042,0.4291 0.4527804,0.4819 0.4527804,0.482 1.0275616,-0.01 z"
         id="path4610" />
      <path
         style="fill:#3da9fa"
         d="m 8.7542094,1048.5048 -5.8987798,0.054 -0.1240431,-0.3233 c -0.068224,-0.1778 -0.124043,-0.5341 -0.124043,-0.7918 l 0,-0.4686 0.6952654,-0.6105 c 0.382396,-0.3357 0.8708928,-0.6662 1.0855485,-0.7343 l 0.3902832,-0.1239 0.2096948,-0.6531 0.2096949,-0.6532 0.020668,0.5496 0.020667,0.5496 0.4346061,0.2326 0.4346063,0.2326 1.1912089,-0.5693 1.1912089,-0.5694 -0.083179,-0.2167 c -0.045749,-0.1193 -0.013479,-0.5795 0.07171,-1.0227 l 0.1548896,-0.8059 0.023281,0.646 0.023281,0.646 0.1936061,0.1197 0.1936062,0.1196 -0.096991,0.2528 -0.096991,0.2528 1.095792,0.5374 1.0957916,0.5374 0.427176,-0.1117 0.427176,-0.1117 0,-0.5837 0,-0.5838 0.202447,0 0.202448,0 0,0.5034 0,0.5034 0.657956,0.2934 c 0.361875,0.1613 0.876975,0.4696 1.144665,0.685 l 0.486711,0.3918 0.01941,0.8866 0.01941,0.8866 -5.8987797,0.054 z m 3.5066696,-0.1984 2.189662,-0.058 0,-0.6074 0,-0.6073 -2.125702,0 -2.125702,0 -0.06396,0.6649 -0.06396,0.665 2.189661,-0.058 z m -5.7530402,-1.576 3.3170475,0 0.4614277,-0.4912 0.461429,-0.4911 -0.8229695,-0.4199 -0.8229693,-0.4198 -0.4210259,0 -0.4210259,0 -0.8017262,0.409 -0.8017262,0.409 0,0.1767 c 0,0.097 0.1496916,0.2341 0.3326477,0.3043 l 0.3326477,0.1276 -0.1289586,0.129 -0.1289587,0.129 -0.3555249,-0.3029 c -0.1955387,-0.1665 -0.6416511,-0.4158 -0.9913611,-0.554 l -0.6358362,-0.2512 -0.8181747,0.4174 c -0.4499961,0.2296 -0.8752832,0.5098 -0.9450824,0.6228 l -0.1269076,0.2053 3.3170476,0 z m 5.5953172,-0.01 2.106467,0.01 -0.359528,-0.3973 -0.359528,-0.3972 -0.666727,-0.2201 -0.666727,-0.22 -0.675316,0.292 c -0.371424,0.1606 -0.85752,0.4355 -1.080212,0.6109 l -0.4048958,0.3188 2.1064668,0.01 z"
         id="path4608" />
      <path
         style="fill:#56abdb"
         d="m 8.7542094,1048.5048 -5.8987798,0.054 -0.1240431,-0.3233 c -0.068224,-0.1778 -0.124043,-0.5341 -0.124043,-0.7918 l 0,-0.4686 0.6952654,-0.6105 c 0.382396,-0.3357 0.8708928,-0.6662 1.0855485,-0.7343 l 0.3902832,-0.1239 0.2096948,-0.6531 0.2096949,-0.6532 0.020668,0.5496 0.020667,0.5496 0.4346061,0.2326 0.4346063,0.2326 1.1912089,-0.5693 1.1912089,-0.5694 -0.083179,-0.2167 c -0.045749,-0.1193 -0.013479,-0.5795 0.07171,-1.0227 l 0.1548896,-0.8059 0.023281,0.646 0.023281,0.646 0.1936061,0.1197 0.1936062,0.1196 -0.096991,0.2528 -0.096991,0.2528 1.095792,0.5374 1.0957916,0.5374 0.427176,-0.1117 0.427176,-0.1117 0,-0.5837 0,-0.5838 0.202447,0 0.202448,0 0,0.5034 0,0.5034 0.657956,0.2934 c 0.361875,0.1613 0.876975,0.4696 1.144665,0.685 l 0.486711,0.3918 0.01941,0.8866 0.01941,0.8866 -5.8987797,0.054 z m -1.5411778,-0.1975 c 0.027837,0.024 0.050804,-0.2534 0.051039,-0.6153 l 4.272e-4,-0.6579 -2.1261294,0.064 -2.1261294,0.064 0,0.4861 0,0.486 2.0750903,0.066 c 1.1412996,0.036 2.0978656,0.085 2.1257022,0.1083 z m 5.0478474,-9e-4 2.189662,-0.058 0,-0.6074 0,-0.6073 -2.125702,0 -2.125702,0 -0.06396,0.6649 -0.06396,0.665 2.189661,-0.058 z m -3.4788768,-0.1589 1.1134631,0 0,-0.5061 0,-0.5061 -1.1134631,0 -1.113463,0 0,0.5061 0,0.5061 1.113463,0 z m -2.2741634,-1.4171 3.3170475,0 0.4614277,-0.4912 0.461429,-0.4911 -0.8229695,-0.4199 -0.8229693,-0.4198 -0.4210259,0 -0.4210259,0 -0.8017262,0.409 -0.8017262,0.409 0,0.1767 c 0,0.097 0.1496916,0.2341 0.3326477,0.3043 l 0.3326477,0.1276 -0.1289586,0.129 -0.1289587,0.129 -0.3555249,-0.3029 c -0.1955387,-0.1665 -0.6416511,-0.4158 -0.9913611,-0.554 l -0.6358362,-0.2512 -0.8181747,0.4174 c -0.4499961,0.2296 -0.8752832,0.5098 -0.9450824,0.6228 l -0.1269076,0.2053 3.3170476,0 z m 5.5953172,-0.01 2.106467,0.01 -0.359528,-0.3973 -0.359528,-0.3972 -0.666727,-0.2201 -0.666727,-0.22 -0.675316,0.292 c -0.371424,0.1606 -0.85752,0.4355 -1.080212,0.6109 l -0.4048958,0.3188 2.1064668,0.01 z"
         id="path4606" />
      <path
         style="fill:#3899e7"
         d="m 8.7542094,1048.5048 -5.8987798,0.054 -0.1240431,-0.3233 c -0.068224,-0.1778 -0.124043,-0.5341 -0.124043,-0.7918 l 0,-0.4686 0.6952654,-0.6105 c 0.382396,-0.3357 0.8708928,-0.6662 1.0855485,-0.7343 l 0.3902832,-0.1239 0.2096948,-0.6531 0.2096949,-0.6532 0.020668,0.5496 0.020667,0.5496 0.4346061,0.2326 0.4346063,0.2326 1.1912089,-0.5693 1.1912089,-0.5694 -0.083179,-0.2167 c -0.045749,-0.1193 -0.013479,-0.5795 0.07171,-1.0227 l 0.1548896,-0.8059 0.023281,0.646 0.023281,0.646 0.1936061,0.1197 0.1936062,0.1196 -0.096991,0.2528 -0.096991,0.2528 1.095792,0.5374 1.0957916,0.5374 0.427176,-0.1117 0.427176,-0.1117 0,-0.5837 0,-0.5838 0.202447,0 0.202448,0 0,0.5034 0,0.5034 0.657956,0.2934 c 0.361875,0.1613 0.876975,0.4696 1.144665,0.685 l 0.486711,0.3918 0.01941,0.8866 0.01941,0.8866 -5.8987797,0.054 z m -1.5411778,-0.1975 c 0.027837,0.024 0.050804,-0.2534 0.051039,-0.6153 l 4.272e-4,-0.6579 -2.1261294,0.064 -2.1261294,0.064 0,0.4861 0,0.486 2.0750903,0.066 c 1.1412996,0.036 2.0978656,0.085 2.1257022,0.1083 z m 5.0478474,-9e-4 2.189662,-0.058 0,-0.6074 0,-0.6073 -2.125702,0 -2.125702,0 -0.06396,0.6649 -0.06396,0.665 2.189661,-0.058 z m -3.4788768,-0.1589 1.1134631,0 0,-0.5061 0,-0.5061 -1.1134631,0 -1.113463,0 0,0.5061 0,0.5061 1.113463,0 z m -2.2741634,-1.4171 3.3170475,0 0.4614277,-0.4912 0.461429,-0.4911 -0.8229695,-0.4199 -0.8229693,-0.4198 -0.4210259,0 -0.4210259,0 -0.8017262,0.409 -0.8017262,0.409 0,0.1767 c 0,0.097 0.1496916,0.2341 0.3326477,0.3043 l 0.3326477,0.1276 -0.1289586,0.129 -0.1289587,0.129 -0.3555249,-0.3029 c -0.1955387,-0.1665 -0.6416511,-0.4158 -0.9913611,-0.554 l -0.6358362,-0.2512 -0.8181747,0.4174 c -0.4499961,0.2296 -0.8752832,0.5098 -0.9450824,0.6228 l -0.1269076,0.2053 3.3170476,0 z m 5.5953172,-0.01 2.106467,0.01 -0.359528,-0.3973 -0.359528,-0.3972 -0.666727,-0.2201 -0.666727,-0.22 -0.675316,0.292 c -0.371424,0.1606 -0.85752,0.4355 -1.080212,0.6109 l -0.4048958,0.3188 2.1064668,0.01 z"
         id="path4604" />
      <path
         style="fill:#578cb1"
         d="m 8.7542094,1048.5048 -5.8987798,0.054 -0.1240431,-0.3233 c -0.068224,-0.1778 -0.124043,-0.5341 -0.124043,-0.7918 l 0,-0.4686 0.6952654,-0.6105 c 0.382396,-0.3357 0.8708928,-0.6662 1.0855485,-0.7343 l 0.3902832,-0.1239 0.2096948,-0.6531 0.2096949,-0.6532 0.020668,0.5496 0.020667,0.5496 0.4346061,0.2326 0.4346063,0.2326 1.1912089,-0.5693 1.1912089,-0.5694 -0.083179,-0.2167 c -0.045749,-0.1193 -0.013479,-0.5795 0.07171,-1.0227 l 0.1548896,-0.8059 0.023281,0.646 0.023281,0.646 0.1936061,0.1197 0.1936062,0.1196 -0.096991,0.2528 -0.096991,0.2528 1.095792,0.5374 1.0957916,0.5374 0.427176,-0.1117 0.427176,-0.1117 0,-0.5837 0,-0.5838 0.202447,0 0.202448,0 0,0.5034 0,0.5034 0.657956,0.2934 c 0.361875,0.1613 0.876975,0.4696 1.144665,0.685 l 0.486711,0.3918 0.01941,0.8866 0.01941,0.8866 -5.8987797,0.054 z m -3.6226219,-0.1548 2.132056,0 0,-0.7154 0,-0.7155 -2.1739141,0.057 -2.1739141,0.058 -0.070134,0.3661 c -0.038574,0.2013 -0.019737,0.4974 0.041858,0.6579 l 0.1119919,0.2919 2.1320559,0 z m 3.6440609,0 1.1198169,0 0,-0.7187 0,-0.7187 -1.1621076,0.061 -1.1621074,0.061 -0.069701,0.3661 c -0.038336,0.2013 -0.019305,0.4974 0.042291,0.6579 l 0.1119917,0.2919 1.1198169,0 z m 3.4852306,-0.044 2.189662,-0.058 0,-0.6074 0,-0.6073 -2.125702,0 -2.125702,0 -0.06396,0.6649 -0.06396,0.665 2.189661,-0.058 z m -5.7530402,-1.576 3.3170475,0 0.4614277,-0.4912 0.461429,-0.4911 -0.8229695,-0.4199 -0.8229693,-0.4198 -0.4210259,0 -0.4210259,0 -0.8017262,0.409 -0.8017262,0.409 0,0.1767 c 0,0.097 0.1496916,0.2341 0.3326477,0.3043 l 0.3326477,0.1276 -0.1289586,0.129 -0.1289587,0.129 -0.3555249,-0.3029 c -0.1955387,-0.1665 -0.6416511,-0.4158 -0.9913611,-0.554 l -0.6358362,-0.2512 -0.8181747,0.4174 c -0.4499961,0.2296 -0.8752832,0.5098 -0.9450824,0.6228 l -0.1269076,0.2053 3.3170476,0 z m 5.5953172,-0.01 2.106467,0.01 -0.359528,-0.3973 -0.359528,-0.3972 -0.666727,-0.2201 -0.666727,-0.22 -0.675316,0.292 c -0.371424,0.1606 -0.85752,0.4355 -1.080212,0.6109 l -0.4048958,0.3188 2.1064668,0.01 z"
         id="path4602" />
      <path
         style="fill:#2e6ea0"
         d="m 8.7542094,1048.5048 -5.8987798,0.054 -0.1240431,-0.3233 c -0.068224,-0.1778 -0.124043,-0.5341 -0.124043,-0.7918 l 0,-0.4686 0.6952654,-0.6105 c 0.382396,-0.3357 0.8708928,-0.6662 1.0855485,-0.7343 l 0.3902832,-0.1239 0.2096948,-0.6531 0.2096949,-0.6532 0.020668,0.5496 0.020667,0.5496 0.4346061,0.2326 0.4346063,0.2326 1.1912089,-0.5693 1.1912089,-0.5694 -0.083179,-0.2167 c -0.045749,-0.1193 -0.013479,-0.5795 0.07171,-1.0227 l 0.1548896,-0.8059 0.023281,0.646 0.023281,0.646 0.1936061,0.1197 0.1936062,0.1196 -0.096991,0.2528 -0.096991,0.2528 1.095792,0.5374 1.0957916,0.5374 0.427176,-0.1117 0.427176,-0.1117 0,-0.5837 0,-0.5838 0.202447,0 0.202448,0 0,0.5034 0,0.5034 0.657956,0.2934 c 0.361875,0.1613 0.876975,0.4696 1.144665,0.685 l 0.486711,0.3918 0.01941,0.8866 0.01941,0.8866 -5.8987797,0.054 z m -3.5825267,-0.1548 2.0919608,0 0,-0.7086 0,-0.7086 -2.2269261,0 -2.2269261,0 0,0.5737 c 0,0.3154 0.060734,0.6343 0.1349652,0.7085 l 0.1349652,0.135 2.091961,0 z m 5.9409393,-0.011 3.464736,0.01 -0.06341,-0.6576 -0.06341,-0.6575 -3.438927,0 -3.4389268,0 -0.07042,0.3661 c -0.038731,0.2013 -0.021811,0.4928 0.037599,0.6476 l 0.1080191,0.2815 3.4647357,0.01 z m -4.6047832,-1.6088 3.3170475,0 0.4614277,-0.4912 0.461429,-0.4911 -0.8229695,-0.4199 -0.8229693,-0.4198 -0.4210259,0 -0.4210259,0 -0.8017262,0.409 -0.8017262,0.409 0,0.1767 c 0,0.097 0.1496916,0.2341 0.3326477,0.3043 l 0.3326477,0.1276 -0.1289586,0.129 -0.1289587,0.129 -0.3555249,-0.3029 c -0.1955387,-0.1665 -0.6416511,-0.4158 -0.9913611,-0.554 l -0.6358362,-0.2512 -0.8181747,0.4174 c -0.4499961,0.2296 -0.8752832,0.5098 -0.9450824,0.6228 l -0.1269076,0.2053 3.3170476,0 z m 5.5953172,-0.01 2.106467,0.01 -0.359528,-0.3973 -0.359528,-0.3972 -0.666727,-0.2201 -0.666727,-0.22 -0.675316,0.292 c -0.371424,0.1606 -0.85752,0.4355 -1.080212,0.6109 l -0.4048958,0.3188 2.1064668,0.01 z"
         id="path4600" />
      <path
         style="fill:#5d656c"
         d="m 8.7542094,1048.5048 -5.8987798,0.054 -0.1240431,-0.3233 c -0.068224,-0.1778 -0.124043,-0.5341 -0.124043,-0.7918 l 0,-0.4686 0.6952654,-0.6105 c 0.382396,-0.3357 0.8708928,-0.6662 1.0855485,-0.7343 l 0.3902832,-0.1239 0.2096948,-0.6531 0.2096949,-0.6532 0.020668,0.5496 0.020667,0.5496 0.4346061,0.2326 0.4346063,0.2326 1.1912089,-0.5693 1.1912089,-0.5694 -0.083179,-0.2167 c -0.045749,-0.1193 -0.013479,-0.5795 0.07171,-1.0227 l 0.1548896,-0.8059 0.023281,0.646 0.023281,0.646 0.1936061,0.1197 0.1936062,0.1196 -0.096991,0.2528 -0.096991,0.2528 1.095792,0.5374 1.0957916,0.5374 0.427176,-0.1117 0.427176,-0.1117 0,-0.5837 0,-0.5838 0.202447,0 0.202448,0 0,0.5034 0,0.5034 0.657956,0.2934 c 0.361875,0.1613 0.876975,0.4696 1.144665,0.685 l 0.486711,0.3918 0.01941,0.8866 0.01941,0.8866 -5.8987797,0.054 z m 0.074361,-0.1548 5.7488486,0 -0.06344,-0.658 -0.06344,-0.6579 -5.8203745,-0.054 -5.8203751,-0.054 0,0.5767 c 0,0.3172 0.060734,0.6375 0.1349652,0.7117 l 0.1349652,0.135 5.7488486,0 z m -2.3207315,-1.6196 3.3170475,0 0.4614276,-0.4912 0.461429,-0.4911 -0.8229694,-0.4199 -0.8229693,-0.4198 -0.4210259,0 -0.4210259,0 -0.8017262,0.409 -0.8017262,0.409 0,0.1767 c 0,0.097 0.1496916,0.2341 0.3326477,0.3043 l 0.3326477,0.1276 -0.1289586,0.129 -0.1289587,0.129 -0.3555249,-0.3029 c -0.1955387,-0.1665 -0.6416511,-0.4158 -0.9913611,-0.554 l -0.6358362,-0.2512 -0.8181747,0.4174 c -0.4499961,0.2296 -0.8752832,0.5098 -0.9450824,0.6228 l -0.1269076,0.2053 3.3170476,0 z m 5.5953171,-0.01 2.106467,0.01 -0.359528,-0.3973 -0.359528,-0.3972 -0.666727,-0.2201 -0.666727,-0.22 -0.675316,0.292 c -0.371424,0.1606 -0.85752,0.4355 -1.080212,0.6109 l -0.4048957,0.3188 2.1064667,0.01 z"
         id="path4598" />
      <path
         style="fill:#2b2c2c"
         d="m 11.008928,1048.4688 -3.6440606,4e-4 1.7611785,-0.067 c 0.9686481,-0.037 2.6084751,-0.037 3.6440611,-3e-4 l 1.882882,0.067 -3.644061,4e-4 z M 2.9110152,1048.35 c -0.055673,0 -0.1012239,-0.046 -0.1012239,-0.1012 0,-0.056 0.045551,-0.1013 0.1012239,-0.1013 0.055673,0 0.1012239,0.046 0.1012239,0.1013 0,0.056 -0.045551,0.1012 -0.1012239,0.1012 z m 11.5901378,-1.2551 c -0.02784,-0.022 -1.098279,-0.095 -2.378762,-0.1621 l -2.3281496,-0.1216 2.3787616,-0.04 2.378762,-0.04 0,0.2024 c 0,0.1114 -0.02277,0.1843 -0.05061,0.1621 z m -11.3876899,-0.3645 c -0.1670195,0.1386 -0.3036718,0.2065 -0.3036718,0.1508 0,-0.056 0.1366523,-0.2146 0.3036718,-0.3532 0.1670194,-0.1387 0.3036717,-0.2065 0.3036717,-0.1508 0,0.056 -0.1366523,0.2146 -0.3036717,0.3532 z m 4.2514043,0.2024 c -0.055673,0 -0.1012239,-0.045 -0.1012239,-0.1012 0,-0.056 0.045551,-0.1012 0.1012239,-0.1012 0.055673,0 0.101224,0.046 0.101224,0.1012 0,0.056 -0.045551,0.1012 -0.101224,0.1012 z m 6.7055666,-0.4048 c -0.04204,0 -0.201467,-0.1595 -0.354283,-0.3543 l -0.277849,-0.3543 0.354284,0.2778 c 0.194856,0.1529 0.354284,0.3123 0.354284,0.3543 0,0.042 -0.0344,0.077 -0.07644,0.077 z m -10.1471796,-0.4049 c -0.055673,0 -0.1012239,-0.046 -0.1012239,-0.1013 0,-0.056 0.045551,-0.1012 0.1012239,-0.1012 0.055673,0 0.1012239,0.046 0.1012239,0.1012 0,0.056 -0.045551,0.1013 -0.1012239,0.1013 z m 0.4048956,-0.2025 c -0.055673,0 -0.1012239,-0.045 -0.1012239,-0.1012 0,-0.056 0.045551,-0.1012 0.1012239,-0.1012 0.055673,0 0.1012239,0.045 0.1012239,0.1012 0,0.056 -0.045551,0.1012 -0.1012239,0.1012 z m 1.8389011,-0.016 -0.3880249,0.016 0.1223121,-0.1223 0.1223123,-0.1223 0.2657128,0.1063 0.2657127,0.1063 -0.388025,0.016 z m 4.9431009,0.016 -0.26993,0 0.134965,-0.135 0.134965,-0.1349 0.134966,0.1349 0.134965,0.135 -0.269931,0 z m 2.125702,0 c -0.05567,0 -0.101223,-0.045 -0.101223,-0.1012 0,-0.056 0.04555,-0.1012 0.101223,-0.1012 0.05567,0 0.101224,0.045 0.101224,0.1012 0,0.056 -0.04555,0.1012 -0.101224,0.1012 z m -8.5028083,-0.2024 c -0.055673,0 -0.1012239,-0.046 -0.1012239,-0.1013 0,-0.056 0.045551,-0.1012 0.1012239,-0.1012 0.055673,0 0.1012239,0.046 0.1012239,0.1012 0,0.056 -0.045551,0.1013 -0.1012239,0.1013 z m 0.8097913,0 c -0.055673,0 -0.1012239,-0.046 -0.1012239,-0.1013 0,-0.056 0.045551,-0.1012 0.1012239,-0.1012 0.055673,0 0.1012239,0.046 0.1012239,0.1012 0,0.056 -0.045551,0.1013 -0.1012239,0.1013 z m 1.8194883,-0.3433 c -0.388314,0.1852 -0.7060253,0.295 -0.7060253,0.244 0,-0.051 0.2817708,-0.2385 0.626157,-0.4166 0.3443864,-0.1781 0.6620977,-0.2878 0.7060253,-0.2439 0.043927,0.044 -0.2378432,0.2314 -0.626157,0.4165 z m 3.2923197,0.3348 c -0.02784,0 -0.369468,-0.1831 -0.7591797,-0.3964 -0.3897121,-0.2134 -0.6357172,-0.3918 -0.546678,-0.3964 0.089039,0 0.4306699,0.1305 0.7591797,0.3003 0.328509,0.1699 0.59729,0.3521 0.59729,0.4049 0,0.053 -0.02278,0.092 -0.05061,0.088 z m 0.971749,0 -0.21257,-0.01 0.358542,-0.2087 0.358541,-0.2087 -0.108784,-0.176 -0.108784,-0.1761 0.20575,-0.1271 0.20575,-0.1272 0,0.2752 c 0,0.1513 -0.109322,0.3844 -0.242937,0.518 -0.133616,0.1336 -0.338594,0.2402 -0.455508,0.2368 z m 1.103341,0.01 -0.26993,0 0.134965,-0.135 0.134965,-0.135 0.134965,0.135 0.134965,0.135 -0.26993,0 z m -7.553465,-0.4555 -0.092584,0.3542 0,-0.7085 0,-0.7086 0.092584,0.3543 c 0.050921,0.1948 0.050921,0.5137 0,0.7086 z m 3.2370954,-0.3543 c -0.027896,0 -0.050719,-0.1755 -0.050719,-0.3901 l 0,-0.39 0.1398081,0.086 0.1398082,0.086 -0.075266,-0.8604 -0.075265,-0.8605 0.1737377,0.8098 0.1737377,0.8098 -0.1875608,0.3543 c -0.1031585,0.1948 -0.2103846,0.3543 -0.2382803,0.3543 z"
         id="path4596" />
    </g>
  </g>
</svg>
