<?xml version="1.0" encoding="UTF-8" standalone="no"?>
<!-- Created with Inkscape (http://www.inkscape.org/) -->

<svg
   xmlns:dc="http://purl.org/dc/elements/1.1/"
   xmlns:cc="http://creativecommons.org/ns#"
   xmlns:rdf="http://www.w3.org/1999/02/22-rdf-syntax-ns#"
   xmlns:svg="http://www.w3.org/2000/svg"
   xmlns="http://www.w3.org/2000/svg"
   xmlns:sodipodi="http://sodipodi.sourceforge.net/DTD/sodipodi-0.dtd"
   xmlns:inkscape="http://www.inkscape.org/namespaces/inkscape"
   width="16"
   height="16"
   id="svg2"
   version="1.1"
   inkscape:version="0.47 r22583"
   sodipodi:docname="THEME4.svg">
  <defs
     id="defs4">
    <inkscape:perspective
       sodipodi:type="inkscape:persp3d"
       inkscape:vp_x="0 : 526.18109 : 1"
       inkscape:vp_y="0 : 1000 : 0"
       inkscape:vp_z="744.09448 : 526.18109 : 1"
       inkscape:persp3d-origin="372.04724 : 350.78739 : 1"
       id="perspective10" />
    <inkscape:perspective
       id="perspective2824"
       inkscape:persp3d-origin="0.5 : 0.33333333 : 1"
       inkscape:vp_z="1 : 0.5 : 1"
       inkscape:vp_y="0 : 1000 : 0"
       inkscape:vp_x="0 : 0.5 : 1"
       sodipodi:type="inkscape:persp3d" />
    <inkscape:perspective
       id="perspective5878"
       inkscape:persp3d-origin="0.5 : 0.33333333 : 1"
       inkscape:vp_z="1 : 0.5 : 1"
       inkscape:vp_y="0 : 1000 : 0"
       inkscape:vp_x="0 : 0.5 : 1"
       sodipodi:type="inkscape:persp3d" />
    <inkscape:perspective
       id="perspective5921"
       inkscape:persp3d-origin="0.5 : 0.33333333 : 1"
       inkscape:vp_z="1 : 0.5 : 1"
       inkscape:vp_y="0 : 1000 : 0"
       inkscape:vp_x="0 : 0.5 : 1"
       sodipodi:type="inkscape:persp3d" />
    <inkscape:perspective
       id="perspective5943"
       inkscape:persp3d-origin="0.5 : 0.33333333 : 1"
       inkscape:vp_z="1 : 0.5 : 1"
       inkscape:vp_y="0 : 1000 : 0"
       inkscape:vp_x="0 : 0.5 : 1"
       sodipodi:type="inkscape:persp3d" />
    <inkscape:perspective
       id="perspective5989"
       inkscape:persp3d-origin="0.5 : 0.33333333 : 1"
       inkscape:vp_z="1 : 0.5 : 1"
       inkscape:vp_y="0 : 1000 : 0"
       inkscape:vp_x="0 : 0.5 : 1"
       sodipodi:type="inkscape:persp3d" />
    <inkscape:perspective
       id="perspective6011"
       inkscape:persp3d-origin="0.5 : 0.33333333 : 1"
       inkscape:vp_z="1 : 0.5 : 1"
       inkscape:vp_y="0 : 1000 : 0"
       inkscape:vp_x="0 : 0.5 : 1"
       sodipodi:type="inkscape:persp3d" />
    <inkscape:perspective
       id="perspective6033"
       inkscape:persp3d-origin="0.5 : 0.33333333 : 1"
       inkscape:vp_z="1 : 0.5 : 1"
       inkscape:vp_y="0 : 1000 : 0"
       inkscape:vp_x="0 : 0.5 : 1"
       sodipodi:type="inkscape:persp3d" />
    <inkscape:perspective
       id="perspective6245"
       inkscape:persp3d-origin="0.5 : 0.33333333 : 1"
       inkscape:vp_z="1 : 0.5 : 1"
       inkscape:vp_y="0 : 1000 : 0"
       inkscape:vp_x="0 : 0.5 : 1"
       sodipodi:type="inkscape:persp3d" />
    <inkscape:perspective
       id="perspective6269"
       inkscape:persp3d-origin="0.5 : 0.33333333 : 1"
       inkscape:vp_z="1 : 0.5 : 1"
       inkscape:vp_y="0 : 1000 : 0"
       inkscape:vp_x="0 : 0.5 : 1"
       sodipodi:type="inkscape:persp3d" />
    <inkscape:perspective
       id="perspective6364"
       inkscape:persp3d-origin="0.5 : 0.33333333 : 1"
       inkscape:vp_z="1 : 0.5 : 1"
       inkscape:vp_y="0 : 1000 : 0"
       inkscape:vp_x="0 : 0.5 : 1"
       sodipodi:type="inkscape:persp3d" />
    <inkscape:perspective
       id="perspective6396"
       inkscape:persp3d-origin="0.5 : 0.33333333 : 1"
       inkscape:vp_z="1 : 0.5 : 1"
       inkscape:vp_y="0 : 1000 : 0"
       inkscape:vp_x="0 : 0.5 : 1"
       sodipodi:type="inkscape:persp3d" />
    <inkscape:perspective
       id="perspective6438"
       inkscape:persp3d-origin="0.5 : 0.33333333 : 1"
       inkscape:vp_z="1 : 0.5 : 1"
       inkscape:vp_y="0 : 1000 : 0"
       inkscape:vp_x="0 : 0.5 : 1"
       sodipodi:type="inkscape:persp3d" />
    <inkscape:perspective
       id="perspective6460"
       inkscape:persp3d-origin="0.5 : 0.33333333 : 1"
       inkscape:vp_z="1 : 0.5 : 1"
       inkscape:vp_y="0 : 1000 : 0"
       inkscape:vp_x="0 : 0.5 : 1"
       sodipodi:type="inkscape:persp3d" />
    <inkscape:perspective
       id="perspective6480"
       inkscape:persp3d-origin="0.5 : 0.33333333 : 1"
       inkscape:vp_z="1 : 0.5 : 1"
       inkscape:vp_y="0 : 1000 : 0"
       inkscape:vp_x="0 : 0.5 : 1"
       sodipodi:type="inkscape:persp3d" />
    <inkscape:perspective
       id="perspective6504"
       inkscape:persp3d-origin="0.5 : 0.33333333 : 1"
       inkscape:vp_z="1 : 0.5 : 1"
       inkscape:vp_y="0 : 1000 : 0"
       inkscape:vp_x="0 : 0.5 : 1"
       sodipodi:type="inkscape:persp3d" />
    <inkscape:perspective
       id="perspective6524"
       inkscape:persp3d-origin="0.5 : 0.33333333 : 1"
       inkscape:vp_z="1 : 0.5 : 1"
       inkscape:vp_y="0 : 1000 : 0"
       inkscape:vp_x="0 : 0.5 : 1"
       sodipodi:type="inkscape:persp3d" />
    <inkscape:perspective
       id="perspective6548"
       inkscape:persp3d-origin="0.5 : 0.33333333 : 1"
       inkscape:vp_z="1 : 0.5 : 1"
       inkscape:vp_y="0 : 1000 : 0"
       inkscape:vp_x="0 : 0.5 : 1"
       sodipodi:type="inkscape:persp3d" />
    <inkscape:perspective
       id="perspective6572"
       inkscape:persp3d-origin="0.5 : 0.33333333 : 1"
       inkscape:vp_z="1 : 0.5 : 1"
       inkscape:vp_y="0 : 1000 : 0"
       inkscape:vp_x="0 : 0.5 : 1"
       sodipodi:type="inkscape:persp3d" />
    <inkscape:perspective
       id="perspective6594"
       inkscape:persp3d-origin="0.5 : 0.33333333 : 1"
       inkscape:vp_z="1 : 0.5 : 1"
       inkscape:vp_y="0 : 1000 : 0"
       inkscape:vp_x="0 : 0.5 : 1"
       sodipodi:type="inkscape:persp3d" />
    <inkscape:perspective
       id="perspective6614"
       inkscape:persp3d-origin="0.5 : 0.33333333 : 1"
       inkscape:vp_z="1 : 0.5 : 1"
       inkscape:vp_y="0 : 1000 : 0"
       inkscape:vp_x="0 : 0.5 : 1"
       sodipodi:type="inkscape:persp3d" />
    <inkscape:perspective
       id="perspective6650"
       inkscape:persp3d-origin="0.5 : 0.33333333 : 1"
       inkscape:vp_z="1 : 0.5 : 1"
       inkscape:vp_y="0 : 1000 : 0"
       inkscape:vp_x="0 : 0.5 : 1"
       sodipodi:type="inkscape:persp3d" />
    <inkscape:perspective
       id="perspective6676"
       inkscape:persp3d-origin="0.5 : 0.33333333 : 1"
       inkscape:vp_z="1 : 0.5 : 1"
       inkscape:vp_y="0 : 1000 : 0"
       inkscape:vp_x="0 : 0.5 : 1"
       sodipodi:type="inkscape:persp3d" />
    <inkscape:perspective
       id="perspective6710"
       inkscape:persp3d-origin="0.5 : 0.33333333 : 1"
       inkscape:vp_z="1 : 0.5 : 1"
       inkscape:vp_y="0 : 1000 : 0"
       inkscape:vp_x="0 : 0.5 : 1"
       sodipodi:type="inkscape:persp3d" />
    <inkscape:perspective
       id="perspective6748"
       inkscape:persp3d-origin="0.5 : 0.33333333 : 1"
       inkscape:vp_z="1 : 0.5 : 1"
       inkscape:vp_y="0 : 1000 : 0"
       inkscape:vp_x="0 : 0.5 : 1"
       sodipodi:type="inkscape:persp3d" />
    <inkscape:perspective
       id="perspective6786"
       inkscape:persp3d-origin="0.5 : 0.33333333 : 1"
       inkscape:vp_z="1 : 0.5 : 1"
       inkscape:vp_y="0 : 1000 : 0"
       inkscape:vp_x="0 : 0.5 : 1"
       sodipodi:type="inkscape:persp3d" />
    <inkscape:perspective
       id="perspective6810"
       inkscape:persp3d-origin="0.5 : 0.33333333 : 1"
       inkscape:vp_z="1 : 0.5 : 1"
       inkscape:vp_y="0 : 1000 : 0"
       inkscape:vp_x="0 : 0.5 : 1"
       sodipodi:type="inkscape:persp3d" />
    <inkscape:perspective
       id="perspective6848"
       inkscape:persp3d-origin="0.5 : 0.33333333 : 1"
       inkscape:vp_z="1 : 0.5 : 1"
       inkscape:vp_y="0 : 1000 : 0"
       inkscape:vp_x="0 : 0.5 : 1"
       sodipodi:type="inkscape:persp3d" />
    <inkscape:perspective
       id="perspective6870"
       inkscape:persp3d-origin="0.5 : 0.33333333 : 1"
       inkscape:vp_z="1 : 0.5 : 1"
       inkscape:vp_y="0 : 1000 : 0"
       inkscape:vp_x="0 : 0.5 : 1"
       sodipodi:type="inkscape:persp3d" />
    <inkscape:perspective
       id="perspective6908"
       inkscape:persp3d-origin="0.5 : 0.33333333 : 1"
       inkscape:vp_z="1 : 0.5 : 1"
       inkscape:vp_y="0 : 1000 : 0"
       inkscape:vp_x="0 : 0.5 : 1"
       sodipodi:type="inkscape:persp3d" />
    <inkscape:perspective
       id="perspective6946"
       inkscape:persp3d-origin="0.5 : 0.33333333 : 1"
       inkscape:vp_z="1 : 0.5 : 1"
       inkscape:vp_y="0 : 1000 : 0"
       inkscape:vp_x="0 : 0.5 : 1"
       sodipodi:type="inkscape:persp3d" />
    <inkscape:perspective
       id="perspective6970"
       inkscape:persp3d-origin="0.5 : 0.33333333 : 1"
       inkscape:vp_z="1 : 0.5 : 1"
       inkscape:vp_y="0 : 1000 : 0"
       inkscape:vp_x="0 : 0.5 : 1"
       sodipodi:type="inkscape:persp3d" />
    <inkscape:perspective
       id="perspective7008"
       inkscape:persp3d-origin="0.5 : 0.33333333 : 1"
       inkscape:vp_z="1 : 0.5 : 1"
       inkscape:vp_y="0 : 1000 : 0"
       inkscape:vp_x="0 : 0.5 : 1"
       sodipodi:type="inkscape:persp3d" />
    <inkscape:perspective
       id="perspective7036"
       inkscape:persp3d-origin="0.5 : 0.33333333 : 1"
       inkscape:vp_z="1 : 0.5 : 1"
       inkscape:vp_y="0 : 1000 : 0"
       inkscape:vp_x="0 : 0.5 : 1"
       sodipodi:type="inkscape:persp3d" />
    <inkscape:perspective
       id="perspective7060"
       inkscape:persp3d-origin="0.5 : 0.33333333 : 1"
       inkscape:vp_z="1 : 0.5 : 1"
       inkscape:vp_y="0 : 1000 : 0"
       inkscape:vp_x="0 : 0.5 : 1"
       sodipodi:type="inkscape:persp3d" />
    <inkscape:perspective
       id="perspective7098"
       inkscape:persp3d-origin="0.5 : 0.33333333 : 1"
       inkscape:vp_z="1 : 0.5 : 1"
       inkscape:vp_y="0 : 1000 : 0"
       inkscape:vp_x="0 : 0.5 : 1"
       sodipodi:type="inkscape:persp3d" />
    <inkscape:perspective
       id="perspective7136"
       inkscape:persp3d-origin="0.5 : 0.33333333 : 1"
       inkscape:vp_z="1 : 0.5 : 1"
       inkscape:vp_y="0 : 1000 : 0"
       inkscape:vp_x="0 : 0.5 : 1"
       sodipodi:type="inkscape:persp3d" />
    <inkscape:perspective
       id="perspective7174"
       inkscape:persp3d-origin="0.5 : 0.33333333 : 1"
       inkscape:vp_z="1 : 0.5 : 1"
       inkscape:vp_y="0 : 1000 : 0"
       inkscape:vp_x="0 : 0.5 : 1"
       sodipodi:type="inkscape:persp3d" />
    <inkscape:perspective
       id="perspective7212"
       inkscape:persp3d-origin="0.5 : 0.33333333 : 1"
       inkscape:vp_z="1 : 0.5 : 1"
       inkscape:vp_y="0 : 1000 : 0"
       inkscape:vp_x="0 : 0.5 : 1"
       sodipodi:type="inkscape:persp3d" />
    <inkscape:perspective
       id="perspective7234"
       inkscape:persp3d-origin="0.5 : 0.33333333 : 1"
       inkscape:vp_z="1 : 0.5 : 1"
       inkscape:vp_y="0 : 1000 : 0"
       inkscape:vp_x="0 : 0.5 : 1"
       sodipodi:type="inkscape:persp3d" />
    <inkscape:perspective
       id="perspective7272"
       inkscape:persp3d-origin="0.5 : 0.33333333 : 1"
       inkscape:vp_z="1 : 0.5 : 1"
       inkscape:vp_y="0 : 1000 : 0"
       inkscape:vp_x="0 : 0.5 : 1"
       sodipodi:type="inkscape:persp3d" />
    <inkscape:perspective
       id="perspective7294"
       inkscape:persp3d-origin="0.5 : 0.33333333 : 1"
       inkscape:vp_z="1 : 0.5 : 1"
       inkscape:vp_y="0 : 1000 : 0"
       inkscape:vp_x="0 : 0.5 : 1"
       sodipodi:type="inkscape:persp3d" />
    <inkscape:perspective
       id="perspective7330"
       inkscape:persp3d-origin="0.5 : 0.33333333 : 1"
       inkscape:vp_z="1 : 0.5 : 1"
       inkscape:vp_y="0 : 1000 : 0"
       inkscape:vp_x="0 : 0.5 : 1"
       sodipodi:type="inkscape:persp3d" />
    <inkscape:perspective
       id="perspective3068"
       inkscape:persp3d-origin="0.5 : 0.33333333 : 1"
       inkscape:vp_z="1 : 0.5 : 1"
       inkscape:vp_y="0 : 1000 : 0"
       inkscape:vp_x="0 : 0.5 : 1"
       sodipodi:type="inkscape:persp3d" />
    <inkscape:perspective
       id="perspective3106"
       inkscape:persp3d-origin="0.5 : 0.33333333 : 1"
       inkscape:vp_z="1 : 0.5 : 1"
       inkscape:vp_y="0 : 1000 : 0"
       inkscape:vp_x="0 : 0.5 : 1"
       sodipodi:type="inkscape:persp3d" />
    <inkscape:perspective
       id="perspective3128"
       inkscape:persp3d-origin="0.5 : 0.33333333 : 1"
       inkscape:vp_z="1 : 0.5 : 1"
       inkscape:vp_y="0 : 1000 : 0"
       inkscape:vp_x="0 : 0.5 : 1"
       sodipodi:type="inkscape:persp3d" />
    <inkscape:perspective
       id="perspective3152"
       inkscape:persp3d-origin="0.5 : 0.33333333 : 1"
       inkscape:vp_z="1 : 0.5 : 1"
       inkscape:vp_y="0 : 1000 : 0"
       inkscape:vp_x="0 : 0.5 : 1"
       sodipodi:type="inkscape:persp3d" />
    <inkscape:perspective
       id="perspective3174"
       inkscape:persp3d-origin="0.5 : 0.33333333 : 1"
       inkscape:vp_z="1 : 0.5 : 1"
       inkscape:vp_y="0 : 1000 : 0"
       inkscape:vp_x="0 : 0.5 : 1"
       sodipodi:type="inkscape:persp3d" />
    <inkscape:perspective
       id="perspective3212"
       inkscape:persp3d-origin="0.5 : 0.33333333 : 1"
       inkscape:vp_z="1 : 0.5 : 1"
       inkscape:vp_y="0 : 1000 : 0"
       inkscape:vp_x="0 : 0.5 : 1"
       sodipodi:type="inkscape:persp3d" />
    <inkscape:perspective
       id="perspective3238"
       inkscape:persp3d-origin="0.5 : 0.33333333 : 1"
       inkscape:vp_z="1 : 0.5 : 1"
       inkscape:vp_y="0 : 1000 : 0"
       inkscape:vp_x="0 : 0.5 : 1"
       sodipodi:type="inkscape:persp3d" />
    <inkscape:perspective
       id="perspective3276"
       inkscape:persp3d-origin="0.5 : 0.33333333 : 1"
       inkscape:vp_z="1 : 0.5 : 1"
       inkscape:vp_y="0 : 1000 : 0"
       inkscape:vp_x="0 : 0.5 : 1"
       sodipodi:type="inkscape:persp3d" />
    <inkscape:perspective
       id="perspective3314"
       inkscape:persp3d-origin="0.5 : 0.33333333 : 1"
       inkscape:vp_z="1 : 0.5 : 1"
       inkscape:vp_y="0 : 1000 : 0"
       inkscape:vp_x="0 : 0.5 : 1"
       sodipodi:type="inkscape:persp3d" />
    <inkscape:perspective
       id="perspective3350"
       inkscape:persp3d-origin="0.5 : 0.33333333 : 1"
       inkscape:vp_z="1 : 0.5 : 1"
       inkscape:vp_y="0 : 1000 : 0"
       inkscape:vp_x="0 : 0.5 : 1"
       sodipodi:type="inkscape:persp3d" />
    <inkscape:perspective
       id="perspective3376"
       inkscape:persp3d-origin="0.5 : 0.33333333 : 1"
       inkscape:vp_z="1 : 0.5 : 1"
       inkscape:vp_y="0 : 1000 : 0"
       inkscape:vp_x="0 : 0.5 : 1"
       sodipodi:type="inkscape:persp3d" />
    <inkscape:perspective
       id="perspective3402"
       inkscape:persp3d-origin="0.5 : 0.33333333 : 1"
       inkscape:vp_z="1 : 0.5 : 1"
       inkscape:vp_y="0 : 1000 : 0"
       inkscape:vp_x="0 : 0.5 : 1"
       sodipodi:type="inkscape:persp3d" />
    <inkscape:perspective
       id="perspective3428"
       inkscape:persp3d-origin="0.5 : 0.33333333 : 1"
       inkscape:vp_z="1 : 0.5 : 1"
       inkscape:vp_y="0 : 1000 : 0"
       inkscape:vp_x="0 : 0.5 : 1"
       sodipodi:type="inkscape:persp3d" />
    <inkscape:perspective
       id="perspective3466"
       inkscape:persp3d-origin="0.5 : 0.33333333 : 1"
       inkscape:vp_z="1 : 0.5 : 1"
       inkscape:vp_y="0 : 1000 : 0"
       inkscape:vp_x="0 : 0.5 : 1"
       sodipodi:type="inkscape:persp3d" />
    <inkscape:perspective
       id="perspective3504"
       inkscape:persp3d-origin="0.5 : 0.33333333 : 1"
       inkscape:vp_z="1 : 0.5 : 1"
       inkscape:vp_y="0 : 1000 : 0"
       inkscape:vp_x="0 : 0.5 : 1"
       sodipodi:type="inkscape:persp3d" />
    <inkscape:perspective
       id="perspective3542"
       inkscape:persp3d-origin="0.5 : 0.33333333 : 1"
       inkscape:vp_z="1 : 0.5 : 1"
       inkscape:vp_y="0 : 1000 : 0"
       inkscape:vp_x="0 : 0.5 : 1"
       sodipodi:type="inkscape:persp3d" />
    <inkscape:perspective
       id="perspective3566"
       inkscape:persp3d-origin="0.5 : 0.33333333 : 1"
       inkscape:vp_z="1 : 0.5 : 1"
       inkscape:vp_y="0 : 1000 : 0"
       inkscape:vp_x="0 : 0.5 : 1"
       sodipodi:type="inkscape:persp3d" />
    <inkscape:perspective
       id="perspective3590"
       inkscape:persp3d-origin="0.5 : 0.33333333 : 1"
       inkscape:vp_z="1 : 0.5 : 1"
       inkscape:vp_y="0 : 1000 : 0"
       inkscape:vp_x="0 : 0.5 : 1"
       sodipodi:type="inkscape:persp3d" />
    <inkscape:perspective
       id="perspective3610"
       inkscape:persp3d-origin="0.5 : 0.33333333 : 1"
       inkscape:vp_z="1 : 0.5 : 1"
       inkscape:vp_y="0 : 1000 : 0"
       inkscape:vp_x="0 : 0.5 : 1"
       sodipodi:type="inkscape:persp3d" />
    <inkscape:perspective
       id="perspective3648"
       inkscape:persp3d-origin="0.5 : 0.33333333 : 1"
       inkscape:vp_z="1 : 0.5 : 1"
       inkscape:vp_y="0 : 1000 : 0"
       inkscape:vp_x="0 : 0.5 : 1"
       sodipodi:type="inkscape:persp3d" />
    <inkscape:perspective
       id="perspective3668"
       inkscape:persp3d-origin="0.5 : 0.33333333 : 1"
       inkscape:vp_z="1 : 0.5 : 1"
       inkscape:vp_y="0 : 1000 : 0"
       inkscape:vp_x="0 : 0.5 : 1"
       sodipodi:type="inkscape:persp3d" />
    <inkscape:perspective
       id="perspective3706"
       inkscape:persp3d-origin="0.5 : 0.33333333 : 1"
       inkscape:vp_z="1 : 0.5 : 1"
       inkscape:vp_y="0 : 1000 : 0"
       inkscape:vp_x="0 : 0.5 : 1"
       sodipodi:type="inkscape:persp3d" />
    <inkscape:perspective
       id="perspective3744"
       inkscape:persp3d-origin="0.5 : 0.33333333 : 1"
       inkscape:vp_z="1 : 0.5 : 1"
       inkscape:vp_y="0 : 1000 : 0"
       inkscape:vp_x="0 : 0.5 : 1"
       sodipodi:type="inkscape:persp3d" />
    <inkscape:perspective
       id="perspective3770"
       inkscape:persp3d-origin="0.5 : 0.33333333 : 1"
       inkscape:vp_z="1 : 0.5 : 1"
       inkscape:vp_y="0 : 1000 : 0"
       inkscape:vp_x="0 : 0.5 : 1"
       sodipodi:type="inkscape:persp3d" />
    <inkscape:perspective
       id="perspective3804"
       inkscape:persp3d-origin="0.5 : 0.33333333 : 1"
       inkscape:vp_z="1 : 0.5 : 1"
       inkscape:vp_y="0 : 1000 : 0"
       inkscape:vp_x="0 : 0.5 : 1"
       sodipodi:type="inkscape:persp3d" />
    <inkscape:perspective
       id="perspective3828"
       inkscape:persp3d-origin="0.5 : 0.33333333 : 1"
       inkscape:vp_z="1 : 0.5 : 1"
       inkscape:vp_y="0 : 1000 : 0"
       inkscape:vp_x="0 : 0.5 : 1"
       sodipodi:type="inkscape:persp3d" />
    <inkscape:perspective
       id="perspective3852"
       inkscape:persp3d-origin="0.5 : 0.33333333 : 1"
       inkscape:vp_z="1 : 0.5 : 1"
       inkscape:vp_y="0 : 1000 : 0"
       inkscape:vp_x="0 : 0.5 : 1"
       sodipodi:type="inkscape:persp3d" />
    <inkscape:perspective
       id="perspective3876"
       inkscape:persp3d-origin="0.5 : 0.33333333 : 1"
       inkscape:vp_z="1 : 0.5 : 1"
       inkscape:vp_y="0 : 1000 : 0"
       inkscape:vp_x="0 : 0.5 : 1"
       sodipodi:type="inkscape:persp3d" />
    <inkscape:perspective
       id="perspective3900"
       inkscape:persp3d-origin="0.5 : 0.33333333 : 1"
       inkscape:vp_z="1 : 0.5 : 1"
       inkscape:vp_y="0 : 1000 : 0"
       inkscape:vp_x="0 : 0.5 : 1"
       sodipodi:type="inkscape:persp3d" />
    <inkscape:perspective
       id="perspective3924"
       inkscape:persp3d-origin="0.5 : 0.33333333 : 1"
       inkscape:vp_z="1 : 0.5 : 1"
       inkscape:vp_y="0 : 1000 : 0"
       inkscape:vp_x="0 : 0.5 : 1"
       sodipodi:type="inkscape:persp3d" />
    <inkscape:perspective
       id="perspective3948"
       inkscape:persp3d-origin="0.5 : 0.33333333 : 1"
       inkscape:vp_z="1 : 0.5 : 1"
       inkscape:vp_y="0 : 1000 : 0"
       inkscape:vp_x="0 : 0.5 : 1"
       sodipodi:type="inkscape:persp3d" />
    <inkscape:perspective
       id="perspective3986"
       inkscape:persp3d-origin="0.5 : 0.33333333 : 1"
       inkscape:vp_z="1 : 0.5 : 1"
       inkscape:vp_y="0 : 1000 : 0"
       inkscape:vp_x="0 : 0.5 : 1"
       sodipodi:type="inkscape:persp3d" />
    <inkscape:perspective
       id="perspective4024"
       inkscape:persp3d-origin="0.5 : 0.33333333 : 1"
       inkscape:vp_z="1 : 0.5 : 1"
       inkscape:vp_y="0 : 1000 : 0"
       inkscape:vp_x="0 : 0.5 : 1"
       sodipodi:type="inkscape:persp3d" />
    <inkscape:perspective
       id="perspective4062"
       inkscape:persp3d-origin="0.5 : 0.33333333 : 1"
       inkscape:vp_z="1 : 0.5 : 1"
       inkscape:vp_y="0 : 1000 : 0"
       inkscape:vp_x="0 : 0.5 : 1"
       sodipodi:type="inkscape:persp3d" />
    <inkscape:perspective
       id="perspective4100"
       inkscape:persp3d-origin="0.5 : 0.33333333 : 1"
       inkscape:vp_z="1 : 0.5 : 1"
       inkscape:vp_y="0 : 1000 : 0"
       inkscape:vp_x="0 : 0.5 : 1"
       sodipodi:type="inkscape:persp3d" />
    <inkscape:perspective
       id="perspective4126"
       inkscape:persp3d-origin="0.5 : 0.33333333 : 1"
       inkscape:vp_z="1 : 0.5 : 1"
       inkscape:vp_y="0 : 1000 : 0"
       inkscape:vp_x="0 : 0.5 : 1"
       sodipodi:type="inkscape:persp3d" />
    <inkscape:perspective
       id="perspective4164"
       inkscape:persp3d-origin="0.5 : 0.33333333 : 1"
       inkscape:vp_z="1 : 0.5 : 1"
       inkscape:vp_y="0 : 1000 : 0"
       inkscape:vp_x="0 : 0.5 : 1"
       sodipodi:type="inkscape:persp3d" />
    <inkscape:perspective
       id="perspective4184"
       inkscape:persp3d-origin="0.5 : 0.33333333 : 1"
       inkscape:vp_z="1 : 0.5 : 1"
       inkscape:vp_y="0 : 1000 : 0"
       inkscape:vp_x="0 : 0.5 : 1"
       sodipodi:type="inkscape:persp3d" />
    <inkscape:perspective
       id="perspective4206"
       inkscape:persp3d-origin="0.5 : 0.33333333 : 1"
       inkscape:vp_z="1 : 0.5 : 1"
       inkscape:vp_y="0 : 1000 : 0"
       inkscape:vp_x="0 : 0.5 : 1"
       sodipodi:type="inkscape:persp3d" />
    <inkscape:perspective
       id="perspective4228"
       inkscape:persp3d-origin="0.5 : 0.33333333 : 1"
       inkscape:vp_z="1 : 0.5 : 1"
       inkscape:vp_y="0 : 1000 : 0"
       inkscape:vp_x="0 : 0.5 : 1"
       sodipodi:type="inkscape:persp3d" />
    <inkscape:perspective
       id="perspective4266"
       inkscape:persp3d-origin="0.5 : 0.33333333 : 1"
       inkscape:vp_z="1 : 0.5 : 1"
       inkscape:vp_y="0 : 1000 : 0"
       inkscape:vp_x="0 : 0.5 : 1"
       sodipodi:type="inkscape:persp3d" />
    <inkscape:perspective
       id="perspective4304"
       inkscape:persp3d-origin="0.5 : 0.33333333 : 1"
       inkscape:vp_z="1 : 0.5 : 1"
       inkscape:vp_y="0 : 1000 : 0"
       inkscape:vp_x="0 : 0.5 : 1"
       sodipodi:type="inkscape:persp3d" />
    <inkscape:perspective
       id="perspective4342"
       inkscape:persp3d-origin="0.5 : 0.33333333 : 1"
       inkscape:vp_z="1 : 0.5 : 1"
       inkscape:vp_y="0 : 1000 : 0"
       inkscape:vp_x="0 : 0.5 : 1"
       sodipodi:type="inkscape:persp3d" />
    <inkscape:perspective
       id="perspective4380"
       inkscape:persp3d-origin="0.5 : 0.33333333 : 1"
       inkscape:vp_z="1 : 0.5 : 1"
       inkscape:vp_y="0 : 1000 : 0"
       inkscape:vp_x="0 : 0.5 : 1"
       sodipodi:type="inkscape:persp3d" />
    <inkscape:perspective
       id="perspective4402"
       inkscape:persp3d-origin="0.5 : 0.33333333 : 1"
       inkscape:vp_z="1 : 0.5 : 1"
       inkscape:vp_y="0 : 1000 : 0"
       inkscape:vp_x="0 : 0.5 : 1"
       sodipodi:type="inkscape:persp3d" />
    <inkscape:perspective
       id="perspective4440"
       inkscape:persp3d-origin="0.5 : 0.33333333 : 1"
       inkscape:vp_z="1 : 0.5 : 1"
       inkscape:vp_y="0 : 1000 : 0"
       inkscape:vp_x="0 : 0.5 : 1"
       sodipodi:type="inkscape:persp3d" />
    <inkscape:perspective
       id="perspective4466"
       inkscape:persp3d-origin="0.5 : 0.33333333 : 1"
       inkscape:vp_z="1 : 0.5 : 1"
       inkscape:vp_y="0 : 1000 : 0"
       inkscape:vp_x="0 : 0.5 : 1"
       sodipodi:type="inkscape:persp3d" />
    <inkscape:perspective
       id="perspective4504"
       inkscape:persp3d-origin="0.5 : 0.33333333 : 1"
       inkscape:vp_z="1 : 0.5 : 1"
       inkscape:vp_y="0 : 1000 : 0"
       inkscape:vp_x="0 : 0.5 : 1"
       sodipodi:type="inkscape:persp3d" />
    <inkscape:perspective
       id="perspective4530"
       inkscape:persp3d-origin="0.5 : 0.33333333 : 1"
       inkscape:vp_z="1 : 0.5 : 1"
       inkscape:vp_y="0 : 1000 : 0"
       inkscape:vp_x="0 : 0.5 : 1"
       sodipodi:type="inkscape:persp3d" />
    <inkscape:perspective
       id="perspective4566"
       inkscape:persp3d-origin="0.5 : 0.33333333 : 1"
       inkscape:vp_z="1 : 0.5 : 1"
       inkscape:vp_y="0 : 1000 : 0"
       inkscape:vp_x="0 : 0.5 : 1"
       sodipodi:type="inkscape:persp3d" />
    <inkscape:perspective
       id="perspective4588"
       inkscape:persp3d-origin="0.5 : 0.33333333 : 1"
       inkscape:vp_z="1 : 0.5 : 1"
       inkscape:vp_y="0 : 1000 : 0"
       inkscape:vp_x="0 : 0.5 : 1"
       sodipodi:type="inkscape:persp3d" />
    <inkscape:perspective
       id="perspective4626"
       inkscape:persp3d-origin="0.5 : 0.33333333 : 1"
       inkscape:vp_z="1 : 0.5 : 1"
       inkscape:vp_y="0 : 1000 : 0"
       inkscape:vp_x="0 : 0.5 : 1"
       sodipodi:type="inkscape:persp3d" />
    <inkscape:perspective
       id="perspective4642"
       inkscape:persp3d-origin="0.5 : 0.33333333 : 1"
       inkscape:vp_z="1 : 0.5 : 1"
       inkscape:vp_y="0 : 1000 : 0"
       inkscape:vp_x="0 : 0.5 : 1"
       sodipodi:type="inkscape:persp3d" />
    <inkscape:perspective
       id="perspective4666"
       inkscape:persp3d-origin="0.5 : 0.33333333 : 1"
       inkscape:vp_z="1 : 0.5 : 1"
       inkscape:vp_y="0 : 1000 : 0"
       inkscape:vp_x="0 : 0.5 : 1"
       sodipodi:type="inkscape:persp3d" />
    <inkscape:perspective
       id="perspective2936"
       inkscape:persp3d-origin="0.5 : 0.33333333 : 1"
       inkscape:vp_z="1 : 0.5 : 1"
       inkscape:vp_y="0 : 1000 : 0"
       inkscape:vp_x="0 : 0.5 : 1"
       sodipodi:type="inkscape:persp3d" />
    <inkscape:perspective
       id="perspective2974"
       inkscape:persp3d-origin="0.5 : 0.33333333 : 1"
       inkscape:vp_z="1 : 0.5 : 1"
       inkscape:vp_y="0 : 1000 : 0"
       inkscape:vp_x="0 : 0.5 : 1"
       sodipodi:type="inkscape:persp3d" />
    <inkscape:perspective
       id="perspective3010"
       inkscape:persp3d-origin="0.5 : 0.33333333 : 1"
       inkscape:vp_z="1 : 0.5 : 1"
       inkscape:vp_y="0 : 1000 : 0"
       inkscape:vp_x="0 : 0.5 : 1"
       sodipodi:type="inkscape:persp3d" />
    <inkscape:perspective
       id="perspective3048"
       inkscape:persp3d-origin="0.5 : 0.33333333 : 1"
       inkscape:vp_z="1 : 0.5 : 1"
       inkscape:vp_y="0 : 1000 : 0"
       inkscape:vp_x="0 : 0.5 : 1"
       sodipodi:type="inkscape:persp3d" />
    <inkscape:perspective
       id="perspective3086"
       inkscape:persp3d-origin="0.5 : 0.33333333 : 1"
       inkscape:vp_z="1 : 0.5 : 1"
       inkscape:vp_y="0 : 1000 : 0"
       inkscape:vp_x="0 : 0.5 : 1"
       sodipodi:type="inkscape:persp3d" />
    <inkscape:perspective
       id="perspective3124"
       inkscape:persp3d-origin="0.5 : 0.33333333 : 1"
       inkscape:vp_z="1 : 0.5 : 1"
       inkscape:vp_y="0 : 1000 : 0"
       inkscape:vp_x="0 : 0.5 : 1"
       sodipodi:type="inkscape:persp3d" />
    <inkscape:perspective
       id="perspective3162"
       inkscape:persp3d-origin="0.5 : 0.33333333 : 1"
       inkscape:vp_z="1 : 0.5 : 1"
       inkscape:vp_y="0 : 1000 : 0"
       inkscape:vp_x="0 : 0.5 : 1"
       sodipodi:type="inkscape:persp3d" />
    <inkscape:perspective
       id="perspective3194"
       inkscape:persp3d-origin="0.5 : 0.33333333 : 1"
       inkscape:vp_z="1 : 0.5 : 1"
       inkscape:vp_y="0 : 1000 : 0"
       inkscape:vp_x="0 : 0.5 : 1"
       sodipodi:type="inkscape:persp3d" />
    <inkscape:perspective
       id="perspective3230"
       inkscape:persp3d-origin="0.5 : 0.33333333 : 1"
       inkscape:vp_z="1 : 0.5 : 1"
       inkscape:vp_y="0 : 1000 : 0"
       inkscape:vp_x="0 : 0.5 : 1"
       sodipodi:type="inkscape:persp3d" />
    <inkscape:perspective
       id="perspective3266"
       inkscape:persp3d-origin="0.5 : 0.33333333 : 1"
       inkscape:vp_z="1 : 0.5 : 1"
       inkscape:vp_y="0 : 1000 : 0"
       inkscape:vp_x="0 : 0.5 : 1"
       sodipodi:type="inkscape:persp3d" />
  </defs>
  <sodipodi:namedview
     id="base"
     pagecolor="#ffffff"
     bordercolor="#666666"
     borderopacity="1.0"
     inkscape:pageopacity="0.0"
     inkscape:pageshadow="2"
     inkscape:zoom="11.313709"
     inkscape:cx="11.966503"
     inkscape:cy="4.3194831"
     inkscape:document-units="px"
     inkscape:current-layer="layer1"
     showgrid="true"
     inkscape:window-width="1280"
     inkscape:window-height="780"
     inkscape:window-x="-8"
     inkscape:window-y="-8"
     inkscape:window-maximized="1">
    <inkscape:grid
       type="xygrid"
       id="grid6324"
       empspacing="5"
       visible="true"
       enabled="true"
       snapvisiblegridlinesonly="true" />
  </sodipodi:namedview>
  <metadata
     id="metadata7">
    <rdf:RDF>
      <cc:Work
         rdf:about="">
        <dc:format>image/svg+xml</dc:format>
        <dc:type
           rdf:resource="http://purl.org/dc/dcmitype/StillImage" />
        <dc:title></dc:title>
      </cc:Work>
    </rdf:RDF>
  </metadata>
  <g
     inkscape:label="Calque 1"
     inkscape:groupmode="layer"
     id="layer1"
     transform="translate(0,-1036.3622)">
    <g
       id="g3272"
       transform="translate(-0.096324,1.1133)">
      <path
         style="fill:#fefaef"
         d="m 8.4039912,1048.0379 -0.7991131,0 -0.4794678,-0.3175 -0.4794679,-0.3175 -0.8194992,0 -0.8194993,-10e-4 -0.1829894,-0.2205 -0.1829893,-0.2205 0.043553,-3.0159 0.043553,-3.016 0.9286416,-0.048 0.9286415,-0.048 0.7296704,0.4078 c 0.4013186,0.2243 0.8464721,0.4056 0.9892298,0.4029 0.1427577,0 0.5472401,-0.1822 0.8988499,-0.3988 l 0.6392904,-0.3937 0.9881212,-8e-4 0.988121,-9e-4 0.07936,0.2797 c 0.04365,0.1539 0.07729,1.5383 0.07476,3.0766 l -0.0046,2.7969 -0.163476,0.1998 -0.163475,0.1998 -0.819499,0 -0.8195,0 -0.3995561,0.3125 -0.3995565,0.3125 -0.7991131,0 z m -2.0476176,-1.9132 0.7101393,0 0.3091382,-0.1655 0.3091383,-0.1654 0,-0.217 0,-0.217 -0.2528053,-0.097 c -0.1390431,-0.053 -0.6347897,-0.097 -1.1016592,-0.097 l -0.8488535,0 -0.099768,0.26 -0.099768,0.26 0.1821495,0.2195 0.1821494,0.2195 0.7101393,0 z m 3.7339084,0 0.768128,0 0.256666,-0.2567 0.256667,-0.2567 -0.184909,-0.2228 -0.184908,-0.2228 -0.944383,0 -0.9443821,0 -0.092775,0.2418 -0.092776,0.2418 0.1972722,0.2377 0.1972723,0.2377 0.7681276,0 z m -3.5917671,-1.5982 0.8274905,0 0.1931511,-0.2328 0.1931512,-0.2327 -0.1031027,-0.1668 -0.1031027,-0.1669 -1.0123155,0 -1.0123154,0 -0.084521,0.2203 -0.084521,0.2203 0.1792978,0.1793 0.1792978,0.1793 0.8274904,0 z m 3.6215001,-0.032 1.000961,-0.048 0,-0.3196 0,-0.3196 -0.942274,-0.049 -0.9422739,-0.049 -0.1577505,0.1578 -0.1577506,0.1577 0.099064,0.2582 0.099064,0.2581 1.00096,-0.048 z m -3.6338952,-1.4061 0.8398856,0 0.1989614,-0.2398 0.1989614,-0.2397 -0.1989614,-0.2397 -0.1989614,-0.2398 -0.8398856,0 -0.8398855,0 -0.1989615,0.2398 -0.1989614,0.2397 0.1989614,0.2397 0.1989615,0.2398 0.8398855,0 z m 3.7558312,-0.038 0.879025,-0.042 0,-0.3995 0,-0.3996 -0.941518,0 -0.9415167,0 -0.1772412,0.2843 -0.1772411,0.2842 0.239734,0.1568 0.2397339,0.1567 0.8790241,-0.041 z"
         id="path3290" />
      <path
         style="fill:#bfdbbf"
         d="m 8.4039912,1048.0409 -0.6392905,5e-4 -0.5232864,-0.3191 -0.5232862,-0.319 -0.8555922,0 -0.855592,0 -0.1829894,-0.2205 -0.1829893,-0.2205 0.043553,-3.0159 0.043553,-3.016 0.8822376,-0.047 0.8822378,-0.047 0.764401,0.4064 0.764401,0.4064 0.3264721,0 0.326472,0 0.4936878,-0.3515 0.4936879,-0.3515 0.9298306,-0.067 0.929832,-0.067 0.215363,0.1787 0.215364,0.1787 -0.01852,2.9171 -0.01852,2.9171 -0.126765,0.1998 -0.126765,0.1998 -0.829636,10e-4 -0.829637,0 -0.4794674,0.3175 -0.4794679,0.3175 -0.6392904,5e-4 z m -1.9178714,-1.9162 0.8398856,0 0.1972723,-0.2377 0.1972722,-0.2377 -0.092776,-0.2418 -0.092775,-0.2418 -1.0488791,0 -1.048879,0 -0.092775,0.2418 -0.092776,0.2418 0.1972723,0.2377 0.1972723,0.2377 0.8398855,0 z m 3.6898662,0 0.853832,0 0.143849,-0.2797 0.14385,-0.2797 -0.07163,-0.1998 -0.07163,-0.1998 -1.030545,0 -1.0305441,0 -0.092775,0.2418 -0.092776,0.2418 0.1972722,0.2377 0.1972723,0.2377 0.8538316,0 z m -3.6521052,-1.6308 1.0809973,-0.047 0,-0.3196 0,-0.3196 -1.0226138,-0.048 -1.0226138,-0.048 -0.1573218,0.1573 -0.1573218,0.1573 0.098938,0.2578 0.098938,0.2579 1.0809973,-0.047 z m 3.5212672,0.033 0.931987,0 0.179298,-0.1793 0.179298,-0.1793 -0.08452,-0.2203 -0.08452,-0.2203 -1.012315,0 -1.0123155,0 -0.103506,0.1675 -0.1035059,0.1675 0.089058,0.2321 0.089058,0.2321 0.9319874,0 z m -3.5590282,-1.4384 0.8398856,0 0.1989614,-0.2398 0.1989614,-0.2397 -0.1989614,-0.2397 -0.1989614,-0.2398 -0.8398856,0 -0.8398855,0 -0.1989615,0.2398 -0.1989614,0.2397 0.1989614,0.2397 0.1989615,0.2398 0.8398855,0 z m 3.7558312,-0.038 0.879025,-0.042 0,-0.3995 0,-0.3996 -0.941518,0 -0.9415167,0 -0.1772412,0.2843 -0.1772411,0.2842 0.239734,0.1568 0.2397339,0.1567 0.8790241,-0.041 z"
         id="path3288" />
      <path
         style="fill:#dfdf7f"
         d="m 8.4068464,1048.0355 -0.6421457,-0.01 -0.7192017,-0.4009 -0.7192018,-0.4009 -0.617197,0.093 -0.6171972,0.093 -0.2218716,-0.1842 -0.2218716,-0.1841 0,-2.8442 0,-2.8442 0.09701,-0.2528 0.097011,-0.2528 0.8381212,0 0.8381213,0 0.7514626,0.3996 0.7514626,0.3995 0.3264721,0 0.326472,0 0.4760884,-0.339 0.4760882,-0.339 1.0050718,-0.081 1.005072,-0.081 0.140293,0.2199 0.140293,0.2199 0.01618,2.7969 0.01618,2.7969 -0.144663,0.288 -0.144663,0.2879 -0.694214,-0.1041 -0.694213,-0.1041 -0.6114111,0.4155 -0.6114106,0.4155 -0.6421459,-0.01 z m -1.9207266,-1.9108 0.8398856,0 0.1972723,-0.2377 0.1972722,-0.2377 -0.092776,-0.2418 -0.092775,-0.2418 -1.0488791,0 -1.048879,0 -0.092775,0.2418 -0.092776,0.2418 0.1972723,0.2377 0.1972723,0.2377 0.8398855,0 z m 3.7102522,0 0.833446,0 0.154294,-0.2883 0.154294,-0.2883 -0.123268,-0.1995 -0.123268,-0.1994 -1.022689,0.048 -1.0226892,0.048 -0.057286,0.3005 -0.057286,0.3004 0.2155037,0.1366 0.2155037,0.1366 0.8334448,0 z m -3.7102522,-1.5957 1.0488791,0 0.1008632,-0.2629 0.1008633,-0.2628 -0.2962488,-0.2167 -0.2962486,-0.2166 -0.6581082,0 -0.6581081,0 -0.2962486,0.2166 -0.2962488,0.2167 0.1008633,0.2628 0.1008632,0.2629 1.048879,0 z m 3.5714232,0 0.944383,0 0.184908,-0.2228 0.184909,-0.2228 -0.256667,-0.2567 -0.256666,-0.2567 -0.677239,0 -0.6772392,0 -0.2962486,0.2166 -0.2962488,0.2167 0.1008632,0.2628 0.1008633,0.2629 0.9443821,0 z m -3.5714232,-1.4384 0.8398856,0 0.1989614,-0.2398 0.1989614,-0.2397 -0.1989614,-0.2397 -0.1989614,-0.2398 -0.9222671,0 -0.9222669,0 -0.099768,0.26 -0.099768,0.26 0.1821495,0.2195 0.1821494,0.2195 0.8398855,0 z m 3.7558312,-0.049 0.879025,-0.031 0,-0.3995 0,-0.3996 -0.706382,-0.05 c -0.388511,-0.028 -0.8739717,-0.01 -1.0788029,0.043 l -0.3724208,0.093 0,0.3033 0,0.3033 0.1997783,0.084 c 0.1098781,0.046 0.5953392,0.07 1.0788024,0.053 z"
         id="path3286" />
      <path
         style="fill:#dfbf7f"
         d="m 8.494824,1047.9968 -0.7301233,0.062 -0.6965152,-0.4268 -0.6965151,-0.4269 -0.6765103,0.093 -0.6765101,0.093 -0.1852451,-0.1853 -0.1852451,-0.1852 0,-2.8318 0,-2.8318 0.09701,-0.2528 0.097011,-0.2528 0.8232411,0 0.8232412,0 0.750565,0.3996 0.7505649,0.3995 0.3422497,0 0.3422499,0 0.4760884,-0.339 0.4760882,-0.339 1.0050718,-0.081 1.005072,-0.081 0.1323,0.214 0.132299,0.2141 0.0124,2.8683 0.0124,2.8683 -0.214207,0.2142 -0.214206,0.2142 -0.638529,-0.1021 -0.638528,-0.1021 -0.4977937,0.368 -0.4977936,0.368 -0.7301232,0.062 z m -2.0087042,-1.8721 0.8398856,0 0.1972723,-0.2377 0.1972722,-0.2377 -0.092776,-0.2418 -0.092775,-0.2418 -1.0488791,0 -1.048879,0 -0.092775,0.2418 -0.092776,0.2418 0.1972723,0.2377 0.1972723,0.2377 0.8398855,0 z m 3.7102522,0 0.833446,0 0.154294,-0.2883 0.154294,-0.2883 -0.123268,-0.1995 -0.123268,-0.1994 -1.022689,0.048 -1.0226892,0.048 -0.057286,0.3005 -0.057286,0.3004 0.2155037,0.1366 0.2155037,0.1366 0.8334448,0 z m -3.7102522,-1.5957 1.0488791,0 0.1008632,-0.2629 0.1008633,-0.2628 -0.2962488,-0.2167 -0.2962486,-0.2166 -0.7489969,0 -0.7489968,0 -0.1972723,0.2377 -0.1972723,0.2377 0.092776,0.2418 0.092775,0.2418 1.048879,0 z m 3.5714232,0 0.944383,0 0.184908,-0.2228 0.184909,-0.2228 -0.256667,-0.2567 -0.256666,-0.2567 -0.768128,0 -0.7681276,0 -0.1972723,0.2377 -0.1972722,0.2377 0.092776,0.2418 0.092775,0.2418 0.9443821,0 z m -3.5714232,-1.4384 0.8398856,0 0.1989614,-0.2398 0.1989614,-0.2397 -0.1989614,-0.2397 -0.1989614,-0.2398 -0.9443824,0 -0.9443822,0 -0.092775,0.2418 -0.092776,0.2418 0.1972723,0.2377 0.1972723,0.2377 0.8398855,0 z m 3.6963062,0 0.8195,0 0.198961,-0.2398 0.198961,-0.2397 -0.204744,-0.2467 -0.204745,-0.2467 -0.971933,0.047 -0.9719342,0.047 -0.057286,0.3005 -0.057286,0.3005 0.2155037,0.1366 0.2155037,0.1366 0.8194988,0 z"
         id="path3284" />
      <path
         style="fill:#dfbf3f"
         d="m 8.3240799,1048.0367 -0.5593792,0 -0.6392904,-0.3938 -0.6392905,-0.3937 -0.8390687,-8e-4 -0.8390687,-9e-4 -0.022111,-0.1198 c -0.012161,-0.066 -0.037909,-1.4145 -0.057217,-2.9967 l -0.035105,-2.8768 0.1566972,-0.1998 0.1566973,-0.1998 0.6596767,0 0.6596766,0 0.8549386,0.398 0.8549385,0.3979 0.3190592,0 0.3190591,0 0.4760884,-0.339 0.4760882,-0.339 1.0050718,-0.081 1.005072,-0.081 0.110197,0.1783 0.110197,0.1783 0.0028,2.1992 c 0.0016,1.2096 -0.0022,2.5768 -0.0084,3.0383 l -0.01126,0.839 -0.839068,0 -0.839069,0.01 -0.6392905,0.3938 -0.6392905,0.3937 -0.5593791,0 z m -1.8379601,-1.9169 0.7991131,0 0.2155037,-0.1366 0.2155037,-0.1366 -0.05787,-0.3004 -0.05787,-0.3005 -1.1143808,0 -1.1143807,0 -0.05787,0.3005 -0.05787,0.3004 0.2155038,0.1366 0.2155037,0.1366 0.799113,0 z m 3.6030762,0 0.91273,0 0.197272,-0.2377 0.197272,-0.2377 -0.09278,-0.2418 -0.09277,-0.2418 -1.123774,0 -1.1237747,0 0,0.373 c 0,0.2051 0.047947,0.4208 0.1065485,0.4794 l 0.1065483,0.1066 0.9127289,0 z m -3.6030762,-1.5982 1.0488791,0 0.092775,-0.2418 0.092776,-0.2418 -0.1972722,-0.2377 -0.1972723,-0.2377 -0.8398856,0 -0.8398855,0 -0.1972723,0.2377 -0.1972723,0.2377 0.092776,0.2418 0.092775,0.2418 1.048879,0 z m 3.7075732,0 1.017226,0 0.09277,-0.2418 0.09278,-0.2418 -0.197272,-0.2377 -0.197272,-0.2377 -0.766473,0 c -0.4215595,0 -0.8802342,0.044 -1.0192773,0.097 l -0.2528054,0.097 0,0.2759 c 0,0.1518 0.047947,0.3239 0.1065485,0.3825 l 0.1065483,0.1066 1.0172259,0 z m -3.6698122,-1.4711 1.0809973,-0.047 0,-0.3995 0,-0.3996 -1.0809973,-0.047 -1.0809973,-0.047 -0.094816,0.2471 -0.094816,0.2471 0.094816,0.2471 0.094816,0.2471 1.0809973,-0.047 z m 3.5336622,0.033 0.944383,0 0.182149,-0.2195 0.182149,-0.2195 -0.09977,-0.26 -0.09977,-0.26 -1.026763,0 -1.0267641,0 -0.091995,0.2398 -0.091995,0.2397 0.091995,0.2397 0.091995,0.2398 0.9443821,0 z"
         id="path3282" />
      <path
         style="fill:#df9f3f"
         d="m 8.3417328,1048.0275 -0.5770321,-0.015 -0.6392904,-0.3818 -0.6392905,-0.3819 -0.8390687,0 -0.8390687,0 -0.023483,-0.1997 c -0.012915,-0.1099 -0.036817,-1.4584 -0.053116,-2.9967 l -0.029633,-2.7969 0.1525963,-0.1998 0.1525964,-0.1998 0.6725459,0 0.6725459,0 0.7862438,0.3989 0.7862438,0.3989 0.3037154,7e-4 0.3037156,6e-4 0.8361369,-0.409 0.8361366,-0.4091 0.778019,0.05 0.778019,0.049 0.04333,3.1565 0.04334,3.1565 -0.875306,0 -0.875305,0 -0.5887795,0.3996 -0.5887795,0.3996 -0.577032,-0.015 z m -1.817852,-1.9354 1.0809973,-0.047 0,-0.3996 0,-0.3995 -1.0809973,-0.047 -1.0809973,-0.047 -0.094816,0.2471 -0.094816,0.2471 0.094816,0.2471 0.094816,0.2471 1.0809973,-0.047 z m 3.5653152,0.033 0.91273,0 0.197272,-0.2377 0.197272,-0.2377 -0.09278,-0.2418 -0.09277,-0.2418 -1.123774,0 -1.1237747,0 0,0.373 c 0,0.2051 0.047947,0.4208 0.1065485,0.4794 l 0.1065483,0.1066 0.9127289,0 z m -3.6030762,-1.5982 1.0488791,0 0.092775,-0.2418 0.092776,-0.2418 -0.1972722,-0.2377 -0.1972723,-0.2377 -0.8398856,0 -0.8398855,0 -0.1972723,0.2377 -0.1972723,0.2377 0.092776,0.2418 0.092775,0.2418 1.048879,0 z m 3.7075732,0 1.017226,0 0.09277,-0.2418 0.09278,-0.2418 -0.197272,-0.2377 -0.197272,-0.2377 -0.766473,0 c -0.4215595,0 -0.8802342,0.044 -1.0192773,0.097 l -0.2528054,0.097 0,0.2759 c 0,0.1518 0.047947,0.3239 0.1065485,0.3825 l 0.1065483,0.1066 1.0172259,0 z m -3.6698122,-1.4711 1.0809973,-0.047 0,-0.3995 0,-0.3996 -1.0809973,-0.047 -1.0809973,-0.047 -0.094816,0.2471 -0.094816,0.2471 0.094816,0.2471 0.094816,0.2471 1.0809973,-0.047 z m 3.5336622,0.033 0.944383,0 0.182149,-0.2195 0.182149,-0.2195 -0.09977,-0.26 -0.09977,-0.26 -1.026763,0 -1.0267641,0 -0.091995,0.2398 -0.091995,0.2397 0.091995,0.2397 0.091995,0.2398 0.9443821,0 z"
         id="path3280" />
      <path
         style="fill:#df9f00"
         d="m 8.4416409,1047.9843 -0.6769402,0.062 -0.5548689,-0.4013 -0.5548691,-0.4013 -0.9234901,0 -0.9234902,0 -0.022956,-0.6792 c -0.012626,-0.3736 -0.018224,-1.7489 -0.012441,-3.0562 l 0.010515,-2.3769 0.1477388,-0.1477 0.1477388,-0.1477 0.9837977,0.1584 0.9837979,0.1584 0.3548695,0.2486 0.3548693,0.2485 0.4347709,0 0.4347709,0 0.5285589,-0.3057 0.528559,-0.3057 1.0388469,-0.054 1.038847,-0.054 0,3.1166 0,3.1165 -0.879024,0.08 -0.879025,0.08 -0.4418178,0.2995 -0.4418181,0.2996 -0.6769402,0.062 z m -1.9177601,-1.8922 1.0809973,-0.047 0.049696,-0.4305 0.049696,-0.4304 -0.5399011,-0.1013 c -0.2969455,-0.056 -0.7795369,-0.078 -1.0724252,-0.049 l -0.5325244,0.052 -0.1614202,0.258 -0.1614202,0.258 0.1031519,0.2688 0.103152,0.2688 1.0809973,-0.047 z m 3.5911572,0 0.972702,-0.047 0.176441,-0.2891 0.17644,-0.289 -0.310237,-0.2304 -0.310236,-0.2304 -0.75715,0 -0.7571507,0 -0.2508329,0.2509 -0.250833,0.2508 0.1690775,0.3159 0.1690774,0.3159 0.9727017,-0.047 z m -3.5574319,-1.5991 1.0439674,-0.046 0.057334,-0.3004 0.057333,-0.3005 -0.2155037,-0.1366 -0.2155037,-0.1366 -0.746086,0 c -0.4103471,0 -0.8598482,0.041 -0.9988913,0.095 l -0.2528054,0.097 0,0.2759 c 0,0.1518 0.050892,0.3269 0.1130943,0.3891 l 0.1130944,0.113 1.0439672,-0.047 z m 3.5428569,0.034 1.110456,0 0.09277,-0.2418 0.09278,-0.2418 -0.197272,-0.2377 -0.197272,-0.2377 -0.933744,0 -0.9337426,0 -0.1438495,0.2797 -0.1438493,0.2797 0.071633,0.1998 0.071634,0.1998 1.1104554,0 z m -3.5765822,-1.4711 1.0809973,-0.047 0,-0.3995 0,-0.3996 -1.0809973,-0.047 -1.0809973,-0.047 -0.094816,0.2471 -0.094816,0.2471 0.094816,0.2471 0.094816,0.2471 1.0809973,-0.047 z m 3.6759202,0 1.080997,-0.047 0,-0.3995 0,-0.3996 -1.080997,-0.047 -1.0809974,-0.047 -0.094816,0.2471 -0.094816,0.2471 0.094816,0.2471 0.094816,0.2471 1.0809974,-0.047 z"
         id="path3278" />
      <path
         style="fill:#bf9f00"
         d="m 8.5163743,1047.987 -0.591851,0.072 -0.6392904,-0.4028 -0.6392905,-0.4027 -0.91898,-0.01 -0.91898,0 -0.020858,-0.7591 c -0.011472,-0.4176 -0.017943,-1.7804 -0.014379,-3.0286 l 0.00648,-2.2695 0.1061523,-0.1718 0.1061523,-0.1717 0.8272069,0.1058 0.8272068,0.1058 0.5929678,0.2977 0.5929678,0.2976 0.4923064,0 0.4923066,0 0.4330406,-0.3086 0.4330405,-0.3086 1.0388466,-0.051 1.038847,-0.051 0,3.1166 0,3.1165 -0.867465,0.049 -0.867465,0.049 -0.4585552,0.3265 -0.4585553,0.3266 -0.5918509,0.072 z m -1.9924935,-1.8949 1.0809973,-0.047 0.049696,-0.4305 0.049696,-0.4304 -0.5399011,-0.1013 c -0.2969455,-0.056 -0.7795369,-0.078 -1.0724252,-0.049 l -0.5325244,0.052 -0.1614202,0.258 -0.1614202,0.258 0.1031519,0.2688 0.103152,0.2688 1.0809973,-0.047 z m 3.6330122,0.033 1.022454,0 0.103885,-0.3273 0.103886,-0.3273 -0.192596,-0.2321 -0.192596,-0.2321 -0.84804,0 -0.8480387,0 -0.2508329,0.2509 -0.250833,0.2508 0.1651289,0.3085 0.1651291,0.3086 1.0224536,0 z m -3.5992869,-1.6317 1.0439674,-0.046 0.057334,-0.3004 0.057333,-0.3005 -0.2155037,-0.1366 -0.2155037,-0.1366 -0.746086,0 c -0.4103471,0 -0.8598482,0.041 -0.9988913,0.095 l -0.2528054,0.097 0,0.2759 c 0,0.1518 0.050892,0.3269 0.1130943,0.3891 l 0.1130944,0.113 1.0439672,-0.047 z m 3.5428569,0.034 1.110456,0 0.09277,-0.2418 0.09278,-0.2418 -0.197272,-0.2377 -0.197272,-0.2377 -0.933744,0 -0.9337426,0 -0.1438495,0.2797 -0.1438493,0.2797 0.071633,0.1998 0.071634,0.1998 1.1104554,0 z m -3.5765822,-1.4711 1.0809973,-0.047 0,-0.3995 0,-0.3996 -1.0809973,-0.047 -1.0809973,-0.047 -0.094816,0.2471 -0.094816,0.2471 0.094816,0.2471 0.094816,0.2471 1.0809973,-0.047 z m 3.7032682,-6e-4 1.053649,-0.047 0,-0.3995 0,-0.3996 -1.034734,-0.049 -1.0347345,-0.048 -0.2011826,0.2751 -0.2011826,0.2752 0.1822682,0.2196 0.1822683,0.2196 1.0536482,-0.047 z"
         id="path3276" />
      <path
         style="fill:#bf7f00"
         d="m 8.5596384,1047.9517 -0.6351151,0.084 -0.6392904,-0.3892 -0.6392905,-0.3893 -0.91898,-0.01 -0.91898,-0.01 -0.021106,-0.7591 c -0.011609,-0.4176 -0.013455,-1.7879 -0.0041,-3.0453 l 0.017003,-2.2861 0.098186,-0.1588 0.098186,-0.1589 0.7449863,0.1053 0.7449862,0.1053 0.6995625,0.3019 0.6995624,0.3019 0.4802427,0 0.4802426,0 0.4983324,-0.2991 0.4983323,-0.2991 0.8078472,-0.089 0.807848,-0.089 0.194674,0.1203 0.194674,0.1203 -0.04359,3.025 -0.04359,3.0249 -0.982346,0.08 -0.9823459,0.08 -0.3004102,0.272 -0.3004103,0.2721 -0.6351151,0.084 z m -2.0003799,-1.8604 1.0456196,-0.047 0.053939,-0.3815 0.053939,-0.3815 -0.2137614,-0.1355 -0.2137615,-0.1355 -0.746086,0 c -0.4103471,0 -0.8598482,0.041 -0.9988913,0.095 l -0.2528054,0.097 0,0.3559 c 0,0.1957 0.050892,0.4067 0.1130943,0.4689 l 0.1130944,0.1131 1.0456196,-0.046 z m 3.6273665,0.033 1.024294,0 0.100331,-0.2615 0.10033,-0.2614 -0.161579,-0.258 -0.161579,-0.258 -0.690105,-0.05 c -0.379558,-0.028 -0.8497618,-0.01 -1.0448973,0.039 l -0.3547922,0.089 -0.1002973,0.2614 -0.1002973,0.2613 0.1821495,0.2195 0.1821494,0.2195 1.0242932,0 z m -3.6627442,-1.6308 1.0809973,-0.047 0,-0.3995 0,-0.3996 -1.0809973,-0.047 -1.0809973,-0.047 -0.094816,0.2471 -0.094816,0.2471 0.094816,0.2471 0.094816,0.2471 1.0809973,-0.047 z m 3.5765822,0.033 1.110456,0 0.09277,-0.2418 0.09278,-0.2418 -0.197272,-0.2377 -0.197272,-0.2377 -0.933744,0 -0.9337426,0 -0.1438495,0.2797 -0.1438493,0.2797 0.071633,0.1998 0.071634,0.1998 1.1104554,0 z m -3.5765822,-1.4711 1.0809973,-0.047 0,-0.3995 0,-0.3996 -1.0809973,-0.047 -1.0809973,-0.047 -0.094816,0.2471 -0.094816,0.2471 0.094816,0.2471 0.094816,0.2471 1.0809973,-0.047 z m 3.7032682,-6e-4 1.053649,-0.047 0,-0.3995 0,-0.3996 -1.053649,-0.047 -1.0536482,-0.047 -0.2045459,0.2464 -0.204546,0.2465 0.204546,0.2464 0.2045459,0.2465 1.0536482,-0.047 z"
         id="path3274" />
    </g>
  </g>
</svg>
