<?xml version="1.0" encoding="UTF-8" standalone="no"?>
<!-- Created with Inkscape (http://www.inkscape.org/) -->

<svg
   xmlns:dc="http://purl.org/dc/elements/1.1/"
   xmlns:cc="http://creativecommons.org/ns#"
   xmlns:rdf="http://www.w3.org/1999/02/22-rdf-syntax-ns#"
   xmlns:svg="http://www.w3.org/2000/svg"
   xmlns="http://www.w3.org/2000/svg"
   xmlns:sodipodi="http://sodipodi.sourceforge.net/DTD/sodipodi-0.dtd"
   xmlns:inkscape="http://www.inkscape.org/namespaces/inkscape"
   width="16"
   height="16"
   id="svg2"
   version="1.1"
   inkscape:version="0.47 r22583"
   sodipodi:docname="THEME17.svg">
  <defs
     id="defs4">
    <inkscape:perspective
       sodipodi:type="inkscape:persp3d"
       inkscape:vp_x="0 : 526.18109 : 1"
       inkscape:vp_y="0 : 1000 : 0"
       inkscape:vp_z="744.09448 : 526.18109 : 1"
       inkscape:persp3d-origin="372.04724 : 350.78739 : 1"
       id="perspective10" />
    <inkscape:perspective
       id="perspective2824"
       inkscape:persp3d-origin="0.5 : 0.33333333 : 1"
       inkscape:vp_z="1 : 0.5 : 1"
       inkscape:vp_y="0 : 1000 : 0"
       inkscape:vp_x="0 : 0.5 : 1"
       sodipodi:type="inkscape:persp3d" />
    <inkscape:perspective
       id="perspective5878"
       inkscape:persp3d-origin="0.5 : 0.33333333 : 1"
       inkscape:vp_z="1 : 0.5 : 1"
       inkscape:vp_y="0 : 1000 : 0"
       inkscape:vp_x="0 : 0.5 : 1"
       sodipodi:type="inkscape:persp3d" />
    <inkscape:perspective
       id="perspective5921"
       inkscape:persp3d-origin="0.5 : 0.33333333 : 1"
       inkscape:vp_z="1 : 0.5 : 1"
       inkscape:vp_y="0 : 1000 : 0"
       inkscape:vp_x="0 : 0.5 : 1"
       sodipodi:type="inkscape:persp3d" />
    <inkscape:perspective
       id="perspective5943"
       inkscape:persp3d-origin="0.5 : 0.33333333 : 1"
       inkscape:vp_z="1 : 0.5 : 1"
       inkscape:vp_y="0 : 1000 : 0"
       inkscape:vp_x="0 : 0.5 : 1"
       sodipodi:type="inkscape:persp3d" />
    <inkscape:perspective
       id="perspective5989"
       inkscape:persp3d-origin="0.5 : 0.33333333 : 1"
       inkscape:vp_z="1 : 0.5 : 1"
       inkscape:vp_y="0 : 1000 : 0"
       inkscape:vp_x="0 : 0.5 : 1"
       sodipodi:type="inkscape:persp3d" />
    <inkscape:perspective
       id="perspective6011"
       inkscape:persp3d-origin="0.5 : 0.33333333 : 1"
       inkscape:vp_z="1 : 0.5 : 1"
       inkscape:vp_y="0 : 1000 : 0"
       inkscape:vp_x="0 : 0.5 : 1"
       sodipodi:type="inkscape:persp3d" />
    <inkscape:perspective
       id="perspective6033"
       inkscape:persp3d-origin="0.5 : 0.33333333 : 1"
       inkscape:vp_z="1 : 0.5 : 1"
       inkscape:vp_y="0 : 1000 : 0"
       inkscape:vp_x="0 : 0.5 : 1"
       sodipodi:type="inkscape:persp3d" />
    <inkscape:perspective
       id="perspective6245"
       inkscape:persp3d-origin="0.5 : 0.33333333 : 1"
       inkscape:vp_z="1 : 0.5 : 1"
       inkscape:vp_y="0 : 1000 : 0"
       inkscape:vp_x="0 : 0.5 : 1"
       sodipodi:type="inkscape:persp3d" />
    <inkscape:perspective
       id="perspective6269"
       inkscape:persp3d-origin="0.5 : 0.33333333 : 1"
       inkscape:vp_z="1 : 0.5 : 1"
       inkscape:vp_y="0 : 1000 : 0"
       inkscape:vp_x="0 : 0.5 : 1"
       sodipodi:type="inkscape:persp3d" />
    <inkscape:perspective
       id="perspective6364"
       inkscape:persp3d-origin="0.5 : 0.33333333 : 1"
       inkscape:vp_z="1 : 0.5 : 1"
       inkscape:vp_y="0 : 1000 : 0"
       inkscape:vp_x="0 : 0.5 : 1"
       sodipodi:type="inkscape:persp3d" />
    <inkscape:perspective
       id="perspective6396"
       inkscape:persp3d-origin="0.5 : 0.33333333 : 1"
       inkscape:vp_z="1 : 0.5 : 1"
       inkscape:vp_y="0 : 1000 : 0"
       inkscape:vp_x="0 : 0.5 : 1"
       sodipodi:type="inkscape:persp3d" />
    <inkscape:perspective
       id="perspective6438"
       inkscape:persp3d-origin="0.5 : 0.33333333 : 1"
       inkscape:vp_z="1 : 0.5 : 1"
       inkscape:vp_y="0 : 1000 : 0"
       inkscape:vp_x="0 : 0.5 : 1"
       sodipodi:type="inkscape:persp3d" />
    <inkscape:perspective
       id="perspective6460"
       inkscape:persp3d-origin="0.5 : 0.33333333 : 1"
       inkscape:vp_z="1 : 0.5 : 1"
       inkscape:vp_y="0 : 1000 : 0"
       inkscape:vp_x="0 : 0.5 : 1"
       sodipodi:type="inkscape:persp3d" />
    <inkscape:perspective
       id="perspective6480"
       inkscape:persp3d-origin="0.5 : 0.33333333 : 1"
       inkscape:vp_z="1 : 0.5 : 1"
       inkscape:vp_y="0 : 1000 : 0"
       inkscape:vp_x="0 : 0.5 : 1"
       sodipodi:type="inkscape:persp3d" />
    <inkscape:perspective
       id="perspective6504"
       inkscape:persp3d-origin="0.5 : 0.33333333 : 1"
       inkscape:vp_z="1 : 0.5 : 1"
       inkscape:vp_y="0 : 1000 : 0"
       inkscape:vp_x="0 : 0.5 : 1"
       sodipodi:type="inkscape:persp3d" />
    <inkscape:perspective
       id="perspective6524"
       inkscape:persp3d-origin="0.5 : 0.33333333 : 1"
       inkscape:vp_z="1 : 0.5 : 1"
       inkscape:vp_y="0 : 1000 : 0"
       inkscape:vp_x="0 : 0.5 : 1"
       sodipodi:type="inkscape:persp3d" />
    <inkscape:perspective
       id="perspective6548"
       inkscape:persp3d-origin="0.5 : 0.33333333 : 1"
       inkscape:vp_z="1 : 0.5 : 1"
       inkscape:vp_y="0 : 1000 : 0"
       inkscape:vp_x="0 : 0.5 : 1"
       sodipodi:type="inkscape:persp3d" />
    <inkscape:perspective
       id="perspective6572"
       inkscape:persp3d-origin="0.5 : 0.33333333 : 1"
       inkscape:vp_z="1 : 0.5 : 1"
       inkscape:vp_y="0 : 1000 : 0"
       inkscape:vp_x="0 : 0.5 : 1"
       sodipodi:type="inkscape:persp3d" />
    <inkscape:perspective
       id="perspective6594"
       inkscape:persp3d-origin="0.5 : 0.33333333 : 1"
       inkscape:vp_z="1 : 0.5 : 1"
       inkscape:vp_y="0 : 1000 : 0"
       inkscape:vp_x="0 : 0.5 : 1"
       sodipodi:type="inkscape:persp3d" />
    <inkscape:perspective
       id="perspective6614"
       inkscape:persp3d-origin="0.5 : 0.33333333 : 1"
       inkscape:vp_z="1 : 0.5 : 1"
       inkscape:vp_y="0 : 1000 : 0"
       inkscape:vp_x="0 : 0.5 : 1"
       sodipodi:type="inkscape:persp3d" />
    <inkscape:perspective
       id="perspective6650"
       inkscape:persp3d-origin="0.5 : 0.33333333 : 1"
       inkscape:vp_z="1 : 0.5 : 1"
       inkscape:vp_y="0 : 1000 : 0"
       inkscape:vp_x="0 : 0.5 : 1"
       sodipodi:type="inkscape:persp3d" />
    <inkscape:perspective
       id="perspective6676"
       inkscape:persp3d-origin="0.5 : 0.33333333 : 1"
       inkscape:vp_z="1 : 0.5 : 1"
       inkscape:vp_y="0 : 1000 : 0"
       inkscape:vp_x="0 : 0.5 : 1"
       sodipodi:type="inkscape:persp3d" />
    <inkscape:perspective
       id="perspective6710"
       inkscape:persp3d-origin="0.5 : 0.33333333 : 1"
       inkscape:vp_z="1 : 0.5 : 1"
       inkscape:vp_y="0 : 1000 : 0"
       inkscape:vp_x="0 : 0.5 : 1"
       sodipodi:type="inkscape:persp3d" />
    <inkscape:perspective
       id="perspective6748"
       inkscape:persp3d-origin="0.5 : 0.33333333 : 1"
       inkscape:vp_z="1 : 0.5 : 1"
       inkscape:vp_y="0 : 1000 : 0"
       inkscape:vp_x="0 : 0.5 : 1"
       sodipodi:type="inkscape:persp3d" />
    <inkscape:perspective
       id="perspective6786"
       inkscape:persp3d-origin="0.5 : 0.33333333 : 1"
       inkscape:vp_z="1 : 0.5 : 1"
       inkscape:vp_y="0 : 1000 : 0"
       inkscape:vp_x="0 : 0.5 : 1"
       sodipodi:type="inkscape:persp3d" />
    <inkscape:perspective
       id="perspective6810"
       inkscape:persp3d-origin="0.5 : 0.33333333 : 1"
       inkscape:vp_z="1 : 0.5 : 1"
       inkscape:vp_y="0 : 1000 : 0"
       inkscape:vp_x="0 : 0.5 : 1"
       sodipodi:type="inkscape:persp3d" />
    <inkscape:perspective
       id="perspective6848"
       inkscape:persp3d-origin="0.5 : 0.33333333 : 1"
       inkscape:vp_z="1 : 0.5 : 1"
       inkscape:vp_y="0 : 1000 : 0"
       inkscape:vp_x="0 : 0.5 : 1"
       sodipodi:type="inkscape:persp3d" />
    <inkscape:perspective
       id="perspective6870"
       inkscape:persp3d-origin="0.5 : 0.33333333 : 1"
       inkscape:vp_z="1 : 0.5 : 1"
       inkscape:vp_y="0 : 1000 : 0"
       inkscape:vp_x="0 : 0.5 : 1"
       sodipodi:type="inkscape:persp3d" />
    <inkscape:perspective
       id="perspective6908"
       inkscape:persp3d-origin="0.5 : 0.33333333 : 1"
       inkscape:vp_z="1 : 0.5 : 1"
       inkscape:vp_y="0 : 1000 : 0"
       inkscape:vp_x="0 : 0.5 : 1"
       sodipodi:type="inkscape:persp3d" />
    <inkscape:perspective
       id="perspective6946"
       inkscape:persp3d-origin="0.5 : 0.33333333 : 1"
       inkscape:vp_z="1 : 0.5 : 1"
       inkscape:vp_y="0 : 1000 : 0"
       inkscape:vp_x="0 : 0.5 : 1"
       sodipodi:type="inkscape:persp3d" />
    <inkscape:perspective
       id="perspective6970"
       inkscape:persp3d-origin="0.5 : 0.33333333 : 1"
       inkscape:vp_z="1 : 0.5 : 1"
       inkscape:vp_y="0 : 1000 : 0"
       inkscape:vp_x="0 : 0.5 : 1"
       sodipodi:type="inkscape:persp3d" />
    <inkscape:perspective
       id="perspective7008"
       inkscape:persp3d-origin="0.5 : 0.33333333 : 1"
       inkscape:vp_z="1 : 0.5 : 1"
       inkscape:vp_y="0 : 1000 : 0"
       inkscape:vp_x="0 : 0.5 : 1"
       sodipodi:type="inkscape:persp3d" />
    <inkscape:perspective
       id="perspective7036"
       inkscape:persp3d-origin="0.5 : 0.33333333 : 1"
       inkscape:vp_z="1 : 0.5 : 1"
       inkscape:vp_y="0 : 1000 : 0"
       inkscape:vp_x="0 : 0.5 : 1"
       sodipodi:type="inkscape:persp3d" />
    <inkscape:perspective
       id="perspective7060"
       inkscape:persp3d-origin="0.5 : 0.33333333 : 1"
       inkscape:vp_z="1 : 0.5 : 1"
       inkscape:vp_y="0 : 1000 : 0"
       inkscape:vp_x="0 : 0.5 : 1"
       sodipodi:type="inkscape:persp3d" />
    <inkscape:perspective
       id="perspective7098"
       inkscape:persp3d-origin="0.5 : 0.33333333 : 1"
       inkscape:vp_z="1 : 0.5 : 1"
       inkscape:vp_y="0 : 1000 : 0"
       inkscape:vp_x="0 : 0.5 : 1"
       sodipodi:type="inkscape:persp3d" />
    <inkscape:perspective
       id="perspective7136"
       inkscape:persp3d-origin="0.5 : 0.33333333 : 1"
       inkscape:vp_z="1 : 0.5 : 1"
       inkscape:vp_y="0 : 1000 : 0"
       inkscape:vp_x="0 : 0.5 : 1"
       sodipodi:type="inkscape:persp3d" />
    <inkscape:perspective
       id="perspective7174"
       inkscape:persp3d-origin="0.5 : 0.33333333 : 1"
       inkscape:vp_z="1 : 0.5 : 1"
       inkscape:vp_y="0 : 1000 : 0"
       inkscape:vp_x="0 : 0.5 : 1"
       sodipodi:type="inkscape:persp3d" />
    <inkscape:perspective
       id="perspective7212"
       inkscape:persp3d-origin="0.5 : 0.33333333 : 1"
       inkscape:vp_z="1 : 0.5 : 1"
       inkscape:vp_y="0 : 1000 : 0"
       inkscape:vp_x="0 : 0.5 : 1"
       sodipodi:type="inkscape:persp3d" />
    <inkscape:perspective
       id="perspective7234"
       inkscape:persp3d-origin="0.5 : 0.33333333 : 1"
       inkscape:vp_z="1 : 0.5 : 1"
       inkscape:vp_y="0 : 1000 : 0"
       inkscape:vp_x="0 : 0.5 : 1"
       sodipodi:type="inkscape:persp3d" />
    <inkscape:perspective
       id="perspective7272"
       inkscape:persp3d-origin="0.5 : 0.33333333 : 1"
       inkscape:vp_z="1 : 0.5 : 1"
       inkscape:vp_y="0 : 1000 : 0"
       inkscape:vp_x="0 : 0.5 : 1"
       sodipodi:type="inkscape:persp3d" />
    <inkscape:perspective
       id="perspective7294"
       inkscape:persp3d-origin="0.5 : 0.33333333 : 1"
       inkscape:vp_z="1 : 0.5 : 1"
       inkscape:vp_y="0 : 1000 : 0"
       inkscape:vp_x="0 : 0.5 : 1"
       sodipodi:type="inkscape:persp3d" />
    <inkscape:perspective
       id="perspective7330"
       inkscape:persp3d-origin="0.5 : 0.33333333 : 1"
       inkscape:vp_z="1 : 0.5 : 1"
       inkscape:vp_y="0 : 1000 : 0"
       inkscape:vp_x="0 : 0.5 : 1"
       sodipodi:type="inkscape:persp3d" />
    <inkscape:perspective
       id="perspective3068"
       inkscape:persp3d-origin="0.5 : 0.33333333 : 1"
       inkscape:vp_z="1 : 0.5 : 1"
       inkscape:vp_y="0 : 1000 : 0"
       inkscape:vp_x="0 : 0.5 : 1"
       sodipodi:type="inkscape:persp3d" />
    <inkscape:perspective
       id="perspective3106"
       inkscape:persp3d-origin="0.5 : 0.33333333 : 1"
       inkscape:vp_z="1 : 0.5 : 1"
       inkscape:vp_y="0 : 1000 : 0"
       inkscape:vp_x="0 : 0.5 : 1"
       sodipodi:type="inkscape:persp3d" />
    <inkscape:perspective
       id="perspective3128"
       inkscape:persp3d-origin="0.5 : 0.33333333 : 1"
       inkscape:vp_z="1 : 0.5 : 1"
       inkscape:vp_y="0 : 1000 : 0"
       inkscape:vp_x="0 : 0.5 : 1"
       sodipodi:type="inkscape:persp3d" />
    <inkscape:perspective
       id="perspective3152"
       inkscape:persp3d-origin="0.5 : 0.33333333 : 1"
       inkscape:vp_z="1 : 0.5 : 1"
       inkscape:vp_y="0 : 1000 : 0"
       inkscape:vp_x="0 : 0.5 : 1"
       sodipodi:type="inkscape:persp3d" />
    <inkscape:perspective
       id="perspective3174"
       inkscape:persp3d-origin="0.5 : 0.33333333 : 1"
       inkscape:vp_z="1 : 0.5 : 1"
       inkscape:vp_y="0 : 1000 : 0"
       inkscape:vp_x="0 : 0.5 : 1"
       sodipodi:type="inkscape:persp3d" />
    <inkscape:perspective
       id="perspective3212"
       inkscape:persp3d-origin="0.5 : 0.33333333 : 1"
       inkscape:vp_z="1 : 0.5 : 1"
       inkscape:vp_y="0 : 1000 : 0"
       inkscape:vp_x="0 : 0.5 : 1"
       sodipodi:type="inkscape:persp3d" />
    <inkscape:perspective
       id="perspective3238"
       inkscape:persp3d-origin="0.5 : 0.33333333 : 1"
       inkscape:vp_z="1 : 0.5 : 1"
       inkscape:vp_y="0 : 1000 : 0"
       inkscape:vp_x="0 : 0.5 : 1"
       sodipodi:type="inkscape:persp3d" />
    <inkscape:perspective
       id="perspective3276"
       inkscape:persp3d-origin="0.5 : 0.33333333 : 1"
       inkscape:vp_z="1 : 0.5 : 1"
       inkscape:vp_y="0 : 1000 : 0"
       inkscape:vp_x="0 : 0.5 : 1"
       sodipodi:type="inkscape:persp3d" />
    <inkscape:perspective
       id="perspective3314"
       inkscape:persp3d-origin="0.5 : 0.33333333 : 1"
       inkscape:vp_z="1 : 0.5 : 1"
       inkscape:vp_y="0 : 1000 : 0"
       inkscape:vp_x="0 : 0.5 : 1"
       sodipodi:type="inkscape:persp3d" />
    <inkscape:perspective
       id="perspective3350"
       inkscape:persp3d-origin="0.5 : 0.33333333 : 1"
       inkscape:vp_z="1 : 0.5 : 1"
       inkscape:vp_y="0 : 1000 : 0"
       inkscape:vp_x="0 : 0.5 : 1"
       sodipodi:type="inkscape:persp3d" />
    <inkscape:perspective
       id="perspective3376"
       inkscape:persp3d-origin="0.5 : 0.33333333 : 1"
       inkscape:vp_z="1 : 0.5 : 1"
       inkscape:vp_y="0 : 1000 : 0"
       inkscape:vp_x="0 : 0.5 : 1"
       sodipodi:type="inkscape:persp3d" />
    <inkscape:perspective
       id="perspective3402"
       inkscape:persp3d-origin="0.5 : 0.33333333 : 1"
       inkscape:vp_z="1 : 0.5 : 1"
       inkscape:vp_y="0 : 1000 : 0"
       inkscape:vp_x="0 : 0.5 : 1"
       sodipodi:type="inkscape:persp3d" />
    <inkscape:perspective
       id="perspective3428"
       inkscape:persp3d-origin="0.5 : 0.33333333 : 1"
       inkscape:vp_z="1 : 0.5 : 1"
       inkscape:vp_y="0 : 1000 : 0"
       inkscape:vp_x="0 : 0.5 : 1"
       sodipodi:type="inkscape:persp3d" />
    <inkscape:perspective
       id="perspective3466"
       inkscape:persp3d-origin="0.5 : 0.33333333 : 1"
       inkscape:vp_z="1 : 0.5 : 1"
       inkscape:vp_y="0 : 1000 : 0"
       inkscape:vp_x="0 : 0.5 : 1"
       sodipodi:type="inkscape:persp3d" />
    <inkscape:perspective
       id="perspective3504"
       inkscape:persp3d-origin="0.5 : 0.33333333 : 1"
       inkscape:vp_z="1 : 0.5 : 1"
       inkscape:vp_y="0 : 1000 : 0"
       inkscape:vp_x="0 : 0.5 : 1"
       sodipodi:type="inkscape:persp3d" />
    <inkscape:perspective
       id="perspective3542"
       inkscape:persp3d-origin="0.5 : 0.33333333 : 1"
       inkscape:vp_z="1 : 0.5 : 1"
       inkscape:vp_y="0 : 1000 : 0"
       inkscape:vp_x="0 : 0.5 : 1"
       sodipodi:type="inkscape:persp3d" />
    <inkscape:perspective
       id="perspective3566"
       inkscape:persp3d-origin="0.5 : 0.33333333 : 1"
       inkscape:vp_z="1 : 0.5 : 1"
       inkscape:vp_y="0 : 1000 : 0"
       inkscape:vp_x="0 : 0.5 : 1"
       sodipodi:type="inkscape:persp3d" />
    <inkscape:perspective
       id="perspective3590"
       inkscape:persp3d-origin="0.5 : 0.33333333 : 1"
       inkscape:vp_z="1 : 0.5 : 1"
       inkscape:vp_y="0 : 1000 : 0"
       inkscape:vp_x="0 : 0.5 : 1"
       sodipodi:type="inkscape:persp3d" />
    <inkscape:perspective
       id="perspective3610"
       inkscape:persp3d-origin="0.5 : 0.33333333 : 1"
       inkscape:vp_z="1 : 0.5 : 1"
       inkscape:vp_y="0 : 1000 : 0"
       inkscape:vp_x="0 : 0.5 : 1"
       sodipodi:type="inkscape:persp3d" />
    <inkscape:perspective
       id="perspective3648"
       inkscape:persp3d-origin="0.5 : 0.33333333 : 1"
       inkscape:vp_z="1 : 0.5 : 1"
       inkscape:vp_y="0 : 1000 : 0"
       inkscape:vp_x="0 : 0.5 : 1"
       sodipodi:type="inkscape:persp3d" />
    <inkscape:perspective
       id="perspective3668"
       inkscape:persp3d-origin="0.5 : 0.33333333 : 1"
       inkscape:vp_z="1 : 0.5 : 1"
       inkscape:vp_y="0 : 1000 : 0"
       inkscape:vp_x="0 : 0.5 : 1"
       sodipodi:type="inkscape:persp3d" />
    <inkscape:perspective
       id="perspective3706"
       inkscape:persp3d-origin="0.5 : 0.33333333 : 1"
       inkscape:vp_z="1 : 0.5 : 1"
       inkscape:vp_y="0 : 1000 : 0"
       inkscape:vp_x="0 : 0.5 : 1"
       sodipodi:type="inkscape:persp3d" />
    <inkscape:perspective
       id="perspective3744"
       inkscape:persp3d-origin="0.5 : 0.33333333 : 1"
       inkscape:vp_z="1 : 0.5 : 1"
       inkscape:vp_y="0 : 1000 : 0"
       inkscape:vp_x="0 : 0.5 : 1"
       sodipodi:type="inkscape:persp3d" />
    <inkscape:perspective
       id="perspective3770"
       inkscape:persp3d-origin="0.5 : 0.33333333 : 1"
       inkscape:vp_z="1 : 0.5 : 1"
       inkscape:vp_y="0 : 1000 : 0"
       inkscape:vp_x="0 : 0.5 : 1"
       sodipodi:type="inkscape:persp3d" />
    <inkscape:perspective
       id="perspective3804"
       inkscape:persp3d-origin="0.5 : 0.33333333 : 1"
       inkscape:vp_z="1 : 0.5 : 1"
       inkscape:vp_y="0 : 1000 : 0"
       inkscape:vp_x="0 : 0.5 : 1"
       sodipodi:type="inkscape:persp3d" />
    <inkscape:perspective
       id="perspective3828"
       inkscape:persp3d-origin="0.5 : 0.33333333 : 1"
       inkscape:vp_z="1 : 0.5 : 1"
       inkscape:vp_y="0 : 1000 : 0"
       inkscape:vp_x="0 : 0.5 : 1"
       sodipodi:type="inkscape:persp3d" />
    <inkscape:perspective
       id="perspective3852"
       inkscape:persp3d-origin="0.5 : 0.33333333 : 1"
       inkscape:vp_z="1 : 0.5 : 1"
       inkscape:vp_y="0 : 1000 : 0"
       inkscape:vp_x="0 : 0.5 : 1"
       sodipodi:type="inkscape:persp3d" />
    <inkscape:perspective
       id="perspective3876"
       inkscape:persp3d-origin="0.5 : 0.33333333 : 1"
       inkscape:vp_z="1 : 0.5 : 1"
       inkscape:vp_y="0 : 1000 : 0"
       inkscape:vp_x="0 : 0.5 : 1"
       sodipodi:type="inkscape:persp3d" />
    <inkscape:perspective
       id="perspective3900"
       inkscape:persp3d-origin="0.5 : 0.33333333 : 1"
       inkscape:vp_z="1 : 0.5 : 1"
       inkscape:vp_y="0 : 1000 : 0"
       inkscape:vp_x="0 : 0.5 : 1"
       sodipodi:type="inkscape:persp3d" />
    <inkscape:perspective
       id="perspective3924"
       inkscape:persp3d-origin="0.5 : 0.33333333 : 1"
       inkscape:vp_z="1 : 0.5 : 1"
       inkscape:vp_y="0 : 1000 : 0"
       inkscape:vp_x="0 : 0.5 : 1"
       sodipodi:type="inkscape:persp3d" />
    <inkscape:perspective
       id="perspective3948"
       inkscape:persp3d-origin="0.5 : 0.33333333 : 1"
       inkscape:vp_z="1 : 0.5 : 1"
       inkscape:vp_y="0 : 1000 : 0"
       inkscape:vp_x="0 : 0.5 : 1"
       sodipodi:type="inkscape:persp3d" />
    <inkscape:perspective
       id="perspective3986"
       inkscape:persp3d-origin="0.5 : 0.33333333 : 1"
       inkscape:vp_z="1 : 0.5 : 1"
       inkscape:vp_y="0 : 1000 : 0"
       inkscape:vp_x="0 : 0.5 : 1"
       sodipodi:type="inkscape:persp3d" />
    <inkscape:perspective
       id="perspective4024"
       inkscape:persp3d-origin="0.5 : 0.33333333 : 1"
       inkscape:vp_z="1 : 0.5 : 1"
       inkscape:vp_y="0 : 1000 : 0"
       inkscape:vp_x="0 : 0.5 : 1"
       sodipodi:type="inkscape:persp3d" />
    <inkscape:perspective
       id="perspective4062"
       inkscape:persp3d-origin="0.5 : 0.33333333 : 1"
       inkscape:vp_z="1 : 0.5 : 1"
       inkscape:vp_y="0 : 1000 : 0"
       inkscape:vp_x="0 : 0.5 : 1"
       sodipodi:type="inkscape:persp3d" />
    <inkscape:perspective
       id="perspective4100"
       inkscape:persp3d-origin="0.5 : 0.33333333 : 1"
       inkscape:vp_z="1 : 0.5 : 1"
       inkscape:vp_y="0 : 1000 : 0"
       inkscape:vp_x="0 : 0.5 : 1"
       sodipodi:type="inkscape:persp3d" />
    <inkscape:perspective
       id="perspective4126"
       inkscape:persp3d-origin="0.5 : 0.33333333 : 1"
       inkscape:vp_z="1 : 0.5 : 1"
       inkscape:vp_y="0 : 1000 : 0"
       inkscape:vp_x="0 : 0.5 : 1"
       sodipodi:type="inkscape:persp3d" />
    <inkscape:perspective
       id="perspective4164"
       inkscape:persp3d-origin="0.5 : 0.33333333 : 1"
       inkscape:vp_z="1 : 0.5 : 1"
       inkscape:vp_y="0 : 1000 : 0"
       inkscape:vp_x="0 : 0.5 : 1"
       sodipodi:type="inkscape:persp3d" />
    <inkscape:perspective
       id="perspective4184"
       inkscape:persp3d-origin="0.5 : 0.33333333 : 1"
       inkscape:vp_z="1 : 0.5 : 1"
       inkscape:vp_y="0 : 1000 : 0"
       inkscape:vp_x="0 : 0.5 : 1"
       sodipodi:type="inkscape:persp3d" />
    <inkscape:perspective
       id="perspective4206"
       inkscape:persp3d-origin="0.5 : 0.33333333 : 1"
       inkscape:vp_z="1 : 0.5 : 1"
       inkscape:vp_y="0 : 1000 : 0"
       inkscape:vp_x="0 : 0.5 : 1"
       sodipodi:type="inkscape:persp3d" />
    <inkscape:perspective
       id="perspective4228"
       inkscape:persp3d-origin="0.5 : 0.33333333 : 1"
       inkscape:vp_z="1 : 0.5 : 1"
       inkscape:vp_y="0 : 1000 : 0"
       inkscape:vp_x="0 : 0.5 : 1"
       sodipodi:type="inkscape:persp3d" />
    <inkscape:perspective
       id="perspective4266"
       inkscape:persp3d-origin="0.5 : 0.33333333 : 1"
       inkscape:vp_z="1 : 0.5 : 1"
       inkscape:vp_y="0 : 1000 : 0"
       inkscape:vp_x="0 : 0.5 : 1"
       sodipodi:type="inkscape:persp3d" />
    <inkscape:perspective
       id="perspective4304"
       inkscape:persp3d-origin="0.5 : 0.33333333 : 1"
       inkscape:vp_z="1 : 0.5 : 1"
       inkscape:vp_y="0 : 1000 : 0"
       inkscape:vp_x="0 : 0.5 : 1"
       sodipodi:type="inkscape:persp3d" />
    <inkscape:perspective
       id="perspective4342"
       inkscape:persp3d-origin="0.5 : 0.33333333 : 1"
       inkscape:vp_z="1 : 0.5 : 1"
       inkscape:vp_y="0 : 1000 : 0"
       inkscape:vp_x="0 : 0.5 : 1"
       sodipodi:type="inkscape:persp3d" />
    <inkscape:perspective
       id="perspective4380"
       inkscape:persp3d-origin="0.5 : 0.33333333 : 1"
       inkscape:vp_z="1 : 0.5 : 1"
       inkscape:vp_y="0 : 1000 : 0"
       inkscape:vp_x="0 : 0.5 : 1"
       sodipodi:type="inkscape:persp3d" />
    <inkscape:perspective
       id="perspective4402"
       inkscape:persp3d-origin="0.5 : 0.33333333 : 1"
       inkscape:vp_z="1 : 0.5 : 1"
       inkscape:vp_y="0 : 1000 : 0"
       inkscape:vp_x="0 : 0.5 : 1"
       sodipodi:type="inkscape:persp3d" />
    <inkscape:perspective
       id="perspective4440"
       inkscape:persp3d-origin="0.5 : 0.33333333 : 1"
       inkscape:vp_z="1 : 0.5 : 1"
       inkscape:vp_y="0 : 1000 : 0"
       inkscape:vp_x="0 : 0.5 : 1"
       sodipodi:type="inkscape:persp3d" />
    <inkscape:perspective
       id="perspective4466"
       inkscape:persp3d-origin="0.5 : 0.33333333 : 1"
       inkscape:vp_z="1 : 0.5 : 1"
       inkscape:vp_y="0 : 1000 : 0"
       inkscape:vp_x="0 : 0.5 : 1"
       sodipodi:type="inkscape:persp3d" />
    <inkscape:perspective
       id="perspective4504"
       inkscape:persp3d-origin="0.5 : 0.33333333 : 1"
       inkscape:vp_z="1 : 0.5 : 1"
       inkscape:vp_y="0 : 1000 : 0"
       inkscape:vp_x="0 : 0.5 : 1"
       sodipodi:type="inkscape:persp3d" />
    <inkscape:perspective
       id="perspective4530"
       inkscape:persp3d-origin="0.5 : 0.33333333 : 1"
       inkscape:vp_z="1 : 0.5 : 1"
       inkscape:vp_y="0 : 1000 : 0"
       inkscape:vp_x="0 : 0.5 : 1"
       sodipodi:type="inkscape:persp3d" />
    <inkscape:perspective
       id="perspective4566"
       inkscape:persp3d-origin="0.5 : 0.33333333 : 1"
       inkscape:vp_z="1 : 0.5 : 1"
       inkscape:vp_y="0 : 1000 : 0"
       inkscape:vp_x="0 : 0.5 : 1"
       sodipodi:type="inkscape:persp3d" />
    <inkscape:perspective
       id="perspective4588"
       inkscape:persp3d-origin="0.5 : 0.33333333 : 1"
       inkscape:vp_z="1 : 0.5 : 1"
       inkscape:vp_y="0 : 1000 : 0"
       inkscape:vp_x="0 : 0.5 : 1"
       sodipodi:type="inkscape:persp3d" />
    <inkscape:perspective
       id="perspective4626"
       inkscape:persp3d-origin="0.5 : 0.33333333 : 1"
       inkscape:vp_z="1 : 0.5 : 1"
       inkscape:vp_y="0 : 1000 : 0"
       inkscape:vp_x="0 : 0.5 : 1"
       sodipodi:type="inkscape:persp3d" />
    <inkscape:perspective
       id="perspective4642"
       inkscape:persp3d-origin="0.5 : 0.33333333 : 1"
       inkscape:vp_z="1 : 0.5 : 1"
       inkscape:vp_y="0 : 1000 : 0"
       inkscape:vp_x="0 : 0.5 : 1"
       sodipodi:type="inkscape:persp3d" />
    <inkscape:perspective
       id="perspective4666"
       inkscape:persp3d-origin="0.5 : 0.33333333 : 1"
       inkscape:vp_z="1 : 0.5 : 1"
       inkscape:vp_y="0 : 1000 : 0"
       inkscape:vp_x="0 : 0.5 : 1"
       sodipodi:type="inkscape:persp3d" />
    <inkscape:perspective
       id="perspective2936"
       inkscape:persp3d-origin="0.5 : 0.33333333 : 1"
       inkscape:vp_z="1 : 0.5 : 1"
       inkscape:vp_y="0 : 1000 : 0"
       inkscape:vp_x="0 : 0.5 : 1"
       sodipodi:type="inkscape:persp3d" />
    <inkscape:perspective
       id="perspective2974"
       inkscape:persp3d-origin="0.5 : 0.33333333 : 1"
       inkscape:vp_z="1 : 0.5 : 1"
       inkscape:vp_y="0 : 1000 : 0"
       inkscape:vp_x="0 : 0.5 : 1"
       sodipodi:type="inkscape:persp3d" />
    <inkscape:perspective
       id="perspective3010"
       inkscape:persp3d-origin="0.5 : 0.33333333 : 1"
       inkscape:vp_z="1 : 0.5 : 1"
       inkscape:vp_y="0 : 1000 : 0"
       inkscape:vp_x="0 : 0.5 : 1"
       sodipodi:type="inkscape:persp3d" />
    <inkscape:perspective
       id="perspective3048"
       inkscape:persp3d-origin="0.5 : 0.33333333 : 1"
       inkscape:vp_z="1 : 0.5 : 1"
       inkscape:vp_y="0 : 1000 : 0"
       inkscape:vp_x="0 : 0.5 : 1"
       sodipodi:type="inkscape:persp3d" />
  </defs>
  <sodipodi:namedview
     id="base"
     pagecolor="#ffffff"
     bordercolor="#666666"
     borderopacity="1.0"
     inkscape:pageopacity="0.0"
     inkscape:pageshadow="2"
     inkscape:zoom="11.313709"
     inkscape:cx="11.966503"
     inkscape:cy="4.3194831"
     inkscape:document-units="px"
     inkscape:current-layer="layer1"
     showgrid="true"
     inkscape:window-width="1280"
     inkscape:window-height="780"
     inkscape:window-x="-8"
     inkscape:window-y="-8"
     inkscape:window-maximized="1">
    <inkscape:grid
       type="xygrid"
       id="grid6324"
       empspacing="5"
       visible="true"
       enabled="true"
       snapvisiblegridlinesonly="true" />
  </sodipodi:namedview>
  <metadata
     id="metadata7">
    <rdf:RDF>
      <cc:Work
         rdf:about="">
        <dc:format>image/svg+xml</dc:format>
        <dc:type
           rdf:resource="http://purl.org/dc/dcmitype/StillImage" />
        <dc:title></dc:title>
      </cc:Work>
    </rdf:RDF>
  </metadata>
  <g
     inkscape:label="Calque 1"
     inkscape:groupmode="layer"
     id="layer1"
     transform="translate(0,-1036.3622)">
    <g
       id="g3054"
       transform="translate(0.5115275,1.0828)">
      <path
         style="fill:#fefaef"
         d="m 7.9346323,1047.9375 -1.1697515,0.037 -0.6578189,-0.3068 -0.6578189,-0.3068 -0.4900533,-0.4901 -0.4900533,-0.49 -0.3196345,-0.6982 -0.3196344,-0.6982 0.046404,-0.9934 0.046404,-0.9934 0.301102,-0.5817 0.301102,-0.5817 0.459807,-0.4767 0.4598071,-0.4768 0.6533978,-0.281 0.6533978,-0.2811 0.7177375,-0.064 0.7177375,-0.064 0.7426989,0.2169 0.7426989,0.217 0.694465,0.6347 0.694464,0.6347 0.303041,0.6812 0.303041,0.6812 0.0013,0.9049 0.0013,0.9048 -0.293964,0.6463 -0.293964,0.6463 -0.413481,0.4311 c -0.227415,0.2371 -0.6723606,0.584 -0.9887692,0.7708 l -0.5752881,0.3396 -1.1697516,0.037 z m -0.2315237,-0.5079 0.4147311,0.032 0.7382987,-0.2595 0.7382988,-0.2595 0.4385348,-0.421 0.438536,-0.421 0.258239,-0.5012 0.258239,-0.5013 0.07029,-0.681 0.07029,-0.6811 -0.208804,-0.6128 -0.208805,-0.6128 -0.329329,-0.4318 -0.329329,-0.4318 -0.5772494,-0.3383 -0.5772492,-0.3383 -0.7725104,-0.07 -0.7725104,-0.07 -0.6130515,0.1717 -0.6130513,0.1716 -0.6715555,0.6539 -0.6715556,0.654 -0.2155789,0.748 -0.2155788,0.748 0.08878,0.5446 0.08878,0.5446 0.3385674,0.6295 0.3385674,0.6296 0.4340726,0.3311 0.4340725,0.331 0.6065611,0.2054 c 0.3336087,0.1129 0.7931902,0.2195 1.0212923,0.2369 z m -2.3281873,-1.935 -0.2265998,0.043 -0.06939,-0.1808 c -0.038165,-0.1 -0.052531,-0.7291 -0.031925,-1.3991 l 0.037466,-1.2183 0.7034042,0.02 0.7034042,0.02 0.1691157,0.2313 0.1691156,0.2313 0,0.3206 0,0.3206 -0.2032906,0.2246 -0.2032907,0.2246 0.2126433,0.4113 0.2126433,0.4112 -0.069927,0.1822 -0.069927,0.1822 -0.2518903,0 -0.2518902,0 -0.2368999,-0.614 -0.2368999,-0.614 -0.064631,0.5805 -0.064631,0.5806 -0.2265997,0.043 z m 0.4046655,-1.5272 c 0.062389,0 0.1837328,-0.085 0.2696526,-0.1883 l 0.1562179,-0.1882 -0.083388,-0.1349 c -0.045863,-0.074 -0.1672069,-0.1349 -0.2696525,-0.1349 l -0.1862647,0 0,0.3231 0,0.3232 0.1134347,0 z m 2.1148929,1.5256 -0.680072,0.039 -0.068336,-0.1781 c -0.037585,-0.098 -0.051476,-0.7263 -0.03087,-1.3963 l 0.037465,-1.2183 0.6463111,0 0.646311,0 0,0.2585 0,0.2585 -0.4201022,0.041 -0.4201022,0.04 0,0.2422 0,0.2421 0.4201022,0.041 0.4201022,0.041 0,0.1939 0,0.1939 -0.4201022,0.04 -0.4201022,0.041 0,0.2426 0,0.2425 0.4847333,0.04 0.4847333,0.04 0,0.2586 0,0.2585 -0.680072,0.039 z m 1.2290454,0 -0.2265997,0.043 -0.06939,-0.1808 c -0.038165,-0.1 -0.052531,-0.7291 -0.031925,-1.3991 l 0.037465,-1.2183 0.6644921,0 0.6644915,0 0.208028,0.1726 0.208028,0.1727 0,0.3941 0,0.3941 -0.203291,0.2246 -0.203291,0.2246 0.212644,0.4113 0.212643,0.4112 -0.06993,0.1822 -0.06993,0.1822 -0.172192,0 -0.172193,0 -0.3120511,-0.614 -0.3120514,-0.614 -0.069177,0.5805 -0.069177,0.5806 -0.2265998,0.043 z m 0.5174397,-1.5514 0.2262089,-0.043 0.041306,-0.2895 0.041306,-0.2895 -0.2675147,0 -0.2675147,0 0,0.3326 0,0.3326 0.2262088,-0.043 z"
         id="path3076" />
      <path
         style="fill:#a5c9ef"
         d="m 7.6785706,1047.9684 -0.7844276,-0.01 -0.5985596,-0.2341 c -0.3292077,-0.1288 -0.7945516,-0.3838 -1.0340976,-0.5667 l -0.435538,-0.3325 -0.4524177,-0.7472 -0.4524177,-0.7472 9.27e-4,-1.1684 9.269e-4,-1.1684 0.2955116,-0.5552 c 0.1625314,-0.3053 0.4970663,-0.7783 0.743411,-1.0509 l 0.4478993,-0.4958 0.6775002,-0.2915 0.6775001,-0.2914 0.7756194,-0.06 0.7756194,-0.06 0.7690351,0.2903 0.7690352,0.2903 0.6066304,0.5674 0.606631,0.5674 0.299907,0.674 0.299908,0.6739 0.0048,0.9049 0.0048,0.9048 -0.362729,0.7387 -0.362729,0.7386 -0.593301,0.5223 -0.5933009,0.5222 -0.6508931,0.1933 -0.6508939,0.1933 -0.7844275,-0.01 z m 0.064631,-0.5196 c 0.1826053,0 0.6368733,-0.082 1.0094844,-0.1925 l 0.6774746,-0.2012 0.5296301,-0.4775 0.5296303,-0.4774 0.301609,-0.6463 0.301609,-0.6463 -0.0016,-0.711 -0.0016,-0.7109 -0.238681,-0.5255 c -0.131276,-0.289 -0.420415,-0.7325 -0.642532,-0.9855 l -0.4038507,-0.4599 -0.6698401,-0.2882 -0.6698402,-0.2881 -0.8499317,0.052 -0.8499316,0.052 -0.4663234,0.2259 c -0.2564778,0.1243 -0.6581185,0.4124 -0.8925347,0.6401 l -0.4262112,0.4141 -0.2653726,0.5817 -0.2653725,0.5817 3.891e-4,0.7756 3.878e-4,0.7755 0.2995863,0.5817 c 0.1647725,0.3199 0.4238999,0.7181 0.5758388,0.8848 0.151939,0.1667 0.4507566,0.3946 0.6640392,0.5065 0.2132826,0.1118 0.6204586,0.2769 0.9048354,0.3668 0.2843769,0.09 0.6664532,0.1674 0.8490587,0.1722 z m -2.404262,-1.9303 -0.1979502,0 -0.065724,-0.1713 c -0.036148,-0.094 -0.048865,-0.7195 -0.028259,-1.3895 l 0.037466,-1.2183 0.7034042,0.02 0.7034042,0.02 0.1691157,0.2313 0.1691156,0.2313 0,0.3206 0,0.3206 -0.2014081,0.2225 -0.201408,0.2226 0.2005499,0.48 0.2005499,0.48 -0.071402,0.1155 c -0.039271,0.063 -0.1764021,0.1155 -0.304736,0.1155 l -0.2333345,0 -0.2221456,-0.5817 -0.2221456,-0.5816 -0.1185712,0 -0.1185712,0 0,0.5816 0,0.5817 -0.1979502,0 z m 0.4241591,-1.5531 c 0.053321,0 0.1781327,-0.053 0.2773601,-0.1162 l 0.1804136,-0.1143 -0.07941,-0.2069 -0.07941,-0.2069 -0.1979502,0 -0.1979502,0 0,0.3231 0,0.3232 0.096947,0 z m 2.1261113,1.5531 -0.6288242,0 -0.086175,-0.086 -0.086175,-0.086 0,-1.2687 0,-1.2686 0.3075369,-0.077 c 0.1691453,-0.042 0.4745273,-0.058 0.6786266,-0.035 l 0.3710897,0.042 0,0.2585 0,0.2585 -0.4201022,0.041 -0.4201022,0.04 0,0.2422 0,0.2421 0.4201022,0.041 0.4201022,0.041 0,0.1939 0,0.1939 -0.4201022,0.04 -0.4201022,0.041 0,0.2504 0,0.2503 0.3554711,0 c 0.1955091,0 0.4366572,0.053 0.5358845,0.1162 l 0.1804136,0.1142 -0.07941,0.207 -0.07941,0.2069 -0.6288242,0 z m 1.2607181,-0.029 c -0.1101081,0.021 -0.2409861,0 -0.2908399,-0.053 l -0.090643,-0.091 0,-1.2687 0,-1.2686 0.3279112,-0.082 0.327911,-0.082 0.4030269,0.081 c 0.2216647,0.044 0.4812807,0.1456 0.5769237,0.225 l 0.173898,0.1443 0,0.3941 0,0.3941 -0.199437,0.2204 -0.199438,0.2203 0.223996,0.4698 0.223995,0.4697 -0.148342,0.1483 -0.148342,0.1484 -0.195594,-0.1624 c -0.107577,-0.089 -0.2671478,-0.3602 -0.3546014,-0.602 -0.087454,-0.2419 -0.2021448,-0.4397 -0.2548693,-0.4397 l -0.095863,0 -0.039748,0.5482 -0.039748,0.5483 -0.2001967,0.038 z m 0.4428936,-1.5222 c 0.097936,0 0.2483638,-0.085 0.3342836,-0.1883 l 0.1562177,-0.1882 -0.083388,-0.1349 -0.083388,-0.1349 -0.2508957,0 -0.2508957,0 0,0.3231 0,0.3232 0.1780658,0 z"
         id="path3074" />
      <path
         style="fill:#bfdbbf"
         d="m 7.7618139,1047.9703 -0.7384087,0 -0.6886122,-0.2379 -0.688612,-0.2378 -0.517677,-0.5012 c -0.2847224,-0.2757 -0.6626521,-0.7464 -0.8398438,-1.046 l -0.3221668,-0.5449 -0.068437,-0.9417 -0.068437,-0.9417 0.2729892,-0.7212 0.2729892,-0.7211 0.4633614,-0.5414 0.4633613,-0.5413 0.5373867,-0.2437 c 0.2955626,-0.134 0.7976672,-0.3132 1.1157877,-0.3983 l 0.5784011,-0.1547 0.6495898,0.082 0.6495899,0.082 0.6670632,0.3219 0.6670641,0.3219 0.478545,0.5297 0.478545,0.5297 0.258323,0.584 0.258322,0.584 0,0.9295 0,0.9294 -0.365135,0.7457 -0.365136,0.7457 -0.51149,0.4379 -0.5114906,0.4378 -0.6937321,0.2595 -0.693732,0.2596 -0.7384088,0 z m 0.3115101,-0.5723 0.6621322,-0.048 0.5080665,-0.2592 0.5080667,-0.2592 0.4232696,-0.4305 0.42327,-0.4305 0.248518,-0.5422 0.248518,-0.5423 0,-0.7573 0,-0.7573 -0.334565,-0.6714 -0.334565,-0.6714 -0.5106489,-0.4371 -0.5106483,-0.437 -0.7824854,-0.2196 -0.7824855,-0.2196 -0.6667052,0.1567 c -0.366688,0.086 -0.8121252,0.2311 -0.9898608,0.3221 -0.1777355,0.091 -0.5168679,0.3564 -0.7536277,0.5898 l -0.4304722,0.4243 -0.2726269,0.5239 -0.2726268,0.5239 0.00429,0.9049 0.00429,0.9048 0.3520726,0.6099 0.3520726,0.6098 0.4040769,0.34 c 0.2222423,0.187 0.5527758,0.3998 0.7345188,0.4729 0.1817432,0.073 0.504946,0.1811 0.7182287,0.24 l 0.3877866,0.1071 0.6621321,-0.048 z m -2.7176899,-1.9669 -0.181256,0.07 -0.077268,-0.077 -0.077269,-0.077 0,-1.2687 0,-1.2686 0.3231555,-0.081 0.3231555,-0.081 0.3554711,0.089 c 0.1955091,0.049 0.457265,0.1805 0.5816799,0.2926 l 0.2262088,0.2039 0,0.3252 0,0.3253 -0.216486,0.2392 -0.216486,0.2392 0.2130921,0.4469 0.2130921,0.4468 -0.2662013,0.1425 c -0.1464107,0.078 -0.2788727,0.1232 -0.29436,0.1 -0.015487,-0.024 -0.1356757,-0.29 -0.2670852,-0.5922 l -0.2389265,-0.5493 -0.1096305,0 -0.1096307,0 0,0.5032 0,0.5032 -0.1812558,0.07 z m 0.5627391,-1.4929 0.2001966,-0.038 0.03916,-0.2731 0.03916,-0.2732 -0.3299997,-0.063 -0.3299997,-0.063 0,0.2837 c 0,0.1561 0.040789,0.3245 0.090643,0.3744 0.049854,0.05 0.1807319,0.073 0.29084,0.053 z m 1.9607563,1.4553 c -0.3712282,0.038 -0.7010902,0.043 -0.7330268,0.011 -0.031937,-0.032 -0.058066,-0.6289 -0.058066,-1.3267 l 0,-1.2686 0.3075369,-0.077 c 0.1691453,-0.042 0.4745273,-0.058 0.6786266,-0.035 l 0.3710897,0.042 0,0.2585 0,0.2585 -0.4201022,0.041 -0.4201022,0.04 0,0.2504 0,0.2503 0.3662429,0 c 0.2014337,0 0.4010138,0.035 0.4435114,0.077 l 0.077269,0.077 -0.069555,0.1813 -0.069554,0.1813 -0.373957,0 -0.373957,0 0,0.3231 0,0.3232 0.5278207,0 0.5278207,0 -0.053318,0.1615 -0.053318,0.1616 -0.6749603,0.069 z m 1.4386798,0.03 c -0.053321,0.027 -0.1987406,0.026 -0.3231555,0 l -0.2262088,-0.051 0,-1.2027 0,-1.2027 0.1945937,-0.1615 0.1945937,-0.1615 0.5422507,0.087 0.5422509,0.087 0.167991,0.1395 0.167991,0.1394 0,0.3941 0,0.3941 -0.203291,0.2246 -0.203291,0.2246 0.203291,0.3932 c 0.11181,0.2162 0.203291,0.4541 0.203291,0.5288 l 0,0.1357 -0.259571,0 -0.259571,0 -0.2068823,-0.5171 -0.2068818,-0.517 -0.115227,0 -0.1152269,0 0,0.5094 0,0.5094 -0.096947,0.05 z m 0.2750125,-1.4561 c 0.097936,0 0.2483638,-0.085 0.3342836,-0.1883 l 0.1562176,-0.1882 -0.083388,-0.1349 -0.083388,-0.1349 -0.2508957,0 -0.2508957,0 0,0.3231 0,0.3232 0.1780658,0 z"
         id="path3072" />
      <path
         style="fill:#9fbabf"
         d="m 7.7618139,1047.9655 -0.7384087,-0.01 -0.6341142,-0.1947 -0.6341143,-0.1946 -0.7439633,-0.744 -0.7439633,-0.744 -0.2053844,-0.6916 -0.2053844,-0.6916 0,-0.6214 0,-0.6215 0.2490076,-0.6553 0.2490076,-0.6554 0.3429741,-0.4496 0.342974,-0.4497 0.491383,-0.3102 0.4913829,-0.3102 0.743976,-0.2163 0.7439758,-0.2163 0.660957,0.084 0.6609568,0.084 0.6670632,0.3219 0.6670637,0.3219 0.478545,0.5297 0.478545,0.5297 0.258323,0.584 0.258322,0.584 0,0.9295 0,0.9294 -0.365135,0.7457 -0.365136,0.7457 -0.51149,0.4379 -0.5114902,0.4378 -0.6937321,0.2595 -0.693732,0.2596 -0.7384088,-0.01 z m 0.2404154,-0.5558 0.7202997,-0.053 0.5145302,-0.2625 0.5145302,-0.2625 0.4290366,-0.4305 0.429036,-0.4305 0.239913,-0.517 0.239912,-0.5171 0.0016,-0.7755 0.0016,-0.7756 -0.304304,-0.6535 -0.304304,-0.6535 -0.5396466,-0.4619 -0.5396464,-0.4619 -0.7786913,-0.2185 -0.7786913,-0.2185 -0.6446431,0.1382 c -0.354553,0.076 -0.810067,0.2238 -1.0122524,0.3284 -0.2021856,0.1045 -0.5505336,0.373 -0.7741065,0.5966 -0.2235731,0.2235 -0.5315984,0.647 -0.6845008,0.9409 l -0.2780043,0.5344 -0.00425,0.9091 -0.00425,0.9091 0.3560493,0.6076 0.3560491,0.6075 0.4465775,0.3577 0.4465775,0.3576 0.6156669,0.2287 0.6156669,0.2288 0.7202997,-0.053 z m -2.6465952,-1.9786 -0.181256,0.07 -0.077268,-0.077 -0.077269,-0.077 0,-1.2687 0,-1.2686 0.3231555,-0.081 0.3231555,-0.081 0.3554711,0.089 c 0.1955091,0.049 0.457265,0.1805 0.5816799,0.2926 l 0.2262088,0.2039 0,0.2508 c 0,0.138 -0.093903,0.4098 -0.2086725,0.6041 l -0.2086726,0.3533 0.2094305,0.405 0.2094304,0.405 -0.2588619,0.1385 -0.2588621,0.1386 -0.2847022,-0.586 c -0.1565863,-0.3223 -0.3312793,-0.586 -0.3882069,-0.586 l -0.1035047,0 0,0.5032 0,0.5032 -0.1812558,0.07 z m 0.4707752,-1.4871 0.2895196,-0.041 0.046354,-0.243 0.046355,-0.243 -0.1742962,-0.1105 c -0.095863,-0.061 -0.2470063,-0.1113 -0.335874,-0.1124 l -0.1615778,0 0,0.3968 0,0.3967 0.2895194,-0.041 z m 2.0629511,1.4495 c -0.3768552,0.038 -0.7113211,0.043 -0.7432577,0.011 -0.031937,-0.032 -0.058066,-0.6289 -0.058066,-1.3267 l 0,-1.2686 0.3075369,-0.077 c 0.1691453,-0.042 0.4745273,-0.058 0.6786266,-0.035 l 0.3710897,0.042 0,0.2585 0,0.2585 -0.4201022,0.041 -0.4201022,0.04 0,0.2504 0,0.2503 0.3662429,0 c 0.2014337,0 0.4010138,0.035 0.4435114,0.077 l 0.077269,0.077 -0.069555,0.1813 -0.069554,0.1813 -0.373957,0 -0.373957,0 0,0.3153 0,0.3154 0.4847333,0.04 0.4847333,0.04 0,0.1293 0,0.1292 -0.6851913,0.069 z m 1.4284489,0.03 c -0.053321,0.027 -0.1987406,0.026 -0.3231555,0 l -0.2262088,-0.051 0,-1.2027 0,-1.2027 0.1945937,-0.1615 0.1945937,-0.1615 0.5422507,0.087 0.5422509,0.087 0.167991,0.1395 0.167991,0.1394 0,0.3941 0,0.3941 -0.203291,0.2246 -0.203291,0.2246 0.203291,0.3932 c 0.11181,0.2162 0.203291,0.4541 0.203291,0.5288 l 0,0.1357 -0.259571,0 -0.259571,0 -0.2068823,-0.5171 -0.2068818,-0.517 -0.115227,0 -0.1152269,0 0,0.5094 0,0.5094 -0.096947,0.05 z m 0.2750125,-1.4561 0.1780659,0 0.1609171,-0.1939 0.1609172,-0.1939 -0.1609172,-0.1939 -0.1609171,-0.1939 -0.1780659,0 -0.1780658,0 0,0.3878 0,0.3878 0.1780658,0 z"
         id="path3070" />
      <path
         style="fill:#7e9fbf"
         d="m 7.7618139,1047.9655 -0.7384087,-0.01 -0.6341142,-0.1947 -0.6341143,-0.1946 -0.7439633,-0.744 -0.7439633,-0.744 -0.2053844,-0.6916 -0.2053844,-0.6916 0,-0.6214 0,-0.6215 0.240308,-0.6324 0.240308,-0.6325 0.3685754,-0.4832 0.3685755,-0.4832 0.4744811,-0.2996 0.4744812,-0.2995 0.743976,-0.2163 0.7439758,-0.2163 0.660957,0.084 0.6609568,0.084 0.6670632,0.3219 0.6670637,0.3219 0.478545,0.5297 0.478545,0.5297 0.258323,0.584 0.258322,0.584 0,0.9215 0,0.9215 -0.302118,0.6432 -0.302118,0.6431 -0.532174,0.5325 -0.5321737,0.5325 -0.7360659,0.2754 -0.7360657,0.2754 -0.7384088,-0.01 z m 0.2391459,-0.5557 0.7190302,-0.053 0.6625231,-0.3357 0.6625229,-0.3358 0.327172,-0.4289 c 0.179944,-0.2359 0.416223,-0.6421 0.525064,-0.9026 l 0.197893,-0.4736 -0.0013,-0.7474 -0.0013,-0.7474 -0.304304,-0.6535 -0.304305,-0.6535 -0.5441391,-0.4658 -0.5441396,-0.4657 -0.8183778,-0.2216 -0.818378,-0.2215 -0.6659605,0.1598 -0.6659604,0.1597 -0.5957943,0.4055 -0.5957943,0.4054 -0.3950718,0.7074 -0.3950717,0.7074 0,0.9127 0,0.9126 0.3560492,0.6076 0.3560492,0.6075 0.4465775,0.3577 0.4465774,0.3576 0.6156669,0.2287 0.6156669,0.2288 0.7190302,-0.053 z m -2.7225943,-2.0205 -0.2585244,0 0,-1.2902 0,-1.2902 0.3231555,-0.081 0.3231555,-0.081 0.3554711,0.089 c 0.1955091,0.049 0.457265,0.1805 0.5816799,0.2926 l 0.2262088,0.2039 0,0.2508 c 0,0.138 -0.093903,0.4098 -0.2086725,0.6041 l -0.2086726,0.3533 0.2035173,0.3936 0.2035172,0.3935 -0.081019,0.081 c -0.044561,0.045 -0.1788267,0.081 -0.2983686,0.081 l -0.2173491,0 -0.2331566,-0.5171 -0.2331565,-0.517 -0.1096305,0 -0.1096307,0 0,0.517 0,0.5171 -0.2585244,0 z m 0.5480438,-1.4453 0.2895196,-0.041 0.046354,-0.243 0.046355,-0.243 -0.1742962,-0.1105 c -0.095863,-0.061 -0.2470063,-0.1113 -0.335874,-0.1124 l -0.1615778,0 0,0.3968 0,0.3967 0.2895194,-0.041 z m 2.0048847,1.4194 -0.7432577,0.039 0,-1.2853 0,-1.2852 0.2044653,-0.078 c 0.1124561,-0.043 0.35967,-0.078 0.5493644,-0.077 0.1896944,0 0.4260852,0.053 0.5253125,0.1162 l 0.1804136,0.1143 -0.07941,0.2069 -0.07941,0.207 -0.3918435,0 -0.3918435,0 0,0.2585 0,0.2585 0.3877867,0 0.3877866,0 0,0.2585 0,0.2586 -0.3877866,0 -0.3877867,0 0,0.3153 0,0.3154 0.4847333,0.04 0.4847333,0.04 0,0.1293 0,0.1292 -0.7432577,0.039 z m 1.2603065,0.026 -0.3231555,0 0,-1.2122 0,-1.2122 0.1945937,-0.1615 0.1945937,-0.1615 0.5422507,0.087 0.5422509,0.087 0.167991,0.1395 0.167991,0.1394 0,0.3941 0,0.3941 -0.203291,0.2246 -0.203291,0.2246 0.203291,0.3932 c 0.11181,0.2162 0.203291,0.4541 0.203291,0.5288 l 0,0.1357 -0.259571,0 -0.259571,0 -0.2068823,-0.5171 -0.2068818,-0.517 -0.115227,0 -0.1152269,0 0,0.517 0,0.5171 -0.3231555,0 z m 0.5012213,-1.4219 0.1780659,0 0.1609171,-0.1939 0.1609172,-0.1939 -0.1609172,-0.1939 -0.1609171,-0.1939 -0.1780659,0 -0.1780658,0 0,0.3878 0,0.3878 0.1780658,0 z"
         id="path3068" />
      <path
         style="fill:#5f7fbf"
         d="m 8.0201836,1047.9266 -0.8675162,0.046 -0.5170488,-0.1713 c -0.2843768,-0.094 -0.6915527,-0.2634 -0.9048354,-0.3759 -0.2132826,-0.1126 -0.570562,-0.3986 -0.7939544,-0.6358 -0.2233923,-0.2371 -0.5401339,-0.6928 -0.7038702,-1.0128 l -0.2977025,-0.5816 -0.00707,-1.0341 -0.00707,-1.0341 0.3091478,-0.628 0.3091478,-0.628 0.4552466,-0.4553 0.4552465,-0.4552 0.7150446,-0.3274 0.7150448,-0.3273 0.7826494,-0.01 0.7826496,-0.01 0.5439288,0.1616 0.5439289,0.1616 0.5511141,0.4203 0.551114,0.4204 0.350209,0.5133 0.350209,0.5133 0.164029,0.5815 0.164028,0.5816 -0.01587,0.6777 -0.01587,0.6777 -0.312446,0.6797 c -0.171845,0.3738 -0.469833,0.8657 -0.662196,1.0931 l -0.34975,0.4135 -0.7100125,0.3474 -0.7100122,0.3474 -0.867516,0.046 z m -0.2765473,-0.4752 0.5909688,0.01 0.5796304,-0.1975 0.5796304,-0.1975 0.4658303,-0.3839 0.4658308,-0.384 0.334819,-0.6719 0.334819,-0.6719 0,-0.799 0,-0.7991 -0.196831,-0.4711 -0.196832,-0.471 -0.4808,-0.5322 -0.4808004,-0.5322 -0.582675,-0.2574 -0.5826749,-0.2574 -0.7755732,-0.015 -0.7755733,-0.015 -0.7378175,0.3622 -0.7378176,0.3622 -0.3987955,0.5035 -0.3987956,0.5035 -0.2050292,0.6017 -0.2050292,0.6018 0.070294,0.6811 0.070294,0.681 0.2582392,0.5013 0.2582392,0.5012 0.4419275,0.4243 0.4419276,0.4243 0.6358127,0.2483 0.6358127,0.2483 0.5909689,0.01 z m -2.4652708,-2.0621 -0.2585244,0 0,-1.2927 0,-1.2926 0.690908,0 0.6909082,0 0.2139272,0.2364 0.2139274,0.2364 0,0.2806 0,0.2807 -0.2394118,0.2394 -0.2394118,0.2394 0.2271001,0.4392 0.2271003,0.4392 -0.059948,0.097 c -0.032972,0.053 -0.1665353,0.097 -0.2968085,0.097 l -0.2368606,0 -0.2068818,-0.5171 -0.206882,-0.517 -0.1303088,0 -0.1303089,0 0,0.517 0,0.5171 -0.2585244,0 z m 0.5480438,-1.4453 0.2895196,-0.041 0.046354,-0.243 0.046355,-0.243 -0.1742962,-0.1105 c -0.095863,-0.061 -0.2470063,-0.1113 -0.335874,-0.1124 l -0.1615778,0 0,0.3968 0,0.3967 0.2895194,-0.041 z m 2.0048847,1.4194 -0.7432577,0.039 0,-1.2991 0,-1.2991 0.7109422,0 0.7109421,0 0,0.1801 0,0.18 -0.2044653,0.079 c -0.1124561,0.043 -0.316044,0.078 -0.4524177,0.078 l -0.2479525,0 0,0.2585 0,0.2585 0.3972647,0 0.3972646,0 -0.042899,0.2262 -0.042899,0.2262 -0.3543658,0.041 -0.3543658,0.041 0,0.3068 0,0.3068 0.4847333,0.04 0.4847333,0.04 0,0.1293 0,0.1292 -0.7432577,0.039 z m 1.3249376,0.026 -0.2585244,0 0,-1.2991 0,-1.2991 0.740703,0.039 0.7407028,0.039 0.128149,0.366 0.12815,0.366 -0.221438,0.3858 -0.221438,0.3859 0.19279,0.3728 c 0.106034,0.205 0.19279,0.4338 0.19279,0.5085 l 0,0.1357 -0.238893,0 -0.238893,0 -0.2331563,-0.5171 -0.2331566,-0.517 -0.1096305,0 -0.1096306,0 0,0.517 0,0.5171 -0.2585244,0 z m 0.5032191,-1.4219 0.2446948,0 0.080691,-0.2103 0.080692,-0.2103 -0.1473206,-0.1775 c -0.081026,-0.098 -0.2274494,-0.1775 -0.3253856,-0.1775 l -0.1780658,0 0,0.3878 0,0.3878 0.2446947,0 z"
         id="path3066" />
      <path
         style="fill:#3f7fbf"
         d="m 7.6697162,1047.9671 -0.5170488,-10e-4 -0.6490137,-0.2245 c -0.3569576,-0.1234 -0.8420159,-0.3618 -1.0779074,-0.5298 l -0.4288938,-0.3054 -0.3796783,-0.5241 -0.3796783,-0.5241 -0.2058212,-0.708 -0.2058213,-0.708 0.083538,-0.7108 0.083538,-0.7108 0.4007613,-0.7519 0.4007612,-0.7519 0.4299096,-0.3279 c 0.2364501,-0.1804 0.6969307,-0.4424 1.02329,-0.5823 l 0.5933805,-0.2543 0.8846924,-0.018 0.8846924,-0.018 0.6930095,0.3186 c 0.3811553,0.1752 0.8801787,0.4768 1.1089407,0.6703 l 0.415932,0.3518 0.40119,0.8149 0.40119,0.815 0,0.7124 0,0.7125 -0.135311,0.5025 -0.135311,0.5025 -0.37176,0.5862 -0.371761,0.5862 -0.6332056,0.4059 -0.6332055,0.406 -0.5816799,0.1337 c -0.319924,0.074 -0.8143519,0.1333 -1.0987288,0.1327 z m 0.07392,-0.5164 0.5909688,0.01 0.5796304,-0.1975 0.5796304,-0.1975 0.4658303,-0.3839 0.4658309,-0.384 0.334819,-0.6719 0.334819,-0.6719 0,-0.8162 0,-0.8163 -0.263726,-0.561 -0.263726,-0.5611 -0.414901,-0.427 -0.4149006,-0.427 -0.5816799,-0.2623 -0.5816799,-0.2622 -0.8402044,0 -0.8402043,0 -0.6175297,0.2962 -0.6175299,0.2962 -0.4418674,0.5162 -0.4418676,0.5163 -0.2009091,0.5896 -0.2009092,0.5896 0.00126,0.591 0.00126,0.591 0.3022978,0.6463 0.3022977,0.6463 0.4321192,0.4203 0.4321191,0.4203 0.653889,0.2516 0.653889,0.2516 0.5909688,0.01 z m -2.4652708,-2.0614 -0.2585244,0 0,-1.2927 0,-1.2926 0.7079622,0 0.7079623,0 0.2027713,0.3095 0.2027711,0.3094 -0.087162,0.3473 -0.087162,0.3473 -0.1740624,0.067 -0.1740625,0.067 0.1906957,0.3688 c 0.1048827,0.2028 0.1906957,0.4589 0.1906957,0.569 l 0,0.2004 -0.2444891,0 -0.2444892,0 -0.2068818,-0.5171 -0.206882,-0.517 -0.1303088,0 -0.1303089,0 0,0.517 0,0.5171 -0.2585244,0 z m 0.5493644,-1.4453 0.2908399,-0.041 0,-0.3231 0,-0.3232 -0.2908399,-0.041 -0.29084,-0.041 0,0.4058 0,0.4057 0.29084,-0.041 z m 1.9665677,1.4453 -0.7156229,0 0.036996,-1.2604 0.036996,-1.2603 0.6786266,-0.039 0.6786266,-0.039 0,0.2006 0,0.2007 -0.4524177,0 -0.4524178,0 0,0.3231 0,0.3232 0.3877867,0 0.3877866,0 0,0.1939 0,0.1939 -0.3877866,0 -0.3877867,0 0,0.3878 0,0.3878 0.4524178,0 0.4524177,0 0,0.1939 0,0.1939 -0.715623,0 z m 1.361934,0 -0.2585244,0 0,-1.2927 0,-1.2926 0.6370779,0 0.637078,0 0.203126,0.2031 0.203127,0.2032 0,0.2616 0,0.2617 -0.208673,0.3532 -0.208672,0.3533 0.208672,0.4035 c 0.11477,0.222 0.208673,0.4355 0.208673,0.4746 0,0.039 -0.107502,0.071 -0.238893,0.071 l -0.238893,0 -0.2331564,-0.5171 -0.2331566,-0.517 -0.1096305,0 -0.1096306,0 0,0.517 0,0.5171 -0.2585244,0 z m 0.5480438,-1.4453 0.2895195,-0.041 0.046354,-0.243 0.04636,-0.243 -0.1742967,-0.1105 c -0.095863,-0.061 -0.2470062,-0.1113 -0.335874,-0.1124 l -0.1615777,0 0,0.3968 0,0.3967 0.2895194,-0.041 z"
         id="path3064" />
      <path
         style="fill:#3f5fbf"
         d="m 8.0078632,1047.923 -0.8551958,0.06 -0.6490137,-0.2329 c -0.3569576,-0.128 -0.8420159,-0.3702 -1.0779074,-0.5382 l -0.4288938,-0.3054 -0.3796783,-0.5241 -0.3796783,-0.5241 -0.2058212,-0.708 -0.2058213,-0.708 0.082073,-0.6983 0.082073,-0.6984 0.3098598,-0.6055 0.3098598,-0.6055 0.4959013,-0.4769 0.4959012,-0.477 0.624712,-0.2663 0.624712,-0.2663 0.9381039,0 0.9381039,0 0.7910403,0.3953 0.7910394,0.3953 0.348996,0.4126 c 0.191947,0.2269 0.492231,0.7242 0.667298,1.1051 l 0.318302,0.6924 -0.05902,0.988 -0.05902,0.9879 -0.269044,0.5229 -0.269045,0.5228 -0.60038,0.5534 -0.6003804,0.5535 -0.4619361,0.193 -0.4619359,0.193 -0.8551959,0.06 z m -0.2642269,-0.4767 0.5909688,0.011 0.5796304,-0.1975 0.5796304,-0.1975 0.4819439,-0.3972 0.4819442,-0.3973 0.318705,-0.6289 0.318706,-0.6289 -0.0028,-0.8769 -0.0028,-0.8768 -0.239912,-0.517 -0.239913,-0.5171 -0.435875,-0.4401 -0.4358755,-0.4401 -0.5816799,-0.267 -0.5816799,-0.267 -0.8402044,0.012 -0.8402043,0.012 -0.4691284,0.2061 c -0.2580207,0.1133 -0.6517954,0.3597 -0.8750551,0.5476 l -0.4059265,0.3415 -0.3359182,0.5732 -0.3359183,0.5732 -0.065804,0.8198 -0.065804,0.8198 0.3204154,0.6939 0.3204156,0.6939 0.3719952,0.3675 c 0.2045974,0.2021 0.5473316,0.4581 0.7616317,0.5689 0.2143,0.1108 0.535433,0.2459 0.7136288,0.3001 0.1781958,0.054 0.5899284,0.1035 0.9149612,0.1096 z m -2.4652708,-2.057 -0.2585244,0 0,-1.2991 0,-1.2991 0.7389565,0.039 0.7389564,0.039 0.1951206,0.3488 0.1951206,0.3488 -0.2732833,0.3697 -0.2732833,0.3696 0.1748301,0.3157 c 0.096157,0.1736 0.1768913,0.4174 0.1794106,0.5418 l 0.00458,0.2263 -0.2444891,0 -0.2444892,0 -0.2068818,-0.5171 -0.206882,-0.517 -0.1303088,0 -0.1303089,0 0,0.517 0,0.5171 -0.2585244,0 z m 0.5493644,-1.4453 0.2908399,-0.041 0,-0.3231 0,-0.3232 -0.2908399,-0.041 -0.29084,-0.041 0,0.4058 0,0.4057 0.29084,-0.041 z m 2.0318228,1.4453 -0.6503679,0 -0.066149,-0.1724 c -0.036382,-0.095 -0.049099,-0.662 -0.028259,-1.2603 l 0.037891,-1.088 0.6786266,-0.039 0.6786266,-0.039 0,0.2006 0,0.2007 -0.4524177,0 -0.4524178,0 0,0.3231 0,0.3232 0.3877867,0 0.3877866,0 0,0.1939 0,0.1939 -0.3877866,0 -0.3877867,0 0,0.3878 0,0.3878 0.4524178,0 0.4524177,0 0,0.1939 0,0.1939 -0.6503679,0 z m 1.2966789,0 -0.2585244,0 0,-1.2927 0,-1.2926 0.6370779,0 0.6370779,0 0.203126,0.2031 0.203127,0.2032 0,0.2616 0,0.2617 -0.208673,0.3532 -0.208672,0.3533 0.208672,0.4035 c 0.11477,0.222 0.208673,0.4355 0.208673,0.4746 0,0.039 -0.11002,0.071 -0.244489,0.071 l -0.24449,0 -0.2068814,-0.5171 -0.206882,-0.517 -0.1303088,0 -0.1303088,0 0,0.517 0,0.5171 -0.2585244,0 z m 0.5480438,-1.4453 0.2895195,-0.041 0.046354,-0.243 0.04636,-0.243 -0.1742965,-0.1105 c -0.095863,-0.061 -0.2470062,-0.1113 -0.335874,-0.1124 l -0.1615777,0 0,0.3968 0,0.3967 0.2895194,-0.041 z"
         id="path3062" />
      <path
         style="fill:#1f5fbf"
         d="m 7.6447919,1047.9654 -0.4921245,-0.01 -0.6720802,-0.2292 -0.6720802,-0.2291 -0.4725587,-0.3604 -0.4725587,-0.3605 -0.3632198,-0.5727 -0.3632198,-0.5727 -0.1561035,-0.6507 -0.1561036,-0.6508 0.078551,-0.5731 0.078551,-0.5731 0.2780277,-0.6462 0.2780278,-0.6463 0.629506,-0.566 0.6295061,-0.566 0.603957,-0.2058 0.6039571,-0.2058 0.831013,0 0.8310129,0 0.8198276,0.3913 0.8198269,0.3913 0.396953,0.4812 0.396952,0.4813 0.2559,0.6834 0.2559,0.6835 0,0.6831 0,0.683 -0.200909,0.5897 -0.200909,0.5896 -0.464295,0.5424 -0.464296,0.5425 -0.4658393,0.2914 -0.4658396,0.2914 -0.6066043,0.1507 c -0.3336323,0.083 -0.8280602,0.1466 -1.0987287,0.1416 z m 0.3828544,-0.5567 0.8749789,-0.046 0.607073,-0.3754 0.6070728,-0.3753 0.41484,-0.5439 0.414841,-0.5439 0.150945,-0.7271 0.150945,-0.7271 -0.147998,-0.5877 c -0.0814,-0.3233 -0.22663,-0.739 -0.322737,-0.9237 -0.09611,-0.1848 -0.39271,-0.5532 -0.659117,-0.8187 l -0.4843766,-0.4828 -0.7236742,-0.2728 -0.7236741,-0.2727 -0.6604225,0.076 -0.6604224,0.076 -0.455017,0.1901 c -0.2502594,0.1045 -0.637684,0.3438 -0.8609437,0.5317 l -0.4059265,0.3415 -0.352936,0.6004 -0.3529358,0.6004 0,0.9694 0,0.9695 0.2196221,0.4581 0.2196221,0.458 0.5541939,0.5487 0.5541938,0.5488 0.5834371,0.1876 0.5834372,0.1877 0.8749789,-0.046 z m -2.7539616,-2.0194 -0.2632053,0 0.036996,-1.2604 0.036996,-1.2603 0.7059856,0 0.7059855,0 0.1957759,0.3488 0.195776,0.3488 -0.2661886,0.3622 -0.2661885,0.3621 0.1664856,0.3878 c 0.091567,0.2133 0.1691092,0.4605 0.1723158,0.5494 l 0.00583,0.1616 -0.2389166,0 -0.2389166,0 -0.2031026,-0.5171 -0.2031026,-0.517 -0.1396607,0 -0.1396607,0 0,0.517 0,0.5171 -0.2632052,0 z m 0.5540452,-1.4453 0.2908399,-0.041 0,-0.3231 0,-0.3232 -0.2908399,-0.041 -0.29084,-0.041 0,0.4058 0,0.4057 0.29084,-0.041 z m 2.0318228,1.4453 -0.6503679,0 -0.066149,-0.1724 c -0.036382,-0.095 -0.049099,-0.662 -0.028259,-1.2603 l 0.037891,-1.088 0.6355392,0 0.6355391,0 0.053859,0.1616 0.053859,0.1616 -0.4631896,0 -0.4631896,0 0,0.3231 0,0.3232 0.3877867,0 0.3877866,0 0,0.1939 0,0.1939 -0.3877866,0 -0.3877867,0 0,0.3878 0,0.3878 0.4524178,0 0.4524177,0 0,0.1939 0,0.1939 -0.6503679,0 z m 1.2966789,0 -0.2585244,0 0,-1.2927 0,-1.2926 0.6262769,0 0.6262769,0 0.213927,0.2364 0.213928,0.2364 0,0.2806 0,0.2807 -0.239412,0.2394 -0.239412,0.2394 0.2271,0.4392 0.2271,0.4392 -0.05995,0.097 c -0.03297,0.053 -0.137451,0.097 -0.232177,0.097 l -0.17223,0 -0.2068814,-0.5171 -0.206882,-0.517 -0.1303088,0 -0.1303088,0 0,0.517 0,0.5171 -0.2585244,0 z m 0.5493643,-1.4453 0.29084,-0.041 0,-0.3231 0,-0.3232 -0.29084,-0.041 -0.2908399,-0.041 0,0.4058 0,0.4057 0.2908399,-0.041 z"
         id="path3060" />
      <path
         style="fill:#1f3fbf"
         d="m 7.9494311,1047.9126 -0.7967637,0.05 -0.5322457,-0.175 c -0.2927352,-0.096 -0.7580792,-0.3252 -1.0340976,-0.5087 l -0.5018519,-0.3336 -0.3635336,-0.4583 -0.3635336,-0.4583 -0.2437214,-0.7084 -0.2437214,-0.7084 0.040766,-0.7063 0.040766,-0.7063 0.3475382,-0.7104 0.3475381,-0.7103 0.5933009,-0.5222 0.593301,-0.5223 0.6508931,-0.1933 0.6508931,-0.1933 0.682632,0 0.6826319,0 0.7089794,0.2653 0.7089795,0.2653 0.6279586,0.687 0.627959,0.6871 0.219057,0.6783 0.219057,0.6783 0,0.5433 0,0.5434 -0.195171,0.6572 -0.195172,0.6572 -0.576597,0.6414 -0.576597,0.6413 -0.661241,0.2844 -0.6612404,0.2845 -0.7967637,0.051 z m -0.2947119,-0.4592 0.7605764,0 0.5320457,-0.1588 0.5320458,-0.1589 0.6674979,-0.649 0.667498,-0.649 0.218935,-0.7596 0.218935,-0.7596 -0.0825,-0.533 -0.0825,-0.5331 -0.326047,-0.6732 -0.326047,-0.6731 -0.5006753,-0.3966 -0.5006747,-0.3965 -0.6235241,-0.1892 -0.6235238,-0.1892 -0.4798843,0 -0.4798844,0 -0.6887454,0.2577 -0.6887455,0.2577 -0.4723908,0.4856 -0.4723909,0.4855 -0.262758,0.5817 -0.262758,0.5817 -0.00284,0.7825 -0.00284,0.7825 0.3237834,0.6498 0.3237833,0.6497 0.3130865,0.2941 c 0.1721975,0.1618 0.5936329,0.4316 0.9365231,0.5996 l 0.6234366,0.3055 0.7605762,0 z m -2.3117226,-2.0641 -0.1938933,0 0,-1.2927 0,-1.2926 0.6304835,0 0.6304836,0 0.1612474,0.1943 0.1612475,0.1943 0,0.327 0,0.3271 -0.2194485,0.2425 -0.2194484,0.2424 0.2032907,0.3932 c 0.1118098,0.2162 0.2032906,0.4541 0.2032906,0.5288 l 0,0.1357 -0.1912661,0 -0.1912662,0 -0.2637787,-0.5171 -0.2637786,-0.517 -0.1266351,0 -0.1266351,0 0,0.517 0,0.5171 -0.1938933,0 z m 0.4847333,-1.4453 0.2908399,-0.041 0,-0.3231 0,-0.3232 -0.2908399,-0.041 -0.29084,-0.041 0,0.4058 0,0.4057 0.29084,-0.041 z m 2.0318228,1.4453 -0.6503679,0 -0.066149,-0.1724 c -0.036382,-0.095 -0.049099,-0.662 -0.028259,-1.2603 l 0.037891,-1.088 0.6139955,0 0.6139955,0 0.032316,0.1293 0.032316,0.1293 -0.4201022,0.041 -0.4201022,0.041 0,0.3064 0,0.3063 0.3455025,0.041 0.3455025,0.041 0.053056,0.1616 0.053056,0.1616 -0.3985585,0 -0.3985585,0 0,0.3878 0,0.3878 0.4524178,0 0.4524177,0 0,0.1939 0,0.1939 -0.6503679,0 z m 1.2966789,0 -0.2585244,0 0,-1.2927 0,-1.2926 0.6389813,0 0.6389815,0 0.201223,0.2873 c 0.110672,0.158 0.201223,0.3817 0.201223,0.497 l 0,0.2097 -0.25333,0.2293 -0.253329,0.2293 0.247791,0.4857 0.247791,0.4857 -0.08064,0.081 c -0.04435,0.044 -0.149371,0.081 -0.233379,0.081 l -0.152741,0 -0.203103,-0.5171 -0.2031026,-0.517 -0.1396607,0 -0.1396607,0 0,0.517 0,0.5171 -0.2585244,0 z m 0.5493643,-1.4453 0.29084,-0.041 0,-0.3231 0,-0.3232 -0.29084,-0.041 -0.2908399,-0.041 0,0.4058 0,0.4057 0.2908399,-0.041 z"
         id="path3058" />
      <path
         style="fill:#1f3f7f"
         d="m 8.122134,1047.8949 -0.7109422,0.074 -0.6766179,-0.1878 -0.6766178,-0.1877 -0.5085735,-0.3365 -0.5085735,-0.3366 -0.3397934,-0.4903 c -0.1868864,-0.2697 -0.4449241,-0.774 -0.5734171,-1.1208 l -0.2336236,-0.6305 0.032685,-0.7166 0.032685,-0.7166 0.299911,-0.6406 0.299911,-0.6407 0.602245,-0.6043 0.602245,-0.6042 0.6856505,-0.2037 0.6856507,-0.2036 0.682632,0 0.6826319,0 0.6876644,0.2573 0.6876644,0.2573 0.5316571,0.5506 0.531657,0.5506 0.286382,0.5723 0.286382,0.5723 0.06692,0.738 0.06692,0.738 -0.230974,0.7344 -0.230973,0.7343 -0.557423,0.62 -0.557423,0.62 -0.6177998,0.2641 -0.6177997,0.2642 -0.7109421,0.073 z m -0.4674148,-0.4466 0.7605764,0.01 0.5073795,-0.152 0.5073793,-0.152 0.5794346,-0.51 0.579435,-0.5101 0.23763,-0.469 0.23763,-0.4689 0.0905,-0.5436 0.0905,-0.5435 -0.148799,-0.7168 -0.148799,-0.7167 -0.497993,-0.63 -0.4979923,-0.63 -0.5858217,-0.2836 -0.5858219,-0.2836 -0.702205,-0.072 -0.702205,-0.072 -0.7142389,0.2247 -0.7142388,0.2246 -0.5248209,0.5197 -0.5248209,0.5196 -0.2619462,0.5411 -0.2619463,0.5411 0.00126,0.8317 0.00126,0.8317 0.3055439,0.6463 0.305544,0.6464 0.3718198,0.3476 0.3718199,0.3477 0.5816799,0.2572 0.5816799,0.2572 0.7605762,0.01 z m -2.3117226,-2.059 -0.1938933,0 0,-1.2927 0,-1.2926 0.556974,0 0.5569742,0 0.2347568,0.1717 0.234757,0.1716 0,0.3497 0,0.3497 -0.2194485,0.2425 -0.2194484,0.2424 0.2032907,0.3932 c 0.1118098,0.2162 0.2032906,0.4541 0.2032906,0.5288 l 0,0.1357 -0.2034925,0 -0.2034926,0 -0.2166096,-0.5158 -0.2166096,-0.5157 -0.1615777,0 -0.1615778,0 0,0.517 0,0.5171 -0.1938933,0 z m 0.3983586,-1.3435 c 0.112456,-0.043 0.2617397,-0.078 0.3317415,-0.078 l 0.1272761,0 -0.040902,-0.3555 -0.040901,-0.3555 -0.2908399,-0.041 -0.29084,-0.041 0,0.4753 0,0.4752 0.2044653,-0.078 z m 2.1181975,1.3435 -0.6503679,0 -0.066149,-0.1724 c -0.036382,-0.095 -0.049099,-0.662 -0.028259,-1.2603 l 0.037891,-1.088 0.6139955,0 0.6139955,0 0.032316,0.1293 0.032316,0.1293 -0.4201022,0.041 -0.4201022,0.041 0,0.3064 0,0.3063 0.3455025,0.041 0.3455025,0.041 0.053056,0.1616 0.053056,0.1616 -0.3985585,0 -0.3985585,0 0,0.3878 0,0.3878 0.4524178,0 0.4524177,0 0,0.1939 0,0.1939 -0.6503679,0 z m 1.2966789,0 -0.2585244,0 0,-1.2994 0,-1.2994 0.6743844,0.039 0.6743844,0.039 0.195061,0.3488 0.195062,0.3488 -0.279946,0.3787 -0.279946,0.3786 0.252716,0.4715 0.252716,0.4716 -0.20148,0.077 c -0.110814,0.043 -0.215238,0.056 -0.232053,0.029 -0.01682,-0.027 -0.129702,-0.2664 -0.2508588,-0.533 l -0.2202843,-0.4847 -0.1313534,0 -0.1313535,0 0,0.517 0,0.5171 -0.2585244,0 z m 0.3630807,-1.2927 c 0.057506,0 0.2092512,-0.077 0.3372116,-0.1701 l 0.2326551,-0.1701 -0.04769,-0.25 -0.047692,-0.25 -0.2895195,-0.041 -0.2895194,-0.041 0,0.4614 0,0.4614 0.1045563,0 z"
         id="path3056" />
    </g>
  </g>
</svg>
