<?xml version="1.0" encoding="UTF-8" standalone="no"?>
<!-- Created with Inkscape (http://www.inkscape.org/) -->

<svg
   xmlns:dc="http://purl.org/dc/elements/1.1/"
   xmlns:cc="http://creativecommons.org/ns#"
   xmlns:rdf="http://www.w3.org/1999/02/22-rdf-syntax-ns#"
   xmlns:svg="http://www.w3.org/2000/svg"
   xmlns="http://www.w3.org/2000/svg"
   xmlns:sodipodi="http://sodipodi.sourceforge.net/DTD/sodipodi-0.dtd"
   xmlns:inkscape="http://www.inkscape.org/namespaces/inkscape"
   width="16"
   height="16"
   id="svg2"
   version="1.1"
   inkscape:version="0.47 r22583"
   sodipodi:docname="THEME9.svg">
  <defs
     id="defs4">
    <inkscape:perspective
       sodipodi:type="inkscape:persp3d"
       inkscape:vp_x="0 : 526.18109 : 1"
       inkscape:vp_y="0 : 1000 : 0"
       inkscape:vp_z="744.09448 : 526.18109 : 1"
       inkscape:persp3d-origin="372.04724 : 350.78739 : 1"
       id="perspective10" />
    <inkscape:perspective
       id="perspective2824"
       inkscape:persp3d-origin="0.5 : 0.33333333 : 1"
       inkscape:vp_z="1 : 0.5 : 1"
       inkscape:vp_y="0 : 1000 : 0"
       inkscape:vp_x="0 : 0.5 : 1"
       sodipodi:type="inkscape:persp3d" />
    <inkscape:perspective
       id="perspective5878"
       inkscape:persp3d-origin="0.5 : 0.33333333 : 1"
       inkscape:vp_z="1 : 0.5 : 1"
       inkscape:vp_y="0 : 1000 : 0"
       inkscape:vp_x="0 : 0.5 : 1"
       sodipodi:type="inkscape:persp3d" />
    <inkscape:perspective
       id="perspective5921"
       inkscape:persp3d-origin="0.5 : 0.33333333 : 1"
       inkscape:vp_z="1 : 0.5 : 1"
       inkscape:vp_y="0 : 1000 : 0"
       inkscape:vp_x="0 : 0.5 : 1"
       sodipodi:type="inkscape:persp3d" />
    <inkscape:perspective
       id="perspective5943"
       inkscape:persp3d-origin="0.5 : 0.33333333 : 1"
       inkscape:vp_z="1 : 0.5 : 1"
       inkscape:vp_y="0 : 1000 : 0"
       inkscape:vp_x="0 : 0.5 : 1"
       sodipodi:type="inkscape:persp3d" />
    <inkscape:perspective
       id="perspective5989"
       inkscape:persp3d-origin="0.5 : 0.33333333 : 1"
       inkscape:vp_z="1 : 0.5 : 1"
       inkscape:vp_y="0 : 1000 : 0"
       inkscape:vp_x="0 : 0.5 : 1"
       sodipodi:type="inkscape:persp3d" />
    <inkscape:perspective
       id="perspective6011"
       inkscape:persp3d-origin="0.5 : 0.33333333 : 1"
       inkscape:vp_z="1 : 0.5 : 1"
       inkscape:vp_y="0 : 1000 : 0"
       inkscape:vp_x="0 : 0.5 : 1"
       sodipodi:type="inkscape:persp3d" />
    <inkscape:perspective
       id="perspective6033"
       inkscape:persp3d-origin="0.5 : 0.33333333 : 1"
       inkscape:vp_z="1 : 0.5 : 1"
       inkscape:vp_y="0 : 1000 : 0"
       inkscape:vp_x="0 : 0.5 : 1"
       sodipodi:type="inkscape:persp3d" />
    <inkscape:perspective
       id="perspective6245"
       inkscape:persp3d-origin="0.5 : 0.33333333 : 1"
       inkscape:vp_z="1 : 0.5 : 1"
       inkscape:vp_y="0 : 1000 : 0"
       inkscape:vp_x="0 : 0.5 : 1"
       sodipodi:type="inkscape:persp3d" />
    <inkscape:perspective
       id="perspective6269"
       inkscape:persp3d-origin="0.5 : 0.33333333 : 1"
       inkscape:vp_z="1 : 0.5 : 1"
       inkscape:vp_y="0 : 1000 : 0"
       inkscape:vp_x="0 : 0.5 : 1"
       sodipodi:type="inkscape:persp3d" />
    <inkscape:perspective
       id="perspective6364"
       inkscape:persp3d-origin="0.5 : 0.33333333 : 1"
       inkscape:vp_z="1 : 0.5 : 1"
       inkscape:vp_y="0 : 1000 : 0"
       inkscape:vp_x="0 : 0.5 : 1"
       sodipodi:type="inkscape:persp3d" />
  </defs>
  <sodipodi:namedview
     id="base"
     pagecolor="#ffffff"
     bordercolor="#666666"
     borderopacity="1.0"
     inkscape:pageopacity="0.0"
     inkscape:pageshadow="2"
     inkscape:zoom="8.671875"
     inkscape:cx="10.564203"
     inkscape:cy="2.743179"
     inkscape:document-units="px"
     inkscape:current-layer="layer1"
     showgrid="true"
     inkscape:window-width="1280"
     inkscape:window-height="780"
     inkscape:window-x="-8"
     inkscape:window-y="-8"
     inkscape:window-maximized="1">
    <inkscape:grid
       type="xygrid"
       id="grid6324"
       empspacing="5"
       visible="true"
       enabled="true"
       snapvisiblegridlinesonly="true" />
  </sodipodi:namedview>
  <metadata
     id="metadata7">
    <rdf:RDF>
      <cc:Work
         rdf:about="">
        <dc:format>image/svg+xml</dc:format>
        <dc:type
           rdf:resource="http://purl.org/dc/dcmitype/StillImage" />
        <dc:title></dc:title>
      </cc:Work>
    </rdf:RDF>
  </metadata>
  <g
     inkscape:label="Calque 1"
     inkscape:groupmode="layer"
     id="layer1"
     transform="translate(0,-1036.3622)">
    <g
       id="g6380"
       transform="matrix(1.3142181,0,0,1.3636,-2.467253,-378.8494)">
      <path
         style="fill:#a5c9ef"
         d="m 8.7435307,1047.4041 c -0.1929723,-0.2119 -0.099402,-0.6441 0.1552739,-0.7172 0.1409217,-0.04 0.4329491,-0.4702 0.6489498,-0.9549 0.4678336,-1.0499 0.3600639,-1.3354 -0.5041121,-1.3354 -0.6725731,0 -1.6789494,-0.5344 -1.7763277,-0.9432 -0.078081,-0.3279 -0.4623587,-0.4146 -0.4615132,-0.1042 0.00123,0.4495 0.6072232,1.2283 1.2663121,1.6275 0.3892509,0.2357 0.7086452,0.5073 0.7097651,0.6035 0.0041,0.3527 -0.4116036,0.56 -0.9150695,0.4563 -0.3894293,-0.08 -0.4962098,-0.052 -0.4962098,0.1322 0,0.1288 0.1271984,0.309 0.2826631,0.4004 0.1554648,0.091 0.2826632,0.2724 0.2826632,0.4023 0,0.1818 -0.137624,0.2252 -0.5969132,0.1885 l -0.5969131,-0.048 -0.119731,-0.6688 c -0.090345,-0.5046 -0.1779825,-0.6566 -0.3570749,-0.6193 -0.1666657,0.035 -0.2583873,0.257 -0.3080097,0.7464 l -0.070666,0.6969 -0.5535486,0 c -0.6029763,0 -0.8772057,-0.3511 -0.3846774,-0.4926 0.5441456,-0.1562 0.5606017,-0.9816 0.019571,-0.9816 -0.4411321,0 -0.4397183,-0.2437 0.00393,-0.6777 0.4385288,-0.429 0.4758597,-0.5339 0.3342759,-0.939 -0.1204446,-0.3446 -0.4322116,-0.3057 -0.52049,0.065 -0.049949,0.2098 -0.1927785,0.3104 -0.4404783,0.3104 -0.2967766,0 -0.3665603,-0.074 -0.3665603,-0.3879 0,-0.2264 0.081223,-0.388 0.1949722,-0.388 0.1072348,0 0.4294887,-0.3142 0.71612,-0.6983 0.4405755,-0.5903 0.6016243,-0.7 1.0416789,-0.7092 0.2862921,-0.01 0.6477296,-0.066 0.8031943,-0.1337 0.3830651,-0.1664 0.635992,-0.039 0.635992,0.3202 0,0.1701 0.1431471,0.3574 0.3340534,0.4371 0.1837295,0.077 0.3719722,0.2479 0.4183174,0.3805 0.068571,0.1962 0.3264746,0.237 1.3848138,0.219 l 1.30055,-0.022 0.295107,0.3896 c 0.16231,0.2143 0.406406,0.4332 0.542438,0.4864 0.136032,0.053 0.24733,0.2386 0.24733,0.412 0,0.2328 -0.0924,0.3152 -0.353329,0.3152 l -0.353329,0 0,0.7064 0,0.7063 0.431211,0.1651 c 0.603525,0.231 0.504214,0.6575 -0.167477,0.7193 -0.642871,0.059 -0.970391,-0.2748 -0.970391,-0.9892 0,-0.2926 -0.05588,-0.532 -0.124186,-0.532 -0.132906,0 -0.3966513,0.6535 -0.4697214,1.1638 -0.033121,0.2313 -0.1713758,0.3221 -0.5429721,0.3565 -0.2741951,0.025 -0.5439627,0 -0.5994837,-0.065 z m 1.4294113,-4.0994 c -0.3133318,-0.2007 -0.4741182,-1.0279 -0.2559168,-1.3166 0.1047278,-0.1385 0.3374488,-0.199 0.6131598,-0.1593 0.244403,0.035 0.523868,0.069 0.621034,0.074 0.248275,0.015 0.22016,0.8043 -0.04335,1.2174 -0.23455,0.3677 -0.551077,0.43 -0.93493,0.184 z m -4.6884141,-1.5195 c -0.1366937,-0.1658 -0.233902,-0.5453 -0.233902,-0.913 0,-0.5213 0.054519,-0.6452 0.317996,-0.7227 0.6371514,-0.1875 1.1189278,-0.1001 1.3859592,0.2513 0.3559232,0.4685 0.3404912,0.7983 -0.059516,1.2722 -0.3997454,0.4736 -1.0687842,0.5268 -1.4105372,0.1122 z"
         id="path6386" />
      <path
         style="fill:#736ebf"
         d="m 8.8192478,1047.3973 c -0.3009315,-0.1332 -0.2043277,-0.647 0.1318173,-0.701 0.2013633,-0.032 0.3457589,-0.2036 0.4158332,-0.493 0.059043,-0.2439 0.2139608,-0.5728 0.3442611,-0.7309 0.1581698,-0.1919 0.2069607,-0.4184 0.1468003,-0.6816 -0.08099,-0.3543 -0.1594207,-0.3942 -0.7750145,-0.3942 -0.4466429,0 -0.8021592,-0.099 -1.0219611,-0.2839 -0.1853808,-0.1562 -0.4483545,-0.3286 -0.5843861,-0.3831 -0.1360316,-0.054 -0.2473302,-0.2061 -0.2473302,-0.3368 0,-0.1307 -0.095399,-0.2376 -0.2119974,-0.2376 -0.1233549,0 -0.2119973,0.1409 -0.2119973,0.337 0,0.3668 1.1484648,1.6803 1.4691578,1.6803 0.1057156,0 0.2770961,0.1123 0.3808452,0.2496 0.2957804,0.3913 -0.2122513,0.7238 -0.9087912,0.5948 l -0.5427696,-0.1005 0.1501816,0.3081 c 0.0826,0.1694 0.2473472,0.349 0.3661051,0.399 0.118758,0.05 0.2159236,0.202 0.2159236,0.3376 0,0.194 -0.1276469,0.2364 -0.5989718,0.1988 l -0.5989717,-0.048 -0.086606,-0.5898 c -0.1622147,-1.1047 -0.6775659,-1.0941 -0.7171388,0.015 l -0.023129,0.6481 -0.4624023,0.095 c -0.7637521,0.1573 -1.0751554,-0.2786 -0.4002773,-0.5603 0.4660205,-0.1946 0.4344087,-0.8242 -0.045133,-0.899 -0.4231637,-0.066 -0.4029625,-0.3967 0.043867,-0.7182 0.266514,-0.1917 0.3503039,-0.3698 0.317996,-0.676 -0.054519,-0.5166 -0.4763911,-0.645 -0.6092566,-0.1853 -0.1295886,0.4483 -0.6899287,0.3613 -0.7517566,-0.1166 -0.033841,-0.2617 0.025271,-0.3492 0.2358034,-0.3492 0.1688437,0 0.403406,-0.2175 0.5877877,-0.5451 0.380412,-0.6758 0.5688438,-0.785 1.589384,-0.9208 0.7102363,-0.095 0.82542,-0.072 0.9099805,0.1745 0.053248,0.1555 0.2878678,0.4805 0.5213768,0.7221 0.3794533,0.3926 0.5155193,0.4361 1.2806587,0.4089 1.4153364,-0.05 1.5733614,-0.014 2.0351674,0.4708 0.244018,0.256 0.512511,0.4655 0.59665,0.4655 0.302625,0 0.05223,0.5315 -0.292482,0.6209 -0.193922,0.05 -0.336687,0.1406 -0.317252,0.2008 0.01943,0.06 0.03533,0.352 0.03533,0.6485 0,0.4421 0.07632,0.5824 0.423995,0.7799 0.538963,0.306 0.537254,0.4911 -0.0057,0.622 -0.640745,0.1546 -1.124908,-0.2483 -1.124908,-0.936 0,-0.2967 -0.05339,-0.5395 -0.118646,-0.5395 -0.156654,0 -0.4466811,0.71 -0.4466811,1.0935 0,0.1953 -0.096398,0.3031 -0.271104,0.3031 -0.1491071,0 -0.3558045,0.029 -0.4593276,0.065 -0.103523,0.036 -0.2677225,0.03 -0.364888,-0.013 z m 1.3402332,-4.2033 c -0.12259,-0.1494 -0.2652289,-0.4578 -0.316975,-0.6855 -0.1173617,-0.5165 0.207161,-0.729 0.920051,-0.6027 l 0.49466,0.088 -0.02399,0.535 c -0.03691,0.8233 -0.63829,1.196 -1.073751,0.6655 z m -4.6775184,-1.4742 c -0.2947929,-0.5167 -0.2672649,-1.3257 0.051485,-1.513 0.4547328,-0.2672 1.0615982,-0.1781 1.3885206,0.204 0.4055315,0.474 0.3877226,0.8153 -0.066667,1.2776 -0.479978,0.4884 -1.1044861,0.5027 -1.3733386,0.031 z"
         id="path6384" />
      <path
         style="fill:#0402bf"
         d="m 8.7368045,1047.2415 c -0.1950314,-0.2141 -0.083099,-0.4974 0.2154212,-0.5452 0.21106,-0.034 0.3458696,-0.204 0.4234299,-0.5344 0.062583,-0.2667 0.2094405,-0.572 0.3263497,-0.6785 0.2319842,-0.2114 0.2883281,-0.8619 0.086518,-0.9988 -0.069325,-0.047 -0.3910262,-0.1118 -0.7148927,-0.1438 -0.7699143,-0.076 -1.6510448,-0.5525 -1.8340866,-0.9916 -0.1930957,-0.4632 -0.4342704,-0.4447 -0.4342704,0.033 0,0.4882 0.733309,1.409 1.4352672,1.8022 0.298856,0.1674 0.5433746,0.3745 0.5433746,0.4602 0,0.2773 -0.6782354,0.4627 -1.0795877,0.2952 -0.2051115,-0.086 -0.4045241,-0.121 -0.4431393,-0.079 -0.099201,0.1089 0.369704,0.8627 0.5366642,0.8627 0.07594,0 0.1380735,0.1047 0.1380735,0.2327 0,0.1671 -0.1553549,0.2328 -0.5502054,0.2328 -0.5950611,0 -0.7217787,-0.1641 -0.7217787,-0.9346 0,-0.542 -0.1817144,-0.6874 -0.572347,-0.4579 -0.2332644,0.1371 -0.2859873,0.2939 -0.2502511,0.7443 l 0.045274,0.5706 -0.6006591,0.048 c -0.6706451,0.053 -0.8139402,-0.1991 -0.2473302,-0.4356 0.2481151,-0.1036 0.3533289,-0.2642 0.3533289,-0.5393 0,-0.3145 -0.069742,-0.3918 -0.3533289,-0.3918 -0.206809,0 -0.3533289,-0.089 -0.3533289,-0.2149 0,-0.1182 0.158998,-0.3293 0.3533289,-0.4691 0.3918949,-0.282 0.471887,-0.8769 0.1565344,-1.1643 -0.1557375,-0.1419 -0.2546895,-0.092 -0.4742982,0.239 -0.1849419,0.2787 -0.3550078,0.3856 -0.5098634,0.3204 -0.3196095,-0.1347 -0.2926332,-0.585 0.04078,-0.6807 0.1502266,-0.043 0.4458772,-0.3521 0.6570016,-0.6866 0.3929753,-0.6226 0.4885798,-0.6711 1.6502124,-0.8365 0.5675546,-0.081 0.6874609,-0.052 0.7691324,0.1855 0.053216,0.1547 0.2684291,0.4711 0.4782525,0.7031 l 0.3814968,0.4218 1.3226729,0.058 1.322674,0.058 0.545302,0.5553 c 0.581721,0.5925 0.58057,0.8905 -0.0034,0.8905 -0.270307,0 -0.338716,0.061 -0.274322,0.2455 0.04718,0.135 0.08579,0.4688 0.08579,0.7418 0,0.4091 0.0746,0.5273 0.423995,0.6721 0.624198,0.2587 0.521564,0.5131 -0.207025,0.5131 -0.687118,0 -0.923627,-0.2534 -0.923627,-0.9893 0,-0.695 -0.262267,-0.5896 -0.5206395,0.2091 l -0.2523656,0.7802 -0.4379319,0 c -0.2408626,0 -0.4803316,-0.047 -0.532153,-0.1035 z m 1.3501905,-4.1251 c -0.1412554,-0.1891 -0.2214811,-0.618 -0.1887025,-1.0086 0.010405,-0.124 0.2472615,-0.194 0.6567025,-0.194 0.742559,0 0.896686,0.2283 0.630505,0.9338 -0.134021,0.3553 -0.26506,0.4628 -0.564116,0.4628 -0.214249,0 -0.454724,-0.087 -0.534389,-0.194 z m -4.3928719,-1.1861 c -0.2285737,-0.159 -0.4716866,-1.4346 -0.3086191,-1.6193 0.062457,-0.071 0.3655227,-0.1657 0.6734785,-0.2111 0.4877867,-0.072 0.5992354,-0.028 0.8651024,0.3435 0.3907067,0.5454 0.3847343,0.6298 -0.08302,1.174 -0.3897536,0.4534 -0.7885903,0.5622 -1.1469418,0.3129 z"
         id="path6382" />
    </g>
  </g>
</svg>
