<?xml version="1.0" encoding="UTF-8" standalone="no"?>
<!-- Created with Inkscape (http://www.inkscape.org/) -->

<svg
   xmlns:dc="http://purl.org/dc/elements/1.1/"
   xmlns:cc="http://creativecommons.org/ns#"
   xmlns:rdf="http://www.w3.org/1999/02/22-rdf-syntax-ns#"
   xmlns:svg="http://www.w3.org/2000/svg"
   xmlns="http://www.w3.org/2000/svg"
   xmlns:sodipodi="http://sodipodi.sourceforge.net/DTD/sodipodi-0.dtd"
   xmlns:inkscape="http://www.inkscape.org/namespaces/inkscape"
   width="32px"
   height="32px"
   id="svg3016"
   version="1.1"
   inkscape:version="0.47 r22583"
   sodipodi:docname="Nouveau document 2">
  <defs
     id="defs3018">
    <inkscape:perspective
       sodipodi:type="inkscape:persp3d"
       inkscape:vp_x="0 : 16 : 1"
       inkscape:vp_y="0 : 1000 : 0"
       inkscape:vp_z="32 : 16 : 1"
       inkscape:persp3d-origin="16 : 10.666667 : 1"
       id="perspective3024" />
    <inkscape:perspective
       id="perspective2949"
       inkscape:persp3d-origin="0.5 : 0.33333333 : 1"
       inkscape:vp_z="1 : 0.5 : 1"
       inkscape:vp_y="0 : 1000 : 0"
       inkscape:vp_x="0 : 0.5 : 1"
       sodipodi:type="inkscape:persp3d" />
  </defs>
  <sodipodi:namedview
     id="base"
     pagecolor="#ffffff"
     bordercolor="#666666"
     borderopacity="1.0"
     inkscape:pageopacity="0.0"
     inkscape:pageshadow="2"
     inkscape:zoom="9.6370903"
     inkscape:cx="21.469955"
     inkscape:cy="12.12421"
     inkscape:current-layer="layer1"
     showgrid="true"
     inkscape:grid-bbox="true"
     inkscape:document-units="px"
     inkscape:window-width="1280"
     inkscape:window-height="780"
     inkscape:window-x="-8"
     inkscape:window-y="-8"
     inkscape:window-maximized="1" />
  <metadata
     id="metadata3021">
    <rdf:RDF>
      <cc:Work
         rdf:about="">
        <dc:format>image/svg+xml</dc:format>
        <dc:type
           rdf:resource="http://purl.org/dc/dcmitype/StillImage" />
        <dc:title></dc:title>
      </cc:Work>
    </rdf:RDF>
  </metadata>
  <g
     id="layer1"
     inkscape:label="Layer 1"
     inkscape:groupmode="layer">
    <path
       style="fill:#010101"
       d="m 12.182336,13.919014 c 0.04662,-0.936765 0.357605,-1.810749 1.031883,-2.479492 0.311575,-0.308953 0.683746,-0.586006 1.087235,-0.76226 0.443839,-0.194023 0.931084,-0.264816 1.411483,-0.288851 0,0.598241 0,1.196483 0,1.794725 0,0.289434 0,0.578723 0,0.868158 0,0.154403 0,0.308661 0,0.46292 0,0.05506 0.03482,0.376249 -0.0075,0.403488 -0.05157,0.03306 -0.207425,0.0013 -0.263798,0.0013 -0.155131,0 -0.310409,0 -0.465687,0 -0.31041,0 -0.62082,0 -0.93123,0 -0.620528,0 -1.241347,0 -1.862313,0"
       id="path3" />
    <path
       style="fill:none;stroke:#ffffff;stroke-width:0.01765447;stroke-linecap:square;stroke-miterlimit:10"
       d="m 12.182336,13.919014 c 0.04662,-0.936765 0.357605,-1.810749 1.031883,-2.479492 0.311575,-0.308953 0.683746,-0.586006 1.087235,-0.76226 0.443839,-0.194023 0.931084,-0.264816 1.411483,-0.288851"
       id="path5" />
    <path
       style="fill:#010101"
       d="m 12.182336,13.919014 c 0.04662,-0.936765 0.357605,-1.810749 1.031883,-2.479492 0.311575,-0.308953 0.683746,-0.586006 1.087235,-0.76226 0.443839,-0.194023 0.931084,-0.264816 1.411483,-0.288851 0,0.598241 0,1.196483 0,1.794725 0,0.289434 0,0.578723 0,0.868158 0,0.154403 0,0.308661 0,0.46292 0,0.05506 0.03482,0.376249 -0.0075,0.403488 -0.05157,0.03306 -0.207425,0.0013 -0.263798,0.0013 -0.155131,0 -0.310409,0 -0.465687,0 -0.31041,0 -0.62082,0 -0.93123,0 -0.620528,0 -1.241347,0 -1.862313,0"
       id="path7" />
    <path
       style="fill:none;stroke:#010101;stroke-width:0.01765447;stroke-linecap:square;stroke-miterlimit:10"
       d="m 12.182336,13.919014 c 0.04662,-0.936765 0.357605,-1.810749 1.031883,-2.479492 0.311575,-0.308953 0.683746,-0.586006 1.087235,-0.76226 0.443839,-0.194023 0.931084,-0.264816 1.411483,-0.288851"
       id="path9" />
    <path
       style="fill:none;stroke:#010101;stroke-width:0.01765447;stroke-linecap:square;stroke-miterlimit:10"
       d="m 15.713229,10.388411 c 0,0.598241 0,1.196483 0,1.794725 0,0.289434 0,0.578723 0,0.868158 0,0.154403 0,0.308661 0,0.46292 0,0.05506 0.03466,0.376249 -0.0077,0.403488 -0.05157,0.03306 -0.207426,0.0013 -0.263798,0.0013 -0.155132,0 -0.31041,0 -0.465687,0 -0.31041,0 -0.62082,0 -0.931229,0 -0.620966,0 -1.24164,0 -1.862605,0"
       id="path11" />
    <path
       style="fill:#ffffff"
       d="m 15.713229,17.449618 c -0.937056,-0.04661 -1.810894,-0.357316 -2.479637,-1.031595 -0.308953,-0.311721 -0.586151,-0.683894 -0.762405,-1.087236 -0.194024,-0.443835 -0.264671,-0.931083 -0.288706,-1.411628 0.598096,0 1.196629,0 1.794725,0 0.289434,0 0.578869,0 0.868303,0 0.154404,0 0.308516,0 0.463065,0 0.05506,0 0.376251,-0.03481 0.403489,0.0075 0.03321,0.05171 0.0015,0.207426 0.0015,0.263797 0,0.155132 0,0.31041 0,0.465542 0,0.31041 0,0.620818 0,0.931231 -2.9e-4,0.620672 -2.9e-4,1.241349 -2.9e-4,1.862314"
       id="path13" />
    <path
       style="fill:none;stroke:#ffffff;stroke-width:0.01765447;stroke-linecap:square;stroke-miterlimit:10"
       d="m 15.713229,17.449618 c -0.937056,-0.04661 -1.810894,-0.357316 -2.479637,-1.031595 -0.308953,-0.311721 -0.586151,-0.683894 -0.762405,-1.087236 -0.194024,-0.443835 -0.264671,-0.931083 -0.288706,-1.411628"
       id="path15" />
    <path
       style="fill:#ffffff"
       d="m 15.713229,17.449618 c -0.937056,-0.04661 -1.810894,-0.357316 -2.479637,-1.031595 -0.308953,-0.311721 -0.586151,-0.683894 -0.762405,-1.087236 -0.194024,-0.443835 -0.264671,-0.931083 -0.288706,-1.411628 0.598096,0 1.196629,0 1.794725,0 0.289434,0 0.578869,0 0.868303,0 0.154404,0 0.308516,0 0.463065,0 0.05506,0 0.376251,-0.03481 0.403489,0.0075 0.03321,0.05171 0.0015,0.207426 0.0015,0.263797 0,0.155132 0,0.31041 0,0.465542 0,0.31041 0,0.620818 0,0.931231 -2.9e-4,0.620672 -2.9e-4,1.241349 -2.9e-4,1.862314"
       id="path17" />
    <path
       style="fill:none;stroke:#010101;stroke-width:0.01765447;stroke-linecap:square;stroke-miterlimit:10"
       d="m 15.713229,17.449618 c -0.937056,-0.04661 -1.810894,-0.357316 -2.479637,-1.031595 -0.308953,-0.311721 -0.586151,-0.683894 -0.762405,-1.087236 -0.194024,-0.443835 -0.264671,-0.931083 -0.288706,-1.411628"
       id="path19" />
    <path
       style="fill:none;stroke:#010101;stroke-width:0.01765447;stroke-linecap:square;stroke-miterlimit:10"
       d="m 12.182336,13.919014 c 0.598096,0 1.196629,0 1.794725,0 0.168387,0 1.7334,-0.04443 1.739955,0.02651 0.02257,0.247047 -0.0038,0.511281 -0.0038,0.760075 0,0.306767 0,0.613685 0,0.920452 0,0.613683 0,1.227361 0,1.841046"
       id="path21" />
    <line
       style="fill:none;stroke:#010101;stroke-width:0.01765447;stroke-linecap:square;stroke-miterlimit:10"
       x1="15.677979"
       y1="0.62630749"
       x2="15.713228"
       y2="26.276125"
       id="line23" />
    <path
       style="fill:#ffffff"
       d="m 15.713229,10.388411 c 0.936765,0.04676 1.810748,0.357605 2.479491,1.031738 0.308953,0.31143 0.586152,0.683892 0.762405,1.08709 0.194025,0.443837 0.264672,0.931229 0.28856,1.411628 -0.598095,0 -1.196629,0 -1.794725,0 -0.289288,0 -0.578869,0 -0.868303,0 -0.154403,0 -0.308516,0 -0.463065,0 -0.05521,0 -0.37625,0.03482 -0.403489,-0.0075 -0.03321,-0.05171 -0.0015,-0.207425 -0.0015,-0.263798 0,-0.155131 0,-0.310409 0,-0.465542 0,-0.310409 0,-0.620819 0,-0.931228 5.66e-4,-0.620675 5.66e-4,-1.241495 5.66e-4,-1.862314"
       id="path25" />
    <path
       style="fill:none;stroke:#ffffff;stroke-width:0.01765447;stroke-linecap:square;stroke-miterlimit:10"
       d="m 15.713229,10.388411 c 0.936765,0.04676 1.810748,0.357605 2.479491,1.031738 0.308953,0.31143 0.586152,0.683892 0.762405,1.08709 0.194025,0.443837 0.264672,0.931229 0.28856,1.411628"
       id="path27" />
    <path
       style="fill:#ffffff"
       d="m 15.713229,10.388411 c 0.936765,0.04676 1.810748,0.357605 2.479491,1.031738 0.308953,0.31143 0.586152,0.683892 0.762405,1.08709 0.194025,0.443837 0.264672,0.931229 0.28856,1.411628 -0.598095,0 -1.196629,0 -1.794725,0 -0.289288,0 -0.578869,0 -0.868303,0 -0.154403,0 -0.308516,0 -0.463065,0 -0.05521,0 -0.37625,0.03482 -0.403489,-0.0075 -0.03321,-0.05171 -0.0015,-0.207425 -0.0015,-0.263798 0,-0.155131 0,-0.310409 0,-0.465542 0,-0.310409 0,-0.620819 0,-0.931228 5.66e-4,-0.620675 5.66e-4,-1.241495 5.66e-4,-1.862314"
       id="path29" />
    <path
       style="fill:none;stroke:#010101;stroke-width:0.01765447;stroke-linecap:square;stroke-miterlimit:10"
       d="m 15.713229,10.388411 c 0.936765,0.04676 1.810748,0.357605 2.479491,1.031738 0.308953,0.31143 0.586152,0.683892 0.762405,1.08709 0.194025,0.443837 0.264672,0.931229 0.28856,1.411628"
       id="path31" />
    <path
       style="fill:none;stroke:#010101;stroke-width:0.01765447;stroke-linecap:square;stroke-miterlimit:10"
       d="m 19.244122,13.919014 c -0.598095,0 -1.196628,0 -1.794725,0 -0.289288,0 -0.578869,0 -0.868157,0 -0.154549,0 -0.308661,0 -0.463211,0 -0.05521,0 -0.37625,0.03482 -0.403489,-0.0075 -0.03321,-0.05171 -0.0013,-0.207425 -0.0013,-0.263797 0,-0.155132 0,-0.310409 0,-0.465541 0,-0.310411 0,-0.62082 0,-0.93123 0,-0.62082 0,-1.24164 0,-1.862459"
       id="path33" />
    <path
       style="fill:#010101"
       d="m 19.244122,13.919014 c -0.04457,0.936762 -0.345952,1.86071 -1.050091,2.514597 -0.324685,0.301525 -0.703848,0.576391 -1.114766,0.746816 -0.432039,0.17917 -0.901514,0.246028 -1.365744,0.269335 0,-0.598096 0,-1.196485 0,-1.794581 0,-0.289434 0,-0.578867 0,-0.868156 0,-0.154404 0,-0.308662 0,-0.46292 0,-0.05506 -0.03482,-0.37625 0.0075,-0.403489 0.05157,-0.03306 0.207425,-0.0013 0.263797,-0.0013 0.155278,0 0.310556,0 0.465688,0 0.310409,0 0.62082,0 0.931375,0 0.620674,-2.91e-4 1.241347,-2.91e-4 1.862167,-2.91e-4"
       id="path35" />
    <path
       style="fill:none;stroke:#ffffff;stroke-width:0.01765447;stroke-linecap:square;stroke-miterlimit:10"
       d="m 19.244122,13.919014 c -0.04457,0.936762 -0.345952,1.86071 -1.050091,2.514597 -0.324685,0.301525 -0.703848,0.576391 -1.114766,0.746816 -0.432039,0.17917 -0.901514,0.246028 -1.365744,0.269335"
       id="path37" />
    <path
       style="fill:#010101"
       d="m 19.244122,13.919014 c -0.04457,0.936762 -0.345952,1.86071 -1.050091,2.514597 -0.324685,0.301525 -0.703848,0.576391 -1.114766,0.746816 -0.432039,0.17917 -0.901514,0.246028 -1.365744,0.269335 0,-0.598096 0,-1.196485 0,-1.794581 0,-0.289434 0,-0.578867 0,-0.868156 0,-0.154404 0,-0.308662 0,-0.46292 0,-0.05506 -0.03482,-0.37625 0.0075,-0.403489 0.05157,-0.03306 0.207425,-0.0013 0.263797,-0.0013 0.155278,0 0.310556,0 0.465688,0 0.310409,0 0.62082,0 0.931375,0 0.620674,-2.91e-4 1.241347,-2.91e-4 1.862167,-2.91e-4"
       id="path39" />
    <path
       style="fill:none;stroke:#010101;stroke-width:0.01765447;stroke-linecap:square;stroke-miterlimit:10"
       d="m 19.244122,13.919014 c -0.04457,0.936762 -0.345952,1.86071 -1.050091,2.514597 -0.324685,0.301525 -0.703848,0.576391 -1.114766,0.746816 -0.432039,0.17917 -0.901514,0.246028 -1.365744,0.269335"
       id="path41" />
    <path
       style="fill:none;stroke:#010101;stroke-width:0.01765447;stroke-linecap:square;stroke-miterlimit:10"
       d="m 15.713229,17.467096 c 0,-0.59635 0,-1.192845 0,-1.789483 0,-0.290598 0,-0.581051 0,-0.871504 0,-0.15528 0,-0.310704 0,-0.465981 0,-0.05958 -0.03758,-0.39038 0.009,-0.420532 0.05769,-0.03715 0.239763,-5.67e-4 0.307204,-5.67e-4 0.153093,0 0.306187,0 0.458987,0 0.306332,0 0.612372,0 0.918703,0 0.612371,0 1.224451,0 1.836676,0"
       id="path43" />
    <path
       style="fill:#ffffff"
       d="m 13.947928,13.919014 c 0.02549,-0.255204 0.06147,-0.47705 0.151782,-0.718124 0.07488,-0.199996 0.209901,-0.385135 0.360227,-0.535315 0.148431,-0.148286 0.330947,-0.283462 0.528177,-0.357896 0.243987,-0.09192 0.466998,-0.128185 0.72526,-0.153967 0,0.364015 0,0.728028 0,1.092042 0,0.140421 -0.0098,0.284774 0.002,0.424611 0.0045,0.05419 0.04136,0.20524 -0.002,0.248649 -0.03962,0.03962 -0.176835,0.0064 -0.225924,0.0021 -0.15688,-0.01355 -0.318858,-0.0021 -0.476467,-0.0021 -0.354255,0 -0.708655,0 -1.063055,0"
       id="path45" />
    <path
       style="fill:none;stroke:#ffffff;stroke-width:0.01765447;stroke-linecap:square;stroke-miterlimit:10"
       d="m 13.947928,13.919014 c 0.02549,-0.255204 0.06147,-0.47705 0.151782,-0.718124 0.07488,-0.199996 0.209901,-0.385135 0.360227,-0.535315 0.148431,-0.148286 0.330947,-0.283462 0.528177,-0.357896 0.243987,-0.09192 0.466998,-0.128185 0.72526,-0.153967"
       id="path47" />
    <path
       style="fill:#ffffff"
       d="m 13.947928,13.919014 c 0.02549,-0.255204 0.06147,-0.47705 0.151782,-0.718124 0.07488,-0.199996 0.209901,-0.385135 0.360227,-0.535315 0.148431,-0.148286 0.330947,-0.283462 0.528177,-0.357896 0.243987,-0.09192 0.466998,-0.128185 0.72526,-0.153967 0,0.364015 0,0.728028 0,1.092042 0,0.140421 -0.0098,0.284774 0.002,0.424611 0.0045,0.05419 0.04136,0.20524 -0.002,0.248649 -0.03962,0.03962 -0.176835,0.0064 -0.225924,0.0021 -0.15688,-0.01355 -0.318858,-0.0021 -0.476467,-0.0021 -0.354255,0 -0.708655,0 -1.063055,0"
       id="path49" />
    <path
       style="fill:none;stroke:#010101;stroke-width:0.01765447;stroke-linecap:square;stroke-miterlimit:10"
       d="m 13.947928,13.919014 c 0.02549,-0.255204 0.06147,-0.47705 0.151782,-0.718124 0.07488,-0.199996 0.209901,-0.385135 0.360227,-0.535315 0.148431,-0.148286 0.330947,-0.283462 0.528177,-0.357896 0.243987,-0.09192 0.466998,-0.128185 0.72526,-0.153967"
       id="path51" />
    <path
       style="fill:none;stroke:#010101;stroke-width:0.01765447;stroke-linecap:square;stroke-miterlimit:10"
       d="m 15.713229,12.153712 c 0,0.364015 0,0.728028 0,1.092042 0,0.140421 -0.0098,0.284774 0.002,0.424611 0.0045,0.05419 0.04137,0.20524 -0.002,0.248649 -0.03962,0.03962 -0.176836,0.0064 -0.225924,0.0021 -0.156881,-0.01355 -0.31886,-0.0021 -0.476467,-0.0021 -0.354547,0 -0.708801,0 -1.063202,0"
       id="path53" />
    <path
       style="fill:#010101"
       d="m 15.713229,12.153712 c 0.302544,0.0303 0.565176,0.08434 0.840336,0.222138 0.233061,0.116822 0.434951,0.286958 0.584257,0.501229 0.158046,0.226944 0.268896,0.507348 0.32352,0.7777 0.01515,0.07414 0.04662,0.178001 0.02389,0.252582 -0.01617,0.05346 -0.175526,0.02461 -0.213689,0.02141 -0.267003,-0.02301 -0.537937,-0.0098 -0.806104,-0.0098 -0.164747,0 -0.329347,0 -0.494093,0 -0.08725,0 -0.250542,0.0485 -0.267002,-0.06963 -0.0102,-0.07283 10e-4,-0.147995 0.0068,-0.220682 0.01194,-0.144789 0.0021,-0.293803 0.0021,-0.439176 -1.46e-4,-0.345224 -1.46e-4,-0.690447 -1.46e-4,-1.035816"
       id="path55" />
    <path
       style="fill:none;stroke:#ffffff;stroke-width:0.01765447;stroke-linecap:square;stroke-miterlimit:10"
       d="m 15.713229,12.153712 c 0.255203,0.02549 0.477049,0.06147 0.718269,0.151782 0.213252,0.07997 0.411501,0.227527 0.566924,0.392711 0.304145,0.322935 0.4804,0.777698 0.4804,1.220809"
       id="path57" />
    <path
       style="fill:#010101"
       d="m 15.713229,12.153712 c 0.302544,0.0303 0.565176,0.08434 0.840336,0.222138 0.233061,0.116822 0.434951,0.286958 0.584257,0.501229 0.158046,0.226944 0.268896,0.507348 0.32352,0.7777 0.01515,0.07414 0.04662,0.178001 0.02389,0.252582 -0.01617,0.05346 -0.175526,0.02461 -0.213689,0.02141 -0.267003,-0.02301 -0.537937,-0.0098 -0.806104,-0.0098 -0.164747,0 -0.329347,0 -0.494093,0 -0.08725,0 -0.250542,0.0485 -0.267002,-0.06963 -0.0102,-0.07283 10e-4,-0.147995 0.0068,-0.220682 0.01194,-0.144789 0.0021,-0.293803 0.0021,-0.439176 -1.46e-4,-0.345224 -1.46e-4,-0.690447 -1.46e-4,-1.035816"
       id="path59" />
    <path
       style="fill:none;stroke:#010101;stroke-width:0.01765447;stroke-linecap:square;stroke-miterlimit:10"
       d="m 15.713229,12.153712 c 0.255203,0.02549 0.477049,0.06147 0.718269,0.151782 0.213252,0.07997 0.411501,0.227527 0.566924,0.392711 0.304145,0.322935 0.4804,0.777698 0.4804,1.220809"
       id="path61" />
    <path
       style="fill:none;stroke:#010101;stroke-width:0.01765447;stroke-linecap:square;stroke-miterlimit:10"
       d="m 17.478822,13.919014 c -0.364161,0 -0.728175,0 -1.092189,0 -0.14042,0 -0.284627,-0.0098 -0.424756,0.002 -0.05389,0.0047 -0.204949,0.04137 -0.248503,-0.002 -0.03962,-0.03962 -0.0065,-0.176691 -0.0023,-0.225779 0.01355,-0.156881 0.0023,-0.318859 0.0023,-0.476322 0,-0.3544 0,-0.7088 0,-1.063201"
       id="path63" />
    <path
       style="fill:#ffffff"
       d="m 17.478822,13.919014 c 0,0.510551 -0.234956,1.027514 -0.630143,1.353072 -0.219807,0.180917 -0.499335,0.301376 -0.77333,0.37261 -0.09803,0.02549 -0.203638,0.04923 -0.305894,0.05026 -0.08959,5.16e-4 -0.07443,-0.08405 -0.07079,-0.153818 0.01486,-0.271081 0.01471,-0.540997 0.01471,-0.812805 0,-0.165475 0,-0.330949 0,-0.496424 0,-0.07371 -0.04792,-0.292929 0.04647,-0.317401 0.07763,-0.0201 0.165037,-0.004 0.24355,0.0025 0.144791,0.01194 0.294096,0.002 0.439322,0.002 0.34537,0 0.690738,0 1.036108,0"
       id="path65" />
    <path
       style="fill:none;stroke:#ffffff;stroke-width:0.01765447;stroke-linecap:square;stroke-miterlimit:10"
       d="m 17.478822,13.919014 c 0,0.958175 -0.807416,1.765298 -1.765448,1.765298"
       id="path67" />
    <path
       style="fill:#ffffff"
       d="m 17.478822,13.919014 c 0,0.510551 -0.234956,1.027514 -0.630143,1.353072 -0.219807,0.180917 -0.499335,0.301376 -0.77333,0.37261 -0.09803,0.02549 -0.203638,0.04923 -0.305894,0.05026 -0.08959,5.16e-4 -0.07443,-0.08405 -0.07079,-0.153818 0.01486,-0.271081 0.01471,-0.540997 0.01471,-0.812805 0,-0.165475 0,-0.330949 0,-0.496424 0,-0.07371 -0.04792,-0.292929 0.04647,-0.317401 0.07763,-0.0201 0.165037,-0.004 0.24355,0.0025 0.144791,0.01194 0.294096,0.002 0.439322,0.002 0.34537,0 0.690738,0 1.036108,0"
       id="path69" />
    <path
       style="fill:none;stroke:#010101;stroke-width:0.01765447;stroke-linecap:square;stroke-miterlimit:10"
       d="m 17.478822,13.919014 c 0,0.958175 -0.807416,1.765298 -1.765448,1.765298"
       id="path71" />
    <path
       style="fill:none;stroke:#010101;stroke-width:0.01765447;stroke-linecap:square;stroke-miterlimit:10"
       d="m 15.713229,15.684312 c 0,-0.36401 0,-0.728026 0,-1.09204 0,-0.140274 0.0096,-0.284628 -0.0022,-0.42461 -0.0045,-0.05419 -0.04136,-0.205241 0.0022,-0.248648 0.03948,-0.03962 0.176545,-0.0064 0.225779,-0.0022 0.156734,0.01355 0.318712,0.0022 0.476467,0.0022 0.354545,0 0.7088,0 1.063347,0"
       id="path73" />
    <path
       style="fill:#010101"
       d="m 15.713229,15.684312 c -0.44311,0 -0.897872,-0.176106 -1.220955,-0.480252 -0.163144,-0.15353 -0.311138,-0.349154 -0.390671,-0.559931 -0.09192,-0.243842 -0.128184,-0.466853 -0.153967,-0.725115 0.364015,0 0.728174,0 1.092188,0 0.140421,0 0.284773,0.0098 0.424611,-0.002 0.05404,-0.0047 0.205095,-0.04137 0.248648,0.002 0.03948,0.03962 0.0064,0.176689 0.0022,0.225779 -0.01355,0.156879 -0.0022,0.319003 -0.0022,0.476466 1.46e-4,0.354256 1.46e-4,0.708657 1.46e-4,1.063053"
       id="path75" />
    <path
       style="fill:none;stroke:#ffffff;stroke-width:0.01765447;stroke-linecap:square;stroke-miterlimit:10"
       d="m 15.713229,15.684312 c -0.44311,0 -0.897872,-0.176106 -1.220955,-0.480252 -0.163144,-0.15353 -0.311138,-0.349154 -0.390671,-0.559931 -0.09192,-0.243842 -0.128184,-0.466853 -0.153967,-0.725115"
       id="path77" />
    <path
       style="fill:#010101"
       d="m 15.713229,15.684312 c -0.44311,0 -0.897872,-0.176106 -1.220955,-0.480252 -0.163144,-0.15353 -0.311138,-0.349154 -0.390671,-0.559931 -0.09192,-0.243842 -0.128184,-0.466853 -0.153967,-0.725115 0.364015,0 0.728174,0 1.092188,0 0.140421,0 0.284773,0.0098 0.424611,-0.002 0.05404,-0.0047 0.205095,-0.04137 0.248648,0.002 0.03948,0.03962 0.0064,0.176689 0.0022,0.225779 -0.01355,0.156879 -0.0022,0.319003 -0.0022,0.476466 1.46e-4,0.354256 1.46e-4,0.708657 1.46e-4,1.063053"
       id="path79" />
    <path
       style="fill:none;stroke:#010101;stroke-width:0.01765447;stroke-linecap:square;stroke-miterlimit:10"
       d="m 15.713229,15.684312 c -0.44311,0 -0.897872,-0.176106 -1.220955,-0.480252 -0.163144,-0.15353 -0.311138,-0.349154 -0.390671,-0.559931 -0.09192,-0.243842 -0.128184,-0.466853 -0.153967,-0.725115"
       id="path81" />
    <path
       style="fill:none;stroke:#010101;stroke-width:0.01765447;stroke-linecap:square;stroke-miterlimit:10"
       d="m 13.947928,13.919014 c 0.364014,0 0.728174,0 1.092188,0 0.14042,0 0.284773,0.0098 0.42461,-0.002 0.05419,-0.0047 0.205096,-0.04137 0.248648,0.002 0.03948,0.03962 0.0064,0.176689 0.0022,0.225779 -0.01355,0.156879 -0.0022,0.319003 -0.0022,0.476466 0,0.354401 0,0.708802 0,1.063053"
       id="path83" />
    <path
       style="fill:#010101"
       d="M 15.677978,0.67918261 C 15.20122,2.1921934 14.724316,3.7052051 14.247558,5.2183622 c -0.08478,0.2688956 -0.174214,0.5341491 -0.268166,0.7994035 -0.04967,0.140129 -0.0185,0.1714463 0.06424,0.2974459 0.11522,0.1750883 0.230441,0.3501756 0.34566,0.5252639 0.441216,0.6706369 0.882724,1.3414183 1.32394,2.0120552 0,-1.363705 0,-2.7272654 0,-4.0909713 0,-0.6763171 0,-1.3524898 0,-2.028807 0,-0.3478457 0,-0.6955451 0,-1.0433899 0,-0.1739233 0,-0.3478457 0,-0.521769 0,-0.1645992 0.01734,-0.33065597 -0.03525,-0.48841089"
       id="path85" />
    <path
       style="fill:none;stroke:#010101;stroke-width:0.01765447;stroke-linecap:square;stroke-miterlimit:10"
       d="M 15.677978,0.67918261 C 15.20122,2.1921934 14.724316,3.7052051 14.247558,5.2183622 c -0.08478,0.2688956 -0.174214,0.5341491 -0.268166,0.7994035 -0.04967,0.140129 -0.0185,0.1714463 0.06424,0.2974459 0.11522,0.1750883 0.230441,0.3501756 0.34566,0.5252639 0.441216,0.6706369 0.882724,1.3414183 1.32394,2.0120552 0,-2.6891011 0,-5.3783486 0,-8.06745059"
       id="path87" />
    <path
       style="fill:#ffffff"
       d="m 15.677978,0.67918261 c 0.472534,1.45503699 0.944922,2.91007389 1.417456,4.36496549 0.112016,0.3440574 0.223448,0.6881157 0.335464,1.0320286 0.02214,0.069188 0.0418,0.075013 -0.0017,0.1418763 -0.05157,0.079245 -0.103275,0.1584828 -0.154695,0.2377237 -0.103276,0.1584828 -0.206552,0.3169646 -0.309828,0.4755928 -0.417181,0.6403383 -0.834508,1.2808229 -1.251398,1.9211612 0,-1.363705 0,-2.7272654 0,-4.0909713 0,-0.6763171 0,-1.3524898 0,-2.028807 0,-0.3478457 0,-0.6955451 0,-1.0433899 0,-0.1739233 0,-0.3478457 0,-0.521769 0,-0.1645992 0.01734,-0.33065597 -0.03525,-0.48841089"
       id="path89" />
    <path
       style="fill:none;stroke:#010101;stroke-width:0.01765447;stroke-linecap:square;stroke-miterlimit:10"
       d="m 15.677978,0.67918261 c 0.472534,1.45503699 0.944922,2.91007389 1.417456,4.36496549 0.112016,0.3440574 0.223448,0.6881157 0.335464,1.0320286 0.02214,0.069188 0.0418,0.075013 -0.0017,0.1418763 -0.05157,0.079245 -0.103275,0.1584828 -0.154695,0.2377237 -0.103276,0.1584828 -0.206552,0.3169646 -0.309828,0.4755928 -0.417181,0.6403383 -0.834508,1.2808229 -1.251398,1.9211612 0,-2.6891011 0,-5.3783486 0,-8.06745059"
       id="path91" />
    <path
       style="fill:#ffffff"
       d="m 15.677978,24.56384 c -0.237432,0.470206 -0.475009,0.940118 -0.712588,1.410174 -0.03817,0.07575 -0.08798,0.14406 -0.126145,0.219662 -0.0472,0.09366 -0.02666,0.210191 -0.02666,0.311865 0,0.286231 0,0.572168 0,0.858104 0,1.108798 0,2.217735 0,3.326384 0.191256,-0.183826 0.382512,-0.367363 0.57377,-0.551338 0.0826,-0.07938 0.162414,-0.163871 0.251998,-0.235538 0.103421,-0.08288 0.07443,-0.193734 0.07443,-0.316093 0,-0.556579 0,-1.113309 0,-1.669744 0,-1.135453 0,-2.270611 0,-3.406058 -0.01224,0.01658 -0.02404,0.03435 -0.03482,0.05258"
       id="path93" />
    <path
       style="fill:none;stroke:#010101;stroke-width:0.01765447;stroke-linecap:square;stroke-miterlimit:10"
       d="m 15.677978,24.56384 c -0.237432,0.470206 -0.475009,0.940118 -0.712588,1.410174 -0.03817,0.07575 -0.08798,0.14406 -0.126145,0.219662 -0.0472,0.09366 -0.02666,0.210191 -0.02666,0.311865 0,0.286231 0,0.572168 0,0.858104 0,1.108798 0,2.217735 0,3.326384 0.191256,-0.183826 0.382512,-0.367363 0.57377,-0.551338 0.0826,-0.07938 0.162414,-0.163871 0.251998,-0.235538 0.103421,-0.08288 0.07443,-0.193734 0.07443,-0.316093 0,-0.556579 0,-1.113309 0,-1.669744 0,-1.135453 0,-2.270611 0,-3.406058"
       id="path95" />
    <path
       style="fill:#010101"
       d="m 15.677978,24.56384 c 0.251853,0.470206 0.503706,0.939968 0.755704,1.409881 0.04822,0.09002 0.156299,0.222869 0.167805,0.324394 0.0099,0.08958 -0.0057,0.190674 -0.0057,0.280844 0,0.282296 0,0.564155 0,0.846451 0,1.088256 0,2.176218 0,3.264619 -0.190382,-0.186596 -0.380328,-0.373043 -0.570711,-0.55935 -0.08478,-0.08303 -0.167659,-0.168094 -0.25797,-0.245591 -0.09512,-0.08186 -0.05434,-0.255785 -0.05434,-0.369257 0,-0.560514 0,-1.120735 0,-1.681105 0,-1.107773 0,-2.215695 0,-3.323468 -0.01224,0.01658 -0.02403,0.03435 -0.03482,0.05258"
       id="path97" />
    <path
       style="fill:none;stroke:#010101;stroke-width:0.01765447;stroke-linecap:square;stroke-miterlimit:10"
       d="m 15.677978,24.56384 c 0.251853,0.470206 0.503706,0.939968 0.755704,1.409881 0.04822,0.09002 0.156299,0.222869 0.167805,0.324394 0.0099,0.08958 -0.0057,0.190674 -0.0057,0.280844 0,0.282296 0,0.564155 0,0.846451 0,1.088256 0,2.176218 0,3.264619 -0.190382,-0.186596 -0.380328,-0.373043 -0.570711,-0.55935 -0.08478,-0.08303 -0.167659,-0.168094 -0.25797,-0.245591 -0.09512,-0.08186 -0.05434,-0.255785 -0.05434,-0.369257 0,-0.560514 0,-1.120735 0,-1.681105 0,-1.107773 0,-2.215695 0,-3.323468"
       id="path99" />
    <path
       style="fill:#010101"
       d="m 13.947928,19.003265 c 0,0.908509 0,1.817594 0,2.726103 0,0.444859 0,0.889425 0,1.334134 0,0.03187 -0.02083,0.124544 0.03336,0.124544 0.0906,0 0.181205,-0.0016 0.271663,-0.0016 0.107499,0 0.215145,0 0.322645,0 0.04486,0 0.182954,0.02796 0.221846,-5.15e-4 0.03947,-0.029 0.01529,-0.162125 0.01529,-0.204512 0,-0.109543 0,-0.219079 0,-0.328617 0,-0.231753 0,-0.463505 0,-0.695253 0,-0.463795 0,-0.927151 0,-1.390945 0,-0.441801 0,-0.883601 0,-1.325834 0,-0.05229 0.03059,-0.208301 -0.02767,-0.240347 -0.04617,-0.02565 -0.12163,0.0026 -0.171448,0.0026 -0.221846,0 -0.443692,0 -0.665683,0"
       id="path101" />
    <path
       style="fill:none;stroke:#010101;stroke-width:0.01765447;stroke-linecap:square;stroke-miterlimit:10"
       d="m 13.947928,19.003265 c 0,0.891175 0,1.782783 0,2.674391 0,0.445879 0,0.89132 0,1.337193 0,0.02358 -0.02171,0.179753 0.01574,0.187765 0.08857,0.01936 0.197375,0.002 0.287978,0.002 0.116386,0 0.232772,0 0.349011,0 0.05594,0 0.154404,0.02739 0.206552,0.0031 0.07138,-0.03275 0.02331,-0.476611 0.02331,-0.557604 0,-0.229709 0,-0.459423 0,-0.689136 0,-0.459278 0,-0.919138 0,-1.378416 0,-0.444127 0,-0.888111 0,-1.33195 0,-0.05434 0.0303,-0.209759 -0.02433,-0.247341 -0.0418,-0.02868 -0.124543,0 -0.171155,0 -0.228984,0 -0.458113,0 -0.687097,0"
       id="path103" />
    <path
       style="fill:#010101"
       d="m 16.384158,19.003265 c 0,0.908509 0,1.817594 0,2.726103 0,0.444859 0,0.889425 0,1.334134 0,0.03187 -0.02069,0.124544 0.03336,0.124544 0.09032,0 0.180915,-0.0016 0.271517,-0.0016 0.107501,0 0.215292,0 0.322646,0 0.04502,0 0.183099,0.02796 0.221846,-5.15e-4 0.03948,-0.029 0.01529,-0.162125 0.01529,-0.204512 0,-0.109543 0,-0.219079 0,-0.328617 0,-0.231753 0,-0.463505 0,-0.695253 0,-0.463795 0,-0.927151 0,-1.390945 0,-0.441801 0,-0.883601 0,-1.325834 0,-0.05229 0.03059,-0.208301 -0.02783,-0.240347 -0.04603,-0.02565 -0.121482,0.0026 -0.1713,0.0026 -0.221555,0 -0.443401,0 -0.665538,0"
       id="path105" />
    <path
       style="fill:none;stroke:#010101;stroke-width:0.01765447;stroke-linecap:square;stroke-miterlimit:10"
       d="m 16.384158,19.003265 c 0,0.891175 0,1.782783 0,2.674391 0,0.445879 0,0.89132 0,1.337193 0,0.02358 -0.02171,0.179753 0.01573,0.187765 0.08842,0.01936 0.197229,0.002 0.287977,0.002 0.116386,0 0.232771,0 0.349011,0 0.05608,0 0.154258,0.02739 0.206551,0.0031 0.07123,-0.03275 0.02316,-0.476611 0.02316,-0.557604 0,-0.229709 0,-0.459423 0,-0.689136 0,-0.459278 0,-0.919138 0,-1.378416 0,-0.444127 0,-0.888111 0,-1.33195 0,-0.05434 0.03015,-0.209759 -0.02433,-0.247341 -0.04152,-0.02868 -0.124542,0 -0.171155,0 -0.228692,0 -0.457968,0 -0.68695,0"
       id="path107" />
    <path
       style="fill:#010101"
       d="m 14.81288,18.985498 c 0.436556,0.676752 0.872818,1.353508 1.309374,2.030264 0.07793,0.120897 0.221262,0.268309 0.261904,0.405964 0.0434,0.147412 0,0.34595 0,0.498167 0,0.422284 0,0.844999 0,1.267134 -0.439324,-0.676319 -0.8785,-1.351907 -1.317677,-2.02808 -0.07545,-0.116093 -0.164746,-0.227237 -0.23583,-0.345075 -0.03671,-0.06118 -0.01777,-0.151347 -0.01777,-0.219518 0,-0.115656 0,-0.23146 0,-0.347119 0,-0.420677 0,-0.841209 0,-1.261737"
       id="path109" />
    <path
       style="fill:none;stroke:#010101;stroke-width:0.01765447;stroke-linecap:square;stroke-miterlimit:10"
       d="m 14.81288,18.985498 c 0.436556,0.676752 0.872818,1.353508 1.309374,2.030264 0.07793,0.120897 0.221262,0.268309 0.261904,0.405964 0.0434,0.147412 0,0.34595 0,0.498167 0,0.422284 0,0.844999 0,1.267134 -0.439324,-0.676319 -0.8785,-1.351907 -1.317677,-2.02808 -0.07545,-0.116093 -0.164746,-0.227237 -0.23583,-0.345075 -0.03671,-0.06118 -0.01777,-0.151347 -0.01777,-0.219518 0,-0.115656 0,-0.23146 0,-0.347119 0,-0.414848 0,-0.829406 0,-1.24397"
       id="path111" />
    <path
       style="fill:#010101"
       d="m 13.947928,22.939834 c -0.07648,0.08215 -0.153093,0.164747 -0.229566,0.247048 0.441361,0 0.882722,0 1.324085,0 -0.06336,-0.05841 -0.175526,-0.211798 -0.263216,-0.220974 -0.08098,-0.0083 -0.1646,0.009 -0.24588,0.009 -0.04268,1.45e-4 -0.599115,0.0258 -0.585423,-0.03512"
       id="path113" />
    <path
       style="fill:none;stroke:#010101;stroke-width:0.01765447;stroke-linecap:square;stroke-miterlimit:10"
       d="m 13.947928,22.939834 c -0.07648,0.08215 -0.153093,0.164747 -0.229566,0.247048 0.441361,0 0.882722,0 1.324085,0 -0.07356,-0.06788 -0.147121,-0.135909 -0.220827,-0.203786 -0.04035,-0.03729 -0.136341,-0.01313 -0.18441,-0.009 -0.226799,0.01807 -0.461901,0.0016 -0.689282,0.0016"
       id="path115" />
    <path
       style="fill:#010101"
       d="m 13.930157,18.985498 c -0.07065,0.0058 -0.141294,0.0118 -0.211795,0.01777 0.07633,0.07633 0.152947,0.152948 0.229566,0.229131 0,-0.06846 0.03889,-0.191549 -0.01777,-0.246898"
       id="path117" />
    <path
       style="fill:none;stroke:#010101;stroke-width:0.01765447;stroke-linecap:square;stroke-miterlimit:10"
       d="m 13.930157,18.985498 c -0.07065,0.0058 -0.141294,0.0118 -0.211795,0.01777 0.07633,0.07633 0.152947,0.152948 0.229566,0.229131 0,-0.07618 0,-0.152799 0,-0.229131"
       id="path119" />
    <path
       style="fill:#010101"
       d="m 17.478822,18.985498 c -0.441217,0.0058 -0.882869,0.0118 -1.324086,0.01777 0.06933,0.0692 0.11959,0.162274 0.203638,0.215439 0.05215,0.03336 0.14144,0.0137 0.200288,0.0137 0.107937,0 0.215728,0 0.324103,0 0.119735,0 0.324539,0.04635 0.420677,-0.03641 0.05302,-0.04573 0.163726,-0.136485 0.17538,-0.21048"
       id="path121" />
    <path
       style="fill:none;stroke:#010101;stroke-width:0.01765447;stroke-linecap:square;stroke-miterlimit:10"
       d="m 17.478822,18.985498 c -0.441217,0.0058 -0.882869,0.0118 -1.324086,0.01777 0.0689,0.06875 0.118863,0.159797 0.20058,0.215439 0.04836,0.03306 0.133428,0.014 0.18878,0.014 0.08623,0 0.17232,0 0.258117,0 0.09075,0 0.181642,0 0.272536,0 0.0587,0 0.147995,0.01967 0.200142,-0.0137 0.08405,-0.05346 0.13474,-0.146686 0.203639,-0.215582"
       id="path123" />
    <path
       style="fill:#010101"
       d="m 17.249255,23.169111 c 0.07633,0.006 0.153093,0.01194 0.22942,0.01777 -0.07633,-0.07065 -0.153092,-0.141294 -0.22942,-0.211797 0,0.0705 0,0.14115 0,0.211797 0,-0.0058 0,-0.01179 0,-0.01777"
       id="path125" />
    <path
       style="fill:none;stroke:#010101;stroke-width:0.01765447;stroke-linecap:square;stroke-miterlimit:10"
       d="m 17.249255,23.169111 c 0.07633,0.006 0.153093,0.01194 0.22942,0.01777 -0.07633,-0.07065 -0.153092,-0.141294 -0.22942,-0.211797 0,0.0705 0,0.14115 0,0.211797"
       id="path127" />
  </g>
</svg>
